<?xml version="1.0" encoding="utf-8"?>
<!-- Generator: Adobe Illustrator 21.1.0, SVG Export Plug-In . SVG Version: 6.00 Build 0)  -->
<svg version="1.1" xmlns="http://www.w3.org/2000/svg" xmlns:xlink="http://www.w3.org/1999/xlink" x="0px" y="0px"
	 viewBox="0 0 30 30" style="enable-background:new 0 0 30 30;" xml:space="preserve">
<style type="text/css">
	.st0{fill:#BDBCBC;}
	.st1{fill:none;}
	.st2{fill:#93C90E;}
	.st3{fill:#74A300;}
	.st4{fill:#00A9E5;}
	.st5{fill:#0078A0;}
	.st6{fill:#353535;}
	.st7{fill:#231F20;}
	.st8{fill:#00BFB3;}
	.st9{fill:#019B8F;}
	.st10{fill:#F9B110;}
	.st11{fill:#FED10A;}
	.st12{fill:#3EBEB0;}
	.st13{fill:#F04E98;}
	.st14{fill:#0279A0;}
	.st15{fill:#14A7DF;}
	.st16{fill:#FFFFFF;}
	.st17{fill:#868686;}
	.st18{fill:#8C8C8C;}
	.st19{opacity:0.3;fill:#231F20;enable-background:new    ;}
	.st20{fill:#BCBBBC;}
</style>
<g id="Layer_1">
</g>
<g id="XPACK_FULL">
	<g>
		<path class="st7" d="M15,15c0-2.9-0.8-4.4-0.9-4.5H2c-0.5,1.4-0.7,2.9-0.7,4.5s0.2,3.1,0.7,4.5h12.1C14.6,18.8,15,17.9,15,15z"/>
		<g transform="translate(6.375 21)">
			<path class="st8" d="M16.9,0H7.1c-0.3,0.7-0.6,1.3-1,1.9c-0.6,0.9-1.2,1.8-2,2.5C3.9,4.7,2.2,6.1,1.6,6.5C4,8.1,6.9,9,10,9
				c5.2,0,9.8-2.7,12.5-6.7C21,0.9,19.1,0,16.9,0"/>
		</g>
		<path class="st9" d="M13.5,21h-11c1.2,2.7,3.1,4.9,5.5,6.5C8,27.5,12.2,25,13.5,21z"/>
		<path class="st10" d="M10.5,4.5C10.3,4.3,10,4,9.8,3.8C9.3,3.3,8.7,2.9,8.1,2.5C5.6,4.1,3.7,6.3,2.6,9h11c-0.3-0.7-0.6-1.3-1-1.9
			C12,6.2,11.3,5.3,10.5,4.5"/>
		<path class="st11" d="M16.3,0.1c-3,0-5.9,0.8-8.3,2.4c0.6,0.4,1.2,0.9,1.7,1.4c0.3,0.2,0.6,0.5,0.8,0.7c0.8,0.8,1.4,1.6,2,2.5
			c0.4,0.6,0.7,1.3,1,1.9h9.8c2.1,0,4.1-0.9,5.5-2.3C26.1,2.8,21.5,0.1,16.3,0.1"/>
		<path class="st4" d="M22,10.5h-7.9c0,0,0.8,1.7,0.8,4.5s-0.8,4.5-0.8,4.5H22c2.5,0,4.5-2,4.5-4.5C26.4,12.5,24.4,10.5,22,10.5"/>
	</g>
	<rect x="0" y="0" class="st1" width="30" height="30"/>
</g>
</svg>
