<?xml version="1.0" standalone="no"?>
<!DOCTYPE svg PUBLIC "-//W3C//DTD SVG 1.1//EN"
"http://www.w3.org/Graphics/SVG/1.1/DTD/svg11.dtd">
<!-- Creator: fig2dev Version 3.2 Patchlevel 5c -->
<!-- CreationDate: Fri Sep 14 10:46:09 2012 -->
<!-- Magnification: 1.000 -->
<svg xmlns="http://www.w3.org/2000/svg" width="0.7in" height="0.4in" viewBox="-15 12713 877 502">
<g style="stroke-width:.025in; fill:none">
<!-- Line -->
<!--  polyline  -->
<polyline points="707,13193
246,13193
375,13116
840,13115
707,13193
" style="stroke:#026c9b;stroke-width:15;
stroke-linejoin:round; stroke-linecap:round;
"/>
<!-- Line -->
<!--  polyline  -->
<polyline points="375,13116
246,13193
246,12811
375,12736
375,13116
" style="stroke:#026c9b;stroke-width:15;
stroke-linejoin:round; stroke-linecap:round;
"/>
<!-- Line -->
<!--  spline  -->
<polyline points="761,12921
760,12922
758,12929
753,12940
751,12947
750,12948
748,12951
743,12955
738,12959
730,12965
718,12972
706,12978
699,12981
696,12982
694,12983
686,12985
670,12990
654,12994
645,12997
641,12998
638,12998
628,13000
609,13003
593,13005
579,13006
568,13007
557,13007
549,13007
542,13007
540,13007
539,13007
538,13007
533,13007
521,13006
504,13005
487,13004
475,13003
470,13003
469,13003
468,13003
462,13002
453,13000
440,12998
426,12995
408,12990
392,12985
384,12983
382,12982
379,12981
372,12978
360,12972
349,12966
343,12962
341,12961
339,12959
335,12955
328,12948
321,12939
319,12931
317,12925
317,12922
317,12921
317,12922
317,12927
317,12940
317,12960
317,12984
317,13008
317,13028
317,13041
317,13046
317,13047
318,13048
320,13055
325,13066
327,13073
328,13074
330,13077
335,13080
340,13085
348,13091
360,13098
372,13104
379,13107
382,13109
384,13110
392,13112
408,13117
424,13121
433,13123
437,13124
440,13125
450,13126
469,13129
485,13131
499,13132
510,13133
521,13133
529,13134
536,13134
538,13134
539,13134
540,13134
545,13134
557,13133
574,13132
591,13130
603,13129
608,13129
609,13129
610,13129
616,13128
625,13127
638,13125
652,13121
670,13117
686,13112
694,13110
696,13108
699,13107
706,13104
718,13098
729,13092
735,13088
737,13087
739,13085
743,13081
750,13074
757,13065
759,13057
761,13051
761,13048
761,13047
761,13046
761,13041
761,13028
761,13008
761,12984
761,12960
761,12940
761,12927
761,12922
761,12921
" style="stroke:#000000;stroke-width:0;
stroke-linejoin:bevel; stroke-linecap:round;
fill:#000000;
"/>
<!-- Line -->
<!--  spline  -->
<polyline points="761,12921
760,12922
758,12929
753,12940
751,12947
750,12948
748,12951
743,12955
738,12959
730,12965
718,12972
706,12978
699,12981
696,12982
694,12983
686,12985
670,12990
654,12994
645,12997
641,12998
638,12998
628,13000
609,13003
593,13005
579,13006
568,13007
557,13007
549,13007
542,13007
540,13007
539,13007
538,13007
533,13007
521,13006
504,13005
487,13004
475,13003
470,13003
469,13003
468,13003
462,13002
453,13000
440,12998
426,12995
408,12990
392,12985
384,12983
382,12982
379,12981
372,12978
360,12972
349,12966
343,12962
341,12961
339,12959
335,12955
328,12948
321,12939
319,12931
317,12925
317,12922
317,12921
317,12922
317,12927
317,12940
317,12960
317,12984
317,13008
317,13028
317,13041
317,13046
317,13047
318,13048
320,13055
325,13066
327,13073
328,13074
330,13077
335,13080
340,13085
348,13091
360,13098
372,13104
379,13107
382,13109
384,13110
392,13112
408,13117
424,13121
433,13123
437,13124
440,13125
450,13126
469,13129
485,13131
499,13132
510,13133
521,13133
529,13134
536,13134
538,13134
539,13134
540,13134
545,13134
557,13133
574,13132
591,13130
603,13129
608,13129
609,13129
610,13129
616,13128
625,13127
638,13125
652,13121
670,13117
686,13112
694,13110
696,13108
699,13107
706,13104
718,13098
729,13092
735,13088
737,13087
739,13085
743,13081
750,13074
757,13065
759,13057
761,13051
761,13048
761,13047
761,13046
761,13041
761,13028
761,13008
761,12984
761,12960
761,12940
761,12927
761,12922
761,12921
" style="stroke:#ffffff;stroke-width:7;
stroke-linejoin:bevel; stroke-linecap:butt;
"/>
<!-- Line -->
<!--  spline  -->
<polyline points="761,12921
760,12922
758,12929
753,12940
751,12947
750,12948
748,12951
743,12955
738,12959
730,12965
718,12972
706,12978
699,12981
696,12982
694,12983
686,12985
670,12990
654,12994
645,12997
641,12998
638,12998
628,13000
609,13003
593,13005
579,13006
568,13007
557,13007
549,13007
542,13007
540,13007
539,13007
538,13007
533,13007
521,13006
504,13005
487,13004
475,13003
470,13003
469,13003
468,13003
462,13002
453,13000
440,12998
426,12995
408,12990
392,12985
384,12983
382,12982
379,12981
372,12978
360,12972
349,12966
343,12962
341,12961
339,12959
335,12955
328,12948
321,12939
319,12931
317,12925
317,12922
317,12921
317,12922
317,12927
317,12940
317,12960
317,12984
317,13008
317,13028
317,13041
317,13046
317,13047
318,13048
320,13055
325,13066
327,13073
328,13074
330,13077
335,13080
340,13085
348,13091
360,13098
372,13104
379,13107
382,13109
384,13110
392,13112
408,13117
424,13121
433,13123
437,13124
440,13125
450,13126
469,13129
485,13131
499,13132
510,13133
521,13133
529,13134
536,13134
538,13134
539,13134
540,13134
545,13134
557,13133
574,13132
591,13130
603,13129
608,13129
609,13129
610,13129
616,13128
625,13127
638,13125
652,13121
670,13117
686,13112
694,13110
696,13108
699,13107
706,13104
718,13098
729,13092
735,13088
737,13087
739,13085
743,13081
750,13074
757,13065
759,13057
761,13051
761,13048
761,13047
761,13046
761,13041
761,13028
761,13008
761,12984
761,12960
761,12940
761,12927
761,12922
761,12921
" style="stroke:#026c9b;stroke-width:0;
stroke-linejoin:bevel; stroke-linecap:butt;
fill:#026c9b;
"/>
<!-- Line -->
<!--  spline  -->
<polyline points="761,12921
760,12922
758,12929
753,12940
751,12947
750,12948
748,12951
743,12955
738,12959
730,12965
718,12972
706,12978
699,12981
696,12982
694,12983
686,12985
670,12990
654,12994
645,12997
641,12998
638,12998
628,13000
609,13003
593,13005
579,13006
568,13007
557,13007
549,13007
542,13007
540,13007
539,13007
538,13007
533,13007
521,13006
504,13005
487,13004
475,13003
470,13003
469,13003
468,13003
462,13002
453,13000
440,12998
426,12995
408,12990
392,12985
384,12983
382,12982
379,12981
372,12978
360,12972
349,12966
343,12962
341,12961
339,12959
335,12955
328,12948
321,12939
319,12931
317,12925
317,12922
317,12921
317,12922
317,12927
317,12940
317,12960
317,12984
317,13008
317,13028
317,13041
317,13046
317,13047
318,13048
320,13055
325,13066
327,13073
328,13074
330,13077
335,13080
340,13085
348,13091
360,13098
372,13104
379,13107
382,13109
384,13110
392,13112
408,13117
424,13121
433,13123
437,13124
440,13125
450,13126
469,13129
485,13131
499,13132
510,13133
521,13133
529,13134
536,13134
538,13134
539,13134
540,13134
545,13134
557,13133
574,13132
591,13130
603,13129
608,13129
609,13129
610,13129
616,13128
625,13127
638,13125
652,13121
670,13117
686,13112
694,13110
696,13108
699,13107
706,13104
718,13098
729,13092
735,13088
737,13087
739,13085
743,13081
750,13074
757,13065
759,13057
761,13051
761,13048
761,13047
761,13046
761,13041
761,13028
761,13008
761,12984
761,12960
761,12940
761,12927
761,12922
761,12921
" style="stroke:#ffffff;stroke-width:7;
stroke-linejoin:bevel; stroke-linecap:butt;
"/>
<!-- Line -->
<!--  spline  -->
<polyline points="539,13007
540,13007
545,13007
557,13006
574,13005
591,13004
603,13003
608,13003
609,13003
610,13003
616,13002
625,13000
638,12998
652,12995
670,12990
686,12985
694,12983
696,12982
699,12981
706,12978
718,12972
729,12966
735,12962
737,12961
739,12959
743,12955
750,12948
757,12939
759,12931
761,12925
761,12922
761,12921
760,12920
758,12912
753,12902
751,12894
750,12893
748,12891
743,12887
738,12882
730,12877
718,12870
706,12864
699,12861
696,12860
694,12858
686,12856
670,12851
654,12847
645,12845
641,12844
638,12843
628,12842
609,12839
593,12837
579,12836
568,12835
557,12835
549,12834
542,12834
540,12834
539,12834
538,12834
533,12834
521,12835
504,12837
487,12838
475,12839
470,12839
469,12839
468,12839
462,12840
453,12841
440,12843
426,12847
408,12851
392,12856
384,12858
382,12860
379,12861
372,12864
360,12870
349,12876
343,12880
341,12881
339,12882
335,12886
328,12893
321,12903
319,12910
317,12916
317,12920
317,12921
318,12922
320,12929
325,12940
327,12947
328,12948
330,12951
335,12955
340,12959
348,12965
360,12972
372,12978
379,12981
382,12982
384,12983
392,12985
408,12990
424,12994
433,12997
437,12998
440,12998
450,13000
469,13003
485,13005
499,13006
510,13007
521,13007
529,13007
536,13007
538,13007
539,13007
" style="stroke:#026c9b;stroke-width:0;
stroke-linejoin:bevel; stroke-linecap:butt;
fill:#026c9b;
"/>
<!-- Line -->
<!--  spline  -->
<polyline points="539,13007
540,13007
545,13007
557,13006
574,13005
591,13004
603,13003
608,13003
609,13003
610,13003
616,13002
625,13000
638,12998
652,12995
670,12990
686,12985
694,12983
696,12982
699,12981
706,12978
718,12972
729,12966
735,12962
737,12961
739,12959
743,12955
750,12948
757,12939
759,12931
761,12925
761,12922
761,12921
760,12920
758,12912
753,12902
751,12894
750,12893
748,12891
743,12887
738,12882
730,12877
718,12870
706,12864
699,12861
696,12860
694,12858
686,12856
670,12851
654,12847
645,12845
641,12844
638,12843
628,12842
609,12839
593,12837
579,12836
568,12835
557,12835
549,12834
542,12834
540,12834
539,12834
538,12834
533,12834
521,12835
504,12837
487,12838
475,12839
470,12839
469,12839
468,12839
462,12840
453,12841
440,12843
426,12847
408,12851
392,12856
384,12858
382,12860
379,12861
372,12864
360,12870
349,12876
343,12880
341,12881
339,12882
335,12886
328,12893
321,12903
319,12910
317,12916
317,12920
317,12921
318,12922
320,12929
325,12940
327,12947
328,12948
330,12951
335,12955
340,12959
348,12965
360,12972
372,12978
379,12981
382,12982
384,12983
392,12985
408,12990
424,12994
433,12997
437,12998
440,12998
450,13000
469,13003
485,13005
499,13006
510,13007
521,13007
529,13007
536,13007
538,13007
539,13007
" style="stroke:#ffffff;stroke-width:7;
stroke-linejoin:bevel; stroke-linecap:butt;
"/>
<!-- Line -->
<!--  polyline  -->
<polyline points="490,12886
509,12914
438,12930
454,12917
345,12899
372,12878
477,12896
490,12886
" style="stroke:#ffffff;stroke-width:0;
stroke-linejoin:miter; stroke-linecap:butt;
fill:#ffffff;
"/>
<!-- Line -->
<!--  polyline  -->
<polyline points="589,12954
576,12925
640,12912
629,12922
735,12940
709,12960
604,12941
589,12954
" style="stroke:#ffffff;stroke-width:0;
stroke-linejoin:miter; stroke-linecap:butt;
fill:#ffffff;
"/>
<!-- Line -->
<!--  polyline  -->
<polyline points="555,12871
626,12851
626,12882
609,12878
574,12907
541,12902
577,12874
555,12871
" style="stroke:#ffffff;stroke-width:0;
stroke-linejoin:miter; stroke-linecap:butt;
fill:#ffffff;
"/>
<!-- Line -->
<!--  polyline  -->
<polyline points="524,12980
456,12993
454,12961
473,12965
511,12934
543,12939
504,12974
524,12980
" style="stroke:#ffffff;stroke-width:0;
stroke-linejoin:miter; stroke-linecap:butt;
fill:#ffffff;
"/>
<!-- Line -->
<!--  polyline  -->
<polyline points="707,13193
246,13193
246,12811
707,12811
707,13193
" style="stroke:#026c9b;stroke-width:15;
stroke-linejoin:round; stroke-linecap:round;
"/>
<!-- Line -->
<!--  polyline  -->
<polyline points="840,13115
707,13193
707,12811
840,12735
840,13115
" style="stroke:#026c9b;stroke-width:15;
stroke-linejoin:round; stroke-linecap:round;
"/>
<!-- Line -->
<!--  polyline  -->
<polyline points="707,12811
246,12811
375,12736
840,12735
707,12811
" style="stroke:#026c9b;stroke-width:15;
stroke-linejoin:round; stroke-linecap:round;
"/>
<!-- Line -->
<!--  polyline  -->
<polyline points="7,12979
223,12979
" style="stroke:#026c9b;stroke-width:15;
stroke-linejoin:round; stroke-linecap:round;
"/>
<!-- Line -->
<!--  polyline  -->
<polyline points="76,13042
221,13042
" style="stroke:#026c9b;stroke-width:15;
stroke-linejoin:round; stroke-linecap:round;
"/>
<!-- Line -->
<!--  polyline  -->
<polyline points="223,12890
104,12890
" style="stroke:#026c9b;stroke-width:15;
stroke-linejoin:round; stroke-linecap:round;
"/>
<!-- Line -->
<!--  polyline  -->
<polyline points="48,12947
221,12947
" style="stroke:#026c9b;stroke-width:15;
stroke-linejoin:round; stroke-linecap:round;
"/>
</g>
</svg>
