<?xml version="1.0" standalone="no"?>
<!DOCTYPE svg PUBLIC "-//W3C//DTD SVG 1.1//EN"
"http://www.w3.org/Graphics/SVG/1.1/DTD/svg11.dtd">
<!-- Creator: fig2dev Version 3.2 Patchlevel 5c -->
<!-- CreationDate: Fri Sep 14 10:46:10 2012 -->
<!-- Magnification: 1.000 -->
<svg xmlns="http://www.w3.org/2000/svg" width="0.5in" height="0.5in" viewBox="-9 12572 637 637">
<g style="stroke-width:.025in; fill:none">
<!-- Line -->
<!--  spline  -->
<polyline points="616,12703
616,12704
613,12710
608,12722
604,12733
601,12739
601,12740
600,12741
598,12744
592,12749
584,12756
573,12764
557,12773
544,12780
535,12784
530,12786
527,12787
525,12788
519,12790
508,12794
491,12799
473,12804
461,12807
455,12808
452,12809
448,12810
441,12811
428,12813
407,12816
385,12818
366,12820
350,12821
335,12822
323,12822
315,12822
311,12822
310,12822
309,12822
301,12821
284,12820
262,12819
239,12818
222,12817
214,12816
213,12816
212,12816
209,12815
201,12814
190,12813
178,12810
164,12808
148,12804
129,12799
112,12794
101,12790
95,12788
92,12787
90,12786
85,12784
75,12780
62,12773
47,12764
39,12759
36,12757
34,12755
29,12750
19,12740
11,12729
7,12720
4,12713
3,12707
3,12704
3,12703
3,12707
3,12714
3,12728
3,12749
3,12776
3,12810
3,12849
3,12890
3,12931
3,12970
3,13004
3,13031
3,13052
3,13066
3,13073
3,13077
3,13078
6,13084
11,13096
16,13108
19,13114
19,13115
19,13116
22,13119
28,13124
35,13131
46,13139
62,13148
75,13155
85,13159
90,13161
92,13162
95,13163
101,13165
112,13169
129,13174
147,13179
159,13182
165,13183
169,13184
172,13185
179,13186
192,13188
213,13191
235,13193
254,13195
270,13196
285,13197
297,13197
305,13197
309,13197
310,13197
311,13197
319,13196
336,13195
359,13194
381,13193
398,13192
406,13191
407,13191
408,13191
411,13190
419,13189
430,13188
442,13185
456,13183
473,13179
491,13174
508,13169
519,13165
525,13163
527,13162
530,13161
535,13159
544,13155
557,13148
572,13139
580,13134
583,13132
586,13131
591,13125
601,13115
609,13104
613,13095
615,13087
616,13081
616,13078
616,13077
616,13073
616,13066
616,13052
616,13031
616,13004
616,12970
616,12931
616,12890
616,12849
616,12810
616,12776
616,12749
616,12728
616,12714
616,12707
616,12703
" style="stroke:#00a5d4;stroke-width:0;
stroke-linejoin:bevel; stroke-linecap:butt;
fill:#00a5d4;
"/>
<!-- Line -->
<!--  spline  -->
<polyline points="616,12703
616,12704
613,12710
608,12722
604,12733
601,12739
601,12740
600,12741
598,12744
592,12749
584,12756
573,12764
557,12773
544,12780
535,12784
530,12786
527,12787
525,12788
519,12790
508,12794
491,12799
473,12804
461,12807
455,12808
452,12809
448,12810
441,12811
428,12813
407,12816
385,12818
366,12820
350,12821
335,12822
323,12822
315,12822
311,12822
310,12822
309,12822
301,12821
284,12820
262,12819
239,12818
222,12817
214,12816
213,12816
212,12816
209,12815
201,12814
190,12813
178,12810
164,12808
148,12804
129,12799
112,12794
101,12790
95,12788
92,12787
90,12786
85,12784
75,12780
62,12773
47,12764
39,12759
36,12757
34,12755
29,12750
19,12740
11,12729
7,12720
4,12713
3,12707
3,12704
3,12703
3,12707
3,12714
3,12728
3,12749
3,12776
3,12810
3,12849
3,12890
3,12931
3,12970
3,13004
3,13031
3,13052
3,13066
3,13073
3,13077
3,13078
6,13084
11,13096
16,13108
19,13114
19,13115
19,13116
22,13119
28,13124
35,13131
46,13139
62,13148
75,13155
85,13159
90,13161
92,13162
95,13163
101,13165
112,13169
129,13174
147,13179
159,13182
165,13183
169,13184
172,13185
179,13186
192,13188
213,13191
235,13193
254,13195
270,13196
285,13197
297,13197
305,13197
309,13197
310,13197
311,13197
319,13196
336,13195
359,13194
381,13193
398,13192
406,13191
407,13191
408,13191
411,13190
419,13189
430,13188
442,13185
456,13183
473,13179
491,13174
508,13169
519,13165
525,13163
527,13162
530,13161
535,13159
544,13155
557,13148
572,13139
580,13134
583,13132
586,13131
591,13125
601,13115
609,13104
613,13095
615,13087
616,13081
616,13078
616,13077
616,13073
616,13066
616,13052
616,13031
616,13004
616,12970
616,12931
616,12890
616,12849
616,12810
616,12776
616,12749
616,12728
616,12714
616,12707
616,12703
" style="stroke:#ffffff;stroke-width:7;
stroke-linejoin:bevel; stroke-linecap:butt;
"/>
<!-- Line -->
<!--  spline  -->
<polyline points="310,12822
311,12822
319,12821
336,12820
359,12819
381,12818
398,12817
406,12816
407,12816
408,12816
411,12815
419,12814
430,12813
442,12810
456,12808
473,12804
491,12799
508,12794
519,12790
525,12788
527,12787
530,12786
535,12784
544,12780
557,12773
572,12764
580,12759
583,12757
586,12755
591,12750
601,12740
609,12729
613,12720
615,12713
616,12707
616,12704
616,12703
616,12702
613,12696
608,12684
604,12672
601,12666
601,12665
600,12664
598,12661
592,12656
584,12649
573,12641
557,12632
544,12625
535,12621
530,12619
527,12618
525,12617
519,12616
508,12612
491,12607
473,12602
461,12599
455,12598
452,12597
448,12596
441,12595
428,12593
407,12590
385,12588
366,12586
350,12585
335,12584
323,12584
315,12584
311,12584
310,12584
309,12584
301,12585
284,12586
262,12587
239,12588
222,12589
214,12590
213,12590
212,12590
209,12591
201,12592
190,12594
178,12596
164,12599
148,12602
129,12607
112,12612
101,12616
95,12617
92,12618
90,12619
85,12621
75,12625
62,12632
47,12641
39,12646
36,12647
34,12649
29,12655
19,12665
11,12676
7,12685
4,12693
3,12699
3,12702
3,12703
3,12704
6,12710
11,12722
16,12733
19,12739
19,12740
19,12741
22,12744
28,12749
35,12756
46,12764
62,12773
75,12780
85,12784
90,12786
92,12787
95,12788
101,12790
112,12794
129,12799
147,12804
159,12807
165,12808
169,12809
172,12810
179,12811
192,12813
213,12816
235,12818
254,12820
270,12821
285,12822
297,12822
305,12822
309,12822
310,12822
" style="stroke:#00a5d4;stroke-width:0;
stroke-linejoin:bevel; stroke-linecap:butt;
fill:#00a5d4;
"/>
<!-- Line -->
<!--  spline  -->
<polyline points="310,12822
311,12822
319,12821
336,12820
359,12819
381,12818
398,12817
406,12816
407,12816
408,12816
411,12815
419,12814
430,12813
442,12810
456,12808
473,12804
491,12799
508,12794
519,12790
525,12788
527,12787
530,12786
535,12784
544,12780
557,12773
572,12764
580,12759
583,12757
586,12755
591,12750
601,12740
609,12729
613,12720
615,12713
616,12707
616,12704
616,12703
616,12702
613,12696
608,12684
604,12672
601,12666
601,12665
600,12664
598,12661
592,12656
584,12649
573,12641
557,12632
544,12625
535,12621
530,12619
527,12618
525,12617
519,12616
508,12612
491,12607
473,12602
461,12599
455,12598
452,12597
448,12596
441,12595
428,12593
407,12590
385,12588
366,12586
350,12585
335,12584
323,12584
315,12584
311,12584
310,12584
309,12584
301,12585
284,12586
262,12587
239,12588
222,12589
214,12590
213,12590
212,12590
209,12591
201,12592
190,12594
178,12596
164,12599
148,12602
129,12607
112,12612
101,12616
95,12617
92,12618
90,12619
85,12621
75,12625
62,12632
47,12641
39,12646
36,12647
34,12649
29,12655
19,12665
11,12676
7,12685
4,12693
3,12699
3,12702
3,12703
3,12704
6,12710
11,12722
16,12733
19,12739
19,12740
19,12741
22,12744
28,12749
35,12756
46,12764
62,12773
75,12780
85,12784
90,12786
92,12787
95,12788
101,12790
112,12794
129,12799
147,12804
159,12807
165,12808
169,12809
172,12810
179,12811
192,12813
213,12816
235,12818
254,12820
270,12821
285,12822
297,12822
305,12822
309,12822
310,12822
" style="stroke:#ffffff;stroke-width:7;
stroke-linejoin:bevel; stroke-linecap:butt;
"/>
<!-- Line -->
<!--  polyline  -->
<polyline points="240,12656
265,12694
169,12716
190,12699
43,12674
80,12646
222,12670
240,12656
" style="stroke:#ffffff;stroke-width:0;
stroke-linejoin:miter; stroke-linecap:butt;
fill:#ffffff;
"/>
<!-- Line -->
<!--  polyline  -->
<polyline points="375,12748
357,12709
444,12692
429,12705
573,12730
538,12757
395,12731
375,12748
" style="stroke:#ffffff;stroke-width:0;
stroke-linejoin:miter; stroke-linecap:butt;
fill:#ffffff;
"/>
<!-- Line -->
<!--  polyline  -->
<polyline points="286,12784
194,12801
190,12759
217,12764
268,12721
312,12729
258,12776
286,12784
" style="stroke:#ffffff;stroke-width:0;
stroke-linejoin:miter; stroke-linecap:butt;
fill:#ffffff;
"/>
<!-- Line -->
<!--  polyline  -->
<polyline points="568,12809
568,13092
" style="stroke:#ffffff;stroke-width:7;
stroke-linejoin:miter; stroke-linecap:butt;
"/>
<!-- Line -->
<!--  polyline  -->
<polyline points="535,12827
535,13110
" style="stroke:#ffffff;stroke-width:7;
stroke-linejoin:miter; stroke-linecap:butt;
"/>
<!-- Line -->
<!--  polyline  -->
<polyline points="501,12840
501,13124
" style="stroke:#ffffff;stroke-width:7;
stroke-linejoin:miter; stroke-linecap:butt;
"/>
<!-- Line -->
<!--  polyline  -->
<polyline points="461,12851
461,13135
" style="stroke:#ffffff;stroke-width:7;
stroke-linejoin:miter; stroke-linecap:butt;
"/>
<!-- Line -->
<!--  polyline  -->
<polyline points="423,12860
423,13143
" style="stroke:#ffffff;stroke-width:7;
stroke-linejoin:miter; stroke-linecap:butt;
"/>
<!-- Line -->
<!--  polyline  -->
<polyline points="386,12865
386,13148
" style="stroke:#ffffff;stroke-width:7;
stroke-linejoin:miter; stroke-linecap:butt;
"/>
<!-- Line -->
<!--  polyline  -->
<polyline points="345,12871
345,13154
" style="stroke:#ffffff;stroke-width:7;
stroke-linejoin:miter; stroke-linecap:butt;
"/>
<!-- Line -->
<!--  polyline  -->
<polyline points="41,12809
41,13092
" style="stroke:#ffffff;stroke-width:7;
stroke-linejoin:miter; stroke-linecap:butt;
"/>
<!-- Line -->
<!--  polyline  -->
<polyline points="74,12827
74,13110
" style="stroke:#ffffff;stroke-width:7;
stroke-linejoin:miter; stroke-linecap:butt;
"/>
<!-- Line -->
<!--  polyline  -->
<polyline points="109,12840
109,13124
" style="stroke:#ffffff;stroke-width:7;
stroke-linejoin:miter; stroke-linecap:butt;
"/>
<!-- Line -->
<!--  polyline  -->
<polyline points="148,12851
148,13135
" style="stroke:#ffffff;stroke-width:7;
stroke-linejoin:miter; stroke-linecap:butt;
"/>
<!-- Line -->
<!--  polyline  -->
<polyline points="186,12860
186,13143
" style="stroke:#ffffff;stroke-width:7;
stroke-linejoin:miter; stroke-linecap:butt;
"/>
<!-- Line -->
<!--  polyline  -->
<polyline points="224,12865
224,13148
" style="stroke:#ffffff;stroke-width:7;
stroke-linejoin:miter; stroke-linecap:butt;
"/>
<!-- Line -->
<!--  polyline  -->
<polyline points="264,12871
264,13154
" style="stroke:#ffffff;stroke-width:7;
stroke-linejoin:miter; stroke-linecap:butt;
"/>
<!-- Line -->
<!--  polyline  -->
<polyline points="305,12872
305,13155
" style="stroke:#ffffff;stroke-width:7;
stroke-linejoin:miter; stroke-linecap:butt;
"/>
<!-- Line -->
<!--  polyline  -->
<polyline points="321,12634
418,12607
419,12649
395,12644
348,12683
303,12676
351,12638
321,12634
" style="stroke:#ffffff;stroke-width:0;
stroke-linejoin:miter; stroke-linecap:butt;
fill:#ffffff;
"/>
</g>
</svg>
