<?xml version="1.0" standalone="no"?>
<!DOCTYPE svg PUBLIC "-//W3C//DTD SVG 1.1//EN"
"http://www.w3.org/Graphics/SVG/1.1/DTD/svg11.dtd">
<!-- Creator: fig2dev Version 3.2 Patchlevel 5c -->
<!-- CreationDate: Fri Sep 14 10:46:10 2012 -->
<!-- Magnification: 1.000 -->
<svg xmlns="http://www.w3.org/2000/svg" width="0.5in" height="0.2in" viewBox="-2 12922 621 282">
<g style="stroke-width:.025in; fill:none">
<!-- Line -->
<!--  polyline  -->
<polyline points="10,13029
138,12934
607,12934
514,13029
10,13029
" style="stroke:#00a5d4;stroke-width:0;
stroke-linejoin:miter; stroke-linecap:butt;
fill:#00a5d4;
"/>
<!-- Line -->
<!--  polyline  -->
<polyline points="10,13029
138,12934
607,12934
514,13029
10,13029
" style="stroke:#ffffff;stroke-width:7;
stroke-linejoin:miter; stroke-linecap:butt;
"/>
<!-- Line -->
<!--  polyline  -->
<polyline points="514,13192
607,13097
607,12934
514,13029
514,13192
" style="stroke:#00a5d4;stroke-width:0;
stroke-linejoin:miter; stroke-linecap:butt;
fill:#00a5d4;
"/>
<!-- Line -->
<!--  polyline  -->
<polyline points="514,13192
607,13097
607,12934
514,13029
514,13192
" style="stroke:#ffffff;stroke-width:7;
stroke-linejoin:miter; stroke-linecap:butt;
"/>
<!-- Line -->
<!--  polyline  -->
<polyline points="514,13192
514,13029
11,13029
11,13192
514,13192
" style="stroke:#00a5d4;stroke-width:0;
stroke-linejoin:miter; stroke-linecap:butt;
fill:#00a5d4;
"/>
<!-- Line -->
<!--  polyline  -->
<polyline points="514,13192
514,13029
11,13029
11,13192
514,13192
" style="stroke:#ffffff;stroke-width:7;
stroke-linejoin:miter; stroke-linecap:butt;
"/>
<!-- Line -->
<!--  spline  -->
<polyline points="474,13112
473,13114
471,13118
470,13120
469,13123
467,13126
464,13131
460,13136
455,13141
453,13143
452,13144
450,13146
444,13148
440,13149
437,13149
435,13149
435,13150
434,13150
432,13149
429,13148
424,13144
417,13137
412,13129
408,13122
404,13115
402,13112
402,13111
401,13110
397,13105
390,13095
384,13085
380,13080
379,13079
378,13079
376,13077
372,13076
367,13075
360,13075
354,13077
352,13079
351,13080
349,13082
344,13087
340,13092
338,13095
338,13096
337,13099
334,13103
332,13107
331,13109
330,13110
330,13111
329,13113
327,13117
326,13119
325,13122
323,13125
320,13130
316,13135
311,13140
309,13142
308,13143
306,13145
300,13147
296,13148
293,13148
292,13148
291,13149
290,13149
289,13148
286,13147
281,13143
274,13136
269,13129
264,13122
260,13115
258,13112
258,13111
257,13110
254,13105
247,13095
240,13085
237,13080
236,13079
235,13079
233,13077
228,13076
223,13075
216,13075
210,13077
208,13079
207,13080
205,13082
200,13087
196,13092
194,13095
194,13096
193,13098
190,13103
188,13107
187,13110
186,13111
186,13112
185,13114
184,13118
183,13120
182,13123
179,13126
176,13131
172,13136
167,13141
166,13143
165,13144
163,13146
157,13148
153,13149
150,13149
148,13149
148,13150
147,13150
145,13149
142,13148
137,13144
130,13137
125,13129
121,13122
117,13115
115,13112
115,13111
114,13110
110,13105
103,13095
97,13085
93,13080
92,13079
91,13079
89,13077
85,13076
80,13075
73,13075
67,13077
65,13079
64,13080
62,13082
57,13087
53,13092
51,13095
51,13096
50,13099
47,13103
45,13107
44,13109
43,13110
43,13111
" style="stroke:#ffffff;stroke-width:7;
stroke-linejoin:bevel; stroke-linecap:round;
"/>
<!-- Line -->
<!--  spline  -->
<polyline points="43,13112
44,13114
46,13118
47,13120
48,13123
50,13126
53,13131
57,13136
62,13141
64,13143
65,13144
67,13146
73,13148
77,13149
80,13149
81,13149
82,13150
83,13150
84,13149
87,13148
92,13144
99,13137
104,13129
109,13122
113,13115
115,13112
115,13111
116,13110
119,13105
126,13095
133,13085
136,13080
137,13079
138,13079
140,13077
145,13076
150,13075
157,13075
163,13077
165,13079
166,13080
168,13082
173,13087
177,13092
179,13095
179,13096
180,13099
183,13103
185,13107
186,13109
187,13110
187,13111
188,13113
189,13117
190,13119
191,13122
194,13125
197,13130
201,13135
206,13140
207,13142
208,13143
210,13145
216,13147
220,13148
223,13148
225,13148
225,13149
226,13149
228,13148
231,13147
236,13143
243,13136
248,13129
252,13122
256,13115
258,13112
258,13111
259,13110
263,13105
270,13095
276,13085
280,13080
281,13079
282,13079
284,13077
289,13076
294,13075
301,13075
307,13077
309,13079
310,13080
312,13082
316,13087
320,13092
322,13095
322,13096
323,13098
326,13103
328,13107
329,13110
330,13111
330,13112
331,13114
333,13118
334,13120
335,13123
337,13126
340,13131
344,13136
349,13141
351,13143
352,13144
354,13146
360,13148
364,13149
367,13149
368,13149
369,13150
370,13150
371,13149
374,13148
379,13144
386,13137
391,13129
396,13122
400,13115
402,13112
402,13111
403,13110
406,13105
413,13095
420,13085
423,13080
424,13079
425,13079
427,13077
432,13076
437,13075
444,13075
450,13077
452,13079
453,13080
455,13082
460,13087
464,13092
466,13095
466,13096
467,13099
470,13103
472,13107
473,13109
474,13110
474,13111
" style="stroke:#ffffff;stroke-width:15;
stroke-linejoin:bevel; stroke-linecap:round;
"/>
<!-- Line -->
<!--  spline  -->
<polyline points="481,13112
480,13114
478,13118
477,13120
476,13123
474,13126
471,13131
467,13136
463,13141
461,13143
460,13144
458,13146
452,13148
448,13149
445,13149
443,13149
443,13150
442,13150
440,13149
437,13148
432,13144
425,13137
420,13129
415,13122
411,13115
409,13112
409,13111
408,13110
405,13105
398,13095
391,13085
388,13080
387,13079
386,13079
384,13077
379,13076
374,13075
367,13075
361,13077
359,13079
358,13080
356,13082
351,13087
347,13092
345,13095
345,13096
344,13099
341,13103
339,13107
338,13109
337,13110
337,13111
336,13113
335,13117
334,13119
333,13122
330,13125
327,13130
323,13135
318,13140
317,13142
316,13143
314,13145
308,13147
304,13148
301,13148
299,13148
299,13149
298,13149
296,13148
293,13147
288,13143
281,13136
276,13129
272,13122
268,13115
266,13112
266,13111
265,13110
261,13105
254,13095
248,13085
244,13080
243,13079
242,13079
240,13077
236,13076
231,13075
224,13075
218,13077
216,13079
215,13080
213,13082
208,13087
204,13092
202,13095
202,13096
201,13098
198,13103
196,13107
195,13110
194,13111
194,13112
193,13114
191,13118
190,13120
189,13123
187,13126
184,13131
180,13136
175,13141
173,13143
172,13144
170,13146
164,13148
160,13149
157,13149
156,13149
155,13150
154,13150
153,13149
150,13148
145,13144
138,13137
133,13129
128,13122
124,13115
122,13112
122,13111
121,13110
118,13105
111,13095
104,13085
101,13080
100,13079
99,13079
97,13077
92,13076
87,13075
80,13075
74,13077
72,13079
71,13080
70,13082
65,13087
61,13092
59,13095
58,13096
57,13099
54,13103
52,13107
51,13109
51,13110
51,13111
" style="stroke:#000000;stroke-width:7;
stroke-linejoin:bevel; stroke-linecap:round;
"/>
<!-- Line -->
<!--  spline  -->
<polyline points="51,13112
52,13114
53,13118
54,13120
55,13123
58,13126
61,13131
65,13136
70,13141
71,13143
72,13144
74,13146
80,13148
84,13149
87,13149
89,13149
89,13150
90,13150
92,13149
95,13148
100,13144
107,13137
112,13129
116,13122
120,13115
122,13112
122,13111
123,13110
127,13105
134,13095
140,13085
144,13080
145,13079
146,13079
148,13077
153,13076
158,13075
165,13075
171,13077
173,13079
174,13080
175,13082
180,13087
184,13092
186,13095
187,13096
188,13099
191,13103
193,13107
194,13109
194,13110
194,13111
195,13113
197,13117
198,13119
199,13122
201,13125
204,13130
208,13135
213,13140
215,13142
216,13143
218,13145
224,13147
228,13148
231,13148
233,13148
234,13149
236,13148
239,13147
244,13143
251,13136
256,13129
260,13122
264,13115
266,13112
266,13111
267,13110
271,13105
278,13095
284,13085
288,13080
289,13079
290,13079
292,13077
296,13076
301,13075
308,13075
314,13077
316,13079
317,13080
319,13082
324,13087
328,13092
330,13095
330,13096
331,13098
334,13103
336,13107
337,13110
338,13111
338,13112
339,13114
340,13118
341,13120
342,13123
345,13126
348,13131
352,13136
357,13141
358,13143
359,13144
361,13146
367,13148
371,13149
374,13149
376,13149
376,13150
377,13150
379,13149
382,13148
387,13144
394,13137
399,13129
403,13122
407,13115
409,13112
409,13111
410,13110
414,13105
421,13095
427,13085
431,13080
432,13079
433,13079
435,13077
440,13076
445,13075
452,13075
458,13077
460,13079
461,13080
463,13082
467,13087
471,13092
473,13095
473,13096
474,13099
477,13103
479,13107
480,13109
481,13110
481,13111
" style="stroke:#000000;stroke-width:15;
stroke-linejoin:bevel; stroke-linecap:round;
"/>
<!-- Line -->
<!--  spline  -->
<polyline points="474,13112
473,13114
471,13118
470,13120
469,13123
467,13126
464,13131
460,13136
455,13141
453,13143
452,13144
450,13146
444,13148
440,13149
437,13149
435,13149
435,13150
434,13150
432,13149
429,13148
424,13144
417,13137
412,13129
408,13122
404,13115
402,13112
402,13111
401,13110
397,13105
390,13095
384,13085
380,13080
379,13079
378,13079
376,13077
372,13076
367,13075
360,13075
354,13077
352,13079
351,13080
349,13082
344,13087
340,13092
338,13095
338,13096
337,13099
334,13103
332,13107
331,13109
330,13110
330,13111
329,13113
327,13117
326,13119
325,13122
323,13125
320,13130
316,13135
311,13140
309,13142
308,13143
306,13145
300,13147
296,13148
293,13148
292,13148
291,13149
290,13149
289,13148
286,13147
281,13143
274,13136
269,13129
264,13122
260,13115
258,13112
258,13111
257,13110
254,13105
247,13095
240,13085
237,13080
236,13079
235,13079
233,13077
228,13076
223,13075
216,13075
210,13077
208,13079
207,13080
205,13082
200,13087
196,13092
194,13095
194,13096
193,13098
190,13103
188,13107
187,13110
186,13111
186,13112
185,13114
184,13118
183,13120
182,13123
179,13126
176,13131
172,13136
167,13141
166,13143
165,13144
163,13146
157,13148
153,13149
150,13149
148,13149
148,13150
147,13150
145,13149
142,13148
137,13144
130,13137
125,13129
121,13122
117,13115
115,13112
115,13111
114,13110
110,13105
103,13095
97,13085
93,13080
92,13079
91,13079
89,13077
85,13076
80,13075
73,13075
67,13077
65,13079
64,13080
62,13082
57,13087
53,13092
51,13095
51,13096
50,13099
47,13103
45,13107
44,13109
43,13110
43,13111
" style="stroke:#ffffff;stroke-width:7;
stroke-linejoin:bevel; stroke-linecap:round;
"/>
<!-- Line -->
<!--  spline  -->
<polyline points="43,13112
44,13114
46,13118
47,13120
48,13123
50,13126
53,13131
57,13136
62,13141
64,13143
65,13144
67,13146
73,13148
77,13149
80,13149
81,13149
82,13150
83,13150
84,13149
87,13148
92,13144
99,13137
104,13129
109,13122
113,13115
115,13112
115,13111
116,13110
119,13105
126,13095
133,13085
136,13080
137,13079
138,13079
140,13077
145,13076
150,13075
157,13075
163,13077
165,13079
166,13080
168,13082
173,13087
177,13092
179,13095
179,13096
180,13099
183,13103
185,13107
186,13109
187,13110
187,13111
188,13113
189,13117
190,13119
191,13122
194,13125
197,13130
201,13135
206,13140
207,13142
208,13143
210,13145
216,13147
220,13148
223,13148
225,13148
225,13149
226,13149
228,13148
231,13147
236,13143
243,13136
248,13129
252,13122
256,13115
258,13112
258,13111
259,13110
263,13105
270,13095
276,13085
280,13080
281,13079
282,13079
284,13077
289,13076
294,13075
301,13075
307,13077
309,13079
310,13080
312,13082
316,13087
320,13092
322,13095
322,13096
323,13098
326,13103
328,13107
329,13110
330,13111
330,13112
331,13114
333,13118
334,13120
335,13123
337,13126
340,13131
344,13136
349,13141
351,13143
352,13144
354,13146
360,13148
364,13149
367,13149
368,13149
369,13150
370,13150
371,13149
374,13148
379,13144
386,13137
391,13129
396,13122
400,13115
402,13112
402,13111
403,13110
406,13105
413,13095
420,13085
423,13080
424,13079
425,13079
427,13077
432,13076
437,13075
444,13075
450,13077
452,13079
453,13080
455,13082
460,13087
464,13092
466,13095
466,13096
467,13099
470,13103
472,13107
473,13109
474,13110
474,13111
" style="stroke:#ffffff;stroke-width:15;
stroke-linejoin:bevel; stroke-linecap:round;
"/>
<!-- Line -->
<!--  spline  -->
<polyline points="481,13112
480,13114
478,13118
477,13120
476,13123
474,13126
471,13131
467,13136
463,13141
461,13143
460,13144
458,13146
452,13148
448,13149
445,13149
443,13149
443,13150
442,13150
440,13149
437,13148
432,13144
425,13137
420,13129
415,13122
411,13115
409,13112
409,13111
408,13110
405,13105
398,13095
391,13085
388,13080
387,13079
386,13079
384,13077
379,13076
374,13075
367,13075
361,13077
359,13079
358,13080
356,13082
351,13087
347,13092
345,13095
345,13096
344,13099
341,13103
339,13107
338,13109
337,13110
337,13111
336,13113
335,13117
334,13119
333,13122
330,13125
327,13130
323,13135
318,13140
317,13142
316,13143
314,13145
308,13147
304,13148
301,13148
299,13148
299,13149
298,13149
296,13148
293,13147
288,13143
281,13136
276,13129
272,13122
268,13115
266,13112
266,13111
265,13110
261,13105
254,13095
248,13085
244,13080
243,13079
242,13079
240,13077
236,13076
231,13075
224,13075
218,13077
216,13079
215,13080
213,13082
208,13087
204,13092
202,13095
202,13096
201,13098
198,13103
196,13107
195,13110
194,13111
194,13112
193,13114
191,13118
190,13120
189,13123
187,13126
184,13131
180,13136
175,13141
173,13143
172,13144
170,13146
164,13148
160,13149
157,13149
156,13149
155,13150
154,13150
153,13149
150,13148
145,13144
138,13137
133,13129
128,13122
124,13115
122,13112
122,13111
121,13110
118,13105
111,13095
104,13085
101,13080
100,13079
99,13079
97,13077
92,13076
87,13075
80,13075
74,13077
72,13079
71,13080
70,13082
65,13087
61,13092
59,13095
58,13096
57,13099
54,13103
52,13107
51,13109
51,13110
51,13111
" style="stroke:#000000;stroke-width:7;
stroke-linejoin:bevel; stroke-linecap:round;
"/>
<!-- Line -->
<!--  spline  -->
<polyline points="51,13112
52,13114
53,13118
54,13120
55,13123
58,13126
61,13131
65,13136
70,13141
71,13143
72,13144
74,13146
80,13148
84,13149
87,13149
89,13149
89,13150
90,13150
92,13149
95,13148
100,13144
107,13137
112,13129
116,13122
120,13115
122,13112
122,13111
123,13110
127,13105
134,13095
140,13085
144,13080
145,13079
146,13079
148,13077
153,13076
158,13075
165,13075
171,13077
173,13079
174,13080
175,13082
180,13087
184,13092
186,13095
187,13096
188,13099
191,13103
193,13107
194,13109
194,13110
194,13111
195,13113
197,13117
198,13119
199,13122
201,13125
204,13130
208,13135
213,13140
215,13142
216,13143
218,13145
224,13147
228,13148
231,13148
233,13148
234,13149
236,13148
239,13147
244,13143
251,13136
256,13129
260,13122
264,13115
266,13112
266,13111
267,13110
271,13105
278,13095
284,13085
288,13080
289,13079
290,13079
292,13077
296,13076
301,13075
308,13075
314,13077
316,13079
317,13080
319,13082
324,13087
328,13092
330,13095
330,13096
331,13098
334,13103
336,13107
337,13110
338,13111
338,13112
339,13114
340,13118
341,13120
342,13123
345,13126
348,13131
352,13136
357,13141
358,13143
359,13144
361,13146
367,13148
371,13149
374,13149
376,13149
376,13150
377,13150
379,13149
382,13148
387,13144
394,13137
399,13129
403,13122
407,13115
409,13112
409,13111
410,13110
414,13105
421,13095
427,13085
431,13080
432,13079
433,13079
435,13077
440,13076
445,13075
452,13075
458,13077
460,13079
461,13080
463,13082
467,13087
471,13092
473,13095
473,13096
474,13099
477,13103
479,13107
480,13109
481,13110
481,13111
" style="stroke:#000000;stroke-width:15;
stroke-linejoin:bevel; stroke-linecap:round;
"/>
<!-- Line -->
<!--  spline  -->
<polyline points="474,13112
473,13114
471,13118
470,13120
469,13123
467,13126
464,13131
460,13136
455,13141
453,13143
452,13144
450,13146
444,13148
440,13149
437,13149
435,13149
435,13150
434,13150
432,13149
429,13148
424,13144
417,13137
412,13129
408,13122
404,13115
402,13112
402,13111
401,13110
397,13105
390,13095
384,13085
380,13080
379,13079
378,13079
376,13077
372,13076
367,13075
360,13075
354,13077
352,13079
351,13080
349,13082
344,13087
340,13092
338,13095
338,13096
337,13099
334,13103
332,13107
331,13109
330,13110
330,13111
329,13113
327,13117
326,13119
325,13122
323,13125
320,13130
316,13135
311,13140
309,13142
308,13143
306,13145
300,13147
296,13148
293,13148
292,13148
291,13149
290,13149
289,13148
286,13147
281,13143
274,13136
269,13129
264,13122
260,13115
258,13112
258,13111
257,13110
254,13105
247,13095
240,13085
237,13080
236,13079
235,13079
233,13077
228,13076
223,13075
216,13075
210,13077
208,13079
207,13080
205,13082
200,13087
196,13092
194,13095
194,13096
193,13098
190,13103
188,13107
187,13110
186,13111
186,13112
185,13114
184,13118
183,13120
182,13123
179,13126
176,13131
172,13136
167,13141
166,13143
165,13144
163,13146
157,13148
153,13149
150,13149
148,13149
148,13150
147,13150
145,13149
142,13148
137,13144
130,13137
125,13129
121,13122
117,13115
115,13112
115,13111
114,13110
110,13105
103,13095
97,13085
93,13080
92,13079
91,13079
89,13077
85,13076
80,13075
73,13075
67,13077
65,13079
64,13080
62,13082
57,13087
53,13092
51,13095
51,13096
50,13099
47,13103
45,13107
44,13109
43,13110
43,13111
" style="stroke:#ffffff;stroke-width:7;
stroke-linejoin:bevel; stroke-linecap:round;
"/>
<!-- Line -->
<!--  spline  -->
<polyline points="43,13112
44,13114
46,13118
47,13120
48,13123
50,13126
53,13131
57,13136
62,13141
64,13143
65,13144
67,13146
73,13148
77,13149
80,13149
81,13149
82,13150
83,13150
84,13149
87,13148
92,13144
99,13137
104,13129
109,13122
113,13115
115,13112
115,13111
116,13110
119,13105
126,13095
133,13085
136,13080
137,13079
138,13079
140,13077
145,13076
150,13075
157,13075
163,13077
165,13079
166,13080
168,13082
173,13087
177,13092
179,13095
179,13096
180,13099
183,13103
185,13107
186,13109
187,13110
187,13111
188,13113
189,13117
190,13119
191,13122
194,13125
197,13130
201,13135
206,13140
207,13142
208,13143
210,13145
216,13147
220,13148
223,13148
225,13148
225,13149
226,13149
228,13148
231,13147
236,13143
243,13136
248,13129
252,13122
256,13115
258,13112
258,13111
259,13110
263,13105
270,13095
276,13085
280,13080
281,13079
282,13079
284,13077
289,13076
294,13075
301,13075
307,13077
309,13079
310,13080
312,13082
316,13087
320,13092
322,13095
322,13096
323,13098
326,13103
328,13107
329,13110
330,13111
330,13112
331,13114
333,13118
334,13120
335,13123
337,13126
340,13131
344,13136
349,13141
351,13143
352,13144
354,13146
360,13148
364,13149
367,13149
368,13149
369,13150
370,13150
371,13149
374,13148
379,13144
386,13137
391,13129
396,13122
400,13115
402,13112
402,13111
403,13110
406,13105
413,13095
420,13085
423,13080
424,13079
425,13079
427,13077
432,13076
437,13075
444,13075
450,13077
452,13079
453,13080
455,13082
460,13087
464,13092
466,13095
466,13096
467,13099
470,13103
472,13107
473,13109
474,13110
474,13111
" style="stroke:#ffffff;stroke-width:15;
stroke-linejoin:bevel; stroke-linecap:round;
"/>
</g>
</svg>
