<?xml version="1.0" standalone="no"?>
<!DOCTYPE svg PUBLIC "-//W3C//DTD SVG 1.1//EN"
"http://www.w3.org/Graphics/SVG/1.1/DTD/svg11.dtd">
<!-- Creator: fig2dev Version 3.2 Patchlevel 5c -->
<!-- CreationDate: Fri Sep 14 10:46:10 2012 -->
<!-- Magnification: 1.000 -->
<svg xmlns="http://www.w3.org/2000/svg" width="0.6in" height="0.4in" viewBox="4752 6333 733 530">
<g style="stroke-width:.025in; fill:none">
<!-- Line -->
<!--  polyline  -->
<polyline points="4764,6851
5400,6851
5400,6433
4764,6433
4764,6851
" style="stroke:#00a5d4;stroke-width:0;
stroke-linejoin:miter; stroke-linecap:butt;
fill:#00a5d4;
"/>
<!-- Line -->
<!--  polyline  -->
<polyline points="4764,6851
5400,6851
5400,6433
4764,6433
4764,6851
" style="stroke:#ffffff;stroke-width:7;
stroke-linejoin:miter; stroke-linecap:butt;
"/>
<!-- Line -->
<!--  polyline  -->
<polyline points="5473,6744
5400,6851
5400,6433
5473,6345
5473,6744
" style="stroke:#00a5d4;stroke-width:0;
stroke-linejoin:miter; stroke-linecap:butt;
fill:#00a5d4;
"/>
<!-- Line -->
<!--  polyline  -->
<polyline points="5473,6744
5400,6851
5400,6433
5473,6345
5473,6744
" style="stroke:#ffffff;stroke-width:7;
stroke-linejoin:miter; stroke-linecap:butt;
"/>
<!-- Line -->
<!--  polyline  -->
<polyline points="4874,6345
5473,6345
5400,6433
4764,6433
4874,6345
" style="stroke:#00a5d4;stroke-width:0;
stroke-linejoin:miter; stroke-linecap:butt;
fill:#00a5d4;
"/>
<!-- Line -->
<!--  polyline  -->
<polyline points="4874,6345
5473,6345
5400,6433
4764,6433
4874,6345
" style="stroke:#ffffff;stroke-width:7;
stroke-linejoin:miter; stroke-linecap:butt;
"/>
<!-- Line -->
<!--  polyline  -->
<polyline points="5312,6649
5206,6649
5206,6632
5312,6632
5312,6606
5374,6641
5312,6676
5312,6649
" style="stroke:#ffffff;stroke-width:0;
stroke-linejoin:miter; stroke-linecap:butt;
fill:#ffffff;
"/>
<!-- Line -->
<!--  polyline  -->
<polyline points="4886,6649
4780,6649
4780,6632
4886,6632
4886,6606
4948,6641
4886,6676
4886,6649
" style="stroke:#ffffff;stroke-width:0;
stroke-linejoin:miter; stroke-linecap:butt;
fill:#ffffff;
"/>
<!-- Line -->
<!--  polyline  -->
<polyline points="5294,6537
5205,6595
5195,6581
5285,6523
5270,6500
5341,6496
5308,6559
5294,6537
" style="stroke:#ffffff;stroke-width:0;
stroke-linejoin:miter; stroke-linecap:butt;
fill:#ffffff;
"/>
<!-- Line -->
<!--  polyline  -->
<polyline points="5294,6746
5205,6688
5195,6702
5285,6760
5270,6782
5341,6786
5308,6723
5294,6746
" style="stroke:#ffffff;stroke-width:0;
stroke-linejoin:miter; stroke-linecap:butt;
fill:#ffffff;
"/>
<!-- Line -->
<!--  spline  -->
<polyline points="5183,6639
5183,6641
5181,6649
5180,6662
5178,6670
5178,6672
5178,6673
5176,6677
5173,6683
5169,6691
5163,6701
5156,6709
5153,6713
5152,6714
5148,6717
5140,6723
5131,6729
5127,6731
5126,6732
5121,6734
5111,6738
5099,6741
5090,6743
5083,6744
5079,6744
5078,6744
5076,6744
5068,6742
5055,6740
5047,6738
5045,6738
5044,6738
5040,6736
5034,6733
5026,6729
5016,6723
5008,6717
5004,6714
5003,6713
5000,6709
4993,6701
4987,6692
4984,6688
4984,6687
4982,6682
4978,6672
4975,6660
4974,6651
4973,6644
4973,6640
4973,6639
4973,6637
4975,6629
4976,6615
4978,6607
4978,6605
4978,6604
4980,6600
4983,6594
4987,6587
4993,6577
5000,6569
5003,6565
5004,6564
5008,6561
5016,6554
5025,6548
5029,6545
5030,6545
5035,6543
5045,6539
5057,6536
5066,6535
5073,6534
5077,6534
5078,6534
5080,6534
5088,6536
5101,6537
5109,6539
5111,6539
5112,6539
5116,6541
5122,6544
5130,6548
5140,6554
5148,6561
5152,6564
5153,6565
5156,6569
5163,6577
5169,6586
5172,6589
5172,6591
5174,6595
5178,6605
5181,6617
5182,6626
5183,6633
5183,6638
5183,6639
" style="stroke:#00a5d4;stroke-width:0;
stroke-linejoin:bevel; stroke-linecap:butt;
fill:#00a5d4;
"/>
<!-- Line -->
<!--  spline  -->
<polyline points="5183,6639
5183,6641
5181,6649
5180,6662
5178,6670
5178,6672
5178,6673
5176,6677
5173,6683
5169,6691
5163,6701
5156,6709
5153,6713
5152,6714
5148,6717
5140,6723
5131,6729
5127,6731
5126,6732
5121,6734
5111,6738
5099,6741
5090,6743
5083,6744
5079,6744
5078,6744
5076,6744
5068,6742
5055,6740
5047,6738
5045,6738
5044,6738
5040,6736
5034,6733
5026,6729
5016,6723
5008,6717
5004,6714
5003,6713
5000,6709
4993,6701
4987,6692
4984,6688
4984,6687
4982,6682
4978,6672
4975,6660
4974,6651
4973,6644
4973,6640
4973,6639
4973,6637
4975,6629
4976,6615
4978,6607
4978,6605
4978,6604
4980,6600
4983,6594
4987,6587
4993,6577
5000,6569
5003,6565
5004,6564
5008,6561
5016,6554
5025,6548
5029,6545
5030,6545
5035,6543
5045,6539
5057,6536
5066,6535
5073,6534
5077,6534
5078,6534
5080,6534
5088,6536
5101,6537
5109,6539
5111,6539
5112,6539
5116,6541
5122,6544
5130,6548
5140,6554
5148,6561
5152,6564
5153,6565
5156,6569
5163,6577
5169,6586
5172,6589
5172,6591
5174,6595
5178,6605
5181,6617
5182,6626
5183,6633
5183,6638
5183,6639
" style="stroke:#ffffff;stroke-width:15;
stroke-linejoin:bevel; stroke-linecap:butt;
"/>
</g>
</svg>
