<?xml version="1.0" standalone="no"?>
<!DOCTYPE svg PUBLIC "-//W3C//DTD SVG 1.1//EN"
"http://www.w3.org/Graphics/SVG/1.1/DTD/svg11.dtd">
<!-- Creator: fig2dev Version 3.2 Patchlevel 5c -->
<!-- CreationDate: Fri Sep 14 10:46:11 2012 -->
<!-- Magnification: 1.000 -->
<svg xmlns="http://www.w3.org/2000/svg" width="0.5in" height="0.4in" viewBox="-4 12762 619 445">
<g style="stroke-width:.025in; fill:none">
<!-- Line -->
<!--  polyline  -->
<polyline points="10,12828
79,12774
603,12774
532,12828
10,12828
" style="stroke:#00a5d4;stroke-width:0;
stroke-linejoin:miter; stroke-linecap:butt;
fill:#00a5d4;
"/>
<!-- Line -->
<!--  polyline  -->
<polyline points="10,12828
79,12774
603,12774
532,12828
10,12828
" style="stroke:#ffffff;stroke-width:7;
stroke-linejoin:miter; stroke-linecap:butt;
"/>
<!-- Line -->
<!--  polyline  -->
<polyline points="532,13195
10,13195
" style="stroke:#ffffff;stroke-width:7;
stroke-linejoin:round; stroke-linecap:round;
"/>
<!-- Line -->
<!--  polyline  -->
<polyline points="534,12825
534,13195
8,13195
8,12824
534,12825
" style="stroke:#00a5d4;stroke-width:0;
stroke-linejoin:round; stroke-linecap:round;
fill:#00a5d4;
"/>
<!-- Line -->
<!--  polyline  -->
<polyline points="534,12825
534,13195
8,13195
8,12824
534,12825
" style="stroke:#ffffff;stroke-width:7;
stroke-linejoin:miter; stroke-linecap:butt;
"/>
<!-- Line -->
<!--  polyline  -->
<polyline points="600,13139
600,12775
532,12826
532,13193
600,13139
" style="stroke:#00a5d4;stroke-width:0;
stroke-linejoin:miter; stroke-linecap:butt;
fill:#00a5d4;
"/>
<!-- Line -->
<!--  polyline  -->
<polyline points="600,13139
600,12775
532,12826
532,13193
600,13139
" style="stroke:#ffffff;stroke-width:7;
stroke-linejoin:miter; stroke-linecap:butt;
"/>
<!-- Line -->
<!--  polyline  -->
<polyline points="489,13054
419,13054
419,13044
385,13064
419,13086
419,13075
489,13075
489,13054
" style="stroke:#ffffff;stroke-width:0;
stroke-linejoin:miter; stroke-linecap:butt;
fill:#ffffff;
"/>
<!-- Line -->
<!--  polyline  -->
<polyline points="147,12936
78,12936
78,12926
43,12946
78,12968
78,12957
147,12957
147,12936
" style="stroke:#ffffff;stroke-width:0;
stroke-linejoin:miter; stroke-linecap:butt;
fill:#ffffff;
"/>
<!-- Line -->
<!--  polyline  -->
<polyline points="398,12959
465,12959
465,12969
499,12948
465,12927
465,12937
398,12937
398,12959
" style="stroke:#ffffff;stroke-width:0;
stroke-linejoin:miter; stroke-linecap:butt;
fill:#ffffff;
"/>
<!-- Line -->
<!--  polyline  -->
<polyline points="48,13076
115,13076
115,13086
149,13066
115,13044
115,13055
48,13055
48,13076
" style="stroke:#ffffff;stroke-width:0;
stroke-linejoin:miter; stroke-linecap:butt;
fill:#ffffff;
"/>
<!-- Line -->
<!--  spline  -->
<polyline points="112,13162
112,13161
112,13159
112,13158
112,13157
113,13156
113,13155
114,13154
115,13153
115,13152
116,13151
117,13150
118,13150
119,13150
120,13149
121,13149
123,13148
124,13148
125,13148
127,13149
128,13149
129,13149
130,13149
131,13150
132,13151
133,13151
133,13152
134,13153
135,13154
135,13155
136,13156
136,13157
137,13158
137,13159
137,13160
137,13161
137,13163
137,13164
137,13165
136,13166
136,13167
135,13168
134,13169
134,13170
133,13171
132,13172
131,13172
130,13172
129,13173
128,13173
126,13174
125,13174
124,13174
122,13173
121,13173
120,13173
119,13173
118,13172
117,13171
116,13171
116,13170
115,13169
114,13168
114,13167
113,13166
113,13165
112,13164
112,13163
112,13162
" style="stroke:#ffffff;stroke-width:0;
stroke-linejoin:bevel; stroke-linecap:butt;
fill:#ffffff;
"/>
<!-- Line -->
<!--  spline  -->
<polyline points="112,13162
112,13161
112,13159
112,13158
112,13157
113,13156
113,13155
114,13154
115,13153
115,13152
116,13151
117,13150
118,13150
119,13150
120,13149
121,13149
123,13148
124,13148
125,13148
127,13149
128,13149
129,13149
130,13149
131,13150
132,13151
133,13151
133,13152
134,13153
135,13154
135,13155
136,13156
136,13157
137,13158
137,13159
137,13160
137,13161
137,13163
137,13164
137,13165
136,13166
136,13167
135,13168
134,13169
134,13170
133,13171
132,13172
131,13172
130,13172
129,13173
128,13173
126,13174
125,13174
124,13174
122,13173
121,13173
120,13173
119,13173
118,13172
117,13171
116,13171
116,13170
115,13169
114,13168
114,13167
113,13166
113,13165
112,13164
112,13163
112,13162
" style="stroke:#000000;stroke-width:7;
stroke-linejoin:bevel; stroke-linecap:butt;
"/>
<!-- Line -->
<!--  polyline  -->
<polyline points="139,13171
113,13148
180,13073
206,13096
139,13171
" style="stroke:#ffffff;stroke-width:0;
stroke-linejoin:miter; stroke-linecap:butt;
fill:#ffffff;
"/>
<!-- Line -->
<!--  polyline  -->
<polyline points="139,13171
113,13148
180,13073
206,13096
139,13171
" style="stroke:#000000;stroke-width:7;
stroke-linejoin:miter; stroke-linecap:butt;
"/>
<!-- Line -->
<!--  spline  -->
<polyline points="178,12979
178,12977
181,12969
184,12958
187,12950
187,12948
187,12947
189,12944
193,12938
198,12931
205,12922
212,12915
215,12912
217,12911
220,12908
229,12903
238,12898
242,12896
244,12896
248,12895
258,12892
270,12890
279,12890
286,12890
290,12890
291,12890
293,12890
301,12893
312,12896
320,12899
322,12899
323,12899
326,12901
332,12904
339,12909
348,12916
355,12923
358,12927
359,12928
362,12932
367,12941
372,12950
374,12954
375,12956
376,12960
379,12970
381,12981
381,12990
381,12997
380,13001
380,13002
380,13004
377,13012
374,13024
371,13032
371,13034
371,13035
369,13038
366,13044
361,13051
354,13060
347,13067
343,13070
342,13071
338,13074
329,13079
320,13084
316,13086
314,13086
310,13087
300,13090
289,13092
280,13092
273,13092
269,13092
268,13092
266,13092
258,13089
246,13086
238,13083
236,13083
235,13083
232,13081
226,13077
219,13072
210,13065
203,13058
200,13055
199,13053
196,13050
191,13041
186,13032
184,13028
184,13026
183,13022
180,13012
178,13000
178,12991
178,12984
178,12980
178,12979
" style="stroke:#ffffff;stroke-width:0;
stroke-linejoin:bevel; stroke-linecap:butt;
fill:#ffffff;
"/>
<!-- Line -->
<!--  spline  -->
<polyline points="162,12978
162,12979
162,12985
163,12997
164,13008
164,13014
164,13015
164,13016
165,13019
166,13024
169,13031
172,13039
177,13049
182,13058
185,13063
187,13065
188,13066
192,13071
199,13078
207,13085
211,13088
213,13090
214,13091
219,13093
229,13098
240,13102
249,13105
256,13106
262,13107
265,13108
266,13108
267,13108
273,13108
285,13107
297,13106
303,13106
304,13106
305,13106
308,13105
313,13104
320,13101
328,13098
338,13093
348,13087
352,13084
354,13083
358,13079
366,13071
373,13063
376,13059
378,13057
379,13056
381,13051
386,13041
390,13030
393,13021
394,13014
395,13008
396,13005
396,13004
396,13003
396,12997
395,12985
395,12974
395,12968
395,12967
395,12966
394,12963
393,12958
390,12951
387,12943
382,12933
376,12924
373,12919
372,12917
370,12916
367,12911
359,12904
351,12897
347,12894
345,12892
343,12891
338,12889
329,12884
318,12880
310,12877
303,12876
297,12875
294,12874
293,12874
292,12874
286,12874
274,12875
262,12875
256,12875
255,12875
254,12875
251,12876
246,12877
239,12880
231,12883
221,12888
212,12894
208,12897
206,12898
204,12900
200,12903
193,12911
186,12919
182,12923
181,12925
180,12927
177,12931
172,12941
168,12952
165,12961
163,12968
163,12974
162,12977
162,12978
" style="stroke:#ffffff;stroke-width:0;
stroke-linejoin:bevel; stroke-linecap:butt;
fill:#ffffff;
"/>
<!-- Line -->
<!--  spline  -->
<polyline points="178,12979
178,12977
181,12969
184,12958
187,12950
187,12948
187,12947
189,12944
193,12938
198,12931
205,12922
212,12915
215,12912
217,12911
220,12908
229,12903
238,12898
242,12896
244,12896
248,12895
258,12892
270,12890
279,12890
286,12890
290,12890
291,12890
293,12890
301,12893
312,12896
320,12899
322,12899
323,12899
326,12901
332,12904
339,12909
348,12916
355,12923
358,12927
359,12928
362,12932
367,12941
372,12950
374,12954
375,12956
376,12960
379,12970
381,12981
381,12990
381,12997
380,13001
380,13002
380,13004
377,13012
374,13024
371,13032
371,13034
371,13035
369,13038
366,13044
361,13051
354,13060
347,13067
343,13070
342,13071
338,13074
329,13079
320,13084
316,13086
314,13086
310,13087
300,13090
289,13092
280,13092
273,13092
269,13092
268,13092
266,13092
258,13089
246,13086
238,13083
236,13083
235,13083
232,13081
226,13077
219,13072
210,13065
203,13058
200,13055
199,13053
196,13050
191,13041
186,13032
184,13028
184,13026
183,13022
180,13012
178,13000
178,12991
178,12984
178,12980
178,12979
" style="stroke:#000000;stroke-width:7;
stroke-linejoin:bevel; stroke-linecap:butt;
"/>
<!-- Line -->
<!--  spline  -->
<polyline points="162,12978
162,12979
162,12985
163,12997
164,13008
164,13014
164,13015
164,13016
165,13019
166,13024
169,13031
172,13039
177,13049
182,13058
185,13063
187,13065
188,13066
192,13071
199,13078
207,13085
211,13088
213,13090
214,13091
219,13093
229,13098
240,13102
249,13105
256,13106
262,13107
265,13108
266,13108
267,13108
273,13108
285,13107
297,13106
303,13106
304,13106
305,13106
308,13105
313,13104
320,13101
328,13098
338,13093
348,13087
352,13084
354,13083
358,13079
366,13071
373,13063
376,13059
378,13057
379,13056
381,13051
386,13041
390,13030
393,13021
394,13014
395,13008
396,13005
396,13004
396,13003
396,12997
395,12985
395,12974
395,12968
395,12967
395,12966
394,12963
393,12958
390,12951
387,12943
382,12933
376,12924
373,12919
372,12917
370,12916
367,12911
359,12904
351,12897
347,12894
345,12892
343,12891
338,12889
329,12884
318,12880
310,12877
303,12876
297,12875
294,12874
293,12874
292,12874
286,12874
274,12875
262,12875
256,12875
255,12875
254,12875
251,12876
246,12877
239,12880
231,12883
221,12888
212,12894
208,12897
206,12898
204,12900
200,12903
193,12911
186,12919
182,12923
181,12925
180,12927
177,12931
172,12941
168,12952
165,12961
163,12968
163,12974
162,12977
162,12978
" style="stroke:#000000;stroke-width:7;
stroke-linejoin:bevel; stroke-linecap:butt;
"/>
<!-- Line -->
<!--  spline  -->
<polyline points="164,12985
164,12983
167,12975
170,12963
173,12955
173,12953
173,12952
175,12949
178,12943
183,12936
190,12927
197,12920
201,12917
202,12916
206,12913
215,12908
224,12903
228,12901
230,12901
234,12900
244,12897
255,12895
264,12895
271,12895
275,12895
276,12895
278,12895
286,12898
297,12901
305,12904
307,12904
308,12904
312,12906
318,12910
325,12915
334,12922
341,12929
344,12932
345,12934
348,12937
353,12946
358,12955
360,12959
360,12961
361,12965
364,12975
366,12987
366,12996
366,13003
366,13007
366,13008
366,13010
363,13018
360,13029
357,13037
357,13039
357,13040
355,13043
351,13049
346,13056
339,13065
332,13072
329,13075
327,13076
324,13079
315,13084
306,13089
302,13091
300,13091
296,13092
286,13095
274,13097
265,13097
258,13097
254,13097
253,13097
251,13097
243,13094
232,13091
224,13088
222,13088
221,13088
218,13086
212,13083
205,13078
196,13071
189,13064
186,13060
185,13059
182,13055
177,13046
172,13037
170,13033
169,13031
168,13027
165,13017
163,13006
163,12997
163,12990
164,12986
164,12985
" style="stroke:#ffffff;stroke-width:0;
stroke-linejoin:bevel; stroke-linecap:butt;
fill:#ffffff;
"/>
<!-- Line -->
<!--  spline  -->
<polyline points="147,12983
147,12984
147,12990
148,13002
149,13013
149,13019
149,13020
149,13021
150,13024
151,13029
154,13036
157,13044
162,13054
168,13063
171,13068
172,13070
174,13071
177,13076
185,13083
193,13090
197,13093
199,13095
201,13096
206,13098
215,13103
226,13107
234,13110
241,13111
247,13112
250,13113
251,13113
252,13113
258,13113
270,13112
282,13112
288,13112
289,13112
290,13112
293,13111
298,13110
305,13107
313,13104
323,13099
332,13093
336,13090
338,13089
340,13087
344,13084
351,13076
358,13068
362,13064
363,13062
364,13060
367,13055
372,13046
376,13035
379,13027
381,13020
381,13014
382,13011
382,13010
382,13009
382,13003
381,12991
380,12979
380,12973
380,12972
380,12971
379,12968
378,12963
375,12956
372,12948
367,12938
362,12929
359,12924
357,12922
356,12921
352,12916
345,12909
337,12902
332,12899
331,12897
329,12896
324,12894
314,12889
303,12885
295,12882
287,12881
282,12880
279,12879
278,12879
277,12879
271,12879
259,12880
247,12881
241,12881
240,12881
239,12881
236,12882
231,12883
224,12886
216,12889
206,12894
196,12900
192,12903
190,12904
186,12908
178,12916
171,12924
168,12928
167,12930
166,12931
163,12936
158,12946
154,12957
151,12966
149,12973
148,12979
147,12982
147,12983
" style="stroke:#ffffff;stroke-width:0;
stroke-linejoin:bevel; stroke-linecap:butt;
fill:#ffffff;
"/>
<!-- Line -->
<!--  spline  -->
<polyline points="164,12985
164,12983
167,12975
170,12963
173,12955
173,12953
173,12952
175,12949
178,12943
183,12936
190,12927
197,12920
201,12917
202,12916
206,12913
215,12908
224,12903
228,12901
230,12901
234,12900
244,12897
255,12895
264,12895
271,12895
275,12895
276,12895
278,12895
286,12898
297,12901
305,12904
307,12904
308,12904
312,12906
318,12910
325,12915
334,12922
341,12929
344,12932
345,12934
348,12937
353,12946
358,12955
360,12959
360,12961
361,12965
364,12975
366,12987
366,12996
366,13003
366,13007
366,13008
366,13010
363,13018
360,13029
357,13037
357,13039
357,13040
355,13043
351,13049
346,13056
339,13065
332,13072
329,13075
327,13076
324,13079
315,13084
306,13089
302,13091
300,13091
296,13092
286,13095
274,13097
265,13097
258,13097
254,13097
253,13097
251,13097
243,13094
232,13091
224,13088
222,13088
221,13088
218,13086
212,13083
205,13078
196,13071
189,13064
186,13060
185,13059
182,13055
177,13046
172,13037
170,13033
169,13031
168,13027
165,13017
163,13006
163,12997
163,12990
164,12986
164,12985
" style="stroke:#000000;stroke-width:7;
stroke-linejoin:bevel; stroke-linecap:butt;
"/>
<!-- Line -->
<!--  spline  -->
<polyline points="147,12983
147,12984
147,12990
148,13002
149,13013
149,13019
149,13020
149,13021
150,13024
151,13029
154,13036
157,13044
162,13054
168,13063
171,13068
172,13070
174,13071
177,13076
185,13083
193,13090
197,13093
199,13095
201,13096
206,13098
215,13103
226,13107
234,13110
241,13111
247,13112
250,13113
251,13113
252,13113
258,13113
270,13112
282,13112
288,13112
289,13112
290,13112
293,13111
298,13110
305,13107
313,13104
323,13099
332,13093
336,13090
338,13089
340,13087
344,13084
351,13076
358,13068
362,13064
363,13062
364,13060
367,13055
372,13046
376,13035
379,13027
381,13020
381,13014
382,13011
382,13010
382,13009
382,13003
381,12991
380,12979
380,12973
380,12972
380,12971
379,12968
378,12963
375,12956
372,12948
367,12938
362,12929
359,12924
357,12922
356,12921
352,12916
345,12909
337,12902
332,12899
331,12897
329,12896
324,12894
314,12889
303,12885
295,12882
287,12881
282,12880
279,12879
278,12879
277,12879
271,12879
259,12880
247,12881
241,12881
240,12881
239,12881
236,12882
231,12883
224,12886
216,12889
206,12894
196,12900
192,12903
190,12904
186,12908
178,12916
171,12924
168,12928
167,12930
166,12931
163,12936
158,12946
154,12957
151,12966
149,12973
148,12979
147,12982
147,12983
" style="stroke:#000000;stroke-width:7;
stroke-linejoin:bevel; stroke-linecap:butt;
"/>
<!-- Line -->
<!--  spline  -->
<polyline points="312,13060
313,13060
314,13060
315,13060
316,13060
316,13059
316,13058
316,13057
316,13056
317,13056
317,13054
317,13044
317,13026
317,13009
317,12999
317,12997
317,12996
316,12996
316,12995
316,12994
316,12993
315,12993
314,12993
314,12992
313,12992
312,12992
311,12992
304,12992
288,12992
267,12992
245,12992
229,12992
222,12992
221,12992
220,12992
219,12992
218,12993
217,12994
216,12994
216,12995
216,12996
216,12997
216,12999
216,13009
216,13027
216,13044
216,13054
216,13056
216,13057
216,13058
217,13058
217,13059
217,13060
218,13060
219,13060
220,13060
221,13060
222,13060
229,13060
245,13060
267,13060
288,13060
304,13060
311,13060
312,13060
" style="stroke:#00a5d4;stroke-width:0;
stroke-linejoin:bevel; stroke-linecap:butt;
fill:#00a5d4;
"/>
<!-- Line -->
<!--  spline  -->
<polyline points="312,13060
313,13060
314,13060
315,13060
316,13060
316,13059
316,13058
316,13057
316,13056
317,13056
317,13054
317,13044
317,13026
317,13009
317,12999
317,12997
317,12996
316,12996
316,12995
316,12994
316,12993
315,12993
314,12993
314,12992
313,12992
312,12992
311,12992
304,12992
288,12992
267,12992
245,12992
229,12992
222,12992
221,12992
220,12992
219,12992
218,12993
217,12994
216,12994
216,12995
216,12996
216,12997
216,12999
216,13009
216,13027
216,13044
216,13054
216,13056
216,13057
216,13058
217,13058
217,13059
217,13060
218,13060
219,13060
220,13060
221,13060
222,13060
229,13060
245,13060
267,13060
288,13060
304,13060
311,13060
312,13060
" style="stroke:#ffffff;stroke-width:7;
stroke-linejoin:bevel; stroke-linecap:round;
"/>
<!-- Line -->
<!--  polyline  -->
<polyline points="317,12992
336,12973
235,12973
216,12992
317,12992
" style="stroke:#00a5d4;stroke-width:0;
stroke-linejoin:round; stroke-linecap:round;
fill:#00a5d4;
"/>
<!-- Line -->
<!--  polyline  -->
<polyline points="317,12992
336,12973
235,12973
216,12992
317,12992
" style="stroke:#ffffff;stroke-width:7;
stroke-linejoin:round; stroke-linecap:round;
"/>
<!-- Line -->
<!--  polyline  -->
<polyline points="336,13041
336,12973
317,12992
317,13060
336,13041
" style="stroke:#00a5d4;stroke-width:0;
stroke-linejoin:round; stroke-linecap:round;
fill:#00a5d4;
"/>
<!-- Line -->
<!--  polyline  -->
<polyline points="336,13041
336,12973
317,12992
317,13060
336,13041
" style="stroke:#ffffff;stroke-width:7;
stroke-linejoin:round; stroke-linecap:round;
"/>
<!-- Line -->
<!--  spline  -->
<polyline points="277,12930
274,12931
271,12931
268,12932
267,12933
265,12933
263,12934
261,12936
259,12938
258,12938
257,12938
257,12939
255,12941
254,12943
253,12944
253,12945
252,12948
251,12951
251,12953
250,12956
250,12957
250,12958
250,12964
250,12973
250,12979
250,12980
250,12981
250,12982
250,12983
249,12983
248,12983
248,12984
247,12984
246,12984
245,12984
244,12984
243,12984
242,12984
242,12983
241,12983
240,12983
240,12982
240,12981
240,12980
240,12974
240,12965
240,12959
240,12958
240,12957
241,12955
241,12950
242,12948
242,12947
243,12945
243,12943
245,12940
247,12937
249,12934
250,12933
251,12932
252,12931
255,12929
258,12927
259,12926
260,12926
262,12925
265,12924
269,12923
272,12922
274,12922
276,12922
277,12922
279,12923
284,12923
286,12924
287,12924
289,12925
291,12925
294,12927
297,12929
300,12931
301,12932
302,12933
303,12934
305,12937
307,12940
308,12941
308,12942
309,12944
310,12947
311,12951
312,12954
312,12956
312,12958
312,12959
312,12966
312,12975
312,12982
312,12983
312,12984
311,12985
311,12986
310,12986
309,12986
308,12986
307,12986
306,12986
305,12986
304,12985
303,12985
303,12984
303,12983
302,12983
302,12982
302,12981
302,12980
302,12974
302,12964
302,12958
302,12957
302,12954
301,12951
301,12948
300,12947
300,12945
299,12943
297,12941
295,12939
295,12938
294,12938
292,12936
290,12935
289,12934
287,12933
285,12932
282,12931
280,12930
278,12930
277,12930
" style="stroke:#00a5d4;stroke-width:0;
stroke-linejoin:bevel; stroke-linecap:round;
fill:#00a5d4;
"/>
<!-- Line -->
<!--  spline  -->
<polyline points="277,12930
274,12931
271,12931
268,12932
267,12933
265,12933
263,12934
261,12936
259,12938
258,12938
257,12938
257,12939
255,12941
254,12943
253,12944
253,12945
252,12948
251,12951
251,12953
250,12956
250,12957
250,12958
250,12964
250,12973
250,12979
250,12980
250,12981
250,12982
250,12983
249,12983
248,12983
248,12984
247,12984
246,12984
245,12984
244,12984
243,12984
242,12984
242,12983
241,12983
240,12983
240,12982
240,12981
240,12980
240,12974
240,12965
240,12959
240,12958
240,12957
241,12955
241,12950
242,12948
242,12947
243,12945
243,12943
245,12940
247,12937
249,12934
250,12933
251,12932
252,12931
255,12929
258,12927
259,12926
260,12926
262,12925
265,12924
269,12923
272,12922
274,12922
276,12922
277,12922
279,12923
284,12923
286,12924
287,12924
289,12925
291,12925
294,12927
297,12929
300,12931
301,12932
302,12933
303,12934
305,12937
307,12940
308,12941
308,12942
309,12944
310,12947
311,12951
312,12954
312,12956
312,12958
312,12959
312,12966
312,12975
312,12982
312,12983
312,12984
311,12985
311,12986
310,12986
309,12986
308,12986
307,12986
306,12986
305,12986
304,12985
303,12985
303,12984
303,12983
302,12983
302,12982
302,12981
302,12980
302,12974
302,12964
302,12958
302,12957
302,12954
301,12951
301,12948
300,12947
300,12945
299,12943
297,12941
295,12939
295,12938
294,12938
292,12936
290,12935
289,12934
287,12933
285,12932
282,12931
280,12930
278,12930
277,12930
" style="stroke:#ffffff;stroke-width:7;
stroke-linejoin:bevel; stroke-linecap:round;
"/>
<!-- Line -->
<!--  spline  -->
<polyline points="266,13032
267,13032
268,13032
269,13032
270,13031
271,13030
272,13029
273,13028
273,13027
274,13027
274,13026
274,13025
274,13024
274,13023
274,13022
274,13021
274,13019
274,13018
274,13017
273,13016
273,13015
272,13014
271,13013
270,13012
270,13011
269,13011
268,13011
267,13011
266,13011
265,13011
264,13011
263,13011
263,13012
262,13012
261,13013
260,13014
260,13015
259,13016
258,13017
258,13018
258,13019
258,13020
258,13021
258,13022
258,13023
258,13024
258,13025
258,13026
259,13026
259,13027
260,13028
260,13029
261,13030
262,13031
263,13031
263,13032
264,13032
265,13032
266,13032
" style="stroke:#ffffff;stroke-width:0;
stroke-linejoin:bevel; stroke-linecap:round;
fill:#ffffff;
"/>
<!-- Line -->
<!--  polyline  -->
<polyline points="269,13043
269,13022
264,13026
264,13047
269,13043
" style="stroke:#ffffff;stroke-width:0;
stroke-linejoin:round; stroke-linecap:round;
fill:#ffffff;
"/>
</g>
</svg>
