<?xml version="1.0" standalone="no"?>
<!DOCTYPE svg PUBLIC "-//W3C//DTD SVG 1.1//EN"
"http://www.w3.org/Graphics/SVG/1.1/DTD/svg11.dtd">
<!-- Creator: fig2dev Version 3.2 Patchlevel 5c -->
<!-- CreationDate: Fri Sep 14 10:46:11 2012 -->
<!-- Magnification: 1.000 -->
<svg xmlns="http://www.w3.org/2000/svg" width="0.5in" height="0.5in" viewBox="-9 12550 573 659">
<g style="stroke-width:.025in; fill:none">
<!-- Line -->
<!--  spline  -->
<polyline points="205,12636
205,12637
204,12643
202,12652
201,12658
201,12659
201,12660
200,12663
197,12667
194,12673
190,12680
186,12686
184,12688
183,12689
181,12691
175,12695
169,12699
166,12701
165,12702
161,12703
154,12706
146,12708
140,12709
135,12710
132,12710
131,12710
130,12710
124,12709
115,12707
109,12706
108,12706
107,12706
105,12705
100,12702
95,12699
88,12695
82,12691
80,12689
79,12688
77,12686
72,12680
68,12674
66,12671
65,12670
64,12666
61,12659
59,12651
58,12645
57,12640
57,12637
57,12636
57,12635
58,12629
60,12620
61,12614
61,12613
61,12612
62,12609
64,12605
67,12599
72,12592
77,12586
79,12584
80,12583
82,12581
88,12577
94,12573
97,12571
98,12570
101,12569
108,12566
116,12564
122,12563
127,12562
130,12562
131,12562
132,12562
138,12563
147,12565
153,12566
154,12566
155,12566
158,12567
162,12570
168,12573
175,12577
181,12581
183,12583
184,12584
186,12586
190,12592
194,12598
196,12601
197,12602
198,12606
201,12613
203,12621
204,12627
205,12632
205,12635
205,12636
" style="stroke:#02709f;stroke-width:0;
stroke-linejoin:bevel; stroke-linecap:butt;
fill:#02709f;
"/>
<!-- Line -->
<!--  spline  -->
<polyline points="205,12636
205,12637
204,12643
202,12652
201,12658
201,12659
201,12660
200,12663
197,12667
194,12673
190,12680
186,12686
184,12688
183,12689
181,12691
175,12695
169,12699
166,12701
165,12702
161,12703
154,12706
146,12708
140,12709
135,12710
132,12710
131,12710
130,12710
124,12709
115,12707
109,12706
108,12706
107,12706
105,12705
100,12702
95,12699
88,12695
82,12691
80,12689
79,12688
77,12686
72,12680
68,12674
66,12671
65,12670
64,12666
61,12659
59,12651
58,12645
57,12640
57,12637
57,12636
57,12635
58,12629
60,12620
61,12614
61,12613
61,12612
62,12609
64,12605
67,12599
72,12592
77,12586
79,12584
80,12583
82,12581
88,12577
94,12573
97,12571
98,12570
101,12569
108,12566
116,12564
122,12563
127,12562
130,12562
131,12562
132,12562
138,12563
147,12565
153,12566
154,12566
155,12566
158,12567
162,12570
168,12573
175,12577
181,12581
183,12583
184,12584
186,12586
190,12592
194,12598
196,12601
197,12602
198,12606
201,12613
203,12621
204,12627
205,12632
205,12635
205,12636
" style="stroke:#ffffff;stroke-width:7;
stroke-linejoin:bevel; stroke-linecap:butt;
"/>
<!-- Line -->
<!--  polyline  -->
<polyline points="552,13197
245,13197
245,12871
552,12871
552,13197
" style="stroke:#02709f;stroke-width:0;
stroke-linejoin:miter; stroke-linecap:butt;
fill:#02709f;
"/>
<!-- Line -->
<!--  polyline  -->
<polyline points="552,13197
245,13197
245,12871
552,12871
552,13197
" style="stroke:#ffffff;stroke-width:7;
stroke-linejoin:miter; stroke-linecap:butt;
"/>
<!-- Line -->
<!--  polyline  -->
<polyline points="352,12829
531,12829
531,12870
352,12870
352,12829
" style="stroke:#02709f;stroke-width:0;
stroke-linejoin:miter; stroke-linecap:butt;
fill:#02709f;
"/>
<!-- Line -->
<!--  polyline  -->
<polyline points="352,12829
531,12829
531,12870
352,12870
352,12829
" style="stroke:#ffffff;stroke-width:7;
stroke-linejoin:miter; stroke-linecap:butt;
"/>
<!-- Line -->
<!--  spline  -->
<polyline points="495,12726
495,12727
495,12731
495,12741
495,12758
495,12778
495,12797
495,12814
495,12824
495,12828
495,12829
494,12829
488,12829
474,12829
452,12829
425,12829
399,12829
377,12829
363,12829
357,12829
356,12829
356,12828
356,12822
356,12808
356,12787
356,12760
356,12733
356,12712
356,12698
356,12692
356,12691
357,12691
362,12692
374,12693
393,12696
417,12699
441,12702
460,12705
472,12706
477,12707
478,12707
479,12707
480,12707
481,12707
482,12707
484,12708
486,12709
487,12709
487,12710
489,12711
490,12713
491,12713
491,12714
492,12715
493,12717
494,12720
495,12722
495,12724
495,12726
" style="stroke:#02709f;stroke-width:0;
stroke-linejoin:bevel; stroke-linecap:butt;
fill:#02709f;
"/>
<!-- Line -->
<!--  spline  -->
<polyline points="495,12726
495,12727
495,12731
495,12741
495,12758
495,12778
495,12797
495,12814
495,12824
495,12828
495,12829
494,12829
488,12829
474,12829
452,12829
425,12829
399,12829
377,12829
363,12829
357,12829
356,12829
356,12828
356,12822
356,12808
356,12787
356,12760
356,12733
356,12712
356,12698
356,12692
356,12691
357,12691
362,12692
374,12693
393,12696
417,12699
441,12702
460,12705
472,12706
477,12707
478,12707
479,12707
480,12707
481,12707
482,12707
484,12708
486,12709
487,12709
487,12710
489,12711
490,12713
491,12713
491,12714
492,12715
493,12717
494,12720
495,12722
495,12724
495,12726
" style="stroke:#ffffff;stroke-width:7;
stroke-linejoin:bevel; stroke-linecap:butt;
"/>
<!-- Line -->
<!--  spline  -->
<polyline points="227,13155
226,13155
219,13155
205,13155
185,13155
164,13155
150,13155
143,13155
142,13155
142,13154
142,13150
142,13140
142,13124
142,13104
142,13085
142,13069
142,13059
142,13055
142,13054
141,13054
134,13054
121,13054
108,13054
101,13054
100,13054
100,13055
100,13059
100,13069
100,13085
100,13105
100,13124
100,13140
100,13150
100,13154
100,13155
99,13155
92,13155
78,13155
59,13155
39,13155
25,13155
18,13155
17,13155
15,13155
14,13155
12,13155
11,13156
10,13156
9,13157
8,13158
7,13158
7,13159
6,13160
5,13161
5,13162
5,13163
4,13164
4,13165
3,13167
3,13168
3,13169
3,13173
3,13178
3,13182
3,13183
3,13184
4,13186
4,13187
4,13188
5,13189
5,13190
6,13191
7,13192
7,13193
8,13193
9,13194
10,13195
11,13195
12,13196
14,13196
15,13197
16,13197
17,13197
18,13197
21,13197
30,13197
45,13197
66,13197
93,13197
122,13197
151,13197
178,13197
199,13197
214,13197
223,13197
226,13197
227,13197
228,13197
230,13196
231,13196
232,13196
233,13195
234,13195
235,13194
236,13193
237,13193
237,13192
238,13191
239,13190
239,13189
239,13188
239,13187
239,13186
240,13184
240,13183
240,13182
240,13178
240,13173
240,13169
240,13168
240,13167
239,13165
239,13164
239,13163
239,13162
239,13161
238,13160
237,13159
237,13158
236,13158
235,13157
234,13156
233,13156
232,13155
231,13155
230,13155
228,13155
227,13155
" style="stroke:#02709f;stroke-width:0;
stroke-linejoin:bevel; stroke-linecap:butt;
fill:#02709f;
"/>
<!-- Line -->
<!--  spline  -->
<polyline points="227,13155
226,13155
219,13155
205,13155
185,13155
164,13155
150,13155
143,13155
142,13155
142,13154
142,13150
142,13140
142,13124
142,13104
142,13085
142,13069
142,13059
142,13055
142,13054
141,13054
134,13054
121,13054
108,13054
101,13054
100,13054
100,13055
100,13059
100,13069
100,13085
100,13105
100,13124
100,13140
100,13150
100,13154
100,13155
99,13155
92,13155
78,13155
59,13155
39,13155
25,13155
18,13155
17,13155
15,13155
14,13155
12,13155
11,13156
10,13156
9,13157
8,13158
7,13158
7,13159
6,13160
5,13161
5,13162
5,13163
4,13164
4,13165
3,13167
3,13168
3,13169
3,13173
3,13178
3,13182
3,13183
3,13184
4,13186
4,13187
4,13188
5,13189
5,13190
6,13191
7,13192
7,13193
8,13193
9,13194
10,13195
11,13195
12,13196
14,13196
15,13197
16,13197
17,13197
18,13197
21,13197
30,13197
45,13197
66,13197
93,13197
122,13197
151,13197
178,13197
199,13197
214,13197
223,13197
226,13197
227,13197
228,13197
230,13196
231,13196
232,13196
233,13195
234,13195
235,13194
236,13193
237,13193
237,13192
238,13191
239,13190
239,13189
239,13188
239,13187
239,13186
240,13184
240,13183
240,13182
240,13178
240,13173
240,13169
240,13168
240,13167
239,13165
239,13164
239,13163
239,13162
239,13161
238,13160
237,13159
237,13158
236,13158
235,13157
234,13156
233,13156
232,13155
231,13155
230,13155
228,13155
227,13155
" style="stroke:#ffffff;stroke-width:7;
stroke-linejoin:bevel; stroke-linecap:butt;
"/>
<!-- Line -->
<!--  spline  -->
<polyline points="231,13008
230,13008
226,13008
215,13008
197,13008
172,13008
143,13008
115,13008
90,13008
72,13008
61,13008
57,13008
56,13008
56,13007
56,13003
56,12993
56,12975
56,12950
56,12919
56,12884
56,12849
56,12818
56,12793
56,12775
56,12765
56,12761
56,12760
56,12758
56,12757
56,12755
56,12754
55,12753
54,12752
53,12751
52,12750
52,12749
51,12749
50,12748
49,12747
48,12747
47,12747
46,12746
45,12746
43,12745
42,12745
41,12745
37,12745
30,12745
26,12745
25,12745
23,12745
22,12746
20,12746
19,12746
18,12747
17,12747
16,12748
15,12749
14,12749
14,12750
13,12751
12,12752
12,12753
12,12754
11,12755
11,12757
10,12758
10,12759
10,12760
10,12761
10,12764
10,12772
10,12786
10,12806
10,12833
10,12865
10,12900
10,12934
10,12966
10,12993
10,13013
10,13027
10,13035
10,13038
10,13039
10,13041
11,13042
11,13044
11,13045
12,13046
12,13047
13,13048
14,13049
14,13050
15,13050
16,13051
17,13052
18,13052
19,13052
20,13053
22,13053
23,13054
24,13054
25,13054
26,13054
30,13054
37,13054
41,13054
42,13054
43,13054
48,13054
59,13054
79,13054
106,13054
137,13054
167,13054
194,13054
214,13054
225,13054
230,13054
231,13054
232,13054
234,13053
235,13053
236,13053
237,13052
238,13052
239,13051
240,13050
241,13050
241,13049
242,13048
243,13047
244,13046
244,13045
245,13044
245,13042
245,13041
245,13040
245,13039
245,13038
245,13034
245,13027
245,13023
245,13022
245,13021
245,13019
245,13018
245,13017
244,13016
243,13015
242,13014
241,13013
241,13012
240,13012
239,13011
238,13010
237,13009
236,13009
235,13008
234,13008
232,13008
231,13008
" style="stroke:#02709f;stroke-width:0;
stroke-linejoin:bevel; stroke-linecap:butt;
fill:#02709f;
"/>
<!-- Line -->
<!--  spline  -->
<polyline points="231,13008
230,13008
226,13008
215,13008
197,13008
172,13008
143,13008
115,13008
90,13008
72,13008
61,13008
57,13008
56,13008
56,13007
56,13003
56,12993
56,12975
56,12950
56,12919
56,12884
56,12849
56,12818
56,12793
56,12775
56,12765
56,12761
56,12760
56,12758
56,12757
56,12755
56,12754
55,12753
54,12752
53,12751
52,12750
52,12749
51,12749
50,12748
49,12747
48,12747
47,12747
46,12746
45,12746
43,12745
42,12745
41,12745
37,12745
30,12745
26,12745
25,12745
23,12745
22,12746
20,12746
19,12746
18,12747
17,12747
16,12748
15,12749
14,12749
14,12750
13,12751
12,12752
12,12753
12,12754
11,12755
11,12757
10,12758
10,12759
10,12760
10,12761
10,12764
10,12772
10,12786
10,12806
10,12833
10,12865
10,12900
10,12934
10,12966
10,12993
10,13013
10,13027
10,13035
10,13038
10,13039
10,13041
11,13042
11,13044
11,13045
12,13046
12,13047
13,13048
14,13049
14,13050
15,13050
16,13051
17,13052
18,13052
19,13052
20,13053
22,13053
23,13054
24,13054
25,13054
26,13054
30,13054
37,13054
41,13054
42,13054
43,13054
48,13054
59,13054
79,13054
106,13054
137,13054
167,13054
194,13054
214,13054
225,13054
230,13054
231,13054
232,13054
234,13053
235,13053
236,13053
237,13052
238,13052
239,13051
240,13050
241,13050
241,13049
242,13048
243,13047
244,13046
244,13045
245,13044
245,13042
245,13041
245,13040
245,13039
245,13038
245,13034
245,13027
245,13023
245,13022
245,13021
245,13019
245,13018
245,13017
244,13016
243,13015
242,13014
241,13013
241,13012
240,13012
239,13011
238,13010
237,13009
236,13009
235,13008
234,13008
232,13008
231,13008
" style="stroke:#ffffff;stroke-width:7;
stroke-linejoin:bevel; stroke-linecap:butt;
"/>
<!-- Line -->
<!--  spline  -->
<polyline points="190,12726
191,12726
194,12729
202,12735
216,12745
235,12759
257,12775
279,12790
298,12804
312,12814
320,12820
323,12823
324,12823
325,12824
326,12825
327,12826
327,12827
328,12827
328,12829
329,12830
330,12831
330,12832
330,12833
331,12834
331,12835
332,12836
332,12837
332,12838
332,12840
333,12841
333,12842
333,12843
333,12845
332,12849
332,12851
332,12852
331,12854
330,12856
328,12859
326,12861
325,12862
325,12863
324,12863
322,12865
320,12866
318,12867
317,12867
314,12868
311,12869
309,12869
307,12870
306,12870
305,12870
304,12870
303,12870
302,12870
301,12869
300,12869
299,12869
298,12868
297,12868
296,12868
295,12867
294,12867
293,12867
292,12866
291,12866
290,12866
285,12862
274,12856
257,12845
235,12831
213,12817
196,12806
185,12800
180,12796
179,12796
179,12797
179,12802
179,12815
179,12835
179,12859
179,12883
179,12903
179,12916
179,12921
179,12922
181,12922
191,12922
211,12922
230,12922
240,12922
242,12922
242,12923
242,12929
242,12943
242,12963
242,12982
242,12996
242,13002
242,13003
241,13003
237,13003
225,13003
207,13003
182,13003
152,13003
123,13003
98,13003
80,13003
68,13003
64,13003
63,13003
63,12999
63,12992
63,12978
63,12959
63,12933
63,12902
63,12870
63,12837
63,12806
63,12780
63,12761
63,12747
63,12740
63,12736
63,12735
63,12734
63,12733
64,12732
65,12731
66,12729
67,12727
68,12726
68,12725
69,12724
71,12722
74,12720
75,12719
76,12719
78,12718
82,12717
87,12716
92,12715
96,12715
98,12715
99,12715
100,12715
105,12715
116,12715
131,12715
146,12715
157,12715
162,12715
163,12715
164,12715
165,12715
166,12715
166,12716
167,12716
168,12716
170,12716
171,12716
172,12716
174,12717
176,12718
178,12719
179,12720
182,12721
185,12723
187,12724
189,12725
190,12726
" style="stroke:#02709f;stroke-width:0;
stroke-linejoin:bevel; stroke-linecap:butt;
fill:#02709f;
"/>
<!-- Line -->
<!--  spline  -->
<polyline points="190,12726
191,12726
194,12729
202,12735
216,12745
235,12759
257,12775
279,12790
298,12804
312,12814
320,12820
323,12823
324,12823
325,12824
326,12825
327,12826
327,12827
328,12827
328,12829
329,12830
330,12831
330,12832
330,12833
331,12834
331,12835
332,12836
332,12837
332,12838
332,12840
333,12841
333,12842
333,12843
333,12845
332,12849
332,12851
332,12852
331,12854
330,12856
328,12859
326,12861
325,12862
325,12863
324,12863
322,12865
320,12866
318,12867
317,12867
314,12868
311,12869
309,12869
307,12870
306,12870
305,12870
304,12870
303,12870
302,12870
301,12869
300,12869
299,12869
298,12868
297,12868
296,12868
295,12867
294,12867
293,12867
292,12866
291,12866
290,12866
285,12862
274,12856
257,12845
235,12831
213,12817
196,12806
185,12800
180,12796
179,12796
179,12797
179,12802
179,12815
179,12835
179,12859
179,12883
179,12903
179,12916
179,12921
179,12922
181,12922
191,12922
211,12922
230,12922
240,12922
242,12922
242,12923
242,12929
242,12943
242,12963
242,12982
242,12996
242,13002
242,13003
241,13003
237,13003
225,13003
207,13003
182,13003
152,13003
123,13003
98,13003
80,13003
68,13003
64,13003
63,13003
63,12999
63,12992
63,12978
63,12959
63,12933
63,12902
63,12870
63,12837
63,12806
63,12780
63,12761
63,12747
63,12740
63,12736
63,12735
63,12734
63,12733
64,12732
65,12731
66,12729
67,12727
68,12726
68,12725
69,12724
71,12722
74,12720
75,12719
76,12719
78,12718
82,12717
87,12716
92,12715
96,12715
98,12715
99,12715
100,12715
105,12715
116,12715
131,12715
146,12715
157,12715
162,12715
163,12715
164,12715
165,12715
166,12715
166,12716
167,12716
168,12716
170,12716
171,12716
172,12716
174,12717
176,12718
178,12719
179,12720
182,12721
185,12723
187,12724
189,12725
190,12726
" style="stroke:#ffffff;stroke-width:7;
stroke-linejoin:bevel; stroke-linecap:butt;
"/>
</g>
</svg>
