<?xml version="1.0" standalone="no"?>
<!DOCTYPE svg PUBLIC "-//W3C//DTD SVG 1.1//EN"
"http://www.w3.org/Graphics/SVG/1.1/DTD/svg11.dtd">
<!-- Creator: fig2dev Version 3.2 Patchlevel 5c -->
<!-- CreationDate: Fri Sep 14 10:46:12 2012 -->
<!-- Magnification: 1.000 -->
<svg xmlns="http://www.w3.org/2000/svg" width="0.7in" height="0.3in" viewBox="-3 12788 820 416">
<g style="stroke-width:.025in; fill:none">
<!-- Line -->
<!--  polyline  -->
<polyline points="9,12999
250,12804
805,12804
606,12999
9,12999
" style="stroke:#00a5d4;stroke-width:0;
stroke-linejoin:miter; stroke-linecap:butt;
fill:#00a5d4;
"/>
<!-- Line -->
<!--  polyline  -->
<polyline points="9,12999
250,12804
805,12804
606,12999
9,12999
" style="stroke:#ffffff;stroke-width:7;
stroke-linejoin:miter; stroke-linecap:butt;
"/>
<!-- Line -->
<!--  polyline  -->
<polyline points="606,13192
805,12996
805,12800
606,12999
606,13192
" style="stroke:#00a5d4;stroke-width:0;
stroke-linejoin:miter; stroke-linecap:butt;
fill:#00a5d4;
"/>
<!-- Line -->
<!--  polyline  -->
<polyline points="606,13192
805,12996
805,12800
606,12999
606,13192
" style="stroke:#ffffff;stroke-width:7;
stroke-linejoin:miter; stroke-linecap:butt;
"/>
<!-- Line -->
<!--  polyline  -->
<polyline points="606,13192
606,12999
10,12999
10,13192
606,13192
" style="stroke:#00a5d4;stroke-width:0;
stroke-linejoin:miter; stroke-linecap:butt;
fill:#00a5d4;
"/>
<!-- Line -->
<!--  polyline  -->
<polyline points="606,13192
606,12999
10,12999
10,13192
606,13192
" style="stroke:#ffffff;stroke-width:7;
stroke-linejoin:miter; stroke-linecap:butt;
"/>
<!-- Line -->
<!--  spline  -->
<polyline points="363,13029
364,13029
365,13029
366,13029
367,13029
368,13029
368,13030
369,13030
370,13031
371,13032
372,13033
372,13034
373,13035
373,13036
373,13038
374,13045
374,13057
375,13064
375,13066
377,13066
385,13068
402,13071
418,13073
426,13075
428,13075
428,13074
430,13072
431,13067
433,13065
433,13064
433,13063
430,13057
426,13045
423,13034
420,13028
420,13027
419,13027
413,13025
401,13023
389,13021
383,13019
382,13019
381,13019
377,13018
369,13018
361,13017
350,13016
341,13015
338,13015
337,13015
334,13015
327,13015
321,13015
319,13015
318,13015
316,13015
312,13015
309,13015
307,13015
306,13015
307,13015
308,13015
309,13015
308,13015
306,13015
305,13015
304,13015
301,13015
298,13015
292,13015
286,13015
283,13015
282,13015
279,13015
271,13016
262,13017
259,13017
257,13017
253,13017
242,13019
231,13021
223,13023
215,13025
209,13026
206,13027
205,13027
205,13028
202,13034
198,13046
194,13057
191,13063
191,13064
191,13065
193,13067
195,13072
197,13074
197,13075
199,13075
207,13073
224,13070
240,13068
248,13066
250,13066
250,13064
251,13057
251,13045
252,13038
252,13036
252,13035
253,13033
253,13032
254,13032
254,13031
255,13031
256,13030
257,13030
257,13029
258,13029
259,13029
260,13029
261,13029
262,13029
266,13029
276,13029
292,13029
312,13029
332,13029
348,13029
358,13029
362,13029
363,13029
" style="stroke:#ffffff;stroke-width:0;
stroke-linejoin:bevel; stroke-linecap:butt;
fill:#ffffff;
"/>
<!-- Line -->
<!--  polyline  -->
<polyline points="368,13174
368,13059
257,13059
257,13174
368,13174
" style="stroke:#000000;stroke-width:0;
stroke-linejoin:miter; stroke-linecap:butt;
fill:#000000;
"/>
<!-- Line -->
<!--  polyline  -->
<polyline points="368,13174
368,13059
257,13059
257,13174
368,13174
" style="stroke:#ffffff;stroke-width:7;
stroke-linejoin:miter; stroke-linecap:butt;
"/>
<!-- Text -->
<!--  text  -->
<text xml:space="preserve" x="273" y="13166" fill="#ffffff"  font-family="Helvetica" font-style="normal" font-weight="bold" font-size="108" text-anchor="start">V</text>
<!-- Line -->
<!--  spline  -->
<polyline points="233,12953
232,12955
231,12957
230,12959
229,12960
227,12961
225,12963
222,12965
219,12967
217,12968
215,12969
211,12970
206,12971
204,12972
201,12972
196,12973
190,12974
185,12974
182,12974
179,12974
178,12974
174,12974
167,12973
163,12973
162,12973
160,12973
156,12972
152,12971
147,12970
143,12969
141,12968
140,12968
139,12967
135,12965
132,12963
130,12962
129,12961
127,12959
126,12957
125,12955
125,12954
125,12953
126,12951
126,12948
127,12946
128,12945
129,12944
132,12943
135,12941
139,12939
140,12939
141,12938
143,12937
147,12936
152,12935
154,12934
155,12934
157,12934
162,12933
168,12932
173,12932
176,12932
179,12932
180,12932
184,12932
191,12933
195,12933
196,12933
199,12933
202,12934
206,12935
211,12936
215,12937
217,12938
217,12939
219,12939
222,12941
225,12943
226,12943
227,12943
228,12944
230,12946
232,12948
233,12950
233,12952
233,12953
" style="stroke:#999999;stroke-width:0;
stroke-linejoin:bevel; stroke-linecap:butt;
fill:#999999;
"/>
<!-- Line -->
<!--  spline  -->
<polyline points="233,12940
232,12942
231,12944
230,12946
229,12947
227,12948
225,12950
222,12952
219,12954
217,12954
215,12955
211,12956
206,12957
204,12958
201,12958
196,12959
190,12960
185,12960
182,12960
179,12960
178,12960
174,12960
167,12959
163,12959
162,12959
160,12959
156,12958
152,12957
147,12956
143,12955
141,12954
140,12954
139,12954
135,12952
132,12950
130,12949
129,12948
127,12946
126,12944
125,12942
125,12941
125,12940
126,12938
126,12935
127,12933
128,12932
129,12931
132,12929
135,12927
139,12925
140,12925
141,12925
143,12924
147,12923
152,12922
154,12921
155,12921
157,12921
162,12920
168,12919
173,12919
176,12919
179,12919
180,12919
184,12919
191,12920
195,12920
196,12920
199,12920
202,12921
206,12922
211,12923
215,12924
217,12925
219,12925
222,12927
225,12929
226,12930
227,12930
228,12931
230,12933
232,12935
233,12937
233,12939
233,12940
" style="stroke:#ffffff;stroke-width:0;
stroke-linejoin:bevel; stroke-linecap:butt;
fill:#ffffff;
"/>
</g>
</svg>
