<?xml version="1.0" standalone="no"?>
<!DOCTYPE svg PUBLIC "-//W3C//DTD SVG 1.1//EN"
"http://www.w3.org/Graphics/SVG/1.1/DTD/svg11.dtd">
<!-- Creator: fig2dev Version 3.2 Patchlevel 5c -->
<!-- CreationDate: Fri Sep 14 10:46:12 2012 -->
<!-- Magnification: 1.000 -->
<svg xmlns="http://www.w3.org/2000/svg" width="0.5in" height="0.5in" viewBox="-9 12585 558 621">
<g style="stroke-width:.025in; fill:none">
<!-- Line -->
<!--  polyline  -->
<polyline points="20,12783
56,12745
" style="stroke:#000000;stroke-width:0;
stroke-linejoin:miter; stroke-linecap:butt;
fill:#000000;
"/>
<!-- Line -->
<!--  polyline  -->
<polyline points="20,12783
56,12745
" style="stroke:#ffffff;stroke-width:7;
stroke-linejoin:miter; stroke-linecap:butt;
"/>
<!-- Line -->
<!--  polyline  -->
<polyline points="470,12928
3,12661
3,13194
470,12928
" style="stroke:#00a5d4;stroke-width:0;
stroke-linejoin:miter; stroke-linecap:butt;
fill:#00a5d4;
"/>
<!-- Line -->
<!--  polyline  -->
<polyline points="470,12928
3,12661
3,13194
470,12928
" style="stroke:#ffffff;stroke-width:7;
stroke-linejoin:miter; stroke-linecap:butt;
"/>
<!-- Line -->
<!--  polyline  -->
<polyline points="462,12930
5,12672
80,12597
537,12855
462,12930
" style="stroke:#00a5d4;stroke-width:0;
stroke-linejoin:miter; stroke-linecap:butt;
fill:#00a5d4;
"/>
<!-- Line -->
<!--  polyline  -->
<polyline points="462,12930
5,12672
80,12597
537,12855
462,12930
" style="stroke:#ffffff;stroke-width:7;
stroke-linejoin:miter; stroke-linecap:butt;
"/>
<!-- Line -->
<!--  polyline  -->
<polyline points="118,12800
54,12848
131,12880
118,12800
" style="stroke:#ffffff;stroke-width:0;
stroke-linejoin:miter; stroke-linecap:butt;
fill:#ffffff;
"/>
<!-- Line -->
<!--  polyline  -->
<polyline points="38,12765
91,12830
" style="stroke:#ffffff;stroke-width:15;
stroke-linejoin:miter; stroke-linecap:butt;
"/>
<!-- Line -->
<!--  polyline  -->
<polyline points="118,13070
54,13022
131,12989
118,13070
" style="stroke:#ffffff;stroke-width:0;
stroke-linejoin:miter; stroke-linecap:butt;
fill:#ffffff;
"/>
<!-- Line -->
<!--  polyline  -->
<polyline points="38,13105
91,13039
" style="stroke:#ffffff;stroke-width:15;
stroke-linejoin:miter; stroke-linecap:butt;
"/>
<!-- Line -->
<!--  polyline  -->
<polyline points="324,12893
322,12973
395,12934
324,12893
" style="stroke:#ffffff;stroke-width:0;
stroke-linejoin:miter; stroke-linecap:butt;
fill:#ffffff;
"/>
<!-- Line -->
<!--  polyline  -->
<polyline points="246,12934
331,12934
" style="stroke:#ffffff;stroke-width:15;
stroke-linejoin:miter; stroke-linecap:butt;
"/>
</g>
</svg>
