<?xml version="1.0" standalone="no"?>
<!DOCTYPE svg PUBLIC "-//W3C//DTD SVG 1.1//EN"
"http://www.w3.org/Graphics/SVG/1.1/DTD/svg11.dtd">
<!-- Creator: fig2dev Version 3.2 Patchlevel 5c -->
<!-- CreationDate: Fri Sep 14 10:46:13 2012 -->
<!-- Magnification: 1.000 -->
<svg xmlns="http://www.w3.org/2000/svg" width="0.6in" height="0.4in" viewBox="4729 6342 733 530">
<g style="stroke-width:.025in; fill:none">
<!-- Line -->
<!--  polyline  -->
<polyline points="4741,6860
5377,6860
5377,6442
4741,6442
4741,6860
" style="stroke:#00a5d4;stroke-width:0;
stroke-linejoin:miter; stroke-linecap:butt;
fill:#00a5d4;
"/>
<!-- Line -->
<!--  polyline  -->
<polyline points="4741,6860
5377,6860
5377,6442
4741,6442
4741,6860
" style="stroke:#ffffff;stroke-width:7;
stroke-linejoin:miter; stroke-linecap:butt;
"/>
<!-- Line -->
<!--  polyline  -->
<polyline points="5450,6753
5377,6860
5377,6442
5450,6354
5450,6753
" style="stroke:#00a5d4;stroke-width:0;
stroke-linejoin:miter; stroke-linecap:butt;
fill:#00a5d4;
"/>
<!-- Line -->
<!--  polyline  -->
<polyline points="5450,6753
5377,6860
5377,6442
5450,6354
5450,6753
" style="stroke:#ffffff;stroke-width:7;
stroke-linejoin:miter; stroke-linecap:butt;
"/>
<!-- Line -->
<!--  polyline  -->
<polyline points="4851,6354
5450,6354
5377,6442
4741,6442
4851,6354
" style="stroke:#00a5d4;stroke-width:0;
stroke-linejoin:miter; stroke-linecap:butt;
fill:#00a5d4;
"/>
<!-- Line -->
<!--  polyline  -->
<polyline points="4851,6354
5450,6354
5377,6442
4741,6442
4851,6354
" style="stroke:#ffffff;stroke-width:7;
stroke-linejoin:miter; stroke-linecap:butt;
"/>
<!-- Line -->
<!--  polyline  -->
<polyline points="4834,6552
4778,6552
4778,6535
4834,6535
4834,6509
4896,6544
4834,6579
4834,6552
" style="stroke:#ffffff;stroke-width:0;
stroke-linejoin:miter; stroke-linecap:butt;
fill:#ffffff;
"/>
<!-- Line -->
<!--  polyline  -->
<polyline points="4834,6658
4778,6658
4778,6641
4834,6641
4834,6614
4896,6649
4834,6684
4834,6658
" style="stroke:#ffffff;stroke-width:0;
stroke-linejoin:miter; stroke-linecap:butt;
fill:#ffffff;
"/>
<!-- Line -->
<!--  polyline  -->
<polyline points="4834,6763
4778,6763
4778,6746
4834,6746
4834,6720
4896,6755
4834,6790
4834,6763
" style="stroke:#ffffff;stroke-width:0;
stroke-linejoin:miter; stroke-linecap:butt;
fill:#ffffff;
"/>
<!-- Line -->
<!--  polyline  -->
<polyline points="5310,6659
5236,6659
5236,6642
5310,6642
5310,6616
5372,6650
5310,6685
5310,6659
" style="stroke:#ffffff;stroke-width:0;
stroke-linejoin:miter; stroke-linecap:butt;
fill:#ffffff;
"/>
<!-- Line -->
<!--  spline  -->
<polyline points="4947,6657
4947,6658
4948,6665
4950,6677
4952,6688
4953,6695
4953,6696
4953,6697
4954,6699
4957,6705
4960,6711
4965,6719
4971,6729
4978,6738
4981,6742
4983,6744
4984,6745
4988,6749
4997,6756
5006,6762
5011,6765
5013,6766
5015,6767
5021,6769
5031,6773
5042,6776
5052,6778
5059,6779
5065,6779
5068,6779
5069,6779
5069,6778
5069,6773
5069,6761
5069,6742
5069,6718
5069,6694
5069,6675
5069,6663
5069,6658
5069,6657
5068,6657
5063,6657
5051,6657
5032,6657
5008,6657
4984,6657
4965,6657
4953,6657
4948,6657
4947,6657
" style="stroke:#ffffff;stroke-width:0;
stroke-linejoin:bevel; stroke-linecap:butt;
fill:#ffffff;
"/>
<!-- Line -->
<!--  spline  -->
<polyline points="5069,6535
5070,6535
5077,6536
5089,6538
5100,6540
5107,6541
5108,6541
5109,6541
5112,6542
5117,6544
5124,6547
5132,6552
5142,6558
5151,6565
5155,6569
5156,6570
5158,6572
5161,6576
5168,6585
5174,6594
5177,6599
5178,6601
5179,6602
5181,6608
5185,6618
5188,6629
5190,6639
5191,6647
5192,6653
5192,6656
5192,6657
5191,6657
5186,6657
5174,6657
5154,6657
5130,6657
5107,6657
5087,6657
5075,6657
5070,6657
5069,6657
5069,6656
5069,6651
5069,6639
5069,6620
5069,6596
5069,6572
5069,6553
5069,6541
5069,6536
5069,6535
" style="stroke:#ffffff;stroke-width:0;
stroke-linejoin:bevel; stroke-linecap:butt;
fill:#ffffff;
"/>
</g>
</svg>
