<?xml version="1.0" standalone="no"?>
<!DOCTYPE svg PUBLIC "-//W3C//DTD SVG 1.1//EN"
"http://www.w3.org/Graphics/SVG/1.1/DTD/svg11.dtd">
<!-- Creator: fig2dev Version 3.2 Patchlevel 5c -->
<!-- CreationDate: Fri Sep 14 10:46:13 2012 -->
<!-- Magnification: 1.000 -->
<svg xmlns="http://www.w3.org/2000/svg" width="0.5in" height="0.5in" viewBox="-9 12599 637 610">
<g style="stroke-width:.025in; fill:none">
<!-- Line -->
<!--  spline  -->
<polyline points="616,12731
616,12732
613,12738
608,12750
604,12761
601,12767
601,12768
600,12769
598,12772
592,12777
584,12784
573,12792
557,12801
544,12808
535,12812
530,12814
527,12815
525,12816
519,12818
508,12822
491,12827
473,12832
461,12835
455,12836
452,12837
448,12838
441,12839
428,12841
407,12844
385,12846
366,12848
350,12849
335,12850
323,12850
315,12850
311,12850
310,12850
309,12850
301,12849
284,12848
262,12847
239,12846
222,12845
214,12844
213,12844
212,12844
209,12843
201,12842
190,12841
178,12838
164,12836
148,12832
129,12827
112,12822
101,12818
95,12816
92,12815
90,12814
85,12812
75,12808
62,12801
47,12792
39,12787
36,12785
34,12783
29,12778
19,12768
11,12757
7,12748
4,12741
3,12735
3,12732
3,12731
3,12732
3,12738
3,12752
3,12774
3,12801
3,12827
3,12849
3,12863
3,12869
3,12870
3,12871
6,12877
11,12889
16,12901
19,12907
19,12908
19,12909
22,12911
28,12917
35,12923
46,12931
62,12940
75,12947
85,12951
90,12953
92,12954
95,12955
101,12957
112,12961
129,12966
147,12971
159,12974
165,12975
169,12976
172,12977
179,12978
192,12980
213,12983
235,12985
254,12987
270,12988
285,12989
297,12989
305,12989
309,12989
310,12989
311,12989
319,12988
336,12987
359,12986
381,12985
398,12984
406,12983
407,12983
408,12983
411,12982
419,12981
430,12980
442,12977
456,12975
473,12971
491,12966
508,12961
519,12957
525,12955
527,12954
530,12953
535,12951
544,12947
557,12940
572,12931
580,12927
583,12925
586,12923
591,12918
601,12908
609,12897
613,12888
615,12880
616,12874
616,12871
616,12870
616,12869
616,12863
616,12849
616,12827
616,12800
616,12774
616,12752
616,12738
616,12732
616,12731
" style="stroke:#808080;stroke-width:0;
stroke-linejoin:bevel; stroke-linecap:butt;
fill:#808080;
"/>
<!-- Line -->
<!--  spline  -->
<polyline points="616,12731
616,12732
613,12738
608,12750
604,12761
601,12767
601,12768
600,12769
598,12772
592,12777
584,12784
573,12792
557,12801
544,12808
535,12812
530,12814
527,12815
525,12816
519,12818
508,12822
491,12827
473,12832
461,12835
455,12836
452,12837
448,12838
441,12839
428,12841
407,12844
385,12846
366,12848
350,12849
335,12850
323,12850
315,12850
311,12850
310,12850
309,12850
301,12849
284,12848
262,12847
239,12846
222,12845
214,12844
213,12844
212,12844
209,12843
201,12842
190,12841
178,12838
164,12836
148,12832
129,12827
112,12822
101,12818
95,12816
92,12815
90,12814
85,12812
75,12808
62,12801
47,12792
39,12787
36,12785
34,12783
29,12778
19,12768
11,12757
7,12748
4,12741
3,12735
3,12732
3,12731
3,12732
3,12738
3,12752
3,12774
3,12801
3,12827
3,12849
3,12863
3,12869
3,12870
3,12871
6,12877
11,12889
16,12901
19,12907
19,12908
19,12909
22,12911
28,12917
35,12923
46,12931
62,12940
75,12947
85,12951
90,12953
92,12954
95,12955
101,12957
112,12961
129,12966
147,12971
159,12974
165,12975
169,12976
172,12977
179,12978
192,12980
213,12983
235,12985
254,12987
270,12988
285,12989
297,12989
305,12989
309,12989
310,12989
311,12989
319,12988
336,12987
359,12986
381,12985
398,12984
406,12983
407,12983
408,12983
411,12982
419,12981
430,12980
442,12977
456,12975
473,12971
491,12966
508,12961
519,12957
525,12955
527,12954
530,12953
535,12951
544,12947
557,12940
572,12931
580,12927
583,12925
586,12923
591,12918
601,12908
609,12897
613,12888
615,12880
616,12874
616,12871
616,12870
616,12869
616,12863
616,12849
616,12827
616,12800
616,12774
616,12752
616,12738
616,12732
616,12731
" style="stroke:#ffffff;stroke-width:7;
stroke-linejoin:bevel; stroke-linecap:butt;
"/>
<!-- Line -->
<!--  spline  -->
<polyline points="616,12868
616,12869
613,12875
608,12887
604,12898
601,12904
601,12905
600,12906
598,12909
592,12914
584,12921
573,12929
557,12938
544,12945
535,12949
530,12951
527,12952
525,12953
519,12955
508,12959
491,12964
473,12969
461,12972
455,12973
452,12974
448,12975
441,12976
428,12978
407,12981
385,12983
366,12985
350,12986
335,12987
323,12987
315,12987
311,12987
310,12987
309,12987
301,12986
284,12985
262,12984
239,12983
222,12982
214,12981
213,12981
212,12981
209,12980
201,12979
190,12978
178,12975
164,12973
148,12969
129,12964
112,12959
101,12955
95,12953
92,12952
90,12951
85,12949
75,12945
62,12938
47,12929
39,12924
36,12922
34,12920
29,12915
19,12905
11,12894
7,12885
4,12878
3,12872
3,12869
3,12868
3,12869
3,12872
3,12881
3,12896
3,12917
3,12943
3,12973
3,13002
3,13028
3,13049
3,13064
3,13073
3,13076
3,13077
3,13078
6,13084
11,13096
16,13108
19,13114
19,13115
19,13116
22,13119
28,13124
35,13131
46,13139
62,13148
75,13155
85,13159
90,13161
92,13162
95,13163
101,13165
112,13169
129,13174
147,13179
159,13182
165,13183
169,13184
172,13185
179,13186
192,13188
213,13191
235,13193
254,13195
270,13196
285,13197
297,13197
305,13197
309,13197
310,13197
311,13197
319,13196
336,13195
359,13194
381,13193
398,13192
406,13191
407,13191
408,13191
411,13190
419,13189
430,13188
442,13185
456,13183
473,13179
491,13174
508,13169
519,13165
525,13163
527,13162
530,13161
535,13159
544,13155
557,13148
572,13139
580,13134
583,13132
586,13131
591,13125
601,13115
609,13104
613,13095
615,13087
616,13081
616,13078
616,13077
616,13076
616,13073
616,13064
616,13049
616,13028
616,13002
616,12972
616,12943
616,12917
616,12896
616,12881
616,12872
616,12869
616,12868
" style="stroke:#00a5d4;stroke-width:0;
stroke-linejoin:bevel; stroke-linecap:butt;
fill:#00a5d4;
"/>
<!-- Line -->
<!--  spline  -->
<polyline points="616,12868
616,12869
613,12875
608,12887
604,12898
601,12904
601,12905
600,12906
598,12909
592,12914
584,12921
573,12929
557,12938
544,12945
535,12949
530,12951
527,12952
525,12953
519,12955
508,12959
491,12964
473,12969
461,12972
455,12973
452,12974
448,12975
441,12976
428,12978
407,12981
385,12983
366,12985
350,12986
335,12987
323,12987
315,12987
311,12987
310,12987
309,12987
301,12986
284,12985
262,12984
239,12983
222,12982
214,12981
213,12981
212,12981
209,12980
201,12979
190,12978
178,12975
164,12973
148,12969
129,12964
112,12959
101,12955
95,12953
92,12952
90,12951
85,12949
75,12945
62,12938
47,12929
39,12924
36,12922
34,12920
29,12915
19,12905
11,12894
7,12885
4,12878
3,12872
3,12869
3,12868
3,12869
3,12872
3,12881
3,12896
3,12917
3,12943
3,12973
3,13002
3,13028
3,13049
3,13064
3,13073
3,13076
3,13077
3,13078
6,13084
11,13096
16,13108
19,13114
19,13115
19,13116
22,13119
28,13124
35,13131
46,13139
62,13148
75,13155
85,13159
90,13161
92,13162
95,13163
101,13165
112,13169
129,13174
147,13179
159,13182
165,13183
169,13184
172,13185
179,13186
192,13188
213,13191
235,13193
254,13195
270,13196
285,13197
297,13197
305,13197
309,13197
310,13197
311,13197
319,13196
336,13195
359,13194
381,13193
398,13192
406,13191
407,13191
408,13191
411,13190
419,13189
430,13188
442,13185
456,13183
473,13179
491,13174
508,13169
519,13165
525,13163
527,13162
530,13161
535,13159
544,13155
557,13148
572,13139
580,13134
583,13132
586,13131
591,13125
601,13115
609,13104
613,13095
615,13087
616,13081
616,13078
616,13077
616,13076
616,13073
616,13064
616,13049
616,13028
616,13002
616,12972
616,12943
616,12917
616,12896
616,12881
616,12872
616,12869
616,12868
" style="stroke:#ffffff;stroke-width:7;
stroke-linejoin:bevel; stroke-linecap:butt;
"/>
<!-- Line -->
<!--  spline  -->
<polyline points="310,12850
311,12850
319,12849
336,12848
359,12847
381,12846
398,12845
406,12844
407,12844
408,12844
411,12843
419,12842
430,12841
442,12838
456,12836
473,12832
491,12827
508,12822
519,12818
525,12816
527,12815
530,12814
535,12812
544,12808
557,12801
572,12792
580,12787
583,12785
586,12783
591,12778
601,12768
609,12757
613,12748
615,12741
616,12735
616,12732
616,12731
616,12730
613,12724
608,12712
604,12700
601,12694
601,12693
600,12692
598,12689
592,12684
584,12677
573,12669
557,12660
544,12653
535,12649
530,12647
527,12646
525,12645
519,12643
508,12639
491,12634
473,12629
461,12626
455,12625
452,12624
448,12623
441,12622
428,12620
407,12617
385,12615
366,12613
350,12612
335,12611
323,12611
315,12611
311,12611
310,12611
309,12611
301,12612
284,12613
262,12614
239,12615
222,12616
214,12617
213,12617
212,12617
209,12618
201,12619
190,12620
178,12623
164,12625
148,12629
129,12634
112,12639
101,12643
95,12645
92,12646
90,12647
85,12649
75,12653
62,12660
47,12669
39,12674
36,12676
34,12677
29,12683
19,12693
11,12704
7,12713
4,12721
3,12727
3,12730
3,12731
3,12732
6,12738
11,12750
16,12761
19,12767
19,12768
19,12769
22,12772
28,12777
35,12784
46,12792
62,12801
75,12808
85,12812
90,12814
92,12815
95,12816
101,12818
112,12822
129,12827
147,12832
159,12835
165,12836
169,12837
172,12838
179,12839
192,12841
213,12844
235,12846
254,12848
270,12849
285,12850
297,12850
305,12850
309,12850
310,12850
" style="stroke:#808080;stroke-width:0;
stroke-linejoin:bevel; stroke-linecap:butt;
fill:#808080;
"/>
<!-- Line -->
<!--  spline  -->
<polyline points="310,12850
311,12850
319,12849
336,12848
359,12847
381,12846
398,12845
406,12844
407,12844
408,12844
411,12843
419,12842
430,12841
442,12838
456,12836
473,12832
491,12827
508,12822
519,12818
525,12816
527,12815
530,12814
535,12812
544,12808
557,12801
572,12792
580,12787
583,12785
586,12783
591,12778
601,12768
609,12757
613,12748
615,12741
616,12735
616,12732
616,12731
616,12730
613,12724
608,12712
604,12700
601,12694
601,12693
600,12692
598,12689
592,12684
584,12677
573,12669
557,12660
544,12653
535,12649
530,12647
527,12646
525,12645
519,12643
508,12639
491,12634
473,12629
461,12626
455,12625
452,12624
448,12623
441,12622
428,12620
407,12617
385,12615
366,12613
350,12612
335,12611
323,12611
315,12611
311,12611
310,12611
309,12611
301,12612
284,12613
262,12614
239,12615
222,12616
214,12617
213,12617
212,12617
209,12618
201,12619
190,12620
178,12623
164,12625
148,12629
129,12634
112,12639
101,12643
95,12645
92,12646
90,12647
85,12649
75,12653
62,12660
47,12669
39,12674
36,12676
34,12677
29,12683
19,12693
11,12704
7,12713
4,12721
3,12727
3,12730
3,12731
3,12732
6,12738
11,12750
16,12761
19,12767
19,12768
19,12769
22,12772
28,12777
35,12784
46,12792
62,12801
75,12808
85,12812
90,12814
92,12815
95,12816
101,12818
112,12822
129,12827
147,12832
159,12835
165,12836
169,12837
172,12838
179,12839
192,12841
213,12844
235,12846
254,12848
270,12849
285,12850
297,12850
305,12850
309,12850
310,12850
" style="stroke:#ffffff;stroke-width:7;
stroke-linejoin:bevel; stroke-linecap:butt;
"/>
<!-- Line -->
<!--  polyline  -->
<polyline points="240,12684
265,12722
169,12744
190,12727
43,12701
80,12674
222,12698
240,12684
" style="stroke:#ffffff;stroke-width:0;
stroke-linejoin:miter; stroke-linecap:butt;
fill:#ffffff;
"/>
<!-- Line -->
<!--  polyline  -->
<polyline points="375,12776
357,12737
444,12720
429,12733
573,12758
538,12785
395,12758
375,12776
" style="stroke:#ffffff;stroke-width:0;
stroke-linejoin:miter; stroke-linecap:butt;
fill:#ffffff;
"/>
<!-- Line -->
<!--  polyline  -->
<polyline points="327,12663
424,12637
425,12678
401,12674
354,12713
309,12706
357,12668
327,12663
" style="stroke:#ffffff;stroke-width:0;
stroke-linejoin:miter; stroke-linecap:butt;
fill:#ffffff;
"/>
<!-- Line -->
<!--  polyline  -->
<polyline points="286,12812
194,12829
190,12786
217,12792
268,12749
312,12757
258,12804
286,12812
" style="stroke:#ffffff;stroke-width:0;
stroke-linejoin:miter; stroke-linecap:butt;
fill:#ffffff;
"/>
<!-- Line -->
<!--  spline  -->
<polyline points="10,12905
11,12906
16,12911
25,12920
33,12929
38,12934
39,12935
40,12935
43,12938
49,12942
57,12947
68,12953
84,12960
100,12966
109,12969
112,12971
116,12972
126,12974
145,12979
161,12982
172,12985
177,12986
180,12986
183,12987
189,12987
201,12989
219,12991
238,12993
255,12994
269,12994
282,12995
292,12995
300,12995
303,12995
304,12995
305,12995
312,12995
326,12994
346,12993
366,12991
380,12990
387,12990
388,12990
389,12990
392,12990
399,12989
408,12988
419,12986
432,12984
447,12982
464,12978
480,12974
491,12971
496,12970
499,12969
501,12968
506,12967
515,12963
529,12958
545,12951
554,12948
557,12946
560,12945
567,12941
579,12933
591,12924
599,12917
604,12912
608,12907
610,12904
610,12902
610,12893
610,12880
610,12871
610,12869
609,12870
607,12875
601,12886
596,12896
594,12901
593,12902
592,12903
590,12905
584,12910
576,12916
564,12923
548,12932
535,12938
525,12942
520,12944
518,12945
515,12946
509,12948
498,12951
481,12956
463,12960
451,12963
444,12965
441,12966
438,12966
431,12967
417,12969
397,12972
376,12974
357,12976
342,12977
328,12977
317,12978
309,12978
305,12978
304,12978
303,12978
295,12978
280,12977
258,12976
236,12974
221,12973
213,12973
212,12973
211,12973
208,12972
201,12971
190,12970
178,12968
165,12965
149,12961
132,12957
116,12952
105,12949
100,12947
98,12947
96,12946
91,12944
83,12940
70,12934
55,12926
48,12922
45,12920
42,12919
37,12914
27,12905
19,12895
14,12888
11,12881
10,12876
9,12874
9,12873
9,12875
9,12883
10,12895
10,12903
10,12905
" style="stroke:#00a5d4;stroke-width:0;
stroke-linejoin:bevel; stroke-linecap:butt;
fill:#00a5d4;
"/>
<!-- Line -->
<!--  polyline  -->
<polyline points="280,12956
280,12971
227,12971
305,13072
382,12971
330,12971
330,12956
280,12956
" style="stroke:#808080;stroke-width:0;
stroke-linejoin:miter; stroke-linecap:butt;
fill:#808080;
"/>
<!-- Line -->
<!--  polyline  -->
<polyline points="231,13158
415,12974
398,12965
215,13148
231,13158
" style="stroke:#ffffff;stroke-width:0;
stroke-linejoin:miter; stroke-linecap:butt;
fill:#ffffff;
"/>
<!-- Line -->
<!--  polyline  -->
<polyline points="379,13155
197,12974
213,12964
395,13146
379,13155
" style="stroke:#ffffff;stroke-width:0;
stroke-linejoin:miter; stroke-linecap:butt;
fill:#ffffff;
"/>
<!-- Line -->
<!--  spline  -->
<polyline points="330,13145
330,13146
330,13150
330,13157
330,13161
330,13162
332,13162
340,13161
352,13161
360,13160
362,13160
363,13160
367,13160
375,13159
384,13158
397,13157
409,13156
414,13155
416,13154
421,13154
432,13152
443,13150
448,13150
449,13150
454,13149
464,13147
475,13145
482,13143
488,13141
491,13140
492,13140
492,13139
492,13135
492,13129
492,13125
492,13124
491,13124
484,13126
473,13129
466,13131
465,13131
464,13131
460,13132
453,13133
444,13134
432,13136
421,13137
416,13138
414,13138
409,13139
397,13140
385,13141
380,13142
378,13142
373,13142
362,13143
350,13144
341,13144
335,13145
331,13145
330,13145
" style="stroke:#ffffff;stroke-width:0;
stroke-linejoin:bevel; stroke-linecap:butt;
fill:#ffffff;
"/>
<!-- Line -->
<!--  spline  -->
<polyline points="129,13141
130,13141
137,13143
147,13145
154,13147
155,13147
156,13147
159,13148
166,13149
174,13150
185,13152
196,13153
200,13154
202,13154
207,13155
218,13156
229,13157
233,13158
235,13158
240,13159
250,13160
261,13161
269,13162
276,13162
279,13162
280,13162
280,13161
280,13157
281,13151
281,13147
281,13146
279,13146
271,13145
259,13145
251,13144
249,13144
248,13144
244,13143
237,13143
228,13142
216,13140
205,13138
200,13138
198,13137
194,13137
183,13135
173,13133
168,13133
166,13132
162,13132
153,13130
144,13128
138,13127
133,13126
131,13125
130,13125
130,13126
130,13130
129,13136
129,13140
129,13141
" style="stroke:#ffffff;stroke-width:0;
stroke-linejoin:bevel; stroke-linecap:butt;
fill:#ffffff;
"/>
<!-- Line -->
<!--  spline  -->
<polyline points="124,12965
125,12965
132,12967
142,12969
149,12971
150,12971
151,12971
155,12972
161,12973
170,12975
181,12977
192,12979
196,12979
198,12979
202,12980
213,12981
224,12982
229,12983
231,12983
235,12984
246,12985
257,12986
265,12987
272,12987
275,12987
276,12987
276,12986
276,12982
276,12975
276,12971
276,12970
274,12970
266,12969
254,12969
246,12968
244,12968
243,12968
239,12967
232,12967
222,12965
210,12964
199,12963
194,12962
192,12962
188,12962
177,12960
167,12958
163,12957
161,12957
157,12956
148,12954
139,12952
132,12951
127,12950
125,12949
124,12949
124,12950
124,12954
124,12960
124,12964
124,12965
" style="stroke:#ffffff;stroke-width:0;
stroke-linejoin:bevel; stroke-linecap:butt;
fill:#ffffff;
"/>
<!-- Line -->
<!--  spline  -->
<polyline points="332,12971
332,12972
331,12976
331,12983
330,12987
330,12988
332,12988
340,12987
353,12986
361,12985
363,12985
364,12985
368,12985
376,12984
385,12983
398,12982
408,12981
414,12980
416,12980
418,12979
424,12979
434,12977
445,12975
450,12974
452,12974
456,12973
467,12971
478,12969
486,12967
492,12966
495,12965
496,12965
496,12964
496,12960
496,12954
496,12950
496,12949
495,12949
487,12951
477,12953
469,12955
468,12955
467,12955
463,12956
456,12957
447,12959
435,12961
425,12962
419,12963
417,12963
415,12963
409,12964
399,12965
387,12966
382,12967
380,12967
375,12968
364,12969
352,12970
343,12971
337,12971
333,12971
332,12971
" style="stroke:#ffffff;stroke-width:0;
stroke-linejoin:bevel; stroke-linecap:butt;
fill:#ffffff;
"/>
<!-- Line -->
<!--  polyline  -->
<polyline points="173,13069
197,13074
185,13034
185,13034
173,13069
" style="stroke:#ffffff;stroke-width:0;
stroke-linejoin:miter; stroke-linecap:butt;
fill:#ffffff;
"/>
<!-- Line -->
<!--  polyline  -->
<polyline points="161,13103
140,13100
174,13010
197,13014
231,13116
209,13112
203,13091
167,13085
161,13103
" style="stroke:#ffffff;stroke-width:0;
stroke-linejoin:miter; stroke-linecap:butt;
fill:#ffffff;
"/>
<!-- Line -->
<!--  spline  -->
<polyline points="437,13058
439,13057
442,13057
444,13056
445,13055
446,13055
448,13053
449,13052
450,13051
450,13050
450,13049
451,13048
451,13047
452,13046
452,13045
452,13044
452,13043
452,13042
452,13041
452,13039
451,13038
451,13036
451,13035
450,13035
450,13034
449,13033
448,13032
447,13032
446,13031
445,13031
444,13030
443,13030
441,13030
439,13030
437,13030
435,13030
434,13030
433,13030
429,13031
424,13031
420,13032
419,13032
419,13033
419,13041
419,13052
419,13060
419,13061
420,13061
425,13060
431,13059
436,13058
437,13058
" style="stroke:#ffffff;stroke-width:0;
stroke-linejoin:bevel; stroke-linecap:butt;
fill:#ffffff;
"/>
<!-- Line -->
<!--  spline  -->
<polyline points="419,13112
418,13112
413,13113
405,13113
400,13114
399,13114
399,13113
399,13105
399,13089
399,13067
399,13044
399,13028
399,13020
399,13019
400,13019
407,13018
421,13016
434,13014
441,13013
442,13013
443,13013
445,13013
450,13013
452,13013
453,13013
454,13013
456,13013
458,13014
461,13015
463,13017
464,13017
464,13018
465,13019
467,13021
469,13023
469,13024
470,13025
470,13026
471,13029
472,13032
472,13035
472,13037
472,13039
472,13041
471,13044
471,13046
471,13047
471,13049
470,13051
469,13054
467,13057
467,13058
466,13059
465,13060
463,13063
461,13066
460,13067
458,13068
455,13070
451,13072
447,13073
444,13074
441,13074
440,13074
434,13075
426,13076
420,13077
419,13077
419,13079
419,13088
419,13101
419,13110
419,13112
" style="stroke:#ffffff;stroke-width:0;
stroke-linejoin:bevel; stroke-linecap:butt;
fill:#ffffff;
"/>
</g>
</svg>
