<?xml version="1.0" standalone="no"?>
<!DOCTYPE svg PUBLIC "-//W3C//DTD SVG 1.1//EN"
"http://www.w3.org/Graphics/SVG/1.1/DTD/svg11.dtd">
<!-- Creator: fig2dev Version 3.2 Patchlevel 5c -->
<!-- CreationDate: Fri Sep 14 10:46:13 2012 -->
<!-- Magnification: 1.000 -->
<svg xmlns="http://www.w3.org/2000/svg" width="0.1in" height="0.2in" viewBox="-9 12974 116 235">
<g style="stroke-width:.025in; fill:none">
<!-- Line -->
<!--  spline  -->
<polyline points="95,13197
94,13197
88,13197
77,13197
66,13197
60,13197
59,13197
58,13196
56,13192
52,13186
50,13182
49,13181
48,13178
47,13174
45,13169
44,13163
43,13157
43,13155
43,13154
43,13151
42,13146
42,13141
41,13139
41,13138
41,13136
41,13133
41,13130
41,13129
41,13128
40,13128
34,13128
22,13128
10,13128
4,13128
3,13128
3,13126
3,13118
3,13107
3,13099
3,13097
3,13096
3,13094
3,13089
3,13087
3,13086
3,13084
3,13076
3,13065
3,13057
3,13055
4,13055
10,13055
22,13055
34,13055
40,13055
41,13055
41,13053
41,13052
41,13050
41,13048
41,13046
42,13042
42,13037
43,13032
43,13029
43,13028
43,13026
44,13020
45,13014
46,13011
46,13010
47,13008
49,13002
52,12996
55,12992
57,12988
59,12986
60,12986
66,12986
77,12986
88,12986
94,12986
95,12986
95,12987
95,12990
95,12999
95,13014
95,13035
95,13062
95,13092
95,13121
95,13148
95,13169
95,13184
95,13193
95,13196
95,13197
" style="stroke:#02709f;stroke-width:0;
stroke-linejoin:bevel; stroke-linecap:butt;
fill:#02709f;
"/>
<!-- Line -->
<!--  spline  -->
<polyline points="95,13197
94,13197
88,13197
77,13197
66,13197
60,13197
59,13197
58,13196
56,13192
52,13186
50,13182
49,13181
48,13178
47,13174
45,13169
44,13163
43,13157
43,13155
43,13154
43,13151
42,13146
42,13141
41,13139
41,13138
41,13136
41,13133
41,13130
41,13129
41,13128
40,13128
34,13128
22,13128
10,13128
4,13128
3,13128
3,13126
3,13118
3,13107
3,13099
3,13097
3,13096
3,13094
3,13089
3,13087
3,13086
3,13084
3,13076
3,13065
3,13057
3,13055
4,13055
10,13055
22,13055
34,13055
40,13055
41,13055
41,13053
41,13052
41,13050
41,13048
41,13046
42,13042
42,13037
43,13032
43,13029
43,13028
43,13026
44,13020
45,13014
46,13011
46,13010
47,13008
49,13002
52,12996
55,12992
57,12988
59,12986
60,12986
66,12986
77,12986
88,12986
94,12986
95,12986
95,12987
95,12990
95,12999
95,13014
95,13035
95,13062
95,13092
95,13121
95,13148
95,13169
95,13184
95,13193
95,13196
95,13197
" style="stroke:#02709f;stroke-width:7;
stroke-linejoin:bevel; stroke-linecap:butt;
"/>
</g>
</svg>
