<?xml version="1.0" standalone="no"?>
<!DOCTYPE svg PUBLIC "-//W3C//DTD SVG 1.1//EN"
"http://www.w3.org/Graphics/SVG/1.1/DTD/svg11.dtd">
<!-- Creator: fig2dev Version 3.2 Patchlevel 5c -->
<!-- CreationDate: Fri Sep 14 10:46:13 2012 -->
<!-- Magnification: 1.000 -->
<svg xmlns="http://www.w3.org/2000/svg" width="0.1in" height="0.1in" viewBox="-8 13061 174 147">
<g style="stroke-width:.025in; fill:none">
<!-- Line -->
<!--  spline  -->
<polyline points="31,13196
28,13193
25,13190
22,13187
21,13185
19,13183
17,13180
14,13176
12,13172
11,13171
11,13170
11,13168
9,13164
8,13160
7,13158
7,13157
6,13155
5,13150
4,13145
4,13141
4,13138
4,13136
4,13135
5,13131
5,13125
6,13121
6,13120
6,13118
7,13115
7,13111
9,13106
11,13102
12,13100
12,13099
13,13097
16,13093
19,13089
20,13087
21,13085
24,13082
27,13078
30,13076
32,13074
33,13073
" style="stroke:#02709f;stroke-width:7;
stroke-linejoin:bevel; stroke-linecap:round;
"/>
<!-- Line -->
<!--  spline  -->
<polyline points="55,13196
52,13193
49,13190
46,13187
45,13185
43,13183
41,13180
39,13176
37,13172
36,13171
36,13170
35,13168
33,13164
31,13160
31,13158
30,13157
30,13155
29,13150
28,13145
28,13141
28,13138
28,13136
28,13135
29,13131
29,13125
30,13121
30,13120
30,13118
31,13115
31,13111
33,13106
35,13102
36,13100
36,13099
37,13097
40,13093
43,13089
44,13087
45,13085
48,13082
51,13078
54,13076
56,13074
57,13073
" style="stroke:#02709f;stroke-width:7;
stroke-linejoin:bevel; stroke-linecap:round;
"/>
<!-- Line -->
<!--  spline  -->
<polyline points="79,13196
76,13193
73,13190
70,13187
69,13185
67,13183
65,13180
63,13176
61,13172
60,13171
59,13170
59,13168
57,13164
56,13160
55,13158
55,13157
55,13155
54,13150
53,13145
53,13141
52,13138
52,13136
52,13135
53,13131
53,13125
54,13121
54,13120
54,13118
55,13115
56,13111
58,13106
60,13102
61,13100
61,13099
62,13097
64,13093
66,13089
68,13087
69,13085
72,13082
75,13078
78,13076
80,13074
81,13073
" style="stroke:#02709f;stroke-width:7;
stroke-linejoin:bevel; stroke-linecap:round;
"/>
<!-- Line -->
<!--  spline  -->
<polyline points="103,13196
100,13193
97,13190
94,13187
93,13185
91,13183
89,13180
87,13176
85,13172
84,13171
83,13170
83,13168
81,13164
80,13160
79,13158
79,13157
79,13155
78,13150
77,13145
77,13141
76,13138
76,13136
76,13135
77,13131
77,13125
78,13121
78,13120
78,13118
79,13115
80,13111
82,13106
84,13102
85,13100
85,13099
86,13097
88,13093
90,13089
91,13087
92,13087
93,13085
96,13082
99,13078
102,13076
104,13074
106,13073
" style="stroke:#02709f;stroke-width:7;
stroke-linejoin:bevel; stroke-linecap:round;
"/>
<!-- Line -->
<!--  spline  -->
<polyline points="127,13196
124,13193
121,13190
118,13187
117,13185
115,13183
113,13180
111,13176
109,13172
108,13171
107,13170
107,13168
105,13164
104,13160
103,13158
103,13157
103,13155
102,13150
101,13145
101,13141
101,13138
101,13136
101,13135
101,13131
102,13125
102,13121
102,13120
102,13118
103,13115
104,13111
106,13106
108,13102
109,13100
109,13099
110,13097
112,13093
114,13089
115,13087
116,13087
117,13085
120,13082
123,13078
126,13076
128,13074
130,13073
" style="stroke:#02709f;stroke-width:7;
stroke-linejoin:bevel; stroke-linecap:round;
"/>
<!-- Line -->
<!--  spline  -->
<polyline points="151,13196
148,13193
145,13190
142,13187
141,13185
139,13183
137,13180
135,13176
133,13172
132,13171
131,13170
131,13168
129,13164
128,13160
127,13158
127,13157
127,13155
126,13150
125,13145
125,13141
125,13138
125,13136
125,13135
125,13131
126,13125
126,13121
126,13120
126,13118
127,13115
128,13111
130,13106
132,13102
133,13100
133,13099
134,13097
136,13093
138,13089
139,13087
140,13087
141,13085
144,13082
147,13078
150,13076
152,13074
154,13073
" style="stroke:#02709f;stroke-width:7;
stroke-linejoin:bevel; stroke-linecap:round;
"/>
<!-- Line -->
<!--  spline  -->
<polyline points="31,13196
28,13193
25,13190
22,13187
21,13185
19,13183
17,13180
14,13176
12,13172
11,13171
11,13170
11,13168
9,13164
8,13160
7,13158
7,13157
6,13155
5,13150
4,13145
4,13141
4,13138
4,13136
4,13135
5,13131
5,13125
6,13121
6,13120
6,13118
7,13115
7,13111
9,13106
11,13102
12,13100
12,13099
13,13097
16,13093
19,13089
20,13087
21,13085
24,13082
27,13078
30,13076
32,13074
33,13073
" style="stroke:#02709f;stroke-width:7;
stroke-linejoin:bevel; stroke-linecap:round;
"/>
<!-- Line -->
<!--  spline  -->
<polyline points="55,13196
52,13193
49,13190
46,13187
45,13185
43,13183
41,13180
39,13176
37,13172
36,13171
36,13170
35,13168
33,13164
31,13160
31,13158
30,13157
30,13155
29,13150
28,13145
28,13141
28,13138
28,13136
28,13135
29,13131
29,13125
30,13121
30,13120
30,13118
31,13115
31,13111
33,13106
35,13102
36,13100
36,13099
37,13097
40,13093
43,13089
44,13087
45,13085
48,13082
51,13078
54,13076
56,13074
57,13073
" style="stroke:#02709f;stroke-width:7;
stroke-linejoin:bevel; stroke-linecap:round;
"/>
<!-- Line -->
<!--  spline  -->
<polyline points="79,13196
76,13193
73,13190
70,13187
69,13185
67,13183
65,13180
63,13176
61,13172
60,13171
59,13170
59,13168
57,13164
56,13160
55,13158
55,13157
55,13155
54,13150
53,13145
53,13141
52,13138
52,13136
52,13135
53,13131
53,13125
54,13121
54,13120
54,13118
55,13115
56,13111
58,13106
60,13102
61,13100
61,13099
62,13097
64,13093
66,13089
68,13087
69,13085
72,13082
75,13078
78,13076
80,13074
81,13073
" style="stroke:#02709f;stroke-width:7;
stroke-linejoin:bevel; stroke-linecap:round;
"/>
<!-- Line -->
<!--  spline  -->
<polyline points="103,13196
100,13193
97,13190
94,13187
93,13185
91,13183
89,13180
87,13176
85,13172
84,13171
83,13170
83,13168
81,13164
80,13160
79,13158
79,13157
79,13155
78,13150
77,13145
77,13141
76,13138
76,13136
76,13135
77,13131
77,13125
78,13121
78,13120
78,13118
79,13115
80,13111
82,13106
84,13102
85,13100
85,13099
86,13097
88,13093
90,13089
91,13087
92,13087
93,13085
96,13082
99,13078
102,13076
104,13074
106,13073
" style="stroke:#02709f;stroke-width:7;
stroke-linejoin:bevel; stroke-linecap:round;
"/>
<!-- Line -->
<!--  spline  -->
<polyline points="127,13196
124,13193
121,13190
118,13187
117,13185
115,13183
113,13180
111,13176
109,13172
108,13171
107,13170
107,13168
105,13164
104,13160
103,13158
103,13157
103,13155
102,13150
101,13145
101,13141
101,13138
101,13136
101,13135
101,13131
102,13125
102,13121
102,13120
102,13118
103,13115
104,13111
106,13106
108,13102
109,13100
109,13099
110,13097
112,13093
114,13089
115,13087
116,13087
117,13085
120,13082
123,13078
126,13076
128,13074
130,13073
" style="stroke:#02709f;stroke-width:7;
stroke-linejoin:bevel; stroke-linecap:round;
"/>
<!-- Line -->
<!--  spline  -->
<polyline points="151,13196
148,13193
145,13190
142,13187
141,13185
139,13183
137,13180
135,13176
133,13172
132,13171
131,13170
131,13168
129,13164
128,13160
127,13158
127,13157
127,13155
126,13150
125,13145
125,13141
125,13138
125,13136
125,13135
125,13131
126,13125
126,13121
126,13120
126,13118
127,13115
128,13111
130,13106
132,13102
133,13100
133,13099
134,13097
136,13093
138,13089
139,13087
140,13087
141,13085
144,13082
147,13078
150,13076
152,13074
154,13073
" style="stroke:#02709f;stroke-width:7;
stroke-linejoin:bevel; stroke-linecap:round;
"/>
</g>
</svg>
