<?xml version="1.0" standalone="no"?>
<!DOCTYPE svg PUBLIC "-//W3C//DTD SVG 1.1//EN"
"http://www.w3.org/Graphics/SVG/1.1/DTD/svg11.dtd">
<!-- Creator: fig2dev Version 3.2 Patchlevel 5c -->
<!-- CreationDate: Fri Sep 14 10:46:14 2012 -->
<!-- Magnification: 1.000 -->
<svg xmlns="http://www.w3.org/2000/svg" width="0.3in" height="0.5in" viewBox="-4 12592 367 612">
<g style="stroke-width:.025in; fill:none">
<!-- Line -->
<!--  polyline  -->
<polyline points="351,13130
287,13192
287,12666
351,12604
351,13130
" style="stroke:#02709f;stroke-width:0;
stroke-linejoin:miter; stroke-linecap:butt;
fill:#02709f;
"/>
<!-- Line -->
<!--  polyline  -->
<polyline points="351,13130
287,13192
287,12666
351,12604
351,13130
" style="stroke:#ffffff;stroke-width:7;
stroke-linejoin:miter; stroke-linecap:butt;
"/>
<!-- Line -->
<!--  polyline  -->
<polyline points="8,13192
287,13192
287,12666
8,12666
8,13192
" style="stroke:#02709f;stroke-width:0;
stroke-linejoin:miter; stroke-linecap:butt;
fill:#02709f;
"/>
<!-- Line -->
<!--  polyline  -->
<polyline points="8,13192
287,13192
287,12666
8,12666
8,13192
" style="stroke:#ffffff;stroke-width:7;
stroke-linejoin:miter; stroke-linecap:butt;
"/>
<!-- Line -->
<!--  polyline  -->
<polyline points="72,12604
351,12604
287,12666
8,12666
72,12604
" style="stroke:#02709f;stroke-width:0;
stroke-linejoin:miter; stroke-linecap:butt;
fill:#02709f;
"/>
<!-- Line -->
<!--  polyline  -->
<polyline points="72,12604
351,12604
287,12666
8,12666
72,12604
" style="stroke:#ffffff;stroke-width:7;
stroke-linejoin:miter; stroke-linecap:butt;
"/>
<!-- Line -->
<!--  polyline  -->
<polyline points="204,12794
204,12724
84,12724
84,12794
204,12794
" style="stroke:#ffffff;stroke-width:0;
stroke-linejoin:miter; stroke-linecap:butt;
fill:#ffffff;
"/>
<!-- Line -->
<!--  spline  -->
<polyline points="61,12874
63,12874
64,12873
66,12873
67,12873
68,12873
69,12872
71,12871
72,12870
73,12869
74,12868
75,12867
76,12865
76,12864
77,12862
77,12860
78,12858
78,12857
78,12856
78,12854
77,12853
77,12851
77,12850
77,12849
76,12848
75,12846
74,12845
73,12844
72,12843
71,12842
69,12841
68,12841
66,12840
64,12840
63,12839
62,12839
61,12839
59,12839
57,12840
55,12840
54,12840
53,12840
52,12841
50,12842
49,12843
48,12844
48,12845
47,12846
46,12848
45,12848
45,12849
44,12851
43,12853
43,12854
43,12855
43,12856
43,12858
44,12860
44,12862
44,12863
45,12864
46,12865
47,12867
48,12868
48,12869
49,12870
50,12871
51,12872
52,12872
53,12872
55,12873
57,12873
59,12874
60,12874
61,12874
" style="stroke:#ffffff;stroke-width:0;
stroke-linejoin:bevel; stroke-linecap:butt;
fill:#ffffff;
"/>
<!-- Line -->
<!--  spline  -->
<polyline points="61,12938
63,12938
64,12937
66,12937
67,12937
68,12936
69,12935
71,12934
72,12933
73,12933
74,12932
75,12931
76,12930
76,12929
76,12928
77,12926
77,12924
78,12922
78,12921
78,12920
78,12918
77,12917
77,12915
77,12914
77,12913
76,12912
75,12910
74,12909
73,12908
72,12907
71,12906
69,12905
68,12905
66,12904
64,12904
63,12903
62,12903
61,12903
59,12903
57,12904
55,12904
54,12904
53,12904
52,12905
50,12906
49,12907
48,12908
48,12909
47,12910
46,12912
45,12912
45,12913
44,12915
43,12917
43,12918
43,12919
43,12920
43,12922
44,12924
44,12926
44,12927
45,12928
46,12929
47,12931
48,12932
48,12933
49,12933
50,12934
51,12935
52,12936
53,12936
55,12937
57,12938
59,12938
60,12938
61,12938
" style="stroke:#ffffff;stroke-width:0;
stroke-linejoin:bevel; stroke-linecap:butt;
fill:#ffffff;
"/>
<!-- Line -->
<!--  spline  -->
<polyline points="61,13001
63,13001
64,13001
66,13001
67,13001
68,13000
69,12999
71,12998
72,12997
73,12996
74,12995
75,12994
76,12993
76,12992
77,12990
77,12988
78,12986
78,12985
78,12984
78,12982
77,12980
77,12978
77,12977
76,12975
75,12974
74,12973
73,12972
72,12971
71,12970
69,12969
69,12968
68,12968
66,12967
64,12966
63,12966
62,12966
61,12966
59,12966
57,12967
55,12967
54,12967
53,12968
52,12969
50,12970
49,12971
48,12972
48,12973
47,12974
46,12975
45,12976
44,12978
43,12980
43,12982
43,12983
43,12984
43,12986
44,12988
44,12990
44,12991
45,12991
46,12993
47,12994
48,12995
48,12996
49,12997
50,12998
51,12999
52,13000
53,13000
55,13001
57,13001
59,13001
60,13001
61,13001
" style="stroke:#ffffff;stroke-width:0;
stroke-linejoin:bevel; stroke-linecap:butt;
fill:#ffffff;
"/>
<!-- Line -->
<!--  spline  -->
<polyline points="61,13065
63,13065
64,13064
66,13064
67,13064
68,13064
69,13063
71,13062
72,13061
73,13060
74,13059
75,13058
76,13056
76,13055
77,13053
77,13051
78,13050
78,13049
78,13048
78,13046
77,13044
77,13042
77,13041
77,13040
76,13039
75,13037
74,13036
73,13035
72,13035
71,13034
69,13033
69,13032
68,13032
66,13031
64,13030
63,13030
62,13030
61,13030
59,13030
57,13031
55,13031
54,13031
53,13032
52,13033
50,13034
49,13035
48,13035
48,13036
47,13037
46,13038
45,13039
45,13040
44,13042
43,13044
43,13046
43,13047
43,13048
43,13050
44,13051
44,13053
44,13054
45,13055
46,13056
47,13058
48,13059
48,13060
49,13061
50,13062
51,13063
52,13063
53,13063
55,13064
57,13064
59,13065
60,13065
61,13065
" style="stroke:#ffffff;stroke-width:0;
stroke-linejoin:bevel; stroke-linecap:butt;
fill:#ffffff;
"/>
<!-- Line -->
<!--  spline  -->
<polyline points="61,13129
63,13129
64,13128
66,13128
67,13128
68,13128
69,13127
71,13126
72,13125
73,13124
74,13123
75,13122
76,13120
76,13119
77,13117
77,13115
78,13113
78,13112
78,13111
78,13109
77,13108
77,13106
77,13105
77,13104
76,13103
75,13101
74,13100
73,13099
72,13098
71,13097
69,13096
68,13096
66,13095
64,13095
63,13094
62,13094
61,13094
59,13094
57,13095
55,13095
54,13095
53,13095
52,13096
50,13097
49,13098
48,13099
48,13100
47,13101
46,13103
45,13103
45,13104
44,13106
43,13108
43,13109
43,13110
43,13111
43,13113
44,13115
44,13117
44,13118
45,13119
46,13120
47,13122
48,13123
48,13124
49,13125
50,13126
51,13127
52,13127
53,13127
55,13128
57,13128
59,13129
60,13129
61,13129
" style="stroke:#ffffff;stroke-width:0;
stroke-linejoin:bevel; stroke-linecap:butt;
fill:#ffffff;
"/>
<!-- Line -->
<!--  polyline  -->
<polyline points="84,12851
197,12851
" style="stroke:#ffffff;stroke-width:7;
stroke-linejoin:miter; stroke-linecap:butt;
"/>
<!-- Line -->
<!--  polyline  -->
<polyline points="84,12915
197,12915
" style="stroke:#ffffff;stroke-width:7;
stroke-linejoin:miter; stroke-linecap:butt;
"/>
<!-- Line -->
<!--  polyline  -->
<polyline points="84,12979
197,12979
" style="stroke:#ffffff;stroke-width:7;
stroke-linejoin:miter; stroke-linecap:butt;
"/>
<!-- Line -->
<!--  polyline  -->
<polyline points="84,13042
197,13042
" style="stroke:#ffffff;stroke-width:7;
stroke-linejoin:miter; stroke-linecap:butt;
"/>
<!-- Line -->
<!--  polyline  -->
<polyline points="84,13106
197,13106
" style="stroke:#ffffff;stroke-width:7;
stroke-linejoin:miter; stroke-linecap:butt;
"/>
<!-- Line -->
<!--  spline  -->
<polyline points="224,12874
226,12874
227,12873
229,12873
230,12873
231,12873
232,12872
234,12871
235,12870
236,12869
237,12868
238,12867
239,12865
239,12864
240,12862
240,12860
241,12858
241,12857
241,12856
241,12854
240,12853
240,12851
240,12850
240,12849
239,12848
238,12846
237,12845
236,12844
235,12843
234,12842
232,12841
231,12841
229,12840
227,12840
226,12839
225,12839
224,12839
222,12839
220,12840
218,12840
217,12840
216,12840
215,12841
213,12842
212,12843
211,12844
211,12845
210,12846
209,12848
208,12848
208,12849
207,12851
206,12853
206,12854
206,12855
206,12856
206,12858
207,12860
207,12862
207,12863
208,12864
209,12865
210,12867
211,12868
211,12869
212,12870
213,12871
214,12872
215,12872
216,12872
218,12873
220,12873
222,12874
223,12874
224,12874
" style="stroke:#ffffff;stroke-width:0;
stroke-linejoin:bevel; stroke-linecap:butt;
fill:#ffffff;
"/>
<!-- Line -->
<!--  spline  -->
<polyline points="224,12938
226,12938
227,12937
229,12937
230,12937
231,12936
232,12935
234,12934
235,12933
236,12933
237,12932
238,12931
239,12930
239,12929
239,12928
240,12926
240,12924
241,12922
241,12921
241,12920
241,12918
240,12917
240,12915
240,12914
240,12913
239,12912
238,12910
237,12909
236,12908
235,12907
234,12906
232,12905
231,12905
229,12904
227,12904
226,12903
225,12903
224,12903
222,12903
220,12904
218,12904
217,12904
216,12904
215,12905
213,12906
212,12907
211,12908
211,12909
210,12910
209,12912
208,12912
208,12913
207,12915
206,12917
206,12918
206,12919
206,12920
206,12922
207,12924
207,12926
207,12927
208,12928
209,12929
210,12931
211,12932
211,12933
212,12933
213,12934
214,12935
215,12936
216,12936
218,12937
220,12938
222,12938
223,12938
224,12938
" style="stroke:#ffffff;stroke-width:0;
stroke-linejoin:bevel; stroke-linecap:butt;
fill:#ffffff;
"/>
<!-- Line -->
<!--  spline  -->
<polyline points="224,13001
226,13001
227,13001
229,13001
230,13001
231,13000
232,12999
234,12998
235,12997
236,12996
237,12995
238,12994
239,12993
239,12992
240,12990
240,12988
241,12986
241,12985
241,12984
241,12982
240,12980
240,12978
240,12977
239,12975
238,12974
237,12973
236,12972
235,12971
234,12970
232,12969
232,12968
231,12968
229,12967
227,12966
226,12966
225,12966
224,12966
222,12966
220,12967
218,12967
217,12967
216,12968
215,12969
213,12970
212,12971
211,12972
211,12973
210,12974
209,12975
208,12976
207,12978
206,12980
206,12982
206,12983
206,12984
206,12986
207,12988
207,12990
207,12991
208,12991
209,12993
210,12994
211,12995
211,12996
212,12997
213,12998
214,12999
215,13000
216,13000
218,13001
220,13001
222,13001
223,13001
224,13001
" style="stroke:#ffffff;stroke-width:0;
stroke-linejoin:bevel; stroke-linecap:butt;
fill:#ffffff;
"/>
<!-- Line -->
<!--  spline  -->
<polyline points="224,13065
226,13065
227,13064
229,13064
230,13064
231,13064
232,13063
234,13062
235,13061
236,13060
237,13059
238,13058
239,13056
239,13055
240,13053
240,13051
241,13050
241,13049
241,13048
241,13046
240,13044
240,13042
240,13041
240,13040
239,13039
238,13037
237,13036
236,13035
235,13035
234,13034
232,13033
232,13032
231,13032
229,13031
227,13030
226,13030
225,13030
224,13030
222,13030
220,13031
218,13031
217,13031
216,13032
215,13033
213,13034
212,13035
211,13035
211,13036
210,13037
209,13038
208,13039
208,13040
207,13042
206,13044
206,13046
206,13047
206,13048
206,13050
207,13051
207,13053
207,13054
208,13055
209,13056
210,13058
211,13059
211,13060
212,13061
213,13062
214,13063
215,13063
216,13063
218,13064
220,13064
222,13065
223,13065
224,13065
" style="stroke:#ffffff;stroke-width:0;
stroke-linejoin:bevel; stroke-linecap:butt;
fill:#ffffff;
"/>
<!-- Line -->
<!--  spline  -->
<polyline points="224,13129
226,13129
227,13128
229,13128
230,13128
231,13128
232,13127
234,13126
235,13125
236,13124
237,13123
238,13122
239,13120
239,13119
240,13117
240,13115
241,13113
241,13112
241,13111
241,13109
240,13108
240,13106
240,13105
240,13104
239,13103
238,13101
237,13100
236,13099
235,13098
234,13097
232,13096
231,13096
229,13095
227,13095
226,13094
225,13094
224,13094
222,13094
220,13095
218,13095
217,13095
216,13095
215,13096
213,13097
212,13098
211,13099
211,13100
210,13101
209,13103
208,13103
208,13104
207,13106
206,13108
206,13109
206,13110
206,13111
206,13113
207,13115
207,13117
207,13118
208,13119
209,13120
210,13122
211,13123
211,13124
212,13125
213,13126
214,13127
215,13127
216,13127
218,13128
220,13128
222,13129
223,13129
224,13129
" style="stroke:#ffffff;stroke-width:0;
stroke-linejoin:bevel; stroke-linecap:butt;
fill:#ffffff;
"/>
</g>
</svg>
