<?xml version="1.0" standalone="no"?>
<!DOCTYPE svg PUBLIC "-//W3C//DTD SVG 1.1//EN"
"http://www.w3.org/Graphics/SVG/1.1/DTD/svg11.dtd">
<!-- Creator: fig2dev Version 3.2 Patchlevel 5c -->
<!-- CreationDate: Fri Sep 14 10:46:14 2012 -->
<!-- Magnification: 1.000 -->
<svg xmlns="http://www.w3.org/2000/svg" width="0.5in" height="0.5in" viewBox="-9 12568 637 641">
<g style="stroke-width:.025in; fill:none">
<!-- Line -->
<!--  spline  -->
<polyline points="616,12699
616,12700
613,12706
608,12718
604,12730
601,12736
601,12737
600,12738
598,12740
592,12746
584,12752
573,12760
557,12769
544,12776
535,12780
530,12782
527,12783
525,12784
519,12786
508,12790
491,12795
473,12800
461,12803
455,12804
452,12805
448,12806
441,12807
428,12809
407,12812
385,12814
366,12816
350,12817
335,12818
323,12818
315,12818
311,12818
310,12818
309,12818
301,12817
284,12816
262,12815
239,12814
222,12813
214,12812
213,12812
212,12812
209,12811
201,12810
190,12809
178,12806
164,12804
148,12800
129,12795
112,12790
101,12786
95,12784
92,12783
90,12782
85,12780
75,12776
62,12769
47,12760
39,12756
36,12754
34,12752
29,12747
19,12737
11,12726
7,12717
4,12709
3,12703
3,12700
3,12699
3,12703
3,12710
3,12724
3,12745
3,12773
3,12807
3,12846
3,12888
3,12930
3,12969
3,13003
3,13031
3,13052
3,13066
3,13073
3,13077
3,13078
6,13084
11,13096
16,13108
19,13114
19,13115
19,13116
22,13119
28,13124
35,13131
46,13139
62,13148
75,13155
85,13159
90,13161
92,13162
95,13163
101,13165
112,13169
129,13174
147,13179
159,13182
165,13183
169,13184
172,13185
179,13186
192,13188
213,13191
235,13193
254,13195
270,13196
285,13197
297,13197
305,13197
309,13197
310,13197
311,13197
319,13196
336,13195
359,13194
381,13193
398,13192
406,13191
407,13191
408,13191
411,13190
419,13189
430,13188
442,13185
456,13183
473,13179
491,13174
508,13169
519,13165
525,13163
527,13162
530,13161
535,13159
544,13155
557,13148
572,13139
580,13134
583,13132
586,13131
591,13125
601,13115
609,13104
613,13095
615,13087
616,13081
616,13078
616,13077
616,13073
616,13066
616,13052
616,13031
616,13003
616,12969
616,12930
616,12888
616,12846
616,12807
616,12773
616,12745
616,12724
616,12710
616,12703
616,12699
" style="stroke:#00a5d4;stroke-width:0;
stroke-linejoin:bevel; stroke-linecap:butt;
fill:#00a5d4;
"/>
<!-- Line -->
<!--  spline  -->
<polyline points="616,12699
616,12700
613,12706
608,12718
604,12730
601,12736
601,12737
600,12738
598,12740
592,12746
584,12752
573,12760
557,12769
544,12776
535,12780
530,12782
527,12783
525,12784
519,12786
508,12790
491,12795
473,12800
461,12803
455,12804
452,12805
448,12806
441,12807
428,12809
407,12812
385,12814
366,12816
350,12817
335,12818
323,12818
315,12818
311,12818
310,12818
309,12818
301,12817
284,12816
262,12815
239,12814
222,12813
214,12812
213,12812
212,12812
209,12811
201,12810
190,12809
178,12806
164,12804
148,12800
129,12795
112,12790
101,12786
95,12784
92,12783
90,12782
85,12780
75,12776
62,12769
47,12760
39,12756
36,12754
34,12752
29,12747
19,12737
11,12726
7,12717
4,12709
3,12703
3,12700
3,12699
3,12703
3,12710
3,12724
3,12745
3,12773
3,12807
3,12846
3,12888
3,12930
3,12969
3,13003
3,13031
3,13052
3,13066
3,13073
3,13077
3,13078
6,13084
11,13096
16,13108
19,13114
19,13115
19,13116
22,13119
28,13124
35,13131
46,13139
62,13148
75,13155
85,13159
90,13161
92,13162
95,13163
101,13165
112,13169
129,13174
147,13179
159,13182
165,13183
169,13184
172,13185
179,13186
192,13188
213,13191
235,13193
254,13195
270,13196
285,13197
297,13197
305,13197
309,13197
310,13197
311,13197
319,13196
336,13195
359,13194
381,13193
398,13192
406,13191
407,13191
408,13191
411,13190
419,13189
430,13188
442,13185
456,13183
473,13179
491,13174
508,13169
519,13165
525,13163
527,13162
530,13161
535,13159
544,13155
557,13148
572,13139
580,13134
583,13132
586,13131
591,13125
601,13115
609,13104
613,13095
615,13087
616,13081
616,13078
616,13077
616,13073
616,13066
616,13052
616,13031
616,13003
616,12969
616,12930
616,12888
616,12846
616,12807
616,12773
616,12745
616,12724
616,12710
616,12703
616,12699
" style="stroke:#ffffff;stroke-width:7;
stroke-linejoin:bevel; stroke-linecap:butt;
"/>
<!-- Line -->
<!--  spline  -->
<polyline points="310,12818
311,12818
319,12817
336,12816
359,12815
381,12814
398,12813
406,12812
407,12812
408,12812
411,12811
419,12810
430,12809
442,12806
456,12804
473,12800
491,12795
508,12790
519,12786
525,12784
527,12783
530,12782
535,12780
544,12776
557,12769
572,12760
580,12756
583,12754
586,12752
591,12747
601,12737
609,12726
613,12717
615,12709
616,12703
616,12700
616,12699
616,12698
613,12692
608,12680
604,12668
601,12662
601,12661
600,12660
598,12658
592,12652
584,12646
573,12638
557,12629
544,12622
535,12618
530,12616
527,12615
525,12614
519,12612
508,12608
491,12603
473,12598
461,12595
455,12594
452,12593
448,12592
441,12591
428,12589
407,12586
385,12584
366,12582
350,12581
335,12580
323,12580
315,12580
311,12580
310,12580
309,12580
301,12581
284,12582
262,12583
239,12584
222,12585
214,12586
213,12586
212,12586
209,12587
201,12588
190,12589
178,12592
164,12594
148,12598
129,12603
112,12608
101,12612
95,12614
92,12615
90,12616
85,12618
75,12622
62,12629
47,12638
39,12642
36,12644
34,12646
29,12651
19,12661
11,12672
7,12681
4,12689
3,12695
3,12698
3,12699
3,12700
6,12706
11,12718
16,12730
19,12736
19,12737
19,12738
22,12740
28,12746
35,12752
46,12760
62,12769
75,12776
85,12780
90,12782
92,12783
95,12784
101,12786
112,12790
129,12795
147,12800
159,12803
165,12804
169,12805
172,12806
179,12807
192,12809
213,12812
235,12814
254,12816
270,12817
285,12818
297,12818
305,12818
309,12818
310,12818
" style="stroke:#00a5d4;stroke-width:0;
stroke-linejoin:bevel; stroke-linecap:butt;
fill:#00a5d4;
"/>
<!-- Line -->
<!--  spline  -->
<polyline points="310,12818
311,12818
319,12817
336,12816
359,12815
381,12814
398,12813
406,12812
407,12812
408,12812
411,12811
419,12810
430,12809
442,12806
456,12804
473,12800
491,12795
508,12790
519,12786
525,12784
527,12783
530,12782
535,12780
544,12776
557,12769
572,12760
580,12756
583,12754
586,12752
591,12747
601,12737
609,12726
613,12717
615,12709
616,12703
616,12700
616,12699
616,12698
613,12692
608,12680
604,12668
601,12662
601,12661
600,12660
598,12658
592,12652
584,12646
573,12638
557,12629
544,12622
535,12618
530,12616
527,12615
525,12614
519,12612
508,12608
491,12603
473,12598
461,12595
455,12594
452,12593
448,12592
441,12591
428,12589
407,12586
385,12584
366,12582
350,12581
335,12580
323,12580
315,12580
311,12580
310,12580
309,12580
301,12581
284,12582
262,12583
239,12584
222,12585
214,12586
213,12586
212,12586
209,12587
201,12588
190,12589
178,12592
164,12594
148,12598
129,12603
112,12608
101,12612
95,12614
92,12615
90,12616
85,12618
75,12622
62,12629
47,12638
39,12642
36,12644
34,12646
29,12651
19,12661
11,12672
7,12681
4,12689
3,12695
3,12698
3,12699
3,12700
6,12706
11,12718
16,12730
19,12736
19,12737
19,12738
22,12740
28,12746
35,12752
46,12760
62,12769
75,12776
85,12780
90,12782
92,12783
95,12784
101,12786
112,12790
129,12795
147,12800
159,12803
165,12804
169,12805
172,12806
179,12807
192,12809
213,12812
235,12814
254,12816
270,12817
285,12818
297,12818
305,12818
309,12818
310,12818
" style="stroke:#ffffff;stroke-width:7;
stroke-linejoin:bevel; stroke-linecap:butt;
"/>
<!-- Line -->
<!--  polyline  -->
<polyline points="277,12881
277,13109
543,12999
277,12881
" style="stroke:#ffffff;stroke-width:0;
stroke-linejoin:miter; stroke-linecap:butt;
fill:#ffffff;
"/>
<!-- Line -->
<!--  polyline  -->
<polyline points="248,12879
248,12926
161,12927
161,12879
248,12879
" style="stroke:#ffffff;stroke-width:0;
stroke-linejoin:miter; stroke-linecap:butt;
fill:#ffffff;
"/>
<!-- Line -->
<!--  polyline  -->
<polyline points="248,12879
248,12926
161,12927
161,12879
248,12879
" style="stroke:#000000;stroke-width:7;
stroke-linejoin:miter; stroke-linecap:butt;
"/>
<!-- Line -->
<!--  polyline  -->
<polyline points="248,12941
248,12989
161,12989
161,12941
248,12941
" style="stroke:#ffffff;stroke-width:0;
stroke-linejoin:miter; stroke-linecap:butt;
fill:#ffffff;
"/>
<!-- Line -->
<!--  polyline  -->
<polyline points="248,12941
248,12989
161,12989
161,12941
248,12941
" style="stroke:#000000;stroke-width:7;
stroke-linejoin:miter; stroke-linecap:butt;
"/>
<!-- Line -->
<!--  polyline  -->
<polyline points="248,13004
248,13052
161,13052
161,13004
248,13004
" style="stroke:#ffffff;stroke-width:0;
stroke-linejoin:miter; stroke-linecap:butt;
fill:#ffffff;
"/>
<!-- Line -->
<!--  polyline  -->
<polyline points="248,13004
248,13052
161,13052
161,13004
248,13004
" style="stroke:#000000;stroke-width:7;
stroke-linejoin:miter; stroke-linecap:butt;
"/>
<!-- Line -->
<!--  polyline  -->
<polyline points="248,13068
248,13115
161,13115
161,13068
248,13068
" style="stroke:#ffffff;stroke-width:0;
stroke-linejoin:miter; stroke-linecap:butt;
fill:#ffffff;
"/>
<!-- Line -->
<!--  polyline  -->
<polyline points="248,13068
248,13115
161,13115
161,13068
248,13068
" style="stroke:#000000;stroke-width:7;
stroke-linejoin:miter; stroke-linecap:butt;
"/>
<!-- Line -->
<!--  polyline  -->
<polyline points="244,12648
270,12686
174,12708
195,12691
47,12666
84,12638
227,12662
244,12648
" style="stroke:#ffffff;stroke-width:0;
stroke-linejoin:miter; stroke-linecap:butt;
fill:#ffffff;
"/>
<!-- Line -->
<!--  polyline  -->
<polyline points="379,12740
362,12701
448,12684
433,12697
577,12722
542,12750
399,12723
379,12740
" style="stroke:#ffffff;stroke-width:0;
stroke-linejoin:miter; stroke-linecap:butt;
fill:#ffffff;
"/>
<!-- Line -->
<!--  polyline  -->
<polyline points="332,12628
428,12601
430,12643
405,12638
358,12677
313,12671
362,12632
332,12628
" style="stroke:#ffffff;stroke-width:0;
stroke-linejoin:miter; stroke-linecap:butt;
fill:#ffffff;
"/>
<!-- Line -->
<!--  polyline  -->
<polyline points="290,12776
198,12793
195,12751
221,12757
272,12713
317,12721
263,12768
290,12776
" style="stroke:#ffffff;stroke-width:0;
stroke-linejoin:miter; stroke-linecap:butt;
fill:#ffffff;
"/>
</g>
</svg>
