<?xml version="1.0" standalone="no"?>
<!DOCTYPE svg PUBLIC "-//W3C//DTD SVG 1.1//EN"
"http://www.w3.org/Graphics/SVG/1.1/DTD/svg11.dtd">
<!-- Creator: fig2dev Version 3.2 Patchlevel 5c -->
<!-- CreationDate: Fri Sep 14 10:46:14 2012 -->
<!-- Magnification: 1.000 -->
<svg xmlns="http://www.w3.org/2000/svg" width="0.3in" height="0.5in" viewBox="-1 12586 409 617">
<g style="stroke-width:.025in; fill:none">
<!-- Line -->
<!--  polyline  -->
<polyline points="11,13191
11,12662
320,12662
320,13191
11,13191
" style="stroke:#00a5d4;stroke-width:0;
stroke-linejoin:miter; stroke-linecap:butt;
fill:#00a5d4;
"/>
<!-- Line -->
<!--  polyline  -->
<polyline points="11,13191
11,12662
320,12662
320,13191
11,13191
" style="stroke:#ffffff;stroke-width:7;
stroke-linejoin:miter; stroke-linecap:butt;
"/>
<!-- Line -->
<!--  polyline  -->
<polyline points="103,12598
11,12662
320,12662
396,12598
103,12598
" style="stroke:#00a5d4;stroke-width:0;
stroke-linejoin:miter; stroke-linecap:butt;
fill:#00a5d4;
"/>
<!-- Line -->
<!--  polyline  -->
<polyline points="103,12598
11,12662
320,12662
396,12598
103,12598
" style="stroke:#ffffff;stroke-width:7;
stroke-linejoin:miter; stroke-linecap:butt;
"/>
<!-- Line -->
<!--  polyline  -->
<polyline points="396,13096
396,12598
320,12665
320,13191
396,13096
" style="stroke:#00a5d4;stroke-width:0;
stroke-linejoin:miter; stroke-linecap:butt;
fill:#00a5d4;
"/>
<!-- Line -->
<!--  polyline  -->
<polyline points="396,13096
396,12598
320,12665
320,13191
396,13096
" style="stroke:#ffffff;stroke-width:7;
stroke-linejoin:miter; stroke-linecap:butt;
"/>
<!-- Line -->
<!--  polyline  -->
<polyline points="169,12669
21,12923
317,12923
169,12669
" style="stroke:#ffffff;stroke-width:0;
stroke-linejoin:miter; stroke-linecap:butt;
fill:#ffffff;
"/>
<!-- Line -->
<!--  polyline  -->
<polyline points="169,13176
21,12923
317,12923
169,13176
" style="stroke:#ffffff;stroke-width:0;
stroke-linejoin:miter; stroke-linecap:butt;
fill:#ffffff;
"/>
<!-- Line -->
<!--  spline  -->
<polyline points="151,12976
152,12975
157,12970
168,12961
178,12952
183,12947
184,12946
183,12946
178,12946
172,12946
167,12946
166,12946
164,12946
160,12946
156,12946
151,12946
146,12946
145,12946
144,12946
142,12947
138,12947
134,12947
132,12947
131,12948
129,12948
125,12948
120,12948
117,12949
114,12949
112,12949
112,12950
110,12956
108,12964
106,12970
106,12971
106,12972
105,12974
104,12978
102,12983
100,12990
98,12996
97,12998
97,12999
96,13002
94,13007
92,13012
92,13014
92,13015
91,13017
89,13022
87,13028
85,13032
83,13036
82,13038
83,13037
89,13032
100,13022
111,13012
117,13007
118,13006
119,13007
123,13010
128,13014
132,13017
133,13018
136,13020
139,13021
144,13024
150,13026
156,13028
158,13028
159,13028
161,13029
167,13029
172,13029
175,13029
178,13029
183,13028
189,13027
194,13025
197,13024
200,13023
201,13023
201,13022
202,13021
203,13020
210,13014
223,13002
236,12990
243,12984
244,12983
243,12984
239,12987
232,12991
228,12994
227,12995
224,12996
220,12998
215,12999
208,13000
201,13000
199,13000
197,13000
195,12999
188,12998
182,12996
179,12996
178,12995
175,12994
169,12991
162,12986
157,12982
154,12979
151,12976
" style="stroke:#00a5d4;stroke-width:0;
stroke-linejoin:bevel; stroke-linecap:butt;
fill:#00a5d4;
"/>
<!-- Line -->
<!--  spline  -->
<polyline points="121,12922
121,12921
120,12916
118,12908
117,12903
117,12902
117,12901
117,12899
117,12894
117,12889
117,12881
118,12874
118,12871
118,12870
119,12868
120,12861
122,12854
122,12852
123,12851
124,12848
126,12842
129,12836
131,12831
133,12827
135,12825
136,12824
137,12823
138,12822
139,12821
139,12820
140,12819
141,12818
141,12817
142,12816
143,12815
144,12814
145,12813
146,12812
147,12811
146,12812
139,12819
126,12831
113,12842
106,12849
105,12850
104,12851
103,12851
102,12852
101,12852
101,12853
100,12854
99,12855
99,12856
98,12857
97,12858
96,12859
95,12860
94,12861
94,12862
93,12863
93,12864
90,12868
87,12875
84,12879
84,12880
83,12883
81,12886
79,12891
77,12898
76,12904
75,12907
75,12908
75,12911
75,12918
75,12925
75,12928
75,12929
75,12932
75,12939
76,12947
77,12952
77,12957
78,12959
78,12960
79,12959
86,12953
100,12941
113,12929
120,12923
121,12922
" style="stroke:#00a5d4;stroke-width:0;
stroke-linejoin:bevel; stroke-linecap:butt;
fill:#00a5d4;
"/>
<!-- Line -->
<!--  spline  -->
<polyline points="204,12810
203,12810
201,12809
197,12808
195,12807
194,12807
192,12806
190,12806
187,12805
183,12804
180,12803
178,12803
176,12803
173,12803
170,12803
168,12803
166,12803
163,12804
159,12805
157,12806
155,12806
153,12807
152,12808
151,12808
151,12809
150,12809
149,12809
148,12809
148,12810
147,12811
146,12812
139,12819
126,12831
113,12842
106,12849
105,12850
106,12850
109,12847
113,12844
116,12841
117,12841
119,12840
122,12838
125,12837
130,12835
135,12834
137,12833
139,12833
144,12833
149,12833
151,12833
153,12833
158,12834
163,12835
167,12836
170,12837
172,12838
171,12839
165,12844
156,12853
150,12858
149,12859
150,12859
156,12859
168,12858
185,12858
202,12858
214,12857
220,12857
221,12857
221,12856
222,12850
224,12838
227,12821
230,12804
232,12792
233,12786
233,12785
232,12786
227,12790
218,12798
210,12805
205,12809
204,12810
" style="stroke:#00a5d4;stroke-width:0;
stroke-linejoin:bevel; stroke-linecap:butt;
fill:#00a5d4;
"/>
<!-- Line -->
<!--  spline  -->
<polyline points="258,12836
259,12838
262,12846
266,12858
269,12866
270,12868
270,12869
271,12873
272,12879
273,12887
274,12898
274,12908
274,12912
274,12913
273,12917
272,12926
271,12935
270,12939
269,12940
269,12943
266,12951
263,12959
260,12964
258,12967
256,12970
255,12971
255,12972
254,12973
253,12974
252,12975
251,12976
250,12977
249,12978
248,12979
248,12980
247,12981
246,12982
245,12982
245,12983
244,12983
243,12984
236,12990
223,13002
210,13014
203,13020
202,13021
203,13020
204,13019
205,13019
205,13018
206,13018
207,13017
208,13016
208,13015
209,13014
210,13013
210,13012
211,13011
212,13010
212,13009
213,13008
214,13006
218,12999
223,12987
227,12980
228,12978
228,12977
229,12974
231,12967
232,12959
233,12949
233,12939
233,12935
232,12934
231,12930
230,12921
228,12912
228,12909
227,12907
226,12904
224,12896
222,12888
220,12882
218,12877
217,12875
217,12874
218,12873
225,12867
238,12855
250,12843
257,12837
258,12836
" style="stroke:#00a5d4;stroke-width:0;
stroke-linejoin:bevel; stroke-linecap:butt;
fill:#00a5d4;
"/>
</g>
</svg>
