<?xml version="1.0" standalone="no"?>
<!DOCTYPE svg PUBLIC "-//W3C//DTD SVG 1.1//EN"
"http://www.w3.org/Graphics/SVG/1.1/DTD/svg11.dtd">
<!-- Creator: fig2dev Version 3.2 Patchlevel 5c -->
<!-- CreationDate: Fri Sep 14 10:46:15 2012 -->
<!-- Magnification: 1.000 -->
<svg xmlns="http://www.w3.org/2000/svg" width="0.5in" height="0.3in" viewBox="4831 6299 570 313">
<g style="stroke-width:.025in; fill:none">
<!-- Line -->
<!--  polyline  -->
<polyline points="5389,6577
5389,6311
5363,6334
5363,6600
5389,6577
" style="stroke:#02709f;stroke-width:0;
stroke-linejoin:miter; stroke-linecap:butt;
fill:#02709f;
"/>
<!-- Line -->
<!--  polyline  -->
<polyline points="5389,6577
5389,6311
5363,6334
5363,6600
5389,6577
" style="stroke:#ffffff;stroke-width:7;
stroke-linejoin:miter; stroke-linecap:butt;
"/>
<!-- Line -->
<!--  polyline  -->
<polyline points="5362,6600
5362,6335
4843,6335
4843,6600
5362,6600
" style="stroke:#02709f;stroke-width:0;
stroke-linejoin:miter; stroke-linecap:butt;
fill:#02709f;
"/>
<!-- Line -->
<!--  polyline  -->
<polyline points="5362,6600
5362,6335
4843,6335
4843,6600
5362,6600
" style="stroke:#ffffff;stroke-width:7;
stroke-linejoin:miter; stroke-linecap:butt;
"/>
<!-- Line -->
<!--  polyline  -->
<polyline points="5389,6311
4871,6311
4843,6335
5362,6335
5389,6311
" style="stroke:#02709f;stroke-width:0;
stroke-linejoin:miter; stroke-linecap:butt;
fill:#02709f;
"/>
<!-- Line -->
<!--  polyline  -->
<polyline points="5389,6311
4871,6311
4843,6335
5362,6335
5389,6311
" style="stroke:#ffffff;stroke-width:7;
stroke-linejoin:miter; stroke-linecap:butt;
"/>
<!-- Line -->
<!--  polyline  -->
<polyline points="5389,6311
5362,6335
" style="stroke:#02709f;stroke-width:0;
stroke-linejoin:miter; stroke-linecap:butt;
fill:#02709f;
"/>
<!-- Line -->
<!--  polyline  -->
<polyline points="5389,6311
5362,6335
" style="stroke:#ffffff;stroke-width:7;
stroke-linejoin:miter; stroke-linecap:butt;
"/>
<!-- Line -->
<!--  spline  -->
<polyline points="5147,6382
5148,6381
5152,6377
5161,6370
5170,6363
5174,6359
5175,6358
5176,6359
5179,6364
5185,6375
5195,6390
5204,6405
5210,6416
5213,6421
5214,6422
5214,6423
5216,6428
5218,6437
5221,6448
5223,6461
5224,6477
5224,6491
5223,6498
5222,6501
5221,6503
5220,6509
5217,6520
5213,6531
5211,6536
5210,6538
5208,6541
5204,6548
5201,6554
5199,6556
5198,6558
5197,6558
5198,6558
5203,6558
5216,6558
5236,6558
5261,6558
5285,6558
5305,6558
5318,6558
5323,6558
5324,6558
" style="stroke:#ffffff;stroke-width:7;
stroke-linejoin:bevel; stroke-linecap:butt;
"/>
<!-- Line -->
<!--  polyline  -->
<polyline points="4941,6379
4914,6355
4919,6558
4860,6558
" style="stroke:#ffffff;stroke-width:7;
stroke-linejoin:miter; stroke-linecap:butt;
"/>
<!-- Line -->
<!--  spline  -->
<polyline points="4941,6410
4941,6409
4942,6406
4943,6400
4944,6397
4944,6396
4945,6394
4946,6392
4948,6390
4951,6387
4954,6385
4955,6384
4956,6383
4959,6382
4962,6381
4963,6381
4964,6381
4966,6380
4967,6380
4968,6380
4968,6379
4969,6379
4970,6379
4973,6379
4979,6379
4982,6379
4983,6379
4986,6379
4991,6379
4998,6379
5007,6379
5019,6379
5031,6379
5038,6379
5041,6379
5043,6379
5050,6379
5063,6379
5076,6379
5083,6379
5085,6379
5088,6379
5094,6379
5105,6379
5117,6379
5124,6379
5129,6379
5131,6379
5132,6379
5133,6379
5137,6380
5143,6381
5147,6382
5148,6382
5150,6383
5152,6385
5155,6387
5158,6390
5160,6393
5161,6395
5161,6397
5162,6400
5163,6403
5163,6404
5164,6405
5164,6407
5164,6409
5164,6410
5164,6411
5164,6412
5164,6415
5164,6419
5164,6422
5164,6423
5164,6424
5164,6427
5164,6433
5164,6441
5164,6452
5164,6462
5164,6467
5164,6470
5164,6472
5164,6478
5164,6488
5164,6500
5164,6505
5164,6507
5164,6512
5164,6522
5164,6531
5164,6537
5164,6541
5164,6543
5164,6544
5163,6546
5163,6550
5162,6552
5162,6553
5161,6554
5159,6556
5158,6558
5155,6560
5153,6562
5152,6563
5151,6563
5150,6564
5148,6565
5146,6566
5144,6567
5143,6567
5141,6568
5140,6568
5140,6569
5139,6569
5138,6569
5134,6569
5129,6569
5125,6569
5124,6569
5123,6569
5121,6569
5116,6569
5109,6569
5099,6569
5087,6569
5074,6569
5067,6569
5064,6569
5061,6569
5054,6569
5041,6569
5028,6569
5021,6569
5018,6569
5016,6569
5010,6569
4999,6569
4988,6569
4981,6569
4976,6569
4973,6569
4972,6569
4969,6568
4964,6568
4961,6567
4960,6567
4958,6566
4956,6565
4954,6563
4951,6561
4949,6559
4948,6557
4947,6557
4947,6555
4945,6553
4944,6551
4943,6550
4943,6549
4942,6547
4942,6546
4941,6546
4941,6545
4941,6544
4941,6538
4941,6525
4941,6504
4941,6477
4941,6451
4941,6430
4941,6417
4941,6411
4941,6410
" style="stroke:#02709f;stroke-width:0;
stroke-linejoin:bevel; stroke-linecap:butt;
fill:#02709f;
"/>
<!-- Line -->
<!--  spline  -->
<polyline points="4941,6410
4941,6409
4942,6406
4943,6400
4944,6397
4944,6396
4945,6394
4946,6392
4948,6390
4951,6387
4954,6385
4955,6384
4956,6383
4959,6382
4962,6381
4963,6381
4964,6381
4966,6380
4967,6380
4968,6380
4968,6379
4969,6379
4970,6379
4973,6379
4979,6379
4982,6379
4983,6379
4986,6379
4991,6379
4998,6379
5007,6379
5019,6379
5031,6379
5038,6379
5041,6379
5043,6379
5050,6379
5063,6379
5076,6379
5083,6379
5085,6379
5088,6379
5094,6379
5105,6379
5117,6379
5124,6379
5129,6379
5131,6379
5132,6379
5133,6379
5137,6380
5143,6381
5147,6382
5148,6382
5150,6383
5152,6385
5155,6387
5158,6390
5160,6393
5161,6395
5161,6397
5162,6400
5163,6403
5163,6404
5164,6405
5164,6407
5164,6409
5164,6410
5164,6411
5164,6412
5164,6415
5164,6419
5164,6422
5164,6423
5164,6424
5164,6427
5164,6433
5164,6441
5164,6452
5164,6462
5164,6467
5164,6470
5164,6472
5164,6478
5164,6488
5164,6500
5164,6505
5164,6507
5164,6512
5164,6522
5164,6531
5164,6537
5164,6541
5164,6543
5164,6544
5163,6546
5163,6550
5162,6552
5162,6553
5161,6554
5159,6556
5158,6558
5155,6560
5153,6562
5152,6563
5151,6563
5150,6564
5148,6565
5146,6566
5144,6567
5143,6567
5141,6568
5140,6568
5140,6569
5139,6569
5138,6569
5134,6569
5129,6569
5125,6569
5124,6569
5123,6569
5121,6569
5116,6569
5109,6569
5099,6569
5087,6569
5074,6569
5067,6569
5064,6569
5061,6569
5054,6569
5041,6569
5028,6569
5021,6569
5018,6569
5016,6569
5010,6569
4999,6569
4988,6569
4981,6569
4976,6569
4973,6569
4972,6569
4969,6568
4964,6568
4961,6567
4960,6567
4958,6566
4956,6565
4954,6563
4951,6561
4949,6559
4948,6557
4947,6557
4947,6555
4945,6553
4944,6551
4943,6550
4943,6549
4942,6547
4942,6546
4941,6546
4941,6545
4941,6544
4941,6538
4941,6525
4941,6504
4941,6477
4941,6451
4941,6430
4941,6417
4941,6411
4941,6410
" style="stroke:#ffffff;stroke-width:7;
stroke-linejoin:bevel; stroke-linecap:butt;
"/>
<!-- Line -->
<!--  polyline  -->
<polyline points="5324,6392
5197,6392
" style="stroke:#02709f;stroke-width:0;
stroke-linejoin:miter; stroke-linecap:butt;
fill:#02709f;
"/>
<!-- Line -->
<!--  polyline  -->
<polyline points="5324,6392
5197,6392
" style="stroke:#ffffff;stroke-width:7;
stroke-linejoin:miter; stroke-linecap:butt;
"/>
<!-- Line -->
<!--  polyline  -->
<polyline points="4919,6392
4860,6392
" style="stroke:#02709f;stroke-width:0;
stroke-linejoin:miter; stroke-linecap:butt;
fill:#02709f;
"/>
<!-- Line -->
<!--  polyline  -->
<polyline points="4919,6392
4860,6392
" style="stroke:#ffffff;stroke-width:7;
stroke-linejoin:miter; stroke-linecap:butt;
"/>
<!-- Line -->
<!--  polyline  -->
<polyline points="4914,6355
5163,6355
" style="stroke:#ffffff;stroke-width:7;
stroke-linejoin:miter; stroke-linecap:butt;
"/>
</g>
</svg>
