<?xml version="1.0" standalone="no"?>
<!DOCTYPE svg PUBLIC "-//W3C//DTD SVG 1.1//EN"
"http://www.w3.org/Graphics/SVG/1.1/DTD/svg11.dtd">
<!-- Creator: fig2dev Version 3.2 Patchlevel 5c -->
<!-- CreationDate: Fri Sep 14 10:46:15 2012 -->
<!-- Magnification: 1.000 -->
<svg xmlns="http://www.w3.org/2000/svg" width="0.5in" height="0.3in" viewBox="-3 12891 570 314">
<g style="stroke-width:.025in; fill:none">
<!-- Line -->
<!--  polyline  -->
<polyline points="555,13169
555,12903
528,12927
528,13193
555,13169
" style="stroke:#02709f;stroke-width:0;
stroke-linejoin:miter; stroke-linecap:butt;
fill:#02709f;
"/>
<!-- Line -->
<!--  polyline  -->
<polyline points="555,13169
555,12903
528,12927
528,13193
555,13169
" style="stroke:#ffffff;stroke-width:7;
stroke-linejoin:miter; stroke-linecap:butt;
"/>
<!-- Line -->
<!--  polyline  -->
<polyline points="528,13192
528,12927
9,12927
9,13192
528,13192
" style="stroke:#02709f;stroke-width:0;
stroke-linejoin:miter; stroke-linecap:butt;
fill:#02709f;
"/>
<!-- Line -->
<!--  polyline  -->
<polyline points="528,13192
528,12927
9,12927
9,13192
528,13192
" style="stroke:#ffffff;stroke-width:7;
stroke-linejoin:miter; stroke-linecap:butt;
"/>
<!-- Line -->
<!--  polyline  -->
<polyline points="555,12903
36,12903
9,12927
528,12927
555,12903
" style="stroke:#02709f;stroke-width:0;
stroke-linejoin:miter; stroke-linecap:butt;
fill:#02709f;
"/>
<!-- Line -->
<!--  polyline  -->
<polyline points="555,12903
36,12903
9,12927
528,12927
555,12903
" style="stroke:#ffffff;stroke-width:7;
stroke-linejoin:miter; stroke-linecap:butt;
"/>
<!-- Line -->
<!--  polyline  -->
<polyline points="555,12903
528,12927
" style="stroke:#02709f;stroke-width:0;
stroke-linejoin:miter; stroke-linecap:butt;
fill:#02709f;
"/>
<!-- Line -->
<!--  polyline  -->
<polyline points="555,12903
528,12927
" style="stroke:#ffffff;stroke-width:7;
stroke-linejoin:miter; stroke-linecap:butt;
"/>
<!-- Line -->
<!--  spline  -->
<polyline points="313,12974
314,12973
321,12967
332,12958
339,12952
340,12951
341,12952
344,12957
350,12968
360,12983
369,12998
375,13009
378,13014
379,13015
379,13016
381,13021
383,13030
386,13041
388,13054
389,13070
389,13084
388,13091
387,13094
386,13096
385,13102
382,13113
378,13124
376,13129
375,13131
373,13134
369,13141
366,13147
364,13149
363,13151
362,13151
363,13151
368,13151
381,13151
401,13151
426,13151
451,13151
471,13151
484,13151
489,13151
490,13151
" style="stroke:#ffffff;stroke-width:7;
stroke-linejoin:bevel; stroke-linecap:butt;
"/>
<!-- Line -->
<!--  polyline  -->
<polyline points="107,12971
79,12948
85,13151
26,13151
" style="stroke:#ffffff;stroke-width:7;
stroke-linejoin:miter; stroke-linecap:butt;
"/>
<!-- Line -->
<!--  spline  -->
<polyline points="107,13002
107,13001
108,12998
109,12993
110,12990
110,12989
111,12987
112,12985
113,12983
116,12980
119,12978
120,12977
121,12977
122,12976
125,12975
127,12974
128,12973
129,12973
131,12972
132,12972
132,12971
133,12971
134,12971
135,12971
139,12971
144,12971
148,12971
149,12971
150,12971
154,12971
161,12971
170,12971
184,12971
196,12971
203,12971
206,12971
209,12971
216,12971
229,12971
242,12971
249,12971
252,12971
254,12971
260,12971
271,12971
282,12971
289,12971
294,12971
297,12971
298,12971
302,12972
309,12974
313,12975
314,12975
316,12976
318,12978
320,12980
323,12983
325,12986
326,12987
326,12988
327,12989
328,12992
329,12995
329,12996
329,12997
330,12998
330,13000
330,13001
330,13002
330,13003
330,13004
330,13007
330,13011
330,13014
330,13015
330,13016
330,13019
330,13025
330,13033
330,13044
330,13054
330,13059
330,13062
330,13064
330,13070
330,13080
330,13092
330,13097
330,13099
330,13104
330,13114
330,13123
330,13129
330,13133
330,13135
330,13136
329,13138
328,13142
327,13144
327,13145
326,13146
325,13148
323,13150
321,13152
319,13154
317,13155
317,13156
315,13156
313,13158
311,13159
310,13160
309,13160
307,13161
306,13161
306,13162
305,13162
304,13162
303,13162
299,13162
294,13162
290,13162
289,13162
286,13162
281,13162
274,13162
265,13162
253,13162
241,13162
234,13162
230,13162
227,13162
220,13162
207,13162
194,13162
187,13162
184,13162
182,13162
176,13162
165,13162
153,13162
146,13162
141,13162
139,13162
138,13162
137,13162
134,13161
130,13160
127,13159
126,13159
124,13158
122,13157
120,13155
117,13153
115,13151
114,13150
113,13149
113,13148
111,13146
110,13144
109,13143
109,13142
108,13140
108,13139
107,13139
107,13138
107,13137
107,13136
107,13130
107,13117
107,13096
107,13069
107,13043
107,13022
107,13009
107,13003
107,13002
" style="stroke:#02709f;stroke-width:0;
stroke-linejoin:bevel; stroke-linecap:butt;
fill:#02709f;
"/>
<!-- Line -->
<!--  spline  -->
<polyline points="107,13002
107,13001
108,12998
109,12993
110,12990
110,12989
111,12987
112,12985
113,12983
116,12980
119,12978
120,12977
121,12977
122,12976
125,12975
127,12974
128,12973
129,12973
131,12972
132,12972
132,12971
133,12971
134,12971
135,12971
139,12971
144,12971
148,12971
149,12971
150,12971
154,12971
161,12971
170,12971
184,12971
196,12971
203,12971
206,12971
209,12971
216,12971
229,12971
242,12971
249,12971
252,12971
254,12971
260,12971
271,12971
282,12971
289,12971
294,12971
297,12971
298,12971
302,12972
309,12974
313,12975
314,12975
316,12976
318,12978
320,12980
323,12983
325,12986
326,12987
326,12988
327,12989
328,12992
329,12995
329,12996
329,12997
330,12998
330,13000
330,13001
330,13002
330,13003
330,13004
330,13007
330,13011
330,13014
330,13015
330,13016
330,13019
330,13025
330,13033
330,13044
330,13054
330,13059
330,13062
330,13064
330,13070
330,13080
330,13092
330,13097
330,13099
330,13104
330,13114
330,13123
330,13129
330,13133
330,13135
330,13136
329,13138
328,13142
327,13144
327,13145
326,13146
325,13148
323,13150
321,13152
319,13154
317,13155
317,13156
315,13156
313,13158
311,13159
310,13160
309,13160
307,13161
306,13161
306,13162
305,13162
304,13162
303,13162
299,13162
294,13162
290,13162
289,13162
286,13162
281,13162
274,13162
265,13162
253,13162
241,13162
234,13162
230,13162
227,13162
220,13162
207,13162
194,13162
187,13162
184,13162
182,13162
176,13162
165,13162
153,13162
146,13162
141,13162
139,13162
138,13162
137,13162
134,13161
130,13160
127,13159
126,13159
124,13158
122,13157
120,13155
117,13153
115,13151
114,13150
113,13149
113,13148
111,13146
110,13144
109,13143
109,13142
108,13140
108,13139
107,13139
107,13138
107,13137
107,13136
107,13130
107,13117
107,13096
107,13069
107,13043
107,13022
107,13009
107,13003
107,13002
" style="stroke:#ffffff;stroke-width:7;
stroke-linejoin:bevel; stroke-linecap:butt;
"/>
<!-- Line -->
<!--  polyline  -->
<polyline points="490,12984
362,12984
" style="stroke:#02709f;stroke-width:0;
stroke-linejoin:miter; stroke-linecap:butt;
fill:#02709f;
"/>
<!-- Line -->
<!--  polyline  -->
<polyline points="490,12984
362,12984
" style="stroke:#ffffff;stroke-width:7;
stroke-linejoin:miter; stroke-linecap:butt;
"/>
<!-- Line -->
<!--  polyline  -->
<polyline points="85,12984
26,12984
" style="stroke:#02709f;stroke-width:0;
stroke-linejoin:miter; stroke-linecap:butt;
fill:#02709f;
"/>
<!-- Line -->
<!--  polyline  -->
<polyline points="85,12984
26,12984
" style="stroke:#ffffff;stroke-width:7;
stroke-linejoin:miter; stroke-linecap:butt;
"/>
<!-- Line -->
<!--  polyline  -->
<polyline points="79,12948
328,12948
" style="stroke:#ffffff;stroke-width:7;
stroke-linejoin:miter; stroke-linecap:butt;
"/>
</g>
</svg>
