<?xml version="1.0" standalone="no"?>
<!DOCTYPE svg PUBLIC "-//W3C//DTD SVG 1.1//EN"
"http://www.w3.org/Graphics/SVG/1.1/DTD/svg11.dtd">
<!-- Creator: fig2dev Version 3.2 Patchlevel 5c -->
<!-- CreationDate: Fri Sep 14 10:46:15 2012 -->
<!-- Magnification: 1.000 -->
<svg xmlns="http://www.w3.org/2000/svg" width="0.5in" height="0.5in" viewBox="4788 6298 638 641">
<g style="stroke-width:.025in; fill:none">
<!-- Line -->
<!--  spline  -->
<polyline points="4801,6430
4801,6431
4804,6437
4809,6449
4814,6460
4817,6466
4817,6467
4817,6468
4820,6471
4826,6476
4833,6483
4844,6491
4860,6500
4873,6507
4883,6511
4888,6513
4890,6514
4893,6515
4899,6517
4910,6521
4927,6526
4945,6531
4957,6534
4963,6535
4967,6536
4970,6537
4977,6538
4990,6540
5011,6543
5033,6545
5052,6547
5068,6548
5083,6549
5095,6549
5103,6549
5107,6549
5108,6549
5109,6549
5117,6548
5133,6547
5156,6546
5179,6545
5195,6544
5203,6543
5204,6543
5205,6543
5208,6542
5216,6541
5227,6540
5240,6537
5254,6535
5270,6531
5289,6526
5306,6521
5317,6517
5323,6515
5325,6514
5328,6513
5333,6511
5342,6507
5355,6500
5370,6491
5378,6486
5381,6484
5384,6482
5389,6477
5399,6467
5407,6456
5411,6447
5413,6440
5414,6434
5414,6431
5414,6430
5414,6434
5414,6441
5414,6455
5414,6476
5414,6504
5414,6538
5414,6577
5414,6619
5414,6661
5414,6700
5414,6734
5414,6762
5414,6783
5414,6797
5414,6804
5414,6808
5414,6809
5411,6815
5406,6827
5402,6839
5399,6845
5399,6846
5398,6847
5396,6849
5390,6855
5382,6861
5371,6869
5355,6878
5342,6885
5333,6889
5328,6891
5325,6892
5323,6893
5317,6895
5306,6899
5289,6904
5271,6909
5259,6912
5252,6913
5249,6914
5246,6915
5239,6916
5225,6918
5204,6921
5182,6923
5163,6925
5147,6926
5133,6927
5121,6927
5113,6927
5109,6927
5108,6927
5107,6927
5099,6926
5082,6925
5060,6924
5037,6923
5020,6922
5012,6921
5011,6921
5010,6921
5007,6920
4999,6919
4988,6918
4976,6915
4962,6913
4946,6909
4927,6904
4910,6899
4899,6895
4893,6893
4890,6892
4888,6891
4883,6889
4873,6885
4860,6878
4845,6869
4837,6865
4834,6863
4832,6861
4827,6856
4817,6846
4809,6835
4805,6826
4802,6818
4801,6812
4801,6809
4801,6808
4801,6804
4801,6797
4801,6783
4801,6762
4801,6734
4801,6700
4801,6661
4801,6619
4801,6577
4801,6538
4801,6504
4801,6476
4801,6455
4801,6441
4801,6434
4801,6430
" style="stroke:#000000;stroke-width:0;
stroke-linejoin:bevel; stroke-linecap:butt;
fill:#000000;
"/>
<!-- Line -->
<!--  spline  -->
<polyline points="4801,6430
4801,6431
4804,6437
4809,6449
4814,6460
4817,6466
4817,6467
4817,6468
4820,6471
4826,6476
4833,6483
4844,6491
4860,6500
4873,6507
4883,6511
4888,6513
4890,6514
4893,6515
4899,6517
4910,6521
4927,6526
4945,6531
4957,6534
4963,6535
4967,6536
4970,6537
4977,6538
4990,6540
5011,6543
5033,6545
5052,6547
5068,6548
5083,6549
5095,6549
5103,6549
5107,6549
5108,6549
5109,6549
5117,6548
5133,6547
5156,6546
5179,6545
5195,6544
5203,6543
5204,6543
5205,6543
5208,6542
5216,6541
5227,6540
5240,6537
5254,6535
5270,6531
5289,6526
5306,6521
5317,6517
5323,6515
5325,6514
5328,6513
5333,6511
5342,6507
5355,6500
5370,6491
5378,6486
5381,6484
5384,6482
5389,6477
5399,6467
5407,6456
5411,6447
5413,6440
5414,6434
5414,6431
5414,6430
5414,6434
5414,6441
5414,6455
5414,6476
5414,6504
5414,6538
5414,6577
5414,6619
5414,6661
5414,6700
5414,6734
5414,6762
5414,6783
5414,6797
5414,6804
5414,6808
5414,6809
5411,6815
5406,6827
5402,6839
5399,6845
5399,6846
5398,6847
5396,6849
5390,6855
5382,6861
5371,6869
5355,6878
5342,6885
5333,6889
5328,6891
5325,6892
5323,6893
5317,6895
5306,6899
5289,6904
5271,6909
5259,6912
5252,6913
5249,6914
5246,6915
5239,6916
5225,6918
5204,6921
5182,6923
5163,6925
5147,6926
5133,6927
5121,6927
5113,6927
5109,6927
5108,6927
5107,6927
5099,6926
5082,6925
5060,6924
5037,6923
5020,6922
5012,6921
5011,6921
5010,6921
5007,6920
4999,6919
4988,6918
4976,6915
4962,6913
4946,6909
4927,6904
4910,6899
4899,6895
4893,6893
4890,6892
4888,6891
4883,6889
4873,6885
4860,6878
4845,6869
4837,6865
4834,6863
4832,6861
4827,6856
4817,6846
4809,6835
4805,6826
4802,6818
4801,6812
4801,6809
4801,6808
4801,6804
4801,6797
4801,6783
4801,6762
4801,6734
4801,6700
4801,6661
4801,6619
4801,6577
4801,6538
4801,6504
4801,6476
4801,6455
4801,6441
4801,6434
4801,6430
" style="stroke:#ffffff;stroke-width:7;
stroke-linejoin:bevel; stroke-linecap:butt;
"/>
<!-- Line -->
<!--  spline  -->
<polyline points="5413,6430
5413,6431
5410,6437
5405,6449
5401,6460
5398,6466
5398,6467
5397,6468
5395,6471
5389,6476
5381,6483
5370,6491
5354,6500
5341,6507
5332,6511
5327,6513
5324,6514
5322,6515
5316,6517
5305,6521
5288,6526
5270,6531
5258,6534
5252,6535
5249,6536
5245,6537
5238,6538
5225,6540
5204,6543
5182,6545
5163,6547
5147,6548
5132,6549
5120,6549
5112,6549
5108,6549
5107,6549
5106,6549
5098,6548
5081,6547
5059,6546
5036,6545
5019,6544
5011,6543
5010,6543
5009,6543
5006,6542
4998,6541
4987,6540
4975,6537
4961,6535
4945,6531
4926,6526
4909,6521
4898,6517
4892,6515
4889,6514
4887,6513
4882,6511
4872,6507
4859,6500
4844,6491
4836,6486
4833,6484
4831,6482
4826,6477
4816,6467
4808,6456
4804,6447
4801,6440
4800,6434
4800,6431
4800,6430
4800,6434
4800,6441
4800,6455
4800,6476
4800,6504
4800,6538
4800,6577
4800,6619
4800,6661
4800,6700
4800,6734
4800,6762
4800,6783
4800,6797
4800,6804
4800,6808
4800,6809
4803,6815
4808,6827
4813,6839
4816,6845
4816,6846
4816,6847
4819,6849
4825,6855
4832,6861
4843,6869
4859,6878
4872,6885
4882,6889
4887,6891
4889,6892
4892,6893
4898,6895
4909,6899
4926,6904
4944,6909
4956,6912
4962,6913
4966,6914
4969,6915
4976,6916
4989,6918
5010,6921
5032,6923
5051,6925
5067,6926
5082,6927
5094,6927
5102,6927
5106,6927
5107,6927
5108,6927
5116,6926
5133,6925
5156,6924
5178,6923
5195,6922
5203,6921
5204,6921
5205,6921
5208,6920
5216,6919
5227,6918
5239,6915
5253,6913
5270,6909
5288,6904
5305,6899
5316,6895
5322,6893
5324,6892
5327,6891
5332,6889
5341,6885
5354,6878
5369,6869
5377,6865
5380,6863
5383,6861
5388,6856
5398,6846
5406,6835
5410,6826
5412,6818
5413,6812
5413,6809
5413,6808
5413,6804
5413,6797
5413,6783
5413,6762
5413,6734
5413,6700
5413,6661
5413,6619
5413,6577
5413,6538
5413,6504
5413,6476
5413,6455
5413,6441
5413,6434
5413,6430
" style="stroke:#00a5d4;stroke-width:0;
stroke-linejoin:bevel; stroke-linecap:butt;
fill:#00a5d4;
"/>
<!-- Line -->
<!--  spline  -->
<polyline points="5413,6430
5413,6431
5410,6437
5405,6449
5401,6460
5398,6466
5398,6467
5397,6468
5395,6471
5389,6476
5381,6483
5370,6491
5354,6500
5341,6507
5332,6511
5327,6513
5324,6514
5322,6515
5316,6517
5305,6521
5288,6526
5270,6531
5258,6534
5252,6535
5249,6536
5245,6537
5238,6538
5225,6540
5204,6543
5182,6545
5163,6547
5147,6548
5132,6549
5120,6549
5112,6549
5108,6549
5107,6549
5106,6549
5098,6548
5081,6547
5059,6546
5036,6545
5019,6544
5011,6543
5010,6543
5009,6543
5006,6542
4998,6541
4987,6540
4975,6537
4961,6535
4945,6531
4926,6526
4909,6521
4898,6517
4892,6515
4889,6514
4887,6513
4882,6511
4872,6507
4859,6500
4844,6491
4836,6486
4833,6484
4831,6482
4826,6477
4816,6467
4808,6456
4804,6447
4801,6440
4800,6434
4800,6431
4800,6430
4800,6434
4800,6441
4800,6455
4800,6476
4800,6504
4800,6538
4800,6577
4800,6619
4800,6661
4800,6700
4800,6734
4800,6762
4800,6783
4800,6797
4800,6804
4800,6808
4800,6809
4803,6815
4808,6827
4813,6839
4816,6845
4816,6846
4816,6847
4819,6849
4825,6855
4832,6861
4843,6869
4859,6878
4872,6885
4882,6889
4887,6891
4889,6892
4892,6893
4898,6895
4909,6899
4926,6904
4944,6909
4956,6912
4962,6913
4966,6914
4969,6915
4976,6916
4989,6918
5010,6921
5032,6923
5051,6925
5067,6926
5082,6927
5094,6927
5102,6927
5106,6927
5107,6927
5108,6927
5116,6926
5133,6925
5156,6924
5178,6923
5195,6922
5203,6921
5204,6921
5205,6921
5208,6920
5216,6919
5227,6918
5239,6915
5253,6913
5270,6909
5288,6904
5305,6899
5316,6895
5322,6893
5324,6892
5327,6891
5332,6889
5341,6885
5354,6878
5369,6869
5377,6865
5380,6863
5383,6861
5388,6856
5398,6846
5406,6835
5410,6826
5412,6818
5413,6812
5413,6809
5413,6808
5413,6804
5413,6797
5413,6783
5413,6762
5413,6734
5413,6700
5413,6661
5413,6619
5413,6577
5413,6538
5413,6504
5413,6476
5413,6455
5413,6441
5413,6434
5413,6430
" style="stroke:#ffffff;stroke-width:7;
stroke-linejoin:bevel; stroke-linecap:butt;
"/>
<!-- Line -->
<!--  spline  -->
<polyline points="5107,6549
5108,6549
5116,6548
5133,6547
5156,6546
5178,6545
5195,6544
5203,6543
5204,6543
5205,6543
5208,6542
5216,6541
5227,6540
5239,6537
5253,6535
5270,6531
5288,6526
5305,6521
5316,6517
5322,6515
5324,6514
5327,6513
5332,6511
5341,6507
5354,6500
5369,6491
5377,6486
5380,6484
5383,6482
5388,6477
5398,6467
5406,6456
5410,6447
5412,6440
5413,6434
5413,6431
5413,6430
5413,6429
5410,6423
5405,6411
5401,6399
5398,6393
5398,6392
5397,6391
5395,6388
5389,6383
5381,6376
5370,6368
5354,6359
5341,6352
5332,6348
5327,6346
5324,6345
5322,6344
5316,6342
5305,6338
5288,6333
5270,6328
5258,6325
5252,6324
5249,6323
5245,6322
5238,6321
5225,6319
5204,6316
5182,6314
5163,6312
5147,6311
5132,6310
5120,6310
5112,6310
5108,6310
5107,6310
5106,6310
5098,6311
5081,6312
5059,6313
5036,6314
5019,6315
5011,6316
5010,6316
5009,6316
5006,6317
4998,6318
4987,6319
4975,6322
4961,6324
4945,6328
4926,6333
4909,6338
4898,6342
4892,6344
4889,6345
4887,6346
4882,6348
4872,6352
4859,6359
4844,6368
4836,6373
4833,6375
4831,6376
4826,6382
4816,6392
4808,6403
4804,6412
4801,6420
4800,6426
4800,6429
4800,6430
4800,6431
4803,6437
4808,6449
4813,6460
4816,6466
4816,6467
4816,6468
4819,6471
4825,6476
4832,6483
4843,6491
4859,6500
4872,6507
4882,6511
4887,6513
4889,6514
4892,6515
4898,6517
4909,6521
4926,6526
4944,6531
4956,6534
4962,6535
4966,6536
4969,6537
4976,6538
4989,6540
5010,6543
5032,6545
5051,6547
5067,6548
5082,6549
5094,6549
5102,6549
5106,6549
5107,6549
" style="stroke:#00a5d4;stroke-width:0;
stroke-linejoin:bevel; stroke-linecap:butt;
fill:#00a5d4;
"/>
<!-- Line -->
<!--  spline  -->
<polyline points="5107,6549
5108,6549
5116,6548
5133,6547
5156,6546
5178,6545
5195,6544
5203,6543
5204,6543
5205,6543
5208,6542
5216,6541
5227,6540
5239,6537
5253,6535
5270,6531
5288,6526
5305,6521
5316,6517
5322,6515
5324,6514
5327,6513
5332,6511
5341,6507
5354,6500
5369,6491
5377,6486
5380,6484
5383,6482
5388,6477
5398,6467
5406,6456
5410,6447
5412,6440
5413,6434
5413,6431
5413,6430
5413,6429
5410,6423
5405,6411
5401,6399
5398,6393
5398,6392
5397,6391
5395,6388
5389,6383
5381,6376
5370,6368
5354,6359
5341,6352
5332,6348
5327,6346
5324,6345
5322,6344
5316,6342
5305,6338
5288,6333
5270,6328
5258,6325
5252,6324
5249,6323
5245,6322
5238,6321
5225,6319
5204,6316
5182,6314
5163,6312
5147,6311
5132,6310
5120,6310
5112,6310
5108,6310
5107,6310
5106,6310
5098,6311
5081,6312
5059,6313
5036,6314
5019,6315
5011,6316
5010,6316
5009,6316
5006,6317
4998,6318
4987,6319
4975,6322
4961,6324
4945,6328
4926,6333
4909,6338
4898,6342
4892,6344
4889,6345
4887,6346
4882,6348
4872,6352
4859,6359
4844,6368
4836,6373
4833,6375
4831,6376
4826,6382
4816,6392
4808,6403
4804,6412
4801,6420
4800,6426
4800,6429
4800,6430
4800,6431
4803,6437
4808,6449
4813,6460
4816,6466
4816,6467
4816,6468
4819,6471
4825,6476
4832,6483
4843,6491
4859,6500
4872,6507
4882,6511
4887,6513
4889,6514
4892,6515
4898,6517
4909,6521
4926,6526
4944,6531
4956,6534
4962,6535
4966,6536
4969,6537
4976,6538
4989,6540
5010,6543
5032,6545
5051,6547
5067,6548
5082,6549
5094,6549
5102,6549
5106,6549
5107,6549
" style="stroke:#ffffff;stroke-width:7;
stroke-linejoin:bevel; stroke-linecap:butt;
"/>
<!-- Line -->
<!--  polyline  -->
<polyline points="5041,6379
5066,6417
4971,6439
4992,6422
4844,6396
4881,6368
5023,6393
5041,6379
" style="stroke:#ffffff;stroke-width:0;
stroke-linejoin:miter; stroke-linecap:butt;
fill:#ffffff;
"/>
<!-- Line -->
<!--  polyline  -->
<polyline points="5176,6471
5158,6432
5245,6415
5230,6428
5374,6453
5339,6480
5196,6453
5176,6471
" style="stroke:#ffffff;stroke-width:0;
stroke-linejoin:miter; stroke-linecap:butt;
fill:#ffffff;
"/>
<!-- Line -->
<!--  polyline  -->
<polyline points="5129,6358
5225,6332
5226,6373
5202,6368
5155,6408
5110,6401
5159,6363
5129,6358
" style="stroke:#ffffff;stroke-width:0;
stroke-linejoin:miter; stroke-linecap:butt;
fill:#ffffff;
"/>
<!-- Line -->
<!--  polyline  -->
<polyline points="5087,6507
4995,6524
4992,6481
5018,6487
5069,6444
5114,6451
5059,6499
5087,6507
" style="stroke:#ffffff;stroke-width:0;
stroke-linejoin:miter; stroke-linecap:butt;
fill:#ffffff;
"/>
<!-- Line -->
<!--  polyline  -->
<polyline points="5160,6773
5045,6773
5045,6659
5160,6659
5160,6773
" style="stroke:#ffffff;stroke-width:0;
stroke-linejoin:miter; stroke-linecap:butt;
fill:#ffffff;
"/>
<!-- Line -->
<!--  polyline  -->
<polyline points="5160,6773
5045,6773
5045,6659
5160,6659
5160,6773
" style="stroke:#000000;stroke-width:7;
stroke-linejoin:miter; stroke-linecap:butt;
"/>
<!-- Line -->
<!--  polyline  -->
<polyline points="4968,6577
4968,6625
4882,6625
4882,6577
4968,6577
" style="stroke:#ffffff;stroke-width:0;
stroke-linejoin:miter; stroke-linecap:butt;
fill:#ffffff;
"/>
<!-- Line -->
<!--  polyline  -->
<polyline points="4968,6577
4968,6625
4882,6625
4882,6577
4968,6577
" style="stroke:#000000;stroke-width:7;
stroke-linejoin:miter; stroke-linecap:butt;
"/>
<!-- Line -->
<!--  polyline  -->
<polyline points="4968,6696
4968,6744
4882,6744
4882,6696
4968,6696
" style="stroke:#ffffff;stroke-width:0;
stroke-linejoin:miter; stroke-linecap:butt;
fill:#ffffff;
"/>
<!-- Line -->
<!--  polyline  -->
<polyline points="4968,6696
4968,6744
4882,6744
4882,6696
4968,6696
" style="stroke:#000000;stroke-width:7;
stroke-linejoin:miter; stroke-linecap:butt;
"/>
<!-- Line -->
<!--  polyline  -->
<polyline points="4968,6808
4968,6856
4882,6856
4882,6808
4968,6808
" style="stroke:#ffffff;stroke-width:0;
stroke-linejoin:miter; stroke-linecap:butt;
fill:#ffffff;
"/>
<!-- Line -->
<!--  polyline  -->
<polyline points="4968,6808
4968,6856
4882,6856
4882,6808
4968,6808
" style="stroke:#000000;stroke-width:7;
stroke-linejoin:miter; stroke-linecap:butt;
"/>
<!-- Line -->
<!--  polyline  -->
<polyline points="5146,6808
5146,6856
5060,6856
5060,6808
5146,6808
" style="stroke:#ffffff;stroke-width:0;
stroke-linejoin:miter; stroke-linecap:butt;
fill:#ffffff;
"/>
<!-- Line -->
<!--  polyline  -->
<polyline points="5146,6808
5146,6856
5060,6856
5060,6808
5146,6808
" style="stroke:#000000;stroke-width:7;
stroke-linejoin:miter; stroke-linecap:butt;
"/>
<!-- Line -->
<!--  polyline  -->
<polyline points="5329,6577
5329,6625
5243,6625
5243,6577
5329,6577
" style="stroke:#ffffff;stroke-width:0;
stroke-linejoin:miter; stroke-linecap:butt;
fill:#ffffff;
"/>
<!-- Line -->
<!--  polyline  -->
<polyline points="5329,6577
5329,6625
5243,6625
5243,6577
5329,6577
" style="stroke:#000000;stroke-width:7;
stroke-linejoin:miter; stroke-linecap:butt;
"/>
<!-- Line -->
<!--  polyline  -->
<polyline points="5146,6577
5146,6625
5060,6625
5060,6577
5146,6577
" style="stroke:#ffffff;stroke-width:0;
stroke-linejoin:miter; stroke-linecap:butt;
fill:#ffffff;
"/>
<!-- Line -->
<!--  polyline  -->
<polyline points="5146,6577
5146,6625
5060,6625
5060,6577
5146,6577
" style="stroke:#000000;stroke-width:7;
stroke-linejoin:miter; stroke-linecap:butt;
"/>
<!-- Line -->
<!--  polyline  -->
<polyline points="5329,6696
5329,6744
5243,6744
5243,6696
5329,6696
" style="stroke:#ffffff;stroke-width:0;
stroke-linejoin:miter; stroke-linecap:butt;
fill:#ffffff;
"/>
<!-- Line -->
<!--  polyline  -->
<polyline points="5329,6696
5329,6744
5243,6744
5243,6696
5329,6696
" style="stroke:#000000;stroke-width:7;
stroke-linejoin:miter; stroke-linecap:butt;
"/>
<!-- Line -->
<!--  polyline  -->
<polyline points="5329,6808
5329,6856
5243,6856
5243,6808
5329,6808
" style="stroke:#ffffff;stroke-width:0;
stroke-linejoin:miter; stroke-linecap:butt;
fill:#ffffff;
"/>
<!-- Line -->
<!--  polyline  -->
<polyline points="5329,6808
5329,6856
5243,6856
5243,6808
5329,6808
" style="stroke:#000000;stroke-width:7;
stroke-linejoin:miter; stroke-linecap:butt;
"/>
<!-- Line -->
<!--  polyline  -->
<polyline points="4927,6717
5285,6717
" style="stroke:#ffffff;stroke-width:15;
stroke-linejoin:miter; stroke-linecap:butt;
"/>
<!-- Line -->
<!--  polyline  -->
<polyline points="5102,6609
5102,6834
" style="stroke:#ffffff;stroke-width:15;
stroke-linejoin:miter; stroke-linecap:butt;
"/>
<!-- Line -->
<!--  polyline  -->
<polyline points="4942,6834
5273,6603
" style="stroke:#ffffff;stroke-width:15;
stroke-linejoin:miter; stroke-linecap:butt;
"/>
<!-- Line -->
<!--  polyline  -->
<polyline points="5267,6834
4935,6603
" style="stroke:#ffffff;stroke-width:15;
stroke-linejoin:miter; stroke-linecap:butt;
"/>
</g>
</svg>
