<?xml version="1.0" standalone="no"?>
<!DOCTYPE svg PUBLIC "-//W3C//DTD SVG 1.1//EN"
"http://www.w3.org/Graphics/SVG/1.1/DTD/svg11.dtd">
<!-- Creator: fig2dev Version 3.2 Patchlevel 5c -->
<!-- CreationDate: Fri Sep 14 10:46:15 2012 -->
<!-- Magnification: 1.000 -->
<svg xmlns="http://www.w3.org/2000/svg" width="0.7in" height="0.3in" viewBox="-3 12792 820 412">
<g style="stroke-width:.025in; fill:none">
<!-- Line -->
<!--  polyline  -->
<polyline points="9,12998
250,12804
805,12804
606,12998
9,12998
" style="stroke:#00a5d4;stroke-width:0;
stroke-linejoin:miter; stroke-linecap:butt;
fill:#00a5d4;
"/>
<!-- Line -->
<!--  polyline  -->
<polyline points="9,12998
250,12804
805,12804
606,12998
9,12998
" style="stroke:#ffffff;stroke-width:7;
stroke-linejoin:miter; stroke-linecap:butt;
"/>
<!-- Line -->
<!--  polyline  -->
<polyline points="606,13191
805,12977
805,12804
606,12998
606,13191
" style="stroke:#00a5d4;stroke-width:0;
stroke-linejoin:miter; stroke-linecap:butt;
fill:#00a5d4;
"/>
<!-- Line -->
<!--  polyline  -->
<polyline points="606,13191
805,12977
805,12804
606,12998
606,13191
" style="stroke:#ffffff;stroke-width:7;
stroke-linejoin:miter; stroke-linecap:butt;
"/>
<!-- Line -->
<!--  polyline  -->
<polyline points="606,13192
606,12998
10,12998
10,13192
606,13192
" style="stroke:#00a5d4;stroke-width:0;
stroke-linejoin:miter; stroke-linecap:butt;
fill:#00a5d4;
"/>
<!-- Line -->
<!--  polyline  -->
<polyline points="606,13192
606,12998
10,12998
10,13192
606,13192
" style="stroke:#ffffff;stroke-width:7;
stroke-linejoin:miter; stroke-linecap:butt;
"/>
<!-- Line -->
<!--  spline  -->
<polyline points="518,12833
517,12833
510,12833
496,12833
476,12834
455,12834
441,12834
434,12834
433,12834
432,12834
429,12834
422,12835
411,12835
399,12836
385,12837
368,12839
349,12841
331,12844
318,12845
312,12847
309,12847
307,12848
301,12849
289,12851
273,12855
257,12859
246,12861
241,12863
239,12863
236,12864
231,12865
222,12868
209,12873
193,12880
181,12885
173,12890
167,12894
164,12896
163,12896
162,12897
157,12903
150,12913
145,12919
144,12920
144,12921
144,12923
143,12926
144,12929
145,12932
147,12936
151,12941
158,12947
161,12950
163,12951
165,12952
171,12954
183,12959
196,12963
204,12966
207,12966
210,12967
220,12969
238,12972
254,12974
268,12976
281,12977
292,12978
301,12978
308,12979
311,12979
312,12979
313,12979
320,12979
334,12979
355,12979
375,12979
389,12979
396,12979
397,12979
398,12979
401,12979
408,12978
419,12977
431,12976
445,12975
462,12973
481,12971
500,12968
512,12967
518,12966
521,12965
524,12965
530,12964
541,12962
558,12958
574,12954
585,12951
590,12950
593,12949
595,12948
600,12947
609,12944
622,12939
638,12932
649,12927
658,12923
663,12919
666,12917
667,12917
668,12916
673,12910
681,12900
686,12894
687,12893
687,12891
687,12888
686,12883
684,12878
679,12872
672,12866
668,12863
667,12862
665,12861
659,12858
647,12853
634,12849
626,12846
624,12845
620,12845
611,12843
593,12840
577,12838
563,12836
550,12835
539,12834
529,12834
522,12833
519,12833
518,12833
" style="stroke:#00a5d4;stroke-width:0;
stroke-linejoin:bevel; stroke-linecap:butt;
fill:#00a5d4;
"/>
<!-- Line -->
<!--  spline  -->
<polyline points="518,12833
517,12833
510,12833
496,12833
476,12834
455,12834
441,12834
434,12834
433,12834
432,12834
429,12834
422,12835
411,12835
399,12836
385,12837
368,12839
349,12841
331,12844
318,12845
312,12847
309,12847
307,12848
301,12849
289,12851
273,12855
257,12859
246,12861
241,12863
239,12863
236,12864
231,12865
222,12868
209,12873
193,12880
181,12885
173,12890
167,12894
164,12896
163,12896
162,12897
157,12903
150,12913
145,12919
144,12920
144,12921
144,12923
143,12926
144,12929
145,12932
147,12936
151,12941
158,12947
161,12950
163,12951
165,12952
171,12954
183,12959
196,12963
204,12966
207,12966
210,12967
220,12969
238,12972
254,12974
268,12976
281,12977
292,12978
301,12978
308,12979
311,12979
312,12979
313,12979
320,12979
334,12979
355,12979
375,12979
389,12979
396,12979
397,12979
398,12979
401,12979
408,12978
419,12977
431,12976
445,12975
462,12973
481,12971
500,12968
512,12967
518,12966
521,12965
524,12965
530,12964
541,12962
558,12958
574,12954
585,12951
590,12950
593,12949
595,12948
600,12947
609,12944
622,12939
638,12932
649,12927
658,12923
663,12919
666,12917
667,12917
668,12916
673,12910
681,12900
686,12894
687,12893
687,12891
687,12888
686,12883
684,12878
679,12872
672,12866
668,12863
667,12862
665,12861
659,12858
647,12853
634,12849
626,12846
624,12845
620,12845
611,12843
593,12840
577,12838
563,12836
550,12835
539,12834
529,12834
522,12833
519,12833
518,12833
" style="stroke:#ffffff;stroke-width:7;
stroke-linejoin:bevel; stroke-linecap:butt;
"/>
<!-- Line -->
<!--  spline  -->
<polyline points="493,12864
492,12864
487,12864
475,12864
459,12864
442,12864
430,12864
425,12864
424,12864
421,12864
415,12864
406,12865
397,12865
385,12866
372,12867
356,12868
337,12870
327,12871
324,12871
320,12872
311,12873
294,12876
278,12879
269,12880
266,12881
263,12882
256,12883
243,12887
230,12891
222,12894
215,12897
211,12900
208,12901
207,12902
203,12905
198,12911
194,12914
193,12915
193,12916
193,12918
194,12920
196,12923
201,12927
208,12931
211,12932
213,12933
217,12935
229,12938
240,12941
246,12942
249,12943
251,12943
259,12944
274,12946
291,12948
306,12949
318,12949
328,12950
334,12950
335,12950
336,12950
341,12950
353,12950
370,12950
387,12950
399,12950
404,12950
405,12950
408,12950
414,12950
423,12949
432,12949
444,12948
457,12947
473,12946
492,12944
502,12943
505,12943
509,12942
518,12941
535,12938
551,12935
560,12934
563,12933
566,12932
573,12930
586,12927
599,12923
607,12920
614,12917
618,12915
621,12914
622,12913
625,12910
631,12904
634,12901
635,12900
635,12898
635,12895
633,12891
628,12887
621,12883
618,12881
616,12881
612,12879
600,12876
589,12873
583,12872
580,12871
578,12871
570,12870
555,12868
538,12866
523,12865
510,12865
500,12864
494,12864
493,12864
" style="stroke:#00a5d4;stroke-width:0;
stroke-linejoin:bevel; stroke-linecap:butt;
fill:#00a5d4;
"/>
<!-- Line -->
<!--  spline  -->
<polyline points="493,12864
492,12864
487,12864
475,12864
459,12864
442,12864
430,12864
425,12864
424,12864
421,12864
415,12864
406,12865
397,12865
385,12866
372,12867
356,12868
337,12870
327,12871
324,12871
320,12872
311,12873
294,12876
278,12879
269,12880
266,12881
263,12882
256,12883
243,12887
230,12891
222,12894
215,12897
211,12900
208,12901
207,12902
203,12905
198,12911
194,12914
193,12915
193,12916
193,12918
194,12920
196,12923
201,12927
208,12931
211,12932
213,12933
217,12935
229,12938
240,12941
246,12942
249,12943
251,12943
259,12944
274,12946
291,12948
306,12949
318,12949
328,12950
334,12950
335,12950
336,12950
341,12950
353,12950
370,12950
387,12950
399,12950
404,12950
405,12950
408,12950
414,12950
423,12949
432,12949
444,12948
457,12947
473,12946
492,12944
502,12943
505,12943
509,12942
518,12941
535,12938
551,12935
560,12934
563,12933
566,12932
573,12930
586,12927
599,12923
607,12920
614,12917
618,12915
621,12914
622,12913
625,12910
631,12904
634,12901
635,12900
635,12898
635,12895
633,12891
628,12887
621,12883
618,12881
616,12881
612,12879
600,12876
589,12873
583,12872
580,12871
578,12871
570,12870
555,12868
538,12866
523,12865
510,12865
500,12864
494,12864
493,12864
" style="stroke:#ffffff;stroke-width:7;
stroke-linejoin:bevel; stroke-linecap:butt;
"/>
</g>
</svg>
