<?xml version="1.0" standalone="no"?>
<!DOCTYPE svg PUBLIC "-//W3C//DTD SVG 1.1//EN"
"http://www.w3.org/Graphics/SVG/1.1/DTD/svg11.dtd">
<!-- Creator: fig2dev Version 3.2 Patchlevel 5c -->
<!-- CreationDate: Fri Sep 14 10:46:15 2012 -->
<!-- Magnification: 1.000 -->
<svg xmlns="http://www.w3.org/2000/svg" width="0.6in" height="0.4in" viewBox="-3 12709 748 495">
<g style="stroke-width:.025in; fill:none">
<!-- Line -->
<!--  polyline  -->
<polyline points="10,12886
10,13188
564,13188
564,12886
" style="stroke:#00a5d4;stroke-width:0;
stroke-linejoin:miter; stroke-linecap:butt;
fill:#00a5d4;
"/>
<!-- Line -->
<!--  polyline  -->
<polyline points="10,12886
10,13188
564,13188
564,12886
" style="stroke:#ffffff;stroke-width:7;
stroke-linejoin:miter; stroke-linecap:butt;
"/>
<!-- Line -->
<!--  spline  -->
<polyline points="356,13019
355,13021
354,13023
353,13025
352,13026
350,13027
348,13028
344,13030
340,13031
338,13032
336,13033
331,13034
326,13035
323,13036
322,13036
320,13036
314,13037
307,13038
302,13038
298,13038
296,13038
295,13038
294,13038
289,13038
281,13037
276,13037
275,13037
272,13037
268,13036
264,13035
258,13034
253,13033
251,13032
249,13031
245,13030
241,13028
240,13028
239,13028
238,13027
236,13025
234,13023
233,13021
233,13020
233,13019
233,13020
233,13026
233,13039
233,13058
233,13076
233,13089
233,13095
233,13096
234,13098
235,13100
236,13102
237,13103
239,13104
241,13105
245,13107
249,13108
251,13109
253,13110
258,13111
263,13112
265,13113
266,13113
269,13113
275,13114
282,13115
287,13115
292,13115
294,13115
295,13115
296,13115
301,13115
308,13114
313,13114
314,13114
317,13114
321,13113
325,13112
331,13111
336,13110
338,13109
340,13108
344,13107
348,13105
349,13105
350,13105
351,13104
353,13102
355,13100
356,13098
356,13097
356,13096
356,13095
356,13089
356,13076
356,13058
356,13039
356,13026
356,13020
356,13019
" style="stroke:#ffffff;stroke-width:0;
stroke-linejoin:bevel; stroke-linecap:butt;
fill:#ffffff;
"/>
<!-- Line -->
<!--  spline  -->
<polyline points="294,13038
295,13038
300,13038
308,13037
313,13037
314,13037
317,13037
321,13036
325,13035
331,13034
336,13033
338,13032
340,13031
344,13030
348,13028
349,13028
350,13028
351,13027
353,13025
355,13023
356,13021
356,13020
356,13019
355,13017
354,13015
353,13013
352,13012
350,13011
348,13010
344,13008
340,13007
338,13006
336,13005
331,13004
326,13003
324,13002
323,13002
320,13002
314,13001
307,13000
302,13000
297,13000
295,13000
294,13000
293,13000
288,13000
281,13001
276,13001
275,13001
272,13001
268,13002
264,13003
258,13004
253,13005
251,13006
249,13007
245,13008
241,13010
240,13010
239,13010
238,13011
236,13013
234,13015
233,13017
233,13018
233,13019
234,13021
235,13023
236,13025
237,13026
239,13027
241,13028
245,13030
249,13031
251,13032
253,13033
258,13034
263,13035
266,13036
267,13036
269,13036
275,13037
282,13038
287,13038
291,13038
293,13038
294,13038
" style="stroke:#00a5d4;stroke-width:0;
stroke-linejoin:bevel; stroke-linecap:butt;
fill:#00a5d4;
"/>
<!-- Line -->
<!--  spline  -->
<polyline points="294,13038
295,13038
300,13038
308,13037
313,13037
314,13037
317,13037
321,13036
325,13035
331,13034
336,13033
338,13032
340,13031
344,13030
348,13028
349,13028
350,13028
351,13027
353,13025
355,13023
356,13021
356,13020
356,13019
355,13017
354,13015
353,13013
352,13012
350,13011
348,13010
344,13008
340,13007
338,13006
336,13005
331,13004
326,13003
324,13002
323,13002
320,13002
314,13001
307,13000
302,13000
297,13000
295,13000
294,13000
293,13000
288,13000
281,13001
276,13001
275,13001
272,13001
268,13002
264,13003
258,13004
253,13005
251,13006
249,13007
245,13008
241,13010
240,13010
239,13010
238,13011
236,13013
234,13015
233,13017
233,13018
233,13019
234,13021
235,13023
236,13025
237,13026
239,13027
241,13028
245,13030
249,13031
251,13032
253,13033
258,13034
263,13035
266,13036
267,13036
269,13036
275,13037
282,13038
287,13038
291,13038
293,13038
294,13038
" style="stroke:#ffffff;stroke-width:15;
stroke-linejoin:bevel; stroke-linecap:butt;
"/>
<!-- Line -->
<!--  spline  -->
<polyline points="295,13124
296,13124
301,13124
308,13123
313,13123
314,13123
317,13123
321,13123
325,13122
331,13121
336,13120
338,13119
340,13119
344,13117
348,13115
349,13114
350,13114
351,13113
353,13111
355,13109
356,13107
356,13106
356,13105
355,13103
354,13102
353,13100
352,13099
350,13098
348,13096
344,13094
340,13092
338,13092
336,13091
331,13090
326,13089
323,13089
322,13089
320,13089
314,13088
307,13088
302,13087
298,13087
296,13087
295,13087
294,13087
289,13087
281,13088
276,13088
275,13088
272,13088
268,13088
264,13089
258,13090
253,13091
251,13092
249,13092
245,13094
241,13096
240,13097
239,13097
238,13098
236,13100
234,13102
233,13103
233,13104
233,13105
234,13107
235,13109
236,13111
237,13112
239,13113
241,13115
245,13117
249,13119
251,13119
253,13120
258,13121
263,13122
265,13122
266,13122
269,13122
275,13123
282,13123
287,13124
292,13124
294,13124
295,13124
" style="stroke:#ffffff;stroke-width:0;
stroke-linejoin:bevel; stroke-linecap:butt;
fill:#ffffff;
"/>
<!-- Line -->
<!--  spline  -->
<polyline points="295,13124
296,13124
301,13124
308,13123
313,13123
314,13123
317,13123
321,13123
325,13122
331,13121
336,13120
338,13119
340,13119
344,13117
348,13115
349,13114
350,13114
351,13113
353,13111
355,13109
356,13107
356,13106
356,13105
355,13103
354,13102
353,13100
352,13099
350,13098
348,13096
344,13094
340,13092
338,13092
336,13091
331,13090
326,13089
323,13089
322,13089
320,13089
314,13088
307,13088
302,13087
298,13087
296,13087
295,13087
294,13087
289,13087
281,13088
276,13088
275,13088
272,13088
268,13088
264,13089
258,13090
253,13091
251,13092
249,13092
245,13094
241,13096
240,13097
239,13097
238,13098
236,13100
234,13102
233,13103
233,13104
233,13105
234,13107
235,13109
236,13111
237,13112
239,13113
241,13115
245,13117
249,13119
251,13119
253,13120
258,13121
263,13122
265,13122
266,13122
269,13122
275,13123
282,13123
287,13124
292,13124
294,13124
295,13124
" style="stroke:#ffffff;stroke-width:15;
stroke-linejoin:bevel; stroke-linecap:butt;
"/>
<!-- Line -->
<!--  polyline  -->
<polyline points="9,12886
214,12721
733,12721
564,12886
9,12886
" style="stroke:#00a5d4;stroke-width:0;
stroke-linejoin:miter; stroke-linecap:butt;
fill:#00a5d4;
"/>
<!-- Line -->
<!--  polyline  -->
<polyline points="9,12886
214,12721
733,12721
564,12886
9,12886
" style="stroke:#ffffff;stroke-width:7;
stroke-linejoin:miter; stroke-linecap:butt;
"/>
<!-- Line -->
<!--  polyline  -->
<polyline points="564,12890
564,13192
733,13014
733,12725
564,12890
" style="stroke:#00a5d4;stroke-width:0;
stroke-linejoin:miter; stroke-linecap:butt;
fill:#00a5d4;
"/>
<!-- Line -->
<!--  polyline  -->
<polyline points="564,12890
564,13192
733,13014
733,12725
564,12890
" style="stroke:#ffffff;stroke-width:7;
stroke-linejoin:miter; stroke-linecap:butt;
"/>
<!-- Line -->
<!--  polyline  -->
<polyline points="491,13050
390,13050
390,13034
491,13034
491,13009
550,13042
491,13075
491,13050
" style="stroke:#ffffff;stroke-width:0;
stroke-linejoin:miter; stroke-linecap:butt;
fill:#ffffff;
"/>
<!-- Line -->
<!--  polyline  -->
<polyline points="473,12969
388,13024
380,13011
465,12955
451,12934
518,12930
487,12990
473,12969
" style="stroke:#ffffff;stroke-width:0;
stroke-linejoin:miter; stroke-linecap:butt;
fill:#ffffff;
"/>
<!-- Line -->
<!--  polyline  -->
<polyline points="473,13114
388,13059
380,13072
465,13128
451,13149
518,13153
487,13093
473,13114
" style="stroke:#ffffff;stroke-width:0;
stroke-linejoin:miter; stroke-linecap:butt;
fill:#ffffff;
"/>
<!-- Line -->
<!--  polyline  -->
<polyline points="87,13050
188,13050
188,13034
87,13034
87,13009
28,13042
87,13075
87,13050
" style="stroke:#ffffff;stroke-width:0;
stroke-linejoin:miter; stroke-linecap:butt;
fill:#ffffff;
"/>
<!-- Line -->
<!--  polyline  -->
<polyline points="301,12923
301,12887
285,12887
285,12923
260,12923
293,12982
326,12923
301,12923
" style="stroke:#ffffff;stroke-width:0;
stroke-linejoin:miter; stroke-linecap:butt;
fill:#ffffff;
"/>
<!-- Line -->
<!--  polyline  -->
<polyline points="104,12969
189,13024
198,13011
113,12955
126,12934
59,12930
90,12990
104,12969
" style="stroke:#ffffff;stroke-width:0;
stroke-linejoin:miter; stroke-linecap:butt;
fill:#ffffff;
"/>
<!-- Line -->
<!--  polyline  -->
<polyline points="104,13114
189,13059
198,13072
113,13128
126,13149
59,13153
90,13093
104,13114
" style="stroke:#ffffff;stroke-width:0;
stroke-linejoin:miter; stroke-linecap:butt;
fill:#ffffff;
"/>
</g>
</svg>
