<?xml version="1.0" standalone="no"?>
<!DOCTYPE svg PUBLIC "-//W3C//DTD SVG 1.1//EN"
"http://www.w3.org/Graphics/SVG/1.1/DTD/svg11.dtd">
<!-- Creator: fig2dev Version 3.2 Patchlevel 5c -->
<!-- CreationDate: Fri Sep 14 10:46:16 2012 -->
<!-- Magnification: 1.000 -->
<svg xmlns="http://www.w3.org/2000/svg" width="0.3in" height="0.4in" viewBox="-4 12690 362 514">
<g style="stroke-width:.025in; fill:none">
<!-- Line -->
<!--  polyline  -->
<polyline points="265,12783
8,12783
8,13192
265,13192
" style="stroke:#00a5d4;stroke-width:0;
stroke-linejoin:miter; stroke-linecap:butt;
fill:#00a5d4;
"/>
<!-- Line -->
<!--  polyline  -->
<polyline points="265,12783
8,12783
8,13192
265,13192
" style="stroke:#ffffff;stroke-width:7;
stroke-linejoin:miter; stroke-linecap:butt;
"/>
<!-- Line -->
<!--  polyline  -->
<polyline points="265,13192
346,13110
346,12702
90,12702
8,12783
265,12783
265,13192
" style="stroke:#00a5d4;stroke-width:0;
stroke-linejoin:miter; stroke-linecap:butt;
fill:#00a5d4;
"/>
<!-- Line -->
<!--  polyline  -->
<polyline points="265,13192
346,13110
346,12702
90,12702
8,12783
265,12783
265,13192
" style="stroke:#ffffff;stroke-width:7;
stroke-linejoin:miter; stroke-linecap:butt;
"/>
<!-- Line -->
<!--  polyline  -->
<polyline points="265,12783
346,12702
" style="stroke:#00a5d4;stroke-width:0;
stroke-linejoin:miter; stroke-linecap:butt;
fill:#00a5d4;
"/>
<!-- Line -->
<!--  polyline  -->
<polyline points="265,12783
346,12702
" style="stroke:#ffffff;stroke-width:7;
stroke-linejoin:miter; stroke-linecap:butt;
"/>
<!-- Line -->
<!--  polyline  -->
<polyline points="12,12902
262,12902
" style="stroke:#00a5d4;stroke-width:0;
stroke-linejoin:miter; stroke-linecap:butt;
fill:#00a5d4;
"/>
<!-- Line -->
<!--  polyline  -->
<polyline points="12,12902
262,12902
" style="stroke:#ffffff;stroke-width:7;
stroke-linejoin:miter; stroke-linecap:butt;
"/>
<!-- Line -->
<!--  polyline  -->
<polyline points="71,12847
143,12847
" style="stroke:#ffffff;stroke-width:7;
stroke-linejoin:miter; stroke-linecap:butt;
"/>
<!-- Line -->
<!--  polyline  -->
<polyline points="171,12872
171,12820
41,12820
41,12872
171,12872
" style="stroke:#ffffff;stroke-width:7;
stroke-linejoin:miter; stroke-linecap:butt;
"/>
<!-- Line -->
<!--  polyline  -->
<polyline points="61,13091
61,12994
154,13041
61,13091
" style="stroke:#ffffff;stroke-width:0;
stroke-linejoin:miter; stroke-linecap:butt;
fill:#ffffff;
"/>
<!-- Line -->
<!--  polyline  -->
<polyline points="199,13087
199,12997
170,12997
170,13087
199,13087
" style="stroke:#ffffff;stroke-width:0;
stroke-linejoin:miter; stroke-linecap:butt;
fill:#ffffff;
"/>
<!-- Line -->
<!--  spline  -->
<polyline points="132,13148
134,13148
142,13146
155,13145
163,13143
165,13143
166,13143
170,13141
176,13138
184,13134
194,13128
202,13121
206,13118
207,13117
210,13113
217,13105
223,13096
225,13092
226,13091
228,13086
232,13076
235,13064
237,13055
238,13047
238,13043
238,13042
238,13040
236,13032
234,13019
232,13011
232,13009
232,13008
230,13004
227,12998
223,12990
217,12980
210,12972
207,12968
206,12967
202,12964
194,12957
185,12951
181,12948
180,12948
175,12946
165,12942
153,12939
144,12938
137,12937
133,12937
132,12937
130,12937
122,12939
109,12940
101,12942
99,12942
98,12942
94,12944
88,12947
80,12951
70,12957
62,12964
58,12967
57,12968
54,12972
47,12980
41,12989
39,12993
38,12994
36,12999
32,13009
29,13021
27,13030
26,13037
26,13041
26,13042
26,13044
28,13052
30,13066
32,13074
32,13076
32,13077
34,13081
37,13087
41,13095
47,13105
54,13113
57,13117
58,13118
62,13121
70,13128
79,13134
83,13137
84,13137
89,13139
99,13143
111,13146
120,13147
127,13148
131,13148
132,13148
" style="stroke:#ffffff;stroke-width:15;
stroke-linejoin:bevel; stroke-linecap:butt;
"/>
</g>
</svg>
