<?xml version="1.0" standalone="no"?>
<!DOCTYPE svg PUBLIC "-//W3C//DTD SVG 1.1//EN"
"http://www.w3.org/Graphics/SVG/1.1/DTD/svg11.dtd">
<!-- Creator: fig2dev Version 3.2 Patchlevel 5c -->
<!-- CreationDate: Fri Sep 14 10:46:17 2012 -->
<!-- Magnification: 1.000 -->
<svg xmlns="http://www.w3.org/2000/svg" width="0.5in" height="0.5in" viewBox="4792 6330 629 548">
<g style="stroke-width:.025in; fill:none">
<!-- Line -->
<!--  spline  -->
<polyline points="5409,6460
5409,6461
5406,6467
5401,6479
5396,6490
5393,6496
5393,6497
5393,6498
5390,6500
5384,6506
5377,6512
5366,6520
5350,6529
5337,6536
5328,6540
5323,6542
5321,6543
5318,6544
5313,6546
5302,6550
5285,6555
5267,6560
5255,6563
5249,6564
5246,6565
5243,6565
5236,6566
5222,6568
5202,6571
5180,6573
5161,6575
5145,6576
5131,6576
5119,6577
5111,6577
5107,6577
5106,6577
5105,6577
5097,6576
5081,6575
5059,6574
5036,6573
5020,6572
5012,6571
5011,6571
5010,6571
5007,6570
4999,6569
4989,6568
4976,6566
4962,6563
4946,6560
4928,6555
4911,6550
4900,6546
4894,6544
4892,6543
4889,6542
4884,6540
4875,6536
4862,6529
4847,6520
4839,6516
4837,6514
4835,6512
4829,6507
4820,6497
4812,6486
4808,6477
4806,6470
4804,6464
4804,6461
4804,6460
4804,6461
4804,6464
4804,6472
4804,6487
4804,6508
4804,6536
4804,6569
4804,6605
4804,6640
4804,6673
4804,6701
4804,6722
4804,6737
4804,6745
4804,6748
4804,6749
4804,6750
4807,6756
4812,6768
4817,6779
4820,6785
4820,6786
4820,6787
4823,6789
4828,6795
4836,6801
4846,6809
4862,6818
4875,6824
4884,6829
4889,6831
4892,6832
4894,6833
4900,6834
4911,6838
4928,6843
4946,6848
4958,6851
4964,6852
4967,6853
4970,6854
4977,6855
4991,6857
5011,6860
5033,6862
5051,6864
5067,6865
5081,6866
5093,6866
5101,6866
5105,6866
5106,6866
5107,6866
5115,6865
5131,6864
5154,6863
5177,6862
5193,6861
5201,6860
5202,6860
5203,6860
5206,6859
5214,6858
5224,6857
5237,6854
5251,6851
5267,6848
5285,6843
5302,6838
5313,6834
5318,6833
5321,6832
5323,6831
5328,6829
5337,6824
5350,6818
5365,6809
5373,6805
5376,6803
5378,6801
5383,6796
5393,6786
5401,6775
5405,6766
5408,6759
5409,6753
5409,6750
5409,6749
5409,6748
5409,6745
5409,6737
5409,6722
5409,6701
5409,6673
5409,6640
5409,6605
5409,6569
5409,6536
5409,6508
5409,6487
5409,6472
5409,6464
5409,6461
5409,6460
" style="stroke:#07a8d6;stroke-width:0;
stroke-linejoin:bevel; stroke-linecap:butt;
fill:#07a8d6;
"/>
<!-- Line -->
<!--  spline  -->
<polyline points="5409,6460
5409,6461
5406,6467
5401,6479
5396,6490
5393,6496
5393,6497
5393,6498
5390,6500
5384,6506
5377,6512
5366,6520
5350,6529
5337,6536
5328,6540
5323,6542
5321,6543
5318,6544
5313,6546
5302,6550
5285,6555
5267,6560
5255,6563
5249,6564
5246,6565
5243,6565
5236,6566
5222,6568
5202,6571
5180,6573
5161,6575
5145,6576
5131,6576
5119,6577
5111,6577
5107,6577
5106,6577
5105,6577
5097,6576
5081,6575
5059,6574
5036,6573
5020,6572
5012,6571
5011,6571
5010,6571
5007,6570
4999,6569
4989,6568
4976,6566
4962,6563
4946,6560
4928,6555
4911,6550
4900,6546
4894,6544
4892,6543
4889,6542
4884,6540
4875,6536
4862,6529
4847,6520
4839,6516
4837,6514
4835,6512
4829,6507
4820,6497
4812,6486
4808,6477
4806,6470
4804,6464
4804,6461
4804,6460
4804,6461
4804,6464
4804,6472
4804,6487
4804,6508
4804,6536
4804,6569
4804,6605
4804,6640
4804,6673
4804,6701
4804,6722
4804,6737
4804,6745
4804,6748
4804,6749
4804,6750
4807,6756
4812,6768
4817,6779
4820,6785
4820,6786
4820,6787
4823,6789
4828,6795
4836,6801
4846,6809
4862,6818
4875,6824
4884,6829
4889,6831
4892,6832
4894,6833
4900,6834
4911,6838
4928,6843
4946,6848
4958,6851
4964,6852
4967,6853
4970,6854
4977,6855
4991,6857
5011,6860
5033,6862
5051,6864
5067,6865
5081,6866
5093,6866
5101,6866
5105,6866
5106,6866
5107,6866
5115,6865
5131,6864
5154,6863
5177,6862
5193,6861
5201,6860
5202,6860
5203,6860
5206,6859
5214,6858
5224,6857
5237,6854
5251,6851
5267,6848
5285,6843
5302,6838
5313,6834
5318,6833
5321,6832
5323,6831
5328,6829
5337,6824
5350,6818
5365,6809
5373,6805
5376,6803
5378,6801
5383,6796
5393,6786
5401,6775
5405,6766
5408,6759
5409,6753
5409,6750
5409,6749
5409,6748
5409,6745
5409,6737
5409,6722
5409,6701
5409,6673
5409,6640
5409,6605
5409,6569
5409,6536
5409,6508
5409,6487
5409,6472
5409,6464
5409,6461
5409,6460
" style="stroke:#ffffff;stroke-width:7;
stroke-linejoin:bevel; stroke-linecap:butt;
"/>
<!-- Line -->
<!--  spline  -->
<polyline points="5106,6577
5107,6577
5115,6576
5131,6575
5154,6574
5177,6573
5193,6572
5201,6571
5202,6571
5203,6571
5206,6570
5214,6569
5224,6568
5237,6566
5251,6563
5267,6560
5285,6555
5302,6550
5313,6546
5318,6544
5321,6543
5323,6542
5328,6540
5337,6536
5350,6529
5365,6520
5373,6516
5376,6514
5378,6512
5383,6507
5393,6497
5401,6486
5405,6477
5408,6470
5409,6464
5409,6461
5409,6460
5409,6459
5406,6453
5401,6441
5396,6430
5393,6424
5393,6423
5393,6422
5390,6419
5384,6414
5377,6407
5366,6399
5350,6390
5337,6383
5328,6379
5323,6377
5321,6376
5318,6375
5313,6374
5302,6370
5285,6365
5267,6360
5255,6357
5249,6356
5246,6355
5243,6354
5236,6353
5222,6351
5202,6348
5180,6346
5161,6344
5145,6343
5131,6342
5119,6342
5111,6342
5107,6342
5106,6342
5105,6342
5097,6343
5081,6344
5059,6345
5036,6346
5020,6347
5012,6348
5011,6348
5010,6348
5007,6349
4999,6350
4989,6352
4976,6354
4962,6357
4946,6360
4928,6365
4911,6370
4900,6374
4894,6375
4892,6376
4889,6377
4884,6379
4875,6383
4862,6390
4847,6399
4839,6404
4837,6406
4835,6408
4829,6413
4820,6423
4812,6434
4808,6443
4806,6450
4804,6456
4804,6459
4804,6460
4804,6461
4807,6467
4812,6479
4817,6490
4820,6496
4820,6497
4820,6498
4823,6500
4828,6506
4836,6512
4846,6520
4862,6529
4875,6536
4884,6540
4889,6542
4892,6543
4894,6544
4900,6546
4911,6550
4928,6555
4946,6560
4958,6563
4964,6564
4967,6565
4970,6565
4977,6566
4991,6568
5011,6571
5033,6573
5051,6575
5067,6576
5081,6576
5093,6577
5101,6577
5105,6577
5106,6577
" style="stroke:#07a8d6;stroke-width:0;
stroke-linejoin:bevel; stroke-linecap:butt;
fill:#07a8d6;
"/>
<!-- Line -->
<!--  spline  -->
<polyline points="5106,6577
5107,6577
5115,6576
5131,6575
5154,6574
5177,6573
5193,6572
5201,6571
5202,6571
5203,6571
5206,6570
5214,6569
5224,6568
5237,6566
5251,6563
5267,6560
5285,6555
5302,6550
5313,6546
5318,6544
5321,6543
5323,6542
5328,6540
5337,6536
5350,6529
5365,6520
5373,6516
5376,6514
5378,6512
5383,6507
5393,6497
5401,6486
5405,6477
5408,6470
5409,6464
5409,6461
5409,6460
5409,6459
5406,6453
5401,6441
5396,6430
5393,6424
5393,6423
5393,6422
5390,6419
5384,6414
5377,6407
5366,6399
5350,6390
5337,6383
5328,6379
5323,6377
5321,6376
5318,6375
5313,6374
5302,6370
5285,6365
5267,6360
5255,6357
5249,6356
5246,6355
5243,6354
5236,6353
5222,6351
5202,6348
5180,6346
5161,6344
5145,6343
5131,6342
5119,6342
5111,6342
5107,6342
5106,6342
5105,6342
5097,6343
5081,6344
5059,6345
5036,6346
5020,6347
5012,6348
5011,6348
5010,6348
5007,6349
4999,6350
4989,6352
4976,6354
4962,6357
4946,6360
4928,6365
4911,6370
4900,6374
4894,6375
4892,6376
4889,6377
4884,6379
4875,6383
4862,6390
4847,6399
4839,6404
4837,6406
4835,6408
4829,6413
4820,6423
4812,6434
4808,6443
4806,6450
4804,6456
4804,6459
4804,6460
4804,6461
4807,6467
4812,6479
4817,6490
4820,6496
4820,6497
4820,6498
4823,6500
4828,6506
4836,6512
4846,6520
4862,6529
4875,6536
4884,6540
4889,6542
4892,6543
4894,6544
4900,6546
4911,6550
4928,6555
4946,6560
4958,6563
4964,6564
4967,6565
4970,6565
4977,6566
4991,6568
5011,6571
5033,6573
5051,6575
5067,6576
5081,6576
5093,6577
5101,6577
5105,6577
5106,6577
" style="stroke:#ffffff;stroke-width:7;
stroke-linejoin:bevel; stroke-linecap:butt;
"/>
<!-- Line -->
<!--  polyline  -->
<polyline points="5040,6413
5066,6451
4970,6473
4991,6455
4843,6430
4880,6402
5023,6426
5040,6413
" style="stroke:#ffffff;stroke-width:0;
stroke-linejoin:miter; stroke-linecap:butt;
fill:#ffffff;
"/>
<!-- Line -->
<!--  polyline  -->
<polyline points="5175,6505
5158,6466
5244,6448
5229,6462
5373,6486
5338,6514
5195,6487
5175,6505
" style="stroke:#ffffff;stroke-width:0;
stroke-linejoin:miter; stroke-linecap:butt;
fill:#ffffff;
"/>
<!-- Line -->
<!--  polyline  -->
<polyline points="5128,6392
5224,6365
5226,6407
5201,6402
5154,6441
5109,6435
5158,6396
5128,6392
" style="stroke:#ffffff;stroke-width:0;
stroke-linejoin:miter; stroke-linecap:butt;
fill:#ffffff;
"/>
<!-- Line -->
<!--  polyline  -->
<polyline points="5086,6540
4994,6558
4991,6515
5017,6521
5068,6477
5113,6485
5059,6532
5086,6540
" style="stroke:#ffffff;stroke-width:0;
stroke-linejoin:miter; stroke-linecap:butt;
fill:#ffffff;
"/>
<!-- Line -->
<!--  polyline  -->
<polyline points="5360,6788
5360,6685
5297,6734
5360,6788
" style="stroke:#ffffff;stroke-width:0;
stroke-linejoin:miter; stroke-linecap:butt;
fill:#ffffff;
"/>
<!-- Line -->
<!--  polyline  -->
<polyline points="5360,6788
5360,6685
5297,6734
5360,6788
" style="stroke:#000000;stroke-width:7;
stroke-linejoin:miter; stroke-linecap:butt;
"/>
<!-- Line -->
<!--  polyline  -->
<polyline points="4855,6789
4855,6685
4918,6735
4855,6789
" style="stroke:#ffffff;stroke-width:0;
stroke-linejoin:miter; stroke-linecap:butt;
fill:#ffffff;
"/>
<!-- Line -->
<!--  polyline  -->
<polyline points="4855,6789
4855,6685
4918,6735
4855,6789
" style="stroke:#000000;stroke-width:7;
stroke-linejoin:miter; stroke-linecap:butt;
"/>
<!-- Line -->
<!--  polyline  -->
<polyline points="4897,6583
4897,6687
4835,6637
4897,6583
" style="stroke:#ffffff;stroke-width:0;
stroke-linejoin:miter; stroke-linecap:butt;
fill:#ffffff;
"/>
<!-- Line -->
<!--  polyline  -->
<polyline points="4897,6583
4897,6687
4835,6637
4897,6583
" style="stroke:#000000;stroke-width:7;
stroke-linejoin:miter; stroke-linecap:butt;
"/>
<!-- Line -->
<!--  polyline  -->
<polyline points="5313,6583
5313,6686
5375,6637
5313,6583
" style="stroke:#ffffff;stroke-width:0;
stroke-linejoin:miter; stroke-linecap:butt;
fill:#ffffff;
"/>
<!-- Line -->
<!--  polyline  -->
<polyline points="5313,6583
5313,6686
5375,6637
5313,6583
" style="stroke:#000000;stroke-width:7;
stroke-linejoin:miter; stroke-linecap:butt;
"/>
<!-- Line -->
<!--  polyline  -->
<polyline points="5327,6633
5289,6633
" style="stroke:#ffffff;stroke-width:15;
stroke-linejoin:miter; stroke-linecap:butt;
"/>
<!-- Line -->
<!--  polyline  -->
<polyline points="5340,6734
5387,6734
" style="stroke:#ffffff;stroke-width:15;
stroke-linejoin:miter; stroke-linecap:butt;
"/>
<!-- Line -->
<!--  polyline  -->
<polyline points="4872,6734
4822,6734
" style="stroke:#ffffff;stroke-width:15;
stroke-linejoin:miter; stroke-linecap:butt;
"/>
<!-- Line -->
<!--  polyline  -->
<polyline points="4874,6637
4921,6637
" style="stroke:#ffffff;stroke-width:15;
stroke-linejoin:miter; stroke-linecap:butt;
"/>
<!-- Line -->
<!--  polyline  -->
<polyline points="5240,6665
5240,6851
4969,6851
4969,6665
5240,6665
" style="stroke:#ffffff;stroke-width:0;
stroke-linejoin:miter; stroke-linecap:butt;
fill:#ffffff;
"/>
<!-- Line -->
<!--  polyline  -->
<polyline points="5240,6665
5240,6851
4969,6851
4969,6665
5240,6665
" style="stroke:#000000;stroke-width:7;
stroke-linejoin:miter; stroke-linecap:butt;
"/>
<!-- Line -->
<!--  spline  -->
<polyline points="5176,6613
5177,6613
5178,6613
5179,6613
5179,6614
5180,6614
5181,6614
5182,6614
5183,6614
5184,6615
5185,6616
5186,6616
5186,6617
5187,6618
5188,6620
5188,6621
5189,6622
5189,6623
5189,6625
5190,6633
5191,6647
5192,6655
5192,6657
5193,6657
5199,6658
5211,6660
5228,6663
5244,6666
5256,6668
5262,6669
5263,6669
5263,6668
5265,6664
5268,6659
5270,6655
5270,6654
5269,6653
5266,6646
5261,6632
5256,6619
5253,6612
5252,6611
5250,6611
5242,6609
5225,6606
5209,6603
5201,6601
5199,6601
5198,6601
5194,6600
5186,6599
5176,6598
5164,6597
5150,6596
5137,6595
5131,6595
5128,6595
5126,6595
5120,6595
5110,6595
5099,6595
5095,6595
5093,6595
5090,6595
5083,6595
5077,6595
5075,6596
5073,6596
5074,6596
5076,6596
5077,6596
5076,6596
5074,6595
5073,6595
5072,6595
5069,6595
5066,6595
5060,6595
5054,6595
5051,6595
5050,6595
5046,6595
5037,6596
5027,6597
5022,6598
5021,6598
5015,6599
5002,6601
4989,6604
4977,6606
4967,6608
4959,6610
4955,6611
4954,6611
4953,6612
4950,6619
4945,6633
4940,6646
4937,6653
4936,6654
4936,6655
4938,6659
4941,6664
4943,6668
4943,6669
4944,6669
4950,6668
4962,6666
4979,6663
4995,6660
5007,6658
5013,6657
5014,6657
5014,6655
5015,6647
5016,6633
5017,6625
5017,6623
5018,6621
5018,6620
5019,6618
5019,6617
5020,6617
5021,6616
5022,6615
5023,6614
5024,6614
5025,6614
5026,6614
5027,6614
5027,6613
5028,6613
5029,6613
5030,6613
5031,6613
5034,6613
5043,6613
5059,6613
5079,6613
5103,6613
5127,6613
5147,6613
5163,6613
5172,6613
5175,6613
5176,6613
" style="stroke:#ffffff;stroke-width:0;
stroke-linejoin:bevel; stroke-linecap:butt;
fill:#ffffff;
"/>
<!-- Line -->
<!--  spline  -->
<polyline points="5176,6613
5177,6613
5178,6613
5179,6613
5179,6614
5180,6614
5181,6614
5182,6614
5183,6614
5184,6615
5185,6616
5186,6616
5186,6617
5187,6618
5188,6620
5188,6621
5189,6622
5189,6623
5189,6625
5190,6633
5191,6647
5192,6655
5192,6657
5193,6657
5199,6658
5211,6660
5228,6663
5244,6666
5256,6668
5262,6669
5263,6669
5263,6668
5265,6664
5268,6659
5270,6655
5270,6654
5269,6653
5266,6646
5261,6632
5256,6619
5253,6612
5252,6611
5250,6611
5242,6609
5225,6606
5209,6603
5201,6601
5199,6601
5198,6601
5194,6600
5186,6599
5176,6598
5164,6597
5150,6596
5137,6595
5131,6595
5128,6595
5126,6595
5120,6595
5110,6595
5099,6595
5095,6595
5093,6595
5090,6595
5083,6595
5077,6595
5075,6596
5073,6596
5074,6596
5076,6596
5077,6596
5076,6596
5074,6595
5073,6595
5072,6595
5069,6595
5066,6595
5060,6595
5054,6595
5051,6595
5050,6595
5046,6595
5037,6596
5027,6597
5022,6598
5021,6598
5015,6599
5002,6601
4989,6604
4977,6606
4967,6608
4959,6610
4955,6611
4954,6611
4953,6612
4950,6619
4945,6633
4940,6646
4937,6653
4936,6654
4936,6655
4938,6659
4941,6664
4943,6668
4943,6669
4944,6669
4950,6668
4962,6666
4979,6663
4995,6660
5007,6658
5013,6657
5014,6657
5014,6655
5015,6647
5016,6633
5017,6625
5017,6623
5018,6621
5018,6620
5019,6618
5019,6617
5020,6617
5021,6616
5022,6615
5023,6614
5024,6614
5025,6614
5026,6614
5027,6614
5027,6613
5028,6613
5029,6613
5030,6613
5031,6613
5034,6613
5043,6613
5059,6613
5079,6613
5103,6613
5127,6613
5147,6613
5163,6613
5172,6613
5175,6613
5176,6613
" style="stroke:#000000;stroke-width:7;
stroke-linejoin:bevel; stroke-linecap:butt;
"/>
<!-- Line -->
<!--  polyline  -->
<polyline points="5227,6676
5227,6709
4983,6709
4983,6676
5227,6676
" style="stroke:#ffffff;stroke-width:0;
stroke-linejoin:miter; stroke-linecap:butt;
fill:#ffffff;
"/>
<!-- Line -->
<!--  polyline  -->
<polyline points="5227,6676
5227,6709
4983,6709
4983,6676
5227,6676
" style="stroke:#000000;stroke-width:7;
stroke-linejoin:miter; stroke-linecap:butt;
"/>
<!-- Line -->
<!--  polyline  -->
<polyline points="5225,6724
5224,6839
4984,6839
4984,6724
5225,6724
" style="stroke:#ffffff;stroke-width:0;
stroke-linejoin:miter; stroke-linecap:butt;
fill:#ffffff;
"/>
<!-- Line -->
<!--  polyline  -->
<polyline points="5225,6724
5224,6839
4984,6839
4984,6724
5225,6724
" style="stroke:#020202;stroke-width:7;
stroke-linejoin:miter; stroke-linecap:butt;
"/>
<!-- Line -->
<!--  polyline  -->
<polyline points="5207,6830
5002,6830
5002,6729
5207,6729
5207,6830
" style="stroke:#030303;stroke-width:7;
stroke-linejoin:miter; stroke-linecap:butt;
"/>
<!-- Line -->
<!--  polyline  -->
<polyline points="4984,6724
5109,6787
5225,6724
4984,6724
" style="stroke:#ffffff;stroke-width:0;
stroke-linejoin:miter; stroke-linecap:butt;
fill:#ffffff;
"/>
<!-- Line -->
<!--  polyline  -->
<polyline points="4984,6724
5109,6787
5225,6724
4984,6724
" style="stroke:#020202;stroke-width:7;
stroke-linejoin:miter; stroke-linecap:butt;
"/>
</g>
</svg>
