<?xml version="1.0" standalone="no"?>
<!DOCTYPE svg PUBLIC "-//W3C//DTD SVG 1.1//EN"
"http://www.w3.org/Graphics/SVG/1.1/DTD/svg11.dtd">
<!-- Creator: fig2dev Version 3.2 Patchlevel 5c -->
<!-- CreationDate: Fri Sep 14 10:46:17 2012 -->
<!-- Magnification: 1.000 -->
<svg xmlns="http://www.w3.org/2000/svg" width="0.4in" height="0.5in" viewBox="2194 7297 454 552">
<g style="stroke-width:.025in; fill:none">
<!-- Line -->
<!--  polyline  -->
<polyline points="2476,7837
2476,7367
2206,7367
2206,7837
2476,7837
" style="stroke:#136cc4;stroke-width:0;
stroke-linejoin:miter; stroke-linecap:butt;
fill:#136cc4;
"/>
<!-- Line -->
<!--  polyline  -->
<polyline points="2476,7837
2476,7367
2206,7367
2206,7837
2476,7837
" style="stroke:#ffffff;stroke-width:7;
stroke-linejoin:miter; stroke-linecap:butt;
"/>
<!-- Line -->
<!--  polyline  -->
<polyline points="2206,7805
2474,7805
" style="stroke:#ffffff;stroke-width:7;
stroke-linejoin:miter; stroke-linecap:butt;
"/>
<!-- Line -->
<!--  spline  -->
<polyline points="2463,7729
2463,7730
2462,7734
2461,7740
2460,7744
2460,7745
2459,7747
2458,7750
2456,7754
2453,7759
2450,7763
2448,7765
2446,7767
2442,7770
2437,7773
2435,7774
2434,7775
2432,7776
2427,7778
2421,7779
2417,7780
2413,7780
2411,7780
2410,7780
2406,7779
2400,7779
2396,7778
2395,7778
2392,7777
2389,7775
2385,7773
2380,7770
2376,7767
2374,7765
2372,7763
2369,7759
2366,7755
2365,7753
2365,7752
2364,7750
2362,7745
2360,7739
2360,7735
2359,7732
2359,7729
2359,7728
2360,7724
2361,7717
2362,7713
2362,7712
2363,7710
2364,7707
2366,7703
2369,7698
2372,7694
2374,7692
2376,7690
2380,7687
2385,7684
2387,7683
2388,7682
2390,7681
2395,7679
2401,7678
2405,7677
2409,7677
2411,7677
2412,7677
2416,7678
2422,7678
2426,7679
2427,7679
2430,7680
2433,7682
2437,7684
2442,7687
2446,7690
2448,7692
2450,7694
2453,7698
2456,7702
2457,7704
2457,7705
2458,7707
2460,7712
2462,7718
2462,7722
2463,7726
2463,7729
" style="stroke:#ffffff;stroke-width:7;
stroke-linejoin:bevel; stroke-linecap:butt;
"/>
<!-- Line -->
<!--  spline  -->
<polyline points="2425,7729
2425,7730
2425,7732
2425,7733
2425,7734
2424,7735
2424,7736
2423,7737
2422,7738
2422,7739
2421,7739
2420,7740
2419,7741
2418,7741
2417,7741
2416,7742
2414,7742
2413,7743
2412,7743
2411,7743
2409,7743
2408,7742
2406,7742
2405,7742
2404,7741
2403,7741
2402,7740
2401,7739
2400,7739
2400,7738
2399,7737
2398,7736
2398,7735
2397,7734
2397,7733
2397,7732
2397,7730
2397,7729
2397,7727
2397,7726
2397,7724
2397,7723
2398,7722
2398,7721
2399,7720
2400,7719
2400,7718
2401,7718
2402,7717
2403,7716
2404,7716
2405,7716
2406,7715
2408,7715
2409,7714
2410,7714
2411,7714
2413,7714
2414,7715
2416,7715
2417,7715
2418,7716
2419,7716
2420,7717
2421,7718
2422,7718
2422,7719
2423,7720
2424,7721
2424,7722
2425,7723
2425,7724
2425,7726
2425,7727
2425,7728
2425,7729
" style="stroke:#ffffff;stroke-width:0;
stroke-linejoin:bevel; stroke-linecap:butt;
fill:#ffffff;
"/>
<!-- Line -->
<!--  spline  -->
<polyline points="2425,7729
2425,7730
2425,7732
2425,7733
2425,7734
2424,7735
2424,7736
2423,7737
2422,7738
2422,7739
2421,7739
2420,7740
2419,7741
2418,7741
2417,7741
2416,7742
2414,7742
2413,7743
2412,7743
2411,7743
2409,7743
2408,7742
2406,7742
2405,7742
2404,7741
2403,7741
2402,7740
2401,7739
2400,7739
2400,7738
2399,7737
2398,7736
2398,7735
2397,7734
2397,7733
2397,7732
2397,7730
2397,7729
2397,7727
2397,7726
2397,7724
2397,7723
2398,7722
2398,7721
2399,7720
2400,7719
2400,7718
2401,7718
2402,7717
2403,7716
2404,7716
2405,7716
2406,7715
2408,7715
2409,7714
2410,7714
2411,7714
2413,7714
2414,7715
2416,7715
2417,7715
2418,7716
2419,7716
2420,7717
2421,7718
2422,7718
2422,7719
2423,7720
2424,7721
2424,7722
2425,7723
2425,7724
2425,7726
2425,7727
2425,7728
2425,7729
" style="stroke:#ffffff;stroke-width:7;
stroke-linejoin:bevel; stroke-linecap:butt;
"/>
<!-- Line -->
<!--  spline  -->
<polyline points="2324,7729
2324,7730
2323,7734
2323,7740
2322,7744
2322,7745
2321,7747
2319,7750
2317,7754
2314,7759
2311,7763
2309,7765
2309,7766
2307,7768
2303,7771
2299,7774
2297,7775
2296,7775
2294,7776
2289,7778
2283,7780
2279,7780
2276,7781
2273,7781
2272,7781
2268,7780
2261,7779
2257,7778
2256,7778
2254,7777
2251,7776
2247,7774
2242,7771
2238,7768
2236,7766
2236,7765
2234,7763
2231,7759
2228,7755
2227,7753
2227,7752
2226,7750
2224,7745
2222,7739
2222,7735
2221,7732
2221,7729
2221,7728
2222,7724
2223,7717
2224,7713
2224,7712
2225,7710
2226,7707
2228,7703
2231,7698
2234,7694
2236,7692
2238,7690
2242,7687
2246,7684
2248,7683
2249,7683
2251,7682
2256,7680
2262,7678
2266,7678
2270,7677
2273,7677
2274,7677
2278,7678
2284,7679
2288,7680
2289,7680
2291,7681
2294,7682
2298,7684
2303,7687
2307,7690
2309,7692
2311,7694
2314,7698
2317,7702
2318,7704
2319,7705
2320,7707
2322,7712
2323,7718
2324,7722
2324,7726
2324,7729
" style="stroke:#ffffff;stroke-width:7;
stroke-linejoin:bevel; stroke-linecap:butt;
"/>
<!-- Line -->
<!--  polyline  -->
<polyline points="2252,7750
2294,7708
" style="stroke:#ffffff;stroke-width:15;
stroke-linejoin:miter; stroke-linecap:round;
"/>
<!-- Line -->
<!--  polyline  -->
<polyline points="2252,7708
2294,7750
" style="stroke:#ffffff;stroke-width:15;
stroke-linejoin:miter; stroke-linecap:round;
"/>
<!-- Line -->
<!--  spline  -->
<polyline points="2392,7615
2392,7616
2391,7620
2391,7626
2390,7630
2390,7631
2389,7634
2387,7637
2385,7641
2382,7646
2379,7650
2377,7652
2375,7654
2371,7657
2367,7660
2365,7661
2364,7661
2362,7662
2357,7664
2351,7666
2347,7666
2343,7667
2340,7667
2339,7667
2335,7666
2329,7665
2325,7664
2324,7664
2322,7663
2319,7662
2315,7660
2310,7657
2306,7654
2304,7652
2302,7650
2299,7646
2296,7641
2295,7639
2294,7638
2293,7636
2291,7631
2290,7625
2289,7621
2289,7617
2289,7615
2289,7614
2290,7610
2290,7604
2291,7600
2291,7599
2292,7596
2294,7593
2296,7589
2299,7584
2302,7580
2304,7578
2306,7576
2310,7573
2314,7570
2316,7569
2317,7569
2319,7568
2324,7566
2330,7564
2334,7564
2337,7563
2340,7563
2341,7563
2345,7564
2352,7565
2356,7566
2357,7566
2359,7567
2362,7568
2366,7570
2371,7573
2375,7576
2377,7578
2379,7580
2382,7584
2385,7589
2386,7591
2387,7592
2388,7594
2390,7599
2391,7605
2392,7609
2392,7613
2392,7615
" style="stroke:#ffffff;stroke-width:7;
stroke-linejoin:bevel; stroke-linecap:butt;
"/>
<!-- Line -->
<!--  polyline  -->
<polyline points="2331,7638
2314,7621
" style="stroke:#ffffff;stroke-width:15;
stroke-linejoin:miter; stroke-linecap:round;
"/>
<!-- Line -->
<!--  polyline  -->
<polyline points="2369,7599
2331,7638
" style="stroke:#ffffff;stroke-width:15;
stroke-linejoin:miter; stroke-linecap:round;
"/>
<!-- Line -->
<!--  polyline  -->
<polyline points="2206,7367
2301,7309
2561,7309
2476,7367
2206,7367
" style="stroke:#136cc4;stroke-width:0;
stroke-linejoin:miter; stroke-linecap:butt;
fill:#136cc4;
"/>
<!-- Line -->
<!--  polyline  -->
<polyline points="2206,7367
2301,7309
2561,7309
2476,7367
2206,7367
" style="stroke:#ffffff;stroke-width:7;
stroke-linejoin:miter; stroke-linecap:butt;
"/>
<!-- Line -->
<!--  polyline  -->
<polyline points="2476,7837
2560,7769
2560,7309
2476,7365
2476,7837
" style="stroke:#136cc4;stroke-width:0;
stroke-linejoin:miter; stroke-linecap:butt;
fill:#136cc4;
"/>
<!-- Line -->
<!--  polyline  -->
<polyline points="2476,7837
2560,7769
2560,7309
2476,7365
2476,7837
" style="stroke:#ffffff;stroke-width:7;
stroke-linejoin:miter; stroke-linecap:butt;
"/>
<!-- Line -->
<!--  polyline  -->
<polyline points="2206,7545
2474,7545
" style="stroke:#ffffff;stroke-width:7;
stroke-linejoin:miter; stroke-linecap:butt;
"/>
<!-- Line -->
<!--  polyline  -->
<polyline points="2353,7452
2353,7401
2228,7401
2228,7452
2353,7452
" style="stroke:#136cc4;stroke-width:0;
stroke-linejoin:miter; stroke-linecap:butt;
fill:#136cc4;
"/>
<!-- Line -->
<!--  polyline  -->
<polyline points="2353,7452
2353,7401
2228,7401
2228,7452
2353,7452
" style="stroke:#ffffff;stroke-width:7;
stroke-linejoin:miter; stroke-linecap:butt;
"/>
<!-- Line -->
<!--  polyline  -->
<polyline points="2240,7428
2342,7428
" style="stroke:#000000;stroke-width:0;
stroke-linejoin:miter; stroke-linecap:butt;
fill:#000000;
"/>
<!-- Line -->
<!--  polyline  -->
<polyline points="2240,7428
2342,7428
" style="stroke:#ffffff;stroke-width:7;
stroke-linejoin:miter; stroke-linecap:butt;
"/>
<!-- Line -->
<!--  spline  -->
<polyline points="2559,7523
2561,7523
2565,7523
2567,7523
2569,7523
2576,7525
2588,7527
2595,7529
2597,7529
2598,7529
2601,7531
2605,7533
2611,7537
2617,7542
2622,7547
2624,7549
2624,7550
2626,7553
2629,7558
2632,7563
2633,7565
2633,7566
2634,7568
2635,7572
2635,7573
2636,7574
2636,7575
2636,7576
2636,7577
2636,7575
2636,7566
2636,7549
2636,7532
2636,7523
2636,7521
2636,7519
2635,7517
2635,7515
2634,7513
2634,7511
2632,7507
2629,7502
2626,7497
2624,7495
2624,7494
2622,7491
2617,7486
2611,7481
2609,7479
2608,7478
2605,7476
2597,7472
2587,7469
2579,7468
2572,7467
2568,7467
2567,7467
2566,7467
2564,7467
2560,7467
2558,7467
2557,7467
" style="stroke:#ffffff;stroke-width:0;
stroke-linejoin:bevel; stroke-linecap:butt;
fill:#ffffff;
"/>
<!-- Line -->
<!--  spline  -->
<polyline points="2559,7523
2561,7523
2565,7523
2567,7523
2569,7523
2576,7525
2588,7527
2595,7529
2597,7529
2598,7529
2601,7531
2605,7533
2611,7537
2617,7542
2622,7547
2624,7549
2624,7550
2626,7553
2629,7558
2632,7563
2633,7565
2633,7566
2634,7568
2635,7572
2635,7573
2636,7574
2636,7575
2636,7576
2636,7577
2636,7575
2636,7566
2636,7549
2636,7532
2636,7523
2636,7521
2636,7519
2635,7517
2635,7515
2634,7513
2634,7511
2632,7507
2629,7502
2626,7497
2624,7495
2624,7494
2622,7491
2617,7486
2611,7481
2609,7479
2608,7478
2605,7476
2597,7472
2587,7469
2579,7468
2572,7467
2568,7467
2567,7467
2566,7467
2564,7467
2560,7467
2558,7467
2557,7467
" style="stroke:#000000;stroke-width:7;
stroke-linejoin:bevel; stroke-linecap:butt;
"/>
<!-- Line -->
<!--  spline  -->
<polyline points="2636,7518
2636,7519
2636,7524
2636,7536
2636,7552
2636,7567
2636,7579
2636,7584
2636,7585
2635,7586
2633,7592
2627,7604
2622,7616
2620,7622
2619,7623
2618,7623
2616,7626
2610,7630
2603,7634
2594,7639
2582,7645
2570,7649
2563,7652
2560,7652
2557,7652
2551,7654
2539,7656
2526,7658
2520,7658
2518,7658
2513,7658
2504,7659
2496,7660
2492,7660
2490,7660
2489,7660
2489,7661
2489,7663
2489,7664
2489,7666
2489,7675
2489,7691
2489,7707
2489,7716
2489,7718
2488,7717
2484,7713
2475,7704
2461,7690
2443,7672
2426,7654
2412,7640
2403,7631
2399,7627
2398,7626
2399,7625
2403,7621
2412,7612
2426,7598
2444,7580
2461,7563
2475,7549
2484,7540
2488,7536
2489,7535
2489,7537
2489,7546
2489,7564
2489,7582
2489,7591
2489,7593
2490,7593
2494,7593
2499,7593
2503,7593
2504,7593
2505,7593
2507,7593
2512,7593
2519,7592
2528,7591
2540,7589
2552,7587
2559,7585
2562,7585
2564,7584
2571,7582
2583,7578
2594,7573
2601,7570
2603,7569
2605,7568
2611,7564
2619,7556
2626,7546
2631,7537
2634,7529
2635,7522
2636,7519
2636,7518
" style="stroke:#ffffff;stroke-width:0;
stroke-linejoin:bevel; stroke-linecap:butt;
fill:#ffffff;
"/>
<!-- Line -->
<!--  spline  -->
<polyline points="2636,7518
2636,7519
2636,7524
2636,7536
2636,7552
2636,7567
2636,7579
2636,7584
2636,7585
2635,7586
2633,7592
2627,7604
2622,7616
2620,7622
2619,7623
2618,7623
2616,7626
2610,7630
2603,7634
2594,7639
2582,7645
2570,7649
2563,7652
2560,7652
2557,7652
2551,7654
2539,7656
2526,7658
2520,7658
2518,7658
2513,7658
2504,7659
2496,7660
2492,7660
2490,7660
2489,7660
2489,7661
2489,7663
2489,7664
2489,7666
2489,7675
2489,7691
2489,7707
2489,7716
2489,7718
2488,7717
2484,7713
2475,7704
2461,7690
2443,7672
2426,7654
2412,7640
2403,7631
2399,7627
2398,7626
2399,7625
2403,7621
2412,7612
2426,7598
2444,7580
2461,7563
2475,7549
2484,7540
2488,7536
2489,7535
2489,7537
2489,7546
2489,7564
2489,7582
2489,7591
2489,7593
2490,7593
2494,7593
2499,7593
2503,7593
2504,7593
2505,7593
2507,7593
2512,7593
2519,7592
2528,7591
2540,7589
2552,7587
2559,7585
2562,7585
2564,7584
2571,7582
2583,7578
2594,7573
2601,7570
2603,7569
2605,7568
2611,7564
2619,7556
2626,7546
2631,7537
2634,7529
2635,7522
2636,7519
2636,7518
" style="stroke:#000000;stroke-width:7;
stroke-linejoin:bevel; stroke-linecap:butt;
"/>
</g>
</svg>
