<?xml version="1.0" standalone="no"?>
<!DOCTYPE svg PUBLIC "-//W3C//DTD SVG 1.1//EN"
"http://www.w3.org/Graphics/SVG/1.1/DTD/svg11.dtd">
<!-- Creator: fig2dev Version 3.2 Patchlevel 5c -->
<!-- CreationDate: Fri Sep 14 10:46:17 2012 -->
<!-- Magnification: 1.000 -->
<svg xmlns="http://www.w3.org/2000/svg" width="0.6in" height="0.5in" viewBox="-4 12649 688 558">
<g style="stroke-width:.025in; fill:none">
<!-- Line -->
<!--  polyline  -->
<polyline points="84,13087
84,13015
465,13015
465,13087
84,13087
" style="stroke:#00a5d4;stroke-width:0;
stroke-linejoin:miter; stroke-linecap:butt;
fill:#00a5d4;
"/>
<!-- Line -->
<!--  polyline  -->
<polyline points="84,13087
84,13015
465,13015
465,13087
84,13087
" style="stroke:#ffffff;stroke-width:7;
stroke-linejoin:miter; stroke-linecap:butt;
"/>
<!-- Line -->
<!--  polyline  -->
<polyline points="530,12950
530,13022
465,13087
465,13015
84,13015
" style="stroke:#00a5d4;stroke-width:0;
stroke-linejoin:miter; stroke-linecap:butt;
fill:#00a5d4;
"/>
<!-- Line -->
<!--  polyline  -->
<polyline points="530,12950
530,13022
465,13087
465,13015
84,13015
" style="stroke:#ffffff;stroke-width:7;
stroke-linejoin:miter; stroke-linecap:butt;
"/>
<!-- Line -->
<!--  polyline  -->
<polyline points="84,12950
530,12950
" style="stroke:#000000;stroke-width:0;
stroke-linejoin:miter; stroke-linecap:butt;
fill:#000000;
"/>
<!-- Line -->
<!--  polyline  -->
<polyline points="84,12950
530,12950
" style="stroke:#ffffff;stroke-width:7;
stroke-linejoin:bevel; stroke-linecap:butt;
"/>
<!-- Line -->
<!--  polyline  -->
<polyline points="465,13015
530,12950
" style="stroke:#000000;stroke-width:0;
stroke-linejoin:bevel; stroke-linecap:butt;
fill:#000000;
"/>
<!-- Line -->
<!--  polyline  -->
<polyline points="465,13015
530,12950
" style="stroke:#ffffff;stroke-width:7;
stroke-linejoin:bevel; stroke-linecap:butt;
"/>
<!-- Line -->
<!--  polyline  -->
<polyline points="446,13138
446,13096
8,13096
58,13046
496,13046
496,13089
446,13138
" style="stroke:#00a5d4;stroke-width:0;
stroke-linejoin:bevel; stroke-linecap:butt;
fill:#00a5d4;
"/>
<!-- Line -->
<!--  polyline  -->
<polyline points="446,13138
446,13096
8,13096
58,13046
496,13046
496,13089
446,13138
" style="stroke:#ffffff;stroke-width:7;
stroke-linejoin:miter; stroke-linecap:butt;
"/>
<!-- Line -->
<!--  polyline  -->
<polyline points="446,13096
446,13138
8,13138
8,13096
446,13096
" style="stroke:#00a5d4;stroke-width:0;
stroke-linejoin:miter; stroke-linecap:butt;
fill:#00a5d4;
"/>
<!-- Line -->
<!--  polyline  -->
<polyline points="446,13096
446,13138
8,13138
8,13096
446,13096
" style="stroke:#ffffff;stroke-width:7;
stroke-linejoin:miter; stroke-linecap:butt;
"/>
<!-- Line -->
<!--  polyline  -->
<polyline points="446,13096
496,13046
" style="stroke:#000000;stroke-width:0;
stroke-linejoin:miter; stroke-linecap:butt;
fill:#000000;
"/>
<!-- Line -->
<!--  polyline  -->
<polyline points="446,13096
496,13046
" style="stroke:#ffffff;stroke-width:7;
stroke-linejoin:bevel; stroke-linecap:butt;
"/>
<!-- Line -->
<!--  polyline  -->
<polyline points="465,13015
465,12726
84,12726
84,13015
465,13015
" style="stroke:#00a5d4;stroke-width:0;
stroke-linejoin:bevel; stroke-linecap:butt;
fill:#00a5d4;
"/>
<!-- Line -->
<!--  polyline  -->
<polyline points="465,13015
465,12726
84,12726
84,13015
465,13015
" style="stroke:#ffffff;stroke-width:7;
stroke-linejoin:miter; stroke-linecap:butt;
"/>
<!-- Line -->
<!--  polyline  -->
<polyline points="465,13015
530,12950
530,12661
149,12661
84,12726
465,12726
465,13015
" style="stroke:#00a5d4;stroke-width:0;
stroke-linejoin:miter; stroke-linecap:butt;
fill:#00a5d4;
"/>
<!-- Line -->
<!--  polyline  -->
<polyline points="465,13015
530,12950
530,12661
149,12661
84,12726
465,12726
465,13015
" style="stroke:#ffffff;stroke-width:7;
stroke-linejoin:miter; stroke-linecap:butt;
"/>
<!-- Line -->
<!--  polyline  -->
<polyline points="432,12980
432,12760
117,12760
117,12980
432,12980
" style="stroke:#00a5d4;stroke-width:0;
stroke-linejoin:miter; stroke-linecap:butt;
fill:#00a5d4;
"/>
<!-- Line -->
<!--  polyline  -->
<polyline points="432,12980
432,12760
117,12760
117,12980
432,12980
" style="stroke:#ffffff;stroke-width:7;
stroke-linejoin:miter; stroke-linecap:butt;
"/>
<!-- Line -->
<!--  polyline  -->
<polyline points="465,12726
530,12661
" style="stroke:#000000;stroke-width:0;
stroke-linejoin:miter; stroke-linecap:butt;
fill:#000000;
"/>
<!-- Line -->
<!--  polyline  -->
<polyline points="465,12726
530,12661
" style="stroke:#ffffff;stroke-width:7;
stroke-linejoin:bevel; stroke-linecap:butt;
"/>
<!-- Line -->
<!--  polyline  -->
<polyline points="672,13150
606,13059
543,13104
609,13195
672,13150
" style="stroke:#00a5d4;stroke-width:0;
stroke-linejoin:bevel; stroke-linecap:butt;
fill:#00a5d4;
"/>
<!-- Line -->
<!--  polyline  -->
<polyline points="672,13150
606,13059
543,13104
609,13195
672,13150
" style="stroke:#ffffff;stroke-width:7;
stroke-linejoin:miter; stroke-linecap:butt;
"/>
<!-- Line -->
<!--  spline  -->
<polyline points="576,13080
574,13078
570,13074
568,13072
567,13071
565,13071
563,13069
560,13068
558,13067
556,13066
555,13066
553,13064
551,13062
551,13061
550,13061
550,13059
549,13056
549,13052
549,13048
549,13045
549,13042
549,13041
549,13036
548,13030
548,13025
548,13024
547,13022
547,13019
545,13015
542,13011
539,13007
537,13006
536,13005
535,13004
530,13002
525,13000
523,13000
522,13000
520,13000
514,13000
507,13001
501,13003
496,13005
493,13006
492,13006
" style="stroke:#00a5d4;stroke-width:7;
stroke-linejoin:bevel; stroke-linecap:butt;
"/>
<!-- Line -->
<!--  spline  -->
<polyline points="209,12854
210,12854
213,12853
217,12853
220,12852
221,12852
222,12851
224,12851
227,12849
230,12847
233,12845
234,12844
235,12843
236,12842
238,12839
240,12836
241,12835
242,12833
243,12830
244,12826
245,12823
245,12820
245,12818
245,12817
244,12815
244,12810
243,12808
243,12807
242,12805
242,12803
240,12800
238,12797
236,12794
235,12793
234,12792
233,12791
230,12789
227,12787
226,12786
224,12785
221,12784
217,12783
214,12783
211,12783
209,12783
208,12783
206,12783
201,12784
199,12784
198,12784
196,12785
194,12785
191,12787
188,12789
185,12791
184,12792
183,12793
182,12794
180,12797
178,12800
177,12801
177,12802
176,12804
175,12807
174,12811
173,12814
173,12816
173,12818
173,12819
174,12822
174,12826
175,12829
175,12830
176,12831
176,12833
178,12836
180,12839
182,12842
183,12843
184,12844
185,12845
188,12847
191,12849
192,12850
193,12850
195,12851
198,12852
202,12853
205,12854
207,12854
209,12854
" style="stroke:#ffffff;stroke-width:7;
stroke-linejoin:bevel; stroke-linecap:butt;
"/>
<!-- Line -->
<!--  spline  -->
<polyline points="338,12854
339,12854
341,12853
346,12853
348,12852
349,12852
351,12851
353,12851
356,12849
359,12847
362,12845
363,12844
364,12843
365,12842
367,12839
369,12836
370,12835
371,12833
372,12830
373,12826
374,12823
374,12820
374,12818
374,12817
373,12815
373,12810
372,12808
372,12807
371,12805
371,12803
369,12800
367,12797
365,12794
364,12793
363,12792
362,12791
359,12789
356,12787
355,12786
354,12786
352,12785
349,12784
345,12783
342,12783
340,12783
338,12783
337,12783
335,12783
330,12784
328,12784
327,12784
325,12785
323,12785
320,12787
317,12789
314,12791
313,12792
312,12793
311,12794
309,12797
307,12800
306,12801
306,12802
305,12804
304,12807
303,12811
302,12814
302,12816
302,12818
302,12819
303,12822
303,12826
304,12829
304,12830
305,12831
305,12833
307,12836
309,12839
311,12842
312,12843
313,12844
314,12845
317,12847
320,12849
321,12850
322,12850
324,12851
327,12852
331,12853
334,12854
336,12854
338,12854
" style="stroke:#ffffff;stroke-width:7;
stroke-linejoin:bevel; stroke-linecap:butt;
"/>
<!-- Line -->
<!--  spline  -->
<polyline points="274,12965
275,12965
277,12964
282,12964
284,12963
285,12963
287,12962
289,12961
292,12960
295,12958
298,12956
299,12955
300,12954
302,12951
304,12948
305,12947
305,12946
306,12945
307,12941
308,12937
309,12934
309,12931
309,12929
309,12928
308,12926
308,12921
307,12919
307,12918
306,12916
305,12914
304,12911
302,12908
300,12905
299,12904
298,12903
295,12901
292,12899
291,12898
290,12898
289,12897
285,12896
281,12895
278,12894
276,12894
274,12894
273,12894
270,12895
266,12895
263,12896
262,12896
260,12897
258,12898
255,12899
252,12901
249,12903
248,12904
247,12905
245,12908
243,12911
242,12912
242,12913
241,12914
240,12918
239,12922
238,12925
238,12927
238,12929
238,12930
239,12933
239,12937
240,12940
240,12941
241,12943
242,12945
243,12948
245,12951
247,12954
248,12955
249,12956
252,12958
255,12960
256,12961
257,12961
258,12962
262,12963
266,12964
269,12965
272,12965
274,12965
" style="stroke:#ffffff;stroke-width:7;
stroke-linejoin:bevel; stroke-linecap:butt;
"/>
<!-- Line -->
<!--  polyline  -->
<polyline points="209,12854
229,12888
237,12867
257,12897
" style="stroke:#ffffff;stroke-width:7;
stroke-linejoin:miter; stroke-linecap:butt;
"/>
<!-- Line -->
<!--  polyline  -->
<polyline points="293,12900
308,12868
320,12887
338,12854
" style="stroke:#ffffff;stroke-width:7;
stroke-linejoin:miter; stroke-linecap:butt;
"/>
<!-- Line -->
<!--  polyline  -->
<polyline points="302,12818
270,12828
277,12810
245,12818
" style="stroke:#ffffff;stroke-width:7;
stroke-linejoin:miter; stroke-linecap:butt;
"/>
</g>
</svg>
