<?xml version="1.0" standalone="no"?>
<!DOCTYPE svg PUBLIC "-//W3C//DTD SVG 1.1//EN"
"http://www.w3.org/Graphics/SVG/1.1/DTD/svg11.dtd">
<!-- Creator: fig2dev Version 3.2 Patchlevel 5c -->
<!-- CreationDate: Fri Sep 14 10:46:16 2012 -->
<!-- Magnification: 1.000 -->
<svg xmlns="http://www.w3.org/2000/svg" width="0.5in" height="0.5in" viewBox="-6 12649 650 555">
<g style="stroke-width:.025in; fill:none">
<!-- Line -->
<!--  polyline  -->
<polyline points="521,12964
473,13028
75,13028
140,12962
521,12964
" style="stroke:#000000;stroke-width:0;
stroke-linejoin:miter; stroke-linecap:butt;
fill:#000000;
"/>
<!-- Line -->
<!--  polyline  -->
<polyline points="521,12964
473,13028
75,13028
140,12962
521,12964
" style="stroke:#ffffff;stroke-width:7;
stroke-linejoin:miter; stroke-linecap:butt;
"/>
<!-- Line -->
<!--  polyline  -->
<polyline points="74,13100
74,13028
456,13028
456,13100
74,13100
" style="stroke:#00a5d4;stroke-width:0;
stroke-linejoin:miter; stroke-linecap:butt;
fill:#00a5d4;
"/>
<!-- Line -->
<!--  polyline  -->
<polyline points="74,13100
74,13028
456,13028
456,13100
74,13100
" style="stroke:#ffffff;stroke-width:7;
stroke-linejoin:miter; stroke-linecap:butt;
"/>
<!-- Line -->
<!--  polyline  -->
<polyline points="73,12726
453,12726
453,13012
73,13012
73,12726
" style="stroke:#00a5d4;stroke-width:0;
stroke-linejoin:miter; stroke-linecap:butt;
fill:#00a5d4;
"/>
<!-- Line -->
<!--  polyline  -->
<polyline points="73,12726
453,12726
453,13012
73,13012
73,12726
" style="stroke:#ffffff;stroke-width:7;
stroke-linejoin:miter; stroke-linecap:butt;
"/>
<!-- Line -->
<!--  polyline  -->
<polyline points="453,13012
518,12947
518,12661
453,12726
453,13012
" style="stroke:#00a5d4;stroke-width:0;
stroke-linejoin:miter; stroke-linecap:butt;
fill:#00a5d4;
"/>
<!-- Line -->
<!--  polyline  -->
<polyline points="453,13012
518,12947
518,12661
453,12726
453,13012
" style="stroke:#ffffff;stroke-width:7;
stroke-linejoin:miter; stroke-linecap:butt;
"/>
<!-- Line -->
<!--  polyline  -->
<polyline points="597,13162
626,13104
559,13104
530,13162
597,13162
" style="stroke:#00a5d4;stroke-width:0;
stroke-linejoin:miter; stroke-linecap:butt;
fill:#00a5d4;
"/>
<!-- Line -->
<!--  polyline  -->
<polyline points="597,13162
626,13104
559,13104
530,13162
597,13162
" style="stroke:#ffffff;stroke-width:7;
stroke-linejoin:miter; stroke-linecap:butt;
"/>
<!-- Line -->
<!--  polyline  -->
<polyline points="530,13162
597,13162
597,13181
530,13181
530,13162
" style="stroke:#00a5d4;stroke-width:0;
stroke-linejoin:miter; stroke-linecap:butt;
fill:#00a5d4;
"/>
<!-- Line -->
<!--  polyline  -->
<polyline points="530,13162
597,13162
597,13181
530,13181
530,13162
" style="stroke:#ffffff;stroke-width:7;
stroke-linejoin:miter; stroke-linecap:butt;
"/>
<!-- Line -->
<!--  polyline  -->
<polyline points="596,13181
596,13162
625,13104
625,13144
596,13181
" style="stroke:#000000;stroke-width:0;
stroke-linejoin:miter; stroke-linecap:butt;
fill:#000000;
"/>
<!-- Line -->
<!--  polyline  -->
<polyline points="596,13181
596,13162
625,13104
625,13144
596,13181
" style="stroke:#ffffff;stroke-width:7;
stroke-linejoin:miter; stroke-linecap:butt;
"/>
<!-- Line -->
<!--  polyline  -->
<polyline points="455,13100
455,13029
520,12964
520,13035
455,13100
" style="stroke:#00a5d4;stroke-width:0;
stroke-linejoin:miter; stroke-linecap:butt;
fill:#00a5d4;
"/>
<!-- Line -->
<!--  polyline  -->
<polyline points="455,13100
455,13029
520,12964
520,13035
455,13100
" style="stroke:#ffffff;stroke-width:7;
stroke-linejoin:miter; stroke-linecap:butt;
"/>
<!-- Line -->
<!--  spline  -->
<polyline points="136,12759
137,12759
141,12759
151,12759
169,12759
195,12759
227,12759
263,12759
299,12759
331,12759
357,12759
375,12759
385,12759
389,12759
390,12759
393,12759
396,12760
399,12760
401,12760
403,12761
405,12762
408,12764
410,12766
411,12767
412,12767
412,12769
414,12771
416,12774
416,12775
417,12776
418,12779
419,12782
420,12785
420,12787
420,12789
420,12790
420,12794
420,12804
420,12820
420,12843
420,12869
420,12895
420,12918
420,12934
420,12944
420,12948
420,12949
420,12950
419,12952
419,12956
418,12958
418,12959
418,12960
417,12962
416,12964
414,12967
412,12969
412,12970
411,12970
410,12971
408,12973
405,12975
404,12976
403,12976
402,12977
399,12978
396,12979
393,12979
391,12979
390,12979
389,12979
385,12979
375,12979
357,12979
331,12979
299,12979
263,12979
227,12979
195,12979
169,12979
151,12979
141,12979
137,12979
136,12979
135,12979
133,12979
129,12978
127,12978
126,12978
125,12977
123,12976
121,12975
118,12973
116,12971
115,12970
114,12969
112,12967
110,12965
109,12964
109,12963
108,12962
107,12959
106,12956
106,12953
106,12951
106,12949
106,12948
106,12944
106,12934
106,12918
106,12895
106,12869
106,12843
106,12820
106,12804
106,12794
106,12790
106,12789
106,12788
106,12786
107,12782
107,12780
107,12779
108,12778
109,12776
110,12774
112,12771
114,12769
115,12767
116,12766
118,12764
120,12762
121,12762
122,12761
123,12761
126,12760
129,12759
132,12759
134,12759
136,12759
" style="stroke:#00a5d4;stroke-width:0;
stroke-linejoin:bevel; stroke-linecap:butt;
fill:#00a5d4;
"/>
<!-- Line -->
<!--  spline  -->
<polyline points="136,12759
137,12759
141,12759
151,12759
169,12759
195,12759
227,12759
263,12759
299,12759
331,12759
357,12759
375,12759
385,12759
389,12759
390,12759
393,12759
396,12760
399,12760
401,12760
403,12761
405,12762
408,12764
410,12766
411,12767
412,12767
412,12769
414,12771
416,12774
416,12775
417,12776
418,12779
419,12782
420,12785
420,12787
420,12789
420,12790
420,12794
420,12804
420,12820
420,12843
420,12869
420,12895
420,12918
420,12934
420,12944
420,12948
420,12949
420,12950
419,12952
419,12956
418,12958
418,12959
418,12960
417,12962
416,12964
414,12967
412,12969
412,12970
411,12970
410,12971
408,12973
405,12975
404,12976
403,12976
402,12977
399,12978
396,12979
393,12979
391,12979
390,12979
389,12979
385,12979
375,12979
357,12979
331,12979
299,12979
263,12979
227,12979
195,12979
169,12979
151,12979
141,12979
137,12979
136,12979
135,12979
133,12979
129,12978
127,12978
126,12978
125,12977
123,12976
121,12975
118,12973
116,12971
115,12970
114,12969
112,12967
110,12965
109,12964
109,12963
108,12962
107,12959
106,12956
106,12953
106,12951
106,12949
106,12948
106,12944
106,12934
106,12918
106,12895
106,12869
106,12843
106,12820
106,12804
106,12794
106,12790
106,12789
106,12788
106,12786
107,12782
107,12780
107,12779
108,12778
109,12776
110,12774
112,12771
114,12769
115,12767
116,12766
118,12764
120,12762
121,12762
122,12761
123,12761
126,12760
129,12759
132,12759
134,12759
136,12759
" style="stroke:#ffffff;stroke-width:7;
stroke-linejoin:bevel; stroke-linecap:butt;
"/>
<!-- Line -->
<!--  polyline  -->
<polyline points="518,12661
148,12661
73,12726
453,12726
518,12661
" style="stroke:#00a5d4;stroke-width:0;
stroke-linejoin:miter; stroke-linecap:butt;
fill:#00a5d4;
"/>
<!-- Line -->
<!--  polyline  -->
<polyline points="518,12661
148,12661
73,12726
453,12726
518,12661
" style="stroke:#ffffff;stroke-width:7;
stroke-linejoin:miter; stroke-linecap:butt;
"/>
<!-- Line -->
<!--  polyline  -->
<polyline points="444,13192
444,13169
494,13100
494,13142
444,13192
" style="stroke:#00a5d4;stroke-width:0;
stroke-linejoin:miter; stroke-linecap:butt;
fill:#00a5d4;
"/>
<!-- Line -->
<!--  polyline  -->
<polyline points="444,13192
444,13169
494,13100
494,13142
444,13192
" style="stroke:#ffffff;stroke-width:7;
stroke-linejoin:miter; stroke-linecap:butt;
"/>
<!-- Line -->
<!--  polyline  -->
<polyline points="444,13169
7,13169
56,13100
494,13100
444,13169
" style="stroke:#00a5d4;stroke-width:0;
stroke-linejoin:miter; stroke-linecap:butt;
fill:#00a5d4;
"/>
<!-- Line -->
<!--  polyline  -->
<polyline points="444,13169
7,13169
56,13100
494,13100
444,13169
" style="stroke:#ffffff;stroke-width:7;
stroke-linejoin:miter; stroke-linecap:butt;
"/>
<!-- Line -->
<!--  polyline  -->
<polyline points="444,13169
444,13192
6,13192
6,13169
444,13169
" style="stroke:#00a5d4;stroke-width:0;
stroke-linejoin:miter; stroke-linecap:butt;
fill:#00a5d4;
"/>
<!-- Line -->
<!--  polyline  -->
<polyline points="444,13169
444,13192
6,13192
6,13169
444,13169
" style="stroke:#ffffff;stroke-width:7;
stroke-linejoin:miter; stroke-linecap:butt;
"/>
<!-- Line -->
<!--  spline  -->
<polyline points="609,13106
610,13105
615,13099
623,13090
628,13084
629,13083
629,13082
630,13078
631,13071
632,13063
629,13052
625,13042
622,13038
621,13036
617,13032
608,13025
599,13020
594,13017
592,13015
589,13015
583,13013
570,13013
555,13015
542,13018
531,13022
522,13025
517,13028
516,13028
" style="stroke:#00a5d4;stroke-width:7;
stroke-linejoin:bevel; stroke-linecap:butt;
"/>
<!-- Line -->
<!--  spline  -->
<polyline points="255,12854
256,12854
259,12854
265,12854
268,12854
269,12854
270,12855
271,12857
272,12858
273,12858
275,12858
280,12858
282,12858
283,12858
284,12858
287,12855
291,12852
294,12849
295,12849
296,12849
299,12849
304,12849
307,12849
308,12849
309,12850
311,12853
315,12857
317,12860
318,12861
319,12861
322,12861
327,12861
330,12861
331,12861
332,12860
335,12857
340,12853
343,12850
344,12849
345,12849
347,12849
352,12849
354,12849
355,12849
356,12850
358,12852
362,12856
364,12858
365,12859
366,12859
368,12859
373,12859
375,12859
376,12859
377,12857
379,12853
380,12851
381,12852
386,12855
396,12861
406,12867
411,12870
412,12871
411,12872
405,12877
396,12884
390,12889
389,12890
388,12890
382,12890
369,12890
348,12890
322,12890
296,12890
275,12890
262,12890
256,12890
255,12890
255,12892
255,12893
255,12895
254,12895
249,12895
240,12895
235,12895
234,12895
233,12895
232,12895
231,12895
230,12895
229,12896
228,12896
227,12897
226,12898
225,12899
224,12900
223,12901
222,12902
220,12905
218,12908
216,12911
215,12912
213,12914
210,12916
207,12918
204,12920
202,12921
202,12922
200,12922
197,12924
194,12925
192,12926
191,12926
187,12927
183,12928
180,12928
177,12928
175,12928
174,12928
169,12927
163,12926
158,12925
157,12925
155,12924
151,12923
147,12921
142,12918
138,12914
136,12913
135,12912
134,12910
130,12905
127,12900
125,12898
124,12895
122,12890
120,12884
119,12879
119,12875
119,12872
119,12871
120,12866
121,12860
122,12855
122,12854
123,12852
124,12848
127,12844
130,12839
134,12834
135,12832
136,12832
138,12830
142,12826
147,12823
149,12821
152,12820
157,12818
163,12817
168,12816
172,12816
175,12816
176,12816
179,12816
183,12817
186,12817
187,12817
189,12817
191,12818
193,12819
197,12820
200,12821
202,12822
204,12823
207,12825
210,12827
211,12828
212,12829
215,12832
218,12835
220,12837
221,12840
222,12841
222,12842
223,12843
223,12844
223,12845
224,12845
225,12846
226,12847
227,12847
228,12848
229,12848
229,12849
230,12849
231,12849
232,12849
233,12849
234,12849
235,12849
240,12849
249,12849
254,12849
255,12849
255,12851
255,12852
255,12854
" style="stroke:#ffffff;stroke-width:0;
stroke-linejoin:bevel; stroke-linecap:butt;
fill:#ffffff;
"/>
<!-- Line -->
<!--  spline  -->
<polyline points="399,12881
398,12881
395,12881
386,12881
371,12881
350,12881
327,12881
304,12881
283,12881
268,12881
259,12881
256,12881
255,12881
254,12881
252,12881
251,12881
250,12881
248,12882
247,12882
246,12882
245,12882
245,12883
244,12883
243,12883
242,12883
241,12883
240,12884
239,12884
237,12885
236,12885
235,12886
234,12886
236,12886
237,12887
239,12887
240,12887
240,12888
242,12889
243,12889
244,12889
245,12889
246,12889
247,12889
248,12889
249,12889
249,12890
250,12890
251,12890
252,12890
254,12890
255,12890
" style="stroke:#000000;stroke-width:7;
stroke-linejoin:bevel; stroke-linecap:butt;
"/>
<!-- Line -->
<!--  spline  -->
<polyline points="406,12868
405,12868
402,12868
393,12868
378,12868
357,12868
333,12868
310,12868
289,12868
274,12868
265,12868
262,12868
261,12868
260,12868
258,12868
257,12868
256,12868
255,12868
253,12867
251,12867
249,12867
248,12867
246,12867
244,12867
243,12867
242,12866
241,12866
240,12866
240,12865
239,12865
" style="stroke:#000000;stroke-width:7;
stroke-linejoin:bevel; stroke-linecap:butt;
"/>
<!-- Line -->
<!--  spline  -->
<polyline points="175,12922
176,12922
180,12921
186,12921
190,12920
191,12920
193,12919
197,12917
200,12915
205,12912
209,12909
210,12908
211,12907
212,12906
215,12902
218,12898
219,12896
220,12895
221,12893
223,12888
224,12882
225,12878
225,12875
225,12872
225,12871
224,12867
224,12861
223,12857
223,12856
222,12854
220,12851
218,12847
215,12842
212,12838
211,12836
210,12836
209,12834
205,12831
201,12828
199,12827
198,12827
196,12826
191,12824
185,12823
181,12822
178,12822
175,12822
174,12822
170,12823
164,12823
160,12824
159,12824
157,12825
154,12826
150,12828
146,12831
142,12834
140,12836
138,12838
135,12842
132,12846
131,12848
131,12849
130,12851
128,12856
126,12862
126,12866
125,12869
125,12872
125,12873
126,12877
127,12883
128,12887
128,12888
129,12890
130,12893
132,12897
135,12902
138,12906
140,12908
142,12910
146,12913
150,12916
152,12917
154,12918
159,12920
164,12921
169,12922
172,12922
175,12922
" style="stroke:#ffffff;stroke-width:0;
stroke-linejoin:bevel; stroke-linecap:butt;
fill:#ffffff;
"/>
<!-- Line -->
<!--  spline  -->
<polyline points="175,12922
176,12922
180,12921
186,12921
190,12920
191,12920
193,12919
197,12917
200,12915
205,12912
209,12909
210,12908
211,12907
212,12906
215,12902
218,12898
219,12896
220,12895
221,12893
223,12888
224,12882
225,12878
225,12875
225,12872
225,12871
224,12867
224,12861
223,12857
223,12856
222,12854
220,12851
218,12847
215,12842
212,12838
211,12836
210,12836
209,12834
205,12831
201,12828
199,12827
198,12827
196,12826
191,12824
185,12823
181,12822
178,12822
175,12822
174,12822
170,12823
164,12823
160,12824
159,12824
157,12825
154,12826
150,12828
146,12831
142,12834
140,12836
138,12838
135,12842
132,12846
131,12848
131,12849
130,12851
128,12856
126,12862
126,12866
125,12869
125,12872
125,12873
126,12877
127,12883
128,12887
128,12888
129,12890
130,12893
132,12897
135,12902
138,12906
140,12908
142,12910
146,12913
150,12916
152,12917
154,12918
159,12920
164,12921
169,12922
172,12922
175,12922
" style="stroke:#000000;stroke-width:7;
stroke-linejoin:bevel; stroke-linecap:butt;
"/>
<!-- Line -->
<!--  spline  -->
<polyline points="146,12885
148,12885
149,12885
151,12885
152,12884
153,12884
154,12883
155,12882
156,12882
156,12881
157,12880
158,12879
158,12878
158,12877
159,12876
159,12875
160,12873
160,12872
160,12871
159,12869
159,12868
159,12867
158,12866
158,12865
157,12864
156,12863
156,12862
155,12862
154,12861
153,12860
152,12859
151,12859
149,12859
148,12859
147,12859
146,12859
145,12859
143,12859
142,12859
141,12860
140,12860
139,12861
138,12862
137,12862
137,12863
136,12864
135,12865
135,12866
135,12867
134,12868
134,12869
133,12871
133,12872
133,12873
134,12875
134,12876
134,12877
135,12878
135,12879
136,12880
137,12881
137,12882
138,12882
139,12883
140,12884
141,12885
142,12885
143,12885
144,12885
145,12885
146,12885
" style="stroke:#ffffff;stroke-width:0;
stroke-linejoin:bevel; stroke-linecap:butt;
fill:#ffffff;
"/>
<!-- Line -->
<!--  spline  -->
<polyline points="146,12885
148,12885
149,12885
151,12885
152,12884
153,12884
154,12883
155,12882
156,12882
156,12881
157,12880
158,12879
158,12878
158,12877
159,12876
159,12875
160,12873
160,12872
160,12871
159,12869
159,12868
159,12867
158,12866
158,12865
157,12864
156,12863
156,12862
155,12862
154,12861
153,12860
152,12859
151,12859
149,12859
148,12859
147,12859
146,12859
145,12859
143,12859
142,12859
141,12860
140,12860
139,12861
138,12862
137,12862
137,12863
136,12864
135,12865
135,12866
135,12867
134,12868
134,12869
133,12871
133,12872
133,12873
134,12875
134,12876
134,12877
135,12878
135,12879
136,12880
137,12881
137,12882
138,12882
139,12883
140,12884
141,12885
142,12885
143,12885
144,12885
145,12885
146,12885
" style="stroke:#000000;stroke-width:7;
stroke-linejoin:bevel; stroke-linecap:butt;
"/>
</g>
</svg>
