<?xml version="1.0" standalone="no"?>
<!DOCTYPE svg PUBLIC "-//W3C//DTD SVG 1.1//EN"
"http://www.w3.org/Graphics/SVG/1.1/DTD/svg11.dtd">
<!-- Creator: fig2dev Version 3.2 Patchlevel 5c -->
<!-- CreationDate: Fri Sep 14 10:46:16 2012 -->
<!-- Magnification: 1.000 -->
<svg xmlns="http://www.w3.org/2000/svg" width="0.4in" height="0.5in" viewBox="4857 6336 491 556">
<g style="stroke-width:.025in; fill:none">
<!-- Line -->
<!--  polyline  -->
<polyline points="4871,6718
4871,6877
5265,6877
5265,6718
" style="stroke:#000000;stroke-width:0;
stroke-linejoin:miter; stroke-linecap:butt;
fill:#000000;
"/>
<!-- Line -->
<!--  polyline  -->
<polyline points="4871,6718
4871,6877
5265,6877
5265,6718
" style="stroke:#ffffff;stroke-width:7;
stroke-linejoin:miter; stroke-linecap:butt;
"/>
<!-- Line -->
<!--  polyline  -->
<polyline points="4871,6402
4940,6348
5336,6348
5265,6402
4871,6402
" style="stroke:#00a5d4;stroke-width:0;
stroke-linejoin:miter; stroke-linecap:butt;
fill:#00a5d4;
"/>
<!-- Line -->
<!--  polyline  -->
<polyline points="4871,6402
4940,6348
5336,6348
5265,6402
4871,6402
" style="stroke:#ffffff;stroke-width:7;
stroke-linejoin:miter; stroke-linecap:butt;
"/>
<!-- Line -->
<!--  polyline  -->
<polyline points="5265,6880
5336,6822
5336,6662
5265,6716
5265,6880
" style="stroke:#000000;stroke-width:0;
stroke-linejoin:round; stroke-linecap:round;
fill:#000000;
"/>
<!-- Line -->
<!--  polyline  -->
<polyline points="5265,6880
5336,6822
5336,6662
5265,6716
5265,6880
" style="stroke:#ffffff;stroke-width:7;
stroke-linejoin:round; stroke-linecap:round;
"/>
<!-- Line -->
<!--  polyline  -->
<polyline points="5265,6769
4871,6769
" style="stroke:#ffffff;stroke-width:7;
stroke-linejoin:round; stroke-linecap:round;
"/>
<!-- Line -->
<!--  polyline  -->
<polyline points="5265,6824
4871,6824
" style="stroke:#ffffff;stroke-width:7;
stroke-linejoin:round; stroke-linecap:round;
"/>
<!-- Line -->
<!--  polyline  -->
<polyline points="5331,6777
5269,6825
" style="stroke:#ffffff;stroke-width:7;
stroke-linejoin:round; stroke-linecap:round;
"/>
<!-- Line -->
<!--  polyline  -->
<polyline points="4988,6827
4988,6876
" style="stroke:#ffffff;stroke-width:7;
stroke-linejoin:round; stroke-linecap:round;
"/>
<!-- Line -->
<!--  polyline  -->
<polyline points="5140,6827
5140,6876
" style="stroke:#ffffff;stroke-width:7;
stroke-linejoin:round; stroke-linecap:round;
"/>
<!-- Line -->
<!--  polyline  -->
<polyline points="5067,6772
5067,6821
" style="stroke:#ffffff;stroke-width:7;
stroke-linejoin:round; stroke-linecap:round;
"/>
<!-- Line -->
<!--  polyline  -->
<polyline points="4915,6772
4915,6821
" style="stroke:#ffffff;stroke-width:7;
stroke-linejoin:round; stroke-linecap:round;
"/>
<!-- Line -->
<!--  polyline  -->
<polyline points="5220,6772
5220,6821
" style="stroke:#ffffff;stroke-width:7;
stroke-linejoin:round; stroke-linecap:round;
"/>
<!-- Line -->
<!--  polyline  -->
<polyline points="5267,6399
5267,6770
4869,6770
4869,6398
5267,6399
" style="stroke:#00a5d4;stroke-width:0;
stroke-linejoin:miter; stroke-linecap:butt;
fill:#00a5d4;
"/>
<!-- Line -->
<!--  polyline  -->
<polyline points="5267,6399
5267,6770
4869,6770
4869,6398
5267,6399
" style="stroke:#ffffff;stroke-width:7;
stroke-linejoin:miter; stroke-linecap:butt;
"/>
<!-- Line -->
<!--  polyline  -->
<polyline points="5334,6713
5334,6349
5266,6400
5266,6767
5334,6713
" style="stroke:#00a5d4;stroke-width:0;
stroke-linejoin:miter; stroke-linecap:butt;
fill:#00a5d4;
"/>
<!-- Line -->
<!--  polyline  -->
<polyline points="5334,6713
5334,6349
5266,6400
5266,6767
5334,6713
" style="stroke:#ffffff;stroke-width:7;
stroke-linejoin:miter; stroke-linecap:butt;
"/>
<!-- Line -->
<!--  polyline  -->
<polyline points="5319,6728
5319,6787
" style="stroke:#ffffff;stroke-width:7;
stroke-linejoin:round; stroke-linecap:round;
"/>
<!-- Line -->
<!--  polyline  -->
<polyline points="5296,6804
5296,6863
" style="stroke:#ffffff;stroke-width:7;
stroke-linejoin:round; stroke-linecap:round;
"/>
<!-- Line -->
<!--  polyline  -->
<polyline points="4946,6540
5099,6540
5099,6530
5134,6550
5099,6572
5099,6561
4946,6561
4946,6540
" style="stroke:#ffffff;stroke-width:0;
stroke-linejoin:miter; stroke-linecap:butt;
fill:#ffffff;
"/>
<!-- Line -->
<!--  polyline  -->
<polyline points="5182,6595
5053,6595
5053,6584
5019,6605
5053,6627
5053,6616
5182,6616
5182,6595
" style="stroke:#ffffff;stroke-width:0;
stroke-linejoin:miter; stroke-linecap:butt;
fill:#ffffff;
"/>
<!-- Line -->
<!--  spline  -->
<polyline points="5232,6727
5231,6727
5229,6726
5228,6726
5227,6726
5226,6726
5225,6725
5224,6725
5223,6724
5222,6724
5221,6723
5220,6722
5220,6721
5220,6720
5219,6719
5219,6718
5218,6716
5218,6715
5218,6714
5218,6712
5218,6711
5218,6710
5218,6709
5219,6708
5220,6707
5220,6706
5221,6706
5222,6705
5223,6704
5223,6703
5224,6703
5225,6702
5226,6701
5227,6701
5228,6701
5229,6701
5230,6701
5232,6702
5233,6702
5234,6702
5235,6702
5236,6703
5237,6703
5238,6704
5239,6704
5240,6705
5241,6706
5241,6707
5241,6708
5242,6709
5242,6710
5243,6712
5243,6713
5243,6714
5243,6716
5243,6717
5243,6718
5243,6719
5242,6720
5241,6721
5241,6722
5240,6722
5239,6723
5238,6724
5238,6725
5237,6725
5236,6726
5235,6727
5234,6727
5233,6727
5232,6727
" style="stroke:#ffffff;stroke-width:0;
stroke-linejoin:bevel; stroke-linecap:butt;
fill:#ffffff;
"/>
<!-- Line -->
<!--  spline  -->
<polyline points="5232,6727
5231,6727
5229,6726
5228,6726
5227,6726
5226,6726
5225,6725
5224,6725
5223,6724
5222,6724
5221,6723
5220,6722
5220,6721
5220,6720
5219,6719
5219,6718
5218,6716
5218,6715
5218,6714
5218,6712
5218,6711
5218,6710
5218,6709
5219,6708
5220,6707
5220,6706
5221,6706
5222,6705
5223,6704
5223,6703
5224,6703
5225,6702
5226,6701
5227,6701
5228,6701
5229,6701
5230,6701
5232,6702
5233,6702
5234,6702
5235,6702
5236,6703
5237,6703
5238,6704
5239,6704
5240,6705
5241,6706
5241,6707
5241,6708
5242,6709
5242,6710
5243,6712
5243,6713
5243,6714
5243,6716
5243,6717
5243,6718
5243,6719
5242,6720
5241,6721
5241,6722
5240,6722
5239,6723
5238,6724
5238,6725
5237,6725
5236,6726
5235,6727
5234,6727
5233,6727
5232,6727
" style="stroke:#000000;stroke-width:7;
stroke-linejoin:bevel; stroke-linecap:butt;
"/>
<!-- Line -->
<!--  polyline  -->
<polyline points="5240,6699
5218,6726
5140,6663
5162,6636
5240,6699
" style="stroke:#ffffff;stroke-width:0;
stroke-linejoin:miter; stroke-linecap:butt;
fill:#ffffff;
"/>
<!-- Line -->
<!--  polyline  -->
<polyline points="5240,6699
5218,6726
5140,6663
5162,6636
5240,6699
" style="stroke:#000000;stroke-width:7;
stroke-linejoin:miter; stroke-linecap:butt;
"/>
<!-- Line -->
<!--  spline  -->
<polyline points="4957,6560
4957,6561
4957,6567
4958,6579
4959,6591
4959,6597
4959,6598
4959,6599
4960,6602
4961,6607
4963,6614
4966,6622
4971,6632
4976,6641
4980,6645
4981,6647
4982,6649
4986,6653
4994,6660
5002,6667
5006,6670
5008,6671
5010,6672
5014,6675
5024,6680
5035,6684
5044,6687
5051,6689
5057,6690
5060,6691
5061,6691
5062,6691
5068,6691
5080,6690
5091,6689
5097,6689
5098,6689
5099,6689
5102,6688
5107,6687
5114,6684
5122,6681
5132,6676
5141,6670
5146,6667
5148,6666
5149,6664
5154,6661
5161,6653
5168,6645
5171,6641
5173,6639
5174,6637
5176,6632
5181,6623
5185,6612
5188,6604
5189,6597
5190,6591
5191,6588
5191,6587
5191,6586
5191,6580
5190,6568
5190,6556
5190,6550
5190,6549
5190,6548
5189,6545
5188,6540
5185,6533
5182,6525
5177,6515
5171,6506
5168,6502
5167,6500
5165,6498
5162,6494
5154,6487
5146,6480
5142,6476
5140,6475
5138,6474
5134,6471
5124,6466
5113,6462
5104,6459
5097,6457
5091,6457
5088,6456
5087,6456
5086,6456
5080,6456
5068,6457
5057,6458
5051,6458
5050,6458
5049,6458
5046,6459
5041,6460
5034,6463
5026,6466
5016,6471
5007,6476
5002,6479
5000,6481
4999,6482
4994,6486
4987,6493
4980,6501
4977,6506
4975,6507
4974,6509
4972,6514
4967,6524
4963,6535
4960,6543
4959,6551
4958,6556
4957,6559
4957,6560
" style="stroke:#ffffff;stroke-width:0;
stroke-linejoin:bevel; stroke-linecap:butt;
fill:#ffffff;
"/>
<!-- Line -->
<!--  spline  -->
<polyline points="4973,6562
4973,6560
4976,6552
4979,6541
4982,6533
4982,6531
4982,6530
4984,6527
4987,6521
4992,6514
4999,6505
5006,6497
5010,6494
5011,6493
5015,6491
5024,6485
5033,6480
5037,6478
5039,6478
5043,6476
5053,6474
5065,6472
5074,6472
5081,6473
5085,6473
5086,6473
5088,6473
5096,6475
5107,6479
5115,6481
5117,6481
5118,6481
5121,6483
5127,6487
5134,6492
5143,6499
5150,6506
5153,6509
5154,6511
5157,6514
5162,6523
5167,6532
5169,6536
5169,6538
5170,6543
5173,6553
5175,6564
5175,6573
5175,6580
5175,6584
5175,6585
5175,6587
5172,6595
5169,6606
5166,6614
5166,6616
5166,6617
5164,6620
5161,6626
5156,6633
5149,6642
5142,6650
5138,6653
5137,6654
5133,6656
5124,6662
5115,6667
5111,6669
5109,6669
5105,6671
5095,6673
5083,6675
5074,6675
5067,6674
5063,6674
5062,6674
5060,6674
5052,6671
5041,6668
5033,6665
5031,6665
5030,6665
5027,6663
5021,6660
5014,6655
5005,6648
4998,6641
4995,6638
4994,6636
4991,6633
4986,6624
4981,6615
4979,6611
4979,6609
4978,6604
4975,6594
4973,6583
4973,6574
4973,6567
4973,6563
4973,6562
" style="stroke:#ffffff;stroke-width:0;
stroke-linejoin:bevel; stroke-linecap:butt;
fill:#ffffff;
"/>
<!-- Line -->
<!--  spline  -->
<polyline points="4957,6560
4957,6561
4957,6567
4958,6579
4959,6591
4959,6597
4959,6598
4959,6599
4960,6602
4961,6607
4963,6614
4966,6622
4971,6632
4976,6641
4980,6645
4981,6647
4982,6649
4986,6653
4994,6660
5002,6667
5006,6670
5008,6671
5010,6672
5014,6675
5024,6680
5035,6684
5044,6687
5051,6689
5057,6690
5060,6691
5061,6691
5062,6691
5068,6691
5080,6690
5091,6689
5097,6689
5098,6689
5099,6689
5102,6688
5107,6687
5114,6684
5122,6681
5132,6676
5141,6670
5146,6667
5148,6666
5149,6664
5154,6661
5161,6653
5168,6645
5171,6641
5173,6639
5174,6637
5176,6632
5181,6623
5185,6612
5188,6604
5189,6597
5190,6591
5191,6588
5191,6587
5191,6586
5191,6580
5190,6568
5190,6556
5190,6550
5190,6549
5190,6548
5189,6545
5188,6540
5185,6533
5182,6525
5177,6515
5171,6506
5168,6502
5167,6500
5165,6498
5162,6494
5154,6487
5146,6480
5142,6476
5140,6475
5138,6474
5134,6471
5124,6466
5113,6462
5104,6459
5097,6457
5091,6457
5088,6456
5087,6456
5086,6456
5080,6456
5068,6457
5057,6458
5051,6458
5050,6458
5049,6458
5046,6459
5041,6460
5034,6463
5026,6466
5016,6471
5007,6476
5002,6479
5000,6481
4999,6482
4994,6486
4987,6493
4980,6501
4977,6506
4975,6507
4974,6509
4972,6514
4967,6524
4963,6535
4960,6543
4959,6551
4958,6556
4957,6559
4957,6560
" style="stroke:#000000;stroke-width:7;
stroke-linejoin:bevel; stroke-linecap:butt;
"/>
<!-- Line -->
<!--  spline  -->
<polyline points="4973,6562
4973,6560
4976,6552
4979,6541
4982,6533
4982,6531
4982,6530
4984,6527
4987,6521
4992,6514
4999,6505
5006,6497
5010,6494
5011,6493
5015,6491
5024,6485
5033,6480
5037,6478
5039,6478
5043,6476
5053,6474
5065,6472
5074,6472
5081,6473
5085,6473
5086,6473
5088,6473
5096,6475
5107,6479
5115,6481
5117,6481
5118,6481
5121,6483
5127,6487
5134,6492
5143,6499
5150,6506
5153,6509
5154,6511
5157,6514
5162,6523
5167,6532
5169,6536
5169,6538
5170,6543
5173,6553
5175,6564
5175,6573
5175,6580
5175,6584
5175,6585
5175,6587
5172,6595
5169,6606
5166,6614
5166,6616
5166,6617
5164,6620
5161,6626
5156,6633
5149,6642
5142,6650
5138,6653
5137,6654
5133,6656
5124,6662
5115,6667
5111,6669
5109,6669
5105,6671
5095,6673
5083,6675
5074,6675
5067,6674
5063,6674
5062,6674
5060,6674
5052,6671
5041,6668
5033,6665
5031,6665
5030,6665
5027,6663
5021,6660
5014,6655
5005,6648
4998,6641
4995,6638
4994,6636
4991,6633
4986,6624
4981,6615
4979,6611
4979,6609
4978,6604
4975,6594
4973,6583
4973,6574
4973,6567
4973,6563
4973,6562
" style="stroke:#000000;stroke-width:7;
stroke-linejoin:bevel; stroke-linecap:butt;
"/>
<!-- Line -->
<!--  spline  -->
<polyline points="4942,6565
4942,6566
4942,6572
4943,6584
4944,6596
4944,6602
4944,6603
4944,6604
4945,6607
4946,6612
4949,6619
4952,6627
4957,6637
4963,6647
4966,6651
4967,6653
4970,6656
4979,6665
4987,6672
4992,6676
4993,6677
4995,6678
5000,6681
5010,6686
5021,6690
5029,6693
5037,6695
5042,6695
5045,6696
5046,6696
5047,6696
5053,6696
5065,6695
5077,6694
5083,6694
5084,6694
5085,6694
5088,6693
5093,6692
5100,6689
5108,6686
5118,6681
5128,6675
5132,6672
5134,6671
5138,6668
5146,6659
5153,6651
5156,6646
5157,6645
5158,6643
5161,6638
5166,6628
5170,6617
5173,6609
5175,6601
5176,6596
5177,6593
5177,6592
5177,6591
5177,6585
5176,6573
5175,6561
5175,6555
5175,6554
5175,6553
5174,6550
5173,6545
5170,6538
5167,6530
5162,6520
5156,6511
5153,6507
5152,6505
5150,6503
5147,6499
5139,6492
5131,6485
5127,6482
5125,6481
5123,6480
5118,6477
5109,6472
5098,6468
5090,6465
5083,6463
5077,6462
5074,6461
5073,6461
5072,6461
5066,6461
5054,6462
5042,6463
5036,6463
5035,6463
5034,6463
5031,6464
5026,6465
5019,6468
5011,6471
5001,6476
4992,6482
4988,6485
4986,6486
4984,6488
4980,6491
4973,6499
4966,6507
4962,6511
4961,6513
4960,6515
4957,6520
4952,6529
4948,6540
4945,6548
4943,6555
4943,6561
4942,6564
4942,6565
" style="stroke:#ffffff;stroke-width:0;
stroke-linejoin:bevel; stroke-linecap:butt;
fill:#ffffff;
"/>
<!-- Line -->
<!--  spline  -->
<polyline points="4959,6567
4959,6565
4961,6557
4965,6546
4967,6538
4967,6536
4967,6535
4969,6532
4973,6526
4978,6519
4985,6510
4992,6502
4995,6499
4997,6498
5000,6496
5009,6490
5018,6485
5022,6483
5024,6483
5029,6481
5039,6479
5050,6477
5059,6477
5066,6478
5070,6478
5071,6478
5073,6478
5081,6481
5092,6484
5100,6487
5102,6487
5103,6487
5106,6489
5112,6492
5119,6497
5128,6504
5136,6511
5139,6514
5140,6516
5142,6519
5148,6528
5153,6537
5155,6541
5155,6543
5157,6548
5159,6558
5161,6569
5161,6578
5160,6585
5160,6589
5160,6590
5160,6592
5157,6600
5154,6611
5151,6619
5151,6621
5151,6622
5149,6625
5146,6631
5141,6638
5134,6647
5127,6655
5124,6658
5122,6659
5119,6661
5110,6667
5101,6672
5097,6674
5095,6674
5090,6675
5080,6678
5069,6680
5060,6680
5053,6680
5049,6680
5048,6680
5046,6680
5038,6677
5027,6674
5019,6671
5017,6671
5016,6671
5013,6669
5007,6665
5000,6660
4991,6653
4983,6646
4980,6643
4979,6641
4977,6638
4971,6629
4966,6620
4964,6616
4964,6614
4962,6610
4960,6600
4958,6588
4958,6579
4959,6572
4959,6568
4959,6567
" style="stroke:#ffffff;stroke-width:0;
stroke-linejoin:bevel; stroke-linecap:butt;
fill:#ffffff;
"/>
<!-- Line -->
<!--  spline  -->
<polyline points="4942,6565
4942,6566
4942,6572
4943,6584
4944,6596
4944,6602
4944,6603
4944,6604
4945,6607
4946,6612
4949,6619
4952,6627
4957,6637
4963,6647
4966,6651
4967,6653
4970,6656
4979,6665
4987,6672
4992,6676
4993,6677
4995,6678
5000,6681
5010,6686
5021,6690
5029,6693
5037,6695
5042,6695
5045,6696
5046,6696
5047,6696
5053,6696
5065,6695
5077,6694
5083,6694
5084,6694
5085,6694
5088,6693
5093,6692
5100,6689
5108,6686
5118,6681
5128,6675
5132,6672
5134,6671
5138,6668
5146,6659
5153,6651
5156,6646
5157,6645
5158,6643
5161,6638
5166,6628
5170,6617
5173,6609
5175,6601
5176,6596
5177,6593
5177,6592
5177,6591
5177,6585
5176,6573
5175,6561
5175,6555
5175,6554
5175,6553
5174,6550
5173,6545
5170,6538
5167,6530
5162,6520
5156,6511
5153,6507
5152,6505
5150,6503
5147,6499
5139,6492
5131,6485
5127,6482
5125,6481
5123,6480
5118,6477
5109,6472
5098,6468
5090,6465
5083,6463
5077,6462
5074,6461
5073,6461
5072,6461
5066,6461
5054,6462
5042,6463
5036,6463
5035,6463
5034,6463
5031,6464
5026,6465
5019,6468
5011,6471
5001,6476
4992,6482
4988,6485
4986,6486
4984,6488
4980,6491
4973,6499
4966,6507
4962,6511
4961,6513
4960,6515
4957,6520
4952,6529
4948,6540
4945,6548
4943,6555
4943,6561
4942,6564
4942,6565
" style="stroke:#000000;stroke-width:7;
stroke-linejoin:bevel; stroke-linecap:butt;
"/>
<!-- Line -->
<!--  spline  -->
<polyline points="4959,6567
4959,6565
4961,6557
4965,6546
4967,6538
4967,6536
4967,6535
4969,6532
4973,6526
4978,6519
4985,6510
4992,6502
4995,6499
4997,6498
5000,6496
5009,6490
5018,6485
5022,6483
5024,6483
5029,6481
5039,6479
5050,6477
5059,6477
5066,6478
5070,6478
5071,6478
5073,6478
5081,6481
5092,6484
5100,6487
5102,6487
5103,6487
5106,6489
5112,6492
5119,6497
5128,6504
5136,6511
5139,6514
5140,6516
5142,6519
5148,6528
5153,6537
5155,6541
5155,6543
5157,6548
5159,6558
5161,6569
5161,6578
5160,6585
5160,6589
5160,6590
5160,6592
5157,6600
5154,6611
5151,6619
5151,6621
5151,6622
5149,6625
5146,6631
5141,6638
5134,6647
5127,6655
5124,6658
5122,6659
5119,6661
5110,6667
5101,6672
5097,6674
5095,6674
5090,6675
5080,6678
5069,6680
5060,6680
5053,6680
5049,6680
5048,6680
5046,6680
5038,6677
5027,6674
5019,6671
5017,6671
5016,6671
5013,6669
5007,6665
5000,6660
4991,6653
4983,6646
4980,6643
4979,6641
4977,6638
4971,6629
4966,6620
4964,6616
4964,6614
4962,6610
4960,6600
4958,6588
4958,6579
4959,6572
4959,6568
4959,6567
" style="stroke:#000000;stroke-width:7;
stroke-linejoin:bevel; stroke-linecap:butt;
"/>
<!-- Line -->
<!--  polyline  -->
<polyline points="5182,6608
5248,6608
" style="stroke:#ffffff;stroke-width:7;
stroke-linejoin:miter; stroke-linecap:butt;
"/>
<!-- Line -->
<!--  polyline  -->
<polyline points="4892,6550
4957,6550
" style="stroke:#ffffff;stroke-width:7;
stroke-linejoin:miter; stroke-linecap:butt;
"/>
</g>
</svg>
