<?xml version="1.0" standalone="no"?>
<!DOCTYPE svg PUBLIC "-//W3C//DTD SVG 1.1//EN"
"http://www.w3.org/Graphics/SVG/1.1/DTD/svg11.dtd">
<!-- Creator: fig2dev Version 3.2 Patchlevel 5c -->
<!-- CreationDate: Fri Sep 14 10:46:16 2012 -->
<!-- Magnification: 1.000 -->
<svg xmlns="http://www.w3.org/2000/svg" width="0.6in" height="0.4in" viewBox="4754 6349 733 530">
<g style="stroke-width:.025in; fill:none">
<!-- Line -->
<!--  polyline  -->
<polyline points="4766,6867
5402,6867
5402,6449
4766,6449
4766,6867
" style="stroke:#00a5d4;stroke-width:0;
stroke-linejoin:miter; stroke-linecap:butt;
fill:#00a5d4;
"/>
<!-- Line -->
<!--  polyline  -->
<polyline points="4766,6867
5402,6867
5402,6449
4766,6449
4766,6867
" style="stroke:#ffffff;stroke-width:7;
stroke-linejoin:miter; stroke-linecap:butt;
"/>
<!-- Line -->
<!--  polyline  -->
<polyline points="5475,6760
5402,6867
5402,6449
5475,6361
5475,6760
" style="stroke:#00a5d4;stroke-width:0;
stroke-linejoin:miter; stroke-linecap:butt;
fill:#00a5d4;
"/>
<!-- Line -->
<!--  polyline  -->
<polyline points="5475,6760
5402,6867
5402,6449
5475,6361
5475,6760
" style="stroke:#ffffff;stroke-width:7;
stroke-linejoin:miter; stroke-linecap:butt;
"/>
<!-- Line -->
<!--  polyline  -->
<polyline points="4876,6361
5475,6361
5402,6449
4766,6449
4876,6361
" style="stroke:#00a5d4;stroke-width:0;
stroke-linejoin:miter; stroke-linecap:butt;
fill:#00a5d4;
"/>
<!-- Line -->
<!--  polyline  -->
<polyline points="4876,6361
5475,6361
5402,6449
4766,6449
4876,6361
" style="stroke:#ffffff;stroke-width:7;
stroke-linejoin:miter; stroke-linecap:butt;
"/>
<!-- Line -->
<!--  polyline  -->
<polyline points="4859,6559
4803,6559
4803,6542
4859,6542
4859,6516
4921,6551
4859,6586
4859,6559
" style="stroke:#ffffff;stroke-width:0;
stroke-linejoin:miter; stroke-linecap:butt;
fill:#ffffff;
"/>
<!-- Line -->
<!--  polyline  -->
<polyline points="4859,6665
4803,6665
4803,6648
4859,6648
4859,6621
4921,6656
4859,6691
4859,6665
" style="stroke:#ffffff;stroke-width:0;
stroke-linejoin:miter; stroke-linecap:butt;
fill:#ffffff;
"/>
<!-- Line -->
<!--  polyline  -->
<polyline points="4859,6770
4803,6770
4803,6753
4859,6753
4859,6727
4921,6762
4859,6797
4859,6770
" style="stroke:#ffffff;stroke-width:0;
stroke-linejoin:miter; stroke-linecap:butt;
fill:#ffffff;
"/>
<!-- Line -->
<!--  polyline  -->
<polyline points="5291,6651
5365,6651
5365,6668
5291,6668
5291,6694
5229,6659
5291,6624
5291,6651
" style="stroke:#ffffff;stroke-width:0;
stroke-linejoin:miter; stroke-linecap:butt;
fill:#ffffff;
"/>
<!-- Line -->
<!--  polyline  -->
<polyline points="5335,6666
5261,6666
5261,6649
5335,6649
5335,6622
5397,6657
5335,6692
5335,6666
" style="stroke:#ffffff;stroke-width:0;
stroke-linejoin:miter; stroke-linecap:butt;
fill:#ffffff;
"/>
<!-- Line -->
<!--  spline  -->
<polyline points="4980,6697
4981,6697
4985,6697
4994,6697
5011,6697
5035,6697
5064,6697
5097,6697
5130,6697
5159,6697
5183,6697
5200,6697
5209,6697
5213,6697
5214,6697
5214,6696
5214,6690
5214,6677
5214,6656
5214,6630
5214,6605
5214,6584
5214,6571
5214,6565
5214,6564
5213,6563
5212,6561
5211,6560
5210,6559
5209,6558
5207,6557
5205,6556
5204,6556
5202,6556
5200,6556
5199,6555
5198,6555
5197,6555
5196,6555
5195,6555
5190,6555
5178,6555
5160,6555
5137,6555
5114,6555
5096,6555
5084,6555
5079,6555
5078,6555
5078,6554
5078,6548
5078,6538
5078,6532
5078,6531
5077,6531
5071,6531
5057,6531
5039,6531
5021,6531
5007,6531
5001,6531
5000,6531
5000,6532
5000,6537
5000,6543
5000,6548
5000,6549
4999,6549
4994,6549
4986,6549
4981,6549
4980,6549
4980,6550
4980,6553
4980,6563
4980,6578
4980,6599
4980,6623
4980,6647
4980,6668
4980,6683
4980,6693
4980,6696
4980,6697
" style="stroke:#00a5d4;stroke-width:0;
stroke-linejoin:bevel; stroke-linecap:butt;
fill:#00a5d4;
"/>
<!-- Line -->
<!--  spline  -->
<polyline points="4980,6697
4981,6697
4985,6697
4994,6697
5011,6697
5035,6697
5064,6697
5097,6697
5130,6697
5159,6697
5183,6697
5200,6697
5209,6697
5213,6697
5214,6697
5214,6696
5214,6690
5214,6677
5214,6656
5214,6630
5214,6605
5214,6584
5214,6571
5214,6565
5214,6564
5213,6563
5212,6561
5211,6560
5210,6559
5209,6558
5207,6557
5205,6556
5204,6556
5202,6556
5200,6556
5199,6555
5198,6555
5197,6555
5196,6555
5195,6555
5190,6555
5178,6555
5160,6555
5137,6555
5114,6555
5096,6555
5084,6555
5079,6555
5078,6555
5078,6554
5078,6548
5078,6538
5078,6532
5078,6531
5077,6531
5071,6531
5057,6531
5039,6531
5021,6531
5007,6531
5001,6531
5000,6531
5000,6532
5000,6537
5000,6543
5000,6548
5000,6549
4999,6549
4994,6549
4986,6549
4981,6549
4980,6549
4980,6550
4980,6553
4980,6563
4980,6578
4980,6599
4980,6623
4980,6647
4980,6668
4980,6683
4980,6693
4980,6696
4980,6697
" style="stroke:#ffffff;stroke-width:7;
stroke-linejoin:bevel; stroke-linecap:butt;
"/>
<!-- Line -->
<!--  spline  -->
<polyline points="4962,6718
4963,6718
4967,6718
4976,6718
4993,6718
5016,6718
5046,6718
5079,6718
5111,6718
5141,6718
5164,6718
5181,6718
5190,6718
5194,6718
5195,6718
5195,6717
5195,6711
5195,6698
5195,6677
5195,6651
5195,6626
5195,6605
5195,6592
5195,6586
5195,6585
5194,6583
5194,6582
5193,6580
5192,6580
5191,6579
5190,6579
5188,6578
5186,6577
5185,6577
5185,6576
5183,6576
5182,6576
5181,6576
5180,6576
5179,6576
5178,6576
5177,6576
5176,6576
5171,6576
5159,6576
5141,6576
5118,6576
5096,6576
5078,6576
5066,6576
5061,6576
5060,6576
5060,6575
5060,6569
5060,6559
5060,6553
5060,6552
5059,6552
5053,6552
5039,6552
5021,6552
5002,6552
4988,6552
4982,6552
4981,6552
4981,6553
4981,6558
4981,6564
4981,6569
4981,6570
4980,6570
4975,6570
4968,6570
4963,6570
4962,6570
4962,6571
4962,6574
4962,6584
4962,6599
4962,6620
4962,6644
4962,6668
4962,6689
4962,6704
4962,6714
4962,6717
4962,6718
" style="stroke:#00a5d4;stroke-width:0;
stroke-linejoin:bevel; stroke-linecap:butt;
fill:#00a5d4;
"/>
<!-- Line -->
<!--  spline  -->
<polyline points="4962,6718
4963,6718
4967,6718
4976,6718
4993,6718
5016,6718
5046,6718
5079,6718
5111,6718
5141,6718
5164,6718
5181,6718
5190,6718
5194,6718
5195,6718
5195,6717
5195,6711
5195,6698
5195,6677
5195,6651
5195,6626
5195,6605
5195,6592
5195,6586
5195,6585
5194,6583
5194,6582
5193,6580
5192,6580
5191,6579
5190,6579
5188,6578
5186,6577
5185,6577
5185,6576
5183,6576
5182,6576
5181,6576
5180,6576
5179,6576
5178,6576
5177,6576
5176,6576
5171,6576
5159,6576
5141,6576
5118,6576
5096,6576
5078,6576
5066,6576
5061,6576
5060,6576
5060,6575
5060,6569
5060,6559
5060,6553
5060,6552
5059,6552
5053,6552
5039,6552
5021,6552
5002,6552
4988,6552
4982,6552
4981,6552
4981,6553
4981,6558
4981,6564
4981,6569
4981,6570
4980,6570
4975,6570
4968,6570
4963,6570
4962,6570
4962,6571
4962,6574
4962,6584
4962,6599
4962,6620
4962,6644
4962,6668
4962,6689
4962,6704
4962,6714
4962,6717
4962,6718
" style="stroke:#ffffff;stroke-width:7;
stroke-linejoin:bevel; stroke-linecap:butt;
"/>
<!-- Line -->
<!--  spline  -->
<polyline points="4939,6740
4940,6740
4944,6740
4953,6740
4970,6740
4993,6740
5023,6740
5056,6740
5088,6740
5118,6740
5141,6740
5158,6740
5167,6740
5171,6740
5172,6740
5172,6739
5172,6733
5172,6720
5172,6699
5172,6673
5172,6648
5172,6627
5172,6614
5172,6608
5172,6607
5171,6605
5171,6604
5170,6602
5169,6602
5169,6601
5168,6601
5166,6600
5164,6599
5163,6599
5163,6598
5161,6598
5159,6598
5158,6598
5157,6598
5156,6598
5155,6598
5154,6598
5153,6598
5148,6598
5136,6598
5118,6598
5095,6598
5073,6598
5055,6598
5043,6598
5038,6598
5037,6598
5037,6597
5037,6591
5037,6581
5037,6575
5037,6574
5036,6574
5030,6574
5016,6574
4998,6574
4980,6574
4966,6574
4960,6574
4959,6574
4959,6575
4959,6580
4959,6586
4959,6591
4959,6592
4958,6592
4953,6592
4945,6592
4940,6592
4939,6592
4939,6593
4939,6596
4939,6606
4939,6621
4939,6642
4939,6666
4939,6690
4939,6711
4939,6726
4939,6736
4939,6739
4939,6740
" style="stroke:#00a5d4;stroke-width:0;
stroke-linejoin:bevel; stroke-linecap:butt;
fill:#00a5d4;
"/>
<!-- Line -->
<!--  spline  -->
<polyline points="4939,6740
4940,6740
4944,6740
4953,6740
4970,6740
4993,6740
5023,6740
5056,6740
5088,6740
5118,6740
5141,6740
5158,6740
5167,6740
5171,6740
5172,6740
5172,6739
5172,6733
5172,6720
5172,6699
5172,6673
5172,6648
5172,6627
5172,6614
5172,6608
5172,6607
5171,6605
5171,6604
5170,6602
5169,6602
5169,6601
5168,6601
5166,6600
5164,6599
5163,6599
5163,6598
5161,6598
5159,6598
5158,6598
5157,6598
5156,6598
5155,6598
5154,6598
5153,6598
5148,6598
5136,6598
5118,6598
5095,6598
5073,6598
5055,6598
5043,6598
5038,6598
5037,6598
5037,6597
5037,6591
5037,6581
5037,6575
5037,6574
5036,6574
5030,6574
5016,6574
4998,6574
4980,6574
4966,6574
4960,6574
4959,6574
4959,6575
4959,6580
4959,6586
4959,6591
4959,6592
4958,6592
4953,6592
4945,6592
4940,6592
4939,6592
4939,6593
4939,6596
4939,6606
4939,6621
4939,6642
4939,6666
4939,6690
4939,6711
4939,6726
4939,6736
4939,6739
4939,6740
" style="stroke:#ffffff;stroke-width:7;
stroke-linejoin:bevel; stroke-linecap:butt;
"/>
</g>
</svg>
