<?xml version="1.0" standalone="no"?>
<!DOCTYPE svg PUBLIC "-//W3C//DTD SVG 1.1//EN"
"http://www.w3.org/Graphics/SVG/1.1/DTD/svg11.dtd">
<!-- Creator: fig2dev Version 3.2 Patchlevel 5c -->
<!-- CreationDate: Fri Sep 14 10:46:16 2012 -->
<!-- Magnification: 1.000 -->
<svg xmlns="http://www.w3.org/2000/svg" width="0.4in" height="0.3in" viewBox="-8 12815 437 391">
<g style="stroke-width:.025in; fill:none">
<!-- Line -->
<!--  polyline  -->
<polyline points="269,12932
368,13119
" style="stroke:#595959;stroke-width:0;
stroke-linejoin:miter; stroke-linecap:butt;
fill:#595959;
"/>
<!-- Line -->
<!--  polyline  -->
<polyline points="321,12827
151,12827
99,12857
269,12857
321,12827
" style="stroke:#00a5d4;stroke-width:0;
stroke-linejoin:miter; stroke-linecap:butt;
fill:#00a5d4;
"/>
<!-- Line -->
<!--  polyline  -->
<polyline points="321,12827
151,12827
99,12857
269,12857
321,12827
" style="stroke:#ffffff;stroke-width:7;
stroke-linejoin:miter; stroke-linecap:butt;
"/>
<!-- Line -->
<!--  polyline  -->
<polyline points="368,13119
368,13194
417,13164
417,13089
321,12902
321,12827
269,12857
269,12932
" style="stroke:#00a5d4;stroke-width:0;
stroke-linejoin:miter; stroke-linecap:butt;
fill:#00a5d4;
"/>
<!-- Line -->
<!--  polyline  -->
<polyline points="368,13119
368,13194
417,13164
417,13089
321,12902
321,12827
269,12857
269,12932
" style="stroke:#ffffff;stroke-width:7;
stroke-linejoin:miter; stroke-linecap:butt;
"/>
<!-- Line -->
<!--  polyline  -->
<polyline points="368,13119
269,12932
269,12932
269,12857
99,12857
99,12932
99,12932
4,13119
5,13119
5,13194
368,13194
368,13119
368,13119
" style="stroke:#00a5d4;stroke-width:0;
stroke-linejoin:miter; stroke-linecap:butt;
fill:#00a5d4;
"/>
<!-- Line -->
<!--  polyline  -->
<polyline points="368,13119
269,12932
269,12932
269,12857
99,12857
99,12932
99,12932
4,13119
5,13119
5,13194
368,13194
368,13119
368,13119
" style="stroke:#ffffff;stroke-width:7;
stroke-linejoin:miter; stroke-linecap:butt;
"/>
<!-- Line -->
<!--  polyline  -->
<polyline points="183,13023
193,13023
193,13097
243,13097
188,13163
133,13097
183,13097
183,13023
" style="stroke:#ffffff;stroke-width:0;
stroke-linejoin:miter; stroke-linecap:butt;
fill:#ffffff;
"/>
<!-- Line -->
<!--  polyline  -->
<polyline points="193,13023
183,13023
183,12949
133,12949
188,12883
243,12949
193,12949
193,13023
" style="stroke:#ffffff;stroke-width:0;
stroke-linejoin:miter; stroke-linecap:butt;
fill:#ffffff;
"/>
</g>
</svg>
