<?xml version="1.0" standalone="no"?>
<!DOCTYPE svg PUBLIC "-//W3C//DTD SVG 1.1//EN"
"http://www.w3.org/Graphics/SVG/1.1/DTD/svg11.dtd">
<!-- Creator: fig2dev Version 3.2 Patchlevel 5c -->
<!-- CreationDate: Fri Sep 14 10:46:17 2012 -->
<!-- Magnification: 1.000 -->
<svg xmlns="http://www.w3.org/2000/svg" width="0.4in" height="0.4in" viewBox="-4 12722 538 482">
<g style="stroke-width:.025in; fill:none">
<!-- Line -->
<!--  polyline  -->
<polyline points="8,13192
8,12789
469,12789
469,13192
8,13192
" style="stroke:#00a5d4;stroke-width:0;
stroke-linejoin:miter; stroke-linecap:butt;
fill:#00a5d4;
"/>
<!-- Line -->
<!--  polyline  -->
<polyline points="8,13192
8,12789
469,12789
469,13192
8,13192
" style="stroke:#ffffff;stroke-width:7;
stroke-linejoin:miter; stroke-linecap:butt;
"/>
<!-- Line -->
<!--  polyline  -->
<polyline points="61,12734
8,12789
469,12789
522,12734
61,12734
" style="stroke:#00a5d4;stroke-width:0;
stroke-linejoin:miter; stroke-linecap:butt;
fill:#00a5d4;
"/>
<!-- Line -->
<!--  polyline  -->
<polyline points="61,12734
8,12789
469,12789
522,12734
61,12734
" style="stroke:#ffffff;stroke-width:7;
stroke-linejoin:miter; stroke-linecap:butt;
"/>
<!-- Line -->
<!--  polyline  -->
<polyline points="522,13137
522,12734
469,12789
469,13192
522,13137
" style="stroke:#00a5d4;stroke-width:0;
stroke-linejoin:miter; stroke-linecap:butt;
fill:#00a5d4;
"/>
<!-- Line -->
<!--  polyline  -->
<polyline points="522,13137
522,12734
469,12789
469,13192
522,13137
" style="stroke:#ffffff;stroke-width:7;
stroke-linejoin:miter; stroke-linecap:butt;
"/>
<!-- Line -->
<!--  polyline  -->
<polyline points="432,12826
51,12826
51,13160
432,13160
432,12826
" style="stroke:#00a5d4;stroke-width:0;
stroke-linejoin:miter; stroke-linecap:butt;
fill:#00a5d4;
"/>
<!-- Line -->
<!--  polyline  -->
<polyline points="432,12826
51,12826
51,13160
432,13160
432,12826
" style="stroke:#ffffff;stroke-width:7;
stroke-linejoin:miter; stroke-linecap:butt;
"/>
<!-- Line -->
<!--  spline  -->
<polyline points="410,12948
410,12949
407,12954
404,12963
401,12968
401,12969
398,12972
394,12975
387,12980
377,12986
368,12991
363,12993
361,12994
359,12995
353,12997
341,13001
329,13004
322,13006
319,13007
317,13007
309,13008
295,13010
280,13012
267,13012
257,13013
248,13013
244,13013
243,13013
241,13013
233,13012
216,13011
200,13011
192,13010
190,13010
189,13010
185,13009
178,13008
168,13007
157,13004
144,13001
132,12997
126,12995
124,12994
122,12993
117,12991
108,12986
98,12981
94,12978
93,12978
90,12975
84,12969
79,12962
77,12956
76,12951
76,12949
76,12948
76,12949
76,12957
76,12973
76,12996
76,13018
76,13034
76,13042
76,13043
76,13044
78,13049
82,13058
84,13063
84,13064
84,13065
87,13067
91,13071
98,13076
108,13082
117,13087
122,13089
124,13090
126,13091
132,13092
144,13096
156,13099
163,13101
166,13101
168,13102
176,13103
190,13105
206,13107
218,13107
229,13108
238,13108
242,13108
243,13108
245,13108
253,13107
269,13106
285,13106
293,13105
295,13105
296,13105
300,13104
307,13103
317,13102
328,13099
341,13096
353,13092
359,13091
361,13090
363,13089
368,13087
377,13082
387,13076
391,13074
392,13073
395,13070
401,13064
406,13057
409,13051
410,13046
410,13044
410,13043
410,13042
410,13034
410,13018
410,12996
410,12973
410,12957
410,12949
410,12948
" style="stroke:#00a5d4;stroke-width:0;
stroke-linejoin:bevel; stroke-linecap:butt;
fill:#00a5d4;
"/>
<!-- Line -->
<!--  spline  -->
<polyline points="410,12948
410,12949
407,12954
404,12963
401,12968
401,12969
398,12972
394,12975
387,12980
377,12986
368,12991
363,12993
361,12994
359,12995
353,12997
341,13001
329,13004
322,13006
319,13007
317,13007
309,13008
295,13010
280,13012
267,13012
257,13013
248,13013
244,13013
243,13013
241,13013
233,13012
216,13011
200,13011
192,13010
190,13010
189,13010
185,13009
178,13008
168,13007
157,13004
144,13001
132,12997
126,12995
124,12994
122,12993
117,12991
108,12986
98,12981
94,12978
93,12978
90,12975
84,12969
79,12962
77,12956
76,12951
76,12949
76,12948
76,12949
76,12957
76,12973
76,12996
76,13018
76,13034
76,13042
76,13043
76,13044
78,13049
82,13058
84,13063
84,13064
84,13065
87,13067
91,13071
98,13076
108,13082
117,13087
122,13089
124,13090
126,13091
132,13092
144,13096
156,13099
163,13101
166,13101
168,13102
176,13103
190,13105
206,13107
218,13107
229,13108
238,13108
242,13108
243,13108
245,13108
253,13107
269,13106
285,13106
293,13105
295,13105
296,13105
300,13104
307,13103
317,13102
328,13099
341,13096
353,13092
359,13091
361,13090
363,13089
368,13087
377,13082
387,13076
391,13074
392,13073
395,13070
401,13064
406,13057
409,13051
410,13046
410,13044
410,13043
410,13042
410,13034
410,13018
410,12996
410,12973
410,12957
410,12949
410,12948
" style="stroke:#ffffff;stroke-width:7;
stroke-linejoin:bevel; stroke-linecap:butt;
"/>
<!-- Line -->
<!--  spline  -->
<polyline points="243,13013
245,13013
253,13012
269,13011
285,13011
293,13010
295,13010
296,13010
300,13009
307,13008
317,13007
328,13004
341,13001
353,12997
359,12995
361,12994
363,12993
368,12991
377,12986
387,12981
391,12978
392,12978
395,12975
401,12969
406,12962
409,12956
410,12951
410,12949
410,12948
410,12947
407,12942
404,12934
401,12929
401,12928
401,12927
398,12925
394,12921
387,12916
377,12910
368,12905
363,12903
361,12902
359,12902
353,12900
341,12896
329,12893
322,12891
319,12890
317,12889
309,12888
295,12886
280,12884
267,12883
257,12883
248,12883
244,12883
243,12883
241,12883
233,12884
216,12885
200,12885
192,12886
190,12886
189,12886
185,12887
178,12888
168,12890
157,12892
144,12896
132,12900
126,12902
124,12902
122,12903
117,12905
108,12910
98,12916
94,12918
93,12919
90,12922
84,12928
79,12935
77,12941
76,12945
76,12947
76,12948
76,12949
78,12954
82,12963
84,12968
84,12969
87,12972
91,12975
98,12980
108,12986
117,12991
122,12993
124,12994
126,12995
132,12997
144,13001
156,13004
163,13006
166,13007
168,13007
176,13008
190,13010
206,13012
218,13012
229,13013
238,13013
242,13013
243,13013
" style="stroke:#00a5d4;stroke-width:0;
stroke-linejoin:bevel; stroke-linecap:butt;
fill:#00a5d4;
"/>
<!-- Line -->
<!--  spline  -->
<polyline points="243,13013
245,13013
253,13012
269,13011
285,13011
293,13010
295,13010
296,13010
300,13009
307,13008
317,13007
328,13004
341,13001
353,12997
359,12995
361,12994
363,12993
368,12991
377,12986
387,12981
391,12978
392,12978
395,12975
401,12969
406,12962
409,12956
410,12951
410,12949
410,12948
410,12947
407,12942
404,12934
401,12929
401,12928
401,12927
398,12925
394,12921
387,12916
377,12910
368,12905
363,12903
361,12902
359,12902
353,12900
341,12896
329,12893
322,12891
319,12890
317,12889
309,12888
295,12886
280,12884
267,12883
257,12883
248,12883
244,12883
243,12883
241,12883
233,12884
216,12885
200,12885
192,12886
190,12886
189,12886
185,12887
178,12888
168,12890
157,12892
144,12896
132,12900
126,12902
124,12902
122,12903
117,12905
108,12910
98,12916
94,12918
93,12919
90,12922
84,12928
79,12935
77,12941
76,12945
76,12947
76,12948
76,12949
78,12954
82,12963
84,12968
84,12969
87,12972
91,12975
98,12980
108,12986
117,12991
122,12993
124,12994
126,12995
132,12997
144,13001
156,13004
163,13006
166,13007
168,13007
176,13008
190,13010
206,13012
218,13012
229,13013
238,13013
242,13013
243,13013
" style="stroke:#ffffff;stroke-width:7;
stroke-linejoin:bevel; stroke-linecap:butt;
"/>
<!-- Line -->
<!--  polyline  -->
<polyline points="204,12923
218,12943
166,12955
177,12946
97,12932
117,12917
195,12930
204,12923
" style="stroke:#ffffff;stroke-width:0;
stroke-linejoin:miter; stroke-linecap:butt;
fill:#ffffff;
"/>
<!-- Line -->
<!--  polyline  -->
<polyline points="278,12973
268,12952
315,12942
307,12949
386,12963
367,12978
289,12963
278,12973
" style="stroke:#ffffff;stroke-width:0;
stroke-linejoin:miter; stroke-linecap:butt;
fill:#ffffff;
"/>
<!-- Line -->
<!--  polyline  -->
<polyline points="252,12911
305,12897
305,12920
292,12917
267,12938
242,12935
269,12914
252,12911
" style="stroke:#ffffff;stroke-width:0;
stroke-linejoin:miter; stroke-linecap:butt;
fill:#ffffff;
"/>
<!-- Line -->
<!--  polyline  -->
<polyline points="230,12992
179,13002
177,12979
192,12982
220,12958
244,12962
214,12988
230,12992
" style="stroke:#ffffff;stroke-width:0;
stroke-linejoin:miter; stroke-linecap:butt;
fill:#ffffff;
"/>
</g>
</svg>
