<?xml version="1.0" standalone="no"?>
<!DOCTYPE svg PUBLIC "-//W3C//DTD SVG 1.1//EN"
"http://www.w3.org/Graphics/SVG/1.1/DTD/svg11.dtd">
<!-- Creator: fig2dev Version 3.2 Patchlevel 5c -->
<!-- CreationDate: Fri Sep 14 10:46:18 2012 -->
<!-- Magnification: 1.000 -->
<svg xmlns="http://www.w3.org/2000/svg" width="1.2in" height="0.7in" viewBox="-10 12392 1391 817">
<g style="stroke-width:.025in; fill:none">
<!-- Line -->
<!--  spline  -->
<polyline points="476,12497
475,12497
469,12496
457,12496
436,12494
411,12492
386,12490
365,12488
353,12488
347,12487
346,12487
343,12487
337,12488
329,12489
318,12490
306,12492
293,12495
278,12498
262,12503
245,12509
226,12517
213,12523
207,12527
204,12528
202,12530
197,12534
187,12542
174,12554
162,12566
154,12575
151,12580
149,12582
148,12585
145,12590
141,12600
135,12614
131,12629
128,12642
128,12652
128,12662
129,12669
130,12675
130,12678
130,12680
131,12682
131,12684
130,12685
123,12688
109,12694
89,12703
68,12712
54,12718
47,12721
46,12722
43,12725
39,12730
33,12737
27,12746
20,12757
14,12770
8,12786
4,12802
2,12813
2,12819
2,12822
2,12825
3,12831
4,12842
7,12857
12,12875
16,12885
18,12889
20,12893
25,12900
36,12913
49,12924
60,12930
70,12933
78,12935
82,12936
83,12936
86,12936
89,12936
92,12936
92,12938
94,12948
98,12967
102,12985
104,12995
104,12997
106,13000
110,13005
115,13012
123,13020
132,13029
144,13039
159,13051
175,13061
187,13068
193,13072
196,13074
200,13075
206,13078
220,13083
239,13090
259,13096
272,13100
280,13101
283,13102
287,13103
294,13104
308,13105
328,13106
348,13106
365,13104
379,13102
390,13099
400,13096
406,13094
409,13093
410,13093
412,13090
415,13087
417,13084
418,13085
425,13093
437,13108
448,13122
455,13130
456,13131
458,13133
463,13136
470,13140
478,13145
488,13151
500,13157
516,13163
532,13169
543,13172
549,13174
551,13174
554,13175
560,13176
573,13178
591,13182
610,13185
623,13187
629,13188
633,13188
636,13188
643,13189
657,13190
677,13192
698,13194
716,13195
732,13196
745,13196
756,13197
764,13197
767,13197
768,13197
769,13197
775,13197
787,13197
805,13197
822,13197
834,13197
840,13197
841,13197
842,13197
847,13197
857,13196
869,13196
884,13194
902,13192
918,13189
927,13188
930,13188
932,13187
940,13185
954,13181
968,13176
974,13174
977,13172
979,13171
985,13168
997,13161
1009,13153
1018,13146
1025,13140
1031,13135
1033,13133
1034,13132
1037,13133
1040,13133
1043,13134
1044,13134
1049,13134
1060,13133
1078,13132
1100,13130
1121,13128
1139,13127
1150,13126
1155,13126
1156,13126
1157,13126
1161,13125
1169,13122
1180,13119
1193,13114
1207,13108
1223,13100
1240,13089
1255,13078
1265,13070
1270,13066
1272,13064
1274,13061
1278,13056
1285,13047
1294,13033
1302,13019
1307,13008
1309,13003
1310,13000
1311,12998
1312,12992
1314,12981
1316,12966
1316,12950
1315,12937
1313,12926
1311,12916
1308,12909
1306,12903
1305,12900
1306,12900
1308,12899
1313,12898
1315,12897
1316,12897
1317,12896
1323,12892
1334,12883
1344,12875
1350,12871
1351,12870
1351,12869
1354,12866
1357,12858
1362,12849
1365,12837
1368,12821
1369,12805
1369,12797
1369,12793
1368,12789
1367,12781
1362,12765
1356,12750
1353,12742
1351,12738
1350,12735
1344,12728
1332,12716
1321,12707
1310,12700
1300,12695
1290,12692
1282,12689
1276,12687
1273,12686
1274,12684
1274,12682
1275,12680
1275,12679
1276,12674
1278,12663
1281,12648
1284,12633
1286,12622
1287,12617
1287,12616
1287,12615
1286,12610
1284,12601
1280,12589
1273,12576
1262,12560
1252,12549
1244,12541
1240,12537
1238,12536
1236,12534
1230,12531
1220,12524
1205,12516
1189,12508
1177,12503
1171,12501
1169,12500
1165,12498
1159,12497
1145,12494
1125,12490
1103,12487
1084,12486
1067,12486
1053,12486
1040,12487
1031,12488
1027,12488
1026,12488
1025,12488
1022,12486
1018,12484
1015,12482
1014,12482
1013,12482
1009,12479
999,12474
984,12466
964,12455
945,12445
930,12437
920,12432
916,12429
915,12429
912,12428
905,12426
895,12424
883,12421
868,12417
852,12414
833,12411
810,12408
785,12406
760,12405
741,12404
728,12404
721,12404
717,12405
713,12405
706,12406
694,12407
675,12409
652,12412
629,12416
612,12419
601,12421
595,12423
591,12423
588,12424
583,12426
573,12429
560,12435
543,12443
524,12454
511,12464
501,12474
494,12483
489,12490
486,12496
484,12499
482,12498
478,12498
476,12497
" style="stroke:#ffffff;stroke-width:0;
stroke-linejoin:bevel; stroke-linecap:butt;
fill:#ffffff;
"/>
<!-- Line -->
<!--  spline  -->
<polyline points="476,12497
475,12497
469,12496
457,12496
436,12494
411,12492
386,12490
365,12488
353,12488
347,12487
346,12487
343,12487
337,12488
329,12489
318,12490
306,12492
293,12495
278,12498
262,12503
245,12509
226,12517
213,12523
207,12527
204,12528
202,12530
197,12534
187,12542
174,12554
162,12566
154,12575
151,12580
149,12582
148,12585
145,12590
141,12600
135,12614
131,12629
128,12642
128,12652
128,12662
129,12669
130,12675
130,12678
130,12680
131,12682
131,12684
130,12685
123,12688
109,12694
89,12703
68,12712
54,12718
47,12721
46,12722
43,12725
39,12730
33,12737
27,12746
20,12757
14,12770
8,12786
4,12802
2,12813
2,12819
2,12822
2,12825
3,12831
4,12842
7,12857
12,12875
16,12885
18,12889
20,12893
25,12900
36,12913
49,12924
60,12930
70,12933
78,12935
82,12936
83,12936
86,12936
89,12936
92,12936
92,12938
94,12948
98,12967
102,12985
104,12995
104,12997
106,13000
110,13005
115,13012
123,13020
132,13029
144,13039
159,13051
175,13061
187,13068
193,13072
196,13074
200,13075
206,13078
220,13083
239,13090
259,13096
272,13100
280,13101
283,13102
287,13103
294,13104
308,13105
328,13106
348,13106
365,13104
379,13102
390,13099
400,13096
406,13094
409,13093
410,13093
412,13090
415,13087
417,13084
418,13085
425,13093
437,13108
448,13122
455,13130
456,13131
458,13133
463,13136
470,13140
478,13145
488,13151
500,13157
516,13163
532,13169
543,13172
549,13174
551,13174
554,13175
560,13176
573,13178
591,13182
610,13185
623,13187
629,13188
633,13188
636,13188
643,13189
657,13190
677,13192
698,13194
716,13195
732,13196
745,13196
756,13197
764,13197
767,13197
768,13197
769,13197
775,13197
787,13197
805,13197
822,13197
834,13197
840,13197
841,13197
842,13197
847,13197
857,13196
869,13196
884,13194
902,13192
918,13189
927,13188
930,13188
932,13187
940,13185
954,13181
968,13176
974,13174
977,13172
979,13171
985,13168
997,13161
1009,13153
1018,13146
1025,13140
1031,13135
1033,13133
1034,13132
1037,13133
1040,13133
1043,13134
1044,13134
1049,13134
1060,13133
1078,13132
1100,13130
1121,13128
1139,13127
1150,13126
1155,13126
1156,13126
1157,13126
1161,13125
1169,13122
1180,13119
1193,13114
1207,13108
1223,13100
1240,13089
1255,13078
1265,13070
1270,13066
1272,13064
1274,13061
1278,13056
1285,13047
1294,13033
1302,13019
1307,13008
1309,13003
1310,13000
1311,12998
1312,12992
1314,12981
1316,12966
1316,12950
1315,12937
1313,12926
1311,12916
1308,12909
1306,12903
1305,12900
1306,12900
1308,12899
1313,12898
1315,12897
1316,12897
1317,12896
1323,12892
1334,12883
1344,12875
1350,12871
1351,12870
1351,12869
1354,12866
1357,12858
1362,12849
1365,12837
1368,12821
1369,12805
1369,12797
1369,12793
1368,12789
1367,12781
1362,12765
1356,12750
1353,12742
1351,12738
1350,12735
1344,12728
1332,12716
1321,12707
1310,12700
1300,12695
1290,12692
1282,12689
1276,12687
1273,12686
1274,12684
1274,12682
1275,12680
1275,12679
1276,12674
1278,12663
1281,12648
1284,12633
1286,12622
1287,12617
1287,12616
1287,12615
1286,12610
1284,12601
1280,12589
1273,12576
1262,12560
1252,12549
1244,12541
1240,12537
1238,12536
1236,12534
1230,12531
1220,12524
1205,12516
1189,12508
1177,12503
1171,12501
1169,12500
1165,12498
1159,12497
1145,12494
1125,12490
1103,12487
1084,12486
1067,12486
1053,12486
1040,12487
1031,12488
1027,12488
1026,12488
1025,12488
1022,12486
1018,12484
1015,12482
1014,12482
1013,12482
1009,12479
999,12474
984,12466
964,12455
945,12445
930,12437
920,12432
916,12429
915,12429
912,12428
905,12426
895,12424
883,12421
868,12417
852,12414
833,12411
810,12408
785,12406
760,12405
741,12404
728,12404
721,12404
717,12405
713,12405
706,12406
694,12407
675,12409
652,12412
629,12416
612,12419
601,12421
595,12423
591,12423
588,12424
583,12426
573,12429
560,12435
543,12443
524,12454
511,12464
501,12474
494,12483
489,12490
486,12496
484,12499
482,12498
478,12498
476,12497
" style="stroke:#02709f;stroke-width:7;
stroke-linejoin:bevel; stroke-linecap:butt;
"/>
</g>
</svg>
