<?xml version="1.0" standalone="no"?>
<!DOCTYPE svg PUBLIC "-//W3C//DTD SVG 1.1//EN"
"http://www.w3.org/Graphics/SVG/1.1/DTD/svg11.dtd">
<!-- Creator: fig2dev Version 3.2 Patchlevel 5c -->
<!-- CreationDate: Fri Sep 14 10:46:19 2012 -->
<!-- Magnification: 1.000 -->
<svg xmlns="http://www.w3.org/2000/svg" width="0.7in" height="0.4in" viewBox="-4 12674 793 531">
<g style="stroke-width:.025in; fill:none">
<!-- Line -->
<!--  polyline  -->
<polyline points="721,13193
8,13193
8,12746
721,12746
721,13193
" style="stroke:#00acd8;stroke-width:0;
stroke-linejoin:miter; stroke-linecap:butt;
fill:#00acd8;
"/>
<!-- Line -->
<!--  polyline  -->
<polyline points="721,13193
8,13193
8,12746
721,12746
721,13193
" style="stroke:#ffffff;stroke-width:7;
stroke-linejoin:miter; stroke-linecap:butt;
"/>
<!-- Line -->
<!--  polyline  -->
<polyline points="64,12689
777,12689
721,12745
8,12745
64,12689
" style="stroke:#00acd8;stroke-width:0;
stroke-linejoin:miter; stroke-linecap:butt;
fill:#00acd8;
"/>
<!-- Line -->
<!--  polyline  -->
<polyline points="64,12689
777,12689
721,12745
8,12745
64,12689
" style="stroke:#ffffff;stroke-width:7;
stroke-linejoin:miter; stroke-linecap:butt;
"/>
<!-- Line -->
<!--  polyline  -->
<polyline points="776,13107
720,13189
720,12742
776,12686
776,13107
" style="stroke:#00acd8;stroke-width:0;
stroke-linejoin:miter; stroke-linecap:butt;
fill:#00acd8;
"/>
<!-- Line -->
<!--  polyline  -->
<polyline points="776,13107
720,13189
720,12742
776,12686
776,13107
" style="stroke:#ffffff;stroke-width:7;
stroke-linejoin:miter; stroke-linecap:butt;
"/>
<!-- Line -->
<!--  spline  -->
<polyline points="338,13046
340,13045
348,13039
364,13027
379,13016
387,13010
389,13009
388,13009
380,13009
370,13009
362,13009
361,13009
360,13009
357,13009
352,13009
346,13009
338,13009
331,13009
328,13009
327,13009
325,13010
318,13010
312,13010
309,13010
308,13011
305,13011
299,13011
292,13011
287,13012
283,13012
280,13012
280,13013
278,13020
274,13030
272,13037
272,13038
272,13039
271,13041
270,13045
269,13050
267,13057
265,13063
265,13065
264,13066
264,13068
262,13073
260,13078
259,13081
258,13084
256,13089
254,13095
252,13100
250,13103
249,13106
250,13105
257,13101
269,13094
280,13088
287,13084
288,13083
289,13084
295,13088
305,13093
311,13097
312,13098
313,13098
316,13100
321,13102
328,13104
337,13107
345,13109
349,13110
350,13110
354,13110
362,13111
371,13111
374,13111
376,13111
380,13111
388,13110
397,13108
404,13107
408,13105
411,13104
412,13104
413,13103
414,13103
414,13102
415,13102
416,13102
417,13101
422,13098
433,13090
448,13079
462,13067
473,13059
478,13056
479,13055
478,13056
471,13059
461,13065
454,13068
453,13069
452,13069
449,13070
442,13072
435,13074
424,13075
414,13075
410,13075
409,13075
405,13075
395,13073
385,13071
381,13070
379,13070
375,13068
365,13064
355,13059
347,13054
342,13049
339,13047
338,13046
" style="stroke:#ffffff;stroke-width:0;
stroke-linejoin:bevel; stroke-linecap:butt;
fill:#ffffff;
"/>
<!-- Line -->
<!--  spline  -->
<polyline points="338,13046
340,13045
348,13039
364,13027
379,13016
387,13010
389,13009
388,13009
380,13009
370,13009
362,13009
361,13009
360,13009
357,13009
352,13009
346,13009
338,13009
331,13009
328,13009
327,13009
325,13010
318,13010
312,13010
309,13010
308,13011
305,13011
299,13011
292,13011
287,13012
283,13012
280,13012
280,13013
278,13020
274,13030
272,13037
272,13038
272,13039
271,13041
270,13045
269,13050
267,13057
265,13063
265,13065
264,13066
264,13068
262,13073
260,13078
259,13081
258,13084
256,13089
254,13095
252,13100
250,13103
249,13106
250,13105
257,13101
269,13094
280,13088
287,13084
288,13083
289,13084
295,13088
305,13093
311,13097
312,13098
313,13098
316,13100
321,13102
328,13104
337,13107
345,13109
349,13110
350,13110
354,13110
362,13111
371,13111
374,13111
376,13111
380,13111
388,13110
397,13108
404,13107
408,13105
411,13104
412,13104
413,13103
414,13103
414,13102
415,13102
416,13102
417,13101
422,13098
433,13090
448,13079
462,13067
473,13059
478,13056
479,13055
478,13056
471,13059
461,13065
454,13068
453,13069
452,13069
449,13070
442,13072
435,13074
424,13075
414,13075
410,13075
409,13075
405,13075
395,13073
385,13071
381,13070
379,13070
375,13068
365,13064
355,13059
347,13054
342,13049
339,13047
338,13046
" style="stroke:#000000;stroke-width:7;
stroke-linejoin:bevel; stroke-linecap:butt;
"/>
<!-- Line -->
<!--  spline  -->
<polyline points="293,12980
293,12979
291,12972
289,12963
287,12956
287,12955
287,12954
287,12951
287,12945
287,12938
287,12929
288,12921
288,12917
288,12916
289,12913
291,12905
293,12897
294,12893
295,12892
296,12889
300,12881
305,12873
309,12867
312,12863
315,12860
316,12859
317,12858
318,12857
319,12856
320,12855
321,12854
322,12853
323,12852
323,12851
324,12851
325,12850
326,12849
327,12849
327,12848
328,12848
329,12847
330,12846
331,12845
332,12844
331,12845
326,12848
315,12856
300,12868
285,12879
274,12887
269,12890
268,12891
267,12892
266,12893
265,12894
264,12894
263,12895
262,12896
261,12897
260,12898
259,12898
259,12899
258,12900
257,12901
256,12902
255,12903
254,12904
253,12905
252,12906
251,12907
250,12908
247,12913
241,12922
238,12927
237,12928
237,12929
235,12931
233,12936
230,12943
227,12951
225,12959
224,12962
224,12963
224,12967
223,12975
222,12983
222,12987
222,12989
222,12992
223,13001
224,13010
226,13017
228,13022
229,13025
229,13026
230,13025
235,13022
246,13014
261,13003
276,12992
287,12984
292,12981
293,12980
" style="stroke:#ffffff;stroke-width:0;
stroke-linejoin:bevel; stroke-linecap:butt;
fill:#ffffff;
"/>
<!-- Line -->
<!--  spline  -->
<polyline points="293,12980
293,12979
291,12972
289,12963
287,12956
287,12955
287,12954
287,12951
287,12945
287,12938
287,12929
288,12921
288,12917
288,12916
289,12913
291,12905
293,12897
294,12893
295,12892
296,12889
300,12881
305,12873
309,12867
312,12863
315,12860
316,12859
317,12858
318,12857
319,12856
320,12855
321,12854
322,12853
323,12852
323,12851
324,12851
325,12850
326,12849
327,12849
327,12848
328,12848
329,12847
330,12846
331,12845
332,12844
331,12845
326,12848
315,12856
300,12868
285,12879
274,12887
269,12890
268,12891
267,12892
266,12893
265,12894
264,12894
263,12895
262,12896
261,12897
260,12898
259,12898
259,12899
258,12900
257,12901
256,12902
255,12903
254,12904
253,12905
252,12906
251,12907
250,12908
247,12913
241,12922
238,12927
237,12928
237,12929
235,12931
233,12936
230,12943
227,12951
225,12959
224,12962
224,12963
224,12967
223,12975
222,12983
222,12987
222,12989
222,12992
223,13001
224,13010
226,13017
228,13022
229,13025
229,13026
230,13025
235,13022
246,13014
261,13003
276,12992
287,12984
292,12981
293,12980
" style="stroke:#000000;stroke-width:7;
stroke-linejoin:bevel; stroke-linecap:butt;
"/>
<!-- Line -->
<!--  spline  -->
<polyline points="419,12843
418,12843
414,12841
408,12840
404,12838
403,12838
401,12837
398,12837
394,12836
388,12835
383,12835
381,12835
380,12835
377,12835
372,12835
367,12835
364,12835
363,12835
361,12835
356,12836
350,12837
346,12838
343,12838
341,12839
340,12839
340,12840
339,12840
339,12841
338,12841
337,12841
337,12842
336,12842
335,12842
335,12843
334,12843
333,12843
333,12844
332,12844
331,12845
326,12848
315,12856
300,12868
285,12879
274,12887
269,12890
268,12891
269,12890
274,12888
281,12883
286,12881
287,12880
290,12879
294,12877
300,12875
307,12873
314,12872
317,12871
318,12871
321,12871
328,12871
335,12871
338,12871
339,12871
342,12871
349,12872
357,12873
363,12875
368,12876
370,12877
371,12877
370,12878
364,12882
353,12890
343,12897
337,12901
336,12902
337,12902
341,12902
352,12902
369,12901
390,12901
411,12901
428,12900
439,12900
443,12900
444,12900
444,12899
445,12893
446,12879
448,12860
449,12841
450,12827
451,12821
451,12820
450,12821
445,12825
435,12832
425,12838
420,12842
419,12843
" style="stroke:#ffffff;stroke-width:0;
stroke-linejoin:bevel; stroke-linecap:butt;
fill:#ffffff;
"/>
<!-- Line -->
<!--  spline  -->
<polyline points="419,12843
418,12843
414,12841
408,12840
404,12838
403,12838
401,12837
398,12837
394,12836
388,12835
383,12835
381,12835
380,12835
377,12835
372,12835
367,12835
364,12835
363,12835
361,12835
356,12836
350,12837
346,12838
343,12838
341,12839
340,12839
340,12840
339,12840
339,12841
338,12841
337,12841
337,12842
336,12842
335,12842
335,12843
334,12843
333,12843
333,12844
332,12844
331,12845
326,12848
315,12856
300,12868
285,12879
274,12887
269,12890
268,12891
269,12890
274,12888
281,12883
286,12881
287,12880
290,12879
294,12877
300,12875
307,12873
314,12872
317,12871
318,12871
321,12871
328,12871
335,12871
338,12871
339,12871
342,12871
349,12872
357,12873
363,12875
368,12876
370,12877
371,12877
370,12878
364,12882
353,12890
343,12897
337,12901
336,12902
337,12902
341,12902
352,12902
369,12901
390,12901
411,12901
428,12900
439,12900
443,12900
444,12900
444,12899
445,12893
446,12879
448,12860
449,12841
450,12827
451,12821
451,12820
450,12821
445,12825
435,12832
425,12838
420,12842
419,12843
" style="stroke:#000000;stroke-width:7;
stroke-linejoin:bevel; stroke-linecap:butt;
"/>
<!-- Line -->
<!--  spline  -->
<polyline points="500,12874
501,12875
504,12882
509,12894
514,12905
517,12912
518,12913
518,12914
519,12917
521,12923
522,12930
524,12940
525,12951
525,12963
525,12968
525,12970
524,12974
522,12985
520,12996
518,13000
518,13002
516,13006
512,13015
507,13024
503,13031
500,13036
497,13038
497,13039
496,13040
495,13041
494,13042
493,13043
492,13044
491,13045
490,13046
489,13047
489,13048
488,13048
487,13049
486,13050
485,13050
485,13051
484,13051
483,13052
482,13053
480,13054
480,13055
479,13055
478,13056
473,13059
462,13067
448,13079
433,13090
422,13098
417,13101
416,13102
417,13101
418,13100
419,13099
420,13099
421,13098
422,13097
423,13096
424,13095
424,13094
425,13094
425,13093
426,13092
427,13091
428,13091
428,13090
429,13090
430,13089
431,13088
432,13087
433,13086
433,13085
434,13084
437,13078
444,13066
451,13055
454,13049
455,13048
455,13047
457,13043
459,13035
461,13026
462,13013
462,13001
462,12997
461,12995
460,12990
458,12979
456,12968
454,12964
454,12962
452,12958
449,12948
445,12938
442,12930
440,12925
438,12922
438,12921
439,12920
444,12917
454,12909
469,12898
484,12886
494,12878
499,12875
500,12874
" style="stroke:#ffffff;stroke-width:0;
stroke-linejoin:bevel; stroke-linecap:butt;
fill:#ffffff;
"/>
<!-- Line -->
<!--  spline  -->
<polyline points="500,12874
501,12875
504,12882
509,12894
514,12905
517,12912
518,12913
518,12914
519,12917
521,12923
522,12930
524,12940
525,12951
525,12963
525,12968
525,12970
524,12974
522,12985
520,12996
518,13000
518,13002
516,13006
512,13015
507,13024
503,13031
500,13036
497,13038
497,13039
496,13040
495,13041
494,13042
493,13043
492,13044
491,13045
490,13046
489,13047
489,13048
488,13048
487,13049
486,13050
485,13050
485,13051
484,13051
483,13052
482,13053
480,13054
480,13055
479,13055
478,13056
473,13059
462,13067
448,13079
433,13090
422,13098
417,13101
416,13102
417,13101
418,13100
419,13099
420,13099
421,13098
422,13097
423,13096
424,13095
424,13094
425,13094
425,13093
426,13092
427,13091
428,13091
428,13090
429,13090
430,13089
431,13088
432,13087
433,13086
433,13085
434,13084
437,13078
444,13066
451,13055
454,13049
455,13048
455,13047
457,13043
459,13035
461,13026
462,13013
462,13001
462,12997
461,12995
460,12990
458,12979
456,12968
454,12964
454,12962
452,12958
449,12948
445,12938
442,12930
440,12925
438,12922
438,12921
439,12920
444,12917
454,12909
469,12898
484,12886
494,12878
499,12875
500,12874
" style="stroke:#000000;stroke-width:7;
stroke-linejoin:bevel; stroke-linecap:butt;
"/>
<!-- Line -->
<!--  polyline  -->
<polyline points="145,12991
38,12990
38,12969
145,12969
145,12937
207,12979
145,13021
145,12991
" style="stroke:#ffffff;stroke-width:0;
stroke-linejoin:miter; stroke-linecap:butt;
fill:#ffffff;
"/>
<!-- Line -->
<!--  polyline  -->
<polyline points="600,12991
706,12990
706,12969
600,12969
600,12937
538,12979
600,13021
600,12991
" style="stroke:#ffffff;stroke-width:0;
stroke-linejoin:miter; stroke-linecap:butt;
fill:#ffffff;
"/>
</g>
</svg>
