<?xml version="1.0" standalone="no"?>
<!DOCTYPE svg PUBLIC "-//W3C//DTD SVG 1.1//EN"
"http://www.w3.org/Graphics/SVG/1.1/DTD/svg11.dtd">
<!-- Creator: fig2dev Version 3.2 Patchlevel 5c -->
<!-- CreationDate: Fri Sep 14 10:46:19 2012 -->
<!-- Magnification: 1.000 -->
<svg xmlns="http://www.w3.org/2000/svg" width="0.6in" height="0.4in" viewBox="-7 12674 706 531">
<g style="stroke-width:.025in; fill:none">
<!-- Line -->
<!--  polyline  -->
<polyline points="632,13193
186,13193
186,12746
632,12746
632,13193
" style="stroke:#00a5d4;stroke-width:0;
stroke-linejoin:miter; stroke-linecap:butt;
fill:#00a5d4;
"/>
<!-- Line -->
<!--  polyline  -->
<polyline points="632,13193
186,13193
186,12746
632,12746
632,13193
" style="stroke:#ffffff;stroke-width:7;
stroke-linejoin:miter; stroke-linecap:butt;
"/>
<!-- Line -->
<!--  polyline  -->
<polyline points="238,12689
685,12689
629,12745
182,12745
238,12689
" style="stroke:#00a5d4;stroke-width:0;
stroke-linejoin:miter; stroke-linecap:butt;
fill:#00a5d4;
"/>
<!-- Line -->
<!--  polyline  -->
<polyline points="238,12689
685,12689
629,12745
182,12745
238,12689
" style="stroke:#ffffff;stroke-width:7;
stroke-linejoin:miter; stroke-linecap:butt;
"/>
<!-- Line -->
<!--  polyline  -->
<polyline points="687,13107
631,13189
631,12742
687,12686
687,13107
" style="stroke:#00a5d4;stroke-width:0;
stroke-linejoin:miter; stroke-linecap:butt;
fill:#00a5d4;
"/>
<!-- Line -->
<!--  polyline  -->
<polyline points="687,13107
631,13189
631,12742
687,12686
687,13107
" style="stroke:#ffffff;stroke-width:7;
stroke-linejoin:miter; stroke-linecap:butt;
"/>
<!-- Line -->
<!--  polyline  -->
<polyline points="186,13193
5,13193
5,12746
186,12746
186,13193
" style="stroke:#00a5d4;stroke-width:0;
stroke-linejoin:miter; stroke-linecap:butt;
fill:#00a5d4;
"/>
<!-- Line -->
<!--  polyline  -->
<polyline points="186,13193
5,13193
5,12746
186,12746
186,13193
" style="stroke:#ffffff;stroke-width:7;
stroke-linejoin:miter; stroke-linecap:butt;
"/>
<!-- Line -->
<!--  polyline  -->
<polyline points="64,12689
245,12689
189,12745
8,12745
64,12689
" style="stroke:#00a5d4;stroke-width:0;
stroke-linejoin:miter; stroke-linecap:butt;
fill:#00a5d4;
"/>
<!-- Line -->
<!--  polyline  -->
<polyline points="64,12689
245,12689
189,12745
8,12745
64,12689
" style="stroke:#ffffff;stroke-width:7;
stroke-linejoin:miter; stroke-linecap:butt;
"/>
<!-- Line -->
<!--  polyline  -->
<polyline points="186,12746
186,13193
" style="stroke:#00a5d4;stroke-width:0;
stroke-linejoin:miter; stroke-linecap:butt;
fill:#00a5d4;
"/>
<!-- Line -->
<!--  polyline  -->
<polyline points="186,12746
186,13193
" style="stroke:#ffffff;stroke-width:7;
stroke-linejoin:miter; stroke-linecap:butt;
"/>
<!-- Line -->
<!--  polyline  -->
<polyline points="189,12907
8,12907
" style="stroke:#000000;stroke-width:0;
stroke-linejoin:miter; stroke-linecap:butt;
fill:#000000;
"/>
<!-- Line -->
<!--  polyline  -->
<polyline points="189,12907
8,12907
" style="stroke:#ffffff;stroke-width:7;
stroke-linejoin:miter; stroke-linecap:butt;
"/>
<!-- Line -->
<!--  polyline  -->
<polyline points="344,12960
248,12960
248,12944
211,12968
248,12992
248,12976
344,12976
344,12960
" style="stroke:#ffffff;stroke-width:0;
stroke-linejoin:miter; stroke-linecap:butt;
fill:#ffffff;
"/>
<!-- Line -->
<!--  polyline  -->
<polyline points="358,13009
290,13078
278,13066
270,13109
312,13100
301,13089
369,13021
358,13009
" style="stroke:#ffffff;stroke-width:0;
stroke-linejoin:miter; stroke-linecap:butt;
fill:#ffffff;
"/>
<!-- Line -->
<!--  polyline  -->
<polyline points="403,13034
403,13131
387,13131
411,13168
435,13131
418,13131
418,13034
403,13034
" style="stroke:#ffffff;stroke-width:0;
stroke-linejoin:miter; stroke-linecap:butt;
fill:#ffffff;
"/>
<!-- Line -->
<!--  polyline  -->
<polyline points="452,13021
521,13089
509,13100
552,13109
543,13066
532,13078
463,13009
452,13021
" style="stroke:#ffffff;stroke-width:0;
stroke-linejoin:miter; stroke-linecap:butt;
fill:#ffffff;
"/>
<!-- Line -->
<!--  polyline  -->
<polyline points="477,12976
574,12976
574,12992
610,12968
574,12944
574,12960
477,12960
477,12976
" style="stroke:#ffffff;stroke-width:0;
stroke-linejoin:miter; stroke-linecap:butt;
fill:#ffffff;
"/>
<!-- Line -->
<!--  polyline  -->
<polyline points="463,12926
532,12858
543,12870
552,12827
509,12835
521,12847
452,12915
463,12926
" style="stroke:#ffffff;stroke-width:0;
stroke-linejoin:miter; stroke-linecap:butt;
fill:#ffffff;
"/>
<!-- Line -->
<!--  polyline  -->
<polyline points="418,12901
418,12805
435,12805
411,12768
387,12805
403,12805
403,12901
418,12901
" style="stroke:#ffffff;stroke-width:0;
stroke-linejoin:miter; stroke-linecap:butt;
fill:#ffffff;
"/>
<!-- Line -->
<!--  polyline  -->
<polyline points="369,12915
301,12847
312,12835
270,12827
278,12870
290,12858
358,12926
369,12915
" style="stroke:#ffffff;stroke-width:0;
stroke-linejoin:miter; stroke-linecap:butt;
fill:#ffffff;
"/>
<!-- Line -->
<!--  spline  -->
<polyline points="492,12909
491,12908
485,12902
476,12893
470,12887
469,12886
468,12885
465,12883
460,12879
452,12875
442,12871
432,12868
428,12867
426,12867
422,12867
412,12866
402,12866
397,12866
396,12867
391,12867
381,12870
370,12874
362,12878
356,12881
353,12884
352,12884
351,12885
345,12891
336,12900
330,12906
329,12907
329,12908
326,12911
323,12916
319,12924
315,12934
312,12944
311,12948
311,12950
311,12954
310,12964
310,12974
310,12979
311,12980
311,12985
314,12995
318,13006
322,13014
325,13020
328,13023
328,13024
329,13025
335,13031
343,13040
349,13046
350,13047
351,13047
354,13050
360,13053
368,13057
378,13061
388,13064
392,13065
394,13065
398,13065
408,13066
418,13066
422,13066
424,13065
428,13065
438,13062
449,13058
457,13054
463,13051
466,13048
467,13048
468,13047
474,13041
483,13033
489,13027
490,13026
490,13025
493,13022
496,13016
500,13008
504,12998
507,12988
508,12984
509,12982
509,12978
510,12968
510,12958
510,12954
510,12952
509,12948
506,12938
502,12927
498,12919
495,12913
492,12910
492,12909
" style="stroke:#ffffff;stroke-width:0;
stroke-linejoin:bevel; stroke-linecap:butt;
fill:#ffffff;
"/>
<!-- Line -->
<!--  polyline  -->
<polyline points="78,12826
49,12826
49,12821
38,12829
49,12836
49,12831
78,12831
78,12826
" style="stroke:#ffffff;stroke-width:0;
stroke-linejoin:miter; stroke-linecap:butt;
fill:#ffffff;
"/>
<!-- Line -->
<!--  polyline  -->
<polyline points="83,12841
62,12862
59,12858
56,12871
69,12868
65,12865
86,12844
83,12841
" style="stroke:#ffffff;stroke-width:0;
stroke-linejoin:miter; stroke-linecap:butt;
fill:#ffffff;
"/>
<!-- Line -->
<!--  polyline  -->
<polyline points="96,12849
96,12878
91,12878
98,12889
106,12878
101,12878
101,12849
96,12849
" style="stroke:#ffffff;stroke-width:0;
stroke-linejoin:miter; stroke-linecap:butt;
fill:#ffffff;
"/>
<!-- Line -->
<!--  polyline  -->
<polyline points="111,12844
131,12865
128,12868
141,12871
138,12858
135,12862
114,12841
111,12844
" style="stroke:#ffffff;stroke-width:0;
stroke-linejoin:miter; stroke-linecap:butt;
fill:#ffffff;
"/>
<!-- Line -->
<!--  polyline  -->
<polyline points="118,12831
147,12831
147,12836
158,12829
147,12821
147,12826
118,12826
118,12831
" style="stroke:#ffffff;stroke-width:0;
stroke-linejoin:miter; stroke-linecap:butt;
fill:#ffffff;
"/>
<!-- Line -->
<!--  polyline  -->
<polyline points="114,12816
135,12796
138,12799
141,12786
128,12789
131,12792
111,12813
114,12816
" style="stroke:#ffffff;stroke-width:0;
stroke-linejoin:miter; stroke-linecap:butt;
fill:#ffffff;
"/>
<!-- Line -->
<!--  polyline  -->
<polyline points="101,12809
101,12780
106,12780
98,12769
91,12780
96,12780
96,12809
101,12809
" style="stroke:#ffffff;stroke-width:0;
stroke-linejoin:miter; stroke-linecap:butt;
fill:#ffffff;
"/>
<!-- Line -->
<!--  polyline  -->
<polyline points="86,12813
65,12792
69,12789
56,12786
59,12799
62,12796
83,12816
86,12813
" style="stroke:#ffffff;stroke-width:0;
stroke-linejoin:miter; stroke-linecap:butt;
fill:#ffffff;
"/>
<!-- Line -->
<!--  spline  -->
<polyline points="123,12811
121,12809
118,12806
116,12804
115,12803
113,12802
111,12801
108,12800
105,12799
104,12799
103,12799
102,12798
99,12798
96,12798
94,12798
92,12798
89,12799
86,12800
84,12802
82,12803
81,12804
79,12806
76,12808
74,12810
73,12811
72,12813
71,12815
70,12818
69,12821
69,12823
68,12825
68,12828
68,12831
68,12832
68,12833
68,12834
69,12837
70,12840
71,12842
72,12844
73,12845
75,12847
78,12850
80,12852
81,12853
83,12854
85,12856
88,12857
91,12858
92,12858
93,12858
94,12858
97,12858
100,12858
102,12858
104,12858
107,12857
110,12856
112,12855
114,12854
115,12853
117,12851
120,12848
122,12846
123,12845
124,12843
125,12841
126,12838
127,12835
127,12834
127,12833
128,12832
128,12829
128,12826
128,12825
128,12824
128,12823
127,12820
126,12817
125,12814
124,12812
123,12811
" style="stroke:#ffffff;stroke-width:0;
stroke-linejoin:bevel; stroke-linecap:butt;
fill:#ffffff;
"/>
<!-- Line -->
<!--  polyline  -->
<polyline points="88,13054
88,13134
75,13134
95,13164
115,13134
101,13134
101,13054
88,13054
" style="stroke:#ffffff;stroke-width:0;
stroke-linejoin:miter; stroke-linecap:butt;
fill:#ffffff;
"/>
<!-- Line -->
<!--  polyline  -->
<polyline points="111,13052
138,13127
125,13132
155,13154
163,13118
150,13123
123,13047
111,13052
" style="stroke:#ffffff;stroke-width:0;
stroke-linejoin:miter; stroke-linecap:butt;
fill:#ffffff;
"/>
<!-- Line -->
<!--  polyline  -->
<polyline points="79,13052
52,13127
65,13132
35,13154
27,13118
40,13123
67,13047
79,13052
" style="stroke:#ffffff;stroke-width:0;
stroke-linejoin:miter; stroke-linecap:butt;
fill:#ffffff;
"/>
<!-- Line -->
<!--  polyline  -->
<polyline points="88,12929
88,13007
75,13007
95,13037
115,13007
101,13007
101,12929
88,12929
" style="stroke:#ffffff;stroke-width:0;
stroke-linejoin:miter; stroke-linecap:butt;
fill:#ffffff;
"/>
</g>
</svg>
