<?xml version="1.0" standalone="no"?>
<!DOCTYPE svg PUBLIC "-//W3C//DTD SVG 1.1//EN"
"http://www.w3.org/Graphics/SVG/1.1/DTD/svg11.dtd">
<!-- Creator: fig2dev Version 3.2 Patchlevel 5c -->
<!-- CreationDate: Fri Sep 14 10:46:18 2012 -->
<!-- Magnification: 1.000 -->
<svg xmlns="http://www.w3.org/2000/svg" width="0.6in" height="0.4in" viewBox="-2 12675 761 528">
<g style="stroke-width:.025in; fill:none">
<!-- Line -->
<!--  polyline  -->
<polyline points="607,13185
607,12825
11,12825
11,13185
607,13185
" style="stroke:#00a5d4;stroke-width:0;
stroke-linejoin:miter; stroke-linecap:butt;
fill:#00a5d4;
"/>
<!-- Line -->
<!--  polyline  -->
<polyline points="607,13185
607,12825
11,12825
11,13185
607,13185
" style="stroke:#ffffff;stroke-width:7;
stroke-linejoin:miter; stroke-linecap:butt;
"/>
<!-- Line -->
<!--  polyline  -->
<polyline points="10,12826
192,12687
747,12687
606,12826
10,12826
" style="stroke:#00a5d4;stroke-width:0;
stroke-linejoin:miter; stroke-linecap:butt;
fill:#00a5d4;
"/>
<!-- Line -->
<!--  polyline  -->
<polyline points="10,12826
192,12687
747,12687
606,12826
10,12826
" style="stroke:#ffffff;stroke-width:7;
stroke-linejoin:miter; stroke-linecap:butt;
"/>
<!-- Line -->
<!--  polyline  -->
<polyline points="606,13191
747,13032
747,12687
606,12826
606,13191
" style="stroke:#00a5d4;stroke-width:0;
stroke-linejoin:miter; stroke-linecap:butt;
fill:#00a5d4;
"/>
<!-- Line -->
<!--  polyline  -->
<polyline points="606,13191
747,13032
747,12687
606,12826
606,13191
" style="stroke:#ffffff;stroke-width:7;
stroke-linejoin:miter; stroke-linecap:butt;
"/>
<!-- Line -->
<!--  spline  -->
<polyline points="242,12955
242,12953
243,12946
244,12934
245,12927
245,12925
245,12924
244,12921
243,12916
241,12910
238,12902
234,12896
233,12893
232,12892
230,12890
225,12886
220,12882
217,12881
216,12880
214,12879
208,12877
202,12875
197,12875
193,12875
190,12875
189,12875
189,12876
188,12876
187,12875
185,12870
180,12862
178,12857
177,12856
174,12854
170,12852
165,12849
158,12847
151,12846
148,12846
147,12846
144,12846
138,12847
132,12848
129,12849
128,12850
126,12851
122,12854
118,12858
116,12861
115,12863
115,12865
115,12866
115,12867
114,12867
110,12868
103,12869
99,12870
98,12870
95,12871
92,12874
87,12877
82,12882
78,12888
76,12890
75,12891
74,12894
71,12901
69,12908
67,12910
67,12912
67,12914
66,12921
66,12928
67,12933
69,12937
70,12940
71,12941
72,12941
73,12942
72,12942
69,12945
63,12948
60,12951
59,12951
57,12953
55,12955
53,12959
50,12964
48,12969
47,12972
46,12973
46,12976
44,12982
43,12988
42,12991
42,12992
42,12995
41,13002
40,13009
40,13015
40,13019
40,13021
40,13022
40,13023
40,13027
40,13034
40,13038
40,13039
40,13041
41,13044
41,13048
42,13053
43,13057
43,13059
43,13060
44,13061
45,13065
46,13069
47,13070
48,13072
50,13075
53,13078
55,13081
57,13083
59,13084
59,13085
58,13085
58,13086
58,13087
59,13094
59,13104
60,13111
60,13112
60,13113
61,13115
63,13120
66,13125
71,13131
76,13136
78,13138
79,13139
81,13141
87,13144
93,13147
96,13148
97,13148
100,13148
107,13149
114,13149
119,13148
123,13147
126,13146
126,13147
127,13148
127,13149
129,13151
132,13155
134,13157
136,13158
139,13159
143,13160
148,13161
153,13161
155,13161
156,13161
159,13160
164,13159
169,13157
172,13157
173,13156
175,13155
179,13152
183,13148
185,13144
186,13141
187,13139
188,13139
189,13139
190,13139
195,13140
201,13141
206,13142
207,13142
210,13142
214,13141
218,13139
224,13136
229,13133
230,13131
231,13130
233,13128
236,13123
239,13118
241,13115
241,13114
242,13112
244,13105
245,13097
245,13091
245,13086
244,13083
244,13082
245,13081
245,13080
246,13079
247,13078
251,13072
256,13063
260,13057
261,13056
261,13055
263,13051
265,13045
267,13037
268,13026
268,13016
268,13012
268,13010
268,13005
266,12996
264,12987
263,12983
262,12981
261,12978
257,12971
252,12965
248,12961
244,12958
241,12957
241,12956
242,12956
242,12955
" style="stroke:#ffffff;stroke-width:0;
stroke-linejoin:bevel; stroke-linecap:butt;
fill:#ffffff;
"/>
<!-- Line -->
<!--  spline  -->
<polyline points="544,12955
544,12953
545,12946
546,12934
547,12927
547,12925
547,12924
546,12921
545,12916
543,12910
540,12902
536,12896
535,12893
534,12892
532,12890
527,12886
522,12882
519,12881
518,12880
516,12879
510,12877
504,12875
499,12875
495,12875
492,12875
491,12875
491,12876
490,12876
489,12875
487,12870
482,12862
480,12857
479,12856
476,12854
473,12852
468,12849
461,12847
454,12846
451,12846
450,12846
446,12846
440,12847
434,12848
431,12849
430,12850
428,12851
424,12854
421,12858
419,12861
418,12863
418,12865
418,12866
418,12867
417,12867
412,12868
406,12869
401,12870
400,12870
397,12871
394,12874
389,12877
384,12882
380,12888
378,12890
377,12891
376,12894
373,12901
371,12908
369,12910
369,12912
368,12914
368,12921
369,12928
370,12933
372,12937
373,12940
374,12941
375,12942
374,12942
371,12945
365,12948
362,12951
361,12951
359,12953
357,12955
355,12959
352,12964
350,12969
349,12972
349,12973
348,12976
347,12982
346,12988
345,12991
345,12992
345,12995
344,13002
343,13009
343,13015
342,13019
342,13021
342,13022
342,13023
342,13027
342,13034
342,13038
342,13039
342,13041
343,13044
343,13048
344,13053
345,13057
345,13059
345,13060
346,13061
347,13065
349,13069
349,13070
350,13070
351,13072
353,13075
356,13078
358,13081
360,13083
361,13084
361,13085
360,13085
360,13086
360,13087
361,13094
362,13104
363,13111
363,13112
363,13113
364,13115
366,13120
369,13125
373,13131
378,13136
380,13138
381,13139
384,13141
390,13144
396,13147
399,13148
400,13148
403,13148
409,13149
416,13149
421,13148
425,13147
428,13146
428,13147
429,13148
429,13149
431,13151
435,13155
437,13157
439,13158
442,13159
446,13160
451,13161
456,13161
458,13161
460,13161
462,13160
467,13159
472,13157
474,13157
475,13156
477,13155
481,13152
485,13148
487,13144
489,13141
490,13139
491,13139
492,13139
497,13140
504,13141
509,13142
510,13142
513,13142
516,13141
521,13139
526,13136
531,13133
532,13131
533,13130
534,13128
538,13123
541,13118
543,13115
543,13114
544,13112
546,13105
547,13097
547,13091
547,13086
546,13083
546,13082
547,13081
547,13080
548,13079
549,13078
553,13072
559,13063
563,13057
564,13056
564,13055
565,13051
567,13045
569,13037
570,13026
571,13016
571,13012
571,13010
570,13005
569,12996
567,12987
566,12983
566,12981
564,12978
560,12971
555,12965
550,12961
546,12958
544,12957
543,12957
543,12956
544,12956
544,12955
" style="stroke:#ffffff;stroke-width:0;
stroke-linejoin:bevel; stroke-linecap:butt;
fill:#ffffff;
"/>
<!-- Line -->
<!--  polyline  -->
<polyline points="170,12960
136,12926
119,12943
116,12891
168,12894
150,12912
184,12946
170,12960
" style="stroke:#00a5d4;stroke-width:0;
stroke-linejoin:miter; stroke-linecap:butt;
fill:#00a5d4;
"/>
<!-- Line -->
<!--  polyline  -->
<polyline points="170,13061
136,13095
119,13079
116,13130
168,13127
150,13109
184,13075
170,13061
" style="stroke:#00a5d4;stroke-width:0;
stroke-linejoin:miter; stroke-linecap:butt;
fill:#00a5d4;
"/>
<!-- Line -->
<!--  polyline  -->
<polyline points="137,13021
89,13021
89,13045
49,13011
89,12976
89,13002
137,13002
137,13021
" style="stroke:#00a5d4;stroke-width:0;
stroke-linejoin:miter; stroke-linecap:butt;
fill:#00a5d4;
"/>
<!-- Line -->
<!--  polyline  -->
<polyline points="446,12960
481,12926
497,12943
501,12891
449,12894
467,12912
433,12946
446,12960
" style="stroke:#00a5d4;stroke-width:0;
stroke-linejoin:miter; stroke-linecap:butt;
fill:#00a5d4;
"/>
<!-- Line -->
<!--  polyline  -->
<polyline points="446,13061
481,13095
497,13079
501,13130
449,13127
467,13109
433,13075
446,13061
" style="stroke:#00a5d4;stroke-width:0;
stroke-linejoin:miter; stroke-linecap:butt;
fill:#00a5d4;
"/>
<!-- Line -->
<!--  polyline  -->
<polyline points="474,13021
523,13021
523,13045
562,13011
523,12976
523,13002
474,13002
474,13021
" style="stroke:#00a5d4;stroke-width:0;
stroke-linejoin:miter; stroke-linecap:butt;
fill:#00a5d4;
"/>
<!-- Line -->
<!--  polyline  -->
<polyline points="257,13002
353,13002
353,13022
257,13022
257,13002
" style="stroke:#ffffff;stroke-width:0;
stroke-linejoin:miter; stroke-linecap:butt;
fill:#ffffff;
"/>
<!-- Line -->
<!--  polyline  -->
<polyline points="341,13021
389,13021
389,13045
428,13011
389,12976
389,13002
341,13002
341,13021
" style="stroke:#00a5d4;stroke-width:0;
stroke-linejoin:miter; stroke-linecap:butt;
fill:#00a5d4;
"/>
<!-- Line -->
<!--  polyline  -->
<polyline points="266,13021
218,13021
218,13045
179,13011
218,12976
218,13002
266,13002
266,13021
" style="stroke:#00a5d4;stroke-width:0;
stroke-linejoin:miter; stroke-linecap:butt;
fill:#00a5d4;
"/>
</g>
</svg>
