<?xml version="1.0" standalone="no"?>
<!DOCTYPE svg PUBLIC "-//W3C//DTD SVG 1.1//EN"
"http://www.w3.org/Graphics/SVG/1.1/DTD/svg11.dtd">
<!-- Creator: fig2dev Version 3.2 Patchlevel 5c -->
<!-- CreationDate: Fri Sep 14 10:46:18 2012 -->
<!-- Magnification: 1.000 -->
<svg xmlns="http://www.w3.org/2000/svg" width="0.6in" height="0.4in" viewBox="-3 12671 733 530">
<g style="stroke-width:.025in; fill:none">
<!-- Line -->
<!--  polyline  -->
<polyline points="9,13189
645,13189
645,12771
9,12771
9,13189
" style="stroke:#00a5d4;stroke-width:0;
stroke-linejoin:miter; stroke-linecap:butt;
fill:#00a5d4;
"/>
<!-- Line -->
<!--  polyline  -->
<polyline points="9,13189
645,13189
645,12771
9,12771
9,13189
" style="stroke:#ffffff;stroke-width:7;
stroke-linejoin:miter; stroke-linecap:butt;
"/>
<!-- Line -->
<!--  polyline  -->
<polyline points="718,13082
645,13189
645,12771
718,12683
718,13082
" style="stroke:#00a5d4;stroke-width:0;
stroke-linejoin:miter; stroke-linecap:butt;
fill:#00a5d4;
"/>
<!-- Line -->
<!--  polyline  -->
<polyline points="718,13082
645,13189
645,12771
718,12683
718,13082
" style="stroke:#ffffff;stroke-width:7;
stroke-linejoin:miter; stroke-linecap:butt;
"/>
<!-- Line -->
<!--  polyline  -->
<polyline points="119,12683
718,12683
645,12771
9,12771
119,12683
" style="stroke:#00a5d4;stroke-width:0;
stroke-linejoin:miter; stroke-linecap:butt;
fill:#00a5d4;
"/>
<!-- Line -->
<!--  polyline  -->
<polyline points="119,12683
718,12683
645,12771
9,12771
119,12683
" style="stroke:#ffffff;stroke-width:7;
stroke-linejoin:miter; stroke-linecap:butt;
"/>
<!-- Line -->
<!--  polyline  -->
<polyline points="152,12881
46,12881
46,12864
152,12864
152,12838
214,12873
152,12908
152,12881
" style="stroke:#ffffff;stroke-width:0;
stroke-linejoin:miter; stroke-linecap:butt;
fill:#ffffff;
"/>
<!-- Line -->
<!--  polyline  -->
<polyline points="152,12987
46,12987
46,12970
152,12970
152,12944
214,12978
152,13013
152,12987
" style="stroke:#ffffff;stroke-width:0;
stroke-linejoin:miter; stroke-linecap:butt;
fill:#ffffff;
"/>
<!-- Line -->
<!--  polyline  -->
<polyline points="152,13092
46,13093
46,13076
152,13076
152,13049
214,13084
152,13119
152,13092
" style="stroke:#ffffff;stroke-width:0;
stroke-linejoin:miter; stroke-linecap:butt;
fill:#ffffff;
"/>
<!-- Line -->
<!--  polyline  -->
<polyline points="507,12973
614,12973
614,12990
507,12990
507,13016
446,12981
507,12946
507,12973
" style="stroke:#ffffff;stroke-width:0;
stroke-linejoin:miter; stroke-linecap:butt;
fill:#ffffff;
"/>
<!-- Line -->
<!--  spline  -->
<polyline points="422,12920
421,12923
419,12926
418,12929
416,12930
414,12932
410,12934
405,12936
400,12938
397,12939
396,12939
394,12939
387,12941
380,12942
376,12943
375,12943
371,12944
363,12945
354,12946
346,12946
340,12946
337,12946
336,12946
335,12946
328,12946
317,12945
310,12945
309,12945
308,12945
305,12944
300,12944
294,12943
286,12941
279,12939
276,12939
275,12939
273,12938
267,12936
262,12934
260,12933
259,12933
258,12932
255,12929
253,12926
252,12924
251,12921
251,12920
251,12921
251,12925
251,12936
251,12953
251,12974
251,12995
251,13012
251,13023
251,13027
251,13028
252,13030
254,13034
255,13036
256,13037
259,13039
262,13041
267,13043
273,13045
275,13046
276,13047
279,13047
286,13049
293,13050
296,13051
297,13051
301,13051
309,13052
318,13053
326,13053
332,13054
335,13054
336,13054
337,13054
344,13053
355,13053
362,13052
363,13052
364,13052
367,13052
372,13051
379,13050
387,13049
394,13047
396,13047
397,13046
400,13045
405,13043
410,13041
412,13040
413,13039
415,13038
418,13036
421,13033
422,13031
422,13029
422,13028
422,13027
422,13023
422,13012
422,12995
422,12974
422,12953
422,12936
422,12925
422,12921
422,12920
" style="stroke:#ffffff;stroke-width:0;
stroke-linejoin:bevel; stroke-linecap:butt;
fill:#ffffff;
"/>
<!-- Line -->
<!--  spline  -->
<polyline points="336,12946
337,12946
344,12946
355,12945
362,12945
363,12945
364,12945
367,12944
372,12944
379,12943
387,12941
394,12939
396,12939
397,12939
400,12938
405,12936
410,12934
412,12933
413,12933
415,12932
418,12929
421,12926
422,12924
422,12921
422,12920
421,12918
419,12914
418,12912
416,12911
414,12909
410,12907
405,12905
400,12903
397,12902
396,12901
394,12901
387,12899
380,12898
376,12897
375,12897
371,12897
363,12896
354,12895
346,12895
340,12894
337,12894
336,12894
335,12894
328,12895
317,12895
310,12896
309,12896
308,12896
305,12896
300,12897
294,12898
286,12899
279,12901
276,12901
275,12902
273,12903
267,12905
262,12907
260,12908
259,12909
258,12910
255,12912
253,12915
252,12917
251,12919
251,12920
252,12923
254,12926
255,12929
256,12930
259,12932
262,12934
267,12936
273,12938
275,12939
276,12939
279,12939
286,12941
293,12942
296,12943
297,12943
301,12944
309,12945
318,12946
326,12946
332,12946
335,12946
336,12946
" style="stroke:#00a5d4;stroke-width:0;
stroke-linejoin:bevel; stroke-linecap:butt;
fill:#00a5d4;
"/>
<!-- Line -->
<!--  spline  -->
<polyline points="336,12946
337,12946
344,12946
355,12945
362,12945
363,12945
364,12945
367,12944
372,12944
379,12943
387,12941
394,12939
396,12939
397,12939
400,12938
405,12936
410,12934
412,12933
413,12933
415,12932
418,12929
421,12926
422,12924
422,12921
422,12920
421,12918
419,12914
418,12912
416,12911
414,12909
410,12907
405,12905
400,12903
397,12902
396,12901
394,12901
387,12899
380,12898
376,12897
375,12897
371,12897
363,12896
354,12895
346,12895
340,12894
337,12894
336,12894
335,12894
328,12895
317,12895
310,12896
309,12896
308,12896
305,12896
300,12897
294,12898
286,12899
279,12901
276,12901
275,12902
273,12903
267,12905
262,12907
260,12908
259,12909
258,12910
255,12912
253,12915
252,12917
251,12919
251,12920
252,12923
254,12926
255,12929
256,12930
259,12932
262,12934
267,12936
273,12938
275,12939
276,12939
279,12939
286,12941
293,12942
296,12943
297,12943
301,12944
309,12945
318,12946
326,12946
332,12946
335,12946
336,12946
" style="stroke:#ffffff;stroke-width:15;
stroke-linejoin:bevel; stroke-linecap:butt;
"/>
<!-- Line -->
<!--  spline  -->
<polyline points="336,13066
337,13066
344,13066
355,13065
362,13065
363,13065
364,13065
367,13064
372,13064
379,13063
387,13061
394,13059
396,13059
397,13059
400,13058
405,13056
410,13054
412,13053
413,13053
415,13052
418,13049
421,13046
422,13044
422,13041
422,13040
421,13038
419,13034
418,13032
416,13031
414,13029
410,13027
405,13025
400,13023
397,13022
396,13021
394,13021
387,13019
380,13018
376,13017
375,13017
371,13017
363,13016
354,13015
346,13015
340,13014
337,13014
336,13014
335,13014
328,13015
317,13015
310,13016
309,13016
308,13016
305,13016
300,13017
294,13018
286,13019
279,13021
276,13021
275,13022
273,13023
267,13025
262,13027
260,13028
259,13029
258,13030
255,13032
253,13035
252,13037
251,13039
251,13040
252,13043
254,13046
255,13049
256,13050
259,13052
262,13054
267,13056
273,13058
275,13059
276,13059
279,13059
286,13061
293,13062
296,13063
297,13063
301,13064
309,13065
318,13066
326,13066
332,13066
335,13066
336,13066
" style="stroke:#ffffff;stroke-width:0;
stroke-linejoin:bevel; stroke-linecap:butt;
fill:#ffffff;
"/>
<!-- Line -->
<!--  spline  -->
<polyline points="336,13066
337,13066
344,13066
355,13065
362,13065
363,13065
364,13065
367,13064
372,13064
379,13063
387,13061
394,13059
396,13059
397,13059
400,13058
405,13056
410,13054
412,13053
413,13053
415,13052
418,13049
421,13046
422,13044
422,13041
422,13040
421,13038
419,13034
418,13032
416,13031
414,13029
410,13027
405,13025
400,13023
397,13022
396,13021
394,13021
387,13019
380,13018
376,13017
375,13017
371,13017
363,13016
354,13015
346,13015
340,13014
337,13014
336,13014
335,13014
328,13015
317,13015
310,13016
309,13016
308,13016
305,13016
300,13017
294,13018
286,13019
279,13021
276,13021
275,13022
273,13023
267,13025
262,13027
260,13028
259,13029
258,13030
255,13032
253,13035
252,13037
251,13039
251,13040
252,13043
254,13046
255,13049
256,13050
259,13052
262,13054
267,13056
273,13058
275,13059
276,13059
279,13059
286,13061
293,13062
296,13063
297,13063
301,13064
309,13065
318,13066
326,13066
332,13066
335,13066
336,13066
" style="stroke:#ffffff;stroke-width:15;
stroke-linejoin:bevel; stroke-linecap:butt;
"/>
</g>
</svg>
