<?xml version="1.0" standalone="no"?>
<!DOCTYPE svg PUBLIC "-//W3C//DTD SVG 1.1//EN"
"http://www.w3.org/Graphics/SVG/1.1/DTD/svg11.dtd">
<!-- Creator: fig2dev Version 3.2 Patchlevel 5c -->
<!-- CreationDate: Fri Sep 14 10:46:19 2012 -->
<!-- Magnification: 1.000 -->
<svg xmlns="http://www.w3.org/2000/svg" width="0.5in" height="0.3in" viewBox="4592 5735 615 409">
<g style="stroke-width:.025in; fill:none">
<!-- Line -->
<!--  polyline  -->
<polyline points="4604,6132
5132,6132
5132,5824
4604,5824
4604,6132
" style="stroke:#00a5d4;stroke-width:0;
stroke-linejoin:miter; stroke-linecap:butt;
fill:#00a5d4;
"/>
<!-- Line -->
<!--  polyline  -->
<polyline points="4604,6132
5132,6132
5132,5824
4604,5824
4604,6132
" style="stroke:#ffffff;stroke-width:7;
stroke-linejoin:miter; stroke-linecap:butt;
"/>
<!-- Line -->
<!--  polyline  -->
<polyline points="5195,6040
5132,6132
5132,5824
5195,5747
5195,6040
" style="stroke:#00a5d4;stroke-width:0;
stroke-linejoin:miter; stroke-linecap:butt;
fill:#00a5d4;
"/>
<!-- Line -->
<!--  polyline  -->
<polyline points="5195,6040
5132,6132
5132,5824
5195,5747
5195,6040
" style="stroke:#ffffff;stroke-width:7;
stroke-linejoin:miter; stroke-linecap:butt;
"/>
<!-- Line -->
<!--  polyline  -->
<polyline points="4699,5747
5195,5747
5132,5824
4604,5824
4699,5747
" style="stroke:#00a5d4;stroke-width:0;
stroke-linejoin:miter; stroke-linecap:butt;
fill:#00a5d4;
"/>
<!-- Line -->
<!--  polyline  -->
<polyline points="4699,5747
5195,5747
5132,5824
4604,5824
4699,5747
" style="stroke:#ffffff;stroke-width:7;
stroke-linejoin:miter; stroke-linecap:butt;
"/>
<!-- Line -->
<!--  polyline  -->
<polyline points="4998,5976
5071,5976
5071,5992
5109,5969
5071,5944
5071,5961
4997,5961
4998,5976
" style="stroke:#ffffff;stroke-width:0;
stroke-linejoin:miter; stroke-linecap:butt;
fill:#ffffff;
"/>
<!-- Line -->
<!--  spline  -->
<polyline points="5060,6100
5059,6100
5057,6100
5056,6100
5055,6100
5053,6099
5052,6099
5051,6098
5050,6098
5049,6098
5048,6097
5047,6096
5047,6095
5047,6094
5046,6093
5045,6092
5045,6090
5044,6090
5044,6089
5044,6088
5044,6086
5044,6085
5044,6084
5045,6082
5045,6081
5046,6080
5046,6079
5046,6078
5047,6077
5048,6076
5049,6076
5050,6075
5051,6074
5052,6074
5053,6073
5054,6073
5056,6073
5057,6073
5059,6073
5060,6073
5061,6073
5062,6074
5063,6074
5064,6075
5065,6075
5066,6076
5067,6077
5068,6077
5068,6078
5069,6079
5070,6080
5070,6081
5071,6082
5071,6083
5071,6085
5071,6086
5071,6088
5071,6089
5071,6090
5071,6091
5070,6092
5069,6093
5069,6094
5068,6094
5067,6095
5066,6096
5066,6097
5065,6097
5064,6098
5063,6099
5062,6099
5061,6100
5060,6100
" style="stroke:#ffffff;stroke-width:0;
stroke-linejoin:bevel; stroke-linecap:butt;
fill:#ffffff;
"/>
<!-- Line -->
<!--  spline  -->
<polyline points="5060,6100
5059,6100
5057,6100
5056,6100
5055,6100
5053,6099
5052,6099
5051,6098
5050,6098
5049,6098
5048,6097
5047,6096
5047,6095
5047,6094
5046,6093
5045,6092
5045,6090
5044,6090
5044,6089
5044,6088
5044,6086
5044,6085
5044,6084
5045,6082
5045,6081
5046,6080
5046,6079
5046,6078
5047,6077
5048,6076
5049,6076
5050,6075
5051,6074
5052,6074
5053,6073
5054,6073
5056,6073
5057,6073
5059,6073
5060,6073
5061,6073
5062,6074
5063,6074
5064,6075
5065,6075
5066,6076
5067,6077
5068,6077
5068,6078
5069,6079
5070,6080
5070,6081
5071,6082
5071,6083
5071,6085
5071,6086
5071,6088
5071,6089
5071,6090
5071,6091
5070,6092
5069,6093
5069,6094
5068,6094
5067,6095
5066,6096
5066,6097
5065,6097
5064,6098
5063,6099
5062,6099
5061,6100
5060,6100
" style="stroke:#000000;stroke-width:7;
stroke-linejoin:bevel; stroke-linecap:butt;
"/>
<!-- Line -->
<!--  spline  -->
<polyline points="5083,6099
5083,6101
5082,6103
5082,6105
5082,6106
5082,6107
5081,6109
5080,6111
5079,6113
5078,6113
5077,6114
5075,6115
5073,6116
5073,6117
5072,6117
5070,6118
5068,6119
5066,6119
5065,6119
5064,6119
5062,6119
5059,6118
5057,6118
5056,6118
5055,6117
5054,6116
5052,6115
5051,6114
5050,6113
5049,6113
5048,6111
5047,6109
5046,6108
5046,6107
5045,6105
5044,6103
5044,6101
5044,6100
5044,6099
5044,6097
5045,6095
5045,6093
5045,6092
5046,6091
5047,6089
5048,6087
5049,6085
5050,6085
5051,6084
5052,6083
5054,6082
5054,6081
5055,6081
5057,6080
5059,6079
5061,6079
5063,6079
5064,6079
5066,6079
5068,6080
5070,6080
5071,6080
5072,6081
5073,6082
5075,6083
5077,6084
5078,6085
5079,6085
5080,6087
5081,6089
5081,6090
5081,6091
5082,6093
5082,6095
5083,6097
5083,6098
5083,6099
" style="stroke:#ffffff;stroke-width:0;
stroke-linejoin:bevel; stroke-linecap:butt;
fill:#ffffff;
"/>
<!-- Line -->
<!--  spline  -->
<polyline points="5083,6099
5083,6101
5082,6103
5082,6105
5082,6106
5082,6107
5081,6109
5080,6111
5079,6113
5078,6113
5077,6114
5075,6115
5073,6116
5073,6117
5072,6117
5070,6118
5068,6119
5066,6119
5065,6119
5064,6119
5062,6119
5059,6118
5057,6118
5056,6118
5055,6117
5054,6116
5052,6115
5051,6114
5050,6113
5049,6113
5048,6111
5047,6109
5046,6108
5046,6107
5045,6105
5044,6103
5044,6101
5044,6100
5044,6099
5044,6097
5045,6095
5045,6093
5045,6092
5046,6091
5047,6089
5048,6087
5049,6085
5050,6085
5051,6084
5052,6083
5054,6082
5054,6081
5055,6081
5057,6080
5059,6079
5061,6079
5063,6079
5064,6079
5066,6079
5068,6080
5070,6080
5071,6080
5072,6081
5073,6082
5075,6083
5077,6084
5078,6085
5079,6085
5080,6087
5081,6089
5081,6090
5081,6091
5082,6093
5082,6095
5083,6097
5083,6098
5083,6099
" style="stroke:#000000;stroke-width:7;
stroke-linejoin:bevel; stroke-linecap:butt;
"/>
<!-- Line -->
<!--  polyline  -->
<polyline points="5079,6083
5054,6121
4942,6048
4967,6009
5079,6083
" style="stroke:#ffffff;stroke-width:0;
stroke-linejoin:miter; stroke-linecap:butt;
fill:#ffffff;
"/>
<!-- Line -->
<!--  polyline  -->
<polyline points="5079,6083
5054,6121
4942,6048
4967,6009
5079,6083
" style="stroke:#000000;stroke-width:7;
stroke-linejoin:miter; stroke-linecap:butt;
"/>
<!-- Line -->
<!--  spline  -->
<polyline points="4830,5845
4829,5845
4823,5848
4811,5853
4799,5857
4793,5860
4792,5860
4791,5860
4789,5862
4784,5866
4777,5870
4770,5876
4762,5885
4755,5894
4751,5899
4750,5900
4749,5902
4746,5908
4741,5918
4737,5929
4735,5934
4734,5936
4734,5939
4733,5945
4731,5956
4730,5968
4731,5978
4731,5986
4732,5992
4733,5995
4733,5996
4733,5997
4736,6003
4741,6015
4745,6027
4748,6033
4748,6034
4748,6035
4750,6037
4754,6042
4759,6049
4765,6056
4774,6064
4783,6071
4787,6075
4789,6076
4791,6077
4796,6080
4806,6085
4816,6089
4822,6091
4824,6092
4826,6092
4833,6093
4844,6095
4856,6096
4866,6095
4874,6095
4881,6094
4884,6093
4885,6093
4886,6093
4892,6090
4904,6085
4915,6081
4921,6078
4922,6078
4923,6078
4925,6076
4930,6072
4937,6068
4944,6062
4952,6053
4959,6044
4963,6039
4964,6038
4965,6036
4968,6030
4973,6020
4977,6009
4979,6004
4980,6002
4980,5999
4981,5993
4983,5982
4984,5970
4983,5960
4983,5952
4982,5946
4981,5943
4981,5942
4981,5941
4978,5935
4973,5923
4969,5911
4966,5905
4966,5904
4966,5903
4964,5901
4960,5896
4956,5889
4950,5882
4941,5874
4932,5867
4927,5863
4925,5862
4923,5861
4918,5858
4908,5853
4898,5849
4892,5847
4890,5846
4888,5846
4882,5845
4871,5843
4859,5842
4849,5843
4841,5843
4834,5844
4831,5845
4830,5845
" style="stroke:#ffffff;stroke-width:0;
stroke-linejoin:bevel; stroke-linecap:butt;
fill:#ffffff;
"/>
<!-- Line -->
<!--  spline  -->
<polyline points="4830,5845
4829,5845
4823,5848
4811,5853
4799,5857
4793,5860
4792,5860
4791,5860
4789,5862
4784,5866
4777,5870
4770,5876
4762,5885
4755,5894
4751,5899
4750,5900
4749,5902
4746,5908
4741,5918
4737,5929
4735,5934
4734,5936
4734,5939
4733,5945
4731,5956
4730,5968
4731,5978
4731,5986
4732,5992
4733,5995
4733,5996
4733,5997
4736,6003
4741,6015
4745,6027
4748,6033
4748,6034
4748,6035
4750,6037
4754,6042
4759,6049
4765,6056
4774,6064
4783,6071
4787,6075
4789,6076
4791,6077
4796,6080
4806,6085
4816,6089
4822,6091
4824,6092
4826,6092
4833,6093
4844,6095
4856,6096
4866,6095
4874,6095
4881,6094
4884,6093
4885,6093
4886,6093
4892,6090
4904,6085
4915,6081
4921,6078
4922,6078
4923,6078
4925,6076
4930,6072
4937,6068
4944,6062
4952,6053
4959,6044
4963,6039
4964,6038
4965,6036
4968,6030
4973,6020
4977,6009
4979,6004
4980,6002
4980,5999
4981,5993
4983,5982
4984,5970
4983,5960
4983,5952
4982,5946
4981,5943
4981,5942
4981,5941
4978,5935
4973,5923
4969,5911
4966,5905
4966,5904
4966,5903
4964,5901
4960,5896
4956,5889
4950,5882
4941,5874
4932,5867
4927,5863
4925,5862
4923,5861
4918,5858
4908,5853
4898,5849
4892,5847
4890,5846
4888,5846
4882,5845
4871,5843
4859,5842
4849,5843
4841,5843
4834,5844
4831,5845
4830,5845
" style="stroke:#000000;stroke-width:7;
stroke-linejoin:bevel; stroke-linecap:butt;
"/>
<!-- Line -->
<!--  polyline  -->
<polyline points="4729,5964
4692,5964
4692,5979
4733,5979
" style="stroke:#ffffff;stroke-width:0;
stroke-linejoin:miter; stroke-linecap:butt;
fill:#ffffff;
"/>
<!-- Line -->
<!--  polyline  -->
<polyline points="4758,6043
4704,6077
4713,6089
4768,6054
" style="stroke:#ffffff;stroke-width:0;
stroke-linejoin:miter; stroke-linecap:butt;
fill:#ffffff;
"/>
<!-- Line -->
<!--  polyline  -->
<polyline points="4756,5887
4709,5857
4702,5869
4747,5899
" style="stroke:#ffffff;stroke-width:0;
stroke-linejoin:miter; stroke-linecap:butt;
fill:#ffffff;
"/>
<!-- Line -->
<!--  spline  -->
<polyline points="4881,6076
4879,6076
4870,6076
4857,6077
4848,6077
4846,6077
4845,6077
4841,6076
4833,6075
4824,6073
4813,6069
4803,6064
4799,6062
4797,6061
4794,6058
4785,6051
4777,6043
4774,6040
4773,6039
4770,6035
4764,6025
4758,6014
4755,6005
4752,5997
4751,5993
4751,5992
4751,5990
4750,5982
4750,5968
4749,5960
4749,5958
4749,5957
4750,5953
4751,5945
4753,5936
4757,5925
4762,5915
4764,5911
4765,5909
4768,5906
4775,5897
4783,5889
4786,5885
4787,5884
4791,5881
4801,5875
4812,5869
4821,5866
4829,5863
4833,5862
4834,5862
4836,5862
4845,5861
4858,5861
4867,5860
4869,5860
4870,5860
4874,5861
4881,5862
4890,5865
4901,5869
4911,5874
4915,5876
4917,5877
4920,5880
4929,5887
4937,5895
4941,5898
4942,5900
4945,5903
4951,5913
4957,5924
4960,5933
4963,5940
4964,5944
4964,5945
4964,5947
4965,5956
4965,5969
4966,5978
4966,5980
4966,5981
4965,5985
4964,5993
4961,6002
4957,6013
4952,6023
4950,6027
4949,6029
4946,6032
4939,6041
4931,6049
4928,6053
4926,6054
4923,6057
4913,6063
4902,6069
4893,6072
4886,6075
4882,6076
4881,6076
" style="stroke:#ffffff;stroke-width:0;
stroke-linejoin:bevel; stroke-linecap:butt;
fill:#ffffff;
"/>
<!-- Line -->
<!--  spline  -->
<polyline points="4881,6076
4879,6076
4870,6076
4857,6077
4848,6077
4846,6077
4845,6077
4841,6076
4833,6075
4824,6073
4813,6069
4803,6064
4799,6062
4797,6061
4794,6058
4785,6051
4777,6043
4774,6040
4773,6039
4770,6035
4764,6025
4758,6014
4755,6005
4752,5997
4751,5993
4751,5992
4751,5990
4750,5982
4750,5968
4749,5960
4749,5958
4749,5957
4750,5953
4751,5945
4753,5936
4757,5925
4762,5915
4764,5911
4765,5909
4768,5906
4775,5897
4783,5889
4786,5885
4787,5884
4791,5881
4801,5875
4812,5869
4821,5866
4829,5863
4833,5862
4834,5862
4836,5862
4845,5861
4858,5861
4867,5860
4869,5860
4870,5860
4874,5861
4881,5862
4890,5865
4901,5869
4911,5874
4915,5876
4917,5877
4920,5880
4929,5887
4937,5895
4941,5898
4942,5900
4945,5903
4951,5913
4957,5924
4960,5933
4963,5940
4964,5944
4964,5945
4964,5947
4965,5956
4965,5969
4966,5978
4966,5980
4966,5981
4965,5985
4964,5993
4961,6002
4957,6013
4952,6023
4950,6027
4949,6029
4946,6032
4939,6041
4931,6049
4928,6053
4926,6054
4923,6057
4913,6063
4902,6069
4893,6072
4886,6075
4882,6076
4881,6076
" style="stroke:#000000;stroke-width:7;
stroke-linejoin:bevel; stroke-linecap:butt;
"/>
<!-- Line -->
<!--  polyline  -->
<polyline points="4815,5886
4815,6054
4917,5982
4961,5982
4961,5958
4917,5958
4815,5886
4815,5886
" style="stroke:#0b0b0b;stroke-width:0;
stroke-linejoin:miter; stroke-linecap:butt;
fill:#0b0b0b;
"/>
<!-- Line -->
<!--  polyline  -->
<polyline points="4731,5979
4775,5979
4776,5995
4813,5971
4776,5946
4775,5964
4729,5964
" style="stroke:#000000;stroke-width:0;
stroke-linejoin:miter; stroke-linecap:butt;
fill:#000000;
"/>
<!-- Line -->
<!--  polyline  -->
<polyline points="4768,6054
4782,6044
4792,6057
4810,6017
4765,6017
4774,6032
4758,6043
" style="stroke:#000000;stroke-width:0;
stroke-linejoin:miter; stroke-linecap:butt;
fill:#000000;
"/>
<!-- Line -->
<!--  polyline  -->
<polyline points="4750,5899
4774,5914
4766,5929
4810,5929
4792,5888
4782,5902
4759,5887
" style="stroke:#000000;stroke-width:0;
stroke-linejoin:miter; stroke-linecap:butt;
fill:#000000;
"/>
</g>
</svg>
