<?xml version="1.0" standalone="no"?>
<!DOCTYPE svg PUBLIC "-//W3C//DTD SVG 1.1//EN"
"http://www.w3.org/Graphics/SVG/1.1/DTD/svg11.dtd">
<!-- Creator: fig2dev Version 3.2 Patchlevel 5c -->
<!-- CreationDate: Fri Sep 14 10:46:19 2012 -->
<!-- Magnification: 1.000 -->
<svg xmlns="http://www.w3.org/2000/svg" width="0.4in" height="0.6in" viewBox="4840 6262 525 701">
<g style="stroke-width:.025in; fill:none">
<!-- Line -->
<!--  polyline  -->
<polyline points="5353,6870
5353,6274
5267,6356
5267,6951
5353,6870
" style="stroke:#00a5d4;stroke-width:0;
stroke-linejoin:miter; stroke-linecap:butt;
fill:#00a5d4;
"/>
<!-- Line -->
<!--  polyline  -->
<polyline points="5353,6870
5353,6274
5267,6356
5267,6951
5353,6870
" style="stroke:#ffffff;stroke-width:7;
stroke-linejoin:miter; stroke-linecap:butt;
"/>
<!-- Line -->
<!--  polyline  -->
<polyline points="5353,6274
5267,6356
4852,6356
4960,6274
5353,6274
" style="stroke:#00a5d4;stroke-width:0;
stroke-linejoin:miter; stroke-linecap:butt;
fill:#00a5d4;
"/>
<!-- Line -->
<!--  polyline  -->
<polyline points="5353,6274
5267,6356
4852,6356
4960,6274
5353,6274
" style="stroke:#ffffff;stroke-width:7;
stroke-linejoin:miter; stroke-linecap:butt;
"/>
<!-- Line -->
<!--  polyline  -->
<polyline points="5267,6766
5267,6356
4852,6356
4852,6766
5267,6766
" style="stroke:#00a5d4;stroke-width:0;
stroke-linejoin:miter; stroke-linecap:butt;
fill:#00a5d4;
"/>
<!-- Line -->
<!--  polyline  -->
<polyline points="5267,6766
5267,6356
4852,6356
4852,6766
5267,6766
" style="stroke:#ffffff;stroke-width:7;
stroke-linejoin:miter; stroke-linecap:butt;
"/>
<!-- Line -->
<!--  polyline  -->
<polyline points="5267,6951
5267,6770
4852,6770
4852,6951
5267,6951
" style="stroke:#00a5d4;stroke-width:0;
stroke-linejoin:miter; stroke-linecap:butt;
fill:#00a5d4;
"/>
<!-- Line -->
<!--  polyline  -->
<polyline points="5267,6951
5267,6770
4852,6770
4852,6951
5267,6951
" style="stroke:#ffffff;stroke-width:7;
stroke-linejoin:miter; stroke-linecap:butt;
"/>
<!-- Line -->
<!--  polyline  -->
<polyline points="5023,6512
4959,6449
4970,6438
4930,6430
4939,6470
4949,6459
5012,6522
5023,6512
" style="stroke:#ffffff;stroke-width:0;
stroke-linejoin:miter; stroke-linecap:butt;
fill:#ffffff;
"/>
<!-- Line -->
<!--  polyline  -->
<polyline points="4999,6553
4910,6553
4910,6538
4876,6561
4910,6583
4910,6568
4999,6568
4999,6553
" style="stroke:#ffffff;stroke-width:0;
stroke-linejoin:miter; stroke-linecap:butt;
fill:#ffffff;
"/>
<!-- Line -->
<!--  polyline  -->
<polyline points="5012,6599
4949,6662
4939,6652
4930,6691
4970,6683
4959,6672
5023,6609
5012,6599
" style="stroke:#ffffff;stroke-width:0;
stroke-linejoin:miter; stroke-linecap:butt;
fill:#ffffff;
"/>
<!-- Line -->
<!--  polyline  -->
<polyline points="5054,6622
5054,6711
5039,6711
5061,6745
5083,6711
5068,6711
5068,6622
5054,6622
" style="stroke:#ffffff;stroke-width:0;
stroke-linejoin:miter; stroke-linecap:butt;
fill:#ffffff;
"/>
<!-- Line -->
<!--  polyline  -->
<polyline points="5054,6502
5054,6413
5039,6413
5061,6379
5083,6413
5068,6413
5068,6502
5054,6502
" style="stroke:#ffffff;stroke-width:0;
stroke-linejoin:miter; stroke-linecap:butt;
fill:#ffffff;
"/>
<!-- Line -->
<!--  polyline  -->
<polyline points="5099,6609
5162,6672
5152,6683
5191,6691
5183,6652
5173,6662
5109,6599
5099,6609
" style="stroke:#ffffff;stroke-width:0;
stroke-linejoin:miter; stroke-linecap:butt;
fill:#ffffff;
"/>
<!-- Line -->
<!--  polyline  -->
<polyline points="5122,6568
5212,6568
5212,6583
5245,6561
5212,6538
5212,6553
5122,6553
5122,6568
" style="stroke:#ffffff;stroke-width:0;
stroke-linejoin:miter; stroke-linecap:butt;
fill:#ffffff;
"/>
<!-- Line -->
<!--  polyline  -->
<polyline points="5109,6522
5173,6459
5183,6470
5191,6430
5152,6438
5162,6449
5099,6512
5109,6522
" style="stroke:#ffffff;stroke-width:0;
stroke-linejoin:miter; stroke-linecap:butt;
fill:#ffffff;
"/>
<!-- Line -->
<!--  spline  -->
<polyline points="5116,6636
5117,6635
5122,6630
5131,6621
5136,6616
5137,6615
5137,6614
5139,6611
5143,6606
5146,6599
5150,6590
5153,6581
5154,6577
5154,6576
5154,6572
5155,6562
5155,6552
5155,6548
5155,6546
5154,6542
5152,6533
5148,6523
5145,6516
5142,6511
5139,6508
5139,6507
5138,6506
5133,6500
5124,6492
5119,6486
5118,6485
5117,6485
5114,6483
5109,6479
5102,6476
5092,6472
5083,6469
5079,6468
5077,6468
5073,6468
5064,6467
5055,6467
5051,6467
5049,6468
5045,6469
5036,6471
5026,6475
5019,6478
5013,6481
5010,6484
5009,6484
5008,6485
5002,6490
4994,6498
4988,6503
4987,6504
4987,6505
4985,6508
4981,6513
4978,6520
4974,6530
4971,6539
4970,6543
4970,6545
4970,6548
4969,6558
4969,6568
4969,6572
4970,6574
4971,6578
4973,6587
4977,6597
4980,6604
4983,6609
4986,6612
4986,6613
4987,6614
4992,6620
5001,6628
5006,6634
5007,6635
5008,6635
5011,6637
5016,6641
5023,6644
5032,6648
5041,6651
5045,6652
5046,6652
5050,6652
5060,6653
5070,6653
5074,6653
5075,6652
5080,6651
5089,6649
5099,6645
5106,6642
5112,6639
5115,6636
5116,6636
" style="stroke:#ffffff;stroke-width:0;
stroke-linejoin:bevel; stroke-linecap:butt;
fill:#ffffff;
"/>
<!-- Line -->
<!--  polyline  -->
<polyline points="5117,6868
5206,6868
5206,6883
5240,6860
5206,6838
5206,6853
5117,6853
5117,6868
" style="stroke:#ffffff;stroke-width:0;
stroke-linejoin:miter; stroke-linecap:butt;
fill:#ffffff;
"/>
<!-- Line -->
<!--  polyline  -->
<polyline points="5114,6843
5198,6812
5204,6827
5228,6794
5188,6785
5193,6799
5110,6829
5114,6843
" style="stroke:#ffffff;stroke-width:0;
stroke-linejoin:miter; stroke-linecap:butt;
fill:#ffffff;
"/>
<!-- Line -->
<!--  polyline  -->
<polyline points="5114,6877
5198,6908
5204,6894
5228,6926
5188,6936
5193,6921
5110,6891
5114,6877
" style="stroke:#ffffff;stroke-width:0;
stroke-linejoin:miter; stroke-linecap:butt;
fill:#ffffff;
"/>
<!-- Line -->
<!--  polyline  -->
<polyline points="4978,6868
5064,6868
5064,6883
5098,6860
5064,6838
5064,6853
4978,6853
4978,6868
" style="stroke:#ffffff;stroke-width:0;
stroke-linejoin:miter; stroke-linecap:butt;
fill:#ffffff;
"/>
<!-- Line -->
<!--  spline  -->
<polyline points="4940,6794
4939,6794
4937,6794
4933,6795
4931,6795
4930,6795
4929,6796
4927,6797
4925,6798
4922,6800
4920,6802
4918,6803
4917,6804
4915,6806
4913,6809
4913,6810
4912,6812
4911,6815
4910,6819
4909,6821
4909,6823
4909,6825
4909,6826
4909,6833
4909,6844
4909,6851
4909,6852
4909,6853
4908,6854
4907,6855
4907,6856
4906,6856
4905,6856
4905,6857
4904,6857
4903,6857
4903,6856
4902,6856
4901,6856
4900,6856
4899,6856
4900,6856
4900,6855
4899,6855
4898,6855
4898,6854
4897,6854
4897,6853
4897,6852
4897,6845
4897,6834
4897,6827
4897,6826
4897,6825
4898,6822
4898,6817
4899,6814
4899,6813
4900,6811
4901,6808
4902,6805
4905,6801
4908,6798
4909,6796
4911,6795
4914,6792
4918,6790
4919,6789
4920,6788
4922,6788
4926,6786
4931,6785
4934,6784
4937,6784
4939,6784
4940,6784
4943,6785
4948,6785
4951,6786
4952,6786
4954,6787
4957,6788
4960,6789
4964,6792
4967,6795
4969,6796
4970,6798
4973,6801
4975,6805
4976,6806
4977,6807
4977,6809
4979,6813
4980,6818
4981,6821
4981,6824
4981,6826
4981,6828
4981,6835
4981,6847
4981,6854
4981,6856
4981,6857
4981,6858
4980,6858
4979,6858
4978,6858
4978,6859
4977,6859
4976,6859
4975,6859
4974,6859
4973,6858
4972,6857
4971,6857
4971,6856
4971,6857
4971,6856
4971,6855
4970,6855
4970,6854
4970,6853
4970,6852
4970,6844
4970,6834
4970,6826
4970,6825
4970,6824
4969,6822
4969,6818
4968,6816
4968,6815
4968,6813
4967,6811
4966,6809
4964,6806
4962,6804
4962,6803
4961,6803
4960,6802
4958,6800
4955,6798
4954,6797
4953,6797
4952,6796
4949,6795
4946,6794
4943,6794
4941,6794
4940,6794
" style="stroke:#000000;stroke-width:0;
stroke-linejoin:bevel; stroke-linecap:butt;
fill:#000000;
"/>
<!-- Line -->
<!--  spline  -->
<polyline points="4940,6794
4939,6794
4937,6794
4933,6795
4931,6795
4930,6795
4929,6796
4927,6797
4925,6798
4922,6800
4920,6802
4918,6803
4917,6804
4915,6806
4913,6809
4913,6810
4912,6812
4911,6815
4910,6819
4909,6821
4909,6823
4909,6825
4909,6826
4909,6833
4909,6844
4909,6851
4909,6852
4909,6853
4908,6854
4907,6855
4907,6856
4906,6856
4905,6856
4905,6857
4904,6857
4903,6857
4903,6856
4902,6856
4901,6856
4900,6856
4899,6856
4900,6856
4900,6855
4899,6855
4898,6855
4898,6854
4897,6854
4897,6853
4897,6852
4897,6845
4897,6834
4897,6827
4897,6826
4897,6825
4898,6822
4898,6817
4899,6814
4899,6813
4900,6811
4901,6808
4902,6805
4905,6801
4908,6798
4909,6796
4911,6795
4914,6792
4918,6790
4919,6789
4920,6788
4922,6788
4926,6786
4931,6785
4934,6784
4937,6784
4939,6784
4940,6784
4943,6785
4948,6785
4951,6786
4952,6786
4954,6787
4957,6788
4960,6789
4964,6792
4967,6795
4969,6796
4970,6798
4973,6801
4975,6805
4976,6806
4977,6807
4977,6809
4979,6813
4980,6818
4981,6821
4981,6824
4981,6826
4981,6828
4981,6835
4981,6847
4981,6854
4981,6856
4981,6857
4981,6858
4980,6858
4979,6858
4978,6858
4978,6859
4977,6859
4976,6859
4975,6859
4974,6859
4973,6858
4972,6857
4971,6857
4971,6856
4971,6857
4971,6856
4971,6855
4970,6855
4970,6854
4970,6853
4970,6852
4970,6844
4970,6834
4970,6826
4970,6825
4970,6824
4969,6822
4969,6818
4968,6816
4968,6815
4968,6813
4967,6811
4966,6809
4964,6806
4962,6804
4962,6803
4961,6803
4960,6802
4958,6800
4955,6798
4954,6797
4953,6797
4952,6796
4949,6795
4946,6794
4943,6794
4941,6794
4940,6794
" style="stroke:#ffffff;stroke-width:7;
stroke-linejoin:bevel; stroke-linecap:butt;
"/>
<!-- Line -->
<!--  spline  -->
<polyline points="4991,6929
4992,6929
4992,6928
4993,6928
4994,6928
4995,6928
4996,6927
4996,6926
4996,6925
4997,6925
4997,6926
4997,6925
4997,6924
4997,6923
4997,6922
4997,6917
4997,6905
4997,6889
4997,6873
4997,6861
4997,6856
4997,6855
4997,6854
4997,6853
4997,6852
4996,6852
4996,6851
4996,6850
4995,6850
4994,6850
4994,6849
4993,6849
4992,6849
4991,6849
4990,6849
4986,6849
4975,6849
4958,6849
4938,6849
4918,6849
4901,6849
4890,6849
4886,6849
4885,6849
4884,6849
4883,6849
4882,6850
4881,6850
4881,6851
4881,6852
4880,6852
4880,6853
4880,6854
4879,6854
4879,6855
4879,6856
4879,6861
4879,6873
4879,6889
4879,6905
4879,6917
4879,6922
4879,6923
4879,6924
4880,6924
4880,6925
4881,6925
4881,6926
4881,6927
4882,6927
4882,6928
4883,6928
4884,6928
4884,6929
4885,6929
4886,6929
4890,6929
4901,6929
4918,6929
4938,6929
4958,6929
4975,6929
4986,6929
4990,6929
4991,6929
" style="stroke:#000000;stroke-width:0;
stroke-linejoin:bevel; stroke-linecap:butt;
fill:#000000;
"/>
<!-- Line -->
<!--  spline  -->
<polyline points="4991,6929
4992,6929
4992,6928
4993,6928
4994,6928
4995,6928
4996,6927
4996,6926
4996,6925
4997,6925
4997,6926
4997,6925
4997,6924
4997,6923
4997,6922
4997,6917
4997,6905
4997,6889
4997,6873
4997,6861
4997,6856
4997,6855
4997,6854
4997,6853
4997,6852
4996,6852
4996,6851
4996,6850
4995,6850
4994,6850
4994,6849
4993,6849
4992,6849
4991,6849
4990,6849
4986,6849
4975,6849
4958,6849
4938,6849
4918,6849
4901,6849
4890,6849
4886,6849
4885,6849
4884,6849
4883,6849
4882,6850
4881,6850
4881,6851
4881,6852
4880,6852
4880,6853
4880,6854
4879,6854
4879,6855
4879,6856
4879,6861
4879,6873
4879,6889
4879,6905
4879,6917
4879,6922
4879,6923
4879,6924
4880,6924
4880,6925
4881,6925
4881,6926
4881,6927
4882,6927
4882,6928
4883,6928
4884,6928
4884,6929
4885,6929
4886,6929
4890,6929
4901,6929
4918,6929
4938,6929
4958,6929
4975,6929
4986,6929
4990,6929
4991,6929
" style="stroke:#ffffff;stroke-width:7;
stroke-linejoin:bevel; stroke-linecap:butt;
"/>
</g>
</svg>
