<?xml version="1.0" standalone="no"?>
<!DOCTYPE svg PUBLIC "-//W3C//DTD SVG 1.1//EN"
"http://www.w3.org/Graphics/SVG/1.1/DTD/svg11.dtd">
<!-- Creator: fig2dev Version 3.2 Patchlevel 5c -->
<!-- CreationDate: Fri Sep 14 10:46:20 2012 -->
<!-- Magnification: 1.000 -->
<svg xmlns="http://www.w3.org/2000/svg" width="0.5in" height="0.4in" viewBox="4760 6566 622 452">
<g style="stroke-width:.025in; fill:none">
<!-- Line -->
<!--  polyline  -->
<polyline points="5274,7006
5274,6657
4772,6657
4772,7006
5274,7006
" style="stroke:#00a5d4;stroke-width:0;
stroke-linejoin:miter; stroke-linecap:butt;
fill:#00a5d4;
"/>
<!-- Line -->
<!--  polyline  -->
<polyline points="5274,7006
5274,6657
4772,6657
4772,7006
5274,7006
" style="stroke:#ffffff;stroke-width:7;
stroke-linejoin:miter; stroke-linecap:butt;
"/>
<!-- Line -->
<!--  polyline  -->
<polyline points="5274,6657
5370,6578
4901,6578
4772,6657
5274,6657
" style="stroke:#00a5d4;stroke-width:0;
stroke-linejoin:miter; stroke-linecap:butt;
fill:#00a5d4;
"/>
<!-- Line -->
<!--  polyline  -->
<polyline points="5274,6657
5370,6578
4901,6578
4772,6657
5274,6657
" style="stroke:#ffffff;stroke-width:7;
stroke-linejoin:miter; stroke-linecap:butt;
"/>
<!-- Line -->
<!--  polyline  -->
<polyline points="5370,6927
5370,6578
5274,6657
5274,7006
5370,6927
" style="stroke:#00a5d4;stroke-width:0;
stroke-linejoin:miter; stroke-linecap:butt;
fill:#00a5d4;
"/>
<!-- Line -->
<!--  polyline  -->
<polyline points="5370,6927
5370,6578
5274,6657
5274,7006
5370,6927
" style="stroke:#ffffff;stroke-width:7;
stroke-linejoin:miter; stroke-linecap:butt;
"/>
<!-- Line -->
<!--  polyline  -->
<polyline points="4804,6865
4954,6865
5029,6715
5133,6927
5171,6865
5246,6865
" style="stroke:#ffffff;stroke-width:15;
stroke-linejoin:round; stroke-linecap:round;
"/>
<!-- Line -->
<!--  spline  -->
<polyline points="4852,6988
4854,6988
4855,6988
4857,6988
4858,6988
4859,6987
4860,6986
4861,6985
4862,6984
4863,6984
4863,6983
4864,6982
4865,6981
4866,6980
4866,6979
4867,6977
4867,6975
4867,6974
4867,6973
4867,6972
4867,6970
4867,6969
4867,6967
4867,6966
4866,6965
4865,6964
4864,6963
4863,6962
4863,6961
4862,6961
4861,6960
4860,6959
4859,6958
4858,6958
4857,6957
4855,6957
4854,6957
4853,6957
4852,6957
4850,6957
4849,6957
4847,6957
4846,6957
4845,6958
4844,6959
4842,6960
4841,6961
4840,6961
4840,6962
4839,6963
4838,6964
4837,6965
4837,6966
4836,6967
4836,6969
4836,6970
4836,6971
4836,6972
4836,6974
4836,6975
4836,6977
4836,6978
4837,6979
4838,6980
4839,6982
4840,6983
4840,6984
4841,6984
4842,6985
4843,6986
4844,6987
4845,6987
4847,6988
4849,6988
4850,6988
4851,6988
4852,6988
" style="stroke:#ffffff;stroke-width:0;
stroke-linejoin:bevel; stroke-linecap:butt;
fill:#ffffff;
"/>
<!-- Line -->
<!--  spline  -->
<polyline points="4852,6988
4854,6988
4855,6988
4857,6988
4858,6988
4859,6987
4860,6986
4861,6985
4862,6984
4863,6984
4863,6983
4864,6982
4865,6981
4866,6980
4866,6979
4867,6977
4867,6975
4867,6974
4867,6973
4867,6972
4867,6970
4867,6969
4867,6967
4867,6966
4866,6965
4865,6964
4864,6963
4863,6962
4863,6961
4862,6961
4861,6960
4860,6959
4859,6958
4858,6958
4857,6957
4855,6957
4854,6957
4853,6957
4852,6957
4850,6957
4849,6957
4847,6957
4846,6957
4845,6958
4844,6959
4842,6960
4841,6961
4840,6961
4840,6962
4839,6963
4838,6964
4837,6965
4837,6966
4836,6967
4836,6969
4836,6970
4836,6971
4836,6972
4836,6974
4836,6975
4836,6977
4836,6978
4837,6979
4838,6980
4839,6982
4840,6983
4840,6984
4841,6984
4842,6985
4843,6986
4844,6987
4845,6987
4847,6988
4849,6988
4850,6988
4851,6988
4852,6988
" style="stroke:#000000;stroke-width:7;
stroke-linejoin:bevel; stroke-linecap:butt;
"/>
<!-- Line -->
<!--  polyline  -->
<polyline points="4838,6956
4869,6986
4957,6896
4926,6866
4838,6956
" style="stroke:#ffffff;stroke-width:0;
stroke-linejoin:miter; stroke-linecap:butt;
fill:#ffffff;
"/>
<!-- Line -->
<!--  polyline  -->
<polyline points="4838,6956
4869,6986
4957,6896
4926,6866
4838,6956
" style="stroke:#000000;stroke-width:7;
stroke-linejoin:miter; stroke-linecap:butt;
"/>
<!-- Line -->
<!--  spline  -->
<polyline points="4913,6799
4913,6800
4914,6806
4916,6818
4918,6830
4919,6836
4919,6837
4919,6838
4920,6841
4922,6846
4925,6853
4930,6861
4936,6870
4943,6878
4946,6883
4948,6884
4949,6886
4954,6890
4962,6896
4971,6902
4976,6905
4978,6906
4979,6906
4985,6908
4995,6912
5006,6915
5015,6917
5023,6918
5029,6919
5032,6919
5033,6919
5034,6919
5040,6918
5052,6915
5063,6913
5069,6912
5070,6912
5071,6912
5074,6911
5079,6909
5086,6906
5094,6902
5103,6896
5111,6890
5116,6886
5117,6884
5119,6883
5122,6878
5129,6870
5135,6861
5138,6856
5139,6854
5140,6853
5142,6847
5146,6837
5149,6826
5151,6817
5152,6809
5152,6803
5152,6800
5152,6799
5152,6798
5151,6792
5149,6780
5147,6769
5146,6763
5146,6762
5146,6761
5145,6758
5143,6753
5140,6746
5135,6738
5129,6729
5122,6721
5119,6716
5117,6715
5116,6713
5111,6710
5103,6703
5094,6697
5089,6694
5087,6693
5085,6692
5080,6690
5070,6686
5059,6683
5050,6681
5043,6680
5037,6680
5034,6680
5033,6680
5032,6680
5026,6681
5014,6683
5002,6685
4996,6686
4995,6686
4994,6686
4991,6687
4986,6689
4979,6692
4971,6697
4962,6703
4954,6710
4949,6713
4948,6715
4946,6716
4943,6721
4936,6729
4930,6738
4927,6743
4926,6745
4925,6747
4923,6752
4919,6762
4916,6773
4914,6782
4913,6789
4913,6795
4913,6798
4913,6799
" style="stroke:#ffffff;stroke-width:0;
stroke-linejoin:bevel; stroke-linecap:butt;
fill:#ffffff;
"/>
<!-- Line -->
<!--  spline  -->
<polyline points="4930,6799
4930,6797
4932,6789
4933,6777
4935,6769
4935,6767
4935,6766
4937,6762
4940,6756
4944,6748
4950,6739
4956,6731
4959,6728
4961,6726
4964,6723
4972,6717
4981,6711
4984,6709
4986,6708
4990,6706
5000,6702
5011,6699
5020,6698
5028,6697
5032,6697
5033,6697
5035,6697
5043,6699
5055,6700
5063,6702
5065,6702
5066,6702
5070,6704
5076,6707
5084,6711
5093,6717
5101,6723
5104,6726
5106,6728
5109,6731
5115,6739
5121,6748
5123,6751
5124,6753
5126,6757
5130,6767
5133,6778
5134,6787
5135,6794
5135,6798
5135,6799
5135,6801
5133,6809
5132,6822
5130,6830
5130,6832
5130,6833
5128,6837
5125,6843
5121,6851
5115,6860
5109,6868
5106,6871
5104,6873
5101,6876
5093,6882
5084,6888
5081,6890
5079,6891
5075,6893
5065,6897
5054,6900
5045,6901
5038,6902
5034,6902
5033,6902
5031,6902
5023,6900
5010,6899
5002,6897
5000,6897
4999,6897
4995,6895
4989,6892
4981,6888
4972,6882
4964,6876
4961,6873
4959,6871
4956,6868
4950,6860
4944,6851
4942,6848
4941,6846
4939,6842
4935,6832
4932,6821
4931,6812
4930,6804
4930,6800
4930,6799
" style="stroke:#ffffff;stroke-width:0;
stroke-linejoin:bevel; stroke-linecap:butt;
fill:#ffffff;
"/>
<!-- Line -->
<!--  spline  -->
<polyline points="4913,6799
4913,6800
4914,6806
4916,6818
4918,6830
4919,6836
4919,6837
4919,6838
4920,6841
4922,6846
4925,6853
4930,6861
4936,6870
4943,6878
4946,6883
4948,6884
4949,6886
4954,6890
4962,6896
4971,6902
4976,6905
4978,6906
4979,6906
4985,6908
4995,6912
5006,6915
5015,6917
5023,6918
5029,6919
5032,6919
5033,6919
5034,6919
5040,6918
5052,6915
5063,6913
5069,6912
5070,6912
5071,6912
5074,6911
5079,6909
5086,6906
5094,6902
5103,6896
5111,6890
5116,6886
5117,6884
5119,6883
5122,6878
5129,6870
5135,6861
5138,6856
5139,6854
5140,6853
5142,6847
5146,6837
5149,6826
5151,6817
5152,6809
5152,6803
5152,6800
5152,6799
5152,6798
5151,6792
5149,6780
5147,6769
5146,6763
5146,6762
5146,6761
5145,6758
5143,6753
5140,6746
5135,6738
5129,6729
5122,6721
5119,6716
5117,6715
5116,6713
5111,6710
5103,6703
5094,6697
5089,6694
5087,6693
5085,6692
5080,6690
5070,6686
5059,6683
5050,6681
5043,6680
5037,6680
5034,6680
5033,6680
5032,6680
5026,6681
5014,6683
5002,6685
4996,6686
4995,6686
4994,6686
4991,6687
4986,6689
4979,6692
4971,6697
4962,6703
4954,6710
4949,6713
4948,6715
4946,6716
4943,6721
4936,6729
4930,6738
4927,6743
4926,6745
4925,6747
4923,6752
4919,6762
4916,6773
4914,6782
4913,6789
4913,6795
4913,6798
4913,6799
" style="stroke:#000000;stroke-width:7;
stroke-linejoin:bevel; stroke-linecap:butt;
"/>
<!-- Line -->
<!--  spline  -->
<polyline points="4930,6799
4930,6797
4932,6789
4933,6777
4935,6769
4935,6767
4935,6766
4937,6762
4940,6756
4944,6748
4950,6739
4956,6731
4959,6728
4961,6726
4964,6723
4972,6717
4981,6711
4984,6709
4986,6708
4990,6706
5000,6702
5011,6699
5020,6698
5028,6697
5032,6697
5033,6697
5035,6697
5043,6699
5055,6700
5063,6702
5065,6702
5066,6702
5070,6704
5076,6707
5084,6711
5093,6717
5101,6723
5104,6726
5106,6728
5109,6731
5115,6739
5121,6748
5123,6751
5124,6753
5126,6757
5130,6767
5133,6778
5134,6787
5135,6794
5135,6798
5135,6799
5135,6801
5133,6809
5132,6822
5130,6830
5130,6832
5130,6833
5128,6837
5125,6843
5121,6851
5115,6860
5109,6868
5106,6871
5104,6873
5101,6876
5093,6882
5084,6888
5081,6890
5079,6891
5075,6893
5065,6897
5054,6900
5045,6901
5038,6902
5034,6902
5033,6902
5031,6902
5023,6900
5010,6899
5002,6897
5000,6897
4999,6897
4995,6895
4989,6892
4981,6888
4972,6882
4964,6876
4961,6873
4959,6871
4956,6868
4950,6860
4944,6851
4942,6848
4941,6846
4939,6842
4935,6832
4932,6821
4931,6812
4930,6804
4930,6800
4930,6799
" style="stroke:#000000;stroke-width:7;
stroke-linejoin:bevel; stroke-linecap:butt;
"/>
<!-- Line -->
<!--  spline  -->
<polyline points="4899,6806
4899,6807
4900,6813
4902,6825
4904,6837
4905,6843
4905,6844
4905,6845
4906,6848
4908,6853
4911,6860
4916,6868
4922,6877
4929,6885
4932,6889
4934,6891
4935,6892
4940,6896
4948,6902
4957,6908
4962,6911
4964,6912
4965,6913
4971,6915
4981,6919
4992,6922
5001,6924
5009,6925
5015,6925
5018,6925
5019,6925
5020,6925
5026,6924
5038,6922
5049,6920
5055,6919
5056,6919
5057,6919
5060,6918
5065,6915
5072,6912
5080,6908
5089,6902
5097,6896
5102,6892
5103,6891
5105,6889
5108,6885
5115,6877
5121,6868
5124,6863
5125,6862
5126,6860
5128,6854
5132,6844
5135,6833
5137,6824
5138,6816
5138,6810
5138,6807
5138,6806
5138,6805
5137,6799
5135,6787
5133,6776
5132,6770
5132,6769
5132,6768
5131,6765
5129,6760
5126,6753
5121,6745
5115,6736
5108,6728
5105,6723
5103,6722
5102,6720
5097,6717
5089,6710
5080,6704
5075,6701
5073,6700
5071,6699
5066,6697
5056,6693
5045,6690
5036,6688
5029,6687
5023,6687
5020,6687
5019,6687
5018,6687
5012,6688
5000,6690
4988,6692
4982,6693
4981,6693
4980,6693
4977,6694
4972,6696
4965,6699
4957,6704
4948,6710
4940,6717
4935,6720
4934,6722
4932,6723
4929,6728
4922,6736
4916,6745
4913,6750
4912,6752
4911,6754
4909,6759
4905,6769
4902,6780
4900,6789
4899,6796
4899,6802
4899,6805
4899,6806
" style="stroke:#ffffff;stroke-width:0;
stroke-linejoin:bevel; stroke-linecap:butt;
fill:#ffffff;
"/>
<!-- Line -->
<!--  spline  -->
<polyline points="4916,6806
4916,6804
4918,6796
4919,6784
4921,6776
4921,6774
4921,6773
4923,6769
4926,6763
4930,6755
4936,6746
4942,6738
4945,6735
4947,6733
4950,6730
4958,6724
4967,6718
4970,6716
4972,6715
4976,6713
4986,6709
4997,6706
5006,6705
5014,6704
5018,6704
5019,6704
5021,6704
5029,6706
5041,6707
5049,6709
5051,6709
5052,6709
5056,6711
5062,6714
5070,6718
5079,6724
5087,6730
5090,6733
5092,6735
5095,6738
5101,6746
5107,6755
5109,6758
5110,6760
5112,6764
5116,6774
5119,6785
5120,6794
5121,6801
5121,6805
5121,6806
5121,6808
5119,6816
5118,6829
5116,6837
5116,6839
5116,6840
5114,6844
5111,6850
5107,6858
5101,6867
5095,6875
5092,6878
5090,6880
5087,6883
5079,6889
5070,6895
5067,6897
5065,6898
5061,6900
5051,6904
5040,6907
5031,6908
5024,6909
5020,6909
5019,6909
5017,6909
5009,6907
4996,6906
4988,6904
4986,6904
4985,6904
4981,6902
4975,6899
4967,6895
4958,6889
4950,6883
4947,6880
4945,6878
4942,6875
4936,6867
4930,6858
4928,6855
4927,6853
4925,6849
4921,6839
4918,6828
4917,6819
4916,6811
4916,6807
4916,6806
" style="stroke:#ffffff;stroke-width:0;
stroke-linejoin:bevel; stroke-linecap:butt;
fill:#ffffff;
"/>
<!-- Line -->
<!--  spline  -->
<polyline points="4899,6806
4899,6807
4900,6813
4902,6825
4904,6837
4905,6843
4905,6844
4905,6845
4906,6848
4908,6853
4911,6860
4916,6868
4922,6877
4929,6885
4932,6889
4934,6891
4935,6892
4940,6896
4948,6902
4957,6908
4962,6911
4964,6912
4965,6913
4971,6915
4981,6919
4992,6922
5001,6924
5009,6925
5015,6925
5018,6925
5019,6925
5020,6925
5026,6924
5038,6922
5049,6920
5055,6919
5056,6919
5057,6919
5060,6918
5065,6915
5072,6912
5080,6908
5089,6902
5097,6896
5102,6892
5103,6891
5105,6889
5108,6885
5115,6877
5121,6868
5124,6863
5125,6862
5126,6860
5128,6854
5132,6844
5135,6833
5137,6824
5138,6816
5138,6810
5138,6807
5138,6806
5138,6805
5137,6799
5135,6787
5133,6776
5132,6770
5132,6769
5132,6768
5131,6765
5129,6760
5126,6753
5121,6745
5115,6736
5108,6728
5105,6723
5103,6722
5102,6720
5097,6717
5089,6710
5080,6704
5075,6701
5073,6700
5071,6699
5066,6697
5056,6693
5045,6690
5036,6688
5029,6687
5023,6687
5020,6687
5019,6687
5018,6687
5012,6688
5000,6690
4988,6692
4982,6693
4981,6693
4980,6693
4977,6694
4972,6696
4965,6699
4957,6704
4948,6710
4940,6717
4935,6720
4934,6722
4932,6723
4929,6728
4922,6736
4916,6745
4913,6750
4912,6752
4911,6754
4909,6759
4905,6769
4902,6780
4900,6789
4899,6796
4899,6802
4899,6805
4899,6806
" style="stroke:#000000;stroke-width:7;
stroke-linejoin:bevel; stroke-linecap:butt;
"/>
<!-- Line -->
<!--  spline  -->
<polyline points="4916,6806
4916,6804
4918,6796
4919,6784
4921,6776
4921,6774
4921,6773
4923,6769
4926,6763
4930,6755
4936,6746
4942,6738
4945,6735
4947,6733
4950,6730
4958,6724
4967,6718
4970,6716
4972,6715
4976,6713
4986,6709
4997,6706
5006,6705
5014,6704
5018,6704
5019,6704
5021,6704
5029,6706
5041,6707
5049,6709
5051,6709
5052,6709
5056,6711
5062,6714
5070,6718
5079,6724
5087,6730
5090,6733
5092,6735
5095,6738
5101,6746
5107,6755
5109,6758
5110,6760
5112,6764
5116,6774
5119,6785
5120,6794
5121,6801
5121,6805
5121,6806
5121,6808
5119,6816
5118,6829
5116,6837
5116,6839
5116,6840
5114,6844
5111,6850
5107,6858
5101,6867
5095,6875
5092,6878
5090,6880
5087,6883
5079,6889
5070,6895
5067,6897
5065,6898
5061,6900
5051,6904
5040,6907
5031,6908
5024,6909
5020,6909
5019,6909
5017,6909
5009,6907
4996,6906
4988,6904
4986,6904
4985,6904
4981,6902
4975,6899
4967,6895
4958,6889
4950,6883
4947,6880
4945,6878
4942,6875
4936,6867
4930,6858
4928,6855
4927,6853
4925,6849
4921,6839
4918,6828
4917,6819
4916,6811
4916,6807
4916,6806
" style="stroke:#000000;stroke-width:7;
stroke-linejoin:bevel; stroke-linecap:butt;
"/>
</g>
</svg>
