<?xml version="1.0" standalone="no"?>
<!DOCTYPE svg PUBLIC "-//W3C//DTD SVG 1.1//EN"
"http://www.w3.org/Graphics/SVG/1.1/DTD/svg11.dtd">
<!-- Creator: fig2dev Version 3.2 Patchlevel 5c -->
<!-- CreationDate: Fri Sep 14 10:46:20 2012 -->
<!-- Magnification: 1.000 -->
<svg xmlns="http://www.w3.org/2000/svg" width="0.5in" height="0.4in" viewBox="-6 12722 587 487">
<g style="stroke-width:.025in; fill:none">
<!-- Line -->
<!--  polyline  -->
<polyline points="506,13197
569,13151
306,12734
245,12771
" style="stroke:#00acd8;stroke-width:0;
stroke-linejoin:miter; stroke-linecap:butt;
fill:#00acd8;
"/>
<!-- Line -->
<!--  polyline  -->
<polyline points="506,13197
569,13151
306,12734
245,12771
" style="stroke:#ffffff;stroke-width:7;
stroke-linejoin:miter; stroke-linecap:butt;
"/>
<!-- Line -->
<!--  polyline  -->
<polyline points="6,13195
506,13195
243,12774
6,13195
" style="stroke:#00acd8;stroke-width:0;
stroke-linejoin:miter; stroke-linecap:butt;
fill:#00acd8;
"/>
<!-- Line -->
<!--  polyline  -->
<polyline points="6,13195
506,13195
243,12774
6,13195
" style="stroke:#ffffff;stroke-width:7;
stroke-linejoin:miter; stroke-linecap:butt;
"/>
<!-- Line -->
<!--  spline  -->
<polyline points="244,13066
245,13066
247,13065
252,13065
254,13064
255,13064
257,13063
259,13063
262,13061
265,13059
268,13057
269,13056
270,13055
271,13054
273,13051
275,13048
276,13047
276,13046
277,13045
278,13041
279,13037
280,13034
280,13031
280,13029
280,13028
279,13026
279,13021
278,13019
278,13018
277,13016
277,13014
275,13011
273,13008
271,13005
270,13004
269,13003
268,13002
265,13000
262,12998
261,12997
260,12997
258,12996
255,12995
251,12994
248,12993
246,12993
244,12993
243,12993
240,12994
236,12994
233,12995
232,12995
230,12996
228,12996
225,12998
222,13000
219,13002
218,13003
218,13004
217,13005
215,13008
213,13011
212,13012
211,13013
210,13015
209,13018
208,13022
208,13025
208,13027
208,13029
208,13030
208,13033
209,13037
209,13040
209,13041
210,13043
211,13045
213,13048
215,13051
217,13054
218,13055
218,13056
219,13057
222,13059
225,13061
226,13062
227,13062
228,13063
232,13064
236,13065
239,13066
242,13066
244,13066
" style="stroke:#ffffff;stroke-width:0;
stroke-linejoin:bevel; stroke-linecap:butt;
fill:#ffffff;
"/>
<!-- Line -->
<!--  spline  -->
<polyline points="244,12933
245,12933
247,12932
252,12932
254,12931
255,12931
257,12930
259,12929
262,12928
265,12926
268,12924
269,12923
270,12923
271,12922
273,12919
275,12916
276,12915
276,12914
277,12913
278,12909
279,12905
280,12902
280,12899
280,12897
280,12896
279,12894
279,12889
278,12887
278,12886
277,12884
277,12882
275,12879
273,12876
271,12873
270,12872
269,12871
268,12870
265,12868
262,12866
261,12865
260,12865
258,12864
255,12863
251,12862
248,12861
246,12861
244,12861
243,12861
240,12862
236,12862
233,12863
232,12863
230,12864
228,12864
225,12866
222,12868
219,12870
218,12871
218,12872
217,12873
215,12876
213,12879
212,12880
211,12881
210,12883
209,12886
208,12890
208,12893
208,12895
208,12897
208,12898
208,12901
209,12905
209,12908
209,12909
210,12911
211,12913
213,12916
215,12919
217,12922
218,12923
219,12924
222,12926
225,12928
226,12929
227,12929
228,12930
232,12931
236,12932
239,12933
242,12933
244,12933
" style="stroke:#ffffff;stroke-width:0;
stroke-linejoin:bevel; stroke-linecap:butt;
fill:#ffffff;
"/>
<!-- Line -->
<!--  spline  -->
<polyline points="341,13163
342,13163
345,13162
349,13162
352,13161
353,13161
355,13160
357,13160
360,13158
363,13156
366,13154
367,13153
368,13152
369,13151
371,13148
373,13145
374,13144
374,13143
375,13141
376,13138
377,13134
378,13131
378,13129
378,13127
378,13126
377,13124
377,13119
376,13117
376,13116
375,13114
375,13112
373,13109
371,13106
369,13103
368,13102
367,13101
366,13100
363,13098
360,13096
359,13095
358,13095
357,13094
353,13093
349,13092
346,13091
343,13091
341,13091
340,13091
338,13092
333,13092
331,13093
330,13093
328,13094
326,13094
323,13096
320,13098
317,13100
316,13101
315,13102
314,13103
312,13106
310,13109
309,13110
309,13111
308,13113
307,13116
306,13120
305,13123
305,13125
305,13127
305,13128
306,13130
306,13135
307,13137
307,13138
308,13140
308,13142
310,13145
312,13148
314,13151
315,13152
316,13153
317,13154
320,13156
323,13158
324,13159
325,13159
327,13160
330,13161
334,13162
337,13163
339,13163
341,13163
" style="stroke:#ffffff;stroke-width:0;
stroke-linejoin:bevel; stroke-linecap:butt;
fill:#ffffff;
"/>
<!-- Line -->
<!--  spline  -->
<polyline points="147,13162
148,13162
151,13161
155,13161
158,13160
159,13160
161,13159
163,13159
166,13157
169,13155
172,13153
173,13152
173,13151
174,13150
176,13147
178,13144
179,13143
180,13142
181,13140
182,13137
183,13133
183,13130
183,13128
183,13126
183,13125
183,13122
182,13118
182,13115
182,13114
181,13113
180,13111
178,13108
176,13105
174,13102
173,13101
173,13100
172,13099
169,13097
166,13095
165,13094
164,13094
163,13093
159,13092
155,13091
152,13090
149,13090
147,13090
146,13090
144,13091
139,13091
137,13092
136,13092
134,13093
132,13093
129,13095
126,13097
123,13099
122,13100
121,13101
120,13102
118,13105
116,13108
115,13109
114,13111
113,13114
112,13118
111,13121
111,13124
111,13126
111,13127
112,13129
112,13134
113,13136
113,13137
114,13139
114,13141
116,13144
118,13147
120,13150
121,13151
122,13152
123,13153
126,13155
129,13157
130,13158
131,13158
133,13159
136,13160
140,13161
143,13162
145,13162
147,13162
" style="stroke:#ffffff;stroke-width:0;
stroke-linejoin:bevel; stroke-linecap:butt;
fill:#ffffff;
"/>
<!-- Line -->
<!--  polyline  -->
<polyline points="244,12905
244,13027
145,13126
" style="stroke:#ffffff;stroke-width:15;
stroke-linejoin:miter; stroke-linecap:butt;
"/>
<!-- Line -->
<!--  polyline  -->
<polyline points="244,13033
334,13123
" style="stroke:#ffffff;stroke-width:15;
stroke-linejoin:miter; stroke-linecap:butt;
"/>
</g>
</svg>
