<?xml version="1.0" standalone="no"?>
<!DOCTYPE svg PUBLIC "-//W3C//DTD SVG 1.1//EN"
"http://www.w3.org/Graphics/SVG/1.1/DTD/svg11.dtd">
<!-- Creator: fig2dev Version 3.2 Patchlevel 5c -->
<!-- CreationDate: Fri Sep 14 10:46:20 2012 -->
<!-- Magnification: 1.000 -->
<svg xmlns="http://www.w3.org/2000/svg" width="0.4in" height="0.3in" viewBox="0 12793 423 419">
<g style="stroke-width:.025in; fill:none">
<!-- Line -->
<!--  polyline  -->
<polyline points="411,12805
401,12811
12,12811
22,12805
411,12805
" style="stroke:#02709f;stroke-width:0;
stroke-linejoin:miter; stroke-linecap:butt;
fill:#02709f;
"/>
<!-- Line -->
<!--  polyline  -->
<polyline points="411,12805
401,12811
12,12811
22,12805
411,12805
" style="stroke:#ffffff;stroke-width:7;
stroke-linejoin:miter; stroke-linecap:butt;
"/>
<!-- Line -->
<!--  polyline  -->
<polyline points="411,13191
411,12805
401,12812
401,13200
411,13191
" style="stroke:#02709f;stroke-width:0;
stroke-linejoin:miter; stroke-linecap:butt;
fill:#02709f;
"/>
<!-- Line -->
<!--  polyline  -->
<polyline points="29,13200
401,13200
401,12811
12,12811
12,13182
29,13200
" style="stroke:#02709f;stroke-width:0;
stroke-linejoin:miter; stroke-linecap:butt;
fill:#02709f;
"/>
<!-- Line -->
<!--  spline  -->
<polyline points="371,12811
371,12812
371,12815
371,12825
371,12841
371,12863
371,12892
371,12923
371,12954
371,12983
371,13005
371,13021
371,13031
371,13034
371,13035
371,13037
370,13041
370,13043
370,13044
369,13045
368,13046
367,13047
366,13048
365,13048
364,13049
363,13049
362,13049
361,13049
360,13049
359,13049
358,13049
357,13049
354,13049
345,13049
330,13049
307,13049
278,13049
243,13049
206,13049
168,13049
133,13049
104,13049
81,13049
66,13049
57,13049
54,13049
53,13049
52,13049
51,13049
50,13048
49,13048
48,13048
47,13048
46,13048
45,13047
44,13046
43,13046
43,13045
42,13043
41,13041
41,13039
41,13038
41,13037
41,13036
41,13033
41,13023
41,13007
41,12984
41,12956
41,12924
41,12892
41,12864
41,12841
41,12825
41,12815
41,12812
41,12811
" style="stroke:#ffffff;stroke-width:7;
stroke-linejoin:bevel; stroke-linecap:butt;
"/>
<!-- Line -->
<!--  polyline  -->
<polyline points="35,12851
35,12833
18,12833
18,12851
35,12851
" style="stroke:#ffffff;stroke-width:7;
stroke-linejoin:miter; stroke-linecap:butt;
"/>
<!-- Line -->
<!--  polyline  -->
<polyline points="395,12851
395,12833
378,12833
378,12851
395,12851
" style="stroke:#ffffff;stroke-width:7;
stroke-linejoin:miter; stroke-linecap:butt;
"/>
<!-- Line -->
<!--  spline  -->
<polyline points="309,13086
309,13087
309,13092
309,13102
309,13120
309,13141
309,13162
309,13180
309,13190
309,13195
309,13196
308,13196
304,13196
295,13196
278,13196
255,13196
226,13196
193,13196
160,13196
131,13196
108,13196
91,13196
82,13196
78,13196
77,13196
77,13195
77,13190
77,13179
77,13162
77,13140
77,13119
77,13102
77,13091
77,13086
77,13085
77,13083
78,13081
78,13079
79,13078
81,13077
82,13076
83,13075
84,13075
85,13075
86,13075
87,13075
88,13075
89,13075
90,13075
91,13075
94,13075
103,13075
117,13075
138,13075
164,13075
194,13075
223,13075
249,13075
270,13075
284,13075
293,13075
296,13075
297,13075
299,13075
301,13076
303,13076
304,13076
305,13077
306,13078
307,13079
308,13080
308,13081
308,13082
308,13083
309,13084
309,13085
309,13086
" style="stroke:#ffffff;stroke-width:0;
stroke-linejoin:bevel; stroke-linecap:butt;
fill:#ffffff;
"/>
<!-- Line -->
<!--  spline  -->
<polyline points="309,13086
309,13087
309,13092
309,13102
309,13120
309,13141
309,13162
309,13180
309,13190
309,13195
309,13196
308,13196
304,13196
295,13196
278,13196
255,13196
226,13196
193,13196
160,13196
131,13196
108,13196
91,13196
82,13196
78,13196
77,13196
77,13195
77,13190
77,13179
77,13162
77,13140
77,13119
77,13102
77,13091
77,13086
77,13085
77,13083
78,13081
78,13079
79,13078
81,13077
82,13076
83,13075
84,13075
85,13075
86,13075
87,13075
88,13075
89,13075
90,13075
91,13075
94,13075
103,13075
117,13075
138,13075
164,13075
194,13075
223,13075
249,13075
270,13075
284,13075
293,13075
296,13075
297,13075
299,13075
301,13076
303,13076
304,13076
305,13077
306,13078
307,13079
308,13080
308,13081
308,13082
308,13083
309,13084
309,13085
309,13086
" style="stroke:#02709f;stroke-width:7;
stroke-linejoin:bevel; stroke-linecap:butt;
"/>
<!-- Line -->
<!--  spline  -->
<polyline points="371,13200
371,13199
371,13194
371,13183
371,13165
371,13143
371,13121
371,13103
371,13092
371,13087
371,13086
372,13085
372,13084
371,13083
371,13082
371,13081
371,13080
370,13079
369,13078
369,13077
368,13077
366,13076
364,13075
362,13075
361,13075
360,13075
356,13075
349,13075
335,13075
315,13075
289,13075
259,13075
226,13075
192,13075
162,13075
136,13075
116,13075
102,13075
95,13075
91,13075
90,13075
89,13075
88,13075
87,13075
86,13075
85,13075
84,13075
83,13075
82,13076
81,13077
80,13077
80,13078
79,13079
78,13081
78,13082
77,13084
77,13085
77,13086
77,13090
77,13101
77,13118
77,13139
77,13160
77,13177
77,13188
77,13192
77,13193
" style="stroke:#ffffff;stroke-width:7;
stroke-linejoin:bevel; stroke-linecap:butt;
"/>
<!-- Line -->
<!--  polyline  -->
<polyline points="167,13188
167,13082
122,13082
122,13188
167,13188
" style="stroke:#02709f;stroke-width:0;
stroke-linejoin:miter; stroke-linecap:butt;
fill:#02709f;
"/>
<!-- Line -->
<!--  polyline  -->
<polyline points="167,13188
167,13082
122,13082
122,13188
167,13188
" style="stroke:#ffffff;stroke-width:7;
stroke-linejoin:miter; stroke-linecap:butt;
"/>
<!-- Line -->
<!--  polyline  -->
<polyline points="401,12812
411,12805
" style="stroke:#ffffff;stroke-width:7;
stroke-linejoin:miter; stroke-linecap:butt;
"/>
</g>
</svg>
