<?xml version="1.0" standalone="no"?>
<!DOCTYPE svg PUBLIC "-//W3C//DTD SVG 1.1//EN"
"http://www.w3.org/Graphics/SVG/1.1/DTD/svg11.dtd">
<!-- Creator: fig2dev Version 3.2 Patchlevel 5c -->
<!-- CreationDate: Fri Sep 14 10:46:20 2012 -->
<!-- Magnification: 1.000 -->
<svg xmlns="http://www.w3.org/2000/svg" width="0.6in" height="0.4in" viewBox="-3 12671 733 530">
<g style="stroke-width:.025in; fill:none">
<!-- Line -->
<!--  polyline  -->
<polyline points="9,13189
645,13189
645,12771
9,12771
9,13189
" style="stroke:#00acd8;stroke-width:0;
stroke-linejoin:miter; stroke-linecap:butt;
fill:#00acd8;
"/>
<!-- Line -->
<!--  polyline  -->
<polyline points="9,13189
645,13189
645,12771
9,12771
9,13189
" style="stroke:#ffffff;stroke-width:7;
stroke-linejoin:miter; stroke-linecap:butt;
"/>
<!-- Line -->
<!--  polyline  -->
<polyline points="718,13082
645,13189
645,12771
718,12683
718,13082
" style="stroke:#00acd8;stroke-width:0;
stroke-linejoin:miter; stroke-linecap:butt;
fill:#00acd8;
"/>
<!-- Line -->
<!--  polyline  -->
<polyline points="718,13082
645,13189
645,12771
718,12683
718,13082
" style="stroke:#ffffff;stroke-width:7;
stroke-linejoin:miter; stroke-linecap:butt;
"/>
<!-- Line -->
<!--  polyline  -->
<polyline points="119,12683
718,12683
645,12771
9,12771
119,12683
" style="stroke:#00acd8;stroke-width:0;
stroke-linejoin:miter; stroke-linecap:butt;
fill:#00acd8;
"/>
<!-- Line -->
<!--  polyline  -->
<polyline points="119,12683
718,12683
645,12771
9,12771
119,12683
" style="stroke:#ffffff;stroke-width:7;
stroke-linejoin:miter; stroke-linecap:butt;
"/>
<!-- Line -->
<!--  polyline  -->
<polyline points="205,12998
99,12998
99,12981
205,12981
205,12955
267,12990
205,13024
205,12998
" style="stroke:#ffffff;stroke-width:0;
stroke-linejoin:miter; stroke-linecap:butt;
fill:#ffffff;
"/>
<!-- Line -->
<!--  polyline  -->
<polyline points="427,12998
320,12998
320,12981
427,12981
427,12955
488,12990
427,13024
427,12998
" style="stroke:#ffffff;stroke-width:0;
stroke-linejoin:miter; stroke-linecap:butt;
fill:#ffffff;
"/>
<!-- Line -->
<!--  polyline  -->
<polyline points="408,12913
319,12971
310,12957
399,12899
385,12876
455,12872
423,12935
408,12913
" style="stroke:#ffffff;stroke-width:0;
stroke-linejoin:miter; stroke-linecap:butt;
fill:#ffffff;
"/>
<!-- Line -->
<!--  polyline  -->
<polyline points="408,13065
319,13007
310,13021
399,13080
385,13102
455,13106
423,13043
408,13065
" style="stroke:#ffffff;stroke-width:0;
stroke-linejoin:miter; stroke-linecap:butt;
fill:#ffffff;
"/>
<!-- Line -->
<!--  spline  -->
<polyline points="237,12852
235,12852
226,12851
209,12850
192,12849
183,12848
181,12848
180,12848
176,12848
169,12849
160,12851
150,12853
138,12857
128,12862
122,12864
120,12866
119,12867
114,12871
107,12877
100,12885
97,12888
96,12890
95,12893
91,12902
88,12912
88,12919
88,12925
88,12928
88,12929
88,12930
89,12931
89,12932
88,12932
82,12935
71,12940
60,12945
54,12948
53,12948
52,12949
49,12952
45,12958
40,12966
36,12976
34,12986
33,12990
34,12992
34,12997
36,13006
39,13015
40,13019
41,13020
43,13024
48,13030
54,13035
60,13038
64,13039
67,13040
68,13040
69,13040
71,13040
72,13040
72,13041
74,13048
76,13058
78,13065
78,13066
78,13067
81,13070
85,13075
91,13081
101,13089
110,13095
115,13098
117,13099
119,13100
125,13102
135,13106
146,13109
152,13111
154,13111
156,13112
162,13112
173,13113
186,13112
196,13111
203,13109
207,13107
208,13107
209,13106
210,13104
211,13103
212,13104
216,13109
223,13117
227,13122
228,13123
229,13123
231,13126
236,13129
243,13133
253,13137
263,13140
268,13142
270,13142
275,13143
286,13145
296,13147
302,13147
304,13148
305,13148
311,13148
322,13149
334,13150
343,13150
351,13151
357,13151
360,13151
361,13151
363,13151
371,13151
382,13151
390,13151
392,13151
393,13151
396,13151
402,13151
410,13150
419,13149
427,13148
430,13147
431,13147
434,13146
441,13144
448,13142
450,13141
451,13140
453,13139
459,13136
465,13132
469,13128
473,13125
475,13123
476,13123
478,13124
479,13124
480,13124
488,13123
503,13122
518,13122
526,13121
527,13121
528,13121
531,13120
537,13118
545,13115
553,13111
563,13105
572,13098
576,13095
577,13093
580,13090
586,13081
591,13072
593,13068
593,13067
594,13063
595,13053
595,13043
594,13035
592,13028
591,13025
591,13024
593,13024
594,13023
596,13023
597,13022
601,13019
606,13015
610,13012
611,13011
613,13008
615,13004
617,12999
618,12991
618,12983
618,12980
618,12978
617,12975
615,12967
612,12960
611,12956
610,12955
608,12952
602,12946
594,12940
587,12937
582,12934
578,12933
577,12933
577,12932
578,12931
578,12930
578,12929
580,12922
581,12911
583,12904
583,12903
583,12902
582,12899
581,12894
578,12887
572,12879
566,12872
563,12869
561,12868
557,12865
548,12860
538,12855
533,12853
532,12853
526,12851
514,12849
502,12848
492,12847
483,12847
476,12848
473,12848
472,12848
470,12847
468,12847
466,12846
465,12845
458,12841
445,12834
432,12828
425,12824
424,12823
423,12823
419,12821
410,12819
400,12817
386,12815
369,12813
352,12812
343,12812
340,12813
336,12813
328,12814
312,12816
297,12819
289,12820
286,12821
283,12822
276,12824
265,12829
253,12836
246,12843
242,12849
240,12852
240,12853
239,12853
238,12852
237,12852
" style="stroke:#ffffff;stroke-width:7;
stroke-linejoin:bevel; stroke-linecap:butt;
"/>
</g>
</svg>
