<?xml version="1.0" standalone="no"?>
<!DOCTYPE svg PUBLIC "-//W3C//DTD SVG 1.1//EN"
"http://www.w3.org/Graphics/SVG/1.1/DTD/svg11.dtd">
<!-- Creator: fig2dev Version 3.2 Patchlevel 5c -->
<!-- CreationDate: Fri Sep 14 10:46:21 2012 -->
<!-- Magnification: 1.000 -->
<svg xmlns="http://www.w3.org/2000/svg" width="0.7in" height="0.4in" viewBox="-21 12779 839 442">
<g style="stroke-width:.025in; fill:none">
<!-- Line -->
<!--  spline  -->
<polyline points="399,13153
400,13153
404,13153
415,13152
432,13151
452,13149
472,13147
489,13146
500,13145
504,13145
505,13145
506,13145
510,13144
518,13143
530,13141
544,13138
560,13135
578,13130
598,13124
617,13117
629,13113
635,13110
638,13109
641,13107
646,13104
656,13099
671,13090
688,13079
697,13072
700,13070
702,13068
708,13061
719,13048
728,13034
733,13022
735,13013
737,13005
737,13001
737,13000
736,12999
733,12990
728,12975
723,12961
720,12952
719,12951
718,12950
715,12947
709,12940
701,12931
689,12921
671,12909
656,12901
646,12895
641,12892
638,12891
635,12890
629,12887
617,12883
598,12876
578,12870
565,12866
558,12864
554,12863
551,12862
543,12861
528,12858
505,12854
485,12851
468,12849
453,12848
439,12847
427,12847
416,12846
407,12846
402,12846
399,12846
398,12846
394,12846
383,12847
366,12848
345,12850
325,12852
308,12853
297,12854
293,12854
292,12854
291,12854
287,12855
279,12856
267,12858
253,12861
237,12865
219,12870
199,12876
180,12883
168,12887
162,12890
159,12891
156,12892
151,12895
141,12901
126,12909
109,12920
100,12926
97,12929
95,12931
89,12938
78,12951
69,12965
65,12977
62,12987
61,12995
61,12999
61,13000
62,13001
64,13009
70,13024
75,13039
77,13047
78,13048
79,13049
82,13052
88,13059
96,13068
108,13078
126,13090
141,13099
151,13104
156,13107
159,13109
162,13110
168,13113
180,13117
199,13124
219,13130
232,13134
239,13136
243,13137
246,13137
254,13139
269,13141
292,13145
312,13148
329,13149
345,13151
358,13152
371,13152
382,13153
391,13153
396,13153
399,13153
" style="stroke:#90dcef;stroke-width:30;
stroke-linejoin:bevel; stroke-linecap:butt;
"/>
<!-- Line -->
<!--  spline  -->
<polyline points="399,13188
400,13188
405,13187
417,13187
436,13185
460,13183
484,13181
503,13179
515,13179
520,13178
521,13178
524,13177
530,13176
538,13175
550,13172
562,13170
576,13166
591,13162
608,13157
627,13151
649,13143
663,13137
670,13134
673,13133
676,13132
683,13128
694,13121
711,13111
726,13100
736,13092
741,13089
743,13087
745,13085
749,13080
756,13072
765,13059
775,13041
780,13027
783,13015
784,13006
785,13001
785,13000
784,12998
781,12988
775,12970
769,12952
766,12942
765,12940
763,12937
760,12933
754,12926
747,12919
739,12910
727,12900
711,12889
694,12879
683,12872
676,12868
673,12867
670,12865
663,12862
649,12856
627,12848
609,12842
594,12837
585,12834
580,12833
577,12832
574,12831
569,12830
559,12828
542,12825
521,12821
499,12818
478,12816
461,12814
445,12813
431,12813
419,12812
409,12812
402,12812
399,12812
398,12812
393,12812
381,12813
361,12815
337,12817
314,12818
294,12820
282,12821
277,12821
276,12821
273,12822
267,12823
258,12824
247,12826
235,12829
221,12832
206,12836
189,12842
170,12848
149,12856
135,12862
127,12865
124,12867
121,12868
115,12872
104,12879
87,12889
72,12900
62,12907
57,12911
54,12913
52,12915
48,12919
41,12927
32,12940
22,12958
16,12972
14,12984
12,12994
12,12999
12,13000
13,13002
16,13012
22,13030
28,13047
31,13057
32,13059
34,13062
38,13066
43,13073
50,13081
59,13090
71,13100
87,13111
104,13121
115,13128
121,13132
124,13133
127,13134
135,13137
149,13143
170,13151
188,13157
203,13162
212,13165
217,13166
220,13167
223,13168
228,13169
238,13171
254,13174
276,13178
299,13181
319,13184
336,13185
352,13186
367,13187
379,13188
389,13188
396,13188
399,13188
" style="stroke:#00acd8;stroke-width:30;
stroke-linejoin:bevel; stroke-linecap:butt;
"/>
<!-- Text -->
<!--  text  -->
<text xml:space="preserve" x="271" y="13046" fill="#000000"  font-family="Helvetica" font-style="normal" font-weight="bold" font-size="108" text-anchor="start">DPT</text>
</g>
</svg>
