<?xml version="1.0" standalone="no"?>
<!DOCTYPE svg PUBLIC "-//W3C//DTD SVG 1.1//EN"
"http://www.w3.org/Graphics/SVG/1.1/DTD/svg11.dtd">
<!-- Creator: fig2dev Version 3.2 Patchlevel 5c -->
<!-- CreationDate: Fri Sep 14 10:46:21 2012 -->
<!-- Magnification: 1.000 -->
<svg xmlns="http://www.w3.org/2000/svg" width="0.5in" height="0.4in" viewBox="-2 12761 621 443">
<g style="stroke-width:.025in; fill:none">
<!-- Line -->
<!--  spline  -->
<polyline points="474,13112
473,13114
471,13118
470,13120
469,13123
467,13126
464,13131
460,13136
455,13141
453,13143
452,13144
450,13146
444,13148
440,13149
437,13149
435,13149
435,13150
434,13150
432,13149
429,13148
424,13144
417,13137
412,13129
408,13122
404,13115
402,13112
402,13111
401,13110
397,13105
390,13095
384,13085
380,13080
379,13079
378,13079
376,13077
372,13076
367,13075
360,13075
354,13077
352,13079
351,13080
349,13082
344,13087
340,13092
338,13095
338,13096
337,13099
334,13103
332,13107
331,13109
330,13110
330,13111
329,13113
327,13117
326,13119
325,13122
323,13125
320,13130
316,13135
311,13140
309,13142
308,13143
306,13145
300,13147
296,13148
293,13148
292,13148
291,13149
290,13149
289,13148
286,13147
281,13143
274,13136
269,13129
264,13122
260,13115
258,13112
258,13111
257,13110
254,13105
247,13095
240,13085
237,13080
236,13079
235,13079
233,13077
228,13076
223,13075
216,13075
210,13077
208,13079
207,13080
205,13082
200,13087
196,13092
194,13095
194,13096
193,13098
190,13103
188,13107
187,13110
186,13111
186,13112
185,13114
184,13118
183,13120
182,13123
179,13126
176,13131
172,13136
167,13141
166,13143
165,13144
163,13146
157,13148
153,13149
150,13149
148,13149
148,13150
147,13150
145,13149
142,13148
137,13144
130,13137
125,13129
121,13122
117,13115
115,13112
115,13111
114,13110
110,13105
103,13095
97,13085
93,13080
92,13079
91,13079
89,13077
85,13076
80,13075
73,13075
67,13077
65,13079
64,13080
62,13082
57,13087
53,13092
51,13095
51,13096
50,13099
47,13103
45,13107
44,13109
43,13110
43,13111
" style="stroke:#ffffff;stroke-width:7;
stroke-linejoin:bevel; stroke-linecap:round;
"/>
<!-- Line -->
<!--  spline  -->
<polyline points="43,13112
44,13114
46,13118
47,13120
48,13123
50,13126
53,13131
57,13136
62,13141
64,13143
65,13144
67,13146
73,13148
77,13149
80,13149
81,13149
82,13150
83,13150
84,13149
87,13148
92,13144
99,13137
104,13129
109,13122
113,13115
115,13112
115,13111
116,13110
119,13105
126,13095
133,13085
136,13080
137,13079
138,13079
140,13077
145,13076
150,13075
157,13075
163,13077
165,13079
166,13080
168,13082
173,13087
177,13092
179,13095
179,13096
180,13099
183,13103
185,13107
186,13109
187,13110
187,13111
188,13113
189,13117
190,13119
191,13122
194,13125
197,13130
201,13135
206,13140
207,13142
208,13143
210,13145
216,13147
220,13148
223,13148
225,13148
225,13149
226,13149
228,13148
231,13147
236,13143
243,13136
248,13129
252,13122
256,13115
258,13112
258,13111
259,13110
263,13105
270,13095
276,13085
280,13080
281,13079
282,13079
284,13077
289,13076
294,13075
301,13075
307,13077
309,13079
310,13080
312,13082
316,13087
320,13092
322,13095
322,13096
323,13098
326,13103
328,13107
329,13110
330,13111
330,13112
331,13114
333,13118
334,13120
335,13123
337,13126
340,13131
344,13136
349,13141
351,13143
352,13144
354,13146
360,13148
364,13149
367,13149
368,13149
369,13150
370,13150
371,13149
374,13148
379,13144
386,13137
391,13129
396,13122
400,13115
402,13112
402,13111
403,13110
406,13105
413,13095
420,13085
423,13080
424,13079
425,13079
427,13077
432,13076
437,13075
444,13075
450,13077
452,13079
453,13080
455,13082
460,13087
464,13092
466,13095
466,13096
467,13099
470,13103
472,13107
473,13109
474,13110
474,13111
" style="stroke:#ffffff;stroke-width:15;
stroke-linejoin:bevel; stroke-linecap:round;
"/>
<!-- Line -->
<!--  spline  -->
<polyline points="481,13112
480,13114
478,13118
477,13120
476,13123
474,13126
471,13131
467,13136
463,13141
461,13143
460,13144
458,13146
452,13148
448,13149
445,13149
443,13149
443,13150
442,13150
440,13149
437,13148
432,13144
425,13137
420,13129
415,13122
411,13115
409,13112
409,13111
408,13110
405,13105
398,13095
391,13085
388,13080
387,13079
386,13079
384,13077
379,13076
374,13075
367,13075
361,13077
359,13079
358,13080
356,13082
351,13087
347,13092
345,13095
345,13096
344,13099
341,13103
339,13107
338,13109
337,13110
337,13111
336,13113
335,13117
334,13119
333,13122
330,13125
327,13130
323,13135
318,13140
317,13142
316,13143
314,13145
308,13147
304,13148
301,13148
299,13148
299,13149
298,13149
296,13148
293,13147
288,13143
281,13136
276,13129
272,13122
268,13115
266,13112
266,13111
265,13110
261,13105
254,13095
248,13085
244,13080
243,13079
242,13079
240,13077
236,13076
231,13075
224,13075
218,13077
216,13079
215,13080
213,13082
208,13087
204,13092
202,13095
202,13096
201,13098
198,13103
196,13107
195,13110
194,13111
194,13112
193,13114
191,13118
190,13120
189,13123
187,13126
184,13131
180,13136
175,13141
173,13143
172,13144
170,13146
164,13148
160,13149
157,13149
156,13149
155,13150
154,13150
153,13149
150,13148
145,13144
138,13137
133,13129
128,13122
124,13115
122,13112
122,13111
121,13110
118,13105
111,13095
104,13085
101,13080
100,13079
99,13079
97,13077
92,13076
87,13075
80,13075
74,13077
72,13079
71,13080
70,13082
65,13087
61,13092
59,13095
58,13096
57,13099
54,13103
52,13107
51,13109
51,13110
51,13111
" style="stroke:#000000;stroke-width:7;
stroke-linejoin:bevel; stroke-linecap:round;
"/>
<!-- Line -->
<!--  spline  -->
<polyline points="51,13112
52,13114
53,13118
54,13120
55,13123
58,13126
61,13131
65,13136
70,13141
71,13143
72,13144
74,13146
80,13148
84,13149
87,13149
89,13149
89,13150
90,13150
92,13149
95,13148
100,13144
107,13137
112,13129
116,13122
120,13115
122,13112
122,13111
123,13110
127,13105
134,13095
140,13085
144,13080
145,13079
146,13079
148,13077
153,13076
158,13075
165,13075
171,13077
173,13079
174,13080
175,13082
180,13087
184,13092
186,13095
187,13096
188,13099
191,13103
193,13107
194,13109
194,13110
194,13111
195,13113
197,13117
198,13119
199,13122
201,13125
204,13130
208,13135
213,13140
215,13142
216,13143
218,13145
224,13147
228,13148
231,13148
233,13148
234,13149
236,13148
239,13147
244,13143
251,13136
256,13129
260,13122
264,13115
266,13112
266,13111
267,13110
271,13105
278,13095
284,13085
288,13080
289,13079
290,13079
292,13077
296,13076
301,13075
308,13075
314,13077
316,13079
317,13080
319,13082
324,13087
328,13092
330,13095
330,13096
331,13098
334,13103
336,13107
337,13110
338,13111
338,13112
339,13114
340,13118
341,13120
342,13123
345,13126
348,13131
352,13136
357,13141
358,13143
359,13144
361,13146
367,13148
371,13149
374,13149
376,13149
376,13150
377,13150
379,13149
382,13148
387,13144
394,13137
399,13129
403,13122
407,13115
409,13112
409,13111
410,13110
414,13105
421,13095
427,13085
431,13080
432,13079
433,13079
435,13077
440,13076
445,13075
452,13075
458,13077
460,13079
461,13080
463,13082
467,13087
471,13092
473,13095
473,13096
474,13099
477,13103
479,13107
480,13109
481,13110
481,13111
" style="stroke:#000000;stroke-width:15;
stroke-linejoin:bevel; stroke-linecap:round;
"/>
<!-- Line -->
<!--  spline  -->
<polyline points="474,13112
473,13114
471,13118
470,13120
469,13123
467,13126
464,13131
460,13136
455,13141
453,13143
452,13144
450,13146
444,13148
440,13149
437,13149
435,13149
435,13150
434,13150
432,13149
429,13148
424,13144
417,13137
412,13129
408,13122
404,13115
402,13112
402,13111
401,13110
397,13105
390,13095
384,13085
380,13080
379,13079
378,13079
376,13077
372,13076
367,13075
360,13075
354,13077
352,13079
351,13080
349,13082
344,13087
340,13092
338,13095
338,13096
337,13099
334,13103
332,13107
331,13109
330,13110
330,13111
329,13113
327,13117
326,13119
325,13122
323,13125
320,13130
316,13135
311,13140
309,13142
308,13143
306,13145
300,13147
296,13148
293,13148
292,13148
291,13149
290,13149
289,13148
286,13147
281,13143
274,13136
269,13129
264,13122
260,13115
258,13112
258,13111
257,13110
254,13105
247,13095
240,13085
237,13080
236,13079
235,13079
233,13077
228,13076
223,13075
216,13075
210,13077
208,13079
207,13080
205,13082
200,13087
196,13092
194,13095
194,13096
193,13098
190,13103
188,13107
187,13110
186,13111
186,13112
185,13114
184,13118
183,13120
182,13123
179,13126
176,13131
172,13136
167,13141
166,13143
165,13144
163,13146
157,13148
153,13149
150,13149
148,13149
148,13150
147,13150
145,13149
142,13148
137,13144
130,13137
125,13129
121,13122
117,13115
115,13112
115,13111
114,13110
110,13105
103,13095
97,13085
93,13080
92,13079
91,13079
89,13077
85,13076
80,13075
73,13075
67,13077
65,13079
64,13080
62,13082
57,13087
53,13092
51,13095
51,13096
50,13099
47,13103
45,13107
44,13109
43,13110
43,13111
" style="stroke:#ffffff;stroke-width:7;
stroke-linejoin:bevel; stroke-linecap:round;
"/>
<!-- Line -->
<!--  spline  -->
<polyline points="43,13112
44,13114
46,13118
47,13120
48,13123
50,13126
53,13131
57,13136
62,13141
64,13143
65,13144
67,13146
73,13148
77,13149
80,13149
81,13149
82,13150
83,13150
84,13149
87,13148
92,13144
99,13137
104,13129
109,13122
113,13115
115,13112
115,13111
116,13110
119,13105
126,13095
133,13085
136,13080
137,13079
138,13079
140,13077
145,13076
150,13075
157,13075
163,13077
165,13079
166,13080
168,13082
173,13087
177,13092
179,13095
179,13096
180,13099
183,13103
185,13107
186,13109
187,13110
187,13111
188,13113
189,13117
190,13119
191,13122
194,13125
197,13130
201,13135
206,13140
207,13142
208,13143
210,13145
216,13147
220,13148
223,13148
225,13148
225,13149
226,13149
228,13148
231,13147
236,13143
243,13136
248,13129
252,13122
256,13115
258,13112
258,13111
259,13110
263,13105
270,13095
276,13085
280,13080
281,13079
282,13079
284,13077
289,13076
294,13075
301,13075
307,13077
309,13079
310,13080
312,13082
316,13087
320,13092
322,13095
322,13096
323,13098
326,13103
328,13107
329,13110
330,13111
330,13112
331,13114
333,13118
334,13120
335,13123
337,13126
340,13131
344,13136
349,13141
351,13143
352,13144
354,13146
360,13148
364,13149
367,13149
368,13149
369,13150
370,13150
371,13149
374,13148
379,13144
386,13137
391,13129
396,13122
400,13115
402,13112
402,13111
403,13110
406,13105
413,13095
420,13085
423,13080
424,13079
425,13079
427,13077
432,13076
437,13075
444,13075
450,13077
452,13079
453,13080
455,13082
460,13087
464,13092
466,13095
466,13096
467,13099
470,13103
472,13107
473,13109
474,13110
474,13111
" style="stroke:#ffffff;stroke-width:15;
stroke-linejoin:bevel; stroke-linecap:round;
"/>
<!-- Line -->
<!--  polyline  -->
<polyline points="10,12868
138,12773
607,12773
514,12868
10,12868
" style="stroke:#02709f;stroke-width:0;
stroke-linejoin:miter; stroke-linecap:round;
fill:#02709f;
"/>
<!-- Line -->
<!--  polyline  -->
<polyline points="10,12868
138,12773
607,12773
514,12868
10,12868
" style="stroke:#ffffff;stroke-width:7;
stroke-linejoin:miter; stroke-linecap:butt;
"/>
<!-- Line -->
<!--  polyline  -->
<polyline points="514,13192
607,13097
607,12773
514,12868
514,13192
" style="stroke:#02709f;stroke-width:0;
stroke-linejoin:miter; stroke-linecap:butt;
fill:#02709f;
"/>
<!-- Line -->
<!--  polyline  -->
<polyline points="514,13192
607,13097
607,12773
514,12868
514,13192
" style="stroke:#ffffff;stroke-width:7;
stroke-linejoin:miter; stroke-linecap:butt;
"/>
<!-- Line -->
<!--  polyline  -->
<polyline points="514,13192
514,12868
11,12868
11,13192
514,13192
" style="stroke:#02709f;stroke-width:0;
stroke-linejoin:miter; stroke-linecap:butt;
fill:#02709f;
"/>
<!-- Line -->
<!--  polyline  -->
<polyline points="514,13192
514,12868
11,12868
11,13192
514,13192
" style="stroke:#ffffff;stroke-width:7;
stroke-linejoin:miter; stroke-linecap:butt;
"/>
<!-- Line -->
<!--  spline  -->
<polyline points="474,12951
473,12953
471,12957
470,12959
469,12962
467,12965
464,12970
460,12975
455,12980
453,12982
452,12983
450,12985
444,12987
440,12988
437,12988
435,12988
435,12989
434,12989
432,12988
429,12987
424,12983
417,12976
412,12968
408,12961
404,12954
402,12951
402,12950
401,12949
397,12944
390,12934
384,12924
380,12919
379,12918
378,12918
376,12916
372,12915
367,12914
360,12914
354,12916
352,12918
351,12919
349,12921
344,12926
340,12931
338,12934
338,12935
337,12938
334,12942
332,12946
331,12948
330,12949
330,12950
329,12952
327,12956
326,12958
325,12961
323,12964
320,12969
316,12974
311,12979
309,12981
308,12983
306,12985
300,12987
296,12988
293,12988
292,12988
291,12988
290,12988
289,12988
286,12986
281,12982
274,12975
269,12968
264,12961
260,12954
258,12951
258,12950
257,12949
254,12944
247,12934
240,12924
237,12919
236,12918
235,12918
233,12916
228,12915
223,12914
216,12914
210,12916
208,12918
207,12919
205,12921
200,12926
196,12931
194,12934
194,12936
193,12938
190,12943
188,12947
187,12949
186,12950
186,12951
185,12953
184,12957
183,12959
182,12962
179,12965
176,12970
172,12975
167,12980
166,12982
165,12983
163,12985
157,12987
153,12988
150,12988
148,12988
148,12989
147,12989
145,12988
142,12987
137,12983
130,12976
125,12968
121,12961
117,12954
115,12951
115,12950
114,12949
110,12944
103,12934
97,12924
93,12919
92,12918
91,12918
89,12916
85,12915
80,12914
73,12914
67,12916
65,12918
64,12919
62,12921
57,12926
53,12931
51,12934
51,12935
50,12938
47,12942
45,12946
44,12948
43,12949
43,12950
" style="stroke:#ffffff;stroke-width:7;
stroke-linejoin:bevel; stroke-linecap:round;
"/>
<!-- Line -->
<!--  spline  -->
<polyline points="43,12951
44,12953
46,12957
47,12959
48,12962
50,12965
53,12970
57,12975
62,12980
64,12982
65,12983
67,12985
73,12987
77,12988
80,12988
81,12988
82,12989
83,12989
84,12988
87,12987
92,12983
99,12976
104,12968
109,12961
113,12954
115,12951
115,12950
116,12949
119,12944
126,12934
133,12924
136,12919
137,12918
138,12918
140,12916
145,12915
150,12914
157,12914
163,12916
165,12918
166,12919
168,12921
173,12926
177,12931
179,12934
179,12935
180,12938
183,12942
185,12946
186,12948
187,12949
187,12950
188,12952
189,12956
190,12958
191,12961
194,12964
197,12969
201,12974
206,12979
207,12981
208,12983
210,12985
216,12987
221,12988
224,12988
225,12988
227,12988
230,12987
236,12982
243,12975
248,12968
252,12961
256,12954
258,12951
258,12950
259,12949
263,12944
270,12934
276,12924
280,12919
281,12918
282,12918
284,12916
289,12915
294,12914
301,12914
307,12916
309,12918
310,12919
312,12921
316,12926
320,12931
322,12934
322,12936
323,12938
326,12943
328,12947
329,12949
330,12950
330,12951
331,12953
333,12957
334,12959
335,12962
337,12965
340,12970
344,12975
349,12980
351,12982
352,12983
354,12985
360,12987
364,12988
367,12988
368,12988
369,12989
370,12989
371,12988
374,12987
379,12983
386,12976
391,12968
396,12961
400,12954
402,12951
402,12950
403,12949
406,12944
413,12934
420,12924
423,12919
424,12918
425,12918
427,12916
432,12915
437,12914
444,12914
450,12916
452,12918
453,12919
455,12921
460,12926
464,12931
466,12934
466,12935
467,12938
470,12942
472,12946
473,12948
474,12949
474,12950
" style="stroke:#ffffff;stroke-width:15;
stroke-linejoin:bevel; stroke-linecap:round;
"/>
<!-- Line -->
<!--  spline  -->
<polyline points="481,12951
480,12953
478,12957
477,12959
476,12962
474,12965
471,12970
467,12975
463,12980
461,12982
460,12983
458,12985
452,12987
448,12988
445,12988
443,12988
443,12989
442,12989
440,12988
437,12987
432,12983
425,12976
420,12968
415,12961
411,12954
409,12951
409,12950
408,12949
405,12944
398,12934
391,12924
388,12919
387,12918
386,12918
384,12916
379,12915
374,12914
367,12914
361,12916
359,12918
358,12919
356,12921
351,12926
347,12931
345,12934
345,12935
344,12938
341,12942
339,12946
338,12948
337,12949
337,12950
336,12952
335,12956
334,12958
333,12961
330,12964
327,12969
323,12974
318,12979
317,12981
316,12983
314,12985
308,12987
303,12988
300,12988
299,12988
297,12988
294,12987
288,12982
281,12975
276,12968
272,12961
268,12954
266,12951
266,12950
265,12949
261,12944
254,12934
248,12924
244,12919
243,12918
242,12918
240,12916
236,12915
231,12914
224,12914
218,12916
216,12918
215,12919
213,12921
208,12926
204,12931
202,12934
202,12936
201,12938
198,12943
196,12947
195,12949
194,12950
194,12951
193,12953
191,12957
190,12959
189,12962
187,12965
184,12970
180,12975
175,12980
173,12982
172,12983
170,12985
164,12987
160,12988
157,12988
156,12988
155,12989
154,12989
153,12988
150,12987
145,12983
138,12976
133,12968
128,12961
124,12954
122,12951
122,12950
121,12949
118,12944
111,12934
104,12924
101,12919
100,12918
99,12918
97,12916
92,12915
87,12914
80,12914
74,12916
72,12918
71,12919
70,12921
65,12926
61,12931
59,12934
58,12935
57,12938
54,12942
52,12946
51,12948
51,12949
51,12950
" style="stroke:#000000;stroke-width:7;
stroke-linejoin:bevel; stroke-linecap:round;
"/>
<!-- Line -->
<!--  spline  -->
<polyline points="51,12951
52,12953
53,12957
54,12959
55,12962
58,12965
61,12970
65,12975
70,12980
71,12982
72,12983
74,12985
80,12987
84,12988
87,12988
89,12988
89,12989
90,12989
92,12988
95,12987
100,12983
107,12976
112,12968
116,12961
120,12954
122,12951
122,12950
123,12949
127,12944
134,12934
140,12924
144,12919
145,12918
146,12918
148,12916
153,12915
158,12914
165,12914
171,12916
173,12918
174,12919
175,12921
180,12926
184,12931
186,12934
187,12935
188,12938
191,12942
193,12946
194,12948
194,12949
194,12950
195,12952
197,12956
198,12958
199,12961
201,12964
204,12969
208,12974
213,12979
215,12981
216,12983
218,12985
224,12987
229,12988
232,12988
234,12988
235,12988
238,12987
244,12982
251,12975
256,12968
260,12961
264,12954
266,12951
266,12950
267,12949
271,12944
278,12934
284,12924
288,12919
289,12918
290,12918
292,12916
296,12915
301,12914
308,12914
314,12916
316,12918
317,12919
319,12921
324,12926
328,12931
330,12934
330,12936
331,12938
334,12943
336,12947
337,12949
338,12950
338,12951
339,12953
340,12957
341,12959
342,12962
345,12965
348,12970
352,12975
357,12980
358,12982
359,12983
361,12985
367,12987
371,12988
374,12988
376,12988
376,12989
377,12989
379,12988
382,12987
387,12983
394,12976
399,12968
403,12961
407,12954
409,12951
409,12950
410,12949
414,12944
421,12934
427,12924
431,12919
432,12918
433,12918
435,12916
440,12915
445,12914
452,12914
458,12916
460,12918
461,12919
463,12921
467,12926
471,12931
473,12934
473,12935
474,12938
477,12942
479,12946
480,12948
481,12949
481,12950
" style="stroke:#000000;stroke-width:15;
stroke-linejoin:bevel; stroke-linecap:round;
"/>
<!-- Line -->
<!--  spline  -->
<polyline points="474,12951
473,12953
471,12957
470,12959
469,12962
467,12965
464,12970
460,12975
455,12980
453,12982
452,12983
450,12985
444,12987
440,12988
437,12988
435,12988
435,12989
434,12989
432,12988
429,12987
424,12983
417,12976
412,12968
408,12961
404,12954
402,12951
402,12950
401,12949
397,12944
390,12934
384,12924
380,12919
379,12918
378,12918
376,12916
372,12915
367,12914
360,12914
354,12916
352,12918
351,12919
349,12921
344,12926
340,12931
338,12934
338,12935
337,12938
334,12942
332,12946
331,12948
330,12949
330,12950
329,12952
327,12956
326,12958
325,12961
323,12964
320,12969
316,12974
311,12979
309,12981
308,12983
306,12985
300,12987
296,12988
293,12988
292,12988
291,12988
290,12988
289,12988
286,12986
281,12982
274,12975
269,12968
264,12961
260,12954
258,12951
258,12950
257,12949
254,12944
247,12934
240,12924
237,12919
236,12918
235,12918
233,12916
228,12915
223,12914
216,12914
210,12916
208,12918
207,12919
205,12921
200,12926
196,12931
194,12934
194,12936
193,12938
190,12943
188,12947
187,12949
186,12950
186,12951
185,12953
184,12957
183,12959
182,12962
179,12965
176,12970
172,12975
167,12980
166,12982
165,12983
163,12985
157,12987
153,12988
150,12988
148,12988
148,12989
147,12989
145,12988
142,12987
137,12983
130,12976
125,12968
121,12961
117,12954
115,12951
115,12950
114,12949
110,12944
103,12934
97,12924
93,12919
92,12918
91,12918
89,12916
85,12915
80,12914
73,12914
67,12916
65,12918
64,12919
62,12921
57,12926
53,12931
51,12934
51,12935
50,12938
47,12942
45,12946
44,12948
43,12949
43,12950
" style="stroke:#ffffff;stroke-width:7;
stroke-linejoin:bevel; stroke-linecap:round;
"/>
<!-- Line -->
<!--  spline  -->
<polyline points="43,12951
44,12953
46,12957
47,12959
48,12962
50,12965
53,12970
57,12975
62,12980
64,12982
65,12983
67,12985
73,12987
77,12988
80,12988
81,12988
82,12989
83,12989
84,12988
87,12987
92,12983
99,12976
104,12968
109,12961
113,12954
115,12951
115,12950
116,12949
119,12944
126,12934
133,12924
136,12919
137,12918
138,12918
140,12916
145,12915
150,12914
157,12914
163,12916
165,12918
166,12919
168,12921
173,12926
177,12931
179,12934
179,12935
180,12938
183,12942
185,12946
186,12948
187,12949
187,12950
188,12952
189,12956
190,12958
191,12961
194,12964
197,12969
201,12974
206,12979
207,12981
208,12983
210,12985
216,12987
221,12988
224,12988
225,12988
227,12988
230,12987
236,12982
243,12975
248,12968
252,12961
256,12954
258,12951
258,12950
259,12949
263,12944
270,12934
276,12924
280,12919
281,12918
282,12918
284,12916
289,12915
294,12914
301,12914
307,12916
309,12918
310,12919
312,12921
316,12926
320,12931
322,12934
322,12936
323,12938
326,12943
328,12947
329,12949
330,12950
330,12951
331,12953
333,12957
334,12959
335,12962
337,12965
340,12970
344,12975
349,12980
351,12982
352,12983
354,12985
360,12987
364,12988
367,12988
368,12988
369,12989
370,12989
371,12988
374,12987
379,12983
386,12976
391,12968
396,12961
400,12954
402,12951
402,12950
403,12949
406,12944
413,12934
420,12924
423,12919
424,12918
425,12918
427,12916
432,12915
437,12914
444,12914
450,12916
452,12918
453,12919
455,12921
460,12926
464,12931
466,12934
466,12935
467,12938
470,12942
472,12946
473,12948
474,12949
474,12950
" style="stroke:#ffffff;stroke-width:15;
stroke-linejoin:bevel; stroke-linecap:round;
"/>
<!-- Line -->
<!--  spline  -->
<polyline points="481,12951
480,12953
478,12957
477,12959
476,12962
474,12965
471,12970
467,12975
463,12980
461,12982
460,12983
458,12985
452,12987
448,12988
445,12988
443,12988
443,12989
442,12989
440,12988
437,12987
432,12983
425,12976
420,12968
415,12961
411,12954
409,12951
409,12950
408,12949
405,12944
398,12934
391,12924
388,12919
387,12918
386,12918
384,12916
379,12915
374,12914
367,12914
361,12916
359,12918
358,12919
356,12921
351,12926
347,12931
345,12934
345,12935
344,12938
341,12942
339,12946
338,12948
337,12949
337,12950
336,12952
335,12956
334,12958
333,12961
330,12964
327,12969
323,12974
318,12979
317,12981
316,12983
314,12985
308,12987
303,12988
300,12988
299,12988
297,12988
294,12987
288,12982
281,12975
276,12968
272,12961
268,12954
266,12951
266,12950
265,12949
261,12944
254,12934
248,12924
244,12919
243,12918
242,12918
240,12916
236,12915
231,12914
224,12914
218,12916
216,12918
215,12919
213,12921
208,12926
204,12931
202,12934
202,12936
201,12938
198,12943
196,12947
195,12949
194,12950
194,12951
193,12953
191,12957
190,12959
189,12962
187,12965
184,12970
180,12975
175,12980
173,12982
172,12983
170,12985
164,12987
160,12988
157,12988
156,12988
155,12989
154,12989
153,12988
150,12987
145,12983
138,12976
133,12968
128,12961
124,12954
122,12951
122,12950
121,12949
118,12944
111,12934
104,12924
101,12919
100,12918
99,12918
97,12916
92,12915
87,12914
80,12914
74,12916
72,12918
71,12919
70,12921
65,12926
61,12931
59,12934
58,12935
57,12938
54,12942
52,12946
51,12948
51,12949
51,12950
" style="stroke:#000000;stroke-width:7;
stroke-linejoin:bevel; stroke-linecap:round;
"/>
<!-- Line -->
<!--  spline  -->
<polyline points="51,12951
52,12953
53,12957
54,12959
55,12962
58,12965
61,12970
65,12975
70,12980
71,12982
72,12983
74,12985
80,12987
84,12988
87,12988
89,12988
89,12989
90,12989
92,12988
95,12987
100,12983
107,12976
112,12968
116,12961
120,12954
122,12951
122,12950
123,12949
127,12944
134,12934
140,12924
144,12919
145,12918
146,12918
148,12916
153,12915
158,12914
165,12914
171,12916
173,12918
174,12919
175,12921
180,12926
184,12931
186,12934
187,12935
188,12938
191,12942
193,12946
194,12948
194,12949
194,12950
195,12952
197,12956
198,12958
199,12961
201,12964
204,12969
208,12974
213,12979
215,12981
216,12983
218,12985
224,12987
229,12988
232,12988
234,12988
235,12988
238,12987
244,12982
251,12975
256,12968
260,12961
264,12954
266,12951
266,12950
267,12949
271,12944
278,12934
284,12924
288,12919
289,12918
290,12918
292,12916
296,12915
301,12914
308,12914
314,12916
316,12918
317,12919
319,12921
324,12926
328,12931
330,12934
330,12936
331,12938
334,12943
336,12947
337,12949
338,12950
338,12951
339,12953
340,12957
341,12959
342,12962
345,12965
348,12970
352,12975
357,12980
358,12982
359,12983
361,12985
367,12987
371,12988
374,12988
376,12988
376,12989
377,12989
379,12988
382,12987
387,12983
394,12976
399,12968
403,12961
407,12954
409,12951
409,12950
410,12949
414,12944
421,12934
427,12924
431,12919
432,12918
433,12918
435,12916
440,12915
445,12914
452,12914
458,12916
460,12918
461,12919
463,12921
467,12926
471,12931
473,12934
473,12935
474,12938
477,12942
479,12946
480,12948
481,12949
481,12950
" style="stroke:#000000;stroke-width:15;
stroke-linejoin:bevel; stroke-linecap:round;
"/>
<!-- Line -->
<!--  spline  -->
<polyline points="474,12951
473,12953
471,12957
470,12959
469,12962
467,12965
464,12970
460,12975
455,12980
453,12982
452,12983
450,12985
444,12987
440,12988
437,12988
435,12988
435,12989
434,12989
432,12988
429,12987
424,12983
417,12976
412,12968
408,12961
404,12954
402,12951
402,12950
401,12949
397,12944
390,12934
384,12924
380,12919
379,12918
378,12918
376,12916
372,12915
367,12914
360,12914
354,12916
352,12918
351,12919
349,12921
344,12926
340,12931
338,12934
338,12935
337,12938
334,12942
332,12946
331,12948
330,12949
330,12950
329,12952
327,12956
326,12958
325,12961
323,12964
320,12969
316,12974
311,12979
309,12981
308,12983
306,12985
300,12987
296,12988
293,12988
292,12988
291,12988
290,12988
289,12988
286,12986
281,12982
274,12975
269,12968
264,12961
260,12954
258,12951
258,12950
257,12949
254,12944
247,12934
240,12924
237,12919
236,12918
235,12918
233,12916
228,12915
223,12914
216,12914
210,12916
208,12918
207,12919
205,12921
200,12926
196,12931
194,12934
194,12936
193,12938
190,12943
188,12947
187,12949
186,12950
186,12951
185,12953
184,12957
183,12959
182,12962
179,12965
176,12970
172,12975
167,12980
166,12982
165,12983
163,12985
157,12987
153,12988
150,12988
148,12988
148,12989
147,12989
145,12988
142,12987
137,12983
130,12976
125,12968
121,12961
117,12954
115,12951
115,12950
114,12949
110,12944
103,12934
97,12924
93,12919
92,12918
91,12918
89,12916
85,12915
80,12914
73,12914
67,12916
65,12918
64,12919
62,12921
57,12926
53,12931
51,12934
51,12935
50,12938
47,12942
45,12946
44,12948
43,12949
43,12950
" style="stroke:#ffffff;stroke-width:7;
stroke-linejoin:bevel; stroke-linecap:round;
"/>
<!-- Line -->
<!--  spline  -->
<polyline points="43,12951
44,12953
46,12957
47,12959
48,12962
50,12965
53,12970
57,12975
62,12980
64,12982
65,12983
67,12985
73,12987
77,12988
80,12988
81,12988
82,12989
83,12989
84,12988
87,12987
92,12983
99,12976
104,12968
109,12961
113,12954
115,12951
115,12950
116,12949
119,12944
126,12934
133,12924
136,12919
137,12918
138,12918
140,12916
145,12915
150,12914
157,12914
163,12916
165,12918
166,12919
168,12921
173,12926
177,12931
179,12934
179,12935
180,12938
183,12942
185,12946
186,12948
187,12949
187,12950
188,12952
189,12956
190,12958
191,12961
194,12964
197,12969
201,12974
206,12979
207,12981
208,12983
210,12985
216,12987
221,12988
224,12988
225,12988
227,12988
230,12987
236,12982
243,12975
248,12968
252,12961
256,12954
258,12951
258,12950
259,12949
263,12944
270,12934
276,12924
280,12919
281,12918
282,12918
284,12916
289,12915
294,12914
301,12914
307,12916
309,12918
310,12919
312,12921
316,12926
320,12931
322,12934
322,12936
323,12938
326,12943
328,12947
329,12949
330,12950
330,12951
331,12953
333,12957
334,12959
335,12962
337,12965
340,12970
344,12975
349,12980
351,12982
352,12983
354,12985
360,12987
364,12988
367,12988
368,12988
369,12989
370,12989
371,12988
374,12987
379,12983
386,12976
391,12968
396,12961
400,12954
402,12951
402,12950
403,12949
406,12944
413,12934
420,12924
423,12919
424,12918
425,12918
427,12916
432,12915
437,12914
444,12914
450,12916
452,12918
453,12919
455,12921
460,12926
464,12931
466,12934
466,12935
467,12938
470,12942
472,12946
473,12948
474,12949
474,12950
" style="stroke:#ffffff;stroke-width:15;
stroke-linejoin:bevel; stroke-linecap:round;
"/>
<!-- Line -->
<!--  spline  -->
<polyline points="481,13112
480,13114
478,13118
477,13120
476,13123
474,13126
471,13131
467,13136
463,13141
461,13143
460,13144
458,13146
452,13148
448,13149
445,13149
443,13149
443,13150
442,13150
440,13149
437,13148
432,13144
425,13137
420,13129
415,13122
411,13115
409,13112
409,13111
408,13110
405,13105
398,13095
391,13085
388,13080
387,13079
386,13079
384,13077
379,13076
374,13075
367,13075
361,13077
359,13079
358,13080
356,13082
351,13087
347,13092
345,13095
345,13096
344,13099
341,13103
339,13107
338,13109
337,13110
337,13111
336,13113
335,13117
334,13119
333,13122
330,13125
327,13130
323,13135
318,13140
317,13142
316,13143
314,13145
308,13147
304,13148
301,13148
299,13148
299,13149
298,13149
296,13148
293,13147
288,13143
281,13136
276,13129
272,13122
268,13115
266,13112
266,13111
265,13110
261,13105
254,13095
248,13085
244,13080
243,13079
242,13079
240,13077
236,13076
231,13075
224,13075
218,13077
216,13079
215,13080
213,13082
208,13087
204,13092
202,13095
202,13096
201,13098
198,13103
196,13107
195,13110
194,13111
194,13112
193,13114
191,13118
190,13120
189,13123
187,13126
184,13131
180,13136
175,13141
173,13143
172,13144
170,13146
164,13148
160,13149
157,13149
156,13149
155,13150
154,13150
153,13149
150,13148
145,13144
138,13137
133,13129
128,13122
124,13115
122,13112
122,13111
121,13110
118,13105
111,13095
104,13085
101,13080
100,13079
99,13079
97,13077
92,13076
87,13075
80,13075
74,13077
72,13079
71,13080
70,13082
65,13087
61,13092
59,13095
58,13096
57,13099
54,13103
52,13107
51,13109
51,13110
51,13111
" style="stroke:#000000;stroke-width:7;
stroke-linejoin:bevel; stroke-linecap:round;
"/>
<!-- Line -->
<!--  spline  -->
<polyline points="51,13112
52,13114
53,13118
54,13120
55,13123
58,13126
61,13131
65,13136
70,13141
71,13143
72,13144
74,13146
80,13148
84,13149
87,13149
89,13149
89,13150
90,13150
92,13149
95,13148
100,13144
107,13137
112,13129
116,13122
120,13115
122,13112
122,13111
123,13110
127,13105
134,13095
140,13085
144,13080
145,13079
146,13079
148,13077
153,13076
158,13075
165,13075
171,13077
173,13079
174,13080
175,13082
180,13087
184,13092
186,13095
187,13096
188,13099
191,13103
193,13107
194,13109
194,13110
194,13111
195,13113
197,13117
198,13119
199,13122
201,13125
204,13130
208,13135
213,13140
215,13142
216,13143
218,13145
224,13147
228,13148
231,13148
233,13148
234,13149
236,13148
239,13147
244,13143
251,13136
256,13129
260,13122
264,13115
266,13112
266,13111
267,13110
271,13105
278,13095
284,13085
288,13080
289,13079
290,13079
292,13077
296,13076
301,13075
308,13075
314,13077
316,13079
317,13080
319,13082
324,13087
328,13092
330,13095
330,13096
331,13098
334,13103
336,13107
337,13110
338,13111
338,13112
339,13114
340,13118
341,13120
342,13123
345,13126
348,13131
352,13136
357,13141
358,13143
359,13144
361,13146
367,13148
371,13149
374,13149
376,13149
376,13150
377,13150
379,13149
382,13148
387,13144
394,13137
399,13129
403,13122
407,13115
409,13112
409,13111
410,13110
414,13105
421,13095
427,13085
431,13080
432,13079
433,13079
435,13077
440,13076
445,13075
452,13075
458,13077
460,13079
461,13080
463,13082
467,13087
471,13092
473,13095
473,13096
474,13099
477,13103
479,13107
480,13109
481,13110
481,13111
" style="stroke:#000000;stroke-width:15;
stroke-linejoin:bevel; stroke-linecap:round;
"/>
<!-- Line -->
<!--  spline  -->
<polyline points="474,13112
473,13114
471,13118
470,13120
469,13123
467,13126
464,13131
460,13136
455,13141
453,13143
452,13144
450,13146
444,13148
440,13149
437,13149
435,13149
435,13150
434,13150
432,13149
429,13148
424,13144
417,13137
412,13129
408,13122
404,13115
402,13112
402,13111
401,13110
397,13105
390,13095
384,13085
380,13080
379,13079
378,13079
376,13077
372,13076
367,13075
360,13075
354,13077
352,13079
351,13080
349,13082
344,13087
340,13092
338,13095
338,13096
337,13099
334,13103
332,13107
331,13109
330,13110
330,13111
329,13113
327,13117
326,13119
325,13122
323,13125
320,13130
316,13135
311,13140
309,13142
308,13143
306,13145
300,13147
296,13148
293,13148
292,13148
291,13149
290,13149
289,13148
286,13147
281,13143
274,13136
269,13129
264,13122
260,13115
258,13112
258,13111
257,13110
254,13105
247,13095
240,13085
237,13080
236,13079
235,13079
233,13077
228,13076
223,13075
216,13075
210,13077
208,13079
207,13080
205,13082
200,13087
196,13092
194,13095
194,13096
193,13098
190,13103
188,13107
187,13110
186,13111
186,13112
185,13114
184,13118
183,13120
182,13123
179,13126
176,13131
172,13136
167,13141
166,13143
165,13144
163,13146
157,13148
153,13149
150,13149
148,13149
148,13150
147,13150
145,13149
142,13148
137,13144
130,13137
125,13129
121,13122
117,13115
115,13112
115,13111
114,13110
110,13105
103,13095
97,13085
93,13080
92,13079
91,13079
89,13077
85,13076
80,13075
73,13075
67,13077
65,13079
64,13080
62,13082
57,13087
53,13092
51,13095
51,13096
50,13099
47,13103
45,13107
44,13109
43,13110
43,13111
" style="stroke:#ffffff;stroke-width:7;
stroke-linejoin:bevel; stroke-linecap:round;
"/>
<!-- Line -->
<!--  spline  -->
<polyline points="43,13112
44,13114
46,13118
47,13120
48,13123
50,13126
53,13131
57,13136
62,13141
64,13143
65,13144
67,13146
73,13148
77,13149
80,13149
81,13149
82,13150
83,13150
84,13149
87,13148
92,13144
99,13137
104,13129
109,13122
113,13115
115,13112
115,13111
116,13110
119,13105
126,13095
133,13085
136,13080
137,13079
138,13079
140,13077
145,13076
150,13075
157,13075
163,13077
165,13079
166,13080
168,13082
173,13087
177,13092
179,13095
179,13096
180,13099
183,13103
185,13107
186,13109
187,13110
187,13111
188,13113
189,13117
190,13119
191,13122
194,13125
197,13130
201,13135
206,13140
207,13142
208,13143
210,13145
216,13147
220,13148
223,13148
225,13148
225,13149
226,13149
228,13148
231,13147
236,13143
243,13136
248,13129
252,13122
256,13115
258,13112
258,13111
259,13110
263,13105
270,13095
276,13085
280,13080
281,13079
282,13079
284,13077
289,13076
294,13075
301,13075
307,13077
309,13079
310,13080
312,13082
316,13087
320,13092
322,13095
322,13096
323,13098
326,13103
328,13107
329,13110
330,13111
330,13112
331,13114
333,13118
334,13120
335,13123
337,13126
340,13131
344,13136
349,13141
351,13143
352,13144
354,13146
360,13148
364,13149
367,13149
368,13149
369,13150
370,13150
371,13149
374,13148
379,13144
386,13137
391,13129
396,13122
400,13115
402,13112
402,13111
403,13110
406,13105
413,13095
420,13085
423,13080
424,13079
425,13079
427,13077
432,13076
437,13075
444,13075
450,13077
452,13079
453,13080
455,13082
460,13087
464,13092
466,13095
466,13096
467,13099
470,13103
472,13107
473,13109
474,13110
474,13111
" style="stroke:#ffffff;stroke-width:15;
stroke-linejoin:bevel; stroke-linecap:round;
"/>
</g>
</svg>
