<?xml version="1.0" standalone="no"?>
<!DOCTYPE svg PUBLIC "-//W3C//DTD SVG 1.1//EN"
"http://www.w3.org/Graphics/SVG/1.1/DTD/svg11.dtd">
<!-- Creator: fig2dev Version 3.2 Patchlevel 5c -->
<!-- CreationDate: Fri Sep 14 10:46:21 2012 -->
<!-- Magnification: 1.000 -->
<svg xmlns="http://www.w3.org/2000/svg" width="0.4in" height="0.4in" viewBox="-3 12741 458 463">
<g style="stroke-width:.025in; fill:none">
<!-- Line -->
<!--  polyline  -->
<polyline points="369,13192
369,12826
9,12826
9,13192
369,13192
" style="stroke:#02709f;stroke-width:0;
stroke-linejoin:miter; stroke-linecap:butt;
fill:#02709f;
"/>
<!-- Line -->
<!--  polyline  -->
<polyline points="369,13192
369,12826
9,12826
9,13192
369,13192
" style="stroke:#ffffff;stroke-width:7;
stroke-linejoin:miter; stroke-linecap:butt;
"/>
<!-- Line -->
<!--  polyline  -->
<polyline points="197,12948
308,12948
" style="stroke:#000000;stroke-width:0;
stroke-linejoin:miter; stroke-linecap:butt;
fill:#000000;
"/>
<!-- Line -->
<!--  polyline  -->
<polyline points="197,12948
308,12948
" style="stroke:#ffffff;stroke-width:7;
stroke-linejoin:miter; stroke-linecap:butt;
"/>
<!-- Line -->
<!--  polyline  -->
<polyline points="197,13076
308,13076
" style="stroke:#000000;stroke-width:0;
stroke-linejoin:miter; stroke-linecap:butt;
fill:#000000;
"/>
<!-- Line -->
<!--  polyline  -->
<polyline points="197,13076
308,13076
" style="stroke:#ffffff;stroke-width:7;
stroke-linejoin:miter; stroke-linecap:butt;
"/>
<!-- Line -->
<!--  polyline  -->
<polyline points="163,13013
163,12902
" style="stroke:#000000;stroke-width:0;
stroke-linejoin:miter; stroke-linecap:butt;
fill:#000000;
"/>
<!-- Line -->
<!--  polyline  -->
<polyline points="163,13013
163,12902
" style="stroke:#ffffff;stroke-width:7;
stroke-linejoin:miter; stroke-linecap:butt;
"/>
<!-- Line -->
<!--  polyline  -->
<polyline points="261,13012
261,13122
" style="stroke:#ffffff;stroke-width:15;
stroke-linejoin:miter; stroke-linecap:butt;
"/>
<!-- Line -->
<!--  polyline  -->
<polyline points="135,13012
135,13122
" style="stroke:#000000;stroke-width:0;
stroke-linejoin:miter; stroke-linecap:butt;
fill:#000000;
"/>
<!-- Line -->
<!--  polyline  -->
<polyline points="135,13012
135,13122
" style="stroke:#ffffff;stroke-width:7;
stroke-linejoin:miter; stroke-linecap:butt;
"/>
<!-- Line -->
<!--  polyline  -->
<polyline points="199,12949
88,12949
" style="stroke:#000000;stroke-width:0;
stroke-linejoin:miter; stroke-linecap:butt;
fill:#000000;
"/>
<!-- Line -->
<!--  polyline  -->
<polyline points="199,12949
88,12949
" style="stroke:#ffffff;stroke-width:7;
stroke-linejoin:miter; stroke-linecap:butt;
"/>
<!-- Line -->
<!--  polyline  -->
<polyline points="443,12753
443,12753
443,13117
369,13192
369,12828
443,12753
" style="stroke:#02709f;stroke-width:0;
stroke-linejoin:miter; stroke-linecap:butt;
fill:#02709f;
"/>
<!-- Line -->
<!--  polyline  -->
<polyline points="443,12753
443,12753
443,13117
369,13192
369,12828
443,12753
" style="stroke:#ffffff;stroke-width:7;
stroke-linejoin:miter; stroke-linecap:butt;
"/>
<!-- Line -->
<!--  polyline  -->
<polyline points="369,12828
368,12825
10,12825
100,12753
443,12753
369,12828
" style="stroke:#02709f;stroke-width:0;
stroke-linejoin:miter; stroke-linecap:butt;
fill:#02709f;
"/>
<!-- Line -->
<!--  polyline  -->
<polyline points="369,12828
368,12825
10,12825
100,12753
443,12753
369,12828
" style="stroke:#ffffff;stroke-width:7;
stroke-linejoin:miter; stroke-linecap:butt;
"/>
<!-- Line -->
<!--  polyline  -->
<polyline points="192,12945
309,12945
" style="stroke:#ffffff;stroke-width:15;
stroke-linejoin:miter; stroke-linecap:butt;
"/>
<!-- Line -->
<!--  polyline  -->
<polyline points="307,12912
307,12976
346,12945
307,12912
" style="stroke:#ffffff;stroke-width:0;
stroke-linejoin:miter; stroke-linecap:butt;
fill:#ffffff;
"/>
<!-- Line -->
<!--  polyline  -->
<polyline points="307,12912
307,12976
346,12945
307,12912
" style="stroke:#ffffff;stroke-width:7;
stroke-linejoin:miter; stroke-linecap:butt;
"/>
<!-- Line -->
<!--  polyline  -->
<polyline points="192,13072
316,13072
" style="stroke:#ffffff;stroke-width:15;
stroke-linejoin:miter; stroke-linecap:butt;
"/>
<!-- Line -->
<!--  polyline  -->
<polyline points="307,13038
307,13103
346,13072
307,13038
" style="stroke:#ffffff;stroke-width:0;
stroke-linejoin:miter; stroke-linecap:butt;
fill:#ffffff;
"/>
<!-- Line -->
<!--  polyline  -->
<polyline points="307,13038
307,13103
346,13072
307,13038
" style="stroke:#ffffff;stroke-width:7;
stroke-linejoin:miter; stroke-linecap:butt;
"/>
<!-- Line -->
<!--  polyline  -->
<polyline points="158,13009
158,12904
" style="stroke:#ffffff;stroke-width:15;
stroke-linejoin:miter; stroke-linecap:butt;
"/>
<!-- Line -->
<!--  polyline  -->
<polyline points="225,13013
225,12902
" style="stroke:#ffffff;stroke-width:15;
stroke-linejoin:miter; stroke-linecap:butt;
"/>
<!-- Line -->
<!--  polyline  -->
<polyline points="220,13009
220,12904
" style="stroke:#000000;stroke-width:0;
stroke-linejoin:miter; stroke-linecap:butt;
fill:#000000;
"/>
<!-- Line -->
<!--  polyline  -->
<polyline points="220,13009
220,12904
" style="stroke:#ffffff;stroke-width:7;
stroke-linejoin:miter; stroke-linecap:butt;
"/>
<!-- Line -->
<!--  polyline  -->
<polyline points="256,13008
256,13127
" style="stroke:#000000;stroke-width:0;
stroke-linejoin:miter; stroke-linecap:butt;
fill:#000000;
"/>
<!-- Line -->
<!--  polyline  -->
<polyline points="256,13008
256,13127
" style="stroke:#ffffff;stroke-width:7;
stroke-linejoin:miter; stroke-linecap:butt;
"/>
<!-- Line -->
<!--  polyline  -->
<polyline points="288,13122
224,13122
255,13161
288,13122
" style="stroke:#ffffff;stroke-width:0;
stroke-linejoin:miter; stroke-linecap:butt;
fill:#ffffff;
"/>
<!-- Line -->
<!--  polyline  -->
<polyline points="288,13122
224,13122
255,13161
288,13122
" style="stroke:#ffffff;stroke-width:7;
stroke-linejoin:miter; stroke-linecap:butt;
"/>
<!-- Line -->
<!--  polyline  -->
<polyline points="130,13008
130,13127
" style="stroke:#ffffff;stroke-width:15;
stroke-linejoin:miter; stroke-linecap:butt;
"/>
<!-- Line -->
<!--  polyline  -->
<polyline points="163,13122
99,13122
130,13161
163,13122
" style="stroke:#ffffff;stroke-width:0;
stroke-linejoin:miter; stroke-linecap:butt;
fill:#ffffff;
"/>
<!-- Line -->
<!--  polyline  -->
<polyline points="163,13122
99,13122
130,13161
163,13122
" style="stroke:#ffffff;stroke-width:7;
stroke-linejoin:miter; stroke-linecap:butt;
"/>
<!-- Line -->
<!--  polyline  -->
<polyline points="194,13072
75,13072
" style="stroke:#ffffff;stroke-width:15;
stroke-linejoin:miter; stroke-linecap:butt;
"/>
<!-- Line -->
<!--  polyline  -->
<polyline points="79,13106
79,13042
40,13073
79,13106
" style="stroke:#ffffff;stroke-width:0;
stroke-linejoin:miter; stroke-linecap:butt;
fill:#ffffff;
"/>
<!-- Line -->
<!--  polyline  -->
<polyline points="79,13106
79,13042
40,13073
79,13106
" style="stroke:#ffffff;stroke-width:7;
stroke-linejoin:miter; stroke-linecap:butt;
"/>
<!-- Line -->
<!--  polyline  -->
<polyline points="194,12945
75,12945
" style="stroke:#ffffff;stroke-width:15;
stroke-linejoin:miter; stroke-linecap:butt;
"/>
<!-- Line -->
<!--  polyline  -->
<polyline points="79,12979
79,12915
40,12945
79,12979
" style="stroke:#ffffff;stroke-width:0;
stroke-linejoin:miter; stroke-linecap:butt;
fill:#ffffff;
"/>
<!-- Line -->
<!--  polyline  -->
<polyline points="79,12979
79,12915
40,12945
79,12979
" style="stroke:#ffffff;stroke-width:7;
stroke-linejoin:miter; stroke-linecap:butt;
"/>
<!-- Line -->
<!--  spline  -->
<polyline points="192,13086
193,13086
200,13085
209,13083
216,13082
217,13082
218,13082
221,13081
225,13079
231,13076
238,13071
244,13066
246,13064
247,13063
249,13060
254,13054
258,13047
260,13045
261,13044
262,13040
265,13033
267,13025
268,13018
269,13013
269,13010
269,13009
269,13008
268,13002
266,12992
265,12986
265,12985
265,12984
264,12982
262,12977
259,12971
254,12964
249,12958
247,12955
246,12954
244,12952
238,12947
232,12943
229,12941
228,12941
225,12940
217,12937
208,12935
202,12934
196,12933
193,12933
192,12933
191,12933
185,12934
175,12936
169,12937
168,12937
167,12937
164,12938
160,12940
154,12943
147,12947
141,12952
139,12954
138,12955
136,12958
131,12964
127,12971
125,12973
124,12974
123,12978
120,12985
118,12993
117,13000
116,13005
116,13008
116,13009
116,13010
117,13016
119,13026
120,13032
120,13033
120,13034
121,13036
123,13041
126,13047
131,13054
136,13060
138,13063
139,13064
141,13066
147,13071
153,13075
156,13077
157,13078
161,13079
168,13082
176,13084
183,13085
188,13086
191,13086
192,13086
" style="stroke:#02709f;stroke-width:0;
stroke-linejoin:bevel; stroke-linecap:butt;
fill:#02709f;
"/>
<!-- Line -->
<!--  spline  -->
<polyline points="192,13086
193,13086
200,13085
209,13083
216,13082
217,13082
218,13082
221,13081
225,13079
231,13076
238,13071
244,13066
246,13064
247,13063
249,13060
254,13054
258,13047
260,13045
261,13044
262,13040
265,13033
267,13025
268,13018
269,13013
269,13010
269,13009
269,13008
268,13002
266,12992
265,12986
265,12985
265,12984
264,12982
262,12977
259,12971
254,12964
249,12958
247,12955
246,12954
244,12952
238,12947
232,12943
229,12941
228,12941
225,12940
217,12937
208,12935
202,12934
196,12933
193,12933
192,12933
191,12933
185,12934
175,12936
169,12937
168,12937
167,12937
164,12938
160,12940
154,12943
147,12947
141,12952
139,12954
138,12955
136,12958
131,12964
127,12971
125,12973
124,12974
123,12978
120,12985
118,12993
117,13000
116,13005
116,13008
116,13009
116,13010
117,13016
119,13026
120,13032
120,13033
120,13034
121,13036
123,13041
126,13047
131,13054
136,13060
138,13063
139,13064
141,13066
147,13071
153,13075
156,13077
157,13078
161,13079
168,13082
176,13084
183,13085
188,13086
191,13086
192,13086
" style="stroke:#ffffff;stroke-width:7;
stroke-linejoin:bevel; stroke-linecap:butt;
"/>
<!-- Line -->
<!--  spline  -->
<polyline points="297,12902
298,12902
298,12901
299,12901
300,12901
301,12901
301,12900
301,12899
301,12898
301,12897
301,12891
301,12879
301,12867
301,12861
301,12860
301,12859
300,12858
299,12857
299,12856
298,12856
297,12856
296,12856
293,12856
285,12856
270,12856
249,12856
224,12856
195,12856
166,12856
141,12856
120,12856
105,12856
97,12856
94,12856
93,12856
92,12856
91,12856
90,12856
90,12857
90,12858
89,12859
89,12860
89,12861
89,12867
89,12879
89,12891
89,12897
89,12898
89,12899
89,12900
90,12901
90,12902
91,12902
92,12902
93,12902
94,12902
100,12902
112,12902
124,12902
130,12902
131,12902
131,12901
131,12898
131,12893
131,12890
131,12889
132,12889
137,12889
149,12889
168,12889
192,12889
215,12889
234,12889
246,12889
251,12889
252,12889
252,12890
252,12893
252,12898
252,12901
252,12902
253,12902
261,12902
275,12902
288,12902
296,12902
297,12902
" style="stroke:#ffffff;stroke-width:0;
stroke-linejoin:bevel; stroke-linecap:butt;
fill:#ffffff;
"/>
<!-- Line -->
<!--  spline  -->
<polyline points="297,12902
298,12902
298,12901
299,12901
300,12901
301,12901
301,12900
301,12899
301,12898
301,12897
301,12891
301,12879
301,12867
301,12861
301,12860
301,12859
300,12858
299,12857
299,12856
298,12856
297,12856
296,12856
293,12856
285,12856
270,12856
249,12856
224,12856
195,12856
166,12856
141,12856
120,12856
105,12856
97,12856
94,12856
93,12856
92,12856
91,12856
90,12856
90,12857
90,12858
89,12859
89,12860
89,12861
89,12867
89,12879
89,12891
89,12897
89,12898
89,12899
89,12900
90,12901
90,12902
91,12902
92,12902
93,12902
94,12902
100,12902
112,12902
124,12902
130,12902
131,12902
131,12901
131,12898
131,12893
131,12890
131,12889
132,12889
137,12889
149,12889
168,12889
192,12889
215,12889
234,12889
246,12889
251,12889
252,12889
252,12890
252,12893
252,12898
252,12901
252,12902
253,12902
261,12902
275,12902
288,12902
296,12902
297,12902
" style="stroke:#ffffff;stroke-width:7;
stroke-linejoin:bevel; stroke-linecap:butt;
"/>
<!-- Line -->
<!--  polyline  -->
<polyline points="167,12983
157,12983
157,12974
167,12974
167,12983
" style="stroke:#000000;stroke-width:0;
stroke-linejoin:miter; stroke-linecap:butt;
fill:#000000;
"/>
<!-- Line -->
<!--  polyline  -->
<polyline points="167,12983
157,12983
157,12974
167,12974
167,12983
" style="stroke:#ffffff;stroke-width:7;
stroke-linejoin:miter; stroke-linecap:butt;
"/>
<!-- Line -->
<!--  polyline  -->
<polyline points="167,13004
157,13004
157,12994
167,12994
167,13004
" style="stroke:#000000;stroke-width:0;
stroke-linejoin:miter; stroke-linecap:butt;
fill:#000000;
"/>
<!-- Line -->
<!--  polyline  -->
<polyline points="167,13004
157,13004
157,12994
167,12994
167,13004
" style="stroke:#ffffff;stroke-width:7;
stroke-linejoin:miter; stroke-linecap:butt;
"/>
<!-- Line -->
<!--  polyline  -->
<polyline points="167,13025
157,13025
157,13015
167,13015
167,13025
" style="stroke:#000000;stroke-width:0;
stroke-linejoin:miter; stroke-linecap:butt;
fill:#000000;
"/>
<!-- Line -->
<!--  polyline  -->
<polyline points="167,13025
157,13025
157,13015
167,13015
167,13025
" style="stroke:#ffffff;stroke-width:7;
stroke-linejoin:miter; stroke-linecap:butt;
"/>
<!-- Line -->
<!--  polyline  -->
<polyline points="167,13045
157,13045
157,13036
167,13036
167,13045
" style="stroke:#000000;stroke-width:0;
stroke-linejoin:miter; stroke-linecap:butt;
fill:#000000;
"/>
<!-- Line -->
<!--  polyline  -->
<polyline points="167,13045
157,13045
157,13036
167,13036
167,13045
" style="stroke:#ffffff;stroke-width:7;
stroke-linejoin:miter; stroke-linecap:butt;
"/>
<!-- Line -->
<!--  polyline  -->
<polyline points="187,12983
178,12983
178,12974
187,12974
187,12983
" style="stroke:#000000;stroke-width:0;
stroke-linejoin:miter; stroke-linecap:butt;
fill:#000000;
"/>
<!-- Line -->
<!--  polyline  -->
<polyline points="187,12983
178,12983
178,12974
187,12974
187,12983
" style="stroke:#ffffff;stroke-width:7;
stroke-linejoin:miter; stroke-linecap:butt;
"/>
<!-- Line -->
<!--  polyline  -->
<polyline points="187,13004
178,13004
178,12994
187,12994
187,13004
" style="stroke:#000000;stroke-width:0;
stroke-linejoin:miter; stroke-linecap:butt;
fill:#000000;
"/>
<!-- Line -->
<!--  polyline  -->
<polyline points="187,13004
178,13004
178,12994
187,12994
187,13004
" style="stroke:#ffffff;stroke-width:7;
stroke-linejoin:miter; stroke-linecap:butt;
"/>
<!-- Line -->
<!--  polyline  -->
<polyline points="187,13025
178,13025
178,13015
187,13015
187,13025
" style="stroke:#000000;stroke-width:0;
stroke-linejoin:miter; stroke-linecap:butt;
fill:#000000;
"/>
<!-- Line -->
<!--  polyline  -->
<polyline points="187,13025
178,13025
178,13015
187,13015
187,13025
" style="stroke:#ffffff;stroke-width:7;
stroke-linejoin:miter; stroke-linecap:butt;
"/>
<!-- Line -->
<!--  polyline  -->
<polyline points="187,13045
178,13045
178,13036
187,13036
187,13045
" style="stroke:#000000;stroke-width:0;
stroke-linejoin:miter; stroke-linecap:butt;
fill:#000000;
"/>
<!-- Line -->
<!--  polyline  -->
<polyline points="187,13045
178,13045
178,13036
187,13036
187,13045
" style="stroke:#ffffff;stroke-width:7;
stroke-linejoin:miter; stroke-linecap:butt;
"/>
<!-- Line -->
<!--  polyline  -->
<polyline points="208,12983
199,12983
199,12974
208,12974
208,12983
" style="stroke:#000000;stroke-width:0;
stroke-linejoin:miter; stroke-linecap:butt;
fill:#000000;
"/>
<!-- Line -->
<!--  polyline  -->
<polyline points="208,12983
199,12983
199,12974
208,12974
208,12983
" style="stroke:#ffffff;stroke-width:7;
stroke-linejoin:miter; stroke-linecap:butt;
"/>
<!-- Line -->
<!--  polyline  -->
<polyline points="208,13004
199,13004
199,12994
208,12994
208,13004
" style="stroke:#000000;stroke-width:0;
stroke-linejoin:miter; stroke-linecap:butt;
fill:#000000;
"/>
<!-- Line -->
<!--  polyline  -->
<polyline points="208,13004
199,13004
199,12994
208,12994
208,13004
" style="stroke:#ffffff;stroke-width:7;
stroke-linejoin:miter; stroke-linecap:butt;
"/>
<!-- Line -->
<!--  polyline  -->
<polyline points="208,13025
199,13025
199,13015
208,13015
208,13025
" style="stroke:#000000;stroke-width:0;
stroke-linejoin:miter; stroke-linecap:butt;
fill:#000000;
"/>
<!-- Line -->
<!--  polyline  -->
<polyline points="208,13025
199,13025
199,13015
208,13015
208,13025
" style="stroke:#ffffff;stroke-width:7;
stroke-linejoin:miter; stroke-linecap:butt;
"/>
<!-- Line -->
<!--  polyline  -->
<polyline points="208,13045
199,13045
199,13036
208,13036
208,13045
" style="stroke:#000000;stroke-width:0;
stroke-linejoin:miter; stroke-linecap:butt;
fill:#000000;
"/>
<!-- Line -->
<!--  polyline  -->
<polyline points="208,13045
199,13045
199,13036
208,13036
208,13045
" style="stroke:#ffffff;stroke-width:7;
stroke-linejoin:miter; stroke-linecap:butt;
"/>
<!-- Line -->
<!--  polyline  -->
<polyline points="229,12983
220,12983
220,12974
229,12974
229,12983
" style="stroke:#000000;stroke-width:0;
stroke-linejoin:miter; stroke-linecap:butt;
fill:#000000;
"/>
<!-- Line -->
<!--  polyline  -->
<polyline points="229,12983
220,12983
220,12974
229,12974
229,12983
" style="stroke:#ffffff;stroke-width:7;
stroke-linejoin:miter; stroke-linecap:butt;
"/>
<!-- Line -->
<!--  polyline  -->
<polyline points="229,13004
220,13004
220,12994
229,12994
229,13004
" style="stroke:#000000;stroke-width:0;
stroke-linejoin:miter; stroke-linecap:butt;
fill:#000000;
"/>
<!-- Line -->
<!--  polyline  -->
<polyline points="229,13004
220,13004
220,12994
229,12994
229,13004
" style="stroke:#ffffff;stroke-width:7;
stroke-linejoin:miter; stroke-linecap:butt;
"/>
<!-- Line -->
<!--  polyline  -->
<polyline points="229,13025
220,13025
220,13015
229,13015
229,13025
" style="stroke:#000000;stroke-width:0;
stroke-linejoin:miter; stroke-linecap:butt;
fill:#000000;
"/>
<!-- Line -->
<!--  polyline  -->
<polyline points="229,13025
220,13025
220,13015
229,13015
229,13025
" style="stroke:#ffffff;stroke-width:7;
stroke-linejoin:miter; stroke-linecap:butt;
"/>
<!-- Line -->
<!--  polyline  -->
<polyline points="229,13045
220,13045
220,13036
229,13036
229,13045
" style="stroke:#000000;stroke-width:0;
stroke-linejoin:miter; stroke-linecap:butt;
fill:#000000;
"/>
<!-- Line -->
<!--  polyline  -->
<polyline points="229,13045
220,13045
220,13036
229,13036
229,13045
" style="stroke:#ffffff;stroke-width:7;
stroke-linejoin:miter; stroke-linecap:butt;
"/>
</g>
</svg>
