<?xml version="1.0" standalone="no"?>
<!DOCTYPE svg PUBLIC "-//W3C//DTD SVG 1.1//EN"
"http://www.w3.org/Graphics/SVG/1.1/DTD/svg11.dtd">
<!-- Creator: fig2dev Version 3.2 Patchlevel 5c -->
<!-- CreationDate: Fri Sep 14 10:46:22 2012 -->
<!-- Magnification: 1.000 -->
<svg xmlns="http://www.w3.org/2000/svg" width="1.0in" height="0.3in" viewBox="-12 12809 1192 400">
<g style="stroke-width:.025in; fill:none">
<!-- Line -->
<!--  spline  -->
<polyline points="681,13165
682,13165
686,13165
697,13164
714,13163
736,13161
757,13160
774,13159
785,13158
789,13158
790,13158
791,13158
795,13157
803,13156
816,13153
830,13150
846,13147
864,13142
885,13135
904,13128
917,13123
923,13121
926,13120
929,13118
935,13115
945,13110
960,13101
974,13092
983,13086
987,13082
989,13081
991,13079
994,13076
1001,13069
1009,13058
1018,13043
1022,13032
1025,13022
1026,13014
1026,13010
1026,13009
1025,13007
1023,12999
1017,12984
1012,12969
1010,12961
1009,12959
1007,12957
1004,12953
999,12947
993,12941
985,12934
974,12925
960,12916
945,12907
935,12902
929,12899
926,12897
923,12896
917,12894
904,12889
885,12882
865,12876
851,12872
844,12870
840,12869
837,12868
829,12867
813,12864
790,12860
770,12857
752,12855
736,12854
722,12853
710,12853
698,12852
690,12852
684,12852
681,12852
680,12852
676,12852
665,12853
648,12854
626,12856
605,12858
588,12859
577,12860
573,12860
572,12860
571,12860
567,12861
559,12862
547,12864
533,12867
517,12871
499,12876
478,12882
459,12889
446,12894
440,12896
437,12897
434,12899
428,12902
418,12907
403,12916
389,12925
380,12931
376,12935
374,12936
372,12938
369,12941
362,12948
354,12959
345,12974
340,12986
338,12996
336,13004
336,13008
336,13009
337,13010
340,13019
345,13034
350,13048
353,13057
354,13058
356,13060
359,13064
364,13070
370,13076
378,13083
389,13092
403,13101
418,13110
428,13115
434,13118
437,13120
440,13121
446,13123
459,13128
478,13135
498,13141
512,13146
519,13148
522,13149
526,13150
533,13151
549,13154
572,13158
592,13161
610,13162
626,13164
640,13164
652,13165
663,13165
672,13165
678,13165
681,13165
" style="stroke:#00acd8;stroke-width:7;
stroke-linejoin:bevel; stroke-linecap:butt;
"/>
<!-- Text -->
<!--  text  -->
<text xml:space="preserve" x="524" y="13057" fill="#000000"  font-family="Helvetica" font-style="normal" font-weight="normal" font-size="108" text-anchor="start">FDDI</text>
<!-- Line -->
<!--  spline  -->
<polyline points="681,13197
682,13197
687,13196
699,13196
718,13194
742,13192
766,13190
785,13188
797,13188
802,13187
803,13187
806,13186
812,13185
820,13184
832,13181
844,13179
858,13175
873,13171
890,13166
909,13160
931,13152
945,13146
952,13143
955,13142
958,13141
964,13137
976,13130
993,13120
1009,13109
1019,13101
1024,13098
1026,13096
1028,13094
1032,13089
1039,13081
1048,13068
1058,13050
1064,13036
1066,13024
1068,13015
1068,13010
1068,13009
1067,13007
1064,12997
1058,12979
1052,12961
1049,12951
1048,12949
1046,12946
1042,12942
1037,12935
1030,12928
1021,12919
1009,12909
993,12898
976,12888
964,12881
958,12877
955,12876
952,12874
945,12871
931,12865
909,12857
891,12851
876,12846
867,12843
862,12842
859,12841
856,12840
851,12839
841,12837
824,12834
803,12830
781,12827
760,12825
743,12823
727,12822
713,12822
701,12821
691,12821
684,12821
681,12821
680,12821
675,12821
663,12822
644,12824
620,12826
596,12827
577,12829
565,12830
560,12830
559,12830
556,12831
550,12832
542,12833
530,12835
518,12838
504,12841
489,12845
472,12851
453,12857
431,12865
417,12871
410,12874
407,12876
404,12877
397,12881
386,12888
369,12898
354,12909
344,12916
339,12920
337,12922
335,12924
331,12928
324,12936
315,12949
305,12967
300,12981
297,12993
296,13003
295,13008
295,13009
296,13011
299,13021
305,13039
311,13056
314,13066
315,13068
317,13071
320,13075
326,13082
333,13090
341,13099
353,13109
369,13120
386,13130
397,13137
404,13141
407,13142
410,13143
417,13146
431,13152
453,13160
471,13166
486,13171
495,13174
500,13175
503,13176
506,13177
511,13178
521,13180
538,13183
559,13187
581,13190
602,13193
619,13194
635,13195
649,13196
661,13197
671,13197
678,13197
681,13197
" style="stroke:#00acd8;stroke-width:7;
stroke-linejoin:bevel; stroke-linecap:butt;
"/>
<!-- Line -->
<!--  polyline  -->
<polyline points="42,13034
342,13034
" style="stroke:#00acd8;stroke-width:7;
stroke-linejoin:miter; stroke-linecap:butt;
"/>
<!-- Line -->
<!--  polyline  -->
<polyline points="0,12994
300,12994
" style="stroke:#00acd8;stroke-width:7;
stroke-linejoin:miter; stroke-linecap:butt;
"/>
</g>
</svg>
