<?xml version="1.0" standalone="no"?>
<!DOCTYPE svg PUBLIC "-//W3C//DTD SVG 1.1//EN"
"http://www.w3.org/Graphics/SVG/1.1/DTD/svg11.dtd">
<!-- Creator: fig2dev Version 3.2 Patchlevel 5c -->
<!-- CreationDate: Fri Sep 14 10:46:22 2012 -->
<!-- Magnification: 1.000 -->
<svg xmlns="http://www.w3.org/2000/svg" width="0.7in" height="0.5in" viewBox="-3 12597 820 606">
<g style="stroke-width:.025in; fill:none">
<!-- Line -->
<!--  polyline  -->
<polyline points="606,12996
606,12803
11,12803
11,12996
606,12996
" style="stroke:#00acd8;stroke-width:0;
stroke-linejoin:miter; stroke-linecap:butt;
fill:#00acd8;
"/>
<!-- Line -->
<!--  polyline  -->
<polyline points="606,12996
606,12803
11,12803
11,12996
606,12996
" style="stroke:#ffffff;stroke-width:7;
stroke-linejoin:miter; stroke-linecap:butt;
"/>
<!-- Line -->
<!--  polyline  -->
<polyline points="9,12804
250,12609
805,12609
606,12804
9,12804
" style="stroke:#00acd8;stroke-width:0;
stroke-linejoin:miter; stroke-linecap:butt;
fill:#00acd8;
"/>
<!-- Line -->
<!--  polyline  -->
<polyline points="9,12804
250,12609
805,12609
606,12804
9,12804
" style="stroke:#ffffff;stroke-width:7;
stroke-linejoin:miter; stroke-linecap:butt;
"/>
<!-- Line -->
<!--  polyline  -->
<polyline points="606,13003
805,12788
805,12610
606,12804
606,13003
" style="stroke:#00acd8;stroke-width:0;
stroke-linejoin:miter; stroke-linecap:butt;
fill:#00acd8;
"/>
<!-- Line -->
<!--  polyline  -->
<polyline points="606,13003
805,12788
805,12610
606,12804
606,13003
" style="stroke:#ffffff;stroke-width:7;
stroke-linejoin:miter; stroke-linecap:butt;
"/>
<!-- Line -->
<!--  polyline  -->
<polyline points="358,12754
347,12763
198,12763
184,12778
143,12760
224,12737
210,12754
358,12754
" style="stroke:#ffffff;stroke-width:0;
stroke-linejoin:miter; stroke-linecap:butt;
fill:#ffffff;
"/>
<!-- Line -->
<!--  polyline  -->
<polyline points="475,12681
463,12690
315,12690
300,12705
260,12687
341,12664
327,12681
475,12681
" style="stroke:#ffffff;stroke-width:0;
stroke-linejoin:miter; stroke-linecap:butt;
fill:#ffffff;
"/>
<!-- Line -->
<!--  polyline  -->
<polyline points="385,12728
396,12718
545,12718
559,12703
600,12721
519,12744
533,12728
385,12728
" style="stroke:#ffffff;stroke-width:0;
stroke-linejoin:miter; stroke-linecap:butt;
fill:#ffffff;
"/>
<!-- Line -->
<!--  polyline  -->
<polyline points="462,12655
473,12645
622,12645
636,12631
677,12648
596,12671
610,12655
462,12655
" style="stroke:#ffffff;stroke-width:0;
stroke-linejoin:miter; stroke-linecap:butt;
fill:#ffffff;
"/>
<!-- Line -->
<!--  polyline  -->
<polyline points="606,13185
606,12992
11,12992
11,13185
606,13185
" style="stroke:#00acd8;stroke-width:0;
stroke-linejoin:miter; stroke-linecap:butt;
fill:#00acd8;
"/>
<!-- Line -->
<!--  polyline  -->
<polyline points="606,13185
606,12992
11,12992
11,13185
606,13185
" style="stroke:#ffffff;stroke-width:7;
stroke-linejoin:miter; stroke-linecap:butt;
"/>
<!-- Line -->
<!--  polyline  -->
<polyline points="606,13191
805,12977
805,12799
606,12993
606,13191
" style="stroke:#00acd8;stroke-width:0;
stroke-linejoin:miter; stroke-linecap:butt;
fill:#00acd8;
"/>
<!-- Line -->
<!--  polyline  -->
<polyline points="606,13191
805,12977
805,12799
606,12993
606,13191
" style="stroke:#ffffff;stroke-width:7;
stroke-linejoin:miter; stroke-linecap:butt;
"/>
<!-- Line -->
<!--  polyline  -->
<polyline points="238,12895
127,12895
127,12885
85,12900
127,12915
127,12904
238,12904
238,12895
" style="stroke:#ffffff;stroke-width:0;
stroke-linejoin:miter; stroke-linecap:butt;
fill:#ffffff;
"/>
<!-- Line -->
<!--  polyline  -->
<polyline points="301,12927
301,12966
272,12966
315,12981
357,12966
329,12966
329,12927
301,12927
" style="stroke:#ffffff;stroke-width:0;
stroke-linejoin:miter; stroke-linecap:butt;
fill:#ffffff;
"/>
<!-- Line -->
<!--  polyline  -->
<polyline points="301,12874
301,12834
272,12834
315,12819
357,12834
329,12834
329,12874
301,12874
" style="stroke:#ffffff;stroke-width:0;
stroke-linejoin:miter; stroke-linecap:butt;
fill:#ffffff;
"/>
<!-- Line -->
<!--  polyline  -->
<polyline points="392,12904
503,12904
503,12915
545,12900
503,12885
503,12895
392,12895
392,12904
" style="stroke:#ffffff;stroke-width:0;
stroke-linejoin:miter; stroke-linecap:butt;
fill:#ffffff;
"/>
<!-- Line -->
<!--  spline  -->
<polyline points="494,12963
493,12963
488,12963
479,12964
474,12964
473,12964
472,12964
468,12964
462,12963
452,12961
438,12959
426,12957
419,12955
416,12955
413,12954
406,12953
391,12949
376,12945
368,12943
365,12942
362,12941
353,12939
337,12934
320,12929
306,12924
295,12920
286,12917
281,12915
280,12915
278,12914
269,12911
253,12905
237,12899
228,12896
226,12895
225,12895
221,12893
214,12890
205,12886
195,12881
183,12875
171,12869
167,12867
165,12866
161,12864
153,12859
146,12854
143,12852
142,12851
141,12850
138,12846
137,12842
138,12840
139,12839
141,12838
142,12838
147,12838
156,12837
161,12837
162,12837
163,12837
167,12837
173,12838
183,12839
197,12842
209,12845
216,12846
219,12847
222,12847
229,12849
244,12853
259,12857
267,12859
270,12860
273,12861
282,12863
298,12868
315,12873
329,12878
340,12882
349,12885
354,12887
355,12887
357,12888
366,12891
382,12897
398,12903
407,12906
409,12907
410,12907
414,12909
421,12912
430,12916
440,12920
452,12926
464,12932
468,12935
470,12936
474,12938
482,12943
489,12948
492,12949
493,12950
494,12952
497,12955
498,12958
497,12961
496,12962
494,12963
" style="stroke:#ffffff;stroke-width:7;
stroke-linejoin:bevel; stroke-linecap:butt;
"/>
<!-- Line -->
<!--  spline  -->
<polyline points="489,12838
490,12840
491,12843
492,12845
491,12847
489,12849
485,12853
478,12858
470,12863
467,12865
465,12866
461,12868
449,12874
438,12879
432,12882
429,12883
427,12884
420,12887
406,12893
391,12899
378,12904
367,12909
359,12912
354,12914
353,12914
351,12915
342,12918
324,12924
307,12929
298,12932
296,12933
295,12933
290,12935
282,12937
271,12940
258,12944
242,12948
227,12952
220,12954
217,12954
214,12955
208,12956
195,12959
183,12961
177,12962
175,12963
173,12963
168,12963
159,12964
150,12964
144,12964
140,12964
138,12963
137,12961
135,12958
134,12956
135,12954
137,12952
141,12948
148,12943
156,12938
159,12936
161,12935
165,12933
177,12927
188,12922
194,12919
197,12918
199,12917
206,12914
220,12908
235,12902
248,12897
259,12892
267,12889
272,12887
273,12887
275,12886
284,12883
302,12877
320,12872
329,12869
331,12868
332,12868
336,12866
345,12864
355,12861
368,12857
384,12853
398,12849
406,12847
409,12847
412,12846
418,12845
431,12842
443,12840
449,12839
451,12838
453,12838
458,12838
467,12837
477,12837
483,12837
487,12837
489,12838
" style="stroke:#ffffff;stroke-width:7;
stroke-linejoin:bevel; stroke-linecap:butt;
"/>
<!-- Line -->
<!--  spline  -->
<polyline points="361,12922
362,12922
367,12920
373,12918
378,12916
379,12916
381,12915
384,12913
388,12911
391,12908
393,12905
394,12904
394,12903
395,12902
395,12899
395,12896
395,12895
394,12894
392,12891
389,12888
386,12885
383,12883
381,12882
380,12882
375,12880
368,12878
363,12876
362,12876
361,12876
359,12875
354,12874
348,12873
340,12872
332,12871
329,12871
328,12871
324,12870
316,12870
308,12870
304,12870
303,12870
299,12870
291,12871
282,12872
276,12873
271,12874
268,12875
267,12875
266,12875
261,12877
255,12880
250,12882
249,12882
247,12883
244,12885
240,12887
237,12890
235,12893
234,12894
233,12895
233,12898
233,12901
233,12902
233,12903
234,12904
236,12907
239,12910
242,12912
245,12914
247,12915
248,12915
253,12917
260,12920
265,12922
266,12922
267,12922
269,12923
274,12924
280,12925
288,12926
296,12927
299,12927
300,12928
304,12928
312,12928
320,12928
324,12928
325,12927
329,12927
337,12926
346,12925
352,12924
357,12923
360,12922
361,12922
" style="stroke:#b5b5b5;stroke-width:0;
stroke-linejoin:bevel; stroke-linecap:butt;
fill:#b5b5b5;
"/>
</g>
</svg>
