<?xml version="1.0" standalone="no"?>
<!DOCTYPE svg PUBLIC "-//W3C//DTD SVG 1.1//EN"
"http://www.w3.org/Graphics/SVG/1.1/DTD/svg11.dtd">
<!-- Creator: fig2dev Version 3.2 Patchlevel 5c -->
<!-- CreationDate: Fri Sep 14 10:46:22 2012 -->
<!-- Magnification: 1.000 -->
<svg xmlns="http://www.w3.org/2000/svg" width="0.3in" height="0.4in" viewBox="-1 12686 363 515">
<g style="stroke-width:.025in; fill:none">
<!-- Line -->
<!--  polyline  -->
<polyline points="268,12780
11,12780
11,13189
268,13189
" style="stroke:#00acd8;stroke-width:0;
stroke-linejoin:miter; stroke-linecap:butt;
fill:#00acd8;
"/>
<!-- Line -->
<!--  polyline  -->
<polyline points="268,13189
350,13107
350,12698
93,12698
11,12780
268,12780
268,13189
" style="stroke:#00acd8;stroke-width:0;
stroke-linejoin:miter; stroke-linecap:butt;
fill:#00acd8;
"/>
<!-- Line -->
<!--  polyline  -->
<polyline points="268,12780
350,12698
" style="stroke:#00acd8;stroke-width:0;
stroke-linejoin:miter; stroke-linecap:butt;
fill:#00acd8;
"/>
<!-- Line -->
<!--  polyline  -->
<polyline points="268,12780
11,12780
11,13189
268,13189
" style="stroke:#00acd8;stroke-width:0;
stroke-linejoin:miter; stroke-linecap:butt;
fill:#00acd8;
"/>
<!-- Line -->
<!--  polyline  -->
<polyline points="268,12780
11,12780
11,13189
268,13189
" style="stroke:#ffffff;stroke-width:7;
stroke-linejoin:miter; stroke-linecap:butt;
"/>
<!-- Line -->
<!--  polyline  -->
<polyline points="268,13189
350,13107
350,12698
93,12698
11,12780
268,12780
268,13189
" style="stroke:#00acd8;stroke-width:0;
stroke-linejoin:miter; stroke-linecap:butt;
fill:#00acd8;
"/>
<!-- Line -->
<!--  polyline  -->
<polyline points="268,13189
350,13107
350,12698
93,12698
11,12780
268,12780
268,13189
" style="stroke:#ffffff;stroke-width:7;
stroke-linejoin:miter; stroke-linecap:butt;
"/>
<!-- Line -->
<!--  polyline  -->
<polyline points="268,12780
350,12698
" style="stroke:#000000;stroke-width:0;
stroke-linejoin:miter; stroke-linecap:butt;
fill:#000000;
"/>
<!-- Line -->
<!--  polyline  -->
<polyline points="268,12780
350,12698
" style="stroke:#ffffff;stroke-width:7;
stroke-linejoin:round; stroke-linecap:round;
"/>
<!-- Line -->
<!--  polyline  -->
<polyline points="268,12780
11,12780
11,13189
268,13189
" style="stroke:#ffffff;stroke-width:7;
stroke-linejoin:miter; stroke-linecap:butt;
"/>
<!-- Line -->
<!--  polyline  -->
<polyline points="268,13189
350,13107
350,12698
93,12698
11,12780
268,12780
268,13189
" style="stroke:#ffffff;stroke-width:7;
stroke-linejoin:miter; stroke-linecap:butt;
"/>
<!-- Line -->
<!--  polyline  -->
<polyline points="268,12780
350,12698
" style="stroke:#ffffff;stroke-width:7;
stroke-linejoin:miter; stroke-linecap:butt;
"/>
<!-- Line -->
<!--  spline  -->
<polyline points="133,13090
132,13092
132,13094
131,13096
130,13097
129,13098
127,13099
124,13101
121,13102
119,13103
117,13104
113,13105
109,13106
107,13106
105,13106
100,13107
95,13107
90,13108
87,13108
84,13108
83,13108
79,13108
74,13107
70,13107
69,13107
67,13107
64,13107
60,13106
56,13105
52,13104
50,13103
48,13102
45,13101
42,13099
41,13099
40,13098
38,13096
37,13094
36,13092
36,13091
36,13090
37,13088
37,13086
38,13084
39,13083
40,13082
42,13081
45,13079
48,13078
50,13077
52,13076
56,13075
60,13074
62,13073
63,13073
64,13073
69,13072
74,13072
78,13072
82,13072
84,13072
85,13072
89,13072
95,13072
99,13072
100,13072
102,13072
105,13073
109,13074
113,13075
117,13076
119,13077
121,13078
124,13079
127,13081
128,13081
129,13082
131,13084
132,13086
133,13088
133,13089
133,13090
" style="stroke:#ffffff;stroke-width:0;
stroke-linejoin:bevel; stroke-linecap:butt;
fill:#ffffff;
"/>
<!-- Line -->
<!--  spline  -->
<polyline points="133,13090
132,13092
132,13094
131,13096
130,13097
129,13098
127,13099
124,13101
121,13102
119,13103
117,13104
113,13105
109,13106
107,13106
105,13106
100,13107
95,13107
90,13108
87,13108
84,13108
83,13108
79,13108
74,13107
70,13107
69,13107
67,13107
64,13107
60,13106
56,13105
52,13104
50,13103
48,13102
45,13101
42,13099
41,13099
40,13098
38,13096
37,13094
36,13092
36,13091
36,13090
37,13088
37,13086
38,13084
39,13083
40,13082
42,13081
45,13079
48,13078
50,13077
52,13076
56,13075
60,13074
62,13073
63,13073
64,13073
69,13072
74,13072
78,13072
82,13072
84,13072
85,13072
89,13072
95,13072
99,13072
100,13072
102,13072
105,13073
109,13074
113,13075
117,13076
119,13077
121,13078
124,13079
127,13081
128,13081
129,13082
131,13084
132,13086
133,13088
133,13089
133,13090
" style="stroke:#000000;stroke-width:7;
stroke-linejoin:bevel; stroke-linecap:round;
"/>
<!-- Line -->
<!--  spline  -->
<polyline points="99,13089
99,13090
98,13090
98,13091
97,13091
97,13092
96,13092
95,13092
95,13093
94,13093
93,13093
92,13093
91,13094
90,13094
89,13094
87,13094
86,13094
85,13094
84,13094
83,13094
81,13094
80,13094
79,13094
77,13093
76,13093
75,13093
74,13093
74,13092
73,13092
72,13092
71,13092
70,13091
70,13090
70,13089
70,13088
70,13087
71,13087
71,13086
72,13086
73,13085
74,13085
75,13084
76,13084
77,13084
78,13084
79,13084
80,13084
81,13084
83,13083
84,13083
86,13083
87,13084
89,13084
90,13084
91,13084
92,13084
93,13084
94,13084
95,13085
96,13086
97,13086
97,13087
97,13086
97,13087
98,13087
98,13088
99,13088
99,13089
" style="stroke:#000000;stroke-width:0;
stroke-linejoin:bevel; stroke-linecap:round;
fill:#000000;
"/>
<!-- Line -->
<!--  spline  -->
<polyline points="99,13079
99,13080
98,13080
98,13081
97,13081
97,13082
96,13082
95,13082
95,13083
94,13083
93,13083
92,13083
91,13084
90,13084
89,13084
87,13084
86,13084
85,13084
84,13084
83,13084
81,13084
80,13084
79,13084
77,13083
76,13083
75,13083
74,13083
74,13082
73,13082
72,13082
71,13082
70,13081
70,13080
70,13079
70,13078
70,13077
71,13077
71,13076
72,13076
73,13075
74,13075
75,13074
76,13074
77,13074
78,13074
79,13074
80,13074
81,13074
83,13073
84,13073
86,13073
87,13074
89,13074
90,13074
91,13074
92,13074
93,13074
94,13074
95,13075
96,13076
97,13076
97,13077
97,13076
97,13077
98,13077
98,13078
99,13078
99,13079
" style="stroke:#000000;stroke-width:0;
stroke-linejoin:bevel; stroke-linecap:round;
fill:#000000;
"/>
<!-- Line -->
<!--  spline  -->
<polyline points="133,13070
132,13072
132,13074
131,13076
130,13077
129,13078
127,13079
124,13081
121,13082
119,13083
117,13084
113,13085
109,13086
107,13086
105,13086
100,13087
95,13087
90,13088
87,13088
84,13088
83,13088
79,13088
74,13087
70,13087
69,13087
67,13087
64,13087
60,13086
56,13085
52,13084
50,13083
48,13082
45,13081
42,13079
41,13079
40,13078
38,13076
37,13074
36,13072
36,13071
36,13070
37,13068
37,13066
38,13064
39,13063
40,13062
42,13061
45,13059
48,13058
50,13057
52,13056
56,13055
60,13054
62,13053
63,13053
64,13053
69,13052
74,13052
78,13052
82,13052
84,13052
85,13052
89,13052
95,13052
99,13052
100,13052
102,13052
105,13053
109,13054
113,13055
117,13056
119,13057
121,13058
124,13059
127,13061
128,13061
129,13062
131,13064
132,13066
133,13068
133,13069
133,13070
" style="stroke:#ffffff;stroke-width:0;
stroke-linejoin:bevel; stroke-linecap:round;
fill:#ffffff;
"/>
<!-- Line -->
<!--  spline  -->
<polyline points="133,13070
132,13072
132,13074
131,13076
130,13077
129,13078
127,13079
124,13081
121,13082
119,13083
117,13084
113,13085
109,13086
107,13086
105,13086
100,13087
95,13087
90,13088
87,13088
84,13088
83,13088
79,13088
74,13087
70,13087
69,13087
67,13087
64,13087
60,13086
56,13085
52,13084
50,13083
48,13082
45,13081
42,13079
41,13079
40,13078
38,13076
37,13074
36,13072
36,13071
36,13070
37,13068
37,13066
38,13064
39,13063
40,13062
42,13061
45,13059
48,13058
50,13057
52,13056
56,13055
60,13054
62,13053
63,13053
64,13053
69,13052
74,13052
78,13052
82,13052
84,13052
85,13052
89,13052
95,13052
99,13052
100,13052
102,13052
105,13053
109,13054
113,13055
117,13056
119,13057
121,13058
124,13059
127,13061
128,13061
129,13062
131,13064
132,13066
133,13068
133,13069
133,13070
" style="stroke:#000000;stroke-width:7;
stroke-linejoin:bevel; stroke-linecap:round;
"/>
<!-- Line -->
<!--  spline  -->
<polyline points="99,13069
99,13070
98,13070
98,13071
97,13071
97,13072
96,13072
95,13072
95,13073
94,13073
93,13073
92,13073
91,13074
90,13074
89,13074
87,13074
86,13074
85,13074
84,13074
83,13074
81,13074
80,13074
79,13074
77,13073
76,13073
75,13073
74,13073
74,13072
73,13072
72,13072
71,13072
70,13071
70,13070
70,13069
70,13068
70,13067
71,13067
71,13066
72,13066
73,13065
74,13065
75,13064
76,13064
77,13064
78,13064
79,13064
80,13064
81,13064
83,13063
84,13063
86,13063
87,13064
89,13064
90,13064
91,13064
92,13064
93,13064
94,13064
95,13065
96,13066
97,13066
97,13067
97,13066
97,13067
98,13067
98,13068
99,13068
99,13069
" style="stroke:#000000;stroke-width:0;
stroke-linejoin:bevel; stroke-linecap:round;
fill:#000000;
"/>
<!-- Line -->
<!--  spline  -->
<polyline points="99,13059
99,13060
98,13060
98,13061
97,13061
97,13062
96,13062
95,13062
95,13063
94,13063
93,13063
92,13063
91,13064
90,13064
89,13064
87,13064
86,13064
85,13064
84,13064
83,13064
81,13064
80,13064
79,13064
77,13063
76,13063
75,13063
74,13063
74,13062
73,13062
72,13062
71,13062
70,13061
70,13060
70,13059
70,13058
70,13057
71,13057
71,13056
72,13056
73,13055
74,13055
75,13054
76,13054
77,13054
78,13054
79,13054
80,13054
81,13054
83,13053
84,13053
86,13053
87,13054
89,13054
90,13054
91,13054
92,13054
93,13054
94,13054
95,13055
96,13056
97,13056
97,13057
97,13056
97,13057
98,13057
98,13058
99,13058
99,13059
" style="stroke:#000000;stroke-width:0;
stroke-linejoin:bevel; stroke-linecap:round;
fill:#000000;
"/>
<!-- Line -->
<!--  spline  -->
<polyline points="133,13050
132,13052
132,13054
131,13056
130,13057
129,13058
127,13059
124,13061
121,13062
119,13063
117,13064
113,13065
109,13066
107,13066
105,13066
100,13067
95,13067
90,13068
87,13068
84,13068
83,13068
79,13068
74,13067
70,13067
69,13067
67,13067
64,13067
60,13066
56,13065
52,13064
50,13063
48,13062
45,13061
42,13059
41,13059
40,13058
38,13056
37,13054
36,13052
36,13051
36,13050
37,13048
37,13046
38,13044
39,13043
40,13042
42,13041
45,13039
48,13038
50,13037
52,13036
56,13035
60,13034
62,13034
63,13034
64,13034
69,13033
74,13033
78,13032
82,13032
84,13032
85,13032
89,13032
95,13033
99,13033
100,13033
102,13033
105,13033
109,13034
113,13035
117,13036
119,13037
121,13038
124,13039
127,13041
128,13041
129,13042
131,13044
132,13046
133,13048
133,13049
133,13050
" style="stroke:#ffffff;stroke-width:0;
stroke-linejoin:bevel; stroke-linecap:round;
fill:#ffffff;
"/>
<!-- Line -->
<!--  spline  -->
<polyline points="133,13050
132,13052
132,13054
131,13056
130,13057
129,13058
127,13059
124,13061
121,13062
119,13063
117,13064
113,13065
109,13066
107,13066
105,13066
100,13067
95,13067
90,13068
87,13068
84,13068
83,13068
79,13068
74,13067
70,13067
69,13067
67,13067
64,13067
60,13066
56,13065
52,13064
50,13063
48,13062
45,13061
42,13059
41,13059
40,13058
38,13056
37,13054
36,13052
36,13051
36,13050
37,13048
37,13046
38,13044
39,13043
40,13042
42,13041
45,13039
48,13038
50,13037
52,13036
56,13035
60,13034
62,13034
63,13034
64,13034
69,13033
74,13033
78,13032
82,13032
84,13032
85,13032
89,13032
95,13033
99,13033
100,13033
102,13033
105,13033
109,13034
113,13035
117,13036
119,13037
121,13038
124,13039
127,13041
128,13041
129,13042
131,13044
132,13046
133,13048
133,13049
133,13050
" style="stroke:#000000;stroke-width:7;
stroke-linejoin:bevel; stroke-linecap:round;
"/>
<!-- Line -->
<!--  spline  -->
<polyline points="99,13049
99,13050
98,13050
98,13051
97,13051
97,13052
96,13052
95,13052
95,13053
94,13053
93,13053
92,13053
91,13054
90,13054
89,13054
87,13054
86,13054
85,13054
84,13054
83,13054
81,13054
80,13054
79,13054
77,13053
76,13053
75,13053
74,13053
74,13052
73,13052
72,13052
71,13052
70,13051
70,13050
70,13049
70,13048
70,13047
71,13047
71,13046
72,13046
73,13045
74,13045
75,13044
76,13044
77,13044
78,13044
79,13044
80,13044
81,13044
83,13043
84,13043
86,13043
87,13044
89,13044
90,13044
91,13044
92,13044
93,13044
94,13044
95,13045
96,13046
97,13046
97,13047
97,13046
97,13047
98,13047
98,13048
99,13048
99,13049
" style="stroke:#000000;stroke-width:0;
stroke-linejoin:bevel; stroke-linecap:round;
fill:#000000;
"/>
<!-- Line -->
<!--  spline  -->
<polyline points="133,13010
132,13012
132,13014
131,13016
130,13017
129,13018
127,13019
124,13021
121,13022
119,13023
117,13024
113,13025
109,13026
107,13026
105,13026
100,13027
95,13027
90,13028
87,13028
84,13028
83,13028
79,13028
74,13027
70,13027
69,13027
67,13027
64,13027
60,13026
56,13025
52,13024
50,13023
48,13022
45,13021
42,13019
41,13019
40,13018
38,13016
37,13014
36,13012
36,13011
36,13010
37,13008
37,13006
38,13004
39,13003
40,13002
42,13001
45,12999
48,12998
50,12997
52,12996
56,12995
60,12994
62,12993
63,12993
64,12993
69,12992
74,12992
78,12992
82,12992
84,12992
85,12992
89,12992
95,12992
99,12992
100,12992
102,12992
105,12993
109,12994
113,12995
117,12996
119,12997
121,12998
124,12999
127,13001
128,13001
129,13002
131,13004
132,13006
133,13008
133,13009
133,13010
" style="stroke:#ffffff;stroke-width:0;
stroke-linejoin:bevel; stroke-linecap:round;
fill:#ffffff;
"/>
<!-- Line -->
<!--  spline  -->
<polyline points="133,13010
132,13012
132,13014
131,13016
130,13017
129,13018
127,13019
124,13021
121,13022
119,13023
117,13024
113,13025
109,13026
107,13026
105,13026
100,13027
95,13027
90,13028
87,13028
84,13028
83,13028
79,13028
74,13027
70,13027
69,13027
67,13027
64,13027
60,13026
56,13025
52,13024
50,13023
48,13022
45,13021
42,13019
41,13019
40,13018
38,13016
37,13014
36,13012
36,13011
36,13010
37,13008
37,13006
38,13004
39,13003
40,13002
42,13001
45,12999
48,12998
50,12997
52,12996
56,12995
60,12994
62,12993
63,12993
64,12993
69,12992
74,12992
78,12992
82,12992
84,12992
85,12992
89,12992
95,12992
99,12992
100,12992
102,12992
105,12993
109,12994
113,12995
117,12996
119,12997
121,12998
124,12999
127,13001
128,13001
129,13002
131,13004
132,13006
133,13008
133,13009
133,13010
" style="stroke:#000000;stroke-width:7;
stroke-linejoin:bevel; stroke-linecap:round;
"/>
<!-- Line -->
<!--  spline  -->
<polyline points="99,13009
99,13010
98,13010
98,13011
97,13011
97,13012
96,13012
95,13012
95,13013
94,13013
93,13013
92,13013
91,13014
90,13014
89,13014
87,13014
86,13014
85,13014
84,13014
83,13014
81,13014
80,13014
79,13014
77,13013
76,13013
75,13013
74,13013
74,13012
73,13012
72,13012
71,13012
70,13011
70,13010
70,13009
70,13008
70,13007
71,13007
71,13006
72,13006
73,13005
74,13005
75,13004
76,13004
77,13004
78,13004
79,13004
80,13004
81,13004
83,13003
84,13003
86,13003
87,13004
89,13004
90,13004
91,13004
92,13004
93,13004
94,13004
95,13005
96,13006
97,13006
97,13007
97,13006
97,13007
98,13007
98,13008
99,13008
99,13009
" style="stroke:#000000;stroke-width:0;
stroke-linejoin:bevel; stroke-linecap:round;
fill:#000000;
"/>
<!-- Line -->
<!--  spline  -->
<polyline points="99,12999
99,13000
98,13000
98,13001
97,13001
97,13002
96,13002
95,13002
95,13003
94,13003
93,13003
92,13003
91,13004
90,13004
89,13004
87,13004
86,13004
85,13004
84,13004
83,13004
81,13004
80,13004
79,13004
77,13003
76,13003
75,13003
74,13003
74,13002
73,13002
72,13002
71,13002
70,13001
70,13000
70,12999
70,12998
70,12997
71,12997
71,12996
72,12996
73,12995
74,12995
75,12994
76,12994
77,12994
78,12994
79,12994
80,12994
81,12994
83,12993
84,12993
86,12993
87,12994
89,12994
90,12994
91,12994
92,12994
93,12994
94,12994
95,12995
96,12996
97,12996
97,12997
97,12996
97,12997
98,12997
98,12998
99,12998
99,12999
" style="stroke:#000000;stroke-width:0;
stroke-linejoin:bevel; stroke-linecap:round;
fill:#000000;
"/>
<!-- Line -->
<!--  spline  -->
<polyline points="133,12990
132,12992
132,12994
131,12996
130,12997
129,12998
127,12999
124,13001
121,13002
119,13003
117,13004
113,13005
109,13006
107,13006
105,13006
100,13007
95,13007
90,13008
87,13008
84,13008
83,13008
79,13008
74,13007
70,13007
69,13007
67,13007
64,13007
60,13006
56,13005
52,13004
50,13003
48,13002
45,13001
42,12999
41,12999
40,12998
38,12996
37,12994
36,12992
36,12991
36,12990
37,12988
37,12986
38,12984
39,12983
40,12982
42,12981
45,12979
48,12978
50,12977
52,12976
56,12975
60,12974
62,12973
63,12973
64,12973
69,12972
74,12972
78,12972
82,12972
84,12972
85,12972
89,12972
95,12972
99,12972
100,12972
102,12972
105,12973
109,12974
113,12975
117,12976
119,12977
121,12978
124,12979
127,12981
128,12981
129,12982
131,12984
132,12986
133,12988
133,12989
133,12990
" style="stroke:#ffffff;stroke-width:0;
stroke-linejoin:bevel; stroke-linecap:round;
fill:#ffffff;
"/>
<!-- Line -->
<!--  spline  -->
<polyline points="133,12990
132,12992
132,12994
131,12996
130,12997
129,12998
127,12999
124,13001
121,13002
119,13003
117,13004
113,13005
109,13006
107,13006
105,13006
100,13007
95,13007
90,13008
87,13008
84,13008
83,13008
79,13008
74,13007
70,13007
69,13007
67,13007
64,13007
60,13006
56,13005
52,13004
50,13003
48,13002
45,13001
42,12999
41,12999
40,12998
38,12996
37,12994
36,12992
36,12991
36,12990
37,12988
37,12986
38,12984
39,12983
40,12982
42,12981
45,12979
48,12978
50,12977
52,12976
56,12975
60,12974
62,12973
63,12973
64,12973
69,12972
74,12972
78,12972
82,12972
84,12972
85,12972
89,12972
95,12972
99,12972
100,12972
102,12972
105,12973
109,12974
113,12975
117,12976
119,12977
121,12978
124,12979
127,12981
128,12981
129,12982
131,12984
132,12986
133,12988
133,12989
133,12990
" style="stroke:#000000;stroke-width:7;
stroke-linejoin:bevel; stroke-linecap:round;
"/>
<!-- Line -->
<!--  spline  -->
<polyline points="99,12989
99,12990
98,12990
98,12991
97,12991
97,12992
96,12992
95,12992
95,12993
94,12993
93,12993
92,12993
91,12994
90,12994
89,12994
87,12994
86,12994
85,12994
84,12994
83,12994
81,12994
80,12994
79,12994
77,12993
76,12993
75,12993
74,12993
74,12992
73,12992
72,12992
71,12992
70,12991
70,12990
70,12989
70,12988
70,12987
71,12987
71,12986
72,12986
73,12985
74,12985
75,12984
76,12984
77,12984
78,12984
79,12984
80,12984
81,12984
83,12983
84,12983
86,12983
87,12984
89,12984
90,12984
91,12984
92,12984
93,12984
94,12984
95,12985
96,12986
97,12986
97,12987
97,12986
97,12987
98,12987
98,12988
99,12988
99,12989
" style="stroke:#000000;stroke-width:0;
stroke-linejoin:bevel; stroke-linecap:round;
fill:#000000;
"/>
<!-- Line -->
<!--  spline  -->
<polyline points="99,12979
99,12980
98,12980
98,12981
97,12981
97,12982
96,12982
95,12982
95,12983
94,12983
93,12983
92,12983
91,12984
90,12984
89,12984
87,12984
86,12984
85,12984
84,12984
83,12984
81,12984
80,12984
79,12984
77,12983
76,12983
75,12983
74,12983
74,12982
73,12982
72,12982
71,12982
70,12981
70,12980
70,12979
70,12978
70,12977
71,12977
71,12976
72,12976
73,12975
74,12975
75,12974
76,12974
77,12974
78,12974
79,12974
80,12974
81,12974
83,12973
84,12973
86,12973
87,12974
89,12974
90,12974
91,12974
92,12974
93,12974
94,12974
95,12975
96,12976
97,12976
97,12977
97,12976
97,12977
98,12977
98,12978
99,12978
99,12979
" style="stroke:#000000;stroke-width:0;
stroke-linejoin:bevel; stroke-linecap:round;
fill:#000000;
"/>
<!-- Line -->
<!--  spline  -->
<polyline points="133,12970
132,12972
132,12974
131,12976
130,12977
129,12978
127,12979
124,12981
121,12982
119,12983
117,12984
113,12985
109,12986
107,12986
105,12986
100,12987
95,12987
90,12988
87,12988
84,12988
83,12988
79,12988
74,12987
70,12987
69,12987
67,12987
64,12987
60,12986
56,12985
52,12984
50,12983
48,12982
45,12981
42,12979
41,12979
40,12978
38,12976
37,12974
36,12972
36,12971
36,12970
37,12968
37,12966
38,12964
39,12963
40,12962
42,12961
45,12959
48,12958
50,12957
52,12956
56,12955
60,12954
62,12953
63,12953
64,12953
69,12952
74,12952
78,12952
82,12952
84,12952
85,12952
89,12952
95,12952
99,12952
100,12952
102,12952
105,12953
109,12954
113,12955
117,12956
119,12957
121,12958
124,12959
127,12961
128,12961
129,12962
131,12964
132,12966
133,12968
133,12969
133,12970
" style="stroke:#ffffff;stroke-width:0;
stroke-linejoin:bevel; stroke-linecap:round;
fill:#ffffff;
"/>
<!-- Line -->
<!--  spline  -->
<polyline points="133,12970
132,12972
132,12974
131,12976
130,12977
129,12978
127,12979
124,12981
121,12982
119,12983
117,12984
113,12985
109,12986
107,12986
105,12986
100,12987
95,12987
90,12988
87,12988
84,12988
83,12988
79,12988
74,12987
70,12987
69,12987
67,12987
64,12987
60,12986
56,12985
52,12984
50,12983
48,12982
45,12981
42,12979
41,12979
40,12978
38,12976
37,12974
36,12972
36,12971
36,12970
37,12968
37,12966
38,12964
39,12963
40,12962
42,12961
45,12959
48,12958
50,12957
52,12956
56,12955
60,12954
62,12953
63,12953
64,12953
69,12952
74,12952
78,12952
82,12952
84,12952
85,12952
89,12952
95,12952
99,12952
100,12952
102,12952
105,12953
109,12954
113,12955
117,12956
119,12957
121,12958
124,12959
127,12961
128,12961
129,12962
131,12964
132,12966
133,12968
133,12969
133,12970
" style="stroke:#000000;stroke-width:7;
stroke-linejoin:bevel; stroke-linecap:round;
"/>
<!-- Line -->
<!--  spline  -->
<polyline points="99,12969
99,12970
98,12970
98,12971
97,12971
97,12972
96,12972
95,12972
95,12973
94,12973
93,12973
92,12973
91,12974
90,12974
89,12974
87,12974
86,12974
85,12974
84,12974
83,12974
81,12974
80,12974
79,12974
77,12973
76,12973
75,12973
74,12973
74,12972
73,12972
72,12972
71,12972
70,12971
70,12970
70,12969
70,12968
70,12967
71,12967
71,12966
72,12966
73,12965
74,12965
75,12964
76,12964
77,12964
78,12964
79,12964
80,12964
81,12964
83,12963
84,12963
86,12963
87,12964
89,12964
90,12964
91,12964
92,12964
93,12964
94,12964
95,12965
96,12966
97,12966
97,12967
97,12966
97,12967
98,12967
98,12968
99,12968
99,12969
" style="stroke:#000000;stroke-width:0;
stroke-linejoin:bevel; stroke-linecap:round;
fill:#000000;
"/>
<!-- Line -->
<!--  spline  -->
<polyline points="133,12930
132,12932
132,12934
131,12936
130,12937
129,12938
127,12939
124,12941
121,12942
119,12943
117,12944
113,12945
109,12946
107,12946
105,12946
100,12947
95,12947
90,12948
87,12948
84,12948
83,12948
79,12948
74,12947
70,12947
69,12947
67,12947
64,12947
60,12946
56,12945
52,12944
50,12943
48,12942
45,12941
42,12939
41,12939
40,12938
38,12936
37,12934
36,12932
36,12931
36,12930
37,12928
37,12926
38,12924
39,12923
40,12922
42,12921
45,12919
48,12918
50,12917
52,12916
56,12915
60,12914
62,12914
63,12914
64,12914
69,12913
74,12913
78,12912
82,12912
84,12912
85,12912
89,12912
95,12913
99,12913
100,12913
102,12913
105,12913
109,12914
113,12915
117,12916
119,12917
121,12918
124,12919
127,12921
128,12921
129,12922
131,12924
132,12926
133,12928
133,12929
133,12930
" style="stroke:#ffffff;stroke-width:0;
stroke-linejoin:bevel; stroke-linecap:round;
fill:#ffffff;
"/>
<!-- Line -->
<!--  spline  -->
<polyline points="133,12930
132,12932
132,12934
131,12936
130,12937
129,12938
127,12939
124,12941
121,12942
119,12943
117,12944
113,12945
109,12946
107,12946
105,12946
100,12947
95,12947
90,12948
87,12948
84,12948
83,12948
79,12948
74,12947
70,12947
69,12947
67,12947
64,12947
60,12946
56,12945
52,12944
50,12943
48,12942
45,12941
42,12939
41,12939
40,12938
38,12936
37,12934
36,12932
36,12931
36,12930
37,12928
37,12926
38,12924
39,12923
40,12922
42,12921
45,12919
48,12918
50,12917
52,12916
56,12915
60,12914
62,12914
63,12914
64,12914
69,12913
74,12913
78,12912
82,12912
84,12912
85,12912
89,12912
95,12913
99,12913
100,12913
102,12913
105,12913
109,12914
113,12915
117,12916
119,12917
121,12918
124,12919
127,12921
128,12921
129,12922
131,12924
132,12926
133,12928
133,12929
133,12930
" style="stroke:#000000;stroke-width:7;
stroke-linejoin:bevel; stroke-linecap:round;
"/>
<!-- Line -->
<!--  spline  -->
<polyline points="99,12929
99,12930
98,12930
98,12931
97,12931
97,12932
96,12932
95,12932
95,12933
94,12933
93,12933
92,12933
91,12934
90,12934
89,12934
87,12934
86,12934
85,12934
84,12934
83,12934
81,12934
80,12934
79,12934
77,12933
76,12933
75,12933
74,12933
74,12932
73,12932
72,12932
71,12932
70,12931
70,12930
70,12929
70,12928
70,12927
71,12927
71,12926
72,12926
73,12925
74,12925
75,12924
76,12924
77,12924
78,12924
79,12924
80,12924
81,12924
83,12923
84,12923
86,12923
87,12924
89,12924
90,12924
91,12924
92,12924
93,12924
94,12924
95,12925
96,12926
97,12926
97,12927
97,12926
97,12927
98,12927
98,12928
99,12928
99,12929
" style="stroke:#000000;stroke-width:0;
stroke-linejoin:bevel; stroke-linecap:round;
fill:#000000;
"/>
<!-- Line -->
<!--  spline  -->
<polyline points="99,12919
99,12920
98,12920
98,12921
97,12921
97,12922
96,12922
95,12922
95,12923
94,12923
93,12923
92,12923
91,12924
90,12924
89,12924
87,12924
86,12924
85,12924
84,12924
83,12924
81,12924
80,12924
79,12924
77,12923
76,12923
75,12923
74,12923
74,12922
73,12922
72,12922
71,12922
70,12921
70,12920
70,12919
70,12918
70,12917
71,12917
71,12916
72,12916
73,12915
74,12915
75,12914
76,12914
77,12914
78,12914
79,12914
80,12914
81,12914
83,12913
84,12913
86,12913
87,12914
89,12914
90,12914
91,12914
92,12914
93,12914
94,12914
95,12915
96,12916
97,12916
97,12917
97,12916
97,12917
98,12917
98,12918
99,12918
99,12919
" style="stroke:#000000;stroke-width:0;
stroke-linejoin:bevel; stroke-linecap:round;
fill:#000000;
"/>
<!-- Line -->
<!--  spline  -->
<polyline points="133,12910
132,12912
132,12914
131,12916
130,12917
129,12918
127,12919
124,12921
121,12922
119,12923
117,12924
113,12925
109,12926
107,12926
105,12926
100,12927
95,12927
90,12928
87,12928
84,12928
83,12928
79,12928
74,12927
70,12927
69,12927
67,12927
64,12927
60,12926
56,12925
52,12924
50,12923
48,12922
45,12921
42,12919
41,12919
40,12918
38,12916
37,12914
36,12912
36,12911
36,12910
37,12908
37,12906
38,12904
39,12903
40,12902
42,12901
45,12899
48,12898
50,12897
52,12896
56,12895
60,12894
62,12893
63,12893
64,12893
69,12892
74,12892
78,12892
82,12892
84,12892
85,12892
89,12892
95,12892
99,12892
100,12892
102,12892
105,12893
109,12894
113,12895
117,12896
119,12897
121,12898
124,12899
127,12901
128,12901
129,12902
131,12904
132,12906
133,12908
133,12909
133,12910
" style="stroke:#ffffff;stroke-width:0;
stroke-linejoin:bevel; stroke-linecap:round;
fill:#ffffff;
"/>
<!-- Line -->
<!--  spline  -->
<polyline points="133,12910
132,12912
132,12914
131,12916
130,12917
129,12918
127,12919
124,12921
121,12922
119,12923
117,12924
113,12925
109,12926
107,12926
105,12926
100,12927
95,12927
90,12928
87,12928
84,12928
83,12928
79,12928
74,12927
70,12927
69,12927
67,12927
64,12927
60,12926
56,12925
52,12924
50,12923
48,12922
45,12921
42,12919
41,12919
40,12918
38,12916
37,12914
36,12912
36,12911
36,12910
37,12908
37,12906
38,12904
39,12903
40,12902
42,12901
45,12899
48,12898
50,12897
52,12896
56,12895
60,12894
62,12893
63,12893
64,12893
69,12892
74,12892
78,12892
82,12892
84,12892
85,12892
89,12892
95,12892
99,12892
100,12892
102,12892
105,12893
109,12894
113,12895
117,12896
119,12897
121,12898
124,12899
127,12901
128,12901
129,12902
131,12904
132,12906
133,12908
133,12909
133,12910
" style="stroke:#000000;stroke-width:7;
stroke-linejoin:bevel; stroke-linecap:round;
"/>
<!-- Line -->
<!--  spline  -->
<polyline points="99,12909
99,12910
98,12910
98,12911
97,12911
97,12912
96,12912
95,12912
95,12913
94,12913
93,12913
92,12913
91,12914
90,12914
89,12914
87,12914
86,12914
85,12914
84,12914
83,12914
81,12914
80,12914
79,12914
77,12913
76,12913
75,12913
74,12913
74,12912
73,12912
72,12912
71,12912
70,12911
70,12910
70,12909
70,12908
70,12907
71,12907
71,12906
72,12906
73,12905
74,12905
75,12904
76,12904
77,12904
78,12904
79,12904
80,12904
81,12904
83,12903
84,12903
86,12903
87,12904
89,12904
90,12904
91,12904
92,12904
93,12904
94,12904
95,12905
96,12906
97,12906
97,12907
97,12906
97,12907
98,12907
98,12908
99,12908
99,12909
" style="stroke:#000000;stroke-width:0;
stroke-linejoin:bevel; stroke-linecap:round;
fill:#000000;
"/>
<!-- Line -->
<!--  spline  -->
<polyline points="99,12899
99,12900
98,12900
98,12901
97,12901
97,12902
96,12902
95,12902
95,12903
94,12903
93,12903
92,12903
91,12904
90,12904
89,12904
87,12904
86,12904
85,12904
84,12904
83,12904
81,12904
80,12904
79,12904
77,12903
76,12903
75,12903
74,12903
74,12902
73,12902
72,12902
71,12902
70,12901
70,12900
70,12899
70,12898
70,12897
71,12897
71,12896
72,12896
73,12895
74,12895
75,12894
76,12894
77,12894
78,12894
79,12894
80,12894
81,12894
83,12893
84,12893
86,12893
87,12894
89,12894
90,12894
91,12894
92,12894
93,12894
94,12894
95,12895
96,12896
97,12896
97,12897
97,12896
97,12897
98,12897
98,12898
99,12898
99,12899
" style="stroke:#000000;stroke-width:0;
stroke-linejoin:bevel; stroke-linecap:round;
fill:#000000;
"/>
<!-- Line -->
<!--  spline  -->
<polyline points="133,12890
132,12892
132,12894
131,12896
130,12897
129,12898
127,12899
124,12901
121,12902
119,12903
117,12904
113,12905
109,12906
107,12906
105,12906
100,12907
95,12907
90,12908
87,12908
84,12908
83,12908
79,12908
74,12907
70,12907
69,12907
67,12907
64,12907
60,12906
56,12905
52,12904
50,12903
48,12902
45,12901
42,12899
41,12899
40,12898
38,12896
37,12894
36,12892
36,12891
36,12890
37,12888
37,12886
38,12884
39,12883
40,12882
42,12881
45,12879
48,12878
50,12877
52,12876
56,12875
60,12874
62,12873
63,12873
64,12873
69,12872
74,12872
78,12872
82,12872
84,12872
85,12872
89,12872
95,12872
99,12872
100,12872
102,12872
105,12873
109,12874
113,12875
117,12876
119,12877
121,12878
124,12879
127,12881
128,12881
129,12882
131,12884
132,12886
133,12888
133,12889
133,12890
" style="stroke:#ffffff;stroke-width:0;
stroke-linejoin:bevel; stroke-linecap:round;
fill:#ffffff;
"/>
<!-- Line -->
<!--  spline  -->
<polyline points="133,12890
132,12892
132,12894
131,12896
130,12897
129,12898
127,12899
124,12901
121,12902
119,12903
117,12904
113,12905
109,12906
107,12906
105,12906
100,12907
95,12907
90,12908
87,12908
84,12908
83,12908
79,12908
74,12907
70,12907
69,12907
67,12907
64,12907
60,12906
56,12905
52,12904
50,12903
48,12902
45,12901
42,12899
41,12899
40,12898
38,12896
37,12894
36,12892
36,12891
36,12890
37,12888
37,12886
38,12884
39,12883
40,12882
42,12881
45,12879
48,12878
50,12877
52,12876
56,12875
60,12874
62,12873
63,12873
64,12873
69,12872
74,12872
78,12872
82,12872
84,12872
85,12872
89,12872
95,12872
99,12872
100,12872
102,12872
105,12873
109,12874
113,12875
117,12876
119,12877
121,12878
124,12879
127,12881
128,12881
129,12882
131,12884
132,12886
133,12888
133,12889
133,12890
" style="stroke:#000000;stroke-width:7;
stroke-linejoin:bevel; stroke-linecap:round;
"/>
<!-- Line -->
<!--  spline  -->
<polyline points="99,12889
99,12890
98,12890
98,12891
97,12891
97,12892
96,12892
95,12892
95,12893
94,12893
93,12893
92,12893
91,12894
90,12894
89,12894
87,12894
86,12894
85,12894
84,12894
83,12894
81,12894
80,12894
79,12894
77,12893
76,12893
75,12893
74,12893
74,12892
73,12892
72,12892
71,12892
70,12891
70,12890
70,12889
70,12888
70,12887
71,12887
71,12886
72,12886
73,12885
74,12885
75,12884
76,12884
77,12884
78,12884
79,12884
80,12884
81,12884
83,12883
84,12883
86,12883
87,12884
89,12884
90,12884
91,12884
92,12884
93,12884
94,12884
95,12885
96,12886
97,12886
97,12887
97,12886
97,12887
98,12887
98,12888
99,12888
99,12889
" style="stroke:#000000;stroke-width:0;
stroke-linejoin:bevel; stroke-linecap:round;
fill:#000000;
"/>
<!-- Line -->
<!--  spline  -->
<polyline points="241,13090
240,13092
240,13094
239,13096
238,13097
237,13098
235,13099
232,13101
229,13102
227,13103
225,13104
221,13105
217,13106
215,13106
214,13106
213,13106
208,13107
203,13107
199,13108
195,13108
193,13108
192,13108
188,13108
182,13107
178,13107
177,13107
175,13107
172,13107
168,13106
164,13105
160,13104
159,13103
158,13103
157,13102
154,13101
151,13099
150,13099
149,13098
147,13096
145,13094
145,13092
144,13091
144,13090
145,13088
146,13086
147,13084
148,13083
149,13082
151,13081
154,13079
157,13078
158,13077
159,13077
160,13076
164,13075
168,13074
170,13073
172,13073
177,13072
182,13072
187,13072
190,13072
193,13072
194,13072
198,13072
203,13072
207,13072
208,13072
210,13072
213,13073
217,13074
221,13075
225,13076
227,13077
229,13078
232,13079
235,13081
236,13081
237,13082
239,13084
240,13086
241,13088
241,13089
241,13090
" style="stroke:#ffffff;stroke-width:0;
stroke-linejoin:bevel; stroke-linecap:round;
fill:#ffffff;
"/>
<!-- Line -->
<!--  spline  -->
<polyline points="241,13090
240,13092
240,13094
239,13096
238,13097
237,13098
235,13099
232,13101
229,13102
227,13103
225,13104
221,13105
217,13106
215,13106
214,13106
213,13106
208,13107
203,13107
199,13108
195,13108
193,13108
192,13108
188,13108
182,13107
178,13107
177,13107
175,13107
172,13107
168,13106
164,13105
160,13104
159,13103
158,13103
157,13102
154,13101
151,13099
150,13099
149,13098
147,13096
145,13094
145,13092
144,13091
144,13090
145,13088
146,13086
147,13084
148,13083
149,13082
151,13081
154,13079
157,13078
158,13077
159,13077
160,13076
164,13075
168,13074
170,13073
172,13073
177,13072
182,13072
187,13072
190,13072
193,13072
194,13072
198,13072
203,13072
207,13072
208,13072
210,13072
213,13073
217,13074
221,13075
225,13076
227,13077
229,13078
232,13079
235,13081
236,13081
237,13082
239,13084
240,13086
241,13088
241,13089
241,13090
" style="stroke:#000000;stroke-width:7;
stroke-linejoin:bevel; stroke-linecap:round;
"/>
<!-- Line -->
<!--  spline  -->
<polyline points="207,13089
207,13090
206,13090
206,13091
205,13091
205,13092
204,13092
203,13092
203,13093
202,13093
201,13093
200,13093
199,13094
198,13094
197,13094
196,13094
194,13094
193,13094
191,13094
190,13094
188,13094
187,13094
186,13094
185,13093
184,13093
183,13093
182,13093
182,13092
181,13092
180,13092
180,13091
179,13091
179,13090
178,13090
178,13089
178,13088
179,13088
179,13087
180,13087
180,13086
181,13086
182,13085
183,13084
184,13084
185,13084
186,13084
187,13084
188,13084
190,13084
191,13083
192,13083
193,13083
194,13083
196,13084
197,13084
198,13084
199,13084
200,13084
201,13084
202,13084
203,13085
204,13086
205,13086
205,13087
205,13086
205,13087
206,13087
206,13088
207,13088
207,13089
" style="stroke:#000000;stroke-width:0;
stroke-linejoin:bevel; stroke-linecap:round;
fill:#000000;
"/>
<!-- Line -->
<!--  spline  -->
<polyline points="207,13079
207,13080
206,13080
206,13081
205,13081
205,13082
204,13082
203,13082
203,13083
202,13083
201,13083
200,13083
199,13084
198,13084
197,13084
196,13084
194,13084
193,13084
191,13084
190,13084
188,13084
187,13084
186,13084
185,13083
184,13083
183,13083
182,13083
182,13082
181,13082
180,13082
180,13081
179,13081
179,13080
178,13080
178,13079
178,13078
179,13078
179,13077
180,13077
180,13076
181,13076
182,13075
183,13074
184,13074
185,13074
186,13074
187,13074
188,13074
190,13074
191,13073
192,13073
193,13073
194,13073
196,13074
197,13074
198,13074
199,13074
200,13074
201,13074
202,13074
203,13075
204,13076
205,13076
205,13077
205,13076
205,13077
206,13077
206,13078
207,13078
207,13079
" style="stroke:#000000;stroke-width:0;
stroke-linejoin:bevel; stroke-linecap:round;
fill:#000000;
"/>
<!-- Line -->
<!--  spline  -->
<polyline points="241,13070
240,13072
240,13074
239,13076
238,13077
237,13078
235,13079
232,13081
229,13082
227,13083
225,13084
221,13085
217,13086
215,13086
214,13086
213,13086
208,13087
203,13087
199,13088
195,13088
193,13088
192,13088
188,13088
182,13087
178,13087
177,13087
175,13087
172,13087
168,13086
164,13085
160,13084
159,13083
158,13083
157,13082
154,13081
151,13079
150,13079
149,13078
147,13076
145,13074
145,13072
144,13071
144,13070
145,13068
146,13066
147,13064
148,13063
149,13062
151,13061
154,13059
157,13058
158,13057
159,13057
160,13056
164,13055
168,13054
170,13053
172,13053
177,13052
182,13052
187,13052
190,13052
193,13052
194,13052
198,13052
203,13052
207,13052
208,13052
210,13052
213,13053
217,13054
221,13055
225,13056
227,13057
229,13058
232,13059
235,13061
236,13061
237,13062
239,13064
240,13066
241,13068
241,13069
241,13070
" style="stroke:#ffffff;stroke-width:0;
stroke-linejoin:bevel; stroke-linecap:round;
fill:#ffffff;
"/>
<!-- Line -->
<!--  spline  -->
<polyline points="241,13070
240,13072
240,13074
239,13076
238,13077
237,13078
235,13079
232,13081
229,13082
227,13083
225,13084
221,13085
217,13086
215,13086
214,13086
213,13086
208,13087
203,13087
199,13088
195,13088
193,13088
192,13088
188,13088
182,13087
178,13087
177,13087
175,13087
172,13087
168,13086
164,13085
160,13084
159,13083
158,13083
157,13082
154,13081
151,13079
150,13079
149,13078
147,13076
145,13074
145,13072
144,13071
144,13070
145,13068
146,13066
147,13064
148,13063
149,13062
151,13061
154,13059
157,13058
158,13057
159,13057
160,13056
164,13055
168,13054
170,13053
172,13053
177,13052
182,13052
187,13052
190,13052
193,13052
194,13052
198,13052
203,13052
207,13052
208,13052
210,13052
213,13053
217,13054
221,13055
225,13056
227,13057
229,13058
232,13059
235,13061
236,13061
237,13062
239,13064
240,13066
241,13068
241,13069
241,13070
" style="stroke:#000000;stroke-width:7;
stroke-linejoin:bevel; stroke-linecap:round;
"/>
<!-- Line -->
<!--  spline  -->
<polyline points="207,13069
207,13070
206,13070
206,13071
205,13071
205,13072
204,13072
203,13072
203,13073
202,13073
201,13073
200,13073
199,13074
198,13074
197,13074
196,13074
194,13074
193,13074
191,13074
190,13074
188,13074
187,13074
186,13074
185,13073
184,13073
183,13073
182,13073
182,13072
181,13072
180,13072
180,13071
179,13071
179,13070
178,13070
178,13069
178,13068
179,13068
179,13067
180,13067
180,13066
181,13066
182,13065
183,13064
184,13064
185,13064
186,13064
187,13064
188,13064
190,13064
191,13063
192,13063
193,13063
194,13063
196,13064
197,13064
198,13064
199,13064
200,13064
201,13064
202,13064
203,13065
204,13066
205,13066
205,13067
205,13066
205,13067
206,13067
206,13068
207,13068
207,13069
" style="stroke:#000000;stroke-width:0;
stroke-linejoin:bevel; stroke-linecap:round;
fill:#000000;
"/>
<!-- Line -->
<!--  spline  -->
<polyline points="207,13059
207,13060
206,13060
206,13061
205,13061
205,13062
204,13062
203,13062
203,13063
202,13063
201,13063
200,13063
199,13064
198,13064
197,13064
196,13064
194,13064
193,13064
191,13064
190,13064
188,13064
187,13064
186,13064
185,13063
184,13063
183,13063
182,13063
182,13062
181,13062
180,13062
180,13061
179,13061
179,13060
178,13060
178,13059
178,13058
179,13058
179,13057
180,13057
180,13056
181,13056
182,13055
183,13054
184,13054
185,13054
186,13054
187,13054
188,13054
190,13054
191,13053
192,13053
193,13053
194,13053
196,13054
197,13054
198,13054
199,13054
200,13054
201,13054
202,13054
203,13055
204,13056
205,13056
205,13057
205,13056
205,13057
206,13057
206,13058
207,13058
207,13059
" style="stroke:#000000;stroke-width:0;
stroke-linejoin:bevel; stroke-linecap:round;
fill:#000000;
"/>
<!-- Line -->
<!--  spline  -->
<polyline points="241,13050
240,13052
240,13054
239,13056
238,13057
237,13058
235,13059
232,13061
229,13062
227,13063
225,13064
221,13065
217,13066
215,13066
214,13066
213,13066
208,13067
203,13067
199,13068
195,13068
193,13068
192,13068
188,13068
182,13067
178,13067
177,13067
175,13067
172,13067
168,13066
164,13065
160,13064
159,13063
158,13063
157,13062
154,13061
151,13059
150,13059
149,13058
147,13056
145,13054
145,13052
144,13051
144,13050
145,13048
146,13046
147,13044
148,13043
149,13042
151,13041
154,13039
157,13038
158,13037
159,13037
160,13036
164,13035
168,13034
170,13034
172,13034
177,13033
182,13033
187,13032
190,13032
193,13032
194,13032
198,13032
203,13033
207,13033
208,13033
210,13033
213,13033
217,13034
221,13035
225,13036
227,13037
229,13038
232,13039
235,13041
236,13041
237,13042
239,13044
240,13046
241,13048
241,13049
241,13050
" style="stroke:#ffffff;stroke-width:0;
stroke-linejoin:bevel; stroke-linecap:round;
fill:#ffffff;
"/>
<!-- Line -->
<!--  spline  -->
<polyline points="241,13050
240,13052
240,13054
239,13056
238,13057
237,13058
235,13059
232,13061
229,13062
227,13063
225,13064
221,13065
217,13066
215,13066
214,13066
213,13066
208,13067
203,13067
199,13068
195,13068
193,13068
192,13068
188,13068
182,13067
178,13067
177,13067
175,13067
172,13067
168,13066
164,13065
160,13064
159,13063
158,13063
157,13062
154,13061
151,13059
150,13059
149,13058
147,13056
145,13054
145,13052
144,13051
144,13050
145,13048
146,13046
147,13044
148,13043
149,13042
151,13041
154,13039
157,13038
158,13037
159,13037
160,13036
164,13035
168,13034
170,13034
172,13034
177,13033
182,13033
187,13032
190,13032
193,13032
194,13032
198,13032
203,13033
207,13033
208,13033
210,13033
213,13033
217,13034
221,13035
225,13036
227,13037
229,13038
232,13039
235,13041
236,13041
237,13042
239,13044
240,13046
241,13048
241,13049
241,13050
" style="stroke:#000000;stroke-width:7;
stroke-linejoin:bevel; stroke-linecap:round;
"/>
<!-- Line -->
<!--  spline  -->
<polyline points="207,13049
207,13050
206,13050
206,13051
205,13051
205,13052
204,13052
203,13052
203,13053
202,13053
201,13053
200,13053
199,13054
198,13054
197,13054
196,13054
194,13054
193,13054
191,13054
190,13054
188,13054
187,13054
186,13054
185,13053
184,13053
183,13053
182,13053
182,13052
181,13052
180,13052
180,13051
179,13051
179,13050
178,13050
178,13049
178,13048
179,13048
179,13047
180,13047
180,13046
181,13046
182,13045
183,13044
184,13044
185,13044
186,13044
187,13044
188,13044
190,13044
191,13043
192,13043
193,13043
194,13043
196,13044
197,13044
198,13044
199,13044
200,13044
201,13044
202,13044
203,13045
204,13046
205,13046
205,13047
205,13046
205,13047
206,13047
206,13048
207,13048
207,13049
" style="stroke:#000000;stroke-width:0;
stroke-linejoin:bevel; stroke-linecap:round;
fill:#000000;
"/>
<!-- Line -->
<!--  spline  -->
<polyline points="241,13010
240,13012
240,13014
239,13016
238,13017
237,13018
235,13019
232,13021
229,13022
227,13023
225,13024
221,13025
217,13026
215,13026
214,13026
213,13026
208,13027
203,13027
199,13028
195,13028
193,13028
192,13028
188,13028
182,13027
178,13027
177,13027
175,13027
172,13027
168,13026
164,13025
160,13024
159,13023
158,13023
157,13022
154,13021
151,13019
150,13019
149,13018
147,13016
145,13014
145,13012
144,13011
144,13010
145,13008
146,13006
147,13004
148,13003
149,13002
151,13001
154,12999
157,12998
158,12997
159,12997
160,12996
164,12995
168,12994
170,12993
172,12993
177,12992
182,12992
187,12992
190,12992
193,12992
194,12992
198,12992
203,12992
207,12992
208,12992
210,12992
213,12993
217,12994
221,12995
225,12996
227,12997
229,12998
232,12999
235,13001
236,13001
237,13002
239,13004
240,13006
241,13008
241,13009
241,13010
" style="stroke:#ffffff;stroke-width:0;
stroke-linejoin:bevel; stroke-linecap:round;
fill:#ffffff;
"/>
<!-- Line -->
<!--  spline  -->
<polyline points="241,13010
240,13012
240,13014
239,13016
238,13017
237,13018
235,13019
232,13021
229,13022
227,13023
225,13024
221,13025
217,13026
215,13026
214,13026
213,13026
208,13027
203,13027
199,13028
195,13028
193,13028
192,13028
188,13028
182,13027
178,13027
177,13027
175,13027
172,13027
168,13026
164,13025
160,13024
159,13023
158,13023
157,13022
154,13021
151,13019
150,13019
149,13018
147,13016
145,13014
145,13012
144,13011
144,13010
145,13008
146,13006
147,13004
148,13003
149,13002
151,13001
154,12999
157,12998
158,12997
159,12997
160,12996
164,12995
168,12994
170,12993
172,12993
177,12992
182,12992
187,12992
190,12992
193,12992
194,12992
198,12992
203,12992
207,12992
208,12992
210,12992
213,12993
217,12994
221,12995
225,12996
227,12997
229,12998
232,12999
235,13001
236,13001
237,13002
239,13004
240,13006
241,13008
241,13009
241,13010
" style="stroke:#000000;stroke-width:7;
stroke-linejoin:bevel; stroke-linecap:round;
"/>
<!-- Line -->
<!--  spline  -->
<polyline points="207,13009
207,13010
206,13010
206,13011
205,13011
205,13012
204,13012
203,13012
203,13013
202,13013
201,13013
200,13013
199,13014
198,13014
197,13014
196,13014
194,13014
193,13014
191,13014
190,13014
188,13014
187,13014
186,13014
185,13013
184,13013
183,13013
182,13013
182,13012
181,13012
180,13012
180,13011
179,13011
179,13010
178,13010
178,13009
178,13008
179,13008
179,13007
180,13007
180,13006
181,13006
182,13005
183,13004
184,13004
185,13004
186,13004
187,13004
188,13004
190,13004
191,13003
192,13003
193,13003
194,13003
196,13004
197,13004
198,13004
199,13004
200,13004
201,13004
202,13004
203,13005
204,13006
205,13006
205,13007
205,13006
205,13007
206,13007
206,13008
207,13008
207,13009
" style="stroke:#000000;stroke-width:0;
stroke-linejoin:bevel; stroke-linecap:round;
fill:#000000;
"/>
<!-- Line -->
<!--  spline  -->
<polyline points="207,12999
207,13000
206,13000
206,13001
205,13001
205,13002
204,13002
203,13002
203,13003
202,13003
201,13003
200,13003
199,13004
198,13004
197,13004
196,13004
194,13004
193,13004
191,13004
190,13004
188,13004
187,13004
186,13004
185,13003
184,13003
183,13003
182,13003
182,13002
181,13002
180,13002
180,13001
179,13001
179,13000
178,13000
178,12999
178,12998
179,12998
179,12997
180,12997
180,12996
181,12996
182,12995
183,12994
184,12994
185,12994
186,12994
187,12994
188,12994
190,12994
191,12993
192,12993
193,12993
194,12993
196,12994
197,12994
198,12994
199,12994
200,12994
201,12994
202,12994
203,12995
204,12996
205,12996
205,12997
205,12996
205,12997
206,12997
206,12998
207,12998
207,12999
" style="stroke:#000000;stroke-width:0;
stroke-linejoin:bevel; stroke-linecap:round;
fill:#000000;
"/>
<!-- Line -->
<!--  spline  -->
<polyline points="241,12990
240,12992
240,12994
239,12996
238,12997
237,12998
235,12999
232,13001
229,13002
227,13003
225,13004
221,13005
217,13006
215,13006
214,13006
213,13006
208,13007
203,13007
199,13008
195,13008
193,13008
192,13008
188,13008
182,13007
178,13007
177,13007
175,13007
172,13007
168,13006
164,13005
160,13004
159,13003
158,13003
157,13002
154,13001
151,12999
150,12999
149,12998
147,12996
145,12994
145,12992
144,12991
144,12990
145,12988
146,12986
147,12984
148,12983
149,12982
151,12981
154,12979
157,12978
158,12977
159,12977
160,12976
164,12975
168,12974
170,12973
172,12973
177,12972
182,12972
187,12972
190,12972
193,12972
194,12972
198,12972
203,12972
207,12972
208,12972
210,12972
213,12973
217,12974
221,12975
225,12976
227,12977
229,12978
232,12979
235,12981
236,12981
237,12982
239,12984
240,12986
241,12988
241,12989
241,12990
" style="stroke:#ffffff;stroke-width:0;
stroke-linejoin:bevel; stroke-linecap:round;
fill:#ffffff;
"/>
<!-- Line -->
<!--  spline  -->
<polyline points="241,12990
240,12992
240,12994
239,12996
238,12997
237,12998
235,12999
232,13001
229,13002
227,13003
225,13004
221,13005
217,13006
215,13006
214,13006
213,13006
208,13007
203,13007
199,13008
195,13008
193,13008
192,13008
188,13008
182,13007
178,13007
177,13007
175,13007
172,13007
168,13006
164,13005
160,13004
159,13003
158,13003
157,13002
154,13001
151,12999
150,12999
149,12998
147,12996
145,12994
145,12992
144,12991
144,12990
145,12988
146,12986
147,12984
148,12983
149,12982
151,12981
154,12979
157,12978
158,12977
159,12977
160,12976
164,12975
168,12974
170,12973
172,12973
177,12972
182,12972
187,12972
190,12972
193,12972
194,12972
198,12972
203,12972
207,12972
208,12972
210,12972
213,12973
217,12974
221,12975
225,12976
227,12977
229,12978
232,12979
235,12981
236,12981
237,12982
239,12984
240,12986
241,12988
241,12989
241,12990
" style="stroke:#000000;stroke-width:7;
stroke-linejoin:bevel; stroke-linecap:round;
"/>
<!-- Line -->
<!--  spline  -->
<polyline points="207,12989
207,12990
206,12990
206,12991
205,12991
205,12992
204,12992
203,12992
203,12993
202,12993
201,12993
200,12993
199,12994
198,12994
197,12994
196,12994
194,12994
193,12994
191,12994
190,12994
188,12994
187,12994
186,12994
185,12993
184,12993
183,12993
182,12993
182,12992
181,12992
180,12992
180,12991
179,12991
179,12990
178,12990
178,12989
178,12988
179,12988
179,12987
180,12987
180,12986
181,12986
182,12985
183,12984
184,12984
185,12984
186,12984
187,12984
188,12984
190,12984
191,12983
192,12983
193,12983
194,12983
196,12984
197,12984
198,12984
199,12984
200,12984
201,12984
202,12984
203,12985
204,12986
205,12986
205,12987
205,12986
205,12987
206,12987
206,12988
207,12988
207,12989
" style="stroke:#000000;stroke-width:0;
stroke-linejoin:bevel; stroke-linecap:round;
fill:#000000;
"/>
<!-- Line -->
<!--  spline  -->
<polyline points="207,12979
207,12980
206,12980
206,12981
205,12981
205,12982
204,12982
203,12982
203,12983
202,12983
201,12983
200,12983
199,12984
198,12984
197,12984
196,12984
194,12984
193,12984
191,12984
190,12984
188,12984
187,12984
186,12984
185,12983
184,12983
183,12983
182,12983
182,12982
181,12982
180,12982
180,12981
179,12981
179,12980
178,12980
178,12979
178,12978
179,12978
179,12977
180,12977
180,12976
181,12976
182,12975
183,12974
184,12974
185,12974
186,12974
187,12974
188,12974
190,12974
191,12973
192,12973
193,12973
194,12973
196,12974
197,12974
198,12974
199,12974
200,12974
201,12974
202,12974
203,12975
204,12976
205,12976
205,12977
205,12976
205,12977
206,12977
206,12978
207,12978
207,12979
" style="stroke:#000000;stroke-width:0;
stroke-linejoin:bevel; stroke-linecap:round;
fill:#000000;
"/>
<!-- Line -->
<!--  spline  -->
<polyline points="241,12970
240,12972
240,12974
239,12976
238,12977
237,12978
235,12979
232,12981
229,12982
227,12983
225,12984
221,12985
217,12986
215,12986
214,12986
213,12986
208,12987
203,12987
199,12988
195,12988
193,12988
192,12988
188,12988
182,12987
178,12987
177,12987
175,12987
172,12987
168,12986
164,12985
160,12984
159,12983
158,12983
157,12982
154,12981
151,12979
150,12979
149,12978
147,12976
145,12974
145,12972
144,12971
144,12970
145,12968
146,12966
147,12964
148,12963
149,12962
151,12961
154,12959
157,12958
158,12957
159,12957
160,12956
164,12955
168,12954
170,12953
172,12953
177,12952
182,12952
187,12952
190,12952
193,12952
194,12952
198,12952
203,12952
207,12952
208,12952
210,12952
213,12953
217,12954
221,12955
225,12956
227,12957
229,12958
232,12959
235,12961
236,12961
237,12962
239,12964
240,12966
241,12968
241,12969
241,12970
" style="stroke:#ffffff;stroke-width:0;
stroke-linejoin:bevel; stroke-linecap:round;
fill:#ffffff;
"/>
<!-- Line -->
<!--  spline  -->
<polyline points="241,12970
240,12972
240,12974
239,12976
238,12977
237,12978
235,12979
232,12981
229,12982
227,12983
225,12984
221,12985
217,12986
215,12986
214,12986
213,12986
208,12987
203,12987
199,12988
195,12988
193,12988
192,12988
188,12988
182,12987
178,12987
177,12987
175,12987
172,12987
168,12986
164,12985
160,12984
159,12983
158,12983
157,12982
154,12981
151,12979
150,12979
149,12978
147,12976
145,12974
145,12972
144,12971
144,12970
145,12968
146,12966
147,12964
148,12963
149,12962
151,12961
154,12959
157,12958
158,12957
159,12957
160,12956
164,12955
168,12954
170,12953
172,12953
177,12952
182,12952
187,12952
190,12952
193,12952
194,12952
198,12952
203,12952
207,12952
208,12952
210,12952
213,12953
217,12954
221,12955
225,12956
227,12957
229,12958
232,12959
235,12961
236,12961
237,12962
239,12964
240,12966
241,12968
241,12969
241,12970
" style="stroke:#000000;stroke-width:7;
stroke-linejoin:bevel; stroke-linecap:round;
"/>
<!-- Line -->
<!--  spline  -->
<polyline points="207,12969
207,12970
206,12970
206,12971
205,12971
205,12972
204,12972
203,12972
203,12973
202,12973
201,12973
200,12973
199,12974
198,12974
197,12974
196,12974
194,12974
193,12974
191,12974
190,12974
188,12974
187,12974
186,12974
185,12973
184,12973
183,12973
182,12973
182,12972
181,12972
180,12972
180,12971
179,12971
179,12970
178,12970
178,12969
178,12968
179,12968
179,12967
180,12967
180,12966
181,12966
182,12965
183,12964
184,12964
185,12964
186,12964
187,12964
188,12964
190,12964
191,12963
192,12963
193,12963
194,12963
196,12964
197,12964
198,12964
199,12964
200,12964
201,12964
202,12964
203,12965
204,12966
205,12966
205,12967
205,12966
205,12967
206,12967
206,12968
207,12968
207,12969
" style="stroke:#000000;stroke-width:0;
stroke-linejoin:bevel; stroke-linecap:round;
fill:#000000;
"/>
<!-- Line -->
<!--  spline  -->
<polyline points="241,12930
240,12932
240,12934
239,12936
238,12937
237,12938
235,12939
232,12941
229,12942
227,12943
225,12944
221,12945
217,12946
215,12946
214,12946
213,12946
208,12947
203,12947
199,12948
195,12948
193,12948
192,12948
188,12948
182,12947
178,12947
177,12947
175,12947
172,12947
168,12946
164,12945
160,12944
159,12943
158,12943
157,12942
154,12941
151,12939
150,12939
149,12938
147,12936
145,12934
145,12932
144,12931
144,12930
145,12928
146,12926
147,12924
148,12923
149,12922
151,12921
154,12919
157,12918
158,12917
159,12917
160,12916
164,12915
168,12914
170,12914
172,12914
177,12913
182,12913
187,12912
190,12912
193,12912
194,12912
198,12912
203,12913
207,12913
208,12913
210,12913
213,12913
217,12914
221,12915
225,12916
227,12917
229,12918
232,12919
235,12921
236,12921
237,12922
239,12924
240,12926
241,12928
241,12929
241,12930
" style="stroke:#ffffff;stroke-width:0;
stroke-linejoin:bevel; stroke-linecap:round;
fill:#ffffff;
"/>
<!-- Line -->
<!--  spline  -->
<polyline points="241,12930
240,12932
240,12934
239,12936
238,12937
237,12938
235,12939
232,12941
229,12942
227,12943
225,12944
221,12945
217,12946
215,12946
214,12946
213,12946
208,12947
203,12947
199,12948
195,12948
193,12948
192,12948
188,12948
182,12947
178,12947
177,12947
175,12947
172,12947
168,12946
164,12945
160,12944
159,12943
158,12943
157,12942
154,12941
151,12939
150,12939
149,12938
147,12936
145,12934
145,12932
144,12931
144,12930
145,12928
146,12926
147,12924
148,12923
149,12922
151,12921
154,12919
157,12918
158,12917
159,12917
160,12916
164,12915
168,12914
170,12914
172,12914
177,12913
182,12913
187,12912
190,12912
193,12912
194,12912
198,12912
203,12913
207,12913
208,12913
210,12913
213,12913
217,12914
221,12915
225,12916
227,12917
229,12918
232,12919
235,12921
236,12921
237,12922
239,12924
240,12926
241,12928
241,12929
241,12930
" style="stroke:#000000;stroke-width:7;
stroke-linejoin:bevel; stroke-linecap:round;
"/>
<!-- Line -->
<!--  spline  -->
<polyline points="207,12929
207,12930
206,12930
206,12931
205,12931
205,12932
204,12932
203,12932
203,12933
202,12933
201,12933
200,12933
199,12934
198,12934
197,12934
196,12934
194,12934
193,12934
191,12934
190,12934
188,12934
187,12934
186,12934
185,12933
184,12933
183,12933
182,12933
182,12932
181,12932
180,12932
180,12931
179,12931
179,12930
178,12930
178,12929
178,12928
179,12928
179,12927
180,12927
180,12926
181,12926
182,12925
183,12924
184,12924
185,12924
186,12924
187,12924
188,12924
190,12924
191,12923
192,12923
193,12923
194,12923
196,12924
197,12924
198,12924
199,12924
200,12924
201,12924
202,12924
203,12925
204,12926
205,12926
205,12927
205,12926
205,12927
206,12927
206,12928
207,12928
207,12929
" style="stroke:#000000;stroke-width:0;
stroke-linejoin:bevel; stroke-linecap:round;
fill:#000000;
"/>
<!-- Line -->
<!--  spline  -->
<polyline points="207,12919
207,12920
206,12920
206,12921
205,12921
205,12922
204,12922
203,12922
203,12923
202,12923
201,12923
200,12923
199,12924
198,12924
197,12924
196,12924
194,12924
193,12924
191,12924
190,12924
188,12924
187,12924
186,12924
185,12923
184,12923
183,12923
182,12923
182,12922
181,12922
180,12922
180,12921
179,12921
179,12920
178,12920
178,12919
178,12918
179,12918
179,12917
180,12917
180,12916
181,12916
182,12915
183,12914
184,12914
185,12914
186,12914
187,12914
188,12914
190,12914
191,12913
192,12913
193,12913
194,12913
196,12914
197,12914
198,12914
199,12914
200,12914
201,12914
202,12914
203,12915
204,12916
205,12916
205,12917
205,12916
205,12917
206,12917
206,12918
207,12918
207,12919
" style="stroke:#000000;stroke-width:0;
stroke-linejoin:bevel; stroke-linecap:round;
fill:#000000;
"/>
<!-- Line -->
<!--  spline  -->
<polyline points="241,12910
240,12912
240,12914
239,12916
238,12917
237,12918
235,12919
232,12921
229,12922
227,12923
225,12924
221,12925
217,12926
215,12926
214,12926
213,12926
208,12927
203,12927
199,12928
195,12928
193,12928
192,12928
188,12928
182,12927
178,12927
177,12927
175,12927
172,12927
168,12926
164,12925
160,12924
159,12923
158,12923
157,12922
154,12921
151,12919
150,12919
149,12918
147,12916
145,12914
145,12912
144,12911
144,12910
145,12908
146,12906
147,12904
148,12903
149,12902
151,12901
154,12899
157,12898
158,12897
159,12897
160,12896
164,12895
168,12894
170,12893
172,12893
177,12892
182,12892
187,12892
190,12892
193,12892
194,12892
198,12892
203,12892
207,12892
208,12892
210,12892
213,12893
217,12894
221,12895
225,12896
227,12897
229,12898
232,12899
235,12901
236,12901
237,12902
239,12904
240,12906
241,12908
241,12909
241,12910
" style="stroke:#ffffff;stroke-width:0;
stroke-linejoin:bevel; stroke-linecap:round;
fill:#ffffff;
"/>
<!-- Line -->
<!--  spline  -->
<polyline points="241,12910
240,12912
240,12914
239,12916
238,12917
237,12918
235,12919
232,12921
229,12922
227,12923
225,12924
221,12925
217,12926
215,12926
214,12926
213,12926
208,12927
203,12927
199,12928
195,12928
193,12928
192,12928
188,12928
182,12927
178,12927
177,12927
175,12927
172,12927
168,12926
164,12925
160,12924
159,12923
158,12923
157,12922
154,12921
151,12919
150,12919
149,12918
147,12916
145,12914
145,12912
144,12911
144,12910
145,12908
146,12906
147,12904
148,12903
149,12902
151,12901
154,12899
157,12898
158,12897
159,12897
160,12896
164,12895
168,12894
170,12893
172,12893
177,12892
182,12892
187,12892
190,12892
193,12892
194,12892
198,12892
203,12892
207,12892
208,12892
210,12892
213,12893
217,12894
221,12895
225,12896
227,12897
229,12898
232,12899
235,12901
236,12901
237,12902
239,12904
240,12906
241,12908
241,12909
241,12910
" style="stroke:#000000;stroke-width:7;
stroke-linejoin:bevel; stroke-linecap:round;
"/>
<!-- Line -->
<!--  spline  -->
<polyline points="207,12909
207,12910
206,12910
206,12911
205,12911
205,12912
204,12912
203,12912
203,12913
202,12913
201,12913
200,12913
199,12914
198,12914
197,12914
196,12914
194,12914
193,12914
191,12914
190,12914
188,12914
187,12914
186,12914
185,12913
184,12913
183,12913
182,12913
182,12912
181,12912
180,12912
180,12911
179,12911
179,12910
178,12910
178,12909
178,12908
179,12908
179,12907
180,12907
180,12906
181,12906
182,12905
183,12904
184,12904
185,12904
186,12904
187,12904
188,12904
190,12904
191,12903
192,12903
193,12903
194,12903
196,12904
197,12904
198,12904
199,12904
200,12904
201,12904
202,12904
203,12905
204,12906
205,12906
205,12907
205,12906
205,12907
206,12907
206,12908
207,12908
207,12909
" style="stroke:#000000;stroke-width:0;
stroke-linejoin:bevel; stroke-linecap:round;
fill:#000000;
"/>
<!-- Line -->
<!--  spline  -->
<polyline points="207,12899
207,12900
206,12900
206,12901
205,12901
205,12902
204,12902
203,12902
203,12903
202,12903
201,12903
200,12903
199,12904
198,12904
197,12904
196,12904
194,12904
193,12904
191,12904
190,12904
188,12904
187,12904
186,12904
185,12903
184,12903
183,12903
182,12903
182,12902
181,12902
180,12902
180,12901
179,12901
179,12900
178,12900
178,12899
178,12898
179,12898
179,12897
180,12897
180,12896
181,12896
182,12895
183,12894
184,12894
185,12894
186,12894
187,12894
188,12894
190,12894
191,12893
192,12893
193,12893
194,12893
196,12894
197,12894
198,12894
199,12894
200,12894
201,12894
202,12894
203,12895
204,12896
205,12896
205,12897
205,12896
205,12897
206,12897
206,12898
207,12898
207,12899
" style="stroke:#000000;stroke-width:0;
stroke-linejoin:bevel; stroke-linecap:round;
fill:#000000;
"/>
<!-- Line -->
<!--  spline  -->
<polyline points="241,12890
240,12892
240,12894
239,12896
238,12897
237,12898
235,12899
232,12901
229,12902
227,12903
225,12904
221,12905
217,12906
215,12906
214,12906
213,12906
208,12907
203,12907
199,12908
195,12908
193,12908
192,12908
188,12908
182,12907
178,12907
177,12907
175,12907
172,12907
168,12906
164,12905
160,12904
159,12903
158,12903
157,12902
154,12901
151,12899
150,12899
149,12898
147,12896
145,12894
145,12892
144,12891
144,12890
145,12888
146,12886
147,12884
148,12883
149,12882
151,12881
154,12879
157,12878
158,12877
159,12877
160,12876
164,12875
168,12874
170,12873
172,12873
177,12872
182,12872
187,12872
190,12872
193,12872
194,12872
198,12872
203,12872
207,12872
208,12872
210,12872
213,12873
217,12874
221,12875
225,12876
227,12877
229,12878
232,12879
235,12881
236,12881
237,12882
239,12884
240,12886
241,12888
241,12889
241,12890
" style="stroke:#ffffff;stroke-width:0;
stroke-linejoin:bevel; stroke-linecap:round;
fill:#ffffff;
"/>
<!-- Line -->
<!--  spline  -->
<polyline points="241,12890
240,12892
240,12894
239,12896
238,12897
237,12898
235,12899
232,12901
229,12902
227,12903
225,12904
221,12905
217,12906
215,12906
214,12906
213,12906
208,12907
203,12907
199,12908
195,12908
193,12908
192,12908
188,12908
182,12907
178,12907
177,12907
175,12907
172,12907
168,12906
164,12905
160,12904
159,12903
158,12903
157,12902
154,12901
151,12899
150,12899
149,12898
147,12896
145,12894
145,12892
144,12891
144,12890
145,12888
146,12886
147,12884
148,12883
149,12882
151,12881
154,12879
157,12878
158,12877
159,12877
160,12876
164,12875
168,12874
170,12873
172,12873
177,12872
182,12872
187,12872
190,12872
193,12872
194,12872
198,12872
203,12872
207,12872
208,12872
210,12872
213,12873
217,12874
221,12875
225,12876
227,12877
229,12878
232,12879
235,12881
236,12881
237,12882
239,12884
240,12886
241,12888
241,12889
241,12890
" style="stroke:#000000;stroke-width:7;
stroke-linejoin:bevel; stroke-linecap:round;
"/>
<!-- Line -->
<!--  spline  -->
<polyline points="207,12889
207,12890
206,12890
206,12891
205,12891
205,12892
204,12892
203,12892
203,12893
202,12893
201,12893
200,12893
199,12894
198,12894
197,12894
196,12894
194,12894
193,12894
191,12894
190,12894
188,12894
187,12894
186,12894
185,12893
184,12893
183,12893
182,12893
182,12892
181,12892
180,12892
180,12891
179,12891
179,12890
178,12890
178,12889
178,12888
179,12888
179,12887
180,12887
180,12886
181,12886
182,12885
183,12884
184,12884
185,12884
186,12884
187,12884
188,12884
190,12884
191,12883
192,12883
193,12883
194,12883
196,12884
197,12884
198,12884
199,12884
200,12884
201,12884
202,12884
203,12885
204,12886
205,12886
205,12887
205,12886
205,12887
206,12887
206,12888
207,12888
207,12889
" style="stroke:#000000;stroke-width:0;
stroke-linejoin:bevel; stroke-linecap:round;
fill:#000000;
"/>
</g>
</svg>
