<?xml version="1.0" standalone="no"?>
<!DOCTYPE svg PUBLIC "-//W3C//DTD SVG 1.1//EN"
"http://www.w3.org/Graphics/SVG/1.1/DTD/svg11.dtd">
<!-- Creator: fig2dev Version 3.2 Patchlevel 5c -->
<!-- CreationDate: Fri Sep 14 10:46:24 2012 -->
<!-- Magnification: 1.000 -->
<svg xmlns="http://www.w3.org/2000/svg" width="0.5in" height="0.4in" viewBox="4912 5025 654 474">
<g style="stroke-width:.025in; fill:none">
<!-- Line -->
<!--  spline  -->
<polyline points="5143,5080
5141,5080
5131,5079
5113,5077
5095,5076
5085,5075
5083,5075
5082,5075
5078,5076
5070,5076
5060,5078
5049,5081
5036,5085
5025,5090
5019,5093
5018,5094
5016,5095
5012,5099
5004,5106
4996,5115
4993,5118
4992,5120
4990,5124
4986,5134
4983,5144
4982,5152
4983,5159
4983,5162
4983,5163
4983,5164
4984,5165
4984,5166
4983,5167
4976,5170
4964,5175
4952,5180
4945,5183
4944,5184
4943,5185
4940,5188
4936,5194
4931,5202
4927,5213
4925,5223
4924,5228
4925,5230
4925,5235
4927,5245
4930,5255
4931,5259
4932,5261
4934,5265
4940,5272
4947,5278
4953,5280
4958,5282
4961,5282
4962,5282
4963,5282
4965,5282
4966,5282
4966,5283
4968,5291
4970,5301
4972,5309
4972,5310
4973,5311
4975,5314
4980,5320
4987,5327
4997,5335
5006,5341
5012,5344
5014,5345
5016,5346
5022,5349
5033,5353
5044,5357
5051,5358
5053,5359
5056,5360
5062,5360
5074,5361
5086,5360
5095,5359
5103,5357
5108,5355
5111,5354
5112,5354
5113,5353
5115,5351
5116,5350
5117,5351
5121,5357
5128,5365
5132,5371
5133,5372
5134,5372
5137,5375
5142,5378
5150,5382
5161,5387
5170,5390
5176,5392
5178,5392
5180,5393
5185,5394
5196,5396
5207,5398
5213,5398
5215,5399
5217,5399
5223,5399
5235,5400
5248,5401
5258,5401
5266,5402
5273,5402
5276,5402
5277,5402
5279,5402
5287,5402
5301,5402
5309,5402
5311,5402
5312,5402
5316,5402
5322,5402
5329,5401
5339,5400
5348,5399
5351,5398
5352,5398
5355,5397
5363,5395
5370,5393
5373,5391
5374,5391
5377,5390
5383,5386
5390,5381
5394,5378
5398,5374
5400,5372
5401,5372
5403,5373
5404,5373
5406,5373
5414,5372
5430,5371
5446,5371
5454,5370
5456,5370
5457,5370
5460,5369
5467,5367
5475,5364
5485,5359
5495,5353
5505,5345
5509,5342
5510,5340
5513,5336
5519,5327
5524,5317
5527,5313
5527,5311
5528,5306
5530,5296
5530,5285
5529,5276
5527,5270
5525,5266
5525,5265
5527,5265
5528,5264
5530,5264
5531,5263
5535,5260
5541,5256
5545,5253
5546,5252
5546,5251
5548,5249
5550,5244
5552,5238
5554,5229
5554,5221
5554,5217
5554,5216
5553,5212
5551,5204
5548,5196
5546,5192
5546,5191
5543,5188
5537,5181
5529,5175
5521,5171
5515,5169
5511,5167
5510,5167
5510,5166
5511,5165
5511,5164
5511,5163
5513,5155
5514,5144
5516,5136
5516,5135
5516,5134
5515,5131
5514,5125
5511,5118
5505,5109
5498,5102
5495,5098
5493,5097
5489,5095
5479,5089
5469,5085
5464,5082
5462,5081
5460,5081
5454,5079
5442,5077
5429,5075
5418,5075
5408,5075
5401,5076
5397,5076
5396,5076
5394,5075
5393,5074
5391,5073
5390,5072
5382,5068
5368,5061
5354,5054
5346,5050
5345,5049
5344,5049
5339,5047
5330,5045
5318,5042
5304,5040
5285,5038
5267,5037
5258,5037
5254,5037
5250,5037
5241,5038
5224,5040
5208,5043
5199,5045
5196,5046
5192,5047
5185,5049
5173,5055
5162,5062
5155,5068
5150,5073
5148,5078
5146,5081
5145,5081
5144,5080
5143,5080
" style="stroke:#ffffff;stroke-width:0;
stroke-linejoin:bevel; stroke-linecap:butt;
fill:#ffffff;
"/>
<!-- Line -->
<!--  spline  -->
<polyline points="5143,5080
5141,5080
5131,5079
5113,5077
5095,5076
5085,5075
5083,5075
5082,5075
5078,5076
5070,5076
5060,5078
5049,5081
5036,5085
5025,5090
5019,5093
5018,5094
5016,5095
5012,5099
5004,5106
4996,5115
4993,5118
4992,5120
4990,5124
4986,5134
4983,5144
4982,5152
4983,5159
4983,5162
4983,5163
4983,5164
4984,5165
4984,5166
4983,5167
4976,5170
4964,5175
4952,5180
4945,5183
4944,5184
4943,5185
4940,5188
4936,5194
4931,5202
4927,5213
4925,5223
4924,5228
4925,5230
4925,5235
4927,5245
4930,5255
4931,5259
4932,5261
4934,5265
4940,5272
4947,5278
4953,5280
4958,5282
4961,5282
4962,5282
4963,5282
4965,5282
4966,5282
4966,5283
4968,5291
4970,5301
4972,5309
4972,5310
4973,5311
4975,5314
4980,5320
4987,5327
4997,5335
5006,5341
5012,5344
5014,5345
5016,5346
5022,5349
5033,5353
5044,5357
5051,5358
5053,5359
5056,5360
5062,5360
5074,5361
5086,5360
5095,5359
5103,5357
5108,5355
5111,5354
5112,5354
5113,5353
5115,5351
5116,5350
5117,5351
5121,5357
5128,5365
5132,5371
5133,5372
5134,5372
5137,5375
5142,5378
5150,5382
5161,5387
5170,5390
5176,5392
5178,5392
5180,5393
5185,5394
5196,5396
5207,5398
5213,5398
5215,5399
5217,5399
5223,5399
5235,5400
5248,5401
5258,5401
5266,5402
5273,5402
5276,5402
5277,5402
5279,5402
5287,5402
5301,5402
5309,5402
5311,5402
5312,5402
5316,5402
5322,5402
5329,5401
5339,5400
5348,5399
5351,5398
5352,5398
5355,5397
5363,5395
5370,5393
5373,5391
5374,5391
5377,5390
5383,5386
5390,5381
5394,5378
5398,5374
5400,5372
5401,5372
5403,5373
5404,5373
5406,5373
5414,5372
5430,5371
5446,5371
5454,5370
5456,5370
5457,5370
5460,5369
5467,5367
5475,5364
5485,5359
5495,5353
5505,5345
5509,5342
5510,5340
5513,5336
5519,5327
5524,5317
5527,5313
5527,5311
5528,5306
5530,5296
5530,5285
5529,5276
5527,5270
5525,5266
5525,5265
5527,5265
5528,5264
5530,5264
5531,5263
5535,5260
5541,5256
5545,5253
5546,5252
5546,5251
5548,5249
5550,5244
5552,5238
5554,5229
5554,5221
5554,5217
5554,5216
5553,5212
5551,5204
5548,5196
5546,5192
5546,5191
5543,5188
5537,5181
5529,5175
5521,5171
5515,5169
5511,5167
5510,5167
5510,5166
5511,5165
5511,5164
5511,5163
5513,5155
5514,5144
5516,5136
5516,5135
5516,5134
5515,5131
5514,5125
5511,5118
5505,5109
5498,5102
5495,5098
5493,5097
5489,5095
5479,5089
5469,5085
5464,5082
5462,5081
5460,5081
5454,5079
5442,5077
5429,5075
5418,5075
5408,5075
5401,5076
5397,5076
5396,5076
5394,5075
5393,5074
5391,5073
5390,5072
5382,5068
5368,5061
5354,5054
5346,5050
5345,5049
5344,5049
5339,5047
5330,5045
5318,5042
5304,5040
5285,5038
5267,5037
5258,5037
5254,5037
5250,5037
5241,5038
5224,5040
5208,5043
5199,5045
5196,5046
5192,5047
5185,5049
5173,5055
5162,5062
5155,5068
5150,5073
5148,5078
5146,5081
5145,5081
5144,5080
5143,5080
" style="stroke:#05b0da;stroke-width:7;
stroke-linejoin:bevel; stroke-linecap:butt;
"/>
<!-- Line -->
<!--  polyline  -->
<polyline points="5190,5160
5190,5442
5458,5442
5458,5157
5190,5160
" style="stroke:#05b0da;stroke-width:30;
stroke-linejoin:miter; stroke-linecap:butt;
"/>
<!-- Line -->
<!--  polyline  -->
<polyline points="5190,5160
5458,5442
" style="stroke:#05b0da;stroke-width:30;
stroke-linejoin:miter; stroke-linecap:butt;
"/>
<!-- Line -->
<!--  polyline  -->
<polyline points="5190,5442
5458,5157
" style="stroke:#05b0da;stroke-width:30;
stroke-linejoin:miter; stroke-linecap:butt;
"/>
<!-- Line -->
<!--  polyline  -->
<polyline points="5235,5200
5235,5112
5148,5112
5148,5200
5235,5200
" style="stroke:#ffffff;stroke-width:0;
stroke-linejoin:miter; stroke-linecap:butt;
fill:#ffffff;
"/>
<!-- Line -->
<!--  polyline  -->
<polyline points="5235,5200
5235,5112
5148,5112
5148,5200
5235,5200
" style="stroke:#05b0da;stroke-width:7;
stroke-linejoin:miter; stroke-linecap:butt;
"/>
<!-- Line -->
<!--  polyline  -->
<polyline points="5501,5200
5501,5112
5415,5112
5415,5200
5501,5200
" style="stroke:#ffffff;stroke-width:0;
stroke-linejoin:miter; stroke-linecap:butt;
fill:#ffffff;
"/>
<!-- Line -->
<!--  polyline  -->
<polyline points="5501,5200
5501,5112
5415,5112
5415,5200
5501,5200
" style="stroke:#05b0da;stroke-width:7;
stroke-linejoin:miter; stroke-linecap:butt;
"/>
<!-- Line -->
<!--  polyline  -->
<polyline points="5235,5487
5235,5399
5148,5399
5148,5487
5235,5487
" style="stroke:#ffffff;stroke-width:0;
stroke-linejoin:miter; stroke-linecap:butt;
fill:#ffffff;
"/>
<!-- Line -->
<!--  polyline  -->
<polyline points="5235,5487
5235,5399
5148,5399
5148,5487
5235,5487
" style="stroke:#05b0da;stroke-width:7;
stroke-linejoin:miter; stroke-linecap:butt;
"/>
<!-- Line -->
<!--  polyline  -->
<polyline points="5501,5487
5501,5399
5415,5399
5415,5487
5501,5487
" style="stroke:#ffffff;stroke-width:0;
stroke-linejoin:miter; stroke-linecap:butt;
fill:#ffffff;
"/>
<!-- Line -->
<!--  polyline  -->
<polyline points="5501,5487
5501,5399
5415,5399
5415,5487
5501,5487
" style="stroke:#05b0da;stroke-width:7;
stroke-linejoin:miter; stroke-linecap:butt;
"/>
<!-- Line -->
<!--  polyline  -->
<polyline points="5366,5344
5366,5256
5279,5256
5279,5344
5366,5344
" style="stroke:#ffffff;stroke-width:0;
stroke-linejoin:miter; stroke-linecap:butt;
fill:#ffffff;
"/>
<!-- Line -->
<!--  polyline  -->
<polyline points="5366,5344
5366,5256
5279,5256
5279,5344
5366,5344
" style="stroke:#05b0da;stroke-width:7;
stroke-linejoin:miter; stroke-linecap:butt;
"/>
</g>
</svg>
