<?xml version="1.0" standalone="no"?>
<!DOCTYPE svg PUBLIC "-//W3C//DTD SVG 1.1//EN"
"http://www.w3.org/Graphics/SVG/1.1/DTD/svg11.dtd">
<!-- Creator: fig2dev Version 3.2 Patchlevel 5c -->
<!-- CreationDate: Fri Sep 14 10:46:24 2012 -->
<!-- Magnification: 1.000 -->
<svg xmlns="http://www.w3.org/2000/svg" width="0.4in" height="0.6in" viewBox="-4 12527 480 677">
<g style="stroke-width:.025in; fill:none">
<!-- Line -->
<!--  polyline  -->
<polyline points="65,12738
8,12794
8,13192
407,13192
464,13135
464,12738
65,12738
" style="stroke:#00acd8;stroke-width:0;
stroke-linejoin:miter; stroke-linecap:butt;
fill:#00acd8;
"/>
<!-- Line -->
<!--  polyline  -->
<polyline points="65,12738
8,12794
8,13192
407,13192
464,13135
464,12738
65,12738
" style="stroke:#ffffff;stroke-width:7;
stroke-linejoin:miter; stroke-linecap:butt;
"/>
<!-- Line -->
<!--  polyline  -->
<polyline points="8,12794
407,12794
464,12738
65,12738
8,12794
" style="stroke:#00acd8;stroke-width:0;
stroke-linejoin:miter; stroke-linecap:butt;
fill:#00acd8;
"/>
<!-- Line -->
<!--  polyline  -->
<polyline points="8,12794
407,12794
464,12738
65,12738
8,12794
" style="stroke:#ffffff;stroke-width:7;
stroke-linejoin:miter; stroke-linecap:butt;
"/>
<!-- Line -->
<!--  polyline  -->
<polyline points="407,12794
464,12738
464,13135
407,13192
407,12794
" style="stroke:#00acd8;stroke-width:0;
stroke-linejoin:miter; stroke-linecap:butt;
fill:#00acd8;
"/>
<!-- Line -->
<!--  polyline  -->
<polyline points="407,12794
464,12738
464,13135
407,13192
407,12794
" style="stroke:#ffffff;stroke-width:7;
stroke-linejoin:miter; stroke-linecap:butt;
"/>
<!-- Line -->
<!--  polyline  -->
<polyline points="65,12738
8,12794
8,13192
407,13192
464,13135
464,12738
65,12738
" style="stroke:#00acd8;stroke-width:0;
stroke-linejoin:miter; stroke-linecap:butt;
fill:#00acd8;
"/>
<!-- Line -->
<!--  polyline  -->
<polyline points="65,12738
8,12794
8,13192
407,13192
464,13135
464,12738
65,12738
" style="stroke:#ffffff;stroke-width:7;
stroke-linejoin:miter; stroke-linecap:butt;
"/>
<!-- Line -->
<!--  polyline  -->
<polyline points="8,12794
407,12794
464,12738
" style="stroke:#00acd8;stroke-width:0;
stroke-linejoin:miter; stroke-linecap:butt;
fill:#00acd8;
"/>
<!-- Line -->
<!--  polyline  -->
<polyline points="8,12794
407,12794
464,12738
" style="stroke:#ffffff;stroke-width:7;
stroke-linejoin:miter; stroke-linecap:butt;
"/>
<!-- Line -->
<!--  polyline  -->
<polyline points="407,12794
407,13192
" style="stroke:#00acd8;stroke-width:0;
stroke-linejoin:miter; stroke-linecap:butt;
fill:#00acd8;
"/>
<!-- Line -->
<!--  polyline  -->
<polyline points="407,12794
407,13192
" style="stroke:#ffffff;stroke-width:7;
stroke-linejoin:miter; stroke-linecap:butt;
"/>
<!-- Line -->
<!--  polyline  -->
<polyline points="65,12539
8,12596
8,12794
407,12794
464,12738
464,12539
65,12539
" style="stroke:#00acd8;stroke-width:0;
stroke-linejoin:miter; stroke-linecap:butt;
fill:#00acd8;
"/>
<!-- Line -->
<!--  polyline  -->
<polyline points="65,12539
8,12596
8,12794
407,12794
464,12738
464,12539
65,12539
" style="stroke:#ffffff;stroke-width:7;
stroke-linejoin:miter; stroke-linecap:butt;
"/>
<!-- Line -->
<!--  polyline  -->
<polyline points="407,12596
464,12539
464,12738
407,12794
407,12596
" style="stroke:#00acd8;stroke-width:0;
stroke-linejoin:miter; stroke-linecap:butt;
fill:#00acd8;
"/>
<!-- Line -->
<!--  polyline  -->
<polyline points="407,12596
464,12539
464,12738
407,12794
407,12596
" style="stroke:#ffffff;stroke-width:7;
stroke-linejoin:miter; stroke-linecap:butt;
"/>
<!-- Line -->
<!--  polyline  -->
<polyline points="65,12539
8,12596
8,12794
407,12794
464,12738
464,12539
65,12539
" style="stroke:#00acd8;stroke-width:0;
stroke-linejoin:miter; stroke-linecap:butt;
fill:#00acd8;
"/>
<!-- Line -->
<!--  polyline  -->
<polyline points="65,12539
8,12596
8,12794
407,12794
464,12738
464,12539
65,12539
" style="stroke:#ffffff;stroke-width:7;
stroke-linejoin:miter; stroke-linecap:butt;
"/>
<!-- Line -->
<!--  polyline  -->
<polyline points="407,12794
407,12596
8,12596
" style="stroke:#00acd8;stroke-width:0;
stroke-linejoin:miter; stroke-linecap:butt;
fill:#00acd8;
"/>
<!-- Line -->
<!--  polyline  -->
<polyline points="407,12794
407,12596
8,12596
" style="stroke:#ffffff;stroke-width:7;
stroke-linejoin:miter; stroke-linecap:butt;
"/>
<!-- Line -->
<!--  polyline  -->
<polyline points="37,12624
151,12624
151,12681
37,12681
37,12624
" style="stroke:#ffffff;stroke-width:0;
stroke-linejoin:miter; stroke-linecap:butt;
fill:#ffffff;
"/>
<!-- Line -->
<!--  polyline  -->
<polyline points="65,12851
350,12851
350,13135
65,13135
65,12851
" style="stroke:#ffffff;stroke-width:0;
stroke-linejoin:miter; stroke-linecap:butt;
fill:#ffffff;
"/>
<!-- Line -->
<!--  polyline  -->
<polyline points="65,12851
350,12851
350,13135
65,13135
65,12851
" style="stroke:#ffffff;stroke-width:7;
stroke-linejoin:miter; stroke-linecap:butt;
"/>
<!-- Line -->
<!--  polyline  -->
<polyline points="265,12624
379,12624
379,12681
265,12681
265,12624
" style="stroke:#ffffff;stroke-width:0;
stroke-linejoin:miter; stroke-linecap:butt;
fill:#ffffff;
"/>
<!-- Line -->
<!--  polyline  -->
<polyline points="37,12709
151,12709
151,12766
37,12766
37,12709
" style="stroke:#ffffff;stroke-width:0;
stroke-linejoin:miter; stroke-linecap:butt;
fill:#ffffff;
"/>
<!-- Line -->
<!--  polyline  -->
<polyline points="265,12709
379,12709
379,12766
265,12766
265,12709
" style="stroke:#ffffff;stroke-width:0;
stroke-linejoin:miter; stroke-linecap:butt;
fill:#ffffff;
"/>
<!-- Line -->
<!--  polyline  -->
<polyline points="151,12652
265,12652
" style="stroke:#000000;stroke-width:0;
stroke-linejoin:miter; stroke-linecap:butt;
fill:#000000;
"/>
<!-- Line -->
<!--  polyline  -->
<polyline points="151,12652
265,12652
" style="stroke:#ffffff;stroke-width:7;
stroke-linejoin:miter; stroke-linecap:butt;
"/>
<!-- Line -->
<!--  polyline  -->
<polyline points="151,12738
265,12738
" style="stroke:#000000;stroke-width:0;
stroke-linejoin:miter; stroke-linecap:butt;
fill:#000000;
"/>
<!-- Line -->
<!--  polyline  -->
<polyline points="151,12738
265,12738
" style="stroke:#ffffff;stroke-width:7;
stroke-linejoin:miter; stroke-linecap:butt;
"/>
<!-- Line -->
<!--  polyline  -->
<polyline points="151,12709
265,12681
" style="stroke:#000000;stroke-width:0;
stroke-linejoin:miter; stroke-linecap:butt;
fill:#000000;
"/>
<!-- Line -->
<!--  polyline  -->
<polyline points="151,12709
265,12681
" style="stroke:#ffffff;stroke-width:7;
stroke-linejoin:miter; stroke-linecap:butt;
"/>
<!-- Line -->
<!--  polyline  -->
<polyline points="151,12681
265,12709
" style="stroke:#000000;stroke-width:0;
stroke-linejoin:miter; stroke-linecap:butt;
fill:#000000;
"/>
<!-- Line -->
<!--  polyline  -->
<polyline points="151,12681
265,12709
" style="stroke:#ffffff;stroke-width:7;
stroke-linejoin:miter; stroke-linecap:butt;
"/>
<!-- Line -->
<!--  spline  -->
<polyline points="208,12908
209,12908
216,12909
226,12911
233,12912
234,12912
235,12912
238,12913
243,12916
250,12919
258,12924
265,12929
267,12932
268,12933
271,12935
276,12942
281,12949
283,12952
284,12953
286,12957
289,12965
292,12975
293,12982
293,12988
293,12992
293,12993
293,12994
292,13001
290,13012
289,13019
289,13020
289,13021
287,13024
285,13029
281,13035
276,13043
271,13050
268,13053
267,13054
265,13056
258,13062
251,13067
247,13069
246,13070
242,13071
234,13074
225,13076
218,13077
212,13078
209,13078
208,13078
207,13078
199,13077
189,13075
181,13074
180,13074
179,13074
176,13073
171,13070
164,13067
156,13062
149,13056
146,13054
146,13053
143,13050
138,13043
133,13036
131,13033
130,13032
129,13028
126,13020
124,13011
123,13003
122,12997
122,12994
122,12993
122,12992
123,12984
125,12974
126,12966
126,12965
126,12964
127,12961
130,12956
133,12950
138,12942
143,12935
146,12933
146,12932
149,12929
156,12924
163,12919
167,12917
168,12916
171,12915
180,12912
190,12910
197,12909
203,12908
207,12908
208,12908
" style="stroke:#00acd8;stroke-width:0;
stroke-linejoin:bevel; stroke-linecap:butt;
fill:#00acd8;
"/>
<!-- Line -->
<!--  spline  -->
<polyline points="208,12908
209,12908
216,12909
226,12911
233,12912
234,12912
235,12912
238,12913
243,12916
250,12919
258,12924
265,12929
267,12932
268,12933
271,12935
276,12942
281,12949
283,12952
284,12953
286,12957
289,12965
292,12975
293,12982
293,12988
293,12992
293,12993
293,12994
292,13001
290,13012
289,13019
289,13020
289,13021
287,13024
285,13029
281,13035
276,13043
271,13050
268,13053
267,13054
265,13056
258,13062
251,13067
247,13069
246,13070
242,13071
234,13074
225,13076
218,13077
212,13078
209,13078
208,13078
207,13078
199,13077
189,13075
181,13074
180,13074
179,13074
176,13073
171,13070
164,13067
156,13062
149,13056
146,13054
146,13053
143,13050
138,13043
133,13036
131,13033
130,13032
129,13028
126,13020
124,13011
123,13003
122,12997
122,12994
122,12993
122,12992
123,12984
125,12974
126,12966
126,12965
126,12964
127,12961
130,12956
133,12950
138,12942
143,12935
146,12933
146,12932
149,12929
156,12924
163,12919
167,12917
168,12916
171,12915
180,12912
190,12910
197,12909
203,12908
207,12908
208,12908
" style="stroke:#ffffff;stroke-width:7;
stroke-linejoin:bevel; stroke-linecap:butt;
"/>
<!-- Line -->
<!--  spline  -->
<polyline points="208,12965
210,12965
214,12966
216,12966
217,12966
219,12967
221,12968
224,12970
226,12972
227,12973
228,12974
230,12976
232,12978
233,12979
234,12980
235,12983
236,12986
236,12989
236,12991
236,12993
236,12996
235,12999
235,13002
234,13003
233,13005
232,13006
230,13009
228,13011
227,13012
227,13013
226,13014
224,13016
222,13018
220,13018
219,13019
216,13020
213,13021
211,13022
209,13022
208,13022
207,13022
205,13021
201,13021
199,13020
198,13020
197,13020
195,13019
193,13018
190,13016
188,13014
187,13013
187,13012
186,13011
184,13009
182,13007
182,13006
181,13006
181,13005
180,13002
179,12999
179,12997
179,12994
179,12993
179,12992
179,12990
180,12986
180,12984
180,12983
180,12982
181,12980
182,12978
184,12976
186,12974
187,12973
188,12972
190,12970
192,12968
193,12968
194,12967
195,12967
198,12966
201,12965
204,12965
206,12965
208,12965
" style="stroke:#ffffff;stroke-width:0;
stroke-linejoin:bevel; stroke-linecap:butt;
fill:#ffffff;
"/>
<!-- Line -->
<!--  spline  -->
<polyline points="208,12965
210,12965
214,12966
216,12966
217,12966
219,12967
221,12968
224,12970
226,12972
227,12973
228,12974
230,12976
232,12978
233,12979
234,12980
235,12983
236,12986
236,12989
236,12991
236,12993
236,12996
235,12999
235,13002
234,13003
233,13005
232,13006
230,13009
228,13011
227,13012
227,13013
226,13014
224,13016
222,13018
220,13018
219,13019
216,13020
213,13021
211,13022
209,13022
208,13022
207,13022
205,13021
201,13021
199,13020
198,13020
197,13020
195,13019
193,13018
190,13016
188,13014
187,13013
187,13012
186,13011
184,13009
182,13007
182,13006
181,13006
181,13005
180,13002
179,12999
179,12997
179,12994
179,12993
179,12992
179,12990
180,12986
180,12984
180,12983
180,12982
181,12980
182,12978
184,12976
186,12974
187,12973
188,12972
190,12970
192,12968
193,12968
194,12967
195,12967
198,12966
201,12965
204,12965
206,12965
208,12965
" style="stroke:#ffffff;stroke-width:7;
stroke-linejoin:bevel; stroke-linecap:butt;
"/>
</g>
</svg>
