<?xml version="1.0" standalone="no"?>
<!DOCTYPE svg PUBLIC "-//W3C//DTD SVG 1.1//EN"
"http://www.w3.org/Graphics/SVG/1.1/DTD/svg11.dtd">
<!-- Creator: fig2dev Version 3.2 Patchlevel 5c -->
<!-- CreationDate: Fri Sep 14 10:46:24 2012 -->
<!-- Magnification: 1.000 -->
<svg xmlns="http://www.w3.org/2000/svg" width="0.5in" height="0.5in" viewBox="-9 12601 545 608">
<g style="stroke-width:.025in; fill:none">
<!-- Line -->
<!--  spline  -->
<polyline points="524,12714
523,12716
520,12724
515,12736
512,12744
511,12746
508,12749
504,12754
497,12759
488,12766
474,12774
460,12781
452,12785
449,12786
446,12787
436,12790
418,12796
403,12800
392,12803
387,12804
384,12804
381,12805
375,12806
364,12808
346,12810
327,12812
311,12813
297,12814
285,12815
275,12815
268,12815
265,12815
264,12815
263,12815
256,12815
242,12814
223,12813
204,12811
190,12810
183,12810
182,12810
181,12810
178,12810
172,12809
163,12807
152,12805
140,12803
126,12800
110,12796
92,12790
82,12787
79,12786
76,12785
68,12781
54,12774
41,12766
34,12762
32,12761
30,12759
25,12755
17,12746
9,12735
5,12726
4,12719
3,12715
3,12714
3,12718
3,12726
3,12740
3,12761
3,12789
3,12823
3,12863
3,12905
3,12946
3,12986
3,13020
3,13048
3,13069
3,13083
3,13091
3,13095
4,13097
7,13105
13,13117
16,13125
17,13127
20,13130
24,13135
31,13140
40,13147
54,13155
68,13162
76,13166
79,13167
82,13168
92,13171
110,13177
125,13181
136,13184
141,13185
144,13186
147,13186
153,13188
164,13189
182,13192
201,13194
217,13195
231,13196
243,13197
253,13197
260,13197
263,13197
264,13197
265,13197
272,13197
286,13196
305,13195
324,13193
338,13192
345,13192
346,13192
347,13192
350,13191
356,13190
366,13189
376,13187
388,13184
402,13181
418,13177
436,13171
446,13168
449,13167
452,13166
460,13162
474,13155
487,13147
494,13143
496,13142
498,13140
503,13136
511,13127
519,13116
522,13107
524,13100
524,13096
524,13095
524,13091
524,13083
524,13069
524,13048
524,13020
524,12986
524,12946
524,12904
524,12863
524,12823
524,12789
524,12761
524,12740
524,12726
524,12718
524,12714
" style="stroke:#00acd8;stroke-width:0;
stroke-linejoin:bevel; stroke-linecap:butt;
fill:#00acd8;
"/>
<!-- Line -->
<!--  spline  -->
<polyline points="524,12714
523,12716
520,12724
515,12736
512,12744
511,12746
508,12749
504,12754
497,12759
488,12766
474,12774
460,12781
452,12785
449,12786
446,12787
436,12790
418,12796
403,12800
392,12803
387,12804
384,12804
381,12805
375,12806
364,12808
346,12810
327,12812
311,12813
297,12814
285,12815
275,12815
268,12815
265,12815
264,12815
263,12815
256,12815
242,12814
223,12813
204,12811
190,12810
183,12810
182,12810
181,12810
178,12810
172,12809
163,12807
152,12805
140,12803
126,12800
110,12796
92,12790
82,12787
79,12786
76,12785
68,12781
54,12774
41,12766
34,12762
32,12761
30,12759
25,12755
17,12746
9,12735
5,12726
4,12719
3,12715
3,12714
3,12718
3,12726
3,12740
3,12761
3,12789
3,12823
3,12863
3,12905
3,12946
3,12986
3,13020
3,13048
3,13069
3,13083
3,13091
3,13095
4,13097
7,13105
13,13117
16,13125
17,13127
20,13130
24,13135
31,13140
40,13147
54,13155
68,13162
76,13166
79,13167
82,13168
92,13171
110,13177
125,13181
136,13184
141,13185
144,13186
147,13186
153,13188
164,13189
182,13192
201,13194
217,13195
231,13196
243,13197
253,13197
260,13197
263,13197
264,13197
265,13197
272,13197
286,13196
305,13195
324,13193
338,13192
345,13192
346,13192
347,13192
350,13191
356,13190
366,13189
376,13187
388,13184
402,13181
418,13177
436,13171
446,13168
449,13167
452,13166
460,13162
474,13155
487,13147
494,13143
496,13142
498,13140
503,13136
511,13127
519,13116
522,13107
524,13100
524,13096
524,13095
524,13091
524,13083
524,13069
524,13048
524,13020
524,12986
524,12946
524,12904
524,12863
524,12823
524,12789
524,12761
524,12740
524,12726
524,12718
524,12714
" style="stroke:#ffffff;stroke-width:7;
stroke-linejoin:bevel; stroke-linecap:butt;
"/>
<!-- Line -->
<!--  spline  -->
<polyline points="264,12815
265,12815
272,12815
286,12814
305,12813
324,12811
338,12810
345,12810
346,12810
347,12810
350,12810
356,12809
366,12807
376,12805
388,12803
402,12800
418,12796
436,12790
446,12787
449,12786
452,12785
460,12781
474,12774
487,12766
494,12762
496,12761
498,12759
503,12755
511,12746
519,12735
522,12726
524,12719
524,12715
524,12714
523,12712
520,12704
515,12692
512,12684
511,12682
508,12679
504,12674
497,12669
488,12662
474,12654
460,12647
452,12643
449,12642
446,12641
436,12638
418,12632
403,12628
392,12625
387,12624
384,12624
381,12623
375,12622
364,12620
346,12618
327,12616
311,12615
297,12614
285,12613
275,12613
268,12613
265,12613
264,12613
263,12613
256,12613
242,12614
223,12616
204,12617
190,12618
183,12618
182,12618
181,12618
178,12618
172,12619
163,12621
152,12623
140,12625
126,12628
110,12632
92,12638
82,12641
79,12642
76,12643
68,12647
54,12654
41,12662
34,12666
32,12667
30,12669
25,12673
17,12682
9,12693
5,12702
4,12709
3,12713
3,12714
4,12716
7,12724
13,12736
16,12744
17,12746
20,12749
24,12754
31,12759
40,12766
54,12774
68,12781
76,12785
79,12786
82,12787
92,12790
110,12796
125,12800
136,12803
141,12804
144,12804
147,12805
153,12806
164,12808
182,12810
201,12812
217,12813
231,12814
243,12815
253,12815
260,12815
263,12815
264,12815
" style="stroke:#00acd8;stroke-width:0;
stroke-linejoin:bevel; stroke-linecap:butt;
fill:#00acd8;
"/>
<!-- Line -->
<!--  spline  -->
<polyline points="264,12815
265,12815
272,12815
286,12814
305,12813
324,12811
338,12810
345,12810
346,12810
347,12810
350,12810
356,12809
366,12807
376,12805
388,12803
402,12800
418,12796
436,12790
446,12787
449,12786
452,12785
460,12781
474,12774
487,12766
494,12762
496,12761
498,12759
503,12755
511,12746
519,12735
522,12726
524,12719
524,12715
524,12714
523,12712
520,12704
515,12692
512,12684
511,12682
508,12679
504,12674
497,12669
488,12662
474,12654
460,12647
452,12643
449,12642
446,12641
436,12638
418,12632
403,12628
392,12625
387,12624
384,12624
381,12623
375,12622
364,12620
346,12618
327,12616
311,12615
297,12614
285,12613
275,12613
268,12613
265,12613
264,12613
263,12613
256,12613
242,12614
223,12616
204,12617
190,12618
183,12618
182,12618
181,12618
178,12618
172,12619
163,12621
152,12623
140,12625
126,12628
110,12632
92,12638
82,12641
79,12642
76,12643
68,12647
54,12654
41,12662
34,12666
32,12667
30,12669
25,12673
17,12682
9,12693
5,12702
4,12709
3,12713
3,12714
4,12716
7,12724
13,12736
16,12744
17,12746
20,12749
24,12754
31,12759
40,12766
54,12774
68,12781
76,12785
79,12786
82,12787
92,12790
110,12796
125,12800
136,12803
141,12804
144,12804
147,12805
153,12806
164,12808
182,12810
201,12812
217,12813
231,12814
243,12815
253,12815
260,12815
263,12815
264,12815
" style="stroke:#ffffff;stroke-width:7;
stroke-linejoin:bevel; stroke-linecap:butt;
"/>
<!-- Line -->
<!--  polyline  -->
<polyline points="204,12674
226,12707
145,12726
162,12711
37,12689
68,12666
189,12686
204,12674
" style="stroke:#ffffff;stroke-width:0;
stroke-linejoin:miter; stroke-linecap:butt;
fill:#ffffff;
"/>
<!-- Line -->
<!--  polyline  -->
<polyline points="319,12753
304,12719
378,12705
365,12716
487,12737
458,12761
336,12738
319,12753
" style="stroke:#ffffff;stroke-width:0;
stroke-linejoin:miter; stroke-linecap:butt;
fill:#ffffff;
"/>
<!-- Line -->
<!--  polyline  -->
<polyline points="279,12657
361,12634
362,12670
341,12666
301,12699
263,12693
304,12661
279,12657
" style="stroke:#ffffff;stroke-width:0;
stroke-linejoin:miter; stroke-linecap:butt;
fill:#ffffff;
"/>
<!-- Line -->
<!--  polyline  -->
<polyline points="244,12783
165,12798
162,12761
185,12766
228,12730
266,12736
220,12776
244,12783
" style="stroke:#ffffff;stroke-width:0;
stroke-linejoin:miter; stroke-linecap:butt;
fill:#ffffff;
"/>
<!-- Line -->
<!--  polyline  -->
<polyline points="268,12949
268,12867
282,12867
261,12836
241,12867
255,12867
255,12949
268,12949
" style="stroke:#ffffff;stroke-width:0;
stroke-linejoin:miter; stroke-linecap:butt;
fill:#ffffff;
"/>
<!-- Line -->
<!--  polyline  -->
<polyline points="226,12961
168,12903
178,12893
141,12886
149,12922
159,12912
217,12970
226,12961
" style="stroke:#ffffff;stroke-width:0;
stroke-linejoin:miter; stroke-linecap:butt;
fill:#ffffff;
"/>
<!-- Line -->
<!--  polyline  -->
<polyline points="205,12999
123,12999
123,12985
92,13006
123,13026
123,13012
205,13012
205,12999
" style="stroke:#ffffff;stroke-width:0;
stroke-linejoin:miter; stroke-linecap:butt;
fill:#ffffff;
"/>
<!-- Line -->
<!--  polyline  -->
<polyline points="217,13041
159,13099
149,13089
141,13126
178,13118
168,13108
226,13050
217,13041
" style="stroke:#ffffff;stroke-width:0;
stroke-linejoin:miter; stroke-linecap:butt;
fill:#ffffff;
"/>
<!-- Line -->
<!--  polyline  -->
<polyline points="255,13062
255,13144
241,13144
261,13175
282,13144
268,13144
268,13062
255,13062
" style="stroke:#ffffff;stroke-width:0;
stroke-linejoin:miter; stroke-linecap:butt;
fill:#ffffff;
"/>
<!-- Line -->
<!--  polyline  -->
<polyline points="297,13050
355,13108
345,13118
381,13126
374,13089
364,13099
306,13041
297,13050
" style="stroke:#ffffff;stroke-width:0;
stroke-linejoin:miter; stroke-linecap:butt;
fill:#ffffff;
"/>
<!-- Line -->
<!--  polyline  -->
<polyline points="318,13012
400,13012
400,13026
431,13006
400,12985
400,12999
318,12999
318,13012
" style="stroke:#ffffff;stroke-width:0;
stroke-linejoin:miter; stroke-linecap:butt;
fill:#ffffff;
"/>
<!-- Line -->
<!--  polyline  -->
<polyline points="306,12970
364,12912
374,12922
381,12886
345,12893
355,12903
297,12961
306,12970
" style="stroke:#ffffff;stroke-width:0;
stroke-linejoin:miter; stroke-linecap:butt;
fill:#ffffff;
"/>
<!-- Line -->
<!--  spline  -->
<polyline points="312,13074
313,13073
318,13068
325,13061
330,13056
331,13055
331,13054
333,13052
336,13047
339,13041
343,13032
346,13024
347,13020
347,13018
347,13015
348,13006
348,12997
348,12994
347,12992
346,12988
344,12980
341,12971
337,12964
334,12960
332,12957
332,12956
331,12955
326,12950
319,12942
314,12937
313,12936
312,12936
310,12934
305,12931
299,12927
290,12924
282,12922
278,12921
276,12921
273,12920
264,12920
255,12920
252,12920
250,12920
246,12921
238,12923
229,12926
222,12930
218,12933
215,12935
214,12935
213,12936
208,12941
200,12948
195,12953
194,12954
194,12955
192,12957
189,12962
185,12968
182,12977
180,12985
179,12989
179,12991
178,12994
178,13003
178,13012
178,13015
178,13017
179,13020
181,13029
184,13038
188,13045
191,13050
193,13053
193,13054
194,13055
199,13060
206,13067
211,13072
212,13073
213,13073
215,13075
220,13078
226,13081
235,13085
243,13088
247,13089
249,13089
252,13089
261,13090
270,13090
273,13090
275,13089
278,13088
287,13086
296,13083
303,13079
308,13076
311,13074
312,13074
" style="stroke:#ffffff;stroke-width:0;
stroke-linejoin:bevel; stroke-linecap:butt;
fill:#ffffff;
"/>
</g>
</svg>
