<?xml version="1.0" standalone="no"?>
<!DOCTYPE svg PUBLIC "-//W3C//DTD SVG 1.1//EN"
"http://www.w3.org/Graphics/SVG/1.1/DTD/svg11.dtd">
<!-- Creator: fig2dev Version 3.2 Patchlevel 5c -->
<!-- CreationDate: Fri Sep 14 10:46:24 2012 -->
<!-- Magnification: 1.000 -->
<svg xmlns="http://www.w3.org/2000/svg" width="0.4in" height="0.4in" viewBox="-2 12724 525 480">
<g style="stroke-width:.025in; fill:none">
<!-- Line -->
<!--  polyline  -->
<polyline points="426,13192
511,13111
511,12736
426,12817
426,13192
" style="stroke:#00acd8;stroke-width:0;
stroke-linejoin:miter; stroke-linecap:butt;
fill:#00acd8;
"/>
<!-- Line -->
<!--  polyline  -->
<polyline points="426,13192
511,13111
511,12736
426,12817
426,13192
" style="stroke:#ffffff;stroke-width:7;
stroke-linejoin:miter; stroke-linecap:butt;
"/>
<!-- Line -->
<!--  polyline  -->
<polyline points="511,12736
426,12817
10,12817
118,12736
511,12736
" style="stroke:#00acd8;stroke-width:0;
stroke-linejoin:miter; stroke-linecap:butt;
fill:#00acd8;
"/>
<!-- Line -->
<!--  polyline  -->
<polyline points="511,12736
426,12817
10,12817
118,12736
511,12736
" style="stroke:#ffffff;stroke-width:7;
stroke-linejoin:miter; stroke-linecap:butt;
"/>
<!-- Line -->
<!--  polyline  -->
<polyline points="426,13192
426,12817
11,12817
11,13192
426,13192
" style="stroke:#00acd8;stroke-width:0;
stroke-linejoin:miter; stroke-linecap:butt;
fill:#00acd8;
"/>
<!-- Line -->
<!--  polyline  -->
<polyline points="426,13192
426,12817
11,12817
11,13192
426,13192
" style="stroke:#ffffff;stroke-width:7;
stroke-linejoin:miter; stroke-linecap:butt;
"/>
<!-- Line -->
<!--  polyline  -->
<polyline points="212,12861
212,13130
197,13130
220,13163
242,13130
227,13130
227,12861
" style="stroke:#ffffff;stroke-width:0;
stroke-linejoin:miter; stroke-linecap:butt;
fill:#ffffff;
"/>
<!-- Line -->
<!--  polyline  -->
<polyline points="97,12861
97,13130
82,13130
104,13163
126,13130
111,13130
111,12861
" style="stroke:#ffffff;stroke-width:0;
stroke-linejoin:miter; stroke-linecap:butt;
fill:#ffffff;
"/>
<!-- Line -->
<!--  polyline  -->
<polyline points="323,12861
323,13130
307,13130
330,13163
352,13130
337,13130
337,12861
" style="stroke:#ffffff;stroke-width:0;
stroke-linejoin:miter; stroke-linecap:butt;
fill:#ffffff;
"/>
<!-- Line -->
<!--  polyline  -->
<polyline points="386,12960
55,12960
55,12854
386,12854
386,12960
" style="stroke:#ffffff;stroke-width:15;
stroke-linejoin:miter; stroke-linecap:butt;
"/>
</g>
</svg>
