<?xml version="1.0" standalone="no"?>
<!DOCTYPE svg PUBLIC "-//W3C//DTD SVG 1.1//EN"
"http://www.w3.org/Graphics/SVG/1.1/DTD/svg11.dtd">
<!-- Creator: fig2dev Version 3.2 Patchlevel 5c -->
<!-- CreationDate: Fri Sep 14 10:46:25 2012 -->
<!-- Magnification: 1.000 -->
<svg xmlns="http://www.w3.org/2000/svg" width="0.5in" height="0.5in" viewBox="-9 12568 637 641">
<g style="stroke-width:.025in; fill:none">
<!-- Line -->
<!--  spline  -->
<polyline points="616,12699
616,12700
613,12706
608,12718
604,12730
601,12736
601,12737
600,12738
598,12740
592,12746
584,12752
573,12760
557,12769
544,12776
535,12780
530,12782
527,12783
525,12784
519,12786
508,12790
491,12795
473,12800
461,12803
455,12804
452,12805
448,12806
441,12807
428,12809
407,12812
385,12814
366,12816
350,12817
335,12818
323,12818
315,12818
311,12818
310,12818
309,12818
301,12817
284,12816
262,12815
239,12814
222,12813
214,12812
213,12812
212,12812
209,12811
201,12810
190,12809
178,12806
164,12804
148,12800
129,12795
112,12790
101,12786
95,12784
92,12783
90,12782
85,12780
75,12776
62,12769
47,12760
39,12756
36,12754
34,12752
29,12747
19,12737
11,12726
7,12717
4,12709
3,12703
3,12700
3,12699
3,12703
3,12710
3,12724
3,12745
3,12773
3,12807
3,12846
3,12888
3,12930
3,12969
3,13003
3,13031
3,13052
3,13066
3,13073
3,13077
3,13078
6,13084
11,13096
16,13108
19,13114
19,13115
19,13116
22,13119
28,13124
35,13131
46,13139
62,13148
75,13155
85,13159
90,13161
92,13162
95,13163
101,13165
112,13169
129,13174
147,13179
159,13182
165,13183
169,13184
172,13185
179,13186
192,13188
213,13191
235,13193
254,13195
270,13196
285,13197
297,13197
305,13197
309,13197
310,13197
311,13197
319,13196
336,13195
359,13194
381,13193
398,13192
406,13191
407,13191
408,13191
411,13190
419,13189
430,13188
442,13185
456,13183
473,13179
491,13174
508,13169
519,13165
525,13163
527,13162
530,13161
535,13159
544,13155
557,13148
572,13139
580,13134
583,13132
586,13131
591,13125
601,13115
609,13104
613,13095
615,13087
616,13081
616,13078
616,13077
616,13073
616,13066
616,13052
616,13031
616,13003
616,12969
616,12930
616,12888
616,12846
616,12807
616,12773
616,12745
616,12724
616,12710
616,12703
616,12699
" style="stroke:#00acd8;stroke-width:0;
stroke-linejoin:bevel; stroke-linecap:butt;
fill:#00acd8;
"/>
<!-- Line -->
<!--  spline  -->
<polyline points="616,12699
616,12700
613,12706
608,12718
604,12730
601,12736
601,12737
600,12738
598,12740
592,12746
584,12752
573,12760
557,12769
544,12776
535,12780
530,12782
527,12783
525,12784
519,12786
508,12790
491,12795
473,12800
461,12803
455,12804
452,12805
448,12806
441,12807
428,12809
407,12812
385,12814
366,12816
350,12817
335,12818
323,12818
315,12818
311,12818
310,12818
309,12818
301,12817
284,12816
262,12815
239,12814
222,12813
214,12812
213,12812
212,12812
209,12811
201,12810
190,12809
178,12806
164,12804
148,12800
129,12795
112,12790
101,12786
95,12784
92,12783
90,12782
85,12780
75,12776
62,12769
47,12760
39,12756
36,12754
34,12752
29,12747
19,12737
11,12726
7,12717
4,12709
3,12703
3,12700
3,12699
3,12703
3,12710
3,12724
3,12745
3,12773
3,12807
3,12846
3,12888
3,12930
3,12969
3,13003
3,13031
3,13052
3,13066
3,13073
3,13077
3,13078
6,13084
11,13096
16,13108
19,13114
19,13115
19,13116
22,13119
28,13124
35,13131
46,13139
62,13148
75,13155
85,13159
90,13161
92,13162
95,13163
101,13165
112,13169
129,13174
147,13179
159,13182
165,13183
169,13184
172,13185
179,13186
192,13188
213,13191
235,13193
254,13195
270,13196
285,13197
297,13197
305,13197
309,13197
310,13197
311,13197
319,13196
336,13195
359,13194
381,13193
398,13192
406,13191
407,13191
408,13191
411,13190
419,13189
430,13188
442,13185
456,13183
473,13179
491,13174
508,13169
519,13165
525,13163
527,13162
530,13161
535,13159
544,13155
557,13148
572,13139
580,13134
583,13132
586,13131
591,13125
601,13115
609,13104
613,13095
615,13087
616,13081
616,13078
616,13077
616,13073
616,13066
616,13052
616,13031
616,13003
616,12969
616,12930
616,12888
616,12846
616,12807
616,12773
616,12745
616,12724
616,12710
616,12703
616,12699
" style="stroke:#ffffff;stroke-width:7;
stroke-linejoin:bevel; stroke-linecap:butt;
"/>
<!-- Line -->
<!--  spline  -->
<polyline points="310,12818
311,12818
319,12817
336,12816
359,12815
381,12814
398,12813
406,12812
407,12812
408,12812
411,12811
419,12810
430,12809
442,12806
456,12804
473,12800
491,12795
508,12790
519,12786
525,12784
527,12783
530,12782
535,12780
544,12776
557,12769
572,12760
580,12756
583,12754
586,12752
591,12747
601,12737
609,12726
613,12717
615,12709
616,12703
616,12700
616,12699
616,12698
613,12692
608,12680
604,12668
601,12662
601,12661
600,12660
598,12658
592,12652
584,12646
573,12638
557,12629
544,12622
535,12618
530,12616
527,12615
525,12614
519,12612
508,12608
491,12603
473,12598
461,12595
455,12594
452,12593
448,12592
441,12591
428,12589
407,12586
385,12584
366,12582
350,12581
335,12580
323,12580
315,12580
311,12580
310,12580
309,12580
301,12581
284,12582
262,12583
239,12584
222,12585
214,12586
213,12586
212,12586
209,12587
201,12588
190,12589
178,12592
164,12594
148,12598
129,12603
112,12608
101,12612
95,12614
92,12615
90,12616
85,12618
75,12622
62,12629
47,12638
39,12642
36,12644
34,12646
29,12651
19,12661
11,12672
7,12681
4,12689
3,12695
3,12698
3,12699
3,12700
6,12706
11,12718
16,12730
19,12736
19,12737
19,12738
22,12740
28,12746
35,12752
46,12760
62,12769
75,12776
85,12780
90,12782
92,12783
95,12784
101,12786
112,12790
129,12795
147,12800
159,12803
165,12804
169,12805
172,12806
179,12807
192,12809
213,12812
235,12814
254,12816
270,12817
285,12818
297,12818
305,12818
309,12818
310,12818
" style="stroke:#00acd8;stroke-width:0;
stroke-linejoin:bevel; stroke-linecap:butt;
fill:#00acd8;
"/>
<!-- Line -->
<!--  spline  -->
<polyline points="310,12818
311,12818
319,12817
336,12816
359,12815
381,12814
398,12813
406,12812
407,12812
408,12812
411,12811
419,12810
430,12809
442,12806
456,12804
473,12800
491,12795
508,12790
519,12786
525,12784
527,12783
530,12782
535,12780
544,12776
557,12769
572,12760
580,12756
583,12754
586,12752
591,12747
601,12737
609,12726
613,12717
615,12709
616,12703
616,12700
616,12699
616,12698
613,12692
608,12680
604,12668
601,12662
601,12661
600,12660
598,12658
592,12652
584,12646
573,12638
557,12629
544,12622
535,12618
530,12616
527,12615
525,12614
519,12612
508,12608
491,12603
473,12598
461,12595
455,12594
452,12593
448,12592
441,12591
428,12589
407,12586
385,12584
366,12582
350,12581
335,12580
323,12580
315,12580
311,12580
310,12580
309,12580
301,12581
284,12582
262,12583
239,12584
222,12585
214,12586
213,12586
212,12586
209,12587
201,12588
190,12589
178,12592
164,12594
148,12598
129,12603
112,12608
101,12612
95,12614
92,12615
90,12616
85,12618
75,12622
62,12629
47,12638
39,12642
36,12644
34,12646
29,12651
19,12661
11,12672
7,12681
4,12689
3,12695
3,12698
3,12699
3,12700
6,12706
11,12718
16,12730
19,12736
19,12737
19,12738
22,12740
28,12746
35,12752
46,12760
62,12769
75,12776
85,12780
90,12782
92,12783
95,12784
101,12786
112,12790
129,12795
147,12800
159,12803
165,12804
169,12805
172,12806
179,12807
192,12809
213,12812
235,12814
254,12816
270,12817
285,12818
297,12818
305,12818
309,12818
310,12818
" style="stroke:#ffffff;stroke-width:7;
stroke-linejoin:bevel; stroke-linecap:butt;
"/>
<!-- Line -->
<!--  polyline  -->
<polyline points="273,12693
249,12652
236,12649
221,12660
80,12636
35,12668
43,12681
80,12654
222,12678
240,12664
265,12702
273,12693
" style="stroke:#000000;stroke-width:0;
stroke-linejoin:miter; stroke-linecap:butt;
fill:#000000;
"/>
<!-- Line -->
<!--  polyline  -->
<polyline points="357,12719
444,12702
453,12687
442,12680
347,12702
357,12719
" style="stroke:#000000;stroke-width:0;
stroke-linejoin:miter; stroke-linecap:butt;
fill:#000000;
"/>
<!-- Line -->
<!--  polyline  -->
<polyline points="579,12721
446,12696
429,12703
429,12715
573,12740
579,12721
" style="stroke:#000000;stroke-width:0;
stroke-linejoin:miter; stroke-linecap:butt;
fill:#000000;
"/>
<!-- Line -->
<!--  polyline  -->
<polyline points="332,12642
427,12616
434,12606
426,12597
316,12628
332,12642
" style="stroke:#000000;stroke-width:0;
stroke-linejoin:miter; stroke-linecap:butt;
fill:#000000;
"/>
<!-- Line -->
<!--  polyline  -->
<polyline points="181,12744
181,12768
217,12774
268,12731
312,12739
325,12721
265,12710
215,12753
181,12744
" style="stroke:#000000;stroke-width:0;
stroke-linejoin:miter; stroke-linecap:butt;
fill:#000000;
"/>
<!-- Line -->
<!--  polyline  -->
<polyline points="288,12769
258,12772
258,12786
286,12794
302,12780
288,12769
" style="stroke:#000000;stroke-width:0;
stroke-linejoin:miter; stroke-linecap:butt;
fill:#000000;
"/>
<!-- Line -->
<!--  polyline  -->
<polyline points="327,12632
424,12605
425,12647
401,12642
354,12681
309,12675
357,12636
327,12632
" style="stroke:#ffffff;stroke-width:0;
stroke-linejoin:miter; stroke-linecap:butt;
fill:#ffffff;
"/>
<!-- Line -->
<!--  polyline  -->
<polyline points="375,12744
357,12705
444,12688
429,12701
573,12726
538,12754
395,12727
375,12744
" style="stroke:#ffffff;stroke-width:0;
stroke-linejoin:miter; stroke-linecap:butt;
fill:#ffffff;
"/>
<!-- Line -->
<!--  polyline  -->
<polyline points="286,12780
194,12797
190,12755
217,12761
268,12717
312,12725
258,12772
286,12780
" style="stroke:#ffffff;stroke-width:0;
stroke-linejoin:miter; stroke-linecap:butt;
fill:#ffffff;
"/>
<!-- Line -->
<!--  polyline  -->
<polyline points="240,12652
265,12690
169,12713
190,12695
43,12670
80,12642
222,12666
240,12652
" style="stroke:#ffffff;stroke-width:0;
stroke-linejoin:miter; stroke-linecap:butt;
fill:#ffffff;
"/>
<!-- Line -->
<!--  polyline  -->
<polyline points="178,13103
265,13103
375,12877
444,12877
" style="stroke:#000000;stroke-width:30;
stroke-linejoin:miter; stroke-linecap:butt;
"/>
<!-- Line -->
<!--  polyline  -->
<polyline points="422,12837
422,12917
470,12879
422,12837
" style="stroke:#000000;stroke-width:0;
stroke-linejoin:miter; stroke-linecap:butt;
fill:#000000;
"/>
<!-- Line -->
<!--  polyline  -->
<polyline points="192,13144
192,13064
143,13102
192,13144
" style="stroke:#000000;stroke-width:0;
stroke-linejoin:miter; stroke-linecap:butt;
fill:#000000;
"/>
<!-- Line -->
<!--  polyline  -->
<polyline points="192,13150
192,13070
144,13109
192,13150
" style="stroke:#ffffff;stroke-width:0;
stroke-linejoin:miter; stroke-linecap:butt;
fill:#ffffff;
"/>
<!-- Line -->
<!--  polyline  -->
<polyline points="424,12842
424,12922
472,12884
424,12842
" style="stroke:#ffffff;stroke-width:0;
stroke-linejoin:miter; stroke-linecap:butt;
fill:#ffffff;
"/>
<!-- Line -->
<!--  polyline  -->
<polyline points="192,12919
192,12839
143,12877
192,12919
" style="stroke:#000000;stroke-width:0;
stroke-linejoin:miter; stroke-linecap:butt;
fill:#000000;
"/>
<!-- Line -->
<!--  polyline  -->
<polyline points="192,12925
192,12845
144,12884
192,12925
" style="stroke:#ffffff;stroke-width:0;
stroke-linejoin:miter; stroke-linecap:butt;
fill:#ffffff;
"/>
<!-- Line -->
<!--  polyline  -->
<polyline points="446,13103
371,13103
258,12877
188,12877
" style="stroke:#000000;stroke-width:30;
stroke-linejoin:miter; stroke-linecap:butt;
"/>
<!-- Line -->
<!--  polyline  -->
<polyline points="455,13109
372,13109
260,12883
174,12883
" style="stroke:#ffffff;stroke-width:30;
stroke-linejoin:miter; stroke-linecap:butt;
"/>
<!-- Line -->
<!--  polyline  -->
<polyline points="175,13109
255,13109
366,12884
452,12884
" style="stroke:#ffffff;stroke-width:30;
stroke-linejoin:miter; stroke-linecap:butt;
"/>
<!-- Line -->
<!--  polyline  -->
<polyline points="422,13063
422,13143
470,13105
422,13063
" style="stroke:#000000;stroke-width:0;
stroke-linejoin:miter; stroke-linecap:butt;
fill:#000000;
"/>
<!-- Line -->
<!--  polyline  -->
<polyline points="424,13068
424,13148
472,13110
424,13068
" style="stroke:#ffffff;stroke-width:0;
stroke-linejoin:miter; stroke-linecap:butt;
fill:#ffffff;
"/>
</g>
</svg>
