<?xml version="1.0" standalone="no"?>
<!DOCTYPE svg PUBLIC "-//W3C//DTD SVG 1.1//EN"
"http://www.w3.org/Graphics/SVG/1.1/DTD/svg11.dtd">
<!-- Creator: fig2dev Version 3.2 Patchlevel 5c -->
<!-- CreationDate: Fri Sep 14 10:46:25 2012 -->
<!-- Magnification: 1.000 -->
<svg xmlns="http://www.w3.org/2000/svg" width="0.7in" height="0.8in" viewBox="-10 12245 803 964">
<g style="stroke-width:.025in; fill:none">
<!-- Line -->
<!--  spline  -->
<polyline points="343,12654
344,12654
349,12654
360,12654
378,12654
401,12654
423,12654
441,12654
452,12654
457,12654
458,12654
458,12655
458,12659
458,12668
458,12683
458,12705
458,12729
458,12753
458,12775
458,12790
458,12799
458,12803
458,12804
457,12804
454,12805
450,12807
447,12808
446,12808
445,12808
442,12809
436,12811
428,12813
417,12817
406,12820
401,12822
399,12823
394,12825
383,12828
372,12831
368,12833
366,12833
362,12835
354,12837
348,12839
345,12840
344,12841
343,12841
343,12840
343,12835
343,12827
343,12822
343,12821
343,12820
343,12817
343,12810
344,12802
344,12790
344,12775
344,12760
344,12751
344,12747
343,12743
343,12734
343,12719
343,12704
343,12696
343,12693
343,12690
343,12683
343,12673
343,12663
343,12658
343,12655
343,12654
" style="stroke:#146ec6;stroke-width:0;
stroke-linejoin:bevel; stroke-linecap:butt;
fill:#146ec6;
"/>
<!-- Line -->
<!--  spline  -->
<polyline points="392,12536
393,12536
398,12536
410,12536
430,12535
454,12534
477,12534
497,12533
509,12533
514,12533
515,12533
518,12533
524,12532
533,12532
544,12531
557,12530
570,12528
586,12527
603,12525
622,12522
644,12519
658,12517
665,12515
668,12515
671,12514
678,12513
689,12510
706,12506
725,12501
735,12498
739,12497
742,12495
749,12492
761,12486
771,12479
777,12474
779,12469
781,12465
781,12463
780,12462
775,12456
767,12446
762,12440
761,12439
760,12439
757,12437
750,12434
740,12430
726,12425
706,12419
689,12415
678,12412
671,12411
668,12410
665,12410
658,12408
644,12406
622,12403
604,12401
589,12399
580,12398
575,12397
572,12397
569,12397
563,12396
553,12396
537,12394
515,12393
492,12392
472,12391
454,12390
439,12390
424,12389
412,12389
402,12389
395,12389
392,12389
391,12389
386,12389
374,12390
354,12390
330,12391
307,12392
287,12392
275,12393
270,12393
269,12393
266,12393
260,12394
252,12394
241,12395
228,12396
214,12397
199,12399
182,12401
163,12403
141,12406
127,12408
120,12410
116,12410
113,12411
107,12412
95,12415
78,12419
58,12424
49,12427
45,12428
42,12429
35,12433
23,12439
13,12446
7,12452
5,12457
3,12460
3,12463
4,12464
9,12470
17,12479
22,12485
23,12486
24,12486
27,12488
34,12491
44,12495
58,12500
78,12506
95,12510
107,12513
113,12514
116,12515
120,12515
127,12517
141,12519
163,12522
181,12524
196,12526
205,12528
210,12528
213,12529
216,12529
221,12529
231,12530
247,12532
269,12533
292,12534
312,12535
329,12536
345,12536
360,12536
372,12536
382,12536
389,12536
392,12536
" style="stroke:#ffffff;stroke-width:0;
stroke-linejoin:bevel; stroke-linecap:butt;
fill:#ffffff;
"/>
<!-- Line -->
<!--  spline  -->
<polyline points="392,12536
393,12536
398,12536
410,12536
430,12535
454,12534
477,12534
497,12533
509,12533
514,12533
515,12533
518,12533
524,12532
533,12532
544,12531
557,12530
570,12528
586,12527
603,12525
622,12522
644,12519
658,12517
665,12515
668,12515
671,12514
678,12513
689,12510
706,12506
725,12501
735,12498
739,12497
742,12495
749,12492
761,12486
771,12479
777,12474
779,12469
781,12465
781,12463
780,12462
775,12456
767,12446
762,12440
761,12439
760,12439
757,12437
750,12434
740,12430
726,12425
706,12419
689,12415
678,12412
671,12411
668,12410
665,12410
658,12408
644,12406
622,12403
604,12401
589,12399
580,12398
575,12397
572,12397
569,12397
563,12396
553,12396
537,12394
515,12393
492,12392
472,12391
454,12390
439,12390
424,12389
412,12389
402,12389
395,12389
392,12389
391,12389
386,12389
374,12390
354,12390
330,12391
307,12392
287,12392
275,12393
270,12393
269,12393
266,12393
260,12394
252,12394
241,12395
228,12396
214,12397
199,12399
182,12401
163,12403
141,12406
127,12408
120,12410
116,12410
113,12411
107,12412
95,12415
78,12419
58,12424
49,12427
45,12428
42,12429
35,12433
23,12439
13,12446
7,12452
5,12457
3,12460
3,12463
4,12464
9,12470
17,12479
22,12485
23,12486
24,12486
27,12488
34,12491
44,12495
58,12500
78,12506
95,12510
107,12513
113,12514
116,12515
120,12515
127,12517
141,12519
163,12522
181,12524
196,12526
205,12528
210,12528
213,12529
216,12529
221,12529
231,12530
247,12532
269,12533
292,12534
312,12535
329,12536
345,12536
360,12536
372,12536
382,12536
389,12536
392,12536
" style="stroke:#000000;stroke-width:7;
stroke-linejoin:bevel; stroke-linecap:butt;
"/>
<!-- Line -->
<!--  spline  -->
<polyline points="394,12665
395,12665
400,12664
412,12662
432,12660
456,12656
479,12653
499,12651
511,12649
516,12648
517,12648
520,12647
526,12645
534,12642
546,12639
558,12634
572,12629
587,12623
604,12615
623,12606
645,12595
659,12587
666,12582
669,12580
672,12578
678,12573
690,12564
707,12552
723,12540
733,12531
738,12526
740,12524
742,12522
746,12517
753,12510
762,12499
772,12486
777,12477
780,12470
781,12466
781,12463
780,12462
775,12456
767,12446
762,12440
761,12439
760,12439
757,12437
750,12434
740,12430
726,12425
706,12419
689,12415
678,12412
671,12411
668,12410
665,12410
658,12408
644,12406
622,12403
604,12401
589,12399
580,12398
575,12397
572,12397
569,12397
563,12396
553,12396
537,12394
515,12393
492,12392
472,12391
454,12390
439,12390
424,12389
412,12389
402,12389
395,12389
392,12389
391,12389
386,12389
374,12390
354,12390
330,12391
307,12392
287,12392
275,12393
270,12393
269,12393
266,12393
260,12394
252,12394
241,12395
228,12396
214,12397
199,12399
182,12401
163,12403
141,12406
127,12408
120,12410
116,12410
113,12411
107,12412
95,12415
78,12419
58,12424
49,12427
45,12428
42,12429
35,12433
23,12439
13,12446
7,12452
5,12457
3,12460
3,12463
4,12464
7,12470
13,12481
19,12492
22,12498
23,12499
25,12501
29,12506
34,12512
41,12520
51,12529
63,12539
79,12552
93,12562
104,12570
111,12575
115,12578
117,12580
120,12582
124,12584
133,12589
146,12597
164,12606
183,12615
197,12622
206,12626
211,12629
214,12630
217,12631
223,12634
233,12637
249,12642
271,12648
294,12653
314,12657
332,12660
347,12662
362,12663
374,12664
384,12665
391,12665
394,12665
" style="stroke:#146ec6;stroke-width:0;
stroke-linejoin:bevel; stroke-linecap:butt;
fill:#146ec6;
"/>
<!-- Line -->
<!--  spline  -->
<polyline points="392,12536
393,12536
398,12536
410,12536
430,12535
454,12534
477,12534
497,12533
509,12533
514,12533
515,12533
518,12533
524,12532
533,12532
544,12531
557,12530
570,12528
586,12527
603,12525
622,12522
644,12519
658,12517
665,12515
668,12515
671,12514
678,12513
689,12510
706,12506
725,12501
735,12498
739,12497
742,12495
749,12492
761,12486
771,12479
777,12474
779,12469
781,12465
781,12463
780,12462
775,12456
767,12446
762,12440
761,12439
760,12439
757,12437
750,12434
740,12430
726,12425
706,12419
689,12415
678,12412
671,12411
668,12410
665,12410
658,12408
644,12406
622,12403
604,12401
589,12399
580,12398
575,12397
572,12397
569,12397
563,12396
553,12396
537,12394
515,12393
492,12392
472,12391
454,12390
439,12390
424,12389
412,12389
402,12389
395,12389
392,12389
391,12389
386,12389
374,12390
354,12390
330,12391
307,12392
287,12392
275,12393
270,12393
269,12393
266,12393
260,12394
252,12394
241,12395
228,12396
214,12397
199,12399
182,12401
163,12403
141,12406
127,12408
120,12410
116,12410
113,12411
107,12412
95,12415
78,12419
58,12424
49,12427
45,12428
42,12429
35,12433
23,12439
13,12446
7,12452
5,12457
3,12460
3,12463
4,12464
9,12470
17,12479
22,12485
23,12486
24,12486
27,12488
34,12491
44,12495
58,12500
78,12506
95,12510
107,12513
113,12514
116,12515
120,12515
127,12517
141,12519
163,12522
181,12524
196,12526
205,12528
210,12528
213,12529
216,12529
221,12529
231,12530
247,12532
269,12533
292,12534
312,12535
329,12536
345,12536
360,12536
372,12536
382,12536
389,12536
392,12536
" style="stroke:#ffffff;stroke-width:0;
stroke-linejoin:bevel; stroke-linecap:butt;
fill:#ffffff;
"/>
<!-- Line -->
<!--  spline  -->
<polyline points="392,12536
393,12536
398,12536
410,12536
430,12535
454,12534
477,12534
497,12533
509,12533
514,12533
515,12533
518,12533
524,12532
533,12532
544,12531
557,12530
570,12528
586,12527
603,12525
622,12522
644,12519
658,12517
665,12515
668,12515
671,12514
678,12513
689,12510
706,12506
725,12501
735,12498
739,12497
742,12495
749,12492
761,12486
771,12479
777,12474
779,12469
781,12465
781,12463
780,12462
775,12456
767,12446
762,12440
761,12439
760,12439
757,12437
750,12434
740,12430
726,12425
706,12419
689,12415
678,12412
671,12411
668,12410
665,12410
658,12408
644,12406
622,12403
604,12401
589,12399
580,12398
575,12397
572,12397
569,12397
563,12396
553,12396
537,12394
515,12393
492,12392
472,12391
454,12390
439,12390
424,12389
412,12389
402,12389
395,12389
392,12389
391,12389
386,12389
374,12390
354,12390
330,12391
307,12392
287,12392
275,12393
270,12393
269,12393
266,12393
260,12394
252,12394
241,12395
228,12396
214,12397
199,12399
182,12401
163,12403
141,12406
127,12408
120,12410
116,12410
113,12411
107,12412
95,12415
78,12419
58,12424
49,12427
45,12428
42,12429
35,12433
23,12439
13,12446
7,12452
5,12457
3,12460
3,12463
4,12464
9,12470
17,12479
22,12485
23,12486
24,12486
27,12488
34,12491
44,12495
58,12500
78,12506
95,12510
107,12513
113,12514
116,12515
120,12515
127,12517
141,12519
163,12522
181,12524
196,12526
205,12528
210,12528
213,12529
216,12529
221,12529
231,12530
247,12532
269,12533
292,12534
312,12535
329,12536
345,12536
360,12536
372,12536
382,12536
389,12536
392,12536
" style="stroke:#146ec6;stroke-width:7;
stroke-linejoin:bevel; stroke-linecap:butt;
"/>
<!-- Line -->
<!--  spline  -->
<polyline points="291,12408
290,12408
284,12408
273,12409
262,12410
256,12410
255,12410
254,12410
250,12411
242,12411
233,12413
221,12414
210,12415
205,12416
204,12416
199,12417
189,12418
179,12420
175,12420
173,12421
169,12421
160,12423
150,12425
143,12426
137,12427
134,12428
133,12428
" style="stroke:#146ec6;stroke-width:7;
stroke-linejoin:bevel; stroke-linecap:butt;
"/>
<!-- Line -->
<!--  spline  -->
<polyline points="295,12423
293,12423
284,12424
271,12425
262,12426
260,12426
259,12426
255,12427
248,12427
240,12429
228,12430
217,12431
213,12432
211,12432
207,12432
197,12434
187,12436
183,12437
182,12437
178,12438
169,12440
160,12442
153,12444
148,12445
145,12446
144,12446
" style="stroke:#146ec6;stroke-width:7;
stroke-linejoin:bevel; stroke-linecap:butt;
"/>
<!-- Line -->
<!--  spline  -->
<polyline points="299,12439
297,12439
289,12440
276,12442
268,12443
266,12443
265,12443
261,12444
254,12444
245,12445
234,12447
224,12449
220,12449
218,12449
214,12450
205,12452
196,12454
192,12455
190,12455
187,12456
178,12458
169,12460
163,12462
158,12464
156,12465
155,12465
" style="stroke:#146ec6;stroke-width:7;
stroke-linejoin:bevel; stroke-linecap:butt;
"/>
<!-- Line -->
<!--  spline  -->
<polyline points="308,12459
306,12459
298,12460
285,12461
277,12462
275,12462
274,12462
270,12463
263,12464
255,12465
244,12467
234,12469
230,12470
229,12470
225,12471
216,12473
207,12475
204,12476
202,12476
199,12477
191,12479
183,12481
177,12483
172,12485
170,12486
169,12486
" style="stroke:#146ec6;stroke-width:7;
stroke-linejoin:bevel; stroke-linecap:butt;
"/>
<!-- Line -->
<!--  spline  -->
<polyline points="312,12477
310,12477
302,12478
291,12480
283,12481
281,12481
280,12481
276,12482
270,12483
262,12484
252,12486
243,12488
239,12489
238,12489
234,12490
226,12492
218,12494
215,12495
213,12496
210,12497
203,12499
195,12502
190,12503
186,12505
183,12506
" style="stroke:#146ec6;stroke-width:7;
stroke-linejoin:bevel; stroke-linecap:butt;
"/>
<!-- Line -->
<!--  spline  -->
<polyline points="319,12498
318,12498
311,12499
302,12501
295,12502
294,12502
293,12502
290,12503
285,12503
279,12504
271,12506
264,12508
261,12508
260,12508
257,12509
250,12511
243,12513
241,12514
240,12514
237,12515
231,12517
225,12519
220,12521
216,12522
214,12523
" style="stroke:#146ec6;stroke-width:7;
stroke-linejoin:bevel; stroke-linecap:butt;
"/>
<!-- Line -->
<!--  spline  -->
<polyline points="322,12518
321,12518
319,12519
315,12519
313,12520
312,12520
310,12520
308,12521
306,12521
302,12522
299,12523
297,12523
295,12523
292,12524
289,12525
288,12525
287,12525
286,12525
283,12526
280,12527
277,12528
275,12528
274,12529
" style="stroke:#146ec6;stroke-width:7;
stroke-linejoin:bevel; stroke-linecap:butt;
"/>
<!-- Line -->
<!--  polyline  -->
<polyline points="2,12470
394,12273
781,12463
" style="stroke:#146ec6;stroke-width:7;
stroke-linejoin:miter; stroke-linecap:butt;
"/>
<!-- Line -->
<!--  spline  -->
<polyline points="396,12323
399,12323
402,12322
405,12322
406,12322
408,12321
410,12321
412,12320
414,12319
415,12319
415,12318
416,12318
418,12317
420,12316
421,12316
421,12315
422,12314
423,12313
423,12312
423,12311
423,12310
423,12308
422,12307
422,12305
421,12304
420,12303
418,12302
416,12301
415,12301
415,12300
414,12300
412,12299
410,12298
409,12298
408,12298
405,12297
402,12297
400,12296
397,12296
396,12296
394,12296
390,12297
388,12297
387,12297
385,12298
383,12298
381,12299
379,12300
378,12300
378,12301
377,12301
375,12302
373,12303
372,12303
372,12304
371,12305
370,12307
370,12308
370,12309
370,12310
370,12311
371,12313
371,12314
372,12315
373,12316
375,12317
377,12318
378,12318
378,12319
379,12319
381,12320
383,12321
384,12321
385,12321
386,12321
388,12322
391,12322
393,12323
395,12323
396,12323
" style="stroke:#146ec6;stroke-width:0;
stroke-linejoin:bevel; stroke-linecap:butt;
fill:#146ec6;
"/>
<!-- Line -->
<!--  polyline  -->
<polyline points="396,12246
388,12519
407,12519
396,12246
" style="stroke:#146ec6;stroke-width:0;
stroke-linejoin:miter; stroke-linecap:butt;
fill:#146ec6;
"/>
<!-- Line -->
<!--  polyline  -->
<polyline points="484,12757
484,12683
297,12683
297,12757
484,12757
" style="stroke:#146ec6;stroke-width:0;
stroke-linejoin:miter; stroke-linecap:butt;
fill:#146ec6;
"/>
<!-- Line -->
<!--  polyline  -->
<polyline points="383,12732
325,12732
325,12715
383,12715
383,12732
" style="stroke:#ffffff;stroke-width:0;
stroke-linejoin:miter; stroke-linecap:butt;
fill:#ffffff;
"/>
<!-- Line -->
<!--  polyline  -->
<polyline points="459,12732
401,12732
401,12715
459,12715
459,12732
" style="stroke:#ffffff;stroke-width:0;
stroke-linejoin:miter; stroke-linecap:butt;
fill:#ffffff;
"/>
<!-- Line -->
<!--  spline  -->
<polyline points="699,12903
699,12904
696,12910
691,12922
686,12934
683,12940
683,12941
683,12942
680,12944
674,12950
667,12956
656,12964
640,12973
627,12980
617,12984
612,12986
610,12987
607,12988
601,12990
590,12994
573,12999
555,13004
543,13007
537,13008
534,13009
530,13010
523,13011
510,13013
489,13016
467,13018
448,13020
432,13021
417,13022
405,13022
397,13022
393,13022
392,13022
391,13022
383,13021
366,13020
344,13019
321,13018
304,13017
296,13016
295,13016
294,13016
291,13015
283,13014
272,13013
260,13010
246,13008
229,13004
211,12999
194,12994
183,12990
177,12988
175,12987
172,12986
167,12984
158,12980
145,12973
130,12964
122,12960
119,12958
116,12956
111,12951
101,12941
93,12930
89,12921
87,12913
86,12907
86,12904
86,12903
86,12904
86,12908
86,12919
86,12937
86,12962
86,12990
86,13018
86,13043
86,13061
86,13072
86,13076
86,13077
86,13078
89,13084
94,13096
98,13108
101,13114
101,13115
102,13116
104,13119
110,13124
118,13131
129,13139
145,13148
158,13155
167,13159
172,13161
175,13162
177,13163
183,13165
194,13169
211,13174
229,13179
241,13182
247,13183
250,13184
254,13185
261,13186
274,13188
295,13191
317,13193
336,13195
352,13196
367,13197
379,13197
387,13197
391,13197
392,13197
393,13197
401,13196
418,13195
441,13194
463,13193
480,13192
488,13191
489,13191
490,13191
493,13190
501,13189
512,13188
524,13185
538,13183
554,13179
573,13174
590,13169
601,13165
607,13163
610,13162
612,13161
617,13159
627,13155
640,13148
655,13139
663,13134
666,13132
668,13131
673,13125
683,13115
691,13104
695,13095
698,13087
699,13081
699,13078
699,13077
699,13076
699,13072
699,13061
699,13043
699,13018
699,12990
699,12962
699,12937
699,12919
699,12908
699,12904
699,12903
" style="stroke:#146ec6;stroke-width:0;
stroke-linejoin:bevel; stroke-linecap:butt;
fill:#146ec6;
"/>
<!-- Line -->
<!--  spline  -->
<polyline points="699,12903
699,12904
696,12910
691,12922
686,12934
683,12940
683,12941
683,12942
680,12944
674,12950
667,12956
656,12964
640,12973
627,12980
617,12984
612,12986
610,12987
607,12988
601,12990
590,12994
573,12999
555,13004
543,13007
537,13008
534,13009
530,13010
523,13011
510,13013
489,13016
467,13018
448,13020
432,13021
417,13022
405,13022
397,13022
393,13022
392,13022
391,13022
383,13021
366,13020
344,13019
321,13018
304,13017
296,13016
295,13016
294,13016
291,13015
283,13014
272,13013
260,13010
246,13008
229,13004
211,12999
194,12994
183,12990
177,12988
175,12987
172,12986
167,12984
158,12980
145,12973
130,12964
122,12960
119,12958
116,12956
111,12951
101,12941
93,12930
89,12921
87,12913
86,12907
86,12904
86,12903
86,12904
86,12908
86,12919
86,12937
86,12962
86,12990
86,13018
86,13043
86,13061
86,13072
86,13076
86,13077
86,13078
89,13084
94,13096
98,13108
101,13114
101,13115
102,13116
104,13119
110,13124
118,13131
129,13139
145,13148
158,13155
167,13159
172,13161
175,13162
177,13163
183,13165
194,13169
211,13174
229,13179
241,13182
247,13183
250,13184
254,13185
261,13186
274,13188
295,13191
317,13193
336,13195
352,13196
367,13197
379,13197
387,13197
391,13197
392,13197
393,13197
401,13196
418,13195
441,13194
463,13193
480,13192
488,13191
489,13191
490,13191
493,13190
501,13189
512,13188
524,13185
538,13183
554,13179
573,13174
590,13169
601,13165
607,13163
610,13162
612,13161
617,13159
627,13155
640,13148
655,13139
663,13134
666,13132
668,13131
673,13125
683,13115
691,13104
695,13095
698,13087
699,13081
699,13078
699,13077
699,13076
699,13072
699,13061
699,13043
699,13018
699,12990
699,12962
699,12937
699,12919
699,12908
699,12904
699,12903
" style="stroke:#ffffff;stroke-width:7;
stroke-linejoin:bevel; stroke-linecap:butt;
"/>
<!-- Line -->
<!--  spline  -->
<polyline points="392,13022
393,13022
401,13021
418,13020
441,13019
463,13018
480,13017
488,13016
489,13016
490,13016
493,13015
501,13014
512,13013
524,13010
538,13008
554,13004
573,12999
590,12994
601,12990
607,12988
610,12987
612,12986
617,12984
627,12980
640,12973
655,12964
663,12960
666,12958
668,12956
673,12951
683,12941
691,12930
695,12921
698,12913
699,12907
699,12904
699,12903
699,12902
696,12896
691,12884
686,12872
683,12866
683,12865
683,12864
680,12861
674,12856
667,12849
656,12841
640,12832
627,12825
617,12821
612,12819
610,12818
607,12817
601,12816
590,12812
573,12807
555,12802
543,12799
537,12798
534,12797
530,12796
523,12795
510,12793
489,12790
467,12788
448,12786
432,12785
417,12784
405,12784
397,12784
393,12784
392,12784
391,12784
383,12785
366,12786
344,12787
321,12788
304,12789
296,12790
295,12790
294,12790
291,12791
283,12792
272,12794
260,12796
246,12799
229,12802
211,12807
194,12812
183,12816
177,12817
175,12818
172,12819
167,12821
158,12825
145,12832
130,12841
122,12846
119,12847
116,12849
111,12855
101,12865
93,12876
89,12885
87,12893
86,12899
86,12902
86,12903
86,12904
89,12910
94,12922
98,12934
101,12940
101,12941
102,12942
104,12944
110,12950
118,12956
129,12964
145,12973
158,12980
167,12984
172,12986
175,12987
177,12988
183,12990
194,12994
211,12999
229,13004
241,13007
247,13008
250,13009
254,13010
261,13011
274,13013
295,13016
317,13018
336,13020
352,13021
367,13022
379,13022
387,13022
391,13022
392,13022
" style="stroke:#146ec6;stroke-width:0;
stroke-linejoin:bevel; stroke-linecap:butt;
fill:#146ec6;
"/>
<!-- Line -->
<!--  spline  -->
<polyline points="392,13022
393,13022
401,13021
418,13020
441,13019
463,13018
480,13017
488,13016
489,13016
490,13016
493,13015
501,13014
512,13013
524,13010
538,13008
554,13004
573,12999
590,12994
601,12990
607,12988
610,12987
612,12986
617,12984
627,12980
640,12973
655,12964
663,12960
666,12958
668,12956
673,12951
683,12941
691,12930
695,12921
698,12913
699,12907
699,12904
699,12903
699,12902
696,12896
691,12884
686,12872
683,12866
683,12865
683,12864
680,12861
674,12856
667,12849
656,12841
640,12832
627,12825
617,12821
612,12819
610,12818
607,12817
601,12816
590,12812
573,12807
555,12802
543,12799
537,12798
534,12797
530,12796
523,12795
510,12793
489,12790
467,12788
448,12786
432,12785
417,12784
405,12784
397,12784
393,12784
392,12784
391,12784
383,12785
366,12786
344,12787
321,12788
304,12789
296,12790
295,12790
294,12790
291,12791
283,12792
272,12794
260,12796
246,12799
229,12802
211,12807
194,12812
183,12816
177,12817
175,12818
172,12819
167,12821
158,12825
145,12832
130,12841
122,12846
119,12847
116,12849
111,12855
101,12865
93,12876
89,12885
87,12893
86,12899
86,12902
86,12903
86,12904
89,12910
94,12922
98,12934
101,12940
101,12941
102,12942
104,12944
110,12950
118,12956
129,12964
145,12973
158,12980
167,12984
172,12986
175,12987
177,12988
183,12990
194,12994
211,12999
229,13004
241,13007
247,13008
250,13009
254,13010
261,13011
274,13013
295,13016
317,13018
336,13020
352,13021
367,13022
379,13022
387,13022
391,13022
392,13022
" style="stroke:#ffffff;stroke-width:7;
stroke-linejoin:bevel; stroke-linecap:butt;
"/>
<!-- Line -->
<!--  polyline  -->
<polyline points="322,12856
347,12894
252,12916
273,12899
125,12874
162,12846
305,12870
322,12856
" style="stroke:#ffffff;stroke-width:0;
stroke-linejoin:miter; stroke-linecap:butt;
fill:#ffffff;
"/>
<!-- Line -->
<!--  polyline  -->
<polyline points="457,12948
440,12909
526,12892
511,12905
655,12930
620,12957
477,12931
457,12948
" style="stroke:#ffffff;stroke-width:0;
stroke-linejoin:miter; stroke-linecap:butt;
fill:#ffffff;
"/>
<!-- Line -->
<!--  polyline  -->
<polyline points="410,12835
506,12809
507,12850
483,12846
436,12885
391,12878
440,12840
410,12835
" style="stroke:#ffffff;stroke-width:0;
stroke-linejoin:miter; stroke-linecap:butt;
fill:#ffffff;
"/>
<!-- Line -->
<!--  polyline  -->
<polyline points="368,12984
276,13001
273,12959
299,12964
350,12921
395,12929
341,12976
368,12984
" style="stroke:#ffffff;stroke-width:0;
stroke-linejoin:miter; stroke-linecap:butt;
fill:#ffffff;
"/>
</g>
</svg>
