<?xml version="1.0" standalone="no"?>
<!DOCTYPE svg PUBLIC "-//W3C//DTD SVG 1.1//EN"
"http://www.w3.org/Graphics/SVG/1.1/DTD/svg11.dtd">
<!-- Creator: fig2dev Version 3.2 Patchlevel 5c -->
<!-- CreationDate: Fri Sep 14 10:46:25 2012 -->
<!-- Magnification: 1.000 -->
<svg xmlns="http://www.w3.org/2000/svg" width="0.6in" height="0.4in" viewBox="4667 4253 726 452">
<g style="stroke-width:.025in; fill:none">
<!-- Line -->
<!--  polyline  -->
<polyline points="5285,4693
5285,4343
4783,4343
4783,4693
5285,4693
" style="stroke:#00a5d4;stroke-width:0;
stroke-linejoin:miter; stroke-linecap:butt;
fill:#00a5d4;
"/>
<!-- Line -->
<!--  polyline  -->
<polyline points="5285,4693
5285,4343
4783,4343
4783,4693
5285,4693
" style="stroke:#ffffff;stroke-width:7;
stroke-linejoin:miter; stroke-linecap:butt;
"/>
<!-- Line -->
<!--  polyline  -->
<polyline points="5285,4343
5381,4265
4913,4265
4783,4343
5285,4343
" style="stroke:#00a5d4;stroke-width:0;
stroke-linejoin:miter; stroke-linecap:butt;
fill:#00a5d4;
"/>
<!-- Line -->
<!--  polyline  -->
<polyline points="5285,4343
5381,4265
4913,4265
4783,4343
5285,4343
" style="stroke:#ffffff;stroke-width:7;
stroke-linejoin:miter; stroke-linecap:butt;
"/>
<!-- Line -->
<!--  polyline  -->
<polyline points="5381,4614
5381,4265
5285,4343
5285,4693
5381,4614
" style="stroke:#00a5d4;stroke-width:0;
stroke-linejoin:miter; stroke-linecap:butt;
fill:#00a5d4;
"/>
<!-- Line -->
<!--  polyline  -->
<polyline points="5381,4614
5381,4265
5285,4343
5285,4693
5381,4614
" style="stroke:#ffffff;stroke-width:7;
stroke-linejoin:miter; stroke-linecap:butt;
"/>
<!-- Line -->
<!--  polyline  -->
<polyline points="5264,4452
4789,4452
" style="stroke:#ffffff;stroke-width:15;
stroke-linejoin:miter; stroke-linecap:butt;
stroke-dasharray:40 40;"/>
<!-- Line -->
<!--  polyline  -->
<polyline points="5277,4452
5205,4481
5222,4452
5205,4422
5277,4452
" style="stroke:#ffffff;stroke-width:0;
stroke-linejoin:miter; stroke-linecap:butt;
fill:#ffffff;
"/>
<!-- Line -->
<!--  polyline  -->
<polyline points="5113,4623
5180,4572
4788,4570
" style="stroke:#d9d9d9;stroke-width:15;
stroke-linejoin:round; stroke-linecap:butt;
stroke-dasharray:40 40;"/>
<!-- Line -->
<!--  polyline  -->
<polyline points="5069,4660
5105,4591
5111,4625
5143,4636
5069,4660
" style="stroke:#d9d9d9;stroke-width:0;
stroke-linejoin:miter; stroke-linecap:butt;
fill:#d9d9d9;
"/>
<!-- Line -->
<!--  polyline  -->
<polyline points="5217,4604
5217,4380
5155,4430
5155,4654
5217,4604
" style="stroke:#ffffff;stroke-width:7;
stroke-linejoin:miter; stroke-linecap:butt;
"/>
<!-- Line -->
<!--  polyline  -->
<polyline points="4894,4604
4894,4380
4833,4430
4833,4654
4894,4604
" style="stroke:#ffffff;stroke-width:7;
stroke-linejoin:miter; stroke-linecap:butt;
"/>
<!-- Line -->
<!--  polyline  -->
<polyline points="5056,4604
5056,4380
4994,4430
4994,4654
5056,4604
" style="stroke:#ffffff;stroke-width:7;
stroke-linejoin:miter; stroke-linecap:butt;
"/>
<!-- Line -->
<!--  polyline  -->
<polyline points="4784,4452
4689,4452
" style="stroke:#000000;stroke-width:15;
stroke-linejoin:miter; stroke-linecap:butt;
stroke-dasharray:40 40;"/>
<!-- Line -->
<!--  polyline  -->
<polyline points="4784,4572
4689,4572
" style="stroke:#d9d9d9;stroke-width:15;
stroke-linejoin:miter; stroke-linecap:butt;
stroke-dasharray:40 40;"/>
<!-- Line -->
<!--  polyline  -->
<polyline points="4784,4572
4689,4572
" style="stroke:#8c8c8c;stroke-width:15;
stroke-linejoin:miter; stroke-linecap:butt;
stroke-dasharray:40 40;"/>
</g>
</svg>
