<?xml version="1.0" standalone="no"?>
<!DOCTYPE svg PUBLIC "-//W3C//DTD SVG 1.1//EN"
"http://www.w3.org/Graphics/SVG/1.1/DTD/svg11.dtd">
<!-- Creator: fig2dev Version 3.2 Patchlevel 5c -->
<!-- CreationDate: Fri Sep 14 10:46:26 2012 -->
<!-- Magnification: 1.000 -->
<svg xmlns="http://www.w3.org/2000/svg" width="0.5in" height="0.3in" viewBox="-3 12891 553 314">
<g style="stroke-width:.025in; fill:none">
<!-- Line -->
<!--  polyline  -->
<polyline points="538,13169
538,12903
512,12927
512,13193
538,13169
" style="stroke:#02709f;stroke-width:0;
stroke-linejoin:miter; stroke-linecap:butt;
fill:#02709f;
"/>
<!-- Line -->
<!--  polyline  -->
<polyline points="538,13169
538,12903
512,12927
512,13193
538,13169
" style="stroke:#ffffff;stroke-width:7;
stroke-linejoin:miter; stroke-linecap:butt;
"/>
<!-- Line -->
<!--  polyline  -->
<polyline points="511,13192
511,12927
9,12927
9,13192
511,13192
" style="stroke:#02709f;stroke-width:0;
stroke-linejoin:miter; stroke-linecap:butt;
fill:#02709f;
"/>
<!-- Line -->
<!--  polyline  -->
<polyline points="511,13192
511,12927
9,12927
9,13192
511,13192
" style="stroke:#ffffff;stroke-width:7;
stroke-linejoin:miter; stroke-linecap:butt;
"/>
<!-- Line -->
<!--  spline  -->
<polyline points="39,12985
39,12984
40,12981
41,12976
42,12973
42,12972
43,12970
44,12968
46,12966
49,12963
52,12961
53,12960
54,12959
57,12958
60,12957
61,12956
62,12956
64,12955
65,12955
66,12955
67,12955
69,12955
76,12955
88,12955
95,12955
97,12955
100,12955
106,12955
114,12955
124,12955
136,12955
151,12955
170,12955
189,12955
203,12955
210,12955
215,12955
219,12955
226,12955
240,12955
260,12955
279,12955
293,12955
300,12955
304,12955
307,12955
313,12955
324,12955
339,12955
356,12955
367,12955
374,12955
378,12955
381,12955
382,12955
386,12956
393,12957
397,12958
398,12958
400,12959
402,12961
404,12963
407,12966
409,12969
410,12970
410,12971
411,12972
412,12975
413,12978
413,12979
413,12980
414,12981
414,12983
414,12984
414,12985
414,12986
414,12987
414,12990
414,12996
414,12999
414,13000
414,13001
414,13004
414,13011
414,13020
414,13033
414,13044
414,13051
414,13054
414,13057
414,13063
414,13075
414,13086
414,13093
414,13095
414,13097
414,13103
414,13112
414,13122
414,13128
414,13132
414,13135
414,13136
413,13138
412,13142
411,13144
411,13145
410,13146
409,13148
407,13150
405,13152
403,13154
401,13155
401,13156
399,13156
397,13158
395,13159
394,13160
393,13160
391,13161
390,13161
390,13162
389,13162
388,13162
386,13162
378,13162
367,13162
359,13162
357,13162
354,13162
348,13162
340,13162
330,13162
318,13162
302,13162
283,13162
264,13162
250,13162
242,13162
239,13162
234,13162
227,13162
213,13162
193,13162
173,13162
160,13162
153,13162
149,13162
145,13162
139,13162
128,13162
113,13162
96,13162
85,13162
78,13162
73,13162
71,13162
70,13162
67,13161
63,13160
60,13159
59,13159
57,13158
55,13157
53,13155
50,13153
48,13151
47,13150
46,13149
46,13148
44,13146
42,13144
42,13143
41,13142
40,13140
40,13139
39,13139
39,13138
39,13137
39,13136
39,13132
39,13123
39,13107
39,13086
39,13061
39,13036
39,13015
39,12999
39,12990
39,12986
39,12985
" style="stroke:#02709f;stroke-width:0;
stroke-linejoin:bevel; stroke-linecap:butt;
fill:#02709f;
"/>
<!-- Line -->
<!--  spline  -->
<polyline points="39,12985
39,12984
40,12981
41,12976
42,12973
42,12972
43,12970
44,12968
46,12966
49,12963
52,12961
53,12960
54,12959
57,12958
60,12957
61,12956
62,12956
64,12955
65,12955
66,12955
67,12955
69,12955
76,12955
88,12955
95,12955
97,12955
100,12955
106,12955
114,12955
124,12955
136,12955
151,12955
170,12955
189,12955
203,12955
210,12955
215,12955
219,12955
226,12955
240,12955
260,12955
279,12955
293,12955
300,12955
304,12955
307,12955
313,12955
324,12955
339,12955
356,12955
367,12955
374,12955
378,12955
381,12955
382,12955
386,12956
393,12957
397,12958
398,12958
400,12959
402,12961
404,12963
407,12966
409,12969
410,12970
410,12971
411,12972
412,12975
413,12978
413,12979
413,12980
414,12981
414,12983
414,12984
414,12985
414,12986
414,12987
414,12990
414,12996
414,12999
414,13000
414,13001
414,13004
414,13011
414,13020
414,13033
414,13044
414,13051
414,13054
414,13057
414,13063
414,13075
414,13086
414,13093
414,13095
414,13097
414,13103
414,13112
414,13122
414,13128
414,13132
414,13135
414,13136
413,13138
412,13142
411,13144
411,13145
410,13146
409,13148
407,13150
405,13152
403,13154
401,13155
401,13156
399,13156
397,13158
395,13159
394,13160
393,13160
391,13161
390,13161
390,13162
389,13162
388,13162
386,13162
378,13162
367,13162
359,13162
357,13162
354,13162
348,13162
340,13162
330,13162
318,13162
302,13162
283,13162
264,13162
250,13162
242,13162
239,13162
234,13162
227,13162
213,13162
193,13162
173,13162
160,13162
153,13162
149,13162
145,13162
139,13162
128,13162
113,13162
96,13162
85,13162
78,13162
73,13162
71,13162
70,13162
67,13161
63,13160
60,13159
59,13159
57,13158
55,13157
53,13155
50,13153
48,13151
47,13150
46,13149
46,13148
44,13146
42,13144
42,13143
41,13142
40,13140
40,13139
39,13139
39,13138
39,13137
39,13136
39,13132
39,13123
39,13107
39,13086
39,13061
39,13036
39,13015
39,12999
39,12990
39,12986
39,12985
" style="stroke:#ffffff;stroke-width:7;
stroke-linejoin:bevel; stroke-linecap:butt;
"/>
<!-- Line -->
<!--  polyline  -->
<polyline points="538,12903
36,12903
9,12927
511,12927
538,12903
" style="stroke:#02709f;stroke-width:0;
stroke-linejoin:miter; stroke-linecap:butt;
fill:#02709f;
"/>
<!-- Line -->
<!--  polyline  -->
<polyline points="538,12903
36,12903
9,12927
511,12927
538,12903
" style="stroke:#ffffff;stroke-width:7;
stroke-linejoin:miter; stroke-linecap:butt;
"/>
<!-- Line -->
<!--  spline  -->
<polyline points="475,12982
475,12983
475,12984
475,12985
474,12985
473,12986
472,12987
471,12987
470,12988
469,12988
468,12989
467,12989
466,12989
465,12989
463,12989
462,12989
460,12989
459,12989
457,12989
456,12989
455,12989
454,12988
453,12988
452,12987
451,12987
450,12986
449,12985
448,12985
448,12984
448,12983
448,12982
448,12981
448,12980
448,12979
448,12978
449,12978
450,12977
451,12977
451,12976
451,12977
452,12976
453,12976
454,12975
455,12975
456,12974
457,12974
459,12974
460,12974
461,12974
462,12974
463,12974
465,12974
466,12974
467,12974
468,12975
469,12975
470,12976
471,12976
472,12977
472,12976
472,12977
473,12977
474,12978
475,12978
475,12979
475,12980
475,12981
475,12982
" style="stroke:#02709f;stroke-width:0;
stroke-linejoin:bevel; stroke-linecap:butt;
fill:#02709f;
"/>
<!-- Line -->
<!--  spline  -->
<polyline points="475,12982
475,12983
475,12984
475,12985
474,12985
473,12986
472,12987
471,12987
470,12988
469,12988
468,12989
467,12989
466,12989
465,12989
463,12989
462,12989
460,12989
459,12989
457,12989
456,12989
455,12989
454,12988
453,12988
452,12987
451,12987
450,12986
449,12985
448,12985
448,12984
448,12983
448,12982
448,12981
448,12980
448,12979
448,12978
449,12978
450,12977
451,12977
451,12976
451,12977
452,12976
453,12976
454,12975
455,12975
456,12974
457,12974
459,12974
460,12974
461,12974
462,12974
463,12974
465,12974
466,12974
467,12974
468,12975
469,12975
470,12976
471,12976
472,12977
472,12976
472,12977
473,12977
474,12978
475,12978
475,12979
475,12980
475,12981
475,12982
" style="stroke:#ffffff;stroke-width:7;
stroke-linejoin:bevel; stroke-linecap:butt;
"/>
<!-- Line -->
<!--  spline  -->
<polyline points="475,13037
475,13038
475,13039
475,13040
475,13041
474,13041
473,13042
472,13042
472,13043
472,13042
471,13043
470,13043
469,13044
468,13044
467,13045
466,13045
465,13045
463,13045
462,13045
460,13045
459,13045
457,13045
456,13045
455,13044
454,13044
453,13043
452,13043
451,13042
451,13043
451,13042
450,13042
449,13041
448,13041
448,13040
448,13039
448,13038
448,13037
448,13036
448,13035
448,13034
449,13034
450,13033
451,13032
452,13032
453,13031
454,13031
455,13030
456,13030
457,13030
459,13030
460,13030
461,13030
462,13030
463,13030
465,13030
466,13030
467,13030
468,13030
469,13031
470,13031
471,13032
472,13032
473,13033
474,13034
475,13034
475,13035
475,13036
475,13037
" style="stroke:#02709f;stroke-width:0;
stroke-linejoin:bevel; stroke-linecap:butt;
fill:#02709f;
"/>
<!-- Line -->
<!--  spline  -->
<polyline points="475,13037
475,13038
475,13039
475,13040
475,13041
474,13041
473,13042
472,13042
472,13043
472,13042
471,13043
470,13043
469,13044
468,13044
467,13045
466,13045
465,13045
463,13045
462,13045
460,13045
459,13045
457,13045
456,13045
455,13044
454,13044
453,13043
452,13043
451,13042
451,13043
451,13042
450,13042
449,13041
448,13041
448,13040
448,13039
448,13038
448,13037
448,13036
448,13035
448,13034
449,13034
450,13033
451,13032
452,13032
453,13031
454,13031
455,13030
456,13030
457,13030
459,13030
460,13030
461,13030
462,13030
463,13030
465,13030
466,13030
467,13030
468,13030
469,13031
470,13031
471,13032
472,13032
473,13033
474,13034
475,13034
475,13035
475,13036
475,13037
" style="stroke:#ffffff;stroke-width:7;
stroke-linejoin:bevel; stroke-linecap:butt;
"/>
<!-- Line -->
<!--  spline  -->
<polyline points="475,13093
475,13094
475,13095
475,13096
474,13096
473,13097
472,13098
471,13098
470,13099
469,13099
468,13100
467,13100
466,13100
465,13100
463,13100
462,13100
460,13100
459,13100
457,13100
456,13100
455,13100
454,13099
453,13099
452,13098
451,13098
450,13097
449,13096
448,13096
448,13095
448,13094
448,13093
448,13092
448,13091
448,13090
448,13089
449,13089
450,13088
451,13088
451,13087
452,13087
453,13087
454,13087
455,13087
455,13086
456,13086
457,13086
459,13086
460,13085
461,13085
462,13085
463,13085
465,13086
466,13086
467,13086
468,13086
469,13087
470,13087
471,13087
472,13087
472,13088
473,13088
474,13089
475,13089
475,13090
475,13091
475,13092
475,13093
" style="stroke:#02709f;stroke-width:0;
stroke-linejoin:bevel; stroke-linecap:butt;
fill:#02709f;
"/>
<!-- Line -->
<!--  spline  -->
<polyline points="475,13093
475,13094
475,13095
475,13096
474,13096
473,13097
472,13098
471,13098
470,13099
469,13099
468,13100
467,13100
466,13100
465,13100
463,13100
462,13100
460,13100
459,13100
457,13100
456,13100
455,13100
454,13099
453,13099
452,13098
451,13098
450,13097
449,13096
448,13096
448,13095
448,13094
448,13093
448,13092
448,13091
448,13090
448,13089
449,13089
450,13088
451,13088
451,13087
452,13087
453,13087
454,13087
455,13087
455,13086
456,13086
457,13086
459,13086
460,13085
461,13085
462,13085
463,13085
465,13086
466,13086
467,13086
468,13086
469,13087
470,13087
471,13087
472,13087
472,13088
473,13088
474,13089
475,13089
475,13090
475,13091
475,13092
475,13093
" style="stroke:#ffffff;stroke-width:7;
stroke-linejoin:bevel; stroke-linecap:butt;
"/>
<!-- Line -->
<!--  spline  -->
<polyline points="475,13148
475,13149
475,13150
475,13151
475,13152
474,13152
473,13153
472,13154
471,13154
470,13155
469,13155
468,13156
467,13156
466,13156
465,13156
463,13156
462,13156
460,13156
459,13156
457,13156
456,13156
455,13156
454,13155
453,13155
452,13154
451,13154
450,13153
449,13152
448,13152
448,13151
448,13150
448,13149
448,13148
448,13147
448,13146
448,13145
449,13145
450,13144
451,13143
452,13143
453,13142
454,13142
455,13141
456,13141
457,13141
459,13141
460,13141
461,13141
462,13141
463,13141
465,13141
466,13141
467,13141
468,13141
469,13142
470,13142
471,13143
472,13143
473,13144
474,13145
475,13145
475,13146
475,13147
475,13148
" style="stroke:#02709f;stroke-width:0;
stroke-linejoin:bevel; stroke-linecap:butt;
fill:#02709f;
"/>
<!-- Line -->
<!--  spline  -->
<polyline points="475,13148
475,13149
475,13150
475,13151
475,13152
474,13152
473,13153
472,13154
471,13154
470,13155
469,13155
468,13156
467,13156
466,13156
465,13156
463,13156
462,13156
460,13156
459,13156
457,13156
456,13156
455,13156
454,13155
453,13155
452,13154
451,13154
450,13153
449,13152
448,13152
448,13151
448,13150
448,13149
448,13148
448,13147
448,13146
448,13145
449,13145
450,13144
451,13143
452,13143
453,13142
454,13142
455,13141
456,13141
457,13141
459,13141
460,13141
461,13141
462,13141
463,13141
465,13141
466,13141
467,13141
468,13141
469,13142
470,13142
471,13143
472,13143
473,13144
474,13145
475,13145
475,13146
475,13147
475,13148
" style="stroke:#ffffff;stroke-width:7;
stroke-linejoin:bevel; stroke-linecap:butt;
"/>
</g>
</svg>
