<?xml version="1.0" standalone="no"?>
<!DOCTYPE svg PUBLIC "-//W3C//DTD SVG 1.1//EN"
"http://www.w3.org/Graphics/SVG/1.1/DTD/svg11.dtd">
<!-- Creator: fig2dev Version 3.2 Patchlevel 5c -->
<!-- CreationDate: Fri Sep 14 10:46:26 2012 -->
<!-- Magnification: 1.000 -->
<svg xmlns="http://www.w3.org/2000/svg" width="0.4in" height="0.3in" viewBox="-6 12809 525 394">
<g style="stroke-width:.025in; fill:none">
<!-- Line -->
<!--  polyline  -->
<polyline points="7,13190
7,13108
357,13108
357,13190
7,13190
" style="stroke:#02709f;stroke-width:0;
stroke-linejoin:miter; stroke-linecap:butt;
fill:#02709f;
"/>
<!-- Line -->
<!--  polyline  -->
<polyline points="7,13190
7,13108
357,13108
357,13190
7,13190
" style="stroke:#ffffff;stroke-width:7;
stroke-linejoin:miter; stroke-linecap:butt;
"/>
<!-- Line -->
<!--  polyline  -->
<polyline points="357,13108
6,13108
173,12867
507,12867
357,13108
" style="stroke:#02709f;stroke-width:0;
stroke-linejoin:miter; stroke-linecap:butt;
fill:#02709f;
"/>
<!-- Line -->
<!--  polyline  -->
<polyline points="357,13108
6,13108
173,12867
507,12867
357,13108
" style="stroke:#ffffff;stroke-width:7;
stroke-linejoin:miter; stroke-linecap:butt;
"/>
<!-- Line -->
<!--  polyline  -->
<polyline points="507,12870
507,13021
357,13191
357,13112
507,12870
" style="stroke:#02709f;stroke-width:0;
stroke-linejoin:miter; stroke-linecap:butt;
fill:#02709f;
"/>
<!-- Line -->
<!--  polyline  -->
<polyline points="507,12870
507,13021
357,13191
357,13112
507,12870
" style="stroke:#ffffff;stroke-width:7;
stroke-linejoin:miter; stroke-linecap:butt;
"/>
<!-- Line -->
<!--  spline  -->
<polyline points="240,12911
239,12912
236,12916
230,12921
227,12925
226,12926
224,12928
221,12932
217,12936
212,12942
208,12947
206,12950
205,12950
203,12953
199,12958
195,12964
193,12966
192,12967
190,12969
186,12975
182,12981
179,12986
177,12989
175,12992
175,12993
175,13000
176,13009
176,13016
176,13017
175,13018
171,13025
162,13039
150,13058
137,13077
128,13091
124,13098
123,13099
123,13097
122,13087
120,13069
118,13051
117,13041
117,13039
118,13038
121,13032
126,13021
131,13010
134,13004
135,13003
137,13001
139,12996
143,12990
148,12983
154,12974
162,12963
171,12950
180,12937
187,12929
190,12924
192,12922
194,12919
198,12915
204,12906
214,12894
226,12879
233,12871
235,12868
238,12865
244,12858
254,12847
264,12837
271,12830
275,12826
279,12823
281,12821
281,12823
283,12832
286,12848
289,12864
291,12873
291,12875
290,12876
286,12881
278,12891
266,12905
254,12919
246,12929
242,12934
241,12935
241,12934
241,12928
240,12918
240,12912
240,12911
" style="stroke:#02709f;stroke-width:0;
stroke-linejoin:bevel; stroke-linecap:butt;
fill:#02709f;
"/>
<!-- Line -->
<!--  spline  -->
<polyline points="240,12911
239,12912
236,12916
230,12921
227,12925
226,12926
224,12928
221,12932
217,12936
212,12942
208,12947
206,12950
205,12950
203,12953
199,12958
195,12964
193,12966
192,12967
190,12969
186,12975
182,12981
179,12986
177,12989
175,12992
175,12993
175,13000
176,13009
176,13016
176,13017
175,13018
171,13025
162,13039
150,13058
137,13077
128,13091
124,13098
123,13099
123,13097
122,13087
120,13069
118,13051
117,13041
117,13039
118,13038
121,13032
126,13021
131,13010
134,13004
135,13003
137,13001
139,12996
143,12990
148,12983
154,12974
162,12963
171,12950
180,12937
187,12929
190,12924
192,12922
194,12919
198,12915
204,12906
214,12894
226,12879
233,12871
235,12868
238,12865
244,12858
254,12847
264,12837
271,12830
275,12826
279,12823
281,12821
281,12823
283,12832
286,12848
289,12864
291,12873
291,12875
290,12876
286,12881
278,12891
266,12905
254,12919
246,12929
242,12934
241,12935
241,12934
241,12928
240,12918
240,12912
240,12911
" style="stroke:#ffffff;stroke-width:7;
stroke-linejoin:bevel; stroke-linecap:butt;
"/>
<!-- Line -->
<!--  polyline  -->
<polyline points="54,13039
48,13099
123,13099
117,13039
54,13039
" style="stroke:#02709f;stroke-width:0;
stroke-linejoin:miter; stroke-linecap:butt;
fill:#02709f;
"/>
<!-- Line -->
<!--  polyline  -->
<polyline points="54,13039
48,13099
123,13099
117,13039
54,13039
" style="stroke:#ffffff;stroke-width:7;
stroke-linejoin:miter; stroke-linecap:butt;
"/>
<!-- Line -->
<!--  spline  -->
<polyline points="281,12821
280,12822
276,12826
267,12834
259,12842
255,12846
254,12847
253,12848
250,12851
244,12858
237,12867
227,12878
214,12894
204,12906
198,12915
194,12919
192,12922
190,12924
187,12929
180,12937
171,12950
162,12963
156,12971
153,12976
151,12978
149,12980
147,12985
142,12992
135,13003
127,13016
123,13025
120,13032
118,13036
117,13039
115,13039
105,13039
85,13039
66,13039
56,13039
54,13039
55,13038
58,13032
63,13021
68,13010
71,13004
72,13003
74,13001
76,12996
80,12990
85,12983
91,12974
99,12963
108,12950
117,12937
124,12929
127,12924
129,12922
131,12919
135,12915
141,12906
151,12894
163,12879
170,12871
172,12868
175,12865
181,12858
191,12847
201,12837
208,12830
212,12826
216,12823
218,12821
220,12821
230,12821
250,12821
269,12821
279,12821
281,12821
" style="stroke:#02709f;stroke-width:0;
stroke-linejoin:bevel; stroke-linecap:butt;
fill:#02709f;
"/>
<!-- Line -->
<!--  spline  -->
<polyline points="281,12821
280,12822
276,12826
267,12834
259,12842
255,12846
254,12847
253,12848
250,12851
244,12858
237,12867
227,12878
214,12894
204,12906
198,12915
194,12919
192,12922
190,12924
187,12929
180,12937
171,12950
162,12963
156,12971
153,12976
151,12978
149,12980
147,12985
142,12992
135,13003
127,13016
123,13025
120,13032
118,13036
117,13039
115,13039
105,13039
85,13039
66,13039
56,13039
54,13039
55,13038
58,13032
63,13021
68,13010
71,13004
72,13003
74,13001
76,12996
80,12990
85,12983
91,12974
99,12963
108,12950
117,12937
124,12929
127,12924
129,12922
131,12919
135,12915
141,12906
151,12894
163,12879
170,12871
172,12868
175,12865
181,12858
191,12847
201,12837
208,12830
212,12826
216,12823
218,12821
220,12821
230,12821
250,12821
269,12821
279,12821
281,12821
" style="stroke:#ffffff;stroke-width:7;
stroke-linejoin:bevel; stroke-linecap:butt;
"/>
<!-- Line -->
<!--  polyline  -->
<polyline points="187,13084
165,13084
175,13071
198,13071
187,13084
" style="stroke:#02709f;stroke-width:0;
stroke-linejoin:miter; stroke-linecap:butt;
fill:#02709f;
"/>
<!-- Line -->
<!--  polyline  -->
<polyline points="187,13084
165,13084
175,13071
198,13071
187,13084
" style="stroke:#ffffff;stroke-width:7;
stroke-linejoin:miter; stroke-linecap:butt;
"/>
<!-- Line -->
<!--  polyline  -->
<polyline points="237,13084
215,13084
225,13071
248,13071
237,13084
" style="stroke:#02709f;stroke-width:0;
stroke-linejoin:miter; stroke-linecap:butt;
fill:#02709f;
"/>
<!-- Line -->
<!--  polyline  -->
<polyline points="237,13084
215,13084
225,13071
248,13071
237,13084
" style="stroke:#ffffff;stroke-width:7;
stroke-linejoin:miter; stroke-linecap:butt;
"/>
<!-- Line -->
<!--  polyline  -->
<polyline points="287,13084
265,13084
275,13071
298,13071
287,13084
" style="stroke:#02709f;stroke-width:0;
stroke-linejoin:miter; stroke-linecap:butt;
fill:#02709f;
"/>
<!-- Line -->
<!--  polyline  -->
<polyline points="287,13084
265,13084
275,13071
298,13071
287,13084
" style="stroke:#ffffff;stroke-width:7;
stroke-linejoin:miter; stroke-linecap:butt;
"/>
<!-- Line -->
<!--  polyline  -->
<polyline points="337,13084
315,13084
325,13071
348,13071
337,13084
" style="stroke:#02709f;stroke-width:0;
stroke-linejoin:miter; stroke-linecap:butt;
fill:#02709f;
"/>
<!-- Line -->
<!--  polyline  -->
<polyline points="337,13084
315,13084
325,13071
348,13071
337,13084
" style="stroke:#ffffff;stroke-width:7;
stroke-linejoin:miter; stroke-linecap:butt;
"/>
</g>
</svg>
