<?xml version="1.0" standalone="no"?>
<!DOCTYPE svg PUBLIC "-//W3C//DTD SVG 1.1//EN"
"http://www.w3.org/Graphics/SVG/1.1/DTD/svg11.dtd">
<!-- Creator: fig2dev Version 3.2 Patchlevel 5c -->
<!-- CreationDate: Fri Sep 14 10:46:26 2012 -->
<!-- Magnification: 1.000 -->
<svg xmlns="http://www.w3.org/2000/svg" width="0.4in" height="0.4in" viewBox="-4 12745 422 459">
<g style="stroke-width:.025in; fill:none">
<!-- Line -->
<!--  polyline  -->
<polyline points="324,13192
324,12839
8,12839
8,13192
324,13192
" style="stroke:#02709f;stroke-width:0;
stroke-linejoin:miter; stroke-linecap:butt;
fill:#02709f;
"/>
<!-- Line -->
<!--  polyline  -->
<polyline points="324,13192
324,12839
8,12839
8,13192
324,13192
" style="stroke:#ffffff;stroke-width:7;
stroke-linejoin:miter; stroke-linecap:butt;
"/>
<!-- Line -->
<!--  polyline  -->
<polyline points="324,13192
406,13110
406,12757
90,12757
8,12839
324,12839
324,13192
" style="stroke:#02709f;stroke-width:0;
stroke-linejoin:miter; stroke-linecap:butt;
fill:#02709f;
"/>
<!-- Line -->
<!--  polyline  -->
<polyline points="324,13192
406,13110
406,12757
90,12757
8,12839
324,12839
324,13192
" style="stroke:#ffffff;stroke-width:7;
stroke-linejoin:miter; stroke-linecap:butt;
"/>
<!-- Line -->
<!--  polyline  -->
<polyline points="324,12839
406,12757
" style="stroke:#02709f;stroke-width:0;
stroke-linejoin:miter; stroke-linecap:butt;
fill:#02709f;
"/>
<!-- Line -->
<!--  polyline  -->
<polyline points="324,12839
406,12757
" style="stroke:#ffffff;stroke-width:7;
stroke-linejoin:miter; stroke-linecap:butt;
"/>
<!-- Line -->
<!--  polyline  -->
<polyline points="324,12926
8,12926
" style="stroke:#02709f;stroke-width:0;
stroke-linejoin:miter; stroke-linecap:butt;
fill:#02709f;
"/>
<!-- Line -->
<!--  polyline  -->
<polyline points="324,12926
8,12926
" style="stroke:#ffffff;stroke-width:7;
stroke-linejoin:miter; stroke-linecap:butt;
"/>
<!-- Line -->
<!--  polyline  -->
<polyline points="324,13103
8,13103
" style="stroke:#02709f;stroke-width:0;
stroke-linejoin:miter; stroke-linecap:butt;
fill:#02709f;
"/>
<!-- Line -->
<!--  polyline  -->
<polyline points="324,13103
8,13103
" style="stroke:#ffffff;stroke-width:7;
stroke-linejoin:miter; stroke-linecap:butt;
"/>
<!-- Line -->
<!--  polyline  -->
<polyline points="324,13017
8,13017
" style="stroke:#02709f;stroke-width:0;
stroke-linejoin:miter; stroke-linecap:butt;
fill:#02709f;
"/>
<!-- Line -->
<!--  polyline  -->
<polyline points="324,13017
8,13017
" style="stroke:#ffffff;stroke-width:7;
stroke-linejoin:miter; stroke-linecap:butt;
"/>
<!-- Line -->
<!--  polyline  -->
<polyline points="221,12881
290,12881
" style="stroke:#02709f;stroke-width:0;
stroke-linejoin:miter; stroke-linecap:butt;
fill:#02709f;
"/>
<!-- Line -->
<!--  polyline  -->
<polyline points="221,12881
290,12881
" style="stroke:#ffffff;stroke-width:7;
stroke-linejoin:miter; stroke-linecap:butt;
"/>
<!-- Line -->
<!--  polyline  -->
<polyline points="221,12973
290,12973
" style="stroke:#02709f;stroke-width:0;
stroke-linejoin:miter; stroke-linecap:butt;
fill:#02709f;
"/>
<!-- Line -->
<!--  polyline  -->
<polyline points="221,12973
290,12973
" style="stroke:#ffffff;stroke-width:7;
stroke-linejoin:miter; stroke-linecap:butt;
"/>
<!-- Line -->
<!--  polyline  -->
<polyline points="221,13059
290,13059
" style="stroke:#02709f;stroke-width:0;
stroke-linejoin:miter; stroke-linecap:butt;
fill:#02709f;
"/>
<!-- Line -->
<!--  polyline  -->
<polyline points="221,13059
290,13059
" style="stroke:#ffffff;stroke-width:7;
stroke-linejoin:miter; stroke-linecap:butt;
"/>
<!-- Line -->
<!--  polyline  -->
<polyline points="221,13147
290,13147
" style="stroke:#02709f;stroke-width:0;
stroke-linejoin:miter; stroke-linecap:butt;
fill:#02709f;
"/>
<!-- Line -->
<!--  polyline  -->
<polyline points="221,13147
290,13147
" style="stroke:#ffffff;stroke-width:7;
stroke-linejoin:miter; stroke-linecap:butt;
"/>
</g>
</svg>
