<?xml version="1.0" standalone="no"?>
<!DOCTYPE svg PUBLIC "-//W3C//DTD SVG 1.1//EN"
"http://www.w3.org/Graphics/SVG/1.1/DTD/svg11.dtd">
<!-- Creator: fig2dev Version 3.2 Patchlevel 5c -->
<!-- CreationDate: Fri Sep 14 10:46:27 2012 -->
<!-- Magnification: 1.000 -->
<svg xmlns="http://www.w3.org/2000/svg" width="0.3in" height="0.5in" viewBox="-9 12631 416 578">
<g style="stroke-width:.025in; fill:none">
<!-- Line -->
<!--  polyline  -->
<polyline points="307,12734
159,12734
159,13179
307,13179
307,12734
" style="stroke:#02709f;stroke-width:0;
stroke-linejoin:miter; stroke-linecap:butt;
fill:#02709f;
"/>
<!-- Line -->
<!--  polyline  -->
<polyline points="307,12734
159,12734
159,13179
307,13179
307,12734
" style="stroke:#ffffff;stroke-width:7;
stroke-linejoin:miter; stroke-linecap:butt;
"/>
<!-- Line -->
<!--  polyline  -->
<polyline points="180,12796
285,12796
285,12896
180,12896
180,12796
" style="stroke:#02709f;stroke-width:0;
stroke-linejoin:miter; stroke-linecap:butt;
fill:#02709f;
"/>
<!-- Line -->
<!--  polyline  -->
<polyline points="180,12796
285,12796
285,12896
180,12896
180,12796
" style="stroke:#ffffff;stroke-width:7;
stroke-linejoin:miter; stroke-linecap:butt;
"/>
<!-- Line -->
<!--  polyline  -->
<polyline points="395,12645
307,12736
307,13179
395,13075
395,12645
" style="stroke:#02709f;stroke-width:0;
stroke-linejoin:miter; stroke-linecap:butt;
fill:#02709f;
"/>
<!-- Line -->
<!--  polyline  -->
<polyline points="395,12645
307,12736
307,13179
395,13075
395,12645
" style="stroke:#ffffff;stroke-width:7;
stroke-linejoin:miter; stroke-linecap:butt;
"/>
<!-- Line -->
<!--  polyline  -->
<polyline points="29,12732
151,12732
" style="stroke:#02709f;stroke-width:0;
stroke-linejoin:miter; stroke-linecap:butt;
fill:#02709f;
"/>
<!-- Line -->
<!--  polyline  -->
<polyline points="29,12732
151,12732
" style="stroke:#ffffff;stroke-width:7;
stroke-linejoin:miter; stroke-linecap:butt;
"/>
<!-- Line -->
<!--  polyline  -->
<polyline points="176,12717
232,12656
" style="stroke:#02709f;stroke-width:0;
stroke-linejoin:miter; stroke-linecap:butt;
fill:#02709f;
"/>
<!-- Line -->
<!--  polyline  -->
<polyline points="176,12717
232,12656
" style="stroke:#ffffff;stroke-width:7;
stroke-linejoin:miter; stroke-linecap:butt;
"/>
<!-- Line -->
<!--  spline  -->
<polyline points="154,12741
154,12742
153,12743
153,12744
153,12745
153,12746
152,12748
150,12751
148,12754
147,12755
147,12756
146,12757
142,12760
138,12763
136,12764
135,12764
133,12765
126,12767
117,12769
110,12769
104,12770
100,12770
99,12770
98,12770
90,12769
74,12766
52,12763
29,12759
13,12756
5,12755
4,12755
4,12753
4,12751
4,12749
5,12749
8,12746
16,12739
30,12728
49,12713
71,12696
93,12679
112,12664
126,12653
134,12646
137,12643
138,12643
141,12643
149,12643
162,12643
181,12643
206,12643
235,12643
267,12643
298,12643
327,12643
352,12643
371,12643
384,12643
392,12643
395,12643
394,12644
391,12648
382,12657
368,12671
351,12689
335,12706
321,12720
312,12729
309,12733
308,12734
307,12734
303,12734
294,12734
279,12734
258,12734
233,12734
209,12734
188,12734
173,12734
164,12734
160,12734
159,12734
" style="stroke:#02709f;stroke-width:0;
stroke-linejoin:bevel; stroke-linecap:butt;
fill:#02709f;
"/>
<!-- Line -->
<!--  spline  -->
<polyline points="154,12741
154,12742
153,12743
153,12744
153,12745
153,12746
152,12748
150,12751
148,12754
147,12755
147,12756
146,12757
142,12760
138,12763
136,12764
135,12764
133,12765
126,12767
117,12769
110,12769
104,12770
100,12770
99,12770
98,12770
90,12769
74,12766
52,12763
29,12759
13,12756
5,12755
4,12755
4,12753
4,12751
4,12749
5,12749
8,12746
16,12739
30,12728
49,12713
71,12696
93,12679
112,12664
126,12653
134,12646
137,12643
138,12643
141,12643
149,12643
162,12643
181,12643
206,12643
235,12643
267,12643
298,12643
327,12643
352,12643
371,12643
384,12643
392,12643
395,12643
394,12644
391,12648
382,12657
368,12671
351,12689
335,12706
321,12720
312,12729
309,12733
308,12734
307,12734
303,12734
294,12734
279,12734
258,12734
233,12734
209,12734
188,12734
173,12734
164,12734
160,12734
159,12734
" style="stroke:#ffffff;stroke-width:7;
stroke-linejoin:bevel; stroke-linecap:butt;
"/>
<!-- Line -->
<!--  spline  -->
<polyline points="158,12736
156,12737
155,12737
153,12738
151,12739
149,12740
146,12742
140,12744
134,12746
132,12747
131,12748
127,12749
120,12751
112,12753
108,12753
107,12754
103,12754
94,12755
84,12755
76,12755
70,12755
67,12755
66,12755
64,12755
54,12754
34,12752
15,12751
5,12750
3,12750
3,12753
3,12760
3,12772
3,12791
3,12817
3,12849
3,12886
3,12928
3,12972
3,13016
3,13058
3,13095
3,13127
3,13153
3,13172
3,13184
3,13191
3,13194
5,13194
15,13195
35,13196
54,13196
64,13197
66,13197
68,13197
76,13197
90,13197
98,13197
100,13197
101,13197
104,13197
110,13196
117,13195
126,13193
133,13191
136,13190
137,13190
139,13189
144,13187
149,13185
150,13184
151,13184
152,13183
155,13182
156,13181
157,13181
158,13180
159,13180
159,13179
159,13176
159,13169
159,13157
159,13138
159,13113
159,13081
159,13043
159,13001
158,12957
158,12914
158,12872
158,12834
158,12802
158,12777
158,12758
158,12746
158,12739
158,12736
" style="stroke:#02709f;stroke-width:0;
stroke-linejoin:bevel; stroke-linecap:butt;
fill:#02709f;
"/>
<!-- Line -->
<!--  spline  -->
<polyline points="158,12736
156,12737
155,12737
153,12738
151,12739
149,12740
146,12742
140,12744
134,12746
132,12747
131,12748
127,12749
120,12751
112,12753
108,12753
107,12754
103,12754
94,12755
84,12755
76,12755
70,12755
67,12755
66,12755
64,12755
54,12754
34,12752
15,12751
5,12750
3,12750
3,12753
3,12760
3,12772
3,12791
3,12817
3,12849
3,12886
3,12928
3,12972
3,13016
3,13058
3,13095
3,13127
3,13153
3,13172
3,13184
3,13191
3,13194
5,13194
15,13195
35,13196
54,13196
64,13197
66,13197
68,13197
76,13197
90,13197
98,13197
100,13197
101,13197
104,13197
110,13196
117,13195
126,13193
133,13191
136,13190
137,13190
139,13189
144,13187
149,13185
150,13184
151,13184
152,13183
155,13182
156,13181
157,13181
158,13180
159,13180
159,13179
159,13176
159,13169
159,13157
159,13138
159,13113
159,13081
159,13043
159,13001
158,12957
158,12914
158,12872
158,12834
158,12802
158,12777
158,12758
158,12746
158,12739
158,12736
" style="stroke:#ffffff;stroke-width:7;
stroke-linejoin:bevel; stroke-linecap:butt;
"/>
<!-- Line -->
<!--  polyline  -->
<polyline points="31,12729
152,12729
" style="stroke:#02709f;stroke-width:0;
stroke-linejoin:miter; stroke-linecap:butt;
fill:#02709f;
"/>
<!-- Line -->
<!--  polyline  -->
<polyline points="31,12729
152,12729
" style="stroke:#ffffff;stroke-width:7;
stroke-linejoin:miter; stroke-linecap:butt;
"/>
<!-- Line -->
<!--  polyline  -->
<polyline points="188,12715
255,12653
" style="stroke:#02709f;stroke-width:0;
stroke-linejoin:miter; stroke-linecap:butt;
fill:#02709f;
"/>
<!-- Line -->
<!--  polyline  -->
<polyline points="188,12715
255,12653
" style="stroke:#ffffff;stroke-width:7;
stroke-linejoin:miter; stroke-linecap:butt;
"/>
</g>
</svg>
