<?xml version="1.0" standalone="no"?>
<!DOCTYPE svg PUBLIC "-//W3C//DTD SVG 1.1//EN"
"http://www.w3.org/Graphics/SVG/1.1/DTD/svg11.dtd">
<!-- Creator: fig2dev Version 3.2 Patchlevel 5c -->
<!-- CreationDate: Fri Sep 14 10:46:27 2012 -->
<!-- Magnification: 1.000 -->
<svg xmlns="http://www.w3.org/2000/svg" width="0.5in" height="0.5in" viewBox="5031 6412 542 576">
<g style="stroke-width:.025in; fill:none">
<!-- Line -->
<!--  polyline  -->
<polyline points="5044,6689
5435,6689
" style="stroke:#ffffff;stroke-width:7;
stroke-linejoin:miter; stroke-linecap:butt;
"/>
<!-- Line -->
<!--  polyline  -->
<polyline points="5435,6976
5435,6848
5044,6848
5044,6976
5435,6976
" style="stroke:#00a5d4;stroke-width:0;
stroke-linejoin:miter; stroke-linecap:butt;
fill:#00a5d4;
"/>
<!-- Line -->
<!--  polyline  -->
<polyline points="5435,6976
5435,6848
5044,6848
5044,6976
5435,6976
" style="stroke:#ffffff;stroke-width:7;
stroke-linejoin:miter; stroke-linecap:butt;
"/>
<!-- Line -->
<!--  polyline  -->
<polyline points="5561,6732
5435,6848
5043,6848
5183,6732
5561,6732
" style="stroke:#000000;stroke-width:0;
stroke-linejoin:miter; stroke-linecap:butt;
fill:#000000;
"/>
<!-- Line -->
<!--  polyline  -->
<polyline points="5561,6732
5435,6848
5043,6848
5183,6732
5561,6732
" style="stroke:#ffffff;stroke-width:7;
stroke-linejoin:miter; stroke-linecap:butt;
"/>
<!-- Line -->
<!--  polyline  -->
<polyline points="5561,6852
5561,6733
5435,6849
5435,6975
5561,6852
" style="stroke:#00a5d4;stroke-width:0;
stroke-linejoin:miter; stroke-linecap:butt;
fill:#00a5d4;
"/>
<!-- Line -->
<!--  polyline  -->
<polyline points="5561,6852
5561,6733
5435,6849
5435,6975
5561,6852
" style="stroke:#ffffff;stroke-width:7;
stroke-linejoin:miter; stroke-linecap:butt;
"/>
<!-- Line -->
<!--  polyline  -->
<polyline points="5435,6822
5435,6694
5044,6694
5044,6822
5435,6822
" style="stroke:#00a5d4;stroke-width:0;
stroke-linejoin:miter; stroke-linecap:butt;
fill:#00a5d4;
"/>
<!-- Line -->
<!--  polyline  -->
<polyline points="5435,6822
5435,6694
5044,6694
5044,6822
5435,6822
" style="stroke:#ffffff;stroke-width:7;
stroke-linejoin:miter; stroke-linecap:butt;
"/>
<!-- Line -->
<!--  polyline  -->
<polyline points="5561,6574
5435,6690
5043,6690
5183,6574
5561,6574
" style="stroke:#000000;stroke-width:0;
stroke-linejoin:miter; stroke-linecap:butt;
fill:#000000;
"/>
<!-- Line -->
<!--  polyline  -->
<polyline points="5561,6574
5435,6690
5043,6690
5183,6574
5561,6574
" style="stroke:#ffffff;stroke-width:7;
stroke-linejoin:miter; stroke-linecap:butt;
"/>
<!-- Line -->
<!--  polyline  -->
<polyline points="5561,6711
5561,6584
5435,6700
5435,6826
5561,6711
" style="stroke:#00a5d4;stroke-width:0;
stroke-linejoin:miter; stroke-linecap:butt;
fill:#00a5d4;
"/>
<!-- Line -->
<!--  polyline  -->
<polyline points="5561,6711
5561,6584
5435,6700
5435,6826
5561,6711
" style="stroke:#ffffff;stroke-width:7;
stroke-linejoin:miter; stroke-linecap:butt;
"/>
<!-- Line -->
<!--  polyline  -->
<polyline points="5435,6668
5435,6540
5044,6540
5044,6668
5435,6668
" style="stroke:#00a5d4;stroke-width:0;
stroke-linejoin:miter; stroke-linecap:butt;
fill:#00a5d4;
"/>
<!-- Line -->
<!--  polyline  -->
<polyline points="5435,6668
5435,6540
5044,6540
5044,6668
5435,6668
" style="stroke:#ffffff;stroke-width:7;
stroke-linejoin:miter; stroke-linecap:butt;
"/>
<!-- Line -->
<!--  polyline  -->
<polyline points="5561,6424
5435,6540
5043,6540
5183,6424
5561,6424
" style="stroke:#00a5d4;stroke-width:0;
stroke-linejoin:miter; stroke-linecap:butt;
fill:#00a5d4;
"/>
<!-- Line -->
<!--  polyline  -->
<polyline points="5561,6424
5435,6540
5043,6540
5183,6424
5561,6424
" style="stroke:#ffffff;stroke-width:7;
stroke-linejoin:miter; stroke-linecap:butt;
"/>
<!-- Line -->
<!--  polyline  -->
<polyline points="5561,6550
5561,6425
5435,6541
5435,6667
5561,6550
" style="stroke:#00a5d4;stroke-width:0;
stroke-linejoin:miter; stroke-linecap:butt;
fill:#00a5d4;
"/>
<!-- Line -->
<!--  polyline  -->
<polyline points="5561,6550
5561,6425
5435,6541
5435,6667
5561,6550
" style="stroke:#ffffff;stroke-width:7;
stroke-linejoin:miter; stroke-linecap:butt;
"/>
<!-- Line -->
<!--  polyline  -->
<polyline points="5364,6491
5380,6478
5426,6493
5335,6513
5350,6498
5260,6498
5274,6491
5364,6491
" style="stroke:#000000;stroke-width:0;
stroke-linejoin:miter; stroke-linecap:butt;
fill:#000000;
"/>
<!-- Line -->
<!--  polyline  -->
<polyline points="5320,6457
5312,6465
5238,6465
5223,6474
5178,6459
5268,6440
5245,6457
5320,6457
" style="stroke:#000000;stroke-width:0;
stroke-linejoin:miter; stroke-linecap:butt;
fill:#000000;
"/>
<!-- Line -->
<!--  polyline  -->
<polyline points="5256,6508
5245,6516
5171,6516
5159,6525
5114,6511
5204,6491
5181,6508
5256,6508
" style="stroke:#000000;stroke-width:0;
stroke-linejoin:miter; stroke-linecap:butt;
fill:#000000;
"/>
<!-- Line -->
<!--  polyline  -->
<polyline points="5435,6444
5451,6432
5497,6447
5406,6466
5423,6452
5333,6452
5345,6444
5435,6444
" style="stroke:#000000;stroke-width:0;
stroke-linejoin:miter; stroke-linecap:butt;
fill:#000000;
"/>
<!-- Line -->
<!--  polyline  -->
<polyline points="5364,6495
5380,6483
5426,6497
5335,6517
5350,6502
5260,6502
5274,6495
5364,6495
" style="stroke:#ffffff;stroke-width:0;
stroke-linejoin:miter; stroke-linecap:butt;
fill:#ffffff;
"/>
<!-- Line -->
<!--  polyline  -->
<polyline points="5320,6462
5312,6470
5238,6470
5223,6478
5178,6464
5268,6444
5245,6462
5320,6462
" style="stroke:#ffffff;stroke-width:0;
stroke-linejoin:miter; stroke-linecap:butt;
fill:#ffffff;
"/>
<!-- Line -->
<!--  polyline  -->
<polyline points="5256,6513
5245,6521
5171,6521
5159,6530
5114,6515
5204,6495
5181,6513
5256,6513
" style="stroke:#ffffff;stroke-width:0;
stroke-linejoin:miter; stroke-linecap:butt;
fill:#ffffff;
"/>
<!-- Line -->
<!--  polyline  -->
<polyline points="5435,6449
5451,6436
5497,6451
5406,6470
5423,6457
5333,6457
5345,6449
5435,6449
" style="stroke:#ffffff;stroke-width:0;
stroke-linejoin:miter; stroke-linecap:butt;
fill:#ffffff;
"/>
<!-- Line -->
<!--  polyline  -->
<polyline points="5253,6683
5253,6596
5267,6596
5246,6564
5224,6596
5239,6596
5239,6683
5253,6683
" style="stroke:#ffffff;stroke-width:0;
stroke-linejoin:miter; stroke-linecap:butt;
fill:#ffffff;
"/>
<!-- Line -->
<!--  polyline  -->
<polyline points="5208,6713
5147,6651
5158,6641
5119,6633
5127,6672
5137,6661
5199,6723
5208,6713
" style="stroke:#ffffff;stroke-width:0;
stroke-linejoin:miter; stroke-linecap:butt;
fill:#ffffff;
"/>
<!-- Line -->
<!--  polyline  -->
<polyline points="5186,6753
5099,6753
5099,6738
5067,6760
5099,6781
5099,6767
5186,6767
5186,6753
" style="stroke:#ffffff;stroke-width:0;
stroke-linejoin:miter; stroke-linecap:butt;
fill:#ffffff;
"/>
<!-- Line -->
<!--  polyline  -->
<polyline points="5199,6797
5137,6858
5127,6848
5119,6886
5158,6878
5147,6868
5208,6807
5199,6797
" style="stroke:#ffffff;stroke-width:0;
stroke-linejoin:miter; stroke-linecap:butt;
fill:#ffffff;
"/>
<!-- Line -->
<!--  polyline  -->
<polyline points="5239,6819
5239,6906
5224,6906
5246,6939
5267,6906
5253,6906
5253,6819
5239,6819
" style="stroke:#ffffff;stroke-width:0;
stroke-linejoin:miter; stroke-linecap:butt;
fill:#ffffff;
"/>
<!-- Line -->
<!--  polyline  -->
<polyline points="5283,6807
5344,6868
5334,6878
5372,6886
5364,6848
5354,6858
5293,6797
5283,6807
" style="stroke:#ffffff;stroke-width:0;
stroke-linejoin:miter; stroke-linecap:butt;
fill:#ffffff;
"/>
<!-- Line -->
<!--  polyline  -->
<polyline points="5305,6767
5392,6767
5392,6781
5424,6760
5392,6738
5392,6753
5305,6753
5305,6767
" style="stroke:#ffffff;stroke-width:0;
stroke-linejoin:miter; stroke-linecap:butt;
fill:#ffffff;
"/>
<!-- Line -->
<!--  polyline  -->
<polyline points="5293,6723
5354,6661
5364,6672
5372,6633
5334,6641
5344,6651
5283,6713
5293,6723
" style="stroke:#ffffff;stroke-width:0;
stroke-linejoin:miter; stroke-linecap:butt;
fill:#ffffff;
"/>
<!-- Line -->
<!--  spline  -->
<polyline points="5283,6812
5284,6811
5288,6808
5293,6802
5297,6799
5298,6798
5300,6796
5302,6792
5304,6787
5307,6781
5309,6775
5309,6772
5309,6771
5310,6768
5310,6762
5310,6756
5310,6753
5310,6752
5310,6749
5308,6743
5306,6736
5303,6731
5301,6727
5299,6724
5298,6723
5295,6720
5289,6714
5286,6711
5285,6710
5282,6708
5279,6706
5274,6704
5267,6701
5261,6699
5258,6698
5257,6698
5254,6697
5248,6697
5242,6697
5239,6697
5238,6698
5235,6698
5229,6700
5222,6703
5217,6705
5214,6707
5211,6709
5210,6710
5206,6713
5201,6719
5197,6722
5196,6723
5194,6725
5192,6729
5190,6734
5187,6740
5185,6746
5185,6749
5185,6750
5184,6752
5184,6759
5184,6766
5184,6768
5184,6770
5184,6773
5186,6779
5188,6786
5191,6791
5193,6794
5195,6797
5196,6798
5199,6801
5205,6807
5208,6810
5209,6811
5212,6813
5215,6815
5220,6817
5227,6820
5233,6822
5236,6823
5237,6823
5240,6824
5246,6824
5252,6824
5255,6824
5256,6823
5259,6823
5265,6821
5272,6818
5277,6816
5280,6814
5283,6812
" style="stroke:#ffffff;stroke-width:0;
stroke-linejoin:bevel; stroke-linecap:butt;
fill:#ffffff;
"/>
<!-- Line -->
<!--  spline  -->
<polyline points="5283,6812
5284,6811
5288,6808
5293,6802
5297,6799
5298,6798
5300,6796
5302,6792
5304,6787
5307,6781
5309,6775
5309,6772
5309,6771
5310,6768
5310,6762
5310,6756
5310,6753
5310,6752
5310,6749
5308,6743
5306,6736
5303,6731
5301,6727
5299,6724
5298,6723
5295,6720
5289,6714
5286,6711
5285,6710
5282,6708
5279,6706
5274,6704
5267,6701
5261,6699
5258,6698
5257,6698
5254,6697
5248,6697
5242,6697
5239,6697
5238,6698
5235,6698
5229,6700
5222,6703
5217,6705
5214,6707
5211,6709
5210,6710
5206,6713
5201,6719
5197,6722
5196,6723
5194,6725
5192,6729
5190,6734
5187,6740
5185,6746
5185,6749
5185,6750
5184,6752
5184,6759
5184,6766
5184,6768
5184,6770
5184,6773
5186,6779
5188,6786
5191,6791
5193,6794
5195,6797
5196,6798
5199,6801
5205,6807
5208,6810
5209,6811
5212,6813
5215,6815
5220,6817
5227,6820
5233,6822
5236,6823
5237,6823
5240,6824
5246,6824
5252,6824
5255,6824
5256,6823
5259,6823
5265,6821
5272,6818
5277,6816
5280,6814
5283,6812
" style="stroke:#000000;stroke-width:7;
stroke-linejoin:bevel; stroke-linecap:butt;
"/>
<!-- Line -->
<!--  spline  -->
<polyline points="5542,6706
5542,6707
5541,6715
5539,6730
5537,6744
5536,6752
5536,6753
5536,6754
5535,6757
5534,6764
5532,6772
5530,6782
5527,6793
5524,6805
5522,6809
5522,6811
5520,6815
5516,6824
5512,6832
5510,6835
5509,6837
5507,6839
5502,6844
5497,6848
5493,6849
5490,6850
5488,6850
5487,6850
5484,6848
5480,6844
5477,6842
5476,6842
5474,6839
5472,6835
5469,6829
5466,6820
5463,6810
5462,6806
5462,6804
5461,6799
5459,6787
5458,6776
5457,6770
5457,6768
5457,6765
5456,6759
5456,6746
5456,6732
5456,6721
5456,6712
5457,6705
5457,6701
5457,6700
5457,6699
5458,6691
5460,6677
5462,6663
5463,6655
5463,6654
5463,6653
5464,6650
5465,6643
5467,6635
5469,6626
5472,6614
5476,6602
5477,6597
5478,6595
5480,6591
5484,6582
5488,6574
5490,6571
5491,6570
5493,6568
5497,6563
5502,6559
5506,6557
5509,6556
5511,6556
5512,6556
5515,6559
5520,6562
5523,6565
5524,6565
5526,6567
5528,6571
5531,6577
5534,6586
5537,6596
5538,6600
5538,6602
5539,6607
5541,6619
5542,6630
5543,6636
5543,6638
5543,6641
5544,6647
5544,6660
5544,6674
5544,6685
5543,6694
5542,6701
5542,6705
5542,6706
" style="stroke:#ffffff;stroke-width:15;
stroke-linejoin:bevel; stroke-linecap:butt;
"/>
</g>
</svg>
