<?xml version="1.0" standalone="no"?>
<!DOCTYPE svg PUBLIC "-//W3C//DTD SVG 1.1//EN"
"http://www.w3.org/Graphics/SVG/1.1/DTD/svg11.dtd">
<!-- Creator: fig2dev Version 3.2 Patchlevel 5c -->
<!-- CreationDate: Fri Sep 14 10:46:28 2012 -->
<!-- Magnification: 1.000 -->
<svg xmlns="http://www.w3.org/2000/svg" width="2.7in" height="1.4in" viewBox="4866 1644 3274 1739">
<g style="stroke-width:.025in; fill:none">
<!-- Line -->
<!--  polyline  -->
<polyline points="4878,2855
4878,3371
5670,3371
5670,2855
4878,2855
4878,2855
4878,2855
4878,2855
" style="stroke:#1bddff;stroke-width:0;
stroke-linejoin:miter; stroke-linecap:butt;
fill:#1bddff;
"/>
<!-- Line -->
<!--  polyline  -->
<polyline points="4878,2855
4878,3371
5670,3371
5670,2855
4878,2855
4878,2855
4878,2855
4878,2855
" style="stroke:#aff8fc;stroke-width:7;
stroke-linejoin:bevel; stroke-linecap:square;
"/>
<!-- Line -->
<!--  polyline  -->
<polyline points="4878,2855
4942,2788
5734,2788
5670,2855
4878,2855
4878,2855
4878,2855
4878,2855
" style="stroke:#41ecfd;stroke-width:0;
stroke-linejoin:bevel; stroke-linecap:square;
fill:#41ecfd;
"/>
<!-- Line -->
<!--  polyline  -->
<polyline points="4878,2855
4942,2788
5734,2788
5670,2855
4878,2855
4878,2855
4878,2855
4878,2855
" style="stroke:#aff8fc;stroke-width:7;
stroke-linejoin:bevel; stroke-linecap:square;
"/>
<!-- Line -->
<!--  polyline  -->
<polyline points="5670,2855
5734,2788
5734,3305
5670,3371
5670,2855
5670,2855
5670,2855
5670,2855
" style="stroke:#0f92b4;stroke-width:0;
stroke-linejoin:bevel; stroke-linecap:square;
fill:#0f92b4;
"/>
<!-- Line -->
<!--  polyline  -->
<polyline points="5670,2855
5734,2788
5734,3305
5670,3371
5670,2855
5670,2855
5670,2855
5670,2855
" style="stroke:#aff8fc;stroke-width:7;
stroke-linejoin:bevel; stroke-linecap:square;
"/>
<!-- Line -->
<!--  polyline  -->
<polyline points="5514,2967
5514,2936
5586,2987
5514,3038
5514,3007
5417,3007
5417,2967
5514,2967
5514,2967
5514,2967
5514,2967
" style="stroke:#020202;stroke-width:0;
stroke-linejoin:bevel; stroke-linecap:square;
fill:#020202;
"/>
<!-- Line -->
<!--  polyline  -->
<polyline points="5116,3096
5116,3066
5188,3117
5116,3168
5116,3137
4931,3137
4931,3096
5116,3096
5116,3096
5116,3096
5116,3096
" style="stroke:#020202;stroke-width:0;
stroke-linejoin:bevel; stroke-linecap:square;
fill:#020202;
"/>
<!-- Line -->
<!--  polyline  -->
<polyline points="5514,3226
5514,3196
5586,3247
5514,3297
5514,3267
5417,3267
5417,3226
5514,3226
5514,3226
5514,3226
5514,3226
" style="stroke:#020202;stroke-width:0;
stroke-linejoin:bevel; stroke-linecap:square;
fill:#020202;
"/>
<!-- Line -->
<!--  polyline  -->
<polyline points="5504,2956
5504,2928
5575,2977
5504,3028
5504,2997
5407,2997
5407,2956
5504,2956
5504,2956
5504,2956
5504,2956
" style="stroke:#ffffff;stroke-width:0;
stroke-linejoin:bevel; stroke-linecap:square;
fill:#ffffff;
"/>
<!-- Line -->
<!--  polyline  -->
<polyline points="5106,3086
5106,3056
5178,3107
5106,3157
5106,3127
4924,3127
4924,3086
5106,3086
5106,3086
5106,3086
5106,3086
" style="stroke:#ffffff;stroke-width:0;
stroke-linejoin:bevel; stroke-linecap:square;
fill:#ffffff;
"/>
<!-- Line -->
<!--  polyline  -->
<polyline points="5578,3096
5578,3066
5652,3117
5578,3168
5578,3137
5414,3137
5414,3096
5578,3096
5578,3096
5578,3096
5578,3096
" style="stroke:#020202;stroke-width:0;
stroke-linejoin:bevel; stroke-linecap:square;
fill:#020202;
"/>
<!-- Line -->
<!--  polyline  -->
<polyline points="5570,3086
5570,3056
5642,3107
5570,3157
5570,3127
5404,3127
5404,3086
5570,3086
5570,3086
5570,3086
5570,3086
" style="stroke:#ffffff;stroke-width:0;
stroke-linejoin:bevel; stroke-linecap:square;
fill:#ffffff;
"/>
<!-- Line -->
<!--  polyline  -->
<polyline points="5504,3216
5504,3185
5575,3236
5504,3287
5504,3257
5407,3257
5407,3216
5504,3216
5504,3216
5504,3216
5504,3216
" style="stroke:#ffffff;stroke-width:0;
stroke-linejoin:bevel; stroke-linecap:square;
fill:#ffffff;
"/>
<!-- Line -->
<!--  polyline  -->
<polyline points="5381,2898
5381,3328
5192,3328
5192,2898
5381,2898
5381,2898
5381,2898
" style="stroke:#0e9bbc;stroke-width:0;
stroke-linejoin:bevel; stroke-linecap:square;
fill:#0e9bbc;
"/>
<!-- Line -->
<!--  polyline  -->
<polyline points="5381,2898
5381,3328
5192,3328
5192,2898
5381,2898
5381,2898
5381,2898
" style="stroke:#8df1ff;stroke-width:15;
stroke-linejoin:miter; stroke-linecap:square;
"/>
<!-- Line -->
<!--  polyline  -->
<polyline points="5330,3229
5330,3287
5248,3287
5248,3229
5330,3229
5330,3229
5330,3229
" style="stroke:#ffffff;stroke-width:0;
stroke-linejoin:miter; stroke-linecap:square;
fill:#ffffff;
"/>
<!-- Line -->
<!--  polyline  -->
<polyline points="5330,3229
5330,3287
5248,3287
5248,3229
5330,3229
5330,3229
5330,3229
" style="stroke:#ffffff;stroke-width:7;
stroke-linejoin:miter; stroke-linecap:square;
"/>
<!-- Line -->
<!--  polyline  -->
<polyline points="5368,3287
5368,3305
5353,3305
5353,3287
5368,3287
5368,3287
5368,3287
" style="stroke:#ffffff;stroke-width:0;
stroke-linejoin:miter; stroke-linecap:square;
fill:#ffffff;
"/>
<!-- Line -->
<!--  polyline  -->
<polyline points="5368,3287
5368,3305
5353,3305
5353,3287
5368,3287
5368,3287
5368,3287
" style="stroke:#ffffff;stroke-width:7;
stroke-linejoin:miter; stroke-linecap:square;
"/>
<!-- Line -->
<!--  polyline  -->
<polyline points="5368,3252
5368,3269
5353,3269
5353,3252
5368,3252
5368,3252
5368,3252
" style="stroke:#ffffff;stroke-width:0;
stroke-linejoin:miter; stroke-linecap:square;
fill:#ffffff;
"/>
<!-- Line -->
<!--  polyline  -->
<polyline points="5368,3252
5368,3269
5353,3269
5353,3252
5368,3252
5368,3252
5368,3252
" style="stroke:#ffffff;stroke-width:7;
stroke-linejoin:miter; stroke-linecap:square;
"/>
<!-- Line -->
<!--  polyline  -->
<polyline points="5368,3216
5368,3234
5353,3234
5353,3216
5368,3216
5368,3216
5368,3216
" style="stroke:#ffffff;stroke-width:0;
stroke-linejoin:miter; stroke-linecap:square;
fill:#ffffff;
"/>
<!-- Line -->
<!--  polyline  -->
<polyline points="5368,3216
5368,3234
5353,3234
5353,3216
5368,3216
5368,3216
5368,3216
" style="stroke:#ffffff;stroke-width:7;
stroke-linejoin:miter; stroke-linecap:square;
"/>
<!-- Line -->
<!--  polyline  -->
<polyline points="5368,3183
5368,3198
5353,3198
5353,3183
5368,3183
5368,3183
5368,3183
" style="stroke:#ffffff;stroke-width:0;
stroke-linejoin:miter; stroke-linecap:square;
fill:#ffffff;
"/>
<!-- Line -->
<!--  polyline  -->
<polyline points="5368,3183
5368,3198
5353,3198
5353,3183
5368,3183
5368,3183
5368,3183
" style="stroke:#ffffff;stroke-width:7;
stroke-linejoin:miter; stroke-linecap:square;
"/>
<!-- Line -->
<!--  polyline  -->
<polyline points="5368,3147
5368,3163
5353,3163
5353,3147
5368,3147
5368,3147
5368,3147
" style="stroke:#ffffff;stroke-width:0;
stroke-linejoin:miter; stroke-linecap:square;
fill:#ffffff;
"/>
<!-- Line -->
<!--  polyline  -->
<polyline points="5368,3147
5368,3163
5353,3163
5353,3147
5368,3147
5368,3147
5368,3147
" style="stroke:#ffffff;stroke-width:7;
stroke-linejoin:miter; stroke-linecap:square;
"/>
<!-- Line -->
<!--  polyline  -->
<polyline points="5368,3112
5368,3130
5353,3130
5353,3112
5368,3112
5368,3112
5368,3112
" style="stroke:#ffffff;stroke-width:0;
stroke-linejoin:miter; stroke-linecap:square;
fill:#ffffff;
"/>
<!-- Line -->
<!--  polyline  -->
<polyline points="5368,3112
5368,3130
5353,3130
5353,3112
5368,3112
5368,3112
5368,3112
" style="stroke:#ffffff;stroke-width:7;
stroke-linejoin:miter; stroke-linecap:square;
"/>
<!-- Line -->
<!--  polyline  -->
<polyline points="5368,3076
5368,3094
5353,3094
5353,3076
5368,3076
5368,3076
5368,3076
" style="stroke:#ffffff;stroke-width:0;
stroke-linejoin:miter; stroke-linecap:square;
fill:#ffffff;
"/>
<!-- Line -->
<!--  polyline  -->
<polyline points="5368,3076
5368,3094
5353,3094
5353,3076
5368,3076
5368,3076
5368,3076
" style="stroke:#ffffff;stroke-width:7;
stroke-linejoin:miter; stroke-linecap:square;
"/>
<!-- Line -->
<!--  polyline  -->
<polyline points="5368,3040
5368,3058
5353,3058
5353,3040
5368,3040
5368,3040
5368,3040
" style="stroke:#ffffff;stroke-width:0;
stroke-linejoin:miter; stroke-linecap:square;
fill:#ffffff;
"/>
<!-- Line -->
<!--  polyline  -->
<polyline points="5368,3040
5368,3058
5353,3058
5353,3040
5368,3040
5368,3040
5368,3040
" style="stroke:#ffffff;stroke-width:7;
stroke-linejoin:miter; stroke-linecap:square;
"/>
<!-- Line -->
<!--  polyline  -->
<polyline points="5368,3005
5368,3023
5353,3023
5353,3005
5368,3005
5368,3005
5368,3005
" style="stroke:#ffffff;stroke-width:0;
stroke-linejoin:miter; stroke-linecap:square;
fill:#ffffff;
"/>
<!-- Line -->
<!--  polyline  -->
<polyline points="5368,3005
5368,3023
5353,3023
5353,3005
5368,3005
5368,3005
5368,3005
" style="stroke:#ffffff;stroke-width:7;
stroke-linejoin:miter; stroke-linecap:square;
"/>
<!-- Line -->
<!--  polyline  -->
<polyline points="5368,2972
5368,2987
5353,2987
5353,2972
5368,2972
5368,2972
5368,2972
" style="stroke:#ffffff;stroke-width:0;
stroke-linejoin:miter; stroke-linecap:square;
fill:#ffffff;
"/>
<!-- Line -->
<!--  polyline  -->
<polyline points="5368,2972
5368,2987
5353,2987
5353,2972
5368,2972
5368,2972
5368,2972
" style="stroke:#ffffff;stroke-width:7;
stroke-linejoin:miter; stroke-linecap:square;
"/>
<!-- Line -->
<!--  polyline  -->
<polyline points="5368,2936
5368,2951
5353,2954
5353,2936
5368,2936
5368,2936
5368,2936
" style="stroke:#ffffff;stroke-width:0;
stroke-linejoin:miter; stroke-linecap:square;
fill:#ffffff;
"/>
<!-- Line -->
<!--  polyline  -->
<polyline points="5368,2936
5368,2951
5353,2954
5353,2936
5368,2936
5368,2936
5368,2936
" style="stroke:#ffffff;stroke-width:7;
stroke-linejoin:miter; stroke-linecap:square;
"/>
<!-- Line -->
<!--  polyline  -->
<polyline points="5225,3287
5225,3305
5210,3305
5210,3287
5225,3287
5225,3287
5225,3287
" style="stroke:#ffffff;stroke-width:0;
stroke-linejoin:miter; stroke-linecap:square;
fill:#ffffff;
"/>
<!-- Line -->
<!--  polyline  -->
<polyline points="5225,3287
5225,3305
5210,3305
5210,3287
5225,3287
5225,3287
5225,3287
" style="stroke:#ffffff;stroke-width:7;
stroke-linejoin:miter; stroke-linecap:square;
"/>
<!-- Line -->
<!--  polyline  -->
<polyline points="5225,3252
5225,3269
5210,3269
5210,3252
5225,3252
5225,3252
5225,3252
" style="stroke:#ffffff;stroke-width:0;
stroke-linejoin:miter; stroke-linecap:square;
fill:#ffffff;
"/>
<!-- Line -->
<!--  polyline  -->
<polyline points="5225,3252
5225,3269
5210,3269
5210,3252
5225,3252
5225,3252
5225,3252
" style="stroke:#ffffff;stroke-width:7;
stroke-linejoin:miter; stroke-linecap:square;
"/>
<!-- Line -->
<!--  polyline  -->
<polyline points="5225,3216
5225,3234
5210,3234
5210,3216
5225,3216
5225,3216
5225,3216
" style="stroke:#ffffff;stroke-width:0;
stroke-linejoin:miter; stroke-linecap:square;
fill:#ffffff;
"/>
<!-- Line -->
<!--  polyline  -->
<polyline points="5225,3216
5225,3234
5210,3234
5210,3216
5225,3216
5225,3216
5225,3216
" style="stroke:#ffffff;stroke-width:7;
stroke-linejoin:miter; stroke-linecap:square;
"/>
<!-- Line -->
<!--  polyline  -->
<polyline points="5225,3183
5225,3198
5210,3198
5210,3183
5225,3183
5225,3183
5225,3183
" style="stroke:#ffffff;stroke-width:0;
stroke-linejoin:miter; stroke-linecap:square;
fill:#ffffff;
"/>
<!-- Line -->
<!--  polyline  -->
<polyline points="5225,3183
5225,3198
5210,3198
5210,3183
5225,3183
5225,3183
5225,3183
" style="stroke:#ffffff;stroke-width:7;
stroke-linejoin:miter; stroke-linecap:square;
"/>
<!-- Line -->
<!--  polyline  -->
<polyline points="5225,3147
5225,3163
5210,3163
5210,3147
5225,3147
5225,3147
5225,3147
" style="stroke:#ffffff;stroke-width:0;
stroke-linejoin:miter; stroke-linecap:square;
fill:#ffffff;
"/>
<!-- Line -->
<!--  polyline  -->
<polyline points="5225,3147
5225,3163
5210,3163
5210,3147
5225,3147
5225,3147
5225,3147
" style="stroke:#ffffff;stroke-width:7;
stroke-linejoin:miter; stroke-linecap:square;
"/>
<!-- Line -->
<!--  polyline  -->
<polyline points="5225,3112
5225,3130
5210,3130
5210,3112
5225,3112
5225,3112
5225,3112
" style="stroke:#ffffff;stroke-width:0;
stroke-linejoin:miter; stroke-linecap:square;
fill:#ffffff;
"/>
<!-- Line -->
<!--  polyline  -->
<polyline points="5225,3112
5225,3130
5210,3130
5210,3112
5225,3112
5225,3112
5225,3112
" style="stroke:#ffffff;stroke-width:7;
stroke-linejoin:miter; stroke-linecap:square;
"/>
<!-- Line -->
<!--  polyline  -->
<polyline points="5225,3076
5225,3094
5210,3094
5210,3076
5225,3076
5225,3076
5225,3076
" style="stroke:#ffffff;stroke-width:0;
stroke-linejoin:miter; stroke-linecap:square;
fill:#ffffff;
"/>
<!-- Line -->
<!--  polyline  -->
<polyline points="5225,3076
5225,3094
5210,3094
5210,3076
5225,3076
5225,3076
5225,3076
" style="stroke:#ffffff;stroke-width:7;
stroke-linejoin:miter; stroke-linecap:square;
"/>
<!-- Line -->
<!--  polyline  -->
<polyline points="5225,3040
5225,3058
5210,3058
5210,3040
5225,3040
5225,3040
5225,3040
" style="stroke:#ffffff;stroke-width:0;
stroke-linejoin:miter; stroke-linecap:square;
fill:#ffffff;
"/>
<!-- Line -->
<!--  polyline  -->
<polyline points="5225,3040
5225,3058
5210,3058
5210,3040
5225,3040
5225,3040
5225,3040
" style="stroke:#ffffff;stroke-width:7;
stroke-linejoin:miter; stroke-linecap:square;
"/>
<!-- Line -->
<!--  polyline  -->
<polyline points="5225,3005
5225,3023
5210,3023
5210,3005
5225,3005
5225,3005
5225,3005
" style="stroke:#ffffff;stroke-width:0;
stroke-linejoin:miter; stroke-linecap:square;
fill:#ffffff;
"/>
<!-- Line -->
<!--  polyline  -->
<polyline points="5225,3005
5225,3023
5210,3023
5210,3005
5225,3005
5225,3005
5225,3005
" style="stroke:#ffffff;stroke-width:7;
stroke-linejoin:miter; stroke-linecap:square;
"/>
<!-- Line -->
<!--  polyline  -->
<polyline points="5225,2972
5225,2987
5210,2987
5210,2972
5225,2972
5225,2972
5225,2972
" style="stroke:#ffffff;stroke-width:0;
stroke-linejoin:miter; stroke-linecap:square;
fill:#ffffff;
"/>
<!-- Line -->
<!--  polyline  -->
<polyline points="5225,2972
5225,2987
5210,2987
5210,2972
5225,2972
5225,2972
5225,2972
" style="stroke:#ffffff;stroke-width:7;
stroke-linejoin:miter; stroke-linecap:square;
"/>
<!-- Line -->
<!--  polyline  -->
<polyline points="5225,2936
5225,2954
5210,2954
5210,2936
5225,2936
5225,2936
5225,2936
" style="stroke:#ffffff;stroke-width:0;
stroke-linejoin:miter; stroke-linecap:square;
fill:#ffffff;
"/>
<!-- Line -->
<!--  polyline  -->
<polyline points="5225,2936
5225,2954
5210,2954
5210,2936
5225,2936
5225,2936
5225,2936
" style="stroke:#ffffff;stroke-width:7;
stroke-linejoin:miter; stroke-linecap:square;
"/>
<!-- Line -->
<!--  polyline  -->
<polyline points="5330,3135
5330,3193
5248,3193
5248,3135
5330,3135
5330,3135
5330,3135
" style="stroke:#ffffff;stroke-width:0;
stroke-linejoin:miter; stroke-linecap:square;
fill:#ffffff;
"/>
<!-- Line -->
<!--  polyline  -->
<polyline points="5330,3135
5330,3193
5248,3193
5248,3135
5330,3135
5330,3135
5330,3135
" style="stroke:#ffffff;stroke-width:7;
stroke-linejoin:miter; stroke-linecap:square;
"/>
<!-- Line -->
<!--  polyline  -->
<polyline points="5330,3040
5330,3099
5248,3099
5248,3040
5330,3040
5330,3040
5330,3040
" style="stroke:#ffffff;stroke-width:0;
stroke-linejoin:miter; stroke-linecap:square;
fill:#ffffff;
"/>
<!-- Line -->
<!--  polyline  -->
<polyline points="5330,3040
5330,3099
5248,3099
5248,3040
5330,3040
5330,3040
5330,3040
" style="stroke:#ffffff;stroke-width:7;
stroke-linejoin:miter; stroke-linecap:square;
"/>
<!-- Line -->
<!--  polyline  -->
<polyline points="5330,2949
5330,3005
5248,3005
5248,2949
5330,2949
5330,2949
5330,2949
" style="stroke:#ffffff;stroke-width:0;
stroke-linejoin:miter; stroke-linecap:square;
fill:#ffffff;
"/>
<!-- Line -->
<!--  polyline  -->
<polyline points="5330,2949
5330,3005
5248,3005
5248,2949
5330,2949
5330,2949
5330,2949
" style="stroke:#ffffff;stroke-width:7;
stroke-linejoin:miter; stroke-linecap:square;
"/>
<!-- Line -->
<!--  spline  -->
<polyline points="4997,2897
4996,2897
4989,2896
4978,2896
4971,2895
4970,2895
4969,2895
4967,2895
4962,2896
4957,2897
4950,2899
4944,2902
4942,2903
4941,2904
4939,2905
4935,2909
4931,2913
4930,2914
4930,2915
4929,2917
4927,2921
4926,2926
4926,2929
4926,2932
4926,2934
4926,2935
4925,2935
4921,2937
4914,2941
4910,2943
4909,2943
4907,2945
4905,2948
4903,2951
4901,2956
4900,2961
4900,2963
4900,2964
4900,2966
4901,2970
4902,2974
4903,2976
4903,2977
4905,2979
4907,2982
4910,2985
4912,2986
4914,2987
4916,2987
4917,2987
4918,2987
4918,2988
4919,2991
4920,2995
4921,2998
4921,2999
4922,3001
4924,3003
4927,3006
4932,3010
4937,3013
4939,3014
4940,3015
4942,3016
4948,3018
4954,3020
4956,3021
4957,3021
4960,3022
4966,3022
4972,3022
4977,3021
4980,3020
4983,3019
4984,3018
4985,3017
4985,3018
4987,3020
4991,3024
4993,3026
4993,3027
4995,3028
4997,3029
5000,3031
5005,3033
5010,3035
5012,3035
5015,3036
5020,3037
5026,3038
5028,3038
5029,3038
5032,3038
5038,3039
5045,3039
5050,3040
5054,3040
5057,3040
5058,3040
5062,3040
5067,3040
5071,3040
5072,3040
5074,3040
5076,3040
5080,3039
5084,3039
5088,3038
5089,3038
5090,3038
5092,3038
5095,3037
5098,3036
5100,3035
5101,3035
5104,3033
5107,3031
5109,3029
5110,3028
5111,3027
5112,3027
5113,3027
5114,3027
5120,3027
5129,3026
5135,3026
5136,3026
5137,3026
5139,3025
5143,3024
5148,3021
5153,3018
5157,3014
5159,3013
5160,3012
5161,3010
5164,3006
5166,3002
5167,3000
5168,2999
5168,2997
5169,2993
5169,2988
5169,2984
5168,2981
5167,2979
5168,2979
5169,2979
5171,2977
5174,2975
5176,2973
5177,2972
5178,2969
5179,2967
5180,2963
5180,2959
5180,2958
5180,2957
5179,2956
5178,2952
5177,2948
5176,2947
5176,2946
5175,2945
5172,2942
5168,2939
5165,2938
5162,2937
5160,2936
5160,2935
5161,2935
5161,2934
5161,2933
5162,2930
5162,2925
5163,2922
5163,2921
5163,2919
5162,2917
5161,2914
5158,2910
5155,2907
5153,2905
5151,2904
5146,2901
5141,2899
5139,2897
5138,2897
5136,2896
5130,2895
5123,2894
5118,2894
5113,2895
5111,2895
5110,2895
5109,2895
5108,2894
5107,2894
5106,2893
5101,2891
5093,2886
5088,2884
5087,2883
5086,2883
5083,2882
5077,2880
5070,2879
5060,2878
5051,2878
5047,2877
5045,2878
5041,2878
5033,2879
5025,2881
5022,2881
5020,2882
5017,2883
5011,2886
5005,2890
5002,2893
4999,2895
4998,2897
4997,2897
" style="stroke:#ffffff;stroke-width:0;
stroke-linejoin:bevel; stroke-linecap:butt;
fill:#ffffff;
"/>
<!-- Line -->
<!--  spline  -->
<polyline points="4997,2897
4996,2897
4989,2896
4978,2896
4971,2895
4970,2895
4969,2895
4967,2895
4962,2896
4957,2897
4950,2899
4944,2902
4942,2903
4941,2904
4939,2905
4935,2909
4931,2913
4930,2914
4930,2915
4929,2917
4927,2921
4926,2926
4926,2929
4926,2932
4926,2934
4926,2935
4925,2935
4921,2937
4914,2941
4910,2943
4909,2943
4907,2945
4905,2948
4903,2951
4901,2956
4900,2961
4900,2963
4900,2964
4900,2966
4901,2970
4902,2974
4903,2976
4903,2977
4905,2979
4907,2982
4910,2985
4912,2986
4914,2987
4916,2987
4917,2987
4918,2987
4918,2988
4919,2991
4920,2995
4921,2998
4921,2999
4922,3001
4924,3003
4927,3006
4932,3010
4937,3013
4939,3014
4940,3015
4942,3016
4948,3018
4954,3020
4956,3021
4957,3021
4960,3022
4966,3022
4972,3022
4977,3021
4980,3020
4983,3019
4984,3018
4985,3017
4985,3018
4987,3020
4991,3024
4993,3026
4993,3027
4995,3028
4997,3029
5000,3031
5005,3033
5010,3035
5012,3035
5015,3036
5020,3037
5026,3038
5028,3038
5029,3038
5032,3038
5038,3039
5045,3039
5050,3040
5054,3040
5057,3040
5058,3040
5062,3040
5067,3040
5071,3040
5072,3040
5074,3040
5076,3040
5080,3039
5084,3039
5088,3038
5089,3038
5090,3038
5092,3038
5095,3037
5098,3036
5100,3035
5101,3035
5104,3033
5107,3031
5109,3029
5110,3028
5111,3027
5112,3027
5113,3027
5114,3027
5120,3027
5129,3026
5135,3026
5136,3026
5137,3026
5139,3025
5143,3024
5148,3021
5153,3018
5157,3014
5159,3013
5160,3012
5161,3010
5164,3006
5166,3002
5167,3000
5168,2999
5168,2997
5169,2993
5169,2988
5169,2984
5168,2981
5167,2979
5168,2979
5169,2979
5171,2977
5174,2975
5176,2973
5177,2972
5178,2969
5179,2967
5180,2963
5180,2959
5180,2958
5180,2957
5179,2956
5178,2952
5177,2948
5176,2947
5176,2946
5175,2945
5172,2942
5168,2939
5165,2938
5162,2937
5160,2936
5160,2935
5161,2935
5161,2934
5161,2933
5162,2930
5162,2925
5163,2922
5163,2921
5163,2919
5162,2917
5161,2914
5158,2910
5155,2907
5153,2905
5151,2904
5146,2901
5141,2899
5139,2897
5138,2897
5136,2896
5130,2895
5123,2894
5118,2894
5113,2895
5111,2895
5110,2895
5109,2895
5108,2894
5107,2894
5106,2893
5101,2891
5093,2886
5088,2884
5087,2883
5086,2883
5083,2882
5077,2880
5070,2879
5060,2878
5051,2878
5047,2877
5045,2878
5041,2878
5033,2879
5025,2881
5022,2881
5020,2882
5017,2883
5011,2886
5005,2890
5002,2893
4999,2895
4998,2897
4997,2897
" style="stroke:#000000;stroke-width:7;
stroke-linejoin:bevel; stroke-linecap:butt;
"/>
<!-- Line -->
<!--  polyline  -->
<polyline points="5977,2062
5977,3353
7958,3353
7958,2062
5977,2062
5977,2062
5977,2062
5977,2062
" style="stroke:#1bddff;stroke-width:0;
stroke-linejoin:miter; stroke-linecap:butt;
fill:#1bddff;
"/>
<!-- Line -->
<!--  polyline  -->
<polyline points="5977,2062
5977,3353
7958,3353
7958,2062
5977,2062
5977,2062
5977,2062
5977,2062
" style="stroke:#aff8fc;stroke-width:15;
stroke-linejoin:bevel; stroke-linecap:square;
"/>
<!-- Line -->
<!--  polyline  -->
<polyline points="5977,2062
6137,1896
8118,1896
7958,2062
5977,2062
5977,2062
5977,2062
5977,2062
" style="stroke:#41ecfd;stroke-width:0;
stroke-linejoin:bevel; stroke-linecap:square;
fill:#41ecfd;
"/>
<!-- Line -->
<!--  polyline  -->
<polyline points="5977,2062
6137,1896
8118,1896
7958,2062
5977,2062
5977,2062
5977,2062
5977,2062
" style="stroke:#aff8fc;stroke-width:15;
stroke-linejoin:bevel; stroke-linecap:square;
"/>
<!-- Line -->
<!--  polyline  -->
<polyline points="7958,2062
8118,1896
8118,3188
7958,3353
7958,2062
7958,2062
7958,2062
7958,2062
" style="stroke:#0f92b4;stroke-width:0;
stroke-linejoin:bevel; stroke-linecap:square;
fill:#0f92b4;
"/>
<!-- Line -->
<!--  polyline  -->
<polyline points="7958,2062
8118,1896
8118,3188
7958,3353
7958,2062
7958,2062
7958,2062
7958,2062
" style="stroke:#aff8fc;stroke-width:15;
stroke-linejoin:bevel; stroke-linecap:square;
"/>
<!-- Line -->
<!--  polyline  -->
<polyline points="7568,2342
7568,2265
7747,2392
7568,2520
7568,2443
7326,2443
7326,2342
7568,2342
7568,2342
7568,2342
7568,2342
" style="stroke:#020202;stroke-width:0;
stroke-linejoin:bevel; stroke-linecap:square;
fill:#020202;
"/>
<!-- Line -->
<!--  polyline  -->
<polyline points="6574,2666
6574,2590
6753,2717
6574,2844
6574,2768
6112,2768
6112,2666
6574,2666
6574,2666
6574,2666
6574,2666
" style="stroke:#020202;stroke-width:0;
stroke-linejoin:bevel; stroke-linecap:square;
fill:#020202;
"/>
<!-- Line -->
<!--  polyline  -->
<polyline points="7568,2990
7568,2914
7747,3041
7568,3169
7568,3092
7326,3092
7326,2990
7568,2990
7568,2990
7568,2990
7568,2990
" style="stroke:#020202;stroke-width:0;
stroke-linejoin:bevel; stroke-linecap:square;
fill:#020202;
"/>
<!-- Line -->
<!--  polyline  -->
<polyline points="7543,2316
7543,2246
7722,2367
7543,2494
7543,2418
7300,2418
7300,2316
7543,2316
7543,2316
7543,2316
7543,2316
" style="stroke:#ffffff;stroke-width:0;
stroke-linejoin:bevel; stroke-linecap:square;
fill:#ffffff;
"/>
<!-- Line -->
<!--  polyline  -->
<polyline points="6549,2641
6549,2564
6727,2691
6549,2819
6549,2742
6092,2742
6092,2641
6549,2641
6549,2641
6549,2641
6549,2641
" style="stroke:#ffffff;stroke-width:0;
stroke-linejoin:bevel; stroke-linecap:square;
fill:#ffffff;
"/>
<!-- Line -->
<!--  polyline  -->
<polyline points="7728,2666
7728,2590
7913,2717
7728,2844
7728,2768
7319,2768
7319,2666
7728,2666
7728,2666
7728,2666
7728,2666
" style="stroke:#020202;stroke-width:0;
stroke-linejoin:bevel; stroke-linecap:square;
fill:#020202;
"/>
<!-- Line -->
<!--  polyline  -->
<polyline points="7709,2641
7709,2564
7888,2691
7709,2819
7709,2742
7294,2742
7294,2641
7709,2641
7709,2641
7709,2641
7709,2641
" style="stroke:#ffffff;stroke-width:0;
stroke-linejoin:bevel; stroke-linecap:square;
fill:#ffffff;
"/>
<!-- Line -->
<!--  polyline  -->
<polyline points="7543,2965
7543,2889
7722,3016
7543,3143
7543,3067
7300,3067
7300,2965
7543,2965
7543,2965
7543,2965
7543,2965
" style="stroke:#ffffff;stroke-width:0;
stroke-linejoin:bevel; stroke-linecap:square;
fill:#ffffff;
"/>
<!-- Line -->
<!--  polyline  -->
<polyline points="7236,2170
7236,3245
6763,3245
6763,2170
7236,2170
7236,2170
7236,2170
" style="stroke:#0e9bbc;stroke-width:0;
stroke-linejoin:bevel; stroke-linecap:square;
fill:#0e9bbc;
"/>
<!-- Line -->
<!--  polyline  -->
<polyline points="7236,2170
7236,3245
6763,3245
6763,2170
7236,2170
7236,2170
7236,2170
" style="stroke:#8df1ff;stroke-width:30;
stroke-linejoin:miter; stroke-linecap:square;
"/>
<!-- Line -->
<!--  polyline  -->
<polyline points="7108,2997
7108,3143
6904,3143
6904,2997
7108,2997
7108,2997
7108,2997
" style="stroke:#ffffff;stroke-width:0;
stroke-linejoin:miter; stroke-linecap:square;
fill:#ffffff;
"/>
<!-- Line -->
<!--  polyline  -->
<polyline points="7108,2997
7108,3143
6904,3143
6904,2997
7108,2997
7108,2997
7108,2997
" style="stroke:#ffffff;stroke-width:7;
stroke-linejoin:miter; stroke-linecap:square;
"/>
<!-- Line -->
<!--  polyline  -->
<polyline points="7204,3143
7204,3188
7166,3188
7166,3143
7204,3143
7204,3143
7204,3143
" style="stroke:#ffffff;stroke-width:0;
stroke-linejoin:miter; stroke-linecap:square;
fill:#ffffff;
"/>
<!-- Line -->
<!--  polyline  -->
<polyline points="7204,3143
7204,3188
7166,3188
7166,3143
7204,3143
7204,3143
7204,3143
" style="stroke:#ffffff;stroke-width:7;
stroke-linejoin:miter; stroke-linecap:square;
"/>
<!-- Line -->
<!--  polyline  -->
<polyline points="7204,3054
7204,3099
7166,3099
7166,3054
7204,3054
7204,3054
7204,3054
" style="stroke:#ffffff;stroke-width:0;
stroke-linejoin:miter; stroke-linecap:square;
fill:#ffffff;
"/>
<!-- Line -->
<!--  polyline  -->
<polyline points="7204,3054
7204,3099
7166,3099
7166,3054
7204,3054
7204,3054
7204,3054
" style="stroke:#ffffff;stroke-width:7;
stroke-linejoin:miter; stroke-linecap:square;
"/>
<!-- Line -->
<!--  polyline  -->
<polyline points="7204,2965
7204,3010
7166,3010
7166,2965
7204,2965
7204,2965
7204,2965
" style="stroke:#ffffff;stroke-width:0;
stroke-linejoin:miter; stroke-linecap:square;
fill:#ffffff;
"/>
<!-- Line -->
<!--  polyline  -->
<polyline points="7204,2965
7204,3010
7166,3010
7166,2965
7204,2965
7204,2965
7204,2965
" style="stroke:#ffffff;stroke-width:7;
stroke-linejoin:miter; stroke-linecap:square;
"/>
<!-- Line -->
<!--  polyline  -->
<polyline points="7204,2882
7204,2920
7166,2920
7166,2882
7204,2882
7204,2882
7204,2882
" style="stroke:#ffffff;stroke-width:0;
stroke-linejoin:miter; stroke-linecap:square;
fill:#ffffff;
"/>
<!-- Line -->
<!--  polyline  -->
<polyline points="7204,2882
7204,2920
7166,2920
7166,2882
7204,2882
7204,2882
7204,2882
" style="stroke:#ffffff;stroke-width:7;
stroke-linejoin:miter; stroke-linecap:square;
"/>
<!-- Line -->
<!--  polyline  -->
<polyline points="7204,2793
7204,2831
7166,2831
7166,2793
7204,2793
7204,2793
7204,2793
" style="stroke:#ffffff;stroke-width:0;
stroke-linejoin:miter; stroke-linecap:square;
fill:#ffffff;
"/>
<!-- Line -->
<!--  polyline  -->
<polyline points="7204,2793
7204,2831
7166,2831
7166,2793
7204,2793
7204,2793
7204,2793
" style="stroke:#ffffff;stroke-width:7;
stroke-linejoin:miter; stroke-linecap:square;
"/>
<!-- Line -->
<!--  polyline  -->
<polyline points="7204,2704
7204,2749
7166,2749
7166,2704
7204,2704
7204,2704
7204,2704
" style="stroke:#ffffff;stroke-width:0;
stroke-linejoin:miter; stroke-linecap:square;
fill:#ffffff;
"/>
<!-- Line -->
<!--  polyline  -->
<polyline points="7204,2704
7204,2749
7166,2749
7166,2704
7204,2704
7204,2704
7204,2704
" style="stroke:#ffffff;stroke-width:7;
stroke-linejoin:miter; stroke-linecap:square;
"/>
<!-- Line -->
<!--  polyline  -->
<polyline points="7204,2615
7204,2660
7166,2660
7166,2615
7204,2615
7204,2615
7204,2615
" style="stroke:#ffffff;stroke-width:0;
stroke-linejoin:miter; stroke-linecap:square;
fill:#ffffff;
"/>
<!-- Line -->
<!--  polyline  -->
<polyline points="7204,2615
7204,2660
7166,2660
7166,2615
7204,2615
7204,2615
7204,2615
" style="stroke:#ffffff;stroke-width:7;
stroke-linejoin:miter; stroke-linecap:square;
"/>
<!-- Line -->
<!--  polyline  -->
<polyline points="7204,2526
7204,2571
7166,2571
7166,2526
7204,2526
7204,2526
7204,2526
" style="stroke:#ffffff;stroke-width:0;
stroke-linejoin:miter; stroke-linecap:square;
fill:#ffffff;
"/>
<!-- Line -->
<!--  polyline  -->
<polyline points="7204,2526
7204,2571
7166,2571
7166,2526
7204,2526
7204,2526
7204,2526
" style="stroke:#ffffff;stroke-width:7;
stroke-linejoin:miter; stroke-linecap:square;
"/>
<!-- Line -->
<!--  polyline  -->
<polyline points="7204,2437
7204,2482
7166,2482
7166,2437
7204,2437
7204,2437
7204,2437
" style="stroke:#ffffff;stroke-width:0;
stroke-linejoin:miter; stroke-linecap:square;
fill:#ffffff;
"/>
<!-- Line -->
<!--  polyline  -->
<polyline points="7204,2437
7204,2482
7166,2482
7166,2437
7204,2437
7204,2437
7204,2437
" style="stroke:#ffffff;stroke-width:7;
stroke-linejoin:miter; stroke-linecap:square;
"/>
<!-- Line -->
<!--  polyline  -->
<polyline points="7204,2354
7204,2392
7166,2392
7166,2354
7204,2354
7204,2354
7204,2354
" style="stroke:#ffffff;stroke-width:0;
stroke-linejoin:miter; stroke-linecap:square;
fill:#ffffff;
"/>
<!-- Line -->
<!--  polyline  -->
<polyline points="7204,2354
7204,2392
7166,2392
7166,2354
7204,2354
7204,2354
7204,2354
" style="stroke:#ffffff;stroke-width:7;
stroke-linejoin:miter; stroke-linecap:square;
"/>
<!-- Line -->
<!--  polyline  -->
<polyline points="7204,2265
7204,2303
7166,2310
7166,2265
7204,2265
7204,2265
7204,2265
" style="stroke:#ffffff;stroke-width:0;
stroke-linejoin:miter; stroke-linecap:square;
fill:#ffffff;
"/>
<!-- Line -->
<!--  polyline  -->
<polyline points="7204,2265
7204,2303
7166,2310
7166,2265
7204,2265
7204,2265
7204,2265
" style="stroke:#ffffff;stroke-width:7;
stroke-linejoin:miter; stroke-linecap:square;
"/>
<!-- Line -->
<!--  polyline  -->
<polyline points="6846,3143
6846,3188
6808,3188
6808,3143
6846,3143
6846,3143
6846,3143
" style="stroke:#ffffff;stroke-width:0;
stroke-linejoin:miter; stroke-linecap:square;
fill:#ffffff;
"/>
<!-- Line -->
<!--  polyline  -->
<polyline points="6846,3143
6846,3188
6808,3188
6808,3143
6846,3143
6846,3143
6846,3143
" style="stroke:#ffffff;stroke-width:7;
stroke-linejoin:miter; stroke-linecap:square;
"/>
<!-- Line -->
<!--  polyline  -->
<polyline points="6846,3054
6846,3099
6808,3099
6808,3054
6846,3054
6846,3054
6846,3054
" style="stroke:#ffffff;stroke-width:0;
stroke-linejoin:miter; stroke-linecap:square;
fill:#ffffff;
"/>
<!-- Line -->
<!--  polyline  -->
<polyline points="6846,3054
6846,3099
6808,3099
6808,3054
6846,3054
6846,3054
6846,3054
" style="stroke:#ffffff;stroke-width:7;
stroke-linejoin:miter; stroke-linecap:square;
"/>
<!-- Line -->
<!--  polyline  -->
<polyline points="6846,2965
6846,3010
6808,3010
6808,2965
6846,2965
6846,2965
6846,2965
" style="stroke:#ffffff;stroke-width:0;
stroke-linejoin:miter; stroke-linecap:square;
fill:#ffffff;
"/>
<!-- Line -->
<!--  polyline  -->
<polyline points="6846,2965
6846,3010
6808,3010
6808,2965
6846,2965
6846,2965
6846,2965
" style="stroke:#ffffff;stroke-width:7;
stroke-linejoin:miter; stroke-linecap:square;
"/>
<!-- Line -->
<!--  polyline  -->
<polyline points="6846,2882
6846,2920
6808,2920
6808,2882
6846,2882
6846,2882
6846,2882
" style="stroke:#ffffff;stroke-width:0;
stroke-linejoin:miter; stroke-linecap:square;
fill:#ffffff;
"/>
<!-- Line -->
<!--  polyline  -->
<polyline points="6846,2882
6846,2920
6808,2920
6808,2882
6846,2882
6846,2882
6846,2882
" style="stroke:#ffffff;stroke-width:7;
stroke-linejoin:miter; stroke-linecap:square;
"/>
<!-- Line -->
<!--  polyline  -->
<polyline points="6846,2793
6846,2831
6808,2831
6808,2793
6846,2793
6846,2793
6846,2793
" style="stroke:#ffffff;stroke-width:0;
stroke-linejoin:miter; stroke-linecap:square;
fill:#ffffff;
"/>
<!-- Line -->
<!--  polyline  -->
<polyline points="6846,2793
6846,2831
6808,2831
6808,2793
6846,2793
6846,2793
6846,2793
" style="stroke:#ffffff;stroke-width:7;
stroke-linejoin:miter; stroke-linecap:square;
"/>
<!-- Line -->
<!--  polyline  -->
<polyline points="6846,2704
6846,2749
6808,2749
6808,2704
6846,2704
6846,2704
6846,2704
" style="stroke:#ffffff;stroke-width:0;
stroke-linejoin:miter; stroke-linecap:square;
fill:#ffffff;
"/>
<!-- Line -->
<!--  polyline  -->
<polyline points="6846,2704
6846,2749
6808,2749
6808,2704
6846,2704
6846,2704
6846,2704
" style="stroke:#ffffff;stroke-width:7;
stroke-linejoin:miter; stroke-linecap:square;
"/>
<!-- Line -->
<!--  polyline  -->
<polyline points="6846,2615
6846,2660
6808,2660
6808,2615
6846,2615
6846,2615
6846,2615
" style="stroke:#ffffff;stroke-width:0;
stroke-linejoin:miter; stroke-linecap:square;
fill:#ffffff;
"/>
<!-- Line -->
<!--  polyline  -->
<polyline points="6846,2615
6846,2660
6808,2660
6808,2615
6846,2615
6846,2615
6846,2615
" style="stroke:#ffffff;stroke-width:7;
stroke-linejoin:miter; stroke-linecap:square;
"/>
<!-- Line -->
<!--  polyline  -->
<polyline points="6846,2526
6846,2571
6808,2571
6808,2526
6846,2526
6846,2526
6846,2526
" style="stroke:#ffffff;stroke-width:0;
stroke-linejoin:miter; stroke-linecap:square;
fill:#ffffff;
"/>
<!-- Line -->
<!--  polyline  -->
<polyline points="6846,2526
6846,2571
6808,2571
6808,2526
6846,2526
6846,2526
6846,2526
" style="stroke:#ffffff;stroke-width:7;
stroke-linejoin:miter; stroke-linecap:square;
"/>
<!-- Line -->
<!--  polyline  -->
<polyline points="6846,2437
6846,2482
6808,2482
6808,2437
6846,2437
6846,2437
6846,2437
" style="stroke:#ffffff;stroke-width:0;
stroke-linejoin:miter; stroke-linecap:square;
fill:#ffffff;
"/>
<!-- Line -->
<!--  polyline  -->
<polyline points="6846,2437
6846,2482
6808,2482
6808,2437
6846,2437
6846,2437
6846,2437
" style="stroke:#ffffff;stroke-width:7;
stroke-linejoin:miter; stroke-linecap:square;
"/>
<!-- Line -->
<!--  polyline  -->
<polyline points="6846,2354
6846,2392
6808,2392
6808,2354
6846,2354
6846,2354
6846,2354
" style="stroke:#ffffff;stroke-width:0;
stroke-linejoin:miter; stroke-linecap:square;
fill:#ffffff;
"/>
<!-- Line -->
<!--  polyline  -->
<polyline points="6846,2354
6846,2392
6808,2392
6808,2354
6846,2354
6846,2354
6846,2354
" style="stroke:#ffffff;stroke-width:7;
stroke-linejoin:miter; stroke-linecap:square;
"/>
<!-- Line -->
<!--  polyline  -->
<polyline points="6846,2265
6846,2310
6808,2310
6808,2265
6846,2265
6846,2265
6846,2265
" style="stroke:#ffffff;stroke-width:0;
stroke-linejoin:miter; stroke-linecap:square;
fill:#ffffff;
"/>
<!-- Line -->
<!--  polyline  -->
<polyline points="6846,2265
6846,2310
6808,2310
6808,2265
6846,2265
6846,2265
6846,2265
" style="stroke:#ffffff;stroke-width:7;
stroke-linejoin:miter; stroke-linecap:square;
"/>
<!-- Line -->
<!--  polyline  -->
<polyline points="7108,2761
7108,2908
6904,2908
6904,2761
7108,2761
7108,2761
7108,2761
" style="stroke:#ffffff;stroke-width:0;
stroke-linejoin:miter; stroke-linecap:square;
fill:#ffffff;
"/>
<!-- Line -->
<!--  polyline  -->
<polyline points="7108,2761
7108,2908
6904,2908
6904,2761
7108,2761
7108,2761
7108,2761
" style="stroke:#ffffff;stroke-width:7;
stroke-linejoin:miter; stroke-linecap:square;
"/>
<!-- Line -->
<!--  polyline  -->
<polyline points="7108,2526
7108,2672
6904,2672
6904,2526
7108,2526
7108,2526
7108,2526
" style="stroke:#ffffff;stroke-width:0;
stroke-linejoin:miter; stroke-linecap:square;
fill:#ffffff;
"/>
<!-- Line -->
<!--  polyline  -->
<polyline points="7108,2526
7108,2672
6904,2672
6904,2526
7108,2526
7108,2526
7108,2526
" style="stroke:#ffffff;stroke-width:7;
stroke-linejoin:miter; stroke-linecap:square;
"/>
<!-- Line -->
<!--  polyline  -->
<polyline points="7108,2297
7108,2437
6904,2437
6904,2297
7108,2297
7108,2297
7108,2297
" style="stroke:#ffffff;stroke-width:0;
stroke-linejoin:miter; stroke-linecap:square;
fill:#ffffff;
"/>
<!-- Line -->
<!--  polyline  -->
<polyline points="7108,2297
7108,2437
6904,2437
6904,2297
7108,2297
7108,2297
7108,2297
" style="stroke:#ffffff;stroke-width:7;
stroke-linejoin:miter; stroke-linecap:square;
"/>
<!-- Line -->
<!--  spline  -->
<polyline points="6276,2167
6275,2167
6270,2167
6258,2166
6243,2165
6227,2163
6215,2162
6210,2162
6209,2162
6208,2162
6203,2163
6194,2164
6184,2165
6171,2168
6157,2173
6145,2178
6138,2182
6136,2183
6135,2184
6130,2188
6121,2196
6113,2204
6110,2209
6108,2211
6107,2213
6105,2218
6101,2227
6098,2239
6097,2248
6097,2255
6098,2259
6098,2260
6098,2261
6099,2262
6099,2263
6098,2264
6090,2267
6077,2273
6064,2278
6056,2281
6055,2282
6052,2285
6048,2290
6044,2296
6040,2304
6036,2315
6034,2325
6033,2331
6033,2333
6034,2336
6034,2341
6036,2351
6039,2362
6041,2366
6042,2368
6044,2372
6050,2380
6058,2386
6064,2390
6070,2391
6073,2392
6074,2392
6076,2392
6077,2392
6079,2392
6079,2394
6081,2402
6083,2413
6085,2421
6085,2423
6087,2426
6091,2431
6096,2437
6103,2443
6113,2451
6124,2458
6130,2461
6132,2463
6135,2464
6141,2466
6154,2471
6167,2475
6174,2477
6177,2477
6180,2478
6187,2478
6200,2479
6213,2478
6224,2477
6232,2475
6238,2473
6241,2472
6242,2472
6243,2470
6245,2469
6246,2467
6247,2468
6252,2475
6259,2484
6264,2491
6265,2492
6266,2492
6269,2495
6275,2499
6284,2503
6296,2508
6306,2512
6312,2513
6314,2514
6316,2514
6322,2516
6334,2518
6346,2520
6353,2521
6355,2521
6358,2521
6365,2522
6378,2523
6392,2524
6404,2524
6413,2525
6420,2525
6424,2525
6425,2525
6426,2525
6432,2525
6444,2525
6455,2525
6461,2525
6462,2525
6463,2525
6467,2525
6474,2525
6483,2524
6494,2523
6503,2522
6507,2521
6508,2520
6512,2520
6520,2517
6528,2514
6532,2513
6533,2513
6536,2511
6543,2507
6550,2502
6555,2498
6559,2495
6561,2492
6563,2492
6564,2493
6566,2493
6568,2493
6577,2492
6595,2491
6613,2490
6622,2489
6624,2489
6625,2489
6629,2488
6636,2485
6645,2482
6655,2477
6667,2470
6677,2463
6682,2458
6683,2457
6684,2455
6688,2450
6694,2441
6700,2430
6702,2425
6702,2423
6703,2418
6705,2407
6705,2395
6704,2385
6702,2378
6700,2374
6700,2373
6702,2373
6704,2372
6706,2372
6707,2371
6712,2368
6718,2362
6723,2359
6724,2358
6724,2357
6726,2354
6728,2349
6730,2343
6732,2333
6732,2324
6732,2319
6732,2318
6732,2313
6729,2304
6726,2295
6724,2291
6723,2290
6721,2286
6714,2279
6705,2272
6697,2268
6690,2266
6685,2264
6684,2264
6684,2263
6685,2261
6685,2260
6685,2258
6687,2250
6689,2238
6691,2230
6691,2228
6691,2227
6690,2223
6688,2217
6685,2209
6678,2199
6671,2192
6667,2188
6666,2187
6664,2185
6659,2182
6649,2177
6638,2172
6633,2170
6630,2169
6628,2168
6621,2166
6608,2164
6593,2162
6581,2162
6571,2162
6562,2163
6558,2163
6557,2163
6555,2162
6553,2160
6551,2159
6549,2158
6541,2154
6525,2145
6510,2137
6502,2133
6500,2132
6497,2131
6491,2130
6484,2128
6474,2126
6463,2124
6450,2122
6434,2121
6418,2120
6408,2120
6402,2120
6399,2120
6396,2120
6391,2120
6381,2121
6366,2123
6348,2126
6339,2128
6335,2129
6332,2130
6324,2133
6310,2139
6298,2147
6290,2153
6284,2160
6281,2165
6279,2167
6279,2168
6278,2168
6277,2167
6276,2167
" style="stroke:#ffffff;stroke-width:0;
stroke-linejoin:bevel; stroke-linecap:butt;
fill:#ffffff;
"/>
<!-- Line -->
<!--  spline  -->
<polyline points="6276,2167
6275,2167
6270,2167
6258,2166
6243,2165
6227,2163
6215,2162
6210,2162
6209,2162
6208,2162
6203,2163
6194,2164
6184,2165
6171,2168
6157,2173
6145,2178
6138,2182
6136,2183
6135,2184
6130,2188
6121,2196
6113,2204
6110,2209
6108,2211
6107,2213
6105,2218
6101,2227
6098,2239
6097,2248
6097,2255
6098,2259
6098,2260
6098,2261
6099,2262
6099,2263
6098,2264
6090,2267
6077,2273
6064,2278
6056,2281
6055,2282
6052,2285
6048,2290
6044,2296
6040,2304
6036,2315
6034,2325
6033,2331
6033,2333
6034,2336
6034,2341
6036,2351
6039,2362
6041,2366
6042,2368
6044,2372
6050,2380
6058,2386
6064,2390
6070,2391
6073,2392
6074,2392
6076,2392
6077,2392
6079,2392
6079,2394
6081,2402
6083,2413
6085,2421
6085,2423
6087,2426
6091,2431
6096,2437
6103,2443
6113,2451
6124,2458
6130,2461
6132,2463
6135,2464
6141,2466
6154,2471
6167,2475
6174,2477
6177,2477
6180,2478
6187,2478
6200,2479
6213,2478
6224,2477
6232,2475
6238,2473
6241,2472
6242,2472
6243,2470
6245,2469
6246,2467
6247,2468
6252,2475
6259,2484
6264,2491
6265,2492
6266,2492
6269,2495
6275,2499
6284,2503
6296,2508
6306,2512
6312,2513
6314,2514
6316,2514
6322,2516
6334,2518
6346,2520
6353,2521
6355,2521
6358,2521
6365,2522
6378,2523
6392,2524
6404,2524
6413,2525
6420,2525
6424,2525
6425,2525
6426,2525
6432,2525
6444,2525
6455,2525
6461,2525
6462,2525
6463,2525
6467,2525
6474,2525
6483,2524
6494,2523
6503,2522
6507,2521
6508,2520
6512,2520
6520,2517
6528,2514
6532,2513
6533,2513
6536,2511
6543,2507
6550,2502
6555,2498
6559,2495
6561,2492
6563,2492
6564,2493
6566,2493
6568,2493
6577,2492
6595,2491
6613,2490
6622,2489
6624,2489
6625,2489
6629,2488
6636,2485
6645,2482
6655,2477
6667,2470
6677,2463
6682,2458
6683,2457
6684,2455
6688,2450
6694,2441
6700,2430
6702,2425
6702,2423
6703,2418
6705,2407
6705,2395
6704,2385
6702,2378
6700,2374
6700,2373
6702,2373
6704,2372
6706,2372
6707,2371
6712,2368
6718,2362
6723,2359
6724,2358
6724,2357
6726,2354
6728,2349
6730,2343
6732,2333
6732,2324
6732,2319
6732,2318
6732,2313
6729,2304
6726,2295
6724,2291
6723,2290
6721,2286
6714,2279
6705,2272
6697,2268
6690,2266
6685,2264
6684,2264
6684,2263
6685,2261
6685,2260
6685,2258
6687,2250
6689,2238
6691,2230
6691,2228
6691,2227
6690,2223
6688,2217
6685,2209
6678,2199
6671,2192
6667,2188
6666,2187
6664,2185
6659,2182
6649,2177
6638,2172
6633,2170
6630,2169
6628,2168
6621,2166
6608,2164
6593,2162
6581,2162
6571,2162
6562,2163
6558,2163
6557,2163
6555,2162
6553,2160
6551,2159
6549,2158
6541,2154
6525,2145
6510,2137
6502,2133
6500,2132
6497,2131
6491,2130
6484,2128
6474,2126
6463,2124
6450,2122
6434,2121
6418,2120
6408,2120
6402,2120
6399,2120
6396,2120
6391,2120
6381,2121
6366,2123
6348,2126
6339,2128
6335,2129
6332,2130
6324,2133
6310,2139
6298,2147
6290,2153
6284,2160
6281,2165
6279,2167
6279,2168
6278,2168
6277,2167
6276,2167
" style="stroke:#000000;stroke-width:15;
stroke-linejoin:bevel; stroke-linecap:butt;
"/>
<!-- Line -->
<!--  polyline  -->
<polyline points="5005,2669
5016,2700
5031,2700
4992,2592
4976,2592
4935,2700
4950,2700
4962,2669
5005,2669
" style="stroke:#000000;stroke-width:0;
stroke-linejoin:miter; stroke-linecap:butt;
fill:#000000;
"/>
<!-- Line -->
<!--  polyline  -->
<polyline points="4966,2656
4983,2608
4984,2608
5000,2656
4966,2656
" style="stroke:#000000;stroke-width:0;
stroke-linejoin:miter; stroke-linecap:butt;
fill:#000000;
"/>
<!-- Line -->
<!--  spline  -->
<polyline points="5105,2648
5104,2646
5104,2642
5103,2640
5103,2639
5102,2637
5101,2635
5100,2632
5098,2630
5098,2628
5097,2628
5096,2627
5094,2625
5092,2623
5091,2623
5090,2623
5089,2622
5086,2621
5082,2620
5079,2619
5077,2619
5075,2619
5074,2619
5071,2620
5066,2620
5063,2621
5062,2621
5060,2622
5058,2623
5055,2625
5051,2628
5048,2631
5047,2632
5046,2634
5044,2637
5042,2641
5041,2642
5041,2643
5040,2645
5039,2649
5038,2654
5038,2658
5038,2661
5038,2663
5038,2664
5038,2667
5039,2672
5039,2675
5039,2676
5040,2678
5041,2680
5042,2683
5044,2687
5046,2690
5047,2691
5047,2692
5048,2693
5051,2695
5054,2697
5055,2698
5056,2698
5057,2699
5061,2700
5065,2701
5068,2702
5071,2702
5073,2702
5074,2702
5077,2701
5081,2701
5084,2700
5085,2700
5087,2699
5089,2698
5091,2697
5094,2695
5096,2693
5097,2692
5098,2692
5098,2690
5100,2688
5101,2685
5102,2684
5102,2683
5103,2680
5104,2677
5104,2675
5105,2673
5105,2672
5104,2672
5101,2672
5096,2672
5093,2672
5092,2672
5091,2674
5091,2677
5090,2679
5090,2680
5089,2681
5088,2682
5087,2684
5086,2685
5085,2686
5084,2687
5083,2688
5082,2689
5081,2689
5079,2690
5077,2690
5075,2691
5074,2691
5073,2691
5070,2690
5067,2690
5064,2689
5063,2688
5062,2687
5060,2686
5058,2684
5056,2682
5056,2681
5055,2679
5054,2677
5053,2674
5053,2673
5052,2672
5052,2669
5052,2666
5052,2664
5052,2662
5052,2661
5052,2658
5053,2655
5053,2652
5053,2651
5053,2649
5054,2647
5055,2644
5056,2642
5057,2641
5057,2640
5059,2638
5061,2636
5061,2635
5062,2635
5063,2634
5065,2633
5068,2632
5070,2631
5072,2631
5074,2631
5076,2631
5078,2632
5080,2632
5081,2632
5081,2633
5083,2633
5084,2634
5085,2635
5086,2635
5087,2636
5088,2637
5089,2638
5090,2639
5090,2640
5091,2642
5092,2644
5092,2646
5092,2647
5092,2648
5093,2648
5096,2648
5101,2648
5104,2648
5105,2648
" style="stroke:#000000;stroke-width:0;
stroke-linejoin:bevel; stroke-linecap:butt;
fill:#000000;
"/>
<!-- Line -->
<!--  spline  -->
<polyline points="5139,2632
5139,2631
5139,2629
5139,2625
5139,2623
5139,2622
5138,2622
5135,2622
5130,2622
5127,2622
5126,2622
5126,2621
5126,2615
5126,2607
5126,2601
5126,2600
5125,2600
5122,2600
5117,2600
5114,2600
5113,2600
5113,2601
5113,2607
5113,2615
5113,2621
5113,2622
5112,2622
5110,2622
5105,2622
5103,2622
5102,2622
5102,2623
5102,2625
5102,2629
5102,2631
5102,2632
5103,2632
5105,2632
5110,2632
5112,2632
5113,2632
5113,2634
5113,2642
5113,2658
5113,2674
5113,2682
5113,2684
5113,2686
5113,2688
5113,2690
5113,2691
5114,2691
5114,2693
5115,2694
5116,2695
5116,2696
5116,2697
5117,2698
5118,2699
5119,2699
5120,2699
5122,2700
5124,2700
5126,2701
5128,2701
5129,2701
5130,2701
5131,2701
5132,2701
5133,2701
5134,2701
5135,2700
5136,2700
5137,2700
5138,2700
5139,2700
5139,2699
5139,2697
5139,2693
5139,2691
5139,2690
5137,2690
5136,2690
5134,2690
5133,2690
5132,2690
5131,2690
5131,2689
5130,2689
5129,2689
5129,2688
5128,2688
5127,2688
5127,2687
5127,2686
5126,2685
5126,2684
5126,2682
5126,2674
5126,2658
5126,2642
5126,2634
5126,2632
5127,2632
5130,2632
5135,2632
5138,2632
5139,2632
" style="stroke:#000000;stroke-width:0;
stroke-linejoin:bevel; stroke-linecap:butt;
fill:#000000;
"/>
<!-- Line -->
<!--  spline  -->
<polyline points="5223,2700
5223,2699
5223,2693
5223,2679
5223,2661
5223,2643
5223,2629
5223,2623
5223,2622
5222,2622
5219,2622
5214,2622
5211,2622
5210,2622
5210,2623
5210,2630
5210,2644
5210,2657
5210,2664
5210,2665
5210,2667
5210,2670
5210,2672
5210,2673
5209,2675
5208,2677
5207,2679
5206,2681
5205,2682
5205,2683
5203,2685
5201,2687
5200,2687
5199,2688
5197,2689
5194,2690
5192,2691
5190,2691
5189,2691
5187,2691
5186,2690
5184,2690
5183,2690
5183,2689
5181,2689
5180,2688
5179,2687
5178,2687
5177,2686
5176,2685
5175,2684
5175,2683
5175,2682
5174,2680
5174,2678
5173,2676
5173,2675
5173,2674
5173,2672
5173,2664
5173,2648
5173,2632
5173,2624
5173,2622
5172,2622
5169,2622
5164,2622
5161,2622
5160,2622
5160,2624
5160,2633
5160,2650
5160,2667
5160,2676
5160,2678
5160,2679
5161,2681
5161,2685
5162,2687
5162,2688
5162,2689
5163,2691
5164,2693
5166,2695
5168,2697
5169,2697
5170,2698
5172,2699
5174,2700
5175,2701
5176,2701
5177,2701
5179,2702
5182,2702
5183,2702
5185,2702
5186,2702
5188,2702
5191,2702
5193,2702
5194,2702
5195,2701
5196,2701
5198,2700
5200,2699
5201,2699
5201,2698
5203,2697
5204,2696
5205,2695
5206,2694
5207,2693
5208,2691
5210,2690
5210,2689
5211,2688
5211,2689
5211,2690
5211,2692
5211,2697
5211,2699
5211,2700
5212,2700
5215,2700
5219,2700
5222,2700
5223,2700
" style="stroke:#000000;stroke-width:0;
stroke-linejoin:bevel; stroke-linecap:butt;
fill:#000000;
"/>
<!-- Line -->
<!--  spline  -->
<polyline points="5255,2645
5255,2644
5256,2643
5256,2642
5256,2641
5256,2640
5256,2639
5257,2637
5258,2636
5258,2635
5259,2635
5260,2634
5261,2633
5262,2632
5263,2632
5265,2631
5268,2630
5270,2630
5272,2630
5273,2630
5275,2630
5277,2631
5279,2631
5280,2631
5282,2631
5283,2631
5285,2632
5286,2633
5287,2633
5287,2634
5288,2635
5289,2636
5289,2637
5290,2638
5290,2640
5291,2641
5291,2642
5291,2643
5291,2644
5291,2646
5291,2647
5291,2648
5290,2649
5290,2650
5289,2651
5288,2651
5287,2651
5287,2652
5286,2652
5285,2652
5284,2652
5283,2652
5278,2653
5269,2654
5264,2655
5263,2655
5262,2655
5260,2656
5255,2657
5253,2658
5252,2658
5251,2659
5249,2660
5247,2661
5245,2663
5243,2665
5243,2666
5242,2667
5241,2669
5240,2671
5240,2672
5239,2673
5239,2675
5239,2677
5239,2678
5239,2679
5239,2680
5239,2682
5240,2685
5240,2687
5240,2688
5241,2689
5242,2691
5243,2693
5244,2695
5245,2696
5246,2697
5248,2698
5250,2699
5251,2700
5253,2700
5255,2701
5258,2702
5260,2702
5262,2702
5263,2702
5266,2702
5269,2701
5272,2701
5273,2701
5274,2700
5276,2700
5278,2699
5280,2698
5281,2698
5281,2697
5282,2697
5284,2696
5286,2695
5286,2694
5287,2694
5288,2693
5289,2692
5291,2691
5291,2690
5292,2690
5292,2691
5292,2692
5292,2693
5292,2694
5292,2695
5293,2696
5294,2697
5294,2698
5295,2698
5296,2699
5297,2700
5298,2700
5300,2701
5302,2701
5304,2702
5305,2702
5306,2702
5307,2701
5308,2701
5309,2701
5310,2701
5309,2701
5310,2701
5311,2701
5311,2700
5312,2700
5313,2700
5313,2699
5313,2697
5313,2693
5313,2691
5313,2690
5312,2691
5311,2691
5310,2691
5309,2691
5308,2691
5307,2691
5306,2690
5305,2689
5304,2689
5304,2688
5304,2687
5304,2686
5304,2685
5304,2677
5304,2663
5304,2650
5304,2642
5304,2641
5304,2640
5303,2638
5303,2634
5302,2632
5302,2631
5301,2630
5300,2629
5298,2627
5296,2625
5294,2623
5292,2623
5292,2622
5291,2622
5288,2621
5285,2620
5284,2620
5283,2620
5282,2620
5280,2620
5278,2620
5276,2619
5275,2619
5274,2619
5272,2619
5267,2620
5265,2620
5264,2620
5262,2620
5260,2621
5258,2622
5255,2623
5253,2624
5252,2625
5251,2626
5249,2628
5247,2630
5246,2631
5245,2632
5244,2635
5243,2638
5243,2641
5243,2643
5243,2645
5244,2645
5247,2645
5251,2645
5254,2645
5255,2645
" style="stroke:#000000;stroke-width:0;
stroke-linejoin:bevel; stroke-linecap:butt;
fill:#000000;
"/>
<!-- Line -->
<!--  spline  -->
<polyline points="5291,2673
5291,2675
5290,2677
5290,2679
5290,2680
5289,2681
5288,2682
5286,2684
5284,2685
5283,2686
5282,2687
5280,2688
5278,2689
5277,2689
5276,2689
5274,2690
5272,2690
5270,2691
5268,2691
5267,2691
5265,2691
5263,2691
5261,2691
5260,2691
5259,2690
5258,2690
5257,2689
5256,2688
5256,2687
5255,2686
5254,2685
5254,2684
5254,2683
5253,2682
5253,2681
5252,2679
5252,2678
5253,2676
5253,2675
5254,2673
5254,2672
5254,2671
5255,2670
5256,2669
5257,2668
5258,2668
5259,2668
5261,2667
5262,2667
5263,2666
5264,2666
5265,2666
5266,2666
5268,2665
5269,2665
5272,2665
5275,2664
5278,2664
5279,2664
5280,2664
5281,2663
5283,2663
5284,2663
5285,2663
5285,2662
5286,2662
5287,2662
5288,2662
5288,2661
5289,2661
5290,2661
5290,2660
5291,2660
5291,2661
5291,2664
5291,2669
5291,2672
5291,2673
" style="stroke:#000000;stroke-width:0;
stroke-linejoin:bevel; stroke-linecap:butt;
fill:#000000;
"/>
<!-- Line -->
<!--  polyline  -->
<polyline points="5340,2592
5327,2592
5327,2700
5340,2700
5340,2592
" style="stroke:#000000;stroke-width:0;
stroke-linejoin:miter; stroke-linecap:butt;
fill:#000000;
"/>
<!-- Line -->
<!--  spline  -->
<polyline points="5473,2624
5473,2622
5472,2618
5472,2616
5472,2615
5471,2613
5471,2610
5469,2607
5467,2604
5466,2603
5466,2602
5465,2601
5462,2598
5459,2596
5457,2595
5457,2594
5455,2594
5450,2592
5444,2591
5439,2590
5434,2589
5432,2589
5431,2589
5430,2589
5427,2590
5421,2590
5418,2591
5417,2591
5415,2592
5413,2592
5410,2594
5407,2596
5404,2598
5403,2599
5403,2600
5402,2601
5400,2604
5398,2607
5398,2608
5398,2609
5397,2610
5396,2613
5395,2617
5394,2619
5394,2621
5394,2623
5395,2626
5395,2629
5396,2632
5396,2633
5397,2635
5398,2637
5400,2639
5402,2641
5403,2642
5404,2643
5406,2644
5408,2645
5409,2646
5410,2646
5412,2647
5414,2648
5415,2648
5416,2648
5417,2648
5418,2648
5424,2650
5432,2651
5438,2653
5439,2653
5442,2654
5445,2655
5448,2656
5449,2656
5451,2656
5453,2657
5455,2658
5457,2659
5457,2660
5458,2661
5459,2662
5460,2663
5461,2664
5462,2666
5462,2668
5462,2670
5462,2671
5462,2672
5461,2674
5461,2678
5460,2680
5459,2681
5458,2682
5457,2683
5455,2685
5453,2686
5452,2687
5451,2687
5450,2687
5448,2688
5446,2689
5445,2689
5444,2689
5443,2690
5441,2690
5438,2690
5437,2690
5435,2690
5434,2690
5432,2690
5428,2690
5426,2690
5425,2690
5423,2689
5421,2688
5418,2687
5416,2686
5414,2685
5413,2685
5411,2683
5409,2681
5408,2680
5408,2679
5407,2678
5406,2675
5405,2672
5404,2669
5404,2667
5404,2665
5403,2665
5400,2665
5395,2665
5392,2665
5391,2665
5391,2667
5391,2669
5391,2671
5391,2672
5391,2673
5392,2675
5392,2677
5393,2679
5393,2680
5394,2682
5395,2684
5395,2685
5396,2685
5397,2687
5399,2689
5400,2691
5401,2692
5402,2693
5403,2694
5404,2694
5405,2695
5405,2696
5406,2696
5407,2697
5409,2698
5411,2699
5412,2699
5414,2699
5416,2700
5419,2701
5420,2701
5421,2701
5424,2702
5427,2702
5430,2703
5432,2703
5434,2703
5435,2703
5438,2703
5442,2702
5445,2702
5446,2702
5448,2702
5450,2701
5453,2700
5457,2699
5461,2697
5462,2697
5463,2696
5464,2696
5467,2693
5470,2690
5471,2689
5471,2688
5472,2687
5474,2683
5475,2679
5476,2675
5476,2672
5476,2670
5476,2667
5475,2664
5475,2661
5475,2660
5474,2658
5473,2656
5472,2654
5470,2652
5469,2651
5468,2650
5466,2648
5464,2646
5463,2646
5462,2645
5460,2644
5457,2643
5455,2642
5453,2641
5452,2641
5450,2641
5442,2639
5431,2636
5423,2634
5421,2634
5420,2634
5418,2633
5417,2633
5416,2633
5415,2633
5414,2632
5413,2631
5412,2631
5412,2630
5411,2629
5410,2628
5410,2627
5409,2626
5409,2624
5408,2623
5408,2622
5408,2621
5409,2619
5409,2615
5410,2613
5410,2612
5411,2610
5412,2609
5414,2607
5416,2606
5417,2605
5418,2605
5420,2604
5422,2603
5423,2603
5424,2603
5425,2602
5427,2602
5429,2602
5431,2602
5432,2602
5433,2602
5435,2602
5438,2603
5440,2603
5441,2603
5443,2603
5445,2604
5447,2605
5449,2606
5450,2607
5451,2607
5453,2609
5455,2611
5456,2611
5456,2612
5457,2613
5458,2615
5459,2618
5460,2620
5460,2622
5460,2624
5461,2624
5464,2624
5469,2624
5472,2624
5473,2624
" style="stroke:#000000;stroke-width:0;
stroke-linejoin:bevel; stroke-linecap:butt;
fill:#000000;
"/>
<!-- Line -->
<!--  polyline  -->
<polyline points="5507,2622
5493,2622
5493,2700
5507,2700
5507,2622
" style="stroke:#000000;stroke-width:0;
stroke-linejoin:miter; stroke-linecap:butt;
fill:#000000;
"/>
<!-- Line -->
<!--  polyline  -->
<polyline points="5507,2607
5507,2592
5493,2592
5493,2607
5507,2607
" style="stroke:#000000;stroke-width:0;
stroke-linejoin:miter; stroke-linecap:butt;
fill:#000000;
"/>
<!-- Line -->
<!--  polyline  -->
<polyline points="5586,2632
5586,2622
5525,2622
5525,2632
5569,2632
5521,2690
5521,2700
5587,2700
5587,2689
5539,2689
5586,2632
" style="stroke:#000000;stroke-width:0;
stroke-linejoin:miter; stroke-linecap:butt;
fill:#000000;
"/>
<!-- Line -->
<!--  spline  -->
<polyline points="5646,2675
5646,2676
5645,2678
5645,2679
5645,2680
5644,2682
5643,2683
5642,2684
5641,2685
5641,2686
5639,2687
5637,2688
5636,2689
5635,2689
5633,2690
5631,2691
5629,2691
5627,2691
5626,2691
5624,2691
5620,2690
5618,2690
5617,2689
5616,2689
5614,2688
5612,2686
5610,2684
5609,2684
5608,2683
5607,2681
5606,2679
5605,2678
5605,2677
5604,2674
5603,2671
5603,2669
5603,2666
5603,2665
5605,2665
5614,2665
5632,2665
5650,2665
5659,2665
5661,2665
5661,2664
5660,2660
5660,2655
5659,2651
5659,2650
5659,2648
5658,2645
5657,2641
5655,2637
5653,2633
5653,2632
5652,2631
5652,2630
5649,2627
5646,2624
5645,2624
5644,2623
5643,2622
5639,2621
5635,2620
5632,2619
5629,2619
5627,2619
5626,2619
5623,2620
5617,2620
5614,2621
5613,2621
5611,2622
5609,2623
5606,2625
5603,2628
5600,2631
5599,2632
5598,2632
5597,2634
5595,2637
5593,2641
5593,2642
5592,2643
5592,2645
5591,2649
5590,2654
5589,2658
5589,2661
5589,2663
5589,2664
5590,2667
5590,2672
5591,2675
5591,2676
5591,2678
5592,2680
5593,2683
5595,2687
5597,2690
5598,2691
5599,2692
5600,2693
5603,2695
5606,2697
5607,2698
5609,2699
5612,2700
5616,2701
5619,2702
5622,2702
5624,2702
5626,2702
5629,2702
5631,2702
5632,2702
5633,2702
5634,2701
5636,2701
5637,2701
5638,2701
5639,2700
5640,2700
5641,2699
5642,2699
5643,2698
5644,2698
5645,2697
5646,2697
5648,2695
5649,2694
5651,2692
5652,2691
5653,2691
5654,2690
5655,2688
5656,2686
5656,2685
5657,2683
5658,2681
5658,2680
5658,2679
5659,2678
5659,2677
5660,2676
5660,2675
5659,2675
5656,2675
5650,2675
5647,2675
5646,2675
" style="stroke:#000000;stroke-width:0;
stroke-linejoin:bevel; stroke-linecap:butt;
fill:#000000;
"/>
<!-- Line -->
<!--  spline  -->
<polyline points="5603,2655
5604,2653
5604,2649
5605,2647
5605,2646
5606,2645
5607,2643
5608,2641
5609,2639
5610,2638
5612,2636
5614,2635
5615,2634
5616,2633
5618,2632
5620,2631
5622,2631
5624,2631
5625,2631
5628,2631
5631,2632
5634,2632
5635,2633
5636,2633
5638,2634
5640,2636
5642,2638
5643,2639
5644,2641
5645,2643
5645,2644
5645,2645
5646,2647
5646,2650
5647,2652
5647,2654
5647,2655
5646,2655
5638,2655
5625,2655
5612,2655
5604,2655
5603,2655
" style="stroke:#000000;stroke-width:0;
stroke-linejoin:bevel; stroke-linecap:butt;
fill:#000000;
"/>
<!-- Line -->
<!--  spline  -->
<polyline points="6870,1682
6870,1680
6870,1679
6870,1677
6870,1676
6871,1674
6871,1673
6872,1670
6873,1668
6873,1667
6873,1666
6874,1665
6875,1663
6877,1661
6877,1660
6878,1660
6878,1659
6881,1658
6884,1657
6887,1656
6889,1656
6891,1656
6893,1657
6897,1657
6899,1658
6900,1658
6901,1659
6903,1660
6905,1661
6907,1662
6907,1663
6908,1664
6909,1665
6910,1667
6910,1668
6911,1670
6911,1672
6912,1673
6912,1674
6912,1675
6912,1677
6911,1681
6911,1683
6911,1684
6910,1685
6909,1686
6908,1688
6907,1690
6906,1690
6906,1691
6905,1692
6904,1693
6902,1694
6902,1695
6901,1695
6899,1696
6897,1697
6895,1698
6894,1699
6893,1700
6892,1700
6889,1702
6883,1706
6880,1708
6879,1708
6877,1710
6873,1712
6871,1714
6870,1715
6868,1716
6866,1718
6864,1720
6862,1722
6861,1723
6861,1724
6861,1725
6859,1728
6858,1731
6857,1732
6857,1733
6856,1734
6855,1738
6854,1742
6854,1745
6854,1748
6854,1750
6855,1750
6861,1750
6873,1750
6890,1750
6907,1750
6919,1750
6925,1750
6926,1750
6926,1749
6926,1746
6926,1742
6926,1739
6926,1738
6924,1738
6915,1738
6897,1738
6880,1738
6871,1738
6869,1738
6869,1737
6869,1736
6869,1735
6869,1734
6870,1734
6870,1732
6871,1731
6872,1730
6872,1729
6873,1728
6874,1727
6876,1725
6877,1724
6878,1724
6880,1722
6882,1720
6884,1719
6886,1718
6887,1717
6888,1717
6890,1715
6895,1713
6897,1711
6898,1711
6901,1709
6904,1708
6907,1706
6908,1705
6910,1704
6912,1703
6915,1701
6917,1699
6918,1698
6919,1696
6921,1694
6923,1691
6923,1690
6924,1690
6924,1689
6925,1686
6926,1683
6926,1680
6926,1678
6926,1676
6926,1675
6925,1673
6925,1668
6924,1666
6924,1665
6924,1663
6923,1661
6922,1659
6920,1656
6918,1654
6917,1653
6917,1652
6916,1652
6913,1650
6910,1648
6909,1648
6908,1647
6906,1647
6903,1646
6899,1645
6897,1645
6895,1645
6893,1645
6891,1645
6887,1645
6885,1645
6883,1645
6881,1646
6879,1647
6875,1648
6872,1650
6871,1650
6870,1650
6869,1651
6866,1654
6863,1657
6862,1658
6862,1659
6861,1661
6859,1665
6858,1670
6857,1675
6857,1679
6857,1681
6857,1682
6858,1682
6861,1682
6866,1682
6869,1682
6870,1682
" style="stroke:#000000;stroke-width:0;
stroke-linejoin:bevel; stroke-linecap:butt;
fill:#000000;
"/>
<!-- Line -->
<!--  spline  -->
<polyline points="6960,1660
6961,1660
6969,1660
6983,1660
6996,1660
7004,1660
7005,1660
7005,1659
7005,1656
7005,1651
7005,1648
7005,1647
7003,1647
6994,1647
6977,1647
6961,1647
6952,1647
6950,1647
6950,1649
6948,1658
6946,1675
6944,1692
6942,1701
6942,1703
6943,1703
6945,1703
6950,1704
6952,1704
6953,1704
6954,1703
6956,1701
6957,1700
6958,1699
6959,1699
6960,1698
6961,1697
6962,1697
6963,1697
6964,1696
6965,1695
6966,1695
6967,1694
6968,1694
6970,1694
6971,1694
6972,1694
6973,1694
6975,1694
6978,1695
6980,1695
6981,1695
6983,1696
6985,1697
6987,1698
6989,1699
6990,1700
6991,1701
6992,1703
6993,1705
6994,1706
6994,1707
6995,1709
6996,1712
6996,1714
6996,1716
6996,1717
6996,1719
6995,1723
6995,1725
6995,1726
6994,1727
6993,1729
6992,1731
6991,1733
6990,1734
6990,1735
6988,1737
6986,1738
6985,1739
6984,1739
6982,1740
6979,1741
6977,1741
6975,1741
6974,1741
6972,1741
6969,1741
6967,1741
6966,1741
6965,1741
6964,1740
6962,1739
6960,1738
6960,1737
6959,1737
6959,1736
6957,1735
6956,1733
6955,1733
6954,1732
6953,1730
6952,1728
6952,1726
6952,1725
6952,1724
6951,1724
6948,1724
6942,1724
6939,1724
6938,1724
6938,1725
6939,1728
6940,1732
6941,1735
6941,1736
6942,1737
6943,1739
6945,1741
6947,1744
6949,1746
6951,1747
6952,1748
6955,1749
6958,1750
6959,1751
6960,1751
6961,1751
6964,1752
6967,1753
6969,1753
6971,1753
6972,1753
6973,1753
6977,1752
6984,1751
6988,1750
6989,1750
6991,1749
6994,1748
6997,1746
7000,1743
7003,1740
7003,1739
7004,1738
7004,1737
7006,1734
7008,1731
7008,1729
7009,1729
7009,1727
7010,1724
7010,1721
7010,1719
7010,1717
7010,1716
7010,1715
7009,1712
7009,1708
7008,1705
7008,1704
7007,1703
7007,1700
7005,1698
7003,1695
7001,1692
7000,1691
6999,1691
6998,1690
6995,1688
6992,1686
6991,1685
6990,1685
6989,1684
6986,1683
6982,1682
6980,1682
6978,1682
6976,1682
6974,1682
6972,1682
6970,1682
6969,1682
6967,1683
6966,1683
6965,1684
6964,1684
6963,1684
6962,1685
6961,1686
6960,1686
6959,1686
6958,1687
6957,1688
6956,1688
6955,1689
6955,1688
6957,1680
6958,1669
6960,1661
6960,1660
" style="stroke:#000000;stroke-width:0;
stroke-linejoin:bevel; stroke-linecap:butt;
fill:#000000;
"/>
<!-- Line -->
<!--  spline  -->
<polyline points="7097,1699
7097,1700
7097,1703
7096,1709
7096,1712
7096,1713
7096,1715
7096,1718
7095,1721
7094,1725
7093,1728
7092,1730
7091,1731
7089,1734
7087,1736
7086,1737
7085,1738
7083,1739
7080,1740
7078,1741
7076,1741
7075,1741
7073,1740
7069,1740
7067,1739
7066,1738
7065,1738
7063,1736
7061,1734
7059,1731
7058,1730
7057,1728
7056,1725
7055,1721
7055,1720
7055,1719
7055,1717
7054,1713
7054,1708
7053,1704
7053,1701
7053,1699
7053,1698
7053,1694
7054,1689
7054,1685
7054,1684
7054,1682
7054,1679
7055,1676
7056,1672
7057,1669
7058,1668
7058,1667
7059,1666
7061,1664
7063,1662
7064,1661
7064,1660
7065,1660
7067,1658
7070,1657
7072,1656
7074,1656
7075,1656
7077,1657
7081,1657
7083,1658
7084,1659
7085,1660
7087,1662
7089,1664
7091,1666
7092,1667
7092,1668
7093,1669
7094,1672
7095,1676
7095,1677
7095,1678
7095,1680
7096,1684
7096,1689
7097,1693
7097,1697
7097,1699
" style="stroke:#000000;stroke-width:0;
stroke-linejoin:bevel; stroke-linecap:butt;
fill:#000000;
"/>
<!-- Line -->
<!--  spline  -->
<polyline points="7111,1699
7111,1698
7111,1695
7110,1689
7110,1686
7110,1685
7110,1683
7109,1679
7108,1675
7107,1670
7105,1665
7105,1663
7104,1661
7101,1657
7098,1653
7097,1652
7096,1651
7094,1650
7090,1648
7085,1646
7081,1645
7078,1645
7075,1645
7074,1645
7070,1646
7065,1647
7061,1648
7060,1648
7058,1649
7055,1651
7052,1653
7049,1657
7046,1661
7045,1663
7045,1665
7043,1670
7042,1675
7041,1677
7041,1678
7041,1680
7040,1685
7039,1690
7039,1694
7039,1697
7039,1699
7039,1700
7039,1703
7040,1709
7040,1712
7040,1713
7040,1715
7041,1718
7042,1722
7043,1727
7045,1732
7045,1733
7045,1734
7046,1736
7049,1740
7052,1744
7053,1745
7054,1745
7056,1747
7060,1749
7065,1751
7069,1752
7072,1753
7075,1753
7076,1753
7080,1752
7085,1750
7089,1749
7090,1749
7092,1748
7095,1746
7098,1744
7101,1740
7104,1736
7105,1734
7105,1733
7105,1732
7107,1727
7108,1722
7109,1720
7109,1718
7110,1713
7111,1708
7111,1704
7111,1701
7111,1699
" style="stroke:#000000;stroke-width:0;
stroke-linejoin:bevel; stroke-linecap:butt;
fill:#000000;
"/>
<!-- Line -->
<!--  spline  -->
<polyline points="7123,1671
7123,1673
7124,1677
7124,1679
7124,1680
7125,1682
7126,1684
7127,1686
7129,1688
7129,1689
7130,1690
7131,1690
7133,1692
7135,1693
7136,1694
7137,1694
7138,1694
7140,1695
7143,1696
7145,1696
7147,1697
7148,1697
7150,1696
7154,1696
7156,1695
7157,1695
7159,1694
7161,1693
7163,1692
7165,1690
7166,1690
7167,1689
7167,1688
7169,1686
7170,1684
7171,1683
7171,1682
7171,1681
7172,1679
7173,1676
7173,1674
7174,1672
7174,1671
7173,1669
7173,1665
7172,1663
7172,1662
7171,1660
7170,1658
7169,1656
7167,1654
7167,1653
7166,1653
7165,1653
7163,1651
7161,1650
7160,1649
7159,1649
7158,1648
7156,1647
7153,1646
7151,1646
7149,1646
7148,1646
7146,1646
7142,1647
7140,1647
7139,1648
7137,1648
7135,1649
7133,1651
7131,1653
7130,1653
7129,1653
7129,1654
7127,1656
7126,1658
7125,1659
7125,1661
7124,1663
7123,1666
7123,1668
7123,1670
7123,1671
" style="stroke:#000000;stroke-width:0;
stroke-linejoin:bevel; stroke-linecap:butt;
fill:#000000;
"/>
<!-- Line -->
<!--  spline  -->
<polyline points="7133,1671
7133,1669
7134,1668
7134,1666
7134,1665
7135,1664
7135,1663
7136,1662
7137,1661
7137,1660
7138,1660
7139,1659
7140,1658
7141,1658
7142,1658
7143,1657
7145,1657
7146,1656
7147,1656
7148,1656
7150,1656
7151,1657
7153,1657
7154,1657
7155,1658
7156,1658
7157,1659
7158,1660
7159,1660
7159,1661
7160,1662
7161,1663
7161,1664
7161,1665
7162,1666
7162,1668
7163,1669
7163,1670
7163,1671
7163,1673
7162,1674
7162,1676
7162,1677
7161,1678
7161,1679
7160,1680
7159,1681
7159,1682
7158,1682
7157,1683
7156,1684
7155,1684
7154,1684
7153,1685
7151,1685
7150,1686
7149,1686
7148,1686
7146,1686
7145,1686
7143,1686
7142,1686
7141,1686
7140,1685
7139,1684
7138,1683
7137,1682
7137,1681
7136,1680
7135,1679
7135,1678
7135,1677
7134,1676
7134,1674
7133,1673
7133,1672
7133,1671
" style="stroke:#000000;stroke-width:0;
stroke-linejoin:bevel; stroke-linecap:butt;
fill:#000000;
"/>
<!-- Line -->
<!--  spline  -->
<polyline points="7193,1725
7193,1728
7194,1731
7194,1734
7194,1735
7195,1737
7196,1739
7198,1741
7200,1743
7201,1744
7202,1744
7204,1746
7206,1747
7207,1748
7208,1748
7209,1749
7211,1750
7214,1751
7216,1751
7218,1751
7219,1751
7221,1751
7225,1750
7227,1750
7228,1749
7230,1749
7232,1748
7234,1746
7236,1744
7237,1744
7237,1743
7239,1741
7240,1739
7241,1738
7241,1737
7242,1736
7243,1733
7244,1730
7244,1728
7244,1726
7244,1725
7244,1723
7243,1719
7243,1717
7242,1716
7242,1714
7241,1712
7239,1710
7237,1708
7237,1707
7236,1707
7234,1705
7232,1704
7231,1703
7229,1702
7227,1701
7224,1700
7222,1700
7220,1700
7219,1700
7217,1700
7213,1701
7211,1701
7210,1702
7208,1702
7206,1703
7204,1705
7202,1707
7201,1707
7200,1708
7198,1710
7196,1712
7196,1713
7195,1713
7195,1715
7194,1717
7193,1720
7193,1722
7193,1724
7193,1725
" style="stroke:#000000;stroke-width:0;
stroke-linejoin:bevel; stroke-linecap:butt;
fill:#000000;
"/>
<!-- Line -->
<!--  spline  -->
<polyline points="7204,1725
7204,1724
7204,1722
7204,1721
7204,1720
7205,1718
7206,1717
7207,1716
7208,1715
7209,1714
7210,1713
7211,1712
7212,1712
7213,1711
7214,1711
7216,1711
7217,1711
7218,1711
7219,1711
7220,1711
7222,1711
7223,1711
7224,1711
7225,1711
7226,1712
7228,1713
7229,1714
7230,1715
7230,1716
7231,1717
7232,1718
7232,1719
7232,1720
7233,1721
7233,1722
7234,1724
7234,1725
7234,1727
7233,1728
7233,1730
7233,1731
7232,1731
7232,1733
7231,1734
7230,1735
7230,1736
7229,1737
7228,1738
7227,1739
7226,1739
7225,1739
7223,1740
7221,1740
7220,1741
7219,1741
7218,1741
7217,1741
7215,1740
7214,1740
7213,1740
7213,1739
7211,1739
7210,1738
7209,1737
7208,1737
7207,1736
7206,1735
7205,1734
7205,1733
7204,1733
7204,1731
7204,1729
7204,1727
7204,1726
7204,1725
" style="stroke:#000000;stroke-width:0;
stroke-linejoin:bevel; stroke-linecap:butt;
fill:#000000;
"/>
<!-- Line -->
<!--  polyline  -->
<polyline points="7217,1645
7209,1645
7150,1753
7158,1753
7217,1645
" style="stroke:#000000;stroke-width:0;
stroke-linejoin:miter; stroke-linecap:butt;
fill:#000000;
"/>
</g>
</svg>
