<?xml version="1.0" standalone="no"?>
<!DOCTYPE svg PUBLIC "-//W3C//DTD SVG 1.1//EN"
"http://www.w3.org/Graphics/SVG/1.1/DTD/svg11.dtd">
<!-- Creator: fig2dev Version 3.2 Patchlevel 5c -->
<!-- CreationDate: Fri Sep 14 10:46:28 2012 -->
<!-- Magnification: 1.000 -->
<svg xmlns="http://www.w3.org/2000/svg" width="0.9in" height="0.5in" viewBox="4573 7305 1084 602">
<g style="stroke-width:.025in; fill:none">
<!-- Line -->
<!--  polyline  -->
<polyline points="5227,7623
5285,7317
4841,7317
4776,7623
5227,7623
" style="stroke:#00acd8;stroke-width:0;
stroke-linejoin:miter; stroke-linecap:butt;
fill:#00acd8;
"/>
<!-- Line -->
<!--  polyline  -->
<polyline points="5227,7623
5285,7317
4841,7317
4776,7623
5227,7623
" style="stroke:#ffffff;stroke-width:7;
stroke-linejoin:miter; stroke-linecap:butt;
"/>
<!-- Line -->
<!--  polyline  -->
<polyline points="5285,7317
5303,7339
5248,7636
5227,7623
5285,7317
" style="stroke:#00acd8;stroke-width:0;
stroke-linejoin:miter; stroke-linecap:butt;
fill:#00acd8;
"/>
<!-- Line -->
<!--  polyline  -->
<polyline points="5285,7317
5303,7339
5248,7636
5227,7623
5285,7317
" style="stroke:#ffffff;stroke-width:7;
stroke-linejoin:miter; stroke-linecap:butt;
"/>
<!-- Line -->
<!--  polyline  -->
<polyline points="4776,7623
4795,7636
5248,7636
5227,7623
4776,7623
" style="stroke:#00acd8;stroke-width:0;
stroke-linejoin:miter; stroke-linecap:butt;
fill:#00acd8;
"/>
<!-- Line -->
<!--  polyline  -->
<polyline points="4776,7623
4795,7636
5248,7636
5227,7623
4776,7623
" style="stroke:#ffffff;stroke-width:7;
stroke-linejoin:miter; stroke-linecap:butt;
"/>
<!-- Line -->
<!--  spline  -->
<polyline points="5231,7644
5231,7645
5231,7653
5231,7667
5231,7680
5231,7688
5231,7689
5230,7690
5227,7692
5223,7696
5220,7698
5219,7699
5218,7699
5218,7700
5217,7700
5216,7700
5214,7701
5213,7702
5210,7703
5208,7704
5207,7705
5206,7705
5205,7706
5203,7708
5201,7710
5200,7711
5199,7712
5198,7715
5197,7718
5197,7720
5198,7723
5198,7724
5197,7724
5194,7727
5187,7735
5174,7746
5157,7762
5136,7781
5116,7800
5099,7816
5086,7827
5079,7835
5076,7838
5075,7838
5075,7836
5075,7828
5075,7813
5075,7798
5075,7790
5075,7788
5078,7785
5084,7779
5096,7769
5111,7754
5131,7736
5153,7716
5175,7696
5195,7678
5210,7663
5222,7653
5228,7647
5231,7644
" style="stroke:#00acd8;stroke-width:0;
stroke-linejoin:bevel; stroke-linecap:butt;
fill:#00acd8;
"/>
<!-- Line -->
<!--  spline  -->
<polyline points="5231,7644
5231,7645
5231,7653
5231,7667
5231,7680
5231,7688
5231,7689
5230,7690
5227,7692
5223,7696
5220,7698
5219,7699
5218,7699
5218,7700
5217,7700
5216,7700
5214,7701
5213,7702
5210,7703
5208,7704
5207,7705
5206,7705
5205,7706
5203,7708
5201,7710
5200,7711
5199,7712
5198,7715
5197,7718
5197,7720
5198,7723
5198,7724
5197,7724
5194,7727
5187,7735
5174,7746
5157,7762
5136,7781
5116,7800
5099,7816
5086,7827
5079,7835
5076,7838
5075,7838
5075,7836
5075,7828
5075,7813
5075,7798
5075,7790
5075,7788
5078,7785
5084,7779
5096,7769
5111,7754
5131,7736
5153,7716
5175,7696
5195,7678
5210,7663
5222,7653
5228,7647
5231,7644
" style="stroke:#ffffff;stroke-width:7;
stroke-linejoin:bevel; stroke-linecap:butt;
"/>
<!-- Line -->
<!--  polyline  -->
<polyline points="4585,7788
4585,7838
5075,7838
5075,7788
4585,7788
" style="stroke:#00acd8;stroke-width:0;
stroke-linejoin:miter; stroke-linecap:butt;
fill:#00acd8;
"/>
<!-- Line -->
<!--  polyline  -->
<polyline points="4585,7788
4585,7838
5075,7838
5075,7788
4585,7788
" style="stroke:#ffffff;stroke-width:7;
stroke-linejoin:miter; stroke-linecap:butt;
"/>
<!-- Line -->
<!--  polyline  -->
<polyline points="4781,7647
5231,7644
5075,7788
4585,7788
4781,7647
" style="stroke:#00acd8;stroke-width:0;
stroke-linejoin:miter; stroke-linecap:butt;
fill:#00acd8;
"/>
<!-- Line -->
<!--  polyline  -->
<polyline points="4781,7647
5231,7644
5075,7788
4585,7788
4781,7647
" style="stroke:#ffffff;stroke-width:7;
stroke-linejoin:miter; stroke-linecap:butt;
"/>
<!-- Line -->
<!--  polyline  -->
<polyline points="5189,7593
5236,7353
4875,7353
4828,7593
5189,7593
" style="stroke:#00acd8;stroke-width:0;
stroke-linejoin:miter; stroke-linecap:butt;
fill:#00acd8;
"/>
<!-- Line -->
<!--  polyline  -->
<polyline points="5189,7593
5236,7353
4875,7353
4828,7593
5189,7593
" style="stroke:#ffffff;stroke-width:7;
stroke-linejoin:miter; stroke-linecap:butt;
"/>
<!-- Line -->
<!--  polyline  -->
<polyline points="4791,7650
4678,7742
" style="stroke:#ffffff;stroke-width:7;
stroke-linejoin:round; stroke-linecap:butt;
"/>
<!-- Line -->
<!--  polyline  -->
<polyline points="4828,7650
4714,7742
" style="stroke:#ffffff;stroke-width:7;
stroke-linejoin:round; stroke-linecap:butt;
"/>
<!-- Line -->
<!--  polyline  -->
<polyline points="4864,7650
4751,7742
" style="stroke:#ffffff;stroke-width:7;
stroke-linejoin:round; stroke-linecap:butt;
"/>
<!-- Line -->
<!--  polyline  -->
<polyline points="4901,7650
4787,7742
" style="stroke:#ffffff;stroke-width:7;
stroke-linejoin:round; stroke-linecap:butt;
"/>
<!-- Line -->
<!--  polyline  -->
<polyline points="4937,7650
4824,7742
" style="stroke:#ffffff;stroke-width:7;
stroke-linejoin:round; stroke-linecap:butt;
"/>
<!-- Line -->
<!--  polyline  -->
<polyline points="4974,7650
4860,7742
" style="stroke:#ffffff;stroke-width:7;
stroke-linejoin:round; stroke-linecap:butt;
"/>
<!-- Line -->
<!--  polyline  -->
<polyline points="5010,7650
4897,7742
" style="stroke:#ffffff;stroke-width:7;
stroke-linejoin:round; stroke-linecap:butt;
"/>
<!-- Line -->
<!--  polyline  -->
<polyline points="5047,7650
4933,7742
" style="stroke:#ffffff;stroke-width:7;
stroke-linejoin:round; stroke-linecap:butt;
"/>
<!-- Line -->
<!--  polyline  -->
<polyline points="5083,7650
4970,7742
" style="stroke:#ffffff;stroke-width:7;
stroke-linejoin:round; stroke-linecap:butt;
"/>
<!-- Line -->
<!--  polyline  -->
<polyline points="5120,7650
5006,7742
" style="stroke:#ffffff;stroke-width:7;
stroke-linejoin:round; stroke-linecap:butt;
"/>
<!-- Line -->
<!--  polyline  -->
<polyline points="5156,7650
5043,7742
" style="stroke:#ffffff;stroke-width:7;
stroke-linejoin:round; stroke-linecap:butt;
"/>
<!-- Line -->
<!--  polyline  -->
<polyline points="5193,7650
5079,7742
" style="stroke:#ffffff;stroke-width:7;
stroke-linejoin:round; stroke-linecap:butt;
"/>
<!-- Line -->
<!--  polyline  -->
<polyline points="4691,7732
5095,7732
" style="stroke:#ffffff;stroke-width:7;
stroke-linejoin:round; stroke-linecap:butt;
"/>
<!-- Line -->
<!--  polyline  -->
<polyline points="4718,7711
5116,7711
" style="stroke:#ffffff;stroke-width:7;
stroke-linejoin:round; stroke-linecap:butt;
"/>
<!-- Line -->
<!--  polyline  -->
<polyline points="4746,7690
5143,7690
" style="stroke:#ffffff;stroke-width:7;
stroke-linejoin:round; stroke-linecap:butt;
"/>
<!-- Line -->
<!--  polyline  -->
<polyline points="4771,7669
5171,7669
" style="stroke:#ffffff;stroke-width:7;
stroke-linejoin:round; stroke-linecap:butt;
"/>
<!-- Line -->
<!--  spline  -->
<polyline points="5017,7431
5018,7431
5023,7431
5034,7431
5050,7431
5065,7431
5076,7431
5081,7431
5082,7431
5084,7432
5088,7434
5090,7435
5091,7436
5092,7436
5093,7437
5094,7439
5095,7441
5095,7442
5095,7443
5096,7444
5096,7445
5097,7446
5097,7447
5097,7448
5097,7449
5097,7451
5096,7453
5096,7455
5096,7456
5095,7457
5094,7459
5093,7460
5092,7461
5091,7461
5090,7462
5089,7463
5088,7463
5088,7464
5087,7464
5086,7464
5085,7464
5080,7464
5068,7464
5050,7464
5026,7464
5003,7464
4985,7464
4973,7464
4968,7464
4967,7464
4966,7464
4964,7463
4960,7463
4958,7462
4957,7462
4956,7461
4955,7460
4953,7458
4952,7456
4951,7454
4951,7453
4951,7451
4951,7449
4951,7448
4952,7447
4952,7446
4952,7445
4953,7445
4953,7444
4954,7443
4958,7439
4966,7429
4978,7415
4990,7401
4998,7391
5002,7387
5003,7386
5005,7385
5007,7384
5009,7383
5010,7383
5012,7382
5014,7382
5016,7382
5018,7382
5019,7383
5020,7383
5022,7384
5024,7384
5025,7385
5026,7385
5027,7385
5028,7385
5028,7386
5029,7386
5031,7388
5033,7391
5035,7393
5035,7394
5036,7395
5037,7397
5037,7399
5037,7401
5037,7402
5037,7403
5037,7404
5037,7405
5036,7405
5036,7406
5036,7407
5036,7408
5035,7409
5030,7415
5023,7424
5018,7430
5017,7431
" style="stroke:#ffffff;stroke-width:0;
stroke-linejoin:bevel; stroke-linecap:butt;
fill:#ffffff;
"/>
<!-- Line -->
<!--  spline  -->
<polyline points="5064,7523
5063,7523
5058,7523
5047,7523
5032,7523
5016,7523
5005,7523
5000,7523
4999,7523
4997,7522
4993,7520
4991,7519
4990,7518
4989,7517
4988,7516
4987,7514
4986,7513
4986,7512
4985,7511
4985,7510
4985,7509
4985,7508
4985,7507
4985,7506
4985,7505
4985,7503
4986,7501
4986,7499
4986,7498
4987,7497
4988,7496
4989,7494
4990,7493
4990,7492
4991,7492
4992,7491
4993,7490
4994,7490
4995,7490
4996,7490
4996,7489
4997,7489
5002,7489
5014,7489
5032,7489
5056,7489
5079,7489
5097,7489
5109,7489
5114,7489
5115,7489
5116,7489
5118,7490
5122,7491
5124,7492
5125,7492
5126,7493
5127,7494
5128,7495
5129,7497
5130,7499
5130,7500
5130,7501
5130,7503
5130,7505
5130,7506
5129,7506
5129,7507
5129,7508
5129,7509
5129,7510
5128,7511
5124,7515
5116,7525
5104,7539
5091,7553
5083,7563
5079,7567
5078,7568
5076,7569
5074,7570
5072,7571
5071,7571
5070,7571
5068,7571
5066,7571
5064,7571
5063,7571
5062,7571
5061,7570
5059,7570
5057,7570
5056,7570
5056,7569
5055,7569
5054,7569
5053,7569
5053,7568
5052,7568
5050,7566
5049,7563
5047,7561
5047,7560
5046,7559
5046,7557
5045,7555
5045,7553
5044,7552
5044,7551
5044,7550
5044,7549
5044,7548
5045,7548
5045,7547
5045,7546
5046,7546
5047,7545
5052,7539
5058,7530
5063,7524
5064,7523
" style="stroke:#ffffff;stroke-width:0;
stroke-linejoin:bevel; stroke-linecap:butt;
fill:#ffffff;
"/>
<!-- Line -->
<!--  spline  -->
<polyline points="5200,7828
5200,7830
5199,7832
5199,7834
5199,7835
5199,7836
5198,7837
5197,7839
5196,7840
5195,7841
5194,7842
5193,7843
5191,7844
5191,7845
5190,7845
5188,7846
5186,7847
5184,7847
5183,7847
5182,7847
5180,7847
5178,7846
5176,7846
5175,7846
5174,7845
5173,7844
5171,7843
5170,7842
5169,7841
5168,7840
5167,7839
5166,7837
5165,7837
5165,7836
5164,7834
5163,7832
5163,7830
5163,7829
5163,7828
5163,7826
5164,7825
5164,7823
5164,7822
5165,7821
5166,7820
5167,7818
5168,7816
5169,7815
5170,7814
5171,7813
5173,7812
5174,7812
5176,7811
5178,7811
5180,7810
5181,7810
5182,7810
5184,7810
5186,7811
5188,7811
5189,7811
5190,7811
5191,7812
5193,7813
5194,7814
5195,7815
5196,7816
5197,7818
5198,7820
5198,7821
5199,7823
5199,7825
5200,7826
5200,7827
5200,7828
" style="stroke:#000000;stroke-width:0;
stroke-linejoin:bevel; stroke-linecap:butt;
fill:#000000;
"/>
<!-- Line -->
<!--  spline  -->
<polyline points="5526,7859
5525,7859
5518,7861
5506,7864
5495,7867
5488,7869
5487,7869
5486,7869
5483,7870
5476,7871
5467,7872
5455,7873
5440,7875
5425,7876
5417,7877
5414,7877
5411,7877
5403,7878
5387,7878
5371,7878
5363,7878
5360,7878
5357,7878
5349,7877
5333,7876
5317,7874
5304,7873
5294,7871
5286,7870
5282,7869
5281,7869
5279,7869
5271,7867
5260,7865
5252,7863
5250,7863
5249,7863
5246,7862
5240,7861
5233,7859
5224,7856
5217,7853
5214,7852
5212,7851
5210,7850
5204,7847
5199,7844
5196,7843
5196,7842
5194,7841
5190,7838
5186,7834
5184,7832
5183,7830
5182,7828
" style="stroke:#000000;stroke-width:7;
stroke-linejoin:bevel; stroke-linecap:butt;
"/>
<!-- Line -->
<!--  spline  -->
<polyline points="5307,7765
5307,7764
5310,7759
5313,7753
5316,7748
5316,7747
5317,7744
5320,7740
5323,7735
5327,7729
5331,7723
5333,7721
5334,7720
5336,7718
5341,7712
5346,7706
5348,7704
5349,7703
5351,7701
5357,7695
5363,7689
5368,7685
5372,7681
5375,7679
5376,7678
5385,7673
5400,7662
5414,7652
5423,7647
5424,7646
5425,7646
5429,7643
5438,7639
5448,7635
5461,7630
5477,7625
5492,7621
5500,7620
5503,7619
5505,7619
5513,7619
5527,7618
5541,7618
5548,7619
5551,7619
5553,7619
5560,7621
5572,7624
5584,7629
5593,7633
5600,7638
5605,7641
5608,7644
5609,7645
5612,7650
5619,7661
5626,7671
5629,7676
5630,7677
5630,7678
5631,7681
5633,7687
5634,7694
5635,7704
5635,7717
5633,7729
5632,7736
5632,7738
5631,7741
5628,7747
5623,7760
5617,7773
5614,7780
5612,7782
5611,7785
5606,7791
5597,7804
5586,7817
5576,7828
5568,7836
5561,7842
5557,7845
5556,7846
5555,7847
5553,7849
5552,7850
5551,7850
5550,7851
5549,7852
5547,7853
5546,7854
5545,7855
5544,7856
5543,7857
5541,7858
5541,7859
5540,7859
5538,7860
5536,7861
5535,7862
5534,7863
5533,7863
" style="stroke:#000000;stroke-width:15;
stroke-linejoin:bevel; stroke-linecap:butt;
"/>
<!-- Line -->
<!--  spline  -->
<polyline points="5565,7863
5565,7864
5565,7866
5564,7870
5564,7872
5564,7873
5563,7874
5562,7877
5561,7879
5559,7882
5557,7885
5556,7886
5555,7887
5552,7889
5549,7891
5548,7891
5547,7891
5546,7892
5543,7893
5539,7894
5537,7895
5535,7895
5533,7895
5532,7895
5530,7894
5526,7894
5524,7893
5523,7893
5521,7893
5519,7892
5517,7891
5514,7889
5512,7887
5511,7886
5510,7885
5508,7882
5506,7879
5505,7878
5505,7877
5504,7876
5503,7873
5502,7869
5501,7867
5501,7865
5501,7863
5501,7862
5502,7860
5502,7856
5503,7854
5503,7853
5504,7852
5505,7849
5506,7847
5508,7844
5510,7841
5511,7840
5512,7839
5514,7837
5517,7835
5518,7835
5520,7834
5523,7833
5527,7832
5529,7831
5531,7831
5533,7831
5534,7831
5536,7832
5540,7832
5542,7833
5543,7833
5544,7833
5547,7834
5549,7835
5552,7837
5555,7839
5556,7840
5557,7841
5559,7844
5561,7847
5562,7848
5562,7849
5563,7850
5564,7853
5565,7857
5565,7859
5565,7861
5565,7863
" style="stroke:#000000;stroke-width:0;
stroke-linejoin:bevel; stroke-linecap:butt;
fill:#000000;
"/>
<!-- Line -->
<!--  spline  -->
<polyline points="5565,7863
5565,7864
5565,7866
5564,7870
5564,7872
5564,7873
5563,7874
5562,7877
5561,7879
5559,7882
5557,7885
5556,7886
5555,7887
5552,7889
5549,7891
5548,7891
5547,7891
5546,7892
5543,7893
5539,7894
5537,7895
5535,7895
5533,7895
5532,7895
5530,7894
5526,7894
5524,7893
5523,7893
5521,7893
5519,7892
5517,7891
5514,7889
5512,7887
5511,7886
5510,7885
5508,7882
5506,7879
5505,7878
5505,7877
5504,7876
5503,7873
5502,7869
5501,7867
5501,7865
5501,7863
5501,7862
5502,7860
5502,7856
5503,7854
5503,7853
5504,7852
5505,7849
5506,7847
5508,7844
5510,7841
5511,7840
5512,7839
5514,7837
5517,7835
5518,7835
5520,7834
5523,7833
5527,7832
5529,7831
5531,7831
5533,7831
5534,7831
5536,7832
5540,7832
5542,7833
5543,7833
5544,7833
5547,7834
5549,7835
5552,7837
5555,7839
5556,7840
5557,7841
5559,7844
5561,7847
5562,7848
5562,7849
5563,7850
5564,7853
5565,7857
5565,7859
5565,7861
5565,7863
" style="stroke:#ffffff;stroke-width:7;
stroke-linejoin:bevel; stroke-linecap:butt;
"/>
<!-- Line -->
<!--  spline  -->
<polyline points="5326,7765
5326,7767
5325,7769
5325,7771
5325,7772
5324,7773
5323,7774
5322,7776
5321,7777
5320,7778
5319,7779
5318,7780
5316,7781
5315,7781
5313,7782
5311,7782
5309,7783
5308,7783
5307,7783
5305,7783
5303,7782
5301,7782
5300,7782
5299,7782
5298,7781
5296,7780
5295,7779
5294,7778
5293,7777
5292,7776
5291,7774
5290,7774
5290,7773
5289,7771
5288,7769
5288,7767
5288,7766
5288,7765
5288,7763
5289,7761
5289,7759
5289,7758
5290,7757
5291,7756
5292,7754
5293,7753
5294,7752
5295,7751
5296,7750
5298,7749
5298,7748
5299,7748
5301,7747
5303,7746
5305,7746
5306,7746
5307,7746
5309,7746
5311,7747
5313,7747
5314,7747
5315,7748
5316,7749
5318,7750
5319,7751
5320,7752
5321,7753
5322,7754
5323,7756
5324,7756
5324,7757
5325,7759
5326,7761
5326,7763
5326,7764
5326,7765
" style="stroke:#000000;stroke-width:0;
stroke-linejoin:bevel; stroke-linecap:butt;
fill:#000000;
"/>
</g>
</svg>
