<?xml version="1.0" standalone="no"?>
<!DOCTYPE svg PUBLIC "-//W3C//DTD SVG 1.1//EN"
"http://www.w3.org/Graphics/SVG/1.1/DTD/svg11.dtd">
<!-- Creator: fig2dev Version 3.2 Patchlevel 5c -->
<!-- CreationDate: Fri Sep 14 10:46:29 2012 -->
<!-- Magnification: 1.000 -->
<svg xmlns="http://www.w3.org/2000/svg" width="0.7in" height="0.3in" viewBox="-6 12798 815 411">
<g style="stroke-width:.025in; fill:none">
<!-- Line -->
<!--  spline  -->
<polyline points="344,12841
343,12841
339,12841
329,12841
312,12841
290,12841
263,12841
237,12841
215,12841
198,12841
188,12841
184,12841
183,12841
181,12844
176,12852
167,12865
154,12884
136,12908
116,12937
95,12969
73,13001
53,13030
35,13054
22,13073
13,13086
8,13094
6,13097
7,13097
13,13097
26,13097
44,13097
62,13097
75,13097
81,13097
82,13097
83,13097
87,13097
96,13097
105,13097
116,13097
128,13097
139,13097
143,13097
146,13097
152,13097
157,13097
158,13097
159,13097
161,13097
162,13097
163,13097
162,13097
163,13097
167,13098
177,13099
193,13101
213,13104
232,13106
248,13108
258,13109
262,13110
263,13110
264,13110
267,13110
274,13111
284,13112
295,13112
308,13113
324,13114
342,13114
359,13114
370,13114
376,13114
378,13114
380,13114
385,13113
396,13113
413,13112
430,13111
441,13110
447,13110
449,13110
451,13109
457,13109
470,13108
489,13106
510,13104
528,13102
544,13101
558,13100
570,13098
578,13097
582,13097
583,13097
583,13096
586,13093
591,13084
600,13069
614,13048
630,13021
649,12992
667,12963
683,12936
697,12915
706,12900
711,12891
714,12888
714,12887
713,12887
705,12887
691,12887
677,12887
669,12887
668,12887
669,12886
674,12878
684,12864
693,12850
698,12842
699,12841
698,12841
695,12841
686,12841
670,12841
646,12841
616,12841
580,12841
541,12841
501,12841
465,12841
435,12841
411,12841
395,12841
386,12841
383,12841
382,12841
381,12842
375,12850
365,12864
355,12878
349,12886
348,12887
347,12887
340,12887
328,12887
316,12887
309,12887
308,12887
309,12886
315,12878
326,12864
337,12850
343,12842
344,12841
" style="stroke:#00acd8;stroke-width:0;
stroke-linejoin:bevel; stroke-linecap:butt;
fill:#00acd8;
"/>
<!-- Line -->
<!--  spline  -->
<polyline points="344,12841
343,12841
339,12841
329,12841
312,12841
290,12841
263,12841
237,12841
215,12841
198,12841
188,12841
184,12841
183,12841
181,12844
176,12852
167,12865
154,12884
136,12908
116,12937
95,12969
73,13001
53,13030
35,13054
22,13073
13,13086
8,13094
6,13097
7,13097
13,13097
26,13097
44,13097
62,13097
75,13097
81,13097
82,13097
83,13097
87,13097
96,13097
105,13097
116,13097
128,13097
139,13097
143,13097
146,13097
152,13097
157,13097
158,13097
159,13097
161,13097
162,13097
163,13097
162,13097
163,13097
167,13098
177,13099
193,13101
213,13104
232,13106
248,13108
258,13109
262,13110
263,13110
264,13110
267,13110
274,13111
284,13112
295,13112
308,13113
324,13114
342,13114
359,13114
370,13114
376,13114
378,13114
380,13114
385,13113
396,13113
413,13112
430,13111
441,13110
447,13110
449,13110
451,13109
457,13109
470,13108
489,13106
510,13104
528,13102
544,13101
558,13100
570,13098
578,13097
582,13097
583,13097
583,13096
586,13093
591,13084
600,13069
614,13048
630,13021
649,12992
667,12963
683,12936
697,12915
706,12900
711,12891
714,12888
714,12887
713,12887
705,12887
691,12887
677,12887
669,12887
668,12887
669,12886
674,12878
684,12864
693,12850
698,12842
699,12841
698,12841
695,12841
686,12841
670,12841
646,12841
616,12841
580,12841
541,12841
501,12841
465,12841
435,12841
411,12841
395,12841
386,12841
383,12841
382,12841
381,12842
375,12850
365,12864
355,12878
349,12886
348,12887
347,12887
340,12887
328,12887
316,12887
309,12887
308,12887
309,12886
315,12878
326,12864
337,12850
343,12842
344,12841
" style="stroke:#ffffff;stroke-width:7;
stroke-linejoin:bevel; stroke-linecap:butt;
"/>
<!-- Line -->
<!--  polyline  -->
<polyline points="342,13084
229,13084
292,13001
401,13001
342,13084
" style="stroke:#00acd8;stroke-width:0;
stroke-linejoin:miter; stroke-linecap:butt;
fill:#00acd8;
"/>
<!-- Line -->
<!--  polyline  -->
<polyline points="342,13084
229,13084
292,13001
401,13001
342,13084
" style="stroke:#ffffff;stroke-width:7;
stroke-linejoin:miter; stroke-linecap:butt;
"/>
<!-- Line -->
<!--  polyline  -->
<polyline points="714,12887
714,13041
583,13180
583,13097
714,12887
" style="stroke:#00acd8;stroke-width:0;
stroke-linejoin:miter; stroke-linecap:butt;
fill:#00acd8;
"/>
<!-- Line -->
<!--  polyline  -->
<polyline points="714,12887
714,13041
583,13180
583,13097
714,12887
" style="stroke:#ffffff;stroke-width:7;
stroke-linejoin:miter; stroke-linecap:butt;
"/>
<!-- Line -->
<!--  polyline  -->
<polyline points="583,13097
714,12887
" style="stroke:#000000;stroke-width:0;
stroke-linejoin:miter; stroke-linecap:butt;
fill:#000000;
"/>
<!-- Line -->
<!--  polyline  -->
<polyline points="583,13097
714,12887
" style="stroke:#ffffff;stroke-width:7;
stroke-linejoin:miter; stroke-linecap:butt;
"/>
<!-- Line -->
<!--  spline  -->
<polyline points="259,12900
258,12901
255,12905
250,12910
247,12914
246,12915
244,12917
241,12921
237,12925
232,12931
227,12936
225,12939
224,12939
222,12942
218,12947
214,12953
212,12955
212,12956
210,12958
206,12964
202,12970
198,12975
196,12978
194,12981
194,12982
195,12987
195,12993
196,12998
196,12999
195,13000
191,13007
182,13021
170,13040
157,13059
148,13073
144,13080
143,13081
143,13079
142,13071
140,13054
138,13038
137,13030
137,13028
138,13027
141,13021
146,13010
151,12999
154,12993
155,12992
155,12991
158,12987
163,12979
170,12969
178,12956
190,12939
199,12926
206,12918
209,12913
211,12911
213,12908
217,12904
223,12895
233,12883
245,12868
252,12860
254,12857
257,12854
263,12847
273,12836
283,12826
290,12819
295,12815
299,12812
301,12810
301,12812
302,12821
304,12837
306,12853
307,12862
307,12864
306,12865
303,12869
295,12878
284,12891
273,12903
265,12912
262,12916
261,12917
261,12916
260,12912
260,12905
259,12901
259,12900
" style="stroke:#00acd8;stroke-width:0;
stroke-linejoin:bevel; stroke-linecap:butt;
fill:#00acd8;
"/>
<!-- Line -->
<!--  spline  -->
<polyline points="259,12900
258,12901
255,12905
250,12910
247,12914
246,12915
244,12917
241,12921
237,12925
232,12931
227,12936
225,12939
224,12939
222,12942
218,12947
214,12953
212,12955
212,12956
210,12958
206,12964
202,12970
198,12975
196,12978
194,12981
194,12982
195,12987
195,12993
196,12998
196,12999
195,13000
191,13007
182,13021
170,13040
157,13059
148,13073
144,13080
143,13081
143,13079
142,13071
140,13054
138,13038
137,13030
137,13028
138,13027
141,13021
146,13010
151,12999
154,12993
155,12992
155,12991
158,12987
163,12979
170,12969
178,12956
190,12939
199,12926
206,12918
209,12913
211,12911
213,12908
217,12904
223,12895
233,12883
245,12868
252,12860
254,12857
257,12854
263,12847
273,12836
283,12826
290,12819
295,12815
299,12812
301,12810
301,12812
302,12821
304,12837
306,12853
307,12862
307,12864
306,12865
303,12869
295,12878
284,12891
273,12903
265,12912
262,12916
261,12917
261,12916
260,12912
260,12905
259,12901
259,12900
" style="stroke:#ffffff;stroke-width:7;
stroke-linejoin:bevel; stroke-linecap:butt;
"/>
<!-- Line -->
<!--  polyline  -->
<polyline points="38,13028
32,13081
143,13081
137,13028
38,13028
" style="stroke:#00acd8;stroke-width:0;
stroke-linejoin:miter; stroke-linecap:butt;
fill:#00acd8;
"/>
<!-- Line -->
<!--  polyline  -->
<polyline points="38,13028
32,13081
143,13081
137,13028
38,13028
" style="stroke:#ffffff;stroke-width:7;
stroke-linejoin:miter; stroke-linecap:butt;
"/>
<!-- Line -->
<!--  spline  -->
<polyline points="301,12810
300,12811
296,12815
287,12823
278,12831
274,12835
273,12836
272,12837
269,12840
263,12847
256,12856
246,12867
233,12883
223,12895
217,12904
213,12908
211,12911
209,12913
206,12918
199,12926
190,12939
179,12955
173,12964
170,12967
168,12971
163,12978
155,12992
148,13005
143,13014
140,13021
138,13025
137,13028
136,13028
128,13028
111,13028
88,13028
64,13028
47,13028
39,13028
38,13028
39,13027
42,13021
47,13010
52,12999
55,12993
56,12992
58,12990
60,12985
64,12979
69,12972
75,12963
83,12952
92,12939
101,12926
108,12918
111,12913
113,12911
115,12908
119,12904
125,12895
135,12883
147,12868
154,12860
156,12857
159,12854
165,12847
175,12836
185,12826
192,12819
196,12815
200,12812
202,12810
203,12810
211,12810
228,12810
252,12810
275,12810
292,12810
300,12810
301,12810
" style="stroke:#00acd8;stroke-width:0;
stroke-linejoin:bevel; stroke-linecap:butt;
fill:#00acd8;
"/>
<!-- Line -->
<!--  spline  -->
<polyline points="301,12810
300,12811
296,12815
287,12823
278,12831
274,12835
273,12836
272,12837
269,12840
263,12847
256,12856
246,12867
233,12883
223,12895
217,12904
213,12908
211,12911
209,12913
206,12918
199,12926
190,12939
179,12955
173,12964
170,12967
168,12971
163,12978
155,12992
148,13005
143,13014
140,13021
138,13025
137,13028
136,13028
128,13028
111,13028
88,13028
64,13028
47,13028
39,13028
38,13028
39,13027
42,13021
47,13010
52,12999
55,12993
56,12992
58,12990
60,12985
64,12979
69,12972
75,12963
83,12952
92,12939
101,12926
108,12918
111,12913
113,12911
115,12908
119,12904
125,12895
135,12883
147,12868
154,12860
156,12857
159,12854
165,12847
175,12836
185,12826
192,12819
196,12815
200,12812
202,12810
203,12810
211,12810
228,12810
252,12810
275,12810
292,12810
300,12810
301,12810
" style="stroke:#ffffff;stroke-width:7;
stroke-linejoin:bevel; stroke-linecap:butt;
"/>
<!-- Line -->
<!--  polyline  -->
<polyline points="334,12947
399,12861
653,12861
595,12947
334,12947
" style="stroke:#ffffff;stroke-width:0;
stroke-linejoin:miter; stroke-linecap:butt;
fill:#ffffff;
"/>
<!-- Line -->
<!--  polyline  -->
<polyline points="334,12947
399,12861
653,12861
595,12947
334,12947
" style="stroke:#ffffff;stroke-width:7;
stroke-linejoin:miter; stroke-linecap:butt;
"/>
<!-- Line -->
<!--  polyline  -->
<polyline points="362,12931
405,12873
576,12873
537,12931
362,12931
" style="stroke:#00acd8;stroke-width:0;
stroke-linejoin:miter; stroke-linecap:butt;
fill:#00acd8;
"/>
<!-- Line -->
<!--  polyline  -->
<polyline points="362,12931
405,12873
576,12873
537,12931
362,12931
" style="stroke:#ffffff;stroke-width:7;
stroke-linejoin:miter; stroke-linecap:butt;
"/>
<!-- Line -->
<!--  polyline  -->
<polyline points="363,13001
304,13084
" style="stroke:#00acd8;stroke-width:0;
stroke-linejoin:miter; stroke-linecap:butt;
fill:#00acd8;
"/>
<!-- Line -->
<!--  polyline  -->
<polyline points="363,13001
304,13084
" style="stroke:#ffffff;stroke-width:7;
stroke-linejoin:miter; stroke-linecap:butt;
"/>
<!-- Line -->
<!--  polyline  -->
<polyline points="327,13001
268,13084
" style="stroke:#00acd8;stroke-width:0;
stroke-linejoin:miter; stroke-linecap:butt;
fill:#00acd8;
"/>
<!-- Line -->
<!--  polyline  -->
<polyline points="327,13001
268,13084
" style="stroke:#ffffff;stroke-width:7;
stroke-linejoin:miter; stroke-linecap:butt;
"/>
<!-- Line -->
<!--  polyline  -->
<polyline points="278,13021
387,13021
" style="stroke:#00acd8;stroke-width:0;
stroke-linejoin:miter; stroke-linecap:butt;
fill:#00acd8;
"/>
<!-- Line -->
<!--  polyline  -->
<polyline points="278,13021
387,13021
" style="stroke:#ffffff;stroke-width:7;
stroke-linejoin:miter; stroke-linecap:butt;
"/>
<!-- Line -->
<!--  polyline  -->
<polyline points="262,13042
372,13042
" style="stroke:#00acd8;stroke-width:0;
stroke-linejoin:miter; stroke-linecap:butt;
fill:#00acd8;
"/>
<!-- Line -->
<!--  polyline  -->
<polyline points="262,13042
372,13042
" style="stroke:#ffffff;stroke-width:7;
stroke-linejoin:miter; stroke-linecap:butt;
"/>
<!-- Line -->
<!--  polyline  -->
<polyline points="244,13064
356,13064
" style="stroke:#00acd8;stroke-width:0;
stroke-linejoin:miter; stroke-linecap:butt;
fill:#00acd8;
"/>
<!-- Line -->
<!--  polyline  -->
<polyline points="244,13064
356,13064
" style="stroke:#ffffff;stroke-width:7;
stroke-linejoin:miter; stroke-linecap:butt;
"/>
<!-- Line -->
<!--  spline  -->
<polyline points="583,13180
582,13180
574,13181
558,13182
536,13185
514,13187
498,13188
490,13189
489,13189
488,13189
485,13189
479,13190
470,13191
458,13192
446,13193
431,13194
413,13195
396,13196
385,13196
380,13197
378,13197
376,13197
370,13197
359,13197
342,13197
325,13197
313,13196
307,13196
305,13196
303,13196
296,13196
283,13195
263,13193
245,13191
229,13189
214,13188
201,13186
189,13184
179,13183
170,13181
165,13180
162,13180
161,13180
157,13180
148,13180
131,13180
109,13180
84,13180
59,13180
37,13180
20,13180
11,13180
7,13180
6,13180
6,13179
6,13172
6,13158
6,13139
6,13119
6,13105
6,13098
6,13097
7,13097
13,13097
26,13097
44,13097
62,13097
75,13097
81,13097
82,13097
83,13097
87,13097
96,13097
105,13097
116,13097
128,13097
139,13097
143,13097
146,13097
152,13097
157,13097
158,13097
159,13097
161,13097
162,13097
163,13097
162,13097
163,13097
167,13098
177,13099
193,13101
213,13104
232,13106
248,13108
258,13109
262,13110
263,13110
264,13110
267,13110
274,13111
284,13112
295,13112
308,13113
324,13114
342,13114
359,13114
370,13114
376,13114
378,13114
380,13114
385,13113
396,13113
413,13112
430,13111
441,13110
447,13110
449,13110
451,13109
457,13109
470,13108
489,13106
510,13104
528,13102
544,13101
558,13100
570,13098
578,13097
582,13097
583,13097
583,13098
583,13105
583,13119
583,13139
583,13158
583,13172
583,13179
583,13180
" style="stroke:#00acd8;stroke-width:0;
stroke-linejoin:bevel; stroke-linecap:butt;
fill:#00acd8;
"/>
<!-- Line -->
<!--  spline  -->
<polyline points="583,13180
582,13180
574,13181
558,13182
536,13185
514,13187
498,13188
490,13189
489,13189
488,13189
485,13189
479,13190
470,13191
458,13192
446,13193
431,13194
413,13195
396,13196
385,13196
380,13197
378,13197
376,13197
370,13197
359,13197
342,13197
325,13197
313,13196
307,13196
305,13196
303,13196
296,13196
283,13195
263,13193
245,13191
229,13189
214,13188
201,13186
189,13184
179,13183
170,13181
165,13180
162,13180
161,13180
157,13180
148,13180
131,13180
109,13180
84,13180
59,13180
37,13180
20,13180
11,13180
7,13180
6,13180
6,13179
6,13172
6,13158
6,13139
6,13119
6,13105
6,13098
6,13097
7,13097
13,13097
26,13097
44,13097
62,13097
75,13097
81,13097
82,13097
83,13097
87,13097
96,13097
105,13097
116,13097
128,13097
139,13097
143,13097
146,13097
152,13097
157,13097
158,13097
159,13097
161,13097
162,13097
163,13097
162,13097
163,13097
167,13098
177,13099
193,13101
213,13104
232,13106
248,13108
258,13109
262,13110
263,13110
264,13110
267,13110
274,13111
284,13112
295,13112
308,13113
324,13114
342,13114
359,13114
370,13114
376,13114
378,13114
380,13114
385,13113
396,13113
413,13112
430,13111
441,13110
447,13110
449,13110
451,13109
457,13109
470,13108
489,13106
510,13104
528,13102
544,13101
558,13100
570,13098
578,13097
582,13097
583,13097
583,13098
583,13105
583,13119
583,13139
583,13158
583,13172
583,13179
583,13180
" style="stroke:#ffffff;stroke-width:7;
stroke-linejoin:bevel; stroke-linecap:butt;
"/>
<!-- Line -->
<!--  polyline  -->
<polyline points="344,12841
344,12887
308,12887
344,12841
" style="stroke:#00acd8;stroke-width:0;
stroke-linejoin:miter; stroke-linecap:butt;
fill:#00acd8;
"/>
<!-- Line -->
<!--  polyline  -->
<polyline points="344,12841
344,12887
308,12887
344,12841
" style="stroke:#ffffff;stroke-width:7;
stroke-linejoin:miter; stroke-linecap:butt;
"/>
<!-- Line -->
<!--  polyline  -->
<polyline points="699,12841
699,12887
668,12887
699,12841
" style="stroke:#000000;stroke-width:0;
stroke-linejoin:miter; stroke-linecap:butt;
fill:#000000;
"/>
<!-- Line -->
<!--  polyline  -->
<polyline points="699,12841
699,12887
668,12887
699,12841
" style="stroke:#ffffff;stroke-width:7;
stroke-linejoin:miter; stroke-linecap:butt;
"/>
<!-- Text -->
<!--  text  -->
<text xml:space="preserve" x="436" y="13085" fill="#ffffff"  font-family="Helvetica" font-style="normal" font-weight="bold" font-size="120" text-anchor="start">IP</text>
</g>
</svg>
