<?xml version="1.0" standalone="no"?>
<!DOCTYPE svg PUBLIC "-//W3C//DTD SVG 1.1//EN"
"http://www.w3.org/Graphics/SVG/1.1/DTD/svg11.dtd">
<!-- Creator: fig2dev Version 3.2 Patchlevel 5c -->
<!-- CreationDate: Fri Sep 14 10:46:29 2012 -->
<!-- Magnification: 1.000 -->
<svg xmlns="http://www.w3.org/2000/svg" width="0.5in" height="0.5in" viewBox="-9 12647 637 562">
<g style="stroke-width:.025in; fill:none">
<!-- Line -->
<!--  spline  -->
<polyline points="616,12778
616,12779
613,12785
608,12797
604,12809
601,12815
601,12816
600,12817
598,12819
592,12825
584,12831
573,12839
557,12848
544,12855
535,12859
530,12861
527,12862
525,12863
519,12865
508,12869
491,12874
473,12879
461,12882
455,12883
452,12884
448,12885
441,12886
428,12888
407,12891
385,12893
366,12895
350,12896
335,12897
323,12897
315,12897
311,12897
310,12897
309,12897
301,12896
284,12895
262,12894
239,12893
222,12892
214,12891
213,12891
212,12891
209,12890
201,12889
190,12888
178,12885
164,12883
148,12879
129,12874
112,12869
101,12865
95,12863
92,12862
90,12861
85,12859
75,12855
62,12848
47,12839
39,12835
36,12833
34,12831
29,12826
19,12816
11,12805
7,12796
4,12788
3,12782
3,12779
3,12778
3,12779
3,12782
3,12791
3,12806
3,12828
3,12857
3,12891
3,12928
3,12964
3,12998
3,13027
3,13049
3,13064
3,13073
3,13076
3,13077
3,13078
6,13084
11,13096
16,13108
19,13114
19,13115
19,13116
22,13119
28,13124
35,13131
46,13139
62,13148
75,13155
85,13159
90,13161
92,13162
95,13163
101,13165
112,13169
129,13174
147,13179
159,13182
165,13183
169,13184
172,13185
179,13186
192,13188
213,13191
235,13193
254,13195
270,13196
285,13197
297,13197
305,13197
309,13197
310,13197
311,13197
319,13196
336,13195
359,13194
381,13193
398,13192
406,13191
407,13191
408,13191
411,13190
419,13189
430,13188
442,13185
456,13183
473,13179
491,13174
508,13169
519,13165
525,13163
527,13162
530,13161
535,13159
544,13155
557,13148
572,13139
580,13134
583,13132
586,13131
591,13125
601,13115
609,13104
613,13095
615,13087
616,13081
616,13078
616,13077
616,13076
616,13073
616,13064
616,13049
616,13027
616,12998
616,12964
616,12928
616,12891
616,12857
616,12828
616,12806
616,12791
616,12782
616,12779
616,12778
" style="stroke:#00acd8;stroke-width:0;
stroke-linejoin:bevel; stroke-linecap:butt;
fill:#00acd8;
"/>
<!-- Line -->
<!--  spline  -->
<polyline points="616,12778
616,12779
613,12785
608,12797
604,12809
601,12815
601,12816
600,12817
598,12819
592,12825
584,12831
573,12839
557,12848
544,12855
535,12859
530,12861
527,12862
525,12863
519,12865
508,12869
491,12874
473,12879
461,12882
455,12883
452,12884
448,12885
441,12886
428,12888
407,12891
385,12893
366,12895
350,12896
335,12897
323,12897
315,12897
311,12897
310,12897
309,12897
301,12896
284,12895
262,12894
239,12893
222,12892
214,12891
213,12891
212,12891
209,12890
201,12889
190,12888
178,12885
164,12883
148,12879
129,12874
112,12869
101,12865
95,12863
92,12862
90,12861
85,12859
75,12855
62,12848
47,12839
39,12835
36,12833
34,12831
29,12826
19,12816
11,12805
7,12796
4,12788
3,12782
3,12779
3,12778
3,12779
3,12782
3,12791
3,12806
3,12828
3,12857
3,12891
3,12928
3,12964
3,12998
3,13027
3,13049
3,13064
3,13073
3,13076
3,13077
3,13078
6,13084
11,13096
16,13108
19,13114
19,13115
19,13116
22,13119
28,13124
35,13131
46,13139
62,13148
75,13155
85,13159
90,13161
92,13162
95,13163
101,13165
112,13169
129,13174
147,13179
159,13182
165,13183
169,13184
172,13185
179,13186
192,13188
213,13191
235,13193
254,13195
270,13196
285,13197
297,13197
305,13197
309,13197
310,13197
311,13197
319,13196
336,13195
359,13194
381,13193
398,13192
406,13191
407,13191
408,13191
411,13190
419,13189
430,13188
442,13185
456,13183
473,13179
491,13174
508,13169
519,13165
525,13163
527,13162
530,13161
535,13159
544,13155
557,13148
572,13139
580,13134
583,13132
586,13131
591,13125
601,13115
609,13104
613,13095
615,13087
616,13081
616,13078
616,13077
616,13076
616,13073
616,13064
616,13049
616,13027
616,12998
616,12964
616,12928
616,12891
616,12857
616,12828
616,12806
616,12791
616,12782
616,12779
616,12778
" style="stroke:#ffffff;stroke-width:7;
stroke-linejoin:bevel; stroke-linecap:butt;
"/>
<!-- Line -->
<!--  spline  -->
<polyline points="310,12897
311,12897
319,12896
336,12895
359,12894
381,12893
398,12892
406,12891
407,12891
408,12891
411,12890
419,12889
430,12888
442,12885
456,12883
473,12879
491,12874
508,12869
519,12865
525,12863
527,12862
530,12861
535,12859
544,12855
557,12848
572,12839
580,12835
583,12833
586,12831
591,12826
601,12816
609,12805
613,12796
615,12788
616,12782
616,12779
616,12778
616,12777
613,12771
608,12759
604,12747
601,12741
601,12740
600,12739
598,12736
592,12731
584,12724
573,12716
557,12707
544,12700
535,12696
530,12694
527,12693
525,12692
519,12691
508,12687
491,12682
473,12677
461,12674
455,12673
452,12672
448,12671
441,12670
428,12668
407,12665
385,12663
366,12661
350,12660
335,12659
323,12659
315,12659
311,12659
310,12659
309,12659
301,12660
284,12661
262,12662
239,12663
222,12664
214,12665
213,12665
212,12665
209,12666
201,12667
190,12669
178,12671
164,12674
148,12677
129,12682
112,12687
101,12691
95,12692
92,12693
90,12694
85,12696
75,12700
62,12707
47,12716
39,12721
36,12722
34,12724
29,12730
19,12740
11,12751
7,12760
4,12768
3,12774
3,12777
3,12778
3,12779
6,12785
11,12797
16,12809
19,12815
19,12816
19,12817
22,12819
28,12825
35,12831
46,12839
62,12848
75,12855
85,12859
90,12861
92,12862
95,12863
101,12865
112,12869
129,12874
147,12879
159,12882
165,12883
169,12884
172,12885
179,12886
192,12888
213,12891
235,12893
254,12895
270,12896
285,12897
297,12897
305,12897
309,12897
310,12897
" style="stroke:#00acd8;stroke-width:0;
stroke-linejoin:bevel; stroke-linecap:butt;
fill:#00acd8;
"/>
<!-- Line -->
<!--  spline  -->
<polyline points="310,12897
311,12897
319,12896
336,12895
359,12894
381,12893
398,12892
406,12891
407,12891
408,12891
411,12890
419,12889
430,12888
442,12885
456,12883
473,12879
491,12874
508,12869
519,12865
525,12863
527,12862
530,12861
535,12859
544,12855
557,12848
572,12839
580,12835
583,12833
586,12831
591,12826
601,12816
609,12805
613,12796
615,12788
616,12782
616,12779
616,12778
616,12777
613,12771
608,12759
604,12747
601,12741
601,12740
600,12739
598,12736
592,12731
584,12724
573,12716
557,12707
544,12700
535,12696
530,12694
527,12693
525,12692
519,12691
508,12687
491,12682
473,12677
461,12674
455,12673
452,12672
448,12671
441,12670
428,12668
407,12665
385,12663
366,12661
350,12660
335,12659
323,12659
315,12659
311,12659
310,12659
309,12659
301,12660
284,12661
262,12662
239,12663
222,12664
214,12665
213,12665
212,12665
209,12666
201,12667
190,12669
178,12671
164,12674
148,12677
129,12682
112,12687
101,12691
95,12692
92,12693
90,12694
85,12696
75,12700
62,12707
47,12716
39,12721
36,12722
34,12724
29,12730
19,12740
11,12751
7,12760
4,12768
3,12774
3,12777
3,12778
3,12779
6,12785
11,12797
16,12809
19,12815
19,12816
19,12817
22,12819
28,12825
35,12831
46,12839
62,12848
75,12855
85,12859
90,12861
92,12862
95,12863
101,12865
112,12869
129,12874
147,12879
159,12882
165,12883
169,12884
172,12885
179,12886
192,12888
213,12891
235,12893
254,12895
270,12896
285,12897
297,12897
305,12897
309,12897
310,12897
" style="stroke:#ffffff;stroke-width:7;
stroke-linejoin:bevel; stroke-linecap:butt;
"/>
<!-- Line -->
<!--  polyline  -->
<polyline points="240,12731
265,12769
169,12791
190,12774
42,12749
80,12721
222,12745
240,12731
" style="stroke:#ffffff;stroke-width:0;
stroke-linejoin:miter; stroke-linecap:butt;
fill:#ffffff;
"/>
<!-- Line -->
<!--  polyline  -->
<polyline points="375,12823
357,12784
444,12767
429,12780
573,12805
538,12833
395,12806
375,12823
" style="stroke:#ffffff;stroke-width:0;
stroke-linejoin:miter; stroke-linecap:butt;
fill:#ffffff;
"/>
<!-- Line -->
<!--  polyline  -->
<polyline points="327,12711
424,12684
425,12726
401,12721
354,12760
309,12753
357,12715
327,12711
" style="stroke:#ffffff;stroke-width:0;
stroke-linejoin:miter; stroke-linecap:butt;
fill:#ffffff;
"/>
<!-- Line -->
<!--  polyline  -->
<polyline points="286,12859
194,12876
190,12834
217,12839
268,12796
312,12804
258,12851
286,12859
" style="stroke:#ffffff;stroke-width:0;
stroke-linejoin:miter; stroke-linecap:butt;
fill:#ffffff;
"/>
<!-- Line -->
<!--  polyline  -->
<polyline points="464,13108
464,13032
418,13069
464,13108
" style="stroke:#ffffff;stroke-width:0;
stroke-linejoin:miter; stroke-linecap:butt;
fill:#ffffff;
"/>
<!-- Line -->
<!--  polyline  -->
<polyline points="464,13108
464,13032
418,13069
464,13108
" style="stroke:#ffffff;stroke-width:7;
stroke-linejoin:miter; stroke-linecap:butt;
"/>
<!-- Line -->
<!--  polyline  -->
<polyline points="138,13108
138,13032
184,13069
138,13108
" style="stroke:#ffffff;stroke-width:0;
stroke-linejoin:miter; stroke-linecap:butt;
fill:#ffffff;
"/>
<!-- Line -->
<!--  polyline  -->
<polyline points="138,13108
138,13032
184,13069
138,13108
" style="stroke:#ffffff;stroke-width:7;
stroke-linejoin:miter; stroke-linecap:butt;
"/>
<!-- Line -->
<!--  polyline  -->
<polyline points="169,12956
169,13033
123,12996
169,12956
" style="stroke:#ffffff;stroke-width:0;
stroke-linejoin:miter; stroke-linecap:butt;
fill:#ffffff;
"/>
<!-- Line -->
<!--  polyline  -->
<polyline points="169,12956
169,13033
123,12996
169,12956
" style="stroke:#ffffff;stroke-width:7;
stroke-linejoin:miter; stroke-linecap:butt;
"/>
<!-- Line -->
<!--  polyline  -->
<polyline points="430,12956
430,13033
476,12996
430,12956
" style="stroke:#ffffff;stroke-width:0;
stroke-linejoin:miter; stroke-linecap:butt;
fill:#ffffff;
"/>
<!-- Line -->
<!--  polyline  -->
<polyline points="430,12956
430,13033
476,12996
430,12956
" style="stroke:#ffffff;stroke-width:7;
stroke-linejoin:miter; stroke-linecap:butt;
"/>
<!-- Line -->
<!--  polyline  -->
<polyline points="440,12994
412,12994
" style="stroke:#ffffff;stroke-width:15;
stroke-linejoin:miter; stroke-linecap:butt;
"/>
<!-- Line -->
<!--  polyline  -->
<polyline points="450,13068
485,13068
" style="stroke:#ffffff;stroke-width:15;
stroke-linejoin:miter; stroke-linecap:butt;
"/>
<!-- Line -->
<!--  polyline  -->
<polyline points="151,13068
114,13068
" style="stroke:#ffffff;stroke-width:15;
stroke-linejoin:miter; stroke-linecap:butt;
"/>
<!-- Line -->
<!--  polyline  -->
<polyline points="152,12996
187,12996
" style="stroke:#ffffff;stroke-width:15;
stroke-linejoin:miter; stroke-linecap:butt;
"/>
<!-- Line -->
<!--  polyline  -->
<polyline points="382,12998
381,13137
220,13137
220,12998
382,12998
" style="stroke:#ffffff;stroke-width:0;
stroke-linejoin:miter; stroke-linecap:butt;
fill:#ffffff;
"/>
<!-- Line -->
<!--  polyline  -->
<polyline points="382,12998
381,13137
220,13137
220,12998
382,12998
" style="stroke:#00acd8;stroke-width:7;
stroke-linejoin:miter; stroke-linecap:butt;
"/>
<!-- Line -->
<!--  polyline  -->
<polyline points="364,13037
238,13037
238,13012
364,13012
364,13037
" style="stroke:#00acd8;stroke-width:7;
stroke-linejoin:miter; stroke-linecap:butt;
"/>
<!-- Line -->
<!--  polyline  -->
<polyline points="364,13123
238,13123
238,13060
364,13060
364,13123
" style="stroke:#00acd8;stroke-width:7;
stroke-linejoin:miter; stroke-linecap:butt;
"/>
<!-- Line -->
<!--  spline  -->
<polyline points="334,12948
335,12948
336,12948
337,12948
338,12948
338,12949
339,12949
340,12950
341,12950
342,12951
343,12952
343,12953
344,12954
344,12955
344,12956
344,12963
345,12973
345,12980
345,12981
347,12981
356,12983
372,12986
388,12988
397,12990
399,12990
399,12989
401,12986
402,12982
404,12979
404,12978
403,12976
400,12968
395,12956
392,12948
391,12946
390,12946
384,12945
373,12942
362,12940
356,12939
355,12939
354,12939
351,12938
345,12937
338,12936
329,12935
322,12934
319,12934
318,12934
316,12934
311,12934
307,12934
305,12934
303,12934
301,12934
300,12934
299,12934
298,12934
298,12935
299,12935
300,12935
301,12935
300,12935
299,12934
298,12934
297,12934
295,12934
292,12934
288,12934
283,12934
281,12934
280,12934
278,12934
271,12935
263,12936
260,12936
259,12937
255,12937
245,12939
235,12941
226,12942
219,12944
213,12945
210,12946
209,12946
208,12948
205,12956
200,12968
197,12976
196,12978
196,12979
198,12982
199,12986
201,12989
201,12990
203,12990
211,12988
228,12985
244,12983
252,12981
254,12981
254,12980
255,12973
255,12963
256,12956
256,12955
257,12954
257,12952
258,12951
258,12950
259,12950
260,12949
261,12949
261,12948
262,12948
263,12948
264,12948
265,12948
266,12948
267,12948
272,12948
284,12948
300,12948
316,12948
328,12948
333,12948
334,12948
" style="stroke:#ffffff;stroke-width:0;
stroke-linejoin:bevel; stroke-linecap:butt;
fill:#ffffff;
"/>
<!-- Line -->
<!--  polyline  -->
<polyline points="364,13049
238,13049
" style="stroke:#00acd8;stroke-width:7;
stroke-linejoin:miter; stroke-linecap:butt;
"/>
</g>
</svg>
