<?xml version="1.0" standalone="no"?>
<!DOCTYPE svg PUBLIC "-//W3C//DTD SVG 1.1//EN"
"http://www.w3.org/Graphics/SVG/1.1/DTD/svg11.dtd">
<!-- Creator: fig2dev Version 3.2 Patchlevel 5c -->
<!-- CreationDate: Fri Sep 14 10:46:29 2012 -->
<!-- Magnification: 1.000 -->
<svg xmlns="http://www.w3.org/2000/svg" width="0.7in" height="0.5in" viewBox="-3 12582 820 622">
<g style="stroke-width:.025in; fill:none">
<!-- Line -->
<!--  polyline  -->
<polyline points="606,12981
606,12788
11,12788
11,12981
606,12981
" style="stroke:#00acd8;stroke-width:0;
stroke-linejoin:miter; stroke-linecap:butt;
fill:#00acd8;
"/>
<!-- Line -->
<!--  polyline  -->
<polyline points="606,12981
606,12788
11,12788
11,12981
606,12981
" style="stroke:#ffffff;stroke-width:7;
stroke-linejoin:miter; stroke-linecap:butt;
"/>
<!-- Line -->
<!--  polyline  -->
<polyline points="9,12789
250,12594
805,12594
606,12789
9,12789
" style="stroke:#00acd8;stroke-width:0;
stroke-linejoin:miter; stroke-linecap:butt;
fill:#00acd8;
"/>
<!-- Line -->
<!--  polyline  -->
<polyline points="9,12789
250,12594
805,12594
606,12789
9,12789
" style="stroke:#ffffff;stroke-width:7;
stroke-linejoin:miter; stroke-linecap:butt;
"/>
<!-- Line -->
<!--  polyline  -->
<polyline points="606,12987
805,12784
805,12594
606,12789
606,12987
" style="stroke:#00acd8;stroke-width:0;
stroke-linejoin:miter; stroke-linecap:butt;
fill:#00acd8;
"/>
<!-- Line -->
<!--  polyline  -->
<polyline points="606,12987
805,12784
805,12594
606,12789
606,12987
" style="stroke:#ffffff;stroke-width:7;
stroke-linejoin:miter; stroke-linecap:butt;
"/>
<!-- Line -->
<!--  polyline  -->
<polyline points="606,13186
606,12977
11,12977
11,13186
606,13186
" style="stroke:#75d3eb;stroke-width:0;
stroke-linejoin:miter; stroke-linecap:butt;
fill:#75d3eb;
"/>
<!-- Line -->
<!--  polyline  -->
<polyline points="606,13186
606,12977
11,12977
11,13186
606,13186
" style="stroke:#ffffff;stroke-width:7;
stroke-linejoin:miter; stroke-linecap:butt;
"/>
<!-- Line -->
<!--  polyline  -->
<polyline points="606,13192
805,12989
805,12783
606,12978
606,13192
" style="stroke:#75d3eb;stroke-width:0;
stroke-linejoin:miter; stroke-linecap:butt;
fill:#75d3eb;
"/>
<!-- Line -->
<!--  polyline  -->
<polyline points="606,13192
805,12989
805,12783
606,12978
606,13192
" style="stroke:#ffffff;stroke-width:7;
stroke-linejoin:miter; stroke-linecap:butt;
"/>
<!-- Line -->
<!--  polyline  -->
<polyline points="438,12677
475,12686
576,12658
612,12667
594,12640
475,12640
530,12649
438,12677
" style="stroke:#ffffff;stroke-width:0;
stroke-linejoin:miter; stroke-linecap:butt;
fill:#ffffff;
"/>
<!-- Line -->
<!--  polyline  -->
<polyline points="227,12649
264,12640
365,12667
401,12658
383,12686
264,12686
319,12677
227,12649
" style="stroke:#ffffff;stroke-width:0;
stroke-linejoin:miter; stroke-linecap:butt;
fill:#ffffff;
"/>
<!-- Line -->
<!--  polyline  -->
<polyline points="603,12741
566,12751
475,12723
429,12732
447,12704
566,12704
520,12714
603,12741
" style="stroke:#ffffff;stroke-width:0;
stroke-linejoin:miter; stroke-linecap:butt;
fill:#ffffff;
"/>
<!-- Line -->
<!--  polyline  -->
<polyline points="392,12714
355,12704
264,12732
218,12723
236,12751
355,12752
300,12741
392,12714
" style="stroke:#ffffff;stroke-width:0;
stroke-linejoin:miter; stroke-linecap:butt;
fill:#ffffff;
"/>
<!-- Line -->
<!--  spline  -->
<polyline points="310,12954
311,12954
317,12954
326,12953
332,12953
333,12953
334,12953
336,12953
341,12952
346,12951
353,12950
359,12949
361,12948
362,12948
364,12947
369,12945
373,12943
375,12942
376,12941
379,12939
381,12937
382,12935
383,12934
383,12933
383,12932
382,12930
380,12927
379,12925
378,12924
376,12923
373,12921
369,12919
364,12917
362,12916
361,12916
359,12915
353,12914
347,12913
344,12912
343,12912
340,12912
333,12911
325,12910
319,12910
314,12910
311,12910
310,12910
309,12910
303,12910
294,12911
288,12911
287,12911
286,12911
284,12911
279,12912
274,12913
267,12914
261,12915
259,12916
258,12916
257,12917
252,12919
248,12921
246,12922
245,12922
244,12923
241,12925
239,12927
238,12929
237,12930
237,12931
237,12932
238,12934
240,12937
241,12939
242,12940
245,12941
248,12943
252,12945
257,12947
258,12948
259,12948
261,12949
267,12950
273,12951
276,12952
277,12952
280,12952
287,12953
295,12954
301,12954
306,12954
309,12954
310,12954
" style="stroke:#ffffff;stroke-width:0;
stroke-linejoin:bevel; stroke-linecap:butt;
fill:#ffffff;
"/>
<!-- Line -->
<!--  spline  -->
<polyline points="310,12954
311,12954
317,12954
326,12953
332,12953
333,12953
334,12953
336,12953
341,12952
346,12951
353,12950
359,12949
361,12948
362,12948
364,12947
369,12945
373,12943
375,12942
376,12941
379,12939
381,12937
382,12935
383,12934
383,12933
383,12932
382,12930
380,12927
379,12925
378,12924
376,12923
373,12921
369,12919
364,12917
362,12916
361,12916
359,12915
353,12914
347,12913
344,12912
343,12912
340,12912
333,12911
325,12910
319,12910
314,12910
311,12910
310,12910
309,12910
303,12910
294,12911
288,12911
287,12911
286,12911
284,12911
279,12912
274,12913
267,12914
261,12915
259,12916
258,12916
257,12917
252,12919
248,12921
246,12922
245,12922
244,12923
241,12925
239,12927
238,12929
237,12930
237,12931
237,12932
238,12934
240,12937
241,12939
242,12940
245,12941
248,12943
252,12945
257,12947
258,12948
259,12948
261,12949
267,12950
273,12951
276,12952
277,12952
280,12952
287,12953
295,12954
301,12954
306,12954
309,12954
310,12954
" style="stroke:#000000;stroke-width:7;
stroke-linejoin:bevel; stroke-linecap:round;
"/>
<!-- Line -->
<!--  spline  -->
<polyline points="383,12830
382,12832
380,12835
379,12837
378,12838
376,12839
373,12841
369,12843
364,12845
362,12846
361,12846
359,12847
353,12848
347,12849
344,12850
343,12850
340,12850
333,12851
325,12852
319,12852
314,12852
311,12852
310,12852
309,12852
303,12852
294,12851
288,12851
287,12851
286,12851
284,12851
279,12850
274,12849
267,12848
261,12847
259,12846
258,12846
257,12845
252,12843
248,12841
246,12840
245,12840
244,12839
241,12837
239,12835
238,12833
237,12832
237,12831
237,12830
237,12831
237,12838
237,12854
237,12876
237,12897
237,12913
237,12920
237,12921
238,12923
240,12926
241,12928
242,12929
245,12930
248,12932
252,12934
257,12936
258,12937
259,12937
261,12938
267,12939
273,12940
276,12941
277,12941
280,12941
287,12942
295,12943
301,12943
306,12943
309,12943
310,12943
311,12943
317,12943
326,12942
332,12942
333,12942
334,12942
336,12942
341,12941
346,12940
353,12939
359,12938
361,12937
362,12937
364,12936
369,12934
373,12932
375,12931
376,12930
379,12928
381,12926
382,12924
383,12923
383,12922
383,12921
383,12920
383,12913
383,12897
383,12876
383,12854
383,12838
383,12831
383,12830
" style="stroke:#ffffff;stroke-width:0;
stroke-linejoin:bevel; stroke-linecap:round;
fill:#ffffff;
"/>
<!-- Line -->
<!--  spline  -->
<polyline points="383,12830
382,12832
380,12835
379,12837
378,12838
376,12839
373,12841
369,12843
364,12845
362,12846
361,12846
359,12847
353,12848
347,12849
344,12850
343,12850
340,12850
333,12851
325,12852
319,12852
314,12852
311,12852
310,12852
309,12852
303,12852
294,12851
288,12851
287,12851
286,12851
284,12851
279,12850
274,12849
267,12848
261,12847
259,12846
258,12846
257,12845
252,12843
248,12841
246,12840
245,12840
244,12839
241,12837
239,12835
238,12833
237,12832
237,12831
237,12830
237,12831
237,12838
237,12854
237,12876
237,12897
237,12913
237,12920
237,12921
238,12923
240,12926
241,12928
242,12929
245,12930
248,12932
252,12934
257,12936
258,12937
259,12937
261,12938
267,12939
273,12940
276,12941
277,12941
280,12941
287,12942
295,12943
301,12943
306,12943
309,12943
310,12943
311,12943
317,12943
326,12942
332,12942
333,12942
334,12942
336,12942
341,12941
346,12940
353,12939
359,12938
361,12937
362,12937
364,12936
369,12934
373,12932
375,12931
376,12930
379,12928
381,12926
382,12924
383,12923
383,12922
383,12921
383,12920
383,12913
383,12897
383,12876
383,12854
383,12838
383,12831
383,12830
" style="stroke:#000000;stroke-width:7;
stroke-linejoin:bevel; stroke-linecap:round;
"/>
<!-- Line -->
<!--  spline  -->
<polyline points="310,12852
311,12852
317,12852
326,12851
332,12851
333,12851
334,12851
336,12851
341,12850
346,12849
353,12848
359,12847
361,12846
362,12846
364,12845
369,12843
373,12841
375,12840
376,12839
379,12837
381,12835
382,12833
383,12832
383,12831
383,12830
382,12828
380,12825
379,12823
378,12822
376,12821
373,12819
369,12817
364,12815
362,12814
361,12814
359,12813
353,12812
347,12811
344,12810
343,12810
340,12810
333,12809
325,12808
319,12808
314,12808
311,12808
310,12808
309,12808
303,12808
294,12809
288,12809
287,12809
286,12809
284,12809
279,12810
274,12811
267,12812
261,12813
259,12814
258,12814
256,12815
251,12817
247,12819
245,12820
244,12821
241,12823
239,12825
238,12827
237,12828
237,12829
237,12830
238,12832
240,12835
241,12837
242,12838
244,12839
247,12841
251,12843
256,12845
258,12846
259,12846
261,12847
267,12848
273,12849
276,12850
277,12850
280,12850
287,12851
295,12852
301,12852
306,12852
309,12852
310,12852
" style="stroke:#ffffff;stroke-width:0;
stroke-linejoin:bevel; stroke-linecap:round;
fill:#ffffff;
"/>
<!-- Line -->
<!--  spline  -->
<polyline points="310,12852
311,12852
317,12852
326,12851
332,12851
333,12851
334,12851
336,12851
341,12850
346,12849
353,12848
359,12847
361,12846
362,12846
364,12845
369,12843
373,12841
375,12840
376,12839
379,12837
381,12835
382,12833
383,12832
383,12831
383,12830
382,12828
380,12825
379,12823
378,12822
376,12821
373,12819
369,12817
364,12815
362,12814
361,12814
359,12813
353,12812
347,12811
344,12810
343,12810
340,12810
333,12809
325,12808
319,12808
314,12808
311,12808
310,12808
309,12808
303,12808
294,12809
288,12809
287,12809
286,12809
284,12809
279,12810
274,12811
267,12812
261,12813
259,12814
258,12814
256,12815
251,12817
247,12819
245,12820
244,12821
241,12823
239,12825
238,12827
237,12828
237,12829
237,12830
238,12832
240,12835
241,12837
242,12838
244,12839
247,12841
251,12843
256,12845
258,12846
259,12846
261,12847
267,12848
273,12849
276,12850
277,12850
280,12850
287,12851
295,12852
301,12852
306,12852
309,12852
310,12852
" style="stroke:#000000;stroke-width:7;
stroke-linejoin:bevel; stroke-linecap:round;
"/>
<!-- Line -->
<!--  polyline  -->
<polyline points="11,12980
606,12980
" style="stroke:#ffffff;stroke-width:7;
stroke-linejoin:round; stroke-linecap:round;
"/>
<!-- Line -->
<!--  polyline  -->
<polyline points="239,13078
128,13078
128,13068
86,13083
128,13098
128,13088
239,13088
239,13078
" style="stroke:#ffffff;stroke-width:0;
stroke-linejoin:round; stroke-linecap:round;
fill:#ffffff;
"/>
<!-- Line -->
<!--  polyline  -->
<polyline points="302,13110
302,13149
273,13149
316,13164
358,13149
329,13149
329,13110
302,13110
" style="stroke:#ffffff;stroke-width:0;
stroke-linejoin:round; stroke-linecap:round;
fill:#ffffff;
"/>
<!-- Line -->
<!--  polyline  -->
<polyline points="302,13057
302,13017
273,13017
316,13002
358,13017
329,13017
329,13057
302,13057
" style="stroke:#ffffff;stroke-width:0;
stroke-linejoin:round; stroke-linecap:round;
fill:#ffffff;
"/>
<!-- Line -->
<!--  polyline  -->
<polyline points="392,13088
504,13088
504,13098
546,13083
504,13068
504,13078
392,13078
392,13088
" style="stroke:#ffffff;stroke-width:0;
stroke-linejoin:round; stroke-linecap:round;
fill:#ffffff;
"/>
<!-- Line -->
<!--  spline  -->
<polyline points="495,13146
494,13146
489,13146
480,13147
475,13147
474,13147
471,13147
466,13146
459,13145
450,13144
438,13142
426,13140
419,13138
416,13138
414,13137
406,13136
392,13132
377,13128
369,13126
366,13125
363,13124
354,13122
338,13117
320,13112
306,13107
295,13103
286,13100
281,13098
280,13098
278,13097
270,13094
253,13088
237,13082
229,13079
227,13078
226,13078
222,13076
215,13073
206,13069
195,13065
183,13059
171,13053
166,13051
165,13050
161,13047
153,13042
146,13037
144,13035
143,13034
142,13033
139,13029
138,13027
138,13026
138,13025
139,13024
140,13023
141,13022
142,13022
143,13022
148,13021
157,13021
162,13020
163,13020
164,13020
168,13020
174,13021
184,13022
198,13025
210,13028
217,13029
220,13030
223,13030
230,13032
245,13036
260,13040
268,13042
271,13043
274,13044
282,13046
298,13051
315,13056
329,13061
341,13065
350,13068
355,13070
356,13070
358,13071
367,13074
383,13080
399,13086
408,13089
410,13090
411,13090
415,13092
422,13095
431,13099
441,13103
453,13109
465,13115
469,13118
471,13119
475,13121
483,13126
490,13131
493,13132
494,13133
495,13135
498,13138
499,13141
498,13144
497,13145
495,13146
" style="stroke:#ffffff;stroke-width:7;
stroke-linejoin:bevel; stroke-linecap:butt;
"/>
<!-- Line -->
<!--  spline  -->
<polyline points="489,13021
490,13023
492,13026
493,13028
492,13030
490,13032
486,13036
479,13041
471,13046
468,13049
466,13050
462,13052
450,13058
439,13063
433,13066
430,13067
428,13068
421,13071
407,13077
392,13083
379,13088
368,13092
360,13095
355,13097
354,13097
352,13098
343,13101
325,13107
307,13112
298,13115
296,13116
295,13116
290,13118
282,13120
271,13123
258,13127
242,13131
228,13135
220,13137
217,13137
215,13138
208,13139
196,13142
184,13144
178,13145
176,13146
174,13146
169,13146
160,13147
150,13147
144,13147
140,13147
138,13146
137,13144
136,13141
135,13139
136,13137
138,13135
142,13131
149,13126
157,13121
160,13119
162,13118
167,13116
178,13110
189,13105
195,13102
197,13101
199,13100
206,13097
220,13091
235,13085
248,13080
259,13075
268,13072
273,13070
274,13070
276,13069
285,13066
303,13060
320,13055
329,13052
331,13051
332,13051
337,13049
345,13047
356,13044
369,13040
385,13036
400,13032
407,13030
410,13030
413,13029
419,13028
432,13025
444,13023
450,13022
452,13021
454,13021
459,13021
468,13020
477,13020
483,13020
487,13020
489,13021
" style="stroke:#ffffff;stroke-width:7;
stroke-linejoin:bevel; stroke-linecap:butt;
"/>
<!-- Line -->
<!--  spline  -->
<polyline points="361,13106
362,13106
367,13104
374,13101
379,13099
380,13099
382,13098
385,13096
389,13094
392,13091
394,13088
395,13087
396,13086
396,13083
396,13080
396,13079
396,13078
395,13077
393,13074
390,13071
386,13068
383,13066
381,13065
380,13065
375,13063
369,13061
364,13059
363,13059
362,13059
360,13058
355,13057
349,13056
341,13055
333,13054
329,13054
328,13054
324,13053
316,13053
308,13053
305,13053
303,13053
300,13053
292,13054
283,13055
277,13056
272,13057
269,13058
268,13058
267,13058
262,13060
255,13063
250,13065
249,13065
247,13066
244,13068
241,13070
238,13073
236,13076
234,13077
234,13078
233,13081
233,13084
234,13085
234,13086
235,13087
237,13090
240,13093
243,13096
246,13098
248,13099
249,13099
254,13101
260,13103
265,13105
266,13105
267,13105
269,13106
274,13107
281,13108
289,13109
297,13110
300,13110
301,13110
305,13111
313,13111
321,13111
325,13111
326,13111
330,13111
338,13110
347,13109
353,13108
358,13107
360,13106
361,13106
" style="stroke:#aae4f3;stroke-width:0;
stroke-linejoin:bevel; stroke-linecap:butt;
fill:#aae4f3;
"/>
<!-- Line -->
<!--  spline  -->
<polyline points="361,13106
362,13106
367,13104
374,13101
379,13099
380,13099
382,13098
385,13096
389,13094
392,13091
394,13088
395,13087
396,13086
396,13083
396,13080
396,13079
396,13078
395,13077
393,13074
390,13071
386,13068
383,13066
381,13065
380,13065
375,13063
369,13061
364,13059
363,13059
362,13059
360,13058
355,13057
349,13056
341,13055
333,13054
329,13054
328,13054
324,13053
316,13053
308,13053
305,13053
303,13053
300,13053
292,13054
283,13055
277,13056
272,13057
269,13058
268,13058
267,13058
262,13060
255,13063
250,13065
249,13065
247,13066
244,13068
241,13070
238,13073
236,13076
234,13077
234,13078
233,13081
233,13084
234,13085
234,13086
235,13087
237,13090
240,13093
243,13096
246,13098
248,13099
249,13099
254,13101
260,13103
265,13105
266,13105
267,13105
269,13106
274,13107
281,13108
289,13109
297,13110
300,13110
301,13110
305,13111
313,13111
321,13111
325,13111
326,13111
330,13111
338,13110
347,13109
353,13108
358,13107
360,13106
361,13106
" style="stroke:#ffffff;stroke-width:7;
stroke-linejoin:bevel; stroke-linecap:butt;
"/>
</g>
</svg>
