<?xml version="1.0" standalone="no"?>
<!DOCTYPE svg PUBLIC "-//W3C//DTD SVG 1.1//EN"
"http://www.w3.org/Graphics/SVG/1.1/DTD/svg11.dtd">
<!-- Creator: fig2dev Version 3.2 Patchlevel 5c -->
<!-- CreationDate: Fri Sep 14 10:46:30 2012 -->
<!-- Magnification: 1.000 -->
<svg xmlns="http://www.w3.org/2000/svg" width="0.5in" height="0.4in" viewBox="4749 9285 638 437">
<g style="stroke-width:.025in; fill:none">
<!-- Line -->
<!--  spline  -->
<polyline points="4952,9527
4950,9527
4940,9524
4921,9520
4902,9516
4892,9513
4890,9513
4889,9513
4884,9511
4876,9509
4865,9506
4852,9501
4837,9495
4824,9489
4817,9485
4814,9484
4812,9483
4806,9479
4796,9472
4787,9465
4782,9461
4781,9459
4780,9457
4777,9453
4771,9445
4766,9435
4763,9427
4762,9421
4761,9417
4761,9416
4761,9417
4761,9421
4761,9432
4761,9450
4761,9475
4761,9504
4761,9532
4761,9557
4761,9575
4761,9586
4761,9590
4761,9591
4762,9592
4764,9600
4768,9611
4770,9619
4771,9620
4773,9623
4776,9627
4781,9632
4787,9638
4797,9646
4807,9653
4813,9657
4815,9658
4818,9659
4825,9663
4838,9669
4852,9675
4859,9678
4862,9679
4865,9680
4874,9682
4890,9687
4908,9692
4923,9695
4936,9698
4946,9700
4951,9701
4952,9701
4952,9700
4952,9696
4952,9685
4952,9667
4952,9642
4952,9614
4952,9586
4952,9561
4952,9543
4952,9532
4952,9528
4952,9527
" style="stroke:#05b0da;stroke-width:0;
stroke-linejoin:bevel; stroke-linecap:butt;
fill:#05b0da;
"/>
<!-- Line -->
<!--  spline  -->
<polyline points="4952,9527
4950,9527
4940,9524
4921,9520
4902,9516
4892,9513
4890,9513
4889,9513
4884,9511
4876,9509
4865,9506
4852,9501
4837,9495
4824,9489
4817,9485
4814,9484
4812,9483
4806,9479
4796,9472
4787,9465
4782,9461
4781,9459
4780,9457
4777,9453
4771,9445
4766,9435
4763,9427
4762,9421
4761,9417
4761,9416
4761,9417
4761,9421
4761,9432
4761,9450
4761,9475
4761,9504
4761,9532
4761,9557
4761,9575
4761,9586
4761,9590
4761,9591
4762,9592
4764,9600
4768,9611
4770,9619
4771,9620
4773,9623
4776,9627
4781,9632
4787,9638
4797,9646
4807,9653
4813,9657
4815,9658
4818,9659
4825,9663
4838,9669
4852,9675
4859,9678
4862,9679
4865,9680
4874,9682
4890,9687
4908,9692
4923,9695
4936,9698
4946,9700
4951,9701
4952,9701
4952,9700
4952,9696
4952,9685
4952,9667
4952,9642
4952,9614
4952,9586
4952,9561
4952,9543
4952,9532
4952,9528
4952,9527
" style="stroke:#ffffff;stroke-width:7;
stroke-linejoin:bevel; stroke-linecap:butt;
"/>
<!-- Line -->
<!--  spline  -->
<polyline points="4952,9701
4953,9701
4959,9702
4967,9703
4973,9704
4974,9704
4975,9704
4977,9705
4982,9705
4989,9706
4997,9707
5005,9708
5008,9708
5009,9708
5012,9708
5020,9709
5028,9709
5031,9710
5032,9710
5035,9710
5043,9710
5052,9710
5059,9710
5064,9710
5067,9710
5068,9710
5069,9710
5077,9709
5094,9708
5117,9707
5139,9706
5156,9705
5164,9704
5165,9704
5166,9704
5169,9703
5177,9702
5188,9701
5200,9698
5214,9696
5231,9692
5249,9687
5266,9682
5277,9678
5283,9676
5285,9675
5288,9674
5293,9672
5302,9668
5315,9661
5330,9652
5338,9648
5341,9646
5344,9644
5349,9639
5359,9629
5367,9618
5371,9609
5374,9601
5375,9595
5375,9592
5375,9591
5375,9590
5375,9586
5375,9575
5375,9557
5375,9532
5375,9503
5375,9475
5375,9450
5375,9432
5375,9421
5375,9417
5375,9416
5375,9417
5372,9423
5367,9435
5362,9447
5359,9453
5359,9454
5358,9455
5356,9458
5350,9463
5342,9470
5331,9478
5315,9487
5302,9494
5293,9498
5288,9500
5285,9501
5283,9502
5277,9504
5266,9508
5249,9513
5231,9518
5219,9521
5213,9522
5210,9523
5206,9524
5199,9525
5186,9527
5165,9530
5143,9532
5124,9534
5108,9535
5093,9536
5081,9536
5073,9536
5069,9536
5068,9536
5067,9536
5061,9536
5051,9535
5045,9535
5044,9535
5043,9535
5040,9535
5035,9535
5029,9534
5020,9534
5012,9533
5009,9533
5008,9533
5005,9533
4997,9532
4989,9531
4986,9531
4985,9531
4982,9531
4974,9530
4966,9529
4960,9528
4955,9528
4953,9527
4952,9527
4952,9528
4952,9532
4952,9543
4952,9561
4952,9586
4952,9614
4952,9642
4952,9667
4952,9685
4952,9696
4952,9700
4952,9701
" style="stroke:#4fc7e5;stroke-width:0;
stroke-linejoin:bevel; stroke-linecap:butt;
fill:#4fc7e5;
"/>
<!-- Line -->
<!--  spline  -->
<polyline points="4952,9701
4953,9701
4959,9702
4967,9703
4973,9704
4974,9704
4975,9704
4977,9705
4982,9705
4989,9706
4997,9707
5005,9708
5008,9708
5009,9708
5012,9708
5020,9709
5028,9709
5031,9710
5032,9710
5035,9710
5043,9710
5052,9710
5059,9710
5064,9710
5067,9710
5068,9710
5069,9710
5077,9709
5094,9708
5117,9707
5139,9706
5156,9705
5164,9704
5165,9704
5166,9704
5169,9703
5177,9702
5188,9701
5200,9698
5214,9696
5231,9692
5249,9687
5266,9682
5277,9678
5283,9676
5285,9675
5288,9674
5293,9672
5302,9668
5315,9661
5330,9652
5338,9648
5341,9646
5344,9644
5349,9639
5359,9629
5367,9618
5371,9609
5374,9601
5375,9595
5375,9592
5375,9591
5375,9590
5375,9586
5375,9575
5375,9557
5375,9532
5375,9503
5375,9475
5375,9450
5375,9432
5375,9421
5375,9417
5375,9416
5375,9417
5372,9423
5367,9435
5362,9447
5359,9453
5359,9454
5358,9455
5356,9458
5350,9463
5342,9470
5331,9478
5315,9487
5302,9494
5293,9498
5288,9500
5285,9501
5283,9502
5277,9504
5266,9508
5249,9513
5231,9518
5219,9521
5213,9522
5210,9523
5206,9524
5199,9525
5186,9527
5165,9530
5143,9532
5124,9534
5108,9535
5093,9536
5081,9536
5073,9536
5069,9536
5068,9536
5067,9536
5061,9536
5051,9535
5045,9535
5044,9535
5043,9535
5040,9535
5035,9535
5029,9534
5020,9534
5012,9533
5009,9533
5008,9533
5005,9533
4997,9532
4989,9531
4986,9531
4985,9531
4982,9531
4974,9530
4966,9529
4960,9528
4955,9528
4953,9527
4952,9527
4952,9528
4952,9532
4952,9543
4952,9561
4952,9586
4952,9614
4952,9642
4952,9667
4952,9685
4952,9696
4952,9700
4952,9701
" style="stroke:#ffffff;stroke-width:7;
stroke-linejoin:bevel; stroke-linecap:butt;
"/>
<!-- Line -->
<!--  spline  -->
<polyline points="5187,9307
5186,9307
5180,9306
5172,9304
5166,9303
5165,9303
5164,9303
5162,9303
5157,9302
5150,9302
5142,9301
5134,9300
5131,9300
5130,9300
5126,9300
5118,9299
5110,9299
5106,9298
5105,9298
5101,9298
5093,9298
5084,9298
5077,9297
5072,9297
5069,9297
5068,9297
5067,9297
5059,9298
5042,9299
5020,9300
4997,9301
4980,9302
4972,9303
4971,9303
4970,9303
4967,9304
4959,9305
4948,9306
4936,9309
4922,9311
4905,9315
4887,9320
4870,9325
4859,9329
4853,9331
4851,9332
4848,9333
4843,9335
4834,9339
4821,9346
4806,9355
4798,9360
4795,9362
4792,9364
4787,9369
4777,9379
4769,9390
4765,9399
4762,9406
4761,9412
4761,9415
4761,9416
4761,9417
4764,9425
4767,9436
4770,9444
4770,9445
4772,9448
4775,9452
4779,9457
4786,9463
4795,9471
4805,9478
4810,9481
4812,9483
4815,9484
4821,9487
4834,9493
4848,9499
4855,9502
4858,9503
4861,9504
4869,9507
4885,9512
4903,9517
4918,9520
4930,9523
4940,9525
4945,9526
4946,9526
4948,9524
4953,9519
4962,9511
4976,9499
4993,9483
5015,9463
5040,9441
5067,9416
5093,9392
5118,9370
5140,9350
5157,9334
5171,9322
5180,9314
5185,9309
5187,9307
" style="stroke:#05b0da;stroke-width:0;
stroke-linejoin:bevel; stroke-linecap:butt;
fill:#05b0da;
"/>
<!-- Line -->
<!--  spline  -->
<polyline points="5187,9307
5186,9307
5180,9306
5172,9304
5166,9303
5165,9303
5164,9303
5162,9303
5157,9302
5150,9302
5142,9301
5134,9300
5131,9300
5130,9300
5126,9300
5118,9299
5110,9299
5106,9298
5105,9298
5101,9298
5093,9298
5084,9298
5077,9297
5072,9297
5069,9297
5068,9297
5067,9297
5059,9298
5042,9299
5020,9300
4997,9301
4980,9302
4972,9303
4971,9303
4970,9303
4967,9304
4959,9305
4948,9306
4936,9309
4922,9311
4905,9315
4887,9320
4870,9325
4859,9329
4853,9331
4851,9332
4848,9333
4843,9335
4834,9339
4821,9346
4806,9355
4798,9360
4795,9362
4792,9364
4787,9369
4777,9379
4769,9390
4765,9399
4762,9406
4761,9412
4761,9415
4761,9416
4761,9417
4764,9425
4767,9436
4770,9444
4770,9445
4772,9448
4775,9452
4779,9457
4786,9463
4795,9471
4805,9478
4810,9481
4812,9483
4815,9484
4821,9487
4834,9493
4848,9499
4855,9502
4858,9503
4861,9504
4869,9507
4885,9512
4903,9517
4918,9520
4930,9523
4940,9525
4945,9526
4946,9526
4948,9524
4953,9519
4962,9511
4976,9499
4993,9483
5015,9463
5040,9441
5067,9416
5093,9392
5118,9370
5140,9350
5157,9334
5171,9322
5180,9314
5185,9309
5187,9307
" style="stroke:#ffffff;stroke-width:7;
stroke-linejoin:bevel; stroke-linecap:butt;
"/>
<!-- Line -->
<!--  spline  -->
<polyline points="4946,9526
4947,9526
4953,9527
4962,9528
4968,9529
4969,9529
4970,9529
4973,9530
4978,9530
4984,9531
4993,9532
5001,9533
5004,9533
5006,9533
5009,9533
5017,9534
5025,9534
5029,9535
5030,9535
5033,9535
5042,9535
5051,9535
5058,9536
5064,9536
5067,9536
5068,9536
5069,9536
5077,9535
5094,9534
5117,9533
5139,9532
5156,9531
5164,9530
5165,9530
5166,9530
5169,9529
5177,9528
5188,9527
5200,9524
5214,9522
5231,9518
5249,9513
5266,9508
5277,9504
5283,9502
5285,9501
5288,9500
5293,9498
5302,9494
5315,9487
5330,9478
5338,9473
5341,9471
5344,9470
5349,9464
5359,9454
5367,9443
5371,9434
5374,9426
5375,9420
5375,9417
5375,9416
5375,9415
5372,9407
5369,9397
5366,9389
5366,9388
5364,9385
5361,9381
5356,9376
5349,9370
5340,9362
5330,9355
5325,9351
5323,9350
5320,9349
5314,9345
5301,9339
5287,9333
5280,9330
5277,9329
5274,9328
5265,9325
5249,9320
5231,9315
5216,9312
5203,9310
5193,9308
5188,9307
5187,9307
5185,9309
5180,9314
5171,9322
5157,9334
5140,9350
5118,9370
5093,9392
5066,9417
5040,9441
5015,9463
4993,9483
4976,9499
4962,9511
4953,9519
4948,9524
4946,9526
" style="stroke:#4fc7e5;stroke-width:0;
stroke-linejoin:bevel; stroke-linecap:butt;
fill:#4fc7e5;
"/>
<!-- Line -->
<!--  spline  -->
<polyline points="4946,9526
4947,9526
4953,9527
4962,9528
4968,9529
4969,9529
4970,9529
4973,9530
4978,9530
4984,9531
4993,9532
5001,9533
5004,9533
5006,9533
5009,9533
5017,9534
5025,9534
5029,9535
5030,9535
5033,9535
5042,9535
5051,9535
5058,9536
5064,9536
5067,9536
5068,9536
5069,9536
5077,9535
5094,9534
5117,9533
5139,9532
5156,9531
5164,9530
5165,9530
5166,9530
5169,9529
5177,9528
5188,9527
5200,9524
5214,9522
5231,9518
5249,9513
5266,9508
5277,9504
5283,9502
5285,9501
5288,9500
5293,9498
5302,9494
5315,9487
5330,9478
5338,9473
5341,9471
5344,9470
5349,9464
5359,9454
5367,9443
5371,9434
5374,9426
5375,9420
5375,9417
5375,9416
5375,9415
5372,9407
5369,9397
5366,9389
5366,9388
5364,9385
5361,9381
5356,9376
5349,9370
5340,9362
5330,9355
5325,9351
5323,9350
5320,9349
5314,9345
5301,9339
5287,9333
5280,9330
5277,9329
5274,9328
5265,9325
5249,9320
5231,9315
5216,9312
5203,9310
5193,9308
5188,9307
5187,9307
5185,9309
5180,9314
5171,9322
5157,9334
5140,9350
5118,9370
5093,9392
5066,9417
5040,9441
5015,9463
4993,9483
4976,9499
4962,9511
4953,9519
4948,9524
4946,9526
" style="stroke:#ffffff;stroke-width:7;
stroke-linejoin:bevel; stroke-linecap:butt;
"/>
<!-- Line -->
<!--  polyline  -->
<polyline points="4994,9372
5019,9410
4924,9432
4944,9414
4796,9389
4834,9361
4976,9385
4994,9372
" style="stroke:#ffffff;stroke-width:0;
stroke-linejoin:miter; stroke-linecap:butt;
fill:#ffffff;
"/>
<!-- Line -->
<!--  polyline  -->
<polyline points="5129,9464
5111,9425
5198,9407
5183,9421
5326,9445
5292,9473
5149,9446
5129,9464
" style="stroke:#ffffff;stroke-width:0;
stroke-linejoin:miter; stroke-linecap:butt;
fill:#ffffff;
"/>
<!-- Line -->
<!--  polyline  -->
<polyline points="5081,9351
5178,9324
5179,9366
5155,9361
5108,9400
5063,9394
5112,9356
5081,9351
" style="stroke:#ffffff;stroke-width:0;
stroke-linejoin:miter; stroke-linecap:butt;
fill:#ffffff;
"/>
<!-- Line -->
<!--  polyline  -->
<polyline points="5040,9499
4948,9517
4944,9474
4971,9480
5022,9437
5066,9444
5012,9491
5040,9499
" style="stroke:#ffffff;stroke-width:0;
stroke-linejoin:miter; stroke-linecap:butt;
fill:#ffffff;
"/>
<!-- Text -->
<!--  text  -->
<text xml:space="preserve" x="4965" y="9668" fill="#ffffff"  font-family="Helvetica" font-style="normal" font-weight="bold" font-size="108" text-anchor="start">I</text>
<!-- Text -->
<!--  text  -->
<text xml:space="preserve" x="5002" y="9668" fill="#ffffff"  font-family="Helvetica" font-style="normal" font-weight="bold" font-size="108" text-anchor="start">T</text>
<!-- Text -->
<!--  text  -->
<text xml:space="preserve" x="5083" y="9668" fill="#ffffff"  font-family="Helvetica" font-style="normal" font-weight="bold" font-size="108" text-anchor="start">P</text>
</g>
</svg>
