<?xml version="1.0" standalone="no"?>
<!DOCTYPE svg PUBLIC "-//W3C//DTD SVG 1.1//EN"
"http://www.w3.org/Graphics/SVG/1.1/DTD/svg11.dtd">
<!-- Creator: fig2dev Version 3.2 Patchlevel 5c -->
<!-- CreationDate: Fri Sep 14 10:46:30 2012 -->
<!-- Magnification: 1.000 -->
<svg xmlns="http://www.w3.org/2000/svg" width="0.2in" height="0.4in" viewBox="-1 12686 259 515">
<g style="stroke-width:.025in; fill:none">
<!-- Line -->
<!--  polyline  -->
<polyline points="164,12780
11,12780
11,13189
164,13189
" style="stroke:#00acd8;stroke-width:0;
stroke-linejoin:miter; stroke-linecap:butt;
fill:#00acd8;
"/>
<!-- Line -->
<!--  polyline  -->
<polyline points="164,13189
246,13107
246,12698
93,12698
11,12780
164,12780
164,13189
" style="stroke:#00acd8;stroke-width:0;
stroke-linejoin:miter; stroke-linecap:butt;
fill:#00acd8;
"/>
<!-- Line -->
<!--  polyline  -->
<polyline points="164,12780
246,12698
" style="stroke:#00acd8;stroke-width:0;
stroke-linejoin:miter; stroke-linecap:butt;
fill:#00acd8;
"/>
<!-- Line -->
<!--  polyline  -->
<polyline points="164,12780
11,12780
11,13189
164,13189
" style="stroke:#00acd8;stroke-width:0;
stroke-linejoin:miter; stroke-linecap:butt;
fill:#00acd8;
"/>
<!-- Line -->
<!--  polyline  -->
<polyline points="164,12780
11,12780
11,13189
164,13189
" style="stroke:#ffffff;stroke-width:7;
stroke-linejoin:miter; stroke-linecap:butt;
"/>
<!-- Line -->
<!--  polyline  -->
<polyline points="164,13189
246,13107
246,12698
93,12698
11,12780
164,12780
164,13189
" style="stroke:#00acd8;stroke-width:0;
stroke-linejoin:miter; stroke-linecap:butt;
fill:#00acd8;
"/>
<!-- Line -->
<!--  polyline  -->
<polyline points="164,13189
246,13107
246,12698
93,12698
11,12780
164,12780
164,13189
" style="stroke:#ffffff;stroke-width:7;
stroke-linejoin:miter; stroke-linecap:butt;
"/>
<!-- Line -->
<!--  polyline  -->
<polyline points="164,12780
246,12698
" style="stroke:#000000;stroke-width:0;
stroke-linejoin:miter; stroke-linecap:butt;
fill:#000000;
"/>
<!-- Line -->
<!--  polyline  -->
<polyline points="164,12780
246,12698
" style="stroke:#ffffff;stroke-width:7;
stroke-linejoin:round; stroke-linecap:round;
"/>
<!-- Line -->
<!--  polyline  -->
<polyline points="164,12780
11,12780
11,13189
164,13189
" style="stroke:#ffffff;stroke-width:7;
stroke-linejoin:miter; stroke-linecap:butt;
"/>
<!-- Line -->
<!--  polyline  -->
<polyline points="164,13189
246,13107
246,12698
93,12698
11,12780
164,12780
164,13189
" style="stroke:#ffffff;stroke-width:7;
stroke-linejoin:miter; stroke-linecap:butt;
"/>
<!-- Line -->
<!--  polyline  -->
<polyline points="164,12780
246,12698
" style="stroke:#ffffff;stroke-width:7;
stroke-linejoin:miter; stroke-linecap:butt;
"/>
<!-- Line -->
<!--  spline  -->
<polyline points="137,13090
136,13092
136,13094
135,13096
134,13097
133,13098
131,13099
128,13101
125,13102
123,13103
121,13104
117,13105
113,13106
111,13106
110,13106
109,13106
104,13107
99,13107
95,13108
91,13108
89,13108
88,13108
84,13108
78,13107
74,13107
73,13107
71,13107
68,13107
64,13106
60,13105
56,13104
54,13103
52,13102
49,13101
46,13099
45,13099
44,13098
42,13096
41,13094
40,13092
40,13091
40,13090
41,13088
41,13086
42,13084
43,13083
44,13082
46,13081
49,13079
52,13078
54,13077
56,13076
60,13075
64,13074
66,13073
68,13073
73,13072
78,13072
83,13072
86,13072
89,13072
90,13072
94,13072
99,13072
103,13072
104,13072
106,13072
109,13073
113,13074
117,13075
121,13076
123,13077
125,13078
128,13079
131,13081
132,13081
133,13082
135,13084
136,13086
137,13088
137,13089
137,13090
" style="stroke:#ffffff;stroke-width:0;
stroke-linejoin:bevel; stroke-linecap:butt;
fill:#ffffff;
"/>
<!-- Line -->
<!--  spline  -->
<polyline points="137,13090
136,13092
136,13094
135,13096
134,13097
133,13098
131,13099
128,13101
125,13102
123,13103
121,13104
117,13105
113,13106
111,13106
110,13106
109,13106
104,13107
99,13107
95,13108
91,13108
89,13108
88,13108
84,13108
78,13107
74,13107
73,13107
71,13107
68,13107
64,13106
60,13105
56,13104
54,13103
52,13102
49,13101
46,13099
45,13099
44,13098
42,13096
41,13094
40,13092
40,13091
40,13090
41,13088
41,13086
42,13084
43,13083
44,13082
46,13081
49,13079
52,13078
54,13077
56,13076
60,13075
64,13074
66,13073
68,13073
73,13072
78,13072
83,13072
86,13072
89,13072
90,13072
94,13072
99,13072
103,13072
104,13072
106,13072
109,13073
113,13074
117,13075
121,13076
123,13077
125,13078
128,13079
131,13081
132,13081
133,13082
135,13084
136,13086
137,13088
137,13089
137,13090
" style="stroke:#000000;stroke-width:7;
stroke-linejoin:bevel; stroke-linecap:round;
"/>
<!-- Line -->
<!--  spline  -->
<polyline points="103,13089
103,13090
102,13090
102,13091
101,13091
101,13092
100,13092
99,13092
99,13093
98,13093
97,13093
96,13093
95,13094
94,13094
93,13094
91,13094
90,13094
89,13094
88,13094
87,13094
85,13094
84,13094
83,13094
82,13094
81,13093
80,13093
79,13093
78,13093
78,13092
77,13092
76,13092
76,13091
75,13091
75,13090
74,13090
74,13089
74,13088
75,13088
75,13087
76,13087
76,13086
77,13086
78,13085
79,13084
80,13084
81,13084
82,13084
83,13084
84,13084
85,13084
87,13083
88,13083
90,13083
91,13084
93,13084
94,13084
95,13084
96,13084
97,13084
98,13084
99,13085
100,13086
101,13086
101,13087
101,13086
101,13087
102,13087
102,13088
103,13088
103,13089
" style="stroke:#000000;stroke-width:0;
stroke-linejoin:bevel; stroke-linecap:round;
fill:#000000;
"/>
<!-- Line -->
<!--  spline  -->
<polyline points="103,13079
103,13080
102,13080
102,13081
101,13081
101,13082
100,13082
99,13082
99,13083
98,13083
97,13083
96,13083
95,13084
94,13084
93,13084
91,13084
90,13084
89,13084
88,13084
87,13084
85,13084
84,13084
83,13084
82,13084
81,13083
80,13083
79,13083
78,13083
78,13082
77,13082
76,13082
76,13081
75,13081
75,13080
74,13080
74,13079
74,13078
75,13078
75,13077
76,13077
76,13076
77,13076
78,13075
79,13074
80,13074
81,13074
82,13074
83,13074
84,13074
85,13074
87,13073
88,13073
90,13073
91,13074
93,13074
94,13074
95,13074
96,13074
97,13074
98,13074
99,13075
100,13076
101,13076
101,13077
101,13076
101,13077
102,13077
102,13078
103,13078
103,13079
" style="stroke:#000000;stroke-width:0;
stroke-linejoin:bevel; stroke-linecap:round;
fill:#000000;
"/>
<!-- Line -->
<!--  spline  -->
<polyline points="137,13070
136,13072
136,13074
135,13076
134,13077
133,13078
131,13079
128,13081
125,13082
123,13083
121,13084
117,13085
113,13086
111,13086
110,13086
109,13086
104,13087
99,13087
95,13088
91,13088
89,13088
88,13088
84,13088
78,13087
74,13087
73,13087
71,13087
68,13087
64,13086
60,13085
56,13084
54,13083
52,13082
49,13081
46,13079
45,13079
44,13078
42,13076
41,13074
40,13072
40,13071
40,13070
41,13068
41,13066
42,13064
43,13063
44,13062
46,13061
49,13059
52,13058
54,13057
56,13056
60,13055
64,13054
66,13053
68,13053
73,13052
78,13052
83,13052
86,13052
89,13052
90,13052
94,13052
99,13052
103,13052
104,13052
106,13052
109,13053
113,13054
117,13055
121,13056
123,13057
125,13058
128,13059
131,13061
132,13061
133,13062
135,13064
136,13066
137,13068
137,13069
137,13070
" style="stroke:#ffffff;stroke-width:0;
stroke-linejoin:bevel; stroke-linecap:round;
fill:#ffffff;
"/>
<!-- Line -->
<!--  spline  -->
<polyline points="137,13070
136,13072
136,13074
135,13076
134,13077
133,13078
131,13079
128,13081
125,13082
123,13083
121,13084
117,13085
113,13086
111,13086
110,13086
109,13086
104,13087
99,13087
95,13088
91,13088
89,13088
88,13088
84,13088
78,13087
74,13087
73,13087
71,13087
68,13087
64,13086
60,13085
56,13084
54,13083
52,13082
49,13081
46,13079
45,13079
44,13078
42,13076
41,13074
40,13072
40,13071
40,13070
41,13068
41,13066
42,13064
43,13063
44,13062
46,13061
49,13059
52,13058
54,13057
56,13056
60,13055
64,13054
66,13053
68,13053
73,13052
78,13052
83,13052
86,13052
89,13052
90,13052
94,13052
99,13052
103,13052
104,13052
106,13052
109,13053
113,13054
117,13055
121,13056
123,13057
125,13058
128,13059
131,13061
132,13061
133,13062
135,13064
136,13066
137,13068
137,13069
137,13070
" style="stroke:#000000;stroke-width:7;
stroke-linejoin:bevel; stroke-linecap:round;
"/>
<!-- Line -->
<!--  spline  -->
<polyline points="103,13069
103,13070
102,13070
102,13071
101,13071
101,13072
100,13072
99,13072
99,13073
98,13073
97,13073
96,13073
95,13074
94,13074
93,13074
91,13074
90,13074
89,13074
88,13074
87,13074
85,13074
84,13074
83,13074
82,13074
81,13073
80,13073
79,13073
78,13073
78,13072
77,13072
76,13072
76,13071
75,13071
75,13070
74,13070
74,13069
74,13068
75,13068
75,13067
76,13067
76,13066
77,13066
78,13065
79,13064
80,13064
81,13064
82,13064
83,13064
84,13064
85,13064
87,13063
88,13063
90,13063
91,13064
93,13064
94,13064
95,13064
96,13064
97,13064
98,13064
99,13065
100,13066
101,13066
101,13067
101,13066
101,13067
102,13067
102,13068
103,13068
103,13069
" style="stroke:#000000;stroke-width:0;
stroke-linejoin:bevel; stroke-linecap:round;
fill:#000000;
"/>
<!-- Line -->
<!--  spline  -->
<polyline points="103,13059
103,13060
102,13060
102,13061
101,13061
101,13062
100,13062
99,13062
99,13063
98,13063
97,13063
96,13063
95,13064
94,13064
93,13064
91,13064
90,13064
89,13064
88,13064
87,13064
85,13064
84,13064
83,13064
82,13064
81,13063
80,13063
79,13063
78,13063
78,13062
77,13062
76,13062
76,13061
75,13061
75,13060
74,13060
74,13059
74,13058
75,13058
75,13057
76,13057
76,13056
77,13056
78,13055
79,13054
80,13054
81,13054
82,13054
83,13054
84,13054
85,13054
87,13053
88,13053
90,13053
91,13054
93,13054
94,13054
95,13054
96,13054
97,13054
98,13054
99,13055
100,13056
101,13056
101,13057
101,13056
101,13057
102,13057
102,13058
103,13058
103,13059
" style="stroke:#000000;stroke-width:0;
stroke-linejoin:bevel; stroke-linecap:round;
fill:#000000;
"/>
<!-- Line -->
<!--  spline  -->
<polyline points="137,13050
136,13052
136,13054
135,13056
134,13057
133,13058
131,13059
128,13061
125,13062
123,13063
121,13064
117,13065
113,13066
111,13066
110,13066
109,13066
104,13067
99,13067
95,13068
91,13068
89,13068
88,13068
84,13068
78,13067
74,13067
73,13067
71,13067
68,13067
64,13066
60,13065
56,13064
54,13063
52,13062
49,13061
46,13059
45,13059
44,13058
42,13056
41,13054
40,13052
40,13051
40,13050
41,13048
41,13046
42,13044
43,13043
44,13042
46,13041
49,13039
52,13038
54,13037
56,13036
60,13035
64,13034
66,13034
68,13034
73,13033
78,13033
83,13032
86,13032
89,13032
90,13032
94,13032
99,13033
103,13033
104,13033
106,13033
109,13033
113,13034
117,13035
121,13036
123,13037
125,13038
128,13039
131,13041
132,13041
133,13042
135,13044
136,13046
137,13048
137,13049
137,13050
" style="stroke:#ffffff;stroke-width:0;
stroke-linejoin:bevel; stroke-linecap:round;
fill:#ffffff;
"/>
<!-- Line -->
<!--  spline  -->
<polyline points="137,13050
136,13052
136,13054
135,13056
134,13057
133,13058
131,13059
128,13061
125,13062
123,13063
121,13064
117,13065
113,13066
111,13066
110,13066
109,13066
104,13067
99,13067
95,13068
91,13068
89,13068
88,13068
84,13068
78,13067
74,13067
73,13067
71,13067
68,13067
64,13066
60,13065
56,13064
54,13063
52,13062
49,13061
46,13059
45,13059
44,13058
42,13056
41,13054
40,13052
40,13051
40,13050
41,13048
41,13046
42,13044
43,13043
44,13042
46,13041
49,13039
52,13038
54,13037
56,13036
60,13035
64,13034
66,13034
68,13034
73,13033
78,13033
83,13032
86,13032
89,13032
90,13032
94,13032
99,13033
103,13033
104,13033
106,13033
109,13033
113,13034
117,13035
121,13036
123,13037
125,13038
128,13039
131,13041
132,13041
133,13042
135,13044
136,13046
137,13048
137,13049
137,13050
" style="stroke:#000000;stroke-width:7;
stroke-linejoin:bevel; stroke-linecap:round;
"/>
<!-- Line -->
<!--  spline  -->
<polyline points="103,13049
103,13050
102,13050
102,13051
101,13051
101,13052
100,13052
99,13052
99,13053
98,13053
97,13053
96,13053
95,13054
94,13054
93,13054
91,13054
90,13054
89,13054
88,13054
87,13054
85,13054
84,13054
83,13054
82,13054
81,13053
80,13053
79,13053
78,13053
78,13052
77,13052
76,13052
76,13051
75,13051
75,13050
74,13050
74,13049
74,13048
75,13048
75,13047
76,13047
76,13046
77,13046
78,13045
79,13044
80,13044
81,13044
82,13044
83,13044
84,13044
85,13044
87,13043
88,13043
90,13043
91,13044
93,13044
94,13044
95,13044
96,13044
97,13044
98,13044
99,13045
100,13046
101,13046
101,13047
101,13046
101,13047
102,13047
102,13048
103,13048
103,13049
" style="stroke:#000000;stroke-width:0;
stroke-linejoin:bevel; stroke-linecap:round;
fill:#000000;
"/>
<!-- Line -->
<!--  spline  -->
<polyline points="137,13010
136,13012
136,13014
135,13016
134,13017
133,13018
131,13019
128,13021
125,13022
123,13023
121,13024
117,13025
113,13026
111,13026
110,13026
109,13026
104,13027
99,13027
95,13028
91,13028
89,13028
88,13028
84,13028
78,13027
74,13027
73,13027
71,13027
68,13027
64,13026
60,13025
56,13024
54,13023
52,13022
49,13021
46,13019
45,13019
44,13018
42,13016
41,13014
40,13012
40,13011
40,13010
41,13008
41,13006
42,13004
43,13003
44,13002
46,13001
49,12999
52,12998
54,12997
56,12996
60,12995
64,12994
66,12994
68,12994
73,12993
78,12993
83,12992
86,12992
89,12992
90,12992
94,12992
99,12993
103,12993
104,12993
106,12993
109,12993
113,12994
117,12995
121,12996
123,12997
125,12998
128,12999
131,13001
132,13001
133,13002
135,13004
136,13006
137,13008
137,13009
137,13010
" style="stroke:#ffffff;stroke-width:0;
stroke-linejoin:bevel; stroke-linecap:round;
fill:#ffffff;
"/>
<!-- Line -->
<!--  spline  -->
<polyline points="137,13010
136,13012
136,13014
135,13016
134,13017
133,13018
131,13019
128,13021
125,13022
123,13023
121,13024
117,13025
113,13026
111,13026
110,13026
109,13026
104,13027
99,13027
95,13028
91,13028
89,13028
88,13028
84,13028
78,13027
74,13027
73,13027
71,13027
68,13027
64,13026
60,13025
56,13024
54,13023
52,13022
49,13021
46,13019
45,13019
44,13018
42,13016
41,13014
40,13012
40,13011
40,13010
41,13008
41,13006
42,13004
43,13003
44,13002
46,13001
49,12999
52,12998
54,12997
56,12996
60,12995
64,12994
66,12994
68,12994
73,12993
78,12993
83,12992
86,12992
89,12992
90,12992
94,12992
99,12993
103,12993
104,12993
106,12993
109,12993
113,12994
117,12995
121,12996
123,12997
125,12998
128,12999
131,13001
132,13001
133,13002
135,13004
136,13006
137,13008
137,13009
137,13010
" style="stroke:#000000;stroke-width:7;
stroke-linejoin:bevel; stroke-linecap:round;
"/>
<!-- Line -->
<!--  spline  -->
<polyline points="103,13009
103,13010
102,13010
102,13011
101,13011
101,13012
100,13012
99,13012
99,13013
98,13013
97,13013
96,13013
95,13014
94,13014
93,13014
91,13014
90,13014
89,13014
88,13014
87,13014
85,13014
84,13014
83,13014
82,13014
81,13013
80,13013
79,13013
78,13013
78,13012
77,13012
76,13012
76,13011
75,13011
75,13010
74,13010
74,13009
74,13008
75,13008
75,13007
76,13007
76,13006
77,13006
78,13005
79,13004
80,13004
81,13004
82,13004
83,13004
84,13004
85,13004
87,13003
88,13003
90,13003
91,13004
93,13004
94,13004
95,13004
96,13004
97,13004
98,13004
99,13005
100,13006
101,13006
101,13007
101,13006
101,13007
102,13007
102,13008
103,13008
103,13009
" style="stroke:#000000;stroke-width:0;
stroke-linejoin:bevel; stroke-linecap:round;
fill:#000000;
"/>
<!-- Line -->
<!--  spline  -->
<polyline points="103,12999
103,13000
102,13000
102,13001
101,13001
101,13002
100,13002
99,13002
99,13003
98,13003
97,13003
96,13003
95,13004
94,13004
93,13004
91,13004
90,13004
89,13004
88,13004
87,13004
85,13004
84,13004
83,13004
82,13004
81,13003
80,13003
79,13003
78,13003
78,13002
77,13002
76,13002
76,13001
75,13001
75,13000
74,13000
74,12999
74,12998
75,12998
75,12997
76,12997
76,12996
77,12996
78,12995
79,12994
80,12994
81,12994
82,12994
83,12994
84,12994
85,12994
87,12993
88,12993
90,12993
91,12994
93,12994
94,12994
95,12994
96,12994
97,12994
98,12994
99,12995
100,12996
101,12996
101,12997
101,12996
101,12997
102,12997
102,12998
103,12998
103,12999
" style="stroke:#000000;stroke-width:0;
stroke-linejoin:bevel; stroke-linecap:round;
fill:#000000;
"/>
<!-- Line -->
<!--  spline  -->
<polyline points="137,12990
136,12992
136,12994
135,12996
134,12997
133,12998
131,12999
128,13001
125,13002
123,13003
121,13004
117,13005
113,13006
111,13006
110,13006
109,13006
104,13007
99,13007
95,13008
91,13008
89,13008
88,13008
84,13008
78,13007
74,13007
73,13007
71,13007
68,13007
64,13006
60,13005
56,13004
54,13003
52,13002
49,13001
46,12999
45,12999
44,12998
42,12996
41,12994
40,12992
40,12991
40,12990
41,12988
41,12986
42,12984
43,12983
44,12982
46,12981
49,12979
52,12978
54,12977
56,12976
60,12975
64,12974
66,12973
68,12973
73,12972
78,12972
83,12972
86,12972
89,12972
90,12972
94,12972
99,12972
103,12972
104,12972
106,12972
109,12973
113,12974
117,12975
121,12976
123,12977
125,12978
128,12979
131,12981
132,12981
133,12982
135,12984
136,12986
137,12988
137,12989
137,12990
" style="stroke:#ffffff;stroke-width:0;
stroke-linejoin:bevel; stroke-linecap:round;
fill:#ffffff;
"/>
<!-- Line -->
<!--  spline  -->
<polyline points="137,12990
136,12992
136,12994
135,12996
134,12997
133,12998
131,12999
128,13001
125,13002
123,13003
121,13004
117,13005
113,13006
111,13006
110,13006
109,13006
104,13007
99,13007
95,13008
91,13008
89,13008
88,13008
84,13008
78,13007
74,13007
73,13007
71,13007
68,13007
64,13006
60,13005
56,13004
54,13003
52,13002
49,13001
46,12999
45,12999
44,12998
42,12996
41,12994
40,12992
40,12991
40,12990
41,12988
41,12986
42,12984
43,12983
44,12982
46,12981
49,12979
52,12978
54,12977
56,12976
60,12975
64,12974
66,12973
68,12973
73,12972
78,12972
83,12972
86,12972
89,12972
90,12972
94,12972
99,12972
103,12972
104,12972
106,12972
109,12973
113,12974
117,12975
121,12976
123,12977
125,12978
128,12979
131,12981
132,12981
133,12982
135,12984
136,12986
137,12988
137,12989
137,12990
" style="stroke:#000000;stroke-width:7;
stroke-linejoin:bevel; stroke-linecap:round;
"/>
<!-- Line -->
<!--  spline  -->
<polyline points="103,12989
103,12990
102,12990
102,12991
101,12991
101,12992
100,12992
99,12992
99,12993
98,12993
97,12993
96,12993
95,12994
94,12994
93,12994
91,12994
90,12994
89,12994
88,12994
87,12994
85,12994
84,12994
83,12994
82,12994
81,12993
80,12993
79,12993
78,12993
78,12992
77,12992
76,12992
76,12991
75,12991
75,12990
74,12990
74,12989
74,12988
75,12988
75,12987
76,12987
76,12986
77,12986
78,12985
79,12984
80,12984
81,12984
82,12984
83,12984
84,12984
85,12984
87,12983
88,12983
90,12983
91,12984
93,12984
94,12984
95,12984
96,12984
97,12984
98,12984
99,12985
100,12986
101,12986
101,12987
101,12986
101,12987
102,12987
102,12988
103,12988
103,12989
" style="stroke:#000000;stroke-width:0;
stroke-linejoin:bevel; stroke-linecap:round;
fill:#000000;
"/>
<!-- Line -->
<!--  spline  -->
<polyline points="103,12979
103,12980
102,12980
102,12981
101,12981
101,12982
100,12982
99,12982
99,12983
98,12983
97,12983
96,12983
95,12984
94,12984
93,12984
91,12984
90,12984
89,12984
88,12984
87,12984
85,12984
84,12984
83,12984
82,12984
81,12983
80,12983
79,12983
78,12983
78,12982
77,12982
76,12982
76,12981
75,12981
75,12980
74,12980
74,12979
74,12978
75,12978
75,12977
76,12977
76,12976
77,12976
78,12975
79,12974
80,12974
81,12974
82,12974
83,12974
84,12974
85,12974
87,12973
88,12973
90,12973
91,12974
93,12974
94,12974
95,12974
96,12974
97,12974
98,12974
99,12975
100,12976
101,12976
101,12977
101,12976
101,12977
102,12977
102,12978
103,12978
103,12979
" style="stroke:#000000;stroke-width:0;
stroke-linejoin:bevel; stroke-linecap:round;
fill:#000000;
"/>
<!-- Line -->
<!--  spline  -->
<polyline points="137,12970
136,12972
136,12974
135,12976
134,12977
133,12978
131,12979
128,12981
125,12982
123,12983
121,12984
117,12985
113,12986
111,12986
110,12986
109,12986
104,12987
99,12987
95,12988
91,12988
89,12988
88,12988
84,12988
78,12987
74,12987
73,12987
71,12987
68,12987
64,12986
60,12985
56,12984
54,12983
52,12982
49,12981
46,12979
45,12979
44,12978
42,12976
41,12974
40,12972
40,12971
40,12970
41,12968
41,12966
42,12964
43,12963
44,12962
46,12961
49,12959
52,12958
54,12957
56,12956
60,12955
64,12954
66,12953
68,12953
73,12952
78,12952
83,12952
86,12952
89,12952
90,12952
94,12952
99,12952
103,12952
104,12952
106,12952
109,12953
113,12954
117,12955
121,12956
123,12957
125,12958
128,12959
131,12961
132,12961
133,12962
135,12964
136,12966
137,12968
137,12969
137,12970
" style="stroke:#ffffff;stroke-width:0;
stroke-linejoin:bevel; stroke-linecap:round;
fill:#ffffff;
"/>
<!-- Line -->
<!--  spline  -->
<polyline points="137,12970
136,12972
136,12974
135,12976
134,12977
133,12978
131,12979
128,12981
125,12982
123,12983
121,12984
117,12985
113,12986
111,12986
110,12986
109,12986
104,12987
99,12987
95,12988
91,12988
89,12988
88,12988
84,12988
78,12987
74,12987
73,12987
71,12987
68,12987
64,12986
60,12985
56,12984
54,12983
52,12982
49,12981
46,12979
45,12979
44,12978
42,12976
41,12974
40,12972
40,12971
40,12970
41,12968
41,12966
42,12964
43,12963
44,12962
46,12961
49,12959
52,12958
54,12957
56,12956
60,12955
64,12954
66,12953
68,12953
73,12952
78,12952
83,12952
86,12952
89,12952
90,12952
94,12952
99,12952
103,12952
104,12952
106,12952
109,12953
113,12954
117,12955
121,12956
123,12957
125,12958
128,12959
131,12961
132,12961
133,12962
135,12964
136,12966
137,12968
137,12969
137,12970
" style="stroke:#000000;stroke-width:7;
stroke-linejoin:bevel; stroke-linecap:round;
"/>
<!-- Line -->
<!--  spline  -->
<polyline points="103,12969
103,12970
102,12970
102,12971
101,12971
101,12972
100,12972
99,12972
99,12973
98,12973
97,12973
96,12973
95,12974
94,12974
93,12974
91,12974
90,12974
89,12974
88,12974
87,12974
85,12974
84,12974
83,12974
82,12974
81,12973
80,12973
79,12973
78,12973
78,12972
77,12972
76,12972
76,12971
75,12971
75,12970
74,12970
74,12969
74,12968
75,12968
75,12967
76,12967
76,12966
77,12966
78,12965
79,12964
80,12964
81,12964
82,12964
83,12964
84,12964
85,12964
87,12963
88,12963
90,12963
91,12964
93,12964
94,12964
95,12964
96,12964
97,12964
98,12964
99,12965
100,12966
101,12966
101,12967
101,12966
101,12967
102,12967
102,12968
103,12968
103,12969
" style="stroke:#000000;stroke-width:0;
stroke-linejoin:bevel; stroke-linecap:round;
fill:#000000;
"/>
<!-- Line -->
<!--  spline  -->
<polyline points="137,12930
136,12932
136,12934
135,12936
134,12937
133,12938
131,12939
128,12941
125,12942
123,12943
121,12944
117,12945
113,12946
111,12946
110,12946
109,12946
104,12947
99,12947
95,12948
91,12948
89,12948
88,12948
84,12948
78,12947
74,12947
73,12947
71,12947
68,12947
64,12946
60,12945
56,12944
54,12943
52,12942
49,12941
46,12939
45,12939
44,12938
42,12936
41,12934
40,12932
40,12931
40,12930
41,12928
41,12926
42,12924
43,12923
44,12922
46,12921
49,12919
52,12918
54,12917
56,12916
60,12915
64,12914
66,12914
68,12914
73,12913
78,12913
83,12912
86,12912
89,12912
90,12912
94,12912
99,12913
103,12913
104,12913
106,12913
109,12913
113,12914
117,12915
121,12916
123,12917
125,12918
128,12919
131,12921
132,12921
133,12922
135,12924
136,12926
137,12928
137,12929
137,12930
" style="stroke:#ffffff;stroke-width:0;
stroke-linejoin:bevel; stroke-linecap:round;
fill:#ffffff;
"/>
<!-- Line -->
<!--  spline  -->
<polyline points="137,12930
136,12932
136,12934
135,12936
134,12937
133,12938
131,12939
128,12941
125,12942
123,12943
121,12944
117,12945
113,12946
111,12946
110,12946
109,12946
104,12947
99,12947
95,12948
91,12948
89,12948
88,12948
84,12948
78,12947
74,12947
73,12947
71,12947
68,12947
64,12946
60,12945
56,12944
54,12943
52,12942
49,12941
46,12939
45,12939
44,12938
42,12936
41,12934
40,12932
40,12931
40,12930
41,12928
41,12926
42,12924
43,12923
44,12922
46,12921
49,12919
52,12918
54,12917
56,12916
60,12915
64,12914
66,12914
68,12914
73,12913
78,12913
83,12912
86,12912
89,12912
90,12912
94,12912
99,12913
103,12913
104,12913
106,12913
109,12913
113,12914
117,12915
121,12916
123,12917
125,12918
128,12919
131,12921
132,12921
133,12922
135,12924
136,12926
137,12928
137,12929
137,12930
" style="stroke:#000000;stroke-width:7;
stroke-linejoin:bevel; stroke-linecap:round;
"/>
<!-- Line -->
<!--  spline  -->
<polyline points="103,12929
103,12930
102,12930
102,12931
101,12931
101,12932
100,12932
99,12932
99,12933
98,12933
97,12933
96,12933
95,12934
94,12934
93,12934
91,12934
90,12934
89,12934
88,12934
87,12934
85,12934
84,12934
83,12934
82,12934
81,12933
80,12933
79,12933
78,12933
78,12932
77,12932
76,12932
76,12931
75,12931
75,12930
74,12930
74,12929
74,12928
75,12928
75,12927
76,12927
76,12926
77,12926
78,12925
79,12924
80,12924
81,12924
82,12924
83,12924
84,12924
85,12924
87,12923
88,12923
90,12923
91,12924
93,12924
94,12924
95,12924
96,12924
97,12924
98,12924
99,12925
100,12926
101,12926
101,12927
101,12926
101,12927
102,12927
102,12928
103,12928
103,12929
" style="stroke:#000000;stroke-width:0;
stroke-linejoin:bevel; stroke-linecap:round;
fill:#000000;
"/>
<!-- Line -->
<!--  spline  -->
<polyline points="103,12919
103,12920
102,12920
102,12921
101,12921
101,12922
100,12922
99,12922
99,12923
98,12923
97,12923
96,12923
95,12924
94,12924
93,12924
91,12924
90,12924
89,12924
88,12924
87,12924
85,12924
84,12924
83,12924
82,12924
81,12923
80,12923
79,12923
78,12923
78,12922
77,12922
76,12922
76,12921
75,12921
75,12920
74,12920
74,12919
74,12918
75,12918
75,12917
76,12917
76,12916
77,12916
78,12915
79,12914
80,12914
81,12914
82,12914
83,12914
84,12914
85,12914
87,12913
88,12913
90,12913
91,12914
93,12914
94,12914
95,12914
96,12914
97,12914
98,12914
99,12915
100,12916
101,12916
101,12917
101,12916
101,12917
102,12917
102,12918
103,12918
103,12919
" style="stroke:#000000;stroke-width:0;
stroke-linejoin:bevel; stroke-linecap:round;
fill:#000000;
"/>
<!-- Line -->
<!--  spline  -->
<polyline points="137,12910
136,12912
136,12914
135,12916
134,12917
133,12918
131,12919
128,12921
125,12922
123,12923
121,12924
117,12925
113,12926
111,12926
110,12926
109,12926
104,12927
99,12927
95,12928
91,12928
89,12928
88,12928
84,12928
78,12927
74,12927
73,12927
71,12927
68,12927
64,12926
60,12925
56,12924
54,12923
52,12922
49,12921
46,12919
45,12919
44,12918
42,12916
41,12914
40,12912
40,12911
40,12910
41,12908
41,12906
42,12904
43,12903
44,12902
46,12901
49,12899
52,12898
54,12897
56,12896
60,12895
64,12894
66,12894
68,12894
73,12893
78,12893
83,12892
86,12892
89,12892
90,12892
94,12892
99,12893
103,12893
104,12893
106,12893
109,12893
113,12894
117,12895
121,12896
123,12897
125,12898
128,12899
131,12901
132,12901
133,12902
135,12904
136,12906
137,12908
137,12909
137,12910
" style="stroke:#ffffff;stroke-width:0;
stroke-linejoin:bevel; stroke-linecap:round;
fill:#ffffff;
"/>
<!-- Line -->
<!--  spline  -->
<polyline points="137,12910
136,12912
136,12914
135,12916
134,12917
133,12918
131,12919
128,12921
125,12922
123,12923
121,12924
117,12925
113,12926
111,12926
110,12926
109,12926
104,12927
99,12927
95,12928
91,12928
89,12928
88,12928
84,12928
78,12927
74,12927
73,12927
71,12927
68,12927
64,12926
60,12925
56,12924
54,12923
52,12922
49,12921
46,12919
45,12919
44,12918
42,12916
41,12914
40,12912
40,12911
40,12910
41,12908
41,12906
42,12904
43,12903
44,12902
46,12901
49,12899
52,12898
54,12897
56,12896
60,12895
64,12894
66,12894
68,12894
73,12893
78,12893
83,12892
86,12892
89,12892
90,12892
94,12892
99,12893
103,12893
104,12893
106,12893
109,12893
113,12894
117,12895
121,12896
123,12897
125,12898
128,12899
131,12901
132,12901
133,12902
135,12904
136,12906
137,12908
137,12909
137,12910
" style="stroke:#000000;stroke-width:7;
stroke-linejoin:bevel; stroke-linecap:round;
"/>
<!-- Line -->
<!--  spline  -->
<polyline points="103,12909
103,12910
102,12910
102,12911
101,12911
101,12912
100,12912
99,12912
99,12913
98,12913
97,12913
96,12913
95,12914
94,12914
93,12914
91,12914
90,12914
89,12914
88,12914
87,12914
85,12914
84,12914
83,12914
82,12914
81,12913
80,12913
79,12913
78,12913
78,12912
77,12912
76,12912
76,12911
75,12911
75,12910
74,12910
74,12909
74,12908
75,12908
75,12907
76,12907
76,12906
77,12906
78,12905
79,12904
80,12904
81,12904
82,12904
83,12904
84,12904
85,12904
87,12903
88,12903
90,12903
91,12904
93,12904
94,12904
95,12904
96,12904
97,12904
98,12904
99,12905
100,12906
101,12906
101,12907
101,12906
101,12907
102,12907
102,12908
103,12908
103,12909
" style="stroke:#000000;stroke-width:0;
stroke-linejoin:bevel; stroke-linecap:round;
fill:#000000;
"/>
<!-- Line -->
<!--  spline  -->
<polyline points="103,12899
103,12900
102,12900
102,12901
101,12901
101,12902
100,12902
99,12902
99,12903
98,12903
97,12903
96,12903
95,12904
94,12904
93,12904
91,12904
90,12904
89,12904
88,12904
87,12904
85,12904
84,12904
83,12904
82,12904
81,12903
80,12903
79,12903
78,12903
78,12902
77,12902
76,12902
76,12901
75,12901
75,12900
74,12900
74,12899
74,12898
75,12898
75,12897
76,12897
76,12896
77,12896
78,12895
79,12894
80,12894
81,12894
82,12894
83,12894
84,12894
85,12894
87,12893
88,12893
90,12893
91,12894
93,12894
94,12894
95,12894
96,12894
97,12894
98,12894
99,12895
100,12896
101,12896
101,12897
101,12896
101,12897
102,12897
102,12898
103,12898
103,12899
" style="stroke:#000000;stroke-width:0;
stroke-linejoin:bevel; stroke-linecap:round;
fill:#000000;
"/>
<!-- Line -->
<!--  spline  -->
<polyline points="137,12890
136,12892
136,12894
135,12896
134,12897
133,12898
131,12899
128,12901
125,12902
123,12903
121,12904
117,12905
113,12906
111,12906
110,12906
109,12906
104,12907
99,12907
95,12908
91,12908
89,12908
88,12908
84,12908
78,12907
74,12907
73,12907
71,12907
68,12907
64,12906
60,12905
56,12904
54,12903
52,12902
49,12901
46,12899
45,12899
44,12898
42,12896
41,12894
40,12892
40,12891
40,12890
41,12888
41,12886
42,12884
43,12883
44,12882
46,12881
49,12879
52,12878
54,12877
56,12876
60,12875
64,12874
66,12873
68,12873
73,12872
78,12872
83,12872
86,12872
89,12872
90,12872
94,12872
99,12872
103,12872
104,12872
106,12872
109,12873
113,12874
117,12875
121,12876
123,12877
125,12878
128,12879
131,12881
132,12881
133,12882
135,12884
136,12886
137,12888
137,12889
137,12890
" style="stroke:#ffffff;stroke-width:0;
stroke-linejoin:bevel; stroke-linecap:round;
fill:#ffffff;
"/>
<!-- Line -->
<!--  spline  -->
<polyline points="137,12890
136,12892
136,12894
135,12896
134,12897
133,12898
131,12899
128,12901
125,12902
123,12903
121,12904
117,12905
113,12906
111,12906
110,12906
109,12906
104,12907
99,12907
95,12908
91,12908
89,12908
88,12908
84,12908
78,12907
74,12907
73,12907
71,12907
68,12907
64,12906
60,12905
56,12904
54,12903
52,12902
49,12901
46,12899
45,12899
44,12898
42,12896
41,12894
40,12892
40,12891
40,12890
41,12888
41,12886
42,12884
43,12883
44,12882
46,12881
49,12879
52,12878
54,12877
56,12876
60,12875
64,12874
66,12873
68,12873
73,12872
78,12872
83,12872
86,12872
89,12872
90,12872
94,12872
99,12872
103,12872
104,12872
106,12872
109,12873
113,12874
117,12875
121,12876
123,12877
125,12878
128,12879
131,12881
132,12881
133,12882
135,12884
136,12886
137,12888
137,12889
137,12890
" style="stroke:#000000;stroke-width:7;
stroke-linejoin:bevel; stroke-linecap:round;
"/>
<!-- Line -->
<!--  spline  -->
<polyline points="103,12889
103,12890
102,12890
102,12891
101,12891
101,12892
100,12892
99,12892
99,12893
98,12893
97,12893
96,12893
95,12894
94,12894
93,12894
91,12894
90,12894
89,12894
88,12894
87,12894
85,12894
84,12894
83,12894
82,12894
81,12893
80,12893
79,12893
78,12893
78,12892
77,12892
76,12892
76,12891
75,12891
75,12890
74,12890
74,12889
74,12888
75,12888
75,12887
76,12887
76,12886
77,12886
78,12885
79,12884
80,12884
81,12884
82,12884
83,12884
84,12884
85,12884
87,12883
88,12883
90,12883
91,12884
93,12884
94,12884
95,12884
96,12884
97,12884
98,12884
99,12885
100,12886
101,12886
101,12887
101,12886
101,12887
102,12887
102,12888
103,12888
103,12889
" style="stroke:#000000;stroke-width:0;
stroke-linejoin:bevel; stroke-linecap:round;
fill:#000000;
"/>
</g>
</svg>
