<?xml version="1.0" standalone="no"?>
<!DOCTYPE svg PUBLIC "-//W3C//DTD SVG 1.1//EN"
"http://www.w3.org/Graphics/SVG/1.1/DTD/svg11.dtd">
<!-- Creator: fig2dev Version 3.2 Patchlevel 5c -->
<!-- CreationDate: Fri Sep 14 10:46:30 2012 -->
<!-- Magnification: 1.000 -->
<svg xmlns="http://www.w3.org/2000/svg" width="0.4in" height="0.2in" viewBox="-24 12993 424 228">
<g style="stroke-width:.025in; fill:none">
<!-- Line -->
<!--  spline  -->
<polyline points="106,13116
107,13116
110,13115
114,13115
117,13114
118,13114
120,13113
122,13113
125,13111
128,13109
131,13107
132,13106
133,13105
134,13104
136,13101
138,13098
139,13096
140,13095
140,13094
142,13090
143,13086
144,13083
144,13081
144,13079
144,13078
143,13075
143,13071
142,13068
142,13067
141,13065
140,13063
138,13061
136,13057
134,13054
133,13052
132,13052
131,13051
128,13048
125,13046
124,13045
123,13045
122,13044
118,13043
114,13042
111,13041
108,13041
106,13041
105,13041
102,13042
98,13042
95,13043
94,13043
92,13044
90,13044
87,13046
84,13048
81,13051
80,13052
79,13052
78,13054
76,13057
74,13060
73,13062
72,13063
71,13067
70,13071
69,13074
69,13077
69,13079
69,13080
70,13082
70,13087
71,13089
71,13090
72,13092
72,13094
74,13097
76,13101
78,13104
79,13105
80,13106
81,13107
84,13109
87,13111
88,13112
89,13112
90,13113
94,13114
98,13115
101,13116
104,13116
106,13116
" style="stroke:#b2b2b2;stroke-width:30;
stroke-linejoin:bevel; stroke-linecap:butt;
"/>
<!-- Line -->
<!--  spline  -->
<polyline points="106,13188
107,13188
110,13188
114,13187
117,13187
118,13187
120,13186
122,13185
125,13183
128,13181
131,13179
132,13178
133,13177
134,13176
136,13173
138,13170
139,13169
140,13168
140,13167
142,13163
143,13159
144,13156
144,13153
144,13151
144,13150
143,13147
143,13143
142,13140
142,13139
141,13137
140,13135
138,13132
136,13129
134,13126
133,13125
132,13124
131,13123
128,13121
125,13119
124,13118
123,13118
122,13117
118,13116
114,13115
111,13114
108,13114
106,13114
105,13114
102,13115
98,13115
95,13116
94,13116
92,13117
90,13117
87,13119
84,13121
81,13123
80,13124
79,13125
78,13126
76,13129
74,13132
73,13133
73,13134
72,13135
71,13139
70,13143
69,13146
69,13149
69,13151
69,13152
70,13155
70,13159
71,13162
71,13163
72,13165
72,13167
74,13170
76,13173
78,13176
79,13177
80,13178
81,13179
84,13181
87,13183
88,13184
89,13185
90,13186
94,13187
98,13188
101,13188
104,13188
106,13188
" style="stroke:#b2b2b2;stroke-width:30;
stroke-linejoin:bevel; stroke-linecap:butt;
"/>
<!-- Line -->
<!--  spline  -->
<polyline points="51,13144
54,13144
57,13143
60,13143
62,13142
64,13141
66,13140
69,13138
71,13136
72,13135
73,13135
73,13134
75,13132
77,13130
77,13129
77,13128
78,13127
79,13124
80,13121
81,13118
81,13116
81,13114
80,13111
80,13108
79,13105
79,13104
78,13102
77,13100
75,13097
73,13095
73,13093
72,13093
71,13092
69,13090
66,13088
65,13088
64,13087
63,13087
60,13086
57,13085
54,13085
52,13085
51,13085
48,13085
45,13086
42,13086
40,13086
38,13087
36,13088
33,13090
31,13092
30,13093
29,13093
29,13095
27,13097
25,13100
25,13101
24,13102
23,13105
22,13108
21,13111
21,13113
21,13114
21,13115
22,13117
22,13121
23,13123
23,13124
23,13125
24,13127
25,13129
27,13132
29,13134
29,13135
30,13135
31,13136
33,13138
36,13140
37,13141
38,13141
39,13142
42,13143
45,13144
48,13144
50,13144
51,13144
" style="stroke:#b2b2b2;stroke-width:30;
stroke-linejoin:bevel; stroke-linecap:butt;
"/>
<!-- Line -->
<!--  spline  -->
<polyline points="141,13056
141,13058
141,13062
141,13064
141,13065
142,13067
142,13069
143,13072
144,13074
144,13075
145,13076
145,13077
146,13079
147,13082
147,13083
148,13083
148,13084
149,13087
150,13090
151,13092
152,13094
152,13095
153,13097
154,13098
155,13100
155,13101
156,13102
157,13103
159,13105
161,13107
162,13107
162,13108
163,13108
165,13110
167,13111
168,13112
169,13113
171,13114
173,13115
175,13116
176,13117
177,13117
" style="stroke:#b2b2b2;stroke-width:30;
stroke-linejoin:bevel; stroke-linecap:butt;
"/>
<!-- Line -->
<!--  spline  -->
<polyline points="141,13176
141,13174
141,13170
141,13168
141,13167
142,13165
142,13163
143,13160
144,13158
144,13157
145,13156
145,13155
146,13153
147,13150
147,13149
148,13149
148,13148
149,13145
150,13142
151,13140
152,13139
152,13138
153,13136
154,13134
155,13132
155,13131
156,13130
157,13129
159,13127
161,13125
162,13125
162,13124
163,13124
165,13122
167,13121
168,13120
169,13119
171,13118
173,13117
175,13116
176,13115
177,13115
" style="stroke:#b2b2b2;stroke-width:30;
stroke-linejoin:bevel; stroke-linecap:butt;
"/>
<!-- Line -->
<!--  spline  -->
<polyline points="94,13100
95,13100
98,13099
102,13099
105,13098
106,13098
108,13097
110,13097
113,13095
116,13093
119,13091
120,13090
121,13089
122,13088
124,13085
126,13082
127,13081
127,13080
128,13079
129,13075
130,13071
131,13068
131,13065
131,13063
131,13062
130,13059
130,13055
129,13052
129,13051
128,13049
128,13047
126,13044
124,13041
122,13038
121,13037
120,13036
119,13035
116,13033
113,13031
112,13030
111,13030
110,13029
106,13028
102,13027
99,13026
96,13026
94,13026
93,13026
90,13027
86,13027
83,13028
82,13028
80,13029
78,13029
75,13031
72,13033
69,13035
68,13036
67,13037
66,13038
64,13041
62,13044
61,13045
60,13046
59,13047
58,13051
57,13055
57,13058
57,13061
57,13063
57,13064
57,13067
58,13071
58,13074
58,13075
59,13077
60,13079
62,13082
64,13085
66,13088
67,13089
68,13090
69,13091
72,13093
75,13095
76,13096
77,13096
78,13097
82,13098
86,13099
89,13100
92,13100
94,13100
" style="stroke:#02709f;stroke-width:30;
stroke-linejoin:bevel; stroke-linecap:butt;
"/>
<!-- Line -->
<!--  spline  -->
<polyline points="94,13173
95,13173
98,13172
102,13172
105,13171
106,13171
108,13170
110,13170
113,13168
116,13166
119,13164
120,13163
121,13162
122,13161
124,13158
126,13155
127,13153
127,13152
128,13151
129,13147
130,13143
131,13140
131,13138
131,13136
131,13135
130,13132
130,13128
129,13125
129,13124
128,13122
128,13120
126,13117
124,13113
122,13110
121,13109
120,13108
119,13107
116,13105
113,13103
112,13102
111,13102
110,13101
106,13100
102,13099
99,13098
96,13098
94,13098
93,13098
90,13099
86,13099
83,13100
82,13100
80,13101
78,13101
75,13103
72,13105
69,13107
68,13108
67,13109
66,13110
64,13113
62,13116
61,13118
60,13119
59,13120
58,13124
57,13128
57,13132
57,13134
57,13136
57,13137
57,13139
58,13144
58,13146
58,13147
59,13149
60,13151
62,13154
64,13158
66,13161
67,13162
68,13163
69,13164
72,13166
75,13168
76,13169
77,13169
78,13170
82,13171
86,13172
89,13173
92,13173
94,13173
" style="stroke:#02709f;stroke-width:30;
stroke-linejoin:bevel; stroke-linecap:butt;
"/>
<!-- Line -->
<!--  spline  -->
<polyline points="39,13129
42,13128
45,13128
48,13127
49,13127
51,13126
53,13125
56,13123
58,13121
60,13120
61,13118
63,13116
65,13113
65,13112
66,13111
67,13108
68,13105
69,13102
69,13100
69,13099
69,13098
68,13096
68,13092
67,13090
67,13089
67,13088
66,13086
65,13084
63,13081
61,13079
60,13078
58,13077
56,13075
53,13073
52,13072
51,13071
48,13070
45,13069
42,13069
40,13069
39,13069
38,13069
36,13069
32,13070
30,13070
29,13070
28,13071
26,13072
24,13073
21,13075
19,13077
18,13078
17,13079
15,13081
13,13083
12,13084
12,13085
11,13086
10,13089
9,13092
9,13095
9,13097
9,13099
9,13102
10,13105
10,13108
11,13109
12,13111
13,13113
15,13116
17,13118
18,13120
19,13121
21,13123
23,13125
24,13125
25,13125
26,13126
29,13127
32,13128
35,13129
37,13129
39,13129
" style="stroke:#02709f;stroke-width:30;
stroke-linejoin:bevel; stroke-linecap:butt;
"/>
<!-- Line -->
<!--  spline  -->
<polyline points="128,13040
128,13042
129,13046
129,13048
129,13049
130,13051
130,13053
131,13056
132,13059
132,13060
132,13061
133,13064
134,13066
134,13067
134,13068
135,13069
136,13071
137,13074
138,13076
139,13078
140,13079
141,13081
142,13083
143,13085
144,13086
144,13087
145,13088
147,13090
149,13091
149,13092
150,13093
152,13094
154,13095
155,13096
156,13097
158,13098
160,13099
162,13100
164,13101
165,13101
" style="stroke:#02709f;stroke-width:30;
stroke-linejoin:bevel; stroke-linecap:butt;
"/>
<!-- Line -->
<!--  spline  -->
<polyline points="128,13161
128,13159
129,13155
129,13153
129,13152
130,13150
130,13148
131,13145
132,13142
132,13141
132,13140
133,13137
134,13135
134,13134
134,13133
135,13132
136,13130
137,13127
138,13125
139,13123
140,13122
141,13120
142,13118
143,13116
144,13115
144,13114
145,13113
147,13111
149,13110
149,13109
150,13108
152,13107
154,13106
155,13105
156,13104
158,13103
160,13102
162,13101
164,13100
165,13100
" style="stroke:#000000;stroke-width:30;
stroke-linejoin:bevel; stroke-linecap:butt;
"/>
<!-- Line -->
<!--  spline  -->
<polyline points="399,13139
399,13138
399,13131
399,13119
399,13108
399,13101
399,13100
398,13100
394,13100
383,13100
366,13100
342,13100
314,13100
286,13100
262,13100
245,13100
234,13100
230,13100
229,13100
229,13098
228,13097
228,13095
228,13094
227,13093
227,13092
226,13090
225,13089
225,13088
224,13087
223,13086
222,13086
221,13085
220,13085
219,13084
218,13084
217,13084
217,13085
216,13085
215,13085
215,13086
214,13086
213,13087
212,13088
212,13089
211,13090
210,13091
210,13092
210,13093
209,13095
208,13097
208,13098
207,13099
207,13100
206,13100
205,13100
204,13100
204,13098
203,13096
203,13094
203,13093
202,13092
202,13091
201,13090
200,13089
200,13088
199,13087
198,13086
198,13085
197,13085
196,13084
195,13084
194,13084
193,13084
192,13084
191,13084
190,13084
190,13085
189,13086
188,13087
187,13088
187,13089
186,13090
185,13091
185,13092
184,13094
183,13096
183,13098
182,13099
182,13100
181,13100
173,13100
163,13100
155,13100
154,13100
154,13102
154,13110
154,13122
154,13130
154,13132
155,13132
163,13132
174,13132
182,13132
183,13132
183,13134
184,13135
184,13137
184,13138
185,13139
185,13140
186,13141
187,13142
187,13143
188,13144
189,13145
190,13145
190,13146
191,13146
192,13146
193,13146
194,13146
195,13146
196,13146
197,13145
198,13144
199,13143
200,13143
200,13142
201,13141
202,13140
202,13139
202,13138
203,13137
203,13135
204,13134
204,13133
204,13132
205,13132
206,13132
207,13132
208,13134
208,13135
209,13137
209,13138
210,13139
210,13140
211,13141
212,13142
212,13143
213,13144
214,13145
215,13145
216,13146
217,13146
217,13147
218,13147
219,13147
220,13146
221,13146
222,13146
222,13145
223,13145
224,13144
225,13143
225,13142
226,13141
227,13140
227,13139
227,13138
228,13137
228,13135
229,13134
229,13133
229,13132
230,13132
235,13132
248,13132
268,13132
293,13132
318,13132
338,13132
351,13132
356,13132
357,13132
357,13134
357,13144
357,13163
357,13182
357,13192
357,13194
358,13194
365,13194
377,13194
389,13194
396,13194
397,13194
397,13193
397,13189
397,13184
397,13180
397,13179
396,13179
391,13179
385,13179
380,13179
379,13179
379,13178
379,13176
379,13171
379,13169
379,13168
380,13168
385,13168
392,13168
397,13168
398,13168
398,13167
398,13163
398,13158
398,13154
398,13153
397,13153
392,13153
385,13153
380,13153
379,13153
379,13152
379,13149
379,13143
379,13140
379,13139
380,13139
385,13139
393,13139
398,13139
399,13139
" style="stroke:#b2b2b2;stroke-width:0;
stroke-linejoin:bevel; stroke-linecap:butt;
fill:#b2b2b2;
"/>
<!-- Line -->
<!--  spline  -->
<polyline points="387,13123
387,13122
387,13115
387,13103
387,13092
387,13085
387,13084
386,13084
382,13084
371,13084
354,13084
330,13084
302,13084
274,13084
250,13084
233,13084
222,13084
218,13084
217,13084
216,13082
216,13081
215,13079
215,13078
215,13076
214,13075
213,13074
213,13073
212,13073
212,13072
211,13071
210,13070
210,13069
209,13069
208,13069
207,13069
206,13069
205,13069
204,13069
203,13069
202,13069
202,13070
201,13070
201,13071
200,13072
200,13073
200,13074
199,13075
198,13076
198,13077
198,13078
197,13079
196,13081
196,13082
195,13083
195,13084
194,13084
193,13084
192,13084
192,13082
191,13081
191,13079
191,13078
190,13077
190,13076
189,13074
188,13073
188,13072
187,13072
186,13071
185,13070
184,13069
183,13069
182,13068
181,13068
180,13068
179,13069
178,13069
177,13070
176,13071
175,13072
174,13072
174,13073
173,13074
172,13075
172,13076
172,13077
171,13079
171,13081
170,13082
170,13083
170,13084
169,13084
161,13084
150,13084
142,13084
141,13084
141,13086
141,13094
141,13106
141,13114
141,13116
142,13116
150,13116
161,13116
169,13116
170,13116
171,13118
171,13119
172,13121
172,13122
173,13123
173,13124
174,13125
175,13126
175,13127
176,13128
177,13129
178,13130
179,13130
180,13131
181,13131
182,13131
183,13130
184,13130
185,13130
185,13129
186,13128
187,13127
187,13126
188,13125
189,13124
189,13123
189,13122
190,13121
191,13119
191,13118
192,13117
192,13116
193,13116
194,13116
195,13116
196,13118
196,13119
197,13121
197,13122
198,13123
198,13124
199,13126
200,13127
200,13128
201,13129
202,13130
203,13131
204,13131
205,13132
206,13132
207,13132
208,13131
209,13131
210,13130
211,13129
212,13128
213,13128
213,13127
214,13126
215,13125
215,13124
215,13123
215,13121
216,13119
216,13118
217,13117
217,13116
218,13116
223,13116
236,13116
256,13116
281,13116
305,13116
325,13116
338,13116
343,13116
344,13116
344,13118
344,13128
344,13147
344,13166
344,13176
344,13178
345,13178
352,13178
365,13178
377,13178
384,13178
385,13178
385,13177
385,13173
385,13168
385,13164
385,13163
384,13163
379,13163
372,13163
367,13163
366,13163
366,13162
366,13160
366,13155
366,13153
366,13152
367,13152
372,13152
380,13152
385,13152
386,13152
386,13151
386,13147
386,13142
386,13138
386,13137
385,13137
380,13137
372,13137
367,13137
366,13137
366,13136
366,13133
366,13127
366,13124
366,13123
367,13123
372,13123
381,13123
386,13123
387,13123
" style="stroke:#02709f;stroke-width:0;
stroke-linejoin:bevel; stroke-linecap:butt;
fill:#02709f;
"/>
</g>
</svg>
