<?xml version="1.0" standalone="no"?>
<!DOCTYPE svg PUBLIC "-//W3C//DTD SVG 1.1//EN"
"http://www.w3.org/Graphics/SVG/1.1/DTD/svg11.dtd">
<!-- Creator: fig2dev Version 3.2 Patchlevel 5c -->
<!-- CreationDate: Fri Sep 14 10:46:30 2012 -->
<!-- Magnification: 1.000 -->
<svg xmlns="http://www.w3.org/2000/svg" width="0.5in" height="0.7in" viewBox="-1 12400 589 801">
<g style="stroke-width:.025in; fill:none">
<!-- Line -->
<!--  polyline  -->
<polyline points="587,12553
586,12538
585,12522
580,12507
576,12494
569,12481
562,12468
553,12456
543,12445
533,12435
520,12426
508,12419
495,12412
482,12408
467,12403
451,12402
437,12401
421,12402
406,12403
392,12408
377,12412
364,12419
352,12426
340,12435
330,12445
320,12456
311,12468
304,12481
297,12494
293,12507
288,12522
287,12538
286,12553
287,12567
288,12580
290,12593
295,12605
285,12601
278,12597
273,12595
271,12594
267,12593
263,12593
259,12594
257,12597
188,12671
186,12674
185,12676
184,12680
185,12683
187,12689
192,12702
198,12717
202,12730
198,12734
195,12738
191,12741
190,12742
189,12744
188,12747
187,12748
187,12751
187,12755
188,12763
188,12773
188,12781
184,12785
178,12792
168,12803
156,12815
142,12830
126,12847
110,12865
93,12883
76,12901
60,12919
44,12936
31,12950
19,12963
11,12972
4,12979
3,12980
1,12983
0,12987
0,12990
1,12993
20,13046
22,13050
25,13052
28,13053
32,13054
102,13052
105,13051
108,13051
109,13050
111,13048
128,13029
130,13027
130,13026
131,13023
131,13020
131,13019
131,13012
131,13005
130,12997
138,12997
146,12996
152,12996
154,12996
156,12996
159,12996
160,12995
162,12993
180,12974
183,12971
183,12965
182,12961
179,12957
176,12954
175,12949
175,12944
178,12939
182,12936
186,12934
191,12934
197,12938
201,12940
205,12941
210,12940
214,12938
231,12919
233,12917
234,12915
235,12913
235,12910
235,12908
235,12902
234,12895
234,12887
242,12886
250,12886
255,12886
257,12886
259,12886
261,12885
264,12883
265,12883
267,12881
271,12876
275,12872
279,12867
281,12867
285,12867
289,12867
294,12867
298,12871
303,12877
309,12883
312,12887
310,12934
308,13027
304,13119
302,13160
303,13164
304,13166
306,13169
309,13172
358,13198
362,13200
365,13200
370,13198
372,13196
424,13148
426,13146
427,13144
428,13141
428,13140
429,13114
429,13112
429,13109
427,13107
426,13105
424,13103
421,13100
415,13094
410,13088
416,13083
422,13077
425,13074
427,13072
429,13070
429,13068
430,13066
431,13063
432,13038
431,13033
429,13029
425,13027
420,13026
415,13025
412,13022
408,13019
407,13012
408,13008
411,13004
414,13001
421,13000
426,12999
429,12996
432,12993
434,12988
435,12963
435,12960
434,12958
432,12955
431,12954
429,12952
426,12947
421,12942
415,12937
422,12932
427,12926
430,12923
432,12921
434,12919
436,12916
437,12915
437,12912
437,12910
437,12904
437,12898
437,12891
443,12886
451,12880
457,12874
459,12871
460,12869
462,12867
463,12865
463,12862
464,12839
473,12830
480,12820
487,12811
493,12800
497,12788
501,12776
504,12763
504,12750
504,12735
502,12721
498,12707
494,12693
514,12683
532,12670
548,12655
562,12637
572,12618
580,12598
586,12576
587,12553
" style="stroke:#000000;stroke-width:0;
stroke-linejoin:miter; stroke-linecap:butt;
fill:#000000;
"/>
<!-- Line -->
<!--  polyline  -->
<polyline points="35,13016
43,13008
53,12997
64,12985
78,12971
92,12955
108,12939
123,12922
138,12905
154,12889
168,12873
183,12858
195,12844
205,12834
213,12825
220,12819
222,12815
224,12817
226,12818
227,12819
228,12821
226,12824
220,12830
212,12839
202,12850
190,12863
176,12877
161,12892
146,12909
130,12926
115,12943
100,12960
85,12976
71,12991
58,13004
48,13016
39,13026
38,13024
37,13021
36,13019
35,13016
" style="stroke:#000000;stroke-width:0;
stroke-linejoin:miter; stroke-linecap:butt;
fill:#000000;
"/>
<!-- Line -->
<!--  polyline  -->
<polyline points="251,12861
248,12861
243,12862
238,12862
233,12862
228,12862
224,12862
221,12862
220,12862
218,12863
216,12864
213,12865
212,12867
211,12868
210,12870
209,12873
209,12876
209,12879
210,12888
210,12898
210,12906
208,12907
206,12909
205,12910
203,12913
197,12910
190,12909
184,12910
179,12911
174,12913
168,12915
164,12918
160,12922
153,12933
150,12945
151,12955
155,12965
153,12968
151,12969
150,12971
148,12972
145,12972
140,12972
136,12972
130,12972
126,12973
122,12973
119,12973
118,12973
115,12973
113,12974
111,12976
109,12977
108,12979
107,12981
106,12983
106,12986
106,12989
107,12998
107,13009
107,13017
104,13020
102,13022
100,13025
97,13027
94,13027
90,13027
85,13027
78,13028
71,13028
65,13028
58,13029
52,13029
237,12829
260,12851
257,12854
256,12857
253,12859
251,12861
" style="stroke:#000000;stroke-width:0;
stroke-linejoin:miter; stroke-linecap:butt;
fill:#000000;
"/>
<!-- Line -->
<!--  polyline  -->
<polyline points="314,12831
311,12834
309,12836
306,12839
303,12842
301,12842
297,12842
294,12843
289,12843
283,12843
279,12843
275,12843
273,12843
273,12843
272,12843
271,12843
270,12843
246,12820
241,12816
221,12797
30,13004
29,13000
28,12997
27,12995
26,12992
30,12988
37,12980
47,12970
59,12956
73,12941
88,12924
105,12907
122,12889
138,12871
153,12854
168,12838
182,12824
193,12811
202,12803
207,12796
209,12795
211,12793
212,12790
212,12788
212,12786
212,12782
212,12773
212,12763
212,12755
216,12751
220,12746
224,12742
226,12740
228,12738
228,12734
228,12731
228,12728
226,12723
220,12708
215,12693
211,12682
215,12677
222,12670
230,12661
239,12651
248,12642
257,12633
264,12626
268,12620
272,12622
276,12624
281,12626
287,12629
293,12632
299,12635
305,12638
311,12641
312,12641
313,12641
317,12646
321,12651
325,12656
330,12661
335,12666
340,12670
345,12675
350,12678
351,12682
353,12685
354,12689
357,12691
362,12694
366,12697
370,12698
376,12698
380,12698
385,12696
389,12693
392,12690
398,12682
399,12672
397,12663
392,12655
387,12651
383,12649
377,12648
372,12648
369,12646
366,12643
362,12641
359,12638
363,12636
368,12635
372,12634
377,12634
383,12635
388,12637
393,12641
399,12645
400,12646
401,12647
407,12654
412,12667
412,12682
401,12699
399,12702
399,12707
399,12710
399,12714
400,12715
404,12722
408,12730
414,12740
420,12751
425,12761
429,12770
433,12776
429,12781
422,12788
413,12797
404,12807
395,12817
387,12826
380,12834
376,12838
370,12836
364,12835
356,12832
349,12829
341,12827
335,12826
332,12825
330,12824
326,12823
323,12824
320,12825
317,12827
317,12828
315,12829
314,12831
" style="stroke:#000000;stroke-width:0;
stroke-linejoin:miter; stroke-linecap:butt;
fill:#000000;
"/>
<!-- Line -->
<!--  polyline  -->
<polyline points="342,12619
334,12604
327,12587
324,12571
322,12553
325,12530
331,12508
341,12489
355,12472
372,12458
392,12447
414,12441
437,12438
459,12441
481,12447
500,12458
517,12472
531,12489
541,12508
548,12530
550,12553
549,12571
545,12588
538,12605
529,12620
518,12634
504,12645
489,12655
473,12662
467,12656
460,12650
453,12644
445,12639
438,12635
429,12630
422,12626
413,12624
403,12617
393,12612
384,12610
375,12610
365,12610
357,12612
349,12615
342,12619
" style="stroke:#000000;stroke-width:0;
stroke-linejoin:miter; stroke-linecap:butt;
fill:#000000;
"/>
<!-- Line -->
<!--  polyline  -->
<polyline points="358,13171
356,13169
354,13168
352,13166
350,13165
353,13103
355,13013
359,12931
360,12890
362,12891
364,12891
366,12891
369,12891
367,12930
364,13012
361,13102
358,13171
" style="stroke:#000000;stroke-width:0;
stroke-linejoin:miter; stroke-linecap:butt;
fill:#000000;
"/>
<!-- Line -->
<!--  polyline  -->
<polyline points="412,12906
407,12911
399,12918
392,12924
390,12927
388,12929
387,12931
386,12933
386,12935
386,12938
386,12940
388,12942
389,12944
392,12947
398,12953
405,12961
410,12967
410,12969
410,12971
409,12973
409,12977
403,12979
398,12982
393,12987
390,12991
387,12996
385,13001
384,13006
383,13012
385,13025
390,13035
398,13043
407,13048
407,13051
407,13053
407,13055
407,13058
401,13063
393,13069
387,13076
385,13078
383,13080
381,13083
380,13084
380,13087
380,13089
381,13092
382,13094
384,13096
386,13099
392,13105
399,13113
405,13118
404,13122
404,13125
404,13130
404,13133
402,13135
399,13138
395,13141
391,13146
385,13150
381,13155
376,13159
371,13164
381,12891
413,12892
413,12896
413,12899
412,12903
412,12906
" style="stroke:#000000;stroke-width:0;
stroke-linejoin:miter; stroke-linecap:butt;
fill:#000000;
"/>
<!-- Line -->
<!--  polyline  -->
<polyline points="481,12749
479,12763
476,12775
472,12787
466,12799
460,12807
454,12814
447,12820
440,12827
439,12836
439,12845
439,12852
439,12857
438,12857
432,12862
425,12869
419,12875
416,12877
415,12878
415,12879
414,12880
381,12878
375,12878
348,12877
338,13159
335,13157
332,13156
330,13155
327,13153
329,13105
332,13012
335,12923
337,12883
337,12881
336,12878
335,12876
333,12875
332,12873
329,12869
325,12865
320,12859
323,12858
325,12855
327,12852
330,12850
335,12851
341,12853
349,12856
357,12858
364,12860
370,12862
375,12863
377,12864
380,12864
383,12864
386,12862
389,12860
457,12787
459,12784
460,12779
460,12776
459,12772
459,12770
455,12764
451,12755
444,12745
438,12734
433,12723
429,12715
425,12709
432,12697
437,12684
437,12673
436,12662
445,12670
455,12678
462,12688
469,12699
474,12711
478,12723
480,12736
481,12749
" style="stroke:#000000;stroke-width:0;
stroke-linejoin:miter; stroke-linecap:butt;
fill:#000000;
"/>
<!-- Line -->
<!--  polyline  -->
<polyline points="488,12682
486,12680
484,12677
482,12675
481,12672
498,12664
514,12653
528,12640
540,12626
549,12609
556,12591
561,12572
563,12553
560,12527
553,12503
541,12482
526,12463
507,12447
486,12435
462,12428
437,12426
411,12428
387,12435
366,12447
347,12463
332,12482
319,12503
312,12527
310,12553
310,12571
315,12589
321,12606
330,12621
334,12627
339,12634
344,12640
349,12645
351,12647
354,12649
356,12651
359,12653
362,12655
364,12657
367,12659
370,12661
371,12662
372,12663
374,12664
376,12665
377,12666
377,12667
377,12668
377,12670
377,12671
377,12672
377,12673
375,12675
373,12675
371,12676
370,12675
367,12674
364,12672
362,12671
360,12669
357,12667
354,12666
352,12664
348,12660
345,12658
341,12655
338,12651
333,12647
330,12643
326,12638
323,12633
319,12628
317,12623
314,12618
311,12613
305,12599
301,12584
298,12569
297,12553
300,12525
308,12498
321,12475
338,12454
359,12437
383,12424
408,12416
437,12413
464,12416
490,12424
513,12437
534,12454
551,12475
564,12498
572,12525
575,12553
573,12574
569,12594
561,12613
551,12631
538,12647
523,12661
506,12673
488,12682
" style="stroke:#000000;stroke-width:0;
stroke-linejoin:miter; stroke-linecap:butt;
fill:#000000;
"/>
<!-- Line -->
<!--  polyline  -->
<polyline points="330,12824
332,12825
335,12826
341,12827
349,12829
356,12832
364,12835
370,12836
376,12838
380,12834
387,12826
395,12817
404,12807
413,12797
422,12788
429,12781
433,12776
429,12770
425,12761
420,12751
414,12740
408,12730
404,12722
400,12715
399,12714
399,12710
399,12707
399,12702
401,12699
412,12682
412,12667
407,12654
401,12647
400,12646
399,12645
393,12641
388,12637
383,12635
377,12634
372,12634
368,12635
363,12636
359,12638
362,12641
366,12643
369,12646
372,12648
377,12648
383,12649
387,12651
392,12655
397,12663
399,12672
398,12682
392,12690
389,12693
385,12696
380,12698
376,12698
370,12698
366,12697
362,12694
357,12691
354,12689
353,12685
351,12682
350,12678
345,12675
340,12670
335,12666
330,12661
325,12656
321,12651
317,12646
313,12641
312,12641
311,12641
305,12638
299,12635
293,12632
287,12629
281,12626
276,12624
272,12622
268,12620
264,12626
257,12633
248,12642
239,12651
230,12661
222,12670
215,12677
211,12682
215,12693
220,12708
226,12723
228,12728
228,12731
228,12734
228,12738
226,12740
224,12742
220,12746
216,12751
212,12755
212,12763
212,12773
212,12782
212,12786
212,12788
212,12790
211,12793
209,12795
207,12796
202,12803
193,12811
182,12824
168,12838
153,12854
138,12871
122,12889
105,12907
88,12924
73,12941
59,12956
47,12970
37,12980
30,12988
26,12992
27,12995
28,12997
29,13000
30,13004
221,12797
241,12816
246,12820
270,12843
271,12843
272,12843
273,12843
273,12843
275,12843
279,12843
283,12843
289,12843
294,12843
297,12842
301,12842
303,12842
306,12839
309,12836
311,12834
314,12831
315,12829
317,12828
317,12827
320,12825
323,12824
326,12823
330,12824
" style="stroke:#c1f0ff;stroke-width:0;
stroke-linejoin:miter; stroke-linecap:butt;
fill:#c1f0ff;
"/>
<!-- Line -->
<!--  polyline  -->
<polyline points="52,13029
58,13029
65,13028
71,13028
78,13028
85,13027
90,13027
94,13027
97,13027
100,13025
102,13022
104,13020
107,13017
107,13009
107,12998
106,12989
106,12986
106,12983
107,12981
108,12979
109,12977
111,12976
113,12974
115,12973
118,12973
119,12973
122,12973
126,12973
130,12972
136,12972
140,12972
145,12972
148,12972
150,12971
151,12969
153,12968
155,12965
151,12955
150,12945
153,12933
160,12922
164,12918
168,12915
174,12913
179,12911
184,12910
190,12909
197,12910
203,12913
205,12910
206,12909
208,12907
210,12906
210,12898
210,12888
209,12879
209,12876
209,12873
210,12870
211,12868
212,12867
213,12865
216,12864
218,12863
220,12862
221,12862
224,12862
228,12862
233,12862
238,12862
243,12862
248,12861
251,12861
253,12859
256,12857
257,12854
260,12851
237,12829
52,13029
" style="stroke:#c1f0ff;stroke-width:0;
stroke-linejoin:miter; stroke-linecap:butt;
fill:#c1f0ff;
"/>
<!-- Line -->
<!--  polyline  -->
<polyline points="222,12815
220,12819
213,12825
205,12834
195,12844
183,12858
168,12873
154,12889
138,12905
123,12922
108,12939
92,12955
78,12971
64,12985
53,12997
43,13008
35,13016
36,13019
37,13021
38,13024
39,13026
48,13016
58,13004
71,12991
85,12976
100,12960
115,12943
130,12926
146,12909
161,12892
176,12877
190,12863
202,12850
212,12839
220,12830
226,12824
228,12821
227,12819
226,12818
224,12817
222,12815
" style="stroke:#37d8ff;stroke-width:0;
stroke-linejoin:miter; stroke-linecap:butt;
fill:#37d8ff;
"/>
<!-- Line -->
<!--  polyline  -->
<polyline points="371,13164
376,13159
381,13155
385,13150
391,13146
395,13141
399,13138
402,13135
404,13133
404,13130
404,13125
404,13122
405,13118
399,13113
392,13105
386,13099
384,13096
382,13094
381,13092
380,13089
380,13087
380,13084
381,13083
383,13080
385,13078
387,13076
393,13069
401,13063
407,13058
407,13055
407,13053
407,13051
407,13048
398,13043
390,13035
385,13025
383,13012
384,13006
385,13001
387,12996
390,12991
393,12987
398,12982
403,12979
409,12977
409,12973
410,12971
410,12969
410,12967
405,12961
398,12953
392,12947
389,12944
388,12942
386,12940
386,12938
386,12935
386,12933
387,12931
388,12929
390,12927
392,12924
399,12918
407,12911
412,12906
412,12903
413,12899
413,12896
413,12892
381,12891
371,13164
" style="stroke:#c1f0ff;stroke-width:0;
stroke-linejoin:miter; stroke-linecap:butt;
fill:#c1f0ff;
"/>
<!-- Line -->
<!--  polyline  -->
<polyline points="437,12413
408,12416
383,12424
359,12437
338,12454
321,12475
308,12498
300,12525
297,12553
298,12569
301,12584
305,12599
311,12613
314,12618
317,12623
319,12628
323,12633
326,12638
330,12643
333,12647
338,12651
341,12655
345,12658
348,12660
352,12664
354,12666
357,12667
360,12669
362,12671
364,12672
367,12674
370,12675
371,12676
373,12675
375,12675
377,12673
377,12672
377,12671
377,12670
377,12668
377,12667
377,12666
376,12665
374,12664
372,12663
371,12662
370,12661
367,12659
364,12657
362,12655
359,12653
356,12651
354,12649
351,12647
349,12645
344,12640
339,12634
334,12627
330,12621
321,12606
315,12589
310,12571
310,12553
312,12527
319,12503
332,12482
347,12463
366,12447
387,12435
411,12428
437,12426
462,12428
486,12435
507,12447
526,12463
541,12482
553,12503
560,12527
563,12553
561,12572
556,12591
549,12609
540,12626
528,12640
514,12653
498,12664
481,12672
482,12675
484,12677
486,12680
488,12682
506,12673
523,12661
538,12647
551,12631
561,12613
569,12594
573,12574
575,12553
572,12525
564,12498
551,12475
534,12454
513,12437
490,12424
464,12416
437,12413
" style="stroke:#37d8ff;stroke-width:0;
stroke-linejoin:miter; stroke-linecap:butt;
fill:#37d8ff;
"/>
<!-- Line -->
<!--  polyline  -->
<polyline points="350,13165
352,13166
354,13168
356,13169
358,13171
361,13102
364,13012
367,12930
369,12891
366,12891
364,12891
362,12891
360,12890
359,12931
355,13013
353,13103
350,13165
" style="stroke:#37d8ff;stroke-width:0;
stroke-linejoin:miter; stroke-linecap:butt;
fill:#37d8ff;
"/>
<!-- Line -->
<!--  polyline  -->
<polyline points="436,12662
437,12673
437,12684
432,12697
425,12709
429,12715
433,12723
438,12734
444,12745
451,12755
455,12764
459,12770
459,12772
460,12776
460,12779
459,12784
457,12787
389,12860
386,12862
383,12864
380,12864
377,12864
375,12863
370,12862
364,12860
357,12858
349,12856
341,12853
335,12851
330,12850
327,12852
325,12855
323,12858
320,12859
325,12865
329,12869
332,12873
333,12875
335,12876
336,12878
337,12881
337,12883
335,12923
332,13012
329,13105
327,13153
330,13155
332,13156
335,13157
338,13159
348,12877
375,12878
381,12878
414,12880
415,12879
415,12878
416,12877
419,12875
425,12869
432,12862
438,12857
439,12857
439,12852
439,12845
439,12836
440,12827
447,12820
454,12814
460,12807
466,12799
472,12787
476,12775
479,12763
481,12749
480,12736
478,12723
474,12711
469,12699
462,12688
455,12678
445,12670
436,12662
" style="stroke:#c1f0ff;stroke-width:0;
stroke-linejoin:miter; stroke-linecap:butt;
fill:#c1f0ff;
"/>
<!-- Line -->
<!--  polyline  -->
<polyline points="244,12733
228,12685
282,12626
278,12625
274,12623
271,12622
268,12620
264,12626
257,12633
248,12642
239,12651
230,12661
222,12670
215,12677
211,12682
215,12693
220,12708
226,12723
228,12728
228,12731
228,12734
228,12738
226,12740
224,12742
220,12746
216,12751
212,12755
212,12763
212,12773
212,12782
212,12786
212,12788
212,12790
211,12793
209,12795
207,12796
202,12803
193,12811
182,12824
168,12838
153,12854
138,12871
122,12889
105,12907
88,12924
73,12941
59,12956
47,12970
37,12980
30,12988
26,12992
27,12995
28,12997
29,13000
30,13004
221,12798
221,12761
244,12733
" style="stroke:#ffffff;stroke-width:0;
stroke-linejoin:miter; stroke-linecap:butt;
fill:#ffffff;
"/>
<!-- Line -->
<!--  polyline  -->
<polyline points="320,12859
325,12865
329,12869
332,12873
333,12875
335,12876
336,12878
337,12881
337,12883
335,12923
332,13012
329,13105
327,13153
330,13155
332,13156
335,13157
338,13159
348,12877
327,12853
325,12855
324,12857
322,12858
320,12859
" style="stroke:#ffffff;stroke-width:0;
stroke-linejoin:miter; stroke-linecap:butt;
fill:#ffffff;
"/>
</g>
</svg>
