<?xml version="1.0" standalone="no"?>
<!DOCTYPE svg PUBLIC "-//W3C//DTD SVG 1.1//EN"
"http://www.w3.org/Graphics/SVG/1.1/DTD/svg11.dtd">
<!-- Creator: fig2dev Version 3.2 Patchlevel 5c -->
<!-- CreationDate: Fri Sep 14 10:46:31 2012 -->
<!-- Magnification: 1.000 -->
<svg xmlns="http://www.w3.org/2000/svg" width="0.6in" height="0.4in" viewBox="-2 12698 734 506">
<g style="stroke-width:.025in; fill:none">
<!-- Line -->
<!--  polyline  -->
<polyline points="703,12710
720,12733
673,12990
652,12977
703,12710
" style="stroke:#02709f;stroke-width:0;
stroke-linejoin:miter; stroke-linecap:butt;
fill:#02709f;
"/>
<!-- Line -->
<!--  polyline  -->
<polyline points="703,12710
720,12733
673,12990
652,12977
703,12710
" style="stroke:#ffffff;stroke-width:7;
stroke-linejoin:miter; stroke-linecap:butt;
"/>
<!-- Line -->
<!--  polyline  -->
<polyline points="201,12977
220,12990
673,12990
652,12977
201,12977
" style="stroke:#000000;stroke-width:0;
stroke-linejoin:miter; stroke-linecap:butt;
fill:#000000;
"/>
<!-- Line -->
<!--  polyline  -->
<polyline points="201,12977
220,12990
673,12990
652,12977
201,12977
" style="stroke:#ffffff;stroke-width:7;
stroke-linejoin:miter; stroke-linecap:butt;
"/>
<!-- Line -->
<!--  spline  -->
<polyline points="656,12998
656,12999
656,13007
656,13021
656,13034
656,13042
656,13043
655,13044
652,13046
648,13051
645,13053
644,13054
643,13054
642,13054
641,13054
640,13054
639,13055
637,13056
635,13057
633,13058
632,13059
631,13059
630,13060
628,13062
626,13064
625,13065
624,13066
623,13069
622,13072
622,13074
623,13077
623,13078
622,13078
619,13081
612,13089
599,13100
582,13116
561,13135
541,13154
524,13170
511,13181
504,13189
501,13192
500,13192
500,13190
500,13182
500,13167
500,13152
500,13144
500,13142
503,13139
509,13133
521,13123
536,13108
556,13090
578,13070
600,13050
620,13032
635,13017
647,13007
653,13001
656,12998
" style="stroke:#02709f;stroke-width:0;
stroke-linejoin:bevel; stroke-linecap:butt;
fill:#02709f;
"/>
<!-- Line -->
<!--  spline  -->
<polyline points="656,12998
656,12999
656,13007
656,13021
656,13034
656,13042
656,13043
655,13044
652,13046
648,13051
645,13053
644,13054
643,13054
642,13054
641,13054
640,13054
639,13055
637,13056
635,13057
633,13058
632,13059
631,13059
630,13060
628,13062
626,13064
625,13065
624,13066
623,13069
622,13072
622,13074
623,13077
623,13078
622,13078
619,13081
612,13089
599,13100
582,13116
561,13135
541,13154
524,13170
511,13181
504,13189
501,13192
500,13192
500,13190
500,13182
500,13167
500,13152
500,13144
500,13142
503,13139
509,13133
521,13123
536,13108
556,13090
578,13070
600,13050
620,13032
635,13017
647,13007
653,13001
656,12998
" style="stroke:#ffffff;stroke-width:7;
stroke-linejoin:bevel; stroke-linecap:butt;
"/>
<!-- Line -->
<!--  polyline  -->
<polyline points="10,13142
10,13192
500,13192
500,13142
10,13142
" style="stroke:#02709f;stroke-width:0;
stroke-linejoin:miter; stroke-linecap:butt;
fill:#02709f;
"/>
<!-- Line -->
<!--  polyline  -->
<polyline points="10,13142
10,13192
500,13192
500,13142
10,13142
" style="stroke:#ffffff;stroke-width:7;
stroke-linejoin:miter; stroke-linecap:butt;
"/>
<!-- Line -->
<!--  polyline  -->
<polyline points="206,13001
656,12998
500,13142
10,13142
206,13001
" style="stroke:#02709f;stroke-width:0;
stroke-linejoin:miter; stroke-linecap:butt;
fill:#02709f;
"/>
<!-- Line -->
<!--  polyline  -->
<polyline points="206,13001
656,12998
500,13142
10,13142
206,13001
" style="stroke:#ffffff;stroke-width:7;
stroke-linejoin:miter; stroke-linecap:butt;
"/>
<!-- Line -->
<!--  polyline  -->
<polyline points="652,12977
703,12710
259,12710
201,12977
652,12977
" style="stroke:#02709f;stroke-width:0;
stroke-linejoin:miter; stroke-linecap:butt;
fill:#02709f;
"/>
<!-- Line -->
<!--  polyline  -->
<polyline points="652,12977
703,12710
259,12710
201,12977
652,12977
" style="stroke:#ffffff;stroke-width:7;
stroke-linejoin:miter; stroke-linecap:butt;
"/>
<!-- Line -->
<!--  polyline  -->
<polyline points="614,12947
654,12747
292,12747
253,12947
614,12947
" style="stroke:#02709f;stroke-width:0;
stroke-linejoin:miter; stroke-linecap:butt;
fill:#02709f;
"/>
<!-- Line -->
<!--  polyline  -->
<polyline points="614,12947
654,12747
292,12747
253,12947
614,12947
" style="stroke:#ffffff;stroke-width:7;
stroke-linejoin:miter; stroke-linecap:butt;
"/>
<!-- Line -->
<!--  polyline  -->
<polyline points="216,13004
103,13096
" style="stroke:#ffffff;stroke-width:7;
stroke-linejoin:round; stroke-linecap:butt;
"/>
<!-- Line -->
<!--  polyline  -->
<polyline points="253,13004
139,13096
" style="stroke:#ffffff;stroke-width:7;
stroke-linejoin:round; stroke-linecap:butt;
"/>
<!-- Line -->
<!--  polyline  -->
<polyline points="289,13004
176,13096
" style="stroke:#ffffff;stroke-width:7;
stroke-linejoin:round; stroke-linecap:butt;
"/>
<!-- Line -->
<!--  polyline  -->
<polyline points="326,13004
212,13096
" style="stroke:#ffffff;stroke-width:7;
stroke-linejoin:round; stroke-linecap:butt;
"/>
<!-- Line -->
<!--  polyline  -->
<polyline points="362,13004
249,13096
" style="stroke:#ffffff;stroke-width:7;
stroke-linejoin:round; stroke-linecap:butt;
"/>
<!-- Line -->
<!--  polyline  -->
<polyline points="399,13004
285,13096
" style="stroke:#ffffff;stroke-width:7;
stroke-linejoin:round; stroke-linecap:butt;
"/>
<!-- Line -->
<!--  polyline  -->
<polyline points="435,13004
322,13096
" style="stroke:#ffffff;stroke-width:7;
stroke-linejoin:round; stroke-linecap:butt;
"/>
<!-- Line -->
<!--  polyline  -->
<polyline points="472,13004
358,13096
" style="stroke:#ffffff;stroke-width:7;
stroke-linejoin:round; stroke-linecap:butt;
"/>
<!-- Line -->
<!--  polyline  -->
<polyline points="508,13004
394,13096
" style="stroke:#ffffff;stroke-width:7;
stroke-linejoin:round; stroke-linecap:butt;
"/>
<!-- Line -->
<!--  polyline  -->
<polyline points="544,13004
431,13096
" style="stroke:#ffffff;stroke-width:7;
stroke-linejoin:round; stroke-linecap:butt;
"/>
<!-- Line -->
<!--  polyline  -->
<polyline points="581,13004
467,13096
" style="stroke:#ffffff;stroke-width:7;
stroke-linejoin:round; stroke-linecap:butt;
"/>
<!-- Line -->
<!--  polyline  -->
<polyline points="617,13004
504,13096
" style="stroke:#ffffff;stroke-width:7;
stroke-linejoin:round; stroke-linecap:butt;
"/>
<!-- Line -->
<!--  polyline  -->
<polyline points="115,13086
520,13086
" style="stroke:#ffffff;stroke-width:7;
stroke-linejoin:round; stroke-linecap:butt;
"/>
<!-- Line -->
<!--  polyline  -->
<polyline points="143,13065
541,13065
" style="stroke:#ffffff;stroke-width:7;
stroke-linejoin:round; stroke-linecap:butt;
"/>
<!-- Line -->
<!--  polyline  -->
<polyline points="171,13044
568,13044
" style="stroke:#ffffff;stroke-width:7;
stroke-linejoin:round; stroke-linecap:butt;
"/>
<!-- Line -->
<!--  polyline  -->
<polyline points="196,13023
596,13023
" style="stroke:#ffffff;stroke-width:7;
stroke-linejoin:round; stroke-linecap:butt;
"/>
</g>
</svg>
