<?xml version="1.0" standalone="no"?>
<!DOCTYPE svg PUBLIC "-//W3C//DTD SVG 1.1//EN"
"http://www.w3.org/Graphics/SVG/1.1/DTD/svg11.dtd">
<!-- Creator: fig2dev Version 3.2 Patchlevel 5c -->
<!-- CreationDate: Fri Sep 14 10:46:31 2012 -->
<!-- Magnification: 1.000 -->
<svg xmlns="http://www.w3.org/2000/svg" width="0.7in" height="0.3in" viewBox="4708 6395 819 411">
<g style="stroke-width:.025in; fill:none">
<!-- Line -->
<!--  polyline  -->
<polyline points="4720,6601
4960,6407
5515,6407
5316,6601
4720,6601
" style="stroke:#00a5d4;stroke-width:0;
stroke-linejoin:miter; stroke-linecap:butt;
fill:#00a5d4;
"/>
<!-- Line -->
<!--  polyline  -->
<polyline points="4720,6601
4960,6407
5515,6407
5316,6601
4720,6601
" style="stroke:#ffffff;stroke-width:7;
stroke-linejoin:miter; stroke-linecap:butt;
"/>
<!-- Line -->
<!--  polyline  -->
<polyline points="5265,6509
5280,6494
5326,6516
5245,6539
5264,6515
5116,6515
5121,6509
5265,6509
" style="stroke:#000000;stroke-width:0;
stroke-linejoin:miter; stroke-linecap:butt;
fill:#000000;
"/>
<!-- Line -->
<!--  polyline  -->
<polyline points="5176,6460
5171,6465
5020,6465
4998,6483
4959,6464
5048,6438
5026,6460
5176,6460
" style="stroke:#000000;stroke-width:0;
stroke-linejoin:miter; stroke-linecap:butt;
fill:#000000;
"/>
<!-- Line -->
<!--  polyline  -->
<polyline points="5093,6544
5088,6549
4937,6549
4914,6566
4874,6547
4965,6521
4944,6544
5093,6544
" style="stroke:#000000;stroke-width:0;
stroke-linejoin:miter; stroke-linecap:butt;
fill:#000000;
"/>
<!-- Line -->
<!--  polyline  -->
<polyline points="5351,6439
5365,6424
5412,6445
5330,6468
5348,6445
5200,6445
5205,6439
5351,6439
" style="stroke:#000000;stroke-width:0;
stroke-linejoin:miter; stroke-linecap:butt;
fill:#000000;
"/>
<!-- Line -->
<!--  polyline  -->
<polyline points="5266,6514
5281,6500
5321,6517
5240,6540
5261,6520
5112,6520
5117,6514
5266,6514
" style="stroke:#ffffff;stroke-width:0;
stroke-linejoin:miter; stroke-linecap:butt;
fill:#ffffff;
"/>
<!-- Line -->
<!--  polyline  -->
<polyline points="5171,6465
5166,6470
5018,6470
5003,6485
4963,6467
5043,6444
5023,6465
5171,6465
" style="stroke:#ffffff;stroke-width:0;
stroke-linejoin:miter; stroke-linecap:butt;
fill:#ffffff;
"/>
<!-- Line -->
<!--  polyline  -->
<polyline points="5316,6794
5515,6579
5515,6407
5316,6601
5316,6794
" style="stroke:#00a5d4;stroke-width:0;
stroke-linejoin:miter; stroke-linecap:butt;
fill:#00a5d4;
"/>
<!-- Line -->
<!--  polyline  -->
<polyline points="5316,6794
5515,6579
5515,6407
5316,6601
5316,6794
" style="stroke:#ffffff;stroke-width:7;
stroke-linejoin:miter; stroke-linecap:butt;
"/>
<!-- Line -->
<!--  polyline  -->
<polyline points="5088,6549
5082,6554
4934,6554
4919,6569
4879,6551
4960,6528
4939,6549
5088,6549
" style="stroke:#ffffff;stroke-width:0;
stroke-linejoin:miter; stroke-linecap:butt;
fill:#ffffff;
"/>
<!-- Line -->
<!--  polyline  -->
<polyline points="5351,6444
5365,6430
5406,6447
5325,6470
5345,6450
5197,6450
5202,6444
5351,6444
" style="stroke:#ffffff;stroke-width:0;
stroke-linejoin:miter; stroke-linecap:butt;
fill:#ffffff;
"/>
<!-- Line -->
<!--  polyline  -->
<polyline points="5341,6451
5323,6469
" style="stroke:#000000;stroke-width:7;
stroke-linejoin:miter; stroke-linecap:round;
"/>
<!-- Line -->
<!--  polyline  -->
<polyline points="5252,6525
5241,6536
" style="stroke:#000000;stroke-width:7;
stroke-linejoin:miter; stroke-linecap:round;
"/>
<!-- Line -->
<!--  polyline  -->
<polyline points="5118,6513
5113,6518
" style="stroke:#000000;stroke-width:7;
stroke-linejoin:miter; stroke-linecap:round;
"/>
<!-- Line -->
<!--  polyline  -->
<polyline points="5205,6441
5197,6448
" style="stroke:#000000;stroke-width:7;
stroke-linejoin:miter; stroke-linecap:round;
"/>
<!-- Line -->
<!--  polyline  -->
<polyline points="5316,6794
5316,6601
4721,6601
4721,6794
5316,6794
" style="stroke:#00a5d4;stroke-width:0;
stroke-linejoin:miter; stroke-linecap:butt;
fill:#00a5d4;
"/>
<!-- Line -->
<!--  polyline  -->
<polyline points="5316,6794
5316,6601
4721,6601
4721,6794
5316,6794
" style="stroke:#ffffff;stroke-width:7;
stroke-linejoin:miter; stroke-linecap:butt;
"/>
<!-- Line -->
<!--  polyline  -->
<polyline points="4879,6674
4879,6636
4886,6636
4876,6621
4866,6636
4873,6636
4873,6674
4879,6674
" style="stroke:#ffffff;stroke-width:0;
stroke-linejoin:miter; stroke-linecap:butt;
fill:#ffffff;
"/>
<!-- Line -->
<!--  polyline  -->
<polyline points="4859,6680
4832,6653
4837,6648
4819,6645
4823,6662
4828,6657
4855,6684
4859,6680
" style="stroke:#ffffff;stroke-width:0;
stroke-linejoin:miter; stroke-linecap:butt;
fill:#ffffff;
"/>
<!-- Line -->
<!--  polyline  -->
<polyline points="4849,6698
4811,6698
4811,6691
4796,6701
4811,6711
4811,6704
4849,6704
4849,6698
" style="stroke:#ffffff;stroke-width:0;
stroke-linejoin:miter; stroke-linecap:butt;
fill:#ffffff;
"/>
<!-- Line -->
<!--  polyline  -->
<polyline points="4855,6718
4828,6745
4823,6740
4819,6757
4837,6754
4832,6749
4859,6722
4855,6718
" style="stroke:#ffffff;stroke-width:0;
stroke-linejoin:miter; stroke-linecap:butt;
fill:#ffffff;
"/>
<!-- Line -->
<!--  polyline  -->
<polyline points="4873,6728
4873,6766
4866,6766
4876,6781
4886,6766
4879,6766
4879,6728
4873,6728
" style="stroke:#ffffff;stroke-width:0;
stroke-linejoin:miter; stroke-linecap:butt;
fill:#ffffff;
"/>
<!-- Line -->
<!--  polyline  -->
<polyline points="4897,6684
4924,6657
4929,6662
4932,6645
4915,6648
4920,6653
4892,6680
4897,6684
" style="stroke:#ffffff;stroke-width:0;
stroke-linejoin:miter; stroke-linecap:butt;
fill:#ffffff;
"/>
<!-- Line -->
<!--  spline  -->
<polyline points="4900,6733
4903,6730
4906,6727
4909,6724
4910,6723
4911,6721
4912,6718
4914,6714
4915,6710
4916,6708
4916,6707
4917,6705
4917,6701
4917,6697
4917,6695
4916,6693
4915,6689
4913,6685
4912,6682
4910,6680
4909,6678
4909,6677
4906,6675
4903,6671
4900,6669
4900,6668
4898,6667
4896,6666
4893,6664
4889,6663
4885,6662
4883,6662
4883,6661
4881,6661
4877,6661
4873,6661
4871,6661
4869,6661
4865,6662
4861,6664
4858,6665
4856,6667
4854,6668
4853,6668
4851,6671
4847,6674
4845,6677
4844,6677
4843,6679
4842,6681
4840,6684
4839,6688
4838,6692
4838,6694
4837,6694
4837,6696
4837,6700
4837,6704
4837,6706
4837,6708
4838,6712
4840,6716
4841,6720
4843,6722
4844,6724
4847,6727
4850,6730
4853,6733
4855,6734
4857,6736
4860,6737
4864,6739
4868,6740
4870,6741
4872,6741
4876,6741
4880,6741
4882,6741
4884,6740
4888,6739
4892,6737
4896,6736
4898,6734
4900,6733
" style="stroke:#ffffff;stroke-width:0;
stroke-linejoin:bevel; stroke-linecap:butt;
fill:#ffffff;
"/>
<!-- Line -->
<!--  polyline  -->
<polyline points="4896,6722
4923,6749
4919,6754
4936,6757
4932,6740
4928,6745
4900,6718
4896,6722
" style="stroke:#ffffff;stroke-width:0;
stroke-linejoin:miter; stroke-linecap:butt;
fill:#ffffff;
"/>
<!-- Line -->
<!--  polyline  -->
<polyline points="4899,6702
5153,6702
" style="stroke:#ffffff;stroke-width:15;
stroke-linejoin:miter; stroke-linecap:butt;
"/>
<!-- Line -->
<!--  polyline  -->
<polyline points="5170,6718
5170,6746
5165,6746
5172,6756
5179,6746
5174,6746
5174,6718
5170,6718
" style="stroke:#ffffff;stroke-width:0;
stroke-linejoin:miter; stroke-linecap:butt;
fill:#ffffff;
"/>
<!-- Line -->
<!--  polyline  -->
<polyline points="5184,6715
5203,6734
5200,6737
5212,6739
5209,6727
5206,6731
5187,6712
5184,6715
" style="stroke:#ffffff;stroke-width:0;
stroke-linejoin:miter; stroke-linecap:butt;
fill:#ffffff;
"/>
<!-- Line -->
<!--  polyline  -->
<polyline points="5191,6702
5218,6702
5218,6707
5228,6700
5218,6693
5218,6698
5191,6698
5191,6702
" style="stroke:#ffffff;stroke-width:0;
stroke-linejoin:miter; stroke-linecap:butt;
fill:#ffffff;
"/>
<!-- Line -->
<!--  polyline  -->
<polyline points="5187,6688
5206,6669
5209,6672
5212,6660
5200,6663
5203,6666
5184,6685
5187,6688
" style="stroke:#ffffff;stroke-width:0;
stroke-linejoin:miter; stroke-linecap:butt;
fill:#ffffff;
"/>
<!-- Line -->
<!--  polyline  -->
<polyline points="5174,6681
5174,6654
5179,6654
5172,6644
5165,6654
5170,6654
5170,6681
5174,6681
" style="stroke:#ffffff;stroke-width:0;
stroke-linejoin:miter; stroke-linecap:butt;
fill:#ffffff;
"/>
<!-- Line -->
<!--  polyline  -->
<polyline points="5157,6712
5138,6731
5135,6727
5133,6739
5145,6737
5141,6734
5161,6715
5157,6712
" style="stroke:#ffffff;stroke-width:0;
stroke-linejoin:miter; stroke-linecap:butt;
fill:#ffffff;
"/>
<!-- Line -->
<!--  spline  -->
<polyline points="5156,6677
5154,6679
5151,6681
5149,6683
5148,6684
5147,6686
5146,6688
5145,6691
5144,6694
5144,6695
5144,6696
5144,6697
5144,6700
5144,6703
5144,6704
5144,6705
5145,6708
5146,6711
5147,6713
5148,6715
5149,6716
5151,6718
5153,6721
5155,6723
5156,6724
5158,6725
5160,6726
5163,6727
5166,6728
5167,6728
5168,6728
5171,6728
5174,6728
5175,6728
5176,6728
5177,6728
5180,6727
5183,6726
5185,6725
5187,6724
5188,6723
5190,6721
5192,6719
5194,6717
5195,6716
5196,6714
5197,6712
5198,6709
5199,6706
5199,6705
5200,6704
5200,6701
5200,6698
5200,6697
5200,6696
5200,6695
5199,6692
5198,6689
5197,6687
5196,6685
5195,6684
5193,6682
5190,6680
5188,6678
5187,6677
5186,6676
5184,6675
5181,6674
5178,6673
5177,6673
5176,6673
5175,6672
5172,6672
5169,6672
5168,6672
5167,6672
5164,6673
5161,6674
5159,6675
5157,6676
5156,6677
" style="stroke:#ffffff;stroke-width:0;
stroke-linejoin:bevel; stroke-linecap:butt;
fill:#ffffff;
"/>
<!-- Line -->
<!--  polyline  -->
<polyline points="5158,6685
5139,6666
5142,6663
5130,6660
5133,6672
5136,6669
5155,6688
5158,6685
" style="stroke:#ffffff;stroke-width:0;
stroke-linejoin:miter; stroke-linecap:butt;
fill:#ffffff;
"/>
</g>
</svg>
