<?xml version="1.0" standalone="no"?>
<!DOCTYPE svg PUBLIC "-//W3C//DTD SVG 1.1//EN"
"http://www.w3.org/Graphics/SVG/1.1/DTD/svg11.dtd">
<!-- Creator: fig2dev Version 3.2 Patchlevel 5c -->
<!-- CreationDate: Fri Sep 14 10:46:31 2012 -->
<!-- Magnification: 1.000 -->
<svg xmlns="http://www.w3.org/2000/svg" width="0.4in" height="0.4in" viewBox="-2 12676 526 528">
<g style="stroke-width:.025in; fill:none">
<!-- Line -->
<!--  polyline  -->
<polyline points="10,13192
10,12747
455,12747
455,13192
10,13192
" style="stroke:#00acd8;stroke-width:0;
stroke-linejoin:miter; stroke-linecap:butt;
fill:#00acd8;
"/>
<!-- Line -->
<!--  polyline  -->
<polyline points="10,13192
10,12747
455,12747
455,13192
10,13192
" style="stroke:#ffffff;stroke-width:7;
stroke-linejoin:miter; stroke-linecap:butt;
"/>
<!-- Line -->
<!--  polyline  -->
<polyline points="512,13136
512,12692
455,12747
455,13192
512,13136
" style="stroke:#00acd8;stroke-width:0;
stroke-linejoin:miter; stroke-linecap:butt;
fill:#00acd8;
"/>
<!-- Line -->
<!--  polyline  -->
<polyline points="512,13136
512,12692
455,12747
455,13192
512,13136
" style="stroke:#ffffff;stroke-width:7;
stroke-linejoin:miter; stroke-linecap:butt;
"/>
<!-- Line -->
<!--  polyline  -->
<polyline points="88,12688
10,12744
455,12744
512,12688
88,12688
" style="stroke:#00acd8;stroke-width:0;
stroke-linejoin:miter; stroke-linecap:butt;
fill:#00acd8;
"/>
<!-- Line -->
<!--  polyline  -->
<polyline points="88,12688
10,12744
455,12744
512,12688
88,12688
" style="stroke:#ffffff;stroke-width:7;
stroke-linejoin:miter; stroke-linecap:butt;
"/>
<!-- Line -->
<!--  polyline  -->
<polyline points="455,12747
10,12747
" style="stroke:#00acd8;stroke-width:0;
stroke-linejoin:miter; stroke-linecap:butt;
fill:#00acd8;
"/>
<!-- Line -->
<!--  polyline  -->
<polyline points="455,12747
10,12747
" style="stroke:#ffffff;stroke-width:7;
stroke-linejoin:miter; stroke-linecap:butt;
"/>
<!-- Line -->
<!--  polyline  -->
<polyline points="455,12747
512,12692
" style="stroke:#00acd8;stroke-width:0;
stroke-linejoin:miter; stroke-linecap:butt;
fill:#00acd8;
"/>
<!-- Line -->
<!--  polyline  -->
<polyline points="455,12747
512,12692
" style="stroke:#ffffff;stroke-width:7;
stroke-linejoin:miter; stroke-linecap:butt;
"/>
<!-- Line -->
<!--  polyline  -->
<polyline points="455,12747
455,13192
" style="stroke:#00acd8;stroke-width:0;
stroke-linejoin:miter; stroke-linecap:butt;
fill:#00acd8;
"/>
<!-- Line -->
<!--  polyline  -->
<polyline points="455,12747
455,13192
" style="stroke:#ffffff;stroke-width:7;
stroke-linejoin:miter; stroke-linecap:butt;
"/>
<!-- Line -->
<!--  polyline  -->
<polyline points="455,12747
10,12747
" style="stroke:#00acd8;stroke-width:0;
stroke-linejoin:miter; stroke-linecap:butt;
fill:#00acd8;
"/>
<!-- Line -->
<!--  polyline  -->
<polyline points="455,12747
10,12747
" style="stroke:#ffffff;stroke-width:7;
stroke-linejoin:miter; stroke-linecap:butt;
"/>
<!-- Line -->
<!--  polyline  -->
<polyline points="455,12747
512,12692
" style="stroke:#00acd8;stroke-width:0;
stroke-linejoin:miter; stroke-linecap:butt;
fill:#00acd8;
"/>
<!-- Line -->
<!--  polyline  -->
<polyline points="455,12747
512,12692
" style="stroke:#ffffff;stroke-width:7;
stroke-linejoin:miter; stroke-linecap:butt;
"/>
<!-- Line -->
<!--  polyline  -->
<polyline points="243,12905
243,12809
259,12809
235,12772
211,12809
227,12809
227,12905
243,12905
" style="stroke:#ffffff;stroke-width:0;
stroke-linejoin:miter; stroke-linecap:butt;
fill:#ffffff;
"/>
<!-- Line -->
<!--  polyline  -->
<polyline points="193,12919
125,12851
137,12839
94,12831
103,12873
114,12862
182,12930
193,12919
" style="stroke:#ffffff;stroke-width:0;
stroke-linejoin:miter; stroke-linecap:butt;
fill:#ffffff;
"/>
<!-- Line -->
<!--  polyline  -->
<polyline points="169,12963
72,12963
72,12947
36,12971
72,12995
72,12979
169,12979
169,12963
" style="stroke:#ffffff;stroke-width:0;
stroke-linejoin:miter; stroke-linecap:butt;
fill:#ffffff;
"/>
<!-- Line -->
<!--  polyline  -->
<polyline points="182,13013
114,13081
103,13069
94,13112
137,13103
125,13092
193,13024
182,13013
" style="stroke:#ffffff;stroke-width:0;
stroke-linejoin:miter; stroke-linecap:butt;
fill:#ffffff;
"/>
<!-- Line -->
<!--  polyline  -->
<polyline points="227,13037
227,13134
211,13134
235,13170
259,13134
243,13134
243,13037
227,13037
" style="stroke:#ffffff;stroke-width:0;
stroke-linejoin:miter; stroke-linecap:butt;
fill:#ffffff;
"/>
<!-- Line -->
<!--  polyline  -->
<polyline points="276,13024
344,13092
333,13103
375,13112
367,13069
355,13081
287,13013
276,13024
" style="stroke:#ffffff;stroke-width:0;
stroke-linejoin:miter; stroke-linecap:butt;
fill:#ffffff;
"/>
<!-- Line -->
<!--  polyline  -->
<polyline points="301,12979
397,12979
397,12995
434,12971
397,12947
397,12963
301,12963
301,12979
" style="stroke:#ffffff;stroke-width:0;
stroke-linejoin:miter; stroke-linecap:butt;
fill:#ffffff;
"/>
<!-- Line -->
<!--  polyline  -->
<polyline points="287,12930
355,12862
367,12873
375,12831
333,12839
344,12851
276,12919
287,12930
" style="stroke:#ffffff;stroke-width:0;
stroke-linejoin:miter; stroke-linecap:butt;
fill:#ffffff;
"/>
<!-- Line -->
<!--  spline  -->
<polyline points="294,13053
295,13052
301,13046
310,13037
316,13031
317,13030
317,13029
320,13026
323,13021
327,13013
331,13003
334,12993
335,12989
336,12987
336,12983
337,12973
337,12963
336,12958
336,12957
335,12952
332,12942
328,12931
324,12923
321,12917
318,12914
318,12913
317,12912
311,12906
303,12897
297,12891
296,12890
295,12889
292,12887
287,12883
279,12879
269,12875
259,12872
255,12871
253,12871
248,12871
238,12870
228,12870
224,12870
222,12871
218,12871
208,12874
197,12878
189,12882
183,12885
180,12888
179,12888
178,12889
172,12895
163,12904
157,12910
156,12911
155,12912
153,12915
149,12920
145,12928
141,12938
138,12948
137,12952
137,12954
137,12958
136,12968
136,12978
136,12983
137,12984
137,12989
140,12999
144,13010
148,13018
151,13024
154,13027
154,13028
155,13029
161,13035
169,13044
175,13050
176,13051
177,13051
180,13054
186,13057
194,13061
204,13065
214,13068
218,13069
220,13070
224,13070
234,13071
244,13071
249,13071
250,13071
255,13070
265,13067
276,13063
284,13059
290,13056
293,13053
294,13053
" style="stroke:#ffffff;stroke-width:0;
stroke-linejoin:bevel; stroke-linecap:butt;
fill:#ffffff;
"/>
<!-- Line -->
<!--  spline  -->
<polyline points="294,13053
295,13052
301,13046
310,13037
316,13031
317,13030
317,13029
320,13026
323,13021
327,13013
331,13003
334,12993
335,12989
336,12987
336,12983
337,12973
337,12963
336,12958
336,12957
335,12952
332,12942
328,12931
324,12923
321,12917
318,12914
318,12913
317,12912
311,12906
303,12897
297,12891
296,12890
295,12889
292,12887
287,12883
279,12879
269,12875
259,12872
255,12871
253,12871
248,12871
238,12870
228,12870
224,12870
222,12871
218,12871
208,12874
197,12878
189,12882
183,12885
180,12888
179,12888
178,12889
172,12895
163,12904
157,12910
156,12911
155,12912
153,12915
149,12920
145,12928
141,12938
138,12948
137,12952
137,12954
137,12958
136,12968
136,12978
136,12983
137,12984
137,12989
140,12999
144,13010
148,13018
151,13024
154,13027
154,13028
155,13029
161,13035
169,13044
175,13050
176,13051
177,13051
180,13054
186,13057
194,13061
204,13065
214,13068
218,13069
220,13070
224,13070
234,13071
244,13071
249,13071
250,13071
255,13070
265,13067
276,13063
284,13059
290,13056
293,13053
294,13053
" style="stroke:#00acd8;stroke-width:7;
stroke-linejoin:bevel; stroke-linecap:butt;
"/>
</g>
</svg>
