<?xml version="1.0" standalone="no"?>
<!DOCTYPE svg PUBLIC "-//W3C//DTD SVG 1.1//EN"
"http://www.w3.org/Graphics/SVG/1.1/DTD/svg11.dtd">
<!-- Creator: fig2dev Version 3.2 Patchlevel 5c -->
<!-- CreationDate: Fri Sep 14 10:46:31 2012 -->
<!-- Magnification: 1.000 -->
<svg xmlns="http://www.w3.org/2000/svg" width="0.7in" height="0.4in" viewBox="4699 6342 820 516">
<g style="stroke-width:.025in; fill:none">
<!-- Line -->
<!--  polyline  -->
<polyline points="4711,6598
4952,6403
5507,6403
5308,6598
4711,6598
" style="stroke:#00a5d4;stroke-width:0;
stroke-linejoin:miter; stroke-linecap:butt;
fill:#00a5d4;
"/>
<!-- Line -->
<!--  polyline  -->
<polyline points="4711,6598
4952,6403
5507,6403
5308,6598
4711,6598
" style="stroke:#ffffff;stroke-width:7;
stroke-linejoin:miter; stroke-linecap:butt;
"/>
<!-- Line -->
<!--  polyline  -->
<polyline points="5308,6846
5507,6643
5507,6404
5308,6598
5308,6846
" style="stroke:#00a5d4;stroke-width:0;
stroke-linejoin:miter; stroke-linecap:butt;
fill:#00a5d4;
"/>
<!-- Line -->
<!--  polyline  -->
<polyline points="5308,6846
5507,6643
5507,6404
5308,6598
5308,6846
" style="stroke:#ffffff;stroke-width:7;
stroke-linejoin:miter; stroke-linecap:butt;
"/>
<!-- Line -->
<!--  polyline  -->
<polyline points="5308,6846
5308,6598
4712,6598
4712,6846
5308,6846
" style="stroke:#00a5d4;stroke-width:0;
stroke-linejoin:miter; stroke-linecap:butt;
fill:#00a5d4;
"/>
<!-- Line -->
<!--  polyline  -->
<polyline points="5308,6846
5308,6598
4712,6598
4712,6846
5308,6846
" style="stroke:#ffffff;stroke-width:7;
stroke-linejoin:miter; stroke-linecap:butt;
"/>
<!-- Line -->
<!--  spline  -->
<polyline points="5274,6729
5274,6730
5273,6732
5271,6736
5270,6738
5270,6739
5270,6740
5268,6742
5266,6746
5262,6752
5257,6758
5251,6764
5249,6767
5248,6768
5245,6770
5238,6773
5233,6774
5229,6774
5228,6775
5227,6775
5226,6775
5224,6775
5220,6772
5214,6768
5206,6760
5199,6751
5194,6742
5190,6734
5187,6730
5187,6729
5186,6728
5182,6721
5173,6709
5165,6698
5161,6691
5160,6690
5159,6690
5156,6688
5151,6686
5144,6685
5136,6685
5129,6687
5126,6689
5125,6691
5123,6693
5117,6699
5112,6705
5110,6708
5109,6710
5107,6713
5104,6719
5101,6724
5100,6727
5100,6728
5100,6729
5098,6732
5097,6735
5095,6738
5095,6739
5094,6741
5091,6746
5088,6751
5083,6758
5078,6763
5076,6766
5074,6768
5073,6769
5070,6771
5064,6773
5059,6774
5055,6774
5054,6775
5053,6775
5052,6775
5050,6775
5046,6772
5040,6768
5032,6759
5025,6750
5019,6741
5015,6733
5012,6729
5012,6728
5011,6727
5007,6720
4998,6708
4990,6697
4986,6690
4985,6689
4984,6689
4981,6687
4976,6685
4969,6683
4961,6684
4954,6687
4951,6689
4950,6690
4947,6693
4942,6699
4937,6705
4935,6708
4935,6710
4933,6713
4930,6719
4927,6724
4926,6727
4925,6728
4925,6729
4925,6730
4924,6732
4922,6736
4921,6738
4921,6739
4921,6740
4919,6742
4917,6746
4913,6752
4908,6758
4902,6764
4900,6767
4899,6768
4896,6770
4889,6773
4884,6774
4881,6774
4879,6775
4878,6775
4877,6775
4876,6775
4872,6772
4866,6768
4858,6760
4851,6751
4845,6742
4841,6734
4838,6730
4838,6729
4837,6728
4833,6721
4824,6709
4816,6698
4812,6691
4811,6690
4810,6690
4807,6688
4802,6686
4795,6685
4787,6685
4780,6687
4777,6689
4776,6691
4773,6693
4768,6699
4763,6705
4761,6708
4761,6710
4759,6713
4756,6719
4753,6724
4752,6727
4751,6728
4751,6729
" style="stroke:#ffffff;stroke-width:7;
stroke-linejoin:bevel; stroke-linecap:round;
"/>
<!-- Line -->
<!--  spline  -->
<polyline points="4751,6729
4751,6730
4753,6732
4754,6736
4756,6738
4756,6739
4756,6740
4757,6742
4760,6746
4763,6752
4768,6758
4773,6764
4776,6767
4777,6768
4780,6770
4787,6773
4792,6774
4796,6774
4797,6775
4798,6775
4799,6775
4801,6775
4805,6772
4811,6768
4819,6760
4826,6751
4831,6742
4835,6734
4838,6730
4838,6729
4839,6728
4843,6721
4852,6709
4861,6698
4865,6691
4866,6690
4867,6690
4870,6688
4875,6686
4882,6685
4890,6685
4897,6687
4900,6689
4901,6691
4904,6693
4909,6699
4914,6705
4916,6708
4916,6710
4918,6713
4921,6719
4924,6724
4925,6727
4926,6728
4926,6729
4927,6732
4929,6735
4930,6738
4930,6739
4932,6741
4934,6746
4938,6751
4943,6758
4949,6764
4951,6767
4952,6768
4955,6770
4962,6773
4967,6774
4971,6774
4972,6775
4973,6775
4974,6775
4976,6775
4980,6772
4986,6768
4994,6759
5001,6750
5006,6741
5010,6733
5013,6729
5013,6728
5014,6727
5018,6720
5027,6708
5035,6697
5039,6690
5040,6689
5041,6689
5044,6687
5049,6685
5056,6683
5064,6684
5071,6687
5074,6689
5075,6690
5077,6693
5083,6699
5088,6705
5090,6708
5091,6710
5093,6713
5096,6719
5099,6724
5100,6727
5100,6728
5100,6729
5100,6730
5101,6732
5103,6736
5104,6738
5104,6739
5104,6740
5106,6742
5108,6746
5112,6752
5117,6758
5123,6764
5125,6767
5126,6768
5129,6770
5136,6773
5141,6774
5145,6774
5146,6775
5147,6775
5148,6775
5150,6775
5154,6772
5160,6768
5168,6760
5175,6751
5180,6742
5184,6734
5187,6730
5187,6729
5188,6728
5192,6721
5201,6709
5210,6698
5214,6691
5215,6690
5216,6690
5219,6688
5224,6686
5230,6685
5238,6685
5245,6687
5248,6689
5249,6691
5251,6693
5257,6699
5262,6705
5264,6708
5265,6710
5267,6713
5270,6719
5273,6724
5274,6727
5274,6728
5274,6729
" style="stroke:#ffffff;stroke-width:15;
stroke-linejoin:bevel; stroke-linecap:round;
"/>
<!-- Line -->
<!--  spline  -->
<polyline points="5284,6729
5284,6730
5282,6732
5281,6736
5279,6738
5279,6739
5279,6740
5278,6742
5275,6746
5272,6752
5267,6758
5262,6763
5260,6766
5258,6768
5257,6769
5254,6771
5248,6773
5243,6774
5239,6774
5238,6775
5237,6775
5236,6775
5234,6775
5230,6772
5224,6768
5216,6760
5209,6751
5203,6742
5199,6734
5196,6730
5196,6729
5195,6728
5191,6721
5182,6709
5174,6698
5170,6691
5169,6690
5168,6690
5165,6688
5160,6686
5153,6685
5145,6685
5138,6687
5135,6689
5134,6691
5132,6693
5126,6699
5121,6705
5119,6708
5118,6710
5116,6713
5113,6719
5110,6724
5109,6727
5109,6728
5109,6729
5107,6732
5106,6735
5104,6738
5104,6739
5103,6741
5100,6746
5097,6751
5092,6758
5087,6763
5085,6766
5083,6768
5082,6769
5079,6771
5073,6773
5068,6774
5064,6774
5063,6775
5062,6775
5061,6775
5059,6775
5055,6772
5049,6768
5041,6759
5034,6750
5029,6741
5025,6733
5022,6729
5022,6728
5021,6727
5017,6720
5008,6708
4999,6697
4995,6690
4994,6689
4993,6689
4990,6687
4985,6685
4978,6683
4970,6684
4963,6687
4960,6689
4959,6690
4956,6693
4951,6699
4946,6705
4944,6708
4943,6710
4942,6713
4939,6719
4937,6724
4936,6727
4935,6728
4935,6729
4935,6730
4933,6732
4932,6736
4930,6738
4930,6739
4930,6740
4929,6742
4926,6746
4923,6752
4918,6758
4913,6763
4911,6766
4909,6768
4908,6769
4905,6771
4899,6773
4894,6774
4890,6774
4889,6775
4888,6775
4887,6775
4885,6775
4881,6772
4875,6768
4867,6760
4860,6751
4854,6742
4850,6734
4847,6730
4847,6729
4846,6728
4842,6721
4833,6709
4825,6698
4821,6691
4820,6690
4819,6690
4816,6688
4811,6686
4804,6685
4796,6685
4789,6687
4786,6689
4785,6691
4782,6693
4777,6699
4772,6705
4770,6708
4770,6710
4768,6713
4765,6719
4762,6724
4761,6727
4760,6728
4760,6729
" style="stroke:#000000;stroke-width:7;
stroke-linejoin:bevel; stroke-linecap:round;
"/>
<!-- Line -->
<!--  spline  -->
<polyline points="4760,6729
4760,6730
4762,6732
4763,6736
4765,6738
4765,6739
4765,6740
4766,6742
4769,6746
4772,6752
4777,6758
4782,6764
4785,6767
4786,6768
4789,6770
4796,6773
4801,6774
4805,6774
4806,6775
4807,6775
4808,6775
4810,6775
4814,6772
4820,6768
4828,6760
4835,6751
4841,6742
4845,6734
4848,6730
4848,6729
4849,6728
4853,6721
4862,6709
4870,6698
4874,6691
4875,6690
4876,6690
4879,6688
4884,6686
4891,6685
4899,6685
4906,6687
4909,6689
4910,6691
4913,6693
4918,6699
4923,6705
4925,6708
4925,6710
4927,6713
4930,6719
4933,6724
4934,6727
4935,6728
4935,6729
4936,6732
4938,6735
4939,6738
4939,6739
4941,6741
4943,6746
4947,6751
4952,6758
4958,6764
4960,6767
4961,6768
4964,6770
4971,6773
4976,6774
4980,6774
4981,6775
4982,6775
4983,6775
4985,6775
4989,6772
4995,6768
5003,6759
5010,6750
5015,6741
5019,6733
5022,6729
5022,6728
5023,6727
5027,6720
5036,6708
5044,6697
5048,6690
5049,6689
5050,6689
5053,6687
5058,6685
5065,6683
5073,6684
5080,6687
5083,6689
5084,6690
5086,6693
5092,6699
5097,6705
5099,6708
5100,6710
5102,6713
5105,6719
5108,6724
5109,6727
5109,6728
5109,6729
5109,6730
5111,6732
5112,6736
5114,6738
5114,6739
5114,6740
5115,6742
5118,6746
5121,6752
5126,6758
5131,6764
5134,6767
5135,6768
5138,6770
5145,6773
5150,6774
5154,6774
5155,6775
5156,6775
5157,6775
5159,6775
5163,6772
5169,6768
5177,6760
5184,6751
5189,6742
5193,6734
5196,6730
5196,6729
5197,6728
5201,6721
5210,6709
5219,6698
5223,6691
5224,6690
5225,6690
5228,6688
5233,6686
5240,6685
5248,6685
5255,6687
5258,6689
5259,6691
5262,6693
5267,6699
5272,6705
5274,6708
5274,6710
5276,6713
5279,6719
5282,6724
5283,6727
5284,6728
5284,6729
" style="stroke:#000000;stroke-width:15;
stroke-linejoin:bevel; stroke-linecap:round;
"/>
<!-- Line -->
<!--  spline  -->
<polyline points="5274,6729
5274,6730
5273,6732
5271,6736
5270,6738
5270,6739
5270,6740
5268,6742
5266,6746
5262,6752
5257,6758
5251,6764
5249,6767
5248,6768
5245,6770
5238,6773
5233,6774
5229,6774
5228,6775
5227,6775
5226,6775
5224,6775
5220,6772
5214,6768
5206,6760
5199,6751
5194,6742
5190,6734
5187,6730
5187,6729
5186,6728
5182,6721
5173,6709
5165,6698
5161,6691
5160,6690
5159,6690
5156,6688
5151,6686
5144,6685
5136,6685
5129,6687
5126,6689
5125,6691
5123,6693
5117,6699
5112,6705
5110,6708
5109,6710
5107,6713
5104,6719
5101,6724
5100,6727
5100,6728
5100,6729
5098,6732
5097,6735
5095,6738
5095,6739
5094,6741
5091,6746
5088,6751
5083,6758
5078,6763
5076,6766
5074,6768
5073,6769
5070,6771
5064,6773
5059,6774
5055,6774
5054,6775
5053,6775
5052,6775
5050,6775
5046,6772
5040,6768
5032,6759
5025,6750
5019,6741
5015,6733
5012,6729
5012,6728
5011,6727
5007,6720
4998,6708
4990,6697
4986,6690
4985,6689
4984,6689
4981,6687
4976,6685
4969,6683
4961,6684
4954,6687
4951,6689
4950,6690
4947,6693
4942,6699
4937,6705
4935,6708
4935,6710
4933,6713
4930,6719
4927,6724
4926,6727
4925,6728
4925,6729
4925,6730
4924,6732
4922,6736
4921,6738
4921,6739
4921,6740
4919,6742
4917,6746
4913,6752
4908,6758
4902,6764
4900,6767
4899,6768
4896,6770
4889,6773
4884,6774
4881,6774
4879,6775
4878,6775
4877,6775
4876,6775
4872,6772
4866,6768
4858,6760
4851,6751
4845,6742
4841,6734
4838,6730
4838,6729
4837,6728
4833,6721
4824,6709
4816,6698
4812,6691
4811,6690
4810,6690
4807,6688
4802,6686
4795,6685
4787,6685
4780,6687
4777,6689
4776,6691
4773,6693
4768,6699
4763,6705
4761,6708
4761,6710
4759,6713
4756,6719
4753,6724
4752,6727
4751,6728
4751,6729
" style="stroke:#ffffff;stroke-width:7;
stroke-linejoin:bevel; stroke-linecap:round;
"/>
<!-- Line -->
<!--  spline  -->
<polyline points="4751,6729
4751,6730
4753,6732
4754,6736
4756,6738
4756,6739
4756,6740
4757,6742
4760,6746
4763,6752
4768,6758
4773,6764
4776,6767
4777,6768
4780,6770
4787,6773
4792,6774
4796,6774
4797,6775
4798,6775
4799,6775
4801,6775
4805,6772
4811,6768
4819,6760
4826,6751
4831,6742
4835,6734
4838,6730
4838,6729
4839,6728
4843,6721
4852,6709
4861,6698
4865,6691
4866,6690
4867,6690
4870,6688
4875,6686
4882,6685
4890,6685
4897,6687
4900,6689
4901,6691
4904,6693
4909,6699
4914,6705
4916,6708
4916,6710
4918,6713
4921,6719
4924,6724
4925,6727
4926,6728
4926,6729
4927,6732
4929,6735
4930,6738
4930,6739
4932,6741
4934,6746
4938,6751
4943,6758
4949,6764
4951,6767
4952,6768
4955,6770
4962,6773
4967,6774
4971,6774
4972,6775
4973,6775
4974,6775
4976,6775
4980,6772
4986,6768
4994,6759
5001,6750
5006,6741
5010,6733
5013,6729
5013,6728
5014,6727
5018,6720
5027,6708
5035,6697
5039,6690
5040,6689
5041,6689
5044,6687
5049,6685
5056,6683
5064,6684
5071,6687
5074,6689
5075,6690
5077,6693
5083,6699
5088,6705
5090,6708
5091,6710
5093,6713
5096,6719
5099,6724
5100,6727
5100,6728
5100,6729
5100,6730
5101,6732
5103,6736
5104,6738
5104,6739
5104,6740
5106,6742
5108,6746
5112,6752
5117,6758
5123,6764
5125,6767
5126,6768
5129,6770
5136,6773
5141,6774
5145,6774
5146,6775
5147,6775
5148,6775
5150,6775
5154,6772
5160,6768
5168,6760
5175,6751
5180,6742
5184,6734
5187,6730
5187,6729
5188,6728
5192,6721
5201,6709
5210,6698
5214,6691
5215,6690
5216,6690
5219,6688
5224,6686
5230,6685
5238,6685
5245,6687
5248,6689
5249,6691
5251,6693
5257,6699
5262,6705
5264,6708
5265,6710
5267,6713
5270,6719
5273,6724
5274,6727
5274,6728
5274,6729
" style="stroke:#ffffff;stroke-width:15;
stroke-linejoin:bevel; stroke-linecap:round;
"/>
<!-- Line -->
<!--  spline  -->
<polyline points="5284,6729
5284,6730
5282,6732
5281,6736
5279,6738
5279,6739
5279,6740
5278,6742
5275,6746
5272,6752
5267,6758
5262,6763
5260,6766
5258,6768
5257,6769
5254,6771
5248,6773
5243,6774
5239,6774
5238,6775
5237,6775
5236,6775
5234,6775
5230,6772
5224,6768
5216,6760
5209,6751
5203,6742
5199,6734
5196,6730
5196,6729
5195,6728
5191,6721
5182,6709
5174,6698
5170,6691
5169,6690
5168,6690
5165,6688
5160,6686
5153,6685
5145,6685
5138,6687
5135,6689
5134,6691
5132,6693
5126,6699
5121,6705
5119,6708
5118,6710
5116,6713
5113,6719
5110,6724
5109,6727
5109,6728
5109,6729
5107,6732
5106,6735
5104,6738
5104,6739
5103,6741
5100,6746
5097,6751
5092,6758
5087,6763
5085,6766
5083,6768
5082,6769
5079,6771
5073,6773
5068,6774
5064,6774
5063,6775
5062,6775
5061,6775
5059,6775
5055,6772
5049,6768
5041,6759
5034,6750
5029,6741
5025,6733
5022,6729
5022,6728
5021,6727
5017,6720
5008,6708
4999,6697
4995,6690
4994,6689
4993,6689
4990,6687
4985,6685
4978,6683
4970,6684
4963,6687
4960,6689
4959,6690
4956,6693
4951,6699
4946,6705
4944,6708
4943,6710
4942,6713
4939,6719
4937,6724
4936,6727
4935,6728
4935,6729
4935,6730
4933,6732
4932,6736
4930,6738
4930,6739
4930,6740
4929,6742
4926,6746
4923,6752
4918,6758
4913,6763
4911,6766
4909,6768
4908,6769
4905,6771
4899,6773
4894,6774
4890,6774
4889,6775
4888,6775
4887,6775
4885,6775
4881,6772
4875,6768
4867,6760
4860,6751
4854,6742
4850,6734
4847,6730
4847,6729
4846,6728
4842,6721
4833,6709
4825,6698
4821,6691
4820,6690
4819,6690
4816,6688
4811,6686
4804,6685
4796,6685
4789,6687
4786,6689
4785,6691
4782,6693
4777,6699
4772,6705
4770,6708
4770,6710
4768,6713
4765,6719
4762,6724
4761,6727
4760,6728
4760,6729
" style="stroke:#000000;stroke-width:7;
stroke-linejoin:bevel; stroke-linecap:round;
"/>
<!-- Line -->
<!--  spline  -->
<polyline points="4760,6729
4760,6730
4762,6732
4763,6736
4765,6738
4765,6739
4765,6740
4766,6742
4769,6746
4772,6752
4777,6758
4782,6764
4785,6767
4786,6768
4789,6770
4796,6773
4801,6774
4805,6774
4806,6775
4807,6775
4808,6775
4810,6775
4814,6772
4820,6768
4828,6760
4835,6751
4841,6742
4845,6734
4848,6730
4848,6729
4849,6728
4853,6721
4862,6709
4870,6698
4874,6691
4875,6690
4876,6690
4879,6688
4884,6686
4891,6685
4899,6685
4906,6687
4909,6689
4910,6691
4913,6693
4918,6699
4923,6705
4925,6708
4925,6710
4927,6713
4930,6719
4933,6724
4934,6727
4935,6728
4935,6729
4936,6732
4938,6735
4939,6738
4939,6739
4941,6741
4943,6746
4947,6751
4952,6758
4958,6764
4960,6767
4961,6768
4964,6770
4971,6773
4976,6774
4980,6774
4981,6775
4982,6775
4983,6775
4985,6775
4989,6772
4995,6768
5003,6759
5010,6750
5015,6741
5019,6733
5022,6729
5022,6728
5023,6727
5027,6720
5036,6708
5044,6697
5048,6690
5049,6689
5050,6689
5053,6687
5058,6685
5065,6683
5073,6684
5080,6687
5083,6689
5084,6690
5086,6693
5092,6699
5097,6705
5099,6708
5100,6710
5102,6713
5105,6719
5108,6724
5109,6727
5109,6728
5109,6729
5109,6730
5111,6732
5112,6736
5114,6738
5114,6739
5114,6740
5115,6742
5118,6746
5121,6752
5126,6758
5131,6764
5134,6767
5135,6768
5138,6770
5145,6773
5150,6774
5154,6774
5155,6775
5156,6775
5157,6775
5159,6775
5163,6772
5169,6768
5177,6760
5184,6751
5189,6742
5193,6734
5196,6730
5196,6729
5197,6728
5201,6721
5210,6709
5219,6698
5223,6691
5224,6690
5225,6690
5228,6688
5233,6686
5240,6685
5248,6685
5255,6687
5258,6689
5259,6691
5262,6693
5267,6699
5272,6705
5274,6708
5274,6710
5276,6713
5279,6719
5282,6724
5283,6727
5284,6728
5284,6729
" style="stroke:#000000;stroke-width:15;
stroke-linejoin:bevel; stroke-linecap:round;
"/>
<!-- Line -->
<!--  spline  -->
<polyline points="5274,6729
5274,6730
5273,6732
5271,6736
5270,6738
5270,6739
5270,6740
5268,6742
5266,6746
5262,6752
5257,6758
5251,6764
5249,6767
5248,6768
5245,6770
5238,6773
5233,6774
5229,6774
5228,6775
5227,6775
5226,6775
5224,6775
5220,6772
5214,6768
5206,6760
5199,6751
5194,6742
5190,6734
5187,6730
5187,6729
5186,6728
5182,6721
5173,6709
5165,6698
5161,6691
5160,6690
5159,6690
5156,6688
5151,6686
5144,6685
5136,6685
5129,6687
5126,6689
5125,6691
5123,6693
5117,6699
5112,6705
5110,6708
5109,6710
5107,6713
5104,6719
5101,6724
5100,6727
5100,6728
5100,6729
5098,6732
5097,6735
5095,6738
5095,6739
5094,6741
5091,6746
5088,6751
5083,6758
5078,6763
5076,6766
5074,6768
5073,6769
5070,6771
5064,6773
5059,6774
5055,6774
5054,6775
5053,6775
5052,6775
5050,6775
5046,6772
5040,6768
5032,6759
5025,6750
5019,6741
5015,6733
5012,6729
5012,6728
5011,6727
5007,6720
4998,6708
4990,6697
4986,6690
4985,6689
4984,6689
4981,6687
4976,6685
4969,6683
4961,6684
4954,6687
4951,6689
4950,6690
4947,6693
4942,6699
4937,6705
4935,6708
4935,6710
4933,6713
4930,6719
4927,6724
4926,6727
4925,6728
4925,6729
4925,6730
4924,6732
4922,6736
4921,6738
4921,6739
4921,6740
4919,6742
4917,6746
4913,6752
4908,6758
4902,6764
4900,6767
4899,6768
4896,6770
4889,6773
4884,6774
4881,6774
4879,6775
4878,6775
4877,6775
4876,6775
4872,6772
4866,6768
4858,6760
4851,6751
4845,6742
4841,6734
4838,6730
4838,6729
4837,6728
4833,6721
4824,6709
4816,6698
4812,6691
4811,6690
4810,6690
4807,6688
4802,6686
4795,6685
4787,6685
4780,6687
4777,6689
4776,6691
4773,6693
4768,6699
4763,6705
4761,6708
4761,6710
4759,6713
4756,6719
4753,6724
4752,6727
4751,6728
4751,6729
" style="stroke:#ffffff;stroke-width:7;
stroke-linejoin:bevel; stroke-linecap:round;
"/>
<!-- Line -->
<!--  spline  -->
<polyline points="4751,6729
4751,6730
4753,6732
4754,6736
4756,6738
4756,6739
4756,6740
4757,6742
4760,6746
4763,6752
4768,6758
4773,6764
4776,6767
4777,6768
4780,6770
4787,6773
4792,6774
4796,6774
4797,6775
4798,6775
4799,6775
4801,6775
4805,6772
4811,6768
4819,6760
4826,6751
4831,6742
4835,6734
4838,6730
4838,6729
4839,6728
4843,6721
4852,6709
4861,6698
4865,6691
4866,6690
4867,6690
4870,6688
4875,6686
4882,6685
4890,6685
4897,6687
4900,6689
4901,6691
4904,6693
4909,6699
4914,6705
4916,6708
4916,6710
4918,6713
4921,6719
4924,6724
4925,6727
4926,6728
4926,6729
4927,6732
4929,6735
4930,6738
4930,6739
4932,6741
4934,6746
4938,6751
4943,6758
4949,6764
4951,6767
4952,6768
4955,6770
4962,6773
4967,6774
4971,6774
4972,6775
4973,6775
4974,6775
4976,6775
4980,6772
4986,6768
4994,6759
5001,6750
5006,6741
5010,6733
5013,6729
5013,6728
5014,6727
5018,6720
5027,6708
5035,6697
5039,6690
5040,6689
5041,6689
5044,6687
5049,6685
5056,6683
5064,6684
5071,6687
5074,6689
5075,6690
5077,6693
5083,6699
5088,6705
5090,6708
5091,6710
5093,6713
5096,6719
5099,6724
5100,6727
5100,6728
5100,6729
5100,6730
5101,6732
5103,6736
5104,6738
5104,6739
5104,6740
5106,6742
5108,6746
5112,6752
5117,6758
5123,6764
5125,6767
5126,6768
5129,6770
5136,6773
5141,6774
5145,6774
5146,6775
5147,6775
5148,6775
5150,6775
5154,6772
5160,6768
5168,6760
5175,6751
5180,6742
5184,6734
5187,6730
5187,6729
5188,6728
5192,6721
5201,6709
5210,6698
5214,6691
5215,6690
5216,6690
5219,6688
5224,6686
5230,6685
5238,6685
5245,6687
5248,6689
5249,6691
5251,6693
5257,6699
5262,6705
5264,6708
5265,6710
5267,6713
5270,6719
5273,6724
5274,6727
5274,6728
5274,6729
" style="stroke:#ffffff;stroke-width:15;
stroke-linejoin:bevel; stroke-linecap:round;
"/>
<!-- Text -->
<!--  text  -->
<text xml:space="preserve" x="4809" y="6541" fill="#ffffff"  font-family="Helvetica" font-style="normal" font-weight="bold" font-size="120" text-anchor="start">L</text>
<!-- Text -->
<!--  text  -->
<text xml:space="preserve" x="4886" y="6541" fill="#ffffff"  font-family="Helvetica" font-style="normal" font-weight="bold" font-size="120" text-anchor="start">W</text>
<!-- Text -->
<!--  text  -->
<text xml:space="preserve" x="5013" y="6541" fill="#ffffff"  font-family="Helvetica" font-style="normal" font-weight="bold" font-size="120" text-anchor="start">A</text>
<!-- Text -->
<!--  text  -->
<text xml:space="preserve" x="5118" y="6541" fill="#ffffff"  font-family="Helvetica" font-style="normal" font-weight="bold" font-size="120" text-anchor="start">P</text>
<!-- Text -->
<!--  text  -->
<text xml:space="preserve" x="5214" y="6541" fill="#ffffff"  font-family="Helvetica" font-style="normal" font-weight="bold" font-size="120" text-anchor="start">P</text>
</g>
</svg>
