<?xml version="1.0" standalone="no"?>
<!DOCTYPE svg PUBLIC "-//W3C//DTD SVG 1.1//EN"
"http://www.w3.org/Graphics/SVG/1.1/DTD/svg11.dtd">
<!-- Creator: fig2dev Version 3.2 Patchlevel 5c -->
<!-- CreationDate: Fri Sep 14 10:46:32 2012 -->
<!-- Magnification: 1.000 -->
<svg xmlns="http://www.w3.org/2000/svg" width="0.4in" height="0.4in" viewBox="-4 12700 441 504">
<g style="stroke-width:.025in; fill:none">
<!-- Line -->
<!--  spline  -->
<polyline points="341,13192
343,13192
345,13192
347,13192
348,13192
348,13191
350,13190
351,13189
352,13188
353,13188
354,13187
355,13186
356,13185
356,13184
356,13183
357,13181
357,13179
358,13178
358,13177
358,13176
358,13175
358,13172
358,13164
358,13149
358,13128
358,13103
358,13074
358,13045
358,13020
358,12999
358,12984
358,12976
358,12973
358,12972
358,12970
357,12968
357,12966
357,12965
356,12963
355,12962
354,12961
353,12960
352,12959
351,12958
350,12957
349,12957
347,12956
345,12956
343,12955
342,12955
341,12955
340,12955
337,12955
328,12955
312,12955
288,12955
258,12955
222,12955
183,12955
144,12955
108,12955
78,12955
54,12955
38,12955
29,12955
26,12955
25,12955
23,12955
21,12956
19,12956
18,12956
16,12957
15,12958
14,12959
13,12960
12,12961
11,12962
10,12963
10,12964
9,12966
9,12968
8,12970
8,12971
8,12972
8,12973
8,12976
8,12984
8,12999
8,13020
8,13045
8,13074
8,13103
8,13128
8,13149
8,13164
8,13172
8,13175
8,13176
8,13178
9,13179
9,13181
9,13182
9,13183
10,13184
11,13186
12,13187
13,13188
14,13188
15,13189
16,13190
17,13191
19,13192
21,13192
23,13192
24,13192
25,13192
26,13192
29,13192
38,13192
54,13192
78,13192
108,13192
144,13192
183,13192
222,13192
258,13192
288,13192
312,13192
328,13192
337,13192
340,13192
341,13192
" style="stroke:#02709f;stroke-width:0;
stroke-linejoin:bevel; stroke-linecap:butt;
fill:#02709f;
"/>
<!-- Line -->
<!--  spline  -->
<polyline points="341,13192
343,13192
345,13192
347,13192
348,13192
348,13191
350,13190
351,13189
352,13188
353,13188
354,13187
355,13186
356,13185
356,13184
356,13183
357,13181
357,13179
358,13178
358,13177
358,13176
358,13175
358,13172
358,13164
358,13149
358,13128
358,13103
358,13074
358,13045
358,13020
358,12999
358,12984
358,12976
358,12973
358,12972
358,12970
357,12968
357,12966
357,12965
356,12963
355,12962
354,12961
353,12960
352,12959
351,12958
350,12957
349,12957
347,12956
345,12956
343,12955
342,12955
341,12955
340,12955
337,12955
328,12955
312,12955
288,12955
258,12955
222,12955
183,12955
144,12955
108,12955
78,12955
54,12955
38,12955
29,12955
26,12955
25,12955
23,12955
21,12956
19,12956
18,12956
16,12957
15,12958
14,12959
13,12960
12,12961
11,12962
10,12963
10,12964
9,12966
9,12968
8,12970
8,12971
8,12972
8,12973
8,12976
8,12984
8,12999
8,13020
8,13045
8,13074
8,13103
8,13128
8,13149
8,13164
8,13172
8,13175
8,13176
8,13178
9,13179
9,13181
9,13182
9,13183
10,13184
11,13186
12,13187
13,13188
14,13188
15,13189
16,13190
17,13191
19,13192
21,13192
23,13192
24,13192
25,13192
26,13192
29,13192
38,13192
54,13192
78,13192
108,13192
144,13192
183,13192
222,13192
258,13192
288,13192
312,13192
328,13192
337,13192
340,13192
341,13192
" style="stroke:#ffffff;stroke-width:7;
stroke-linejoin:bevel; stroke-linecap:butt;
"/>
<!-- Line -->
<!--  polyline  -->
<polyline points="358,12954
425,12888
75,12888
8,12954
358,12954
" style="stroke:#02709f;stroke-width:0;
stroke-linejoin:miter; stroke-linecap:butt;
fill:#02709f;
"/>
<!-- Line -->
<!--  polyline  -->
<polyline points="358,12954
425,12888
75,12888
8,12954
358,12954
" style="stroke:#ffffff;stroke-width:7;
stroke-linejoin:miter; stroke-linecap:butt;
"/>
<!-- Line -->
<!--  polyline  -->
<polyline points="425,13125
425,12888
358,12954
358,13192
425,13125
" style="stroke:#02709f;stroke-width:0;
stroke-linejoin:miter; stroke-linecap:butt;
fill:#02709f;
"/>
<!-- Line -->
<!--  polyline  -->
<polyline points="425,13125
425,12888
358,12954
358,13192
425,13125
" style="stroke:#ffffff;stroke-width:7;
stroke-linejoin:miter; stroke-linecap:butt;
"/>
<!-- Line -->
<!--  spline  -->
<polyline points="219,12741
218,12741
210,12743
199,12744
191,12746
190,12746
189,12746
186,12748
180,12750
174,12754
165,12759
158,12765
155,12767
153,12768
151,12771
145,12778
140,12786
138,12789
137,12790
135,12794
132,12803
129,12813
128,12821
127,12827
127,12831
127,12832
127,12833
127,12839
127,12853
127,12873
127,12892
127,12906
127,12912
127,12913
127,12914
127,12916
127,12917
127,12918
126,12919
126,12920
125,12921
124,12922
124,12923
123,12923
122,12924
121,12925
120,12925
119,12925
117,12926
115,12927
114,12927
113,12928
112,12928
110,12928
108,12927
106,12927
105,12927
104,12927
103,12926
101,12926
99,12925
98,12925
97,12925
96,12924
95,12923
94,12923
94,12922
93,12921
92,12920
92,12919
91,12918
91,12917
91,12916
91,12910
91,12896
91,12877
91,12858
91,12844
91,12838
91,12837
91,12836
92,12829
95,12817
97,12805
98,12798
98,12797
98,12796
99,12793
101,12788
104,12781
109,12773
115,12763
122,12754
126,12750
127,12748
129,12747
133,12743
142,12736
151,12730
156,12726
159,12725
161,12724
166,12722
177,12718
189,12715
198,12713
206,12712
212,12712
215,12712
216,12712
217,12712
224,12713
236,12715
248,12717
255,12718
256,12718
257,12718
260,12719
265,12722
272,12725
280,12729
290,12736
299,12743
303,12747
305,12748
306,12750
310,12754
317,12763
323,12772
327,12777
328,12779
329,12781
331,12786
335,12797
338,12809
340,12818
341,12826
341,12833
341,12836
341,12837
341,12838
341,12845
341,12860
341,12881
341,12902
341,12917
341,12924
341,12925
341,12926
340,12927
340,12928
340,12929
339,12930
338,12931
337,12932
336,12932
335,12932
334,12933
333,12934
332,12934
332,12935
330,12935
328,12935
326,12935
325,12935
324,12935
322,12935
321,12934
319,12934
318,12933
317,12933
316,12931
314,12930
313,12929
312,12928
312,12927
311,12926
310,12924
309,12924
309,12923
308,12921
308,12919
308,12918
308,12917
308,12916
308,12909
308,12895
308,12875
308,12854
308,12840
308,12833
308,12832
308,12831
307,12823
305,12812
304,12804
304,12803
304,12802
302,12799
300,12793
296,12786
291,12778
285,12771
283,12768
282,12767
279,12765
272,12759
264,12754
261,12752
260,12751
256,12749
247,12746
237,12743
230,12742
223,12741
220,12741
219,12741
" style="stroke:#02709f;stroke-width:0;
stroke-linejoin:bevel; stroke-linecap:butt;
fill:#02709f;
"/>
<!-- Line -->
<!--  spline  -->
<polyline points="219,12741
218,12741
210,12743
199,12744
191,12746
190,12746
189,12746
186,12748
180,12750
174,12754
165,12759
158,12765
155,12767
153,12768
151,12771
145,12778
140,12786
138,12789
137,12790
135,12794
132,12803
129,12813
128,12821
127,12827
127,12831
127,12832
127,12833
127,12839
127,12853
127,12873
127,12892
127,12906
127,12912
127,12913
127,12914
127,12916
127,12917
127,12918
126,12919
126,12920
125,12921
124,12922
124,12923
123,12923
122,12924
121,12925
120,12925
119,12925
117,12926
115,12927
114,12927
113,12928
112,12928
110,12928
108,12927
106,12927
105,12927
104,12927
103,12926
101,12926
99,12925
98,12925
97,12925
96,12924
95,12923
94,12923
94,12922
93,12921
92,12920
92,12919
91,12918
91,12917
91,12916
91,12910
91,12896
91,12877
91,12858
91,12844
91,12838
91,12837
91,12836
92,12829
95,12817
97,12805
98,12798
98,12797
98,12796
99,12793
101,12788
104,12781
109,12773
115,12763
122,12754
126,12750
127,12748
129,12747
133,12743
142,12736
151,12730
156,12726
159,12725
161,12724
166,12722
177,12718
189,12715
198,12713
206,12712
212,12712
215,12712
216,12712
217,12712
224,12713
236,12715
248,12717
255,12718
256,12718
257,12718
260,12719
265,12722
272,12725
280,12729
290,12736
299,12743
303,12747
305,12748
306,12750
310,12754
317,12763
323,12772
327,12777
328,12779
329,12781
331,12786
335,12797
338,12809
340,12818
341,12826
341,12833
341,12836
341,12837
341,12838
341,12845
341,12860
341,12881
341,12902
341,12917
341,12924
341,12925
341,12926
340,12927
340,12928
340,12929
339,12930
338,12931
337,12932
336,12932
335,12932
334,12933
333,12934
332,12934
332,12935
330,12935
328,12935
326,12935
325,12935
324,12935
322,12935
321,12934
319,12934
318,12933
317,12933
316,12931
314,12930
313,12929
312,12928
312,12927
311,12926
310,12924
309,12924
309,12923
308,12921
308,12919
308,12918
308,12917
308,12916
308,12909
308,12895
308,12875
308,12854
308,12840
308,12833
308,12832
308,12831
307,12823
305,12812
304,12804
304,12803
304,12802
302,12799
300,12793
296,12786
291,12778
285,12771
283,12768
282,12767
279,12765
272,12759
264,12754
261,12752
260,12751
256,12749
247,12746
237,12743
230,12742
223,12741
220,12741
219,12741
" style="stroke:#ffffff;stroke-width:7;
stroke-linejoin:bevel; stroke-linecap:butt;
"/>
<!-- Line -->
<!--  spline  -->
<polyline points="183,13094
186,13094
189,13093
192,13093
193,13092
195,13091
197,13089
200,13087
202,13085
203,13084
203,13083
204,13082
206,13079
208,13076
208,13075
209,13074
209,13073
210,13069
211,13065
211,13062
211,13059
211,13057
211,13056
211,13054
210,13049
210,13047
210,13046
210,13044
209,13042
208,13039
206,13036
204,13033
203,13032
203,13031
202,13030
200,13028
198,13026
196,13025
196,13024
195,13023
192,13022
189,13021
186,13021
184,13021
183,13021
180,13021
177,13022
174,13022
173,13023
171,13024
169,13026
166,13028
164,13030
162,13031
162,13032
161,13033
159,13036
157,13039
157,13040
156,13041
156,13043
155,13046
154,13050
154,13053
154,13055
154,13057
154,13058
154,13061
155,13065
155,13068
155,13069
155,13071
156,13073
157,13076
159,13079
161,13082
162,13083
162,13084
164,13085
166,13087
169,13089
170,13090
170,13091
171,13092
174,13093
177,13094
180,13094
182,13094
183,13094
" style="stroke:#ffffff;stroke-width:0;
stroke-linejoin:bevel; stroke-linecap:butt;
fill:#ffffff;
"/>
<!-- Line -->
<!--  polyline  -->
<polyline points="191,13132
191,13060
173,13073
173,13146
191,13132
" style="stroke:#ffffff;stroke-width:0;
stroke-linejoin:miter; stroke-linecap:butt;
fill:#ffffff;
"/>
</g>
</svg>
