<?xml version="1.0" standalone="no"?>
<!DOCTYPE svg PUBLIC "-//W3C//DTD SVG 1.1//EN"
"http://www.w3.org/Graphics/SVG/1.1/DTD/svg11.dtd">
<!-- Creator: fig2dev Version 3.2 Patchlevel 5c -->
<!-- CreationDate: Fri Sep 14 10:46:32 2012 -->
<!-- Magnification: 1.000 -->
<svg xmlns="http://www.w3.org/2000/svg" width="0.5in" height="0.7in" viewBox="-8 12348 556 864">
<g style="stroke-width:.025in; fill:none">
<!-- Line -->
<!--  spline  -->
<polyline points="479,12657
479,12656
482,12654
485,12650
488,12648
488,12647
488,12645
488,12641
488,12638
485,12633
482,12630
480,12628
479,12627
479,12626
476,12625
470,12623
462,12621
459,12621
458,12620
453,12620
443,12622
432,12625
423,12628
416,12631
409,12634
406,12636
405,12636
" style="stroke:#02709f;stroke-width:0;
stroke-linejoin:bevel; stroke-linecap:butt;
fill:#02709f;
"/>
<!-- Line -->
<!--  spline  -->
<polyline points="479,12657
479,12656
482,12654
485,12650
488,12648
488,12647
488,12645
488,12641
488,12638
485,12633
482,12630
480,12628
479,12627
479,12626
476,12625
470,12623
462,12621
459,12621
458,12620
453,12620
443,12622
432,12625
423,12628
416,12631
409,12634
406,12636
405,12636
" style="stroke:#ffffff;stroke-width:7;
stroke-linejoin:bevel; stroke-linecap:butt;
"/>
<!-- Line -->
<!--  polyline  -->
<polyline points="419,12649
419,12480
196,12480
196,12649
" style="stroke:#02709f;stroke-width:0;
stroke-linejoin:miter; stroke-linecap:butt;
fill:#02709f;
"/>
<!-- Line -->
<!--  polyline  -->
<polyline points="419,12649
419,12480
196,12480
196,12649
" style="stroke:#ffffff;stroke-width:7;
stroke-linejoin:miter; stroke-linecap:butt;
"/>
<!-- Line -->
<!--  polyline  -->
<polyline points="419,12480
419,12650
445,12604
445,12455
419,12480
" style="stroke:#02709f;stroke-width:0;
stroke-linejoin:miter; stroke-linecap:butt;
fill:#02709f;
"/>
<!-- Line -->
<!--  polyline  -->
<polyline points="419,12480
419,12650
445,12604
445,12455
419,12480
" style="stroke:#ffffff;stroke-width:7;
stroke-linejoin:miter; stroke-linecap:butt;
"/>
<!-- Line -->
<!--  polyline  -->
<polyline points="445,12455
282,12455
196,12480
419,12480
445,12455
" style="stroke:#02709f;stroke-width:0;
stroke-linejoin:miter; stroke-linecap:butt;
fill:#02709f;
"/>
<!-- Line -->
<!--  polyline  -->
<polyline points="445,12455
282,12455
196,12480
419,12480
445,12455
" style="stroke:#ffffff;stroke-width:7;
stroke-linejoin:miter; stroke-linecap:butt;
"/>
<!-- Line -->
<!--  polyline  -->
<polyline points="400,12630
400,12500
215,12500
215,12630
400,12630
" style="stroke:#02709f;stroke-width:0;
stroke-linejoin:miter; stroke-linecap:butt;
fill:#02709f;
"/>
<!-- Line -->
<!--  polyline  -->
<polyline points="400,12630
400,12500
215,12500
215,12630
400,12630
" style="stroke:#ffffff;stroke-width:7;
stroke-linejoin:miter; stroke-linecap:butt;
"/>
<!-- Line -->
<!--  polyline  -->
<polyline points="384,12669
393,12691
419,12663
416,12652
" style="stroke:#02709f;stroke-width:0;
stroke-linejoin:miter; stroke-linecap:butt;
fill:#02709f;
"/>
<!-- Line -->
<!--  polyline  -->
<polyline points="384,12669
393,12691
419,12663
416,12652
" style="stroke:#ffffff;stroke-width:7;
stroke-linejoin:miter; stroke-linecap:butt;
"/>
<!-- Line -->
<!--  polyline  -->
<polyline points="384,12669
420,12650
195,12650
245,12669
384,12669
" style="stroke:#02709f;stroke-width:0;
stroke-linejoin:miter; stroke-linecap:butt;
fill:#02709f;
"/>
<!-- Line -->
<!--  polyline  -->
<polyline points="384,12669
420,12650
195,12650
245,12669
384,12669
" style="stroke:#ffffff;stroke-width:7;
stroke-linejoin:miter; stroke-linecap:butt;
"/>
<!-- Line -->
<!--  polyline  -->
<polyline points="394,12691
384,12669
245,12669
232,12691
394,12691
" style="stroke:#02709f;stroke-width:0;
stroke-linejoin:miter; stroke-linecap:butt;
fill:#02709f;
"/>
<!-- Line -->
<!--  polyline  -->
<polyline points="394,12691
384,12669
245,12669
232,12691
394,12691
" style="stroke:#ffffff;stroke-width:7;
stroke-linejoin:miter; stroke-linecap:butt;
"/>
<!-- Line -->
<!--  spline  -->
<polyline points="101,12757
100,12757
99,12757
99,12760
99,12768
99,12781
99,12800
99,12825
99,12854
99,12886
99,12917
99,12946
99,12971
99,12990
99,13003
99,13011
99,13014
98,13014
97,13014
96,13014
95,13014
94,13014
92,13014
90,13014
89,13014
88,13014
86,13014
84,13014
83,13014
82,13014
80,13014
79,13014
78,13014
78,13015
78,13016
78,13018
78,13023
78,13025
78,13026
78,13028
78,13030
78,13033
78,13036
78,13039
78,13040
78,13041
78,13044
78,13047
78,13048
79,13049
79,13050
79,13053
79,13057
79,13059
79,13061
79,13063
78,13063
77,13063
76,13063
75,13063
74,13063
72,13063
70,13063
68,13063
67,13063
66,13063
65,13063
63,13063
61,13063
60,13063
59,13064
57,13064
56,13064
55,13064
55,13062
55,13053
55,13037
55,13021
55,13012
55,13010
55,13007
55,13002
55,12994
54,12985
54,12974
54,12960
54,12944
54,12928
54,12917
54,12912
54,12909
54,12907
54,12901
54,12890
54,12874
54,12858
54,12847
54,12842
54,12839
54,12836
54,12831
54,12821
54,12806
54,12787
54,12773
53,12762
53,12753
53,12749
53,12748
" style="stroke:#02709f;stroke-width:0;
stroke-linejoin:bevel; stroke-linecap:butt;
fill:#02709f;
"/>
<!-- Line -->
<!--  spline  -->
<polyline points="101,12757
100,12757
99,12757
99,12760
99,12768
99,12781
99,12800
99,12825
99,12854
99,12886
99,12917
99,12946
99,12971
99,12990
99,13003
99,13011
99,13014
98,13014
97,13014
96,13014
95,13014
94,13014
92,13014
90,13014
89,13014
88,13014
86,13014
84,13014
83,13014
82,13014
80,13014
79,13014
78,13014
78,13015
78,13016
78,13018
78,13023
78,13025
78,13026
78,13028
78,13030
78,13033
78,13036
78,13039
78,13040
78,13041
78,13044
78,13047
78,13048
79,13049
79,13050
79,13053
79,13057
79,13059
79,13061
79,13063
78,13063
77,13063
76,13063
75,13063
74,13063
72,13063
70,13063
68,13063
67,13063
66,13063
65,13063
63,13063
61,13063
60,13063
59,13064
57,13064
56,13064
55,13064
55,13062
55,13053
55,13037
55,13021
55,13012
55,13010
55,13007
55,13002
55,12994
54,12985
54,12974
54,12960
54,12944
54,12928
54,12917
54,12912
54,12909
54,12907
54,12901
54,12890
54,12874
54,12858
54,12847
54,12842
54,12839
54,12836
54,12831
54,12821
54,12806
54,12787
54,12773
53,12762
53,12753
53,12749
53,12748
" style="stroke:#ffffff;stroke-width:7;
stroke-linejoin:bevel; stroke-linecap:butt;
"/>
<!-- Line -->
<!--  spline  -->
<polyline points="520,12739
520,12738
521,12734
521,12728
522,12724
522,12723
522,12721
523,12718
524,12715
525,12712
526,12709
527,12709
527,12708
528,12708
529,12706
530,12704
531,12704
532,12703
533,12702
534,12701
535,12700
535,12699
535,12698
535,12697
535,12696
535,12695
535,12693
535,12692
535,12691
535,12690
536,12690
536,12689
536,12688
536,12687
536,12686
536,12685
536,12684
535,12683
535,12682
533,12682
531,12682
529,12682
528,12682
527,12682
526,12682
524,12682
522,12682
521,12682
520,12682
518,12682
516,12682
515,12682
514,12682
512,12682
509,12682
507,12682
505,12682
504,12682
501,12682
493,12682
480,12682
460,12682
433,12681
401,12681
364,12681
324,12680
284,12680
247,12680
215,12680
188,12679
168,12679
155,12679
147,12679
144,12679
142,12680
140,12680
138,12681
136,12682
133,12682
129,12683
124,12685
119,12687
116,12687
115,12688
112,12688
107,12690
102,12691
100,12692
99,12692
97,12693
93,12694
90,12695
88,12695
87,12695
86,12695
83,12695
80,12696
77,12696
76,12696
74,12696
72,12697
69,12697
67,12698
66,12698
65,12698
64,12698
62,12699
59,12700
58,12700
57,12700
54,12701
51,12701
48,12702
46,12702
45,12702
45,12703
45,12704
45,12705
45,12706
45,12707
46,12707
46,12708
46,12709
46,12710
47,12711
48,12712
49,12712
50,12713
51,12713
52,12714
53,12715
54,12715
54,12716
55,12715
55,12716
56,12716
57,12717
58,12717
58,12718
58,12720
59,12723
59,12725
59,12726
59,12727
59,12728
59,12730
59,12732
60,12733
60,12735
60,12737
60,12738
60,12740
60,12742
60,12743
60,12744
60,12745
60,12746
60,12748
60,12749
60,12750
60,12752
60,12753
60,12754
60,12755
60,12756
60,12757
60,12758
60,12759
60,12760
60,12761
60,12762
60,12763
60,12764
" style="stroke:#02709f;stroke-width:0;
stroke-linejoin:bevel; stroke-linecap:butt;
fill:#02709f;
"/>
<!-- Line -->
<!--  spline  -->
<polyline points="520,12739
520,12738
521,12734
521,12728
522,12724
522,12723
522,12721
523,12718
524,12715
525,12712
526,12709
527,12709
527,12708
528,12708
529,12706
530,12704
531,12704
532,12703
533,12702
534,12701
535,12700
535,12699
535,12698
535,12697
535,12696
535,12695
535,12693
535,12692
535,12691
535,12690
536,12690
536,12689
536,12688
536,12687
536,12686
536,12685
536,12684
535,12683
535,12682
533,12682
531,12682
529,12682
528,12682
527,12682
526,12682
524,12682
522,12682
521,12682
520,12682
518,12682
516,12682
515,12682
514,12682
512,12682
509,12682
507,12682
505,12682
504,12682
501,12682
493,12682
480,12682
460,12682
433,12681
401,12681
364,12681
324,12680
284,12680
247,12680
215,12680
188,12679
168,12679
155,12679
147,12679
144,12679
142,12680
140,12680
138,12681
136,12682
133,12682
129,12683
124,12685
119,12687
116,12687
115,12688
112,12688
107,12690
102,12691
100,12692
99,12692
97,12693
93,12694
90,12695
88,12695
87,12695
86,12695
83,12695
80,12696
77,12696
76,12696
74,12696
72,12697
69,12697
67,12698
66,12698
65,12698
64,12698
62,12699
59,12700
58,12700
57,12700
54,12701
51,12701
48,12702
46,12702
45,12702
45,12703
45,12704
45,12705
45,12706
45,12707
46,12707
46,12708
46,12709
46,12710
47,12711
48,12712
49,12712
50,12713
51,12713
52,12714
53,12715
54,12715
54,12716
55,12715
55,12716
56,12716
57,12717
58,12717
58,12718
58,12720
59,12723
59,12725
59,12726
59,12727
59,12728
59,12730
59,12732
60,12733
60,12735
60,12737
60,12738
60,12740
60,12742
60,12743
60,12744
60,12745
60,12746
60,12748
60,12749
60,12750
60,12752
60,12753
60,12754
60,12755
60,12756
60,12757
60,12758
60,12759
60,12760
60,12761
60,12762
60,12763
60,12764
" style="stroke:#ffffff;stroke-width:7;
stroke-linejoin:bevel; stroke-linecap:butt;
"/>
<!-- Line -->
<!--  spline  -->
<polyline points="519,12750
518,12750
517,12750
517,12753
517,12761
517,12774
517,12793
517,12818
517,12847
517,12879
517,12910
517,12939
517,12964
517,12983
517,12996
517,13004
517,13007
516,13007
515,13007
514,13007
513,13007
512,13007
510,13007
508,13007
507,13007
506,13007
504,13007
502,13007
501,13007
500,13007
499,13007
498,13007
497,13008
496,13008
496,13009
496,13011
496,13016
496,13018
496,13019
496,13021
496,13023
496,13026
496,13029
496,13032
496,13033
496,13034
496,13037
496,13040
496,13041
497,13042
497,13043
497,13046
497,13050
497,13052
497,13054
497,13056
496,13056
495,13056
494,13056
493,13056
492,13056
490,13057
488,13057
486,13057
485,13057
484,13057
483,13057
481,13057
479,13057
478,13057
477,13057
475,13057
474,13057
473,13057
473,13055
473,13046
473,13030
473,13014
473,13005
473,13003
473,13000
473,12995
473,12987
473,12978
473,12967
473,12954
473,12938
473,12922
473,12911
473,12906
473,12903
472,12900
472,12894
472,12883
472,12867
472,12851
472,12840
472,12835
472,12832
472,12829
472,12824
472,12814
472,12799
472,12780
472,12766
471,12755
471,12746
471,12742
471,12741
" style="stroke:#02709f;stroke-width:0;
stroke-linejoin:bevel; stroke-linecap:butt;
fill:#02709f;
"/>
<!-- Line -->
<!--  spline  -->
<polyline points="519,12750
518,12750
517,12750
517,12753
517,12761
517,12774
517,12793
517,12818
517,12847
517,12879
517,12910
517,12939
517,12964
517,12983
517,12996
517,13004
517,13007
516,13007
515,13007
514,13007
513,13007
512,13007
510,13007
508,13007
507,13007
506,13007
504,13007
502,13007
501,13007
500,13007
499,13007
498,13007
497,13008
496,13008
496,13009
496,13011
496,13016
496,13018
496,13019
496,13021
496,13023
496,13026
496,13029
496,13032
496,13033
496,13034
496,13037
496,13040
496,13041
497,13042
497,13043
497,13046
497,13050
497,13052
497,13054
497,13056
496,13056
495,13056
494,13056
493,13056
492,13056
490,13057
488,13057
486,13057
485,13057
484,13057
483,13057
481,13057
479,13057
478,13057
477,13057
475,13057
474,13057
473,13057
473,13055
473,13046
473,13030
473,13014
473,13005
473,13003
473,13000
473,12995
473,12987
473,12978
473,12967
473,12954
473,12938
473,12922
473,12911
473,12906
473,12903
472,12900
472,12894
472,12883
472,12867
472,12851
472,12840
472,12835
472,12832
472,12829
472,12824
472,12814
472,12799
472,12780
472,12766
471,12755
471,12746
471,12742
471,12741
" style="stroke:#ffffff;stroke-width:7;
stroke-linejoin:bevel; stroke-linecap:butt;
"/>
<!-- Line -->
<!--  polyline  -->
<polyline points="511,12775
511,12725
59,12718
59,12764
511,12775
" style="stroke:#02709f;stroke-width:0;
stroke-linejoin:miter; stroke-linecap:butt;
fill:#02709f;
"/>
<!-- Line -->
<!--  polyline  -->
<polyline points="511,12775
511,12725
59,12718
59,12764
511,12775
" style="stroke:#ffffff;stroke-width:7;
stroke-linejoin:miter; stroke-linecap:butt;
"/>
<!-- Line -->
<!--  polyline  -->
<polyline points="532,12752
532,12702
511,12724
511,12774
532,12752
" style="stroke:#02709f;stroke-width:0;
stroke-linejoin:miter; stroke-linecap:butt;
fill:#02709f;
"/>
<!-- Line -->
<!--  polyline  -->
<polyline points="532,12752
532,12702
511,12724
511,12774
532,12752
" style="stroke:#ffffff;stroke-width:7;
stroke-linejoin:miter; stroke-linecap:butt;
"/>
<!-- Line -->
<!--  polyline  -->
<polyline points="533,12682
508,12708
45,12701
147,12677
533,12682
" style="stroke:#02709f;stroke-width:0;
stroke-linejoin:miter; stroke-linecap:butt;
fill:#02709f;
"/>
<!-- Line -->
<!--  polyline  -->
<polyline points="533,12682
508,12708
45,12701
147,12677
533,12682
" style="stroke:#ffffff;stroke-width:7;
stroke-linejoin:miter; stroke-linecap:butt;
"/>
<!-- Line -->
<!--  polyline  -->
<polyline points="473,12693
473,12684
487,12656
487,12675
473,12693
" style="stroke:#02709f;stroke-width:0;
stroke-linejoin:miter; stroke-linecap:butt;
fill:#02709f;
"/>
<!-- Line -->
<!--  polyline  -->
<polyline points="473,12693
473,12684
487,12656
487,12675
473,12693
" style="stroke:#ffffff;stroke-width:7;
stroke-linejoin:miter; stroke-linecap:butt;
"/>
<!-- Line -->
<!--  polyline  -->
<polyline points="474,12684
487,12656
456,12656
442,12684
474,12684
" style="stroke:#02709f;stroke-width:0;
stroke-linejoin:miter; stroke-linecap:butt;
fill:#02709f;
"/>
<!-- Line -->
<!--  polyline  -->
<polyline points="474,12684
487,12656
456,12656
442,12684
474,12684
" style="stroke:#ffffff;stroke-width:7;
stroke-linejoin:miter; stroke-linecap:butt;
"/>
<!-- Line -->
<!--  polyline  -->
<polyline points="442,12684
474,12684
474,12692
442,12692
442,12684
" style="stroke:#02709f;stroke-width:0;
stroke-linejoin:miter; stroke-linecap:butt;
fill:#02709f;
"/>
<!-- Line -->
<!--  polyline  -->
<polyline points="442,12684
474,12684
474,12692
442,12692
442,12684
" style="stroke:#ffffff;stroke-width:7;
stroke-linejoin:miter; stroke-linecap:butt;
"/>
<!-- Line -->
<!--  polyline  -->
<polyline points="402,12698
402,12687
425,12655
425,12674
402,12698
" style="stroke:#02709f;stroke-width:0;
stroke-linejoin:miter; stroke-linecap:butt;
fill:#02709f;
"/>
<!-- Line -->
<!--  polyline  -->
<polyline points="402,12698
402,12687
425,12655
425,12674
402,12698
" style="stroke:#ffffff;stroke-width:7;
stroke-linejoin:miter; stroke-linecap:butt;
"/>
<!-- Line -->
<!--  polyline  -->
<polyline points="402,12687
197,12687
220,12655
425,12655
402,12687
" style="stroke:#02709f;stroke-width:0;
stroke-linejoin:miter; stroke-linecap:butt;
fill:#02709f;
"/>
<!-- Line -->
<!--  polyline  -->
<polyline points="402,12687
197,12687
220,12655
425,12655
402,12687
" style="stroke:#ffffff;stroke-width:7;
stroke-linejoin:miter; stroke-linecap:butt;
"/>
<!-- Line -->
<!--  polyline  -->
<polyline points="402,12687
402,12698
197,12698
197,12687
402,12687
" style="stroke:#02709f;stroke-width:0;
stroke-linejoin:miter; stroke-linecap:butt;
fill:#02709f;
"/>
<!-- Line -->
<!--  polyline  -->
<polyline points="402,12687
402,12698
197,12698
197,12687
402,12687
" style="stroke:#ffffff;stroke-width:7;
stroke-linejoin:miter; stroke-linecap:butt;
"/>
<!-- Line -->
<!--  spline  -->
<polyline points="343,13054
343,13055
342,13058
342,13062
341,13065
341,13066
341,13068
341,13070
341,13072
341,13075
341,13077
342,13078
343,13080
344,13081
345,13082
346,13083
349,13084
353,13085
356,13086
360,13087
362,13087
362,13088
362,13087
363,13087
364,13087
364,13088
365,13088
365,13089
365,13090
366,13092
366,13093
366,13094
366,13095
366,13096
365,13097
365,13098
363,13099
361,13100
360,13100
358,13101
354,13101
349,13101
347,13101
346,13101
343,13101
334,13100
323,13098
313,13096
305,13094
300,13092
299,13092
299,13091
298,13090
298,13089
297,13088
296,13087
296,13086
295,13085
294,13084
293,13084
292,13084
291,13084
289,13085
288,13085
287,13086
286,13087
287,13087
287,13088
288,13088
289,13086
289,13085
290,13083
290,13082
291,13081
291,13080
292,13078
293,13077
293,13076
294,13074
294,13072
295,13071
295,13070
295,13068
295,13065
294,13063
293,13061
293,13060
293,13061
294,13061
294,13062
295,13062
304,13060
319,13058
333,13056
342,13054
343,13054
" style="stroke:#02709f;stroke-width:0;
stroke-linejoin:bevel; stroke-linecap:butt;
fill:#02709f;
"/>
<!-- Line -->
<!--  spline  -->
<polyline points="343,13054
343,13055
342,13058
342,13062
341,13065
341,13066
341,13068
341,13070
341,13072
341,13075
341,13077
342,13078
343,13080
344,13081
345,13082
346,13083
349,13084
353,13085
356,13086
360,13087
362,13087
362,13088
362,13087
363,13087
364,13087
364,13088
365,13088
365,13089
365,13090
366,13092
366,13093
366,13094
366,13095
366,13096
365,13097
365,13098
363,13099
361,13100
360,13100
358,13101
354,13101
349,13101
347,13101
346,13101
343,13101
334,13100
323,13098
313,13096
305,13094
300,13092
299,13092
299,13091
298,13090
298,13089
297,13088
296,13087
296,13086
295,13085
294,13084
293,13084
292,13084
291,13084
289,13085
288,13085
287,13086
286,13087
287,13087
287,13088
288,13088
289,13086
289,13085
290,13083
290,13082
291,13081
291,13080
292,13078
293,13077
293,13076
294,13074
294,13072
295,13071
295,13070
295,13068
295,13065
294,13063
293,13061
293,13060
293,13061
294,13061
294,13062
295,13062
304,13060
319,13058
333,13056
342,13054
343,13054
" style="stroke:#ffffff;stroke-width:7;
stroke-linejoin:bevel; stroke-linecap:butt;
"/>
<!-- Line -->
<!--  spline  -->
<polyline points="385,12695
386,12694
386,12693
387,12692
388,12692
388,12691
388,12690
389,12689
390,12688
391,12687
392,12685
394,12684
395,12682
396,12681
398,12680
399,12678
400,12676
401,12676
401,12675
402,12675
403,12673
404,12671
405,12671
405,12670
406,12670
407,12668
408,12666
410,12665
411,12664
412,12663
412,12662
413,12661
414,12660
414,12659
415,12658
416,12657
416,12656
417,12655
418,12654
418,12653
419,12652
420,12651
421,12650
421,12649
422,12649
423,12648
424,12647
425,12647
425,12646
427,12645
428,12645
429,12645
430,12645
431,12645
432,12645
433,12645
434,12645
435,12645
436,12645
437,12645
438,12646
439,12646
440,12647
441,12647
442,12648
443,12648
443,12649
444,12649
445,12649
445,12650
446,12650
447,12650
448,12650
449,12650
450,12651
451,12651
452,12652
453,12653
454,12653
454,12654
454,12655
454,12656
454,12657
454,12658
454,12659
453,12659
454,12659
455,12659
455,12660
456,12660
457,12660
457,12661
457,12662
458,12662
458,12663
458,12664
459,12664
459,12665
459,12666
458,12666
459,12667
459,12668
460,12669
461,12670
461,12671
462,12672
463,12673
463,12674
464,12675
464,12676
465,12676
465,12677
465,12678
464,12679
463,12679
463,12680
462,12680
461,12680
460,12680
459,12680
459,12679
458,12679
457,12679
456,12679
455,12679
454,12679
453,12679
452,12679
452,12680
451,12680
450,12681
449,12682
448,12683
447,12683
447,12684
447,12683
447,12684
447,12685
446,12685
446,12686
445,12686
445,12687
444,12687
444,12688
443,12688
442,12688
442,12689
441,12689
440,12689
439,12689
438,12689
438,12690
437,12690
436,12690
435,12690
434,12690
434,12691
433,12691
432,12691
431,12692
430,12692
429,12692
429,12693
428,12693
427,12693
426,12694
425,12694
424,12694
423,12694
422,12695
421,12696
420,12697
419,12697
419,12698
418,12698
417,12698
417,12699
416,12700
414,12700
413,12701
412,12701
412,12702
411,12702
410,12703
409,12704
408,12704
407,12705
406,12706
405,12707
404,12707
403,12708
402,12707
400,12707
399,12706
398,12705
397,12705
396,12704
395,12703
394,12702
393,12702
392,12701
391,12700
390,12700
390,12699
389,12699
388,12698
387,12697
386,12696
385,12695
" style="stroke:#02709f;stroke-width:0;
stroke-linejoin:bevel; stroke-linecap:butt;
fill:#02709f;
"/>
<!-- Line -->
<!--  spline  -->
<polyline points="385,12695
386,12694
386,12693
387,12692
388,12692
388,12691
388,12690
389,12689
390,12688
391,12687
392,12685
394,12684
395,12682
396,12681
398,12680
399,12678
400,12676
401,12676
401,12675
402,12675
403,12673
404,12671
405,12671
405,12670
406,12670
407,12668
408,12666
410,12665
411,12664
412,12663
412,12662
413,12661
414,12660
414,12659
415,12658
416,12657
416,12656
417,12655
418,12654
418,12653
419,12652
420,12651
421,12650
421,12649
422,12649
423,12648
424,12647
425,12647
425,12646
427,12645
428,12645
429,12645
430,12645
431,12645
432,12645
433,12645
434,12645
435,12645
436,12645
437,12645
438,12646
439,12646
440,12647
441,12647
442,12648
443,12648
443,12649
444,12649
445,12649
445,12650
446,12650
447,12650
448,12650
449,12650
450,12651
451,12651
452,12652
453,12653
454,12653
454,12654
454,12655
454,12656
454,12657
454,12658
454,12659
453,12659
454,12659
455,12659
455,12660
456,12660
457,12660
457,12661
457,12662
458,12662
458,12663
458,12664
459,12664
459,12665
459,12666
458,12666
459,12667
459,12668
460,12669
461,12670
461,12671
462,12672
463,12673
463,12674
464,12675
464,12676
465,12676
465,12677
465,12678
464,12679
463,12679
463,12680
462,12680
461,12680
460,12680
459,12680
459,12679
458,12679
457,12679
456,12679
455,12679
454,12679
453,12679
452,12679
452,12680
451,12680
450,12681
449,12682
448,12683
447,12683
447,12684
447,12683
447,12684
447,12685
446,12685
446,12686
445,12686
445,12687
444,12687
444,12688
443,12688
442,12688
442,12689
441,12689
440,12689
439,12689
438,12689
438,12690
437,12690
436,12690
435,12690
434,12690
434,12691
433,12691
432,12691
431,12692
430,12692
429,12692
429,12693
428,12693
427,12693
426,12694
425,12694
424,12694
423,12694
422,12695
421,12696
420,12697
419,12697
419,12698
418,12698
417,12698
417,12699
416,12700
414,12700
413,12701
412,12701
412,12702
411,12702
410,12703
409,12704
408,12704
407,12705
406,12706
405,12707
404,12707
403,12708
402,12707
400,12707
399,12706
398,12705
397,12705
396,12704
395,12703
394,12702
393,12702
392,12701
391,12700
390,12700
390,12699
389,12699
388,12698
387,12697
386,12696
385,12695
" style="stroke:#ffffff;stroke-width:7;
stroke-linejoin:bevel; stroke-linecap:butt;
"/>
<!-- Line -->
<!--  spline  -->
<polyline points="362,13088
364,13088
368,13089
370,13089
371,13089
373,13089
375,13088
378,13088
380,13088
381,13088
382,13088
384,13088
385,13088
386,13089
387,13090
387,13091
387,13092
387,13093
386,13094
386,13096
386,13100
386,13102
386,13103
386,13104
385,13105
385,13107
385,13108
385,13109
384,13110
384,13111
383,13113
383,13114
382,13116
381,13118
380,13119
379,13120
378,13121
377,13121
377,13122
376,13122
375,13122
374,13122
374,13123
373,13123
372,13123
372,13124
371,13124
370,13124
366,13124
361,13124
357,13124
356,13124
354,13123
350,13122
346,13121
341,13120
336,13119
335,13118
334,13118
332,13118
328,13117
324,13117
322,13116
321,13116
320,13116
317,13117
314,13118
313,13120
312,13121
312,13122
312,13123
311,13123
311,13124
311,13125
310,13126
309,13127
308,13128
307,13129
307,13130
306,13130
305,13132
304,13133
303,13134
303,13135
302,13136
301,13137
301,13138
301,13139
300,13139
299,13139
298,13139
297,13139
296,13139
295,13139
295,13138
293,13135
290,13130
288,13127
288,13126
287,13124
286,13122
284,13119
283,13115
282,13112
282,13110
281,13108
281,13105
281,13102
281,13101
281,13100
281,13099
281,13096
281,13093
282,13091
282,13089
282,13088
284,13087
286,13086
288,13085
289,13085
291,13085
292,13086
293,13087
294,13087
294,13088
295,13088
296,13089
297,13090
298,13091
299,13092
300,13092
306,13093
318,13096
329,13098
335,13099
336,13099
337,13099
340,13100
345,13100
350,13101
356,13101
360,13101
362,13100
363,13099
365,13098
367,13097
367,13096
367,13095
367,13094
366,13094
366,13092
365,13091
365,13089
365,13088
364,13087
363,13087
362,13087
362,13088
" style="stroke:#02709f;stroke-width:0;
stroke-linejoin:bevel; stroke-linecap:butt;
fill:#02709f;
"/>
<!-- Line -->
<!--  spline  -->
<polyline points="362,13088
364,13088
368,13089
370,13089
371,13089
373,13089
375,13088
378,13088
380,13088
381,13088
382,13088
384,13088
385,13088
386,13089
387,13090
387,13091
387,13092
387,13093
386,13094
386,13096
386,13100
386,13102
386,13103
386,13104
385,13105
385,13107
385,13108
385,13109
384,13110
384,13111
383,13113
383,13114
382,13116
381,13118
380,13119
379,13120
378,13121
377,13121
377,13122
376,13122
375,13122
374,13122
374,13123
373,13123
372,13123
372,13124
371,13124
370,13124
366,13124
361,13124
357,13124
356,13124
354,13123
350,13122
346,13121
341,13120
336,13119
335,13118
334,13118
332,13118
328,13117
324,13117
322,13116
321,13116
320,13116
317,13117
314,13118
313,13120
312,13121
312,13122
312,13123
311,13123
311,13124
311,13125
310,13126
309,13127
308,13128
307,13129
307,13130
306,13130
305,13132
304,13133
303,13134
303,13135
302,13136
301,13137
301,13138
301,13139
300,13139
299,13139
298,13139
297,13139
296,13139
295,13139
295,13138
293,13135
290,13130
288,13127
288,13126
287,13124
286,13122
284,13119
283,13115
282,13112
282,13110
281,13108
281,13105
281,13102
281,13101
281,13100
281,13099
281,13096
281,13093
282,13091
282,13089
282,13088
284,13087
286,13086
288,13085
289,13085
291,13085
292,13086
293,13087
294,13087
294,13088
295,13088
296,13089
297,13090
298,13091
299,13092
300,13092
306,13093
318,13096
329,13098
335,13099
336,13099
337,13099
340,13100
345,13100
350,13101
356,13101
360,13101
362,13100
363,13099
365,13098
367,13097
367,13096
367,13095
367,13094
366,13094
366,13092
365,13091
365,13089
365,13088
364,13087
363,13087
362,13087
362,13088
" style="stroke:#ffffff;stroke-width:7;
stroke-linejoin:bevel; stroke-linecap:butt;
"/>
<!-- Line -->
<!--  spline  -->
<polyline points="98,12769
98,12770
96,12778
94,12789
92,12797
92,12798
92,12799
92,12802
91,12809
90,12817
90,12827
90,12837
90,12840
90,12842
90,12846
90,12855
91,12864
91,12868
91,12870
91,12874
93,12883
95,12893
98,12901
99,12907
101,12910
101,12911
101,12912
102,12912
102,12913
103,12913
104,12914
105,12914
106,12914
106,12915
107,12915
108,12916
109,12916
110,12917
111,12917
112,12918
113,12918
114,12918
117,12918
123,12917
126,12917
127,12917
128,12917
130,12917
133,12916
136,12916
139,12916
140,12916
141,12916
142,12916
145,12916
148,12916
150,12916
150,12917
152,12917
156,12917
161,12917
166,12917
170,12917
172,12917
173,12917
174,12917
181,12918
193,12919
204,12919
211,12920
212,12920
213,12920
213,12921
214,12921
215,12921
216,12921
217,12921
216,12921
217,12921
218,12921
219,12921
220,12921
220,12922
221,12922
222,12922
226,12924
232,12928
236,12930
237,12930
238,12930
241,12930
247,12930
254,12930
264,12930
273,12929
277,12928
279,12928
283,12927
292,12926
301,12925
305,12925
306,12925
310,12925
316,12926
321,12928
323,12930
325,12932
326,12934
326,12935
325,12934
324,12934
323,12933
322,12933
320,12933
317,12934
314,12935
311,12937
309,12938
307,12939
304,12942
301,12945
299,12946
298,12946
297,12947
294,12950
292,12954
291,12957
290,12959
290,12961
290,12962
291,12967
291,12975
292,12980
292,12981
292,12982
292,12985
292,12990
292,12996
292,13005
292,13013
292,13017
292,13018
291,13022
291,13030
290,13038
290,13042
290,13043
290,13047
289,13054
289,13062
288,13067
288,13070
288,13073
289,13074
289,13075
290,13076
289,13077
288,13078
288,13079
287,13079
287,13080
287,13081
288,13082
290,13083
291,13084
293,13085
294,13086
295,13086
298,13086
303,13087
306,13087
307,13087
309,13087
312,13087
315,13087
320,13086
324,13085
326,13085
327,13085
328,13084
332,13083
335,13082
337,13081
338,13081
340,13080
341,13080
342,13079
343,13079
344,13078
346,13078
347,13077
348,13077
349,13077
350,13077
351,13077
352,13077
353,13077
353,13078
354,13078
355,13078
356,13079
357,13079
358,13079
359,13079
361,13078
361,13077
362,13077
362,13076
362,13069
363,13055
363,13042
363,13035
363,13034
363,13033
363,13030
363,13024
363,13016
363,13007
363,12995
363,12984
363,12978
363,12976
363,12975
363,12969
363,12958
363,12947
364,12941
364,12939
364,12937
364,12931
365,12919
366,12906
367,12897
368,12888
369,12882
370,12879
370,12878
370,12876
370,12873
370,12871
370,12870
370,12869
369,12868
369,12866
369,12865
369,12864
368,12864
368,12863
368,12862
368,12861
367,12861
367,12860
367,12859
367,12858
366,12856
366,12855
366,12854
365,12853
365,12852
364,12851
363,12850
362,12849
361,12848
360,12847
359,12846
358,12845
357,12844
356,12843
355,12842
354,12841
351,12840
348,12840
345,12839
343,12839
341,12839
339,12838
335,12838
332,12838
330,12838
330,12837
328,12837
325,12837
322,12837
321,12837
320,12836
319,12836
316,12836
313,12836
311,12835
309,12835
308,12835
307,12835
300,12833
287,12830
275,12828
268,12826
267,12826
267,12825
268,12823
268,12819
269,12817
269,12816
269,12813
269,12810
270,12805
270,12798
270,12792
270,12789
270,12788
270,12785
270,12779
270,12773
270,12770
270,12769
270,12767
270,12762
270,12757
271,12754
271,12752
271,12751
272,12749
272,12747
273,12745
274,12743
274,12741
275,12738
276,12734
277,12730
277,12728
277,12726
278,12722
278,12718
278,12716
278,12714
279,12711
280,12708
281,12707
281,12706
282,12705
282,12703
283,12696
284,12684
285,12677
285,12675
285,12676
285,12678
285,12679
285,12680
285,12681
285,12682
285,12684
285,12686
285,12687
286,12689
287,12690
287,12691
288,12692
289,12693
291,12694
292,12696
294,12696
295,12697
296,12697
297,12698
298,12698
299,12698
299,12699
300,12699
301,12699
300,12700
301,12700
302,12700
302,12701
303,12701
304,12701
305,12702
306,12702
306,12703
307,12703
307,12704
308,12704
308,12705
309,12705
310,12705
310,12706
311,12706
312,12706
312,12707
313,12707
314,12707
315,12707
316,12708
318,12709
319,12710
320,12710
321,12710
322,12711
324,12711
326,12712
327,12712
329,12713
330,12713
331,12713
332,12713
333,12714
335,12715
336,12716
337,12716
338,12717
340,12717
342,12718
344,12718
345,12718
346,12719
348,12719
350,12720
352,12721
353,12721
355,12722
357,12722
358,12723
359,12723
361,12723
363,12723
365,12723
366,12722
367,12722
368,12722
369,12722
370,12722
371,12722
371,12721
372,12721
373,12721
374,12721
375,12721
376,12721
377,12721
378,12721
379,12721
381,12720
383,12719
385,12718
386,12718
387,12717
389,12717
391,12716
393,12716
393,12715
394,12716
394,12715
396,12715
398,12714
399,12714
401,12713
403,12712
404,12711
405,12710
406,12709
407,12708
408,12707
409,12707
410,12706
411,12706
412,12706
413,12706
414,12706
415,12706
416,12706
417,12706
417,12705
418,12705
419,12705
419,12704
420,12704
421,12704
421,12703
422,12703
423,12702
424,12702
424,12701
424,12700
425,12700
425,12699
426,12699
426,12698
427,12698
428,12698
428,12697
429,12697
430,12697
431,12697
432,12697
433,12697
433,12698
434,12698
435,12698
436,12698
437,12698
437,12697
438,12697
438,12696
438,12695
439,12694
439,12693
440,12691
441,12689
442,12688
443,12686
444,12684
444,12683
444,12682
445,12681
445,12680
446,12679
446,12678
445,12677
444,12676
444,12675
443,12674
442,12672
440,12670
438,12668
438,12666
437,12666
436,12664
434,12662
431,12660
430,12659
428,12658
425,12657
421,12656
418,12656
415,12656
413,12656
412,12656
405,12655
395,12654
388,12653
387,12653
386,12653
384,12653
380,12653
378,12653
377,12653
375,12653
373,12653
371,12653
367,12652
364,12651
362,12651
360,12650
357,12649
354,12648
353,12647
352,12647
351,12646
348,12644
345,12641
342,12639
340,12637
339,12636
338,12634
336,12630
335,12628
335,12627
336,12624
336,12619
337,12616
337,12615
337,12613
338,12609
338,12607
338,12606
338,12604
338,12602
337,12599
336,12596
336,12594
335,12592
334,12589
333,12586
333,12584
332,12584
332,12582
331,12579
330,12576
330,12574
329,12572
329,12571
327,12570
324,12568
322,12567
321,12567
321,12566
320,12566
319,12565
318,12565
318,12564
318,12565
318,12564
317,12564
316,12563
315,12563
314,12562
312,12561
311,12559
309,12558
308,12557
307,12557
304,12557
296,12556
282,12554
262,12553
236,12550
208,12547
181,12545
155,12542
135,12541
121,12539
113,12538
110,12538
109,12538
108,12538
107,12538
107,12539
106,12539
105,12539
104,12539
103,12539
102,12539
101,12539
99,12539
95,12539
93,12539
92,12539
91,12539
89,12539
87,12539
84,12539
81,12539
80,12539
79,12539
78,12539
75,12539
72,12539
71,12540
70,12540
67,12541
64,12542
62,12544
60,12545
59,12546
58,12548
57,12549
56,12551
56,12552
55,12553
55,12555
54,12557
53,12559
53,12560
52,12561
52,12562
51,12564
50,12566
50,12567
50,12568
50,12570
50,12572
50,12574
50,12575
50,12576
50,12578
49,12581
49,12583
48,12584
47,12584
46,12586
44,12587
42,12588
42,12589
41,12589
41,12590
39,12591
37,12592
37,12593
36,12593
35,12595
35,12597
35,12599
35,12601
35,12602
36,12603
36,12604
37,12605
37,12606
38,12607
38,12608
38,12609
38,12610
38,12611
38,12612
38,12613
38,12614
39,12615
39,12616
39,12618
38,12621
38,12623
38,12624
37,12625
37,12626
37,12627
37,12629
36,12631
35,12633
35,12634
34,12634
34,12635
32,12641
28,12652
25,12662
23,12668
23,12669
23,12670
21,12674
19,12681
17,12690
14,12701
12,12711
11,12715
10,12716
10,12720
8,12728
7,12735
6,12738
6,12739
6,12741
5,12746
4,12750
4,12752
4,12753
4,12754
5,12755
6,12756
7,12757
8,12758
9,12758
12,12761
17,12764
20,12767
21,12767
22,12767
24,12769
29,12771
35,12773
43,12777
50,12780
54,12782
55,12782
58,12783
65,12786
72,12788
75,12789
76,12790
78,12790
83,12792
87,12793
89,12794
90,12794
91,12794
91,12793
" style="stroke:#02709f;stroke-width:0;
stroke-linejoin:bevel; stroke-linecap:butt;
fill:#02709f;
"/>
<!-- Line -->
<!--  spline  -->
<polyline points="98,12769
98,12770
96,12778
94,12789
92,12797
92,12798
92,12799
92,12802
91,12809
90,12817
90,12827
90,12837
90,12840
90,12842
90,12846
90,12855
91,12864
91,12868
91,12870
91,12874
93,12883
95,12893
98,12901
99,12907
101,12910
101,12911
101,12912
102,12912
102,12913
103,12913
104,12914
105,12914
106,12914
106,12915
107,12915
108,12916
109,12916
110,12917
111,12917
112,12918
113,12918
114,12918
117,12918
123,12917
126,12917
127,12917
128,12917
130,12917
133,12916
136,12916
139,12916
140,12916
141,12916
142,12916
145,12916
148,12916
150,12916
150,12917
152,12917
156,12917
161,12917
166,12917
170,12917
172,12917
173,12917
174,12917
181,12918
193,12919
204,12919
211,12920
212,12920
213,12920
213,12921
214,12921
215,12921
216,12921
217,12921
216,12921
217,12921
218,12921
219,12921
220,12921
220,12922
221,12922
222,12922
226,12924
232,12928
236,12930
237,12930
238,12930
241,12930
247,12930
254,12930
264,12930
273,12929
277,12928
279,12928
283,12927
292,12926
301,12925
305,12925
306,12925
310,12925
316,12926
321,12928
323,12930
325,12932
326,12934
326,12935
325,12934
324,12934
323,12933
322,12933
320,12933
317,12934
314,12935
311,12937
309,12938
307,12939
304,12942
301,12945
299,12946
298,12946
297,12947
294,12950
292,12954
291,12957
290,12959
290,12961
290,12962
291,12967
291,12975
292,12980
292,12981
292,12982
292,12985
292,12990
292,12996
292,13005
292,13013
292,13017
292,13018
291,13022
291,13030
290,13038
290,13042
290,13043
290,13047
289,13054
289,13062
288,13067
288,13070
288,13073
289,13074
289,13075
290,13076
289,13077
288,13078
288,13079
287,13079
287,13080
287,13081
288,13082
290,13083
291,13084
293,13085
294,13086
295,13086
298,13086
303,13087
306,13087
307,13087
309,13087
312,13087
315,13087
320,13086
324,13085
326,13085
327,13085
328,13084
332,13083
335,13082
337,13081
338,13081
340,13080
341,13080
342,13079
343,13079
344,13078
346,13078
347,13077
348,13077
349,13077
350,13077
351,13077
352,13077
353,13077
353,13078
354,13078
355,13078
356,13079
357,13079
358,13079
359,13079
361,13078
361,13077
362,13077
362,13076
362,13069
363,13055
363,13042
363,13035
363,13034
363,13033
363,13030
363,13024
363,13016
363,13007
363,12995
363,12984
363,12978
363,12976
363,12975
363,12969
363,12958
363,12947
364,12941
364,12939
364,12937
364,12931
365,12919
366,12906
367,12897
368,12888
369,12882
370,12879
370,12878
370,12876
370,12873
370,12871
370,12870
370,12869
369,12868
369,12866
369,12865
369,12864
368,12864
368,12863
368,12862
368,12861
367,12861
367,12860
367,12859
367,12858
366,12856
366,12855
366,12854
365,12853
365,12852
364,12851
363,12850
362,12849
361,12848
360,12847
359,12846
358,12845
357,12844
356,12843
355,12842
354,12841
351,12840
348,12840
345,12839
343,12839
341,12839
339,12838
335,12838
332,12838
330,12838
330,12837
328,12837
325,12837
322,12837
321,12837
320,12836
319,12836
316,12836
313,12836
311,12835
309,12835
308,12835
307,12835
300,12833
287,12830
275,12828
268,12826
267,12826
267,12825
268,12823
268,12819
269,12817
269,12816
269,12813
269,12810
270,12805
270,12798
270,12792
270,12789
270,12788
270,12785
270,12779
270,12773
270,12770
270,12769
270,12767
270,12762
270,12757
271,12754
271,12752
271,12751
272,12749
272,12747
273,12745
274,12743
274,12741
275,12738
276,12734
277,12730
277,12728
277,12726
278,12722
278,12718
278,12716
278,12714
279,12711
280,12708
281,12707
281,12706
282,12705
282,12703
283,12696
284,12684
285,12677
285,12675
285,12676
285,12678
285,12679
285,12680
285,12681
285,12682
285,12684
285,12686
285,12687
286,12689
287,12690
287,12691
288,12692
289,12693
291,12694
292,12696
294,12696
295,12697
296,12697
297,12698
298,12698
299,12698
299,12699
300,12699
301,12699
300,12700
301,12700
302,12700
302,12701
303,12701
304,12701
305,12702
306,12702
306,12703
307,12703
307,12704
308,12704
308,12705
309,12705
310,12705
310,12706
311,12706
312,12706
312,12707
313,12707
314,12707
315,12707
316,12708
318,12709
319,12710
320,12710
321,12710
322,12711
324,12711
326,12712
327,12712
329,12713
330,12713
331,12713
332,12713
333,12714
335,12715
336,12716
337,12716
338,12717
340,12717
342,12718
344,12718
345,12718
346,12719
348,12719
350,12720
352,12721
353,12721
355,12722
357,12722
358,12723
359,12723
361,12723
363,12723
365,12723
366,12722
367,12722
368,12722
369,12722
370,12722
371,12722
371,12721
372,12721
373,12721
374,12721
375,12721
376,12721
377,12721
378,12721
379,12721
381,12720
383,12719
385,12718
386,12718
387,12717
389,12717
391,12716
393,12716
393,12715
394,12716
394,12715
396,12715
398,12714
399,12714
401,12713
403,12712
404,12711
405,12710
406,12709
407,12708
408,12707
409,12707
410,12706
411,12706
412,12706
413,12706
414,12706
415,12706
416,12706
417,12706
417,12705
418,12705
419,12705
419,12704
420,12704
421,12704
421,12703
422,12703
423,12702
424,12702
424,12701
424,12700
425,12700
425,12699
426,12699
426,12698
427,12698
428,12698
428,12697
429,12697
430,12697
431,12697
432,12697
433,12697
433,12698
434,12698
435,12698
436,12698
437,12698
437,12697
438,12697
438,12696
438,12695
439,12694
439,12693
440,12691
441,12689
442,12688
443,12686
444,12684
444,12683
444,12682
445,12681
445,12680
446,12679
446,12678
445,12677
444,12676
444,12675
443,12674
442,12672
440,12670
438,12668
438,12666
437,12666
436,12664
434,12662
431,12660
430,12659
428,12658
425,12657
421,12656
418,12656
415,12656
413,12656
412,12656
405,12655
395,12654
388,12653
387,12653
386,12653
384,12653
380,12653
378,12653
377,12653
375,12653
373,12653
371,12653
367,12652
364,12651
362,12651
360,12650
357,12649
354,12648
353,12647
352,12647
351,12646
348,12644
345,12641
342,12639
340,12637
339,12636
338,12634
336,12630
335,12628
335,12627
336,12624
336,12619
337,12616
337,12615
337,12613
338,12609
338,12607
338,12606
338,12604
338,12602
337,12599
336,12596
336,12594
335,12592
334,12589
333,12586
333,12584
332,12584
332,12582
331,12579
330,12576
330,12574
329,12572
329,12571
327,12570
324,12568
322,12567
321,12567
321,12566
320,12566
319,12565
318,12565
318,12564
318,12565
318,12564
317,12564
316,12563
315,12563
314,12562
312,12561
311,12559
309,12558
308,12557
307,12557
304,12557
296,12556
282,12554
262,12553
236,12550
208,12547
181,12545
155,12542
135,12541
121,12539
113,12538
110,12538
109,12538
108,12538
107,12538
107,12539
106,12539
105,12539
104,12539
103,12539
102,12539
101,12539
99,12539
95,12539
93,12539
92,12539
91,12539
89,12539
87,12539
84,12539
81,12539
80,12539
79,12539
78,12539
75,12539
72,12539
71,12540
70,12540
67,12541
64,12542
62,12544
60,12545
59,12546
58,12548
57,12549
56,12551
56,12552
55,12553
55,12555
54,12557
53,12559
53,12560
52,12561
52,12562
51,12564
50,12566
50,12567
50,12568
50,12570
50,12572
50,12574
50,12575
50,12576
50,12578
49,12581
49,12583
48,12584
47,12584
46,12586
44,12587
42,12588
42,12589
41,12589
41,12590
39,12591
37,12592
37,12593
36,12593
35,12595
35,12597
35,12599
35,12601
35,12602
36,12603
36,12604
37,12605
37,12606
38,12607
38,12608
38,12609
38,12610
38,12611
38,12612
38,12613
38,12614
39,12615
39,12616
39,12618
38,12621
38,12623
38,12624
37,12625
37,12626
37,12627
37,12629
36,12631
35,12633
35,12634
34,12634
34,12635
32,12641
28,12652
25,12662
23,12668
23,12669
23,12670
21,12674
19,12681
17,12690
14,12701
12,12711
11,12715
10,12716
10,12720
8,12728
7,12735
6,12738
6,12739
6,12741
5,12746
4,12750
4,12752
4,12753
4,12754
5,12755
6,12756
7,12757
8,12758
9,12758
12,12761
17,12764
20,12767
21,12767
22,12767
24,12769
29,12771
35,12773
43,12777
50,12780
54,12782
55,12782
58,12783
65,12786
72,12788
75,12789
76,12790
78,12790
83,12792
87,12793
89,12794
90,12794
91,12794
91,12793
" style="stroke:#ffffff;stroke-width:7;
stroke-linejoin:bevel; stroke-linecap:butt;
"/>
<!-- Line -->
<!--  spline  -->
<polyline points="178,13068
177,13070
175,13071
174,13073
173,13074
172,13075
171,13076
170,13078
169,13079
168,13080
168,13081
167,13082
166,13083
166,13084
166,13085
165,13086
164,13087
164,13089
163,13089
163,13090
165,13088
166,13087
168,13085
169,13085
170,13085
172,13085
174,13085
176,13085
176,13086
177,13086
178,13087
179,13088
180,13088
180,13089
181,13090
182,13091
183,13091
186,13093
192,13095
195,13097
196,13097
198,13098
200,13099
203,13100
207,13101
210,13102
211,13103
212,13103
214,13104
216,13105
217,13105
218,13106
219,13106
219,13107
220,13107
221,13107
225,13106
230,13104
234,13103
235,13103
236,13102
238,13101
240,13100
242,13098
243,13096
244,13095
244,13094
244,13093
244,13091
244,13089
243,13088
243,13087
243,13086
242,13086
242,13085
239,13083
236,13082
233,13080
232,13080
231,13079
229,13078
227,13077
225,13076
225,13075
224,13075
223,13074
222,13073
222,13072
221,13072
221,13071
221,13070
221,13069
" style="stroke:#02709f;stroke-width:0;
stroke-linejoin:bevel; stroke-linecap:butt;
fill:#02709f;
"/>
<!-- Line -->
<!--  spline  -->
<polyline points="165,12978
165,12979
164,12985
162,12997
160,13015
158,13033
156,13045
155,13051
155,13052
155,13053
153,13058
151,13067
149,13072
149,13073
151,13073
161,13075
179,13078
196,13080
206,13082
208,13082
209,13082
210,13082
211,13082
211,13081
212,13081
213,13081
214,13081
215,13081
217,13081
218,13081
219,13082
221,13082
223,13082
224,13083
226,13083
228,13083
229,13083
230,13083
231,13082
233,13082
234,13081
235,13080
236,13080
236,13079
237,13079
238,13078
239,13078
239,13077
240,13077
240,13076
240,13074
240,13073
240,13072
240,13070
239,13067
239,13062
239,13057
239,13054
239,13053
239,13051
239,13043
239,13035
239,13031
238,13030
238,13026
238,13015
238,13004
238,12995
238,12987
238,12981
238,12978
238,12977
" style="stroke:#02709f;stroke-width:0;
stroke-linejoin:bevel; stroke-linecap:butt;
fill:#02709f;
"/>
<!-- Line -->
<!--  spline  -->
<polyline points="165,12978
165,12979
164,12985
162,12997
160,13015
158,13033
156,13045
155,13051
155,13052
155,13053
153,13058
151,13067
149,13072
149,13073
151,13073
161,13075
179,13078
196,13080
206,13082
208,13082
209,13082
210,13082
211,13082
211,13081
212,13081
213,13081
214,13081
215,13081
217,13081
218,13081
219,13082
221,13082
223,13082
224,13083
226,13083
228,13083
229,13083
230,13083
231,13082
233,13082
234,13081
235,13080
236,13080
236,13079
237,13079
238,13078
239,13078
239,13077
240,13077
240,13076
240,13074
240,13073
240,13072
240,13070
239,13067
239,13062
239,13057
239,13054
239,13053
239,13051
239,13043
239,13035
239,13031
238,13030
238,13026
238,13015
238,13004
238,12995
238,12987
238,12981
238,12978
238,12977
" style="stroke:#ffffff;stroke-width:7;
stroke-linejoin:bevel; stroke-linecap:butt;
"/>
<!-- Line -->
<!--  polyline  -->
<polyline points="192,13147
200,13090
" style="stroke:#02709f;stroke-width:0;
stroke-linejoin:miter; stroke-linecap:butt;
fill:#02709f;
"/>
<!-- Line -->
<!--  spline  -->
<polyline points="176,12931
177,12931
177,12930
178,12930
179,12930
179,12929
180,12929
180,12928
181,12928
181,12927
181,12926
182,12926
182,12925
182,12924
182,12923
182,12922
182,12921
181,12914
178,12898
174,12877
170,12856
167,12840
166,12833
166,12832
166,12831
165,12830
165,12829
164,12828
163,12827
163,12826
162,12826
161,12826
160,12826
159,12826
158,12826
157,12826
156,12826
150,12827
142,12828
136,12829
135,12829
134,12829
134,12830
133,12830
132,12831
131,12832
130,12832
130,12833
130,12834
129,12834
129,12835
129,12836
129,12837
129,12838
129,12839
130,12846
133,12862
137,12884
141,12905
144,12921
145,12928
145,12929
145,12930
146,12930
146,12931
146,12932
147,12932
147,12933
148,12933
148,12934
149,12934
150,12934
150,12935
151,12935
152,12935
153,12935
154,12935
155,12935
161,12934
169,12932
175,12931
176,12931
" style="stroke:#02709f;stroke-width:0;
stroke-linejoin:bevel; stroke-linecap:butt;
fill:#02709f;
"/>
<!-- Line -->
<!--  spline  -->
<polyline points="176,12931
177,12931
177,12930
178,12930
179,12930
179,12929
180,12929
180,12928
181,12928
181,12927
181,12926
182,12926
182,12925
182,12924
182,12923
182,12922
182,12921
181,12914
178,12898
174,12877
170,12856
167,12840
166,12833
166,12832
166,12831
165,12830
165,12829
164,12828
163,12827
163,12826
162,12826
161,12826
160,12826
159,12826
158,12826
157,12826
156,12826
150,12827
142,12828
136,12829
135,12829
134,12829
134,12830
133,12830
132,12831
131,12832
130,12832
130,12833
130,12834
129,12834
129,12835
129,12836
129,12837
129,12838
129,12839
130,12846
133,12862
137,12884
141,12905
144,12921
145,12928
145,12929
145,12930
146,12930
146,12931
146,12932
147,12932
147,12933
148,12933
148,12934
149,12934
150,12934
150,12935
151,12935
152,12935
153,12935
154,12935
155,12935
161,12934
169,12932
175,12931
176,12931
" style="stroke:#ffffff;stroke-width:7;
stroke-linejoin:bevel; stroke-linecap:butt;
"/>
<!-- Line -->
<!--  spline  -->
<polyline points="177,13066
174,13067
171,13067
168,13068
167,13068
164,13068
162,13069
159,13069
156,13069
155,13069
154,13070
152,13070
150,13071
149,13071
148,13071
146,13072
145,13073
144,13074
144,13075
144,13076
144,13078
144,13079
144,13081
144,13082
144,13083
145,13084
146,13085
147,13085
148,13086
149,13087
150,13087
151,13088
152,13088
153,13088
155,13088
156,13088
" style="stroke:#02709f;stroke-width:0;
stroke-linejoin:bevel; stroke-linecap:butt;
fill:#02709f;
"/>
<!-- Line -->
<!--  spline  -->
<polyline points="177,13066
174,13067
171,13067
168,13068
167,13068
164,13068
162,13069
159,13069
156,13069
155,13069
154,13070
152,13070
150,13071
149,13071
148,13071
146,13072
145,13073
144,13074
144,13075
144,13076
144,13078
144,13079
144,13081
144,13082
144,13083
145,13084
146,13085
147,13085
148,13086
149,13087
150,13087
151,13088
152,13088
153,13088
155,13088
156,13088
" style="stroke:#ffffff;stroke-width:7;
stroke-linejoin:bevel; stroke-linecap:butt;
"/>
<!-- Line -->
<!--  spline  -->
<polyline points="340,12930
341,12929
342,12928
342,12927
343,12927
343,12926
343,12925
344,12925
344,12924
344,12923
344,12922
344,12921
344,12920
344,12919
344,12910
344,12895
344,12881
344,12872
344,12871
344,12870
344,12869
344,12868
343,12868
343,12867
342,12866
341,12865
340,12865
340,12864
339,12864
338,12864
337,12864
336,12865
332,12869
323,12878
310,12890
297,12902
288,12911
284,12915
283,12916
282,12916
281,12917
280,12917
279,12917
279,12918
278,12918
277,12918
277,12919
277,12920
276,12920
276,12921
276,12922
275,12923
275,12924
275,12926
275,12935
275,12951
275,12967
275,12976
275,12978
275,12979
276,12980
276,12981
276,12982
277,12982
277,12983
277,12984
278,12984
279,12984
279,12985
280,12985
281,12985
282,12986
283,12986
284,12985
288,12981
298,12971
312,12958
325,12945
335,12935
339,12931
340,12930
" style="stroke:#02709f;stroke-width:0;
stroke-linejoin:bevel; stroke-linecap:butt;
fill:#02709f;
"/>
<!-- Line -->
<!--  spline  -->
<polyline points="340,12930
341,12929
342,12928
342,12927
343,12927
343,12926
343,12925
344,12925
344,12924
344,12923
344,12922
344,12921
344,12920
344,12919
344,12910
344,12895
344,12881
344,12872
344,12871
344,12870
344,12869
344,12868
343,12868
343,12867
342,12866
341,12865
340,12865
340,12864
339,12864
338,12864
337,12864
336,12865
332,12869
323,12878
310,12890
297,12902
288,12911
284,12915
283,12916
282,12916
281,12917
280,12917
279,12917
279,12918
278,12918
277,12918
277,12919
277,12920
276,12920
276,12921
276,12922
275,12923
275,12924
275,12926
275,12935
275,12951
275,12967
275,12976
275,12978
275,12979
276,12980
276,12981
276,12982
277,12982
277,12983
277,12984
278,12984
279,12984
279,12985
280,12985
281,12985
282,12986
283,12986
284,12985
288,12981
298,12971
312,12958
325,12945
335,12935
339,12931
340,12930
" style="stroke:#ffffff;stroke-width:7;
stroke-linejoin:bevel; stroke-linecap:butt;
"/>
<!-- Line -->
<!--  spline  -->
<polyline points="71,12727
71,12725
72,12721
72,12719
72,12717
73,12715
74,12712
75,12708
76,12704
77,12702
78,12700
79,12696
80,12692
81,12690
81,12688
82,12685
83,12682
83,12680
84,12679
84,12678
83,12681
83,12684
82,12687
82,12689
82,12692
81,12696
81,12702
81,12707
81,12710
81,12711
81,12713
81,12718
81,12723
81,12725
81,12726
81,12728
81,12732
81,12736
82,12738
82,12739
82,12740
81,12739
79,12736
74,12731
72,12728
71,12727
" style="stroke:#02709f;stroke-width:0;
stroke-linejoin:bevel; stroke-linecap:butt;
fill:#02709f;
"/>
<!-- Line -->
<!--  spline  -->
<polyline points="71,12727
71,12725
72,12721
72,12719
72,12717
73,12715
74,12712
75,12708
76,12704
77,12702
78,12700
79,12696
80,12692
81,12690
81,12688
82,12685
83,12682
83,12680
84,12679
84,12678
83,12681
83,12684
82,12687
82,12689
82,12692
81,12696
81,12702
81,12707
81,12710
81,12711
81,12713
81,12718
81,12723
81,12725
81,12726
81,12728
81,12732
81,12736
82,12738
82,12739
82,12740
81,12739
79,12736
74,12731
72,12728
71,12727
" style="stroke:#ffffff;stroke-width:7;
stroke-linejoin:bevel; stroke-linecap:butt;
"/>
<!-- Line -->
<!--  spline  -->
<polyline points="61,12828
61,12827
60,12826
60,12825
60,12824
60,12819
60,12810
60,12805
60,12804
60,12803
60,12801
59,12796
59,12790
59,12782
59,12774
59,12771
59,12770
59,12766
60,12759
62,12752
62,12749
62,12748
64,12745
67,12739
72,12733
76,12729
80,12726
82,12724
83,12724
84,12724
89,12724
100,12724
115,12724
130,12724
141,12724
146,12724
147,12724
148,12724
151,12724
157,12724
164,12724
171,12724
176,12724
177,12725
176,12725
177,12725
182,12726
188,12726
190,12727
194,12727
207,12727
219,12727
230,12727
241,12727
251,12727
261,12727
267,12727
270,12727
271,12727
274,12729
277,12732
280,12734
283,12737
286,12740
289,12743
289,12744
290,12746
291,12751
292,12757
293,12766
294,12775
294,12779
294,12781
295,12786
295,12795
295,12804
295,12808
295,12810
294,12813
294,12820
294,12825
294,12828
294,12829
294,12830
293,12830
290,12833
284,12836
281,12839
280,12839
" style="stroke:#02709f;stroke-width:0;
stroke-linejoin:bevel; stroke-linecap:butt;
fill:#02709f;
"/>
<!-- Line -->
<!--  spline  -->
<polyline points="61,12828
61,12827
60,12826
60,12825
60,12824
60,12819
60,12810
60,12805
60,12804
60,12803
60,12801
59,12796
59,12790
59,12782
59,12774
59,12771
59,12770
59,12766
60,12759
62,12752
62,12749
62,12748
64,12745
67,12739
72,12733
76,12729
80,12726
82,12724
83,12724
84,12724
89,12724
100,12724
115,12724
130,12724
141,12724
146,12724
147,12724
148,12724
151,12724
157,12724
164,12724
171,12724
176,12724
177,12725
176,12725
177,12725
182,12726
188,12726
190,12727
194,12727
207,12727
219,12727
230,12727
241,12727
251,12727
261,12727
267,12727
270,12727
271,12727
274,12729
277,12732
280,12734
283,12737
286,12740
289,12743
289,12744
290,12746
291,12751
292,12757
293,12766
294,12775
294,12779
294,12781
295,12786
295,12795
295,12804
295,12808
295,12810
294,12813
294,12820
294,12825
294,12828
294,12829
294,12830
293,12830
290,12833
284,12836
281,12839
280,12839
" style="stroke:#ffffff;stroke-width:7;
stroke-linejoin:bevel; stroke-linecap:butt;
"/>
<!-- Line -->
<!--  spline  -->
<polyline points="45,12837
45,12836
45,12830
45,12822
45,12816
45,12815
45,12814
45,12811
45,12806
44,12798
44,12789
44,12780
44,12777
43,12775
43,12771
44,12763
45,12755
46,12751
46,12750
47,12747
50,12740
55,12733
59,12728
63,12724
65,12722
66,12722
67,12722
72,12722
83,12722
99,12722
114,12722
125,12722
130,12722
131,12722
132,12722
136,12722
142,12722
150,12722
158,12722
164,12722
165,12722
165,12723
166,12723
172,12723
179,12723
181,12723
185,12723
199,12723
211,12723
223,12723
234,12723
244,12723
253,12723
260,12723
263,12723
264,12723
265,12724
266,12724
267,12725
267,12726
270,12728
273,12732
276,12734
276,12735
276,12736
277,12739
278,12745
279,12753
280,12764
281,12775
281,12780
281,12782
281,12787
281,12798
281,12808
281,12813
280,12815
280,12818
280,12826
280,12833
280,12836
280,12838
280,12839
279,12839
275,12839
266,12839
249,12839
225,12839
195,12838
162,12838
130,12838
100,12837
76,12837
59,12837
50,12837
46,12837
45,12837
" style="stroke:#02709f;stroke-width:0;
stroke-linejoin:bevel; stroke-linecap:butt;
fill:#02709f;
"/>
<!-- Line -->
<!--  spline  -->
<polyline points="45,12837
45,12836
45,12830
45,12822
45,12816
45,12815
45,12814
45,12811
45,12806
44,12798
44,12789
44,12780
44,12777
43,12775
43,12771
44,12763
45,12755
46,12751
46,12750
47,12747
50,12740
55,12733
59,12728
63,12724
65,12722
66,12722
67,12722
72,12722
83,12722
99,12722
114,12722
125,12722
130,12722
131,12722
132,12722
136,12722
142,12722
150,12722
158,12722
164,12722
165,12722
165,12723
166,12723
172,12723
179,12723
181,12723
185,12723
199,12723
211,12723
223,12723
234,12723
244,12723
253,12723
260,12723
263,12723
264,12723
265,12724
266,12724
267,12725
267,12726
270,12728
273,12732
276,12734
276,12735
276,12736
277,12739
278,12745
279,12753
280,12764
281,12775
281,12780
281,12782
281,12787
281,12798
281,12808
281,12813
280,12815
280,12818
280,12826
280,12833
280,12836
280,12838
280,12839
279,12839
275,12839
266,12839
249,12839
225,12839
195,12838
162,12838
130,12838
100,12837
76,12837
59,12837
50,12837
46,12837
45,12837
" style="stroke:#ffffff;stroke-width:7;
stroke-linejoin:bevel; stroke-linecap:butt;
"/>
<!-- Line -->
<!--  spline  -->
<polyline points="275,12455
275,12456
276,12457
276,12458
276,12459
276,12460
277,12462
277,12463
277,12464
278,12466
278,12467
278,12468
278,12469
279,12469
279,12470
279,12471
279,12472
279,12473
280,12473
280,12474
280,12475
280,12476
281,12478
281,12479
280,12480
279,12481
279,12482
278,12482
278,12483
277,12484
276,12485
276,12486
275,12486
275,12487
275,12488
274,12488
274,12489
273,12489
271,12490
270,12490
269,12490
268,12491
267,12491
266,12491
265,12492
264,12492
263,12492
262,12492
261,12492
260,12492
259,12492
258,12493
257,12493
256,12493
255,12494
254,12495
253,12496
252,12496
252,12497
251,12498
250,12499
249,12500
249,12501
249,12502
248,12503
247,12504
247,12505
246,12505
245,12506
244,12507
243,12507
242,12508
241,12508
240,12508
238,12509
237,12509
236,12509
235,12509
233,12509
231,12509
230,12509
230,12510
228,12510
227,12510
226,12510
226,12511
225,12511
224,12511
223,12511
221,12512
220,12512
219,12513
218,12514
217,12515
216,12515
215,12516
214,12517
213,12518
212,12519
211,12520
210,12521
209,12522
208,12523
207,12524
205,12525
204,12526
203,12526
202,12526
201,12527
199,12527
198,12527
197,12527
196,12527
195,12527
193,12527
192,12527
190,12527
188,12527
187,12526
186,12526
185,12526
185,12525
184,12525
183,12525
182,12524
181,12524
180,12524
180,12523
179,12523
178,12523
178,12522
177,12522
176,12521
175,12520
173,12518
172,12517
170,12515
169,12514
168,12513
167,12512
165,12510
164,12509
163,12508
162,12507
161,12506
159,12504
159,12503
158,12503
156,12501
154,12499
152,12498
151,12497
150,12496
149,12496
147,12496
146,12496
145,12496
143,12496
142,12496
141,12496
140,12496
139,12496
138,12496
137,12496
136,12496
135,12496
134,12496
133,12496
131,12495
130,12495
129,12495
128,12494
127,12494
127,12493
126,12493
125,12492
124,12491
123,12491
122,12490
121,12489
120,12488
119,12488
118,12487
117,12487
116,12486
116,12484
115,12483
115,12482
114,12482
114,12480
113,12479
113,12478
112,12477
112,12476
112,12475
112,12473
111,12472
111,12470
111,12468
110,12467
110,12466
110,12465
109,12465
108,12465
108,12464
108,12463
108,12462
109,12462
111,12460
116,12458
118,12456
119,12456
120,12455
121,12453
123,12451
124,12448
125,12445
125,12444
124,12443
124,12442
124,12439
124,12436
124,12434
124,12432
124,12429
124,12425
124,12423
124,12421
124,12419
126,12417
127,12416
129,12414
129,12413
130,12413
130,12411
130,12410
130,12409
130,12408
129,12407
129,12406
129,12404
128,12404
128,12403
128,12401
128,12399
128,12398
129,12397
129,12396
130,12395
132,12391
136,12384
138,12380
139,12379
141,12377
144,12375
148,12372
154,12369
160,12367
162,12366
163,12366
166,12366
172,12365
178,12364
181,12364
183,12364
185,12364
192,12363
199,12362
204,12361
208,12361
211,12360
213,12360
214,12361
216,12361
217,12361
218,12361
219,12362
221,12362
222,12362
223,12362
224,12362
225,12363
226,12364
227,12364
228,12365
229,12366
230,12367
231,12368
231,12369
231,12370
232,12371
233,12371
233,12372
234,12372
235,12372
236,12372
237,12372
237,12373
238,12373
239,12373
239,12374
240,12375
241,12377
242,12378
243,12378
243,12379
244,12379
245,12379
246,12379
246,12380
247,12380
248,12381
249,12382
250,12383
251,12384
252,12384
253,12385
254,12387
254,12388
255,12390
256,12391
257,12392
257,12393
257,12394
257,12395
257,12396
257,12397
258,12397
258,12398
258,12399
258,12400
260,12402
261,12404
263,12406
264,12407
265,12408
266,12409
268,12411
269,12413
270,12413
270,12414
271,12414
272,12416
273,12418
274,12419
274,12420
275,12422
276,12425
276,12427
276,12429
276,12430
276,12431
276,12433
276,12434
276,12435
276,12436
275,12437
275,12438
274,12439
274,12440
273,12441
273,12442
272,12442
273,12442
272,12442
272,12443
271,12443
271,12444
270,12444
271,12445
272,12447
273,12448
274,12448
274,12449
275,12449
276,12449
276,12450
276,12451
276,12452
275,12453
275,12454
275,12455
" style="stroke:#02709f;stroke-width:0;
stroke-linejoin:bevel; stroke-linecap:butt;
fill:#02709f;
"/>
<!-- Line -->
<!--  spline  -->
<polyline points="275,12455
275,12456
276,12457
276,12458
276,12459
276,12460
277,12462
277,12463
277,12464
278,12466
278,12467
278,12468
278,12469
279,12469
279,12470
279,12471
279,12472
279,12473
280,12473
280,12474
280,12475
280,12476
281,12478
281,12479
280,12480
279,12481
279,12482
278,12482
278,12483
277,12484
276,12485
276,12486
275,12486
275,12487
275,12488
274,12488
274,12489
273,12489
271,12490
270,12490
269,12490
268,12491
267,12491
266,12491
265,12492
264,12492
263,12492
262,12492
261,12492
260,12492
259,12492
258,12493
257,12493
256,12493
255,12494
254,12495
253,12496
252,12496
252,12497
251,12498
250,12499
249,12500
249,12501
249,12502
248,12503
247,12504
247,12505
246,12505
245,12506
244,12507
243,12507
242,12508
241,12508
240,12508
238,12509
237,12509
236,12509
235,12509
233,12509
231,12509
230,12509
230,12510
228,12510
227,12510
226,12510
226,12511
225,12511
224,12511
223,12511
221,12512
220,12512
219,12513
218,12514
217,12515
216,12515
215,12516
214,12517
213,12518
212,12519
211,12520
210,12521
209,12522
208,12523
207,12524
205,12525
204,12526
203,12526
202,12526
201,12527
199,12527
198,12527
197,12527
196,12527
195,12527
193,12527
192,12527
190,12527
188,12527
187,12526
186,12526
185,12526
185,12525
184,12525
183,12525
182,12524
181,12524
180,12524
180,12523
179,12523
178,12523
178,12522
177,12522
176,12521
175,12520
173,12518
172,12517
170,12515
169,12514
168,12513
167,12512
165,12510
164,12509
163,12508
162,12507
161,12506
159,12504
159,12503
158,12503
156,12501
154,12499
152,12498
151,12497
150,12496
149,12496
147,12496
146,12496
145,12496
143,12496
142,12496
141,12496
140,12496
139,12496
138,12496
137,12496
136,12496
135,12496
134,12496
133,12496
131,12495
130,12495
129,12495
128,12494
127,12494
127,12493
126,12493
125,12492
124,12491
123,12491
122,12490
121,12489
120,12488
119,12488
118,12487
117,12487
116,12486
116,12484
115,12483
115,12482
114,12482
114,12480
113,12479
113,12478
112,12477
112,12476
112,12475
112,12473
111,12472
111,12470
111,12468
110,12467
110,12466
110,12465
109,12465
108,12465
108,12464
108,12463
108,12462
109,12462
111,12460
116,12458
118,12456
119,12456
120,12455
121,12453
123,12451
124,12448
125,12445
125,12444
124,12443
124,12442
124,12439
124,12436
124,12434
124,12432
124,12429
124,12425
124,12423
124,12421
124,12419
126,12417
127,12416
129,12414
129,12413
130,12413
130,12411
130,12410
130,12409
130,12408
129,12407
129,12406
129,12404
128,12404
128,12403
128,12401
128,12399
128,12398
129,12397
129,12396
130,12395
132,12391
136,12384
138,12380
139,12379
141,12377
144,12375
148,12372
154,12369
160,12367
162,12366
163,12366
166,12366
172,12365
178,12364
181,12364
183,12364
185,12364
192,12363
199,12362
204,12361
208,12361
211,12360
213,12360
214,12361
216,12361
217,12361
218,12361
219,12362
221,12362
222,12362
223,12362
224,12362
225,12363
226,12364
227,12364
228,12365
229,12366
230,12367
231,12368
231,12369
231,12370
232,12371
233,12371
233,12372
234,12372
235,12372
236,12372
237,12372
237,12373
238,12373
239,12373
239,12374
240,12375
241,12377
242,12378
243,12378
243,12379
244,12379
245,12379
246,12379
246,12380
247,12380
248,12381
249,12382
250,12383
251,12384
252,12384
253,12385
254,12387
254,12388
255,12390
256,12391
257,12392
257,12393
257,12394
257,12395
257,12396
257,12397
258,12397
258,12398
258,12399
258,12400
260,12402
261,12404
263,12406
264,12407
265,12408
266,12409
268,12411
269,12413
270,12413
270,12414
271,12414
272,12416
273,12418
274,12419
274,12420
275,12422
276,12425
276,12427
276,12429
276,12430
276,12431
276,12433
276,12434
276,12435
276,12436
275,12437
275,12438
274,12439
274,12440
273,12441
273,12442
272,12442
273,12442
272,12442
272,12443
271,12443
271,12444
270,12444
271,12445
272,12447
273,12448
274,12448
274,12449
275,12449
276,12449
276,12450
276,12451
276,12452
275,12453
275,12454
275,12455
" style="stroke:#ffffff;stroke-width:7;
stroke-linejoin:bevel; stroke-linecap:butt;
"/>
<!-- Line -->
<!--  spline  -->
<polyline points="283,12535
283,12536
283,12537
283,12538
282,12538
281,12538
281,12539
281,12540
280,12540
278,12541
277,12541
277,12542
276,12542
276,12543
275,12545
275,12547
274,12547
275,12548
274,12548
274,12550
273,12551
273,12552
273,12553
272,12554
271,12555
270,12555
269,12555
268,12555
267,12555
266,12555
265,12555
264,12555
263,12555
263,12554
262,12554
261,12554
261,12553
260,12553
259,12553
259,12552
258,12552
257,12552
257,12553
256,12553
255,12553
254,12553
254,12554
253,12554
252,12554
251,12554
250,12554
250,12555
249,12555
248,12556
247,12557
246,12558
245,12558
244,12559
243,12559
243,12560
242,12560
241,12560
240,12560
239,12561
238,12561
237,12561
236,12562
235,12562
234,12562
232,12562
227,12561
225,12561
224,12561
222,12561
220,12562
217,12562
213,12563
209,12564
208,12564
207,12565
206,12565
202,12566
198,12567
197,12567
196,12568
195,12568
191,12569
187,12570
184,12571
182,12572
180,12572
179,12572
178,12572
177,12572
176,12572
175,12572
174,12573
172,12573
171,12573
170,12573
169,12573
168,12573
167,12573
166,12573
165,12572
164,12572
163,12572
163,12571
162,12571
162,12570
161,12569
159,12567
158,12566
157,12565
156,12564
155,12563
154,12561
153,12559
152,12559
152,12558
151,12556
150,12554
150,12553
149,12553
148,12551
146,12549
145,12548
144,12548
143,12547
141,12547
138,12546
136,12546
135,12546
134,12546
132,12545
129,12545
126,12545
125,12545
124,12545
121,12545
119,12545
118,12545
117,12545
116,12544
114,12544
111,12544
110,12543
108,12543
107,12543
106,12543
105,12543
104,12542
104,12541
103,12541
102,12541
101,12541
101,12540
101,12539
101,12538
101,12537
100,12537
100,12536
100,12535
100,12536
100,12535
100,12534
99,12534
99,12533
99,12532
98,12532
98,12531
98,12530
97,12529
96,12529
96,12528
96,12527
97,12527
98,12526
98,12525
98,12524
98,12523
97,12523
97,12522
96,12521
95,12520
95,12517
94,12514
94,12511
94,12509
94,12507
94,12503
95,12498
96,12493
96,12491
96,12490
97,12488
98,12483
99,12479
100,12477
100,12476
101,12475
102,12471
104,12468
105,12465
106,12464
107,12463
106,12463
107,12463
108,12463
109,12463
109,12462
110,12462
110,12463
110,12464
111,12466
111,12467
111,12468
111,12469
111,12471
111,12473
112,12473
112,12474
113,12476
113,12477
114,12478
113,12478
114,12479
114,12480
115,12481
115,12483
116,12483
116,12484
117,12484
118,12485
119,12485
120,12486
121,12487
122,12488
123,12489
124,12490
125,12490
126,12491
127,12492
128,12493
130,12493
131,12493
133,12493
134,12493
136,12493
137,12493
138,12493
139,12493
140,12493
141,12493
142,12493
143,12493
144,12493
145,12493
146,12493
148,12493
149,12493
151,12495
152,12496
154,12498
155,12499
156,12500
157,12501
159,12503
161,12505
162,12506
164,12508
166,12510
167,12511
169,12513
171,12515
172,12516
173,12517
174,12518
175,12518
175,12519
176,12519
177,12519
177,12520
178,12520
179,12520
179,12521
180,12521
181,12521
181,12522
182,12522
183,12522
184,12523
185,12523
186,12523
188,12524
189,12524
190,12524
191,12524
192,12524
194,12524
195,12524
196,12524
197,12524
198,12524
200,12524
201,12524
201,12523
203,12523
205,12522
206,12522
206,12521
207,12521
208,12520
208,12519
209,12518
209,12517
210,12517
211,12516
212,12515
213,12515
214,12514
215,12513
215,12512
216,12511
217,12510
218,12510
218,12509
219,12509
220,12509
222,12508
223,12508
224,12508
225,12507
227,12507
229,12507
229,12506
230,12506
232,12506
233,12506
234,12506
235,12506
236,12506
237,12506
239,12505
240,12505
241,12504
243,12504
244,12503
245,12502
245,12501
246,12500
247,12499
247,12498
248,12498
248,12497
249,12496
250,12495
250,12494
251,12494
252,12493
253,12492
254,12492
255,12491
256,12490
257,12490
258,12489
259,12489
261,12489
262,12489
263,12489
264,12489
265,12488
266,12488
267,12488
268,12487
269,12487
270,12487
271,12486
272,12486
273,12486
273,12485
274,12485
274,12484
274,12483
275,12483
275,12482
276,12481
277,12480
277,12479
278,12479
277,12479
278,12479
278,12478
279,12477
280,12476
280,12475
279,12473
279,12472
279,12471
278,12469
278,12468
278,12467
278,12466
277,12466
277,12465
277,12464
277,12463
277,12462
276,12462
276,12461
276,12460
276,12459
275,12457
275,12456
275,12455
275,12454
274,12454
273,12454
272,12454
272,12453
271,12452
272,12452
273,12452
274,12452
275,12453
277,12457
282,12462
284,12466
285,12467
285,12469
286,12472
286,12476
286,12482
285,12487
285,12489
285,12490
284,12493
283,12498
282,12503
282,12506
281,12507
281,12509
281,12514
282,12520
283,12524
284,12527
285,12529
284,12531
284,12533
283,12535
" style="stroke:#02709f;stroke-width:0;
stroke-linejoin:bevel; stroke-linecap:butt;
fill:#02709f;
"/>
<!-- Line -->
<!--  spline  -->
<polyline points="283,12535
283,12536
283,12537
283,12538
282,12538
281,12538
281,12539
281,12540
280,12540
278,12541
277,12541
277,12542
276,12542
276,12543
275,12545
275,12547
274,12547
275,12548
274,12548
274,12550
273,12551
273,12552
273,12553
272,12554
271,12555
270,12555
269,12555
268,12555
267,12555
266,12555
265,12555
264,12555
263,12555
263,12554
262,12554
261,12554
261,12553
260,12553
259,12553
259,12552
258,12552
257,12552
257,12553
256,12553
255,12553
254,12553
254,12554
253,12554
252,12554
251,12554
250,12554
250,12555
249,12555
248,12556
247,12557
246,12558
245,12558
244,12559
243,12559
243,12560
242,12560
241,12560
240,12560
239,12561
238,12561
237,12561
236,12562
235,12562
234,12562
232,12562
227,12561
225,12561
224,12561
222,12561
220,12562
217,12562
213,12563
209,12564
208,12564
207,12565
206,12565
202,12566
198,12567
197,12567
196,12568
195,12568
191,12569
187,12570
184,12571
182,12572
180,12572
179,12572
178,12572
177,12572
176,12572
175,12572
174,12573
172,12573
171,12573
170,12573
169,12573
168,12573
167,12573
166,12573
165,12572
164,12572
163,12572
163,12571
162,12571
162,12570
161,12569
159,12567
158,12566
157,12565
156,12564
155,12563
154,12561
153,12559
152,12559
152,12558
151,12556
150,12554
150,12553
149,12553
148,12551
146,12549
145,12548
144,12548
143,12547
141,12547
138,12546
136,12546
135,12546
134,12546
132,12545
129,12545
126,12545
125,12545
124,12545
121,12545
119,12545
118,12545
117,12545
116,12544
114,12544
111,12544
110,12543
108,12543
107,12543
106,12543
105,12543
104,12542
104,12541
103,12541
102,12541
101,12541
101,12540
101,12539
101,12538
101,12537
100,12537
100,12536
100,12535
100,12536
100,12535
100,12534
99,12534
99,12533
99,12532
98,12532
98,12531
98,12530
97,12529
96,12529
96,12528
96,12527
97,12527
98,12526
98,12525
98,12524
98,12523
97,12523
97,12522
96,12521
95,12520
95,12517
94,12514
94,12511
94,12509
94,12507
94,12503
95,12498
96,12493
96,12491
96,12490
97,12488
98,12483
99,12479
100,12477
100,12476
101,12475
102,12471
104,12468
105,12465
106,12464
107,12463
106,12463
107,12463
108,12463
109,12463
109,12462
110,12462
110,12463
110,12464
111,12466
111,12467
111,12468
111,12469
111,12471
111,12473
112,12473
112,12474
113,12476
113,12477
114,12478
113,12478
114,12479
114,12480
115,12481
115,12483
116,12483
116,12484
117,12484
118,12485
119,12485
120,12486
121,12487
122,12488
123,12489
124,12490
125,12490
126,12491
127,12492
128,12493
130,12493
131,12493
133,12493
134,12493
136,12493
137,12493
138,12493
139,12493
140,12493
141,12493
142,12493
143,12493
144,12493
145,12493
146,12493
148,12493
149,12493
151,12495
152,12496
154,12498
155,12499
156,12500
157,12501
159,12503
161,12505
162,12506
164,12508
166,12510
167,12511
169,12513
171,12515
172,12516
173,12517
174,12518
175,12518
175,12519
176,12519
177,12519
177,12520
178,12520
179,12520
179,12521
180,12521
181,12521
181,12522
182,12522
183,12522
184,12523
185,12523
186,12523
188,12524
189,12524
190,12524
191,12524
192,12524
194,12524
195,12524
196,12524
197,12524
198,12524
200,12524
201,12524
201,12523
203,12523
205,12522
206,12522
206,12521
207,12521
208,12520
208,12519
209,12518
209,12517
210,12517
211,12516
212,12515
213,12515
214,12514
215,12513
215,12512
216,12511
217,12510
218,12510
218,12509
219,12509
220,12509
222,12508
223,12508
224,12508
225,12507
227,12507
229,12507
229,12506
230,12506
232,12506
233,12506
234,12506
235,12506
236,12506
237,12506
239,12505
240,12505
241,12504
243,12504
244,12503
245,12502
245,12501
246,12500
247,12499
247,12498
248,12498
248,12497
249,12496
250,12495
250,12494
251,12494
252,12493
253,12492
254,12492
255,12491
256,12490
257,12490
258,12489
259,12489
261,12489
262,12489
263,12489
264,12489
265,12488
266,12488
267,12488
268,12487
269,12487
270,12487
271,12486
272,12486
273,12486
273,12485
274,12485
274,12484
274,12483
275,12483
275,12482
276,12481
277,12480
277,12479
278,12479
277,12479
278,12479
278,12478
279,12477
280,12476
280,12475
279,12473
279,12472
279,12471
278,12469
278,12468
278,12467
278,12466
277,12466
277,12465
277,12464
277,12463
277,12462
276,12462
276,12461
276,12460
276,12459
275,12457
275,12456
275,12455
275,12454
274,12454
273,12454
272,12454
272,12453
271,12452
272,12452
273,12452
274,12452
275,12453
277,12457
282,12462
284,12466
285,12467
285,12469
286,12472
286,12476
286,12482
285,12487
285,12489
285,12490
284,12493
283,12498
282,12503
282,12506
281,12507
281,12509
281,12514
282,12520
283,12524
284,12527
285,12529
284,12531
284,12533
283,12535
" style="stroke:#ffffff;stroke-width:7;
stroke-linejoin:bevel; stroke-linecap:butt;
"/>
<!-- Line -->
<!--  spline  -->
<polyline points="243,13119
242,13119
240,13120
239,13120
238,13120
237,13121
235,13121
233,13121
232,13122
230,13122
228,13122
228,13123
227,13123
225,13123
223,13123
222,13123
221,13123
219,13122
216,13121
214,13120
213,13120
212,13119
211,13119
210,13119
211,13119
210,13119
209,13119
208,13118
206,13118
203,13117
199,13117
196,13116
194,13116
193,13118
191,13119
190,13121
190,13122
189,13123
189,13124
188,13126
188,13128
187,13129
187,13130
187,13131
187,13133
187,13135
187,13136
187,13137
187,13139
187,13141
186,13143
185,13145
185,13146
184,13146
183,13146
182,13146
182,13145
181,13145
180,13145
180,13146
180,13145
178,13141
174,13135
172,13131
172,13130
171,13128
170,13125
169,13122
167,13118
166,13114
165,13113
164,13111
163,13108
162,13105
162,13103
162,13101
162,13098
162,13095
162,13093
163,13091
163,13090
165,13088
166,13087
168,13085
169,13085
170,13085
172,13085
174,13085
176,13085
176,13086
177,13086
178,13087
179,13088
180,13088
180,13089
181,13090
182,13091
183,13091
186,13093
192,13095
195,13097
196,13097
198,13098
200,13099
203,13100
207,13101
210,13102
211,13103
212,13103
214,13104
216,13105
217,13105
218,13106
219,13106
219,13107
220,13107
221,13107
225,13105
230,13104
234,13102
235,13102
236,13101
238,13100
240,13098
242,13096
243,13094
244,13093
244,13092
244,13090
244,13088
244,13087
243,13087
243,13086
243,13085
242,13085
244,13085
248,13086
250,13086
251,13086
252,13086
254,13086
255,13086
256,13086
257,13086
258,13086
259,13088
259,13089
260,13091
260,13092
259,13094
258,13097
257,13100
255,13103
254,13104
254,13105
253,13106
251,13109
249,13112
248,13113
247,13113
247,13114
245,13116
244,13117
244,13118
243,13118
243,13119
" style="stroke:#02709f;stroke-width:0;
stroke-linejoin:bevel; stroke-linecap:butt;
fill:#02709f;
"/>
<!-- Line -->
<!--  spline  -->
<polyline points="165,12980
165,12981
165,12988
165,12999
165,13006
165,13007
165,13009
165,13012
166,13015
166,13018
166,13020
166,13022
166,13024
166,13025
166,13027
166,13032
166,13040
165,13047
165,13054
165,13058
165,13059
165,13060
166,13060
166,13061
165,13061
165,13062
165,13063
164,13063
164,13064
164,13065
163,13065
162,13065
162,13066
161,13066
158,13066
155,13067
152,13067
151,13067
149,13067
146,13067
143,13067
140,13067
139,13067
138,13067
137,13068
135,13068
133,13069
132,13069
131,13069
130,13070
129,13072
128,13073
127,13075
127,13076
127,13078
127,13079
127,13081
127,13082
128,13082
128,13083
129,13084
130,13085
131,13085
132,13086
133,13087
134,13087
135,13088
136,13088
137,13088
138,13088
139,13088
136,13090
133,13094
130,13096
128,13097
126,13099
124,13102
120,13105
117,13108
115,13109
115,13110
113,13111
110,13114
107,13117
106,13118
105,13119
104,13120
101,13123
97,13126
95,13128
93,13129
91,13130
89,13132
88,13136
86,13138
86,13139
86,13141
85,13143
85,13146
85,13149
85,13150
85,13151
85,13154
85,13157
85,13158
85,13159
85,13160
85,13163
85,13166
85,13169
85,13171
85,13172
86,13173
87,13173
88,13174
89,13174
90,13175
91,13175
92,13175
93,13175
94,13175
95,13175
96,13174
97,13174
98,13174
99,13173
100,13173
101,13173
101,13171
100,13168
100,13166
100,13165
100,13164
100,13162
100,13160
100,13158
100,13157
101,13156
101,13154
101,13152
102,13151
102,13150
102,13148
102,13146
102,13144
102,13143
102,13142
103,13141
106,13139
110,13134
113,13132
114,13131
116,13130
118,13127
122,13125
126,13121
130,13117
132,13116
133,13115
135,13114
139,13110
143,13106
145,13105
145,13104
147,13103
151,13099
155,13095
159,13093
161,13090
163,13089
164,13088
165,13089
166,13089
167,13089
167,13090
167,13091
166,13096
164,13103
163,13108
163,13109
163,13110
162,13112
161,13117
160,13123
158,13131
157,13138
156,13141
156,13143
155,13146
154,13153
153,13160
153,13163
153,13164
152,13167
152,13174
152,13181
152,13186
153,13189
153,13192
153,13193
154,13193
154,13194
154,13195
154,13196
154,13197
155,13197
156,13198
157,13198
158,13199
159,13199
160,13199
161,13199
162,13200
163,13200
164,13200
165,13200
166,13200
167,13200
168,13200
169,13200
170,13199
171,13198
172,13198
172,13197
172,13196
172,13194
172,13190
172,13188
172,13187
172,13185
172,13183
172,13181
172,13177
172,13174
171,13172
171,13170
171,13167
171,13163
172,13162
172,13161
172,13160
173,13156
174,13152
175,13149
175,13147
176,13145
177,13147
177,13148
178,13150
178,13151
178,13152
178,13154
178,13156
178,13157
178,13159
178,13161
178,13162
178,13164
178,13166
178,13168
178,13169
178,13170
179,13170
180,13170
181,13170
182,13170
184,13171
185,13171
186,13171
187,13171
188,13171
189,13171
190,13171
191,13171
192,13170
193,13169
194,13168
195,13167
195,13166
195,13165
195,13163
195,13158
195,13156
195,13155
195,13153
195,13151
194,13147
194,13143
193,13139
193,13137
193,13136
193,13134
192,13130
191,13125
191,13123
191,13121
190,13116
190,13111
189,13107
189,13104
189,13102
189,13101
189,13100
189,13099
189,13098
189,13097
189,13096
189,13097
190,13097
190,13096
190,13095
191,13095
191,13094
192,13094
194,13097
199,13100
201,13103
202,13103
204,13104
206,13106
210,13108
214,13112
218,13115
219,13117
220,13118
221,13119
225,13123
229,13126
230,13128
231,13128
232,13130
236,13133
240,13136
244,13139
246,13141
248,13142
249,13144
250,13146
251,13148
251,13149
252,13151
253,13154
253,13157
253,13160
253,13161
253,13162
253,13163
253,13166
253,13169
253,13170
253,13171
253,13173
253,13174
253,13175
252,13175
252,13176
254,13176
256,13177
258,13177
259,13177
260,13177
261,13178
262,13178
263,13178
264,13178
265,13178
266,13178
266,13177
267,13177
268,13177
268,13176
269,13175
269,13174
269,13173
270,13171
270,13169
270,13166
270,13163
270,13161
269,13159
269,13155
268,13151
268,13149
268,13148
268,13146
267,13142
266,13138
264,13134
263,13132
262,13130
261,13129
257,13126
249,13119
237,13109
224,13099
216,13092
212,13089
211,13088
212,13087
213,13087
214,13087
215,13087
216,13087
217,13087
218,13087
219,13087
220,13087
221,13087
222,13087
223,13087
224,13087
225,13086
226,13085
227,13084
228,13084
228,13083
229,13082
230,13081
231,13080
231,13079
231,13078
231,13077
231,13076
230,13075
230,13074
230,13073
229,13071
229,13070
227,13070
226,13069
224,13069
223,13069
221,13069
220,13069
219,13069
218,13069
218,13068
217,13068
216,13068
214,13068
213,13068
211,13068
209,13068
208,13068
207,13068
206,13068
205,13068
204,13067
203,13067
202,13067
201,13067
201,13066
201,13065
201,13064
201,13063
201,13062
201,13061
200,13061
200,13059
200,13057
200,13055
200,13054
200,13053
200,13052
200,13045
200,13036
200,13029
200,13028
200,13026
200,13024
200,13021
200,13019
200,13018
200,13017
200,13015
200,13014
200,13013
200,13008
200,13001
201,12994
201,12988
201,12984
201,12983
" style="stroke:#02709f;stroke-width:0;
stroke-linejoin:bevel; stroke-linecap:butt;
fill:#02709f;
"/>
<!-- Line -->
<!--  spline  -->
<polyline points="165,12980
165,12981
165,12988
165,12999
165,13006
165,13007
165,13009
165,13012
166,13015
166,13018
166,13020
166,13022
166,13024
166,13025
166,13027
166,13032
166,13040
165,13047
165,13054
165,13058
165,13059
165,13060
166,13060
166,13061
165,13061
165,13062
165,13063
164,13063
164,13064
164,13065
163,13065
162,13065
162,13066
161,13066
158,13066
155,13067
152,13067
151,13067
149,13067
146,13067
143,13067
140,13067
139,13067
138,13067
137,13068
135,13068
133,13069
132,13069
131,13069
130,13070
129,13072
128,13073
127,13075
127,13076
127,13078
127,13079
127,13081
127,13082
128,13082
128,13083
129,13084
130,13085
131,13085
132,13086
133,13087
134,13087
135,13088
136,13088
137,13088
138,13088
139,13088
136,13090
133,13094
130,13096
128,13097
126,13099
124,13102
120,13105
117,13108
115,13109
115,13110
113,13111
110,13114
107,13117
106,13118
105,13119
104,13120
101,13123
97,13126
95,13128
93,13129
91,13130
89,13132
88,13136
86,13138
86,13139
86,13141
85,13143
85,13146
85,13149
85,13150
85,13151
85,13154
85,13157
85,13158
85,13159
85,13160
85,13163
85,13166
85,13169
85,13171
85,13172
86,13173
87,13173
88,13174
89,13174
90,13175
91,13175
92,13175
93,13175
94,13175
95,13175
96,13174
97,13174
98,13174
99,13173
100,13173
101,13173
101,13171
100,13168
100,13166
100,13165
100,13164
100,13162
100,13160
100,13158
100,13157
101,13156
101,13154
101,13152
102,13151
102,13150
102,13148
102,13146
102,13144
102,13143
102,13142
103,13141
106,13139
110,13134
113,13132
114,13131
116,13130
118,13127
122,13125
126,13121
130,13117
132,13116
133,13115
135,13114
139,13110
143,13106
145,13105
145,13104
147,13103
151,13099
155,13095
159,13093
161,13090
163,13089
164,13088
165,13089
166,13089
167,13089
167,13090
167,13091
166,13096
164,13103
163,13108
163,13109
163,13110
162,13112
161,13117
160,13123
158,13131
157,13138
156,13141
156,13143
155,13146
154,13153
153,13160
153,13163
153,13164
152,13167
152,13174
152,13181
152,13186
153,13189
153,13192
153,13193
154,13193
154,13194
154,13195
154,13196
154,13197
155,13197
156,13198
157,13198
158,13199
159,13199
160,13199
161,13199
162,13200
163,13200
164,13200
165,13200
166,13200
167,13200
168,13200
169,13200
170,13199
171,13198
172,13198
172,13197
172,13196
172,13194
172,13190
172,13188
172,13187
172,13185
172,13183
172,13181
172,13177
172,13174
171,13172
171,13170
171,13167
171,13163
172,13162
172,13161
172,13160
173,13156
174,13152
175,13149
175,13147
176,13145
177,13147
177,13148
178,13150
178,13151
178,13152
178,13154
178,13156
178,13157
178,13159
178,13161
178,13162
178,13164
178,13166
178,13168
178,13169
178,13170
179,13170
180,13170
181,13170
182,13170
184,13171
185,13171
186,13171
187,13171
188,13171
189,13171
190,13171
191,13171
192,13170
193,13169
194,13168
195,13167
195,13166
195,13165
195,13163
195,13158
195,13156
195,13155
195,13153
195,13151
194,13147
194,13143
193,13139
193,13137
193,13136
193,13134
192,13130
191,13125
191,13123
191,13121
190,13116
190,13111
189,13107
189,13104
189,13102
189,13101
189,13100
189,13099
189,13098
189,13097
189,13096
189,13097
190,13097
190,13096
190,13095
191,13095
191,13094
192,13094
194,13097
199,13100
201,13103
202,13103
204,13104
206,13106
210,13108
214,13112
218,13115
219,13117
220,13118
221,13119
225,13123
229,13126
230,13128
231,13128
232,13130
236,13133
240,13136
244,13139
246,13141
248,13142
249,13144
250,13146
251,13148
251,13149
252,13151
253,13154
253,13157
253,13160
253,13161
253,13162
253,13163
253,13166
253,13169
253,13170
253,13171
253,13173
253,13174
253,13175
252,13175
252,13176
254,13176
256,13177
258,13177
259,13177
260,13177
261,13178
262,13178
263,13178
264,13178
265,13178
266,13178
266,13177
267,13177
268,13177
268,13176
269,13175
269,13174
269,13173
270,13171
270,13169
270,13166
270,13163
270,13161
269,13159
269,13155
268,13151
268,13149
268,13148
268,13146
267,13142
266,13138
264,13134
263,13132
262,13130
261,13129
257,13126
249,13119
237,13109
224,13099
216,13092
212,13089
211,13088
212,13087
213,13087
214,13087
215,13087
216,13087
217,13087
218,13087
219,13087
220,13087
221,13087
222,13087
223,13087
224,13087
225,13086
226,13085
227,13084
228,13084
228,13083
229,13082
230,13081
231,13080
231,13079
231,13078
231,13077
231,13076
230,13075
230,13074
230,13073
229,13071
229,13070
227,13070
226,13069
224,13069
223,13069
221,13069
220,13069
219,13069
218,13069
218,13068
217,13068
216,13068
214,13068
213,13068
211,13068
209,13068
208,13068
207,13068
206,13068
205,13068
204,13067
203,13067
202,13067
201,13067
201,13066
201,13065
201,13064
201,13063
201,13062
201,13061
200,13061
200,13059
200,13057
200,13055
200,13054
200,13053
200,13052
200,13045
200,13036
200,13029
200,13028
200,13026
200,13024
200,13021
200,13019
200,13018
200,13017
200,13015
200,13014
200,13013
200,13008
200,13001
201,12994
201,12988
201,12984
201,12983
" style="stroke:#ffffff;stroke-width:7;
stroke-linejoin:bevel; stroke-linecap:butt;
"/>
<!-- Line -->
<!--  spline  -->
<polyline points="222,13069
223,13069
224,13069
225,13069
226,13069
226,13070
227,13070
227,13071
228,13071
227,13071
228,13071
228,13072
229,13073
230,13073
230,13074
230,13075
230,13076
230,13077
230,13079
230,13080
230,13081
230,13082
229,13083
228,13084
228,13085
227,13085
228,13085
227,13085
227,13086
226,13086
226,13087
225,13087
224,13087
223,13087
222,13087
221,13087
219,13087
218,13088
216,13088
214,13088
212,13089
208,13089
203,13090
197,13091
195,13091
194,13091
191,13092
184,13092
177,13092
174,13092
172,13092
169,13092
161,13091
152,13090
145,13089
140,13088
137,13087
136,13087
135,13087
134,13087
133,13087
132,13087
132,13086
131,13086
131,13085
130,13085
130,13084
130,13083
129,13083
129,13082
129,13081
128,13081
128,13080
128,13079
128,13077
128,13076
128,13075
129,13075
129,13074
129,13073
130,13073
130,13072
130,13071
131,13071
131,13070
132,13070
132,13069
133,13069
134,13069
135,13069
136,13069
137,13069
143,13071
153,13072
159,13074
160,13074
161,13074
164,13074
169,13074
175,13074
183,13074
190,13074
193,13073
194,13073
197,13073
203,13072
208,13071
211,13071
212,13071
213,13071
217,13070
218,13070
219,13070
220,13070
220,13069
221,13069
222,13069
" style="stroke:#02709f;stroke-width:0;
stroke-linejoin:bevel; stroke-linecap:butt;
fill:#02709f;
"/>
<!-- Line -->
<!--  spline  -->
<polyline points="222,13069
223,13069
224,13069
225,13069
226,13069
226,13070
227,13070
227,13071
228,13071
227,13071
228,13071
228,13072
229,13073
230,13073
230,13074
230,13075
230,13076
230,13077
230,13079
230,13080
230,13081
230,13082
229,13083
228,13084
228,13085
227,13085
228,13085
227,13085
227,13086
226,13086
226,13087
225,13087
224,13087
223,13087
222,13087
221,13087
219,13087
218,13088
216,13088
214,13088
212,13089
208,13089
203,13090
197,13091
195,13091
194,13091
191,13092
184,13092
177,13092
174,13092
172,13092
169,13092
161,13091
152,13090
145,13089
140,13088
137,13087
136,13087
135,13087
134,13087
133,13087
132,13087
132,13086
131,13086
131,13085
130,13085
130,13084
130,13083
129,13083
129,13082
129,13081
128,13081
128,13080
128,13079
128,13077
128,13076
128,13075
129,13075
129,13074
129,13073
130,13073
130,13072
130,13071
131,13071
131,13070
132,13070
132,13069
133,13069
134,13069
135,13069
136,13069
137,13069
143,13071
153,13072
159,13074
160,13074
161,13074
164,13074
169,13074
175,13074
183,13074
190,13074
193,13073
194,13073
197,13073
203,13072
208,13071
211,13071
212,13071
213,13071
217,13070
218,13070
219,13070
220,13070
220,13069
221,13069
222,13069
" style="stroke:#ffffff;stroke-width:7;
stroke-linejoin:bevel; stroke-linecap:butt;
"/>
<!-- Line -->
<!--  spline  -->
<polyline points="146,12804
148,12804
149,12804
151,12804
152,12804
153,12803
154,12802
156,12801
157,12800
158,12799
159,12798
160,12797
161,12795
161,12794
162,12792
162,12790
163,12788
163,12787
163,12786
163,12784
162,12782
162,12780
162,12779
161,12777
160,12776
159,12775
158,12774
157,12773
156,12772
154,12771
154,12770
153,12770
151,12769
149,12768
148,12768
147,12768
146,12768
144,12768
142,12769
140,12769
139,12769
139,12770
137,12771
136,12772
135,12773
134,12774
133,12775
132,12776
131,12777
131,12778
130,12780
130,12782
129,12784
129,12785
129,12786
129,12788
130,12790
130,12792
130,12793
130,12794
131,12795
132,12797
133,12798
134,12799
135,12800
136,12801
137,12802
138,12803
140,12804
142,12804
144,12804
145,12804
146,12804
" style="stroke:#02709f;stroke-width:0;
stroke-linejoin:bevel; stroke-linecap:butt;
fill:#02709f;
"/>
<!-- Line -->
<!--  spline  -->
<polyline points="146,12804
148,12804
149,12804
151,12804
152,12804
153,12803
154,12802
156,12801
157,12800
158,12799
159,12798
160,12797
161,12795
161,12794
162,12792
162,12790
163,12788
163,12787
163,12786
163,12784
162,12782
162,12780
162,12779
161,12777
160,12776
159,12775
158,12774
157,12773
156,12772
154,12771
154,12770
153,12770
151,12769
149,12768
148,12768
147,12768
146,12768
144,12768
142,12769
140,12769
139,12769
139,12770
137,12771
136,12772
135,12773
134,12774
133,12775
132,12776
131,12777
131,12778
130,12780
130,12782
129,12784
129,12785
129,12786
129,12788
130,12790
130,12792
130,12793
130,12794
131,12795
132,12797
133,12798
134,12799
135,12800
136,12801
137,12802
138,12803
140,12804
142,12804
144,12804
145,12804
146,12804
" style="stroke:#ffffff;stroke-width:7;
stroke-linejoin:bevel; stroke-linecap:butt;
"/>
<!-- Line -->
<!--  spline  -->
<polyline points="139,12806
141,12806
143,12805
145,12805
146,12805
147,12804
148,12803
150,12802
151,12801
152,12800
152,12799
153,12798
154,12796
155,12796
155,12795
156,12793
157,12791
157,12790
157,12789
157,12788
157,12786
156,12784
156,12782
156,12781
155,12780
154,12779
153,12777
152,12776
152,12775
151,12774
150,12773
149,12772
148,12771
147,12771
145,12770
143,12769
141,12769
140,12769
139,12769
137,12769
136,12770
134,12770
133,12770
132,12771
131,12772
129,12773
128,12774
127,12775
127,12776
126,12777
125,12779
124,12779
124,12780
123,12782
122,12784
122,12786
122,12787
122,12788
122,12790
123,12791
123,12793
123,12794
124,12795
125,12796
126,12798
127,12799
127,12800
128,12801
129,12802
130,12803
131,12804
132,12804
134,12805
136,12806
137,12806
138,12806
139,12806
" style="stroke:#02709f;stroke-width:0;
stroke-linejoin:bevel; stroke-linecap:butt;
fill:#02709f;
"/>
<!-- Line -->
<!--  spline  -->
<polyline points="139,12806
141,12806
143,12805
145,12805
146,12805
147,12804
148,12803
150,12802
151,12801
152,12800
152,12799
153,12798
154,12796
155,12796
155,12795
156,12793
157,12791
157,12790
157,12789
157,12788
157,12786
156,12784
156,12782
156,12781
155,12780
154,12779
153,12777
152,12776
152,12775
151,12774
150,12773
149,12772
148,12771
147,12771
145,12770
143,12769
141,12769
140,12769
139,12769
137,12769
136,12770
134,12770
133,12770
132,12771
131,12772
129,12773
128,12774
127,12775
127,12776
126,12777
125,12779
124,12779
124,12780
123,12782
122,12784
122,12786
122,12787
122,12788
122,12790
123,12791
123,12793
123,12794
124,12795
125,12796
126,12798
127,12799
127,12800
128,12801
129,12802
130,12803
131,12804
132,12804
134,12805
136,12806
137,12806
138,12806
139,12806
" style="stroke:#ffffff;stroke-width:7;
stroke-linejoin:bevel; stroke-linecap:butt;
"/>
<!-- Line -->
<!--  polyline  -->
<polyline points="144,12918
182,12919
" style="stroke:#02709f;stroke-width:0;
stroke-linejoin:miter; stroke-linecap:butt;
fill:#02709f;
"/>
<!-- Line -->
<!--  polyline  -->
<polyline points="144,12918
182,12919
" style="stroke:#ffffff;stroke-width:7;
stroke-linejoin:miter; stroke-linecap:butt;
"/>
<!-- Line -->
<!--  spline  -->
<polyline points="279,12986
280,12986
281,12985
282,12985
283,12985
283,12984
283,12983
284,12983
284,12982
284,12981
283,12981
283,12980
282,12979
282,12978
281,12977
281,12976
281,12974
281,12965
281,12949
281,12933
281,12924
281,12922
282,12921
283,12920
284,12920
284,12919
284,12918
283,12917
282,12917
281,12917
280,12916
279,12916
278,12916
274,12916
263,12916
246,12916
222,12916
194,12916
166,12916
142,12916
125,12916
114,12916
110,12916
109,12916
106,12914
103,12913
100,12911
98,12911
95,12911
93,12911
91,12911
88,12912
85,12912
80,12913
75,12913
73,12913
72,12913
70,12913
66,12914
62,12915
60,12915
59,12916
57,12916
54,12917
51,12918
50,12918
49,12919
49,12921
49,12931
49,12949
49,12966
49,12976
49,12978
49,12979
49,12980
49,12981
49,12982
50,12982
50,12983
51,12983
51,12984
52,12984
53,12984
53,12985
54,12985
55,12985
55,12986
56,12986
57,12986
60,12986
70,12986
85,12986
108,12986
136,12986
168,12986
199,12986
227,12986
250,12986
265,12986
275,12986
278,12986
279,12986
" style="stroke:#02709f;stroke-width:0;
stroke-linejoin:bevel; stroke-linecap:butt;
fill:#02709f;
"/>
<!-- Line -->
<!--  spline  -->
<polyline points="279,12986
280,12986
281,12985
282,12985
283,12985
283,12984
283,12983
284,12983
284,12982
284,12981
283,12981
283,12980
282,12979
282,12978
281,12977
281,12976
281,12974
281,12965
281,12949
281,12933
281,12924
281,12922
282,12921
283,12920
284,12920
284,12919
284,12918
283,12917
282,12917
281,12917
280,12916
279,12916
278,12916
274,12916
263,12916
246,12916
222,12916
194,12916
166,12916
142,12916
125,12916
114,12916
110,12916
109,12916
106,12914
103,12913
100,12911
98,12911
95,12911
93,12911
91,12911
88,12912
85,12912
80,12913
75,12913
73,12913
72,12913
70,12913
66,12914
62,12915
60,12915
59,12916
57,12916
54,12917
51,12918
50,12918
49,12919
49,12921
49,12931
49,12949
49,12966
49,12976
49,12978
49,12979
49,12980
49,12981
49,12982
50,12982
50,12983
51,12983
51,12984
52,12984
53,12984
53,12985
54,12985
55,12985
55,12986
56,12986
57,12986
60,12986
70,12986
85,12986
108,12986
136,12986
168,12986
199,12986
227,12986
250,12986
265,12986
275,12986
278,12986
279,12986
" style="stroke:#ffffff;stroke-width:7;
stroke-linejoin:bevel; stroke-linecap:butt;
"/>
<!-- Line -->
<!--  spline  -->
<polyline points="63,12982
62,12982
61,12982
60,12982
60,12981
59,12981
59,12980
58,12980
58,12979
58,12978
57,12978
57,12979
57,12978
57,12977
57,12976
57,12974
57,12966
57,12951
57,12936
57,12928
57,12926
57,12925
57,12924
57,12923
58,12923
58,12922
58,12921
59,12921
60,12921
60,12920
61,12920
62,12920
63,12920
64,12920
67,12920
75,12920
90,12920
110,12920
135,12920
164,12920
192,12920
217,12920
237,12920
252,12920
260,12920
263,12920
264,12920
265,12920
266,12920
267,12920
267,12921
268,12921
269,12921
269,12922
269,12923
270,12923
270,12924
270,12925
271,12925
271,12926
271,12928
271,12936
271,12951
271,12966
271,12974
271,12976
271,12977
270,12977
270,12978
269,12978
269,12979
269,12980
268,12980
268,12981
267,12981
267,12982
266,12982
265,12982
264,12982
263,12982
260,12982
252,12982
237,12982
217,12982
192,12982
163,12982
135,12982
110,12982
90,12982
75,12982
67,12982
64,12982
63,12982
" style="stroke:#02709f;stroke-width:0;
stroke-linejoin:bevel; stroke-linecap:butt;
fill:#02709f;
"/>
<!-- Line -->
<!--  spline  -->
<polyline points="63,12982
62,12982
61,12982
60,12982
60,12981
59,12981
59,12980
58,12980
58,12979
58,12978
57,12978
57,12979
57,12978
57,12977
57,12976
57,12974
57,12966
57,12951
57,12936
57,12928
57,12926
57,12925
57,12924
57,12923
58,12923
58,12922
58,12921
59,12921
60,12921
60,12920
61,12920
62,12920
63,12920
64,12920
67,12920
75,12920
90,12920
110,12920
135,12920
164,12920
192,12920
217,12920
237,12920
252,12920
260,12920
263,12920
264,12920
265,12920
266,12920
267,12920
267,12921
268,12921
269,12921
269,12922
269,12923
270,12923
270,12924
270,12925
271,12925
271,12926
271,12928
271,12936
271,12951
271,12966
271,12974
271,12976
271,12977
270,12977
270,12978
269,12978
269,12979
269,12980
268,12980
268,12981
267,12981
267,12982
266,12982
265,12982
264,12982
263,12982
260,12982
252,12982
237,12982
217,12982
192,12982
163,12982
135,12982
110,12982
90,12982
75,12982
67,12982
64,12982
63,12982
" style="stroke:#ffffff;stroke-width:7;
stroke-linejoin:bevel; stroke-linecap:butt;
"/>
<!-- Line -->
<!--  spline  -->
<polyline points="335,12928
336,12927
337,12926
338,12925
338,12924
339,12923
339,12922
339,12921
339,12920
339,12921
339,12920
339,12913
339,12899
339,12886
339,12879
339,12878
339,12877
339,12876
339,12875
338,12875
338,12874
338,12873
337,12873
336,12873
336,12872
335,12872
334,12872
333,12873
332,12874
324,12882
310,12895
296,12908
288,12916
287,12917
286,12918
285,12919
284,12919
284,12920
283,12921
283,12922
282,12922
282,12923
282,12924
282,12925
281,12925
281,12926
281,12927
281,12928
281,12929
281,12936
281,12949
281,12961
281,12968
281,12969
281,12970
281,12971
281,12972
282,12972
282,12973
283,12974
284,12975
285,12975
285,12976
286,12976
287,12976
288,12976
289,12975
292,12972
300,12963
312,12952
323,12941
331,12932
334,12929
335,12928
" style="stroke:#02709f;stroke-width:0;
stroke-linejoin:bevel; stroke-linecap:butt;
fill:#02709f;
"/>
<!-- Line -->
<!--  spline  -->
<polyline points="335,12928
336,12927
337,12926
338,12925
338,12924
339,12923
339,12922
339,12921
339,12920
339,12921
339,12920
339,12913
339,12899
339,12886
339,12879
339,12878
339,12877
339,12876
339,12875
338,12875
338,12874
338,12873
337,12873
336,12873
336,12872
335,12872
334,12872
333,12873
332,12874
324,12882
310,12895
296,12908
288,12916
287,12917
286,12918
285,12919
284,12919
284,12920
283,12921
283,12922
282,12922
282,12923
282,12924
282,12925
281,12925
281,12926
281,12927
281,12928
281,12929
281,12936
281,12949
281,12961
281,12968
281,12969
281,12970
281,12971
281,12972
282,12972
282,12973
283,12974
284,12975
285,12975
285,12976
286,12976
287,12976
288,12976
289,12975
292,12972
300,12963
312,12952
323,12941
331,12932
334,12929
335,12928
" style="stroke:#ffffff;stroke-width:7;
stroke-linejoin:bevel; stroke-linecap:butt;
"/>
<!-- Line -->
<!--  spline  -->
<polyline points="57,12832
57,12831
57,12826
57,12818
57,12813
57,12812
57,12811
57,12808
56,12803
55,12797
55,12788
55,12780
54,12777
54,12776
54,12772
55,12765
56,12758
57,12755
57,12753
58,12750
61,12744
65,12738
69,12733
72,12730
75,12728
77,12728
86,12728
104,12728
122,12728
131,12728
133,12728
134,12728
138,12728
144,12728
150,12728
158,12728
163,12728
164,12728
164,12729
165,12729
170,12729
176,12729
178,12729
182,12729
194,12729
208,12729
222,12729
235,12729
246,12729
252,12729
253,12729
254,12729
255,12730
256,12730
256,12731
258,12733
262,12737
264,12739
264,12740
264,12741
265,12743
266,12748
267,12755
268,12765
269,12775
269,12779
269,12782
269,12786
269,12796
269,12805
269,12810
268,12812
268,12815
268,12822
268,12828
268,12831
268,12832
268,12833
267,12833
264,12833
255,12833
240,12833
219,12833
192,12833
162,12832
133,12832
106,12832
85,12832
70,12832
61,12832
58,12832
57,12832
" style="stroke:#02709f;stroke-width:0;
stroke-linejoin:bevel; stroke-linecap:butt;
fill:#02709f;
"/>
<!-- Line -->
<!--  spline  -->
<polyline points="57,12832
57,12831
57,12826
57,12818
57,12813
57,12812
57,12811
57,12808
56,12803
55,12797
55,12788
55,12780
54,12777
54,12776
54,12772
55,12765
56,12758
57,12755
57,12753
58,12750
61,12744
65,12738
69,12733
72,12730
75,12728
77,12728
86,12728
104,12728
122,12728
131,12728
133,12728
134,12728
138,12728
144,12728
150,12728
158,12728
163,12728
164,12728
164,12729
165,12729
170,12729
176,12729
178,12729
182,12729
194,12729
208,12729
222,12729
235,12729
246,12729
252,12729
253,12729
254,12729
255,12730
256,12730
256,12731
258,12733
262,12737
264,12739
264,12740
264,12741
265,12743
266,12748
267,12755
268,12765
269,12775
269,12779
269,12782
269,12786
269,12796
269,12805
269,12810
268,12812
268,12815
268,12822
268,12828
268,12831
268,12832
268,12833
267,12833
264,12833
255,12833
240,12833
219,12833
192,12833
162,12832
133,12832
106,12832
85,12832
70,12832
61,12832
58,12832
57,12832
" style="stroke:#ffffff;stroke-width:7;
stroke-linejoin:bevel; stroke-linecap:butt;
"/>
<!-- Line -->
<!--  polyline  -->
<polyline points="103,12905
119,12915
56,12915
93,12893
103,12905
" style="stroke:#02709f;stroke-width:0;
stroke-linejoin:miter; stroke-linecap:butt;
fill:#02709f;
"/>
<!-- Line -->
<!--  polyline  -->
<polyline points="103,12905
119,12915
56,12915
93,12893
103,12905
" style="stroke:#ffffff;stroke-width:7;
stroke-linejoin:miter; stroke-linecap:butt;
"/>
</g>
</svg>
