<?xml version="1.0" standalone="no"?>
<!DOCTYPE svg PUBLIC "-//W3C//DTD SVG 1.1//EN"
"http://www.w3.org/Graphics/SVG/1.1/DTD/svg11.dtd">
<!-- Creator: fig2dev Version 3.2 Patchlevel 5c -->
<!-- CreationDate: Fri Sep 14 10:46:32 2012 -->
<!-- Magnification: 1.000 -->
<svg xmlns="http://www.w3.org/2000/svg" width="0.6in" height="0.4in" viewBox="-11 12679 740 524">
<g style="stroke-width:.025in; fill:none">
<!-- Line -->
<!--  polyline  -->
<polyline points="156,12718
12,12718
12,13126
147,13125
" style="stroke:#02709f;stroke-width:0;
stroke-linejoin:miter; stroke-linecap:butt;
fill:#02709f;
"/>
<!-- Line -->
<!--  polyline  -->
<polyline points="156,12718
12,12718
12,13126
147,13125
" style="stroke:#ffffff;stroke-width:7;
stroke-linejoin:miter; stroke-linecap:butt;
"/>
<!-- Line -->
<!--  polyline  -->
<polyline points="147,12718
147,13126
158,13118
158,12715
147,12718
" style="stroke:#02709f;stroke-width:0;
stroke-linejoin:miter; stroke-linecap:butt;
fill:#02709f;
"/>
<!-- Line -->
<!--  polyline  -->
<polyline points="147,12718
147,13126
158,13118
158,12715
147,12718
" style="stroke:#ffffff;stroke-width:7;
stroke-linejoin:miter; stroke-linecap:butt;
"/>
<!-- Line -->
<!--  polyline  -->
<polyline points="188,12717
188,13122
250,13068
250,12693
188,12717
" style="stroke:#02709f;stroke-width:0;
stroke-linejoin:miter; stroke-linecap:butt;
fill:#02709f;
"/>
<!-- Line -->
<!--  polyline  -->
<polyline points="188,12717
188,13122
250,13068
250,12693
188,12717
" style="stroke:#ffffff;stroke-width:7;
stroke-linejoin:miter; stroke-linecap:butt;
"/>
<!-- Line -->
<!--  polyline  -->
<polyline points="134,12743
20,12743
" style="stroke:#02709f;stroke-width:0;
stroke-linejoin:miter; stroke-linecap:butt;
fill:#02709f;
"/>
<!-- Line -->
<!--  polyline  -->
<polyline points="134,12743
20,12743
" style="stroke:#ffffff;stroke-width:7;
stroke-linejoin:miter; stroke-linecap:butt;
"/>
<!-- Line -->
<!--  polyline  -->
<polyline points="123,12785
29,12785
" style="stroke:#02709f;stroke-width:0;
stroke-linejoin:miter; stroke-linecap:butt;
fill:#02709f;
"/>
<!-- Line -->
<!--  polyline  -->
<polyline points="123,12785
29,12785
" style="stroke:#ffffff;stroke-width:7;
stroke-linejoin:miter; stroke-linecap:butt;
"/>
<!-- Line -->
<!--  polyline  -->
<polyline points="186,12716
157,12716
157,13121
186,13121
" style="stroke:#02709f;stroke-width:0;
stroke-linejoin:miter; stroke-linecap:butt;
fill:#02709f;
"/>
<!-- Line -->
<!--  polyline  -->
<polyline points="186,12716
157,12716
157,13121
186,13121
" style="stroke:#ffffff;stroke-width:7;
stroke-linejoin:miter; stroke-linecap:butt;
"/>
<!-- Line -->
<!--  polyline  -->
<polyline points="5,12763
148,12763
" style="stroke:#02709f;stroke-width:0;
stroke-linejoin:miter; stroke-linecap:butt;
fill:#02709f;
"/>
<!-- Line -->
<!--  polyline  -->
<polyline points="5,12763
148,12763
" style="stroke:#ffffff;stroke-width:7;
stroke-linejoin:miter; stroke-linecap:butt;
"/>
<!-- Line -->
<!--  polyline  -->
<polyline points="5,12803
148,12803
" style="stroke:#02709f;stroke-width:0;
stroke-linejoin:miter; stroke-linecap:butt;
fill:#02709f;
"/>
<!-- Line -->
<!--  polyline  -->
<polyline points="5,12803
148,12803
" style="stroke:#ffffff;stroke-width:7;
stroke-linejoin:miter; stroke-linecap:butt;
"/>
<!-- Line -->
<!--  spline  -->
<polyline points="173,13077
174,13076
175,13076
176,13076
177,13076
177,13075
177,13074
177,13073
177,13072
178,13072
178,13071
177,13071
177,13070
177,13069
177,13068
176,13068
175,13068
175,13067
174,13067
173,13067
172,13067
171,13067
170,13068
169,13069
168,13069
168,13070
168,13071
168,13072
168,13073
168,13074
169,13074
169,13075
169,13076
170,13076
171,13076
172,13076
172,13077
173,13077
" style="stroke:#02709f;stroke-width:0;
stroke-linejoin:bevel; stroke-linecap:butt;
fill:#02709f;
"/>
<!-- Line -->
<!--  spline  -->
<polyline points="173,13077
174,13076
175,13076
176,13076
177,13076
177,13075
177,13074
177,13073
177,13072
178,13072
178,13071
177,13071
177,13070
177,13069
177,13068
176,13068
175,13068
175,13067
174,13067
173,13067
172,13067
171,13067
170,13068
169,13069
168,13069
168,13070
168,13071
168,13072
168,13073
168,13074
169,13074
169,13075
169,13076
170,13076
171,13076
172,13076
172,13077
173,13077
" style="stroke:#ffffff;stroke-width:7;
stroke-linejoin:bevel; stroke-linecap:butt;
"/>
<!-- Line -->
<!--  spline  -->
<polyline points="173,13110
174,13110
175,13110
175,13109
176,13109
177,13109
177,13108
177,13107
177,13106
178,13106
178,13105
177,13104
177,13103
177,13102
177,13101
176,13101
175,13101
175,13100
174,13100
173,13100
172,13100
171,13100
170,13101
169,13101
169,13102
169,13103
168,13103
168,13104
168,13105
168,13106
168,13107
169,13108
170,13109
170,13110
171,13110
172,13110
173,13110
" style="stroke:#02709f;stroke-width:0;
stroke-linejoin:bevel; stroke-linecap:butt;
fill:#02709f;
"/>
<!-- Line -->
<!--  spline  -->
<polyline points="173,13110
174,13110
175,13110
175,13109
176,13109
177,13109
177,13108
177,13107
177,13106
178,13106
178,13105
177,13104
177,13103
177,13102
177,13101
176,13101
175,13101
175,13100
174,13100
173,13100
172,13100
171,13100
170,13101
169,13101
169,13102
169,13103
168,13103
168,13104
168,13105
168,13106
168,13107
169,13108
170,13109
170,13110
171,13110
172,13110
173,13110
" style="stroke:#ffffff;stroke-width:7;
stroke-linejoin:bevel; stroke-linecap:butt;
"/>
<!-- Line -->
<!--  polyline  -->
<polyline points="191,12716
255,12691
108,12691
1,12719
145,12719
154,12717
191,12716
" style="stroke:#02709f;stroke-width:0;
stroke-linejoin:miter; stroke-linecap:butt;
fill:#02709f;
"/>
<!-- Line -->
<!--  polyline  -->
<polyline points="191,12716
255,12691
108,12691
1,12719
145,12719
154,12717
191,12716
" style="stroke:#ffffff;stroke-width:7;
stroke-linejoin:miter; stroke-linecap:butt;
"/>
<!-- Line -->
<!--  polyline  -->
<polyline points="614,13028
233,13028
" style="stroke:#02709f;stroke-width:0;
stroke-linejoin:miter; stroke-linecap:butt;
fill:#02709f;
"/>
<!-- Line -->
<!--  polyline  -->
<polyline points="614,13028
233,13028
" style="stroke:#ffffff;stroke-width:7;
stroke-linejoin:miter; stroke-linecap:butt;
"/>
<!-- Line -->
<!--  polyline  -->
<polyline points="614,13027
614,12740
233,12740
233,13027
" style="stroke:#02709f;stroke-width:0;
stroke-linejoin:miter; stroke-linecap:butt;
fill:#02709f;
"/>
<!-- Line -->
<!--  polyline  -->
<polyline points="614,13027
614,12740
233,12740
233,13027
" style="stroke:#ffffff;stroke-width:7;
stroke-linejoin:miter; stroke-linecap:butt;
"/>
<!-- Line -->
<!--  polyline  -->
<polyline points="614,13028
658,12949
658,12697
379,12697
233,12740
614,12740
614,13028
" style="stroke:#02709f;stroke-width:0;
stroke-linejoin:miter; stroke-linecap:butt;
fill:#02709f;
"/>
<!-- Line -->
<!--  polyline  -->
<polyline points="614,13028
658,12949
658,12697
379,12697
233,12740
614,12740
614,13028
" style="stroke:#ffffff;stroke-width:7;
stroke-linejoin:miter; stroke-linecap:butt;
"/>
<!-- Line -->
<!--  polyline  -->
<polyline points="581,12993
581,12773
266,12773
266,12993
581,12993
" style="stroke:#02709f;stroke-width:0;
stroke-linejoin:miter; stroke-linecap:butt;
fill:#02709f;
"/>
<!-- Line -->
<!--  polyline  -->
<polyline points="581,12993
581,12773
266,12773
266,12993
581,12993
" style="stroke:#ffffff;stroke-width:7;
stroke-linejoin:miter; stroke-linecap:butt;
"/>
<!-- Line -->
<!--  polyline  -->
<polyline points="614,12740
658,12697
" style="stroke:#02709f;stroke-width:0;
stroke-linejoin:miter; stroke-linecap:butt;
fill:#02709f;
"/>
<!-- Line -->
<!--  polyline  -->
<polyline points="614,12740
658,12697
" style="stroke:#ffffff;stroke-width:7;
stroke-linejoin:miter; stroke-linecap:butt;
"/>
<!-- Line -->
<!--  polyline  -->
<polyline points="589,13191
589,13149
151,13149
224,13099
639,13099
639,13135
589,13191
" style="stroke:#02709f;stroke-width:0;
stroke-linejoin:miter; stroke-linecap:butt;
fill:#02709f;
"/>
<!-- Line -->
<!--  polyline  -->
<polyline points="589,13191
589,13149
151,13149
224,13099
639,13099
639,13135
589,13191
" style="stroke:#ffffff;stroke-width:7;
stroke-linejoin:miter; stroke-linecap:butt;
"/>
<!-- Line -->
<!--  polyline  -->
<polyline points="589,13149
589,13191
151,13191
151,13149
589,13149
" style="stroke:#02709f;stroke-width:0;
stroke-linejoin:miter; stroke-linecap:butt;
fill:#02709f;
"/>
<!-- Line -->
<!--  polyline  -->
<polyline points="589,13149
589,13191
151,13191
151,13149
589,13149
" style="stroke:#ffffff;stroke-width:7;
stroke-linejoin:miter; stroke-linecap:butt;
"/>
<!-- Line -->
<!--  polyline  -->
<polyline points="589,13149
639,13099
" style="stroke:#02709f;stroke-width:0;
stroke-linejoin:miter; stroke-linecap:butt;
fill:#02709f;
"/>
<!-- Line -->
<!--  polyline  -->
<polyline points="589,13149
639,13099
" style="stroke:#ffffff;stroke-width:7;
stroke-linejoin:miter; stroke-linecap:butt;
"/>
<!-- Line -->
<!--  polyline  -->
<polyline points="617,13171
610,13191
683,13191
680,13171
" style="stroke:#02709f;stroke-width:0;
stroke-linejoin:miter; stroke-linecap:butt;
fill:#02709f;
"/>
<!-- Line -->
<!--  polyline  -->
<polyline points="617,13171
610,13191
683,13191
680,13171
" style="stroke:#ffffff;stroke-width:7;
stroke-linejoin:miter; stroke-linecap:butt;
"/>
<!-- Line -->
<!--  polyline  -->
<polyline points="680,13171
678,13144
646,13144
616,13171
680,13171
" style="stroke:#02709f;stroke-width:0;
stroke-linejoin:miter; stroke-linecap:butt;
fill:#02709f;
"/>
<!-- Line -->
<!--  polyline  -->
<polyline points="680,13171
678,13144
646,13144
616,13171
680,13171
" style="stroke:#ffffff;stroke-width:7;
stroke-linejoin:miter; stroke-linecap:butt;
"/>
<!-- Line -->
<!--  polyline  -->
<polyline points="554,13061
569,13098
613,13050
608,13032
" style="stroke:#02709f;stroke-width:0;
stroke-linejoin:miter; stroke-linecap:butt;
fill:#02709f;
"/>
<!-- Line -->
<!--  polyline  -->
<polyline points="554,13061
569,13098
613,13050
608,13032
" style="stroke:#ffffff;stroke-width:7;
stroke-linejoin:miter; stroke-linecap:butt;
"/>
<!-- Line -->
<!--  polyline  -->
<polyline points="554,13061
614,13028
233,13028
317,13061
554,13061
" style="stroke:#02709f;stroke-width:0;
stroke-linejoin:miter; stroke-linecap:butt;
fill:#02709f;
"/>
<!-- Line -->
<!--  polyline  -->
<polyline points="554,13061
614,13028
233,13028
317,13061
554,13061
" style="stroke:#ffffff;stroke-width:7;
stroke-linejoin:miter; stroke-linecap:butt;
"/>
<!-- Line -->
<!--  polyline  -->
<polyline points="570,13099
554,13061
317,13061
295,13099
570,13099
" style="stroke:#02709f;stroke-width:0;
stroke-linejoin:miter; stroke-linecap:butt;
fill:#02709f;
"/>
<!-- Line -->
<!--  polyline  -->
<polyline points="570,13099
554,13061
317,13061
295,13099
570,13099
" style="stroke:#ffffff;stroke-width:7;
stroke-linejoin:miter; stroke-linecap:butt;
"/>
<!-- Line -->
<!--  spline  -->
<polyline points="664,13147
664,13145
664,13143
664,13141
663,13140
662,13139
661,13138
659,13136
657,13134
657,13133
656,13133
655,13132
655,13130
655,13129
655,13128
655,13127
656,13127
656,13126
657,13126
659,13125
664,13123
668,13122
673,13122
675,13121
676,13121
677,13121
682,13119
689,13116
694,13114
695,13114
696,13114
699,13112
704,13109
709,13105
713,13100
714,13098
715,13096
716,13094
716,13093
717,13093
717,13092
717,13091
717,13090
716,13089
715,13087
712,13085
706,13081
702,13079
701,13078
700,13078
693,13076
677,13073
662,13071
647,13069
633,13068
619,13067
607,13067
599,13066
595,13066
594,13066
" style="stroke:#02709f;stroke-width:7;
stroke-linejoin:bevel; stroke-linecap:butt;
"/>
</g>
</svg>
