<?xml version="1.0" standalone="no"?>
<!DOCTYPE svg PUBLIC "-//W3C//DTD SVG 1.1//EN"
"http://www.w3.org/Graphics/SVG/1.1/DTD/svg11.dtd">
<!-- Creator: fig2dev Version 3.2 Patchlevel 5c -->
<!-- CreationDate: Fri Sep 14 10:46:32 2012 -->
<!-- Magnification: 1.000 -->
<svg xmlns="http://www.w3.org/2000/svg" width="0.7in" height="1.0in" viewBox="-1 11984 833 1218">
<g style="stroke-width:.025in; fill:none">
<!-- Line -->
<!--  spline  -->
<polyline points="497,13061
496,13062
493,13069
488,13081
483,13092
480,13099
479,13100
479,13101
479,13102
480,13102
480,13104
481,13105
482,13106
482,13107
483,13108
484,13109
486,13110
487,13110
488,13110
491,13110
495,13110
498,13109
501,13108
503,13108
504,13108
509,13106
517,13102
522,13100
523,13100
524,13099
529,13092
538,13083
543,13076
544,13075
545,13074
547,13074
548,13073
548,13072
548,13070
548,13069
548,13068
548,13067
548,13066
548,13064
548,13063
548,13062
549,13061
549,13060
549,13058
550,13058
550,13057
550,13055
550,13053
550,13052
550,13051
550,13049
551,13045
551,13043
551,13042
551,13040
551,13038
551,13035
551,13032
551,13031
551,13030
551,13027
551,13024
551,13023
551,13022
551,13019
551,13016
552,13014
553,13012
553,13011
553,13010
555,13005
557,12999
559,12994
559,12993
560,12990
562,12986
564,12981
566,12975
568,12969
569,12967
569,12966
570,12964
572,12958
574,12952
575,12950
575,12949
576,12946
578,12940
580,12933
582,12929
584,12925
585,12922
585,12921
586,12917
587,12912
588,12908
588,12907
588,12905
588,12902
588,12898
588,12893
588,12888
588,12886
587,12885
587,12882
587,12877
587,12872
587,12870
587,12869
587,12867
587,12862
588,12857
589,12853
589,12850
590,12848
589,12848
584,12846
573,12842
558,12838
542,12833
531,12829
526,12827
525,12827
525,12828
525,12835
524,12848
523,12861
523,12868
523,12869
523,12870
523,12873
522,12879
522,12887
522,12897
521,12910
521,12922
520,12929
521,12931
521,12933
520,12940
520,12952
520,12964
519,12970
519,12973
519,12975
519,12981
518,12993
517,13006
517,13016
516,13024
516,13030
516,13033
516,13034
515,13036
514,13038
513,13040
512,13041
512,13042
510,13043
509,13045
508,13047
507,13048
506,13049
505,13051
504,13053
503,13053
503,13054
502,13054
501,13056
500,13058
498,13059
498,13060
497,13061
" style="stroke:#02709f;stroke-width:0;
stroke-linejoin:bevel; stroke-linecap:butt;
fill:#02709f;
"/>
<!-- Line -->
<!--  spline  -->
<polyline points="673,13056
673,13058
674,13061
674,13063
675,13064
680,13070
686,13080
691,13086
692,13087
693,13088
698,13092
707,13100
716,13107
721,13111
722,13112
723,13112
728,13111
736,13111
741,13110
742,13110
743,13108
744,13105
745,13103
746,13102
747,13101
748,13100
749,13098
750,13097
750,13096
751,13095
752,13094
753,13094
754,13094
754,13093
752,13091
748,13089
746,13087
745,13086
744,13084
742,13082
739,13080
736,13078
735,13077
733,13076
731,13074
729,13072
728,13070
727,13069
725,13066
723,13063
722,13060
721,13058
720,13057
719,13055
718,13053
717,13051
717,13050
716,13049
716,13047
715,13045
715,13043
714,13042
714,13041
714,13040
714,13038
714,13036
713,13035
713,13034
713,13032
713,13030
713,13028
713,13027
713,13026
713,13025
713,13018
714,13006
715,12995
715,12988
715,12987
715,12986
715,12983
715,12977
716,12969
716,12959
717,12947
718,12935
719,12929
719,12927
719,12925
720,12919
721,12908
722,12897
723,12891
723,12889
723,12887
724,12881
725,12869
726,12857
727,12847
728,12839
729,12833
729,12830
729,12829
728,12829
723,12831
711,12833
695,12838
678,12842
666,12844
661,12846
660,12846
659,12847
658,12847
657,12848
657,12849
656,12850
656,12851
656,12852
656,12853
656,12854
656,12855
656,12856
656,12857
656,12858
656,12859
656,12860
656,12862
655,12866
655,12868
655,12869
655,12870
655,12872
654,12875
654,12878
654,12881
654,12882
654,12883
654,12884
654,12887
654,12890
654,12891
654,12892
654,12893
654,12896
654,12900
655,12902
656,12904
656,12906
657,12908
657,12912
658,12914
658,12915
659,12917
659,12919
660,12922
661,12925
661,12926
662,12926
662,12927
663,12930
664,12933
664,12934
664,12935
665,12938
666,12941
666,12943
667,12945
667,12946
667,12947
668,12953
669,12961
670,12967
670,12968
670,12969
671,12971
671,12976
672,12982
673,12990
674,12997
674,13000
674,13002
674,13005
674,13012
674,13019
674,13022
674,13024
674,13027
674,13034
674,13042
673,13048
673,13053
673,13055
673,13056
" style="stroke:#02709f;stroke-width:0;
stroke-linejoin:bevel; stroke-linecap:butt;
fill:#02709f;
"/>
<!-- Line -->
<!--  spline  -->
<polyline points="185,12028
185,12029
186,12029
186,12030
186,12031
187,12031
187,12032
187,12033
188,12033
188,12034
188,12035
188,12036
188,12037
188,12038
189,12038
189,12041
189,12044
189,12047
189,12048
189,12050
188,12052
188,12055
187,12058
187,12059
187,12060
186,12063
185,12065
185,12066
184,12067
184,12068
183,12070
182,12073
181,12075
180,12077
180,12078
180,12079
180,12080
180,12081
179,12082
179,12083
179,12084
179,12085
179,12086
179,12087
178,12087
178,12088
177,12088
176,12088
176,12087
175,12086
174,12086
173,12085
172,12085
172,12084
171,12084
170,12083
169,12082
169,12081
168,12080
167,12079
166,12079
165,12078
164,12077
163,12076
162,12076
160,12076
159,12076
158,12076
157,12077
156,12077
155,12078
154,12078
153,12078
152,12079
151,12080
150,12080
149,12080
148,12081
147,12082
146,12082
145,12083
147,12086
149,12089
151,12092
152,12093
154,12095
156,12098
158,12101
160,12104
160,12106
161,12108
162,12111
163,12114
163,12116
164,12118
164,12121
164,12125
164,12128
163,12130
163,12132
163,12131
161,12128
157,12124
155,12121
155,12120
154,12118
152,12115
150,12112
147,12107
144,12103
143,12101
142,12099
139,12095
136,12091
135,12089
135,12088
133,12086
131,12082
129,12077
127,12074
126,12071
125,12069
124,12067
123,12064
122,12062
122,12061
122,12059
122,12056
122,12053
122,12050
122,12049
122,12048
122,12045
123,12042
123,12041
124,12040
125,12037
126,12034
127,12032
128,12031
129,12030
131,12027
134,12024
136,12021
137,12020
139,12018
141,12016
144,12013
147,12011
149,12009
151,12008
154,12006
157,12004
159,12003
161,12003
164,12001
168,11999
171,11998
173,11998
175,11997
176,11997
180,11996
185,11994
189,11993
190,11993
192,11993
195,11992
199,11991
205,11990
210,11989
213,11988
216,11988
221,11987
226,11986
228,11986
229,11986
231,11986
236,11986
241,11986
246,11985
249,11985
251,11985
250,11985
247,11987
242,11990
239,11992
238,11992
236,11993
233,11994
229,11996
224,11999
219,12002
217,12003
215,12004
210,12007
206,12010
204,12011
203,12011
201,12012
197,12015
192,12018
188,12021
185,12023
183,12024
183,12025
184,12026
184,12027
184,12028
185,12028
" style="stroke:#02709f;stroke-width:0;
stroke-linejoin:bevel; stroke-linecap:butt;
fill:#02709f;
"/>
<!-- Line -->
<!--  spline  -->
<polyline points="273,12030
272,12032
271,12035
270,12037
269,12038
268,12040
267,12042
266,12044
265,12046
265,12047
264,12047
264,12048
263,12050
262,12052
261,12053
261,12054
260,12055
259,12057
258,12059
256,12061
256,12062
255,12063
255,12062
254,12062
254,12061
254,12060
253,12060
252,12060
251,12060
250,12060
249,12060
248,12060
247,12060
246,12060
245,12060
244,12060
244,12059
243,12058
243,12057
242,12057
242,12056
242,12055
242,12054
242,12053
243,12053
243,12052
243,12051
244,12051
245,12050
246,12050
247,12050
248,12050
249,12050
250,12050
251,12050
251,12051
252,12051
252,12050
253,12048
254,12043
255,12041
255,12040
255,12038
255,12036
254,12034
253,12030
251,12027
251,12026
250,12025
249,12024
247,12021
245,12018
244,12016
243,12014
241,12011
239,12008
237,12005
236,12003
235,12002
236,12002
238,12002
242,12003
244,12003
245,12003
246,12003
248,12004
251,12005
254,12006
257,12007
258,12007
259,12007
260,12008
263,12009
266,12010
267,12011
268,12011
269,12012
272,12013
275,12014
278,12015
280,12015
281,12015
281,12016
280,12017
280,12018
279,12019
279,12020
278,12021
277,12022
277,12023
276,12024
276,12025
275,12025
276,12026
275,12026
275,12027
274,12028
274,12029
273,12030
" style="stroke:#02709f;stroke-width:0;
stroke-linejoin:bevel; stroke-linecap:butt;
fill:#02709f;
"/>
<!-- Line -->
<!--  spline  -->
<polyline points="210,12062
209,12062
208,12062
207,12062
206,12062
205,12062
204,12062
203,12062
202,12062
202,12061
202,12059
202,12056
202,12054
203,12053
204,12053
205,12052
207,12051
209,12050
210,12050
211,12050
214,12050
217,12050
218,12050
219,12050
220,12050
223,12050
226,12050
228,12049
229,12048
230,12048
229,12050
229,12052
228,12054
228,12055
227,12056
226,12057
225,12058
224,12059
223,12060
222,12060
221,12061
219,12062
218,12062
216,12062
214,12062
212,12062
211,12062
210,12062
" style="stroke:#000000;stroke-width:0;
stroke-linejoin:bevel; stroke-linecap:butt;
fill:#000000;
"/>
<!-- Line -->
<!--  spline  -->
<polyline points="238,12088
237,12088
236,12088
235,12088
234,12088
233,12088
232,12088
231,12088
230,12088
229,12088
228,12088
227,12088
226,12088
227,12087
228,12087
229,12086
230,12085
231,12085
232,12084
233,12083
234,12083
235,12082
236,12081
237,12081
238,12080
239,12079
240,12079
241,12078
241,12079
241,12080
241,12081
241,12082
241,12083
242,12083
242,12084
242,12085
242,12086
242,12087
243,12087
243,12088
242,12088
241,12088
240,12088
239,12088
238,12088
" style="stroke:#000000;stroke-width:0;
stroke-linejoin:bevel; stroke-linecap:butt;
fill:#000000;
"/>
<!-- Line -->
<!--  spline  -->
<polyline points="235,12108
233,12108
232,12108
230,12108
229,12108
228,12108
227,12108
225,12108
224,12108
223,12108
222,12108
221,12108
219,12108
218,12108
216,12108
214,12108
213,12108
212,12108
211,12108
212,12108
212,12107
213,12107
214,12107
214,12106
215,12106
216,12106
216,12105
217,12105
218,12105
219,12105
220,12105
221,12105
221,12104
222,12104
223,12104
225,12103
226,12103
227,12103
228,12103
229,12102
231,12102
233,12102
234,12102
236,12102
238,12102
238,12103
239,12103
241,12104
243,12105
244,12106
244,12107
245,12108
244,12108
243,12108
242,12108
241,12108
240,12108
239,12108
238,12108
237,12108
236,12108
235,12108
" style="stroke:#000000;stroke-width:0;
stroke-linejoin:bevel; stroke-linecap:butt;
fill:#000000;
"/>
<!-- Line -->
<!--  spline  -->
<polyline points="233,12115
234,12116
235,12117
234,12117
234,12118
233,12118
232,12118
232,12119
231,12120
230,12120
229,12120
228,12120
228,12119
227,12119
226,12119
226,12118
226,12117
225,12117
225,12116
224,12116
224,12115
223,12115
224,12115
225,12115
226,12115
227,12115
228,12115
229,12115
230,12115
231,12115
232,12115
233,12115
" style="stroke:#000000;stroke-width:0;
stroke-linejoin:bevel; stroke-linecap:butt;
fill:#000000;
"/>
<!-- Line -->
<!--  spline  -->
<polyline points="296,13140
297,13140
300,13143
306,13146
309,13149
310,13149
312,13150
315,13152
318,13155
323,13158
327,13161
329,13162
330,13163
332,13164
336,13167
340,13170
342,13171
343,13172
345,13173
349,13176
353,13179
357,13182
359,13184
361,13185
361,13186
360,13186
360,13187
360,13188
359,13188
359,13189
359,13190
359,13191
359,13192
359,13193
358,13193
357,13193
357,13194
356,13194
355,13194
353,13194
349,13194
347,13194
346,13194
344,13194
342,13194
339,13194
335,13194
332,13194
330,13194
328,13194
325,13194
321,13194
320,13194
319,13194
318,13193
314,13193
310,13193
307,13192
305,13192
303,13192
300,13191
297,13191
294,13190
293,13189
291,13189
288,13187
285,13186
282,13185
281,13184
280,13184
279,13183
276,13182
273,13181
272,13180
271,13180
270,13179
267,13178
264,13177
261,13175
259,13175
258,13174
257,13175
257,13176
256,13176
256,13177
256,13178
255,13178
255,13179
255,13180
254,13180
254,13181
254,13182
253,13182
251,13182
247,13183
245,13183
244,13183
242,13183
240,13182
237,13182
234,13181
233,13181
232,13181
229,13180
227,13179
226,13179
225,13179
224,13178
222,13177
220,13176
218,13175
217,13174
216,13173
215,13172
214,13170
213,13169
213,13168
213,13167
213,13165
213,13163
213,13161
213,13160
213,13159
213,13157
213,13155
213,13154
213,13153
213,13152
213,13150
213,13147
212,13146
211,13144
211,13143
212,13143
219,13143
233,13142
254,13142
274,13141
288,13140
295,13140
296,13140
" style="stroke:#02709f;stroke-width:0;
stroke-linejoin:bevel; stroke-linecap:butt;
fill:#02709f;
"/>
<!-- Line -->
<!--  spline  -->
<polyline points="211,13143
210,13143
209,13143
209,13142
209,13135
208,13119
208,13098
207,13077
206,13061
206,13054
206,13053
206,13052
206,13049
206,13041
206,13031
205,13018
205,13003
205,12985
205,12963
205,12942
205,12928
205,12921
205,12918
205,12915
205,12908
205,12894
205,12873
205,12852
205,12838
205,12831
205,12828
205,12825
205,12818
204,12804
204,12783
203,12761
203,12743
202,12728
202,12716
202,12705
201,12697
201,12694
201,12693
201,12694
200,12701
197,12716
194,12737
191,12758
188,12773
187,12780
187,12781
187,12782
186,12785
185,12792
184,12803
182,12815
180,12830
177,12847
174,12868
171,12888
169,12902
168,12908
167,12911
167,12914
165,12921
163,12935
160,12955
157,12975
155,12989
154,12996
153,12999
153,13002
152,13009
149,13022
146,13043
142,13064
139,13082
137,13097
134,13110
132,13121
131,13129
130,13132
130,13133
129,13134
128,13134
127,13135
126,13135
125,13135
124,13136
123,13136
122,13136
122,13137
121,13137
120,13138
119,13139
118,13139
112,13139
100,13138
83,13138
65,13138
53,13137
47,13137
46,13137
46,13136
47,13135
47,13134
47,13133
47,13132
47,13130
47,13128
47,13127
46,13127
46,13125
46,13123
45,13123
45,13122
45,13120
45,13118
45,13117
45,13116
45,13115
45,13114
46,13106
48,13091
49,13076
50,13068
50,13067
50,13066
51,13062
52,13055
53,13046
54,13035
56,13020
57,13006
58,12999
58,12996
58,12994
59,12987
60,12973
61,12959
62,12952
63,12950
63,12947
64,12940
65,12926
66,12911
67,12900
67,12890
68,12883
68,12879
68,12878
68,12877
68,12869
69,12854
70,12839
70,12831
70,12830
70,12829
70,12825
71,12818
71,12809
71,12797
72,12782
73,12768
73,12760
73,12757
73,12755
73,12747
74,12733
75,12719
75,12711
75,12709
75,12706
75,12699
76,12685
77,12670
77,12658
78,12649
78,12642
78,12638
78,12637
78,12634
79,12631
79,12628
79,12627
79,12625
80,12622
80,12619
81,12616
81,12615
81,12614
82,12611
82,12608
83,12607
83,12606
83,12605
83,12602
83,12599
84,12596
84,12594
84,12593
84,12592
83,12592
83,12591
82,12590
81,12590
80,12589
79,12588
78,12588
77,12587
76,12587
75,12586
74,12586
73,12586
72,12586
71,12585
70,12585
71,12583
72,12579
73,12577
73,12576
74,12574
74,12571
75,12568
76,12565
76,12564
76,12563
77,12560
78,12557
78,12556
78,12555
79,12552
80,12549
80,12546
81,12544
81,12543
80,12542
77,12538
71,12533
68,12529
67,12528
65,12526
62,12523
57,12519
52,12513
47,12508
45,12506
44,12505
42,12502
37,12497
32,12492
30,12489
29,12489
28,12486
23,12481
18,12475
15,12470
12,12467
10,12464
9,12462
7,12460
6,12458
5,12457
5,12455
4,12453
3,12450
2,12448
2,12447
2,12446
2,12445
1,12443
1,12441
0,12440
0,12439
0,12438
0,12436
0,12433
0,12431
0,12429
0,12428
0,12427
1,12420
2,12407
3,12395
4,12388
4,12387
4,12386
4,12383
5,12376
6,12368
7,12358
9,12345
10,12333
11,12327
12,12324
12,12322
13,12316
14,12304
15,12292
16,12285
16,12283
16,12281
17,12274
18,12262
19,12249
19,12239
20,12230
20,12224
20,12221
20,12220
21,12219
26,12217
35,12212
40,12210
41,12209
42,12209
44,12208
49,12205
55,12203
63,12200
71,12197
74,12196
75,12196
78,12195
86,12193
94,12191
97,12190
98,12190
101,12189
109,12186
117,12183
123,12181
128,12178
130,12177
131,12177
133,12176
137,12174
139,12173
140,12172
142,12171
144,12170
147,12168
149,12166
150,12165
151,12164
153,12162
155,12160
156,12159
156,12158
157,12157
159,12155
161,12152
162,12150
163,12148
163,12147
164,12147
166,12149
171,12153
173,12155
174,12155
175,12156
178,12158
180,12161
184,12164
188,12167
189,12168
190,12168
191,12169
195,12172
198,12175
200,12176
200,12177
201,12178
205,12181
209,12184
212,12185
215,12186
217,12187
218,12187
219,12187
219,12186
219,12185
220,12185
220,12184
220,12183
221,12183
221,12182
221,12181
221,12180
222,12180
222,12181
223,12181
223,12182
223,12181
224,12180
224,12179
224,12178
225,12177
225,12176
225,12175
226,12174
226,12173
226,12172
227,12171
228,12170
229,12169
230,12168
229,12168
228,12167
228,12166
228,12165
229,12164
230,12163
230,12162
231,12162
231,12161
231,12160
232,12160
232,12159
232,12158
233,12158
233,12157
234,12156
235,12155
236,12156
236,12157
237,12158
238,12159
238,12160
239,12161
240,12162
241,12163
242,12164
243,12165
244,12165
245,12166
246,12166
247,12167
248,12167
249,12167
250,12167
254,12169
261,12173
265,12175
266,12175
269,12176
272,12178
277,12179
283,12182
289,12184
291,12185
293,12186
295,12187
301,12189
307,12191
309,12192
310,12193
312,12194
318,12196
324,12199
329,12200
333,12202
336,12203
338,12204
340,12204
342,12205
343,12206
345,12206
347,12208
349,12209
351,12210
352,12211
352,12212
354,12213
356,12215
357,12216
359,12218
361,12220
362,12221
362,12222
363,12223
363,12224
364,12226
364,12227
364,12228
364,12229
364,12230
364,12232
364,12234
364,12235
363,12236
363,12238
362,12240
362,12241
362,12242
361,12244
361,12246
360,12248
360,12249
360,12250
359,12252
359,12255
358,12257
358,12258
358,12260
357,12262
357,12264
357,12266
357,12267
356,12267
356,12268
356,12270
356,12272
356,12273
355,12274
355,12275
355,12277
355,12279
354,12281
354,12282
354,12283
354,12285
355,12292
355,12304
356,12311
356,12313
356,12314
356,12317
357,12324
358,12331
359,12342
360,12352
361,12356
362,12357
362,12361
364,12371
365,12381
366,12385
366,12387
367,12391
368,12401
369,12412
370,12420
371,12426
371,12429
371,12430
370,12431
367,12435
363,12441
360,12445
359,12446
357,12449
355,12452
352,12457
348,12463
344,12469
343,12471
342,12473
341,12475
337,12481
333,12487
332,12489
331,12490
330,12492
326,12498
322,12504
319,12509
317,12512
315,12515
315,12516
316,12519
317,12525
318,12528
318,12529
319,12531
319,12534
321,12538
322,12543
323,12548
324,12550
325,12552
326,12557
327,12562
328,12564
328,12566
329,12571
329,12576
329,12580
329,12583
329,12585
328,12586
327,12587
326,12587
325,12588
324,12588
323,12589
323,12588
322,12589
321,12589
320,12590
319,12590
318,12591
317,12592
316,12593
316,12594
316,12598
317,12605
317,12609
317,12610
317,12612
317,12616
318,12620
318,12626
318,12631
318,12634
319,12634
319,12637
319,12642
319,12648
320,12650
320,12651
320,12653
320,12659
320,12665
320,12669
320,12673
320,12675
320,12676
320,12684
319,12699
318,12722
316,12744
315,12759
315,12767
315,12768
315,12769
315,12772
315,12780
314,12791
314,12805
313,12820
313,12839
312,12861
311,12883
311,12897
310,12904
310,12908
310,12911
310,12918
309,12932
308,12954
307,12976
306,12990
306,12997
306,13001
306,13004
305,13011
304,13025
303,13047
302,13069
300,13088
299,13103
298,13117
297,13128
296,13136
296,13139
296,13140
295,13140
288,13140
274,13141
254,13142
233,13142
219,13143
212,13143
211,13143
" style="stroke:#02709f;stroke-width:0;
stroke-linejoin:bevel; stroke-linecap:butt;
fill:#02709f;
"/>
<!-- Line -->
<!--  spline  -->
<polyline points="119,13139
119,13141
119,13143
119,13145
119,13146
119,13147
120,13149
120,13151
120,13153
120,13154
120,13155
120,13157
120,13159
120,13160
120,13162
120,13164
119,13165
118,13166
118,13167
116,13169
115,13171
113,13173
112,13174
111,13175
109,13176
107,13177
105,13178
104,13178
104,13179
103,13179
101,13180
99,13181
98,13182
97,13182
96,13183
94,13184
91,13185
90,13186
88,13187
87,13187
86,13188
85,13189
85,13190
84,13191
84,13192
84,13193
83,13194
83,13195
83,13196
83,13197
82,13197
82,13198
81,13199
80,13199
79,13199
76,13199
70,13200
67,13200
66,13200
64,13200
61,13201
58,13201
53,13201
49,13201
47,13201
46,13200
44,13200
40,13200
35,13200
33,13200
31,13200
26,13200
21,13200
18,13200
15,13200
13,13200
13,13198
13,13196
13,13194
13,13193
13,13191
13,13189
13,13187
13,13185
13,13184
13,13183
13,13181
13,13179
13,13178
14,13177
14,13175
15,13173
15,13171
16,13170
16,13169
18,13167
20,13164
22,13162
23,13161
24,13160
26,13158
28,13156
30,13154
31,13153
32,13153
33,13152
35,13150
37,13148
38,13147
39,13146
41,13144
43,13142
44,13140
45,13138
46,13137
47,13137
53,13137
65,13138
83,13138
100,13138
112,13139
118,13139
119,13139
" style="stroke:#02709f;stroke-width:0;
stroke-linejoin:bevel; stroke-linecap:butt;
fill:#02709f;
"/>
<!-- Line -->
<!--  spline  -->
<polyline points="96,12410
96,12409
96,12406
96,12402
96,12399
96,12398
96,12396
96,12394
95,12391
95,12387
94,12383
94,12381
94,12379
93,12375
93,12371
92,12369
93,12369
92,12367
92,12363
91,12359
91,12356
90,12354
90,12352
90,12353
89,12355
87,12360
86,12362
86,12363
85,12365
84,12367
83,12371
82,12375
81,12379
81,12381
81,12383
80,12387
80,12391
79,12392
79,12393
79,12394
79,12398
79,12402
79,12406
79,12408
79,12410
79,12412
80,12413
80,12415
80,12416
81,12417
82,12418
83,12420
84,12422
85,12422
85,12423
86,12423
87,12425
88,12427
89,12427
89,12428
90,12428
91,12430
92,12432
94,12433
94,12434
95,12435
95,12433
96,12432
96,12430
96,12429
96,12428
97,12427
97,12425
97,12423
97,12422
97,12420
97,12418
96,12417
96,12415
96,12413
96,12412
96,12411
96,12410
" style="stroke:#02709f;stroke-width:0;
stroke-linejoin:bevel; stroke-linecap:butt;
fill:#02709f;
"/>
<!-- Line -->
<!--  spline  -->
<polyline points="538,12207
537,12206
536,12205
535,12204
534,12204
534,12203
532,12203
531,12202
530,12201
529,12201
529,12200
528,12200
527,12199
526,12198
525,12198
525,12197
524,12196
523,12195
523,12194
523,12193
523,12192
524,12192
526,12192
527,12192
528,12192
529,12192
530,12192
531,12192
532,12191
533,12191
534,12191
535,12191
536,12190
537,12190
538,12189
539,12189
540,12188
538,12187
536,12187
534,12186
533,12185
532,12185
531,12184
530,12182
529,12180
528,12180
528,12179
527,12177
526,12175
526,12174
525,12172
525,12170
524,12169
524,12168
524,12167
524,12166
524,12165
525,12165
525,12164
525,12163
526,12163
526,12162
526,12161
527,12161
528,12161
529,12161
529,12162
530,12162
531,12163
532,12164
532,12165
533,12165
533,12166
533,12167
534,12168
535,12169
536,12169
536,12170
537,12170
538,12170
539,12170
539,12169
539,12168
540,12168
540,12167
540,12166
540,12165
540,12164
540,12163
540,12162
540,12161
539,12160
539,12159
539,12158
539,12157
539,12156
539,12155
538,12154
538,12153
539,12153
541,12154
542,12154
543,12154
545,12155
546,12155
547,12155
548,12155
549,12155
550,12155
551,12155
552,12155
552,12154
553,12154
554,12153
554,12152
553,12150
553,12149
552,12147
552,12146
551,12145
551,12144
550,12142
549,12140
549,12139
548,12137
548,12135
547,12135
547,12134
547,12132
547,12130
548,12129
549,12129
549,12128
550,12128
551,12128
552,12128
553,12129
554,12129
555,12130
556,12131
557,12131
557,12132
558,12132
559,12132
560,12132
560,12131
560,12130
560,12129
559,12127
559,12126
559,12125
558,12125
558,12123
557,12122
556,12121
556,12120
556,12119
555,12118
554,12117
554,12116
553,12115
553,12114
553,12113
553,12111
553,12110
553,12109
554,12109
554,12108
554,12107
555,12107
556,12106
557,12105
558,12105
559,12104
560,12103
561,12103
562,12102
563,12101
564,12100
564,12098
565,12097
565,12095
565,12094
565,12093
564,12092
564,12090
564,12088
563,12087
563,12085
563,12083
562,12083
562,12082
562,12080
562,12078
562,12077
563,12076
563,12075
563,12074
564,12071
566,12067
567,12064
567,12063
568,12061
569,12059
571,12055
573,12051
575,12047
576,12046
576,12045
577,12044
579,12040
581,12036
582,12034
583,12032
585,12028
587,12024
589,12021
590,12019
591,12017
592,12017
595,12016
601,12015
604,12014
605,12014
607,12013
610,12012
613,12011
618,12009
622,12007
624,12006
625,12006
626,12005
631,12004
636,12004
638,12003
639,12003
641,12004
647,12005
654,12007
660,12009
664,12011
667,12013
668,12013
667,12013
666,12013
665,12013
665,12014
665,12015
665,12016
665,12017
666,12017
667,12017
667,12018
668,12018
669,12018
671,12018
672,12018
673,12018
675,12018
676,12018
677,12018
678,12018
679,12019
680,12019
681,12020
682,12020
683,12021
684,12022
685,12023
686,12023
686,12024
686,12025
686,12026
686,12027
686,12028
685,12029
685,12030
685,12031
684,12031
684,12032
683,12033
683,12034
682,12034
682,12035
682,12036
682,12037
682,12038
683,12039
684,12040
685,12041
686,12041
688,12042
689,12042
690,12042
691,12042
692,12043
693,12043
694,12044
695,12044
696,12045
697,12046
698,12047
698,12049
698,12051
698,12053
698,12054
697,12056
697,12058
696,12060
695,12062
695,12063
694,12063
694,12064
693,12066
692,12068
692,12069
692,12070
691,12072
691,12074
690,12076
690,12077
690,12078
691,12079
691,12080
692,12081
692,12082
693,12082
694,12083
695,12084
696,12085
697,12085
698,12085
700,12086
701,12087
702,12087
702,12088
703,12088
704,12089
705,12090
706,12091
707,12092
708,12094
708,12095
709,12097
709,12098
709,12099
709,12100
709,12102
709,12104
709,12105
709,12106
709,12108
709,12110
709,12111
710,12113
711,12115
712,12116
712,12117
713,12118
714,12117
715,12116
716,12116
716,12115
717,12115
718,12114
719,12113
720,12112
721,12111
722,12111
722,12110
723,12110
723,12111
724,12113
724,12114
724,12115
724,12116
725,12117
725,12118
725,12119
725,12120
726,12120
726,12121
727,12122
727,12123
727,12124
728,12125
729,12126
729,12127
730,12128
731,12127
731,12126
732,12125
733,12124
734,12123
735,12122
736,12121
736,12120
737,12120
737,12119
738,12118
739,12117
739,12116
740,12116
741,12115
742,12114
742,12113
743,12112
744,12113
745,12114
745,12115
746,12115
746,12116
746,12117
746,12118
745,12118
745,12119
745,12120
745,12121
745,12122
744,12122
743,12124
741,12125
740,12127
739,12128
738,12128
737,12130
735,12131
734,12132
733,12133
732,12134
731,12135
729,12136
729,12137
728,12138
726,12139
724,12140
722,12141
721,12141
720,12141
719,12141
719,12142
718,12142
718,12143
717,12143
716,12143
714,12141
709,12139
707,12137
706,12137
706,12138
706,12139
707,12140
708,12141
709,12141
709,12142
709,12141
709,12142
710,12142
710,12143
711,12143
711,12144
711,12145
710,12145
710,12147
711,12150
711,12152
712,12153
714,12153
715,12154
716,12154
716,12155
718,12155
719,12155
720,12155
721,12155
722,12154
723,12154
724,12154
725,12154
725,12153
726,12153
727,12153
728,12153
730,12152
731,12152
731,12154
732,12156
732,12158
732,12159
731,12160
730,12161
729,12162
728,12163
727,12163
726,12164
724,12165
723,12166
722,12167
721,12168
720,12169
719,12171
718,12172
718,12173
718,12174
718,12175
718,12176
719,12176
719,12177
720,12177
721,12177
722,12177
723,12177
724,12177
725,12177
726,12176
727,12176
728,12176
729,12175
730,12175
729,12177
729,12178
728,12180
727,12181
727,12182
726,12183
725,12184
725,12185
724,12186
723,12187
722,12188
721,12189
720,12189
719,12190
718,12191
717,12192
716,12193
" style="stroke:#02709f;stroke-width:0;
stroke-linejoin:bevel; stroke-linecap:butt;
fill:#02709f;
"/>
<!-- Line -->
<!--  spline  -->
<polyline points="754,13092
756,13094
758,13096
760,13098
761,13099
762,13101
764,13103
766,13106
768,13109
768,13110
769,13110
769,13111
771,13114
773,13116
773,13117
774,13118
774,13119
776,13121
778,13124
780,13126
781,13128
782,13129
782,13130
782,13131
781,13132
780,13133
779,13133
778,13134
777,13135
777,13136
776,13136
775,13136
774,13136
773,13136
772,13136
770,13136
765,13136
763,13136
762,13136
760,13136
758,13136
755,13136
751,13136
748,13136
746,13136
744,13136
741,13136
738,13136
736,13136
734,13136
731,13135
727,13134
724,13133
722,13133
720,13132
718,13131
715,13129
713,13128
712,13127
711,13125
709,13123
707,13120
705,13117
705,13116
705,13115
704,13114
702,13111
700,13108
699,13107
698,13106
695,13103
692,13100
689,13098
687,13097
685,13096
684,13097
683,13099
682,13100
682,13101
682,13102
681,13103
681,13105
681,13107
681,13108
681,13110
681,13111
681,13112
680,13113
680,13114
680,13116
679,13117
679,13118
679,13119
678,13119
677,13119
676,13119
675,13119
675,13118
674,13115
672,13110
671,13107
671,13106
670,13104
669,13101
668,13097
666,13092
665,13087
664,13085
664,13084
663,13082
663,13078
663,13074
663,13072
664,13070
665,13066
667,13062
669,13058
671,13056
673,13054
673,13056
674,13060
674,13062
675,13063
680,13069
686,13078
691,13084
692,13085
693,13086
698,13090
707,13098
716,13105
721,13109
722,13110
723,13110
728,13109
736,13109
741,13108
742,13108
743,13106
744,13103
745,13101
746,13100
747,13099
748,13098
749,13097
750,13096
750,13095
751,13094
752,13093
752,13092
753,13092
754,13092
" style="stroke:#000000;stroke-width:0;
stroke-linejoin:bevel; stroke-linecap:butt;
fill:#000000;
"/>
<!-- Line -->
<!--  spline  -->
<polyline points="590,12857
591,12856
592,12854
593,12853
594,12852
595,12852
596,12851
598,12850
600,12849
601,12849
602,12849
603,12848
605,12848
607,12848
608,12848
609,12848
610,12848
612,12848
614,12848
616,12848
617,12848
618,12848
619,12848
619,12849
620,12849
621,12849
621,12850
622,12851
623,12852
624,12853
624,12854
625,12855
626,12856
627,12857
628,12858
629,12858
629,12859
630,12859
632,12859
633,12858
635,12858
636,12858
636,12857
637,12856
639,12855
641,12854
642,12853
644,12852
645,12851
646,12850
647,12850
648,12849
650,12848
651,12848
652,12848
653,12848
654,12848
655,12848
656,12848
656,12849
656,12850
657,12850
657,12851
658,12852
659,12853
659,12854
660,12854
660,12855
661,12855
668,12853
679,12849
686,12847
687,12847
688,12848
694,12851
704,12855
710,12858
711,12859
712,12858
715,12853
721,12844
724,12839
725,12838
726,12838
728,12838
729,12838
729,12837
730,12837
731,12837
732,12837
732,12836
732,12835
733,12835
734,12835
734,12834
735,12826
737,12811
738,12796
739,12788
739,12787
739,12786
739,12782
740,12775
741,12766
742,12754
743,12739
744,12725
745,12718
745,12715
745,12712
746,12705
747,12691
748,12677
749,12670
749,12667
749,12664
750,12657
751,12643
753,12628
754,12616
755,12607
756,12600
757,12596
757,12595
757,12593
757,12590
757,12588
757,12587
757,12585
756,12584
756,12581
756,12579
755,12578
755,12577
755,12576
755,12574
755,12572
755,12571
755,12570
755,12569
755,12567
755,12564
755,12563
755,12561
755,12560
756,12560
757,12560
758,12560
759,12560
760,12560
760,12559
761,12559
762,12559
762,12558
763,12558
764,12558
765,12558
765,12557
765,12555
764,12551
764,12549
764,12548
764,12546
763,12544
763,12541
762,12537
761,12533
761,12532
760,12531
760,12530
759,12526
758,12523
758,12521
758,12519
757,12516
757,12512
756,12509
756,12507
756,12505
757,12504
761,12499
766,12493
770,12488
771,12487
773,12484
777,12481
781,12476
786,12470
791,12464
793,12462
793,12461
795,12458
800,12452
805,12446
807,12444
807,12443
809,12440
814,12434
819,12427
822,12421
825,12417
827,12415
827,12414
828,12413
828,12411
829,12410
829,12409
829,12408
830,12407
830,12405
830,12403
831,12403
831,12402
831,12400
831,12398
831,12397
830,12397
830,12395
830,12393
829,12392
829,12391
829,12390
829,12389
827,12385
826,12380
824,12376
824,12375
823,12373
822,12370
821,12365
819,12360
817,12355
817,12353
816,12352
816,12350
814,12345
812,12340
812,12338
811,12337
811,12335
809,12330
807,12325
805,12320
804,12317
803,12315
803,12314
801,12308
797,12300
795,12294
795,12293
795,12292
794,12289
793,12285
791,12278
788,12270
785,12263
784,12259
784,12258
783,12255
780,12248
778,12241
777,12238
776,12237
775,12233
773,12226
770,12218
768,12211
766,12207
765,12204
765,12203
764,12203
762,12202
758,12202
756,12201
755,12201
754,12201
752,12200
749,12200
746,12199
743,12199
741,12198
741,12199
739,12198
736,12198
733,12197
731,12197
729,12197
726,12196
722,12195
720,12194
718,12194
716,12193
715,12193
709,12192
696,12191
679,12189
661,12186
648,12185
642,12184
641,12184
640,12184
636,12185
626,12187
609,12191
589,12196
570,12200
553,12204
543,12206
539,12207
538,12207
537,12207
534,12208
528,12210
525,12211
524,12211
522,12212
519,12213
516,12214
511,12216
506,12218
504,12219
502,12220
497,12222
493,12224
491,12225
490,12225
488,12226
484,12228
479,12230
476,12232
473,12234
471,12235
471,12236
471,12241
470,12250
470,12255
470,12256
470,12257
470,12259
470,12264
469,12269
469,12277
469,12284
469,12287
469,12288
469,12291
469,12298
469,12305
468,12308
468,12310
468,12313
467,12320
466,12328
465,12334
465,12339
464,12341
464,12342
464,12343
463,12346
463,12350
462,12353
462,12354
462,12356
461,12358
461,12362
460,12366
459,12370
459,12372
459,12374
458,12378
457,12382
457,12384
457,12386
456,12390
455,12394
455,12398
454,12400
454,12402
454,12404
453,12405
453,12407
453,12408
453,12409
452,12410
452,12412
452,12414
451,12415
451,12416
451,12418
451,12420
451,12421
451,12423
451,12425
452,12426
452,12427
452,12428
453,12430
453,12433
454,12435
454,12436
454,12437
455,12439
455,12441
456,12443
456,12444
456,12445
456,12446
457,12448
458,12450
458,12451
458,12452
459,12454
460,12456
461,12457
462,12458
463,12459
464,12460
467,12462
471,12467
474,12469
475,12470
477,12472
480,12474
484,12476
489,12480
494,12483
496,12484
496,12485
498,12486
503,12489
508,12492
510,12493
510,12494
512,12495
517,12498
522,12502
525,12504
528,12506
530,12508
529,12511
529,12514
528,12517
528,12518
527,12520
527,12522
526,12525
525,12528
525,12529
525,12530
525,12531
524,12534
523,12537
523,12538
522,12538
522,12539
521,12542
520,12545
519,12547
518,12549
518,12550
518,12551
518,12552
518,12553
518,12554
519,12554
520,12554
520,12555
521,12555
522,12555
522,12556
523,12556
524,12556
524,12557
523,12559
523,12560
522,12562
522,12563
521,12564
521,12566
520,12568
519,12570
519,12571
518,12573
517,12575
517,12576
516,12578
516,12580
515,12582
515,12583
515,12584
515,12586
514,12594
513,12609
512,12624
511,12632
511,12634
511,12635
511,12639
510,12647
510,12656
509,12668
509,12684
509,12699
509,12706
509,12709
509,12712
509,12719
509,12734
509,12749
510,12757
510,12760
510,12762
510,12770
511,12785
512,12801
512,12813
513,12823
513,12830
513,12834
513,12835
514,12835
515,12835
516,12835
517,12835
518,12835
519,12835
520,12834
521,12834
522,12834
523,12834
523,12835
524,12835
525,12836
525,12837
526,12838
530,12842
536,12847
540,12851
541,12852
542,12852
550,12850
560,12846
568,12844
569,12844
570,12845
575,12849
584,12854
589,12858
590,12859
" style="stroke:#02709f;stroke-width:0;
stroke-linejoin:bevel; stroke-linecap:butt;
fill:#02709f;
"/>
<!-- Line -->
<!--  spline  -->
<polyline points="693,12162
692,12161
691,12160
690,12159
690,12158
689,12158
688,12157
687,12156
686,12155
685,12155
684,12154
683,12153
682,12152
681,12151
680,12150
679,12149
678,12148
677,12149
676,12150
675,12151
674,12151
674,12152
674,12153
674,12154
674,12156
674,12157
674,12158
673,12159
673,12160
673,12162
673,12163
673,12164
674,12165
674,12166
674,12167
674,12168
675,12169
676,12170
677,12170
678,12170
679,12170
679,12169
680,12169
680,12168
680,12167
680,12166
680,12165
680,12164
680,12163
680,12162
680,12161
680,12160
680,12159
680,12158
680,12156
680,12155
680,12156
681,12156
681,12157
681,12158
682,12159
682,12160
682,12161
683,12161
683,12162
684,12163
685,12164
686,12165
687,12166
688,12167
689,12166
690,12165
691,12164
692,12163
693,12162
" style="stroke:#000000;stroke-width:0;
stroke-linejoin:bevel; stroke-linecap:butt;
fill:#000000;
"/>
<!-- Line -->
<!--  spline  -->
<polyline points="675,12231
674,12231
674,12230
673,12230
672,12230
671,12230
671,12229
671,12228
671,12227
671,12226
671,12225
671,12224
672,12224
673,12223
674,12223
675,12223
676,12223
677,12223
678,12223
678,12224
678,12225
678,12226
679,12226
680,12227
680,12225
681,12222
681,12220
681,12219
681,12217
681,12216
681,12213
681,12211
681,12210
681,12209
681,12208
681,12206
681,12204
681,12203
681,12202
680,12201
680,12199
680,12196
679,12195
679,12193
679,12192
678,12191
677,12190
677,12189
676,12189
676,12188
675,12188
674,12188
673,12187
672,12187
671,12187
670,12187
669,12187
669,12186
668,12186
667,12185
666,12185
666,12184
665,12182
664,12180
663,12178
663,12177
662,12175
661,12173
661,12170
661,12167
661,12166
661,12164
661,12162
661,12160
661,12159
661,12158
662,12156
663,12155
664,12154
665,12154
667,12153
671,12152
673,12151
674,12150
675,12148
677,12145
679,12141
681,12137
681,12135
681,12134
682,12133
683,12128
684,12123
685,12121
685,12119
686,12114
687,12109
687,12106
688,12103
688,12101
688,12100
689,12098
689,12097
689,12096
689,12095
688,12094
688,12093
688,12092
688,12091
687,12091
687,12090
686,12089
686,12088
686,12087
685,12086
684,12085
684,12083
683,12083
683,12082
682,12083
682,12084
682,12085
682,12086
681,12086
680,12086
680,12087
679,12087
678,12087
677,12088
676,12088
675,12088
675,12089
674,12089
673,12089
672,12089
671,12089
670,12089
670,12088
669,12088
669,12087
668,12087
668,12086
668,12085
667,12085
667,12084
667,12083
667,12082
667,12081
668,12081
668,12080
668,12079
669,12079
670,12078
671,12077
672,12077
673,12077
674,12076
676,12076
677,12076
678,12075
679,12075
680,12075
681,12075
682,12075
683,12075
684,12075
685,12075
685,12073
686,12071
686,12069
686,12068
686,12067
685,12066
685,12064
684,12063
684,12062
684,12061
683,12060
682,12058
682,12057
681,12057
680,12055
679,12053
678,12052
677,12051
676,12050
676,12051
675,12051
675,12052
675,12053
674,12053
673,12054
672,12054
672,12055
671,12055
670,12055
669,12055
668,12055
667,12055
666,12055
665,12055
665,12054
666,12054
666,12053
666,12052
666,12051
667,12050
667,12049
667,12048
667,12047
667,12046
667,12045
666,12044
665,12044
664,12045
663,12046
661,12047
660,12048
660,12049
659,12049
659,12050
658,12052
657,12054
656,12055
656,12056
655,12057
654,12058
654,12059
653,12059
652,12060
650,12061
649,12061
647,12062
646,12062
646,12061
647,12060
647,12059
647,12058
646,12057
646,12056
646,12055
646,12054
646,12053
646,12052
645,12052
645,12051
644,12050
644,12049
643,12049
643,12048
642,12049
642,12051
641,12052
640,12053
639,12054
638,12055
637,12056
636,12057
635,12058
634,12058
634,12059
633,12059
632,12059
631,12059
630,12059
629,12059
629,12058
628,12058
628,12057
627,12056
627,12055
627,12054
626,12054
626,12053
626,12052
626,12051
625,12051
624,12051
623,12052
622,12053
621,12054
621,12055
620,12056
620,12057
621,12059
621,12060
622,12061
622,12062
622,12063
623,12064
624,12066
624,12067
625,12067
625,12069
625,12070
625,12071
625,12072
624,12073
623,12076
623,12079
622,12082
622,12083
622,12085
621,12088
621,12091
620,12094
620,12095
620,12096
620,12097
619,12100
618,12103
618,12104
617,12105
616,12108
615,12111
614,12114
613,12116
612,12117
611,12118
611,12119
611,12120
611,12121
611,12122
611,12123
611,12122
611,12123
611,12124
612,12124
612,12125
612,12126
613,12126
613,12127
614,12128
615,12129
616,12129
616,12130
617,12130
618,12130
619,12130
620,12130
621,12130
621,12131
621,12132
621,12133
620,12133
620,12134
619,12134
618,12134
618,12135
617,12135
616,12135
615,12135
614,12135
613,12135
613,12136
612,12137
611,12138
611,12139
611,12140
611,12141
611,12142
612,12142
613,12143
614,12144
615,12145
616,12145
617,12146
618,12146
618,12147
619,12147
620,12147
621,12147
622,12147
623,12147
624,12147
625,12147
626,12147
625,12149
625,12150
624,12152
624,12153
623,12153
622,12154
621,12155
620,12156
619,12156
618,12156
616,12156
614,12156
613,12156
613,12155
611,12155
609,12154
608,12154
607,12153
606,12153
606,12155
606,12157
606,12159
606,12160
607,12161
607,12163
608,12165
609,12167
609,12168
610,12169
611,12170
612,12171
613,12172
615,12173
617,12174
618,12175
619,12175
620,12175
619,12176
618,12177
617,12178
616,12178
615,12178
614,12178
613,12178
612,12178
611,12178
610,12178
609,12178
608,12178
607,12178
606,12178
605,12179
604,12179
603,12180
603,12181
602,12182
602,12183
602,12185
602,12186
602,12187
602,12188
603,12188
603,12189
603,12190
603,12191
603,12192
603,12193
603,12194
603,12195
603,12197
603,12198
602,12197
601,12197
601,12196
600,12196
599,12196
599,12197
598,12199
598,12200
597,12202
597,12203
597,12204
597,12205
597,12207
597,12209
597,12210
598,12210
598,12212
599,12214
599,12215
600,12217
600,12219
601,12220
601,12221
601,12222
602,12221
602,12220
603,12220
604,12220
605,12220
606,12220
607,12220
607,12221
608,12221
608,12222
608,12223
608,12224
608,12225
608,12224
608,12225
608,12226
608,12227
607,12227
606,12227
605,12227
604,12227
603,12227
602,12228
602,12229
602,12230
602,12231
603,12231
603,12232
603,12233
603,12232
603,12233
603,12234
603,12235
604,12235
606,12237
610,12238
612,12240
613,12240
615,12241
617,12242
619,12243
623,12244
626,12245
628,12245
630,12245
633,12246
637,12247
638,12247
639,12247
640,12248
644,12248
648,12248
651,12248
653,12247
655,12247
656,12247
657,12246
658,12246
659,12246
660,12245
661,12245
662,12245
663,12245
663,12244
664,12244
665,12243
666,12243
667,12242
668,12241
669,12241
670,12240
669,12240
668,12239
667,12239
666,12239
665,12238
664,12238
663,12238
662,12238
662,12237
661,12237
660,12236
659,12236
659,12235
659,12234
659,12233
660,12233
660,12232
660,12231
661,12231
661,12230
662,12230
663,12230
664,12230
665,12230
666,12230
665,12230
666,12230
667,12230
667,12231
668,12231
669,12232
669,12233
669,12234
669,12235
669,12236
668,12236
668,12237
668,12238
669,12239
669,12240
670,12240
671,12240
672,12239
673,12239
674,12238
675,12238
675,12237
676,12237
677,12236
678,12235
679,12234
680,12233
681,12232
682,12231
683,12230
683,12229
682,12229
681,12229
681,12228
681,12227
680,12227
679,12228
678,12228
678,12229
678,12230
678,12231
677,12232
676,12232
675,12231
" style="stroke:#ffffff;stroke-width:0;
stroke-linejoin:bevel; stroke-linecap:butt;
fill:#ffffff;
"/>
<!-- Line -->
<!--  spline  -->
<polyline points="655,12088
654,12089
653,12089
653,12090
653,12091
652,12091
651,12091
650,12091
648,12090
647,12090
646,12090
644,12090
643,12090
642,12090
641,12090
640,12090
639,12089
638,12088
637,12088
637,12087
636,12086
635,12085
634,12084
633,12083
635,12082
636,12082
638,12081
639,12081
640,12081
642,12080
644,12080
646,12080
646,12079
647,12079
649,12079
651,12079
652,12079
652,12080
654,12080
656,12081
657,12081
658,12082
659,12082
660,12083
660,12084
659,12084
658,12084
658,12085
657,12085
656,12085
656,12086
656,12087
655,12087
655,12088
" style="stroke:#000000;stroke-width:0;
stroke-linejoin:bevel; stroke-linecap:butt;
fill:#000000;
"/>
<!-- Line -->
<!--  spline  -->
<polyline points="677,12111
677,12112
676,12112
676,12113
675,12113
674,12114
673,12114
672,12114
671,12114
670,12114
669,12114
668,12113
667,12113
666,12113
665,12113
664,12113
665,12112
666,12111
666,12110
667,12110
667,12109
668,12108
669,12107
670,12107
671,12107
671,12106
672,12106
673,12106
674,12105
675,12105
676,12105
676,12106
676,12107
676,12108
677,12109
677,12110
677,12111
" style="stroke:#000000;stroke-width:0;
stroke-linejoin:bevel; stroke-linecap:butt;
fill:#000000;
"/>
<!-- Line -->
<!--  spline  -->
<polyline points="671,12128
670,12128
669,12128
668,12128
667,12128
666,12128
665,12129
664,12129
663,12129
662,12129
661,12129
660,12129
659,12129
658,12129
657,12129
656,12128
655,12128
654,12128
656,12127
658,12127
660,12126
661,12126
662,12126
663,12125
665,12125
667,12125
668,12124
669,12124
671,12124
673,12124
674,12124
675,12124
677,12124
679,12124
680,12123
681,12123
682,12123
682,12124
681,12124
681,12125
681,12126
680,12126
680,12127
679,12127
678,12127
677,12127
676,12127
675,12127
674,12127
673,12127
672,12127
672,12128
671,12128
" style="stroke:#000000;stroke-width:0;
stroke-linejoin:bevel; stroke-linecap:butt;
fill:#000000;
"/>
<!-- Line -->
<!--  spline  -->
<polyline points="655,12243
654,12243
653,12244
652,12244
651,12244
651,12243
650,12243
649,12243
649,12242
648,12242
648,12241
647,12241
647,12240
647,12239
647,12238
647,12237
647,12236
647,12235
647,12234
648,12234
649,12234
649,12233
650,12233
651,12233
650,12233
651,12233
652,12233
652,12234
653,12234
654,12234
654,12235
655,12235
655,12236
656,12236
656,12237
656,12238
657,12238
657,12239
657,12240
656,12240
656,12241
656,12242
655,12242
655,12243
" style="stroke:#000000;stroke-width:0;
stroke-linejoin:bevel; stroke-linecap:butt;
fill:#000000;
"/>
<!-- Line -->
<!--  spline  -->
<polyline points="640,12242
639,12242
638,12241
638,12240
637,12240
636,12240
635,12240
635,12239
635,12238
635,12237
635,12236
635,12237
635,12236
635,12235
635,12234
636,12234
637,12234
638,12233
639,12233
640,12233
641,12233
642,12233
642,12234
643,12235
643,12236
643,12237
643,12238
643,12239
642,12239
642,12240
642,12241
641,12241
640,12242
" style="stroke:#000000;stroke-width:0;
stroke-linejoin:bevel; stroke-linecap:butt;
fill:#000000;
"/>
<!-- Line -->
<!--  spline  -->
<polyline points="626,12238
625,12238
624,12238
623,12238
622,12238
622,12237
622,12236
621,12236
621,12235
621,12234
621,12233
621,12232
621,12231
622,12231
623,12230
624,12230
625,12230
626,12230
627,12230
627,12231
628,12231
629,12231
629,12232
629,12233
630,12233
630,12234
630,12235
630,12236
630,12237
629,12237
629,12238
628,12238
627,12238
626,12238
" style="stroke:#02709f;stroke-width:0;
stroke-linejoin:bevel; stroke-linecap:butt;
fill:#02709f;
"/>
<!-- Line -->
<!--  spline  -->
<polyline points="616,12231
615,12232
614,12232
613,12232
612,12232
612,12231
612,12230
612,12229
611,12229
611,12228
611,12227
612,12227
612,12226
613,12226
613,12225
614,12225
615,12225
616,12225
617,12225
618,12225
618,12226
618,12227
618,12228
618,12229
618,12230
617,12230
616,12231
" style="stroke:#000000;stroke-width:0;
stroke-linejoin:bevel; stroke-linecap:butt;
fill:#000000;
"/>
<!-- Line -->
<!--  spline  -->
<polyline points="670,12135
669,12135
668,12135
667,12135
667,12134
666,12134
665,12134
666,12134
665,12134
664,12134
664,12133
663,12133
662,12133
662,12132
661,12132
662,12132
664,12132
665,12132
666,12132
667,12131
668,12131
669,12131
670,12131
671,12131
672,12131
673,12131
674,12131
675,12131
676,12131
677,12130
678,12130
678,12131
677,12131
677,12132
677,12133
676,12133
675,12133
675,12134
674,12134
673,12134
672,12134
671,12134
671,12135
670,12135
" style="stroke:#000000;stroke-width:0;
stroke-linejoin:bevel; stroke-linecap:butt;
fill:#000000;
"/>
<!-- Line -->
<!--  spline  -->
<polyline points="146,12173
146,12174
148,12180
153,12193
159,12211
164,12228
169,12241
171,12247
171,12248
171,12249
174,12254
179,12267
187,12287
198,12311
208,12335
216,12355
221,12368
224,12373
224,12374
224,12373
225,12367
228,12354
232,12334
237,12308
241,12283
245,12263
248,12250
249,12244
249,12243
249,12242
249,12236
248,12224
247,12206
245,12188
244,12176
244,12170
244,12169
243,12168
241,12166
237,12162
235,12160
234,12159
233,12161
229,12169
222,12180
218,12188
217,12190
216,12189
212,12186
203,12180
190,12171
176,12161
167,12155
163,12152
162,12151
162,12153
161,12155
161,12157
160,12158
159,12159
158,12161
156,12163
155,12165
154,12166
153,12167
152,12168
150,12169
150,12170
149,12170
148,12170
147,12171
146,12171
146,12172
146,12173
" style="stroke:#ffffff;stroke-width:0;
stroke-linejoin:bevel; stroke-linecap:butt;
fill:#ffffff;
"/>
<!-- Line -->
<!--  polyline  -->
<polyline points="211,12192
218,12196
222,12191
229,12200
221,12212
233,12328
224,12377
200,12322
211,12211
205,12203
211,12192
" style="stroke:#02709f;stroke-width:0;
stroke-linejoin:miter; stroke-linecap:butt;
fill:#02709f;
"/>
<!-- Line -->
<!--  spline  -->
<polyline points="604,12235
604,12236
606,12243
608,12254
610,12261
610,12262
610,12263
613,12268
620,12280
630,12298
642,12321
654,12344
664,12362
671,12374
674,12379
674,12380
674,12379
675,12374
677,12364
681,12346
685,12325
689,12304
693,12286
695,12276
696,12271
696,12270
696,12269
693,12262
688,12250
684,12239
681,12232
681,12231
680,12232
675,12235
669,12241
664,12244
663,12245
662,12245
660,12246
655,12246
649,12247
642,12247
635,12247
633,12246
631,12246
629,12245
623,12244
618,12242
615,12241
614,12241
613,12240
609,12238
608,12238
607,12237
606,12237
606,12236
605,12236
604,12235
" style="stroke:#ffffff;stroke-width:0;
stroke-linejoin:bevel; stroke-linecap:butt;
fill:#ffffff;
"/>
<!-- Line -->
<!--  spline  -->
<polyline points="544,13073
543,13074
537,13081
529,13090
523,13097
522,13098
521,13098
516,13101
508,13104
503,13107
502,13107
501,13107
499,13108
494,13108
492,13109
491,13109
490,13109
488,13108
486,13108
484,13107
482,13106
481,13106
481,13105
480,13104
479,13103
479,13102
479,13101
479,13100
479,13099
479,13098
480,13097
483,13091
488,13079
493,13067
496,13061
497,13060
495,13062
493,13065
491,13067
490,13068
489,13070
487,13071
485,13074
483,13076
483,13077
482,13078
482,13079
480,13081
478,13084
478,13085
477,13085
477,13086
475,13089
473,13092
472,13094
471,13096
470,13097
469,13099
467,13102
466,13104
465,13105
464,13106
463,13108
461,13111
460,13114
459,13115
459,13116
458,13119
457,13121
456,13122
456,13123
456,13124
455,13126
454,13129
454,13131
454,13133
454,13134
454,13135
455,13135
455,13136
456,13136
456,13137
457,13137
458,13138
458,13139
459,13139
460,13139
461,13139
462,13139
463,13139
464,13139
465,13139
468,13138
471,13138
474,13137
475,13137
477,13136
480,13136
483,13135
486,13134
487,13134
488,13134
489,13134
492,13133
495,13132
496,13132
497,13132
498,13132
501,13131
504,13130
506,13129
508,13129
509,13128
511,13126
514,13125
516,13123
517,13122
518,13121
519,13119
521,13117
523,13115
523,13114
524,13114
524,13113
526,13111
528,13109
528,13108
529,13107
529,13106
531,13104
533,13102
534,13100
535,13099
536,13098
537,13099
537,13100
538,13101
538,13102
538,13103
538,13104
538,13105
538,13106
538,13107
538,13108
538,13109
538,13110
538,13111
538,13112
539,13113
540,13114
541,13112
542,13108
543,13106
543,13105
544,13103
544,13100
545,13097
545,13094
546,13093
546,13092
546,13089
546,13086
546,13085
547,13084
547,13083
547,13080
547,13077
548,13075
548,13073
548,13072
547,13072
545,13073
544,13073
" style="stroke:#000000;stroke-width:0;
stroke-linejoin:bevel; stroke-linecap:butt;
fill:#000000;
"/>
<!-- Line -->
<!--  spline  -->
<polyline points="762,12321
761,12321
759,12318
755,12315
753,12312
752,12312
751,12311
748,12311
746,12310
743,12310
740,12311
739,12311
739,12312
738,12313
736,12314
734,12315
733,12316
732,12317
731,12318
730,12319
729,12319
729,12320
728,12322
727,12326
726,12328
726,12329
726,12331
726,12333
726,12335
726,12337
727,12338
728,12340
729,12341
729,12342
729,12343
730,12344
730,12345
731,12345
732,12344
733,12343
732,12341
731,12337
730,12335
730,12334
730,12332
730,12330
730,12328
730,12326
731,12325
731,12324
732,12323
733,12322
733,12321
734,12320
735,12319
736,12318
738,12320
741,12322
743,12324
744,12324
746,12325
748,12325
750,12325
752,12325
753,12325
754,12324
756,12324
758,12323
759,12323
760,12323
761,12322
762,12322
762,12321
" style="stroke:#ffffff;stroke-width:0;
stroke-linejoin:bevel; stroke-linecap:butt;
fill:#ffffff;
"/>
<!-- Line -->
<!--  spline  -->
<polyline points="756,12290
756,12289
755,12288
755,12287
755,12286
754,12286
754,12285
753,12285
752,12285
751,12285
750,12286
749,12286
748,12287
747,12287
746,12288
745,12289
744,12289
743,12290
743,12289
743,12288
743,12287
743,12286
744,12286
745,12286
745,12285
745,12284
745,12283
744,12282
743,12282
743,12281
742,12281
741,12281
741,12282
740,12282
739,12282
738,12282
737,12283
737,12284
736,12284
736,12285
736,12286
736,12285
736,12286
736,12287
737,12287
737,12288
737,12289
736,12290
735,12289
734,12289
733,12288
732,12288
731,12287
730,12286
729,12286
728,12286
727,12286
726,12286
725,12286
725,12287
724,12288
723,12289
723,12290
722,12291
722,12292
722,12293
722,12294
722,12295
723,12295
724,12296
725,12296
725,12297
726,12297
727,12297
728,12297
729,12297
729,12298
730,12298
731,12299
731,12300
730,12300
729,12300
728,12300
727,12300
726,12300
725,12300
724,12300
723,12301
723,12302
723,12303
723,12304
723,12305
723,12306
723,12307
724,12308
725,12308
726,12308
727,12308
728,12308
729,12308
730,12308
731,12308
731,12307
732,12307
733,12307
733,12306
734,12306
735,12306
735,12305
736,12305
736,12306
736,12307
736,12308
736,12309
736,12310
736,12311
736,12312
736,12313
736,12314
736,12315
737,12315
738,12315
739,12315
740,12315
741,12315
742,12314
743,12313
744,12312
745,12312
745,12311
745,12310
745,12309
745,12308
745,12307
745,12306
745,12305
745,12304
745,12303
745,12304
746,12304
746,12305
747,12305
747,12306
748,12306
749,12306
749,12307
750,12307
751,12307
752,12307
753,12307
753,12308
754,12307
755,12307
755,12306
755,12305
755,12304
756,12304
756,12303
756,12302
757,12302
757,12301
757,12300
757,12299
757,12298
756,12298
755,12298
755,12297
754,12297
753,12297
752,12296
751,12296
750,12296
750,12295
751,12295
752,12295
753,12295
753,12294
754,12294
755,12294
755,12293
756,12293
756,12292
756,12291
756,12290
" style="stroke:#ffffff;stroke-width:0;
stroke-linejoin:bevel; stroke-linecap:butt;
fill:#ffffff;
"/>
</g>
</svg>
