<?xml version="1.0" standalone="no"?>
<!DOCTYPE svg PUBLIC "-//W3C//DTD SVG 1.1//EN"
"http://www.w3.org/Graphics/SVG/1.1/DTD/svg11.dtd">
<!-- Creator: fig2dev Version 3.2 Patchlevel 5c -->
<!-- CreationDate: Fri Sep 14 10:46:33 2012 -->
<!-- Magnification: 1.000 -->
<svg xmlns="http://www.w3.org/2000/svg" width="0.4in" height="0.4in" viewBox="4830 6345 461 536">
<g style="stroke-width:.025in; fill:none">
<!-- Line -->
<!--  polyline  -->
<polyline points="4910,6479
4902,6479
4842,6479
4842,6535
4902,6535
4909,6535
" style="stroke:#ffffff;stroke-width:0;
stroke-linejoin:miter; stroke-linecap:butt;
fill:#ffffff;
"/>
<!-- Line -->
<!--  polyline  -->
<polyline points="4910,6479
4902,6479
4842,6479
4842,6535
4902,6535
4909,6535
" style="stroke:#00afda;stroke-width:7;
stroke-linejoin:miter; stroke-linecap:butt;
"/>
<!-- Line -->
<!--  spline  -->
<polyline points="5201,6535
5203,6535
5207,6535
5209,6535
5211,6535
5218,6537
5230,6538
5237,6540
5239,6540
5240,6540
5243,6542
5247,6545
5253,6549
5259,6554
5264,6559
5266,6562
5266,6563
5268,6565
5271,6570
5274,6575
5275,6577
5275,6578
5276,6579
5277,6583
5278,6586
5279,6588
5279,6589
5279,6587
5279,6578
5279,6561
5279,6544
5279,6535
5279,6533
5278,6531
5278,6529
5277,6527
5276,6525
5276,6523
5274,6519
5271,6514
5268,6509
5266,6507
5266,6506
5264,6503
5259,6498
5253,6493
5251,6491
5250,6490
5247,6488
5239,6484
5229,6481
5221,6480
5214,6479
5210,6479
5209,6479
5208,6479
5205,6479
5199,6479
5196,6479
5195,6479
" style="stroke:#ffffff;stroke-width:0;
stroke-linejoin:bevel; stroke-linecap:butt;
fill:#ffffff;
"/>
<!-- Line -->
<!--  spline  -->
<polyline points="5201,6535
5203,6535
5207,6535
5209,6535
5211,6535
5218,6537
5230,6538
5237,6540
5239,6540
5240,6540
5243,6542
5247,6545
5253,6549
5259,6554
5264,6559
5266,6562
5266,6563
5268,6565
5271,6570
5274,6575
5275,6577
5275,6578
5276,6579
5277,6583
5278,6586
5279,6588
5279,6589
5279,6587
5279,6578
5279,6561
5279,6544
5279,6535
5279,6533
5278,6531
5278,6529
5277,6527
5276,6525
5276,6523
5274,6519
5271,6514
5268,6509
5266,6507
5266,6506
5264,6503
5259,6498
5253,6493
5251,6491
5250,6490
5247,6488
5239,6484
5229,6481
5221,6480
5214,6479
5210,6479
5209,6479
5208,6479
5205,6479
5199,6479
5196,6479
5195,6479
" style="stroke:#00afda;stroke-width:7;
stroke-linejoin:bevel; stroke-linecap:butt;
"/>
<!-- Line -->
<!--  polyline  -->
<polyline points="5169,6869
5169,6399
4899,6399
4899,6869
5169,6869
" style="stroke:#00afda;stroke-width:0;
stroke-linejoin:miter; stroke-linecap:butt;
fill:#00afda;
"/>
<!-- Line -->
<!--  polyline  -->
<polyline points="5169,6869
5169,6399
4899,6399
4899,6869
5169,6869
" style="stroke:#ffffff;stroke-width:7;
stroke-linejoin:miter; stroke-linecap:butt;
"/>
<!-- Line -->
<!--  polyline  -->
<polyline points="4899,6399
4951,6357
5210,6357
5169,6399
4899,6399
" style="stroke:#00afda;stroke-width:0;
stroke-linejoin:miter; stroke-linecap:butt;
fill:#00afda;
"/>
<!-- Line -->
<!--  polyline  -->
<polyline points="4899,6399
4951,6357
5210,6357
5169,6399
4899,6399
" style="stroke:#ffffff;stroke-width:7;
stroke-linejoin:miter; stroke-linecap:butt;
"/>
<!-- Line -->
<!--  polyline  -->
<polyline points="5169,6869
5210,6817
5210,6357
5169,6399
5169,6869
" style="stroke:#00afda;stroke-width:0;
stroke-linejoin:miter; stroke-linecap:butt;
fill:#00afda;
"/>
<!-- Line -->
<!--  polyline  -->
<polyline points="5169,6869
5210,6817
5210,6357
5169,6399
5169,6869
" style="stroke:#ffffff;stroke-width:7;
stroke-linejoin:miter; stroke-linecap:butt;
"/>
<!-- Line -->
<!--  spline  -->
<polyline points="5279,6530
5279,6531
5279,6536
5279,6547
5279,6563
5279,6579
5279,6590
5279,6595
5279,6596
5278,6597
5275,6603
5270,6615
5265,6627
5262,6633
5261,6634
5260,6634
5258,6637
5252,6641
5245,6646
5236,6651
5224,6657
5212,6662
5205,6664
5202,6664
5199,6665
5193,6666
5181,6668
5168,6670
5162,6670
5160,6670
5155,6670
5146,6671
5138,6671
5135,6671
5133,6671
5132,6671
5132,6672
5132,6674
5132,6675
5132,6677
5132,6686
5132,6703
5132,6719
5132,6728
5132,6730
5131,6729
5127,6725
5118,6716
5104,6702
5086,6684
5068,6666
5054,6652
5045,6643
5041,6639
5040,6638
5041,6637
5045,6633
5054,6624
5068,6610
5086,6592
5104,6574
5118,6560
5127,6551
5131,6547
5132,6546
5132,6548
5132,6558
5132,6576
5132,6593
5132,6603
5132,6605
5133,6605
5137,6605
5142,6604
5146,6604
5147,6604
5148,6604
5152,6604
5159,6604
5168,6603
5182,6601
5194,6599
5200,6597
5203,6597
5206,6597
5213,6594
5225,6590
5237,6585
5243,6582
5246,6581
5248,6580
5253,6576
5262,6568
5269,6558
5274,6549
5277,6541
5278,6534
5279,6531
5279,6530
" style="stroke:#ffffff;stroke-width:0;
stroke-linejoin:bevel; stroke-linecap:butt;
fill:#ffffff;
"/>
<!-- Line -->
<!--  spline  -->
<polyline points="5279,6530
5279,6531
5279,6536
5279,6547
5279,6563
5279,6579
5279,6590
5279,6595
5279,6596
5278,6597
5275,6603
5270,6615
5265,6627
5262,6633
5261,6634
5260,6634
5258,6637
5252,6641
5245,6646
5236,6651
5224,6657
5212,6662
5205,6664
5202,6664
5199,6665
5193,6666
5181,6668
5168,6670
5162,6670
5160,6670
5155,6670
5146,6671
5138,6671
5135,6671
5133,6671
5132,6671
5132,6672
5132,6674
5132,6675
5132,6677
5132,6686
5132,6703
5132,6719
5132,6728
5132,6730
5131,6729
5127,6725
5118,6716
5104,6702
5086,6684
5068,6666
5054,6652
5045,6643
5041,6639
5040,6638
5041,6637
5045,6633
5054,6624
5068,6610
5086,6592
5104,6574
5118,6560
5127,6551
5131,6547
5132,6546
5132,6548
5132,6558
5132,6576
5132,6593
5132,6603
5132,6605
5133,6605
5137,6605
5142,6604
5146,6604
5147,6604
5148,6604
5152,6604
5159,6604
5168,6603
5182,6601
5194,6599
5200,6597
5203,6597
5206,6597
5213,6594
5225,6590
5237,6585
5243,6582
5246,6581
5248,6580
5253,6576
5262,6568
5269,6558
5274,6549
5277,6541
5278,6534
5279,6531
5279,6530
" style="stroke:#00afda;stroke-width:7;
stroke-linejoin:bevel; stroke-linecap:butt;
"/>
<!-- Line -->
<!--  polyline  -->
<polyline points="4946,6490
4931,6505
4931,6434
5002,6434
4986,6450
4983,6453
5088,6559
5054,6593
4949,6488
4946,6490
" style="stroke:#ffffff;stroke-width:0;
stroke-linejoin:miter; stroke-linecap:butt;
fill:#ffffff;
"/>
<!-- Line -->
<!--  polyline  -->
<polyline points="4946,6786
4931,6771
4931,6842
5002,6842
4986,6826
4983,6822
5088,6717
5054,6683
4949,6788
4946,6786
" style="stroke:#ffffff;stroke-width:0;
stroke-linejoin:miter; stroke-linecap:butt;
fill:#ffffff;
"/>
</g>
</svg>
