<?xml version="1.0" standalone="no"?>
<!DOCTYPE svg PUBLIC "-//W3C//DTD SVG 1.1//EN"
"http://www.w3.org/Graphics/SVG/1.1/DTD/svg11.dtd">
<!-- Creator: fig2dev Version 3.2 Patchlevel 5c -->
<!-- CreationDate: Fri Sep 14 10:46:33 2012 -->
<!-- Magnification: 1.000 -->
<svg xmlns="http://www.w3.org/2000/svg" width="0.6in" height="0.3in" viewBox="-9 12803 743 401">
<g style="stroke-width:.025in; fill:none">
<!-- Line -->
<!--  polyline  -->
<polyline points="9,12951
178,12815
722,12815
582,12951
9,12951
" style="stroke:#00acd8;stroke-width:0;
stroke-linejoin:miter; stroke-linecap:butt;
fill:#00acd8;
"/>
<!-- Line -->
<!--  polyline  -->
<polyline points="9,12951
178,12815
722,12815
582,12951
9,12951
" style="stroke:#ffffff;stroke-width:7;
stroke-linejoin:miter; stroke-linecap:butt;
"/>
<!-- Line -->
<!--  polyline  -->
<polyline points="582,13192
722,13050
722,12816
582,12951
582,13192
" style="stroke:#00acd8;stroke-width:0;
stroke-linejoin:miter; stroke-linecap:butt;
fill:#00acd8;
"/>
<!-- Line -->
<!--  polyline  -->
<polyline points="582,13192
722,13050
722,12816
582,12951
582,13192
" style="stroke:#ffffff;stroke-width:7;
stroke-linejoin:miter; stroke-linecap:butt;
"/>
<!-- Line -->
<!--  polyline  -->
<polyline points="582,13192
582,12951
10,12951
10,13192
582,13192
" style="stroke:#00acd8;stroke-width:0;
stroke-linejoin:miter; stroke-linecap:butt;
fill:#00acd8;
"/>
<!-- Line -->
<!--  polyline  -->
<polyline points="582,13192
582,12951
10,12951
10,13192
582,13192
" style="stroke:#ffffff;stroke-width:7;
stroke-linejoin:miter; stroke-linecap:butt;
"/>
<!-- Line -->
<!--  spline  -->
<polyline points="415,13039
415,13040
413,13043
412,13048
410,13051
410,13052
408,13054
406,13057
402,13060
395,13064
388,13067
385,13069
383,13069
380,13070
371,13073
362,13075
358,13076
357,13077
352,13077
342,13079
330,13080
321,13081
313,13081
309,13081
308,13081
306,13081
298,13080
284,13080
276,13079
274,13079
273,13079
269,13078
263,13077
255,13076
245,13073
236,13070
233,13069
231,13069
228,13067
221,13064
215,13060
212,13059
212,13058
210,13056
206,13052
203,13047
202,13044
201,13041
201,13039
201,13041
201,13051
201,13070
201,13088
201,13098
201,13100
201,13101
203,13104
204,13110
206,13113
206,13114
208,13116
210,13118
214,13121
221,13125
228,13128
231,13130
233,13130
236,13131
245,13134
254,13136
258,13137
259,13138
264,13138
274,13140
286,13141
295,13142
303,13142
307,13142
308,13142
310,13142
318,13141
332,13141
340,13140
342,13140
343,13140
347,13139
353,13138
361,13137
371,13134
380,13131
383,13130
385,13130
388,13128
395,13125
401,13122
404,13120
406,13118
410,13114
413,13109
414,13105
415,13102
415,13100
415,13098
415,13088
415,13069
415,13051
415,13041
415,13039
" style="stroke:#00acd8;stroke-width:0;
stroke-linejoin:bevel; stroke-linecap:butt;
fill:#00acd8;
"/>
<!-- Line -->
<!--  spline  -->
<polyline points="415,13039
415,13040
413,13043
412,13048
410,13051
410,13052
408,13054
406,13057
402,13060
395,13064
388,13067
385,13069
383,13069
380,13070
371,13073
362,13075
358,13076
357,13077
352,13077
342,13079
330,13080
321,13081
313,13081
309,13081
308,13081
306,13081
298,13080
284,13080
276,13079
274,13079
273,13079
269,13078
263,13077
255,13076
245,13073
236,13070
233,13069
231,13069
228,13067
221,13064
215,13060
212,13059
212,13058
210,13056
206,13052
203,13047
202,13044
201,13041
201,13039
201,13041
201,13051
201,13070
201,13088
201,13098
201,13100
201,13101
203,13104
204,13110
206,13113
206,13114
208,13116
210,13118
214,13121
221,13125
228,13128
231,13130
233,13130
236,13131
245,13134
254,13136
258,13137
259,13138
264,13138
274,13140
286,13141
295,13142
303,13142
307,13142
308,13142
310,13142
318,13141
332,13141
340,13140
342,13140
343,13140
347,13139
353,13138
361,13137
371,13134
380,13131
383,13130
385,13130
388,13128
395,13125
401,13122
404,13120
406,13118
410,13114
413,13109
414,13105
415,13102
415,13100
415,13098
415,13088
415,13069
415,13051
415,13041
415,13039
" style="stroke:#ffffff;stroke-width:7;
stroke-linejoin:bevel; stroke-linecap:butt;
"/>
<!-- Line -->
<!--  spline  -->
<polyline points="308,13081
310,13081
318,13080
332,13080
340,13079
342,13079
343,13079
347,13078
353,13077
361,13076
371,13073
380,13070
383,13069
385,13069
388,13067
395,13064
401,13060
404,13059
404,13058
406,13056
410,13052
413,13047
414,13044
415,13041
415,13039
415,13038
413,13035
412,13030
410,13027
410,13026
408,13024
406,13022
402,13019
395,13015
388,13012
385,13010
383,13010
380,13009
371,13006
362,13004
358,13003
357,13002
352,13002
342,13000
330,12999
321,12998
313,12998
309,12998
308,12998
306,12998
298,12999
284,12999
276,13000
274,13000
273,13000
269,13001
263,13002
255,13003
245,13006
236,13009
233,13010
231,13010
228,13012
221,13015
215,13018
212,13020
210,13022
206,13026
203,13030
202,13034
201,13037
201,13039
201,13040
203,13043
204,13048
206,13051
206,13052
208,13054
210,13057
214,13060
221,13064
228,13067
231,13069
233,13069
236,13070
245,13073
254,13075
258,13076
259,13077
264,13077
274,13079
286,13080
295,13081
303,13081
307,13081
308,13081
" style="stroke:#00acd8;stroke-width:0;
stroke-linejoin:bevel; stroke-linecap:butt;
fill:#00acd8;
"/>
<!-- Line -->
<!--  spline  -->
<polyline points="308,13081
310,13081
318,13080
332,13080
340,13079
342,13079
343,13079
347,13078
353,13077
361,13076
371,13073
380,13070
383,13069
385,13069
388,13067
395,13064
401,13060
404,13059
404,13058
406,13056
410,13052
413,13047
414,13044
415,13041
415,13039
415,13038
413,13035
412,13030
410,13027
410,13026
408,13024
406,13022
402,13019
395,13015
388,13012
385,13010
383,13010
380,13009
371,13006
362,13004
358,13003
357,13002
352,13002
342,13000
330,12999
321,12998
313,12998
309,12998
308,12998
306,12998
298,12999
284,12999
276,13000
274,13000
273,13000
269,13001
263,13002
255,13003
245,13006
236,13009
233,13010
231,13010
228,13012
221,13015
215,13018
212,13020
210,13022
206,13026
203,13030
202,13034
201,13037
201,13039
201,13040
203,13043
204,13048
206,13051
206,13052
208,13054
210,13057
214,13060
221,13064
228,13067
231,13069
233,13069
236,13070
245,13073
254,13075
258,13076
259,13077
264,13077
274,13079
286,13080
295,13081
303,13081
307,13081
308,13081
" style="stroke:#ffffff;stroke-width:7;
stroke-linejoin:bevel; stroke-linecap:butt;
"/>
<!-- Line -->
<!--  polyline  -->
<polyline points="143,12999
13,12999
" style="stroke:#ffffff;stroke-width:15;
stroke-linejoin:miter; stroke-linecap:butt;
"/>
<!-- Line -->
<!--  polyline  -->
<polyline points="189,12999
110,13032
129,12999
110,12967
189,12999
" style="stroke:#ffffff;stroke-width:0;
stroke-linejoin:miter; stroke-linecap:butt;
fill:#ffffff;
"/>
<!-- Line -->
<!--  polyline  -->
<polyline points="143,13069
13,13069
" style="stroke:#ffffff;stroke-width:15;
stroke-linejoin:miter; stroke-linecap:butt;
"/>
<!-- Line -->
<!--  polyline  -->
<polyline points="189,13069
110,13102
129,13069
110,13037
189,13069
" style="stroke:#ffffff;stroke-width:0;
stroke-linejoin:miter; stroke-linecap:butt;
fill:#ffffff;
"/>
<!-- Line -->
<!--  polyline  -->
<polyline points="535,13069
474,13069
" style="stroke:#ffffff;stroke-width:15;
stroke-linejoin:miter; stroke-linecap:butt;
"/>
<!-- Line -->
<!--  polyline  -->
<polyline points="573,13069
509,13095
524,13069
509,13044
573,13069
" style="stroke:#ffffff;stroke-width:0;
stroke-linejoin:miter; stroke-linecap:butt;
fill:#ffffff;
"/>
<!-- Line -->
<!--  polyline  -->
<polyline points="143,13139
13,13139
" style="stroke:#ffffff;stroke-width:15;
stroke-linejoin:miter; stroke-linecap:butt;
"/>
<!-- Line -->
<!--  polyline  -->
<polyline points="189,13139
110,13172
129,13139
110,13107
189,13139
" style="stroke:#ffffff;stroke-width:0;
stroke-linejoin:miter; stroke-linecap:butt;
fill:#ffffff;
"/>
<!-- Line -->
<!--  polyline  -->
<polyline points="487,13044
472,13070
487,13096
424,13070
487,13044
" style="stroke:#ffffff;stroke-width:0;
stroke-linejoin:miter; stroke-linecap:butt;
fill:#ffffff;
"/>
</g>
</svg>
