<?xml version="1.0" standalone="no"?>
<!DOCTYPE svg PUBLIC "-//W3C//DTD SVG 1.1//EN"
"http://www.w3.org/Graphics/SVG/1.1/DTD/svg11.dtd">
<!-- Creator: fig2dev Version 3.2 Patchlevel 5c -->
<!-- CreationDate: Fri Sep 14 10:46:34 2012 -->
<!-- Magnification: 1.000 -->
<svg xmlns="http://www.w3.org/2000/svg" width="0.7in" height="0.4in" viewBox="7260 6638 820 467">
<g style="stroke-width:.025in; fill:none">
<!-- Line -->
<!--  polyline  -->
<polyline points="7272,6845
7513,6650
8068,6650
7869,6845
7272,6845
" style="stroke:#00afda;stroke-width:0;
stroke-linejoin:miter; stroke-linecap:butt;
fill:#00afda;
"/>
<!-- Line -->
<!--  polyline  -->
<polyline points="7272,6845
7513,6650
8068,6650
7869,6845
7272,6845
" style="stroke:#ffffff;stroke-width:7;
stroke-linejoin:miter; stroke-linecap:butt;
"/>
<!-- Line -->
<!--  polyline  -->
<polyline points="7869,7093
8068,6890
8068,6651
7869,6845
7869,7093
" style="stroke:#00afda;stroke-width:0;
stroke-linejoin:miter; stroke-linecap:butt;
fill:#00afda;
"/>
<!-- Line -->
<!--  polyline  -->
<polyline points="7869,7093
8068,6890
8068,6651
7869,6845
7869,7093
" style="stroke:#ffffff;stroke-width:7;
stroke-linejoin:miter; stroke-linecap:butt;
"/>
<!-- Line -->
<!--  polyline  -->
<polyline points="7869,7093
7869,6845
7273,6845
7273,7093
7869,7093
" style="stroke:#00afda;stroke-width:0;
stroke-linejoin:miter; stroke-linecap:butt;
fill:#00afda;
"/>
<!-- Line -->
<!--  polyline  -->
<polyline points="7869,7093
7869,6845
7273,6845
7273,7093
7869,7093
" style="stroke:#ffffff;stroke-width:7;
stroke-linejoin:miter; stroke-linecap:butt;
"/>
<!-- Line -->
<!--  spline  -->
<polyline points="7835,6976
7835,6977
7834,6979
7832,6983
7831,6985
7831,6986
7831,6987
7829,6989
7827,6993
7823,6999
7818,7005
7812,7011
7810,7014
7809,7015
7806,7017
7799,7020
7794,7021
7790,7021
7789,7022
7788,7022
7787,7022
7785,7022
7781,7019
7775,7015
7767,7007
7760,6998
7755,6989
7751,6981
7748,6977
7748,6976
7747,6975
7743,6968
7734,6956
7726,6944
7722,6937
7721,6936
7720,6936
7717,6934
7712,6932
7705,6930
7697,6931
7690,6934
7687,6936
7686,6937
7684,6940
7678,6946
7673,6952
7671,6956
7670,6957
7668,6961
7665,6966
7662,6971
7661,6973
7661,6974
7661,6975
7661,6976
7659,6978
7658,6982
7656,6984
7656,6985
7656,6986
7655,6988
7652,6993
7649,6998
7644,7005
7639,7011
7636,7013
7635,7015
7632,7017
7625,7019
7620,7020
7616,7020
7615,7020
7614,7021
7613,7021
7611,7020
7607,7018
7601,7014
7593,7006
7586,6997
7580,6988
7576,6980
7573,6976
7573,6975
7572,6974
7568,6967
7559,6955
7551,6944
7547,6937
7546,6936
7545,6936
7542,6934
7537,6932
7530,6930
7522,6931
7515,6934
7512,6936
7511,6937
7508,6940
7503,6946
7498,6952
7496,6955
7496,6957
7494,6960
7491,6966
7488,6971
7487,6974
7486,6975
7486,6976
7486,6977
7485,6979
7483,6983
7482,6985
7482,6986
7482,6987
7480,6989
7478,6993
7474,6999
7469,7005
7463,7011
7461,7014
7460,7015
7457,7017
7450,7020
7445,7021
7441,7021
7440,7022
7439,7022
7438,7022
7436,7022
7432,7019
7426,7015
7418,7007
7411,6998
7406,6989
7402,6981
7399,6977
7399,6976
7398,6975
7394,6968
7385,6956
7377,6944
7373,6937
7372,6936
7371,6936
7368,6934
7363,6932
7356,6930
7348,6931
7341,6934
7338,6936
7337,6937
7335,6940
7329,6946
7324,6952
7322,6955
7321,6957
7319,6960
7316,6965
7313,6970
7312,6972
7312,6974
7312,6975
" style="stroke:#ffffff;stroke-width:7;
stroke-linejoin:bevel; stroke-linecap:round;
"/>
<!-- Line -->
<!--  spline  -->
<polyline points="7312,6976
7312,6977
7313,6979
7315,6983
7316,6985
7316,6986
7316,6987
7318,6989
7320,6993
7324,6999
7329,7005
7335,7011
7337,7014
7338,7015
7341,7017
7348,7020
7353,7021
7357,7021
7358,7022
7359,7022
7360,7022
7362,7022
7366,7019
7372,7015
7380,7007
7387,6998
7392,6989
7396,6981
7399,6977
7399,6976
7400,6975
7404,6968
7413,6956
7422,6944
7426,6937
7427,6936
7428,6936
7431,6934
7436,6932
7443,6930
7451,6931
7457,6933
7460,6935
7462,6936
7463,6938
7465,6941
7470,6946
7475,6952
7477,6956
7477,6957
7479,6961
7482,6966
7485,6971
7486,6973
7487,6974
7487,6975
7487,6976
7488,6978
7490,6982
7491,6984
7491,6985
7491,6986
7493,6988
7495,6993
7499,6998
7504,7005
7510,7011
7512,7013
7513,7015
7516,7017
7523,7019
7528,7020
7531,7020
7533,7020
7534,7021
7535,7021
7536,7020
7540,7018
7546,7014
7554,7006
7561,6997
7567,6988
7571,6980
7574,6976
7574,6975
7575,6974
7579,6967
7588,6955
7596,6944
7600,6937
7601,6936
7602,6936
7605,6934
7610,6932
7617,6930
7625,6931
7631,6933
7634,6935
7636,6936
7637,6938
7639,6941
7644,6946
7649,6952
7651,6955
7651,6957
7653,6960
7656,6966
7659,6971
7660,6974
7661,6975
7661,6976
7661,6977
7662,6979
7664,6983
7665,6985
7665,6986
7665,6987
7667,6989
7669,6993
7673,6999
7678,7005
7684,7011
7686,7014
7687,7015
7690,7017
7697,7020
7702,7021
7706,7021
7707,7022
7708,7022
7709,7022
7711,7022
7715,7019
7721,7015
7729,7007
7736,6998
7741,6989
7745,6981
7748,6977
7748,6976
7749,6975
7753,6968
7762,6956
7770,6944
7774,6937
7775,6936
7776,6936
7779,6934
7784,6932
7791,6930
7799,6931
7806,6934
7809,6936
7810,6937
7812,6940
7818,6946
7823,6952
7825,6955
7826,6957
7828,6960
7831,6965
7834,6970
7835,6972
7835,6974
7835,6975
" style="stroke:#ffffff;stroke-width:15;
stroke-linejoin:bevel; stroke-linecap:round;
"/>
<!-- Line -->
<!--  spline  -->
<polyline points="7844,6976
7844,6977
7843,6979
7841,6983
7840,6985
7840,6986
7840,6987
7838,6989
7836,6993
7832,6999
7827,7005
7821,7011
7819,7014
7818,7015
7815,7017
7808,7020
7803,7021
7799,7021
7798,7022
7797,7022
7796,7022
7794,7022
7790,7019
7784,7015
7776,7007
7769,6998
7764,6989
7760,6981
7757,6977
7757,6976
7756,6975
7752,6968
7743,6956
7735,6944
7731,6937
7730,6936
7729,6936
7726,6934
7721,6932
7714,6930
7706,6931
7699,6934
7696,6936
7695,6937
7693,6940
7687,6946
7682,6952
7680,6956
7679,6957
7677,6961
7674,6966
7671,6971
7670,6973
7670,6974
7670,6975
7670,6976
7668,6978
7667,6982
7665,6984
7665,6985
7665,6986
7664,6988
7661,6993
7658,6998
7653,7005
7648,7011
7645,7013
7644,7015
7641,7017
7634,7019
7629,7020
7625,7020
7624,7020
7623,7021
7622,7021
7620,7020
7616,7018
7610,7014
7602,7006
7595,6997
7590,6988
7586,6980
7583,6976
7583,6975
7582,6974
7578,6967
7569,6955
7560,6944
7556,6937
7555,6936
7554,6936
7551,6934
7546,6932
7539,6930
7531,6931
7524,6934
7521,6936
7520,6937
7517,6940
7512,6946
7507,6952
7505,6955
7505,6957
7503,6960
7500,6966
7497,6971
7496,6974
7495,6975
7495,6976
7495,6977
7494,6979
7492,6983
7491,6985
7491,6986
7491,6987
7489,6989
7487,6993
7483,6999
7478,7005
7473,7011
7470,7014
7469,7015
7467,7017
7460,7020
7455,7021
7452,7021
7450,7022
7449,7022
7448,7022
7446,7022
7442,7019
7436,7015
7428,7007
7421,6998
7415,6989
7411,6981
7408,6977
7408,6976
7407,6975
7403,6968
7394,6956
7386,6944
7382,6937
7381,6936
7380,6936
7377,6934
7372,6932
7365,6930
7357,6931
7350,6934
7347,6936
7346,6937
7343,6940
7338,6946
7333,6952
7331,6955
7331,6957
7329,6960
7326,6965
7323,6970
7322,6972
7321,6974
7321,6975
" style="stroke:#000000;stroke-width:7;
stroke-linejoin:bevel; stroke-linecap:round;
"/>
<!-- Line -->
<!--  spline  -->
<polyline points="7321,6976
7321,6977
7323,6979
7324,6983
7326,6985
7326,6986
7326,6987
7327,6989
7330,6993
7333,6999
7338,7005
7343,7011
7346,7014
7347,7015
7350,7017
7357,7020
7362,7021
7366,7021
7367,7022
7368,7022
7369,7022
7371,7022
7375,7019
7381,7015
7389,7007
7396,6998
7401,6989
7405,6981
7408,6977
7408,6976
7409,6975
7413,6968
7422,6956
7431,6944
7435,6937
7436,6936
7437,6936
7440,6934
7445,6932
7452,6930
7460,6931
7466,6933
7469,6935
7471,6936
7472,6938
7474,6941
7479,6946
7484,6952
7486,6956
7486,6957
7488,6961
7491,6966
7494,6971
7495,6973
7496,6974
7496,6975
7496,6976
7497,6978
7499,6982
7500,6984
7500,6985
7500,6986
7502,6988
7504,6993
7508,6998
7513,7005
7519,7011
7521,7013
7522,7015
7525,7017
7532,7019
7537,7020
7541,7020
7542,7020
7543,7021
7544,7021
7546,7020
7550,7018
7556,7014
7564,7006
7571,6997
7576,6988
7580,6980
7583,6976
7583,6975
7584,6974
7588,6967
7597,6955
7605,6944
7609,6937
7610,6936
7611,6936
7614,6934
7619,6932
7626,6930
7634,6931
7641,6934
7644,6936
7645,6937
7647,6940
7653,6946
7658,6952
7660,6955
7661,6957
7663,6960
7666,6966
7669,6971
7670,6974
7670,6975
7670,6976
7670,6977
7672,6979
7673,6983
7675,6985
7675,6986
7675,6987
7676,6989
7679,6993
7682,6999
7687,7005
7692,7011
7695,7014
7696,7015
7699,7017
7706,7020
7711,7021
7715,7021
7716,7022
7717,7022
7718,7022
7720,7022
7724,7019
7730,7015
7738,7007
7745,6998
7750,6989
7754,6981
7757,6977
7757,6976
7758,6975
7762,6968
7771,6956
7780,6944
7784,6937
7785,6936
7786,6936
7789,6934
7794,6932
7801,6930
7809,6931
7816,6934
7818,6936
7819,6937
7822,6940
7827,6946
7832,6952
7834,6955
7835,6957
7837,6960
7840,6965
7843,6970
7844,6972
7844,6974
7844,6975
" style="stroke:#000000;stroke-width:15;
stroke-linejoin:bevel; stroke-linecap:round;
"/>
<!-- Line -->
<!--  spline  -->
<polyline points="7835,6976
7835,6977
7834,6979
7832,6983
7831,6985
7831,6986
7831,6987
7829,6989
7827,6993
7823,6999
7818,7005
7812,7011
7810,7014
7809,7015
7806,7017
7799,7020
7794,7021
7790,7021
7789,7022
7788,7022
7787,7022
7785,7022
7781,7019
7775,7015
7767,7007
7760,6998
7755,6989
7751,6981
7748,6977
7748,6976
7747,6975
7743,6968
7734,6956
7726,6944
7722,6937
7721,6936
7720,6936
7717,6934
7712,6932
7705,6930
7697,6931
7690,6934
7687,6936
7686,6937
7684,6940
7678,6946
7673,6952
7671,6956
7670,6957
7668,6961
7665,6966
7662,6971
7661,6973
7661,6974
7661,6975
7661,6976
7659,6978
7658,6982
7656,6984
7656,6985
7656,6986
7655,6988
7652,6993
7649,6998
7644,7005
7639,7011
7636,7013
7635,7015
7632,7017
7625,7019
7620,7020
7616,7020
7615,7020
7614,7021
7613,7021
7611,7020
7607,7018
7601,7014
7593,7006
7586,6997
7580,6988
7576,6980
7573,6976
7573,6975
7572,6974
7568,6967
7559,6955
7551,6944
7547,6937
7546,6936
7545,6936
7542,6934
7537,6932
7530,6930
7522,6931
7515,6934
7512,6936
7511,6937
7508,6940
7503,6946
7498,6952
7496,6955
7496,6957
7494,6960
7491,6966
7488,6971
7487,6974
7486,6975
7486,6976
7486,6977
7485,6979
7483,6983
7482,6985
7482,6986
7482,6987
7480,6989
7478,6993
7474,6999
7469,7005
7463,7011
7461,7014
7460,7015
7457,7017
7450,7020
7445,7021
7441,7021
7440,7022
7439,7022
7438,7022
7436,7022
7432,7019
7426,7015
7418,7007
7411,6998
7406,6989
7402,6981
7399,6977
7399,6976
7398,6975
7394,6968
7385,6956
7377,6944
7373,6937
7372,6936
7371,6936
7368,6934
7363,6932
7356,6930
7348,6931
7341,6934
7338,6936
7337,6937
7335,6940
7329,6946
7324,6952
7322,6955
7321,6957
7319,6960
7316,6965
7313,6970
7312,6972
7312,6974
7312,6975
" style="stroke:#ffffff;stroke-width:7;
stroke-linejoin:bevel; stroke-linecap:round;
"/>
<!-- Line -->
<!--  spline  -->
<polyline points="7312,6976
7312,6977
7313,6979
7315,6983
7316,6985
7316,6986
7316,6987
7318,6989
7320,6993
7324,6999
7329,7005
7335,7011
7337,7014
7338,7015
7341,7017
7348,7020
7353,7021
7357,7021
7358,7022
7359,7022
7360,7022
7362,7022
7366,7019
7372,7015
7380,7007
7387,6998
7392,6989
7396,6981
7399,6977
7399,6976
7400,6975
7404,6968
7413,6956
7422,6944
7426,6937
7427,6936
7428,6936
7431,6934
7436,6932
7443,6930
7451,6931
7457,6933
7460,6935
7462,6936
7463,6938
7465,6941
7470,6946
7475,6952
7477,6956
7477,6957
7479,6961
7482,6966
7485,6971
7486,6973
7487,6974
7487,6975
7487,6976
7488,6978
7490,6982
7491,6984
7491,6985
7491,6986
7493,6988
7495,6993
7499,6998
7504,7005
7510,7011
7512,7013
7513,7015
7516,7017
7523,7019
7528,7020
7531,7020
7533,7020
7534,7021
7535,7021
7536,7020
7540,7018
7546,7014
7554,7006
7561,6997
7567,6988
7571,6980
7574,6976
7574,6975
7575,6974
7579,6967
7588,6955
7596,6944
7600,6937
7601,6936
7602,6936
7605,6934
7610,6932
7617,6930
7625,6931
7631,6933
7634,6935
7636,6936
7637,6938
7639,6941
7644,6946
7649,6952
7651,6955
7651,6957
7653,6960
7656,6966
7659,6971
7660,6974
7661,6975
7661,6976
7661,6977
7662,6979
7664,6983
7665,6985
7665,6986
7665,6987
7667,6989
7669,6993
7673,6999
7678,7005
7684,7011
7686,7014
7687,7015
7690,7017
7697,7020
7702,7021
7706,7021
7707,7022
7708,7022
7709,7022
7711,7022
7715,7019
7721,7015
7729,7007
7736,6998
7741,6989
7745,6981
7748,6977
7748,6976
7749,6975
7753,6968
7762,6956
7770,6944
7774,6937
7775,6936
7776,6936
7779,6934
7784,6932
7791,6930
7799,6931
7806,6934
7809,6936
7810,6937
7812,6940
7818,6946
7823,6952
7825,6955
7826,6957
7828,6960
7831,6965
7834,6970
7835,6972
7835,6974
7835,6975
" style="stroke:#ffffff;stroke-width:15;
stroke-linejoin:bevel; stroke-linecap:round;
"/>
<!-- Line -->
<!--  spline  -->
<polyline points="7844,6976
7844,6977
7843,6979
7841,6983
7840,6985
7840,6986
7840,6987
7838,6989
7836,6993
7832,6999
7827,7005
7821,7011
7819,7014
7818,7015
7815,7017
7808,7020
7803,7021
7799,7021
7798,7022
7797,7022
7796,7022
7794,7022
7790,7019
7784,7015
7776,7007
7769,6998
7764,6989
7760,6981
7757,6977
7757,6976
7756,6975
7752,6968
7743,6956
7735,6944
7731,6937
7730,6936
7729,6936
7726,6934
7721,6932
7714,6930
7706,6931
7699,6934
7696,6936
7695,6937
7693,6940
7687,6946
7682,6952
7680,6956
7679,6957
7677,6961
7674,6966
7671,6971
7670,6973
7670,6974
7670,6975
7670,6976
7668,6978
7667,6982
7665,6984
7665,6985
7665,6986
7664,6988
7661,6993
7658,6998
7653,7005
7648,7011
7645,7013
7644,7015
7641,7017
7634,7019
7629,7020
7625,7020
7624,7020
7623,7021
7622,7021
7620,7020
7616,7018
7610,7014
7602,7006
7595,6997
7590,6988
7586,6980
7583,6976
7583,6975
7582,6974
7578,6967
7569,6955
7560,6944
7556,6937
7555,6936
7554,6936
7551,6934
7546,6932
7539,6930
7531,6931
7524,6934
7521,6936
7520,6937
7517,6940
7512,6946
7507,6952
7505,6955
7505,6957
7503,6960
7500,6966
7497,6971
7496,6974
7495,6975
7495,6976
7495,6977
7494,6979
7492,6983
7491,6985
7491,6986
7491,6987
7489,6989
7487,6993
7483,6999
7478,7005
7473,7011
7470,7014
7469,7015
7467,7017
7460,7020
7455,7021
7452,7021
7450,7022
7449,7022
7448,7022
7446,7022
7442,7019
7436,7015
7428,7007
7421,6998
7415,6989
7411,6981
7408,6977
7408,6976
7407,6975
7403,6968
7394,6956
7386,6944
7382,6937
7381,6936
7380,6936
7377,6934
7372,6932
7365,6930
7357,6931
7350,6934
7347,6936
7346,6937
7343,6940
7338,6946
7333,6952
7331,6955
7331,6957
7329,6960
7326,6965
7323,6970
7322,6972
7321,6974
7321,6975
" style="stroke:#000000;stroke-width:7;
stroke-linejoin:bevel; stroke-linecap:round;
"/>
<!-- Line -->
<!--  spline  -->
<polyline points="7321,6976
7321,6977
7323,6979
7324,6983
7326,6985
7326,6986
7326,6987
7327,6989
7330,6993
7333,6999
7338,7005
7343,7011
7346,7014
7347,7015
7350,7017
7357,7020
7362,7021
7366,7021
7367,7022
7368,7022
7369,7022
7371,7022
7375,7019
7381,7015
7389,7007
7396,6998
7401,6989
7405,6981
7408,6977
7408,6976
7409,6975
7413,6968
7422,6956
7431,6944
7435,6937
7436,6936
7437,6936
7440,6934
7445,6932
7452,6930
7460,6931
7466,6933
7469,6935
7471,6936
7472,6938
7474,6941
7479,6946
7484,6952
7486,6956
7486,6957
7488,6961
7491,6966
7494,6971
7495,6973
7496,6974
7496,6975
7496,6976
7497,6978
7499,6982
7500,6984
7500,6985
7500,6986
7502,6988
7504,6993
7508,6998
7513,7005
7519,7011
7521,7013
7522,7015
7525,7017
7532,7019
7537,7020
7541,7020
7542,7020
7543,7021
7544,7021
7546,7020
7550,7018
7556,7014
7564,7006
7571,6997
7576,6988
7580,6980
7583,6976
7583,6975
7584,6974
7588,6967
7597,6955
7605,6944
7609,6937
7610,6936
7611,6936
7614,6934
7619,6932
7626,6930
7634,6931
7641,6934
7644,6936
7645,6937
7647,6940
7653,6946
7658,6952
7660,6955
7661,6957
7663,6960
7666,6966
7669,6971
7670,6974
7670,6975
7670,6976
7670,6977
7672,6979
7673,6983
7675,6985
7675,6986
7675,6987
7676,6989
7679,6993
7682,6999
7687,7005
7692,7011
7695,7014
7696,7015
7699,7017
7706,7020
7711,7021
7715,7021
7716,7022
7717,7022
7718,7022
7720,7022
7724,7019
7730,7015
7738,7007
7745,6998
7750,6989
7754,6981
7757,6977
7757,6976
7758,6975
7762,6968
7771,6956
7780,6944
7784,6937
7785,6936
7786,6936
7789,6934
7794,6932
7801,6930
7809,6931
7816,6934
7818,6936
7819,6937
7822,6940
7827,6946
7832,6952
7834,6955
7835,6957
7837,6960
7840,6965
7843,6970
7844,6972
7844,6974
7844,6975
" style="stroke:#000000;stroke-width:15;
stroke-linejoin:bevel; stroke-linecap:round;
"/>
<!-- Line -->
<!--  spline  -->
<polyline points="7835,6976
7835,6977
7834,6979
7832,6983
7831,6985
7831,6986
7831,6987
7829,6989
7827,6993
7823,6999
7818,7005
7812,7011
7810,7014
7809,7015
7806,7017
7799,7020
7794,7021
7790,7021
7789,7022
7788,7022
7787,7022
7785,7022
7781,7019
7775,7015
7767,7007
7760,6998
7755,6989
7751,6981
7748,6977
7748,6976
7747,6975
7743,6968
7734,6956
7726,6944
7722,6937
7721,6936
7720,6936
7717,6934
7712,6932
7705,6930
7697,6931
7690,6934
7687,6936
7686,6937
7684,6940
7678,6946
7673,6952
7671,6956
7670,6957
7668,6961
7665,6966
7662,6971
7661,6973
7661,6974
7661,6975
7661,6976
7659,6978
7658,6982
7656,6984
7656,6985
7656,6986
7655,6988
7652,6993
7649,6998
7644,7005
7639,7011
7636,7013
7635,7015
7632,7017
7625,7019
7620,7020
7616,7020
7615,7020
7614,7021
7613,7021
7611,7020
7607,7018
7601,7014
7593,7006
7586,6997
7580,6988
7576,6980
7573,6976
7573,6975
7572,6974
7568,6967
7559,6955
7551,6944
7547,6937
7546,6936
7545,6936
7542,6934
7537,6932
7530,6930
7522,6931
7515,6934
7512,6936
7511,6937
7508,6940
7503,6946
7498,6952
7496,6955
7496,6957
7494,6960
7491,6966
7488,6971
7487,6974
7486,6975
7486,6976
7486,6977
7485,6979
7483,6983
7482,6985
7482,6986
7482,6987
7480,6989
7478,6993
7474,6999
7469,7005
7463,7011
7461,7014
7460,7015
7457,7017
7450,7020
7445,7021
7441,7021
7440,7022
7439,7022
7438,7022
7436,7022
7432,7019
7426,7015
7418,7007
7411,6998
7406,6989
7402,6981
7399,6977
7399,6976
7398,6975
7394,6968
7385,6956
7377,6944
7373,6937
7372,6936
7371,6936
7368,6934
7363,6932
7356,6930
7348,6931
7341,6934
7338,6936
7337,6937
7335,6940
7329,6946
7324,6952
7322,6955
7321,6957
7319,6960
7316,6965
7313,6970
7312,6972
7312,6974
7312,6975
" style="stroke:#ffffff;stroke-width:7;
stroke-linejoin:bevel; stroke-linecap:round;
"/>
<!-- Line -->
<!--  spline  -->
<polyline points="7312,6976
7312,6977
7313,6979
7315,6983
7316,6985
7316,6986
7316,6987
7318,6989
7320,6993
7324,6999
7329,7005
7335,7011
7337,7014
7338,7015
7341,7017
7348,7020
7353,7021
7357,7021
7358,7022
7359,7022
7360,7022
7362,7022
7366,7019
7372,7015
7380,7007
7387,6998
7392,6989
7396,6981
7399,6977
7399,6976
7400,6975
7404,6968
7413,6956
7422,6944
7426,6937
7427,6936
7428,6936
7431,6934
7436,6932
7443,6930
7451,6931
7457,6933
7460,6935
7462,6936
7463,6938
7465,6941
7470,6946
7475,6952
7477,6956
7477,6957
7479,6961
7482,6966
7485,6971
7486,6973
7487,6974
7487,6975
7487,6976
7488,6978
7490,6982
7491,6984
7491,6985
7491,6986
7493,6988
7495,6993
7499,6998
7504,7005
7510,7011
7512,7013
7513,7015
7516,7017
7523,7019
7528,7020
7531,7020
7533,7020
7534,7021
7535,7021
7536,7020
7540,7018
7546,7014
7554,7006
7561,6997
7567,6988
7571,6980
7574,6976
7574,6975
7575,6974
7579,6967
7588,6955
7596,6944
7600,6937
7601,6936
7602,6936
7605,6934
7610,6932
7617,6930
7625,6931
7631,6933
7634,6935
7636,6936
7637,6938
7639,6941
7644,6946
7649,6952
7651,6955
7651,6957
7653,6960
7656,6966
7659,6971
7660,6974
7661,6975
7661,6976
7661,6977
7662,6979
7664,6983
7665,6985
7665,6986
7665,6987
7667,6989
7669,6993
7673,6999
7678,7005
7684,7011
7686,7014
7687,7015
7690,7017
7697,7020
7702,7021
7706,7021
7707,7022
7708,7022
7709,7022
7711,7022
7715,7019
7721,7015
7729,7007
7736,6998
7741,6989
7745,6981
7748,6977
7748,6976
7749,6975
7753,6968
7762,6956
7770,6944
7774,6937
7775,6936
7776,6936
7779,6934
7784,6932
7791,6930
7799,6931
7806,6934
7809,6936
7810,6937
7812,6940
7818,6946
7823,6952
7825,6955
7826,6957
7828,6960
7831,6965
7834,6970
7835,6972
7835,6974
7835,6975
" style="stroke:#ffffff;stroke-width:15;
stroke-linejoin:bevel; stroke-linecap:round;
"/>
<!-- Line -->
<!--  spline  -->
<polyline points="8055,6786
8055,6787
8054,6790
8054,6794
8053,6797
8053,6798
8053,6799
8052,6802
8051,6807
8050,6813
8048,6822
8046,6830
8045,6834
8045,6836
8044,6839
8042,6844
8041,6845
8041,6846
8040,6847
8039,6848
8039,6849
8038,6849
8038,6850
8038,6851
8037,6851
8037,6850
8036,6850
8035,6849
8035,6848
8034,6847
8032,6840
8030,6831
8029,6822
8028,6816
8028,6815
8028,6813
8026,6805
8023,6794
8021,6786
8021,6784
8020,6784
8020,6783
8019,6783
8018,6783
8017,6783
8016,6783
8015,6784
8014,6785
8013,6787
8011,6792
8010,6795
8010,6797
8009,6800
8007,6808
8005,6816
8004,6820
8004,6822
8003,6825
8002,6832
8001,6838
8000,6841
8000,6843
8000,6844
8000,6845
7999,6848
7999,6852
7998,6855
7998,6856
7998,6857
7997,6860
7996,6865
7995,6871
7993,6880
7991,6888
7990,6892
7990,6894
7989,6897
7987,6902
7986,6903
7986,6904
7985,6905
7984,6906
7984,6907
7983,6907
7983,6908
7982,6908
7982,6907
7981,6907
7980,6906
7980,6905
7979,6904
7976,6897
7974,6888
7973,6880
7972,6874
7972,6873
7972,6871
7970,6863
7968,6852
7966,6844
7966,6842
7965,6841
7964,6841
7963,6841
7962,6841
7961,6841
7960,6842
7959,6843
7958,6845
7956,6850
7955,6853
7955,6855
7954,6859
7952,6867
7950,6875
7949,6879
7949,6881
7948,6884
7947,6891
7946,6897
7945,6900
7945,6902
7945,6903
7945,6904
7944,6906
7944,6911
7943,6913
7943,6914
7943,6915
7942,6918
7941,6924
7940,6930
7938,6939
7936,6947
7935,6950
7934,6952
7933,6955
7931,6960
7930,6961
7930,6962
7929,6962
7929,6963
7929,6964
7928,6964
7928,6965
7928,6966
7927,6966
7926,6966
7926,6965
7925,6965
7925,6964
7924,6963
7921,6956
7920,6947
7918,6939
7917,6933
7917,6932
7917,6930
7915,6922
7912,6910
7910,6902
7910,6900
7909,6899
7908,6899
7907,6899
7906,6899
7905,6900
7904,6901
7903,6903
7901,6908
7900,6911
7899,6913
7898,6917
7896,6925
7894,6933
7894,6937
7894,6939
7893,6942
7892,6949
7891,6955
7890,6958
7890,6960
7890,6961
" style="stroke:#000000;stroke-width:7;
stroke-linejoin:bevel; stroke-linecap:round;
"/>
<!-- Line -->
<!--  spline  -->
<polyline points="7890,6961
7890,6964
7891,6967
7891,6970
7891,6973
7892,6977
7893,6981
7894,6986
7895,6990
7896,6992
7896,6993
7896,6994
7897,6995
7899,6995
7901,6994
7902,6993
7903,6993
7904,6991
7905,6988
7907,6981
7910,6970
7912,6958
7914,6948
7916,6938
7917,6933
7917,6932
7917,6930
7919,6922
7923,6907
7926,6892
7928,6884
7928,6882
7928,6881
7929,6879
7931,6875
7933,6871
7936,6869
7938,6869
7939,6870
7939,6871
7939,6872
7940,6874
7941,6878
7942,6883
7943,6885
7943,6887
7943,6889
7944,6894
7945,6898
7945,6900
7945,6901
7945,6902
7945,6905
7946,6908
7946,6911
7946,6914
7947,6918
7948,6922
7949,6927
7950,6931
7951,6933
7951,6934
7951,6935
7952,6936
7954,6936
7956,6935
7957,6934
7958,6934
7959,6931
7962,6923
7965,6912
7968,6900
7970,6889
7972,6879
7973,6874
7973,6873
7973,6871
7975,6863
7978,6848
7981,6833
7983,6825
7983,6823
7983,6822
7984,6820
7986,6816
7988,6812
7991,6810
7993,6810
7994,6811
7994,6812
7994,6813
7995,6815
7996,6819
7997,6824
7998,6827
7998,6828
7998,6831
7999,6836
8000,6840
8000,6842
8000,6843
8000,6844
8000,6847
8001,6850
8001,6853
8001,6856
8002,6860
8003,6864
8004,6869
8005,6873
8006,6875
8006,6876
8006,6877
8007,6878
8009,6878
8011,6877
8012,6876
8013,6876
8014,6873
8017,6865
8020,6854
8023,6842
8025,6831
8027,6821
8028,6816
8028,6815
8028,6813
8030,6805
8033,6790
8036,6775
8038,6767
8038,6765
8038,6764
8039,6762
8041,6758
8043,6754
8046,6752
8048,6752
8049,6753
8049,6754
8049,6755
8050,6757
8051,6761
8052,6766
8053,6768
8053,6770
8053,6772
8054,6777
8055,6781
8055,6784
8055,6785
8055,6786
" style="stroke:#000000;stroke-width:7;
stroke-linejoin:bevel; stroke-linecap:round;
"/>
<!-- Line -->
<!--  spline  -->
<polyline points="8052,6789
8052,6790
8051,6793
8051,6797
8050,6800
8050,6801
8050,6802
8050,6805
8049,6810
8048,6816
8046,6825
8044,6833
8043,6837
8042,6839
8041,6842
8039,6847
8038,6848
8038,6849
8037,6850
8037,6851
8036,6851
8036,6852
8036,6853
8035,6853
8035,6854
8034,6853
8033,6852
8033,6851
8032,6850
8029,6843
8028,6834
8026,6825
8025,6819
8025,6818
8025,6816
8023,6808
8020,6797
8018,6789
8018,6787
8017,6787
8017,6786
8016,6786
8015,6786
8014,6786
8013,6786
8012,6787
8011,6788
8010,6790
8008,6795
8007,6798
8007,6800
8006,6803
8004,6811
8002,6819
8001,6823
8001,6825
8000,6829
7999,6836
7998,6842
7997,6845
7997,6846
7997,6847
7997,6848
7996,6851
7996,6855
7995,6858
7995,6859
7995,6860
7994,6863
7993,6868
7992,6874
7990,6883
7988,6891
7987,6895
7987,6897
7986,6900
7984,6905
7983,6906
7983,6907
7982,6908
7981,6909
7981,6910
7980,6910
7980,6911
7979,6911
7978,6910
7977,6909
7977,6908
7976,6907
7974,6900
7972,6891
7971,6883
7970,6877
7970,6876
7970,6874
7968,6866
7965,6855
7963,6847
7963,6845
7962,6844
7961,6844
7960,6844
7959,6844
7958,6844
7957,6845
7956,6846
7955,6848
7953,6853
7952,6856
7952,6858
7951,6862
7949,6870
7947,6878
7946,6882
7946,6884
7945,6887
7944,6894
7943,6900
7942,6903
7942,6905
7942,6906
7942,6907
7941,6909
7941,6914
7940,6916
7940,6917
7940,6918
7939,6921
7938,6927
7937,6933
7935,6942
7933,6950
7932,6953
7932,6955
7931,6958
7929,6963
7928,6964
7928,6965
7927,6966
7926,6967
7926,6968
7925,6968
7925,6969
7924,6969
7923,6969
7922,6968
7922,6967
7921,6966
7918,6959
7916,6950
7915,6942
7914,6936
7914,6935
7914,6933
7912,6925
7910,6913
7908,6905
7908,6903
7907,6902
7906,6902
7905,6902
7904,6902
7903,6902
7902,6903
7901,6904
7900,6906
7898,6911
7897,6914
7897,6916
7896,6920
7894,6928
7892,6936
7891,6940
7891,6942
7890,6945
7889,6952
7888,6958
7887,6961
7887,6963
7887,6964
" style="stroke:#ffffff;stroke-width:7;
stroke-linejoin:bevel; stroke-linecap:round;
"/>
<!-- Line -->
<!--  spline  -->
<polyline points="7887,6964
7887,6967
7888,6970
7888,6973
7888,6976
7889,6980
7890,6984
7891,6989
7892,6993
7893,6995
7893,6996
7893,6997
7894,6998
7896,6998
7898,6997
7899,6996
7900,6996
7901,6994
7902,6991
7904,6984
7907,6973
7909,6961
7911,6951
7913,6941
7914,6936
7914,6935
7914,6933
7916,6925
7920,6910
7923,6895
7925,6887
7925,6885
7925,6884
7926,6882
7928,6878
7930,6874
7933,6872
7935,6872
7936,6873
7936,6874
7936,6875
7937,6877
7938,6881
7939,6886
7940,6888
7940,6890
7940,6892
7941,6897
7942,6901
7942,6903
7942,6904
7942,6905
7942,6908
7943,6911
7943,6914
7943,6917
7944,6921
7945,6925
7946,6930
7947,6934
7948,6936
7948,6937
7948,6938
7949,6939
7951,6939
7953,6938
7954,6937
7955,6937
7956,6934
7959,6926
7962,6915
7965,6903
7967,6892
7969,6882
7970,6877
7970,6876
7970,6874
7972,6866
7975,6851
7978,6836
7980,6828
7980,6826
7980,6825
7981,6823
7983,6819
7985,6815
7988,6813
7990,6814
7991,6815
7991,6816
7992,6819
7993,6823
7994,6828
7995,6830
7995,6832
7995,6834
7996,6839
7997,6843
7997,6846
7997,6847
7997,6848
7997,6850
7998,6854
7998,6856
7998,6859
7999,6863
8000,6867
8001,6872
8002,6876
8003,6878
8003,6879
8003,6880
8004,6881
8006,6881
8008,6880
8009,6879
8010,6879
8011,6876
8014,6868
8017,6857
8020,6845
8022,6834
8024,6824
8025,6819
8025,6818
8025,6816
8027,6808
8030,6793
8033,6778
8035,6770
8035,6768
8035,6767
8036,6765
8038,6761
8040,6757
8043,6755
8045,6755
8046,6756
8046,6757
8046,6758
8047,6760
8048,6764
8049,6769
8050,6771
8050,6773
8050,6775
8051,6780
8052,6784
8052,6787
8052,6788
8052,6789
" style="stroke:#ffffff;stroke-width:7;
stroke-linejoin:bevel; stroke-linecap:round;
"/>
<!-- Line -->
<!--  polyline  -->
<polyline points="7706,6690
7683,6688
7757,6669
7789,6695
7765,6693
7761,6693
7721,6721
7667,6722
7710,6690
7706,6690
" style="stroke:#ffffff;stroke-width:0;
stroke-linejoin:miter; stroke-linecap:butt;
fill:#ffffff;
"/>
<!-- Line -->
<!--  polyline  -->
<polyline points="7649,6802
7671,6803
7598,6822
7566,6797
7589,6798
7594,6798
7634,6770
7688,6770
7645,6801
7649,6802
" style="stroke:#ffffff;stroke-width:0;
stroke-linejoin:miter; stroke-linecap:butt;
fill:#ffffff;
"/>
<!-- Line -->
<!--  polyline  -->
<polyline points="7539,6748
7452,6748
7478,6725
7565,6725
7577,6712
7617,6741
7516,6769
7539,6748
" style="stroke:#ffffff;stroke-width:0;
stroke-linejoin:miter; stroke-linecap:butt;
fill:#ffffff;
"/>
<!-- Line -->
<!--  polyline  -->
<polyline points="7813,6737
7900,6737
7875,6759
7787,6759
7776,6772
7735,6744
7836,6715
7813,6737
" style="stroke:#ffffff;stroke-width:0;
stroke-linejoin:miter; stroke-linecap:butt;
fill:#ffffff;
"/>
</g>
</svg>
