<?xml version="1.0" standalone="no"?>
<!DOCTYPE svg PUBLIC "-//W3C//DTD SVG 1.1//EN"
"http://www.w3.org/Graphics/SVG/1.1/DTD/svg11.dtd">
<!-- Creator: fig2dev Version 3.2 Patchlevel 5c -->
<!-- CreationDate: Fri Sep 14 10:46:34 2012 -->
<!-- Magnification: 1.000 -->
<svg xmlns="http://www.w3.org/2000/svg" width="0.5in" height="0.4in" viewBox="-9 12777 629 432">
<g style="stroke-width:.025in; fill:none">
<!-- Line -->
<!--  spline  -->
<polyline points="608,12907
608,12908
605,12914
600,12926
595,12937
592,12943
592,12944
592,12945
589,12947
584,12953
576,12959
566,12967
550,12976
537,12983
528,12987
523,12989
520,12990
518,12991
512,12993
501,12997
484,13002
466,13007
454,13010
448,13011
445,13012
442,13012
435,13013
421,13015
401,13018
379,13020
361,13022
345,13023
331,13023
319,13024
311,13024
307,13024
306,13024
305,13024
297,13023
281,13022
258,13021
235,13020
219,13019
211,13018
210,13018
209,13018
206,13017
198,13016
188,13015
175,13013
161,13010
145,13007
127,13002
110,12997
99,12993
94,12991
91,12990
89,12989
84,12987
75,12983
62,12976
47,12967
39,12963
36,12961
34,12959
29,12954
19,12944
11,12933
7,12924
4,12917
3,12911
3,12908
3,12907
3,12908
3,12912
3,12923
3,12941
3,12965
3,12993
3,13021
3,13045
3,13063
3,13074
3,13078
3,13079
3,13080
6,13086
11,13098
16,13109
19,13115
19,13116
19,13117
22,13120
28,13125
35,13132
46,13140
62,13149
75,13156
84,13160
89,13162
91,13163
94,13164
99,13165
110,13169
127,13174
145,13179
157,13182
163,13183
166,13184
169,13185
176,13186
190,13188
210,13191
232,13193
251,13195
267,13196
281,13197
293,13197
301,13197
305,13197
306,13197
307,13197
315,13196
331,13195
354,13194
376,13193
392,13192
400,13191
401,13191
402,13191
405,13190
413,13189
423,13188
436,13185
450,13182
466,13179
484,13174
501,13169
512,13165
518,13164
520,13163
523,13162
528,13160
537,13156
550,13149
565,13140
573,13135
575,13133
577,13131
583,13126
592,13116
600,13105
604,13096
606,13089
608,13083
608,13080
608,13079
608,13078
608,13074
608,13063
608,13045
608,13021
608,12993
608,12965
608,12941
608,12923
608,12912
608,12908
608,12907
" style="stroke:#026c9b;stroke-width:0;
stroke-linejoin:bevel; stroke-linecap:butt;
fill:#026c9b;
"/>
<!-- Line -->
<!--  spline  -->
<polyline points="608,12907
608,12908
605,12914
600,12926
595,12937
592,12943
592,12944
592,12945
589,12947
584,12953
576,12959
566,12967
550,12976
537,12983
528,12987
523,12989
520,12990
518,12991
512,12993
501,12997
484,13002
466,13007
454,13010
448,13011
445,13012
442,13012
435,13013
421,13015
401,13018
379,13020
361,13022
345,13023
331,13023
319,13024
311,13024
307,13024
306,13024
305,13024
297,13023
281,13022
258,13021
235,13020
219,13019
211,13018
210,13018
209,13018
206,13017
198,13016
188,13015
175,13013
161,13010
145,13007
127,13002
110,12997
99,12993
94,12991
91,12990
89,12989
84,12987
75,12983
62,12976
47,12967
39,12963
36,12961
34,12959
29,12954
19,12944
11,12933
7,12924
4,12917
3,12911
3,12908
3,12907
3,12908
3,12912
3,12923
3,12941
3,12965
3,12993
3,13021
3,13045
3,13063
3,13074
3,13078
3,13079
3,13080
6,13086
11,13098
16,13109
19,13115
19,13116
19,13117
22,13120
28,13125
35,13132
46,13140
62,13149
75,13156
84,13160
89,13162
91,13163
94,13164
99,13165
110,13169
127,13174
145,13179
157,13182
163,13183
166,13184
169,13185
176,13186
190,13188
210,13191
232,13193
251,13195
267,13196
281,13197
293,13197
301,13197
305,13197
306,13197
307,13197
315,13196
331,13195
354,13194
376,13193
392,13192
400,13191
401,13191
402,13191
405,13190
413,13189
423,13188
436,13185
450,13182
466,13179
484,13174
501,13169
512,13165
518,13164
520,13163
523,13162
528,13160
537,13156
550,13149
565,13140
573,13135
575,13133
577,13131
583,13126
592,13116
600,13105
604,13096
606,13089
608,13083
608,13080
608,13079
608,13078
608,13074
608,13063
608,13045
608,13021
608,12993
608,12965
608,12941
608,12923
608,12912
608,12908
608,12907
" style="stroke:#ffffff;stroke-width:7;
stroke-linejoin:bevel; stroke-linecap:butt;
"/>
<!-- Line -->
<!--  spline  -->
<polyline points="608,12907
608,12908
605,12914
600,12926
595,12937
592,12943
592,12944
592,12945
589,12947
584,12953
576,12959
566,12967
550,12976
537,12983
528,12987
523,12989
520,12990
518,12991
512,12993
501,12997
484,13002
466,13007
454,13010
448,13011
445,13012
442,13012
435,13013
421,13015
401,13018
379,13020
361,13022
345,13023
331,13023
319,13024
311,13024
307,13024
306,13024
305,13024
297,13023
281,13022
258,13021
235,13020
219,13019
211,13018
210,13018
209,13018
206,13017
198,13016
188,13015
175,13013
161,13010
145,13007
127,13002
110,12997
99,12993
94,12991
91,12990
89,12989
84,12987
75,12983
62,12976
47,12967
39,12963
36,12961
34,12959
29,12954
19,12944
11,12933
7,12924
4,12917
3,12911
3,12908
3,12907
3,12908
3,12912
3,12923
3,12941
3,12965
3,12993
3,13021
3,13045
3,13063
3,13074
3,13078
3,13079
3,13080
6,13086
11,13098
16,13109
19,13115
19,13116
19,13117
22,13120
28,13125
35,13132
46,13140
62,13149
75,13156
84,13160
89,13162
91,13163
94,13164
99,13165
110,13169
127,13174
145,13179
157,13182
163,13183
166,13184
169,13185
176,13186
190,13188
210,13191
232,13193
251,13195
267,13196
281,13197
293,13197
301,13197
305,13197
306,13197
307,13197
315,13196
331,13195
354,13194
376,13193
392,13192
400,13191
401,13191
402,13191
405,13190
413,13189
423,13188
436,13185
450,13182
466,13179
484,13174
501,13169
512,13165
518,13164
520,13163
523,13162
528,13160
537,13156
550,13149
565,13140
573,13135
575,13133
577,13131
583,13126
592,13116
600,13105
604,13096
606,13089
608,13083
608,13080
608,13079
608,13078
608,13074
608,13063
608,13045
608,13021
608,12993
608,12965
608,12941
608,12923
608,12912
608,12908
608,12907
" style="stroke:#026c9b;stroke-width:0;
stroke-linejoin:bevel; stroke-linecap:butt;
fill:#026c9b;
"/>
<!-- Line -->
<!--  spline  -->
<polyline points="608,12907
608,12908
605,12914
600,12926
595,12937
592,12943
592,12944
592,12945
589,12947
584,12953
576,12959
566,12967
550,12976
537,12983
528,12987
523,12989
520,12990
518,12991
512,12993
501,12997
484,13002
466,13007
454,13010
448,13011
445,13012
442,13012
435,13013
421,13015
401,13018
379,13020
361,13022
345,13023
331,13023
319,13024
311,13024
307,13024
306,13024
305,13024
297,13023
281,13022
258,13021
235,13020
219,13019
211,13018
210,13018
209,13018
206,13017
198,13016
188,13015
175,13013
161,13010
145,13007
127,13002
110,12997
99,12993
94,12991
91,12990
89,12989
84,12987
75,12983
62,12976
47,12967
39,12963
36,12961
34,12959
29,12954
19,12944
11,12933
7,12924
4,12917
3,12911
3,12908
3,12907
3,12908
3,12912
3,12923
3,12941
3,12965
3,12993
3,13021
3,13045
3,13063
3,13074
3,13078
3,13079
3,13080
6,13086
11,13098
16,13109
19,13115
19,13116
19,13117
22,13120
28,13125
35,13132
46,13140
62,13149
75,13156
84,13160
89,13162
91,13163
94,13164
99,13165
110,13169
127,13174
145,13179
157,13182
163,13183
166,13184
169,13185
176,13186
190,13188
210,13191
232,13193
251,13195
267,13196
281,13197
293,13197
301,13197
305,13197
306,13197
307,13197
315,13196
331,13195
354,13194
376,13193
392,13192
400,13191
401,13191
402,13191
405,13190
413,13189
423,13188
436,13185
450,13182
466,13179
484,13174
501,13169
512,13165
518,13164
520,13163
523,13162
528,13160
537,13156
550,13149
565,13140
573,13135
575,13133
577,13131
583,13126
592,13116
600,13105
604,13096
606,13089
608,13083
608,13080
608,13079
608,13078
608,13074
608,13063
608,13045
608,13021
608,12993
608,12965
608,12941
608,12923
608,12912
608,12908
608,12907
" style="stroke:#ffffff;stroke-width:7;
stroke-linejoin:bevel; stroke-linecap:butt;
"/>
<!-- Line -->
<!--  spline  -->
<polyline points="306,13024
307,13024
315,13023
331,13022
354,13021
376,13020
392,13019
400,13018
401,13018
402,13018
405,13017
413,13016
423,13015
436,13013
450,13010
466,13007
484,13002
501,12997
512,12993
518,12991
520,12990
523,12989
528,12987
537,12983
550,12976
565,12967
573,12963
575,12961
577,12959
583,12954
592,12944
600,12933
604,12924
606,12917
608,12911
608,12908
608,12907
608,12906
605,12900
600,12888
595,12877
592,12871
592,12870
592,12869
589,12867
584,12861
576,12855
566,12847
550,12838
537,12831
528,12827
523,12825
520,12824
518,12823
512,12821
501,12817
484,12812
466,12807
454,12804
448,12803
445,12802
442,12801
435,12800
421,12798
401,12795
379,12793
361,12791
345,12790
331,12789
319,12789
311,12789
307,12789
306,12789
305,12789
297,12790
281,12791
258,12792
235,12793
219,12794
211,12795
210,12795
209,12795
206,12796
198,12797
188,12798
175,12801
161,12803
145,12807
127,12812
110,12817
99,12821
94,12823
91,12824
89,12825
84,12827
75,12831
62,12838
47,12847
39,12851
36,12853
34,12855
29,12860
19,12870
11,12881
7,12890
4,12897
3,12903
3,12906
3,12907
3,12908
6,12914
11,12926
16,12937
19,12943
19,12944
19,12945
22,12947
28,12953
35,12959
46,12967
62,12976
75,12983
84,12987
89,12989
91,12990
94,12991
99,12993
110,12997
127,13002
145,13007
157,13010
163,13011
166,13012
169,13012
176,13013
190,13015
210,13018
232,13020
251,13022
267,13023
281,13023
293,13024
301,13024
305,13024
306,13024
" style="stroke:#026c9b;stroke-width:0;
stroke-linejoin:bevel; stroke-linecap:butt;
fill:#026c9b;
"/>
<!-- Line -->
<!--  spline  -->
<polyline points="306,13024
307,13024
315,13023
331,13022
354,13021
376,13020
392,13019
400,13018
401,13018
402,13018
405,13017
413,13016
423,13015
436,13013
450,13010
466,13007
484,13002
501,12997
512,12993
518,12991
520,12990
523,12989
528,12987
537,12983
550,12976
565,12967
573,12963
575,12961
577,12959
583,12954
592,12944
600,12933
604,12924
606,12917
608,12911
608,12908
608,12907
608,12906
605,12900
600,12888
595,12877
592,12871
592,12870
592,12869
589,12867
584,12861
576,12855
566,12847
550,12838
537,12831
528,12827
523,12825
520,12824
518,12823
512,12821
501,12817
484,12812
466,12807
454,12804
448,12803
445,12802
442,12801
435,12800
421,12798
401,12795
379,12793
361,12791
345,12790
331,12789
319,12789
311,12789
307,12789
306,12789
305,12789
297,12790
281,12791
258,12792
235,12793
219,12794
211,12795
210,12795
209,12795
206,12796
198,12797
188,12798
175,12801
161,12803
145,12807
127,12812
110,12817
99,12821
94,12823
91,12824
89,12825
84,12827
75,12831
62,12838
47,12847
39,12851
36,12853
34,12855
29,12860
19,12870
11,12881
7,12890
4,12897
3,12903
3,12906
3,12907
3,12908
6,12914
11,12926
16,12937
19,12943
19,12944
19,12945
22,12947
28,12953
35,12959
46,12967
62,12976
75,12983
84,12987
89,12989
91,12990
94,12991
99,12993
110,12997
127,13002
145,13007
157,13010
163,13011
166,13012
169,13012
176,13013
190,13015
210,13018
232,13020
251,13022
267,13023
281,13023
293,13024
301,13024
305,13024
306,13024
" style="stroke:#ffffff;stroke-width:7;
stroke-linejoin:bevel; stroke-linecap:butt;
"/>
<!-- Line -->
<!--  polyline  -->
<polyline points="443,12942
509,12966
444,12997
443,12979
115,12978
114,12954
443,12953
443,12942
" style="stroke:#026c9b;stroke-width:0;
stroke-linejoin:miter; stroke-linecap:butt;
fill:#026c9b;
"/>
<!-- Line -->
<!--  spline  -->
<polyline points="180,12874
181,12874
185,12874
190,12874
194,12874
195,12874
195,12875
196,12880
198,12887
199,12892
199,12893
200,12895
200,12898
201,12901
202,12905
203,12908
203,12910
203,12911
204,12914
204,12916
205,12917
205,12919
205,12921
206,12922
206,12923
206,12924
206,12922
207,12921
207,12919
207,12918
207,12917
208,12915
208,12913
208,12911
208,12910
208,12909
208,12908
209,12905
210,12901
210,12900
210,12899
211,12897
212,12892
213,12886
214,12881
215,12877
215,12875
215,12874
216,12874
220,12874
225,12874
229,12874
230,12874
230,12875
231,12880
233,12887
234,12892
234,12893
235,12895
235,12898
236,12901
237,12905
238,12908
238,12909
238,12910
238,12911
238,12913
238,12915
238,12916
239,12916
239,12917
239,12919
239,12921
240,12922
240,12923
240,12924
240,12923
241,12921
241,12920
241,12919
241,12918
242,12916
242,12914
243,12912
243,12911
243,12910
243,12909
244,12906
245,12902
245,12901
245,12900
246,12898
247,12893
248,12887
249,12882
250,12877
251,12875
251,12874
252,12874
256,12874
261,12874
265,12874
266,12874
266,12875
264,12880
261,12892
257,12908
252,12924
249,12936
247,12941
247,12942
246,12942
243,12942
237,12942
234,12942
233,12942
233,12941
232,12937
231,12930
230,12926
230,12925
229,12923
229,12920
228,12917
227,12913
226,12910
226,12908
226,12907
226,12904
225,12901
225,12900
225,12899
224,12896
224,12893
223,12891
223,12890
223,12889
222,12891
222,12894
221,12896
221,12897
221,12898
220,12900
220,12903
219,12906
219,12907
219,12909
218,12912
217,12916
217,12917
217,12919
216,12924
215,12930
214,12935
213,12939
212,12941
212,12942
211,12942
208,12942
203,12942
200,12942
199,12942
199,12941
197,12936
194,12924
190,12908
185,12892
182,12880
180,12875
180,12874
" style="stroke:#ffffff;stroke-width:0;
stroke-linejoin:bevel; stroke-linecap:butt;
fill:#ffffff;
"/>
<!-- Line -->
<!--  spline  -->
<polyline points="269,12874
270,12874
274,12874
279,12874
283,12874
284,12874
284,12875
285,12880
287,12887
288,12892
288,12893
289,12895
289,12898
290,12901
291,12905
292,12908
292,12910
292,12911
293,12914
293,12916
294,12917
294,12919
294,12921
294,12922
294,12923
294,12924
295,12924
295,12922
295,12921
295,12919
295,12918
295,12917
296,12915
296,12913
297,12911
297,12910
297,12909
297,12908
298,12905
299,12901
299,12900
299,12899
299,12897
300,12892
301,12886
302,12881
303,12877
304,12875
304,12874
305,12874
309,12874
314,12874
318,12874
319,12874
319,12875
320,12880
322,12887
323,12892
323,12893
323,12895
324,12898
324,12901
325,12905
326,12908
326,12909
326,12910
326,12911
327,12913
327,12915
328,12916
328,12917
328,12919
328,12921
329,12922
329,12923
329,12924
329,12923
330,12921
330,12920
330,12919
330,12918
331,12916
331,12914
332,12912
332,12911
332,12910
332,12909
333,12906
334,12902
334,12901
334,12900
335,12898
336,12893
337,12887
338,12882
339,12877
340,12875
340,12874
341,12874
344,12874
350,12874
353,12874
354,12874
354,12875
352,12880
349,12892
345,12908
340,12924
337,12936
335,12941
335,12942
334,12942
331,12942
326,12942
323,12942
322,12942
322,12941
321,12937
319,12930
318,12926
318,12925
318,12923
317,12920
317,12917
316,12913
315,12910
315,12908
315,12907
314,12904
314,12901
313,12900
314,12900
313,12899
313,12896
312,12893
312,12891
311,12890
311,12889
311,12891
310,12894
310,12896
310,12897
310,12898
309,12900
309,12903
308,12906
308,12907
308,12909
307,12912
306,12916
306,12917
305,12917
305,12919
304,12924
303,12930
302,12935
301,12939
301,12941
301,12942
300,12942
297,12942
292,12942
289,12942
288,12942
288,12941
286,12936
283,12924
279,12908
274,12892
271,12880
269,12875
269,12874
" style="stroke:#ffffff;stroke-width:0;
stroke-linejoin:bevel; stroke-linecap:butt;
fill:#ffffff;
"/>
<!-- Line -->
<!--  spline  -->
<polyline points="357,12874
358,12874
362,12874
367,12874
371,12874
372,12874
372,12875
373,12880
375,12887
376,12892
376,12893
377,12895
377,12898
378,12901
379,12905
380,12908
380,12910
380,12911
381,12914
381,12916
382,12917
382,12919
382,12921
383,12922
383,12923
383,12924
383,12922
384,12921
384,12919
384,12918
384,12917
385,12915
385,12913
385,12911
385,12910
385,12909
385,12908
386,12905
387,12901
387,12900
387,12899
388,12897
389,12892
390,12886
391,12881
392,12877
392,12875
392,12874
393,12874
397,12874
402,12874
406,12874
407,12874
407,12875
408,12880
410,12887
411,12892
411,12893
412,12895
412,12898
413,12901
414,12905
415,12908
415,12909
415,12910
415,12911
415,12913
416,12915
416,12916
417,12917
417,12919
417,12921
417,12922
417,12923
417,12924
418,12924
418,12923
418,12921
418,12920
418,12919
418,12918
419,12916
419,12914
420,12912
420,12911
420,12910
420,12909
421,12906
422,12902
422,12901
422,12900
423,12898
424,12893
426,12887
427,12882
428,12877
429,12875
429,12874
430,12874
433,12874
439,12874
442,12874
443,12874
443,12875
441,12880
438,12892
434,12908
429,12924
426,12936
424,12941
424,12942
423,12942
420,12942
414,12942
411,12942
410,12942
410,12941
409,12937
408,12930
407,12926
407,12925
406,12923
406,12920
405,12917
404,12913
403,12910
403,12908
403,12907
403,12904
402,12901
402,12900
402,12899
401,12896
401,12893
400,12891
400,12890
400,12889
400,12891
399,12894
399,12896
399,12897
398,12898
398,12900
397,12903
397,12906
397,12907
397,12909
396,12912
395,12916
395,12917
394,12919
393,12924
392,12930
391,12935
390,12939
389,12941
389,12942
388,12942
385,12942
380,12942
377,12942
376,12942
376,12941
374,12936
371,12924
367,12908
362,12892
359,12880
357,12875
357,12874
" style="stroke:#ffffff;stroke-width:0;
stroke-linejoin:bevel; stroke-linecap:butt;
fill:#ffffff;
"/>
</g>
</svg>
