<?xml version="1.0" standalone="no"?>
<!DOCTYPE svg PUBLIC "-//W3C//DTD SVG 1.1//EN"
"http://www.w3.org/Graphics/SVG/1.1/DTD/svg11.dtd">
<!-- Creator: fig2dev Version 3.2 Patchlevel 5c -->
<!-- CreationDate: Fri Sep 14 10:46:34 2012 -->
<!-- Magnification: 1.000 -->
<svg xmlns="http://www.w3.org/2000/svg" width="0.5in" height="0.6in" viewBox="-10 12447 637 762">
<g style="stroke-width:.025in; fill:none">
<!-- Line -->
<!--  spline  -->
<polyline points="162,12557
164,12560
168,12567
175,12580
185,12598
198,12621
214,12649
231,12679
247,12709
263,12737
276,12760
286,12778
293,12791
297,12798
299,12801
299,12802
301,12807
304,12816
306,12821
306,12822
306,12823
307,12825
307,12830
307,12836
307,12844
306,12851
305,12854
305,12855
304,12858
301,12865
298,12871
296,12874
296,12875
294,12877
289,12883
283,12889
278,12892
274,12895
272,12897
271,12897
270,12897
265,12899
256,12903
251,12905
250,12905
249,12905
247,12906
242,12906
236,12906
228,12906
221,12905
218,12904
217,12904
214,12903
207,12900
201,12897
198,12895
197,12895
195,12893
189,12888
183,12882
180,12877
177,12873
175,12871
175,12870
173,12867
169,12860
163,12848
153,12830
140,12807
125,12780
108,12750
91,12720
76,12693
63,12670
53,12652
47,12640
43,12633
41,12630
" style="stroke:#02709f;stroke-width:0;
stroke-linejoin:bevel; stroke-linecap:butt;
fill:#02709f;
"/>
<!-- Line -->
<!--  spline  -->
<polyline points="162,12557
164,12560
168,12567
175,12580
185,12598
198,12621
214,12649
231,12679
247,12709
263,12737
276,12760
286,12778
293,12791
297,12798
299,12801
299,12802
301,12807
304,12816
306,12821
306,12822
306,12823
307,12825
307,12830
307,12836
307,12844
306,12851
305,12854
305,12855
304,12858
301,12865
298,12871
296,12874
296,12875
294,12877
289,12883
283,12889
278,12892
274,12895
272,12897
271,12897
270,12897
265,12899
256,12903
251,12905
250,12905
249,12905
247,12906
242,12906
236,12906
228,12906
221,12905
218,12904
217,12904
214,12903
207,12900
201,12897
198,12895
197,12895
195,12893
189,12888
183,12882
180,12877
177,12873
175,12871
175,12870
173,12867
169,12860
163,12848
153,12830
140,12807
125,12780
108,12750
91,12720
76,12693
63,12670
53,12652
47,12640
43,12633
41,12630
" style="stroke:#ffffff;stroke-width:7;
stroke-linejoin:bevel; stroke-linecap:butt;
"/>
<!-- Line -->
<!--  spline  -->
<polyline points="162,12557
164,12560
168,12567
175,12580
185,12598
198,12621
214,12649
231,12679
247,12709
263,12737
276,12760
286,12778
293,12791
297,12798
299,12801
299,12802
301,12807
304,12816
306,12821
306,12822
306,12823
307,12825
307,12830
307,12836
307,12844
306,12851
305,12854
305,12855
304,12858
301,12865
298,12871
296,12874
296,12875
294,12877
289,12883
283,12889
278,12892
274,12895
272,12897
271,12897
270,12897
265,12899
256,12903
251,12905
250,12905
249,12905
247,12906
242,12906
236,12906
228,12906
221,12905
218,12904
217,12904
214,12903
207,12900
201,12897
198,12895
197,12895
195,12893
189,12888
183,12882
180,12877
177,12873
175,12871
175,12870
173,12867
169,12860
163,12848
153,12830
140,12807
125,12780
108,12750
91,12720
76,12693
63,12670
53,12652
47,12640
43,12633
41,12630
" style="stroke:#02709f;stroke-width:0;
stroke-linejoin:bevel; stroke-linecap:butt;
fill:#02709f;
"/>
<!-- Line -->
<!--  spline  -->
<polyline points="162,12557
164,12560
168,12567
175,12580
185,12598
198,12621
214,12649
231,12679
247,12709
263,12737
276,12760
286,12778
293,12791
297,12798
299,12801
299,12802
301,12807
304,12816
306,12821
306,12822
306,12823
307,12825
307,12830
307,12836
307,12844
306,12851
305,12854
305,12855
304,12858
301,12865
298,12871
296,12874
296,12875
294,12877
289,12883
283,12889
278,12892
274,12895
272,12897
271,12897
270,12897
265,12899
256,12903
251,12905
250,12905
249,12905
247,12906
242,12906
236,12906
228,12906
221,12905
218,12904
217,12904
214,12903
207,12900
201,12897
198,12895
197,12895
195,12893
189,12888
183,12882
180,12877
177,12873
175,12871
175,12870
173,12867
169,12860
163,12848
153,12830
140,12807
125,12780
108,12750
91,12720
76,12693
63,12670
53,12652
47,12640
43,12633
41,12630
" style="stroke:#ffffff;stroke-width:7;
stroke-linejoin:bevel; stroke-linecap:butt;
"/>
<!-- Line -->
<!--  spline  -->
<polyline points="205,13197
203,13197
193,13196
175,13195
157,13195
147,13194
145,13194
144,13194
139,13193
131,13192
120,13190
108,13188
93,13185
80,13182
73,13180
71,13180
69,13179
63,13177
53,13173
42,13168
38,13166
36,13164
33,13162
26,13156
20,13150
18,13145
16,13141
16,13138
17,13137
19,13132
23,13125
25,13120
26,13119
27,13119
29,13116
34,13113
42,13108
53,13103
63,13099
69,13097
71,13096
73,13095
80,13093
93,13090
107,13087
114,13086
117,13085
120,13085
129,13084
145,13082
163,13081
177,13080
189,13079
199,13079
204,13079
205,13079
207,13079
217,13080
235,13081
252,13081
262,13082
264,13082
265,13082
270,13083
278,13084
289,13085
301,13087
316,13090
329,13093
336,13095
339,13096
341,13097
347,13099
357,13103
368,13108
372,13110
374,13111
377,13113
384,13119
389,13126
392,13131
393,13135
393,13137
393,13138
393,13139
390,13144
387,13150
384,13155
384,13156
383,13156
381,13159
376,13163
369,13167
357,13173
347,13177
341,13179
339,13180
336,13180
329,13182
316,13185
302,13188
294,13190
291,13190
288,13191
280,13192
264,13194
246,13196
232,13196
220,13197
211,13197
206,13197
205,13197
" style="stroke:#02709f;stroke-width:0;
stroke-linejoin:bevel; stroke-linecap:butt;
fill:#02709f;
"/>
<!-- Line -->
<!--  spline  -->
<polyline points="205,13197
203,13197
193,13196
175,13195
157,13195
147,13194
145,13194
144,13194
139,13193
131,13192
120,13190
108,13188
93,13185
80,13182
73,13180
71,13180
69,13179
63,13177
53,13173
42,13168
38,13166
36,13164
33,13162
26,13156
20,13150
18,13145
16,13141
16,13138
17,13137
19,13132
23,13125
25,13120
26,13119
27,13119
29,13116
34,13113
42,13108
53,13103
63,13099
69,13097
71,13096
73,13095
80,13093
93,13090
107,13087
114,13086
117,13085
120,13085
129,13084
145,13082
163,13081
177,13080
189,13079
199,13079
204,13079
205,13079
207,13079
217,13080
235,13081
252,13081
262,13082
264,13082
265,13082
270,13083
278,13084
289,13085
301,13087
316,13090
329,13093
336,13095
339,13096
341,13097
347,13099
357,13103
368,13108
372,13110
374,13111
377,13113
384,13119
389,13126
392,13131
393,13135
393,13137
393,13138
393,13139
390,13144
387,13150
384,13155
384,13156
383,13156
381,13159
376,13163
369,13167
357,13173
347,13177
341,13179
339,13180
336,13180
329,13182
316,13185
302,13188
294,13190
291,13190
288,13191
280,13192
264,13194
246,13196
232,13196
220,13197
211,13197
206,13197
205,13197
" style="stroke:#ffffff;stroke-width:7;
stroke-linejoin:bevel; stroke-linecap:butt;
"/>
<!-- Line -->
<!--  spline  -->
<polyline points="205,13124
203,13124
196,13123
184,13123
177,13122
175,13122
174,13122
171,13122
165,13121
158,13120
149,13118
142,13116
139,13115
137,13115
135,13113
129,13111
123,13108
121,13107
120,13107
118,13106
115,13103
112,13100
111,13097
111,13095
111,13094
112,13091
114,13088
115,13085
117,13084
119,13082
123,13080
129,13077
135,13075
137,13073
139,13073
142,13072
149,13070
157,13068
160,13068
162,13067
166,13067
175,13066
185,13065
194,13065
200,13065
204,13065
205,13065
207,13065
214,13065
226,13066
233,13066
235,13066
236,13066
239,13066
245,13067
252,13068
261,13070
268,13072
272,13073
273,13073
275,13075
281,13077
286,13080
288,13081
289,13081
291,13082
294,13085
297,13088
298,13091
299,13093
299,13094
297,13097
296,13100
294,13103
292,13104
290,13106
287,13108
281,13111
275,13113
273,13115
272,13115
268,13116
261,13118
253,13120
250,13120
248,13120
244,13121
235,13122
225,13123
216,13124
210,13124
206,13124
205,13124
" style="stroke:#02709f;stroke-width:0;
stroke-linejoin:bevel; stroke-linecap:butt;
fill:#02709f;
"/>
<!-- Line -->
<!--  spline  -->
<polyline points="205,13124
203,13124
196,13123
184,13123
177,13122
175,13122
174,13122
171,13122
165,13121
158,13120
149,13118
142,13116
139,13115
137,13115
135,13113
129,13111
123,13108
121,13107
120,13107
118,13106
115,13103
112,13100
111,13097
111,13095
111,13094
112,13091
114,13088
115,13085
117,13084
119,13082
123,13080
129,13077
135,13075
137,13073
139,13073
142,13072
149,13070
157,13068
160,13068
162,13067
166,13067
175,13066
185,13065
194,13065
200,13065
204,13065
205,13065
207,13065
214,13065
226,13066
233,13066
235,13066
236,13066
239,13066
245,13067
252,13068
261,13070
268,13072
272,13073
273,13073
275,13075
281,13077
286,13080
288,13081
289,13081
291,13082
294,13085
297,13088
298,13091
299,13093
299,13094
297,13097
296,13100
294,13103
292,13104
290,13106
287,13108
281,13111
275,13113
273,13115
272,13115
268,13116
261,13118
253,13120
250,13120
248,13120
244,13121
235,13122
225,13123
216,13124
210,13124
206,13124
205,13124
" style="stroke:#ffffff;stroke-width:7;
stroke-linejoin:bevel; stroke-linecap:butt;
"/>
<!-- Line -->
<!--  spline  -->
<polyline points="164,12559
164,12560
166,12565
169,12573
171,12578
171,12579
171,12582
172,12586
171,12591
170,12597
168,12602
167,12604
166,12605
165,12607
161,12612
157,12617
155,12619
154,12620
152,12622
147,12627
141,12632
136,12635
132,12637
130,12639
129,12639
128,12639
123,12642
114,12645
109,12648
108,12648
107,12648
105,12649
101,12651
95,12652
88,12653
82,12653
79,12654
78,12654
76,12653
70,12652
64,12650
62,12649
61,12649
59,12648
54,12644
49,12639
45,12635
42,12631
40,12629
40,12628
39,12627
35,12619
28,12606
21,12593
17,12585
16,12584
15,12581
13,12578
12,12575
12,12574
10,12568
6,12559
4,12553
4,12552
4,12551
3,12548
3,12543
2,12536
2,12527
3,12519
3,12515
3,12514
4,12511
6,12503
9,12495
10,12492
11,12491
13,12488
17,12481
22,12475
27,12471
31,12468
33,12466
34,12466
35,12466
41,12464
49,12461
55,12459
56,12459
57,12459
59,12459
64,12459
70,12459
78,12461
85,12463
89,12464
90,12465
93,12466
100,12470
107,12474
109,12476
110,12477
112,12479
118,12485
124,12491
128,12497
131,12501
133,12503
133,12504
134,12506
136,12509
137,12511
138,12512
142,12520
151,12535
159,12550
163,12558
164,12559
" style="stroke:#000000;stroke-width:0;
stroke-linejoin:bevel; stroke-linecap:butt;
fill:#000000;
"/>
<!-- Line -->
<!--  spline  -->
<polyline points="164,12559
164,12560
166,12565
169,12573
171,12578
171,12579
171,12582
172,12586
171,12591
170,12597
168,12602
167,12604
166,12605
165,12607
161,12612
157,12617
155,12619
154,12620
152,12622
147,12627
141,12632
136,12635
132,12637
130,12639
129,12639
128,12639
123,12642
114,12645
109,12648
108,12648
107,12648
105,12649
101,12651
95,12652
88,12653
82,12653
79,12654
78,12654
76,12653
70,12652
64,12650
62,12649
61,12649
59,12648
54,12644
49,12639
45,12635
42,12631
40,12629
40,12628
39,12627
35,12619
28,12606
21,12593
17,12585
16,12584
15,12581
13,12578
12,12575
12,12574
10,12568
6,12559
4,12553
4,12552
4,12551
3,12548
3,12543
2,12536
2,12527
3,12519
3,12515
3,12514
4,12511
6,12503
9,12495
10,12492
11,12491
13,12488
17,12481
22,12475
27,12471
31,12468
33,12466
34,12466
35,12466
41,12464
49,12461
55,12459
56,12459
57,12459
59,12459
64,12459
70,12459
78,12461
85,12463
89,12464
90,12465
93,12466
100,12470
107,12474
109,12476
110,12477
112,12479
118,12485
124,12491
128,12497
131,12501
133,12503
133,12504
134,12506
136,12509
137,12511
138,12512
142,12520
151,12535
159,12550
163,12558
164,12559
" style="stroke:#ffffff;stroke-width:7;
stroke-linejoin:bevel; stroke-linecap:butt;
"/>
<!-- Line -->
<!--  spline  -->
<polyline points="164,12559
164,12560
166,12565
169,12573
171,12578
171,12579
171,12582
172,12586
171,12591
170,12597
168,12602
167,12604
166,12605
165,12607
161,12612
157,12617
155,12619
154,12620
152,12622
147,12627
141,12632
136,12635
132,12637
130,12639
129,12639
128,12639
123,12642
114,12645
109,12648
108,12648
107,12648
105,12649
101,12651
95,12652
88,12653
82,12653
79,12654
78,12654
76,12653
70,12652
64,12650
62,12649
61,12649
59,12648
54,12644
49,12639
45,12635
42,12631
40,12629
40,12628
39,12627
35,12619
28,12606
21,12593
17,12585
16,12584
15,12581
13,12578
12,12575
12,12574
10,12568
6,12559
4,12553
4,12552
4,12551
3,12548
3,12543
2,12536
2,12527
3,12519
3,12515
3,12514
4,12511
6,12503
9,12495
10,12492
11,12491
13,12488
17,12481
22,12475
27,12471
31,12468
33,12466
34,12466
35,12466
41,12464
49,12461
55,12459
56,12459
57,12459
59,12459
64,12459
70,12459
78,12461
85,12463
89,12464
90,12465
93,12466
100,12470
107,12474
109,12476
110,12477
112,12479
118,12485
124,12491
128,12497
131,12501
133,12503
133,12504
134,12506
136,12509
137,12511
138,12512
142,12520
151,12535
159,12550
163,12558
164,12559
" style="stroke:#02709f;stroke-width:0;
stroke-linejoin:bevel; stroke-linecap:butt;
fill:#02709f;
"/>
<!-- Line -->
<!--  spline  -->
<polyline points="164,12559
164,12560
166,12565
169,12573
171,12578
171,12579
171,12582
172,12586
171,12591
170,12597
168,12602
167,12604
166,12605
165,12607
161,12612
157,12617
155,12619
154,12620
152,12622
147,12627
141,12632
136,12635
132,12637
130,12639
129,12639
128,12639
123,12642
114,12645
109,12648
108,12648
107,12648
105,12649
101,12651
95,12652
88,12653
82,12653
79,12654
78,12654
76,12653
70,12652
64,12650
62,12649
61,12649
59,12648
54,12644
49,12639
45,12635
42,12631
40,12629
40,12628
39,12627
35,12619
28,12606
21,12593
17,12585
16,12584
15,12581
13,12578
12,12575
12,12574
10,12568
6,12559
4,12553
4,12552
4,12551
3,12548
3,12543
2,12536
2,12527
3,12519
3,12515
3,12514
4,12511
6,12503
9,12495
10,12492
11,12491
13,12488
17,12481
22,12475
27,12471
31,12468
33,12466
34,12466
35,12466
41,12464
49,12461
55,12459
56,12459
57,12459
59,12459
64,12459
70,12459
78,12461
85,12463
89,12464
90,12465
93,12466
100,12470
107,12474
109,12476
110,12477
112,12479
118,12485
124,12491
128,12497
131,12501
133,12503
133,12504
134,12506
136,12509
137,12511
138,12512
142,12520
151,12535
159,12550
163,12558
164,12559
" style="stroke:#ffffff;stroke-width:7;
stroke-linejoin:bevel; stroke-linecap:butt;
"/>
<!-- Line -->
<!--  spline  -->
<polyline points="205,13107
203,13106
200,13106
198,13105
197,13105
196,13104
195,13103
193,13102
191,13101
191,13100
190,13100
189,13100
188,13098
187,13096
186,13095
186,13094
185,13092
184,13090
184,13088
184,13087
184,13086
184,13083
184,13076
184,13063
184,13045
184,13020
184,12990
184,12955
184,12918
184,12881
184,12846
184,12816
184,12791
184,12773
184,12760
184,12753
184,12750
184,12748
185,12746
185,12744
185,12743
186,12742
187,12740
188,12738
189,12736
190,12735
191,12735
191,12734
193,12733
195,12732
195,12731
196,12731
198,12730
200,12729
202,12729
204,12729
205,12729
207,12729
209,12730
211,12730
212,12730
213,12731
215,12732
217,12733
219,12734
220,12735
221,12736
222,12738
223,12740
224,12741
224,12742
225,12744
226,12746
226,12748
226,12749
226,12750
226,12753
226,12760
226,12773
226,12791
226,12816
226,12846
226,12881
226,12918
226,12955
226,12990
226,13020
226,13045
226,13063
226,13076
226,13083
226,13086
226,13088
225,13090
225,13092
225,13093
224,13094
223,13096
222,13098
221,13100
220,13100
219,13101
217,13102
215,13103
214,13104
213,13104
211,13105
209,13106
207,13106
206,13107
205,13107
" style="stroke:#02709f;stroke-width:0;
stroke-linejoin:bevel; stroke-linecap:butt;
fill:#02709f;
"/>
<!-- Line -->
<!--  spline  -->
<polyline points="205,13107
203,13106
200,13106
198,13105
197,13105
196,13104
195,13103
193,13102
191,13101
191,13100
190,13100
189,13100
188,13098
187,13096
186,13095
186,13094
185,13092
184,13090
184,13088
184,13087
184,13086
184,13083
184,13076
184,13063
184,13045
184,13020
184,12990
184,12955
184,12918
184,12881
184,12846
184,12816
184,12791
184,12773
184,12760
184,12753
184,12750
184,12748
185,12746
185,12744
185,12743
186,12742
187,12740
188,12738
189,12736
190,12735
191,12735
191,12734
193,12733
195,12732
195,12731
196,12731
198,12730
200,12729
202,12729
204,12729
205,12729
207,12729
209,12730
211,12730
212,12730
213,12731
215,12732
217,12733
219,12734
220,12735
221,12736
222,12738
223,12740
224,12741
224,12742
225,12744
226,12746
226,12748
226,12749
226,12750
226,12753
226,12760
226,12773
226,12791
226,12816
226,12846
226,12881
226,12918
226,12955
226,12990
226,13020
226,13045
226,13063
226,13076
226,13083
226,13086
226,13088
225,13090
225,13092
225,13093
224,13094
223,13096
222,13098
221,13100
220,13100
219,13101
217,13102
215,13103
214,13104
213,13104
211,13105
209,13106
207,13106
206,13107
205,13107
" style="stroke:#ffffff;stroke-width:7;
stroke-linejoin:bevel; stroke-linecap:butt;
"/>
<!-- Line -->
<!--  spline  -->
<polyline points="210,12788
212,12788
215,12787
217,12787
218,12787
219,12786
221,12785
223,12784
225,12783
226,12782
227,12781
228,12779
229,12777
230,12776
230,12775
231,12773
232,12771
232,12769
232,12767
232,12766
232,12764
231,12761
231,12759
231,12758
230,12757
229,12755
228,12753
227,12751
226,12750
225,12749
223,12748
221,12747
220,12746
219,12746
217,12745
215,12744
213,12744
211,12744
210,12744
208,12744
205,12745
203,12745
202,12745
201,12746
199,12747
197,12748
195,12749
194,12750
193,12751
192,12753
191,12755
190,12756
190,12757
189,12759
188,12761
188,12763
188,12765
188,12766
188,12768
189,12771
189,12773
189,12774
190,12775
191,12777
192,12779
193,12781
194,12782
195,12783
197,12784
199,12785
200,12786
201,12786
203,12787
205,12788
207,12788
209,12788
210,12788
" style="stroke:#02709f;stroke-width:0;
stroke-linejoin:bevel; stroke-linecap:butt;
fill:#02709f;
"/>
<!-- Line -->
<!--  spline  -->
<polyline points="210,12788
212,12788
215,12787
217,12787
218,12787
219,12786
221,12785
223,12784
225,12783
226,12782
227,12781
228,12779
229,12777
230,12776
230,12775
231,12773
232,12771
232,12769
232,12767
232,12766
232,12764
231,12761
231,12759
231,12758
230,12757
229,12755
228,12753
227,12751
226,12750
225,12749
223,12748
221,12747
220,12746
219,12746
217,12745
215,12744
213,12744
211,12744
210,12744
208,12744
205,12745
203,12745
202,12745
201,12746
199,12747
197,12748
195,12749
194,12750
193,12751
192,12753
191,12755
190,12756
190,12757
189,12759
188,12761
188,12763
188,12765
188,12766
188,12768
189,12771
189,12773
189,12774
190,12775
191,12777
192,12779
193,12781
194,12782
195,12783
197,12784
199,12785
200,12786
201,12786
203,12787
205,12788
207,12788
209,12788
210,12788
" style="stroke:#ffffff;stroke-width:7;
stroke-linejoin:bevel; stroke-linecap:butt;
"/>
<!-- Line -->
<!--  spline  -->
<polyline points="166,12561
166,12562
168,12567
171,12575
173,12580
173,12581
173,12584
174,12588
173,12593
172,12599
170,12605
169,12607
168,12608
167,12610
163,12615
159,12620
157,12622
156,12623
154,12625
149,12629
143,12634
138,12637
134,12639
132,12641
131,12641
130,12641
125,12644
116,12647
111,12650
110,12650
109,12650
107,12651
103,12653
97,12654
90,12655
84,12655
81,12656
80,12656
78,12655
72,12654
66,12652
64,12651
63,12651
61,12650
56,12646
51,12641
47,12637
45,12633
43,12631
43,12630
" style="stroke:#ffffff;stroke-width:7;
stroke-linejoin:bevel; stroke-linecap:butt;
"/>
<!-- Line -->
<!--  spline  -->
<polyline points="156,12543
156,12544
158,12549
161,12556
163,12561
163,12562
163,12565
163,12569
162,12574
161,12580
159,12586
158,12588
158,12589
156,12591
153,12596
149,12601
147,12603
147,12604
144,12606
139,12610
133,12615
127,12618
123,12620
121,12622
120,12622
119,12623
114,12625
106,12629
101,12631
100,12632
99,12632
97,12633
93,12635
87,12636
80,12637
73,12637
71,12638
70,12638
67,12637
61,12636
55,12634
53,12633
52,12633
50,12632
45,12628
40,12623
36,12619
34,12615
32,12613
32,12612
" style="stroke:#ffffff;stroke-width:7;
stroke-linejoin:bevel; stroke-linecap:butt;
"/>
<!-- Line -->
<!--  spline  -->
<polyline points="145,12531
145,12532
147,12537
150,12544
152,12549
152,12550
152,12553
152,12556
151,12561
150,12567
148,12572
147,12574
147,12575
145,12577
142,12582
138,12587
137,12589
136,12590
134,12592
129,12596
123,12601
118,12604
114,12606
112,12608
111,12608
110,12608
105,12611
97,12614
92,12617
91,12617
90,12617
88,12618
84,12619
79,12620
72,12621
66,12621
64,12621
63,12621
61,12621
55,12620
49,12618
47,12618
46,12618
44,12616
39,12613
34,12608
30,12604
28,12600
26,12598
26,12597
" style="stroke:#ffffff;stroke-width:7;
stroke-linejoin:bevel; stroke-linecap:butt;
"/>
<!-- Line -->
<!--  spline  -->
<polyline points="136,12515
136,12516
138,12521
140,12528
142,12533
142,12534
142,12537
142,12540
142,12545
141,12551
139,12557
138,12559
138,12560
136,12562
133,12567
129,12572
127,12574
126,12574
124,12576
119,12580
113,12584
108,12588
104,12590
102,12592
101,12592
100,12592
95,12595
88,12598
83,12601
82,12601
79,12602
75,12604
70,12605
63,12606
57,12606
54,12607
53,12607
51,12606
45,12605
40,12603
37,12602
35,12601
30,12597
25,12592
21,12588
19,12585
17,12582
" style="stroke:#ffffff;stroke-width:7;
stroke-linejoin:bevel; stroke-linecap:butt;
"/>
<!-- Line -->
<!--  spline  -->
<polyline points="127,12499
127,12500
129,12505
132,12512
134,12517
134,12518
134,12521
134,12524
134,12529
133,12535
131,12540
130,12542
130,12543
128,12545
125,12550
121,12555
119,12556
118,12557
116,12559
111,12563
105,12567
100,12571
96,12573
94,12575
93,12575
92,12575
87,12578
79,12581
74,12584
73,12584
72,12584
70,12585
66,12587
61,12588
54,12589
48,12589
46,12590
45,12589
43,12589
37,12588
31,12586
29,12586
28,12586
26,12584
21,12581
16,12576
13,12572
11,12568
9,12566
9,12565
" style="stroke:#ffffff;stroke-width:7;
stroke-linejoin:bevel; stroke-linecap:butt;
"/>
<!-- Line -->
<!--  spline  -->
<polyline points="118,12485
118,12486
120,12491
122,12497
124,12502
124,12503
124,12506
124,12510
124,12514
123,12520
121,12525
120,12527
120,12528
118,12529
115,12534
111,12538
110,12540
109,12541
107,12543
102,12547
96,12551
92,12555
88,12557
85,12559
84,12559
79,12561
72,12565
67,12567
66,12567
63,12568
59,12570
54,12571
48,12572
42,12572
40,12573
39,12572
36,12572
31,12571
26,12569
24,12569
23,12569
21,12567
16,12564
11,12559
8,12555
6,12552
4,12549
" style="stroke:#ffffff;stroke-width:7;
stroke-linejoin:bevel; stroke-linecap:butt;
"/>
<!-- Line -->
<!--  spline  -->
<polyline points="102,12477
102,12478
104,12482
106,12488
108,12492
108,12493
108,12495
108,12498
108,12502
107,12507
105,12511
105,12513
104,12514
103,12515
100,12519
97,12523
95,12524
95,12525
93,12526
89,12530
84,12534
80,12536
77,12539
74,12540
73,12540
69,12542
63,12546
59,12548
58,12548
55,12549
52,12549
48,12550
42,12551
37,12551
35,12552
34,12552
33,12552
28,12551
23,12550
22,12549
21,12548
19,12547
15,12544
11,12540
8,12537
6,12534
5,12532
" style="stroke:#ffffff;stroke-width:7;
stroke-linejoin:bevel; stroke-linecap:butt;
"/>
<!-- Line -->
<!--  spline  -->
<polyline points="87,12468
87,12469
89,12472
90,12477
92,12480
92,12481
92,12483
92,12485
92,12489
91,12493
90,12497
89,12498
88,12499
87,12501
85,12504
82,12507
81,12509
80,12510
76,12513
72,12516
68,12518
65,12520
63,12521
62,12521
59,12523
53,12526
50,12528
49,12528
47,12529
44,12530
41,12530
36,12531
32,12531
30,12531
28,12531
24,12530
20,12529
19,12528
18,12528
16,12527
13,12525
9,12522
7,12519
5,12516
4,12514
" style="stroke:#ffffff;stroke-width:7;
stroke-linejoin:bevel; stroke-linecap:butt;
"/>
<!-- Line -->
<!--  spline  -->
<polyline points="274,12884
274,12885
275,12891
277,12903
279,12914
280,12920
280,12921
280,12922
281,12925
282,12931
283,12940
285,12949
288,12962
291,12974
292,12980
293,12982
293,12985
295,12990
299,13001
304,13011
306,13016
307,13018
308,13020
311,13025
318,13033
326,13041
334,13046
340,13050
345,13053
348,13055
349,13055
350,13055
352,13056
357,13058
359,13059
360,13059
362,13059
364,13059
368,13060
372,13060
376,13061
378,13061
380,13061
384,13062
388,13062
389,13062
390,13062
391,13062
395,13063
399,13064
403,13065
405,13065
407,13066
408,13067
414,13070
423,13075
429,13078
430,13079
433,13081
437,13085
442,13089
449,13096
455,13102
458,13105
459,13106
461,13109
467,13116
473,13123
475,13126
476,13127
478,13130
484,13137
491,13144
496,13149
501,13152
503,13155
504,13155
505,13156
510,13159
518,13164
523,13167
524,13168
525,13168
527,13169
532,13171
538,13172
546,13174
554,13175
557,13175
558,13175
561,13175
569,13175
577,13174
580,13174
582,13173
585,13173
593,13171
601,13169
607,13167
612,13166
614,13165
615,13165
" style="stroke:#02709f;stroke-width:7;
stroke-linejoin:bevel; stroke-linecap:butt;
"/>
</g>
</svg>
