<?xml version="1.0" standalone="no"?>
<!DOCTYPE svg PUBLIC "-//W3C//DTD SVG 1.1//EN"
"http://www.w3.org/Graphics/SVG/1.1/DTD/svg11.dtd">
<!-- Creator: fig2dev Version 3.2 Patchlevel 5c -->
<!-- CreationDate: Fri Sep 14 10:46:35 2012 -->
<!-- Magnification: 1.000 -->
<svg xmlns="http://www.w3.org/2000/svg" width="0.7in" height="0.4in" viewBox="4710 6352 822 513">
<g style="stroke-width:.025in; fill:none">
<!-- Line -->
<!--  polyline  -->
<polyline points="5376,6832
4915,6832
5044,6754
5510,6753
5376,6832
" style="stroke:#ffffff;stroke-width:0;
stroke-linejoin:round; stroke-linecap:round;
fill:#ffffff;
"/>
<!-- Line -->
<!--  polyline  -->
<polyline points="5376,6832
4915,6832
5044,6754
5510,6753
5376,6832
" style="stroke:#05b0da;stroke-width:15;
stroke-linejoin:round; stroke-linecap:round;
"/>
<!-- Line -->
<!--  polyline  -->
<polyline points="5044,6754
4915,6832
4915,6450
5044,6375
5044,6754
" style="stroke:#05b0da;stroke-width:15;
stroke-linejoin:round; stroke-linecap:round;
"/>
<!-- Line -->
<!--  polyline  -->
<polyline points="4732,6652
4950,6652
" style="stroke:#ffffff;stroke-width:0;
stroke-linejoin:miter; stroke-linecap:round;
fill:#ffffff;
"/>
<!-- Line -->
<!--  polyline  -->
<polyline points="4732,6652
4950,6652
" style="stroke:#05b0da;stroke-width:15;
stroke-linejoin:miter; stroke-linecap:round;
"/>
<!-- Line -->
<!--  polyline  -->
<polyline points="4950,6613
4751,6613
" style="stroke:#ffffff;stroke-width:0;
stroke-linejoin:miter; stroke-linecap:round;
fill:#ffffff;
"/>
<!-- Line -->
<!--  polyline  -->
<polyline points="4950,6613
4751,6613
" style="stroke:#05b0da;stroke-width:15;
stroke-linejoin:miter; stroke-linecap:round;
"/>
<!-- Line -->
<!--  polyline  -->
<polyline points="4982,6697
4791,6697
" style="stroke:#ffffff;stroke-width:0;
stroke-linejoin:miter; stroke-linecap:round;
fill:#ffffff;
"/>
<!-- Line -->
<!--  polyline  -->
<polyline points="4982,6697
4791,6697
" style="stroke:#05b0da;stroke-width:15;
stroke-linejoin:miter; stroke-linecap:round;
"/>
<!-- Line -->
<!--  polyline  -->
<polyline points="4962,6580
4821,6580
" style="stroke:#ffffff;stroke-width:0;
stroke-linejoin:miter; stroke-linecap:round;
fill:#ffffff;
"/>
<!-- Line -->
<!--  polyline  -->
<polyline points="4962,6580
4821,6580
" style="stroke:#05b0da;stroke-width:15;
stroke-linejoin:miter; stroke-linecap:round;
"/>
<!-- Line -->
<!--  spline  -->
<polyline points="5439,6551
5438,6552
5435,6560
5431,6571
5428,6579
5427,6580
5424,6583
5420,6587
5414,6592
5405,6598
5393,6605
5380,6611
5373,6615
5370,6616
5367,6617
5359,6620
5342,6625
5328,6629
5319,6631
5314,6632
5311,6633
5309,6633
5304,6634
5293,6636
5277,6638
5260,6640
5246,6641
5233,6642
5222,6643
5213,6643
5207,6643
5204,6643
5203,6643
5202,6643
5196,6643
5183,6642
5166,6641
5148,6639
5135,6638
5129,6638
5128,6638
5125,6638
5119,6637
5110,6635
5101,6634
5090,6632
5077,6629
5063,6625
5046,6620
5038,6617
5035,6616
5032,6615
5025,6611
5012,6605
5000,6598
4994,6595
4992,6593
4991,6592
4986,6588
4979,6580
4972,6570
4969,6562
4968,6556
4967,6552
4967,6551
4967,6552
4967,6558
4967,6571
4967,6592
4967,6619
4967,6645
4967,6666
4967,6679
4967,6685
4967,6686
4968,6687
4971,6695
4975,6706
4978,6714
4979,6715
4981,6718
4986,6722
4991,6727
5000,6733
5012,6740
5025,6746
5032,6750
5035,6751
5038,6752
5046,6755
5063,6760
5077,6764
5086,6766
5091,6767
5094,6768
5096,6768
5101,6769
5112,6771
5128,6773
5145,6775
5160,6776
5172,6777
5183,6778
5193,6778
5199,6778
5202,6778
5203,6778
5204,6778
5210,6778
5222,6777
5240,6776
5258,6774
5270,6773
5276,6773
5277,6773
5280,6773
5286,6772
5295,6770
5304,6769
5315,6767
5328,6764
5342,6760
5359,6755
5367,6752
5370,6751
5373,6750
5380,6746
5393,6740
5405,6733
5411,6730
5413,6728
5415,6727
5420,6723
5427,6715
5434,6705
5437,6697
5439,6691
5439,6687
5439,6686
5439,6685
5439,6679
5439,6666
5439,6645
5439,6618
5439,6592
5439,6571
5439,6558
5439,6552
5439,6551
" style="stroke:#05b0da;stroke-width:0;
stroke-linejoin:bevel; stroke-linecap:butt;
fill:#05b0da;
"/>
<!-- Line -->
<!--  spline  -->
<polyline points="5439,6551
5438,6552
5435,6560
5431,6571
5428,6579
5427,6580
5424,6583
5420,6587
5414,6592
5405,6598
5393,6605
5380,6611
5373,6615
5370,6616
5367,6617
5359,6620
5342,6625
5328,6629
5319,6631
5314,6632
5311,6633
5309,6633
5304,6634
5293,6636
5277,6638
5260,6640
5246,6641
5233,6642
5222,6643
5213,6643
5207,6643
5204,6643
5203,6643
5202,6643
5196,6643
5183,6642
5166,6641
5148,6639
5135,6638
5129,6638
5128,6638
5125,6638
5119,6637
5110,6635
5101,6634
5090,6632
5077,6629
5063,6625
5046,6620
5038,6617
5035,6616
5032,6615
5025,6611
5012,6605
5000,6598
4994,6595
4992,6593
4991,6592
4986,6588
4979,6580
4972,6570
4969,6562
4968,6556
4967,6552
4967,6551
4967,6552
4967,6558
4967,6571
4967,6592
4967,6619
4967,6645
4967,6666
4967,6679
4967,6685
4967,6686
4968,6687
4971,6695
4975,6706
4978,6714
4979,6715
4981,6718
4986,6722
4991,6727
5000,6733
5012,6740
5025,6746
5032,6750
5035,6751
5038,6752
5046,6755
5063,6760
5077,6764
5086,6766
5091,6767
5094,6768
5096,6768
5101,6769
5112,6771
5128,6773
5145,6775
5160,6776
5172,6777
5183,6778
5193,6778
5199,6778
5202,6778
5203,6778
5204,6778
5210,6778
5222,6777
5240,6776
5258,6774
5270,6773
5276,6773
5277,6773
5280,6773
5286,6772
5295,6770
5304,6769
5315,6767
5328,6764
5342,6760
5359,6755
5367,6752
5370,6751
5373,6750
5380,6746
5393,6740
5405,6733
5411,6730
5413,6728
5415,6727
5420,6723
5427,6715
5434,6705
5437,6697
5439,6691
5439,6687
5439,6686
5439,6685
5439,6679
5439,6666
5439,6645
5439,6618
5439,6592
5439,6571
5439,6558
5439,6552
5439,6551
" style="stroke:#ffffff;stroke-width:7;
stroke-linejoin:bevel; stroke-linecap:butt;
"/>
<!-- Line -->
<!--  spline  -->
<polyline points="5203,6643
5204,6643
5210,6643
5222,6642
5240,6641
5258,6639
5270,6638
5276,6638
5277,6638
5280,6638
5286,6637
5295,6635
5304,6634
5315,6632
5328,6629
5342,6625
5359,6620
5367,6617
5370,6616
5373,6615
5380,6611
5393,6605
5405,6598
5411,6595
5413,6593
5415,6592
5420,6588
5427,6580
5434,6570
5437,6562
5439,6556
5439,6552
5439,6551
5438,6550
5435,6542
5431,6531
5428,6523
5427,6522
5424,6519
5420,6515
5414,6510
5405,6504
5393,6497
5380,6491
5373,6487
5370,6486
5367,6485
5359,6482
5342,6477
5328,6473
5319,6471
5314,6470
5311,6469
5309,6469
5304,6468
5293,6466
5277,6464
5260,6462
5246,6461
5233,6460
5222,6460
5213,6460
5207,6460
5204,6460
5203,6460
5202,6460
5196,6460
5183,6461
5166,6462
5148,6463
5135,6464
5129,6464
5128,6464
5125,6464
5119,6465
5110,6467
5101,6468
5090,6470
5077,6473
5063,6477
5046,6482
5038,6485
5035,6486
5032,6487
5025,6491
5012,6497
5000,6504
4994,6507
4992,6509
4991,6510
4986,6514
4979,6522
4972,6532
4969,6540
4968,6546
4967,6550
4967,6551
4968,6552
4971,6560
4975,6571
4978,6579
4979,6580
4981,6583
4986,6587
4991,6592
5000,6598
5012,6605
5025,6611
5032,6615
5035,6616
5038,6617
5046,6620
5063,6625
5077,6629
5086,6631
5091,6632
5094,6633
5096,6633
5101,6634
5112,6636
5128,6638
5145,6640
5160,6641
5172,6642
5183,6643
5193,6643
5199,6643
5202,6643
5203,6643
" style="stroke:#05b0da;stroke-width:0;
stroke-linejoin:bevel; stroke-linecap:butt;
fill:#05b0da;
"/>
<!-- Line -->
<!--  spline  -->
<polyline points="5203,6643
5204,6643
5210,6643
5222,6642
5240,6641
5258,6639
5270,6638
5276,6638
5277,6638
5280,6638
5286,6637
5295,6635
5304,6634
5315,6632
5328,6629
5342,6625
5359,6620
5367,6617
5370,6616
5373,6615
5380,6611
5393,6605
5405,6598
5411,6595
5413,6593
5415,6592
5420,6588
5427,6580
5434,6570
5437,6562
5439,6556
5439,6552
5439,6551
5438,6550
5435,6542
5431,6531
5428,6523
5427,6522
5424,6519
5420,6515
5414,6510
5405,6504
5393,6497
5380,6491
5373,6487
5370,6486
5367,6485
5359,6482
5342,6477
5328,6473
5319,6471
5314,6470
5311,6469
5309,6469
5304,6468
5293,6466
5277,6464
5260,6462
5246,6461
5233,6460
5222,6460
5213,6460
5207,6460
5204,6460
5203,6460
5202,6460
5196,6460
5183,6461
5166,6462
5148,6463
5135,6464
5129,6464
5128,6464
5125,6464
5119,6465
5110,6467
5101,6468
5090,6470
5077,6473
5063,6477
5046,6482
5038,6485
5035,6486
5032,6487
5025,6491
5012,6497
5000,6504
4994,6507
4992,6509
4991,6510
4986,6514
4979,6522
4972,6532
4969,6540
4968,6546
4967,6550
4967,6551
4968,6552
4971,6560
4975,6571
4978,6579
4979,6580
4981,6583
4986,6587
4991,6592
5000,6598
5012,6605
5025,6611
5032,6615
5035,6616
5038,6617
5046,6620
5063,6625
5077,6629
5086,6631
5091,6632
5094,6633
5096,6633
5101,6634
5112,6636
5128,6638
5145,6640
5160,6641
5172,6642
5183,6643
5193,6643
5199,6643
5202,6643
5203,6643
" style="stroke:#ffffff;stroke-width:7;
stroke-linejoin:bevel; stroke-linecap:butt;
"/>
<!-- Line -->
<!--  polyline  -->
<polyline points="5149,6515
5168,6545
5095,6562
5111,6548
4997,6529
5026,6507
5135,6526
5149,6515
" style="stroke:#ffffff;stroke-width:0;
stroke-linejoin:miter; stroke-linecap:butt;
fill:#ffffff;
"/>
<!-- Line -->
<!--  polyline  -->
<polyline points="5253,6586
5239,6556
5306,6543
5294,6553
5405,6572
5379,6593
5268,6573
5253,6586
" style="stroke:#ffffff;stroke-width:0;
stroke-linejoin:miter; stroke-linecap:butt;
fill:#ffffff;
"/>
<!-- Line -->
<!--  polyline  -->
<polyline points="5216,6499
5291,6479
5292,6511
5273,6507
5237,6538
5202,6532
5240,6503
5216,6499
" style="stroke:#ffffff;stroke-width:0;
stroke-linejoin:miter; stroke-linecap:butt;
fill:#ffffff;
"/>
<!-- Line -->
<!--  polyline  -->
<polyline points="5184,6614
5114,6627
5111,6594
5131,6599
5170,6565
5205,6571
5163,6608
5184,6614
" style="stroke:#ffffff;stroke-width:0;
stroke-linejoin:miter; stroke-linecap:butt;
fill:#ffffff;
"/>
<!-- Line -->
<!--  polyline  -->
<polyline points="5510,6753
5376,6832
5376,6450
5509,6374
5510,6753
" style="stroke:#05b0da;stroke-width:15;
stroke-linejoin:round; stroke-linecap:round;
"/>
<!-- Line -->
<!--  polyline  -->
<polyline points="5376,6450
4915,6450
5044,6375
5509,6374
5376,6450
" style="stroke:#05b0da;stroke-width:15;
stroke-linejoin:round; stroke-linecap:round;
"/>
<!-- Text -->
<!--  text  -->
<text xml:space="preserve" x="5005" y="6716" fill="#ffffff"  font-family="Helvetica" font-style="normal" font-weight="bold" font-size="84" text-anchor="start">8</text>
<!-- Text -->
<!--  text  -->
<text xml:space="preserve" x="5066" y="6738" fill="#ffffff"  font-family="Helvetica" font-style="normal" font-weight="bold" font-size="84" text-anchor="start">0</text>
<!-- Text -->
<!--  text  -->
<text xml:space="preserve" x="5130" y="6750" fill="#ffffff"  font-family="Helvetica" font-style="normal" font-weight="bold" font-size="84" text-anchor="start">2</text>
<!-- Text -->
<!--  text  -->
<text xml:space="preserve" x="5186" y="6750" fill="#ffffff"  font-family="Helvetica" font-style="normal" font-weight="bold" font-size="84" text-anchor="start">.</text>
<!-- Text -->
<!--  text  -->
<text xml:space="preserve" x="5222" y="6751" fill="#ffffff"  font-family="Helvetica" font-style="normal" font-weight="bold" font-size="84" text-anchor="start">1</text>
<!-- Text -->
<!--  text  -->
<text xml:space="preserve" x="5281" y="6741" fill="#ffffff"  font-family="Helvetica" font-style="normal" font-weight="bold" font-size="84" text-anchor="start">1</text>
<!-- Line -->
<!--  polyline  -->
<polyline points="5376,6832
4915,6832
4915,6450
5376,6450
5376,6832
" style="stroke:#ffffff;stroke-width:30;
stroke-linejoin:round; stroke-linecap:round;
"/>
<!-- Line -->
<!--  polyline  -->
<polyline points="5376,6832
4915,6832
4915,6450
5376,6450
5376,6832
" style="stroke:#05b0da;stroke-width:15;
stroke-linejoin:round; stroke-linecap:round;
"/>
</g>
</svg>
