<?xml version="1.0" standalone="no"?>
<!DOCTYPE svg PUBLIC "-//W3C//DTD SVG 1.1//EN"
"http://www.w3.org/Graphics/SVG/1.1/DTD/svg11.dtd">
<!-- Creator: fig2dev Version 3.2 Patchlevel 5c -->
<!-- CreationDate: Fri Sep 14 10:46:35 2012 -->
<!-- Magnification: 1.000 -->
<svg xmlns="http://www.w3.org/2000/svg" width="0.6in" height="0.6in" viewBox="-15 12538 748 672">
<g style="stroke-width:.025in; fill:none">
<!-- Line -->
<!--  polyline  -->
<polyline points="7,12917
223,12917
" style="stroke:#04b5de;stroke-width:15;
stroke-linejoin:round; stroke-linecap:round;
"/>
<!-- Line -->
<!--  polyline  -->
<polyline points="76,12979
221,12979
" style="stroke:#04b5de;stroke-width:15;
stroke-linejoin:round; stroke-linecap:round;
"/>
<!-- Line -->
<!--  polyline  -->
<polyline points="223,12828
104,12828
" style="stroke:#04b5de;stroke-width:15;
stroke-linejoin:round; stroke-linecap:round;
"/>
<!-- Line -->
<!--  polyline  -->
<polyline points="48,12885
221,12885
" style="stroke:#04b5de;stroke-width:15;
stroke-linejoin:round; stroke-linecap:round;
"/>
<!-- Line -->
<!--  polyline  -->
<polyline points="565,13186
241,13186
383,13100
711,13100
565,13186
" style="stroke:#04b5de;stroke-width:15;
stroke-linejoin:round; stroke-linecap:round;
"/>
<!-- Line -->
<!--  polyline  -->
<polyline points="383,13100
241,13186
241,12643
383,12561
383,13100
" style="stroke:#04b5de;stroke-width:15;
stroke-linejoin:round; stroke-linecap:round;
"/>
<!-- Line -->
<!--  polyline  -->
<polyline points="565,12643
241,12643
383,12561
711,12560
565,12643
" style="stroke:#04b5de;stroke-width:15;
stroke-linejoin:round; stroke-linecap:round;
"/>
<!-- Line -->
<!--  polyline  -->
<polyline points="565,13188
241,13188
241,12643
565,12643
565,13188
" style="stroke:#04b5de;stroke-width:15;
stroke-linejoin:round; stroke-linecap:round;
"/>
<!-- Line -->
<!--  polyline  -->
<polyline points="711,13100
565,13186
565,12643
711,12560
711,13100
" style="stroke:#000000;stroke-width:15;
stroke-linejoin:round; stroke-linecap:round;
"/>
<!-- Line -->
<!--  polyline  -->
<polyline points="711,13100
565,13186
565,12643
711,12560
711,13100
" style="stroke:#04b5de;stroke-width:15;
stroke-linejoin:round; stroke-linecap:round;
"/>
<!-- Line -->
<!--  polyline  -->
<polyline points="711,13100
565,13186
565,12643
711,12560
711,13100
" style="stroke:#04b5de;stroke-width:15;
stroke-linejoin:round; stroke-linecap:round;
"/>
<!-- Line -->
<!--  spline  -->
<polyline points="533,12672
532,12672
532,12671
531,12671
530,12671
529,12671
528,12671
527,12671
526,12670
525,12670
524,12670
523,12669
522,12669
521,12669
520,12669
519,12668
518,12668
517,12668
516,12667
515,12667
514,12667
514,12666
513,12666
512,12666
511,12666
510,12666
509,12666
" style="stroke:#ffffff;stroke-width:7;
stroke-linejoin:bevel; stroke-linecap:butt;
"/>
<!-- Line -->
<!--  spline  -->
<polyline points="531,12879
531,12878
532,12874
534,12867
535,12863
535,12862
535,12861
536,12858
537,12853
539,12846
541,12837
543,12828
544,12824
545,12822
546,12818
548,12809
550,12800
551,12796
551,12794
552,12791
553,12784
554,12778
555,12774
555,12771
555,12770
555,12768
555,12765
555,12763
555,12762
555,12760
554,12758
554,12756
553,12754
553,12753
553,12752
552,12750
551,12748
551,12747
550,12747
550,12746
549,12745
548,12744
547,12743
546,12742
546,12741
546,12740
546,12739
546,12738
546,12737
546,12736
545,12735
545,12734
544,12734
543,12734
542,12734
542,12733
543,12733
543,12732
543,12731
544,12729
544,12727
545,12725
545,12724
545,12723
545,12722
546,12719
546,12716
547,12715
546,12715
547,12714
547,12711
548,12708
548,12706
549,12704
549,12703
549,12702
550,12699
551,12695
552,12692
552,12691
552,12689
552,12687
553,12685
553,12682
554,12680
554,12679
554,12678
555,12678
555,12676
555,12675
555,12674
555,12673
555,12672
555,12671
555,12670
555,12669
555,12668
555,12667
555,12668
554,12668
554,12667
554,12666
553,12665
552,12665
551,12665
550,12665
547,12664
541,12662
538,12661
537,12661
536,12661
535,12661
534,12661
533,12661
534,12661
534,12662
533,12662
532,12662
532,12663
531,12663
531,12664
530,12664
530,12665
530,12666
529,12667
529,12668
528,12670
527,12672
527,12673
526,12674
525,12677
524,12680
523,12681
523,12682
522,12683
521,12687
520,12691
518,12694
518,12697
517,12699
516,12701
516,12704
515,12706
514,12707
514,12708
513,12710
512,12712
511,12714
511,12715
511,12716
510,12717
510,12718
509,12719
509,12720
509,12721
508,12721
508,12722
506,12721
505,12721
503,12720
502,12720
501,12719
500,12719
498,12718
496,12718
496,12717
495,12718
495,12717
493,12717
491,12716
490,12716
488,12715
486,12715
485,12714
484,12714
483,12714
482,12714
479,12713
474,12711
471,12710
470,12710
468,12710
465,12709
462,12708
457,12707
452,12706
450,12706
450,12705
448,12705
443,12704
439,12703
437,12703
436,12703
434,12703
430,12702
425,12701
422,12701
419,12700
417,12700
417,12701
417,12702
416,12702
415,12702
415,12703
415,12704
414,12704
414,12705
413,12705
411,12706
410,12706
409,12706
408,12707
407,12708
405,12709
403,12710
403,12711
402,12712
400,12714
398,12716
397,12717
396,12717
395,12719
394,12721
393,12723
392,12724
392,12725
392,12726
390,12729
388,12734
386,12737
386,12738
386,12739
385,12741
383,12746
381,12753
378,12762
375,12771
374,12775
373,12776
372,12780
369,12789
366,12798
365,12802
364,12803
363,12807
361,12814
359,12821
358,12826
357,12829
357,12831
357,12832
356,12835
354,12839
353,12842
353,12843
353,12845
352,12849
351,12853
350,12859
349,12865
348,12867
348,12868
347,12871
346,12877
345,12883
344,12885
344,12886
343,12889
342,12894
341,12900
340,12904
340,12907
340,12909
340,12910
339,12913
338,12919
337,12922
337,12923
337,12926
337,12929
336,12934
335,12941
334,12948
333,12950
333,12952
332,12955
331,12962
329,12970
329,12973
329,12974
328,12978
326,12986
324,12995
322,13003
320,13009
319,13012
319,13013
319,13014
317,13019
316,13025
314,13030
314,13031
314,13032
313,13034
312,13038
310,13044
308,13051
306,13058
305,13061
305,13062
304,13065
302,13071
300,13077
300,13080
299,13081
299,13083
297,13088
295,13093
294,13097
293,13099
292,13101
291,13103
291,13104
290,13106
289,13107
289,13108
288,13110
287,13113
286,13116
286,13117
286,13118
286,13119
286,13122
286,13125
286,13126
286,13127
288,13130
290,13133
293,13135
295,13136
297,13137
298,13137
301,13138
305,13140
308,13141
309,13141
311,13142
314,13143
318,13144
323,13146
328,13147
330,13148
332,13149
337,13150
342,13151
343,13152
344,13152
346,13153
350,13154
354,13155
357,13156
359,13157
360,13157
361,13157
363,13158
368,13159
370,13160
371,13160
373,13160
376,13161
379,13162
384,13163
389,13164
391,13165
393,13166
398,13167
403,13168
405,13169
407,13169
412,13170
417,13171
421,13171
424,13172
426,13172
427,13172
429,13172
433,13171
435,13171
436,13171
437,13170
439,13169
441,13167
443,13165
444,13163
445,13161
445,13160
446,13157
447,13154
447,13153
447,13152
447,13151
447,13149
447,13147
448,13145
448,13144
448,13143
449,13140
450,13134
451,13131
451,13130
452,13128
452,13124
453,13120
455,13113
457,13107
457,13104
458,13103
458,13100
460,13093
462,13086
462,13083
463,13082
463,13079
465,13073
467,13066
468,13061
469,13058
470,13055
470,13054
472,13047
476,13036
478,13029
478,13028
478,13027
479,13024
481,13019
483,13012
486,13004
489,12997
490,12994
491,12991
494,12985
496,12979
498,12977
498,12976
499,12973
501,12968
503,12963
504,12959
505,12957
506,12955
506,12954
508,12951
509,12945
511,12942
511,12941
512,12938
513,12935
515,12930
517,12924
519,12918
519,12916
520,12915
520,12913
522,12907
524,12901
525,12899
525,12898
526,12896
528,12891
529,12886
530,12883
531,12881
531,12879
" style="stroke:#04b5de;stroke-width:0;
stroke-linejoin:bevel; stroke-linecap:butt;
fill:#04b5de;
"/>
<!-- Line -->
<!--  spline  -->
<polyline points="510,12881
510,12880
511,12876
513,12870
514,12866
514,12865
514,12864
515,12861
516,12856
518,12849
520,12839
522,12830
523,12826
523,12824
524,12820
526,12811
528,12802
529,12798
529,12796
530,12793
531,12786
532,12780
533,12776
534,12773
534,12772
534,12770
533,12767
533,12765
533,12764
533,12762
532,12760
532,12758
531,12756
531,12755
531,12754
530,12752
529,12750
529,12749
529,12748
528,12747
527,12746
526,12745
525,12744
524,12744
524,12743
524,12742
524,12741
524,12740
524,12739
525,12739
525,12738
524,12737
523,12737
522,12737
521,12736
520,12736
521,12736
521,12735
521,12734
521,12733
521,12732
522,12731
522,12729
523,12727
523,12726
523,12725
524,12722
525,12719
525,12718
525,12717
525,12716
526,12713
526,12710
527,12708
527,12706
527,12705
527,12704
528,12701
529,12697
530,12694
530,12693
530,12691
531,12689
531,12687
532,12684
532,12682
533,12681
533,12680
533,12678
533,12677
533,12676
533,12675
533,12674
534,12674
534,12673
533,12673
533,12672
533,12671
533,12670
533,12669
532,12669
532,12668
531,12668
530,12668
530,12667
529,12667
528,12667
525,12666
519,12664
516,12663
515,12663
514,12663
513,12663
512,12663
511,12663
511,12664
510,12665
509,12666
508,12667
508,12668
507,12669
507,12670
506,12672
505,12674
505,12675
504,12675
504,12676
503,12679
502,12682
502,12683
502,12684
501,12685
500,12689
498,12693
497,12696
496,12699
495,12701
494,12703
494,12706
493,12708
492,12709
492,12710
491,12712
490,12714
489,12716
489,12717
489,12718
488,12719
488,12720
487,12721
487,12722
487,12723
486,12723
486,12724
484,12723
483,12723
481,12722
480,12722
479,12722
478,12721
476,12721
474,12720
473,12720
471,12719
469,12719
469,12718
468,12719
468,12718
466,12718
464,12717
463,12717
462,12716
461,12716
460,12716
457,12715
452,12714
449,12713
448,12713
446,12712
443,12711
440,12710
435,12709
431,12708
429,12708
428,12708
426,12708
422,12707
418,12706
416,12706
415,12705
413,12705
409,12704
404,12703
400,12703
397,12702
395,12702
395,12703
394,12703
394,12704
394,12705
393,12705
393,12706
393,12707
392,12707
392,12708
391,12708
389,12708
388,12708
387,12708
386,12709
385,12710
383,12711
381,12712
381,12713
380,12714
378,12716
377,12718
376,12718
376,12719
375,12719
374,12721
373,12723
371,12725
371,12726
370,12727
370,12728
368,12731
367,12736
365,12739
365,12740
365,12741
364,12743
362,12748
360,12755
357,12764
354,12773
353,12777
352,12779
351,12783
348,12792
345,12801
344,12805
343,12806
342,12810
340,12817
338,12824
336,12828
336,12831
335,12833
335,12834
334,12837
333,12841
332,12844
332,12845
331,12847
331,12851
329,12855
328,12861
327,12867
326,12869
326,12870
325,12873
324,12879
323,12885
322,12888
322,12889
322,12891
321,12897
320,12903
319,12906
318,12909
318,12911
318,12912
317,12915
316,12921
315,12924
315,12925
315,12928
315,12931
314,12936
313,12943
312,12950
311,12952
311,12954
310,12957
309,12964
307,12972
307,12975
307,12976
306,12980
304,12988
302,12997
300,13005
298,13011
297,13014
297,13015
297,13016
295,13021
294,13028
292,13033
292,13034
291,13037
290,13041
288,13046
286,13053
284,13060
283,13063
283,13064
282,13067
280,13073
278,13079
278,13082
277,13083
277,13085
275,13090
273,13095
272,13099
271,13101
270,13103
269,13105
269,13106
268,13108
267,13109
267,13110
266,13112
265,13115
264,13118
264,13119
264,13120
264,13121
264,13124
264,13127
264,13128
264,13129
264,13130
266,13133
268,13136
271,13137
273,13138
275,13139
276,13139
279,13141
284,13142
287,13144
288,13144
290,13145
293,13145
297,13146
302,13148
307,13150
309,13150
310,13151
312,13152
316,13153
320,13154
322,13155
323,13155
324,13155
328,13156
332,13157
335,13158
337,13159
339,13159
340,13159
342,13160
346,13161
348,13162
349,13162
351,13162
354,13163
357,13164
362,13165
367,13166
368,13167
369,13167
371,13168
376,13169
381,13170
383,13171
384,13171
386,13171
391,13172
396,13173
400,13174
402,13175
404,13175
405,13175
407,13174
411,13174
413,13173
414,13173
415,13172
417,13171
419,13169
421,13167
422,13165
423,13163
423,13162
424,13159
425,13156
425,13155
425,13154
426,13153
426,13151
426,13149
426,13147
426,13146
426,13145
427,13142
428,13136
429,13133
429,13132
430,13130
430,13126
431,13122
433,13115
435,13109
435,13106
436,13105
436,13102
438,13095
440,13088
440,13085
441,13084
441,13081
443,13075
445,13068
446,13063
447,13060
448,13057
448,13056
450,13049
454,13038
456,13031
456,13030
456,13029
457,13026
459,13021
461,13015
464,13007
467,13000
468,12997
468,12996
469,12993
472,12987
474,12981
476,12978
476,12977
477,12975
479,12970
481,12965
482,12961
483,12959
484,12957
484,12956
486,12953
487,12947
489,12944
489,12943
490,12940
491,12937
493,12932
495,12926
497,12920
498,12918
498,12917
499,12915
501,12909
503,12903
504,12901
504,12900
504,12898
506,12893
508,12888
509,12885
509,12883
510,12881
" style="stroke:#04b5de;stroke-width:0;
stroke-linejoin:bevel; stroke-linecap:butt;
fill:#04b5de;
"/>
<!-- Line -->
<!--  spline  -->
<polyline points="510,12881
510,12880
511,12876
513,12870
514,12866
514,12865
514,12864
515,12861
516,12856
518,12849
520,12839
522,12830
523,12826
523,12824
524,12820
526,12811
528,12802
529,12798
529,12796
530,12793
531,12786
532,12780
533,12776
534,12773
534,12772
534,12770
533,12767
533,12765
533,12764
533,12762
532,12760
532,12758
531,12756
531,12755
531,12754
530,12752
529,12750
529,12749
529,12748
528,12747
527,12746
526,12745
525,12744
524,12744
524,12743
524,12742
524,12741
524,12740
524,12739
525,12739
525,12738
524,12737
523,12737
522,12737
521,12736
520,12736
521,12736
521,12735
521,12734
521,12733
521,12732
522,12731
522,12729
523,12727
523,12726
523,12725
524,12722
525,12719
525,12718
525,12717
525,12716
526,12713
526,12710
527,12708
527,12706
527,12705
527,12704
528,12701
529,12697
530,12694
530,12693
530,12691
531,12689
531,12687
532,12684
532,12682
533,12681
533,12680
533,12678
533,12677
533,12676
533,12675
533,12674
534,12674
534,12673
533,12673
533,12672
533,12671
533,12670
533,12669
532,12669
532,12668
531,12668
530,12668
530,12667
529,12667
528,12667
525,12666
519,12664
516,12663
515,12663
514,12663
513,12663
512,12663
511,12663
511,12664
510,12665
509,12666
508,12667
508,12668
507,12669
507,12670
506,12672
505,12674
505,12675
504,12675
504,12676
503,12679
502,12682
502,12683
502,12684
501,12685
500,12689
498,12693
497,12696
496,12699
495,12701
494,12703
494,12706
493,12708
492,12709
492,12710
491,12712
490,12714
489,12716
489,12717
489,12718
488,12719
488,12720
487,12721
487,12722
487,12723
486,12723
486,12724
484,12723
483,12723
481,12722
480,12722
479,12722
478,12721
476,12721
474,12720
473,12720
471,12719
469,12719
469,12718
468,12719
468,12718
466,12718
464,12717
463,12717
462,12716
461,12716
460,12716
457,12715
452,12714
449,12713
448,12713
446,12712
443,12711
440,12710
435,12709
431,12708
429,12708
428,12708
426,12708
422,12707
418,12706
416,12706
415,12705
413,12705
409,12704
404,12703
400,12703
397,12702
395,12702
395,12703
394,12703
394,12704
394,12705
393,12705
393,12706
393,12707
392,12707
392,12708
391,12708
389,12708
388,12708
387,12708
386,12709
385,12710
383,12711
381,12712
381,12713
380,12714
378,12716
377,12718
376,12718
376,12719
375,12719
374,12721
373,12723
371,12725
371,12726
370,12727
370,12728
368,12731
367,12736
365,12739
365,12740
365,12741
364,12743
362,12748
360,12755
357,12764
354,12773
353,12777
352,12779
351,12783
348,12792
345,12801
344,12805
343,12806
342,12810
340,12817
338,12824
336,12828
336,12831
335,12833
335,12834
334,12837
333,12841
332,12844
332,12845
331,12847
331,12851
329,12855
328,12861
327,12867
326,12869
326,12870
325,12873
324,12879
323,12885
322,12888
322,12889
322,12891
321,12897
320,12903
319,12906
318,12909
318,12911
318,12912
317,12915
316,12921
315,12924
315,12925
315,12928
315,12931
314,12936
313,12943
312,12950
311,12952
311,12954
310,12957
309,12964
307,12972
307,12975
307,12976
306,12980
304,12988
302,12997
300,13005
298,13011
297,13014
297,13015
297,13016
295,13021
294,13028
292,13033
292,13034
291,13037
290,13041
288,13046
286,13053
284,13060
283,13063
283,13064
282,13067
280,13073
278,13079
278,13082
277,13083
277,13085
275,13090
273,13095
272,13099
271,13101
270,13103
269,13105
269,13106
268,13108
267,13109
267,13110
266,13112
265,13115
264,13118
264,13119
264,13120
264,13121
264,13124
264,13127
264,13128
264,13129
264,13130
266,13133
268,13136
271,13137
273,13138
275,13139
276,13139
279,13141
284,13142
287,13144
288,13144
290,13145
293,13145
297,13146
302,13148
307,13150
309,13150
310,13151
312,13152
316,13153
320,13154
322,13155
323,13155
324,13155
328,13156
332,13157
335,13158
337,13159
339,13159
340,13159
342,13160
346,13161
348,13162
349,13162
351,13162
354,13163
357,13164
362,13165
367,13166
368,13167
369,13167
371,13168
376,13169
381,13170
383,13171
384,13171
386,13171
391,13172
396,13173
400,13174
402,13175
404,13175
405,13175
407,13174
411,13174
413,13173
414,13173
415,13172
417,13171
419,13169
421,13167
422,13165
423,13163
423,13162
424,13159
425,13156
425,13155
425,13154
426,13153
426,13151
426,13149
426,13147
426,13146
426,13145
427,13142
428,13136
429,13133
429,13132
430,13130
430,13126
431,13122
433,13115
435,13109
435,13106
436,13105
436,13102
438,13095
440,13088
440,13085
441,13084
441,13081
443,13075
445,13068
446,13063
447,13060
448,13057
448,13056
450,13049
454,13038
456,13031
456,13030
456,13029
457,13026
459,13021
461,13015
464,13007
467,13000
468,12997
468,12996
469,12993
472,12987
474,12981
476,12978
476,12977
477,12975
479,12970
481,12965
482,12961
483,12959
484,12957
484,12956
486,12953
487,12947
489,12944
489,12943
490,12940
491,12937
493,12932
495,12926
497,12920
498,12918
498,12917
499,12915
501,12909
503,12903
504,12901
504,12900
504,12898
506,12893
508,12888
509,12885
509,12883
510,12881
" style="stroke:#ffffff;stroke-width:7;
stroke-linejoin:bevel; stroke-linecap:butt;
"/>
<!-- Line -->
<!--  spline  -->
<polyline points="407,13175
408,13175
410,13174
414,13174
416,13173
417,13173
418,13172
420,13171
422,13169
424,13167
425,13165
426,13163
426,13162
427,13159
428,13156
428,13155
428,13154
428,13153
428,13151
428,13149
429,13147
429,13146
429,13145
430,13142
431,13136
432,13133
432,13132
433,13130
433,13126
434,13122
436,13115
438,13109
438,13106
439,13105
439,13102
441,13095
443,13088
443,13085
444,13084
444,13081
446,13075
448,13068
449,13063
450,13060
451,13057
451,13056
453,13049
457,13038
459,13031
459,13030
459,13029
460,13026
462,13021
464,13015
467,13007
470,13000
471,12997
471,12996
472,12993
475,12987
477,12981
479,12978
479,12977
480,12975
482,12970
484,12965
485,12961
486,12959
487,12957
487,12956
489,12953
490,12947
492,12944
492,12943
493,12940
494,12937
496,12932
498,12926
500,12920
500,12918
501,12917
501,12915
503,12909
505,12903
506,12901
506,12900
507,12898
509,12893
510,12888
511,12885
512,12883
512,12881
512,12880
513,12876
515,12870
516,12866
516,12865
516,12864
517,12861
518,12856
520,12849
522,12839
524,12830
525,12826
526,12824
527,12820
529,12811
531,12802
532,12798
532,12796
533,12793
534,12786
535,12780
536,12776
536,12773
536,12772
536,12770
536,12767
536,12765
536,12764
536,12762
535,12760
535,12758
534,12756
534,12755
534,12754
533,12752
532,12750
532,12749
531,12749
531,12748
530,12747
529,12746
528,12745
527,12744
527,12743
527,12742
527,12741
527,12740
527,12739
527,12738
526,12737
525,12737
524,12736
523,12736
523,12735
524,12735
524,12734
524,12733
524,12732
525,12731
525,12729
526,12727
526,12726
526,12725
527,12722
527,12719
528,12718
527,12717
528,12716
528,12713
529,12710
529,12708
530,12706
530,12705
530,12704
531,12701
532,12697
533,12694
533,12693
533,12691
533,12689
534,12687
534,12684
534,12682
534,12681
535,12680
535,12678
535,12677
536,12676
536,12675
536,12674
536,12673
536,12672
536,12671
536,12670
536,12669
535,12669
535,12668
534,12668
533,12668
533,12667
532,12667
531,12667
528,12666
522,12664
519,12663
518,12663
" style="stroke:#ffffff;stroke-width:7;
stroke-linejoin:bevel; stroke-linecap:butt;
"/>
<!-- Line -->
<!--  spline  -->
<polyline points="347,13138
347,13139
346,13139
345,13139
344,13139
344,13138
343,13138
342,13138
342,13137
342,13136
343,13136
344,13136
345,13136
346,13136
347,13136
347,13137
347,13138
" style="stroke:#000000;stroke-width:0;
stroke-linejoin:bevel; stroke-linecap:butt;
fill:#000000;
"/>
<!-- Line -->
<!--  polyline  -->
<polyline points="342,13136
337,13154
" style="stroke:#000000;stroke-width:0;
stroke-linejoin:round; stroke-linecap:butt;
fill:#000000;
"/>
<!-- Line -->
<!--  polyline  -->
<polyline points="343,13138
338,13155
" style="stroke:#000000;stroke-width:0;
stroke-linejoin:round; stroke-linecap:butt;
fill:#000000;
"/>
<!-- Line -->
<!--  polyline  -->
<polyline points="347,13138
342,13156
" style="stroke:#000000;stroke-width:0;
stroke-linejoin:round; stroke-linecap:butt;
fill:#000000;
"/>
<!-- Line -->
<!--  polyline  -->
<polyline points="346,13139
341,13155
" style="stroke:#000000;stroke-width:0;
stroke-linejoin:round; stroke-linecap:butt;
fill:#000000;
"/>
<!-- Line -->
<!--  polyline  -->
<polyline points="378,12879
374,12891
" style="stroke:#000000;stroke-width:0;
stroke-linejoin:round; stroke-linecap:butt;
fill:#000000;
"/>
<!-- Line -->
<!--  polyline  -->
<polyline points="379,12879
375,12892
" style="stroke:#000000;stroke-width:0;
stroke-linejoin:round; stroke-linecap:butt;
fill:#000000;
"/>
<!-- Line -->
<!--  polyline  -->
<polyline points="449,12899
446,12911
" style="stroke:#000000;stroke-width:0;
stroke-linejoin:round; stroke-linecap:butt;
fill:#000000;
"/>
<!-- Line -->
<!--  polyline  -->
<polyline points="448,12898
444,12911
" style="stroke:#000000;stroke-width:0;
stroke-linejoin:round; stroke-linecap:butt;
fill:#000000;
"/>
<!-- Line -->
<!--  spline  -->
<polyline points="347,13138
347,13139
346,13139
345,13139
344,13139
344,13138
343,13138
342,13138
342,13137
342,13136
343,13136
344,13136
345,13136
346,13136
347,13136
347,13137
347,13138
" style="stroke:#ffffff;stroke-width:7;
stroke-linejoin:bevel; stroke-linecap:butt;
"/>
<!-- Line -->
<!--  polyline  -->
<polyline points="342,13136
337,13154
" style="stroke:#ffffff;stroke-width:7;
stroke-linejoin:round; stroke-linecap:butt;
"/>
<!-- Line -->
<!--  polyline  -->
<polyline points="343,13138
338,13155
" style="stroke:#ffffff;stroke-width:7;
stroke-linejoin:round; stroke-linecap:butt;
"/>
<!-- Line -->
<!--  polyline  -->
<polyline points="347,13138
342,13156
" style="stroke:#ffffff;stroke-width:7;
stroke-linejoin:round; stroke-linecap:butt;
"/>
<!-- Line -->
<!--  polyline  -->
<polyline points="346,13139
341,13155
" style="stroke:#ffffff;stroke-width:7;
stroke-linejoin:round; stroke-linecap:butt;
"/>
<!-- Line -->
<!--  polyline  -->
<polyline points="378,12879
374,12891
" style="stroke:#ffffff;stroke-width:7;
stroke-linejoin:round; stroke-linecap:butt;
"/>
<!-- Line -->
<!--  polyline  -->
<polyline points="379,12879
375,12892
" style="stroke:#ffffff;stroke-width:7;
stroke-linejoin:round; stroke-linecap:butt;
"/>
<!-- Line -->
<!--  polyline  -->
<polyline points="449,12899
446,12911
" style="stroke:#ffffff;stroke-width:7;
stroke-linejoin:round; stroke-linecap:butt;
"/>
<!-- Line -->
<!--  polyline  -->
<polyline points="448,12898
444,12911
" style="stroke:#ffffff;stroke-width:7;
stroke-linejoin:round; stroke-linecap:butt;
"/>
<!-- Line -->
<!--  spline  -->
<polyline points="521,12736
521,12735
521,12734
521,12733
521,12732
522,12731
522,12729
523,12727
523,12726
523,12725
524,12722
525,12719
525,12718
525,12717
525,12716
526,12713
526,12710
527,12708
527,12706
527,12705
527,12704
528,12701
529,12697
530,12694
530,12693
530,12691
531,12689
531,12687
532,12684
532,12682
533,12681
533,12680
533,12678
533,12677
533,12676
533,12675
533,12674
534,12674
534,12673
533,12673
533,12672
533,12671
533,12670
533,12669
532,12669
532,12668
531,12668
530,12668
530,12667
529,12667
528,12667
525,12666
519,12664
516,12663
515,12663
514,12663
513,12663
512,12663
511,12663
511,12664
510,12665
509,12666
508,12667
508,12668
507,12669
507,12670
506,12672
505,12674
505,12675
504,12675
504,12676
503,12679
502,12682
502,12683
502,12684
501,12685
500,12689
498,12693
497,12696
496,12699
495,12701
494,12703
494,12706
493,12708
492,12709
492,12710
491,12712
490,12714
489,12716
489,12717
489,12718
488,12719
488,12720
487,12721
487,12722
487,12723
486,12723
486,12724
" style="stroke:#04b5de;stroke-width:0;
stroke-linejoin:bevel; stroke-linecap:butt;
fill:#04b5de;
"/>
<!-- Line -->
<!--  spline  -->
<polyline points="522,12730
520,12729
517,12728
515,12727
514,12726
513,12726
511,12725
509,12724
507,12723
506,12723
505,12723
504,12723
502,12722
500,12721
499,12721
498,12721
497,12721
495,12720
492,12719
491,12718
489,12718
488,12717
" style="stroke:#04b5de;stroke-width:0;
stroke-linejoin:bevel; stroke-linecap:butt;
fill:#04b5de;
"/>
<!-- Line -->
<!--  spline  -->
<polyline points="398,12702
397,12704
396,12707
395,12709
394,12711
392,12715
390,12719
387,12727
384,12735
382,12738
381,12739
380,12743
376,12753
372,12763
370,12768
370,12770
368,12775
364,12786
360,12797
358,12805
356,12812
354,12817
353,12820
353,12821
353,12822
351,12828
348,12840
345,12851
343,12857
343,12858
343,12859
342,12863
341,12869
339,12877
337,12887
335,12895
335,12899
334,12900
334,12903
333,12910
332,12917
332,12919
332,12920
332,12923
332,12929
332,12936
332,12941
333,12945
333,12948
334,12949
334,12951
335,12952
335,12953
336,12954
336,12955
337,12957
338,12958
338,12959
339,12959
340,12960
341,12961
342,12961
342,12962
343,12962
344,12963
345,12964
347,12964
347,12965
348,12965
349,12965
349,12966
350,12966
351,12966
352,12966
353,12966
353,12967
354,12967
355,12967
356,12967
356,12968
357,12968
358,12968
359,12968
359,12969
360,12969
361,12969
361,12970
362,12970
363,12970
364,12970
364,12971
365,12971
366,12972
367,12972
368,12973
369,12974
370,12975
371,12975
371,12976
372,12976
373,12976
372,12977
373,12977
374,12977
374,12978
375,12978
376,12978
376,12979
377,12979
377,12980
378,12980
378,12981
379,12981
380,12981
381,12981
382,12981
382,12982
383,12982
384,12983
385,12983
386,12984
387,12984
388,12984
390,12985
391,12985
392,12985
393,12985
394,12985
395,12985
396,12985
397,12985
396,12985
397,12985
398,12985
399,12985
400,12985
401,12985
402,12985
403,12985
404,12985
405,12985
406,12985
407,12985
408,12984
409,12984
410,12984
412,12984
413,12984
414,12984
415,12984
416,12984
417,12984
418,12985
419,12985
420,12985
421,12985
422,12985
422,12986
423,12986
424,12986
425,12986
425,12987
426,12987
427,12987
428,12987
429,12987
429,12988
430,12988
432,12988
433,12988
435,12988
436,12988
437,12988
438,12988
440,12988
441,12988
442,12987
443,12987
444,12986
445,12985
446,12985
447,12985
448,12984
449,12983
450,12982
451,12982
451,12981
452,12980
454,12976
459,12970
461,12966
462,12965
463,12963
465,12959
468,12955
471,12948
474,12941
475,12938
476,12937
477,12934
480,12926
483,12917
484,12914
485,12913
486,12909
489,12898
492,12888
495,12879
497,12871
499,12865
500,12862
500,12861
500,12860
502,12854
505,12843
507,12833
509,12827
509,12826
509,12825
510,12821
511,12813
513,12804
515,12792
517,12782
517,12777
517,12775
518,12771
519,12763
520,12755
520,12752
520,12751
520,12749
521,12744
521,12740
522,12738
522,12737
" style="stroke:#04b5de;stroke-width:0;
stroke-linejoin:bevel; stroke-linecap:butt;
fill:#04b5de;
"/>
<!-- Line -->
<!--  spline  -->
<polyline points="381,12732
382,12732
385,12733
391,12733
394,12734
395,12734
397,12734
401,12735
405,12736
410,12737
415,12738
417,12738
417,12739
419,12739
424,12740
429,12741
431,12741
433,12742
438,12743
443,12744
447,12745
450,12746
452,12747
453,12747
456,12748
462,12750
465,12751
466,12751
468,12752
471,12752
475,12753
480,12755
485,12757
487,12757
487,12758
489,12758
494,12760
499,12762
501,12762
501,12763
503,12763
508,12765
513,12767
516,12769
519,12770
521,12771
" style="stroke:#04b5de;stroke-width:0;
stroke-linejoin:bevel; stroke-linecap:butt;
fill:#04b5de;
"/>
<!-- Line -->
<!--  spline  -->
<polyline points="435,12939
435,12940
434,12942
432,12946
431,12948
431,12949
430,12950
428,12952
426,12954
423,12957
420,12959
419,12960
418,12960
417,12961
414,12962
411,12963
409,12964
407,12965
404,12965
400,12965
397,12964
395,12964
393,12963
392,12963
390,12962
385,12960
383,12959
382,12959
381,12958
379,12956
377,12954
374,12951
372,12948
371,12947
371,12946
370,12945
369,12942
368,12939
368,12937
367,12937
367,12936
367,12932
367,12928
367,12925
368,12922
368,12920
368,12919
370,12917
371,12913
373,12911
373,12910
374,12909
375,12907
377,12905
380,12902
383,12900
384,12899
386,12898
389,12897
392,12896
394,12896
395,12895
396,12895
400,12895
404,12895
407,12895
409,12896
411,12896
412,12896
414,12898
418,12899
420,12901
421,12901
422,12902
424,12903
426,12905
429,12908
431,12911
432,12912
433,12914
434,12917
435,12920
436,12922
436,12923
437,12924
437,12928
437,12932
436,12935
436,12937
435,12939
" style="stroke:#04b5de;stroke-width:0;
stroke-linejoin:bevel; stroke-linecap:butt;
fill:#04b5de;
"/>
<!-- Line -->
<!--  spline  -->
<polyline points="435,12939
435,12940
434,12942
432,12946
431,12948
431,12949
430,12950
428,12952
426,12954
423,12957
420,12959
419,12960
418,12960
417,12961
414,12962
411,12963
409,12964
407,12965
404,12965
400,12965
397,12964
395,12964
393,12963
392,12963
390,12962
385,12960
383,12959
382,12959
381,12958
379,12956
377,12954
374,12951
372,12948
371,12947
371,12946
370,12945
369,12942
368,12939
368,12937
367,12937
367,12936
367,12932
367,12928
367,12925
368,12922
368,12920
368,12919
370,12917
371,12913
373,12911
373,12910
374,12909
375,12907
377,12905
380,12902
383,12900
384,12899
386,12898
389,12897
392,12896
394,12896
395,12895
396,12895
400,12895
404,12895
407,12895
409,12896
411,12896
412,12896
414,12898
418,12899
420,12901
421,12901
422,12902
424,12903
426,12905
429,12908
431,12911
432,12912
433,12914
434,12917
435,12920
436,12922
436,12923
437,12924
437,12928
437,12932
436,12935
436,12937
435,12939
" style="stroke:#ffffff;stroke-width:7;
stroke-linejoin:bevel; stroke-linecap:butt;
"/>
<!-- Line -->
<!--  polyline  -->
<polyline points="447,12757
458,12715
" style="stroke:#000000;stroke-width:0;
stroke-linejoin:miter; stroke-linecap:butt;
fill:#000000;
"/>
<!-- Line -->
<!--  polyline  -->
<polyline points="447,12757
458,12715
" style="stroke:#ffffff;stroke-width:7;
stroke-linejoin:round; stroke-linecap:butt;
"/>
<!-- Line -->
<!--  polyline  -->
<polyline points="451,12758
462,12716
" style="stroke:#000000;stroke-width:0;
stroke-linejoin:round; stroke-linecap:butt;
fill:#000000;
"/>
<!-- Line -->
<!--  polyline  -->
<polyline points="451,12758
462,12716
" style="stroke:#ffffff;stroke-width:7;
stroke-linejoin:round; stroke-linecap:butt;
"/>
<!-- Line -->
<!--  spline  -->
<polyline points="486,12887
486,12888
485,12888
485,12889
485,12890
484,12890
483,12890
483,12891
482,12891
481,12891
480,12891
479,12891
478,12891
473,12889
461,12886
442,12881
418,12874
395,12868
376,12863
364,12860
359,12858
358,12858
357,12858
357,12857
356,12857
355,12857
355,12856
355,12855
354,12855
354,12854
354,12853
354,12852
354,12851
354,12850
356,12844
360,12831
365,12813
369,12794
373,12781
375,12775
375,12774
376,12773
376,12772
377,12772
377,12771
377,12770
378,12770
379,12770
380,12770
381,12770
382,12770
383,12770
388,12772
400,12775
419,12780
443,12787
466,12794
485,12799
497,12802
502,12804
503,12804
504,12804
505,12805
506,12805
506,12806
506,12807
506,12806
506,12807
506,12808
507,12808
507,12809
507,12810
507,12811
507,12812
505,12818
501,12831
497,12849
492,12867
488,12880
486,12886
486,12887
" style="stroke:#000000;stroke-width:0;
stroke-linejoin:bevel; stroke-linecap:butt;
fill:#000000;
"/>
<!-- Line -->
<!--  spline  -->
<polyline points="486,12887
486,12888
485,12888
485,12889
485,12890
484,12890
483,12890
483,12891
482,12891
481,12891
480,12891
479,12891
478,12891
473,12889
461,12886
442,12881
418,12874
395,12868
376,12863
364,12860
359,12858
358,12858
357,12858
357,12857
356,12857
355,12857
355,12856
355,12855
354,12855
354,12854
354,12853
354,12852
354,12851
354,12850
356,12844
360,12831
365,12813
369,12794
373,12781
375,12775
375,12774
376,12773
376,12772
377,12772
377,12771
377,12770
378,12770
379,12770
380,12770
381,12770
382,12770
383,12770
388,12772
400,12775
419,12780
443,12787
466,12794
485,12799
497,12802
502,12804
503,12804
504,12804
505,12805
506,12805
506,12806
506,12807
506,12806
506,12807
506,12808
507,12808
507,12809
507,12810
507,12811
507,12812
505,12818
501,12831
497,12849
492,12867
488,12880
486,12886
486,12887
" style="stroke:#ffffff;stroke-width:7;
stroke-linejoin:bevel; stroke-linecap:butt;
"/>
<!-- Line -->
<!--  spline  -->
<polyline points="350,12994
349,12995
349,12997
348,12998
348,12999
347,12999
346,13000
345,13001
344,13002
343,13002
342,13003
341,13003
340,13004
339,13004
338,13004
337,13004
335,13004
335,13003
334,13003
333,13003
331,13002
330,13002
329,13002
329,13001
328,13000
327,12999
326,12998
326,12997
326,12996
325,12995
325,12994
324,12993
324,12992
324,12991
324,12990
324,12988
324,12987
325,12986
325,12984
326,12983
326,12982
327,12982
328,12981
329,12980
330,12979
331,12979
332,12979
333,12978
334,12978
335,12977
336,12977
337,12977
338,12977
340,12977
340,12978
341,12978
342,12978
344,12979
345,12979
346,12979
346,12980
347,12981
348,12982
349,12983
349,12984
349,12985
350,12986
350,12987
351,12988
351,12989
351,12990
351,12991
351,12993
350,12993
350,12994
" style="stroke:#ffffff;stroke-width:0;
stroke-linejoin:bevel; stroke-linecap:butt;
fill:#ffffff;
"/>
<!-- Line -->
<!--  spline  -->
<polyline points="326,13076
325,13077
325,13078
324,13079
324,13080
323,13080
322,13081
321,13082
320,13083
319,13083
318,13084
317,13084
316,13085
315,13085
314,13085
313,13085
311,13085
310,13085
309,13084
307,13084
306,13083
305,13083
305,13082
304,13081
303,13080
302,13079
302,13078
301,13077
301,13076
300,13075
300,13074
300,13073
300,13071
300,13070
300,13069
300,13068
301,13067
301,13066
302,13065
302,13064
303,13064
304,13063
305,13062
306,13061
307,13061
308,13060
309,13060
310,13059
311,13059
312,13059
314,13059
315,13059
316,13059
317,13059
318,13060
319,13060
320,13061
321,13061
321,13062
322,13063
323,13064
324,13065
324,13066
325,13067
325,13068
326,13069
326,13070
326,13071
326,13073
326,13074
326,13075
326,13076
" style="stroke:#ffffff;stroke-width:0;
stroke-linejoin:bevel; stroke-linecap:butt;
fill:#ffffff;
"/>
<!-- Line -->
<!--  spline  -->
<polyline points="438,13019
437,13020
437,13022
436,13023
436,13024
435,13024
434,13025
433,13026
432,13027
431,13027
430,13028
429,13028
428,13029
427,13029
426,13029
425,13029
423,13029
422,13029
421,13028
419,13028
418,13027
417,13027
417,13026
416,13025
415,13024
414,13023
414,13022
413,13021
413,13020
412,13019
412,13018
412,13017
412,13015
412,13014
412,13013
412,13012
413,13011
413,13009
414,13008
414,13007
415,13007
416,13006
417,13005
418,13004
419,13003
420,13003
421,13003
422,13003
423,13003
424,13003
426,13003
427,13003
428,13003
429,13003
430,13004
432,13004
433,13005
434,13005
434,13006
435,13007
436,13008
437,13009
438,13010
438,13011
438,13012
438,13013
438,13014
438,13015
438,13016
438,13018
438,13019
" style="stroke:#ffffff;stroke-width:0;
stroke-linejoin:bevel; stroke-linecap:butt;
fill:#ffffff;
"/>
<!-- Line -->
<!--  spline  -->
<polyline points="414,13101
413,13102
413,13104
412,13105
412,13106
411,13106
410,13107
409,13108
408,13109
407,13109
406,13110
405,13110
404,13111
403,13111
402,13111
400,13111
399,13111
398,13110
397,13110
396,13109
395,13109
394,13108
393,13108
392,13107
391,13106
390,13105
390,13104
390,13103
389,13102
389,13101
388,13100
388,13099
388,13098
388,13097
388,13095
388,13094
389,13093
389,13091
390,13090
390,13089
391,13089
392,13088
393,13087
394,13086
395,13086
396,13085
397,13085
398,13084
399,13084
400,13084
402,13084
403,13084
404,13085
405,13085
406,13085
407,13086
408,13086
409,13086
409,13087
410,13088
411,13089
412,13090
412,13091
412,13092
413,13093
413,13094
414,13095
414,13096
414,13097
414,13098
414,13100
414,13101
" style="stroke:#ffffff;stroke-width:0;
stroke-linejoin:bevel; stroke-linecap:butt;
fill:#ffffff;
"/>
<!-- Line -->
<!--  spline  -->
<polyline points="392,13016
391,13017
391,13019
390,13020
390,13021
389,13021
388,13022
387,13023
386,13024
385,13024
384,13025
383,13025
382,13026
381,13026
380,13026
378,13026
377,13026
376,13026
375,13026
374,13025
372,13025
371,13024
370,13024
370,13023
369,13022
368,13021
367,13020
366,13019
366,13018
366,13017
366,13016
366,13015
366,13014
366,13012
366,13011
366,13010
366,13009
367,13008
367,13006
368,13005
368,13004
369,13004
370,13003
371,13002
372,13001
373,13000
374,13000
375,13000
376,13000
377,13000
378,13000
379,13000
381,13000
382,13000
383,13001
385,13001
386,13002
387,13002
387,13003
388,13004
389,13005
390,13006
390,13007
391,13008
391,13009
392,13010
392,13011
392,13012
392,13013
392,13015
392,13016
" style="stroke:#ffffff;stroke-width:0;
stroke-linejoin:bevel; stroke-linecap:butt;
fill:#ffffff;
"/>
<!-- Line -->
<!--  spline  -->
<polyline points="338,13035
337,13036
337,13038
336,13039
336,13040
335,13041
334,13042
333,13043
332,13043
331,13043
330,13044
329,13044
328,13045
327,13045
326,13045
325,13045
323,13045
323,13044
322,13044
321,13043
319,13043
318,13042
317,13042
316,13041
315,13040
314,13039
314,13038
314,13037
313,13036
313,13035
312,13034
312,13033
312,13032
312,13031
312,13029
313,13029
313,13028
313,13027
314,13025
314,13024
314,13023
315,13023
316,13022
317,13021
318,13020
319,13020
320,13020
321,13019
322,13019
323,13018
324,13018
325,13018
326,13018
328,13018
328,13019
329,13019
330,13019
332,13020
333,13020
334,13020
334,13021
335,13022
336,13023
337,13024
337,13025
337,13026
338,13027
338,13028
339,13029
339,13030
339,13031
339,13032
339,13034
338,13034
338,13035
" style="stroke:#ffffff;stroke-width:0;
stroke-linejoin:bevel; stroke-linecap:butt;
fill:#ffffff;
"/>
<!-- Line -->
<!--  spline  -->
<polyline points="426,13060
425,13061
425,13063
424,13064
424,13065
423,13066
422,13067
421,13068
420,13068
419,13068
418,13069
417,13069
416,13070
415,13070
414,13070
413,13070
411,13070
410,13070
409,13069
407,13069
406,13068
405,13068
405,13067
404,13066
403,13065
402,13064
402,13063
402,13062
401,13061
401,13060
400,13059
400,13058
400,13057
400,13056
400,13054
401,13054
401,13053
401,13052
402,13050
402,13049
402,13048
403,13048
404,13047
405,13046
406,13045
407,13045
408,13045
409,13044
410,13044
411,13043
412,13043
413,13043
414,13043
416,13043
416,13044
417,13044
418,13045
420,13045
421,13046
422,13046
423,13047
424,13048
425,13049
425,13050
425,13051
426,13052
426,13053
427,13054
427,13055
427,13056
427,13057
427,13059
426,13059
426,13060
" style="stroke:#ffffff;stroke-width:0;
stroke-linejoin:bevel; stroke-linecap:butt;
fill:#ffffff;
"/>
<!-- Line -->
<!--  spline  -->
<polyline points="380,13057
379,13058
379,13060
378,13061
378,13062
377,13062
376,13063
375,13064
374,13065
373,13065
372,13066
371,13066
370,13067
369,13067
368,13067
367,13067
365,13067
364,13067
363,13066
361,13066
360,13065
359,13065
359,13064
358,13063
357,13062
356,13061
356,13060
356,13059
355,13058
355,13057
354,13056
354,13055
354,13054
354,13053
354,13051
354,13050
355,13049
355,13047
356,13046
356,13045
357,13045
358,13044
359,13043
360,13042
361,13042
362,13041
363,13041
364,13040
365,13040
366,13040
368,13040
369,13040
370,13041
371,13041
372,13042
373,13042
374,13043
375,13043
375,13044
376,13045
377,13046
378,13047
378,13048
379,13049
379,13050
380,13051
380,13052
380,13053
380,13054
380,13056
380,13057
" style="stroke:#ffffff;stroke-width:0;
stroke-linejoin:bevel; stroke-linecap:butt;
fill:#ffffff;
"/>
<!-- Line -->
<!--  spline  -->
<polyline points="368,13098
367,13099
367,13101
366,13102
366,13103
365,13103
364,13104
363,13105
362,13106
361,13106
360,13106
359,13107
358,13107
357,13108
356,13108
355,13108
354,13108
352,13108
352,13107
351,13107
350,13106
348,13106
347,13105
346,13105
345,13104
344,13103
343,13102
343,13101
343,13100
342,13099
342,13098
341,13097
341,13096
341,13095
341,13094
341,13092
342,13092
342,13091
343,13090
343,13088
344,13087
344,13086
345,13085
346,13084
347,13083
348,13083
349,13083
350,13082
351,13082
352,13081
353,13081
354,13081
355,13081
357,13081
357,13082
358,13082
359,13082
361,13083
362,13083
363,13083
363,13084
364,13085
365,13086
366,13087
366,13088
366,13089
367,13090
367,13091
368,13092
368,13093
368,13094
368,13095
368,13097
368,13098
" style="stroke:#ffffff;stroke-width:0;
stroke-linejoin:bevel; stroke-linecap:butt;
fill:#ffffff;
"/>
</g>
</svg>
