<?xml version="1.0" standalone="no"?>
<!DOCTYPE svg PUBLIC "-//W3C//DTD SVG 1.1//EN"
"http://www.w3.org/Graphics/SVG/1.1/DTD/svg11.dtd">
<!-- Creator: fig2dev Version 3.2 Patchlevel 5c -->
<!-- CreationDate: Fri Sep 14 10:46:35 2012 -->
<!-- Magnification: 1.000 -->
<svg xmlns="http://www.w3.org/2000/svg" width="0.5in" height="0.2in" viewBox="-2 12961 622 242">
<g style="stroke-width:.025in; fill:none">
<!-- Line -->
<!--  polyline  -->
<polyline points="10,13191
10,13067
506,13067
506,13191
10,13191
" style="stroke:#02709f;stroke-width:0;
stroke-linejoin:miter; stroke-linecap:butt;
fill:#02709f;
"/>
<!-- Line -->
<!--  polyline  -->
<polyline points="10,13191
10,13067
506,13067
506,13191
10,13191
" style="stroke:#ffffff;stroke-width:7;
stroke-linejoin:miter; stroke-linecap:butt;
"/>
<!-- Line -->
<!--  polyline  -->
<polyline points="506,13191
506,13067
10,13067
133,12973
576,12973
608,12973
608,13077
506,13191
" style="stroke:#02709f;stroke-width:0;
stroke-linejoin:miter; stroke-linecap:butt;
fill:#02709f;
"/>
<!-- Line -->
<!--  polyline  -->
<polyline points="506,13191
506,13067
10,13067
133,12973
576,12973
608,12973
608,13077
506,13191
" style="stroke:#ffffff;stroke-width:7;
stroke-linejoin:miter; stroke-linecap:butt;
"/>
<!-- Line -->
<!--  polyline  -->
<polyline points="512,13064
601,12975
" style="stroke:#02709f;stroke-width:0;
stroke-linejoin:miter; stroke-linecap:butt;
fill:#02709f;
"/>
<!-- Line -->
<!--  polyline  -->
<polyline points="512,13064
601,12975
" style="stroke:#ffffff;stroke-width:7;
stroke-linejoin:miter; stroke-linecap:butt;
"/>
<!-- Line -->
<!--  spline  -->
<polyline points="96,13150
98,13150
99,13149
101,13149
102,13149
103,13148
104,13147
106,13146
107,13145
108,13145
109,13144
110,13143
111,13142
112,13141
112,13140
113,13138
114,13136
114,13134
114,13133
114,13132
114,13130
113,13129
113,13127
113,13126
112,13125
111,13124
110,13122
109,13121
108,13120
107,13119
106,13118
104,13117
104,13116
103,13116
101,13115
99,13115
98,13115
97,13115
96,13115
94,13115
92,13115
90,13115
89,13115
88,13116
87,13117
85,13118
84,13119
83,13120
83,13121
82,13122
81,13124
80,13124
80,13125
79,13127
78,13129
78,13130
78,13131
78,13132
78,13134
79,13136
79,13138
79,13139
80,13140
81,13141
82,13143
83,13144
83,13145
84,13145
85,13146
86,13147
87,13148
88,13148
90,13149
92,13150
94,13150
95,13150
96,13150
" style="stroke:#ffffff;stroke-width:0;
stroke-linejoin:bevel; stroke-linecap:butt;
fill:#ffffff;
"/>
<!-- Line -->
<!--  spline  -->
<polyline points="175,13150
177,13150
179,13149
181,13149
182,13149
183,13148
184,13147
186,13146
187,13145
188,13145
188,13144
189,13143
190,13142
191,13141
191,13140
192,13138
193,13136
193,13134
193,13133
193,13132
193,13130
192,13129
192,13127
192,13126
191,13125
190,13124
189,13122
188,13121
188,13120
187,13119
186,13118
185,13117
184,13116
183,13116
181,13115
179,13115
177,13115
176,13115
175,13115
173,13115
171,13115
169,13115
168,13115
168,13116
166,13117
165,13118
164,13119
163,13120
162,13121
161,13122
160,13124
159,13124
159,13125
158,13127
157,13129
157,13130
157,13131
157,13132
157,13134
158,13136
158,13138
158,13139
159,13140
160,13141
161,13143
162,13144
163,13145
164,13145
165,13146
166,13147
167,13148
169,13149
171,13150
173,13150
174,13150
175,13150
" style="stroke:#ffffff;stroke-width:0;
stroke-linejoin:bevel; stroke-linecap:butt;
fill:#ffffff;
"/>
<!-- Line -->
<!--  spline  -->
<polyline points="254,13150
256,13150
258,13149
260,13149
261,13149
262,13148
263,13147
265,13146
266,13145
267,13145
268,13144
269,13143
270,13142
270,13141
270,13140
271,13138
271,13136
272,13134
272,13133
272,13132
272,13130
271,13129
271,13127
271,13126
271,13125
270,13124
269,13122
268,13121
267,13120
266,13119
265,13118
263,13117
263,13116
262,13116
260,13115
258,13115
256,13115
255,13115
254,13115
252,13115
251,13115
249,13115
248,13115
247,13116
246,13117
244,13118
243,13119
242,13120
241,13121
240,13122
239,13124
238,13124
238,13125
237,13127
237,13129
237,13130
237,13131
237,13132
237,13134
237,13136
237,13138
237,13139
238,13140
239,13141
240,13143
241,13144
242,13145
243,13145
244,13146
246,13147
246,13148
247,13148
249,13149
251,13150
252,13150
253,13150
254,13150
" style="stroke:#ffffff;stroke-width:0;
stroke-linejoin:bevel; stroke-linecap:butt;
fill:#ffffff;
"/>
<!-- Line -->
<!--  spline  -->
<polyline points="333,13150
335,13150
337,13149
339,13149
340,13149
341,13148
342,13147
344,13146
345,13145
346,13145
347,13144
348,13143
349,13142
349,13141
349,13140
350,13138
350,13136
351,13134
351,13133
351,13132
351,13130
350,13129
350,13127
350,13126
350,13125
349,13124
348,13122
347,13121
346,13120
345,13119
344,13118
342,13117
342,13116
341,13116
339,13115
337,13115
335,13115
334,13115
333,13115
331,13115
330,13115
328,13115
327,13115
326,13116
325,13117
323,13118
322,13119
321,13120
320,13121
319,13122
318,13124
318,13125
317,13127
317,13129
316,13130
316,13131
316,13132
316,13134
317,13136
317,13138
317,13139
317,13140
318,13141
319,13143
320,13144
321,13145
322,13145
323,13146
325,13147
325,13148
326,13148
328,13149
330,13150
331,13150
332,13150
333,13150
" style="stroke:#ffffff;stroke-width:0;
stroke-linejoin:bevel; stroke-linecap:butt;
fill:#ffffff;
"/>
<!-- Line -->
<!--  spline  -->
<polyline points="413,13150
415,13150
416,13149
418,13149
419,13149
420,13148
421,13147
423,13146
424,13145
425,13145
426,13144
427,13143
428,13142
428,13141
428,13140
429,13138
429,13136
430,13134
430,13133
430,13132
430,13130
429,13129
429,13127
429,13126
429,13125
428,13124
427,13122
426,13121
425,13120
424,13119
423,13118
421,13117
421,13116
420,13116
418,13115
416,13115
415,13115
414,13115
413,13115
411,13115
409,13115
407,13115
406,13115
405,13116
404,13117
402,13118
401,13119
400,13120
399,13121
398,13122
397,13124
397,13125
396,13127
396,13129
395,13130
395,13131
395,13132
395,13134
396,13136
396,13138
396,13139
396,13140
397,13141
398,13143
399,13144
400,13145
401,13145
402,13146
404,13147
404,13148
405,13148
407,13149
409,13150
411,13150
412,13150
413,13150
" style="stroke:#ffffff;stroke-width:0;
stroke-linejoin:bevel; stroke-linecap:butt;
fill:#ffffff;
"/>
</g>
</svg>
