<?xml version="1.0" standalone="no"?>
<!DOCTYPE svg PUBLIC "-//W3C//DTD SVG 1.1//EN"
"http://www.w3.org/Graphics/SVG/1.1/DTD/svg11.dtd">
<!-- Creator: fig2dev Version 3.2 Patchlevel 5c -->
<!-- CreationDate: Fri Sep 14 10:46:36 2012 -->
<!-- Magnification: 1.000 -->
<svg xmlns="http://www.w3.org/2000/svg" width="0.4in" height="0.5in" viewBox="4906 6293 458 619">
<g style="stroke-width:.025in; fill:none">
<!-- Line -->
<!--  polyline  -->
<polyline points="5278,6900
5278,6533
4918,6533
4918,6900
5278,6900
" style="stroke:#07a8d6;stroke-width:0;
stroke-linejoin:miter; stroke-linecap:butt;
fill:#07a8d6;
"/>
<!-- Line -->
<!--  polyline  -->
<polyline points="5278,6900
5278,6533
4918,6533
4918,6900
5278,6900
" style="stroke:#ffffff;stroke-width:7;
stroke-linejoin:miter; stroke-linecap:butt;
"/>
<!-- Line -->
<!--  polyline  -->
<polyline points="5278,6533
5352,6460
" style="stroke:#07a8d6;stroke-width:0;
stroke-linejoin:miter; stroke-linecap:butt;
fill:#07a8d6;
"/>
<!-- Line -->
<!--  polyline  -->
<polyline points="5278,6533
5352,6460
" style="stroke:#ffffff;stroke-width:7;
stroke-linejoin:miter; stroke-linecap:butt;
"/>
<!-- Line -->
<!--  polyline  -->
<polyline points="5136,6533
5136,6900
" style="stroke:#07a8d6;stroke-width:0;
stroke-linejoin:miter; stroke-linecap:butt;
fill:#07a8d6;
"/>
<!-- Line -->
<!--  polyline  -->
<polyline points="5136,6533
5136,6900
" style="stroke:#ffffff;stroke-width:7;
stroke-linejoin:miter; stroke-linecap:butt;
"/>
<!-- Line -->
<!--  polyline  -->
<polyline points="5278,6744
5278,6378
4918,6378
4918,6744
5278,6744
" style="stroke:#07a8d6;stroke-width:0;
stroke-linejoin:miter; stroke-linecap:butt;
fill:#07a8d6;
"/>
<!-- Line -->
<!--  polyline  -->
<polyline points="5278,6744
5278,6378
4918,6378
4918,6744
5278,6744
" style="stroke:#ffffff;stroke-width:7;
stroke-linejoin:miter; stroke-linecap:butt;
"/>
<!-- Line -->
<!--  polyline  -->
<polyline points="5352,6305
5352,6305
5352,6819
5278,6894
5278,6378
5278,6378
5352,6305
" style="stroke:#07a8d6;stroke-width:0;
stroke-linejoin:miter; stroke-linecap:butt;
fill:#07a8d6;
"/>
<!-- Line -->
<!--  polyline  -->
<polyline points="5352,6305
5352,6305
5352,6819
5278,6894
5278,6378
5278,6378
5352,6305
" style="stroke:#ffffff;stroke-width:7;
stroke-linejoin:miter; stroke-linecap:butt;
"/>
<!-- Line -->
<!--  polyline  -->
<polyline points="5278,6378
4919,6378
5010,6305
5352,6305
5278,6378
" style="stroke:#07a8d6;stroke-width:0;
stroke-linejoin:miter; stroke-linecap:butt;
fill:#07a8d6;
"/>
<!-- Line -->
<!--  polyline  -->
<polyline points="5278,6378
4919,6378
5010,6305
5352,6305
5278,6378
" style="stroke:#ffffff;stroke-width:7;
stroke-linejoin:miter; stroke-linecap:butt;
"/>
<!-- Line -->
<!--  polyline  -->
<polyline points="5278,6378
5352,6305
" style="stroke:#07a8d6;stroke-width:0;
stroke-linejoin:miter; stroke-linecap:butt;
fill:#07a8d6;
"/>
<!-- Line -->
<!--  polyline  -->
<polyline points="5278,6378
5352,6305
" style="stroke:#ffffff;stroke-width:7;
stroke-linejoin:miter; stroke-linecap:butt;
"/>
<!-- Line -->
<!--  polyline  -->
<polyline points="4968,6472
5259,6472
" style="stroke:#07a8d6;stroke-width:0;
stroke-linejoin:miter; stroke-linecap:butt;
fill:#07a8d6;
"/>
<!-- Line -->
<!--  polyline  -->
<polyline points="4968,6472
5259,6472
" style="stroke:#ffffff;stroke-width:7;
stroke-linejoin:miter; stroke-linecap:butt;
"/>
<!-- Line -->
<!--  polyline  -->
<polyline points="4955,6561
5247,6561
" style="stroke:#07a8d6;stroke-width:0;
stroke-linejoin:miter; stroke-linecap:butt;
fill:#07a8d6;
"/>
<!-- Line -->
<!--  polyline  -->
<polyline points="4955,6561
5247,6561
" style="stroke:#ffffff;stroke-width:7;
stroke-linejoin:miter; stroke-linecap:butt;
"/>
<!-- Line -->
<!--  polyline  -->
<polyline points="4942,6645
5232,6645
" style="stroke:#07a8d6;stroke-width:0;
stroke-linejoin:miter; stroke-linecap:butt;
fill:#07a8d6;
"/>
<!-- Line -->
<!--  polyline  -->
<polyline points="4942,6645
5232,6645
" style="stroke:#ffffff;stroke-width:7;
stroke-linejoin:miter; stroke-linecap:butt;
"/>
<!-- Line -->
<!--  polyline  -->
<polyline points="4982,6695
5041,6419
" style="stroke:#07a8d6;stroke-width:0;
stroke-linejoin:miter; stroke-linecap:butt;
fill:#07a8d6;
"/>
<!-- Line -->
<!--  polyline  -->
<polyline points="4982,6695
5041,6419
" style="stroke:#ffffff;stroke-width:7;
stroke-linejoin:miter; stroke-linecap:butt;
"/>
<!-- Line -->
<!--  polyline  -->
<polyline points="5168,6695
5228,6419
" style="stroke:#07a8d6;stroke-width:0;
stroke-linejoin:miter; stroke-linecap:butt;
fill:#07a8d6;
"/>
<!-- Line -->
<!--  polyline  -->
<polyline points="5168,6695
5228,6419
" style="stroke:#ffffff;stroke-width:7;
stroke-linejoin:miter; stroke-linecap:butt;
"/>
<!-- Line -->
<!--  polyline  -->
<polyline points="5075,6693
5135,6417
" style="stroke:#07a8d6;stroke-width:0;
stroke-linejoin:miter; stroke-linecap:butt;
fill:#07a8d6;
"/>
<!-- Line -->
<!--  polyline  -->
<polyline points="5075,6693
5135,6417
" style="stroke:#ffffff;stroke-width:7;
stroke-linejoin:miter; stroke-linecap:butt;
"/>
<!-- Line -->
<!--  spline  -->
<polyline points="5052,6471
5052,6473
5051,6474
5051,6476
5051,6477
5050,6477
5049,6479
5048,6480
5047,6481
5046,6482
5045,6483
5043,6484
5041,6485
5040,6485
5039,6485
5037,6486
5035,6486
5033,6487
5031,6487
5030,6487
5028,6487
5024,6486
5022,6486
5021,6486
5020,6486
5018,6485
5016,6484
5014,6483
5013,6482
5012,6481
5011,6480
5010,6479
5009,6478
5009,6477
5008,6476
5007,6474
5007,6473
5007,6472
5007,6471
5007,6470
5008,6468
5008,6467
5008,6466
5009,6466
5010,6464
5011,6463
5012,6462
5013,6461
5014,6460
5016,6459
5018,6458
5019,6458
5020,6458
5022,6457
5025,6457
5027,6456
5029,6456
5030,6456
5032,6456
5035,6457
5037,6457
5038,6457
5039,6457
5041,6458
5043,6459
5045,6460
5046,6461
5047,6462
5048,6463
5049,6464
5050,6465
5050,6466
5051,6467
5052,6468
5052,6470
5052,6471
" style="stroke:#ffffff;stroke-width:0;
stroke-linejoin:bevel; stroke-linecap:butt;
fill:#ffffff;
"/>
<!-- Line -->
<!--  spline  -->
<polyline points="5146,6468
5146,6470
5145,6471
5145,6473
5145,6474
5144,6475
5143,6476
5142,6477
5141,6478
5140,6479
5139,6479
5137,6480
5135,6481
5134,6481
5133,6481
5131,6482
5129,6482
5127,6483
5125,6483
5124,6483
5122,6483
5119,6482
5117,6482
5116,6482
5114,6481
5112,6481
5110,6480
5108,6479
5107,6479
5106,6478
5105,6477
5104,6476
5103,6475
5103,6474
5102,6473
5101,6471
5101,6470
5101,6469
5101,6468
5101,6466
5102,6465
5102,6463
5102,6462
5103,6461
5104,6460
5105,6459
5106,6458
5107,6457
5108,6457
5110,6456
5112,6455
5113,6454
5114,6454
5115,6454
5117,6453
5120,6453
5121,6453
5123,6453
5124,6453
5126,6453
5129,6453
5131,6453
5132,6453
5133,6454
5135,6455
5137,6456
5139,6457
5140,6457
5141,6458
5142,6459
5143,6460
5144,6461
5144,6462
5145,6463
5146,6465
5146,6466
5146,6467
5146,6468
" style="stroke:#ffffff;stroke-width:0;
stroke-linejoin:bevel; stroke-linecap:butt;
fill:#ffffff;
"/>
<!-- Line -->
<!--  spline  -->
<polyline points="5241,6474
5241,6476
5240,6477
5240,6479
5239,6480
5237,6482
5236,6483
5235,6484
5234,6485
5234,6486
5232,6487
5230,6488
5229,6488
5228,6488
5227,6488
5225,6489
5222,6489
5221,6490
5219,6490
5218,6490
5216,6490
5213,6489
5211,6489
5210,6489
5209,6489
5207,6488
5205,6487
5203,6486
5202,6485
5201,6484
5200,6483
5199,6482
5198,6481
5198,6480
5197,6479
5196,6477
5196,6476
5195,6475
5195,6474
5196,6473
5196,6471
5197,6470
5197,6469
5198,6468
5199,6467
5200,6465
5201,6464
5202,6463
5203,6463
5205,6462
5207,6461
5208,6461
5209,6461
5211,6460
5213,6460
5215,6459
5217,6459
5218,6459
5220,6459
5223,6460
5225,6460
5226,6460
5228,6461
5230,6461
5232,6462
5234,6463
5235,6464
5236,6465
5237,6466
5238,6467
5238,6468
5239,6468
5240,6470
5241,6472
5241,6473
5241,6474
" style="stroke:#ffffff;stroke-width:0;
stroke-linejoin:bevel; stroke-linecap:butt;
fill:#ffffff;
"/>
<!-- Line -->
<!--  spline  -->
<polyline points="5031,6562
5031,6563
5030,6565
5030,6566
5030,6567
5029,6567
5028,6569
5027,6570
5026,6571
5025,6572
5024,6573
5022,6574
5020,6575
5019,6575
5018,6575
5017,6575
5015,6576
5012,6576
5011,6577
5009,6577
5008,6577
5006,6577
5003,6576
5001,6576
5000,6576
4999,6576
4997,6575
4995,6574
4993,6573
4992,6572
4991,6571
4990,6570
4989,6569
4988,6568
4988,6567
4987,6566
4986,6565
4986,6563
4985,6563
4985,6562
4986,6560
4986,6559
4987,6557
4987,6556
4988,6556
4989,6554
4990,6553
4991,6552
4992,6551
4993,6550
4995,6549
4997,6548
4998,6548
4999,6548
5001,6547
5003,6547
5005,6546
5007,6546
5008,6546
5010,6546
5013,6547
5015,6547
5016,6547
5018,6547
5020,6548
5022,6549
5024,6550
5025,6551
5026,6552
5027,6553
5028,6554
5029,6555
5029,6556
5030,6557
5031,6559
5031,6560
5031,6561
5031,6562
" style="stroke:#ffffff;stroke-width:0;
stroke-linejoin:bevel; stroke-linecap:butt;
fill:#ffffff;
"/>
<!-- Line -->
<!--  spline  -->
<polyline points="5125,6564
5125,6566
5124,6567
5124,6569
5124,6570
5123,6570
5122,6572
5121,6573
5120,6574
5119,6575
5118,6576
5116,6577
5114,6578
5113,6578
5112,6578
5110,6579
5107,6579
5105,6580
5103,6580
5102,6580
5100,6580
5097,6579
5095,6579
5094,6579
5093,6579
5091,6578
5089,6577
5087,6576
5086,6575
5085,6574
5084,6573
5083,6572
5082,6571
5082,6570
5081,6569
5080,6567
5080,6566
5080,6565
5080,6564
5080,6563
5081,6561
5081,6560
5081,6559
5082,6558
5083,6557
5084,6555
5085,6554
5086,6553
5087,6553
5089,6552
5091,6551
5092,6551
5093,6551
5095,6550
5097,6550
5099,6549
5101,6549
5102,6549
5104,6549
5108,6550
5110,6550
5111,6550
5112,6551
5114,6551
5116,6552
5118,6553
5119,6553
5120,6554
5121,6555
5122,6556
5123,6557
5123,6558
5124,6560
5125,6562
5125,6563
5125,6564
" style="stroke:#ffffff;stroke-width:0;
stroke-linejoin:bevel; stroke-linecap:butt;
fill:#ffffff;
"/>
<!-- Line -->
<!--  spline  -->
<polyline points="5219,6560
5219,6562
5218,6563
5218,6565
5218,6566
5217,6567
5216,6568
5215,6569
5214,6570
5213,6571
5212,6571
5210,6572
5208,6573
5207,6573
5206,6573
5204,6574
5202,6574
5200,6575
5198,6575
5197,6575
5195,6575
5191,6574
5189,6574
5188,6574
5187,6573
5185,6573
5183,6572
5181,6571
5180,6571
5179,6570
5178,6569
5177,6568
5176,6567
5176,6566
5175,6565
5174,6563
5174,6562
5174,6561
5174,6560
5174,6558
5175,6557
5175,6555
5175,6554
5176,6553
5177,6552
5178,6551
5179,6550
5180,6549
5181,6549
5183,6548
5185,6547
5186,6547
5187,6547
5189,6546
5192,6546
5194,6545
5196,6545
5197,6545
5199,6545
5202,6546
5204,6546
5205,6546
5206,6547
5208,6547
5210,6548
5212,6549
5213,6549
5214,6550
5215,6551
5216,6552
5217,6553
5217,6554
5218,6555
5219,6557
5219,6558
5219,6559
5219,6560
" style="stroke:#ffffff;stroke-width:0;
stroke-linejoin:bevel; stroke-linecap:butt;
fill:#ffffff;
"/>
<!-- Line -->
<!--  spline  -->
<polyline points="5012,6647
5012,6649
5011,6650
5011,6652
5011,6653
5010,6654
5009,6655
5008,6656
5007,6657
5006,6658
5005,6658
5003,6659
5001,6660
5000,6660
4999,6660
4997,6661
4994,6661
4992,6662
4990,6662
4989,6662
4987,6662
4984,6661
4982,6661
4981,6661
4980,6660
4978,6660
4976,6659
4974,6658
4973,6658
4972,6657
4971,6656
4970,6655
4969,6654
4969,6653
4968,6652
4967,6650
4967,6649
4967,6648
4967,6647
4967,6645
4968,6644
4968,6642
4968,6641
4969,6640
4970,6639
4971,6638
4972,6637
4973,6636
4974,6636
4976,6635
4978,6634
4979,6634
4980,6634
4982,6633
4984,6633
4986,6632
4988,6632
4989,6632
4991,6632
4995,6633
4997,6633
4998,6633
4999,6634
5001,6634
5003,6635
5005,6636
5006,6636
5007,6637
5008,6638
5009,6639
5010,6640
5010,6641
5011,6642
5012,6644
5012,6645
5012,6646
5012,6647
" style="stroke:#ffffff;stroke-width:0;
stroke-linejoin:bevel; stroke-linecap:butt;
fill:#ffffff;
"/>
<!-- Line -->
<!--  spline  -->
<polyline points="5106,6648
5106,6649
5105,6651
5105,6652
5105,6653
5104,6654
5103,6655
5102,6657
5101,6658
5100,6659
5099,6659
5097,6660
5095,6661
5094,6661
5093,6661
5091,6662
5089,6662
5087,6663
5085,6663
5084,6663
5082,6663
5078,6662
5076,6662
5075,6662
5074,6661
5072,6661
5070,6660
5068,6659
5067,6659
5066,6658
5065,6657
5064,6656
5063,6655
5063,6654
5062,6652
5061,6650
5061,6649
5061,6648
5061,6646
5062,6645
5062,6643
5062,6642
5063,6642
5064,6640
5065,6639
5066,6638
5067,6637
5068,6636
5070,6635
5072,6634
5073,6634
5074,6634
5076,6633
5079,6633
5081,6632
5083,6632
5084,6632
5086,6632
5089,6633
5091,6633
5092,6633
5093,6633
5095,6634
5097,6635
5099,6636
5100,6637
5101,6638
5102,6639
5103,6640
5104,6641
5104,6642
5105,6643
5106,6645
5106,6646
5106,6647
5106,6648
" style="stroke:#ffffff;stroke-width:0;
stroke-linejoin:bevel; stroke-linecap:butt;
fill:#ffffff;
"/>
<!-- Line -->
<!--  spline  -->
<polyline points="5201,6648
5200,6649
5200,6651
5199,6652
5199,6653
5198,6654
5197,6655
5196,6657
5195,6658
5194,6659
5193,6659
5191,6660
5189,6661
5188,6661
5187,6661
5185,6662
5183,6662
5181,6663
5179,6663
5178,6663
5176,6663
5173,6662
5171,6662
5170,6662
5169,6661
5167,6661
5165,6660
5163,6659
5162,6659
5162,6658
5160,6657
5159,6656
5158,6655
5158,6654
5157,6654
5156,6652
5155,6650
5155,6649
5155,6648
5155,6646
5156,6645
5156,6643
5157,6642
5158,6640
5160,6639
5162,6638
5162,6637
5163,6636
5165,6635
5167,6634
5168,6634
5169,6634
5171,6633
5173,6633
5175,6632
5177,6632
5178,6632
5180,6632
5183,6633
5185,6633
5186,6633
5187,6633
5189,6634
5191,6635
5193,6636
5194,6637
5195,6638
5196,6639
5197,6640
5198,6641
5198,6642
5199,6643
5200,6645
5200,6646
5201,6647
5201,6648
" style="stroke:#ffffff;stroke-width:0;
stroke-linejoin:bevel; stroke-linecap:butt;
fill:#ffffff;
"/>
<!-- Line -->
<!--  spline  -->
<polyline points="5254,6785
5253,6787
5253,6788
5252,6790
5251,6791
5250,6791
5249,6793
5246,6794
5243,6795
5242,6796
5241,6796
5240,6797
5236,6798
5232,6799
5231,6799
5230,6799
5228,6799
5224,6800
5219,6800
5215,6801
5212,6801
5210,6801
5209,6801
5206,6801
5200,6800
5197,6800
5196,6800
5194,6800
5191,6800
5188,6799
5184,6798
5181,6797
5179,6796
5178,6795
5175,6794
5173,6793
5172,6792
5171,6792
5171,6791
5169,6790
5168,6788
5167,6787
5166,6786
5166,6785
5166,6786
5166,6792
5166,6806
5166,6825
5166,6844
5166,6858
5166,6864
5166,6865
5167,6867
5168,6868
5169,6870
5170,6871
5171,6871
5172,6873
5175,6874
5178,6875
5179,6876
5181,6877
5184,6878
5188,6879
5189,6879
5190,6879
5192,6879
5196,6880
5201,6880
5205,6881
5208,6881
5210,6881
5211,6881
5214,6881
5220,6880
5223,6880
5224,6880
5226,6880
5229,6880
5232,6879
5236,6878
5240,6877
5241,6876
5242,6876
5243,6875
5246,6874
5249,6873
5249,6872
5250,6872
5251,6871
5252,6870
5253,6868
5254,6867
5254,6866
5254,6865
5254,6864
5254,6858
5254,6844
5254,6825
5254,6806
5254,6792
5254,6786
5254,6785
" style="stroke:#07a8d6;stroke-width:0;
stroke-linejoin:bevel; stroke-linecap:butt;
fill:#07a8d6;
"/>
<!-- Line -->
<!--  spline  -->
<polyline points="5254,6785
5253,6787
5253,6788
5252,6790
5251,6791
5250,6791
5249,6793
5246,6794
5243,6795
5242,6796
5241,6796
5240,6797
5236,6798
5232,6799
5231,6799
5230,6799
5228,6799
5224,6800
5219,6800
5215,6801
5212,6801
5210,6801
5209,6801
5206,6801
5200,6800
5197,6800
5196,6800
5194,6800
5191,6800
5188,6799
5184,6798
5181,6797
5179,6796
5178,6795
5175,6794
5173,6793
5172,6792
5171,6792
5171,6791
5169,6790
5168,6788
5167,6787
5166,6786
5166,6785
5166,6786
5166,6792
5166,6806
5166,6825
5166,6844
5166,6858
5166,6864
5166,6865
5167,6867
5168,6868
5169,6870
5170,6871
5171,6871
5172,6873
5175,6874
5178,6875
5179,6876
5181,6877
5184,6878
5188,6879
5189,6879
5190,6879
5192,6879
5196,6880
5201,6880
5205,6881
5208,6881
5210,6881
5211,6881
5214,6881
5220,6880
5223,6880
5224,6880
5226,6880
5229,6880
5232,6879
5236,6878
5240,6877
5241,6876
5242,6876
5243,6875
5246,6874
5249,6873
5249,6872
5250,6872
5251,6871
5252,6870
5253,6868
5254,6867
5254,6866
5254,6865
5254,6864
5254,6858
5254,6844
5254,6825
5254,6806
5254,6792
5254,6786
5254,6785
" style="stroke:#ffffff;stroke-width:7;
stroke-linejoin:bevel; stroke-linecap:butt;
"/>
<!-- Line -->
<!--  spline  -->
<polyline points="5210,6801
5211,6801
5214,6801
5220,6800
5223,6800
5224,6800
5226,6800
5229,6800
5232,6799
5236,6798
5240,6797
5241,6796
5242,6796
5243,6795
5246,6794
5249,6793
5249,6792
5250,6792
5251,6791
5252,6790
5253,6788
5254,6787
5254,6786
5254,6785
5253,6783
5253,6782
5252,6780
5251,6779
5250,6778
5249,6777
5246,6775
5243,6774
5242,6773
5241,6773
5240,6773
5236,6772
5232,6771
5231,6770
5230,6770
5228,6770
5224,6769
5219,6768
5215,6768
5212,6768
5210,6768
5209,6768
5206,6768
5200,6769
5197,6769
5196,6769
5194,6769
5191,6770
5188,6771
5184,6772
5181,6773
5179,6773
5178,6774
5175,6775
5173,6776
5172,6777
5171,6778
5169,6780
5168,6782
5167,6783
5166,6784
5166,6785
5167,6787
5168,6788
5169,6790
5170,6791
5171,6791
5172,6793
5175,6794
5178,6795
5179,6796
5181,6797
5184,6798
5188,6799
5189,6799
5190,6799
5192,6799
5196,6800
5201,6800
5205,6801
5208,6801
5210,6801
" style="stroke:#07a8d6;stroke-width:0;
stroke-linejoin:bevel; stroke-linecap:butt;
fill:#07a8d6;
"/>
<!-- Line -->
<!--  spline  -->
<polyline points="5210,6801
5211,6801
5214,6801
5220,6800
5223,6800
5224,6800
5226,6800
5229,6800
5232,6799
5236,6798
5240,6797
5241,6796
5242,6796
5243,6795
5246,6794
5249,6793
5249,6792
5250,6792
5251,6791
5252,6790
5253,6788
5254,6787
5254,6786
5254,6785
5253,6783
5253,6782
5252,6780
5251,6779
5250,6778
5249,6777
5246,6775
5243,6774
5242,6773
5241,6773
5240,6773
5236,6772
5232,6771
5231,6770
5230,6770
5228,6770
5224,6769
5219,6768
5215,6768
5212,6768
5210,6768
5209,6768
5206,6768
5200,6769
5197,6769
5196,6769
5194,6769
5191,6770
5188,6771
5184,6772
5181,6773
5179,6773
5178,6774
5175,6775
5173,6776
5172,6777
5171,6778
5169,6780
5168,6782
5167,6783
5166,6784
5166,6785
5167,6787
5168,6788
5169,6790
5170,6791
5171,6791
5172,6793
5175,6794
5178,6795
5179,6796
5181,6797
5184,6798
5188,6799
5189,6799
5190,6799
5192,6799
5196,6800
5201,6800
5205,6801
5208,6801
5210,6801
" style="stroke:#ffffff;stroke-width:7;
stroke-linejoin:bevel; stroke-linecap:butt;
"/>
<!-- Line -->
<!--  polyline  -->
<polyline points="4966,6865
5053,6865
5053,6883
5093,6857
5053,6830
5053,6849
4966,6849
" style="stroke:#ffffff;stroke-width:0;
stroke-linejoin:miter; stroke-linecap:butt;
fill:#ffffff;
"/>
<!-- Line -->
<!--  polyline  -->
<polyline points="5087,6789
5000,6789
5001,6771
4961,6796
5001,6823
5000,6805
5087,6805
" style="stroke:#ffffff;stroke-width:0;
stroke-linejoin:miter; stroke-linecap:butt;
fill:#ffffff;
"/>
</g>
</svg>
