<?xml version="1.0" standalone="no"?>
<!DOCTYPE svg PUBLIC "-//W3C//DTD SVG 1.1//EN"
"http://www.w3.org/Graphics/SVG/1.1/DTD/svg11.dtd">
<!-- Creator: fig2dev Version 3.2 Patchlevel 5c -->
<!-- CreationDate: Fri Sep 14 10:46:36 2012 -->
<!-- Magnification: 1.000 -->
<svg xmlns="http://www.w3.org/2000/svg" width="0.4in" height="0.6in" viewBox="4851 6248 527 708">
<g style="stroke-width:.025in; fill:none">
<!-- Line -->
<!--  polyline  -->
<polyline points="4863,6944
4863,6497
5310,6497
5310,6944
4863,6944
" style="stroke:#00a5d4;stroke-width:0;
stroke-linejoin:miter; stroke-linecap:butt;
fill:#00a5d4;
"/>
<!-- Line -->
<!--  polyline  -->
<polyline points="4863,6944
4863,6497
5310,6497
5310,6944
4863,6944
" style="stroke:#ffffff;stroke-width:7;
stroke-linejoin:miter; stroke-linecap:butt;
"/>
<!-- Line -->
<!--  polyline  -->
<polyline points="5366,6888
5366,6441
5310,6497
5310,6944
5366,6888
" style="stroke:#00a5d4;stroke-width:0;
stroke-linejoin:miter; stroke-linecap:butt;
fill:#00a5d4;
"/>
<!-- Line -->
<!--  polyline  -->
<polyline points="5366,6888
5366,6441
5310,6497
5310,6944
5366,6888
" style="stroke:#ffffff;stroke-width:7;
stroke-linejoin:miter; stroke-linecap:butt;
"/>
<!-- Line -->
<!--  polyline  -->
<polyline points="4945,6260
4863,6316
5310,6316
5366,6260
4945,6260
" style="stroke:#00a5d4;stroke-width:0;
stroke-linejoin:miter; stroke-linecap:butt;
fill:#00a5d4;
"/>
<!-- Line -->
<!--  polyline  -->
<polyline points="4945,6260
4863,6316
5310,6316
5366,6260
4945,6260
" style="stroke:#ffffff;stroke-width:7;
stroke-linejoin:miter; stroke-linecap:butt;
"/>
<!-- Line -->
<!--  polyline  -->
<polyline points="4863,6497
4863,6316
5310,6316
5310,6497
4863,6497
" style="stroke:#00a5d4;stroke-width:0;
stroke-linejoin:miter; stroke-linecap:butt;
fill:#00a5d4;
"/>
<!-- Line -->
<!--  polyline  -->
<polyline points="4863,6497
4863,6316
5310,6316
5310,6497
4863,6497
" style="stroke:#ffffff;stroke-width:7;
stroke-linejoin:miter; stroke-linecap:butt;
"/>
<!-- Line -->
<!--  polyline  -->
<polyline points="5366,6441
5366,6260
5310,6316
5310,6497
5366,6441
" style="stroke:#00a5d4;stroke-width:0;
stroke-linejoin:miter; stroke-linecap:butt;
fill:#00a5d4;
"/>
<!-- Line -->
<!--  polyline  -->
<polyline points="5366,6441
5366,6260
5310,6316
5310,6497
5366,6441
" style="stroke:#ffffff;stroke-width:7;
stroke-linejoin:miter; stroke-linecap:butt;
"/>
<!-- Line -->
<!--  polyline  -->
<polyline points="5310,6497
4863,6497
" style="stroke:#00a5d4;stroke-width:0;
stroke-linejoin:miter; stroke-linecap:butt;
fill:#00a5d4;
"/>
<!-- Line -->
<!--  polyline  -->
<polyline points="5310,6497
4863,6497
" style="stroke:#ffffff;stroke-width:7;
stroke-linejoin:miter; stroke-linecap:butt;
"/>
<!-- Line -->
<!--  polyline  -->
<polyline points="5310,6497
5366,6441
" style="stroke:#00a5d4;stroke-width:0;
stroke-linejoin:miter; stroke-linecap:butt;
fill:#00a5d4;
"/>
<!-- Line -->
<!--  polyline  -->
<polyline points="5310,6497
5366,6441
" style="stroke:#ffffff;stroke-width:7;
stroke-linejoin:miter; stroke-linecap:butt;
"/>
<!-- Line -->
<!--  polyline  -->
<polyline points="5008,6378
5008,6340
4936,6340
4936,6378
5008,6378
" style="stroke:#ffffff;stroke-width:0;
stroke-linejoin:miter; stroke-linecap:butt;
fill:#ffffff;
"/>
<!-- Line -->
<!--  polyline  -->
<polyline points="5173,6378
5173,6340
5245,6340
5245,6378
5173,6378
" style="stroke:#ffffff;stroke-width:0;
stroke-linejoin:miter; stroke-linecap:butt;
fill:#ffffff;
"/>
<!-- Line -->
<!--  polyline  -->
<polyline points="5008,6472
5008,6434
4936,6434
4936,6472
5008,6472
" style="stroke:#ffffff;stroke-width:0;
stroke-linejoin:miter; stroke-linecap:butt;
fill:#ffffff;
"/>
<!-- Line -->
<!--  polyline  -->
<polyline points="5173,6472
5173,6434
5245,6434
5245,6472
5173,6472
" style="stroke:#ffffff;stroke-width:0;
stroke-linejoin:miter; stroke-linecap:butt;
fill:#ffffff;
"/>
<!-- Line -->
<!--  polyline  -->
<polyline points="4985,6359
5206,6359
" style="stroke:#000000;stroke-width:0;
stroke-linejoin:miter; stroke-linecap:butt;
fill:#000000;
"/>
<!-- Line -->
<!--  polyline  -->
<polyline points="4985,6359
5206,6359
" style="stroke:#ffffff;stroke-width:7;
stroke-linejoin:miter; stroke-linecap:butt;
"/>
<!-- Line -->
<!--  polyline  -->
<polyline points="4985,6453
5206,6453
" style="stroke:#000000;stroke-width:0;
stroke-linejoin:miter; stroke-linecap:butt;
fill:#000000;
"/>
<!-- Line -->
<!--  polyline  -->
<polyline points="4985,6453
5206,6453
" style="stroke:#ffffff;stroke-width:7;
stroke-linejoin:miter; stroke-linecap:butt;
"/>
<!-- Line -->
<!--  polyline  -->
<polyline points="4972,6453
5206,6359
" style="stroke:#000000;stroke-width:0;
stroke-linejoin:miter; stroke-linecap:butt;
fill:#000000;
"/>
<!-- Line -->
<!--  polyline  -->
<polyline points="4972,6453
5206,6359
" style="stroke:#ffffff;stroke-width:7;
stroke-linejoin:miter; stroke-linecap:butt;
"/>
<!-- Line -->
<!--  polyline  -->
<polyline points="4972,6359
5206,6453
" style="stroke:#000000;stroke-width:0;
stroke-linejoin:miter; stroke-linecap:butt;
fill:#000000;
"/>
<!-- Line -->
<!--  polyline  -->
<polyline points="4972,6359
5206,6453
" style="stroke:#ffffff;stroke-width:7;
stroke-linejoin:miter; stroke-linecap:butt;
"/>
<!-- Line -->
<!--  polyline  -->
<polyline points="5109,6620
5140,6620
5140,6625
5152,6617
5140,6609
5140,6615
5109,6615
5109,6620
" style="stroke:#ffffff;stroke-width:0;
stroke-linejoin:miter; stroke-linecap:butt;
fill:#ffffff;
"/>
<!-- Line -->
<!--  polyline  -->
<polyline points="5105,6604
5127,6582
5130,6586
5133,6572
5119,6575
5123,6578
5101,6600
5105,6604
" style="stroke:#ffffff;stroke-width:0;
stroke-linejoin:miter; stroke-linecap:butt;
fill:#ffffff;
"/>
<!-- Line -->
<!--  polyline  -->
<polyline points="5090,6596
5090,6565
5096,6565
5088,6553
5080,6565
5086,6565
5086,6596
5090,6596
" style="stroke:#ffffff;stroke-width:0;
stroke-linejoin:miter; stroke-linecap:butt;
fill:#ffffff;
"/>
<!-- Line -->
<!--  polyline  -->
<polyline points="5075,6600
5053,6578
5057,6575
5043,6572
5046,6586
5049,6582
5071,6604
5075,6600
" style="stroke:#ffffff;stroke-width:0;
stroke-linejoin:miter; stroke-linecap:butt;
fill:#ffffff;
"/>
<!-- Line -->
<!--  polyline  -->
<polyline points="5067,6615
5036,6615
5036,6609
5024,6617
5036,6625
5036,6620
5067,6620
5067,6615
" style="stroke:#ffffff;stroke-width:0;
stroke-linejoin:miter; stroke-linecap:butt;
fill:#ffffff;
"/>
<!-- Line -->
<!--  polyline  -->
<polyline points="5101,6634
5123,6656
5119,6659
5133,6662
5130,6649
5127,6652
5105,6630
5101,6634
" style="stroke:#ffffff;stroke-width:0;
stroke-linejoin:miter; stroke-linecap:butt;
fill:#ffffff;
"/>
<!-- Line -->
<!--  spline  -->
<polyline points="5062,6636
5064,6638
5067,6641
5069,6643
5070,6644
5072,6645
5075,6647
5078,6648
5081,6649
5083,6649
5083,6650
5085,6650
5088,6650
5091,6650
5092,6650
5093,6649
5094,6649
5097,6648
5101,6647
5103,6646
5105,6645
5107,6644
5109,6642
5112,6639
5114,6637
5115,6636
5116,6634
5118,6631
5119,6628
5120,6625
5120,6623
5120,6621
5120,6618
5120,6615
5120,6613
5120,6611
5119,6608
5118,6605
5117,6602
5116,6600
5115,6599
5113,6597
5109,6594
5107,6592
5106,6591
5104,6590
5102,6588
5099,6587
5096,6586
5094,6586
5092,6586
5089,6586
5086,6586
5084,6586
5082,6586
5079,6587
5076,6588
5073,6589
5071,6590
5070,6591
5068,6593
5065,6596
5063,6598
5062,6599
5061,6601
5059,6604
5058,6607
5057,6610
5057,6612
5056,6612
5056,6614
5056,6617
5056,6620
5056,6622
5057,6622
5057,6624
5058,6627
5059,6630
5060,6633
5061,6635
5062,6636
" style="stroke:#ffffff;stroke-width:0;
stroke-linejoin:bevel; stroke-linecap:butt;
fill:#ffffff;
"/>
<!-- Line -->
<!--  polyline  -->
<polyline points="5071,6633
5049,6655
5046,6651
5043,6665
5057,6662
5053,6659
5075,6637
5071,6633
" style="stroke:#ffffff;stroke-width:0;
stroke-linejoin:miter; stroke-linecap:butt;
fill:#ffffff;
"/>
<!-- Line -->
<!--  polyline  -->
<polyline points="5088,6635
5088,6839
" style="stroke:#ffffff;stroke-width:15;
stroke-linejoin:miter; stroke-linecap:butt;
"/>
<!-- Line -->
<!--  polyline  -->
<polyline points="5074,6852
5052,6852
5052,6849
5044,6854
5052,6860
5052,6856
5074,6856
5074,6852
" style="stroke:#ffffff;stroke-width:0;
stroke-linejoin:miter; stroke-linecap:butt;
fill:#ffffff;
"/>
<!-- Line -->
<!--  polyline  -->
<polyline points="5077,6863
5062,6879
5059,6876
5057,6886
5067,6884
5064,6881
5080,6866
5077,6863
" style="stroke:#ffffff;stroke-width:0;
stroke-linejoin:miter; stroke-linecap:butt;
fill:#ffffff;
"/>
<!-- Line -->
<!--  polyline  -->
<polyline points="5087,6869
5087,6891
5083,6891
5089,6899
5094,6891
5091,6891
5091,6869
5087,6869
" style="stroke:#ffffff;stroke-width:0;
stroke-linejoin:miter; stroke-linecap:butt;
fill:#ffffff;
"/>
<!-- Line -->
<!--  polyline  -->
<polyline points="5098,6866
5113,6881
5111,6884
5121,6886
5119,6876
5116,6879
5101,6863
5098,6866
" style="stroke:#ffffff;stroke-width:0;
stroke-linejoin:miter; stroke-linecap:butt;
fill:#ffffff;
"/>
<!-- Line -->
<!--  polyline  -->
<polyline points="5104,6856
5125,6856
5125,6860
5134,6854
5125,6849
5125,6852
5104,6852
5104,6856
" style="stroke:#ffffff;stroke-width:0;
stroke-linejoin:miter; stroke-linecap:butt;
fill:#ffffff;
"/>
<!-- Line -->
<!--  polyline  -->
<polyline points="5080,6842
5064,6827
5067,6824
5057,6822
5059,6832
5062,6830
5077,6845
5080,6842
" style="stroke:#ffffff;stroke-width:0;
stroke-linejoin:miter; stroke-linecap:butt;
fill:#ffffff;
"/>
<!-- Line -->
<!--  spline  -->
<polyline points="5107,6841
5105,6839
5104,6838
5102,6836
5101,6835
5100,6834
5098,6833
5096,6832
5094,6831
5093,6831
5092,6831
5091,6831
5089,6831
5087,6831
5086,6831
5085,6831
5084,6831
5082,6832
5080,6833
5078,6834
5077,6834
5076,6835
5074,6837
5073,6838
5071,6840
5070,6841
5069,6842
5068,6844
5067,6846
5066,6848
5066,6849
5066,6850
5066,6851
5066,6853
5066,6855
5066,6856
5066,6857
5066,6858
5067,6860
5068,6863
5069,6864
5069,6866
5070,6867
5072,6869
5073,6870
5075,6872
5076,6873
5077,6873
5079,6874
5081,6875
5083,6876
5084,6876
5085,6876
5086,6876
5088,6876
5090,6876
5091,6876
5092,6876
5093,6876
5095,6875
5098,6874
5099,6873
5101,6873
5102,6872
5104,6870
5105,6869
5107,6867
5108,6866
5108,6865
5109,6863
5110,6861
5111,6859
5111,6858
5111,6857
5111,6856
5111,6854
5111,6852
5111,6851
5111,6850
5111,6849
5110,6847
5109,6845
5108,6843
5108,6842
5107,6841
" style="stroke:#ffffff;stroke-width:0;
stroke-linejoin:bevel; stroke-linecap:butt;
fill:#ffffff;
"/>
<!-- Line -->
<!--  polyline  -->
<polyline points="5101,6843
5116,6827
5119,6830
5121,6820
5111,6822
5113,6825
5098,6840
5101,6843
" style="stroke:#ffffff;stroke-width:0;
stroke-linejoin:miter; stroke-linecap:butt;
fill:#ffffff;
"/>
</g>
</svg>
