<?xml version="1.0" standalone="no"?>
<!DOCTYPE svg PUBLIC "-//W3C//DTD SVG 1.1//EN"
"http://www.w3.org/Graphics/SVG/1.1/DTD/svg11.dtd">
<!-- Creator: fig2dev Version 3.2 Patchlevel 5c -->
<!-- CreationDate: Fri Sep 14 10:46:37 2012 -->
<!-- Magnification: 1.000 -->
<svg xmlns="http://www.w3.org/2000/svg" width="0.6in" height="0.5in" viewBox="4740 6335 708 542">
<g style="stroke-width:.025in; fill:none">
<!-- Line -->
<!--  polyline  -->
<polyline points="5382,6854
4935,6854
4935,6407
5382,6407
5382,6854
" style="stroke:#00a5d4;stroke-width:0;
stroke-linejoin:miter; stroke-linecap:butt;
fill:#00a5d4;
"/>
<!-- Line -->
<!--  polyline  -->
<polyline points="5382,6854
4935,6854
4935,6407
5382,6407
5382,6854
" style="stroke:#ffffff;stroke-width:7;
stroke-linejoin:miter; stroke-linecap:butt;
"/>
<!-- Line -->
<!--  polyline  -->
<polyline points="4987,6350
5434,6350
5378,6406
4931,6406
4987,6350
" style="stroke:#00a5d4;stroke-width:0;
stroke-linejoin:miter; stroke-linecap:butt;
fill:#00a5d4;
"/>
<!-- Line -->
<!--  polyline  -->
<polyline points="4987,6350
5434,6350
5378,6406
4931,6406
4987,6350
" style="stroke:#ffffff;stroke-width:7;
stroke-linejoin:miter; stroke-linecap:butt;
"/>
<!-- Line -->
<!--  polyline  -->
<polyline points="5436,6783
5380,6865
5380,6403
5436,6347
5436,6783
" style="stroke:#00a5d4;stroke-width:0;
stroke-linejoin:miter; stroke-linecap:butt;
fill:#00a5d4;
"/>
<!-- Line -->
<!--  polyline  -->
<polyline points="5436,6783
5380,6865
5380,6403
5436,6347
5436,6783
" style="stroke:#ffffff;stroke-width:7;
stroke-linejoin:miter; stroke-linecap:butt;
"/>
<!-- Line -->
<!--  polyline  -->
<polyline points="4935,6854
4754,6854
4754,6407
4935,6407
4935,6854
" style="stroke:#00a5d4;stroke-width:0;
stroke-linejoin:miter; stroke-linecap:butt;
fill:#00a5d4;
"/>
<!-- Line -->
<!--  polyline  -->
<polyline points="4935,6854
4754,6854
4754,6407
4935,6407
4935,6854
" style="stroke:#ffffff;stroke-width:7;
stroke-linejoin:miter; stroke-linecap:butt;
"/>
<!-- Line -->
<!--  polyline  -->
<polyline points="4813,6350
4994,6350
4938,6406
4757,6406
4813,6350
" style="stroke:#00a5d4;stroke-width:0;
stroke-linejoin:miter; stroke-linecap:butt;
fill:#00a5d4;
"/>
<!-- Line -->
<!--  polyline  -->
<polyline points="4813,6350
4994,6350
4938,6406
4757,6406
4813,6350
" style="stroke:#ffffff;stroke-width:7;
stroke-linejoin:miter; stroke-linecap:butt;
"/>
<!-- Line -->
<!--  polyline  -->
<polyline points="4935,6407
4935,6854
" style="stroke:#000000;stroke-width:0;
stroke-linejoin:miter; stroke-linecap:butt;
fill:#000000;
"/>
<!-- Line -->
<!--  polyline  -->
<polyline points="4935,6407
4935,6854
" style="stroke:#ffffff;stroke-width:7;
stroke-linejoin:miter; stroke-linecap:butt;
"/>
<!-- Line -->
<!--  polyline  -->
<polyline points="4938,6406
4993,6350
" style="stroke:#b3b3b3;stroke-width:0;
stroke-linejoin:miter; stroke-linecap:butt;
fill:#b3b3b3;
"/>
<!-- Line -->
<!--  polyline  -->
<polyline points="4938,6406
4993,6350
" style="stroke:#ffffff;stroke-width:7;
stroke-linejoin:miter; stroke-linecap:butt;
"/>
<!-- Line -->
<!--  spline  -->
<polyline points="4839,6531
4838,6532
4837,6533
4837,6534
4835,6536
4833,6540
4831,6542
4831,6543
4830,6544
4829,6546
4827,6548
4825,6550
4823,6552
4822,6553
4821,6554
4819,6555
4817,6556
4817,6557
4816,6557
4814,6558
4812,6559
4811,6559
4810,6559
4809,6559
4807,6559
4806,6558
4804,6558
4803,6558
4802,6557
4800,6556
4798,6555
4798,6554
4797,6554
4795,6552
4793,6550
4793,6549
4792,6549
4792,6548
4790,6546
4788,6544
4787,6542
4786,6540
4785,6539
4786,6539
4787,6539
4789,6539
4791,6538
4793,6538
4794,6538
4795,6538
4797,6537
4799,6536
4801,6535
4802,6534
4803,6534
4804,6533
4806,6531
4808,6529
4809,6528
4810,6527
4812,6525
4814,6522
4816,6520
4818,6518
4819,6517
4820,6516
4821,6514
4822,6513
4821,6512
4819,6510
4818,6509
4816,6507
4814,6505
4812,6503
4811,6502
4810,6501
4809,6499
4808,6497
4807,6495
4806,6494
4806,6493
4805,6491
4804,6489
4804,6488
4803,6486
4803,6484
4802,6483
4802,6482
4802,6481
4802,6480
4803,6478
4803,6477
4803,6476
4804,6475
4804,6474
4805,6472
4806,6471
4806,6470
4807,6469
4808,6468
4809,6466
4810,6466
4810,6465
4811,6465
4813,6463
4815,6461
4817,6460
4819,6459
4820,6458
4820,6460
4821,6463
4821,6465
4821,6466
4822,6467
4822,6469
4823,6471
4824,6473
4824,6474
4824,6475
4825,6476
4826,6478
4827,6480
4828,6481
4829,6482
4830,6484
4831,6486
4833,6488
4833,6490
4834,6491
4835,6492
4837,6494
4838,6495
4839,6494
4839,6492
4840,6491
4842,6489
4845,6485
4847,6483
4848,6482
4850,6481
4851,6479
4854,6477
4856,6475
4857,6474
4858,6474
4859,6473
4861,6472
4863,6471
4864,6470
4865,6470
4867,6469
4869,6468
4871,6468
4872,6468
4873,6468
4874,6468
4876,6469
4877,6469
4878,6469
4880,6470
4881,6471
4882,6472
4883,6473
4884,6474
4885,6475
4886,6477
4887,6477
4887,6478
4888,6480
4889,6482
4889,6484
4890,6485
4890,6486
4889,6486
4888,6486
4887,6486
4886,6486
4885,6486
4884,6486
4884,6487
4883,6487
4882,6487
4881,6487
4881,6488
4880,6488
4879,6489
4878,6489
4877,6490
4876,6491
4875,6492
4874,6492
4873,6493
4872,6494
4871,6494
4870,6495
4869,6495
4868,6496
4867,6497
4866,6498
4865,6499
4864,6500
4864,6501
4863,6502
4862,6503
4862,6504
4861,6504
4860,6505
4859,6506
4858,6507
4857,6508
4856,6510
4855,6511
4854,6513
4855,6514
4856,6515
4857,6516
4859,6518
4862,6520
4864,6522
4865,6523
4866,6524
4868,6525
4871,6527
4874,6528
4875,6529
4876,6529
4879,6530
4881,6531
4882,6531
4883,6531
4884,6531
4886,6532
4889,6532
4890,6533
4892,6533
4893,6533
4892,6535
4890,6538
4889,6540
4888,6541
4888,6542
4886,6544
4885,6546
4884,6548
4883,6548
4882,6549
4881,6550
4880,6551
4879,6551
4878,6551
4877,6552
4875,6552
4874,6553
4873,6553
4872,6553
4871,6553
4869,6552
4868,6552
4867,6552
4866,6551
4865,6551
4863,6550
4861,6549
4860,6549
4859,6548
4857,6547
4855,6546
4854,6545
4853,6544
4851,6542
4849,6540
4847,6538
4845,6537
4844,6536
4842,6534
4841,6533
4839,6531
" style="stroke:#ffffff;stroke-width:0;
stroke-linejoin:bevel; stroke-linecap:butt;
fill:#ffffff;
"/>
<!-- Line -->
<!--  spline  -->
<polyline points="4890,6699
4888,6701
4885,6704
4883,6706
4882,6707
4880,6709
4879,6712
4876,6715
4874,6718
4873,6719
4872,6720
4871,6721
4869,6724
4867,6727
4866,6729
4865,6729
4864,6731
4862,6734
4859,6738
4857,6741
4855,6743
4854,6745
4854,6746
4852,6748
4849,6753
4847,6755
4847,6756
4846,6758
4844,6760
4842,6762
4840,6766
4838,6769
4837,6771
4836,6773
4834,6776
4832,6779
4831,6780
4831,6781
4831,6782
4829,6785
4827,6788
4826,6790
4826,6792
4825,6793
4823,6795
4819,6796
4817,6798
4816,6799
4814,6800
4813,6801
4812,6802
4811,6802
4810,6803
4809,6804
4808,6804
4807,6805
4806,6806
4805,6807
4805,6808
4804,6808
4804,6809
4804,6808
4803,6807
4803,6806
4803,6805
4802,6804
4802,6803
4802,6802
4801,6801
4801,6800
4800,6799
4800,6798
4800,6797
4799,6796
4798,6795
4798,6793
4797,6793
4797,6792
4796,6790
4795,6787
4794,6785
4793,6783
4793,6781
4792,6779
4791,6778
4791,6777
4790,6776
4789,6774
4788,6773
4788,6772
4788,6771
4787,6770
4786,6769
4786,6768
4786,6767
4785,6766
4784,6765
4783,6764
4783,6763
4782,6763
4781,6762
4781,6761
4780,6760
4780,6759
4779,6759
4778,6758
4777,6757
4776,6757
4775,6756
4774,6755
4773,6754
4772,6754
4771,6753
4770,6753
4771,6752
4773,6750
4774,6749
4775,6748
4776,6747
4777,6746
4779,6745
4780,6744
4781,6743
4782,6743
4783,6742
4784,6741
4785,6741
4786,6741
4787,6741
4788,6741
4790,6740
4791,6740
4792,6740
4794,6741
4795,6741
4796,6742
4797,6743
4798,6744
4799,6745
4800,6746
4801,6747
4802,6749
4803,6751
4804,6752
4805,6753
4806,6755
4807,6758
4809,6760
4809,6762
4810,6763
4811,6765
4812,6769
4813,6771
4813,6770
4816,6767
4819,6762
4822,6759
4822,6758
4823,6756
4825,6753
4828,6749
4832,6744
4836,6739
4837,6737
4838,6736
4840,6734
4844,6729
4848,6724
4850,6722
4851,6722
4852,6720
4857,6715
4862,6709
4866,6705
4870,6702
4872,6699
4874,6697
4878,6694
4880,6692
4881,6691
4886,6687
4894,6681
4899,6677
4900,6676
4901,6675
4902,6675
4903,6674
4904,6673
4905,6673
4906,6672
4907,6671
4908,6671
4909,6670
4910,6669
4911,6669
4912,6668
4913,6668
4914,6667
4915,6667
4916,6669
4918,6671
4919,6673
4918,6673
4917,6674
4916,6674
4916,6675
4915,6675
4914,6676
4913,6677
4912,6677
4911,6678
4910,6679
4909,6680
4908,6681
4907,6682
4906,6683
4905,6684
4901,6688
4895,6694
4891,6698
4890,6699
" style="stroke:#ffffff;stroke-width:0;
stroke-linejoin:bevel; stroke-linecap:butt;
fill:#ffffff;
"/>
<!-- Line -->
<!--  polyline  -->
<polyline points="4933,6623
4752,6623
" style="stroke:#00a5d4;stroke-width:0;
stroke-linejoin:miter; stroke-linecap:butt;
fill:#00a5d4;
"/>
<!-- Line -->
<!--  polyline  -->
<polyline points="4933,6623
4752,6623
" style="stroke:#ffffff;stroke-width:7;
stroke-linejoin:miter; stroke-linecap:butt;
"/>
<!-- Line -->
<!--  polyline  -->
<polyline points="5378,6729
4934,6729
" style="stroke:#ffffff;stroke-width:7;
stroke-linejoin:round; stroke-linecap:round;
"/>
<!-- Line -->
<!--  polyline  -->
<polyline points="5378,6790
4934,6790
" style="stroke:#ffffff;stroke-width:7;
stroke-linejoin:round; stroke-linecap:round;
"/>
<!-- Line -->
<!--  polyline  -->
<polyline points="5431,6716
5382,6791
" style="stroke:#ffffff;stroke-width:7;
stroke-linejoin:round; stroke-linecap:round;
"/>
<!-- Line -->
<!--  polyline  -->
<polyline points="5066,6793
5066,6849
" style="stroke:#ffffff;stroke-width:7;
stroke-linejoin:round; stroke-linecap:round;
"/>
<!-- Line -->
<!--  polyline  -->
<polyline points="5238,6793
5238,6849
" style="stroke:#ffffff;stroke-width:7;
stroke-linejoin:round; stroke-linecap:round;
"/>
<!-- Line -->
<!--  polyline  -->
<polyline points="5155,6731
5155,6787
" style="stroke:#ffffff;stroke-width:7;
stroke-linejoin:round; stroke-linecap:round;
"/>
<!-- Line -->
<!--  polyline  -->
<polyline points="4983,6731
4983,6787
" style="stroke:#ffffff;stroke-width:7;
stroke-linejoin:round; stroke-linecap:round;
"/>
<!-- Line -->
<!--  polyline  -->
<polyline points="5327,6731
5327,6787
" style="stroke:#ffffff;stroke-width:7;
stroke-linejoin:round; stroke-linecap:round;
"/>
<!-- Line -->
<!--  polyline  -->
<polyline points="5379,6730
5434,6649
" style="stroke:#000000;stroke-width:0;
stroke-linejoin:miter; stroke-linecap:butt;
fill:#000000;
"/>
<!-- Line -->
<!--  polyline  -->
<polyline points="5379,6730
5434,6649
" style="stroke:#ffffff;stroke-width:7;
stroke-linejoin:miter; stroke-linecap:butt;
"/>
<!-- Line -->
<!--  polyline  -->
<polyline points="5405,6764
5405,6830
" style="stroke:#ffffff;stroke-width:7;
stroke-linejoin:round; stroke-linecap:round;
"/>
<!-- Line -->
<!--  polyline  -->
<polyline points="5417,6681
5417,6747
" style="stroke:#ffffff;stroke-width:7;
stroke-linejoin:round; stroke-linecap:round;
"/>
<!-- Line -->
<!--  spline  -->
<polyline points="5060,6709
5061,6709
5063,6708
5064,6708
5065,6708
5066,6707
5067,6707
5068,6706
5069,6705
5070,6705
5070,6704
5071,6703
5072,6702
5072,6701
5072,6700
5073,6699
5073,6698
5074,6696
5074,6695
5074,6693
5073,6692
5073,6690
5073,6689
5072,6688
5072,6687
5071,6686
5070,6685
5070,6684
5069,6684
5068,6683
5067,6682
5066,6682
5065,6682
5064,6681
5063,6681
5061,6680
5060,6680
5058,6680
5057,6681
5055,6681
5054,6681
5053,6682
5052,6682
5051,6683
5050,6684
5049,6684
5049,6685
5048,6686
5047,6687
5047,6688
5047,6689
5046,6690
5046,6692
5045,6693
5045,6694
5045,6695
5045,6696
5046,6698
5046,6699
5046,6700
5047,6701
5047,6702
5048,6703
5049,6704
5049,6705
5050,6705
5051,6706
5052,6707
5053,6707
5054,6707
5055,6708
5057,6708
5058,6709
5059,6709
5060,6709
" style="stroke:#ffffff;stroke-width:0;
stroke-linejoin:bevel; stroke-linecap:butt;
fill:#ffffff;
"/>
<!-- Line -->
<!--  spline  -->
<polyline points="5060,6709
5061,6709
5063,6708
5064,6708
5065,6708
5066,6707
5067,6707
5068,6706
5069,6705
5070,6705
5070,6704
5071,6703
5072,6702
5072,6701
5072,6700
5073,6699
5073,6698
5074,6696
5074,6695
5074,6693
5073,6692
5073,6690
5073,6689
5072,6688
5072,6687
5071,6686
5070,6685
5070,6684
5069,6684
5068,6683
5067,6682
5066,6682
5065,6682
5064,6681
5063,6681
5061,6680
5060,6680
5058,6680
5057,6681
5055,6681
5054,6681
5053,6682
5052,6682
5051,6683
5050,6684
5049,6684
5049,6685
5048,6686
5047,6687
5047,6688
5047,6689
5046,6690
5046,6692
5045,6693
5045,6694
5045,6695
5045,6696
5046,6698
5046,6699
5046,6700
5047,6701
5047,6702
5048,6703
5049,6704
5049,6705
5050,6705
5051,6706
5052,6707
5053,6707
5054,6707
5055,6708
5057,6708
5058,6709
5059,6709
5060,6709
" style="stroke:#000000;stroke-width:7;
stroke-linejoin:bevel; stroke-linecap:butt;
"/>
<!-- Line -->
<!--  polyline  -->
<polyline points="5048,6679
5076,6707
5155,6626
5127,6598
5048,6679
" style="stroke:#ffffff;stroke-width:0;
stroke-linejoin:miter; stroke-linecap:butt;
fill:#ffffff;
"/>
<!-- Line -->
<!--  polyline  -->
<polyline points="5048,6679
5076,6707
5155,6626
5127,6598
5048,6679
" style="stroke:#000000;stroke-width:7;
stroke-linejoin:miter; stroke-linecap:butt;
"/>
<!-- Line -->
<!--  spline  -->
<polyline points="5115,6539
5115,6541
5117,6549
5119,6563
5121,6571
5121,6573
5121,6574
5123,6578
5125,6584
5129,6592
5136,6602
5143,6610
5146,6614
5148,6615
5151,6618
5160,6625
5169,6631
5173,6634
5174,6635
5179,6637
5189,6641
5201,6644
5210,6645
5218,6646
5222,6646
5223,6646
5225,6646
5233,6644
5247,6643
5255,6641
5257,6641
5258,6641
5262,6639
5268,6636
5276,6632
5286,6625
5295,6618
5298,6615
5300,6614
5303,6610
5310,6602
5316,6593
5319,6589
5319,6588
5321,6583
5325,6573
5328,6561
5329,6552
5330,6544
5330,6540
5330,6539
5330,6537
5328,6529
5327,6515
5325,6507
5325,6505
5325,6504
5323,6500
5321,6493
5317,6485
5310,6475
5303,6466
5300,6463
5298,6462
5295,6459
5286,6452
5277,6446
5273,6444
5272,6443
5267,6441
5257,6437
5245,6434
5236,6432
5228,6431
5224,6431
5223,6431
5221,6431
5213,6433
5199,6435
5191,6437
5189,6437
5188,6437
5184,6439
5178,6442
5170,6446
5160,6452
5151,6459
5148,6462
5146,6463
5143,6466
5136,6475
5130,6484
5127,6488
5127,6490
5125,6494
5121,6505
5118,6517
5116,6526
5115,6534
5115,6538
5115,6539
" style="stroke:#ffffff;stroke-width:0;
stroke-linejoin:bevel; stroke-linecap:butt;
fill:#ffffff;
"/>
<!-- Line -->
<!--  spline  -->
<polyline points="5131,6539
5131,6537
5132,6530
5134,6518
5135,6511
5135,6509
5135,6508
5137,6505
5139,6499
5142,6493
5148,6484
5154,6477
5156,6474
5157,6472
5161,6470
5168,6464
5176,6459
5180,6457
5181,6456
5185,6454
5194,6451
5204,6448
5212,6447
5218,6446
5222,6446
5223,6446
5224,6446
5232,6448
5243,6449
5251,6451
5252,6451
5253,6451
5256,6453
5262,6455
5269,6458
5278,6464
5285,6470
5289,6472
5290,6474
5292,6477
5298,6484
5303,6492
5305,6495
5306,6496
5308,6500
5311,6509
5314,6519
5315,6528
5315,6534
5315,6538
5315,6539
5315,6540
5314,6548
5312,6559
5311,6567
5311,6568
5311,6569
5309,6572
5307,6578
5304,6584
5298,6593
5292,6600
5290,6603
5289,6605
5285,6607
5278,6613
5270,6618
5266,6620
5265,6621
5261,6623
5252,6626
5242,6629
5234,6630
5228,6631
5224,6631
5223,6631
5222,6631
5214,6629
5203,6628
5195,6626
5194,6626
5193,6626
5190,6624
5184,6622
5177,6619
5168,6613
5161,6607
5157,6605
5156,6603
5154,6600
5148,6593
5143,6585
5141,6582
5140,6581
5138,6577
5135,6568
5132,6558
5131,6550
5131,6544
5131,6540
5131,6539
" style="stroke:#ffffff;stroke-width:0;
stroke-linejoin:bevel; stroke-linecap:butt;
fill:#ffffff;
"/>
<!-- Line -->
<!--  spline  -->
<polyline points="5115,6539
5115,6541
5117,6549
5119,6563
5121,6571
5121,6573
5121,6574
5123,6578
5125,6584
5129,6592
5136,6602
5143,6610
5146,6614
5148,6615
5151,6618
5160,6625
5169,6631
5173,6634
5174,6635
5179,6637
5189,6641
5201,6644
5210,6645
5218,6646
5222,6646
5223,6646
5225,6646
5233,6644
5247,6643
5255,6641
5257,6641
5258,6641
5262,6639
5268,6636
5276,6632
5286,6625
5295,6618
5298,6615
5300,6614
5303,6610
5310,6602
5316,6593
5319,6589
5319,6588
5321,6583
5325,6573
5328,6561
5329,6552
5330,6544
5330,6540
5330,6539
5330,6537
5328,6529
5327,6515
5325,6507
5325,6505
5325,6504
5323,6500
5321,6493
5317,6485
5310,6475
5303,6466
5300,6463
5298,6462
5295,6459
5286,6452
5277,6446
5273,6444
5272,6443
5267,6441
5257,6437
5245,6434
5236,6432
5228,6431
5224,6431
5223,6431
5221,6431
5213,6433
5199,6435
5191,6437
5189,6437
5188,6437
5184,6439
5178,6442
5170,6446
5160,6452
5151,6459
5148,6462
5146,6463
5143,6466
5136,6475
5130,6484
5127,6488
5127,6490
5125,6494
5121,6505
5118,6517
5116,6526
5115,6534
5115,6538
5115,6539
" style="stroke:#000000;stroke-width:7;
stroke-linejoin:bevel; stroke-linecap:butt;
"/>
<!-- Line -->
<!--  spline  -->
<polyline points="5131,6539
5131,6537
5132,6530
5134,6518
5135,6511
5135,6509
5135,6508
5137,6505
5139,6499
5142,6493
5148,6484
5154,6477
5156,6474
5157,6472
5161,6470
5168,6464
5176,6459
5180,6457
5181,6456
5185,6454
5194,6451
5204,6448
5212,6447
5218,6446
5222,6446
5223,6446
5224,6446
5232,6448
5243,6449
5251,6451
5252,6451
5253,6451
5256,6453
5262,6455
5269,6458
5278,6464
5285,6470
5289,6472
5290,6474
5292,6477
5298,6484
5303,6492
5305,6495
5306,6496
5308,6500
5311,6509
5314,6519
5315,6528
5315,6534
5315,6538
5315,6539
5315,6540
5314,6548
5312,6559
5311,6567
5311,6568
5311,6569
5309,6572
5307,6578
5304,6584
5298,6593
5292,6600
5290,6603
5289,6605
5285,6607
5278,6613
5270,6618
5266,6620
5265,6621
5261,6623
5252,6626
5242,6629
5234,6630
5228,6631
5224,6631
5223,6631
5222,6631
5214,6629
5203,6628
5195,6626
5194,6626
5193,6626
5190,6624
5184,6622
5177,6619
5168,6613
5161,6607
5157,6605
5156,6603
5154,6600
5148,6593
5143,6585
5141,6582
5140,6581
5138,6577
5135,6568
5132,6558
5131,6550
5131,6544
5131,6540
5131,6539
" style="stroke:#000000;stroke-width:7;
stroke-linejoin:bevel; stroke-linecap:butt;
"/>
<!-- Line -->
<!--  spline  -->
<polyline points="5103,6545
5103,6547
5105,6555
5106,6569
5108,6577
5108,6579
5108,6580
5110,6584
5113,6590
5117,6598
5124,6608
5131,6617
5134,6620
5135,6622
5139,6625
5147,6632
5156,6638
5160,6641
5161,6641
5166,6643
5176,6647
5188,6650
5197,6651
5205,6652
5209,6652
5210,6652
5212,6652
5220,6650
5234,6649
5242,6647
5244,6647
5245,6647
5249,6645
5256,6643
5264,6639
5274,6632
5283,6625
5286,6622
5287,6620
5290,6617
5297,6608
5303,6599
5305,6595
5306,6594
5308,6589
5312,6579
5315,6567
5317,6558
5318,6550
5318,6546
5318,6545
5318,6543
5316,6535
5314,6521
5312,6513
5312,6511
5312,6510
5310,6506
5307,6499
5303,6491
5297,6481
5290,6472
5287,6469
5286,6468
5283,6465
5274,6458
5265,6452
5261,6450
5259,6449
5255,6447
5244,6443
5232,6440
5223,6438
5215,6437
5211,6437
5210,6437
5208,6437
5200,6439
5186,6441
5178,6443
5176,6443
5175,6443
5171,6445
5165,6448
5157,6452
5147,6458
5139,6465
5135,6468
5134,6469
5131,6472
5124,6481
5118,6490
5115,6494
5114,6496
5112,6500
5108,6511
5105,6523
5104,6532
5103,6540
5103,6544
5103,6545
" style="stroke:#ffffff;stroke-width:0;
stroke-linejoin:bevel; stroke-linecap:butt;
fill:#ffffff;
"/>
<!-- Line -->
<!--  spline  -->
<polyline points="5118,6545
5118,6544
5120,6536
5121,6525
5123,6517
5123,6516
5123,6515
5125,6512
5127,6506
5130,6499
5136,6490
5142,6483
5144,6479
5146,6478
5149,6476
5156,6470
5164,6465
5167,6463
5168,6462
5172,6460
5181,6457
5191,6454
5199,6453
5205,6452
5209,6452
5210,6452
5212,6452
5219,6454
5231,6455
5238,6457
5240,6457
5241,6457
5244,6459
5250,6461
5256,6464
5265,6470
5272,6476
5275,6478
5277,6479
5279,6483
5285,6490
5290,6498
5292,6502
5293,6503
5295,6507
5298,6516
5301,6526
5302,6534
5303,6540
5303,6544
5303,6545
5303,6546
5301,6554
5300,6565
5298,6573
5298,6574
5298,6575
5296,6578
5294,6584
5291,6590
5285,6599
5279,6606
5277,6609
5275,6610
5272,6613
5265,6619
5257,6625
5254,6627
5253,6628
5249,6630
5240,6633
5230,6636
5221,6637
5215,6637
5211,6637
5210,6637
5209,6637
5201,6636
5190,6634
5182,6633
5181,6633
5180,6633
5177,6631
5171,6629
5165,6625
5156,6619
5149,6613
5146,6610
5144,6609
5142,6606
5136,6599
5131,6591
5129,6588
5128,6587
5126,6583
5123,6574
5120,6564
5119,6556
5118,6550
5118,6546
5118,6545
" style="stroke:#ffffff;stroke-width:0;
stroke-linejoin:bevel; stroke-linecap:butt;
fill:#ffffff;
"/>
<!-- Line -->
<!--  spline  -->
<polyline points="5103,6545
5103,6547
5105,6555
5106,6569
5108,6577
5108,6579
5108,6580
5110,6584
5113,6590
5117,6598
5124,6608
5131,6617
5134,6620
5135,6622
5139,6625
5147,6632
5156,6638
5160,6641
5161,6641
5166,6643
5176,6647
5188,6650
5197,6651
5205,6652
5209,6652
5210,6652
5212,6652
5220,6650
5234,6649
5242,6647
5244,6647
5245,6647
5249,6645
5256,6643
5264,6639
5274,6632
5283,6625
5286,6622
5287,6620
5290,6617
5297,6608
5303,6599
5305,6595
5306,6594
5308,6589
5312,6579
5315,6567
5317,6558
5318,6550
5318,6546
5318,6545
5318,6543
5316,6535
5314,6521
5312,6513
5312,6511
5312,6510
5310,6506
5307,6499
5303,6491
5297,6481
5290,6472
5287,6469
5286,6468
5283,6465
5274,6458
5265,6452
5261,6450
5259,6449
5255,6447
5244,6443
5232,6440
5223,6438
5215,6437
5211,6437
5210,6437
5208,6437
5200,6439
5186,6441
5178,6443
5176,6443
5175,6443
5171,6445
5165,6448
5157,6452
5147,6458
5139,6465
5135,6468
5134,6469
5131,6472
5124,6481
5118,6490
5115,6494
5114,6496
5112,6500
5108,6511
5105,6523
5104,6532
5103,6540
5103,6544
5103,6545
" style="stroke:#000000;stroke-width:7;
stroke-linejoin:bevel; stroke-linecap:butt;
"/>
<!-- Line -->
<!--  spline  -->
<polyline points="5118,6545
5118,6544
5120,6536
5121,6525
5123,6517
5123,6516
5123,6515
5125,6512
5127,6506
5130,6499
5136,6490
5142,6483
5144,6479
5146,6478
5149,6476
5156,6470
5164,6465
5167,6463
5168,6462
5172,6460
5181,6457
5191,6454
5199,6453
5205,6452
5209,6452
5210,6452
5212,6452
5219,6454
5231,6455
5238,6457
5240,6457
5241,6457
5244,6459
5250,6461
5256,6464
5265,6470
5272,6476
5275,6478
5277,6479
5279,6483
5285,6490
5290,6498
5292,6502
5293,6503
5295,6507
5298,6516
5301,6526
5302,6534
5303,6540
5303,6544
5303,6545
5303,6546
5301,6554
5300,6565
5298,6573
5298,6574
5298,6575
5296,6578
5294,6584
5291,6590
5285,6599
5279,6606
5277,6609
5275,6610
5272,6613
5265,6619
5257,6625
5254,6627
5253,6628
5249,6630
5240,6633
5230,6636
5221,6637
5215,6637
5211,6637
5210,6637
5209,6637
5201,6636
5190,6634
5182,6633
5181,6633
5180,6633
5177,6631
5171,6629
5165,6625
5156,6619
5149,6613
5146,6610
5144,6609
5142,6606
5136,6599
5131,6591
5129,6588
5128,6587
5126,6583
5123,6574
5120,6564
5119,6556
5118,6550
5118,6546
5118,6545
" style="stroke:#000000;stroke-width:7;
stroke-linejoin:bevel; stroke-linecap:butt;
"/>
</g>
</svg>
