<?xml version="1.0" standalone="no"?>
<!DOCTYPE svg PUBLIC "-//W3C//DTD SVG 1.1//EN"
"http://www.w3.org/Graphics/SVG/1.1/DTD/svg11.dtd">
<!-- Creator: fig2dev Version 3.2 Patchlevel 5c -->
<!-- CreationDate: Fri Sep 14 10:46:37 2012 -->
<!-- Magnification: 1.000 -->
<svg xmlns="http://www.w3.org/2000/svg" width="0.6in" height="0.4in" viewBox="-3 12671 733 530">
<g style="stroke-width:.025in; fill:none">
<!-- Line -->
<!--  polyline  -->
<polyline points="9,13189
645,13189
645,12771
9,12771
9,13189
" style="stroke:#1674c8;stroke-width:0;
stroke-linejoin:miter; stroke-linecap:butt;
fill:#1674c8;
"/>
<!-- Line -->
<!--  polyline  -->
<polyline points="9,13189
645,13189
645,12771
9,12771
9,13189
" style="stroke:#ffffff;stroke-width:7;
stroke-linejoin:miter; stroke-linecap:butt;
"/>
<!-- Line -->
<!--  polyline  -->
<polyline points="718,13082
645,13189
645,12771
718,12683
718,13082
" style="stroke:#1674c8;stroke-width:0;
stroke-linejoin:miter; stroke-linecap:butt;
fill:#1674c8;
"/>
<!-- Line -->
<!--  polyline  -->
<polyline points="718,13082
645,13189
645,12771
718,12683
718,13082
" style="stroke:#ffffff;stroke-width:7;
stroke-linejoin:miter; stroke-linecap:butt;
"/>
<!-- Line -->
<!--  polyline  -->
<polyline points="119,12683
718,12683
645,12771
9,12771
119,12683
" style="stroke:#1674c8;stroke-width:0;
stroke-linejoin:miter; stroke-linecap:butt;
fill:#1674c8;
"/>
<!-- Line -->
<!--  polyline  -->
<polyline points="119,12683
718,12683
645,12771
9,12771
119,12683
" style="stroke:#ffffff;stroke-width:7;
stroke-linejoin:miter; stroke-linecap:butt;
"/>
<!-- Line -->
<!--  polyline  -->
<polyline points="121,12891
121,12918
59,12883
121,12848
121,12874
120,12873
228,12873
228,12847
290,12882
228,12917
228,12890
120,12890
121,12891
" style="stroke:#ffffff;stroke-width:0;
stroke-linejoin:miter; stroke-linecap:butt;
fill:#ffffff;
"/>
<!-- Line -->
<!--  polyline  -->
<polyline points="121,13085
121,13112
59,13077
121,13041
121,13068
120,13067
228,13067
228,13040
290,13075
228,13111
228,13084
120,13084
121,13085
" style="stroke:#ffffff;stroke-width:0;
stroke-linejoin:miter; stroke-linecap:butt;
fill:#ffffff;
"/>
<!-- Line -->
<!--  polyline  -->
<polyline points="121,12990
121,13017
59,12982
121,12947
121,12973
120,12972
195,12972
195,12946
257,12981
195,13016
195,12989
120,12989
121,12990
" style="stroke:#ffffff;stroke-width:0;
stroke-linejoin:miter; stroke-linecap:butt;
fill:#ffffff;
"/>
<!-- Line -->
<!--  spline  -->
<polyline points="603,13058
601,13057
599,13055
597,13054
596,13053
595,13051
594,13049
592,13045
591,13041
590,13039
590,13038
589,13035
588,13030
587,13024
586,13022
586,13021
586,13019
585,13012
585,13004
585,12998
585,12994
585,12991
585,12990
585,12989
585,12984
586,12975
586,12970
586,12969
586,12968
586,12966
587,12962
588,12956
589,12950
590,12945
591,12943
591,12942
592,12940
593,12936
595,12932
595,12930
596,12928
598,12926
600,12924
602,12923
603,12923
604,12923
603,12923
597,12923
583,12923
565,12923
546,12922
532,12922
526,12922
525,12922
523,12923
521,12925
519,12926
518,12927
517,12929
516,12931
514,12935
512,12939
511,12941
511,12942
510,12945
509,12950
508,12956
508,12958
508,12959
508,12961
507,12968
506,12976
506,12982
505,12986
505,12989
505,12990
505,12991
505,12996
506,13005
506,13010
506,13011
506,13014
507,13018
508,13023
509,13029
510,13034
511,13037
511,13038
512,13040
513,13044
515,13048
515,13050
516,13052
518,13054
520,13056
522,13057
523,13057
524,13057
525,13057
531,13057
545,13057
564,13058
582,13058
596,13058
602,13058
603,13058
" style="stroke:#ffffff;stroke-width:0;
stroke-linejoin:bevel; stroke-linecap:butt;
fill:#ffffff;
"/>
<!-- Line -->
<!--  spline  -->
<polyline points="585,12990
585,12991
585,12996
585,13004
585,13009
585,13010
585,13011
585,13013
586,13017
587,13022
588,13028
589,13033
590,13035
590,13036
591,13037
592,13041
594,13045
594,13046
594,13047
595,13048
597,13050
599,13052
601,13053
602,13053
603,13053
605,13052
607,13051
609,13050
610,13049
611,13047
613,13045
615,13041
617,13037
617,13036
617,13035
618,13033
619,13028
620,13023
621,13020
621,13019
621,13016
622,13010
623,13003
623,12998
623,12994
623,12991
623,12990
623,12985
622,12977
622,12972
622,12971
622,12970
622,12968
621,12964
620,12959
619,12953
618,12948
617,12946
617,12945
616,12944
615,12940
613,12936
613,12935
612,12933
610,12931
608,12929
606,12928
605,12927
604,12927
602,12928
600,12929
598,12930
597,12931
596,12933
595,12935
593,12939
592,12943
591,12945
591,12946
590,12948
589,12953
588,12958
587,12961
587,12964
586,12970
585,12977
585,12982
585,12987
585,12989
585,12990
" style="stroke:#1674c8;stroke-width:0;
stroke-linejoin:bevel; stroke-linecap:butt;
fill:#1674c8;
"/>
<!-- Line -->
<!--  spline  -->
<polyline points="585,12990
585,12991
585,12996
585,13004
585,13009
585,13010
585,13011
585,13013
586,13017
587,13022
588,13028
589,13033
590,13035
590,13036
591,13037
592,13041
594,13045
594,13046
594,13047
595,13048
597,13050
599,13052
601,13053
602,13053
603,13053
605,13052
607,13051
609,13050
610,13049
611,13047
613,13045
615,13041
617,13037
617,13036
617,13035
618,13033
619,13028
620,13023
621,13020
621,13019
621,13016
622,13010
623,13003
623,12998
623,12994
623,12991
623,12990
623,12985
622,12977
622,12972
622,12971
622,12970
622,12968
621,12964
620,12959
619,12953
618,12948
617,12946
617,12945
616,12944
615,12940
613,12936
613,12935
612,12933
610,12931
608,12929
606,12928
605,12927
604,12927
602,12928
600,12929
598,12930
597,12931
596,12933
595,12935
593,12939
592,12943
591,12945
591,12946
590,12948
589,12953
588,12958
587,12961
587,12964
586,12970
585,12977
585,12982
585,12987
585,12989
585,12990
" style="stroke:#ffffff;stroke-width:7;
stroke-linejoin:bevel; stroke-linecap:butt;
"/>
<!-- Line -->
<!--  spline  -->
<polyline points="542,12985
542,12986
541,12993
538,13007
536,13020
535,13027
535,13028
535,13029
534,13032
531,13038
528,13045
523,13054
516,13064
509,13073
505,13078
503,13080
501,13082
496,13086
487,13093
477,13100
472,13103
470,13104
468,13105
462,13107
450,13111
437,13114
427,13116
418,13117
411,13118
408,13118
407,13118
406,13118
399,13117
386,13114
373,13112
366,13111
365,13111
364,13111
361,13109
355,13107
348,13103
339,13098
329,13091
320,13084
315,13079
313,13078
311,13076
307,13071
300,13062
293,13052
290,13047
289,13045
288,13042
285,13036
281,13025
278,13013
276,13002
275,12994
275,12987
275,12984
275,12983
275,12982
276,12975
279,12962
281,12949
282,12942
282,12941
282,12940
283,12937
286,12931
289,12923
294,12914
301,12904
308,12895
312,12890
314,12888
316,12887
321,12883
330,12876
340,12869
345,12866
347,12865
349,12864
355,12861
367,12857
380,12854
390,12852
399,12851
406,12850
409,12850
410,12850
411,12850
418,12852
431,12854
444,12856
451,12858
452,12858
453,12858
456,12859
462,12862
469,12865
478,12870
488,12877
497,12884
502,12888
504,12890
506,12892
510,12897
517,12906
524,12916
527,12921
528,12923
529,12926
532,12932
536,12943
539,12955
541,12966
542,12974
542,12981
542,12984
542,12985
" style="stroke:#ffffff;stroke-width:0;
stroke-linejoin:bevel; stroke-linecap:butt;
fill:#ffffff;
"/>
<!-- Line -->
<!--  spline  -->
<polyline points="474,12987
474,12988
473,12993
471,13001
470,13006
470,13007
470,13008
469,13010
467,13014
465,13019
461,13025
457,13030
455,13032
454,13033
452,13035
447,13039
441,13043
439,13044
438,13045
435,13046
429,13048
422,13050
416,13051
412,13051
410,13051
409,13051
408,13051
403,13050
395,13048
390,13047
389,13047
388,13047
386,13046
382,13044
377,13042
371,13038
366,13034
364,13032
363,13031
362,13029
358,13024
354,13018
353,13016
353,13015
351,13012
349,13006
347,12999
346,12993
345,12989
345,12987
345,12986
345,12985
346,12980
348,12972
349,12967
349,12966
349,12965
350,12963
352,12959
354,12954
358,12948
362,12943
364,12941
365,12940
367,12939
372,12935
378,12931
380,12930
381,12930
384,12928
390,12926
397,12924
403,12923
407,12922
409,12922
410,12922
411,12922
416,12923
424,12925
429,12926
430,12926
431,12926
433,12927
437,12929
442,12931
448,12935
453,12939
455,12941
456,12942
458,12944
462,12949
466,12955
467,12957
468,12958
469,12961
471,12967
473,12974
474,12980
474,12984
474,12986
474,12987
" style="stroke:#1674c8;stroke-width:0;
stroke-linejoin:bevel; stroke-linecap:butt;
fill:#1674c8;
"/>
</g>
</svg>
