<?xml version="1.0" standalone="no"?>
<!DOCTYPE svg PUBLIC "-//W3C//DTD SVG 1.1//EN"
"http://www.w3.org/Graphics/SVG/1.1/DTD/svg11.dtd">
<!-- Creator: fig2dev Version 3.2 Patchlevel 5c -->
<!-- CreationDate: Fri Sep 14 10:46:37 2012 -->
<!-- Magnification: 1.000 -->
<svg xmlns="http://www.w3.org/2000/svg" width="0.5in" height="0.4in" viewBox="-9 12772 637 437">
<g style="stroke-width:.025in; fill:none">
<!-- Line -->
<!--  spline  -->
<polyline points="616,12903
616,12904
613,12910
608,12922
604,12934
601,12940
601,12941
600,12942
598,12944
592,12950
584,12956
573,12964
557,12973
544,12980
535,12984
530,12986
527,12987
525,12988
519,12990
508,12994
491,12999
473,13004
461,13007
455,13008
452,13009
448,13010
441,13011
428,13013
407,13016
385,13018
366,13020
350,13021
335,13022
323,13022
315,13022
311,13022
310,13022
309,13022
301,13021
284,13020
262,13019
239,13018
222,13017
214,13016
213,13016
212,13016
209,13015
201,13014
190,13013
178,13010
164,13008
148,13004
129,12999
112,12994
101,12990
95,12988
92,12987
90,12986
85,12984
75,12980
62,12973
47,12964
39,12960
36,12958
34,12956
29,12951
19,12941
11,12930
7,12921
4,12913
3,12907
3,12904
3,12903
3,12904
3,12908
3,12919
3,12937
3,12962
3,12990
3,13018
3,13043
3,13061
3,13072
3,13076
3,13077
3,13078
6,13084
11,13096
16,13108
19,13114
19,13115
19,13116
22,13119
28,13124
35,13131
46,13139
62,13148
75,13155
85,13159
90,13161
92,13162
95,13163
101,13165
112,13169
129,13174
147,13179
159,13182
165,13183
169,13184
172,13185
179,13186
192,13188
213,13191
235,13193
254,13195
270,13196
285,13197
297,13197
305,13197
309,13197
310,13197
311,13197
319,13196
336,13195
359,13194
381,13193
398,13192
406,13191
407,13191
408,13191
411,13190
419,13189
430,13188
442,13185
456,13183
473,13179
491,13174
508,13169
519,13165
525,13163
527,13162
530,13161
535,13159
544,13155
557,13148
572,13139
580,13134
583,13132
586,13131
591,13125
601,13115
609,13104
613,13095
615,13087
616,13081
616,13078
616,13077
616,13076
616,13072
616,13061
616,13043
616,13018
616,12990
616,12962
616,12937
616,12919
616,12908
616,12904
616,12903
" style="stroke:#1674c8;stroke-width:0;
stroke-linejoin:bevel; stroke-linecap:butt;
fill:#1674c8;
"/>
<!-- Line -->
<!--  spline  -->
<polyline points="616,12903
616,12904
613,12910
608,12922
604,12934
601,12940
601,12941
600,12942
598,12944
592,12950
584,12956
573,12964
557,12973
544,12980
535,12984
530,12986
527,12987
525,12988
519,12990
508,12994
491,12999
473,13004
461,13007
455,13008
452,13009
448,13010
441,13011
428,13013
407,13016
385,13018
366,13020
350,13021
335,13022
323,13022
315,13022
311,13022
310,13022
309,13022
301,13021
284,13020
262,13019
239,13018
222,13017
214,13016
213,13016
212,13016
209,13015
201,13014
190,13013
178,13010
164,13008
148,13004
129,12999
112,12994
101,12990
95,12988
92,12987
90,12986
85,12984
75,12980
62,12973
47,12964
39,12960
36,12958
34,12956
29,12951
19,12941
11,12930
7,12921
4,12913
3,12907
3,12904
3,12903
3,12904
3,12908
3,12919
3,12937
3,12962
3,12990
3,13018
3,13043
3,13061
3,13072
3,13076
3,13077
3,13078
6,13084
11,13096
16,13108
19,13114
19,13115
19,13116
22,13119
28,13124
35,13131
46,13139
62,13148
75,13155
85,13159
90,13161
92,13162
95,13163
101,13165
112,13169
129,13174
147,13179
159,13182
165,13183
169,13184
172,13185
179,13186
192,13188
213,13191
235,13193
254,13195
270,13196
285,13197
297,13197
305,13197
309,13197
310,13197
311,13197
319,13196
336,13195
359,13194
381,13193
398,13192
406,13191
407,13191
408,13191
411,13190
419,13189
430,13188
442,13185
456,13183
473,13179
491,13174
508,13169
519,13165
525,13163
527,13162
530,13161
535,13159
544,13155
557,13148
572,13139
580,13134
583,13132
586,13131
591,13125
601,13115
609,13104
613,13095
615,13087
616,13081
616,13078
616,13077
616,13076
616,13072
616,13061
616,13043
616,13018
616,12990
616,12962
616,12937
616,12919
616,12908
616,12904
616,12903
" style="stroke:#ffffff;stroke-width:7;
stroke-linejoin:bevel; stroke-linecap:butt;
"/>
<!-- Line -->
<!--  spline  -->
<polyline points="310,13022
311,13022
319,13021
336,13020
359,13019
381,13018
398,13017
406,13016
407,13016
408,13016
411,13015
419,13014
430,13013
442,13010
456,13008
473,13004
491,12999
508,12994
519,12990
525,12988
527,12987
530,12986
535,12984
544,12980
557,12973
572,12964
580,12960
583,12958
586,12956
591,12951
601,12941
609,12930
613,12921
615,12913
616,12907
616,12904
616,12903
616,12902
613,12896
608,12884
604,12872
601,12866
601,12865
600,12864
598,12861
592,12856
584,12849
573,12841
557,12832
544,12825
535,12821
530,12819
527,12818
525,12817
519,12816
508,12812
491,12807
473,12802
461,12799
455,12798
452,12797
448,12796
441,12795
428,12793
407,12790
385,12788
366,12786
350,12785
335,12784
323,12784
315,12784
311,12784
310,12784
309,12784
301,12785
284,12786
262,12787
239,12788
222,12789
214,12790
213,12790
212,12790
209,12791
201,12792
190,12794
178,12796
164,12799
148,12802
129,12807
112,12812
101,12816
95,12817
92,12818
90,12819
85,12821
75,12825
62,12832
47,12841
39,12846
36,12847
34,12849
29,12855
19,12865
11,12876
7,12885
4,12893
3,12899
3,12902
3,12903
3,12904
6,12910
11,12922
16,12934
19,12940
19,12941
19,12942
22,12944
28,12950
35,12956
46,12964
62,12973
75,12980
85,12984
90,12986
92,12987
95,12988
101,12990
112,12994
129,12999
147,13004
159,13007
165,13008
169,13009
172,13010
179,13011
192,13013
213,13016
235,13018
254,13020
270,13021
285,13022
297,13022
305,13022
309,13022
310,13022
" style="stroke:#1674c8;stroke-width:0;
stroke-linejoin:bevel; stroke-linecap:butt;
fill:#1674c8;
"/>
<!-- Line -->
<!--  spline  -->
<polyline points="310,13022
311,13022
319,13021
336,13020
359,13019
381,13018
398,13017
406,13016
407,13016
408,13016
411,13015
419,13014
430,13013
442,13010
456,13008
473,13004
491,12999
508,12994
519,12990
525,12988
527,12987
530,12986
535,12984
544,12980
557,12973
572,12964
580,12960
583,12958
586,12956
591,12951
601,12941
609,12930
613,12921
615,12913
616,12907
616,12904
616,12903
616,12902
613,12896
608,12884
604,12872
601,12866
601,12865
600,12864
598,12861
592,12856
584,12849
573,12841
557,12832
544,12825
535,12821
530,12819
527,12818
525,12817
519,12816
508,12812
491,12807
473,12802
461,12799
455,12798
452,12797
448,12796
441,12795
428,12793
407,12790
385,12788
366,12786
350,12785
335,12784
323,12784
315,12784
311,12784
310,12784
309,12784
301,12785
284,12786
262,12787
239,12788
222,12789
214,12790
213,12790
212,12790
209,12791
201,12792
190,12794
178,12796
164,12799
148,12802
129,12807
112,12812
101,12816
95,12817
92,12818
90,12819
85,12821
75,12825
62,12832
47,12841
39,12846
36,12847
34,12849
29,12855
19,12865
11,12876
7,12885
4,12893
3,12899
3,12902
3,12903
3,12904
6,12910
11,12922
16,12934
19,12940
19,12941
19,12942
22,12944
28,12950
35,12956
46,12964
62,12973
75,12980
85,12984
90,12986
92,12987
95,12988
101,12990
112,12994
129,12999
147,13004
159,13007
165,13008
169,13009
172,13010
179,13011
192,13013
213,13016
235,13018
254,13020
270,13021
285,13022
297,13022
305,13022
309,13022
310,13022
" style="stroke:#ffffff;stroke-width:7;
stroke-linejoin:bevel; stroke-linecap:butt;
"/>
<!-- Line -->
<!--  polyline  -->
<polyline points="240,12856
265,12894
169,12916
190,12899
43,12874
80,12846
222,12870
240,12856
" style="stroke:#ffffff;stroke-width:0;
stroke-linejoin:miter; stroke-linecap:butt;
fill:#ffffff;
"/>
<!-- Line -->
<!--  polyline  -->
<polyline points="375,12948
357,12909
444,12892
429,12905
573,12930
538,12958
395,12931
375,12948
" style="stroke:#ffffff;stroke-width:0;
stroke-linejoin:miter; stroke-linecap:butt;
fill:#ffffff;
"/>
<!-- Line -->
<!--  polyline  -->
<polyline points="327,12835
424,12809
425,12850
401,12846
354,12885
309,12878
357,12840
327,12835
" style="stroke:#ffffff;stroke-width:0;
stroke-linejoin:miter; stroke-linecap:butt;
fill:#ffffff;
"/>
<!-- Line -->
<!--  polyline  -->
<polyline points="286,12984
194,13001
190,12959
217,12964
268,12921
312,12929
258,12976
286,12984
" style="stroke:#ffffff;stroke-width:0;
stroke-linejoin:miter; stroke-linecap:butt;
fill:#ffffff;
"/>
<!-- Line -->
<!--  polyline  -->
<polyline points="193,13054
193,13069
159,13049
193,13030
193,13045
193,13044
252,13044
252,13029
287,13049
252,13068
252,13053
193,13053
193,13054
" style="stroke:#ffffff;stroke-width:0;
stroke-linejoin:miter; stroke-linecap:butt;
fill:#ffffff;
"/>
<!-- Line -->
<!--  polyline  -->
<polyline points="193,13162
193,13176
159,13157
193,13137
193,13152
193,13151
252,13151
252,13137
287,13156
252,13176
252,13161
193,13161
193,13162
" style="stroke:#ffffff;stroke-width:0;
stroke-linejoin:miter; stroke-linecap:butt;
fill:#ffffff;
"/>
<!-- Line -->
<!--  polyline  -->
<polyline points="193,13109
193,13124
159,13104
193,13085
193,13100
193,13099
234,13099
234,13084
269,13104
234,13123
234,13108
193,13108
193,13109
" style="stroke:#ffffff;stroke-width:0;
stroke-linejoin:miter; stroke-linecap:butt;
fill:#ffffff;
"/>
<!-- Line -->
<!--  spline  -->
<polyline points="461,13146
460,13145
459,13145
458,13144
457,13143
456,13141
455,13139
454,13137
454,13136
454,13135
454,13134
453,13131
452,13128
452,13127
452,13126
451,13125
451,13121
451,13117
451,13114
451,13111
451,13109
451,13108
451,13105
451,13101
451,13098
451,13097
451,13095
452,13093
452,13090
453,13087
454,13084
454,13083
454,13082
454,13081
455,13079
456,13077
456,13076
456,13075
457,13075
458,13073
459,13072
460,13071
461,13071
462,13071
461,13071
453,13071
440,13071
427,13071
419,13071
418,13071
417,13072
415,13072
414,13073
413,13074
412,13076
411,13078
410,13080
410,13081
410,13082
410,13083
409,13086
408,13089
408,13091
408,13092
407,13093
407,13097
407,13101
407,13104
407,13106
407,13108
407,13109
407,13112
407,13116
407,13119
407,13120
407,13122
408,13124
408,13127
409,13131
410,13134
410,13135
410,13136
410,13137
411,13139
412,13141
412,13142
413,13142
413,13143
414,13144
415,13145
416,13146
417,13146
418,13146
426,13146
439,13146
452,13146
460,13146
461,13146
" style="stroke:#ffffff;stroke-width:0;
stroke-linejoin:bevel; stroke-linecap:butt;
fill:#ffffff;
"/>
<!-- Line -->
<!--  spline  -->
<polyline points="451,13109
451,13110
451,13112
451,13117
451,13119
451,13120
451,13122
452,13124
452,13127
453,13130
454,13133
454,13134
454,13135
455,13137
456,13139
456,13140
457,13140
457,13141
458,13142
459,13143
460,13144
461,13144
462,13143
463,13143
464,13142
464,13141
465,13140
466,13139
467,13137
468,13135
469,13134
469,13133
470,13130
471,13127
471,13126
471,13125
471,13124
471,13120
471,13116
472,13113
472,13111
472,13109
472,13108
472,13106
471,13101
471,13099
471,13098
471,13096
471,13094
470,13091
470,13088
469,13085
469,13084
469,13083
468,13081
467,13079
467,13078
466,13078
466,13077
465,13076
464,13075
463,13074
462,13074
461,13075
459,13075
458,13076
457,13077
457,13078
456,13079
455,13081
454,13083
454,13084
454,13085
453,13088
452,13091
452,13092
452,13093
451,13094
451,13098
451,13102
451,13105
451,13107
451,13109
" style="stroke:#1674c8;stroke-width:0;
stroke-linejoin:bevel; stroke-linecap:butt;
fill:#1674c8;
"/>
<!-- Line -->
<!--  spline  -->
<polyline points="451,13109
451,13110
451,13112
451,13117
451,13119
451,13120
451,13122
452,13124
452,13127
453,13130
454,13133
454,13134
454,13135
455,13137
456,13139
456,13140
457,13140
457,13141
458,13142
459,13143
460,13144
461,13144
462,13143
463,13143
464,13142
464,13141
465,13140
466,13139
467,13137
468,13135
469,13134
469,13133
470,13130
471,13127
471,13126
471,13125
471,13124
471,13120
471,13116
472,13113
472,13111
472,13109
472,13108
472,13106
471,13101
471,13099
471,13098
471,13096
471,13094
470,13091
470,13088
469,13085
469,13084
469,13083
468,13081
467,13079
467,13078
466,13078
466,13077
465,13076
464,13075
463,13074
462,13074
461,13075
459,13075
458,13076
457,13077
457,13078
456,13079
455,13081
454,13083
454,13084
454,13085
453,13088
452,13091
452,13092
452,13093
451,13094
451,13098
451,13102
451,13105
451,13107
451,13109
" style="stroke:#ffffff;stroke-width:7;
stroke-linejoin:bevel; stroke-linecap:butt;
"/>
<!-- Line -->
<!--  spline  -->
<polyline points="427,13106
427,13107
426,13113
424,13123
423,13129
423,13130
423,13131
422,13133
420,13138
417,13143
413,13150
408,13156
406,13158
405,13159
402,13161
396,13166
390,13170
387,13172
386,13172
383,13173
376,13176
368,13178
361,13179
356,13180
353,13180
352,13180
351,13180
345,13179
336,13177
330,13176
329,13176
328,13176
326,13175
321,13173
316,13170
309,13165
303,13160
301,13158
300,13157
298,13155
293,13149
289,13143
287,13140
286,13138
285,13135
282,13128
280,13120
279,13114
279,13109
279,13106
279,13105
279,13104
280,13098
282,13088
283,13082
283,13081
283,13080
284,13078
286,13073
289,13068
293,13061
298,13055
300,13053
301,13052
304,13050
310,13045
316,13041
319,13039
320,13039
323,13038
330,13035
338,13033
345,13032
350,13031
353,13031
354,13031
355,13031
361,13032
370,13034
376,13035
377,13035
378,13035
380,13036
385,13038
390,13041
397,13046
403,13051
405,13053
406,13054
408,13056
413,13062
417,13068
419,13071
420,13073
421,13076
424,13083
426,13091
427,13097
427,13102
427,13105
427,13106
" style="stroke:#ffffff;stroke-width:0;
stroke-linejoin:bevel; stroke-linecap:butt;
fill:#ffffff;
"/>
<!-- Line -->
<!--  spline  -->
<polyline points="389,13107
389,13108
388,13110
388,13115
387,13117
387,13118
386,13120
386,13122
384,13125
382,13128
380,13131
379,13132
378,13133
377,13134
374,13136
371,13138
370,13139
368,13140
365,13141
361,13142
358,13143
355,13143
353,13143
352,13143
350,13142
345,13142
343,13141
342,13141
340,13140
338,13139
335,13137
332,13135
329,13133
328,13132
327,13131
325,13128
323,13125
322,13124
322,13123
321,13122
320,13118
319,13114
318,13111
318,13109
318,13107
318,13106
319,13103
319,13099
320,13096
320,13095
321,13094
321,13092
323,13089
325,13086
327,13083
328,13082
329,13081
330,13080
333,13078
336,13076
337,13075
338,13075
340,13074
343,13073
347,13072
350,13071
352,13071
354,13071
355,13071
357,13072
362,13072
364,13073
365,13073
367,13074
369,13074
372,13076
375,13078
378,13080
379,13081
379,13082
380,13083
382,13086
384,13089
385,13090
385,13091
386,13093
387,13096
388,13100
389,13103
389,13105
389,13107
" style="stroke:#1674c8;stroke-width:0;
stroke-linejoin:bevel; stroke-linecap:butt;
fill:#1674c8;
"/>
</g>
</svg>
