<?xml version="1.0" standalone="no"?>
<!DOCTYPE svg PUBLIC "-//W3C//DTD SVG 1.1//EN"
"http://www.w3.org/Graphics/SVG/1.1/DTD/svg11.dtd">
<!-- Creator: fig2dev Version 3.2 Patchlevel 5c -->
<!-- CreationDate: Fri Sep 14 10:46:38 2012 -->
<!-- Magnification: 1.000 -->
<svg xmlns="http://www.w3.org/2000/svg" width="0.5in" height="0.4in" viewBox="-9 12787 625 422">
<g style="stroke-width:.025in; fill:none">
<!-- Line -->
<!--  spline  -->
<polyline points="304,13033
305,13033
313,13032
329,13031
351,13030
373,13029
389,13028
397,13027
398,13027
399,13027
402,13026
410,13025
420,13024
433,13021
447,13018
463,13015
481,13010
498,13005
509,13001
514,13000
517,12999
519,12998
524,12996
533,12991
546,12985
561,12976
568,12972
571,12970
573,12968
579,12963
588,12953
596,12942
600,12933
602,12926
604,12920
604,12917
604,12916
604,12915
601,12909
596,12897
591,12886
588,12880
588,12879
588,12878
585,12876
580,12870
572,12864
562,12856
546,12847
533,12841
524,12836
519,12834
517,12833
514,12832
509,12831
498,12827
481,12822
463,12817
451,12814
445,12813
442,12812
439,12811
432,12810
418,12808
398,12805
377,12803
358,12801
342,12800
329,12799
317,12799
309,12799
305,12799
304,12799
303,12799
295,12800
279,12801
257,12802
234,12803
218,12804
210,12805
209,12805
208,12805
205,12806
197,12807
187,12809
174,12811
160,12814
144,12817
126,12822
109,12827
98,12831
93,12832
90,12833
88,12834
83,12836
74,12841
61,12847
46,12856
39,12860
36,12862
34,12864
28,12869
19,12879
11,12890
7,12899
5,12906
3,12912
3,12915
3,12916
3,12917
6,12923
11,12935
16,12946
19,12952
19,12953
19,12954
22,12956
27,12962
35,12968
45,12976
61,12985
74,12991
83,12996
88,12998
90,12999
93,13000
98,13001
109,13005
126,13010
144,13015
156,13018
162,13019
165,13020
168,13021
175,13022
189,13024
209,13027
231,13029
249,13031
265,13032
279,13033
291,13033
299,13033
303,13033
304,13033
" style="stroke:#026c9b;stroke-width:0;
stroke-linejoin:bevel; stroke-linecap:butt;
fill:#026c9b;
"/>
<!-- Line -->
<!--  spline  -->
<polyline points="304,13033
305,13033
313,13032
329,13031
351,13030
373,13029
389,13028
397,13027
398,13027
399,13027
402,13026
410,13025
420,13024
433,13021
447,13018
463,13015
481,13010
498,13005
509,13001
514,13000
517,12999
519,12998
524,12996
533,12991
546,12985
561,12976
568,12972
571,12970
573,12968
579,12963
588,12953
596,12942
600,12933
602,12926
604,12920
604,12917
604,12916
604,12915
601,12909
596,12897
591,12886
588,12880
588,12879
588,12878
585,12876
580,12870
572,12864
562,12856
546,12847
533,12841
524,12836
519,12834
517,12833
514,12832
509,12831
498,12827
481,12822
463,12817
451,12814
445,12813
442,12812
439,12811
432,12810
418,12808
398,12805
377,12803
358,12801
342,12800
329,12799
317,12799
309,12799
305,12799
304,12799
303,12799
295,12800
279,12801
257,12802
234,12803
218,12804
210,12805
209,12805
208,12805
205,12806
197,12807
187,12809
174,12811
160,12814
144,12817
126,12822
109,12827
98,12831
93,12832
90,12833
88,12834
83,12836
74,12841
61,12847
46,12856
39,12860
36,12862
34,12864
28,12869
19,12879
11,12890
7,12899
5,12906
3,12912
3,12915
3,12916
3,12917
6,12923
11,12935
16,12946
19,12952
19,12953
19,12954
22,12956
27,12962
35,12968
45,12976
61,12985
74,12991
83,12996
88,12998
90,12999
93,13000
98,13001
109,13005
126,13010
144,13015
156,13018
162,13019
165,13020
168,13021
175,13022
189,13024
209,13027
231,13029
249,13031
265,13032
279,13033
291,13033
299,13033
303,13033
304,13033
" style="stroke:#ffffff;stroke-width:7;
stroke-linejoin:bevel; stroke-linecap:butt;
"/>
<!-- Line -->
<!--  spline  -->
<polyline points="597,12892
596,12892
588,12891
573,12888
559,12886
551,12885
550,12885
549,12885
546,12885
540,12886
532,12886
524,12888
513,12890
502,12893
498,12895
497,12895
493,12897
484,12901
475,12905
471,12907
470,12907
466,12909
457,12912
446,12915
438,12916
432,12917
428,12917
427,12917
425,12917
417,12916
406,12915
398,12914
396,12914
395,12914
393,12913
389,12912
383,12910
377,12907
372,12904
370,12902
368,12900
362,12897
356,12894
354,12893
353,12893
350,12892
341,12890
331,12888
323,12887
315,12887
308,12886
305,12886
304,12886
303,12886
296,12887
282,12888
269,12888
262,12889
261,12889
260,12889
257,12890
252,12892
246,12894
239,12897
234,12900
232,12901
232,12902
231,12903
226,12906
221,12909
220,12910
219,12910
217,12911
210,12913
200,12915
192,12916
185,12917
180,12917
179,12917
178,12917
171,12916
160,12914
153,12913
152,12913
151,12913
148,12912
143,12910
136,12907
127,12904
118,12901
115,12899
114,12898
110,12897
99,12894
89,12892
84,12891
82,12890
80,12890
74,12890
61,12889
47,12889
34,12890
24,12891
16,12891
11,12892
10,12892
9,12894
8,12896
7,12898
7,12899
6,12900
6,12901
5,12903
5,12905
4,12906
4,12907
4,12909
4,12911
4,12912
4,12913
4,12916
4,12919
4,12921
4,12924
4,12925
5,12925
14,12924
29,12922
43,12920
52,12919
53,12919
54,12919
57,12919
63,12920
70,12921
79,12923
90,12925
101,12928
105,12929
106,12930
110,12932
120,12935
130,12938
134,12940
135,12941
139,12942
149,12945
160,12947
168,12948
174,12949
178,12949
179,12949
181,12949
190,12947
203,12946
212,12944
214,12944
217,12943
221,12941
225,12939
231,12936
236,12933
238,12932
238,12931
240,12930
245,12927
251,12924
253,12923
256,12922
265,12920
275,12919
284,12918
292,12918
299,12918
303,12918
304,12918
305,12918
311,12919
322,12920
333,12921
339,12922
340,12922
341,12922
343,12923
348,12925
353,12927
359,12930
364,12933
365,12934
366,12935
367,12936
372,12939
377,12942
379,12943
380,12944
383,12945
391,12947
400,12948
409,12949
416,12950
423,12950
426,12950
427,12950
428,12950
434,12949
446,12947
457,12946
463,12945
464,12945
465,12945
468,12943
474,12941
482,12937
492,12933
501,12929
505,12927
506,12927
510,12925
520,12922
531,12919
535,12918
537,12917
542,12917
555,12916
568,12917
579,12918
589,12919
597,12921
601,12922
602,12922
603,12921
603,12920
603,12919
603,12918
603,12916
603,12914
603,12913
603,12911
603,12909
603,12906
602,12905
602,12904
601,12901
600,12898
599,12895
598,12893
597,12892
" style="stroke:#026c9b;stroke-width:0;
stroke-linejoin:bevel; stroke-linecap:butt;
fill:#026c9b;
"/>
<!-- Line -->
<!--  spline  -->
<polyline points="597,12892
596,12892
588,12891
573,12888
559,12886
551,12885
550,12885
549,12885
546,12885
540,12886
532,12886
524,12888
513,12890
502,12893
498,12895
497,12895
493,12897
484,12901
475,12905
471,12907
470,12907
466,12909
457,12912
446,12915
438,12916
432,12917
428,12917
427,12917
425,12917
417,12916
406,12915
398,12914
396,12914
395,12914
393,12913
389,12912
383,12910
377,12907
372,12904
370,12902
368,12900
362,12897
356,12894
354,12893
353,12893
350,12892
341,12890
331,12888
323,12887
315,12887
308,12886
305,12886
304,12886
303,12886
296,12887
282,12888
269,12888
262,12889
261,12889
260,12889
257,12890
252,12892
246,12894
239,12897
234,12900
232,12901
232,12902
231,12903
226,12906
221,12909
220,12910
219,12910
217,12911
210,12913
200,12915
192,12916
185,12917
180,12917
179,12917
178,12917
171,12916
160,12914
153,12913
152,12913
151,12913
148,12912
143,12910
136,12907
127,12904
118,12901
115,12899
114,12898
110,12897
99,12894
89,12892
84,12891
82,12890
80,12890
74,12890
61,12889
47,12889
34,12890
24,12891
16,12891
11,12892
10,12892
9,12894
8,12896
7,12898
7,12899
6,12900
6,12901
5,12903
5,12905
4,12906
4,12907
4,12909
4,12911
4,12912
4,12913
4,12916
4,12919
4,12921
4,12924
4,12925
5,12925
14,12924
29,12922
43,12920
52,12919
53,12919
54,12919
57,12919
63,12920
70,12921
79,12923
90,12925
101,12928
105,12929
106,12930
110,12932
120,12935
130,12938
134,12940
135,12941
139,12942
149,12945
160,12947
168,12948
174,12949
178,12949
179,12949
181,12949
190,12947
203,12946
212,12944
214,12944
217,12943
221,12941
225,12939
231,12936
236,12933
238,12932
238,12931
240,12930
245,12927
251,12924
253,12923
256,12922
265,12920
275,12919
284,12918
292,12918
299,12918
303,12918
304,12918
305,12918
311,12919
322,12920
333,12921
339,12922
340,12922
341,12922
343,12923
348,12925
353,12927
359,12930
364,12933
365,12934
366,12935
367,12936
372,12939
377,12942
379,12943
380,12944
383,12945
391,12947
400,12948
409,12949
416,12950
423,12950
426,12950
427,12950
428,12950
434,12949
446,12947
457,12946
463,12945
464,12945
465,12945
468,12943
474,12941
482,12937
492,12933
501,12929
505,12927
506,12927
510,12925
520,12922
531,12919
535,12918
537,12917
542,12917
555,12916
568,12917
579,12918
589,12919
597,12921
601,12922
602,12922
603,12921
603,12920
603,12919
603,12918
603,12916
603,12914
603,12913
603,12911
603,12909
603,12906
602,12905
602,12904
601,12901
600,12898
599,12895
598,12893
597,12892
" style="stroke:#ffffff;stroke-width:7;
stroke-linejoin:bevel; stroke-linecap:butt;
"/>
<!-- Line -->
<!--  spline  -->
<polyline points="522,12836
521,12836
515,12836
506,12835
500,12835
499,12835
497,12836
493,12836
489,12838
484,12840
480,12842
478,12844
477,12845
472,12848
467,12850
465,12852
462,12853
455,12855
446,12857
438,12858
432,12859
428,12859
427,12859
425,12859
417,12858
406,12856
398,12855
396,12855
393,12854
389,12853
384,12851
378,12848
373,12845
371,12843
370,12843
369,12841
363,12838
357,12835
355,12834
352,12833
343,12831
333,12829
325,12828
317,12828
310,12827
307,12827
306,12827
305,12827
298,12828
284,12829
271,12830
264,12831
263,12831
262,12831
259,12832
253,12834
247,12836
239,12839
233,12842
231,12844
229,12846
224,12849
218,12852
217,12854
216,12854
214,12856
206,12858
196,12860
188,12861
181,12862
176,12862
175,12862
174,12862
168,12861
158,12861
152,12860
151,12860
150,12860
148,12859
144,12858
139,12856
132,12854
126,12852
124,12851
123,12851
121,12850
115,12848
109,12846
107,12845
106,12845
104,12844
97,12843
89,12842
83,12841
79,12841
76,12841
75,12841
72,12842
69,12843
66,12844
65,12845
63,12846
60,12848
57,12850
54,12852
52,12853
50,12854
47,12856
44,12858
43,12859
42,12859
41,12860
38,12862
35,12864
32,12866
30,12868
29,12869
30,12869
37,12868
49,12866
60,12865
67,12864
68,12864
69,12864
73,12865
79,12865
87,12867
98,12869
107,12871
111,12872
113,12873
116,12874
125,12877
134,12880
137,12881
138,12882
141,12884
150,12886
160,12888
167,12889
173,12890
176,12890
177,12890
179,12890
188,12889
201,12888
210,12887
212,12887
213,12887
215,12886
219,12884
225,12882
231,12879
236,12876
238,12874
239,12872
245,12869
251,12866
254,12865
258,12864
267,12862
277,12861
286,12860
295,12860
301,12860
305,12860
306,12860
307,12860
313,12861
324,12862
335,12863
341,12864
342,12864
343,12864
345,12865
350,12866
355,12868
361,12871
366,12874
367,12875
367,12876
368,12877
373,12880
378,12883
380,12884
380,12885
383,12886
391,12888
400,12889
409,12890
416,12891
423,12891
426,12891
427,12891
428,12891
436,12889
447,12888
455,12886
456,12886
457,12886
459,12884
464,12882
470,12879
478,12875
485,12871
488,12870
489,12869
492,12867
500,12864
509,12861
512,12860
513,12859
517,12858
528,12857
539,12857
549,12858
558,12860
564,12861
568,12862
569,12862
568,12861
567,12861
566,12860
565,12860
564,12859
563,12858
560,12856
557,12854
555,12853
555,12852
553,12851
549,12849
545,12847
544,12846
543,12846
541,12845
537,12843
532,12841
528,12839
524,12837
522,12836
" style="stroke:#026c9b;stroke-width:0;
stroke-linejoin:bevel; stroke-linecap:butt;
fill:#026c9b;
"/>
<!-- Line -->
<!--  spline  -->
<polyline points="522,12836
521,12836
515,12836
506,12835
500,12835
499,12835
497,12836
493,12836
489,12838
484,12840
480,12842
478,12844
477,12845
472,12848
467,12850
465,12852
462,12853
455,12855
446,12857
438,12858
432,12859
428,12859
427,12859
425,12859
417,12858
406,12856
398,12855
396,12855
393,12854
389,12853
384,12851
378,12848
373,12845
371,12843
370,12843
369,12841
363,12838
357,12835
355,12834
352,12833
343,12831
333,12829
325,12828
317,12828
310,12827
307,12827
306,12827
305,12827
298,12828
284,12829
271,12830
264,12831
263,12831
262,12831
259,12832
253,12834
247,12836
239,12839
233,12842
231,12844
229,12846
224,12849
218,12852
217,12854
216,12854
214,12856
206,12858
196,12860
188,12861
181,12862
176,12862
175,12862
174,12862
168,12861
158,12861
152,12860
151,12860
150,12860
148,12859
144,12858
139,12856
132,12854
126,12852
124,12851
123,12851
121,12850
115,12848
109,12846
107,12845
106,12845
104,12844
97,12843
89,12842
83,12841
79,12841
76,12841
75,12841
72,12842
69,12843
66,12844
65,12845
63,12846
60,12848
57,12850
54,12852
52,12853
50,12854
47,12856
44,12858
43,12859
42,12859
41,12860
38,12862
35,12864
32,12866
30,12868
29,12869
30,12869
37,12868
49,12866
60,12865
67,12864
68,12864
69,12864
73,12865
79,12865
87,12867
98,12869
107,12871
111,12872
113,12873
116,12874
125,12877
134,12880
137,12881
138,12882
141,12884
150,12886
160,12888
167,12889
173,12890
176,12890
177,12890
179,12890
188,12889
201,12888
210,12887
212,12887
213,12887
215,12886
219,12884
225,12882
231,12879
236,12876
238,12874
239,12872
245,12869
251,12866
254,12865
258,12864
267,12862
277,12861
286,12860
295,12860
301,12860
305,12860
306,12860
307,12860
313,12861
324,12862
335,12863
341,12864
342,12864
343,12864
345,12865
350,12866
355,12868
361,12871
366,12874
367,12875
367,12876
368,12877
373,12880
378,12883
380,12884
380,12885
383,12886
391,12888
400,12889
409,12890
416,12891
423,12891
426,12891
427,12891
428,12891
436,12889
447,12888
455,12886
456,12886
457,12886
459,12884
464,12882
470,12879
478,12875
485,12871
488,12870
489,12869
492,12867
500,12864
509,12861
512,12860
513,12859
517,12858
528,12857
539,12857
549,12858
558,12860
564,12861
568,12862
569,12862
568,12861
567,12861
566,12860
565,12860
564,12859
563,12858
560,12856
557,12854
555,12853
555,12852
553,12851
549,12849
545,12847
544,12846
543,12846
541,12845
537,12843
532,12841
528,12839
524,12837
522,12836
" style="stroke:#ffffff;stroke-width:7;
stroke-linejoin:bevel; stroke-linecap:butt;
"/>
<!-- Line -->
<!--  spline  -->
<polyline points="591,12950
590,12950
582,12949
568,12947
555,12945
547,12944
546,12944
545,12944
541,12945
534,12946
525,12947
515,12950
506,12953
503,12955
502,12956
499,12957
491,12961
483,12965
480,12966
479,12967
476,12968
467,12971
456,12973
448,12975
440,12976
436,12976
435,12976
433,12976
425,12975
413,12974
405,12973
403,12973
402,12973
400,12972
396,12970
391,12968
385,12965
380,12962
378,12960
376,12958
371,12955
365,12952
363,12951
362,12950
359,12949
350,12947
340,12946
332,12945
324,12944
318,12944
315,12944
314,12944
313,12944
306,12945
292,12946
279,12946
272,12947
271,12947
270,12947
267,12948
261,12949
255,12951
247,12954
241,12957
239,12958
239,12959
237,12960
232,12963
227,12966
225,12967
225,12968
222,12969
215,12971
205,12973
197,12974
190,12974
185,12974
184,12974
183,12974
175,12973
165,12971
157,12970
156,12970
155,12970
151,12968
144,12966
136,12964
124,12960
113,12957
109,12955
107,12954
102,12953
91,12950
81,12948
75,12947
73,12946
71,12946
66,12945
55,12945
44,12946
35,12947
27,12948
22,12950
19,12951
18,12951
20,12954
23,12957
25,12960
27,12961
29,12964
32,12966
36,12969
40,12972
41,12973
42,12973
44,12974
47,12976
50,12978
51,12979
52,12980
53,12981
55,12982
56,12982
56,12983
57,12983
58,12983
59,12983
65,12982
73,12982
79,12981
80,12981
81,12981
83,12982
87,12982
93,12984
101,12986
108,12989
111,12990
113,12991
116,12992
124,12995
133,12998
136,12999
137,13000
141,13001
151,13003
162,13005
171,13006
179,13007
183,13007
184,13007
186,13007
195,13006
208,13004
217,13003
219,13003
220,13003
222,13002
226,13000
232,12998
238,12995
243,12992
245,12991
245,12990
247,12989
253,12986
259,12983
261,12982
262,12981
265,12980
274,12978
284,12977
294,12976
302,12976
309,12976
313,12976
314,12976
315,12976
321,12977
332,12978
343,12979
349,12980
350,12980
351,12980
353,12981
357,12982
362,12984
368,12987
373,12990
374,12991
374,12992
375,12993
380,12996
385,12999
387,13000
390,13001
398,13003
407,13005
416,13006
424,13006
431,13007
434,13007
435,13007
437,13007
445,13006
456,13004
464,13003
466,13003
467,13003
470,13002
476,12999
482,12997
491,12993
498,12989
501,12988
502,12987
505,12985
512,12982
519,12979
522,12977
523,12977
527,12976
535,12974
545,12973
552,12974
558,12974
562,12975
563,12975
564,12974
565,12974
566,12973
567,12972
569,12971
571,12969
572,12969
572,12968
574,12967
576,12965
579,12963
580,12962
580,12961
581,12960
584,12958
587,12955
589,12953
590,12951
591,12950
" style="stroke:#026c9b;stroke-width:0;
stroke-linejoin:bevel; stroke-linecap:butt;
fill:#026c9b;
"/>
<!-- Line -->
<!--  spline  -->
<polyline points="591,12950
590,12950
582,12949
568,12947
555,12945
547,12944
546,12944
545,12944
541,12945
534,12946
525,12947
515,12950
506,12953
503,12955
502,12956
499,12957
491,12961
483,12965
480,12966
479,12967
476,12968
467,12971
456,12973
448,12975
440,12976
436,12976
435,12976
433,12976
425,12975
413,12974
405,12973
403,12973
402,12973
400,12972
396,12970
391,12968
385,12965
380,12962
378,12960
376,12958
371,12955
365,12952
363,12951
362,12950
359,12949
350,12947
340,12946
332,12945
324,12944
318,12944
315,12944
314,12944
313,12944
306,12945
292,12946
279,12946
272,12947
271,12947
270,12947
267,12948
261,12949
255,12951
247,12954
241,12957
239,12958
239,12959
237,12960
232,12963
227,12966
225,12967
225,12968
222,12969
215,12971
205,12973
197,12974
190,12974
185,12974
184,12974
183,12974
175,12973
165,12971
157,12970
156,12970
155,12970
151,12968
144,12966
136,12964
124,12960
113,12957
109,12955
107,12954
102,12953
91,12950
81,12948
75,12947
73,12946
71,12946
66,12945
55,12945
44,12946
35,12947
27,12948
22,12950
19,12951
18,12951
20,12954
23,12957
25,12960
27,12961
29,12964
32,12966
36,12969
40,12972
41,12973
42,12973
44,12974
47,12976
50,12978
51,12979
52,12980
53,12981
55,12982
56,12982
56,12983
57,12983
58,12983
59,12983
65,12982
73,12982
79,12981
80,12981
81,12981
83,12982
87,12982
93,12984
101,12986
108,12989
111,12990
113,12991
116,12992
124,12995
133,12998
136,12999
137,13000
141,13001
151,13003
162,13005
171,13006
179,13007
183,13007
184,13007
186,13007
195,13006
208,13004
217,13003
219,13003
220,13003
222,13002
226,13000
232,12998
238,12995
243,12992
245,12991
245,12990
247,12989
253,12986
259,12983
261,12982
262,12981
265,12980
274,12978
284,12977
294,12976
302,12976
309,12976
313,12976
314,12976
315,12976
321,12977
332,12978
343,12979
349,12980
350,12980
351,12980
353,12981
357,12982
362,12984
368,12987
373,12990
374,12991
374,12992
375,12993
380,12996
385,12999
387,13000
390,13001
398,13003
407,13005
416,13006
424,13006
431,13007
434,13007
435,13007
437,13007
445,13006
456,13004
464,13003
466,13003
467,13003
470,13002
476,12999
482,12997
491,12993
498,12989
501,12988
502,12987
505,12985
512,12982
519,12979
522,12977
523,12977
527,12976
535,12974
545,12973
552,12974
558,12974
562,12975
563,12975
564,12974
565,12974
566,12973
567,12972
569,12971
571,12969
572,12969
572,12968
574,12967
576,12965
579,12963
580,12962
580,12961
581,12960
584,12958
587,12955
589,12953
590,12951
591,12950
" style="stroke:#ffffff;stroke-width:7;
stroke-linejoin:bevel; stroke-linecap:butt;
"/>
<!-- Line -->
<!--  polyline  -->
<polyline points="240,13006
131,13011
147,12958
168,12970
271,12920
316,12945
213,12994
240,13006
" style="stroke:#ffffff;stroke-width:0;
stroke-linejoin:miter; stroke-linecap:butt;
fill:#ffffff;
"/>
<!-- Line -->
<!--  polyline  -->
<polyline points="384,12831
491,12832
477,12880
455,12868
352,12919
308,12891
410,12842
384,12831
" style="stroke:#ffffff;stroke-width:0;
stroke-linejoin:miter; stroke-linecap:butt;
fill:#ffffff;
"/>
<!-- Line -->
<!--  polyline  -->
<polyline points="262,12867
292,12905
156,12912
182,12901
84,12859
135,12831
237,12878
262,12867
" style="stroke:#ffffff;stroke-width:0;
stroke-linejoin:miter; stroke-linecap:butt;
fill:#ffffff;
"/>
<!-- Line -->
<!--  polyline  -->
<polyline points="343,12979
329,12932
440,12933
413,12945
519,12988
473,13011
368,12968
343,12979
" style="stroke:#ffffff;stroke-width:0;
stroke-linejoin:miter; stroke-linecap:butt;
fill:#ffffff;
"/>
<!-- Line -->
<!--  polyline  -->
<polyline points="251,13006
143,13011
158,12958
179,12970
282,12920
327,12945
225,12994
251,13006
" style="stroke:#ffffff;stroke-width:0;
stroke-linejoin:miter; stroke-linecap:butt;
fill:#ffffff;
"/>
<!-- Line -->
<!--  spline  -->
<polyline points="604,12909
604,12910
601,12916
596,12928
591,12939
588,12945
588,12946
588,12947
585,12949
580,12955
572,12961
562,12969
546,12978
533,12984
524,12989
519,12991
517,12992
514,12993
509,12994
498,12998
481,13003
463,13008
451,13011
445,13012
442,13013
439,13014
432,13015
418,13017
398,13020
377,13022
358,13024
342,13025
329,13026
317,13026
309,13026
305,13026
304,13026
303,13026
295,13025
279,13024
257,13023
234,13022
218,13021
210,13020
209,13020
208,13020
205,13019
197,13018
187,13017
174,13014
160,13011
144,13008
126,13003
109,12998
98,12994
93,12993
90,12992
88,12991
83,12989
74,12984
61,12978
46,12969
39,12965
36,12963
34,12961
28,12956
19,12946
11,12935
7,12926
5,12919
3,12913
3,12910
3,12909
3,12910
3,12914
3,12925
3,12943
3,12967
3,12995
3,13022
3,13046
3,13064
3,13075
3,13079
3,13080
3,13081
6,13087
11,13099
16,13110
19,13116
19,13117
19,13118
22,13120
27,13126
35,13132
45,13140
61,13149
74,13155
83,13160
88,13162
90,13163
93,13164
98,13165
109,13169
126,13174
144,13179
156,13182
162,13183
165,13184
168,13185
175,13186
189,13188
209,13191
231,13193
249,13195
265,13196
279,13197
291,13197
299,13197
303,13197
304,13197
305,13197
313,13196
329,13195
351,13194
373,13193
389,13192
397,13191
398,13191
399,13191
402,13190
410,13189
420,13188
433,13185
447,13182
463,13179
481,13174
498,13169
509,13165
514,13164
517,13163
519,13162
524,13160
533,13155
546,13149
561,13140
568,13136
571,13134
573,13132
579,13127
588,13117
596,13106
600,13097
602,13090
604,13084
604,13081
604,13080
604,13079
604,13075
604,13064
604,13046
604,13022
604,12994
604,12967
604,12943
604,12925
604,12914
604,12910
604,12909
" style="stroke:#026c9b;stroke-width:0;
stroke-linejoin:bevel; stroke-linecap:butt;
fill:#026c9b;
"/>
<!-- Line -->
<!--  spline  -->
<polyline points="604,12909
604,12910
601,12916
596,12928
591,12939
588,12945
588,12946
588,12947
585,12949
580,12955
572,12961
562,12969
546,12978
533,12984
524,12989
519,12991
517,12992
514,12993
509,12994
498,12998
481,13003
463,13008
451,13011
445,13012
442,13013
439,13014
432,13015
418,13017
398,13020
377,13022
358,13024
342,13025
329,13026
317,13026
309,13026
305,13026
304,13026
303,13026
295,13025
279,13024
257,13023
234,13022
218,13021
210,13020
209,13020
208,13020
205,13019
197,13018
187,13017
174,13014
160,13011
144,13008
126,13003
109,12998
98,12994
93,12993
90,12992
88,12991
83,12989
74,12984
61,12978
46,12969
39,12965
36,12963
34,12961
28,12956
19,12946
11,12935
7,12926
5,12919
3,12913
3,12910
3,12909
3,12910
3,12914
3,12925
3,12943
3,12967
3,12995
3,13022
3,13046
3,13064
3,13075
3,13079
3,13080
3,13081
6,13087
11,13099
16,13110
19,13116
19,13117
19,13118
22,13120
27,13126
35,13132
45,13140
61,13149
74,13155
83,13160
88,13162
90,13163
93,13164
98,13165
109,13169
126,13174
144,13179
156,13182
162,13183
165,13184
168,13185
175,13186
189,13188
209,13191
231,13193
249,13195
265,13196
279,13197
291,13197
299,13197
303,13197
304,13197
305,13197
313,13196
329,13195
351,13194
373,13193
389,13192
397,13191
398,13191
399,13191
402,13190
410,13189
420,13188
433,13185
447,13182
463,13179
481,13174
498,13169
509,13165
514,13164
517,13163
519,13162
524,13160
533,13155
546,13149
561,13140
568,13136
571,13134
573,13132
579,13127
588,13117
596,13106
600,13097
602,13090
604,13084
604,13081
604,13080
604,13079
604,13075
604,13064
604,13046
604,13022
604,12994
604,12967
604,12943
604,12925
604,12914
604,12910
604,12909
" style="stroke:#ffffff;stroke-width:7;
stroke-linejoin:bevel; stroke-linecap:butt;
"/>
</g>
</svg>
