<?xml version="1.0" standalone="no"?>
<!DOCTYPE svg PUBLIC "-//W3C//DTD SVG 1.1//EN"
"http://www.w3.org/Graphics/SVG/1.1/DTD/svg11.dtd">
<!-- Creator: fig2dev Version 3.2 Patchlevel 5c -->
<!-- CreationDate: Fri Sep 14 10:46:38 2012 -->
<!-- Magnification: 1.000 -->
<svg xmlns="http://www.w3.org/2000/svg" width="0.5in" height="0.4in" viewBox="-3 12778 618 424">
<g style="stroke-width:.025in; fill:none">
<!-- Line -->
<!--  polyline  -->
<polyline points="9,12875
111,12790
603,12790
522,12875
9,12875
" style="stroke:#026c9b;stroke-width:0;
stroke-linejoin:miter; stroke-linecap:butt;
fill:#026c9b;
"/>
<!-- Line -->
<!--  polyline  -->
<polyline points="9,12875
111,12790
603,12790
522,12875
9,12875
" style="stroke:#ffffff;stroke-width:7;
stroke-linejoin:miter; stroke-linecap:butt;
"/>
<!-- Line -->
<!--  polyline  -->
<polyline points="603,12790
522,12875
522,13190
603,13082
603,12790
" style="stroke:#026c9b;stroke-width:0;
stroke-linejoin:miter; stroke-linecap:butt;
fill:#026c9b;
"/>
<!-- Line -->
<!--  polyline  -->
<polyline points="603,12790
522,12875
522,13190
603,13082
603,12790
" style="stroke:#ffffff;stroke-width:7;
stroke-linejoin:miter; stroke-linecap:butt;
"/>
<!-- Line -->
<!--  polyline  -->
<polyline points="9,12875
522,12875
522,13190
9,13190
9,12875
" style="stroke:#026c9b;stroke-width:0;
stroke-linejoin:miter; stroke-linecap:butt;
fill:#026c9b;
"/>
<!-- Line -->
<!--  polyline  -->
<polyline points="9,12875
522,12875
522,13190
9,13190
9,12875
" style="stroke:#ffffff;stroke-width:7;
stroke-linejoin:miter; stroke-linecap:butt;
"/>
<!-- Line -->
<!--  spline  -->
<polyline points="262,13164
263,13164
270,13163
283,13161
296,13159
303,13158
304,13158
305,13158
308,13157
314,13154
322,13151
331,13146
341,13139
350,13132
355,13128
357,13126
358,13124
362,13119
369,13110
376,13100
379,13095
380,13093
381,13090
384,13084
388,13073
391,13061
393,13050
394,13042
395,13035
395,13032
395,13031
395,13030
394,13023
391,13010
389,12997
388,12990
388,12989
388,12988
387,12985
384,12979
381,12971
376,12963
369,12952
362,12943
358,12938
356,12936
355,12934
350,12930
341,12923
331,12916
326,12913
324,12912
321,12911
315,12908
304,12904
292,12901
281,12899
273,12898
266,12897
263,12897
262,12897
261,12897
254,12898
240,12901
227,12903
220,12904
219,12904
218,12904
215,12905
209,12908
202,12911
193,12916
183,12923
174,12930
169,12934
167,12936
165,12938
161,12943
154,12952
147,12962
144,12967
143,12969
142,12972
139,12978
135,12989
132,13001
130,13012
129,13020
128,13027
128,13030
128,13031
128,13032
129,13039
132,13052
134,13065
135,13072
135,13073
135,13074
136,13077
139,13083
142,13091
147,13099
154,13110
161,13119
165,13124
167,13126
169,13128
174,13132
183,13139
193,13146
198,13149
200,13150
202,13151
208,13154
219,13158
232,13161
242,13163
251,13164
257,13164
261,13164
262,13164
" style="stroke:#ffffff;stroke-width:15;
stroke-linejoin:bevel; stroke-linecap:butt;
"/>
<!-- Line -->
<!--  polyline  -->
<polyline points="53,12960
432,12960
432,12943
465,12968
432,12993
432,12976
53,12976
" style="stroke:#ffffff;stroke-width:0;
stroke-linejoin:miter; stroke-linecap:butt;
fill:#ffffff;
"/>
<!-- Line -->
<!--  polyline  -->
<polyline points="459,13107
80,13107
80,13124
46,13100
80,13075
80,13092
459,13092
" style="stroke:#ffffff;stroke-width:0;
stroke-linejoin:miter; stroke-linecap:butt;
fill:#ffffff;
"/>
</g>
</svg>
