<?xml version="1.0" standalone="no"?>
<!DOCTYPE svg PUBLIC "-//W3C//DTD SVG 1.1//EN"
"http://www.w3.org/Graphics/SVG/1.1/DTD/svg11.dtd">
<!-- Creator: fig2dev Version 3.2 Patchlevel 5c -->
<!-- CreationDate: Fri Sep 14 10:46:38 2012 -->
<!-- Magnification: 1.000 -->
<svg xmlns="http://www.w3.org/2000/svg" width="0.5in" height="0.3in" viewBox="-9 12834 545 375">
<g style="stroke-width:.025in; fill:none">
<!-- Line -->
<!--  spline  -->
<polyline points="524,12947
523,12949
520,12957
515,12969
512,12977
511,12979
508,12982
504,12987
497,12992
488,12999
474,13007
460,13014
452,13018
449,13019
446,13020
436,13023
418,13029
403,13033
392,13036
387,13037
384,13037
381,13038
375,13039
364,13041
346,13043
327,13045
311,13046
297,13047
285,13048
275,13048
268,13048
265,13048
264,13048
263,13048
256,13048
242,13047
223,13046
204,13044
190,13043
183,13043
182,13043
181,13043
178,13043
172,13042
163,13040
152,13038
140,13036
126,13033
110,13029
92,13023
82,13020
79,13019
76,13018
68,13014
54,13007
41,12999
34,12995
32,12994
30,12992
25,12988
17,12979
9,12968
5,12959
4,12952
3,12948
3,12947
3,12948
3,12951
3,12961
3,12976
3,12997
3,13021
3,13045
3,13066
3,13081
3,13091
3,13094
3,13095
4,13097
7,13105
13,13117
16,13125
17,13127
20,13130
24,13135
31,13140
40,13147
54,13155
68,13162
76,13166
79,13167
82,13168
92,13171
110,13177
125,13181
136,13184
141,13185
144,13186
147,13186
153,13188
164,13189
182,13192
201,13194
217,13195
231,13196
243,13197
253,13197
260,13197
263,13197
264,13197
265,13197
272,13197
286,13196
305,13195
324,13193
338,13192
345,13192
346,13192
347,13192
350,13191
356,13190
366,13189
376,13187
388,13184
402,13181
418,13177
436,13171
446,13168
449,13167
452,13166
460,13162
474,13155
487,13147
494,13143
496,13142
498,13140
503,13136
511,13127
519,13116
522,13107
524,13100
524,13096
524,13095
524,13094
524,13091
524,13081
524,13066
524,13045
524,13021
524,12997
524,12976
524,12961
524,12951
524,12948
524,12947
" style="stroke:#026c9b;stroke-width:0;
stroke-linejoin:bevel; stroke-linecap:butt;
fill:#026c9b;
"/>
<!-- Line -->
<!--  spline  -->
<polyline points="524,12947
523,12949
520,12957
515,12969
512,12977
511,12979
508,12982
504,12987
497,12992
488,12999
474,13007
460,13014
452,13018
449,13019
446,13020
436,13023
418,13029
403,13033
392,13036
387,13037
384,13037
381,13038
375,13039
364,13041
346,13043
327,13045
311,13046
297,13047
285,13048
275,13048
268,13048
265,13048
264,13048
263,13048
256,13048
242,13047
223,13046
204,13044
190,13043
183,13043
182,13043
181,13043
178,13043
172,13042
163,13040
152,13038
140,13036
126,13033
110,13029
92,13023
82,13020
79,13019
76,13018
68,13014
54,13007
41,12999
34,12995
32,12994
30,12992
25,12988
17,12979
9,12968
5,12959
4,12952
3,12948
3,12947
3,12948
3,12951
3,12961
3,12976
3,12997
3,13021
3,13045
3,13066
3,13081
3,13091
3,13094
3,13095
4,13097
7,13105
13,13117
16,13125
17,13127
20,13130
24,13135
31,13140
40,13147
54,13155
68,13162
76,13166
79,13167
82,13168
92,13171
110,13177
125,13181
136,13184
141,13185
144,13186
147,13186
153,13188
164,13189
182,13192
201,13194
217,13195
231,13196
243,13197
253,13197
260,13197
263,13197
264,13197
265,13197
272,13197
286,13196
305,13195
324,13193
338,13192
345,13192
346,13192
347,13192
350,13191
356,13190
366,13189
376,13187
388,13184
402,13181
418,13177
436,13171
446,13168
449,13167
452,13166
460,13162
474,13155
487,13147
494,13143
496,13142
498,13140
503,13136
511,13127
519,13116
522,13107
524,13100
524,13096
524,13095
524,13094
524,13091
524,13081
524,13066
524,13045
524,13021
524,12997
524,12976
524,12961
524,12951
524,12948
524,12947
" style="stroke:#ffffff;stroke-width:7;
stroke-linejoin:bevel; stroke-linecap:butt;
"/>
<!-- Line -->
<!--  spline  -->
<polyline points="264,13048
265,13048
272,13048
286,13047
305,13046
324,13044
338,13043
345,13043
346,13043
347,13043
350,13043
356,13042
366,13040
376,13038
388,13036
402,13033
418,13029
436,13023
446,13020
449,13019
452,13018
460,13014
474,13007
487,12999
494,12995
496,12994
498,12992
503,12988
511,12979
519,12968
522,12959
524,12952
524,12948
524,12947
523,12945
520,12937
515,12925
512,12917
511,12915
508,12912
504,12907
497,12902
488,12895
474,12887
460,12880
452,12876
449,12875
446,12874
436,12871
418,12865
403,12861
392,12858
387,12857
384,12857
381,12856
375,12855
364,12853
346,12851
327,12849
311,12848
297,12847
285,12846
275,12846
268,12846
265,12846
264,12846
263,12846
256,12846
242,12847
223,12849
204,12850
190,12851
183,12851
182,12851
181,12851
178,12851
172,12852
163,12854
152,12856
140,12858
126,12861
110,12865
92,12871
82,12874
79,12875
76,12876
68,12880
54,12887
41,12895
34,12899
32,12900
30,12902
25,12906
17,12915
9,12926
5,12935
4,12942
3,12946
3,12947
4,12949
7,12957
13,12969
16,12977
17,12979
20,12982
24,12987
31,12992
40,12999
54,13007
68,13014
76,13018
79,13019
82,13020
92,13023
110,13029
125,13033
136,13036
141,13037
144,13037
147,13038
153,13039
164,13041
182,13043
201,13045
217,13046
231,13047
243,13048
253,13048
260,13048
263,13048
264,13048
" style="stroke:#026c9b;stroke-width:0;
stroke-linejoin:bevel; stroke-linecap:butt;
fill:#026c9b;
"/>
<!-- Line -->
<!--  spline  -->
<polyline points="264,13048
265,13048
272,13048
286,13047
305,13046
324,13044
338,13043
345,13043
346,13043
347,13043
350,13043
356,13042
366,13040
376,13038
388,13036
402,13033
418,13029
436,13023
446,13020
449,13019
452,13018
460,13014
474,13007
487,12999
494,12995
496,12994
498,12992
503,12988
511,12979
519,12968
522,12959
524,12952
524,12948
524,12947
523,12945
520,12937
515,12925
512,12917
511,12915
508,12912
504,12907
497,12902
488,12895
474,12887
460,12880
452,12876
449,12875
446,12874
436,12871
418,12865
403,12861
392,12858
387,12857
384,12857
381,12856
375,12855
364,12853
346,12851
327,12849
311,12848
297,12847
285,12846
275,12846
268,12846
265,12846
264,12846
263,12846
256,12846
242,12847
223,12849
204,12850
190,12851
183,12851
182,12851
181,12851
178,12851
172,12852
163,12854
152,12856
140,12858
126,12861
110,12865
92,12871
82,12874
79,12875
76,12876
68,12880
54,12887
41,12895
34,12899
32,12900
30,12902
25,12906
17,12915
9,12926
5,12935
4,12942
3,12946
3,12947
4,12949
7,12957
13,12969
16,12977
17,12979
20,12982
24,12987
31,12992
40,12999
54,13007
68,13014
76,13018
79,13019
82,13020
92,13023
110,13029
125,13033
136,13036
141,13037
144,13037
147,13038
153,13039
164,13041
182,13043
201,13045
217,13046
231,13047
243,13048
253,13048
260,13048
263,13048
264,13048
" style="stroke:#ffffff;stroke-width:7;
stroke-linejoin:bevel; stroke-linecap:butt;
"/>
<!-- Line -->
<!--  polyline  -->
<polyline points="268,12927
232,12871
248,12869
214,12855
200,12875
216,12873
252,12929
268,12927
" style="stroke:#ffffff;stroke-width:0;
stroke-linejoin:miter; stroke-linecap:butt;
fill:#ffffff;
"/>
<!-- Line -->
<!--  polyline  -->
<polyline points="247,12935
120,12902
128,12896
83,12898
104,12916
112,12909
239,12942
247,12935
" style="stroke:#ffffff;stroke-width:0;
stroke-linejoin:miter; stroke-linecap:butt;
fill:#ffffff;
"/>
<!-- Line -->
<!--  polyline  -->
<polyline points="240,12946
97,12964
94,12958
64,12973
107,12980
102,12973
245,12955
240,12946
" style="stroke:#ffffff;stroke-width:0;
stroke-linejoin:miter; stroke-linecap:butt;
fill:#ffffff;
"/>
<!-- Line -->
<!--  polyline  -->
<polyline points="245,12959
172,13014
158,13010
161,13031
201,13021
186,13018
259,12962
245,12959
" style="stroke:#ffffff;stroke-width:0;
stroke-linejoin:miter; stroke-linecap:butt;
fill:#ffffff;
"/>
<!-- Line -->
<!--  polyline  -->
<polyline points="282,12929
344,12877
329,12873
369,12864
373,12885
358,12881
296,12933
282,12929
" style="stroke:#ffffff;stroke-width:0;
stroke-linejoin:miter; stroke-linecap:butt;
fill:#ffffff;
"/>
<!-- Line -->
<!--  polyline  -->
<polyline points="272,12964
309,13025
293,13027
327,13040
341,13021
324,13023
287,12962
272,12964
" style="stroke:#ffffff;stroke-width:0;
stroke-linejoin:miter; stroke-linecap:butt;
fill:#ffffff;
"/>
<!-- Line -->
<!--  polyline  -->
<polyline points="298,12958
422,12989
414,12996
459,12995
438,12976
430,12981
306,12949
298,12958
" style="stroke:#ffffff;stroke-width:0;
stroke-linejoin:miter; stroke-linecap:butt;
fill:#ffffff;
"/>
<!-- Line -->
<!--  polyline  -->
<polyline points="302,12949
444,12931
448,12939
478,12923
435,12917
439,12922
298,12940
302,12949
" style="stroke:#ffffff;stroke-width:0;
stroke-linejoin:miter; stroke-linecap:butt;
fill:#ffffff;
"/>
<!-- Line -->
<!--  spline  -->
<polyline points="269,12966
270,12966
273,12966
278,12965
281,12965
282,12965
284,12965
287,12965
290,12964
294,12963
298,12962
299,12961
300,12961
301,12960
304,12959
307,12957
308,12957
308,12956
310,12954
311,12952
312,12950
313,12948
313,12947
312,12945
312,12943
311,12941
310,12940
309,12939
308,12938
305,12936
302,12934
301,12934
301,12933
299,12932
296,12931
292,12930
291,12929
290,12929
288,12929
284,12928
279,12927
275,12927
272,12926
270,12926
269,12926
266,12926
261,12927
258,12927
257,12927
255,12927
252,12927
249,12928
245,12929
241,12930
240,12931
239,12931
238,12932
235,12933
232,12935
231,12935
231,12936
229,12938
228,12940
227,12942
226,12943
226,12944
227,12946
227,12949
228,12951
229,12952
230,12953
231,12954
234,12956
237,12958
238,12958
238,12959
240,12960
243,12961
247,12962
248,12963
249,12963
251,12963
255,12964
260,12965
264,12965
267,12966
269,12966
" style="stroke:#026c9b;stroke-width:0;
stroke-linejoin:bevel; stroke-linecap:butt;
fill:#026c9b;
"/>
<!-- Line -->
<!--  spline  -->
<polyline points="269,12966
270,12966
273,12966
278,12965
281,12965
282,12965
284,12965
287,12965
290,12964
294,12963
298,12962
299,12961
300,12961
301,12960
304,12959
307,12957
308,12957
308,12956
310,12954
311,12952
312,12950
313,12948
313,12947
312,12945
312,12943
311,12941
310,12940
309,12939
308,12938
305,12936
302,12934
301,12934
301,12933
299,12932
296,12931
292,12930
291,12929
290,12929
288,12929
284,12928
279,12927
275,12927
272,12926
270,12926
269,12926
266,12926
261,12927
258,12927
257,12927
255,12927
252,12927
249,12928
245,12929
241,12930
240,12931
239,12931
238,12932
235,12933
232,12935
231,12935
231,12936
229,12938
228,12940
227,12942
226,12943
226,12944
227,12946
227,12949
228,12951
229,12952
230,12953
231,12954
234,12956
237,12958
238,12958
238,12959
240,12960
243,12961
247,12962
248,12963
249,12963
251,12963
255,12964
260,12965
264,12965
267,12966
269,12966
" style="stroke:#ffffff;stroke-width:7;
stroke-linejoin:bevel; stroke-linecap:butt;
"/>
</g>
</svg>
