<?xml version="1.0" standalone="no"?>
<!DOCTYPE svg PUBLIC "-//W3C//DTD SVG 1.1//EN"
"http://www.w3.org/Graphics/SVG/1.1/DTD/svg11.dtd">
<!-- Creator: fig2dev Version 3.2 Patchlevel 5c -->
<!-- CreationDate: Fri Sep 14 10:46:38 2012 -->
<!-- Magnification: 1.000 -->
<svg xmlns="http://www.w3.org/2000/svg" width="0.4in" height="0.4in" viewBox="0 12753 489 452">
<g style="stroke-width:.025in; fill:none">
<!-- Line -->
<!--  polyline  -->
<polyline points="381,13193
381,12844
12,12844
12,13193
381,13193
" style="stroke:#026c9b;stroke-width:0;
stroke-linejoin:miter; stroke-linecap:butt;
fill:#026c9b;
"/>
<!-- Line -->
<!--  polyline  -->
<polyline points="381,13193
381,12844
12,12844
12,13193
381,13193
" style="stroke:#ffffff;stroke-width:7;
stroke-linejoin:miter; stroke-linecap:butt;
"/>
<!-- Line -->
<!--  polyline  -->
<polyline points="381,12844
477,12765
141,12765
12,12844
381,12844
" style="stroke:#026c9b;stroke-width:0;
stroke-linejoin:miter; stroke-linecap:butt;
fill:#026c9b;
"/>
<!-- Line -->
<!--  polyline  -->
<polyline points="381,12844
477,12765
141,12765
12,12844
381,12844
" style="stroke:#ffffff;stroke-width:7;
stroke-linejoin:miter; stroke-linecap:butt;
"/>
<!-- Line -->
<!--  polyline  -->
<polyline points="477,13114
477,12765
381,12844
381,13193
477,13114
" style="stroke:#026c9b;stroke-width:0;
stroke-linejoin:miter; stroke-linecap:butt;
fill:#026c9b;
"/>
<!-- Line -->
<!--  polyline  -->
<polyline points="477,13114
477,12765
381,12844
381,13193
477,13114
" style="stroke:#ffffff;stroke-width:7;
stroke-linejoin:miter; stroke-linecap:butt;
"/>
<!-- Line -->
<!--  spline  -->
<polyline points="50,13176
52,13176
53,13175
55,13175
56,13175
57,13174
58,13173
60,13172
61,13171
62,13171
62,13170
63,13169
64,13168
64,13167
64,13166
65,13165
65,13163
66,13162
66,13161
66,13160
66,13158
65,13157
65,13155
65,13154
64,13153
64,13152
63,13150
62,13149
62,13148
61,13148
60,13147
59,13146
58,13146
57,13146
55,13145
53,13145
52,13144
51,13144
50,13144
48,13144
47,13145
45,13145
44,13145
44,13146
42,13146
41,13147
40,13148
39,13148
38,13149
37,13150
36,13151
36,13152
36,13153
35,13155
35,13157
34,13158
34,13159
34,13160
34,13162
35,13163
35,13165
35,13166
35,13167
36,13168
37,13169
38,13170
39,13171
40,13171
41,13172
42,13173
43,13174
44,13174
45,13175
47,13176
48,13176
49,13176
50,13176
" style="stroke:#ffffff;stroke-width:0;
stroke-linejoin:bevel; stroke-linecap:butt;
fill:#ffffff;
"/>
<!-- Line -->
<!--  spline  -->
<polyline points="50,13176
52,13176
53,13175
55,13175
56,13175
57,13174
58,13173
60,13172
61,13171
62,13171
62,13170
63,13169
64,13168
64,13167
64,13166
65,13165
65,13163
66,13162
66,13161
66,13160
66,13158
65,13157
65,13155
65,13154
64,13153
64,13152
63,13150
62,13149
62,13148
61,13148
60,13147
59,13146
58,13146
57,13146
55,13145
53,13145
52,13144
51,13144
50,13144
48,13144
47,13145
45,13145
44,13145
44,13146
42,13146
41,13147
40,13148
39,13148
38,13149
37,13150
36,13151
36,13152
36,13153
35,13155
35,13157
34,13158
34,13159
34,13160
34,13162
35,13163
35,13165
35,13166
35,13167
36,13168
37,13169
38,13170
39,13171
40,13171
41,13172
42,13173
43,13174
44,13174
45,13175
47,13176
48,13176
49,13176
50,13176
" style="stroke:#000000;stroke-width:7;
stroke-linejoin:bevel; stroke-linecap:butt;
"/>
<!-- Line -->
<!--  polyline  -->
<polyline points="37,13143
68,13173
155,13083
124,13053
37,13143
" style="stroke:#ffffff;stroke-width:0;
stroke-linejoin:miter; stroke-linecap:butt;
fill:#ffffff;
"/>
<!-- Line -->
<!--  polyline  -->
<polyline points="37,13143
68,13173
155,13083
124,13053
37,13143
" style="stroke:#000000;stroke-width:7;
stroke-linejoin:miter; stroke-linecap:butt;
"/>
<!-- Line -->
<!--  spline  -->
<polyline points="112,12987
112,12988
113,12994
115,13006
117,13017
118,13023
118,13024
118,13025
119,13028
121,13033
124,13040
129,13048
135,13057
142,13065
145,13070
147,13071
148,13073
153,13076
161,13083
170,13089
175,13092
177,13093
179,13094
184,13096
194,13100
205,13103
214,13105
221,13106
227,13106
230,13106
231,13106
232,13106
238,13105
250,13103
262,13101
268,13100
269,13100
270,13100
273,13099
278,13097
285,13094
293,13089
302,13083
310,13076
314,13073
316,13071
317,13070
321,13065
327,13057
333,13048
336,13043
337,13041
338,13039
340,13034
344,13024
347,13013
349,13004
350,12997
350,12991
350,12988
350,12987
350,12986
349,12980
347,12968
345,12956
344,12950
344,12949
344,12948
343,12945
340,12940
337,12933
333,12925
327,12916
321,12908
317,12903
316,12902
314,12900
310,12897
302,12890
293,12884
288,12881
287,12880
285,12879
279,12877
269,12873
258,12870
249,12868
241,12867
235,12867
232,12867
231,12867
230,12867
224,12868
212,12870
201,12872
195,12873
194,12873
193,12873
190,12874
185,12876
178,12879
170,12884
161,12890
153,12897
148,12900
147,12902
145,12903
142,12908
135,12916
129,12925
126,12930
125,12932
124,12933
122,12939
118,12949
115,12960
113,12969
112,12977
112,12983
112,12986
112,12987
" style="stroke:#ffffff;stroke-width:0;
stroke-linejoin:bevel; stroke-linecap:butt;
fill:#ffffff;
"/>
<!-- Line -->
<!--  spline  -->
<polyline points="129,12987
129,12985
131,12977
132,12964
134,12956
134,12954
134,12953
136,12949
138,12943
142,12935
148,12926
155,12918
158,12915
159,12913
163,12910
171,12904
180,12898
184,12896
185,12895
189,12893
199,12889
210,12886
219,12885
226,12884
230,12884
231,12884
233,12884
241,12886
254,12887
262,12889
264,12889
265,12889
269,12891
275,12894
283,12898
292,12904
300,12910
304,12913
305,12915
308,12918
314,12926
320,12935
322,12938
323,12940
324,12944
328,12954
331,12965
333,12974
334,12982
334,12986
334,12987
334,12989
332,12997
330,13009
328,13017
328,13019
328,13020
326,13024
324,13030
320,13038
314,13047
308,13055
305,13058
304,13060
300,13063
292,13069
283,13075
280,13077
278,13078
274,13080
264,13084
253,13087
244,13088
236,13089
232,13089
231,13089
229,13089
221,13087
209,13086
201,13084
199,13084
198,13084
194,13082
188,13079
181,13075
171,13069
163,13063
159,13060
158,13058
155,13055
148,13047
142,13038
140,13035
139,13033
138,13029
134,13019
131,13008
130,12999
129,12992
129,12988
129,12987
" style="stroke:#ffffff;stroke-width:0;
stroke-linejoin:bevel; stroke-linecap:butt;
fill:#ffffff;
"/>
<!-- Line -->
<!--  spline  -->
<polyline points="112,12987
112,12988
113,12994
115,13006
117,13017
118,13023
118,13024
118,13025
119,13028
121,13033
124,13040
129,13048
135,13057
142,13065
145,13070
147,13071
148,13073
153,13076
161,13083
170,13089
175,13092
177,13093
179,13094
184,13096
194,13100
205,13103
214,13105
221,13106
227,13106
230,13106
231,13106
232,13106
238,13105
250,13103
262,13101
268,13100
269,13100
270,13100
273,13099
278,13097
285,13094
293,13089
302,13083
310,13076
314,13073
316,13071
317,13070
321,13065
327,13057
333,13048
336,13043
337,13041
338,13039
340,13034
344,13024
347,13013
349,13004
350,12997
350,12991
350,12988
350,12987
350,12986
349,12980
347,12968
345,12956
344,12950
344,12949
344,12948
343,12945
340,12940
337,12933
333,12925
327,12916
321,12908
317,12903
316,12902
314,12900
310,12897
302,12890
293,12884
288,12881
287,12880
285,12879
279,12877
269,12873
258,12870
249,12868
241,12867
235,12867
232,12867
231,12867
230,12867
224,12868
212,12870
201,12872
195,12873
194,12873
193,12873
190,12874
185,12876
178,12879
170,12884
161,12890
153,12897
148,12900
147,12902
145,12903
142,12908
135,12916
129,12925
126,12930
125,12932
124,12933
122,12939
118,12949
115,12960
113,12969
112,12977
112,12983
112,12986
112,12987
" style="stroke:#000000;stroke-width:7;
stroke-linejoin:bevel; stroke-linecap:butt;
"/>
<!-- Line -->
<!--  spline  -->
<polyline points="129,12987
129,12985
131,12977
132,12964
134,12956
134,12954
134,12953
136,12949
138,12943
142,12935
148,12926
155,12918
158,12915
159,12913
163,12910
171,12904
180,12898
184,12896
185,12895
189,12893
199,12889
210,12886
219,12885
226,12884
230,12884
231,12884
233,12884
241,12886
254,12887
262,12889
264,12889
265,12889
269,12891
275,12894
283,12898
292,12904
300,12910
304,12913
305,12915
308,12918
314,12926
320,12935
322,12938
323,12940
324,12944
328,12954
331,12965
333,12974
334,12982
334,12986
334,12987
334,12989
332,12997
330,13009
328,13017
328,13019
328,13020
326,13024
324,13030
320,13038
314,13047
308,13055
305,13058
304,13060
300,13063
292,13069
283,13075
280,13077
278,13078
274,13080
264,13084
253,13087
244,13088
236,13089
232,13089
231,13089
229,13089
221,13087
209,13086
201,13084
199,13084
198,13084
194,13082
188,13079
181,13075
171,13069
163,13063
159,13060
158,13058
155,13055
148,13047
142,13038
140,13035
139,13033
138,13029
134,13019
131,13008
130,12999
129,12992
129,12988
129,12987
" style="stroke:#000000;stroke-width:7;
stroke-linejoin:bevel; stroke-linecap:butt;
"/>
<!-- Line -->
<!--  spline  -->
<polyline points="98,12993
98,12994
99,13000
101,13012
103,13024
104,13030
104,13031
104,13032
105,13035
107,13040
110,13047
115,13055
121,13064
128,13072
131,13077
133,13078
134,13080
139,13084
147,13090
156,13096
161,13099
163,13100
165,13100
170,13102
180,13106
191,13109
200,13111
207,13112
213,13113
216,13113
217,13113
218,13113
224,13112
236,13109
248,13107
254,13106
255,13106
256,13106
259,13105
264,13103
271,13100
279,13096
288,13090
296,13084
300,13080
302,13078
303,13077
307,13072
313,13064
319,13055
322,13050
323,13048
324,13047
326,13041
330,13031
333,13020
335,13011
336,13003
336,12997
336,12994
336,12993
336,12992
335,12986
333,12974
331,12963
330,12957
330,12956
330,12955
329,12952
326,12947
323,12940
319,12932
313,12923
307,12915
303,12910
302,12909
300,12907
296,12904
288,12897
279,12891
274,12888
273,12887
271,12886
265,12884
255,12880
244,12877
235,12875
227,12874
221,12874
218,12874
217,12874
216,12874
210,12875
198,12877
187,12879
181,12880
180,12880
179,12880
176,12881
171,12883
164,12886
156,12891
147,12897
139,12904
134,12907
133,12909
131,12910
128,12915
121,12923
115,12932
112,12937
111,12939
110,12941
108,12946
104,12956
101,12967
99,12976
98,12983
98,12989
98,12992
98,12993
" style="stroke:#ffffff;stroke-width:0;
stroke-linejoin:bevel; stroke-linecap:butt;
fill:#ffffff;
"/>
<!-- Line -->
<!--  spline  -->
<polyline points="115,12993
115,12991
117,12983
118,12971
120,12963
120,12961
120,12960
122,12956
124,12950
128,12942
134,12933
141,12925
144,12922
145,12920
149,12917
157,12911
166,12905
170,12903
171,12902
175,12900
185,12896
196,12893
205,12892
212,12891
216,12891
217,12891
219,12891
227,12893
240,12894
248,12896
250,12896
251,12896
255,12898
261,12901
269,12905
278,12911
286,12917
290,12920
291,12922
294,12925
300,12933
306,12942
308,12945
309,12947
310,12951
314,12961
317,12972
319,12981
320,12988
320,12992
320,12993
320,12995
318,13003
316,13016
314,13024
314,13026
314,13027
312,13031
310,13037
306,13045
300,13054
294,13062
291,13065
290,13067
286,13070
278,13076
269,13082
266,13084
264,13085
260,13087
250,13091
239,13094
230,13095
222,13096
218,13096
217,13096
215,13096
207,13094
195,13093
187,13091
185,13091
184,13091
180,13089
174,13086
167,13082
157,13076
149,13070
145,13067
144,13065
141,13062
134,13054
128,13045
126,13042
125,13040
124,13036
120,13026
117,13015
116,13006
115,12998
115,12994
115,12993
" style="stroke:#ffffff;stroke-width:0;
stroke-linejoin:bevel; stroke-linecap:butt;
fill:#ffffff;
"/>
<!-- Line -->
<!--  spline  -->
<polyline points="98,12993
98,12994
99,13000
101,13012
103,13024
104,13030
104,13031
104,13032
105,13035
107,13040
110,13047
115,13055
121,13064
128,13072
131,13077
133,13078
134,13080
139,13084
147,13090
156,13096
161,13099
163,13100
165,13100
170,13102
180,13106
191,13109
200,13111
207,13112
213,13113
216,13113
217,13113
218,13113
224,13112
236,13109
248,13107
254,13106
255,13106
256,13106
259,13105
264,13103
271,13100
279,13096
288,13090
296,13084
300,13080
302,13078
303,13077
307,13072
313,13064
319,13055
322,13050
323,13048
324,13047
326,13041
330,13031
333,13020
335,13011
336,13003
336,12997
336,12994
336,12993
336,12992
335,12986
333,12974
331,12963
330,12957
330,12956
330,12955
329,12952
326,12947
323,12940
319,12932
313,12923
307,12915
303,12910
302,12909
300,12907
296,12904
288,12897
279,12891
274,12888
273,12887
271,12886
265,12884
255,12880
244,12877
235,12875
227,12874
221,12874
218,12874
217,12874
216,12874
210,12875
198,12877
187,12879
181,12880
180,12880
179,12880
176,12881
171,12883
164,12886
156,12891
147,12897
139,12904
134,12907
133,12909
131,12910
128,12915
121,12923
115,12932
112,12937
111,12939
110,12941
108,12946
104,12956
101,12967
99,12976
98,12983
98,12989
98,12992
98,12993
" style="stroke:#000000;stroke-width:7;
stroke-linejoin:bevel; stroke-linecap:butt;
"/>
<!-- Line -->
<!--  spline  -->
<polyline points="115,12993
115,12991
117,12983
118,12971
120,12963
120,12961
120,12960
122,12956
124,12950
128,12942
134,12933
141,12925
144,12922
145,12920
149,12917
157,12911
166,12905
170,12903
171,12902
175,12900
185,12896
196,12893
205,12892
212,12891
216,12891
217,12891
219,12891
227,12893
240,12894
248,12896
250,12896
251,12896
255,12898
261,12901
269,12905
278,12911
286,12917
290,12920
291,12922
294,12925
300,12933
306,12942
308,12945
309,12947
310,12951
314,12961
317,12972
319,12981
320,12988
320,12992
320,12993
320,12995
318,13003
316,13016
314,13024
314,13026
314,13027
312,13031
310,13037
306,13045
300,13054
294,13062
291,13065
290,13067
286,13070
278,13076
269,13082
266,13084
264,13085
260,13087
250,13091
239,13094
230,13095
222,13096
218,13096
217,13096
215,13096
207,13094
195,13093
187,13091
185,13091
184,13091
180,13089
174,13086
167,13082
157,13076
149,13070
145,13067
144,13065
141,13062
134,13054
128,13045
126,13042
125,13040
124,13036
120,13026
117,13015
116,13006
115,12998
115,12994
115,12993
" style="stroke:#000000;stroke-width:7;
stroke-linejoin:bevel; stroke-linecap:butt;
"/>
<!-- Line -->
<!--  polyline  -->
<polyline points="266,13035
266,12946
177,12946
177,13035
266,13035
" style="stroke:#ffffff;stroke-width:15;
stroke-linejoin:miter; stroke-linecap:butt;
"/>
</g>
</svg>
