<?xml version="1.0" standalone="no"?>
<!DOCTYPE svg PUBLIC "-//W3C//DTD SVG 1.1//EN"
"http://www.w3.org/Graphics/SVG/1.1/DTD/svg11.dtd">
<!-- Creator: fig2dev Version 3.2 Patchlevel 5c -->
<!-- CreationDate: Fri Sep 14 10:46:38 2012 -->
<!-- Magnification: 1.000 -->
<svg xmlns="http://www.w3.org/2000/svg" width="0.7in" height="0.3in" viewBox="-3 12786 820 418">
<g style="stroke-width:.025in; fill:none">
<!-- Line -->
<!--  polyline  -->
<polyline points="606,13185
606,12992
11,12992
11,13185
606,13185
" style="stroke:#00a5d4;stroke-width:0;
stroke-linejoin:miter; stroke-linecap:butt;
fill:#00a5d4;
"/>
<!-- Line -->
<!--  polyline  -->
<polyline points="606,13185
606,12992
11,12992
11,13185
606,13185
" style="stroke:#ffffff;stroke-width:7;
stroke-linejoin:miter; stroke-linecap:butt;
"/>
<!-- Line -->
<!--  polyline  -->
<polyline points="9,12993
250,12798
805,12798
606,12993
9,12993
" style="stroke:#00a5d4;stroke-width:0;
stroke-linejoin:miter; stroke-linecap:butt;
fill:#00a5d4;
"/>
<!-- Line -->
<!--  polyline  -->
<polyline points="9,12993
250,12798
805,12798
606,12993
9,12993
" style="stroke:#ffffff;stroke-width:7;
stroke-linejoin:miter; stroke-linecap:butt;
"/>
<!-- Line -->
<!--  polyline  -->
<polyline points="606,13192
805,12977
805,12799
606,12993
606,13192
" style="stroke:#00a5d4;stroke-width:0;
stroke-linejoin:miter; stroke-linecap:butt;
fill:#00a5d4;
"/>
<!-- Line -->
<!--  polyline  -->
<polyline points="606,13192
805,12977
805,12799
606,12993
606,13192
" style="stroke:#ffffff;stroke-width:7;
stroke-linejoin:miter; stroke-linecap:butt;
"/>
<!-- Line -->
<!--  polyline  -->
<polyline points="182,12969
368,12819
" style="stroke:#00a5d4;stroke-width:0;
stroke-linejoin:miter; stroke-linecap:butt;
fill:#00a5d4;
"/>
<!-- Line -->
<!--  polyline  -->
<polyline points="182,12969
368,12819
" style="stroke:#ffffff;stroke-width:7;
stroke-linejoin:miter; stroke-linecap:butt;
"/>
<!-- Line -->
<!--  polyline  -->
<polyline points="330,12969
516,12819
" style="stroke:#00a5d4;stroke-width:0;
stroke-linejoin:miter; stroke-linecap:butt;
fill:#00a5d4;
"/>
<!-- Line -->
<!--  polyline  -->
<polyline points="330,12969
516,12819
" style="stroke:#ffffff;stroke-width:7;
stroke-linejoin:miter; stroke-linecap:butt;
"/>
<!-- Line -->
<!--  polyline  -->
<polyline points="478,12969
664,12819
" style="stroke:#00a5d4;stroke-width:0;
stroke-linejoin:miter; stroke-linecap:butt;
fill:#00a5d4;
"/>
<!-- Line -->
<!--  polyline  -->
<polyline points="478,12969
664,12819
" style="stroke:#ffffff;stroke-width:7;
stroke-linejoin:miter; stroke-linecap:butt;
"/>
<!-- Line -->
<!--  polyline  -->
<polyline points="258,12846
699,12846
" style="stroke:#00a5d4;stroke-width:0;
stroke-linejoin:miter; stroke-linecap:butt;
fill:#00a5d4;
"/>
<!-- Line -->
<!--  polyline  -->
<polyline points="258,12846
699,12846
" style="stroke:#ffffff;stroke-width:7;
stroke-linejoin:miter; stroke-linecap:butt;
"/>
<!-- Line -->
<!--  polyline  -->
<polyline points="238,13084
127,13084
127,13073
85,13088
127,13104
127,13093
238,13093
238,13084
" style="stroke:#ffffff;stroke-width:0;
stroke-linejoin:miter; stroke-linecap:butt;
fill:#ffffff;
"/>
<!-- Line -->
<!--  polyline  -->
<polyline points="301,13116
301,13155
272,13155
315,13170
357,13155
329,13155
329,13116
301,13116
" style="stroke:#ffffff;stroke-width:0;
stroke-linejoin:miter; stroke-linecap:butt;
fill:#ffffff;
"/>
<!-- Line -->
<!--  polyline  -->
<polyline points="301,13062
301,13023
272,13023
315,13008
357,13023
329,13023
329,13062
301,13062
" style="stroke:#ffffff;stroke-width:0;
stroke-linejoin:miter; stroke-linecap:butt;
fill:#ffffff;
"/>
<!-- Line -->
<!--  polyline  -->
<polyline points="392,13093
503,13093
503,13104
545,13088
503,13073
503,13084
392,13084
392,13093
" style="stroke:#ffffff;stroke-width:0;
stroke-linejoin:miter; stroke-linecap:butt;
fill:#ffffff;
"/>
<!-- Line -->
<!--  spline  -->
<polyline points="494,13152
493,13152
488,13152
479,13153
474,13153
473,13153
472,13153
468,13153
462,13152
452,13150
438,13148
426,13146
419,13144
416,13144
413,13143
406,13142
391,13138
376,13134
368,13132
365,13131
362,13130
353,13128
337,13123
320,13118
306,13113
295,13109
286,13106
281,13104
280,13104
278,13103
269,13100
253,13093
237,13087
228,13084
226,13083
225,13083
221,13081
214,13078
205,13074
195,13070
183,13064
171,13058
167,13056
165,13055
161,13053
153,13048
146,13043
143,13041
142,13040
141,13039
138,13035
137,13031
138,13029
139,13028
141,13027
142,13027
147,13027
156,13026
161,13026
162,13026
163,13026
167,13026
173,13027
183,13029
197,13031
209,13033
216,13035
219,13035
222,13036
229,13037
244,13041
259,13045
267,13047
270,13048
273,13049
282,13052
298,13057
315,13062
329,13067
340,13070
349,13073
354,13075
355,13075
357,13076
366,13079
382,13086
398,13092
407,13095
409,13096
410,13096
414,13098
421,13101
430,13105
440,13109
452,13115
464,13121
468,13123
470,13124
474,13126
482,13131
489,13136
492,13138
493,13139
494,13140
497,13144
498,13148
497,13150
496,13151
494,13152
" style="stroke:#ffffff;stroke-width:7;
stroke-linejoin:bevel; stroke-linecap:butt;
"/>
<!-- Line -->
<!--  spline  -->
<polyline points="489,13027
490,13029
491,13032
492,13034
491,13036
489,13038
485,13042
478,13047
470,13052
467,13054
465,13055
461,13057
449,13063
438,13068
432,13071
429,13072
427,13073
420,13076
406,13082
391,13088
378,13093
367,13098
359,13101
354,13103
353,13103
351,13104
342,13107
324,13113
307,13118
298,13121
296,13122
295,13122
290,13124
282,13126
271,13129
258,13133
242,13137
227,13141
220,13143
217,13143
214,13144
208,13145
195,13148
183,13150
177,13151
175,13152
173,13152
168,13152
159,13153
150,13153
144,13153
140,13153
138,13152
137,13150
135,13147
134,13145
135,13143
137,13141
141,13137
148,13132
156,13127
159,13125
161,13124
165,13122
177,13116
188,13111
194,13108
197,13106
199,13105
206,13102
220,13096
235,13090
248,13085
259,13081
267,13078
272,13076
273,13076
275,13075
284,13072
302,13066
320,13061
329,13058
331,13057
332,13057
336,13055
345,13053
355,13050
368,13046
384,13042
398,13038
406,13036
409,13036
412,13035
418,13034
431,13031
443,13029
449,13028
451,13027
453,13027
458,13027
467,13026
477,13026
483,13026
487,13026
489,13027
" style="stroke:#ffffff;stroke-width:7;
stroke-linejoin:bevel; stroke-linecap:butt;
"/>
<!-- Line -->
<!--  spline  -->
<polyline points="361,13111
362,13111
367,13109
373,13107
378,13105
379,13105
381,13104
384,13102
388,13100
391,13097
393,13094
394,13093
394,13092
395,13091
395,13088
395,13085
395,13084
394,13083
392,13080
389,13077
386,13074
383,13072
381,13071
380,13071
375,13069
368,13067
363,13065
362,13065
361,13065
359,13064
354,13063
348,13062
340,13061
332,13060
329,13060
328,13060
324,13059
316,13059
308,13059
304,13059
303,13059
299,13059
291,13060
282,13061
276,13062
271,13063
268,13064
267,13064
266,13064
261,13066
255,13069
250,13071
249,13071
247,13072
244,13073
240,13075
237,13078
235,13081
234,13082
234,13083
233,13084
233,13087
233,13090
233,13091
233,13092
234,13093
236,13096
239,13099
242,13101
245,13103
247,13104
248,13104
253,13106
260,13109
265,13111
266,13111
267,13111
269,13112
274,13113
280,13114
288,13115
296,13116
299,13116
300,13117
304,13117
312,13117
320,13117
324,13117
325,13116
329,13116
337,13115
346,13114
352,13113
357,13112
360,13111
361,13111
" style="stroke:#b5b5b5;stroke-width:0;
stroke-linejoin:bevel; stroke-linecap:butt;
fill:#b5b5b5;
"/>
<!-- Line -->
<!--  spline  -->
<polyline points="368,12846
366,12848
362,12850
360,12852
358,12853
354,12853
350,12854
344,12855
338,12855
336,12855
334,12855
332,12855
326,12855
320,12854
318,12854
316,12854
314,12853
310,12852
307,12850
305,12849
304,12847
304,12846
306,12844
308,12841
310,12839
312,12838
315,12838
320,12837
326,12836
332,12836
335,12836
336,12836
339,12836
345,12836
351,12837
353,12837
355,12837
357,12837
361,12839
365,12841
367,12843
368,12845
368,12846
" style="stroke:#ffffff;stroke-width:0;
stroke-linejoin:bevel; stroke-linecap:butt;
fill:#ffffff;
"/>
<!-- Line -->
<!--  spline  -->
<polyline points="516,12846
514,12848
510,12850
508,12852
506,12853
503,12853
498,12854
492,12855
486,12855
483,12855
482,12855
479,12855
473,12855
467,12854
465,12854
464,12854
462,12853
458,12852
455,12850
453,12849
452,12847
452,12846
454,12844
456,12841
458,12839
460,12838
463,12838
468,12837
474,12836
480,12836
483,12836
484,12836
487,12836
493,12836
499,12837
501,12837
503,12837
505,12837
509,12839
513,12841
515,12843
516,12845
516,12846
" style="stroke:#ffffff;stroke-width:0;
stroke-linejoin:bevel; stroke-linecap:butt;
fill:#ffffff;
"/>
<!-- Line -->
<!--  spline  -->
<polyline points="664,12846
662,12848
658,12850
656,12852
654,12853
651,12853
646,12854
640,12855
634,12855
631,12855
630,12855
627,12855
621,12855
615,12854
613,12854
612,12854
610,12853
606,12852
603,12850
601,12849
600,12847
600,12846
602,12844
604,12841
606,12839
608,12838
611,12838
616,12837
622,12836
628,12836
631,12836
632,12836
635,12836
641,12836
647,12837
649,12837
651,12837
653,12837
657,12839
661,12841
663,12843
664,12845
664,12846
" style="stroke:#ffffff;stroke-width:0;
stroke-linejoin:bevel; stroke-linecap:butt;
fill:#ffffff;
"/>
<!-- Line -->
<!--  polyline  -->
<polyline points="202,12894
642,12894
" style="stroke:#00a5d4;stroke-width:0;
stroke-linejoin:miter; stroke-linecap:butt;
fill:#00a5d4;
"/>
<!-- Line -->
<!--  polyline  -->
<polyline points="202,12894
642,12894
" style="stroke:#ffffff;stroke-width:7;
stroke-linejoin:miter; stroke-linecap:butt;
"/>
<!-- Line -->
<!--  spline  -->
<polyline points="312,12894
310,12896
306,12898
304,12900
302,12901
299,12901
294,12902
288,12903
282,12904
279,12904
278,12904
275,12904
269,12904
263,12903
261,12903
260,12902
258,12902
254,12900
250,12898
249,12896
248,12895
247,12894
249,12892
252,12890
254,12888
256,12887
259,12886
264,12885
270,12884
276,12883
279,12883
280,12883
283,12884
289,12884
295,12885
297,12885
299,12885
301,12885
305,12887
309,12889
311,12891
312,12893
312,12894
" style="stroke:#ffffff;stroke-width:0;
stroke-linejoin:bevel; stroke-linecap:butt;
fill:#ffffff;
"/>
<!-- Line -->
<!--  spline  -->
<polyline points="460,12894
458,12896
454,12898
452,12900
449,12901
446,12901
441,12902
435,12903
429,12904
426,12904
425,12904
423,12904
417,12904
412,12903
409,12903
408,12902
406,12902
402,12900
398,12898
397,12896
396,12895
395,12894
397,12892
400,12890
402,12888
404,12887
407,12886
411,12885
417,12884
423,12883
426,12883
427,12883
430,12884
436,12884
442,12885
445,12885
446,12885
448,12885
453,12887
457,12889
459,12891
460,12893
460,12894
" style="stroke:#ffffff;stroke-width:0;
stroke-linejoin:bevel; stroke-linecap:butt;
fill:#ffffff;
"/>
<!-- Line -->
<!--  spline  -->
<polyline points="608,12894
605,12896
602,12898
599,12900
597,12901
593,12901
589,12902
583,12903
577,12904
575,12904
573,12904
571,12904
565,12904
560,12903
557,12903
556,12902
554,12902
550,12900
546,12898
545,12896
544,12895
543,12894
545,12892
548,12890
550,12888
552,12887
555,12886
559,12885
565,12884
571,12883
574,12883
575,12883
578,12884
584,12884
590,12885
592,12885
593,12885
596,12885
600,12887
604,12889
606,12891
607,12893
608,12894
" style="stroke:#ffffff;stroke-width:0;
stroke-linejoin:bevel; stroke-linecap:butt;
fill:#ffffff;
"/>
<!-- Line -->
<!--  polyline  -->
<polyline points="145,12943
585,12943
" style="stroke:#00a5d4;stroke-width:0;
stroke-linejoin:miter; stroke-linecap:butt;
fill:#00a5d4;
"/>
<!-- Line -->
<!--  polyline  -->
<polyline points="145,12943
585,12943
" style="stroke:#ffffff;stroke-width:7;
stroke-linejoin:miter; stroke-linecap:butt;
"/>
<!-- Line -->
<!--  spline  -->
<polyline points="248,12943
246,12945
242,12947
240,12949
238,12950
235,12951
230,12952
224,12953
218,12954
215,12954
214,12954
211,12953
205,12953
199,12952
197,12952
196,12952
194,12952
190,12950
187,12948
185,12946
184,12944
184,12943
186,12941
188,12939
190,12937
192,12936
195,12936
200,12935
206,12934
212,12933
215,12933
216,12933
219,12933
225,12933
231,12934
233,12934
235,12935
237,12935
241,12937
245,12939
247,12941
248,12942
248,12943
" style="stroke:#ffffff;stroke-width:0;
stroke-linejoin:bevel; stroke-linecap:butt;
fill:#ffffff;
"/>
<!-- Line -->
<!--  spline  -->
<polyline points="396,12943
394,12945
390,12947
388,12949
386,12950
383,12951
378,12952
372,12953
366,12954
363,12954
362,12954
359,12953
353,12953
347,12952
345,12952
344,12952
342,12952
338,12950
334,12948
333,12946
332,12944
331,12943
333,12941
336,12939
338,12937
340,12936
343,12936
347,12935
353,12934
359,12933
362,12933
363,12933
366,12933
372,12933
378,12934
381,12934
382,12935
384,12935
389,12937
393,12939
395,12941
396,12942
396,12943
" style="stroke:#ffffff;stroke-width:0;
stroke-linejoin:bevel; stroke-linecap:butt;
fill:#ffffff;
"/>
<!-- Line -->
<!--  spline  -->
<polyline points="544,12943
541,12945
538,12947
535,12949
533,12950
529,12951
525,12952
519,12953
513,12954
511,12954
509,12954
507,12953
501,12953
496,12952
493,12952
492,12952
490,12952
486,12950
482,12948
481,12946
480,12944
479,12943
481,12941
484,12939
486,12937
488,12936
491,12936
495,12935
501,12934
507,12933
510,12933
511,12933
514,12933
520,12933
526,12934
528,12934
529,12935
532,12935
536,12937
540,12939
542,12941
543,12942
544,12943
" style="stroke:#ffffff;stroke-width:0;
stroke-linejoin:bevel; stroke-linecap:butt;
fill:#ffffff;
"/>
</g>
</svg>
