<?xml version="1.0" encoding="UTF-8" standalone="no"?>
<!-- Created with Inkscape (http://www.inkscape.org/) -->

<svg
   xmlns:dc="http://purl.org/dc/elements/1.1/"
   xmlns:cc="http://creativecommons.org/ns#"
   xmlns:rdf="http://www.w3.org/1999/02/22-rdf-syntax-ns#"
   xmlns:svg="http://www.w3.org/2000/svg"
   xmlns="http://www.w3.org/2000/svg"
   version="1.1"
   width="0.69999999in"
   height="0.30000001in"
   viewBox="-3 12796 820 412"
   id="svg3138">
  <metadata
     id="metadata3196">
    <rdf:RDF>
      <cc:Work
         rdf:about="">
        <dc:format>image/svg+xml</dc:format>
        <dc:type
           rdf:resource="http://purl.org/dc/dcmitype/StillImage" />
        <dc:title></dc:title>
      </cc:Work>
    </rdf:RDF>
  </metadata>
  <defs
     id="defs3194">
    <filter
       x="0"
       y="0"
       width="1"
       height="1"
       color-interpolation-filters="sRGB"
       id="filter3305">
      <feColorMatrix
         values="0"
         type="saturate"
         id="feColorMatrix3307" />
    </filter>
  </defs>
  <g
     id="g3140"
     style="fill:none;stroke-width:0.025in;filter:url(#filter3305)">
    <polyline
       points="9,13002 250,12808 805,12808 606,13002 9,13002 "
       style="fill:#00a5d4;stroke:#00a5d4;stroke-width:0;stroke-linecap:butt;stroke-linejoin:miter"
       id="polyline3142" />
    <polyline
       points="9,13002 250,12808 805,12808 606,13002 9,13002 "
       style="stroke:#ffffff;stroke-width:7;stroke-linecap:butt;stroke-linejoin:miter"
       id="polyline3144" />
    <polyline
       points="555,12911 570,12896 616,12917 535,12940 553,12916 405,12916 411,12911 555,12911 "
       style="fill:#000000;stroke:#000000;stroke-width:0;stroke-linecap:butt;stroke-linejoin:miter"
       id="polyline3146" />
    <polyline
       points="466,12861 461,12866 310,12866 287,12884 249,12865 337,12839 315,12861 466,12861 "
       style="fill:#000000;stroke:#000000;stroke-width:0;stroke-linecap:butt;stroke-linejoin:miter"
       id="polyline3148" />
    <polyline
       points="383,12945 378,12950 226,12950 203,12967 163,12948 254,12923 234,12945 383,12945 "
       style="fill:#000000;stroke:#000000;stroke-width:0;stroke-linecap:butt;stroke-linejoin:miter"
       id="polyline3150" />
    <polyline
       points="640,12840 655,12826 701,12846 620,12869 638,12846 489,12846 495,12840 640,12840 "
       style="fill:#000000;stroke:#000000;stroke-width:0;stroke-linecap:butt;stroke-linejoin:miter"
       id="polyline3152" />
    <polyline
       points="556,12916 570,12901 611,12918 530,12941 550,12921 402,12921 407,12916 556,12916 "
       style="fill:#ffffff;stroke:#ffffff;stroke-width:0;stroke-linecap:butt;stroke-linejoin:miter"
       id="polyline3154" />
    <polyline
       points="461,12866 456,12871 307,12871 292,12886 252,12869 333,12845 313,12866 461,12866 "
       style="fill:#ffffff;stroke:#ffffff;stroke-width:0;stroke-linecap:butt;stroke-linejoin:miter"
       id="polyline3156" />
    <polyline
       points="606,13192 805,12991 805,12808 606,13002 606,13192 "
       style="fill:#00a5d4;stroke:#00a5d4;stroke-width:0;stroke-linecap:butt;stroke-linejoin:miter"
       id="polyline3158" />
    <polyline
       points="606,13192 805,12991 805,12808 606,13002 606,13192 "
       style="stroke:#ffffff;stroke-width:7;stroke-linecap:butt;stroke-linejoin:miter"
       id="polyline3160" />
    <polyline
       points="377,12950 372,12955 223,12955 209,12970 168,12952 249,12929 229,12950 377,12950 "
       style="fill:#ffffff;stroke:#ffffff;stroke-width:0;stroke-linecap:butt;stroke-linejoin:miter"
       id="polyline3162" />
    <polyline
       points="640,12846 655,12831 695,12848 614,12871 635,12851 486,12851 492,12846 640,12846 "
       style="fill:#ffffff;stroke:#ffffff;stroke-width:0;stroke-linecap:butt;stroke-linejoin:miter"
       id="polyline3164" />
    <polyline
       points="631,12852 612,12870 "
       style="stroke:#000000;stroke-width:7;stroke-linecap:round;stroke-linejoin:round"
       id="polyline3166" />
    <polyline
       points="545,12923 527,12941 "
       style="stroke:#000000;stroke-width:7;stroke-linecap:round;stroke-linejoin:round"
       id="polyline3168" />
    <polyline
       points="410,12913 401,12920 "
       style="stroke:#000000;stroke-width:7;stroke-linecap:round;stroke-linejoin:round"
       id="polyline3170" />
    <polyline
       points="495,12842 487,12850 "
       style="stroke:#000000;stroke-width:7;stroke-linecap:round;stroke-linejoin:round"
       id="polyline3172" />
    <polyline
       points="606,13194 606,13002 10,13002 10,13196 606,13194 "
       style="fill:#00a5d4;stroke:#00a5d4;stroke-width:0;stroke-linecap:round;stroke-linejoin:round"
       id="polyline3174" />
    <polyline
       points="606,13194 606,13002 10,13002 10,13196 606,13194 "
       style="stroke:#ffffff;stroke-width:7;stroke-linecap:butt;stroke-linejoin:miter"
       id="polyline3176" />
    <polyline
       points="231,13100 119,13100 119,13090 77,13105 119,13120 119,13110 231,13110 231,13100 "
       style="fill:#ffffff;stroke:#ffffff;stroke-width:0;stroke-linecap:butt;stroke-linejoin:miter"
       id="polyline3178" />
    <polyline
       points="293,13132 293,13172 265,13172 307,13187 350,13172 321,13172 321,13132 293,13132 "
       style="fill:#ffffff;stroke:#ffffff;stroke-width:0;stroke-linecap:butt;stroke-linejoin:miter"
       id="polyline3180" />
    <polyline
       points="293,13079 293,13040 265,13040 307,13025 350,13040 321,13040 321,13079 293,13079 "
       style="fill:#ffffff;stroke:#ffffff;stroke-width:0;stroke-linecap:butt;stroke-linejoin:miter"
       id="polyline3182" />
    <polyline
       points="384,13110 495,13110 495,13120 537,13105 495,13090 495,13100 384,13100 384,13110 "
       style="fill:#ffffff;stroke:#ffffff;stroke-width:0;stroke-linecap:butt;stroke-linejoin:miter"
       id="polyline3184" />
    <polyline
       points="486,13169 485,13169 480,13169 471,13170 466,13170 465,13170 464,13170 460,13170 454,13169 444,13167 430,13165 418,13163 411,13161 408,13161 405,13160 398,13159 383,13155 368,13151 360,13149 357,13148 354,13147 346,13144 330,13139 313,13134 299,13129 287,13126 278,13123 273,13121 272,13121 270,13120 261,13117 245,13110 229,13104 220,13101 218,13100 217,13100 213,13098 206,13095 197,13091 187,13087 175,13081 163,13075 159,13073 157,13072 153,13070 145,13065 138,13060 135,13058 134,13057 133,13056 130,13052 129,13048 130,13046 131,13045 133,13044 134,13044 139,13044 148,13043 153,13043 154,13043 157,13043 162,13044 169,13045 178,13046 190,13048 202,13050 209,13052 212,13052 214,13053 222,13054 236,13058 251,13062 259,13064 262,13065 265,13066 274,13068 290,13073 308,13078 322,13083 333,13087 342,13090 347,13092 348,13092 350,13093 359,13096 375,13103 391,13109 400,13112 402,13113 403,13113 407,13115 414,13118 423,13122 433,13126 445,13132 457,13138 462,13140 463,13141 467,13143 475,13148 482,13153 484,13155 485,13156 486,13157 489,13161 490,13165 489,13167 488,13168 486,13169 "
       style="stroke:#ffffff;stroke-width:7;stroke-linecap:butt;stroke-linejoin:bevel"
       id="polyline3186" />
    <polyline
       points="481,13044 482,13046 483,13049 484,13051 483,13053 481,13055 478,13059 471,13064 463,13069 459,13071 457,13072 453,13074 441,13080 430,13085 424,13088 422,13089 420,13090 413,13093 399,13099 384,13105 371,13110 360,13115 351,13118 346,13120 345,13120 343,13121 334,13124 316,13130 299,13135 290,13138 288,13139 287,13139 282,13141 274,13143 263,13146 250,13150 234,13154 219,13158 212,13160 209,13160 206,13161 200,13162 187,13165 175,13167 169,13168 167,13169 165,13169 160,13169 151,13170 142,13170 136,13170 132,13170 130,13169 129,13167 127,13163 126,13161 127,13159 129,13157 133,13154 140,13149 148,13144 151,13142 153,13141 157,13138 169,13132 180,13127 186,13124 189,13123 191,13122 198,13119 212,13113 227,13107 240,13102 251,13098 259,13095 264,13093 265,13093 267,13092 276,13089 294,13083 312,13078 321,13075 323,13074 324,13074 329,13072 337,13069 348,13066 361,13062 377,13058 391,13054 399,13053 402,13052 404,13052 411,13050 423,13048 435,13046 441,13045 443,13044 445,13044 450,13043 459,13042 469,13042 475,13042 479,13043 481,13044 "
       style="stroke:#ffffff;stroke-width:7;stroke-linecap:butt;stroke-linejoin:bevel"
       id="polyline3188" />
    <polyline
       points="353,13128 354,13128 359,13126 365,13124 370,13122 371,13122 373,13121 376,13119 380,13117 383,13114 385,13111 386,13110 386,13109 387,13108 387,13105 387,13102 387,13101 387,13100 386,13099 384,13096 381,13093 378,13091 375,13089 373,13088 372,13088 367,13086 361,13083 356,13081 355,13081 354,13081 352,13080 347,13079 340,13078 332,13077 324,13076 321,13076 320,13076 316,13076 308,13076 300,13076 296,13076 295,13076 291,13076 283,13077 274,13078 268,13079 263,13080 261,13081 260,13081 259,13081 254,13083 247,13085 242,13087 241,13087 239,13088 236,13090 232,13092 229,13095 227,13098 226,13099 226,13100 225,13101 225,13104 225,13107 225,13108 225,13109 226,13110 228,13113 231,13116 235,13118 238,13120 240,13121 241,13121 246,13123 252,13126 257,13128 258,13128 259,13128 261,13129 266,13130 272,13131 280,13132 288,13133 291,13133 292,13133 296,13133 304,13133 312,13133 316,13133 317,13133 321,13133 329,13132 338,13131 344,13130 349,13129 352,13128 353,13128 "
       style="fill:#b5b5b5;stroke:#b5b5b5;stroke-width:0;stroke-linecap:butt;stroke-linejoin:bevel"
       id="polyline3190" />
  </g>
</svg>
