<?xml version="1.0" standalone="no"?>
<!DOCTYPE svg PUBLIC "-//W3C//DTD SVG 1.1//EN"
"http://www.w3.org/Graphics/SVG/1.1/DTD/svg11.dtd">
<!-- Creator: fig2dev Version 3.2 Patchlevel 5c -->
<!-- CreationDate: Fri Sep 14 10:46:39 2012 -->
<!-- Magnification: 1.000 -->
<svg xmlns="http://www.w3.org/2000/svg" width="0.5in" height="0.4in" viewBox="-1 12712 577 497">
<g style="stroke-width:.025in; fill:none">
<!-- Line -->
<!--  spline  -->
<polyline points="425,13093
425,13092
424,13086
421,13074
419,13063
418,13057
418,13056
418,13055
417,13053
414,13048
410,13042
405,13035
398,13026
390,13018
386,13014
384,13013
382,13012
377,13008
367,13002
356,12996
350,12993
348,12992
346,12992
339,12989
327,12986
313,12983
302,12982
293,12981
286,12981
282,12981
281,12981
280,12981
273,12982
260,12984
247,12985
240,12986
239,12986
238,12986
235,12987
229,12989
222,12992
213,12996
202,13002
192,13008
187,13012
186,13013
184,13014
180,13018
172,13026
165,13034
161,13038
160,13040
159,13042
156,13046
152,13056
148,13067
146,13076
146,13083
145,13089
145,13092
145,13093
145,13095
147,13103
150,13115
152,13123
152,13125
152,13126
154,13130
158,13136
164,13143
172,13153
180,13160
184,13164
186,13166
187,13167
192,13170
202,13176
212,13181
217,13184
220,13185
222,13186
228,13188
239,13191
251,13194
262,13195
270,13196
277,13197
280,13197
281,13197
282,13197
290,13196
304,13194
318,13192
326,13191
327,13191
328,13191
331,13190
338,13188
346,13185
356,13182
367,13176
377,13170
382,13167
384,13166
386,13164
390,13160
398,13153
406,13144
409,13140
411,13139
413,13135
418,13125
422,13114
424,13105
425,13098
425,13094
425,13093
" style="stroke:#02709f;stroke-width:0;
stroke-linejoin:bevel; stroke-linecap:butt;
fill:#02709f;
"/>
<!-- Line -->
<!--  spline  -->
<polyline points="425,13093
425,13092
424,13086
421,13074
419,13063
418,13057
418,13056
418,13055
417,13053
414,13048
410,13042
405,13035
398,13026
390,13018
386,13014
384,13013
382,13012
377,13008
367,13002
356,12996
350,12993
348,12992
346,12992
339,12989
327,12986
313,12983
302,12982
293,12981
286,12981
282,12981
281,12981
280,12981
273,12982
260,12984
247,12985
240,12986
239,12986
238,12986
235,12987
229,12989
222,12992
213,12996
202,13002
192,13008
187,13012
186,13013
184,13014
180,13018
172,13026
165,13034
161,13038
160,13040
159,13042
156,13046
152,13056
148,13067
146,13076
146,13083
145,13089
145,13092
145,13093
145,13095
147,13103
150,13115
152,13123
152,13125
152,13126
154,13130
158,13136
164,13143
172,13153
180,13160
184,13164
186,13166
187,13167
192,13170
202,13176
212,13181
217,13184
220,13185
222,13186
228,13188
239,13191
251,13194
262,13195
270,13196
277,13197
280,13197
281,13197
282,13197
290,13196
304,13194
318,13192
326,13191
327,13191
328,13191
331,13190
338,13188
346,13185
356,13182
367,13176
377,13170
382,13167
384,13166
386,13164
390,13160
398,13153
406,13144
409,13140
411,13139
413,13135
418,13125
422,13114
424,13105
425,13098
425,13094
425,13093
" style="stroke:#ffffff;stroke-width:7;
stroke-linejoin:bevel; stroke-linecap:butt;
"/>
<!-- Line -->
<!--  polyline  -->
<polyline points="377,13089
433,13089
473,13097
529,13097
545,13089
553,13073
561,13057
553,13033
505,12985
473,12945
433,12905
409,12873
385,12833
361,12801
337,12761
329,12729
297,12713
273,12713
241,12729
233,12753
217,12785
193,12817
177,12849
129,12913
97,12953
17,13033
9,13049
9,13057
25,13089
41,13089
57,13097
89,13097
121,13089
241,13089
377,13089
" style="stroke:#02709f;stroke-width:0;
stroke-linejoin:miter; stroke-linecap:butt;
fill:#02709f;
"/>
<!-- Line -->
<!--  spline  -->
<polyline points="433,12953
433,12952
431,12946
429,12935
427,12924
425,12918
425,12917
425,12916
423,12914
421,12909
417,12902
411,12895
403,12886
394,12878
390,12874
388,12873
385,12871
380,12868
369,12862
358,12857
352,12854
350,12853
347,12852
341,12850
328,12847
314,12844
303,12843
293,12842
286,12841
282,12841
281,12841
280,12841
272,12842
258,12844
245,12846
237,12847
236,12847
235,12847
232,12848
225,12850
217,12853
207,12856
196,12862
186,12868
181,12871
179,12873
177,12874
173,12878
165,12886
158,12894
154,12899
153,12901
152,12902
149,12907
145,12917
141,12928
139,12936
138,12944
137,12949
137,12952
137,12953
137,12954
139,12960
141,12971
143,12982
145,12988
145,12989
145,12990
146,12992
149,12997
153,13004
158,13011
165,13020
173,13028
177,13032
179,13033
181,13035
186,13038
196,13044
207,13050
213,13053
215,13054
217,13054
224,13057
236,13060
249,13063
260,13064
269,13065
276,13065
280,13065
281,13065
282,13065
290,13064
305,13062
319,13061
327,13060
328,13060
329,13060
332,13059
339,13057
347,13054
357,13050
369,13044
380,13038
385,13035
388,13033
390,13032
394,13028
403,13020
411,13012
415,13007
416,13005
417,13004
420,12999
425,12989
429,12978
431,12970
432,12962
433,12957
433,12954
433,12953
" style="stroke:#02709f;stroke-width:0;
stroke-linejoin:bevel; stroke-linecap:butt;
fill:#02709f;
"/>
<!-- Line -->
<!--  spline  -->
<polyline points="433,12953
433,12952
431,12946
429,12935
427,12924
425,12918
425,12917
425,12916
423,12914
421,12909
417,12902
411,12895
403,12886
394,12878
390,12874
388,12873
385,12871
380,12868
369,12862
358,12857
352,12854
350,12853
347,12852
341,12850
328,12847
314,12844
303,12843
293,12842
286,12841
282,12841
281,12841
280,12841
272,12842
258,12844
245,12846
237,12847
236,12847
235,12847
232,12848
225,12850
217,12853
207,12856
196,12862
186,12868
181,12871
179,12873
177,12874
173,12878
165,12886
158,12894
154,12899
153,12901
152,12902
149,12907
145,12917
141,12928
139,12936
138,12944
137,12949
137,12952
137,12953
137,12954
139,12960
141,12971
143,12982
145,12988
145,12989
145,12990
146,12992
149,12997
153,13004
158,13011
165,13020
173,13028
177,13032
179,13033
181,13035
186,13038
196,13044
207,13050
213,13053
215,13054
217,13054
224,13057
236,13060
249,13063
260,13064
269,13065
276,13065
280,13065
281,13065
282,13065
290,13064
305,13062
319,13061
327,13060
328,13060
329,13060
332,13059
339,13057
347,13054
357,13050
369,13044
380,13038
385,13035
388,13033
390,13032
394,13028
403,13020
411,13012
415,13007
416,13005
417,13004
420,12999
425,12989
429,12978
431,12970
432,12962
433,12957
433,12954
433,12953
" style="stroke:#ffffff;stroke-width:7;
stroke-linejoin:bevel; stroke-linecap:butt;
"/>
<!-- Line -->
<!--  polyline  -->
<polyline points="297,12769
305,12769
305,12713
297,12713
297,12769
" style="stroke:#ffffff;stroke-width:0;
stroke-linejoin:miter; stroke-linecap:butt;
fill:#ffffff;
"/>
<!-- Line -->
<!--  polyline  -->
<polyline points="281,12769
289,12769
289,12713
281,12713
281,12769
" style="stroke:#ffffff;stroke-width:0;
stroke-linejoin:miter; stroke-linecap:butt;
fill:#ffffff;
"/>
<!-- Line -->
<!--  polyline  -->
<polyline points="265,12769
273,12769
273,12713
265,12713
265,12769
" style="stroke:#ffffff;stroke-width:0;
stroke-linejoin:miter; stroke-linecap:butt;
fill:#ffffff;
"/>
<!-- Line -->
<!--  polyline  -->
<polyline points="18,13092
23,13098
69,13066
64,13059
18,13092
" style="stroke:#ffffff;stroke-width:0;
stroke-linejoin:miter; stroke-linecap:butt;
fill:#ffffff;
"/>
<!-- Line -->
<!--  polyline  -->
<polyline points="9,13079
14,13085
60,13053
55,13046
9,13079
" style="stroke:#ffffff;stroke-width:0;
stroke-linejoin:miter; stroke-linecap:butt;
fill:#ffffff;
"/>
<!-- Line -->
<!--  polyline  -->
<polyline points="0,13066
5,13072
50,13040
46,13033
0,13066
" style="stroke:#ffffff;stroke-width:0;
stroke-linejoin:miter; stroke-linecap:butt;
fill:#ffffff;
"/>
<!-- Line -->
<!--  polyline  -->
<polyline points="556,13092
552,13098
506,13066
511,13059
556,13092
" style="stroke:#ffffff;stroke-width:0;
stroke-linejoin:miter; stroke-linecap:butt;
fill:#ffffff;
"/>
<!-- Line -->
<!--  polyline  -->
<polyline points="566,13079
561,13085
515,13053
520,13046
566,13079
" style="stroke:#ffffff;stroke-width:0;
stroke-linejoin:miter; stroke-linecap:butt;
fill:#ffffff;
"/>
<!-- Line -->
<!--  polyline  -->
<polyline points="575,13066
570,13072
525,13040
529,13033
575,13066
" style="stroke:#ffffff;stroke-width:0;
stroke-linejoin:miter; stroke-linecap:butt;
fill:#ffffff;
"/>
<!-- Line -->
<!--  polyline  -->
<polyline points="264,13112
239,13112
239,13099
264,13099
264,13112
" style="stroke:#000000;stroke-width:0;
stroke-linejoin:miter; stroke-linecap:butt;
fill:#000000;
"/>
<!-- Line -->
<!--  polyline  -->
<polyline points="264,13112
239,13112
239,13099
264,13099
264,13112
" style="stroke:#ffffff;stroke-width:7;
stroke-linejoin:miter; stroke-linecap:butt;
"/>
<!-- Line -->
<!--  polyline  -->
<polyline points="295,13112
270,13112
270,13099
295,13099
295,13112
" style="stroke:#000000;stroke-width:0;
stroke-linejoin:miter; stroke-linecap:butt;
fill:#000000;
"/>
<!-- Line -->
<!--  polyline  -->
<polyline points="295,13112
270,13112
270,13099
295,13099
295,13112
" style="stroke:#ffffff;stroke-width:7;
stroke-linejoin:miter; stroke-linecap:butt;
"/>
<!-- Line -->
<!--  polyline  -->
<polyline points="326,13112
301,13112
301,13099
326,13099
326,13112
" style="stroke:#000000;stroke-width:0;
stroke-linejoin:miter; stroke-linecap:butt;
fill:#000000;
"/>
<!-- Line -->
<!--  polyline  -->
<polyline points="326,13112
301,13112
301,13099
326,13099
326,13112
" style="stroke:#ffffff;stroke-width:7;
stroke-linejoin:miter; stroke-linecap:butt;
"/>
<!-- Line -->
<!--  polyline  -->
<polyline points="264,13135
239,13135
239,13121
264,13121
264,13135
" style="stroke:#000000;stroke-width:0;
stroke-linejoin:miter; stroke-linecap:butt;
fill:#000000;
"/>
<!-- Line -->
<!--  polyline  -->
<polyline points="264,13135
239,13135
239,13121
264,13121
264,13135
" style="stroke:#ffffff;stroke-width:7;
stroke-linejoin:miter; stroke-linecap:butt;
"/>
<!-- Line -->
<!--  polyline  -->
<polyline points="295,13135
270,13135
270,13121
295,13121
295,13135
" style="stroke:#000000;stroke-width:0;
stroke-linejoin:miter; stroke-linecap:butt;
fill:#000000;
"/>
<!-- Line -->
<!--  polyline  -->
<polyline points="295,13135
270,13135
270,13121
295,13121
295,13135
" style="stroke:#ffffff;stroke-width:7;
stroke-linejoin:miter; stroke-linecap:butt;
"/>
<!-- Line -->
<!--  polyline  -->
<polyline points="326,13135
301,13135
301,13121
326,13121
326,13135
" style="stroke:#000000;stroke-width:0;
stroke-linejoin:miter; stroke-linecap:butt;
fill:#000000;
"/>
<!-- Line -->
<!--  polyline  -->
<polyline points="326,13135
301,13135
301,13121
326,13121
326,13135
" style="stroke:#ffffff;stroke-width:7;
stroke-linejoin:miter; stroke-linecap:butt;
"/>
<!-- Line -->
<!--  polyline  -->
<polyline points="264,13157
239,13157
239,13143
264,13143
264,13157
" style="stroke:#000000;stroke-width:0;
stroke-linejoin:miter; stroke-linecap:butt;
fill:#000000;
"/>
<!-- Line -->
<!--  polyline  -->
<polyline points="264,13157
239,13157
239,13143
264,13143
264,13157
" style="stroke:#ffffff;stroke-width:7;
stroke-linejoin:miter; stroke-linecap:butt;
"/>
<!-- Line -->
<!--  polyline  -->
<polyline points="295,13157
270,13157
270,13143
295,13143
295,13157
" style="stroke:#000000;stroke-width:0;
stroke-linejoin:miter; stroke-linecap:butt;
fill:#000000;
"/>
<!-- Line -->
<!--  polyline  -->
<polyline points="295,13157
270,13157
270,13143
295,13143
295,13157
" style="stroke:#ffffff;stroke-width:7;
stroke-linejoin:miter; stroke-linecap:butt;
"/>
<!-- Line -->
<!--  polyline  -->
<polyline points="326,13157
301,13157
301,13143
326,13143
326,13157
" style="stroke:#000000;stroke-width:0;
stroke-linejoin:miter; stroke-linecap:butt;
fill:#000000;
"/>
<!-- Line -->
<!--  polyline  -->
<polyline points="326,13157
301,13157
301,13143
326,13143
326,13157
" style="stroke:#ffffff;stroke-width:7;
stroke-linejoin:miter; stroke-linecap:butt;
"/>
</g>
</svg>
