<?xml version="1.0" standalone="no"?>
<!DOCTYPE svg PUBLIC "-//W3C//DTD SVG 1.1//EN"
"http://www.w3.org/Graphics/SVG/1.1/DTD/svg11.dtd">
<!-- Creator: fig2dev Version 3.2 Patchlevel 5c -->
<!-- CreationDate: Fri Sep 14 10:46:39 2012 -->
<!-- Magnification: 1.000 -->
<svg xmlns="http://www.w3.org/2000/svg" width="0.5in" height="0.5in" viewBox="-2 12607 637 597">
<g style="stroke-width:.025in; fill:none">
<!-- Line -->
<!--  polyline  -->
<polyline points="623,12619
521,12717
10,12717
134,12619
623,12619
" style="stroke:#026c9b;stroke-width:0;
stroke-linejoin:miter; stroke-linecap:butt;
fill:#026c9b;
"/>
<!-- Line -->
<!--  polyline  -->
<polyline points="623,12619
521,12717
10,12717
134,12619
623,12619
" style="stroke:#ffffff;stroke-width:7;
stroke-linejoin:miter; stroke-linecap:butt;
"/>
<!-- Line -->
<!--  polyline  -->
<polyline points="521,13192
521,12717
10,12717
10,13192
521,13192
" style="stroke:#026c9b;stroke-width:0;
stroke-linejoin:miter; stroke-linecap:butt;
fill:#026c9b;
"/>
<!-- Line -->
<!--  polyline  -->
<polyline points="521,13192
521,12717
10,12717
10,13192
521,13192
" style="stroke:#ffffff;stroke-width:7;
stroke-linejoin:miter; stroke-linecap:butt;
"/>
<!-- Line -->
<!--  polyline  -->
<polyline points="612,13094
612,12619
516,12717
516,13192
612,13094
" style="stroke:#026c9b;stroke-width:0;
stroke-linejoin:miter; stroke-linecap:butt;
fill:#026c9b;
"/>
<!-- Line -->
<!--  polyline  -->
<polyline points="612,13094
612,12619
516,12717
516,13192
612,13094
" style="stroke:#ffffff;stroke-width:7;
stroke-linejoin:miter; stroke-linecap:butt;
"/>
<!-- Line -->
<!--  polyline  -->
<polyline points="492,12753
35,12753
35,13153
492,13153
492,12753
" style="stroke:#026c9b;stroke-width:0;
stroke-linejoin:miter; stroke-linecap:butt;
fill:#026c9b;
"/>
<!-- Line -->
<!--  polyline  -->
<polyline points="492,12753
35,12753
35,13153
492,13153
492,12753
" style="stroke:#ffffff;stroke-width:7;
stroke-linejoin:miter; stroke-linecap:butt;
"/>
<!-- Line -->
<!--  polyline  -->
<polyline points="219,12931
57,12984
" style="stroke:#ffffff;stroke-width:7;
stroke-linejoin:miter; stroke-linecap:butt;
stroke-dasharray:10 40;"/>
<!-- Line -->
<!--  polyline  -->
<polyline points="294,12891
491,12818
491,12861
294,12891
" style="stroke:#026c9b;stroke-width:0;
stroke-linejoin:miter; stroke-linecap:butt;
stroke-dasharray:10 40;fill:#026c9b;
"/>
<!-- Line -->
<!--  polyline  -->
<polyline points="294,12891
491,12818
491,12861
294,12891
" style="stroke:#ffffff;stroke-width:7;
stroke-linejoin:miter; stroke-linecap:butt;
"/>
<!-- Line -->
<!--  polyline  -->
<polyline points="294,12891
491,12864
491,12908
294,12891
" style="stroke:#026c9b;stroke-width:0;
stroke-linejoin:miter; stroke-linecap:butt;
fill:#026c9b;
"/>
<!-- Line -->
<!--  polyline  -->
<polyline points="294,12891
491,12864
491,12908
294,12891
" style="stroke:#ffffff;stroke-width:7;
stroke-linejoin:miter; stroke-linecap:butt;
"/>
<!-- Line -->
<!--  polyline  -->
<polyline points="294,12891
491,12908
491,12951
294,12891
" style="stroke:#026c9b;stroke-width:0;
stroke-linejoin:miter; stroke-linecap:butt;
fill:#026c9b;
"/>
<!-- Line -->
<!--  polyline  -->
<polyline points="294,12891
491,12908
491,12951
294,12891
" style="stroke:#ffffff;stroke-width:7;
stroke-linejoin:miter; stroke-linecap:butt;
"/>
<!-- Line -->
<!--  polyline  -->
<polyline points="426,13118
114,13118
270,12805
426,13118
" style="stroke:#ffffff;stroke-width:0;
stroke-linejoin:miter; stroke-linecap:butt;
fill:#ffffff;
"/>
<!-- Line -->
<!--  polyline  -->
<polyline points="249,12987
218,12956
223,12951
204,12947
208,12967
213,12961
244,12992
249,12987
" style="stroke:#026c9b;stroke-width:0;
stroke-linejoin:miter; stroke-linecap:butt;
fill:#026c9b;
"/>
<!-- Line -->
<!--  polyline  -->
<polyline points="237,13007
194,13007
194,13000
178,13011
194,13021
194,13014
237,13014
237,13007
" style="stroke:#026c9b;stroke-width:0;
stroke-linejoin:miter; stroke-linecap:butt;
fill:#026c9b;
"/>
<!-- Line -->
<!--  polyline  -->
<polyline points="244,13029
213,13060
208,13055
204,13074
223,13070
218,13065
249,13034
244,13029
" style="stroke:#026c9b;stroke-width:0;
stroke-linejoin:miter; stroke-linecap:butt;
fill:#026c9b;
"/>
<!-- Line -->
<!--  polyline  -->
<polyline points="264,13040
264,13084
257,13084
267,13100
278,13084
271,13084
271,13040
264,13040
" style="stroke:#026c9b;stroke-width:0;
stroke-linejoin:miter; stroke-linecap:butt;
fill:#026c9b;
"/>
<!-- Line -->
<!--  polyline  -->
<polyline points="264,12982
264,12939
257,12939
267,12922
278,12939
271,12939
271,12982
264,12982
" style="stroke:#026c9b;stroke-width:0;
stroke-linejoin:miter; stroke-linecap:butt;
fill:#026c9b;
"/>
<!-- Line -->
<!--  polyline  -->
<polyline points="286,13034
317,13065
311,13070
331,13074
327,13055
321,13060
291,13029
286,13034
" style="stroke:#026c9b;stroke-width:0;
stroke-linejoin:miter; stroke-linecap:butt;
fill:#026c9b;
"/>
<!-- Line -->
<!--  polyline  -->
<polyline points="297,13014
340,13014
340,13021
357,13011
340,13000
340,13007
297,13007
297,13014
" style="stroke:#026c9b;stroke-width:0;
stroke-linejoin:miter; stroke-linecap:butt;
fill:#026c9b;
"/>
<!-- Line -->
<!--  polyline  -->
<polyline points="291,12992
321,12961
327,12967
331,12947
311,12951
317,12956
286,12987
291,12992
" style="stroke:#026c9b;stroke-width:0;
stroke-linejoin:miter; stroke-linecap:butt;
fill:#026c9b;
"/>
<!-- Line -->
<!--  spline  -->
<polyline points="294,13047
295,13046
297,13044
301,13040
303,13038
304,13037
305,13035
307,13033
309,13030
311,13025
312,13021
313,13019
313,13018
313,13016
313,13011
313,13006
313,13004
312,13002
311,12997
309,12992
308,12989
306,12986
305,12984
304,12983
302,12981
298,12977
296,12975
295,12974
293,12973
291,12971
288,12969
283,12967
279,12966
277,12965
276,12965
274,12965
269,12965
264,12965
262,12965
260,12966
255,12967
250,12969
247,12970
244,12972
242,12973
241,12974
239,12976
235,12980
233,12982
232,12983
231,12985
229,12988
227,12991
225,12996
224,13000
223,13002
223,13003
223,13005
223,13009
223,13014
223,13016
224,13018
225,13023
227,13028
228,13031
230,13034
231,13036
232,13037
234,13039
238,13044
240,13046
241,13047
243,13048
245,13050
248,13051
253,13053
257,13054
259,13055
260,13055
262,13055
267,13055
272,13055
274,13055
276,13055
281,13054
286,13052
289,13050
292,13048
294,13047
" style="stroke:#026c9b;stroke-width:0;
stroke-linejoin:bevel; stroke-linecap:butt;
fill:#026c9b;
"/>
<!-- Line -->
<!--  spline  -->
<polyline points="294,13047
295,13046
297,13044
301,13040
303,13038
304,13037
305,13035
307,13033
309,13030
311,13025
312,13021
313,13019
313,13018
313,13016
313,13011
313,13006
313,13004
312,13002
311,12997
309,12992
308,12989
306,12986
305,12984
304,12983
302,12981
298,12977
296,12975
295,12974
293,12973
291,12971
288,12969
283,12967
279,12966
277,12965
276,12965
274,12965
269,12965
264,12965
262,12965
260,12966
255,12967
250,12969
247,12970
244,12972
242,12973
241,12974
239,12976
235,12980
233,12982
232,12983
231,12985
229,12988
227,12991
225,12996
224,13000
223,13002
223,13003
223,13005
223,13009
223,13014
223,13016
224,13018
225,13023
227,13028
228,13031
230,13034
231,13036
232,13037
234,13039
238,13044
240,13046
241,13047
243,13048
245,13050
248,13051
253,13053
257,13054
259,13055
260,13055
262,13055
267,13055
272,13055
274,13055
276,13055
281,13054
286,13052
289,13050
292,13048
294,13047
" style="stroke:#ffffff;stroke-width:7;
stroke-linejoin:bevel; stroke-linecap:butt;
"/>
</g>
</svg>
