<?xml version="1.0" standalone="no"?>
<!DOCTYPE svg PUBLIC "-//W3C//DTD SVG 1.1//EN"
"http://www.w3.org/Graphics/SVG/1.1/DTD/svg11.dtd">
<!-- Creator: fig2dev Version 3.2 Patchlevel 5c -->
<!-- CreationDate: Fri Sep 14 10:46:40 2012 -->
<!-- Magnification: 1.000 -->
<svg xmlns="http://www.w3.org/2000/svg" width="0.5in" height="0.5in" viewBox="-9 12575 629 634">
<g style="stroke-width:.025in; fill:none">
<!-- Line -->
<!--  spline  -->
<polyline points="608,12704
608,12705
605,12711
600,12723
595,12734
592,12740
592,12741
592,12742
589,12745
584,12750
576,12757
566,12765
550,12774
537,12781
528,12785
523,12787
520,12788
518,12789
512,12790
501,12794
484,12799
466,12804
454,12807
448,12808
445,12809
442,12810
435,12811
421,12813
401,12816
379,12818
361,12820
345,12821
331,12822
319,12822
311,12822
307,12822
306,12822
305,12822
297,12821
281,12820
258,12819
235,12818
219,12817
211,12816
210,12816
209,12816
206,12815
198,12814
188,12813
175,12810
161,12807
145,12804
127,12799
110,12794
99,12790
94,12789
91,12788
89,12787
84,12785
75,12781
62,12774
47,12765
39,12760
36,12758
34,12756
29,12751
19,12741
11,12730
7,12721
4,12714
3,12708
3,12705
3,12704
3,12708
3,12715
3,12729
3,12750
3,12778
3,12812
3,12850
3,12892
3,12933
3,12971
3,13005
3,13033
3,13054
3,13068
3,13075
3,13079
3,13080
6,13086
11,13098
16,13109
19,13115
19,13116
19,13117
22,13120
28,13125
35,13132
46,13140
62,13149
75,13156
84,13160
89,13162
91,13163
94,13164
99,13165
110,13169
127,13174
145,13179
157,13182
163,13183
166,13184
169,13185
176,13186
190,13188
210,13191
232,13193
251,13195
267,13196
281,13197
293,13197
301,13197
305,13197
306,13197
307,13197
315,13196
331,13195
354,13194
376,13193
392,13192
400,13191
401,13191
402,13191
405,13190
413,13189
423,13188
436,13185
450,13182
466,13179
484,13174
501,13169
512,13165
518,13164
520,13163
523,13162
528,13160
537,13156
550,13149
565,13140
573,13135
575,13133
577,13131
583,13126
592,13116
600,13105
604,13096
606,13089
608,13083
608,13080
608,13079
608,13075
608,13068
608,13054
608,13033
608,13005
608,12971
608,12933
608,12891
608,12850
608,12812
608,12778
608,12750
608,12729
608,12715
608,12708
608,12704
" style="stroke:#026c9b;stroke-width:0;
stroke-linejoin:bevel; stroke-linecap:butt;
fill:#026c9b;
"/>
<!-- Line -->
<!--  spline  -->
<polyline points="608,12704
608,12705
605,12711
600,12723
595,12734
592,12740
592,12741
592,12742
589,12745
584,12750
576,12757
566,12765
550,12774
537,12781
528,12785
523,12787
520,12788
518,12789
512,12790
501,12794
484,12799
466,12804
454,12807
448,12808
445,12809
442,12810
435,12811
421,12813
401,12816
379,12818
361,12820
345,12821
331,12822
319,12822
311,12822
307,12822
306,12822
305,12822
297,12821
281,12820
258,12819
235,12818
219,12817
211,12816
210,12816
209,12816
206,12815
198,12814
188,12813
175,12810
161,12807
145,12804
127,12799
110,12794
99,12790
94,12789
91,12788
89,12787
84,12785
75,12781
62,12774
47,12765
39,12760
36,12758
34,12756
29,12751
19,12741
11,12730
7,12721
4,12714
3,12708
3,12705
3,12704
3,12708
3,12715
3,12729
3,12750
3,12778
3,12812
3,12850
3,12892
3,12933
3,12971
3,13005
3,13033
3,13054
3,13068
3,13075
3,13079
3,13080
6,13086
11,13098
16,13109
19,13115
19,13116
19,13117
22,13120
28,13125
35,13132
46,13140
62,13149
75,13156
84,13160
89,13162
91,13163
94,13164
99,13165
110,13169
127,13174
145,13179
157,13182
163,13183
166,13184
169,13185
176,13186
190,13188
210,13191
232,13193
251,13195
267,13196
281,13197
293,13197
301,13197
305,13197
306,13197
307,13197
315,13196
331,13195
354,13194
376,13193
392,13192
400,13191
401,13191
402,13191
405,13190
413,13189
423,13188
436,13185
450,13182
466,13179
484,13174
501,13169
512,13165
518,13164
520,13163
523,13162
528,13160
537,13156
550,13149
565,13140
573,13135
575,13133
577,13131
583,13126
592,13116
600,13105
604,13096
606,13089
608,13083
608,13080
608,13079
608,13075
608,13068
608,13054
608,13033
608,13005
608,12971
608,12933
608,12891
608,12850
608,12812
608,12778
608,12750
608,12729
608,12715
608,12708
608,12704
" style="stroke:#ffffff;stroke-width:7;
stroke-linejoin:bevel; stroke-linecap:butt;
"/>
<!-- Line -->
<!--  spline  -->
<polyline points="306,12822
307,12822
315,12821
331,12820
354,12819
376,12818
392,12817
400,12816
401,12816
402,12816
405,12815
413,12814
423,12813
436,12811
450,12808
466,12805
484,12800
501,12795
512,12791
517,12789
520,12788
522,12787
527,12785
536,12781
549,12774
564,12765
572,12761
575,12759
577,12757
582,12752
592,12742
600,12731
604,12722
607,12715
608,12709
608,12706
608,12705
608,12704
605,12698
600,12686
595,12675
592,12669
592,12668
592,12667
589,12665
583,12659
576,12653
565,12645
549,12636
536,12629
527,12625
522,12623
520,12622
517,12621
512,12619
501,12615
484,12610
466,12605
454,12602
448,12601
445,12600
442,12599
435,12598
421,12596
401,12593
379,12591
361,12589
345,12588
331,12587
319,12587
311,12587
307,12587
306,12587
305,12587
297,12588
281,12589
258,12590
235,12591
219,12592
211,12593
210,12593
209,12593
206,12594
198,12595
188,12596
175,12599
161,12601
145,12605
127,12610
110,12615
99,12619
94,12621
91,12622
89,12623
84,12625
75,12629
62,12636
47,12645
39,12649
36,12651
34,12653
28,12658
19,12668
11,12679
7,12688
5,12695
4,12701
4,12704
4,12705
4,12706
7,12712
12,12724
16,12735
19,12741
19,12742
19,12743
22,12745
28,12751
35,12757
46,12765
62,12774
75,12781
84,12785
89,12787
91,12788
94,12789
99,12791
110,12795
127,12800
145,12805
157,12808
163,12809
166,12810
169,12810
176,12811
190,12813
210,12816
232,12818
251,12820
267,12821
281,12821
293,12822
301,12822
305,12822
306,12822
" style="stroke:#026c9b;stroke-width:0;
stroke-linejoin:bevel; stroke-linecap:butt;
fill:#026c9b;
"/>
<!-- Line -->
<!--  spline  -->
<polyline points="306,12822
307,12822
315,12821
331,12820
354,12819
376,12818
392,12817
400,12816
401,12816
402,12816
405,12815
413,12814
423,12813
436,12811
450,12808
466,12805
484,12800
501,12795
512,12791
517,12789
520,12788
522,12787
527,12785
536,12781
549,12774
564,12765
572,12761
575,12759
577,12757
582,12752
592,12742
600,12731
604,12722
607,12715
608,12709
608,12706
608,12705
608,12704
605,12698
600,12686
595,12675
592,12669
592,12668
592,12667
589,12665
583,12659
576,12653
565,12645
549,12636
536,12629
527,12625
522,12623
520,12622
517,12621
512,12619
501,12615
484,12610
466,12605
454,12602
448,12601
445,12600
442,12599
435,12598
421,12596
401,12593
379,12591
361,12589
345,12588
331,12587
319,12587
311,12587
307,12587
306,12587
305,12587
297,12588
281,12589
258,12590
235,12591
219,12592
211,12593
210,12593
209,12593
206,12594
198,12595
188,12596
175,12599
161,12601
145,12605
127,12610
110,12615
99,12619
94,12621
91,12622
89,12623
84,12625
75,12629
62,12636
47,12645
39,12649
36,12651
34,12653
28,12658
19,12668
11,12679
7,12688
5,12695
4,12701
4,12704
4,12705
4,12706
7,12712
12,12724
16,12735
19,12741
19,12742
19,12743
22,12745
28,12751
35,12757
46,12765
62,12774
75,12781
84,12785
89,12787
91,12788
94,12789
99,12791
110,12795
127,12800
145,12805
157,12808
163,12809
166,12810
169,12810
176,12811
190,12813
210,12816
232,12818
251,12820
267,12821
281,12821
293,12822
301,12822
305,12822
306,12822
" style="stroke:#ffffff;stroke-width:7;
stroke-linejoin:bevel; stroke-linecap:butt;
"/>
<!-- Line -->
<!--  polyline  -->
<polyline points="235,12635
358,12623
335,12662
303,12656
118,12726
84,12717
266,12648
235,12635
" style="stroke:#ffffff;stroke-width:0;
stroke-linejoin:miter; stroke-linecap:butt;
fill:#ffffff;
"/>
<!-- Line -->
<!--  polyline  -->
<polyline points="378,12679
502,12667
478,12706
446,12700
261,12770
228,12761
409,12692
378,12679
" style="stroke:#ffffff;stroke-width:0;
stroke-linejoin:miter; stroke-linecap:butt;
fill:#ffffff;
"/>
<!-- Line -->
<!--  polyline  -->
<polyline points="181,13154
181,13074
133,13112
181,13154
" style="stroke:#ffffff;stroke-width:0;
stroke-linejoin:miter; stroke-linecap:butt;
fill:#ffffff;
"/>
<!-- Line -->
<!--  polyline  -->
<polyline points="413,12846
413,12926
462,12887
413,12846
" style="stroke:#ffffff;stroke-width:0;
stroke-linejoin:miter; stroke-linecap:butt;
fill:#ffffff;
"/>
<!-- Line -->
<!--  polyline  -->
<polyline points="181,12929
181,12849
133,12887
181,12929
" style="stroke:#ffffff;stroke-width:0;
stroke-linejoin:miter; stroke-linecap:butt;
fill:#ffffff;
"/>
<!-- Line -->
<!--  polyline  -->
<polyline points="444,13113
362,13113
249,12886
164,12886
" style="stroke:#ffffff;stroke-width:30;
stroke-linejoin:miter; stroke-linecap:butt;
"/>
<!-- Line -->
<!--  polyline  -->
<polyline points="164,13112
244,13112
355,12887
442,12887
" style="stroke:#ffffff;stroke-width:30;
stroke-linejoin:miter; stroke-linecap:butt;
"/>
<!-- Line -->
<!--  polyline  -->
<polyline points="413,13072
413,13152
462,13113
413,13072
" style="stroke:#ffffff;stroke-width:0;
stroke-linejoin:miter; stroke-linecap:butt;
fill:#ffffff;
"/>
</g>
</svg>
