<?xml version="1.0" standalone="no"?>
<!DOCTYPE svg PUBLIC "-//W3C//DTD SVG 1.1//EN"
"http://www.w3.org/Graphics/SVG/1.1/DTD/svg11.dtd">
<!-- Creator: fig2dev Version 3.2 Patchlevel 5c -->
<!-- CreationDate: Fri Sep 14 10:46:41 2012 -->
<!-- Magnification: 1.000 -->
<svg xmlns="http://www.w3.org/2000/svg" width="0.7in" height="1.0in" viewBox="-8 12042 831 1163">
<g style="stroke-width:.025in; fill:none">
<!-- Line -->
<!--  spline  -->
<polyline points="793,12465
793,12464
795,12459
796,12451
798,12446
798,12445
797,12442
795,12439
792,12434
788,12429
783,12425
781,12423
779,12423
777,12421
771,12418
765,12415
763,12414
762,12414
759,12413
755,12411
751,12410
749,12409
748,12409
" style="stroke:#02709f;stroke-width:0;
stroke-linejoin:bevel; stroke-linecap:butt;
fill:#02709f;
"/>
<!-- Line -->
<!--  spline  -->
<polyline points="793,12465
793,12464
795,12459
796,12451
798,12446
798,12445
797,12442
795,12439
792,12434
788,12429
783,12425
781,12423
779,12423
777,12421
771,12418
765,12415
763,12414
762,12414
759,12413
755,12411
751,12410
749,12409
748,12409
" style="stroke:#ffffff;stroke-width:7;
stroke-linejoin:bevel; stroke-linecap:butt;
"/>
<!-- Line -->
<!--  polyline  -->
<polyline points="749,12137
713,12167
433,12167
469,12137
749,12137
" style="stroke:#02709f;stroke-width:0;
stroke-linejoin:miter; stroke-linecap:butt;
fill:#02709f;
"/>
<!-- Line -->
<!--  polyline  -->
<polyline points="749,12137
713,12167
433,12167
469,12137
749,12137
" style="stroke:#ffffff;stroke-width:7;
stroke-linejoin:miter; stroke-linecap:butt;
"/>
<!-- Line -->
<!--  polyline  -->
<polyline points="713,12391
713,12168
430,12168
430,12391
713,12391
" style="stroke:#02709f;stroke-width:0;
stroke-linejoin:miter; stroke-linecap:butt;
fill:#02709f;
"/>
<!-- Line -->
<!--  polyline  -->
<polyline points="713,12391
713,12168
430,12168
430,12391
713,12391
" style="stroke:#ffffff;stroke-width:7;
stroke-linejoin:miter; stroke-linecap:butt;
"/>
<!-- Line -->
<!--  polyline  -->
<polyline points="749,12365
749,12138
711,12168
711,12395
749,12365
" style="stroke:#02709f;stroke-width:0;
stroke-linejoin:miter; stroke-linecap:butt;
fill:#02709f;
"/>
<!-- Line -->
<!--  polyline  -->
<polyline points="749,12365
749,12138
711,12168
711,12395
749,12365
" style="stroke:#ffffff;stroke-width:7;
stroke-linejoin:miter; stroke-linecap:butt;
"/>
<!-- Line -->
<!--  spline  -->
<polyline points="335,12115
335,12116
335,12119
335,12125
335,12128
335,12129
335,12131
334,12134
333,12138
333,12143
333,12148
333,12150
332,12151
332,12153
333,12158
334,12163
334,12165
335,12166
335,12168
338,12174
342,12181
345,12186
348,12191
350,12193
350,12194
350,12195
351,12196
351,12197
351,12198
350,12199
350,12200
349,12202
348,12204
347,12205
346,12207
345,12208
345,12209
344,12209
344,12210
343,12211
342,12212
341,12214
340,12214
340,12215
339,12216
339,12218
338,12219
338,12220
338,12221
337,12222
337,12224
337,12225
336,12226
336,12227
336,12228
336,12230
336,12231
336,12233
336,12235
337,12236
338,12237
338,12238
337,12238
336,12238
336,12239
335,12239
335,12240
335,12241
334,12242
334,12243
334,12244
333,12244
333,12245
333,12246
333,12247
333,12248
333,12249
333,12251
332,12254
332,12256
332,12257
332,12258
332,12260
332,12262
332,12264
332,12265
332,12266
332,12267
332,12268
332,12269
331,12270
330,12271
329,12271
329,12272
328,12272
326,12273
322,12274
320,12275
319,12275
317,12276
314,12276
311,12277
308,12278
307,12278
306,12278
303,12279
301,12280
300,12280
299,12280
298,12280
296,12281
294,12282
292,12283
291,12284
290,12285
288,12287
286,12288
284,12290
283,12291
282,12292
280,12294
278,12296
276,12298
275,12299
275,12300
275,12301
273,12303
272,12306
271,12307
270,12308
269,12311
268,12314
266,12317
266,12319
265,12320
264,12320
263,12320
262,12320
261,12320
260,12320
259,12320
258,12320
257,12320
256,12320
255,12320
254,12319
251,12315
245,12309
242,12305
241,12304
239,12301
236,12297
232,12292
226,12285
221,12279
218,12276
217,12275
215,12272
209,12266
203,12260
201,12258
200,12257
197,12255
191,12250
184,12246
180,12243
176,12241
173,12240
173,12239
172,12234
170,12227
169,12222
169,12221
169,12218
170,12214
170,12209
172,12203
174,12197
175,12195
175,12194
176,12192
179,12186
182,12180
183,12178
184,12177
185,12175
188,12169
192,12163
194,12158
196,12155
198,12152
199,12151
202,12147
206,12141
209,12137
210,12136
212,12134
215,12131
219,12127
225,12122
231,12118
233,12116
234,12116
237,12114
243,12111
249,12108
252,12107
253,12107
255,12106
262,12104
269,12102
275,12101
280,12100
282,12100
283,12100
" style="stroke:#02709f;stroke-width:0;
stroke-linejoin:bevel; stroke-linecap:butt;
fill:#02709f;
"/>
<!-- Line -->
<!--  spline  -->
<polyline points="335,12115
335,12116
335,12119
335,12125
335,12128
335,12129
335,12131
334,12134
333,12138
333,12143
333,12148
333,12150
332,12151
332,12153
333,12158
334,12163
334,12165
335,12166
335,12168
338,12174
342,12181
345,12186
348,12191
350,12193
350,12194
350,12195
351,12196
351,12197
351,12198
350,12199
350,12200
349,12202
348,12204
347,12205
346,12207
345,12208
345,12209
344,12209
344,12210
343,12211
342,12212
341,12214
340,12214
340,12215
339,12216
339,12218
338,12219
338,12220
338,12221
337,12222
337,12224
337,12225
336,12226
336,12227
336,12228
336,12230
336,12231
336,12233
336,12235
337,12236
338,12237
338,12238
337,12238
336,12238
336,12239
335,12239
335,12240
335,12241
334,12242
334,12243
334,12244
333,12244
333,12245
333,12246
333,12247
333,12248
333,12249
333,12251
332,12254
332,12256
332,12257
332,12258
332,12260
332,12262
332,12264
332,12265
332,12266
332,12267
332,12268
332,12269
331,12270
330,12271
329,12271
329,12272
328,12272
326,12273
322,12274
320,12275
319,12275
317,12276
314,12276
311,12277
308,12278
307,12278
306,12278
303,12279
301,12280
300,12280
299,12280
298,12280
296,12281
294,12282
292,12283
291,12284
290,12285
288,12287
286,12288
284,12290
283,12291
282,12292
280,12294
278,12296
276,12298
275,12299
275,12300
275,12301
273,12303
272,12306
271,12307
270,12308
269,12311
268,12314
266,12317
266,12319
265,12320
264,12320
263,12320
262,12320
261,12320
260,12320
259,12320
258,12320
257,12320
256,12320
255,12320
254,12319
251,12315
245,12309
242,12305
241,12304
239,12301
236,12297
232,12292
226,12285
221,12279
218,12276
217,12275
215,12272
209,12266
203,12260
201,12258
200,12257
197,12255
191,12250
184,12246
180,12243
176,12241
173,12240
173,12239
172,12234
170,12227
169,12222
169,12221
169,12218
170,12214
170,12209
172,12203
174,12197
175,12195
175,12194
176,12192
179,12186
182,12180
183,12178
184,12177
185,12175
188,12169
192,12163
194,12158
196,12155
198,12152
199,12151
202,12147
206,12141
209,12137
210,12136
212,12134
215,12131
219,12127
225,12122
231,12118
233,12116
234,12116
237,12114
243,12111
249,12108
252,12107
253,12107
255,12106
262,12104
269,12102
275,12101
280,12100
282,12100
283,12100
" style="stroke:#ffffff;stroke-width:7;
stroke-linejoin:bevel; stroke-linecap:butt;
"/>
<!-- Line -->
<!--  spline  -->
<polyline points="166,12238
167,12238
168,12239
169,12239
170,12239
171,12239
173,12239
175,12239
176,12239
176,12238
178,12238
180,12238
180,12237
181,12237
183,12237
185,12237
186,12237
187,12238
188,12238
190,12239
193,12239
195,12240
196,12240
198,12241
201,12242
204,12242
207,12242
208,12242
209,12242
212,12242
214,12242
215,12242
216,12242
217,12242
219,12241
221,12240
223,12239
224,12239
225,12238
227,12236
228,12234
230,12232
231,12231
232,12230
233,12228
235,12226
236,12224
237,12222
238,12221
239,12218
240,12215
241,12214
242,12213
243,12210
245,12207
246,12205
247,12203
248,12202
248,12201
248,12200
249,12200
249,12199
249,12198
249,12197
250,12197
250,12196
251,12195
252,12194
253,12194
254,12193
255,12193
257,12193
261,12193
263,12193
264,12193
266,12193
268,12194
271,12194
274,12194
275,12194
276,12194
279,12194
281,12194
283,12194
284,12194
286,12193
288,12192
289,12191
290,12191
290,12190
290,12189
292,12187
293,12182
295,12180
295,12179
295,12177
295,12175
296,12171
296,12167
296,12163
296,12161
296,12160
296,12158
296,12154
297,12150
297,12148
297,12147
297,12146
299,12142
302,12138
304,12135
306,12133
308,12132
309,12132
311,12131
316,12129
318,12128
319,12128
321,12127
323,12126
327,12125
331,12123
335,12121
337,12120
339,12119
342,12117
345,12114
346,12113
347,12113
347,12112
349,12108
350,12104
350,12100
350,12097
350,12095
349,12094
341,12090
330,12085
322,12081
321,12080
320,12080
317,12078
310,12075
302,12071
291,12067
281,12063
276,12062
275,12062
270,12060
260,12058
250,12056
245,12055
244,12055
239,12054
229,12054
218,12054
209,12055
203,12056
199,12057
198,12057
195,12059
192,12060
189,12062
188,12063
186,12064
184,12066
181,12068
178,12070
177,12072
176,12073
173,12076
170,12079
169,12080
169,12081
168,12082
165,12085
162,12088
160,12090
158,12092
157,12093
157,12094
156,12094
156,12095
155,12096
155,12097
154,12098
153,12099
153,12100
152,12101
152,12102
151,12102
151,12103
151,12104
151,12105
150,12106
150,12107
150,12108
150,12113
149,12121
149,12126
149,12127
149,12130
149,12134
148,12139
148,12146
148,12152
148,12155
148,12158
148,12164
148,12170
148,12173
148,12174
148,12177
149,12183
150,12190
151,12195
151,12199
152,12202
153,12204
153,12207
154,12209
154,12210
155,12212
155,12214
156,12217
157,12220
157,12221
158,12221
158,12222
159,12225
160,12227
160,12228
160,12229
161,12230
162,12232
163,12234
164,12236
165,12237
166,12238
" style="stroke:#02709f;stroke-width:0;
stroke-linejoin:bevel; stroke-linecap:butt;
fill:#02709f;
"/>
<!-- Line -->
<!--  spline  -->
<polyline points="166,12238
167,12238
168,12239
169,12239
170,12239
171,12239
173,12239
175,12239
176,12239
176,12238
178,12238
180,12238
180,12237
181,12237
183,12237
185,12237
186,12237
187,12238
188,12238
190,12239
193,12239
195,12240
196,12240
198,12241
201,12242
204,12242
207,12242
208,12242
209,12242
212,12242
214,12242
215,12242
216,12242
217,12242
219,12241
221,12240
223,12239
224,12239
225,12238
227,12236
228,12234
230,12232
231,12231
232,12230
233,12228
235,12226
236,12224
237,12222
238,12221
239,12218
240,12215
241,12214
242,12213
243,12210
245,12207
246,12205
247,12203
248,12202
248,12201
248,12200
249,12200
249,12199
249,12198
249,12197
250,12197
250,12196
251,12195
252,12194
253,12194
254,12193
255,12193
257,12193
261,12193
263,12193
264,12193
266,12193
268,12194
271,12194
274,12194
275,12194
276,12194
279,12194
281,12194
283,12194
284,12194
286,12193
288,12192
289,12191
290,12191
290,12190
290,12189
292,12187
293,12182
295,12180
295,12179
295,12177
295,12175
296,12171
296,12167
296,12163
296,12161
296,12160
296,12158
296,12154
297,12150
297,12148
297,12147
297,12146
299,12142
302,12138
304,12135
306,12133
308,12132
309,12132
311,12131
316,12129
318,12128
319,12128
321,12127
323,12126
327,12125
331,12123
335,12121
337,12120
339,12119
342,12117
345,12114
346,12113
347,12113
347,12112
349,12108
350,12104
350,12100
350,12097
350,12095
349,12094
341,12090
330,12085
322,12081
321,12080
320,12080
317,12078
310,12075
302,12071
291,12067
281,12063
276,12062
275,12062
270,12060
260,12058
250,12056
245,12055
244,12055
239,12054
229,12054
218,12054
209,12055
203,12056
199,12057
198,12057
195,12059
192,12060
189,12062
188,12063
186,12064
184,12066
181,12068
178,12070
177,12072
176,12073
173,12076
170,12079
169,12080
169,12081
168,12082
165,12085
162,12088
160,12090
158,12092
157,12093
157,12094
156,12094
156,12095
155,12096
155,12097
154,12098
153,12099
153,12100
152,12101
152,12102
151,12102
151,12103
151,12104
151,12105
150,12106
150,12107
150,12108
150,12113
149,12121
149,12126
149,12127
149,12130
149,12134
148,12139
148,12146
148,12152
148,12155
148,12158
148,12164
148,12170
148,12173
148,12174
148,12177
149,12183
150,12190
151,12195
151,12199
152,12202
153,12204
153,12207
154,12209
154,12210
155,12212
155,12214
156,12217
157,12220
157,12221
158,12221
158,12222
159,12225
160,12227
160,12228
160,12229
161,12230
162,12232
163,12234
164,12236
165,12237
166,12238
" style="stroke:#ffffff;stroke-width:7;
stroke-linejoin:bevel; stroke-linecap:butt;
"/>
<!-- Line -->
<!--  spline  -->
<polyline points="426,12835
426,12836
426,12839
426,12843
426,12846
426,12847
426,12849
426,12851
426,12855
426,12859
426,12863
426,12865
426,12867
426,12871
426,12875
426,12877
426,12879
426,12883
426,12887
426,12891
426,12893
426,12895
424,12897
422,12901
420,12903
419,12905
418,12907
417,12909
416,12913
415,12916
415,12918
414,12920
414,12923
414,12927
414,12928
414,12929
414,12930
414,12934
414,12938
414,12941
414,12943
414,12945
415,12945
418,12947
422,12948
425,12950
426,12950
428,12950
431,12951
434,12951
439,12952
443,12952
445,12953
446,12953
448,12953
452,12953
457,12953
459,12953
459,12952
461,12952
466,12952
471,12952
474,12952
477,12952
479,12952
479,12951
479,12950
479,12949
479,12948
479,12947
479,12946
479,12945
479,12944
480,12944
481,12944
484,12943
488,12943
491,12942
492,12942
494,12942
496,12942
500,12941
504,12941
508,12941
509,12941
510,12940
511,12940
515,12940
519,12940
521,12940
521,12939
523,12939
527,12939
531,12939
535,12938
537,12938
539,12938
540,12935
540,12932
541,12929
542,12928
542,12926
543,12923
544,12920
545,12917
545,12916
545,12915
545,12914
545,12911
545,12908
546,12907
546,12906
546,12905
546,12902
546,12899
546,12896
546,12894
546,12893
545,12893
543,12891
538,12890
536,12888
535,12888
533,12888
531,12887
527,12886
523,12885
519,12884
517,12883
516,12883
515,12883
511,12881
507,12879
506,12879
505,12878
504,12878
501,12875
498,12872
496,12869
495,12867
494,12865
494,12864
493,12861
491,12857
490,12854
490,12853
490,12851
489,12849
489,12845
488,12841
488,12837
487,12835
487,12834
487,12832
487,12828
487,12824
487,12822
487,12820
487,12816
487,12812
487,12808
487,12806
487,12804
" style="stroke:#02709f;stroke-width:0;
stroke-linejoin:bevel; stroke-linecap:butt;
fill:#02709f;
"/>
<!-- Line -->
<!--  spline  -->
<polyline points="426,12835
426,12836
426,12839
426,12843
426,12846
426,12847
426,12849
426,12851
426,12855
426,12859
426,12863
426,12865
426,12867
426,12871
426,12875
426,12877
426,12879
426,12883
426,12887
426,12891
426,12893
426,12895
424,12897
422,12901
420,12903
419,12905
418,12907
417,12909
416,12913
415,12916
415,12918
414,12920
414,12923
414,12927
414,12928
414,12929
414,12930
414,12934
414,12938
414,12941
414,12943
414,12945
415,12945
418,12947
422,12948
425,12950
426,12950
428,12950
431,12951
434,12951
439,12952
443,12952
445,12953
446,12953
448,12953
452,12953
457,12953
459,12953
459,12952
461,12952
466,12952
471,12952
474,12952
477,12952
479,12952
479,12951
479,12950
479,12949
479,12948
479,12947
479,12946
479,12945
479,12944
480,12944
481,12944
484,12943
488,12943
491,12942
492,12942
494,12942
496,12942
500,12941
504,12941
508,12941
509,12941
510,12940
511,12940
515,12940
519,12940
521,12940
521,12939
523,12939
527,12939
531,12939
535,12938
537,12938
539,12938
540,12935
540,12932
541,12929
542,12928
542,12926
543,12923
544,12920
545,12917
545,12916
545,12915
545,12914
545,12911
545,12908
546,12907
546,12906
546,12905
546,12902
546,12899
546,12896
546,12894
546,12893
545,12893
543,12891
538,12890
536,12888
535,12888
533,12888
531,12887
527,12886
523,12885
519,12884
517,12883
516,12883
515,12883
511,12881
507,12879
506,12879
505,12878
504,12878
501,12875
498,12872
496,12869
495,12867
494,12865
494,12864
493,12861
491,12857
490,12854
490,12853
490,12851
489,12849
489,12845
488,12841
488,12837
487,12835
487,12834
487,12832
487,12828
487,12824
487,12822
487,12820
487,12816
487,12812
487,12808
487,12806
487,12804
" style="stroke:#ffffff;stroke-width:7;
stroke-linejoin:bevel; stroke-linecap:butt;
"/>
<!-- Line -->
<!--  spline  -->
<polyline points="356,12809
357,12809
364,12809
375,12808
382,12808
383,12808
384,12808
387,12808
392,12807
400,12805
409,12803
418,12800
421,12799
423,12798
426,12797
435,12793
443,12789
447,12788
448,12787
452,12786
460,12782
469,12778
476,12775
481,12773
484,12771
485,12771
487,12770
490,12770
492,12769
493,12769
495,12769
497,12769
500,12769
503,12769
504,12769
505,12769
506,12769
509,12769
512,12769
513,12769
514,12770
515,12770
518,12770
521,12770
523,12770
525,12770
526,12770
526,12771
526,12779
527,12789
527,12797
527,12798
527,12799
527,12802
527,12809
527,12817
527,12827
527,12836
526,12840
526,12842
525,12846
525,12855
525,12865
525,12869
525,12870
525,12874
525,12884
525,12895
525,12902
525,12909
525,12912
525,12913
526,12913
529,12913
535,12913
538,12913
539,12913
541,12913
544,12913
548,12913
553,12913
558,12913
560,12913
562,12913
567,12913
572,12913
574,12913
576,12913
581,12913
586,12913
590,12912
593,12911
595,12911
597,12911
601,12910
603,12910
604,12910
606,12909
607,12909
610,12908
612,12907
613,12907
614,12907
615,12906
617,12905
619,12904
620,12903
621,12903
622,12902
624,12901
627,12900
628,12899
630,12898
631,12898
631,12897
631,12890
632,12878
632,12866
632,12859
632,12858
632,12857
632,12854
632,12848
632,12840
632,12830
632,12818
632,12806
632,12800
632,12798
632,12796
632,12790
632,12778
632,12766
632,12760
632,12758
632,12756
632,12750
631,12738
630,12726
630,12716
629,12708
628,12702
628,12699
628,12698
627,12696
627,12695
626,12693
626,12692
625,12691
625,12690
624,12688
623,12687
623,12686
623,12685
622,12684
621,12682
620,12681
619,12679
618,12677
617,12676
616,12676
616,12675
616,12674
615,12674
615,12673
614,12673
614,12672
613,12672
612,12671
611,12670
610,12669
609,12668
608,12668
607,12667
606,12667
605,12666
604,12666
603,12666
595,12664
584,12663
576,12661
575,12661
574,12661
571,12660
567,12660
561,12659
553,12658
546,12657
544,12657
543,12657
541,12657
534,12657
527,12657
524,12657
523,12657
520,12657
512,12656
503,12655
495,12654
489,12653
485,12652
484,12652
484,12651
483,12651
483,12650
483,12649
484,12647
485,12645
486,12642
487,12639
488,12638
489,12637
490,12634
491,12631
492,12630
492,12629
492,12628
493,12625
493,12623
493,12621
493,12620
492,12620
487,12618
480,12616
475,12614
474,12614
473,12614
471,12614
466,12613
459,12613
450,12612
438,12612
426,12612
419,12612
417,12612
414,12612
407,12612
395,12612
383,12612
377,12613
375,12613
372,12613
367,12614
358,12614
348,12614
342,12615
338,12615
336,12615
" style="stroke:#02709f;stroke-width:0;
stroke-linejoin:bevel; stroke-linecap:butt;
fill:#02709f;
"/>
<!-- Line -->
<!--  spline  -->
<polyline points="356,12809
357,12809
364,12809
375,12808
382,12808
383,12808
384,12808
387,12808
392,12807
400,12805
409,12803
418,12800
421,12799
423,12798
426,12797
435,12793
443,12789
447,12788
448,12787
452,12786
460,12782
469,12778
476,12775
481,12773
484,12771
485,12771
487,12770
490,12770
492,12769
493,12769
495,12769
497,12769
500,12769
503,12769
504,12769
505,12769
506,12769
509,12769
512,12769
513,12769
514,12770
515,12770
518,12770
521,12770
523,12770
525,12770
526,12770
526,12771
526,12779
527,12789
527,12797
527,12798
527,12799
527,12802
527,12809
527,12817
527,12827
527,12836
526,12840
526,12842
525,12846
525,12855
525,12865
525,12869
525,12870
525,12874
525,12884
525,12895
525,12902
525,12909
525,12912
525,12913
526,12913
529,12913
535,12913
538,12913
539,12913
541,12913
544,12913
548,12913
553,12913
558,12913
560,12913
562,12913
567,12913
572,12913
574,12913
576,12913
581,12913
586,12913
590,12912
593,12911
595,12911
597,12911
601,12910
603,12910
604,12910
606,12909
607,12909
610,12908
612,12907
613,12907
614,12907
615,12906
617,12905
619,12904
620,12903
621,12903
622,12902
624,12901
627,12900
628,12899
630,12898
631,12898
631,12897
631,12890
632,12878
632,12866
632,12859
632,12858
632,12857
632,12854
632,12848
632,12840
632,12830
632,12818
632,12806
632,12800
632,12798
632,12796
632,12790
632,12778
632,12766
632,12760
632,12758
632,12756
632,12750
631,12738
630,12726
630,12716
629,12708
628,12702
628,12699
628,12698
627,12696
627,12695
626,12693
626,12692
625,12691
625,12690
624,12688
623,12687
623,12686
623,12685
622,12684
621,12682
620,12681
619,12679
618,12677
617,12676
616,12676
616,12675
616,12674
615,12674
615,12673
614,12673
614,12672
613,12672
612,12671
611,12670
610,12669
609,12668
608,12668
607,12667
606,12667
605,12666
604,12666
603,12666
595,12664
584,12663
576,12661
575,12661
574,12661
571,12660
567,12660
561,12659
553,12658
546,12657
544,12657
543,12657
541,12657
534,12657
527,12657
524,12657
523,12657
520,12657
512,12656
503,12655
495,12654
489,12653
485,12652
484,12652
484,12651
483,12651
483,12650
483,12649
484,12647
485,12645
486,12642
487,12639
488,12638
489,12637
490,12634
491,12631
492,12630
492,12629
492,12628
493,12625
493,12623
493,12621
493,12620
492,12620
487,12618
480,12616
475,12614
474,12614
473,12614
471,12614
466,12613
459,12613
450,12612
438,12612
426,12612
419,12612
417,12612
414,12612
407,12612
395,12612
383,12612
377,12613
375,12613
372,12613
367,12614
358,12614
348,12614
342,12615
338,12615
336,12615
" style="stroke:#ffffff;stroke-width:7;
stroke-linejoin:bevel; stroke-linecap:butt;
"/>
<!-- Line -->
<!--  spline  -->
<polyline points="589,12910
589,12912
589,12913
589,12915
589,12916
589,12917
588,12918
588,12920
588,12922
588,12923
588,12925
588,12927
588,12928
588,12930
588,12932
589,12933
590,12934
590,12935
590,12936
591,12936
591,12937
592,12937
593,12938
594,12938
595,12938
596,12939
597,12939
598,12940
599,12940
600,12940
601,12941
602,12942
603,12942
604,12943
605,12944
606,12945
607,12946
608,12947
609,12948
610,12949
611,12950
612,12951
613,12952
614,12953
615,12953
615,12954
616,12954
618,12955
619,12955
621,12956
622,12956
623,12956
624,12957
626,12957
628,12957
629,12958
631,12958
633,12958
634,12959
636,12959
638,12959
639,12960
640,12960
641,12960
643,12960
647,12960
649,12960
650,12960
651,12960
653,12960
656,12960
659,12960
660,12960
661,12960
664,12960
666,12960
667,12960
668,12960
669,12960
671,12960
674,12961
675,12962
677,12962
678,12963
679,12963
679,12964
680,12964
681,12964
682,12964
683,12964
682,12964
682,12965
683,12965
684,12965
684,12966
685,12966
686,12968
688,12970
689,12972
689,12973
690,12974
690,12976
691,12978
692,12980
692,12981
693,12981
693,12983
693,12985
693,12986
692,12987
692,12989
691,12991
691,12992
690,12993
690,12994
688,12996
686,13000
684,13002
683,13003
681,13005
679,13007
676,13010
673,13012
672,13013
671,13014
668,13016
665,13018
664,13019
663,13019
662,13020
659,13021
655,13022
653,13023
651,13024
649,13024
648,13024
645,13024
639,13025
636,13025
635,13025
633,13025
629,13025
625,13026
620,13026
615,13026
613,13026
611,13026
606,13026
601,13026
599,13026
597,13027
592,13027
587,13028
583,13028
580,13029
578,13029
577,13029
576,13029
575,13030
575,13031
575,13032
575,13033
575,13034
575,13035
575,13036
575,13037
575,13038
575,13039
575,13040
575,13041
575,13042
575,13043
575,13044
574,13044
570,13044
565,13045
561,13045
560,13045
558,13045
555,13045
551,13045
546,13045
541,13045
539,13044
538,13044
536,13044
531,13043
527,13042
525,13041
524,13041
523,13040
519,13038
515,13035
512,13032
510,13029
508,13027
507,13026
506,13024
505,13023
505,13022
504,13021
503,13019
503,13017
503,13015
503,13014
503,13013
503,13011
503,13009
503,13008
503,13007
503,13005
503,13003
504,13001
505,13000
505,12999
506,12997
507,12995
508,12993
508,12992
509,12991
509,12989
510,12987
511,12985
511,12984
511,12983
511,12982
512,12980
513,12978
513,12977
513,12976
514,12974
514,12972
515,12970
515,12969
515,12968
516,12966
516,12965
517,12963
517,12962
518,12961
518,12960
518,12959
519,12958
519,12957
519,12956
520,12956
520,12955
520,12954
520,12953
521,12952
521,12951
521,12950
522,12948
522,12944
523,12942
523,12941
523,12939
524,12937
524,12934
524,12931
524,12930
524,12929
524,12926
524,12923
524,12922
524,12921
524,12918
524,12915
524,12913
524,12911
524,12910
" style="stroke:#02709f;stroke-width:0;
stroke-linejoin:bevel; stroke-linecap:butt;
fill:#02709f;
"/>
<!-- Line -->
<!--  spline  -->
<polyline points="589,12910
589,12912
589,12913
589,12915
589,12916
589,12917
588,12918
588,12920
588,12922
588,12923
588,12925
588,12927
588,12928
588,12930
588,12932
589,12933
590,12934
590,12935
590,12936
591,12936
591,12937
592,12937
593,12938
594,12938
595,12938
596,12939
597,12939
598,12940
599,12940
600,12940
601,12941
602,12942
603,12942
604,12943
605,12944
606,12945
607,12946
608,12947
609,12948
610,12949
611,12950
612,12951
613,12952
614,12953
615,12953
615,12954
616,12954
618,12955
619,12955
621,12956
622,12956
623,12956
624,12957
626,12957
628,12957
629,12958
631,12958
633,12958
634,12959
636,12959
638,12959
639,12960
640,12960
641,12960
643,12960
647,12960
649,12960
650,12960
651,12960
653,12960
656,12960
659,12960
660,12960
661,12960
664,12960
666,12960
667,12960
668,12960
669,12960
671,12960
674,12961
675,12962
677,12962
678,12963
679,12963
679,12964
680,12964
681,12964
682,12964
683,12964
682,12964
682,12965
683,12965
684,12965
684,12966
685,12966
686,12968
688,12970
689,12972
689,12973
690,12974
690,12976
691,12978
692,12980
692,12981
693,12981
693,12983
693,12985
693,12986
692,12987
692,12989
691,12991
691,12992
690,12993
690,12994
688,12996
686,13000
684,13002
683,13003
681,13005
679,13007
676,13010
673,13012
672,13013
671,13014
668,13016
665,13018
664,13019
663,13019
662,13020
659,13021
655,13022
653,13023
651,13024
649,13024
648,13024
645,13024
639,13025
636,13025
635,13025
633,13025
629,13025
625,13026
620,13026
615,13026
613,13026
611,13026
606,13026
601,13026
599,13026
597,13027
592,13027
587,13028
583,13028
580,13029
578,13029
577,13029
576,13029
575,13030
575,13031
575,13032
575,13033
575,13034
575,13035
575,13036
575,13037
575,13038
575,13039
575,13040
575,13041
575,13042
575,13043
575,13044
574,13044
570,13044
565,13045
561,13045
560,13045
558,13045
555,13045
551,13045
546,13045
541,13045
539,13044
538,13044
536,13044
531,13043
527,13042
525,13041
524,13041
523,13040
519,13038
515,13035
512,13032
510,13029
508,13027
507,13026
506,13024
505,13023
505,13022
504,13021
503,13019
503,13017
503,13015
503,13014
503,13013
503,13011
503,13009
503,13008
503,13007
503,13005
503,13003
504,13001
505,13000
505,12999
506,12997
507,12995
508,12993
508,12992
509,12991
509,12989
510,12987
511,12985
511,12984
511,12983
511,12982
512,12980
513,12978
513,12977
513,12976
514,12974
514,12972
515,12970
515,12969
515,12968
516,12966
516,12965
517,12963
517,12962
518,12961
518,12960
518,12959
519,12958
519,12957
519,12956
520,12956
520,12955
520,12954
520,12953
521,12952
521,12951
521,12950
522,12948
522,12944
523,12942
523,12941
523,12939
524,12937
524,12934
524,12931
524,12930
524,12929
524,12926
524,12923
524,12922
524,12921
524,12918
524,12915
524,12913
524,12911
524,12910
" style="stroke:#ffffff;stroke-width:7;
stroke-linejoin:bevel; stroke-linecap:butt;
"/>
<!-- Line -->
<!--  spline  -->
<polyline points="294,12924
294,12926
294,12936
294,12955
294,12974
294,12984
294,12986
295,12986
300,12983
312,12979
331,12971
355,12961
378,12951
397,12943
409,12939
414,12936
415,12936
416,12936
418,12936
422,12937
424,12937
425,12937
426,12938
428,12939
430,12940
432,12942
434,12944
435,12945
435,12946
436,12947
437,12949
438,12951
438,12952
438,12953
439,12955
439,12956
440,12956
440,12957
440,12958
440,12963
440,12969
440,12974
440,12975
439,12975
437,12975
433,12975
431,12975
430,12975
430,12976
430,12980
430,12986
430,12990
430,12991
428,12993
425,12996
423,12998
422,12998
420,12999
418,12999
416,12999
414,12998
413,12998
412,12997
410,12996
408,12995
408,12994
407,12994
406,12993
405,12993
405,12992
404,12992
404,12991
404,12990
404,12985
404,12977
404,12972
404,12971
403,12971
399,12973
390,12978
375,12984
356,12993
337,13002
322,13008
313,13013
309,13015
308,13015
311,13018
318,13024
330,13033
346,13046
365,13061
383,13076
399,13089
411,13098
418,13104
421,13107
421,13108
423,13112
425,13119
427,13123
427,13124
427,13126
428,13129
428,13133
428,13138
428,13142
427,13144
427,13146
426,13149
425,13152
425,13153
425,13154
425,13155
424,13157
424,13158
424,13159
423,13159
423,13160
423,13161
424,13164
425,13169
426,13172
426,13173
426,13175
426,13177
425,13180
424,13184
423,13187
422,13189
421,13190
420,13193
418,13195
418,13196
417,13196
416,13197
415,13198
414,13199
413,13200
412,13200
411,13200
408,13201
402,13203
399,13204
398,13204
396,13203
394,13203
392,13201
389,13199
387,13197
386,13196
386,13195
386,13194
385,13191
384,13188
384,13187
384,13186
384,13184
384,13182
384,13181
384,13180
384,13179
384,13178
384,13176
384,13171
384,13169
384,13168
384,13167
385,13165
386,13164
388,13162
390,13161
391,13160
392,13160
394,13159
396,13158
397,13158
398,13158
399,13158
400,13158
400,13157
401,13157
401,13156
403,13153
406,13149
408,13146
408,13145
407,13145
404,13141
396,13134
382,13121
363,13105
341,13085
320,13065
301,13049
287,13036
279,13029
276,13025
275,13025
272,13027
264,13031
252,13038
235,13048
213,13061
188,13075
164,13088
142,13101
125,13111
113,13118
105,13122
102,13124
102,13125
100,13129
98,13134
96,13138
96,13139
96,13140
97,13144
99,13149
100,13153
100,13154
100,13156
100,13159
99,13162
98,13166
97,13169
96,13170
95,13171
93,13173
91,13175
90,13175
89,13176
88,13177
87,13178
86,13179
85,13179
84,13179
80,13179
74,13179
70,13179
69,13179
68,13178
66,13177
64,13176
62,13173
61,13170
61,13169
61,13168
61,13167
61,13164
61,13161
62,13160
62,13159
63,13157
63,13156
63,13155
64,13155
64,13154
64,13151
65,13148
65,13145
65,13144
66,13143
67,13142
68,13140
69,13139
69,13138
70,13138
71,13137
72,13136
73,13136
74,13136
75,13136
76,13136
77,13135
79,13133
83,13128
85,13126
86,13125
87,13125
88,13125
88,13126
89,13126
90,13126
90,13125
89,13124
88,13123
87,13122
86,13121
85,13120
84,13118
82,13115
81,13113
81,13112
81,13110
80,13108
80,13105
80,13102
80,13101
80,13100
80,13099
80,13096
80,13094
81,13093
81,13092
82,13092
82,13090
82,13089
82,13088
83,13088
87,13086
97,13081
114,13072
137,13061
164,13047
190,13034
213,13023
230,13014
240,13009
244,13007
245,13007
244,13006
240,13002
231,12993
218,12981
205,12969
196,12960
192,12956
191,12955
190,12956
186,12958
179,12963
175,12965
174,12966
174,12967
173,12970
173,12975
172,12978
172,12979
171,12980
170,12982
169,12984
167,12986
165,12987
164,12987
163,12987
161,12987
159,12987
158,12987
157,12987
156,12987
155,12987
154,12987
154,12986
151,12985
148,12985
145,12984
144,12983
143,12982
142,12980
141,12978
141,12976
141,12975
141,12974
142,12972
143,12970
143,12969
143,12968
144,12966
144,12965
145,12965
145,12964
147,12963
148,12961
150,12960
151,12960
151,12959
153,12959
154,12958
155,12957
156,12957
156,12956
157,12956
158,12955
159,12954
160,12954
161,12954
162,12954
163,12954
164,12953
167,12945
171,12935
174,12927
175,12926
176,12927
183,12930
196,12937
208,12944
215,12947
216,12948
217,12949
225,12956
240,12968
255,12980
263,12987
264,12988
264,12986
264,12977
264,12960
264,12943
264,12934
264,12932
" style="stroke:#02709f;stroke-width:0;
stroke-linejoin:bevel; stroke-linecap:butt;
fill:#02709f;
"/>
<!-- Line -->
<!--  spline  -->
<polyline points="366,12860
367,12860
370,12858
379,12854
394,12847
414,12838
437,12828
460,12818
480,12809
495,12802
504,12798
507,12796
508,12796
509,12794
510,12790
511,12788
511,12787
511,12785
511,12783
510,12780
509,12777
508,12776
508,12775
507,12774
506,12772
505,12770
504,12769
504,12768
503,12767
503,12766
502,12766
502,12765
501,12765
500,12765
494,12768
481,12772
461,12780
435,12790
409,12800
389,12808
376,12812
370,12815
369,12815
" style="stroke:#02709f;stroke-width:0;
stroke-linejoin:bevel; stroke-linecap:butt;
fill:#02709f;
"/>
<!-- Line -->
<!--  spline  -->
<polyline points="366,12860
367,12860
370,12858
379,12854
394,12847
414,12838
437,12828
460,12818
480,12809
495,12802
504,12798
507,12796
508,12796
509,12794
510,12790
511,12788
511,12787
511,12785
511,12783
510,12780
509,12777
508,12776
508,12775
507,12774
506,12772
505,12770
504,12769
504,12768
503,12767
503,12766
502,12766
502,12765
501,12765
500,12765
494,12768
481,12772
461,12780
435,12790
409,12800
389,12808
376,12812
370,12815
369,12815
" style="stroke:#ffffff;stroke-width:7;
stroke-linejoin:bevel; stroke-linecap:butt;
"/>
<!-- Line -->
<!--  polyline  -->
<polyline points="689,12366
689,12197
454,12197
454,12366
689,12366
" style="stroke:#02709f;stroke-width:0;
stroke-linejoin:miter; stroke-linecap:butt;
fill:#02709f;
"/>
<!-- Line -->
<!--  polyline  -->
<polyline points="689,12366
689,12197
454,12197
454,12366
689,12366
" style="stroke:#ffffff;stroke-width:7;
stroke-linejoin:miter; stroke-linecap:butt;
"/>
<!-- Line -->
<!--  polyline  -->
<polyline points="716,12444
716,12403
432,12403
432,12444
716,12444
" style="stroke:#02709f;stroke-width:0;
stroke-linejoin:miter; stroke-linecap:butt;
fill:#02709f;
"/>
<!-- Line -->
<!--  polyline  -->
<polyline points="716,12444
716,12403
432,12403
432,12444
716,12444
" style="stroke:#ffffff;stroke-width:7;
stroke-linejoin:miter; stroke-linecap:butt;
"/>
<!-- Line -->
<!--  polyline  -->
<polyline points="683,12514
683,12500
368,12500
368,12514
683,12514
" style="stroke:#02709f;stroke-width:0;
stroke-linejoin:miter; stroke-linecap:butt;
fill:#02709f;
"/>
<!-- Line -->
<!--  polyline  -->
<polyline points="683,12514
683,12500
368,12500
368,12514
683,12514
" style="stroke:#ffffff;stroke-width:7;
stroke-linejoin:miter; stroke-linecap:butt;
"/>
<!-- Line -->
<!--  polyline  -->
<polyline points="790,12507
790,12498
744,12498
744,12507
790,12507
" style="stroke:#02709f;stroke-width:0;
stroke-linejoin:miter; stroke-linecap:butt;
fill:#02709f;
"/>
<!-- Line -->
<!--  polyline  -->
<polyline points="790,12507
790,12498
744,12498
744,12507
790,12507
" style="stroke:#ffffff;stroke-width:7;
stroke-linejoin:miter; stroke-linecap:butt;
"/>
<!-- Line -->
<!--  polyline  -->
<polyline points="790,12495
810,12463
764,12463
744,12495
790,12495
" style="stroke:#02709f;stroke-width:0;
stroke-linejoin:miter; stroke-linecap:butt;
fill:#02709f;
"/>
<!-- Line -->
<!--  polyline  -->
<polyline points="790,12495
810,12463
764,12463
744,12495
790,12495
" style="stroke:#ffffff;stroke-width:7;
stroke-linejoin:miter; stroke-linecap:butt;
"/>
<!-- Line -->
<!--  polyline  -->
<polyline points="811,12491
811,12463
789,12498
789,12507
811,12491
" style="stroke:#02709f;stroke-width:0;
stroke-linejoin:miter; stroke-linecap:butt;
fill:#02709f;
"/>
<!-- Line -->
<!--  polyline  -->
<polyline points="811,12491
811,12463
789,12498
789,12507
811,12491
" style="stroke:#ffffff;stroke-width:7;
stroke-linejoin:miter; stroke-linecap:butt;
"/>
<!-- Line -->
<!--  polyline  -->
<polyline points="728,12470
728,12446
681,12500
681,12514
728,12470
" style="stroke:#02709f;stroke-width:0;
stroke-linejoin:miter; stroke-linecap:butt;
fill:#02709f;
"/>
<!-- Line -->
<!--  polyline  -->
<polyline points="728,12470
728,12446
681,12500
681,12514
728,12470
" style="stroke:#ffffff;stroke-width:7;
stroke-linejoin:miter; stroke-linecap:butt;
"/>
<!-- Line -->
<!--  polyline  -->
<polyline points="754,12421
754,12369
716,12401
716,12456
754,12421
" style="stroke:#02709f;stroke-width:0;
stroke-linejoin:miter; stroke-linecap:butt;
fill:#02709f;
"/>
<!-- Line -->
<!--  polyline  -->
<polyline points="754,12421
754,12369
716,12401
716,12456
754,12421
" style="stroke:#ffffff;stroke-width:7;
stroke-linejoin:miter; stroke-linecap:butt;
"/>
<!-- Line -->
<!--  polyline  -->
<polyline points="714,12402
714,12393
439,12393
439,12402
714,12402
" style="stroke:#02709f;stroke-width:0;
stroke-linejoin:miter; stroke-linecap:butt;
fill:#02709f;
"/>
<!-- Line -->
<!--  polyline  -->
<polyline points="714,12402
714,12393
439,12393
439,12402
714,12402
" style="stroke:#ffffff;stroke-width:7;
stroke-linejoin:miter; stroke-linecap:butt;
"/>
<!-- Line -->
<!--  polyline  -->
<polyline points="750,12374
750,12367
711,12396
711,12402
750,12374
" style="stroke:#02709f;stroke-width:0;
stroke-linejoin:miter; stroke-linecap:butt;
fill:#02709f;
"/>
<!-- Line -->
<!--  polyline  -->
<polyline points="750,12374
750,12367
711,12396
711,12402
750,12374
" style="stroke:#ffffff;stroke-width:7;
stroke-linejoin:miter; stroke-linecap:butt;
"/>
<!-- Line -->
<!--  polyline  -->
<polyline points="725,12445
683,12501
369,12501
419,12445
725,12445
" style="stroke:#02709f;stroke-width:0;
stroke-linejoin:miter; stroke-linecap:butt;
fill:#02709f;
"/>
<!-- Line -->
<!--  polyline  -->
<polyline points="725,12445
683,12501
369,12501
419,12445
725,12445
" style="stroke:#ffffff;stroke-width:7;
stroke-linejoin:miter; stroke-linecap:butt;
"/>
<!-- Line -->
<!--  polyline  -->
<polyline points="615,12423
693,12423
" style="stroke:#02709f;stroke-width:0;
stroke-linejoin:miter; stroke-linecap:butt;
fill:#02709f;
"/>
<!-- Line -->
<!--  polyline  -->
<polyline points="615,12423
693,12423
" style="stroke:#ffffff;stroke-width:7;
stroke-linejoin:miter; stroke-linecap:butt;
"/>
<!-- Line -->
<!--  polyline  -->
<polyline points="328,12165
320,12180
333,12178
" style="stroke:#02709f;stroke-width:0;
stroke-linejoin:miter; stroke-linecap:butt;
fill:#02709f;
"/>
<!-- Line -->
<!--  polyline  -->
<polyline points="328,12165
320,12180
333,12178
" style="stroke:#ffffff;stroke-width:7;
stroke-linejoin:miter; stroke-linecap:butt;
"/>
<!-- Line -->
<!--  polyline  -->
<polyline points="476,12464
492,12464
" style="stroke:#02709f;stroke-width:0;
stroke-linejoin:miter; stroke-linecap:butt;
fill:#02709f;
"/>
<!-- Line -->
<!--  polyline  -->
<polyline points="476,12464
492,12464
" style="stroke:#ffffff;stroke-width:7;
stroke-linejoin:miter; stroke-linecap:butt;
"/>
<!-- Line -->
<!--  polyline  -->
<polyline points="499,12464
516,12464
" style="stroke:#02709f;stroke-width:0;
stroke-linejoin:miter; stroke-linecap:butt;
fill:#02709f;
"/>
<!-- Line -->
<!--  polyline  -->
<polyline points="499,12464
516,12464
" style="stroke:#ffffff;stroke-width:7;
stroke-linejoin:miter; stroke-linecap:butt;
"/>
<!-- Line -->
<!--  polyline  -->
<polyline points="427,12463
444,12463
" style="stroke:#02709f;stroke-width:0;
stroke-linejoin:miter; stroke-linecap:butt;
fill:#02709f;
"/>
<!-- Line -->
<!--  polyline  -->
<polyline points="427,12463
444,12463
" style="stroke:#ffffff;stroke-width:7;
stroke-linejoin:miter; stroke-linecap:butt;
"/>
<!-- Line -->
<!--  polyline  -->
<polyline points="451,12463
467,12464
" style="stroke:#02709f;stroke-width:0;
stroke-linejoin:miter; stroke-linecap:butt;
fill:#02709f;
"/>
<!-- Line -->
<!--  polyline  -->
<polyline points="451,12463
467,12464
" style="stroke:#ffffff;stroke-width:7;
stroke-linejoin:miter; stroke-linecap:butt;
"/>
<!-- Line -->
<!--  polyline  -->
<polyline points="522,12464
539,12464
" style="stroke:#02709f;stroke-width:0;
stroke-linejoin:miter; stroke-linecap:butt;
fill:#02709f;
"/>
<!-- Line -->
<!--  polyline  -->
<polyline points="522,12464
539,12464
" style="stroke:#ffffff;stroke-width:7;
stroke-linejoin:miter; stroke-linecap:butt;
"/>
<!-- Line -->
<!--  polyline  -->
<polyline points="546,12464
562,12464
" style="stroke:#02709f;stroke-width:0;
stroke-linejoin:miter; stroke-linecap:butt;
fill:#02709f;
"/>
<!-- Line -->
<!--  polyline  -->
<polyline points="546,12464
562,12464
" style="stroke:#ffffff;stroke-width:7;
stroke-linejoin:miter; stroke-linecap:butt;
"/>
<!-- Line -->
<!--  polyline  -->
<polyline points="569,12464
586,12464
" style="stroke:#02709f;stroke-width:0;
stroke-linejoin:miter; stroke-linecap:butt;
fill:#02709f;
"/>
<!-- Line -->
<!--  polyline  -->
<polyline points="569,12464
586,12464
" style="stroke:#ffffff;stroke-width:7;
stroke-linejoin:miter; stroke-linecap:butt;
"/>
<!-- Line -->
<!--  polyline  -->
<polyline points="592,12464
609,12465
" style="stroke:#02709f;stroke-width:0;
stroke-linejoin:miter; stroke-linecap:butt;
fill:#02709f;
"/>
<!-- Line -->
<!--  polyline  -->
<polyline points="592,12464
609,12465
" style="stroke:#ffffff;stroke-width:7;
stroke-linejoin:miter; stroke-linecap:butt;
"/>
<!-- Line -->
<!--  polyline  -->
<polyline points="616,12465
632,12465
" style="stroke:#02709f;stroke-width:0;
stroke-linejoin:miter; stroke-linecap:butt;
fill:#02709f;
"/>
<!-- Line -->
<!--  polyline  -->
<polyline points="616,12465
632,12465
" style="stroke:#ffffff;stroke-width:7;
stroke-linejoin:miter; stroke-linecap:butt;
"/>
<!-- Line -->
<!--  polyline  -->
<polyline points="639,12465
656,12465
" style="stroke:#02709f;stroke-width:0;
stroke-linejoin:miter; stroke-linecap:butt;
fill:#02709f;
"/>
<!-- Line -->
<!--  polyline  -->
<polyline points="639,12465
656,12465
" style="stroke:#ffffff;stroke-width:7;
stroke-linejoin:miter; stroke-linecap:butt;
"/>
<!-- Line -->
<!--  polyline  -->
<polyline points="662,12465
679,12465
" style="stroke:#02709f;stroke-width:0;
stroke-linejoin:miter; stroke-linecap:butt;
fill:#02709f;
"/>
<!-- Line -->
<!--  polyline  -->
<polyline points="662,12465
679,12465
" style="stroke:#ffffff;stroke-width:7;
stroke-linejoin:miter; stroke-linecap:butt;
"/>
<!-- Line -->
<!--  polyline  -->
<polyline points="467,12477
484,12477
" style="stroke:#02709f;stroke-width:0;
stroke-linejoin:miter; stroke-linecap:butt;
fill:#02709f;
"/>
<!-- Line -->
<!--  polyline  -->
<polyline points="467,12477
484,12477
" style="stroke:#ffffff;stroke-width:7;
stroke-linejoin:miter; stroke-linecap:butt;
"/>
<!-- Line -->
<!--  polyline  -->
<polyline points="491,12477
507,12477
" style="stroke:#02709f;stroke-width:0;
stroke-linejoin:miter; stroke-linecap:butt;
fill:#02709f;
"/>
<!-- Line -->
<!--  polyline  -->
<polyline points="491,12477
507,12477
" style="stroke:#ffffff;stroke-width:7;
stroke-linejoin:miter; stroke-linecap:butt;
"/>
<!-- Line -->
<!--  polyline  -->
<polyline points="419,12477
436,12477
" style="stroke:#02709f;stroke-width:0;
stroke-linejoin:miter; stroke-linecap:butt;
fill:#02709f;
"/>
<!-- Line -->
<!--  polyline  -->
<polyline points="419,12477
436,12477
" style="stroke:#ffffff;stroke-width:7;
stroke-linejoin:miter; stroke-linecap:butt;
"/>
<!-- Line -->
<!--  polyline  -->
<polyline points="442,12477
459,12477
" style="stroke:#02709f;stroke-width:0;
stroke-linejoin:miter; stroke-linecap:butt;
fill:#02709f;
"/>
<!-- Line -->
<!--  polyline  -->
<polyline points="442,12477
459,12477
" style="stroke:#ffffff;stroke-width:7;
stroke-linejoin:miter; stroke-linecap:butt;
"/>
<!-- Line -->
<!--  polyline  -->
<polyline points="514,12477
531,12477
" style="stroke:#02709f;stroke-width:0;
stroke-linejoin:miter; stroke-linecap:butt;
fill:#02709f;
"/>
<!-- Line -->
<!--  polyline  -->
<polyline points="514,12477
531,12477
" style="stroke:#ffffff;stroke-width:7;
stroke-linejoin:miter; stroke-linecap:butt;
"/>
<!-- Line -->
<!--  polyline  -->
<polyline points="537,12477
554,12478
" style="stroke:#02709f;stroke-width:0;
stroke-linejoin:miter; stroke-linecap:butt;
fill:#02709f;
"/>
<!-- Line -->
<!--  polyline  -->
<polyline points="537,12477
554,12478
" style="stroke:#ffffff;stroke-width:7;
stroke-linejoin:miter; stroke-linecap:butt;
"/>
<!-- Line -->
<!--  polyline  -->
<polyline points="561,12478
577,12478
" style="stroke:#02709f;stroke-width:0;
stroke-linejoin:miter; stroke-linecap:butt;
fill:#02709f;
"/>
<!-- Line -->
<!--  polyline  -->
<polyline points="561,12478
577,12478
" style="stroke:#ffffff;stroke-width:7;
stroke-linejoin:miter; stroke-linecap:butt;
"/>
<!-- Line -->
<!--  polyline  -->
<polyline points="584,12478
601,12478
" style="stroke:#02709f;stroke-width:0;
stroke-linejoin:miter; stroke-linecap:butt;
fill:#02709f;
"/>
<!-- Line -->
<!--  polyline  -->
<polyline points="584,12478
601,12478
" style="stroke:#ffffff;stroke-width:7;
stroke-linejoin:miter; stroke-linecap:butt;
"/>
<!-- Line -->
<!--  polyline  -->
<polyline points="607,12478
624,12478
" style="stroke:#02709f;stroke-width:0;
stroke-linejoin:miter; stroke-linecap:butt;
fill:#02709f;
"/>
<!-- Line -->
<!--  polyline  -->
<polyline points="607,12478
624,12478
" style="stroke:#ffffff;stroke-width:7;
stroke-linejoin:miter; stroke-linecap:butt;
"/>
<!-- Line -->
<!--  polyline  -->
<polyline points="631,12478
647,12478
" style="stroke:#02709f;stroke-width:0;
stroke-linejoin:miter; stroke-linecap:butt;
fill:#02709f;
"/>
<!-- Line -->
<!--  polyline  -->
<polyline points="631,12478
647,12478
" style="stroke:#ffffff;stroke-width:7;
stroke-linejoin:miter; stroke-linecap:butt;
"/>
<!-- Line -->
<!--  polyline  -->
<polyline points="654,12478
671,12478
" style="stroke:#02709f;stroke-width:0;
stroke-linejoin:miter; stroke-linecap:butt;
fill:#02709f;
"/>
<!-- Line -->
<!--  polyline  -->
<polyline points="654,12478
671,12478
" style="stroke:#ffffff;stroke-width:7;
stroke-linejoin:miter; stroke-linecap:butt;
"/>
<!-- Line -->
<!--  polyline  -->
<polyline points="459,12490
476,12490
" style="stroke:#02709f;stroke-width:0;
stroke-linejoin:miter; stroke-linecap:butt;
fill:#02709f;
"/>
<!-- Line -->
<!--  polyline  -->
<polyline points="459,12490
476,12490
" style="stroke:#ffffff;stroke-width:7;
stroke-linejoin:miter; stroke-linecap:butt;
"/>
<!-- Line -->
<!--  polyline  -->
<polyline points="482,12490
499,12491
" style="stroke:#02709f;stroke-width:0;
stroke-linejoin:miter; stroke-linecap:butt;
fill:#02709f;
"/>
<!-- Line -->
<!--  polyline  -->
<polyline points="482,12490
499,12491
" style="stroke:#ffffff;stroke-width:7;
stroke-linejoin:miter; stroke-linecap:butt;
"/>
<!-- Line -->
<!--  polyline  -->
<polyline points="411,12490
427,12490
" style="stroke:#02709f;stroke-width:0;
stroke-linejoin:miter; stroke-linecap:butt;
fill:#02709f;
"/>
<!-- Line -->
<!--  polyline  -->
<polyline points="411,12490
427,12490
" style="stroke:#ffffff;stroke-width:7;
stroke-linejoin:miter; stroke-linecap:butt;
"/>
<!-- Line -->
<!--  polyline  -->
<polyline points="434,12490
451,12490
" style="stroke:#02709f;stroke-width:0;
stroke-linejoin:miter; stroke-linecap:butt;
fill:#02709f;
"/>
<!-- Line -->
<!--  polyline  -->
<polyline points="434,12490
451,12490
" style="stroke:#ffffff;stroke-width:7;
stroke-linejoin:miter; stroke-linecap:butt;
"/>
<!-- Line -->
<!--  polyline  -->
<polyline points="506,12491
522,12491
" style="stroke:#02709f;stroke-width:0;
stroke-linejoin:miter; stroke-linecap:butt;
fill:#02709f;
"/>
<!-- Line -->
<!--  polyline  -->
<polyline points="506,12491
522,12491
" style="stroke:#ffffff;stroke-width:7;
stroke-linejoin:miter; stroke-linecap:butt;
"/>
<!-- Line -->
<!--  polyline  -->
<polyline points="529,12491
546,12491
" style="stroke:#02709f;stroke-width:0;
stroke-linejoin:miter; stroke-linecap:butt;
fill:#02709f;
"/>
<!-- Line -->
<!--  polyline  -->
<polyline points="529,12491
546,12491
" style="stroke:#ffffff;stroke-width:7;
stroke-linejoin:miter; stroke-linecap:butt;
"/>
<!-- Line -->
<!--  polyline  -->
<polyline points="552,12491
569,12491
" style="stroke:#02709f;stroke-width:0;
stroke-linejoin:miter; stroke-linecap:butt;
fill:#02709f;
"/>
<!-- Line -->
<!--  polyline  -->
<polyline points="552,12491
569,12491
" style="stroke:#ffffff;stroke-width:7;
stroke-linejoin:miter; stroke-linecap:butt;
"/>
<!-- Line -->
<!--  polyline  -->
<polyline points="576,12491
592,12491
" style="stroke:#02709f;stroke-width:0;
stroke-linejoin:miter; stroke-linecap:butt;
fill:#02709f;
"/>
<!-- Line -->
<!--  polyline  -->
<polyline points="576,12491
592,12491
" style="stroke:#ffffff;stroke-width:7;
stroke-linejoin:miter; stroke-linecap:butt;
"/>
<!-- Line -->
<!--  polyline  -->
<polyline points="599,12491
616,12491
" style="stroke:#02709f;stroke-width:0;
stroke-linejoin:miter; stroke-linecap:butt;
fill:#02709f;
"/>
<!-- Line -->
<!--  polyline  -->
<polyline points="599,12491
616,12491
" style="stroke:#ffffff;stroke-width:7;
stroke-linejoin:miter; stroke-linecap:butt;
"/>
<!-- Line -->
<!--  polyline  -->
<polyline points="622,12491
639,12491
" style="stroke:#02709f;stroke-width:0;
stroke-linejoin:miter; stroke-linecap:butt;
fill:#02709f;
"/>
<!-- Line -->
<!--  polyline  -->
<polyline points="622,12491
639,12491
" style="stroke:#ffffff;stroke-width:7;
stroke-linejoin:miter; stroke-linecap:butt;
"/>
<!-- Line -->
<!--  polyline  -->
<polyline points="646,12492
662,12492
" style="stroke:#02709f;stroke-width:0;
stroke-linejoin:miter; stroke-linecap:butt;
fill:#02709f;
"/>
<!-- Line -->
<!--  polyline  -->
<polyline points="646,12492
662,12492
" style="stroke:#ffffff;stroke-width:7;
stroke-linejoin:miter; stroke-linecap:butt;
"/>
<!-- Line -->
<!--  spline  -->
<polyline points="374,12435
376,12435
379,12435
381,12435
382,12435
384,12435
386,12436
389,12436
392,12436
393,12436
394,12436
397,12436
400,12436
401,12436
402,12435
405,12435
408,12435
410,12434
411,12434
412,12434
413,12433
415,12433
416,12432
417,12432
418,12431
419,12430
420,12429
421,12428
422,12427
422,12426
423,12425
424,12424
424,12423
425,12423
426,12422
427,12421
428,12421
429,12420
430,12420
432,12420
433,12419
435,12419
436,12419
437,12419
439,12418
441,12418
443,12418
444,12418
445,12418
447,12418
449,12418
450,12418
450,12419
452,12419
454,12420
456,12420
457,12421
458,12421
458,12422
459,12423
460,12424
461,12425
462,12426
464,12426
467,12427
469,12427
470,12427
472,12427
474,12428
476,12428
478,12429
479,12429
480,12429
482,12430
484,12431
485,12431
486,12431
488,12432
490,12433
492,12434
493,12435
494,12436
495,12437
495,12439
496,12440
496,12441
496,12442
497,12443
497,12445
497,12447
497,12448
497,12450
497,12452
496,12453
496,12455
496,12457
496,12458
496,12459
496,12460
495,12461
494,12461
494,12462
493,12462
492,12462
492,12463
493,12463
492,12463
491,12463
490,12463
489,12462
489,12460
488,12459
488,12458
487,12458
487,12456
486,12455
486,12454
485,12453
486,12453
485,12452
485,12451
484,12450
484,12449
483,12448
482,12447
481,12446
481,12445
480,12445
478,12445
477,12444
475,12444
474,12444
473,12443
471,12443
469,12443
468,12443
466,12443
464,12443
463,12443
461,12443
459,12443
458,12444
457,12445
456,12445
456,12446
456,12447
456,12448
457,12448
457,12449
457,12450
458,12451
459,12451
460,12451
462,12451
463,12452
465,12452
466,12452
467,12452
468,12452
469,12453
470,12454
471,12454
471,12455
472,12456
473,12457
473,12458
473,12459
472,12460
471,12460
471,12461
470,12461
468,12463
464,12467
462,12469
461,12469
459,12470
456,12470
453,12471
448,12472
444,12473
442,12473
441,12473
439,12473
435,12473
430,12473
428,12473
426,12472
421,12472
416,12471
413,12471
410,12470
408,12470
406,12470
405,12469
403,12469
402,12469
401,12469
400,12468
398,12468
397,12467
396,12467
395,12467
394,12466
392,12465
391,12465
391,12464
389,12464
387,12464
386,12464
385,12464
384,12464
" style="stroke:#02709f;stroke-width:0;
stroke-linejoin:bevel; stroke-linecap:butt;
fill:#02709f;
"/>
<!-- Line -->
<!--  spline  -->
<polyline points="374,12435
376,12435
379,12435
381,12435
382,12435
384,12435
386,12436
389,12436
392,12436
393,12436
394,12436
397,12436
400,12436
401,12436
402,12435
405,12435
408,12435
410,12434
411,12434
412,12434
413,12433
415,12433
416,12432
417,12432
418,12431
419,12430
420,12429
421,12428
422,12427
422,12426
423,12425
424,12424
424,12423
425,12423
426,12422
427,12421
428,12421
429,12420
430,12420
432,12420
433,12419
435,12419
436,12419
437,12419
439,12418
441,12418
443,12418
444,12418
445,12418
447,12418
449,12418
450,12418
450,12419
452,12419
454,12420
456,12420
457,12421
458,12421
458,12422
459,12423
460,12424
461,12425
462,12426
464,12426
467,12427
469,12427
470,12427
472,12427
474,12428
476,12428
478,12429
479,12429
480,12429
482,12430
484,12431
485,12431
486,12431
488,12432
490,12433
492,12434
493,12435
494,12436
495,12437
495,12439
496,12440
496,12441
496,12442
497,12443
497,12445
497,12447
497,12448
497,12450
497,12452
496,12453
496,12455
496,12457
496,12458
496,12459
496,12460
495,12461
494,12461
494,12462
493,12462
492,12462
492,12463
493,12463
492,12463
491,12463
490,12463
489,12462
489,12460
488,12459
488,12458
487,12458
487,12456
486,12455
486,12454
485,12453
486,12453
485,12452
485,12451
484,12450
484,12449
483,12448
482,12447
481,12446
481,12445
480,12445
478,12445
477,12444
475,12444
474,12444
473,12443
471,12443
469,12443
468,12443
466,12443
464,12443
463,12443
461,12443
459,12443
458,12444
457,12445
456,12445
456,12446
456,12447
456,12448
457,12448
457,12449
457,12450
458,12451
459,12451
460,12451
462,12451
463,12452
465,12452
466,12452
467,12452
468,12452
469,12453
470,12454
471,12454
471,12455
472,12456
473,12457
473,12458
473,12459
472,12460
471,12460
471,12461
470,12461
468,12463
464,12467
462,12469
461,12469
459,12470
456,12470
453,12471
448,12472
444,12473
442,12473
441,12473
439,12473
435,12473
430,12473
428,12473
426,12472
421,12472
416,12471
413,12471
410,12470
408,12470
406,12470
405,12469
403,12469
402,12469
401,12469
400,12468
398,12468
397,12467
396,12467
395,12467
394,12466
392,12465
391,12465
391,12464
389,12464
387,12464
386,12464
385,12464
384,12464
" style="stroke:#ffffff;stroke-width:7;
stroke-linejoin:bevel; stroke-linecap:butt;
"/>
<!-- Line -->
<!--  spline  -->
<polyline points="560,12560
561,12560
563,12560
564,12560
565,12560
566,12559
567,12559
568,12559
569,12559
569,12558
570,12558
571,12557
572,12557
573,12556
574,12556
575,12555
576,12555
577,12555
578,12554
579,12554
580,12554
581,12554
582,12554
583,12554
584,12554
585,12554
586,12554
587,12554
588,12554
589,12554
590,12554
591,12554
592,12554
593,12554
595,12553
596,12552
598,12551
599,12551
600,12550
602,12549
604,12548
606,12547
607,12547
607,12546
609,12545
611,12544
611,12543
612,12543
612,12542
614,12541
616,12540
618,12539
619,12539
620,12539
620,12538
620,12536
621,12532
621,12530
621,12529
621,12527
621,12525
622,12523
622,12519
622,12516
622,12514
623,12514
623,12512
623,12509
623,12506
623,12504
624,12502
624,12499
625,12495
625,12493
626,12491
626,12489
627,12489
628,12489
629,12489
630,12489
631,12489
632,12488
634,12488
636,12487
637,12487
638,12487
640,12486
642,12486
643,12485
644,12485
646,12485
647,12485
648,12484
648,12483
648,12482
648,12481
648,12480
648,12479
648,12478
649,12477
649,12476
649,12475
649,12474
648,12473
647,12473
646,12473
644,12472
640,12472
638,12471
637,12471
635,12471
632,12471
629,12471
624,12471
619,12471
617,12471
615,12472
610,12472
606,12473
604,12473
603,12473
601,12473
597,12474
593,12475
590,12475
588,12476
586,12476
585,12476
585,12475
585,12474
583,12474
582,12474
580,12474
579,12474
578,12474
577,12474
575,12474
573,12474
572,12474
570,12474
568,12474
567,12474
567,12475
565,12475
563,12476
562,12476
561,12477
560,12477
559,12479
557,12480
556,12482
556,12483
555,12484
554,12485
554,12487
554,12489
554,12490
554,12491
554,12492
554,12494
554,12496
554,12497
554,12498
554,12499
554,12501
554,12503
554,12505
554,12506
554,12507
553,12508
553,12510
552,12511
552,12512
551,12512
550,12513
549,12514
548,12515
547,12515
546,12516
545,12517
544,12517
543,12518
542,12519
541,12519
540,12520
539,12520
539,12521
538,12521
537,12522
536,12522
535,12523
534,12523
534,12524
533,12523
533,12524
532,12524
531,12525
530,12525
529,12526
528,12526
527,12527
526,12527
" style="stroke:#02709f;stroke-width:0;
stroke-linejoin:bevel; stroke-linecap:butt;
fill:#02709f;
"/>
<!-- Line -->
<!--  spline  -->
<polyline points="560,12560
561,12560
563,12560
564,12560
565,12560
566,12559
567,12559
568,12559
569,12559
569,12558
570,12558
571,12557
572,12557
573,12556
574,12556
575,12555
576,12555
577,12555
578,12554
579,12554
580,12554
581,12554
582,12554
583,12554
584,12554
585,12554
586,12554
587,12554
588,12554
589,12554
590,12554
591,12554
592,12554
593,12554
595,12553
596,12552
598,12551
599,12551
600,12550
602,12549
604,12548
606,12547
607,12547
607,12546
609,12545
611,12544
611,12543
612,12543
612,12542
614,12541
616,12540
618,12539
619,12539
620,12539
620,12538
620,12536
621,12532
621,12530
621,12529
621,12527
621,12525
622,12523
622,12519
622,12516
622,12514
623,12514
623,12512
623,12509
623,12506
623,12504
624,12502
624,12499
625,12495
625,12493
626,12491
626,12489
627,12489
628,12489
629,12489
630,12489
631,12489
632,12488
634,12488
636,12487
637,12487
638,12487
640,12486
642,12486
643,12485
644,12485
646,12485
647,12485
648,12484
648,12483
648,12482
648,12481
648,12480
648,12479
648,12478
649,12477
649,12476
649,12475
649,12474
648,12473
647,12473
646,12473
644,12472
640,12472
638,12471
637,12471
635,12471
632,12471
629,12471
624,12471
619,12471
617,12471
615,12472
610,12472
606,12473
604,12473
603,12473
601,12473
597,12474
593,12475
590,12475
588,12476
586,12476
585,12476
585,12475
585,12474
583,12474
582,12474
580,12474
579,12474
578,12474
577,12474
575,12474
573,12474
572,12474
570,12474
568,12474
567,12474
567,12475
565,12475
563,12476
562,12476
561,12477
560,12477
559,12479
557,12480
556,12482
556,12483
555,12484
554,12485
554,12487
554,12489
554,12490
554,12491
554,12492
554,12494
554,12496
554,12497
554,12498
554,12499
554,12501
554,12503
554,12505
554,12506
554,12507
553,12508
553,12510
552,12511
552,12512
551,12512
550,12513
549,12514
548,12515
547,12515
546,12516
545,12517
544,12517
543,12518
542,12519
541,12519
540,12520
539,12520
539,12521
538,12521
537,12522
536,12522
535,12523
534,12523
534,12524
533,12523
533,12524
532,12524
531,12525
530,12525
529,12526
528,12526
527,12527
526,12527
" style="stroke:#ffffff;stroke-width:7;
stroke-linejoin:bevel; stroke-linecap:butt;
"/>
<!-- Line -->
<!--  spline  -->
<polyline points="314,12430
315,12430
318,12430
322,12430
325,12430
326,12430
328,12430
331,12430
334,12430
339,12430
344,12430
346,12430
347,12430
349,12430
353,12430
357,12430
359,12431
361,12431
364,12432
368,12433
370,12434
372,12434
373,12435
374,12437
376,12439
377,12441
378,12442
379,12444
380,12447
381,12450
382,12453
382,12455
383,12457
383,12460
383,12463
383,12465
383,12466
383,12467
383,12470
382,12473
381,12475
381,12476
380,12477
379,12478
378,12479
377,12480
376,12480
374,12481
373,12481
370,12482
368,12482
367,12483
366,12483
365,12483
363,12483
360,12483
359,12484
358,12484
355,12484
352,12484
350,12484
349,12484
348,12484
" style="stroke:#02709f;stroke-width:0;
stroke-linejoin:bevel; stroke-linecap:butt;
fill:#02709f;
"/>
<!-- Line -->
<!--  spline  -->
<polyline points="314,12430
315,12430
318,12430
322,12430
325,12430
326,12430
328,12430
331,12430
334,12430
339,12430
344,12430
346,12430
347,12430
349,12430
353,12430
357,12430
359,12431
361,12431
364,12432
368,12433
370,12434
372,12434
373,12435
374,12437
376,12439
377,12441
378,12442
379,12444
380,12447
381,12450
382,12453
382,12455
383,12457
383,12460
383,12463
383,12465
383,12466
383,12467
383,12470
382,12473
381,12475
381,12476
380,12477
379,12478
378,12479
377,12480
376,12480
374,12481
373,12481
370,12482
368,12482
367,12483
366,12483
365,12483
363,12483
360,12483
359,12484
358,12484
355,12484
352,12484
350,12484
349,12484
348,12484
" style="stroke:#ffffff;stroke-width:7;
stroke-linejoin:bevel; stroke-linecap:butt;
"/>
<!-- Line -->
<!--  spline  -->
<polyline points="160,12243
162,12243
165,12242
167,12242
168,12242
169,12242
171,12242
173,12242
175,12242
176,12242
177,12242
178,12242
180,12242
182,12242
183,12242
184,12243
186,12243
188,12244
189,12244
190,12245
191,12246
195,12249
201,12254
205,12257
206,12258
208,12260
212,12262
216,12266
221,12271
226,12276
228,12278
229,12279
230,12281
235,12286
239,12291
241,12293
242,12294
244,12296
248,12301
252,12307
256,12312
258,12315
260,12318
260,12319
262,12322
266,12326
268,12329
268,12330
269,12332
271,12334
274,12337
277,12341
280,12345
281,12346
282,12347
283,12348
286,12352
289,12356
290,12357
290,12358
291,12359
293,12363
295,12367
296,12371
297,12373
298,12375
298,12376
299,12379
300,12383
301,12386
301,12387
301,12389
302,12391
303,12395
304,12399
305,12403
305,12404
305,12405
306,12406
307,12410
308,12414
309,12416
310,12418
311,12422
312,12426
314,12429
314,12431
315,12432
316,12433
319,12438
323,12447
326,12452
327,12453
327,12454
329,12456
331,12460
335,12466
339,12473
343,12479
345,12482
346,12483
348,12486
352,12492
356,12499
358,12501
358,12502
360,12505
364,12512
369,12519
373,12525
376,12529
378,12531
378,12532
379,12533
380,12534
381,12535
382,12535
383,12535
385,12536
387,12536
389,12536
389,12537
390,12537
392,12537
394,12537
395,12537
396,12537
397,12538
399,12538
401,12539
403,12539
404,12540
405,12540
406,12541
407,12542
407,12543
408,12544
408,12545
409,12546
410,12547
410,12548
411,12548
411,12549
411,12550
412,12550
415,12550
418,12550
421,12550
422,12550
424,12550
427,12551
430,12551
433,12551
434,12551
435,12551
436,12551
439,12551
442,12551
443,12551
444,12550
447,12550
450,12549
452,12549
454,12548
455,12548
456,12548
459,12546
465,12543
468,12541
469,12541
471,12540
474,12539
478,12538
483,12536
488,12535
490,12534
492,12534
497,12533
502,12532
504,12531
506,12530
511,12529
516,12528
520,12526
523,12526
525,12525
525,12526
527,12529
531,12533
533,12536
533,12537
535,12539
537,12541
540,12543
544,12547
548,12550
549,12551
550,12552
552,12553
555,12556
558,12559
560,12561
562,12563
564,12567
566,12571
567,12575
568,12578
568,12580
567,12581
563,12583
556,12587
552,12589
551,12590
549,12591
545,12593
541,12596
535,12599
529,12602
527,12603
526,12604
524,12605
518,12608
513,12611
510,12612
507,12613
502,12616
496,12619
491,12622
488,12624
485,12625
484,12625
482,12627
477,12628
475,12630
474,12630
473,12631
470,12632
468,12634
464,12636
460,12638
459,12639
458,12639
457,12640
453,12642
449,12644
448,12644
447,12644
446,12645
442,12646
438,12647
434,12648
432,12648
430,12648
429,12648
426,12647
422,12646
419,12645
418,12645
415,12644
412,12643
407,12642
400,12640
394,12638
391,12637
390,12637
387,12636
381,12634
375,12632
373,12632
371,12631
369,12631
365,12630
361,12630
359,12630
358,12630
358,12631
358,12636
358,12645
358,12650
358,12651
358,12652
359,12655
361,12659
364,12666
368,12675
372,12683
374,12687
375,12689
377,12692
381,12701
385,12710
387,12713
387,12715
389,12719
391,12727
393,12736
393,12742
393,12747
393,12749
393,12750
393,12751
391,12757
389,12765
387,12771
387,12772
387,12773
386,12775
385,12780
384,12785
382,12793
381,12800
380,12803
380,12804
379,12807
378,12814
377,12821
376,12824
376,12826
375,12829
374,12836
373,12844
371,12849
371,12854
370,12856
370,12857
369,12859
369,12862
368,12864
368,12865
367,12866
367,12868
366,12870
365,12872
365,12873
365,12874
364,12876
363,12878
363,12879
363,12880
363,12881
362,12883
361,12886
361,12887
360,12889
360,12890
359,12891
359,12893
358,12894
358,12895
357,12896
357,12897
356,12899
355,12900
355,12901
354,12901
354,12902
353,12903
352,12904
352,12905
352,12906
351,12907
350,12908
349,12909
349,12910
348,12910
346,12912
344,12913
342,12915
341,12916
340,12917
338,12918
336,12920
334,12922
333,12923
332,12924
330,12926
328,12928
327,12928
326,12929
324,12930
322,12931
320,12932
319,12932
318,12932
316,12933
312,12934
310,12935
309,12935
307,12935
305,12935
302,12935
299,12935
298,12935
297,12936
294,12936
291,12936
290,12936
289,12937
286,12937
283,12938
281,12938
280,12939
279,12939
277,12939
276,12940
274,12940
273,12940
272,12940
271,12941
269,12941
267,12941
266,12941
266,12942
264,12942
263,12943
262,12943
261,12943
260,12944
258,12944
257,12945
256,12945
255,12945
253,12946
249,12947
247,12948
246,12948
244,12949
242,12949
239,12949
236,12949
235,12948
234,12948
233,12948
231,12947
229,12946
228,12946
227,12945
226,12944
225,12943
224,12942
223,12941
223,12940
223,12939
221,12933
219,12925
217,12919
217,12918
217,12917
217,12915
216,12910
215,12904
215,12896
215,12889
215,12886
215,12884
215,12881
215,12874
215,12867
214,12864
214,12862
214,12859
213,12852
212,12844
210,12838
209,12833
208,12831
208,12830
208,12829
205,12822
200,12809
196,12797
193,12790
193,12789
193,12788
192,12785
190,12779
187,12771
183,12762
178,12749
173,12737
170,12731
169,12729
168,12727
166,12720
160,12708
154,12696
152,12689
151,12687
150,12684
146,12678
140,12665
133,12651
127,12640
122,12631
118,12624
115,12621
115,12620
112,12618
109,12614
106,12612
104,12611
102,12611
99,12609
94,12608
90,12607
88,12606
87,12606
85,12605
80,12604
75,12602
74,12602
73,12602
71,12601
67,12599
63,12596
60,12594
58,12592
57,12590
57,12589
54,12582
49,12568
45,12555
42,12548
42,12547
42,12546
41,12542
40,12535
39,12526
39,12514
39,12498
40,12483
41,12475
41,12471
42,12468
43,12460
46,12444
49,12428
51,12420
52,12416
53,12413
55,12405
59,12389
63,12372
67,12359
69,12348
72,12340
73,12336
73,12335
73,12334
74,12331
76,12325
77,12322
77,12321
78,12319
80,12315
82,12311
85,12306
88,12301
90,12299
91,12298
92,12296
96,12292
100,12288
102,12286
104,12284
108,12281
113,12278
116,12276
119,12275
121,12274
122,12273
124,12272
125,12271
126,12270
127,12269
128,12268
129,12267
130,12267
130,12266
131,12266
132,12265
133,12264
134,12264
135,12263
136,12262
137,12262
138,12261
139,12261
141,12259
142,12258
144,12256
145,12255
146,12254
147,12253
148,12251
149,12250
149,12249
150,12249
150,12248
151,12247
152,12246
153,12245
154,12245
155,12244
157,12243
158,12243
159,12243
160,12243
" style="stroke:#02709f;stroke-width:0;
stroke-linejoin:bevel; stroke-linecap:butt;
fill:#02709f;
"/>
<!-- Line -->
<!--  spline  -->
<polyline points="160,12243
162,12243
165,12242
167,12242
168,12242
169,12242
171,12242
173,12242
175,12242
176,12242
177,12242
178,12242
180,12242
182,12242
183,12242
184,12243
186,12243
188,12244
189,12244
190,12245
191,12246
195,12249
201,12254
205,12257
206,12258
208,12260
212,12262
216,12266
221,12271
226,12276
228,12278
229,12279
230,12281
235,12286
239,12291
241,12293
242,12294
244,12296
248,12301
252,12307
256,12312
258,12315
260,12318
260,12319
262,12322
266,12326
268,12329
268,12330
269,12332
271,12334
274,12337
277,12341
280,12345
281,12346
282,12347
283,12348
286,12352
289,12356
290,12357
290,12358
291,12359
293,12363
295,12367
296,12371
297,12373
298,12375
298,12376
299,12379
300,12383
301,12386
301,12387
301,12389
302,12391
303,12395
304,12399
305,12403
305,12404
305,12405
306,12406
307,12410
308,12414
309,12416
310,12418
311,12422
312,12426
314,12429
314,12431
315,12432
316,12433
319,12438
323,12447
326,12452
327,12453
327,12454
329,12456
331,12460
335,12466
339,12473
343,12479
345,12482
346,12483
348,12486
352,12492
356,12499
358,12501
358,12502
360,12505
364,12512
369,12519
373,12525
376,12529
378,12531
378,12532
379,12533
380,12534
381,12535
382,12535
383,12535
385,12536
387,12536
389,12536
389,12537
390,12537
392,12537
394,12537
395,12537
396,12537
397,12538
399,12538
401,12539
403,12539
404,12540
405,12540
406,12541
407,12542
407,12543
408,12544
408,12545
409,12546
410,12547
410,12548
411,12548
411,12549
411,12550
412,12550
415,12550
418,12550
421,12550
422,12550
424,12550
427,12551
430,12551
433,12551
434,12551
435,12551
436,12551
439,12551
442,12551
443,12551
444,12550
447,12550
450,12549
452,12549
454,12548
455,12548
456,12548
459,12546
465,12543
468,12541
469,12541
471,12540
474,12539
478,12538
483,12536
488,12535
490,12534
492,12534
497,12533
502,12532
504,12531
506,12530
511,12529
516,12528
520,12526
523,12526
525,12525
525,12526
527,12529
531,12533
533,12536
533,12537
535,12539
537,12541
540,12543
544,12547
548,12550
549,12551
550,12552
552,12553
555,12556
558,12559
560,12561
562,12563
564,12567
566,12571
567,12575
568,12578
568,12580
567,12581
563,12583
556,12587
552,12589
551,12590
549,12591
545,12593
541,12596
535,12599
529,12602
527,12603
526,12604
524,12605
518,12608
513,12611
510,12612
507,12613
502,12616
496,12619
491,12622
488,12624
485,12625
484,12625
482,12627
477,12628
475,12630
474,12630
473,12631
470,12632
468,12634
464,12636
460,12638
459,12639
458,12639
457,12640
453,12642
449,12644
448,12644
447,12644
446,12645
442,12646
438,12647
434,12648
432,12648
430,12648
429,12648
426,12647
422,12646
419,12645
418,12645
415,12644
412,12643
407,12642
400,12640
394,12638
391,12637
390,12637
387,12636
381,12634
375,12632
373,12632
371,12631
369,12631
365,12630
361,12630
359,12630
358,12630
358,12631
358,12636
358,12645
358,12650
358,12651
358,12652
359,12655
361,12659
364,12666
368,12675
372,12683
374,12687
375,12689
377,12692
381,12701
385,12710
387,12713
387,12715
389,12719
391,12727
393,12736
393,12742
393,12747
393,12749
393,12750
393,12751
391,12757
389,12765
387,12771
387,12772
387,12773
386,12775
385,12780
384,12785
382,12793
381,12800
380,12803
380,12804
379,12807
378,12814
377,12821
376,12824
376,12826
375,12829
374,12836
373,12844
371,12849
371,12854
370,12856
370,12857
369,12859
369,12862
368,12864
368,12865
367,12866
367,12868
366,12870
365,12872
365,12873
365,12874
364,12876
363,12878
363,12879
363,12880
363,12881
362,12883
361,12886
361,12887
360,12889
360,12890
359,12891
359,12893
358,12894
358,12895
357,12896
357,12897
356,12899
355,12900
355,12901
354,12901
354,12902
353,12903
352,12904
352,12905
352,12906
351,12907
350,12908
349,12909
349,12910
348,12910
346,12912
344,12913
342,12915
341,12916
340,12917
338,12918
336,12920
334,12922
333,12923
332,12924
330,12926
328,12928
327,12928
326,12929
324,12930
322,12931
320,12932
319,12932
318,12932
316,12933
312,12934
310,12935
309,12935
307,12935
305,12935
302,12935
299,12935
298,12935
297,12936
294,12936
291,12936
290,12936
289,12937
286,12937
283,12938
281,12938
280,12939
279,12939
277,12939
276,12940
274,12940
273,12940
272,12940
271,12941
269,12941
267,12941
266,12941
266,12942
264,12942
263,12943
262,12943
261,12943
260,12944
258,12944
257,12945
256,12945
255,12945
253,12946
249,12947
247,12948
246,12948
244,12949
242,12949
239,12949
236,12949
235,12948
234,12948
233,12948
231,12947
229,12946
228,12946
227,12945
226,12944
225,12943
224,12942
223,12941
223,12940
223,12939
221,12933
219,12925
217,12919
217,12918
217,12917
217,12915
216,12910
215,12904
215,12896
215,12889
215,12886
215,12884
215,12881
215,12874
215,12867
214,12864
214,12862
214,12859
213,12852
212,12844
210,12838
209,12833
208,12831
208,12830
208,12829
205,12822
200,12809
196,12797
193,12790
193,12789
193,12788
192,12785
190,12779
187,12771
183,12762
178,12749
173,12737
170,12731
169,12729
168,12727
166,12720
160,12708
154,12696
152,12689
151,12687
150,12684
146,12678
140,12665
133,12651
127,12640
122,12631
118,12624
115,12621
115,12620
112,12618
109,12614
106,12612
104,12611
102,12611
99,12609
94,12608
90,12607
88,12606
87,12606
85,12605
80,12604
75,12602
74,12602
73,12602
71,12601
67,12599
63,12596
60,12594
58,12592
57,12590
57,12589
54,12582
49,12568
45,12555
42,12548
42,12547
42,12546
41,12542
40,12535
39,12526
39,12514
39,12498
40,12483
41,12475
41,12471
42,12468
43,12460
46,12444
49,12428
51,12420
52,12416
53,12413
55,12405
59,12389
63,12372
67,12359
69,12348
72,12340
73,12336
73,12335
73,12334
74,12331
76,12325
77,12322
77,12321
78,12319
80,12315
82,12311
85,12306
88,12301
90,12299
91,12298
92,12296
96,12292
100,12288
102,12286
104,12284
108,12281
113,12278
116,12276
119,12275
121,12274
122,12273
124,12272
125,12271
126,12270
127,12269
128,12268
129,12267
130,12267
130,12266
131,12266
132,12265
133,12264
134,12264
135,12263
136,12262
137,12262
138,12261
139,12261
141,12259
142,12258
144,12256
145,12255
146,12254
147,12253
148,12251
149,12250
149,12249
150,12249
150,12248
151,12247
152,12246
153,12245
154,12245
155,12244
157,12243
158,12243
159,12243
160,12243
" style="stroke:#ffffff;stroke-width:7;
stroke-linejoin:bevel; stroke-linecap:butt;
"/>
<!-- Line -->
<!--  spline  -->
<polyline points="116,12901
117,12901
122,12903
134,12908
152,12914
175,12923
197,12932
215,12938
227,12943
232,12945
233,12945
233,12944
233,12940
233,12930
232,12914
232,12895
232,12876
231,12860
231,12850
231,12846
231,12845
231,12844
229,12840
225,12829
218,12812
209,12791
201,12770
194,12753
190,12742
188,12738
188,12737
188,12736
186,12733
184,12727
180,12717
175,12707
170,12696
165,12684
159,12671
153,12658
150,12652
149,12650
148,12649
146,12645
142,12638
138,12631
136,12629
135,12628
133,12625
132,12624
132,12623
131,12623
131,12624
130,12624
126,12622
121,12618
117,12616
116,12616
114,12615
112,12614
109,12613
106,12611
103,12610
102,12609
101,12609
99,12608
98,12607
97,12607
96,12607
95,12607
95,12606
94,12606
88,12605
80,12603
74,12602
73,12602
72,12602
70,12601
66,12598
61,12595
55,12591
50,12587
48,12585
47,12584
46,12581
42,12577
39,12573
37,12571
37,12570
36,12568
34,12565
32,12562
31,12561
31,12560
29,12559
25,12557
23,12556
22,12556
20,12556
19,12556
16,12557
14,12558
13,12558
12,12558
11,12559
9,12560
7,12561
6,12562
5,12563
4,12564
4,12565
5,12568
7,12575
12,12588
18,12606
26,12631
36,12661
48,12696
60,12733
72,12770
84,12805
94,12835
102,12860
108,12878
113,12891
115,12898
116,12901
" style="stroke:#02709f;stroke-width:0;
stroke-linejoin:bevel; stroke-linecap:butt;
fill:#02709f;
"/>
<!-- Line -->
<!--  spline  -->
<polyline points="116,12901
117,12901
122,12903
134,12908
152,12914
175,12923
197,12932
215,12938
227,12943
232,12945
233,12945
233,12944
233,12940
233,12930
232,12914
232,12895
232,12876
231,12860
231,12850
231,12846
231,12845
231,12844
229,12840
225,12829
218,12812
209,12791
201,12770
194,12753
190,12742
188,12738
188,12737
188,12736
186,12733
184,12727
180,12717
175,12707
170,12696
165,12684
159,12671
153,12658
150,12652
149,12650
148,12649
146,12645
142,12638
138,12631
136,12629
135,12628
133,12625
132,12624
132,12623
131,12623
131,12624
130,12624
126,12622
121,12618
117,12616
116,12616
114,12615
112,12614
109,12613
106,12611
103,12610
102,12609
101,12609
99,12608
98,12607
97,12607
96,12607
95,12607
95,12606
94,12606
88,12605
80,12603
74,12602
73,12602
72,12602
70,12601
66,12598
61,12595
55,12591
50,12587
48,12585
47,12584
46,12581
42,12577
39,12573
37,12571
37,12570
36,12568
34,12565
32,12562
31,12561
31,12560
29,12559
25,12557
23,12556
22,12556
20,12556
19,12556
16,12557
14,12558
13,12558
12,12558
11,12559
9,12560
7,12561
6,12562
5,12563
4,12564
4,12565
5,12568
7,12575
12,12588
18,12606
26,12631
36,12661
48,12696
60,12733
72,12770
84,12805
94,12835
102,12860
108,12878
113,12891
115,12898
116,12901
" style="stroke:#ffffff;stroke-width:7;
stroke-linejoin:bevel; stroke-linecap:butt;
"/>
</g>
</svg>
