<?xml version="1.0" standalone="no"?>
<!DOCTYPE svg PUBLIC "-//W3C//DTD SVG 1.1//EN"
"http://www.w3.org/Graphics/SVG/1.1/DTD/svg11.dtd">
<!-- Creator: fig2dev Version 3.2 Patchlevel 5c -->
<!-- CreationDate: Fri Sep 14 10:46:41 2012 -->
<!-- Magnification: 1.000 -->
<svg xmlns="http://www.w3.org/2000/svg" width="0.6in" height="0.6in" viewBox="-9 12503 742 701">
<g style="stroke-width:.025in; fill:none">
<!-- Line -->
<!--  polyline  -->
<polyline points="633,13112
633,13013
109,13013
109,13112
633,13112
" style="stroke:#02709f;stroke-width:0;
stroke-linejoin:miter; stroke-linecap:butt;
fill:#02709f;
"/>
<!-- Line -->
<!--  polyline  -->
<polyline points="633,13112
633,13013
109,13013
109,13112
633,13112
" style="stroke:#ffffff;stroke-width:7;
stroke-linejoin:miter; stroke-linecap:butt;
"/>
<!-- Line -->
<!--  polyline  -->
<polyline points="473,13069
605,13069
" style="stroke:#02709f;stroke-width:0;
stroke-linejoin:miter; stroke-linecap:butt;
fill:#02709f;
"/>
<!-- Line -->
<!--  polyline  -->
<polyline points="473,13069
605,13069
" style="stroke:#ffffff;stroke-width:7;
stroke-linejoin:miter; stroke-linecap:butt;
"/>
<!-- Line -->
<!--  polyline  -->
<polyline points="473,13064
605,13064
" style="stroke:#02709f;stroke-width:0;
stroke-linejoin:miter; stroke-linecap:butt;
fill:#02709f;
"/>
<!-- Line -->
<!--  polyline  -->
<polyline points="473,13064
605,13064
" style="stroke:#ffffff;stroke-width:7;
stroke-linejoin:miter; stroke-linecap:butt;
"/>
<!-- Line -->
<!--  polyline  -->
<polyline points="721,13018
721,12930
633,13014
633,13112
721,13018
" style="stroke:#02709f;stroke-width:0;
stroke-linejoin:miter; stroke-linecap:butt;
fill:#02709f;
"/>
<!-- Line -->
<!--  polyline  -->
<polyline points="721,13018
721,12930
633,13014
633,13112
721,13018
" style="stroke:#ffffff;stroke-width:7;
stroke-linejoin:miter; stroke-linecap:butt;
"/>
<!-- Line -->
<!--  polyline  -->
<polyline points="540,13192
540,13170
588,13104
588,13144
540,13192
" style="stroke:#02709f;stroke-width:0;
stroke-linejoin:miter; stroke-linecap:butt;
fill:#02709f;
"/>
<!-- Line -->
<!--  polyline  -->
<polyline points="540,13192
540,13170
588,13104
588,13144
540,13192
" style="stroke:#ffffff;stroke-width:7;
stroke-linejoin:miter; stroke-linecap:butt;
"/>
<!-- Line -->
<!--  polyline  -->
<polyline points="540,13170
540,13192
120,13192
120,13170
540,13170
" style="stroke:#02709f;stroke-width:0;
stroke-linejoin:miter; stroke-linecap:butt;
fill:#02709f;
"/>
<!-- Line -->
<!--  polyline  -->
<polyline points="540,13170
540,13192
120,13192
120,13170
540,13170
" style="stroke:#ffffff;stroke-width:7;
stroke-linejoin:miter; stroke-linecap:butt;
"/>
<!-- Line -->
<!--  polyline  -->
<polyline points="540,13170
121,13170
169,13104
588,13104
540,13170
" style="stroke:#02709f;stroke-width:0;
stroke-linejoin:miter; stroke-linecap:butt;
fill:#02709f;
"/>
<!-- Line -->
<!--  polyline  -->
<polyline points="540,13170
121,13170
169,13104
588,13104
540,13170
" style="stroke:#ffffff;stroke-width:7;
stroke-linejoin:miter; stroke-linecap:butt;
"/>
<!-- Line -->
<!--  polyline  -->
<polyline points="721,12930
197,12930
109,13013
633,13013
721,12930
" style="stroke:#02709f;stroke-width:0;
stroke-linejoin:miter; stroke-linecap:butt;
fill:#02709f;
"/>
<!-- Line -->
<!--  polyline  -->
<polyline points="721,12930
197,12930
109,13013
633,13013
721,12930
" style="stroke:#ffffff;stroke-width:7;
stroke-linejoin:miter; stroke-linecap:butt;
"/>
<!-- Line -->
<!--  polyline  -->
<polyline points="623,12931
271,12931
212,12986
564,12986
623,12931
" style="stroke:#02709f;stroke-width:0;
stroke-linejoin:miter; stroke-linecap:butt;
fill:#02709f;
"/>
<!-- Line -->
<!--  polyline  -->
<polyline points="623,12931
271,12931
212,12986
564,12986
623,12931
" style="stroke:#ffffff;stroke-width:7;
stroke-linejoin:miter; stroke-linecap:butt;
"/>
<!-- Line -->
<!--  polyline  -->
<polyline points="564,12965
564,12699
203,12699
203,12965
564,12965
" style="stroke:#02709f;stroke-width:0;
stroke-linejoin:miter; stroke-linecap:butt;
fill:#02709f;
"/>
<!-- Line -->
<!--  polyline  -->
<polyline points="564,12965
564,12699
203,12699
203,12965
564,12965
" style="stroke:#ffffff;stroke-width:7;
stroke-linejoin:miter; stroke-linecap:butt;
"/>
<!-- Line -->
<!--  spline  -->
<polyline points="233,12758
233,12757
234,12754
235,12748
236,12745
236,12744
237,12742
238,12740
240,12738
243,12735
246,12733
247,12732
248,12731
251,12730
254,12729
255,12729
256,12729
258,12728
259,12728
260,12728
260,12727
261,12727
262,12727
268,12727
276,12727
282,12727
283,12727
284,12727
288,12727
295,12727
305,12727
319,12727
337,12727
351,12727
361,12727
367,12727
370,12727
373,12727
379,12727
389,12727
404,12727
423,12727
433,12727
437,12727
441,12727
450,12727
465,12727
481,12727
490,12727
496,12727
498,12727
499,12727
500,12727
504,12728
510,12729
514,12730
515,12730
517,12731
519,12733
522,12735
525,12738
527,12741
528,12742
528,12743
529,12744
530,12747
531,12750
531,12751
531,12752
532,12753
532,12755
532,12757
532,12758
532,12759
532,12760
532,12763
532,12768
532,12771
532,12772
532,12773
532,12777
532,12784
532,12793
532,12806
532,12817
532,12824
532,12826
532,12829
532,12835
532,12847
532,12859
532,12865
532,12868
532,12870
532,12876
532,12885
532,12895
532,12901
532,12905
532,12907
532,12908
531,12910
530,12914
529,12916
529,12917
528,12918
527,12920
525,12922
523,12925
521,12927
519,12928
517,12929
515,12930
513,12931
512,12932
511,12932
509,12933
508,12933
508,12934
507,12934
506,12934
504,12934
503,12934
501,12934
500,12934
498,12934
494,12934
489,12934
483,12934
481,12934
479,12934
476,12934
469,12934
461,12934
458,12934
457,12934
454,12934
445,12934
435,12934
428,12934
422,12934
418,12934
417,12934
416,12934
409,12934
397,12934
386,12934
379,12934
378,12934
377,12934
374,12934
368,12934
361,12934
351,12934
340,12934
328,12934
323,12934
321,12934
316,12934
306,12934
296,12934
292,12934
291,12934
287,12934
280,12934
273,12934
269,12934
267,12934
265,12934
264,12934
261,12933
256,12932
253,12931
252,12931
250,12930
248,12929
246,12927
243,12925
241,12923
240,12922
239,12921
239,12920
237,12918
236,12916
235,12915
235,12914
234,12912
234,12911
233,12911
233,12910
233,12909
233,12908
233,12904
233,12895
233,12879
233,12858
233,12833
233,12809
233,12788
233,12772
233,12763
233,12759
233,12758
" style="stroke:#02709f;stroke-width:0;
stroke-linejoin:bevel; stroke-linecap:butt;
fill:#02709f;
"/>
<!-- Line -->
<!--  spline  -->
<polyline points="233,12758
233,12757
234,12754
235,12748
236,12745
236,12744
237,12742
238,12740
240,12738
243,12735
246,12733
247,12732
248,12731
251,12730
254,12729
255,12729
256,12729
258,12728
259,12728
260,12728
260,12727
261,12727
262,12727
268,12727
276,12727
282,12727
283,12727
284,12727
288,12727
295,12727
305,12727
319,12727
337,12727
351,12727
361,12727
367,12727
370,12727
373,12727
379,12727
389,12727
404,12727
423,12727
433,12727
437,12727
441,12727
450,12727
465,12727
481,12727
490,12727
496,12727
498,12727
499,12727
500,12727
504,12728
510,12729
514,12730
515,12730
517,12731
519,12733
522,12735
525,12738
527,12741
528,12742
528,12743
529,12744
530,12747
531,12750
531,12751
531,12752
532,12753
532,12755
532,12757
532,12758
532,12759
532,12760
532,12763
532,12768
532,12771
532,12772
532,12773
532,12777
532,12784
532,12793
532,12806
532,12817
532,12824
532,12826
532,12829
532,12835
532,12847
532,12859
532,12865
532,12868
532,12870
532,12876
532,12885
532,12895
532,12901
532,12905
532,12907
532,12908
531,12910
530,12914
529,12916
529,12917
528,12918
527,12920
525,12922
523,12925
521,12927
519,12928
517,12929
515,12930
513,12931
512,12932
511,12932
509,12933
508,12933
508,12934
507,12934
506,12934
504,12934
503,12934
501,12934
500,12934
498,12934
494,12934
489,12934
483,12934
481,12934
479,12934
476,12934
469,12934
461,12934
458,12934
457,12934
454,12934
445,12934
435,12934
428,12934
422,12934
418,12934
417,12934
416,12934
409,12934
397,12934
386,12934
379,12934
378,12934
377,12934
374,12934
368,12934
361,12934
351,12934
340,12934
328,12934
323,12934
321,12934
316,12934
306,12934
296,12934
292,12934
291,12934
287,12934
280,12934
273,12934
269,12934
267,12934
265,12934
264,12934
261,12933
256,12932
253,12931
252,12931
250,12930
248,12929
246,12927
243,12925
241,12923
240,12922
239,12921
239,12920
237,12918
236,12916
235,12915
235,12914
234,12912
234,12911
233,12911
233,12910
233,12909
233,12908
233,12904
233,12895
233,12879
233,12858
233,12833
233,12809
233,12788
233,12772
233,12763
233,12759
233,12758
" style="stroke:#ffffff;stroke-width:7;
stroke-linejoin:bevel; stroke-linecap:butt;
"/>
<!-- Line -->
<!--  polyline  -->
<polyline points="625,12642
263,12642
203,12699
564,12699
625,12642
" style="stroke:#02709f;stroke-width:0;
stroke-linejoin:miter; stroke-linecap:butt;
fill:#02709f;
"/>
<!-- Line -->
<!--  polyline  -->
<polyline points="625,12642
263,12642
203,12699
564,12699
625,12642
" style="stroke:#ffffff;stroke-width:7;
stroke-linejoin:miter; stroke-linecap:butt;
"/>
<!-- Line -->
<!--  polyline  -->
<polyline points="625,12908
625,12642
565,12699
565,12965
625,12908
" style="stroke:#02709f;stroke-width:0;
stroke-linejoin:miter; stroke-linecap:butt;
fill:#02709f;
"/>
<!-- Line -->
<!--  polyline  -->
<polyline points="625,12908
625,12642
565,12699
565,12965
625,12908
" style="stroke:#ffffff;stroke-width:7;
stroke-linejoin:miter; stroke-linecap:butt;
"/>
<!-- Line -->
<!--  polyline  -->
<polyline points="336,12515
328,12520
3,12520
12,12515
336,12515
" style="stroke:#000000;stroke-width:0;
stroke-linejoin:miter; stroke-linecap:butt;
fill:#000000;
"/>
<!-- Line -->
<!--  polyline  -->
<polyline points="336,12836
336,12515
328,12521
328,12844
336,12836
" style="stroke:#02709f;stroke-width:0;
stroke-linejoin:miter; stroke-linecap:butt;
fill:#02709f;
"/>
<!-- Line -->
<!--  polyline  -->
<polyline points="336,12836
336,12515
328,12521
328,12844
336,12836
" style="stroke:#ffffff;stroke-width:7;
stroke-linejoin:miter; stroke-linecap:butt;
"/>
<!-- Line -->
<!--  polyline  -->
<polyline points="18,12844
328,12844
328,12520
3,12520
3,12829
18,12844
" style="stroke:#02709f;stroke-width:0;
stroke-linejoin:miter; stroke-linecap:butt;
fill:#02709f;
"/>
<!-- Line -->
<!--  polyline  -->
<polyline points="18,12844
328,12844
328,12520
3,12520
3,12829
18,12844
" style="stroke:#ffffff;stroke-width:7;
stroke-linejoin:miter; stroke-linecap:butt;
"/>
<!-- Line -->
<!--  spline  -->
<polyline points="303,12520
303,12521
303,12526
303,12537
303,12557
303,12583
303,12614
303,12644
303,12670
303,12690
303,12701
303,12706
303,12707
303,12709
302,12711
302,12713
302,12714
301,12715
300,12716
299,12717
298,12718
297,12718
296,12718
295,12718
294,12718
293,12718
292,12718
291,12718
287,12718
277,12718
259,12718
233,12718
201,12718
165,12718
129,12718
97,12718
71,12718
53,12718
43,12718
39,12718
38,12718
37,12718
36,12718
35,12718
34,12718
33,12718
33,12717
32,12717
31,12716
30,12715
30,12714
29,12713
29,12711
28,12710
28,12709
28,12708
28,12707
28,12702
28,12691
28,12671
28,12645
28,12614
28,12583
28,12557
28,12537
28,12526
28,12521
28,12520
" style="stroke:#02709f;stroke-width:0;
stroke-linejoin:bevel; stroke-linecap:butt;
fill:#02709f;
"/>
<!-- Line -->
<!--  spline  -->
<polyline points="303,12520
303,12521
303,12526
303,12537
303,12557
303,12583
303,12614
303,12644
303,12670
303,12690
303,12701
303,12706
303,12707
303,12709
302,12711
302,12713
302,12714
301,12715
300,12716
299,12717
298,12718
297,12718
296,12718
295,12718
294,12718
293,12718
292,12718
291,12718
287,12718
277,12718
259,12718
233,12718
201,12718
165,12718
129,12718
97,12718
71,12718
53,12718
43,12718
39,12718
38,12718
37,12718
36,12718
35,12718
34,12718
33,12718
33,12717
32,12717
31,12716
30,12715
30,12714
29,12713
29,12711
28,12710
28,12709
28,12708
28,12707
28,12702
28,12691
28,12671
28,12645
28,12614
28,12583
28,12557
28,12537
28,12526
28,12521
28,12520
" style="stroke:#ffffff;stroke-width:7;
stroke-linejoin:bevel; stroke-linecap:butt;
"/>
<!-- Line -->
<!--  polyline  -->
<polyline points="23,12553
23,12538
8,12538
8,12553
23,12553
" style="stroke:#ffffff;stroke-width:7;
stroke-linejoin:miter; stroke-linecap:butt;
"/>
<!-- Line -->
<!--  polyline  -->
<polyline points="323,12553
323,12538
308,12538
308,12553
323,12553
" style="stroke:#ffffff;stroke-width:7;
stroke-linejoin:miter; stroke-linecap:butt;
"/>
<!-- Line -->
<!--  spline  -->
<polyline points="251,12750
251,12751
251,12758
251,12774
251,12796
251,12817
251,12833
251,12840
251,12841
250,12841
245,12841
233,12841
213,12841
186,12841
154,12841
123,12841
96,12841
76,12841
64,12841
59,12841
58,12841
58,12840
58,12832
58,12817
58,12795
58,12772
58,12757
58,12749
58,12748
58,12747
59,12745
59,12744
59,12743
60,12743
61,12742
62,12741
63,12740
64,12740
65,12740
66,12740
67,12740
68,12740
69,12740
70,12740
74,12740
85,12740
103,12740
127,12740
155,12740
183,12740
207,12740
225,12740
236,12740
240,12740
241,12740
243,12740
244,12741
246,12741
247,12741
247,12742
248,12742
249,12743
250,12744
250,12745
250,12746
250,12747
251,12748
251,12749
251,12750
" style="stroke:#ffffff;stroke-width:0;
stroke-linejoin:bevel; stroke-linecap:butt;
fill:#ffffff;
"/>
<!-- Line -->
<!--  spline  -->
<polyline points="251,12750
251,12751
251,12758
251,12774
251,12796
251,12817
251,12833
251,12840
251,12841
250,12841
245,12841
233,12841
213,12841
186,12841
154,12841
123,12841
96,12841
76,12841
64,12841
59,12841
58,12841
58,12840
58,12832
58,12817
58,12795
58,12772
58,12757
58,12749
58,12748
58,12747
59,12745
59,12744
59,12743
60,12743
61,12742
62,12741
63,12740
64,12740
65,12740
66,12740
67,12740
68,12740
69,12740
70,12740
74,12740
85,12740
103,12740
127,12740
155,12740
183,12740
207,12740
225,12740
236,12740
240,12740
241,12740
243,12740
244,12741
246,12741
247,12741
247,12742
248,12742
249,12743
250,12744
250,12745
250,12746
250,12747
251,12748
251,12749
251,12750
" style="stroke:#000000;stroke-width:7;
stroke-linejoin:bevel; stroke-linecap:butt;
"/>
<!-- Line -->
<!--  spline  -->
<polyline points="303,12844
303,12843
303,12835
303,12819
303,12797
303,12775
303,12759
303,12751
303,12750
303,12749
303,12748
303,12747
303,12746
303,12745
303,12744
302,12743
301,12742
300,12742
299,12741
297,12741
296,12740
294,12740
293,12740
292,12740
289,12740
279,12740
263,12740
241,12740
212,12740
181,12740
150,12740
121,12740
99,12740
83,12740
73,12740
70,12740
69,12740
68,12740
67,12740
66,12740
65,12740
64,12740
63,12740
62,12741
61,12742
60,12742
60,12743
59,12744
58,12745
58,12746
58,12747
58,12748
58,12749
58,12756
58,12772
58,12793
58,12814
58,12830
58,12837
58,12838
" style="stroke:#ffffff;stroke-width:7;
stroke-linejoin:bevel; stroke-linecap:butt;
"/>
<!-- Line -->
<!--  polyline  -->
<polyline points="133,12834
133,12746
95,12746
95,12834
133,12834
" style="stroke:#000000;stroke-width:0;
stroke-linejoin:miter; stroke-linecap:butt;
fill:#000000;
"/>
<!-- Line -->
<!--  polyline  -->
<polyline points="328,12521
336,12515
" style="stroke:#ffffff;stroke-width:7;
stroke-linejoin:miter; stroke-linecap:butt;
"/>
</g>
</svg>
