<?xml version="1.0" standalone="no"?>
<!DOCTYPE svg PUBLIC "-//W3C//DTD SVG 1.1//EN"
"http://www.w3.org/Graphics/SVG/1.1/DTD/svg11.dtd">
<!-- Creator: fig2dev Version 3.2 Patchlevel 5c -->
<!-- CreationDate: Fri Sep 14 10:46:42 2012 -->
<!-- Magnification: 1.000 -->
<svg xmlns="http://www.w3.org/2000/svg" width="0.4in" height="0.4in" viewBox="-8 12769 503 440">
<g style="stroke-width:.025in; fill:none">
<!-- Line -->
<!--  spline  -->
<polyline points="243,13111
245,13111
253,13109
269,13107
285,13105
293,13103
295,13103
296,13103
300,13101
307,13098
316,13094
327,13088
340,13079
352,13070
358,13065
360,13063
362,13061
367,13055
376,13043
384,13031
388,13024
390,13022
391,13019
394,13012
399,12998
403,12983
406,12970
407,12960
408,12951
408,12947
408,12946
408,12944
406,12936
403,12920
401,12904
399,12896
399,12894
399,12893
397,12889
394,12882
390,12873
385,12862
376,12849
367,12837
362,12831
360,12829
358,12827
352,12822
340,12813
328,12805
321,12800
319,12799
316,12797
309,12794
295,12789
280,12785
267,12783
257,12781
248,12781
244,12781
243,12781
241,12781
233,12783
217,12785
201,12787
193,12789
191,12789
190,12789
186,12791
178,12794
169,12798
158,12804
145,12813
133,12822
128,12827
126,12829
124,12831
119,12837
110,12849
102,12861
97,12868
96,12870
94,12873
91,12880
86,12894
82,12909
80,12922
78,12932
78,12941
78,12945
78,12946
78,12948
80,12956
82,12972
84,12988
86,12996
86,12998
86,12999
88,13003
91,13010
95,13019
101,13030
110,13043
119,13055
124,13061
126,13063
128,13065
133,13070
145,13079
157,13087
164,13092
167,13093
169,13095
177,13098
191,13103
206,13107
219,13109
229,13111
238,13111
242,13111
243,13111
" style="stroke:#02709f;stroke-width:0;
stroke-linejoin:bevel; stroke-linecap:butt;
fill:#02709f;
"/>
<!-- Line -->
<!--  spline  -->
<polyline points="243,13111
245,13111
253,13109
269,13107
285,13105
293,13103
295,13103
296,13103
300,13101
307,13098
316,13094
327,13088
340,13079
352,13070
358,13065
360,13063
362,13061
367,13055
376,13043
384,13031
388,13024
390,13022
391,13019
394,13012
399,12998
403,12983
406,12970
407,12960
408,12951
408,12947
408,12946
408,12944
406,12936
403,12920
401,12904
399,12896
399,12894
399,12893
397,12889
394,12882
390,12873
385,12862
376,12849
367,12837
362,12831
360,12829
358,12827
352,12822
340,12813
328,12805
321,12800
319,12799
316,12797
309,12794
295,12789
280,12785
267,12783
257,12781
248,12781
244,12781
243,12781
241,12781
233,12783
217,12785
201,12787
193,12789
191,12789
190,12789
186,12791
178,12794
169,12798
158,12804
145,12813
133,12822
128,12827
126,12829
124,12831
119,12837
110,12849
102,12861
97,12868
96,12870
94,12873
91,12880
86,12894
82,12909
80,12922
78,12932
78,12941
78,12945
78,12946
78,12948
80,12956
82,12972
84,12988
86,12996
86,12998
86,12999
88,13003
91,13010
95,13019
101,13030
110,13043
119,13055
124,13061
126,13063
128,13065
133,13070
145,13079
157,13087
164,13092
167,13093
169,13095
177,13098
191,13103
206,13107
219,13109
229,13111
238,13111
242,13111
243,13111
" style="stroke:#ffffff;stroke-width:7;
stroke-linejoin:bevel; stroke-linecap:butt;
"/>
<!-- Line -->
<!--  spline  -->
<polyline points="4,13196
5,13193
6,13185
8,13172
11,13154
15,13129
20,13100
26,13069
31,13037
36,13008
40,12983
43,12965
45,12952
46,12944
47,12941
47,12943
49,12953
52,12973
55,12992
57,13002
57,13004
57,13005
59,13010
63,13019
68,13029
75,13042
85,13058
96,13072
102,13079
104,13082
107,13084
114,13090
128,13101
143,13111
150,13116
153,13118
156,13119
165,13123
182,13129
201,13134
216,13137
228,13138
238,13139
244,13139
245,13139
247,13139
257,13137
276,13134
295,13131
305,13129
307,13129
308,13129
313,13127
322,13123
333,13118
346,13111
362,13101
376,13090
383,13084
385,13082
387,13079
393,13072
404,13058
414,13043
419,13036
421,13033
422,13030
426,13021
432,13004
437,12985
440,12970
442,12958
443,12948
443,12942
443,12941
444,12944
445,12952
447,12965
450,12984
454,13008
458,13037
463,13069
468,13101
472,13130
476,13154
479,13173
481,13186
482,13194
483,13197
480,13197
472,13197
459,13197
439,13197
411,13197
377,13197
336,13197
291,13197
243,13196
196,13196
151,13196
110,13196
76,13196
48,13196
28,13196
15,13196
7,13196
4,13196
" style="stroke:#02709f;stroke-width:0;
stroke-linejoin:bevel; stroke-linecap:butt;
fill:#02709f;
"/>
<!-- Line -->
<!--  spline  -->
<polyline points="4,13196
5,13193
6,13185
8,13172
11,13154
15,13129
20,13100
26,13069
31,13037
36,13008
40,12983
43,12965
45,12952
46,12944
47,12941
47,12943
49,12953
52,12973
55,12992
57,13002
57,13004
57,13005
59,13010
63,13019
68,13029
75,13042
85,13058
96,13072
102,13079
104,13082
107,13084
114,13090
128,13101
143,13111
150,13116
153,13118
156,13119
165,13123
182,13129
201,13134
216,13137
228,13138
238,13139
244,13139
245,13139
247,13139
257,13137
276,13134
295,13131
305,13129
307,13129
308,13129
313,13127
322,13123
333,13118
346,13111
362,13101
376,13090
383,13084
385,13082
387,13079
393,13072
404,13058
414,13043
419,13036
421,13033
422,13030
426,13021
432,13004
437,12985
440,12970
442,12958
443,12948
443,12942
443,12941
444,12944
445,12952
447,12965
450,12984
454,13008
458,13037
463,13069
468,13101
472,13130
476,13154
479,13173
481,13186
482,13194
483,13197
480,13197
472,13197
459,13197
439,13197
411,13197
377,13197
336,13197
291,13197
243,13196
196,13196
151,13196
110,13196
76,13196
48,13196
28,13196
15,13196
7,13196
4,13196
" style="stroke:#ffffff;stroke-width:7;
stroke-linejoin:bevel; stroke-linecap:butt;
"/>
<!-- Line -->
<!--  polyline  -->
<polyline points="355,12989
355,12914
130,12914
130,12989
355,12989
" style="stroke:#02709f;stroke-width:0;
stroke-linejoin:miter; stroke-linecap:butt;
fill:#02709f;
"/>
<!-- Line -->
<!--  polyline  -->
<polyline points="355,12989
355,12914
130,12914
130,12989
355,12989
" style="stroke:#ffffff;stroke-width:7;
stroke-linejoin:miter; stroke-linecap:butt;
"/>
</g>
</svg>
