<?xml version="1.0" standalone="no"?>
<!DOCTYPE svg PUBLIC "-//W3C//DTD SVG 1.1//EN"
"http://www.w3.org/Graphics/SVG/1.1/DTD/svg11.dtd">
<!-- Creator: fig2dev Version 3.2 Patchlevel 5c -->
<!-- CreationDate: Fri Sep 14 10:46:42 2012 -->
<!-- Magnification: 1.000 -->
<svg xmlns="http://www.w3.org/2000/svg" width="0.5in" height="0.7in" viewBox="-9 12420 571 790">
<g style="stroke-width:.025in; fill:none">
<!-- Line -->
<!--  spline  -->
<polyline points="443,12488
445,12486
446,12482
448,12480
449,12479
450,12478
451,12477
452,12475
453,12474
453,12473
454,12472
455,12471
456,12470
457,12469
457,12468
458,12468
458,12467
459,12466
463,12462
470,12453
477,12445
481,12441
482,12440
483,12440
486,12438
491,12435
497,12433
504,12432
509,12433
512,12433
512,12434
513,12434
515,12436
518,12440
521,12445
522,12448
523,12449
523,12451
523,12454
523,12462
521,12472
518,12481
515,12488
513,12492
513,12493
512,12494
509,12500
505,12510
502,12516
501,12517
501,12518
500,12520
498,12524
496,12529
493,12534
491,12538
490,12540
489,12541
487,12544
485,12547
485,12548
485,12549
484,12550
483,12553
481,12556
480,12558
479,12560
478,12561
477,12562
475,12566
471,12573
469,12577
468,12578
467,12581
465,12585
462,12590
459,12596
456,12602
454,12604
454,12605
452,12607
449,12613
446,12619
445,12621
445,12622
444,12624
441,12629
438,12634
436,12638
435,12641
434,12643
" style="stroke:#000000;stroke-width:7;
stroke-linejoin:bevel; stroke-linecap:butt;
"/>
<!-- Line -->
<!--  spline  -->
<polyline points="485,12550
486,12549
490,12545
497,12536
504,12528
508,12524
509,12523
510,12523
513,12521
517,12518
523,12516
530,12515
535,12516
538,12516
539,12517
540,12517
542,12519
545,12523
548,12528
549,12530
550,12532
550,12533
550,12537
550,12544
548,12554
546,12562
543,12569
541,12573
541,12574
540,12575
538,12581
533,12591
531,12597
530,12598
528,12601
526,12604
524,12609
521,12614
519,12618
518,12620
517,12622
515,12625
513,12628
513,12629
512,12629
512,12630
510,12633
508,12636
507,12639
506,12641
505,12642
505,12643
503,12647
500,12653
498,12657
498,12658
497,12659
496,12662
495,12664
494,12667
493,12670
492,12671
492,12672
491,12674
490,12676
490,12677
489,12678
488,12681
486,12685
485,12688
484,12690
483,12692
" style="stroke:#000000;stroke-width:7;
stroke-linejoin:bevel; stroke-linecap:butt;
"/>
<!-- Line -->
<!--  spline  -->
<polyline points="399,12564
401,12562
403,12558
405,12556
406,12555
407,12554
408,12552
410,12549
412,12546
413,12544
414,12542
416,12538
418,12534
419,12532
420,12531
421,12529
424,12523
428,12515
432,12509
435,12503
437,12500
437,12499
438,12497
440,12489
445,12478
447,12470
448,12468
448,12467
448,12464
448,12458
447,12452
444,12446
441,12442
439,12440
438,12439
437,12439
434,12439
429,12438
422,12439
420,12439
418,12439
415,12441
407,12446
399,12452
393,12458
388,12464
384,12469
381,12471
381,12472
380,12473
376,12479
369,12489
363,12499
359,12505
358,12506
357,12507
355,12510
351,12516
346,12523
340,12532
335,12539
333,12542
332,12543
331,12546
326,12552
322,12558
320,12560
319,12561
317,12563
313,12569
308,12575
304,12579
301,12583
299,12585
298,12586
294,12593
287,12603
283,12610
282,12611
282,12612
280,12615
277,12620
273,12628
268,12638
261,12650
255,12662
251,12668
250,12671
249,12674
245,12680
239,12692
233,12704
229,12710
228,12713
227,12715
224,12721
218,12731
211,12742
205,12750
201,12755
198,12757
198,12758
196,12758
193,12759
191,12759
191,12757
191,12755
191,12751
192,12744
193,12737
194,12734
194,12732
195,12728
197,12720
199,12712
200,12708
200,12706
201,12703
202,12695
203,12687
204,12682
204,12678
204,12675
204,12674
203,12668
202,12658
201,12652
201,12651
201,12648
200,12645
200,12641
199,12636
198,12632
198,12631
198,12630
197,12628
196,12626
196,12625
195,12624
194,12621
193,12618
192,12616
191,12613
191,12612
191,12611
189,12609
187,12604
185,12602
185,12601
183,12599
181,12596
177,12593
173,12589
169,12586
167,12584
165,12583
161,12581
157,12580
155,12579
154,12579
152,12579
149,12580
146,12582
144,12585
143,12588
142,12590
141,12592
141,12595
140,12597
140,12598
139,12599
139,12601
139,12603
139,12605
140,12605
140,12607
140,12609
140,12610
141,12610
141,12611
141,12613
141,12616
142,12618
142,12620
142,12621
142,12622
143,12624
143,12625
143,12626
142,12627
142,12629
141,12631
141,12632
141,12633
140,12636
140,12639
139,12641
139,12643
139,12648
139,12654
139,12659
140,12664
140,12666
140,12667
140,12668
139,12673
137,12679
136,12684
136,12685
136,12686
135,12689
133,12694
131,12701
127,12710
123,12719
122,12723
121,12725
119,12729
115,12738
111,12747
109,12751
108,12752
107,12756
103,12764
99,12772
97,12778
95,12783
94,12785
94,12786
94,12788
91,12796
88,12807
85,12815
85,12817
85,12818
85,12821
84,12826
84,12832
84,12840
85,12847
85,12849
85,12850
86,12853
87,12859
88,12865
88,12868
89,12868
89,12871
89,12878
89,12887
88,12894
88,12900
87,12904
87,12905
87,12906
86,12913
84,12924
83,12931
83,12932
83,12935
82,12939
82,12943
82,12948
82,12952
82,12953
83,12953
83,12954
83,12957
83,12960
83,12961
82,12964
81,12968
80,12971
79,12973
78,12975
77,12976
75,12982
70,12990
68,12996
67,12997
65,13000
63,13005
59,13011
55,13019
49,13029
43,13039
40,13044
39,13046
38,13048
35,13054
29,13063
23,13073
20,13078
19,13080
17,13084
12,13092
8,13100
5,13105
4,13108
3,13110
" style="stroke:#000000;stroke-width:7;
stroke-linejoin:bevel; stroke-linecap:butt;
"/>
<!-- Line -->
<!--  spline  -->
<polyline points="216,12786
217,12787
220,12792
226,12801
229,12806
230,12807
230,12808
231,12812
231,12818
232,12827
232,12839
231,12850
231,12855
230,12857
230,12862
228,12873
226,12883
225,12888
225,12890
224,12894
222,12901
221,12907
220,12910
219,12911
219,12912
" style="stroke:#000000;stroke-width:7;
stroke-linejoin:bevel; stroke-linecap:butt;
"/>
<!-- Line -->
<!--  spline  -->
<polyline points="200,12778
199,12776
197,12775
196,12773
195,12772
195,12771
194,12770
193,12768
192,12767
192,12766
192,12765
192,12764
192,12763
191,12763
191,12762
191,12761
" style="stroke:#000000;stroke-width:7;
stroke-linejoin:bevel; stroke-linecap:butt;
"/>
<!-- Line -->
<!--  polyline  -->
<polyline points="96,12862
359,12862
529,12552
278,12552
96,12862
" style="stroke:#00aad7;stroke-width:0;
stroke-linejoin:miter; stroke-linecap:butt;
fill:#00aad7;
"/>
<!-- Line -->
<!--  polyline  -->
<polyline points="96,12862
359,12862
529,12552
278,12552
96,12862
" style="stroke:#ffffff;stroke-width:7;
stroke-linejoin:round; stroke-linecap:round;
"/>
<!-- Line -->
<!--  polyline  -->
<polyline points="96,12862
96,12914
359,12914
359,12862
96,12862
" style="stroke:#00aad7;stroke-width:0;
stroke-linejoin:round; stroke-linecap:round;
fill:#00aad7;
"/>
<!-- Line -->
<!--  polyline  -->
<polyline points="96,12862
96,12914
359,12914
359,12862
96,12862
" style="stroke:#ffffff;stroke-width:7;
stroke-linejoin:round; stroke-linecap:round;
"/>
<!-- Line -->
<!--  polyline  -->
<polyline points="529,12552
529,12600
359,12914
359,12862
529,12552
" style="stroke:#00aad7;stroke-width:0;
stroke-linejoin:round; stroke-linecap:round;
fill:#00aad7;
"/>
<!-- Line -->
<!--  polyline  -->
<polyline points="529,12552
529,12600
359,12914
359,12862
529,12552
" style="stroke:#ffffff;stroke-width:7;
stroke-linejoin:round; stroke-linecap:round;
"/>
<!-- Line -->
<!--  polyline  -->
<polyline points="485,12583
373,12791
167,12791
287,12583
485,12583
" style="stroke:#ffffff;stroke-width:0;
stroke-linejoin:round; stroke-linecap:round;
fill:#ffffff;
"/>
<!-- Line -->
<!--  polyline  -->
<polyline points="485,12583
373,12791
167,12791
287,12583
485,12583
" style="stroke:#ffffff;stroke-width:7;
stroke-linejoin:round; stroke-linecap:round;
"/>
<!-- Line -->
<!--  polyline  -->
<polyline points="177,12820
165,12842
141,12842
154,12820
177,12820
" style="stroke:#ffffff;stroke-width:0;
stroke-linejoin:round; stroke-linecap:round;
fill:#ffffff;
"/>
<!-- Line -->
<!--  polyline  -->
<polyline points="177,12820
165,12842
141,12842
154,12820
177,12820
" style="stroke:#ffffff;stroke-width:7;
stroke-linejoin:round; stroke-linecap:round;
"/>
<!-- Line -->
<!--  polyline  -->
<polyline points="360,12820
347,12842
324,12842
337,12820
360,12820
" style="stroke:#ffffff;stroke-width:0;
stroke-linejoin:round; stroke-linecap:round;
fill:#ffffff;
"/>
<!-- Line -->
<!--  polyline  -->
<polyline points="360,12820
347,12842
324,12842
337,12820
360,12820
" style="stroke:#ffffff;stroke-width:7;
stroke-linejoin:round; stroke-linecap:round;
"/>
<!-- Line -->
<!--  polyline  -->
<polyline points="314,12820
302,12842
278,12842
291,12820
314,12820
" style="stroke:#ffffff;stroke-width:0;
stroke-linejoin:round; stroke-linecap:round;
fill:#ffffff;
"/>
<!-- Line -->
<!--  polyline  -->
<polyline points="314,12820
302,12842
278,12842
291,12820
314,12820
" style="stroke:#ffffff;stroke-width:7;
stroke-linejoin:round; stroke-linecap:round;
"/>
<!-- Line -->
<!--  polyline  -->
<polyline points="267,12820
254,12842
231,12842
244,12820
267,12820
" style="stroke:#ffffff;stroke-width:0;
stroke-linejoin:round; stroke-linecap:round;
fill:#ffffff;
"/>
<!-- Line -->
<!--  polyline  -->
<polyline points="267,12820
254,12842
231,12842
244,12820
267,12820
" style="stroke:#ffffff;stroke-width:7;
stroke-linejoin:round; stroke-linecap:round;
"/>
<!-- Line -->
<!--  polyline  -->
<polyline points="222,12820
209,12842
186,12842
199,12820
222,12820
" style="stroke:#ffffff;stroke-width:0;
stroke-linejoin:round; stroke-linecap:round;
fill:#ffffff;
"/>
<!-- Line -->
<!--  polyline  -->
<polyline points="222,12820
209,12842
186,12842
199,12820
222,12820
" style="stroke:#ffffff;stroke-width:7;
stroke-linejoin:round; stroke-linecap:round;
"/>
<!-- Line -->
<!--  spline  -->
<polyline points="186,13198
187,13197
191,13191
196,13183
200,13177
201,13176
203,13173
206,13168
210,13162
216,13154
223,13143
230,13133
234,13127
236,13125
237,13122
241,13117
248,13107
256,13097
259,13092
260,13090
263,13086
269,13079
274,13073
277,13069
278,13068
279,13067
280,13066
288,13062
302,13053
316,13045
324,13041
325,13040
327,13038
331,13034
337,13028
343,13021
351,13013
360,13003
370,12990
380,12977
387,12968
390,12963
392,12961
393,12959
396,12954
403,12944
412,12931
421,12918
427,12909
430,12904
432,12902
433,12899
436,12895
441,12887
449,12875
459,12861
466,12850
472,12843
476,12837
478,12835
478,12834
480,12832
481,12828
483,12826
484,12825
485,12823
486,12821
488,12818
489,12815
490,12814
490,12813
491,12812
492,12809
493,12806
494,12805
494,12804
494,12803
495,12800
496,12797
497,12795
498,12794
498,12793
499,12791
499,12789
500,12787
501,12786
502,12783
504,12780
506,12776
508,12772
509,12770
509,12769
510,12767
512,12762
514,12757
515,12755
516,12754
517,12752
519,12748
522,12743
523,12740
525,12738
526,12736
526,12735
527,12730
530,12718
534,12702
537,12686
540,12674
541,12669
541,12668
541,12666
541,12656
542,12638
543,12621
543,12611
543,12609
542,12607
542,12605
541,12603
540,12601
539,12599
537,12596
534,12593
531,12591
530,12589
529,12589
528,12588
525,12588
522,12589
521,12589
520,12589
519,12589
518,12590
515,12595
512,12603
509,12611
507,12619
506,12624
506,12625
506,12626
504,12634
501,12648
498,12662
496,12670
496,12671
495,12673
494,12675
493,12677
492,12678
491,12680
489,12683
487,12686
485,12689
484,12691
483,12693
481,12696
479,12699
478,12700
478,12701
477,12702
475,12705
473,12708
472,12710
471,12712
471,12713
470,12715
468,12719
467,12721
466,12723
464,12725
462,12728
459,12733
456,12737
455,12739
455,12740
454,12742
451,12747
448,12752
447,12754
447,12755
446,12757
444,12761
443,12766
442,12769
442,12771
442,12773
" style="stroke:#ffffff;stroke-width:0;
stroke-linejoin:bevel; stroke-linecap:round;
fill:#ffffff;
"/>
<!-- Line -->
<!--  spline  -->
<polyline points="186,13198
187,13197
191,13191
196,13183
200,13177
201,13176
203,13173
206,13168
210,13162
216,13154
223,13143
230,13133
234,13127
236,13125
237,13122
241,13117
248,13107
256,13097
259,13092
260,13090
263,13086
269,13079
274,13073
277,13069
278,13068
279,13067
280,13066
288,13062
302,13053
316,13045
324,13041
325,13040
327,13038
331,13034
337,13028
343,13021
351,13013
360,13003
370,12990
380,12977
387,12968
390,12963
392,12961
393,12959
396,12954
403,12944
412,12931
421,12918
427,12909
430,12904
432,12902
433,12899
436,12895
441,12887
449,12875
459,12861
466,12850
472,12843
476,12837
478,12835
478,12834
480,12832
481,12828
483,12826
484,12825
485,12823
486,12821
488,12818
489,12815
490,12814
490,12813
491,12812
492,12809
493,12806
494,12805
494,12804
494,12803
495,12800
496,12797
497,12795
498,12794
498,12793
499,12791
499,12789
500,12787
501,12786
502,12783
504,12780
506,12776
508,12772
509,12770
509,12769
510,12767
512,12762
514,12757
515,12755
516,12754
517,12752
519,12748
522,12743
523,12740
525,12738
526,12736
526,12735
527,12730
530,12718
534,12702
537,12686
540,12674
541,12669
541,12668
541,12666
541,12656
542,12638
543,12621
543,12611
543,12609
542,12607
542,12605
541,12603
540,12601
539,12599
537,12596
534,12593
531,12591
530,12589
529,12589
528,12588
525,12588
522,12589
521,12589
520,12589
519,12589
518,12590
515,12595
512,12603
509,12611
507,12619
506,12624
506,12625
506,12626
504,12634
501,12648
498,12662
496,12670
496,12671
495,12673
494,12675
493,12677
492,12678
491,12680
489,12683
487,12686
485,12689
484,12691
483,12693
481,12696
479,12699
478,12700
478,12701
477,12702
475,12705
473,12708
472,12710
471,12712
471,12713
470,12715
468,12719
467,12721
466,12723
464,12725
462,12728
459,12733
456,12737
455,12739
455,12740
454,12742
451,12747
448,12752
447,12754
447,12755
446,12757
444,12761
443,12766
442,12769
442,12771
442,12773
" style="stroke:#000000;stroke-width:7;
stroke-linejoin:bevel; stroke-linecap:butt;
"/>
</g>
</svg>
