<?xml version="1.0" standalone="no"?>
<!DOCTYPE svg PUBLIC "-//W3C//DTD SVG 1.1//EN"
"http://www.w3.org/Graphics/SVG/1.1/DTD/svg11.dtd">
<!-- Creator: fig2dev Version 3.2 Patchlevel 5c -->
<!-- CreationDate: Fri Sep 14 10:46:42 2012 -->
<!-- Magnification: 1.000 -->
<svg xmlns="http://www.w3.org/2000/svg" width="0.4in" height="0.3in" viewBox="-6 12809 525 394">
<g style="stroke-width:.025in; fill:none">
<!-- Line -->
<!--  polyline  -->
<polyline points="7,13190
7,13108
357,13108
357,13190
7,13190
" style="stroke:#02709f;stroke-width:0;
stroke-linejoin:miter; stroke-linecap:butt;
fill:#02709f;
"/>
<!-- Line -->
<!--  polyline  -->
<polyline points="7,13190
7,13108
357,13108
357,13190
7,13190
" style="stroke:#ffffff;stroke-width:7;
stroke-linejoin:miter; stroke-linecap:butt;
"/>
<!-- Line -->
<!--  polyline  -->
<polyline points="357,13108
6,13108
173,12867
507,12867
357,13108
" style="stroke:#02709f;stroke-width:0;
stroke-linejoin:miter; stroke-linecap:butt;
fill:#02709f;
"/>
<!-- Line -->
<!--  polyline  -->
<polyline points="357,13108
6,13108
173,12867
507,12867
357,13108
" style="stroke:#ffffff;stroke-width:7;
stroke-linejoin:miter; stroke-linecap:butt;
"/>
<!-- Line -->
<!--  polyline  -->
<polyline points="507,12867
507,13021
357,13191
357,13108
507,12867
" style="stroke:#02709f;stroke-width:0;
stroke-linejoin:miter; stroke-linecap:butt;
fill:#02709f;
"/>
<!-- Line -->
<!--  polyline  -->
<polyline points="507,12867
507,13021
357,13191
357,13108
507,12867
" style="stroke:#ffffff;stroke-width:7;
stroke-linejoin:miter; stroke-linecap:butt;
"/>
<!-- Line -->
<!--  polyline  -->
<polyline points="357,13108
507,12867
" style="stroke:#02709f;stroke-width:0;
stroke-linejoin:miter; stroke-linecap:butt;
fill:#02709f;
"/>
<!-- Line -->
<!--  polyline  -->
<polyline points="357,13108
507,12867
" style="stroke:#ffffff;stroke-width:7;
stroke-linejoin:miter; stroke-linecap:butt;
"/>
<!-- Line -->
<!--  spline  -->
<polyline points="283,12911
282,12912
279,12916
274,12921
271,12925
270,12926
268,12928
265,12932
261,12936
256,12942
251,12947
249,12950
248,12950
246,12953
242,12958
238,12964
236,12966
236,12967
234,12969
230,12975
226,12981
222,12986
220,12989
218,12992
218,12993
219,12998
219,13004
220,13009
220,13010
219,13011
215,13018
206,13032
194,13051
181,13070
172,13084
168,13091
167,13092
167,13090
166,13082
164,13065
162,13049
161,13041
161,13039
162,13038
165,13032
170,13020
175,13009
178,13003
179,13002
179,13001
182,12997
187,12989
194,12979
202,12967
214,12950
223,12937
230,12929
233,12924
235,12922
237,12919
240,12915
247,12906
257,12894
269,12879
276,12871
279,12868
281,12865
288,12858
298,12847
308,12837
315,12830
320,12826
323,12823
325,12821
325,12823
326,12832
328,12848
330,12864
331,12873
331,12875
330,12876
327,12880
319,12889
308,12902
297,12914
289,12923
286,12927
285,12928
285,12927
284,12923
284,12916
283,12912
283,12911
" style="stroke:#02709f;stroke-width:0;
stroke-linejoin:bevel; stroke-linecap:butt;
fill:#02709f;
"/>
<!-- Line -->
<!--  spline  -->
<polyline points="283,12911
282,12912
279,12916
274,12921
271,12925
270,12926
268,12928
265,12932
261,12936
256,12942
251,12947
249,12950
248,12950
246,12953
242,12958
238,12964
236,12966
236,12967
234,12969
230,12975
226,12981
222,12986
220,12989
218,12992
218,12993
219,12998
219,13004
220,13009
220,13010
219,13011
215,13018
206,13032
194,13051
181,13070
172,13084
168,13091
167,13092
167,13090
166,13082
164,13065
162,13049
161,13041
161,13039
162,13038
165,13032
170,13020
175,13009
178,13003
179,13002
179,13001
182,12997
187,12989
194,12979
202,12967
214,12950
223,12937
230,12929
233,12924
235,12922
237,12919
240,12915
247,12906
257,12894
269,12879
276,12871
279,12868
281,12865
288,12858
298,12847
308,12837
315,12830
320,12826
323,12823
325,12821
325,12823
326,12832
328,12848
330,12864
331,12873
331,12875
330,12876
327,12880
319,12889
308,12902
297,12914
289,12923
286,12927
285,12928
285,12927
284,12923
284,12916
283,12912
283,12911
" style="stroke:#ffffff;stroke-width:7;
stroke-linejoin:bevel; stroke-linecap:butt;
"/>
<!-- Line -->
<!--  polyline  -->
<polyline points="98,13039
92,13092
167,13092
161,13039
98,13039
" style="stroke:#02709f;stroke-width:0;
stroke-linejoin:miter; stroke-linecap:butt;
fill:#02709f;
"/>
<!-- Line -->
<!--  polyline  -->
<polyline points="98,13039
92,13092
167,13092
161,13039
98,13039
" style="stroke:#ffffff;stroke-width:7;
stroke-linejoin:miter; stroke-linecap:butt;
"/>
<!-- Line -->
<!--  spline  -->
<polyline points="325,12821
324,12822
320,12826
311,12834
303,12842
299,12846
298,12847
297,12848
294,12851
288,12858
280,12867
270,12878
257,12894
247,12906
240,12915
237,12919
235,12922
233,12924
230,12929
223,12937
214,12950
203,12966
197,12974
194,12978
192,12981
187,12988
179,13002
172,13015
167,13024
164,13031
162,13036
161,13039
159,13039
149,13039
129,13039
110,13039
100,13039
98,13039
99,13038
102,13032
107,13020
112,13009
115,13003
116,13002
117,13001
119,12997
124,12989
131,12979
140,12967
152,12950
161,12937
168,12929
171,12924
173,12922
175,12919
179,12915
185,12906
195,12894
207,12879
214,12871
216,12868
219,12865
225,12858
235,12847
245,12837
252,12830
256,12826
260,12823
262,12821
264,12821
274,12821
294,12821
313,12821
323,12821
325,12821
" style="stroke:#02709f;stroke-width:0;
stroke-linejoin:bevel; stroke-linecap:butt;
fill:#02709f;
"/>
<!-- Line -->
<!--  spline  -->
<polyline points="325,12821
324,12822
320,12826
311,12834
303,12842
299,12846
298,12847
297,12848
294,12851
288,12858
280,12867
270,12878
257,12894
247,12906
240,12915
237,12919
235,12922
233,12924
230,12929
223,12937
214,12950
203,12966
197,12974
194,12978
192,12981
187,12988
179,13002
172,13015
167,13024
164,13031
162,13036
161,13039
159,13039
149,13039
129,13039
110,13039
100,13039
98,13039
99,13038
102,13032
107,13020
112,13009
115,13003
116,13002
117,13001
119,12997
124,12989
131,12979
140,12967
152,12950
161,12937
168,12929
171,12924
173,12922
175,12919
179,12915
185,12906
195,12894
207,12879
214,12871
216,12868
219,12865
225,12858
235,12847
245,12837
252,12830
256,12826
260,12823
262,12821
264,12821
274,12821
294,12821
313,12821
323,12821
325,12821
" style="stroke:#ffffff;stroke-width:7;
stroke-linejoin:bevel; stroke-linecap:butt;
"/>
<!-- Line -->
<!--  polyline  -->
<polyline points="217,13080
290,12975
402,12975
336,13080
217,13080
" style="stroke:#02709f;stroke-width:0;
stroke-linejoin:miter; stroke-linecap:butt;
fill:#02709f;
"/>
<!-- Line -->
<!--  polyline  -->
<polyline points="217,13080
290,12975
402,12975
336,13080
217,13080
" style="stroke:#ffffff;stroke-width:7;
stroke-linejoin:miter; stroke-linecap:butt;
"/>
<!-- Line -->
<!--  polyline  -->
<polyline points="296,13080
365,12975
" style="stroke:#02709f;stroke-width:0;
stroke-linejoin:miter; stroke-linecap:butt;
fill:#02709f;
"/>
<!-- Line -->
<!--  polyline  -->
<polyline points="296,13080
365,12975
" style="stroke:#ffffff;stroke-width:7;
stroke-linejoin:miter; stroke-linecap:butt;
"/>
<!-- Line -->
<!--  polyline  -->
<polyline points="256,13080
328,12975
" style="stroke:#02709f;stroke-width:0;
stroke-linejoin:miter; stroke-linecap:butt;
fill:#02709f;
"/>
<!-- Line -->
<!--  polyline  -->
<polyline points="256,13080
328,12975
" style="stroke:#ffffff;stroke-width:7;
stroke-linejoin:miter; stroke-linecap:butt;
"/>
<!-- Line -->
<!--  polyline  -->
<polyline points="352,13054
235,13054
" style="stroke:#02709f;stroke-width:0;
stroke-linejoin:miter; stroke-linecap:butt;
fill:#02709f;
"/>
<!-- Line -->
<!--  polyline  -->
<polyline points="352,13054
235,13054
" style="stroke:#ffffff;stroke-width:7;
stroke-linejoin:miter; stroke-linecap:butt;
"/>
<!-- Line -->
<!--  polyline  -->
<polyline points="369,13028
254,13028
" style="stroke:#02709f;stroke-width:0;
stroke-linejoin:miter; stroke-linecap:butt;
fill:#02709f;
"/>
<!-- Line -->
<!--  polyline  -->
<polyline points="369,13028
254,13028
" style="stroke:#ffffff;stroke-width:7;
stroke-linejoin:miter; stroke-linecap:butt;
"/>
<!-- Line -->
<!--  polyline  -->
<polyline points="385,13001
272,13001
" style="stroke:#02709f;stroke-width:0;
stroke-linejoin:miter; stroke-linecap:butt;
fill:#02709f;
"/>
<!-- Line -->
<!--  polyline  -->
<polyline points="385,13001
272,13001
" style="stroke:#ffffff;stroke-width:7;
stroke-linejoin:miter; stroke-linecap:butt;
"/>
</g>
</svg>
