<?xml version="1.0" standalone="no"?>
<!DOCTYPE svg PUBLIC "-//W3C//DTD SVG 1.1//EN"
"http://www.w3.org/Graphics/SVG/1.1/DTD/svg11.dtd">
<!-- Creator: fig2dev Version 3.2 Patchlevel 5c -->
<!-- CreationDate: Fri Sep 14 10:46:42 2012 -->
<!-- Magnification: 1.000 -->
<svg xmlns="http://www.w3.org/2000/svg" width="0.5in" height="0.4in" viewBox="-9 12779 626 430">
<g style="stroke-width:.025in; fill:none">
<!-- Line -->
<!--  spline  -->
<polyline points="605,12908
605,12909
602,12915
597,12927
593,12938
590,12944
590,12945
590,12946
587,12948
581,12954
574,12960
563,12968
547,12977
534,12984
525,12988
520,12990
518,12991
515,12992
510,12994
499,12998
482,13003
464,13008
452,13011
446,13012
443,13013
440,13013
433,13014
419,13016
399,13019
377,13021
359,13023
343,13024
329,13024
317,13025
309,13025
305,13025
304,13025
303,13025
295,13024
279,13023
257,13022
234,13021
218,13020
210,13019
209,13019
208,13019
205,13018
197,13017
187,13016
175,13014
161,13011
145,13008
127,13003
110,12998
99,12994
93,12992
91,12991
88,12990
83,12988
74,12984
61,12977
46,12968
38,12964
36,12962
34,12960
28,12955
19,12945
11,12934
7,12925
5,12918
3,12912
3,12909
3,12908
3,12909
3,12913
3,12924
3,12942
3,12966
3,12994
3,13022
3,13046
3,13064
3,13075
3,13079
3,13080
3,13081
6,13087
11,13099
16,13110
19,13116
19,13117
19,13118
22,13120
27,13126
35,13132
45,13140
61,13149
74,13155
83,13160
88,13162
91,13163
93,13164
99,13165
110,13169
127,13174
144,13179
157,13182
163,13183
166,13184
169,13185
175,13186
189,13188
209,13191
231,13193
249,13195
265,13196
279,13197
291,13197
299,13197
303,13197
304,13197
305,13197
313,13196
329,13195
352,13194
374,13193
390,13192
398,13191
399,13191
400,13191
403,13190
411,13189
421,13188
434,13185
448,13182
464,13179
482,13174
499,13169
510,13165
515,13164
518,13163
520,13162
525,13160
534,13155
547,13149
562,13140
570,13136
573,13134
575,13132
581,13127
590,13117
598,13106
602,13097
604,13090
605,13084
605,13081
605,13080
605,13079
605,13075
605,13064
605,13046
605,13022
605,12994
605,12966
605,12942
605,12924
605,12913
605,12909
605,12908
" style="stroke:#026c9b;stroke-width:0;
stroke-linejoin:bevel; stroke-linecap:butt;
fill:#026c9b;
"/>
<!-- Line -->
<!--  spline  -->
<polyline points="605,12908
605,12909
602,12915
597,12927
593,12938
590,12944
590,12945
590,12946
587,12948
581,12954
574,12960
563,12968
547,12977
534,12984
525,12988
520,12990
518,12991
515,12992
510,12994
499,12998
482,13003
464,13008
452,13011
446,13012
443,13013
440,13013
433,13014
419,13016
399,13019
377,13021
359,13023
343,13024
329,13024
317,13025
309,13025
305,13025
304,13025
303,13025
295,13024
279,13023
257,13022
234,13021
218,13020
210,13019
209,13019
208,13019
205,13018
197,13017
187,13016
175,13014
161,13011
145,13008
127,13003
110,12998
99,12994
93,12992
91,12991
88,12990
83,12988
74,12984
61,12977
46,12968
38,12964
36,12962
34,12960
28,12955
19,12945
11,12934
7,12925
5,12918
3,12912
3,12909
3,12908
3,12909
3,12913
3,12924
3,12942
3,12966
3,12994
3,13022
3,13046
3,13064
3,13075
3,13079
3,13080
3,13081
6,13087
11,13099
16,13110
19,13116
19,13117
19,13118
22,13120
27,13126
35,13132
45,13140
61,13149
74,13155
83,13160
88,13162
91,13163
93,13164
99,13165
110,13169
127,13174
144,13179
157,13182
163,13183
166,13184
169,13185
175,13186
189,13188
209,13191
231,13193
249,13195
265,13196
279,13197
291,13197
299,13197
303,13197
304,13197
305,13197
313,13196
329,13195
352,13194
374,13193
390,13192
398,13191
399,13191
400,13191
403,13190
411,13189
421,13188
434,13185
448,13182
464,13179
482,13174
499,13169
510,13165
515,13164
518,13163
520,13162
525,13160
534,13155
547,13149
562,13140
570,13136
573,13134
575,13132
581,13127
590,13117
598,13106
602,13097
604,13090
605,13084
605,13081
605,13080
605,13079
605,13075
605,13064
605,13046
605,13022
605,12994
605,12966
605,12942
605,12924
605,12913
605,12909
605,12908
" style="stroke:#ffffff;stroke-width:7;
stroke-linejoin:bevel; stroke-linecap:butt;
"/>
<!-- Line -->
<!--  spline  -->
<polyline points="605,12908
605,12909
602,12915
597,12927
593,12938
590,12944
590,12945
590,12946
587,12948
581,12954
574,12960
563,12968
547,12977
534,12984
525,12988
520,12990
518,12991
515,12992
510,12994
499,12998
482,13003
464,13008
452,13011
446,13012
443,13013
440,13013
433,13014
419,13016
399,13019
377,13021
359,13023
343,13024
329,13024
317,13025
309,13025
305,13025
304,13025
303,13025
295,13024
279,13023
257,13022
234,13021
218,13020
210,13019
209,13019
208,13019
205,13018
197,13017
187,13016
175,13014
161,13011
145,13008
127,13003
110,12998
99,12994
93,12992
91,12991
88,12990
83,12988
74,12984
61,12977
46,12968
38,12964
36,12962
34,12960
28,12955
19,12945
11,12934
7,12925
5,12918
3,12912
3,12909
3,12908
3,12909
3,12913
3,12924
3,12942
3,12966
3,12994
3,13022
3,13046
3,13064
3,13075
3,13079
3,13080
3,13081
6,13087
11,13099
16,13110
19,13116
19,13117
19,13118
22,13120
27,13126
35,13132
45,13140
61,13149
74,13155
83,13160
88,13162
91,13163
93,13164
99,13165
110,13169
127,13174
144,13179
157,13182
163,13183
166,13184
169,13185
175,13186
189,13188
209,13191
231,13193
249,13195
265,13196
279,13197
291,13197
299,13197
303,13197
304,13197
305,13197
313,13196
329,13195
352,13194
374,13193
390,13192
398,13191
399,13191
400,13191
403,13190
411,13189
421,13188
434,13185
448,13182
464,13179
482,13174
499,13169
510,13165
515,13164
518,13163
520,13162
525,13160
534,13155
547,13149
562,13140
570,13136
573,13134
575,13132
581,13127
590,13117
598,13106
602,13097
604,13090
605,13084
605,13081
605,13080
605,13079
605,13075
605,13064
605,13046
605,13022
605,12994
605,12966
605,12942
605,12924
605,12913
605,12909
605,12908
" style="stroke:#026c9b;stroke-width:0;
stroke-linejoin:bevel; stroke-linecap:butt;
fill:#026c9b;
"/>
<!-- Line -->
<!--  spline  -->
<polyline points="605,12908
605,12909
602,12915
597,12927
593,12938
590,12944
590,12945
590,12946
587,12948
581,12954
574,12960
563,12968
547,12977
534,12984
525,12988
520,12990
518,12991
515,12992
510,12994
499,12998
482,13003
464,13008
452,13011
446,13012
443,13013
440,13013
433,13014
419,13016
399,13019
377,13021
359,13023
343,13024
329,13024
317,13025
309,13025
305,13025
304,13025
303,13025
295,13024
279,13023
257,13022
234,13021
218,13020
210,13019
209,13019
208,13019
205,13018
197,13017
187,13016
175,13014
161,13011
145,13008
127,13003
110,12998
99,12994
93,12992
91,12991
88,12990
83,12988
74,12984
61,12977
46,12968
38,12964
36,12962
34,12960
28,12955
19,12945
11,12934
7,12925
5,12918
3,12912
3,12909
3,12908
3,12909
3,12913
3,12924
3,12942
3,12966
3,12994
3,13022
3,13046
3,13064
3,13075
3,13079
3,13080
3,13081
6,13087
11,13099
16,13110
19,13116
19,13117
19,13118
22,13120
27,13126
35,13132
45,13140
61,13149
74,13155
83,13160
88,13162
91,13163
93,13164
99,13165
110,13169
127,13174
144,13179
157,13182
163,13183
166,13184
169,13185
175,13186
189,13188
209,13191
231,13193
249,13195
265,13196
279,13197
291,13197
299,13197
303,13197
304,13197
305,13197
313,13196
329,13195
352,13194
374,13193
390,13192
398,13191
399,13191
400,13191
403,13190
411,13189
421,13188
434,13185
448,13182
464,13179
482,13174
499,13169
510,13165
515,13164
518,13163
520,13162
525,13160
534,13155
547,13149
562,13140
570,13136
573,13134
575,13132
581,13127
590,13117
598,13106
602,13097
604,13090
605,13084
605,13081
605,13080
605,13079
605,13075
605,13064
605,13046
605,13022
605,12994
605,12966
605,12942
605,12924
605,12913
605,12909
605,12908
" style="stroke:#ffffff;stroke-width:7;
stroke-linejoin:bevel; stroke-linecap:butt;
"/>
<!-- Line -->
<!--  spline  -->
<polyline points="304,13025
305,13025
313,13024
329,13023
352,13022
374,13021
390,13020
398,13019
399,13019
400,13019
403,13018
411,13017
421,13016
434,13014
448,13011
464,13008
482,13003
499,12998
510,12994
515,12992
518,12991
520,12990
525,12988
534,12984
547,12977
562,12968
570,12964
573,12962
575,12960
581,12955
590,12945
598,12934
602,12925
604,12918
605,12912
605,12909
605,12908
605,12907
602,12901
597,12889
593,12878
590,12872
590,12871
590,12870
587,12868
581,12862
574,12856
563,12848
547,12839
534,12833
525,12828
520,12826
518,12825
515,12824
510,12823
499,12819
482,12814
464,12809
452,12806
446,12805
443,12804
440,12803
433,12802
419,12800
399,12797
377,12795
359,12793
343,12792
329,12791
317,12791
309,12791
305,12791
304,12791
303,12791
295,12792
279,12793
257,12794
234,12795
218,12796
210,12797
209,12797
208,12797
205,12798
197,12799
187,12801
175,12803
161,12806
145,12809
127,12814
110,12819
99,12823
93,12824
91,12825
88,12826
83,12828
74,12833
61,12839
46,12848
38,12852
36,12854
34,12856
28,12861
19,12871
11,12882
7,12891
5,12898
3,12904
3,12907
3,12908
3,12909
6,12915
11,12927
16,12938
19,12944
19,12945
19,12946
22,12948
27,12954
35,12960
45,12968
61,12977
74,12984
83,12988
88,12990
91,12991
93,12992
99,12994
110,12998
127,13003
144,13008
157,13011
163,13012
166,13013
169,13013
175,13014
189,13016
209,13019
231,13021
249,13023
265,13024
279,13024
291,13025
299,13025
303,13025
304,13025
" style="stroke:#026c9b;stroke-width:0;
stroke-linejoin:bevel; stroke-linecap:butt;
fill:#026c9b;
"/>
<!-- Line -->
<!--  spline  -->
<polyline points="304,13025
305,13025
313,13024
329,13023
352,13022
374,13021
390,13020
398,13019
399,13019
400,13019
403,13018
411,13017
421,13016
434,13014
448,13011
464,13008
482,13003
499,12998
510,12994
515,12992
518,12991
520,12990
525,12988
534,12984
547,12977
562,12968
570,12964
573,12962
575,12960
581,12955
590,12945
598,12934
602,12925
604,12918
605,12912
605,12909
605,12908
605,12907
602,12901
597,12889
593,12878
590,12872
590,12871
590,12870
587,12868
581,12862
574,12856
563,12848
547,12839
534,12833
525,12828
520,12826
518,12825
515,12824
510,12823
499,12819
482,12814
464,12809
452,12806
446,12805
443,12804
440,12803
433,12802
419,12800
399,12797
377,12795
359,12793
343,12792
329,12791
317,12791
309,12791
305,12791
304,12791
303,12791
295,12792
279,12793
257,12794
234,12795
218,12796
210,12797
209,12797
208,12797
205,12798
197,12799
187,12801
175,12803
161,12806
145,12809
127,12814
110,12819
99,12823
93,12824
91,12825
88,12826
83,12828
74,12833
61,12839
46,12848
38,12852
36,12854
34,12856
28,12861
19,12871
11,12882
7,12891
5,12898
3,12904
3,12907
3,12908
3,12909
6,12915
11,12927
16,12938
19,12944
19,12945
19,12946
22,12948
27,12954
35,12960
45,12968
61,12977
74,12984
83,12988
88,12990
91,12991
93,12992
99,12994
110,12998
127,13003
144,13008
157,13011
163,13012
166,13013
169,13013
175,13014
189,13016
209,13019
231,13021
249,13023
265,13024
279,13024
291,13025
299,13025
303,13025
304,13025
" style="stroke:#ffffff;stroke-width:7;
stroke-linejoin:bevel; stroke-linecap:butt;
"/>
<!-- Line -->
<!--  polyline  -->
<polyline points="215,12973
215,12821
360,12895
215,12973
" style="stroke:#ffffff;stroke-width:0;
stroke-linejoin:miter; stroke-linecap:butt;
fill:#ffffff;
"/>
<!-- Line -->
<!--  polyline  -->
<polyline points="408,12966
408,12826
363,12826
363,12966
408,12966
" style="stroke:#ffffff;stroke-width:0;
stroke-linejoin:miter; stroke-linecap:butt;
fill:#ffffff;
"/>
</g>
</svg>
