<?xml version="1.0" standalone="no"?>
<!DOCTYPE svg PUBLIC "-//W3C//DTD SVG 1.1//EN"
"http://www.w3.org/Graphics/SVG/1.1/DTD/svg11.dtd">
<!-- Creator: fig2dev Version 3.2 Patchlevel 5c -->
<!-- CreationDate: Fri Sep 14 10:46:42 2012 -->
<!-- Magnification: 1.000 -->
<svg xmlns="http://www.w3.org/2000/svg" width="0.8in" height="0.5in" viewBox="4642 6293 989 624">
<g style="stroke-width:.025in; fill:none">
<!-- Line -->
<!--  polyline  -->
<polyline points="5544,6689
5602,6383
5158,6383
5092,6689
5544,6689
" style="stroke:#00acd8;stroke-width:0;
stroke-linejoin:miter; stroke-linecap:butt;
fill:#00acd8;
"/>
<!-- Line -->
<!--  polyline  -->
<polyline points="5544,6689
5602,6383
5158,6383
5092,6689
5544,6689
" style="stroke:#ffffff;stroke-width:7;
stroke-linejoin:miter; stroke-linecap:butt;
"/>
<!-- Line -->
<!--  polyline  -->
<polyline points="5602,6383
5619,6406
5565,6703
5544,6689
5602,6383
" style="stroke:#00acd8;stroke-width:0;
stroke-linejoin:miter; stroke-linecap:butt;
fill:#00acd8;
"/>
<!-- Line -->
<!--  polyline  -->
<polyline points="5602,6383
5619,6406
5565,6703
5544,6689
5602,6383
" style="stroke:#ffffff;stroke-width:7;
stroke-linejoin:miter; stroke-linecap:butt;
"/>
<!-- Line -->
<!--  polyline  -->
<polyline points="5092,6689
5112,6703
5565,6703
5544,6689
5092,6689
" style="stroke:#00acd8;stroke-width:0;
stroke-linejoin:miter; stroke-linecap:butt;
fill:#00acd8;
"/>
<!-- Line -->
<!--  polyline  -->
<polyline points="5092,6689
5112,6703
5565,6703
5544,6689
5092,6689
" style="stroke:#ffffff;stroke-width:7;
stroke-linejoin:miter; stroke-linecap:butt;
"/>
<!-- Line -->
<!--  spline  -->
<polyline points="5548,6710
5548,6711
5548,6719
5548,6733
5548,6747
5548,6755
5548,6756
5547,6757
5544,6759
5540,6763
5537,6765
5536,6766
5535,6766
5534,6767
5533,6767
5532,6767
5531,6768
5529,6769
5527,6770
5525,6771
5523,6772
5521,6773
5519,6775
5517,6777
5516,6778
5515,6779
5514,6782
5514,6785
5514,6787
5514,6790
5515,6791
5514,6791
5511,6794
5504,6802
5491,6813
5474,6829
5453,6848
5433,6867
5416,6883
5403,6894
5396,6902
5393,6905
5392,6905
5392,6903
5392,6895
5392,6880
5392,6865
5392,6857
5392,6855
5395,6852
5401,6846
5413,6836
5428,6821
5448,6803
5470,6782
5492,6762
5512,6744
5527,6729
5539,6719
5545,6713
5548,6710
" style="stroke:#00acd8;stroke-width:0;
stroke-linejoin:bevel; stroke-linecap:butt;
fill:#00acd8;
"/>
<!-- Line -->
<!--  spline  -->
<polyline points="5548,6710
5548,6711
5548,6719
5548,6733
5548,6747
5548,6755
5548,6756
5547,6757
5544,6759
5540,6763
5537,6765
5536,6766
5535,6766
5534,6767
5533,6767
5532,6767
5531,6768
5529,6769
5527,6770
5525,6771
5523,6772
5521,6773
5519,6775
5517,6777
5516,6778
5515,6779
5514,6782
5514,6785
5514,6787
5514,6790
5515,6791
5514,6791
5511,6794
5504,6802
5491,6813
5474,6829
5453,6848
5433,6867
5416,6883
5403,6894
5396,6902
5393,6905
5392,6905
5392,6903
5392,6895
5392,6880
5392,6865
5392,6857
5392,6855
5395,6852
5401,6846
5413,6836
5428,6821
5448,6803
5470,6782
5492,6762
5512,6744
5527,6729
5539,6719
5545,6713
5548,6710
" style="stroke:#ffffff;stroke-width:7;
stroke-linejoin:bevel; stroke-linecap:butt;
"/>
<!-- Line -->
<!--  polyline  -->
<polyline points="4902,6855
4902,6905
5392,6905
5392,6855
4902,6855
" style="stroke:#00acd8;stroke-width:0;
stroke-linejoin:miter; stroke-linecap:butt;
fill:#00acd8;
"/>
<!-- Line -->
<!--  polyline  -->
<polyline points="4902,6855
4902,6905
5392,6905
5392,6855
4902,6855
" style="stroke:#ffffff;stroke-width:7;
stroke-linejoin:miter; stroke-linecap:butt;
"/>
<!-- Line -->
<!--  polyline  -->
<polyline points="5098,6713
5548,6710
5392,6855
4902,6855
5098,6713
" style="stroke:#00acd8;stroke-width:0;
stroke-linejoin:miter; stroke-linecap:butt;
fill:#00acd8;
"/>
<!-- Line -->
<!--  polyline  -->
<polyline points="5098,6713
5548,6710
5392,6855
4902,6855
5098,6713
" style="stroke:#ffffff;stroke-width:7;
stroke-linejoin:miter; stroke-linecap:butt;
"/>
<!-- Line -->
<!--  polyline  -->
<polyline points="5506,6660
5552,6420
5191,6420
5145,6660
5506,6660
" style="stroke:#00acd8;stroke-width:0;
stroke-linejoin:miter; stroke-linecap:butt;
fill:#00acd8;
"/>
<!-- Line -->
<!--  polyline  -->
<polyline points="5506,6660
5552,6420
5191,6420
5145,6660
5506,6660
" style="stroke:#ffffff;stroke-width:7;
stroke-linejoin:miter; stroke-linecap:butt;
"/>
<!-- Line -->
<!--  polyline  -->
<polyline points="5108,6717
4995,6808
" style="stroke:#ffffff;stroke-width:7;
stroke-linejoin:round; stroke-linecap:butt;
"/>
<!-- Line -->
<!--  polyline  -->
<polyline points="5145,6717
5031,6808
" style="stroke:#ffffff;stroke-width:7;
stroke-linejoin:round; stroke-linecap:butt;
"/>
<!-- Line -->
<!--  polyline  -->
<polyline points="5181,6717
5068,6808
" style="stroke:#ffffff;stroke-width:7;
stroke-linejoin:round; stroke-linecap:butt;
"/>
<!-- Line -->
<!--  polyline  -->
<polyline points="5218,6717
5104,6808
" style="stroke:#ffffff;stroke-width:7;
stroke-linejoin:round; stroke-linecap:butt;
"/>
<!-- Line -->
<!--  polyline  -->
<polyline points="5254,6717
5140,6808
" style="stroke:#ffffff;stroke-width:7;
stroke-linejoin:round; stroke-linecap:butt;
"/>
<!-- Line -->
<!--  polyline  -->
<polyline points="5290,6717
5177,6808
" style="stroke:#ffffff;stroke-width:7;
stroke-linejoin:round; stroke-linecap:butt;
"/>
<!-- Line -->
<!--  polyline  -->
<polyline points="5327,6717
5213,6808
" style="stroke:#ffffff;stroke-width:7;
stroke-linejoin:round; stroke-linecap:butt;
"/>
<!-- Line -->
<!--  polyline  -->
<polyline points="5363,6717
5250,6808
" style="stroke:#ffffff;stroke-width:7;
stroke-linejoin:round; stroke-linecap:butt;
"/>
<!-- Line -->
<!--  polyline  -->
<polyline points="5400,6717
5286,6808
" style="stroke:#ffffff;stroke-width:7;
stroke-linejoin:round; stroke-linecap:butt;
"/>
<!-- Line -->
<!--  polyline  -->
<polyline points="5436,6717
5323,6808
" style="stroke:#ffffff;stroke-width:7;
stroke-linejoin:round; stroke-linecap:butt;
"/>
<!-- Line -->
<!--  polyline  -->
<polyline points="5473,6717
5359,6808
" style="stroke:#ffffff;stroke-width:7;
stroke-linejoin:round; stroke-linecap:butt;
"/>
<!-- Line -->
<!--  polyline  -->
<polyline points="5509,6717
5396,6808
" style="stroke:#ffffff;stroke-width:7;
stroke-linejoin:round; stroke-linecap:butt;
"/>
<!-- Line -->
<!--  polyline  -->
<polyline points="5007,6799
5412,6799
" style="stroke:#ffffff;stroke-width:7;
stroke-linejoin:round; stroke-linecap:butt;
"/>
<!-- Line -->
<!--  polyline  -->
<polyline points="5035,6778
5432,6778
" style="stroke:#ffffff;stroke-width:7;
stroke-linejoin:round; stroke-linecap:butt;
"/>
<!-- Line -->
<!--  polyline  -->
<polyline points="5063,6757
5460,6757
" style="stroke:#ffffff;stroke-width:7;
stroke-linejoin:round; stroke-linecap:butt;
"/>
<!-- Line -->
<!--  polyline  -->
<polyline points="5088,6736
5488,6736
" style="stroke:#ffffff;stroke-width:7;
stroke-linejoin:round; stroke-linecap:butt;
"/>
<!-- Line -->
<!--  spline  -->
<polyline points="5374,6480
5375,6481
5380,6485
5387,6491
5392,6495
5393,6496
5396,6499
5399,6503
5404,6508
5410,6515
5415,6521
5418,6524
5418,6525
5420,6528
5425,6534
5429,6540
5431,6543
5432,6544
5433,6547
5436,6553
5438,6559
5439,6564
5440,6567
5440,6569
5440,6570
5440,6573
5440,6578
5440,6581
5440,6582
5440,6583
5439,6586
5438,6588
5437,6591
5436,6594
5435,6595
5434,6596
5432,6598
5430,6600
5429,6601
5428,6601
5427,6601
5425,6603
5423,6605
5421,6606
5420,6607
5419,6608
5417,6609
5413,6610
5411,6611
5410,6612
5408,6612
5406,6613
5403,6614
5400,6615
5399,6615
5397,6615
5395,6615
5393,6615
5392,6616
5391,6616
5389,6616
5388,6616
5387,6616
5386,6615
5382,6611
5375,6602
5369,6593
5365,6589
5364,6588
5366,6588
5367,6588
5369,6588
5371,6588
5373,6587
5376,6586
5380,6585
5384,6583
5386,6583
5387,6582
5389,6581
5393,6579
5397,6576
5399,6575
5401,6574
5403,6570
5404,6565
5405,6562
5404,6558
5404,6556
5404,6555
5401,6550
5398,6541
5395,6536
5395,6535
5395,6534
5393,6531
5390,6526
5387,6519
5382,6510
5378,6502
5376,6499
5375,6497
5373,6494
5370,6488
5367,6482
5366,6480
5365,6479
5365,6477
5365,6475
5367,6475
5369,6476
5372,6478
5374,6480
" style="stroke:#ffffff;stroke-width:0;
stroke-linejoin:bevel; stroke-linecap:butt;
fill:#ffffff;
"/>
<!-- Line -->
<!--  polyline  -->
<polyline points="5381,6554
5406,6644
5349,6611
5381,6554
" style="stroke:#ffffff;stroke-width:0;
stroke-linejoin:miter; stroke-linecap:butt;
fill:#ffffff;
"/>
<!-- Line -->
<!--  spline  -->
<polyline points="5319,6616
5318,6615
5313,6611
5307,6605
5302,6601
5301,6600
5298,6597
5294,6593
5289,6588
5283,6581
5278,6575
5275,6572
5275,6571
5273,6568
5268,6562
5264,6556
5262,6553
5261,6552
5260,6549
5257,6543
5255,6537
5254,6532
5253,6529
5253,6527
5253,6526
5253,6523
5253,6518
5253,6515
5253,6514
5254,6513
5254,6510
5255,6508
5257,6505
5259,6502
5259,6501
5260,6500
5262,6498
5264,6496
5265,6495
5266,6495
5268,6493
5270,6491
5272,6490
5273,6489
5274,6488
5276,6487
5280,6485
5282,6484
5283,6484
5285,6483
5287,6483
5290,6482
5293,6481
5294,6481
5296,6480
5298,6480
5300,6480
5301,6480
5302,6480
5304,6480
5305,6480
5306,6480
5307,6481
5311,6485
5318,6494
5324,6503
5328,6507
5329,6508
5327,6508
5326,6508
5324,6508
5322,6508
5320,6509
5317,6510
5313,6511
5309,6513
5307,6513
5306,6514
5304,6515
5300,6517
5296,6520
5294,6521
5292,6522
5290,6526
5289,6531
5288,6534
5289,6538
5289,6540
5289,6541
5292,6546
5295,6555
5298,6560
5298,6561
5298,6562
5300,6565
5303,6570
5306,6577
5311,6586
5315,6594
5317,6597
5318,6599
5320,6602
5323,6608
5326,6614
5327,6616
5328,6617
5328,6619
5328,6621
5326,6621
5324,6620
5321,6618
5319,6616
" style="stroke:#ffffff;stroke-width:0;
stroke-linejoin:bevel; stroke-linecap:butt;
fill:#ffffff;
"/>
<!-- Line -->
<!--  polyline  -->
<polyline points="5313,6544
5289,6454
5346,6487
5313,6544
" style="stroke:#ffffff;stroke-width:0;
stroke-linejoin:miter; stroke-linecap:butt;
fill:#ffffff;
"/>
<!-- Line -->
<!--  spline  -->
<polyline points="5364,6376
5365,6376
5368,6376
5372,6375
5375,6375
5376,6375
5377,6374
5379,6373
5382,6371
5385,6369
5388,6367
5389,6366
5390,6366
5391,6365
5393,6362
5395,6359
5396,6358
5396,6357
5397,6356
5398,6352
5399,6348
5400,6345
5400,6343
5400,6341
5400,6340
5399,6337
5399,6333
5398,6330
5398,6329
5397,6327
5397,6325
5395,6322
5393,6319
5391,6316
5390,6315
5389,6315
5388,6314
5385,6312
5382,6310
5381,6309
5381,6308
5379,6307
5376,6306
5372,6305
5369,6305
5366,6305
5364,6305
5363,6305
5361,6305
5356,6306
5354,6306
5353,6306
5351,6307
5349,6308
5346,6310
5343,6312
5340,6314
5339,6315
5338,6315
5337,6316
5335,6319
5333,6322
5332,6323
5332,6324
5331,6325
5330,6329
5329,6333
5328,6336
5328,6339
5328,6341
5328,6342
5329,6344
5329,6349
5330,6351
5330,6352
5331,6354
5331,6356
5333,6359
5335,6362
5337,6365
5338,6366
5339,6366
5340,6367
5343,6369
5346,6371
5347,6372
5348,6373
5350,6374
5353,6375
5357,6376
5360,6376
5362,6376
5364,6376
" style="stroke:#00acd8;stroke-width:0;
stroke-linejoin:bevel; stroke-linecap:butt;
fill:#00acd8;
"/>
<!-- Line -->
<!--  spline  -->
<polyline points="5364,6376
5365,6376
5368,6376
5372,6375
5375,6375
5376,6375
5377,6374
5379,6373
5382,6371
5385,6369
5388,6367
5389,6366
5390,6366
5391,6365
5393,6362
5395,6359
5396,6358
5396,6357
5397,6356
5398,6352
5399,6348
5400,6345
5400,6343
5400,6341
5400,6340
5399,6337
5399,6333
5398,6330
5398,6329
5397,6327
5397,6325
5395,6322
5393,6319
5391,6316
5390,6315
5389,6315
5388,6314
5385,6312
5382,6310
5381,6309
5381,6308
5379,6307
5376,6306
5372,6305
5369,6305
5366,6305
5364,6305
5363,6305
5361,6305
5356,6306
5354,6306
5353,6306
5351,6307
5349,6308
5346,6310
5343,6312
5340,6314
5339,6315
5338,6315
5337,6316
5335,6319
5333,6322
5332,6323
5332,6324
5331,6325
5330,6329
5329,6333
5328,6336
5328,6339
5328,6341
5328,6342
5329,6344
5329,6349
5330,6351
5330,6352
5331,6354
5331,6356
5333,6359
5335,6362
5337,6365
5338,6366
5339,6366
5340,6367
5343,6369
5346,6371
5347,6372
5348,6373
5350,6374
5353,6375
5357,6376
5360,6376
5362,6376
5364,6376
" style="stroke:#ffffff;stroke-width:7;
stroke-linejoin:bevel; stroke-linecap:butt;
"/>
<!-- Line -->
<!--  spline  -->
<polyline points="5312,6395
5312,6393
5314,6384
5317,6367
5320,6350
5322,6341
5322,6339
5322,6340
5323,6343
5323,6349
5324,6352
5324,6353
5325,6355
5326,6358
5327,6361
5330,6365
5333,6368
5334,6370
5336,6371
5339,6374
5343,6376
5344,6377
5345,6378
5347,6378
5351,6380
5356,6381
5360,6382
5363,6382
5365,6382
5366,6382
5369,6381
5374,6381
5377,6380
5378,6380
5380,6379
5383,6378
5386,6377
5390,6374
5393,6371
5395,6370
5396,6368
5399,6365
5401,6361
5402,6360
5403,6359
5403,6357
5405,6353
5406,6348
5407,6344
5408,6341
5408,6339
5408,6341
5410,6350
5412,6367
5414,6384
5416,6393
5416,6395
5415,6395
5411,6395
5400,6395
5384,6395
5364,6395
5344,6395
5328,6395
5317,6395
5313,6395
5312,6395
" style="stroke:#00acd8;stroke-width:0;
stroke-linejoin:bevel; stroke-linecap:butt;
fill:#00acd8;
"/>
<!-- Line -->
<!--  polyline  -->
<polyline points="5389,6350
5389,6334
5340,6334
5340,6350
5389,6350
" style="stroke:#ffffff;stroke-width:0;
stroke-linejoin:miter; stroke-linecap:butt;
fill:#ffffff;
"/>
<!-- Line -->
<!--  spline  -->
<polyline points="4711,6792
4711,6794
4712,6795
4712,6797
4712,6798
4712,6799
4712,6801
4712,6803
4712,6805
4711,6805
4711,6806
4710,6808
4709,6810
4708,6810
4708,6811
4707,6812
4706,6813
4704,6814
4703,6815
4702,6816
4701,6816
4699,6816
4697,6817
4695,6817
4694,6817
4693,6817
4692,6817
4690,6817
4688,6817
4687,6816
4686,6816
4684,6815
4682,6814
4682,6813
4681,6812
4680,6811
4679,6809
4678,6808
4677,6807
4677,6806
4676,6804
4676,6803
4675,6801
4675,6800
4675,6799
4676,6797
4676,6795
4677,6793
4677,6792
4678,6790
4679,6788
4679,6787
4680,6786
4681,6785
4683,6784
4684,6783
4685,6782
4686,6782
4688,6782
4690,6781
4692,6781
4693,6781
4694,6781
4696,6781
4698,6781
4700,6781
4701,6782
4703,6783
4704,6784
4705,6785
4706,6786
4707,6787
4708,6789
4710,6790
4710,6791
4711,6792
" style="stroke:#000000;stroke-width:0;
stroke-linejoin:bevel; stroke-linecap:butt;
fill:#000000;
"/>
<!-- Line -->
<!--  spline  -->
<polyline points="4711,6792
4711,6794
4712,6795
4712,6797
4712,6798
4712,6799
4712,6801
4712,6803
4712,6805
4711,6805
4711,6806
4710,6808
4709,6810
4708,6810
4708,6811
4707,6812
4706,6813
4704,6814
4703,6815
4702,6816
4701,6816
4699,6816
4697,6817
4695,6817
4694,6817
4693,6817
4692,6817
4690,6817
4688,6817
4687,6816
4686,6816
4684,6815
4682,6814
4682,6813
4681,6812
4680,6811
4679,6809
4678,6808
4677,6807
4677,6806
4676,6804
4676,6803
4675,6801
4675,6800
4675,6799
4676,6797
4676,6795
4677,6793
4677,6792
4678,6790
4679,6788
4679,6787
4680,6786
4681,6785
4683,6784
4684,6783
4685,6782
4686,6782
4688,6782
4690,6781
4692,6781
4693,6781
4694,6781
4696,6781
4698,6781
4700,6781
4701,6782
4703,6783
4704,6784
4705,6785
4706,6786
4707,6787
4708,6789
4710,6790
4710,6791
4711,6792
" style="stroke:#ffffff;stroke-width:30;
stroke-linejoin:bevel; stroke-linecap:butt;
"/>
<!-- Line -->
<!--  spline  -->
<polyline points="5021,6689
5020,6690
5015,6694
5005,6702
4995,6709
4990,6713
4989,6714
4988,6714
4985,6716
4980,6720
4972,6725
4962,6731
4949,6738
4936,6745
4929,6749
4926,6750
4924,6752
4916,6756
4902,6762
4888,6768
4880,6771
4877,6772
4875,6773
4867,6776
4852,6781
4836,6786
4824,6790
4814,6793
4806,6796
4802,6797
4801,6797
4799,6797
4791,6799
4780,6802
4772,6804
4770,6804
4769,6804
4766,6805
4759,6805
4752,6806
4743,6807
4735,6807
4732,6807
4731,6807
4729,6807
4722,6807
4716,6807
4713,6806
4712,6806
4710,6806
4705,6805
4700,6803
4697,6802
4695,6800
4694,6799
" style="stroke:#ffffff;stroke-width:30;
stroke-linejoin:bevel; stroke-linecap:butt;
"/>
<!-- Line -->
<!--  spline  -->
<polyline points="4783,6690
4783,6689
4783,6684
4784,6676
4784,6671
4784,6670
4784,6667
4785,6663
4786,6658
4787,6650
4788,6643
4789,6640
4789,6639
4790,6635
4792,6628
4794,6621
4795,6618
4796,6616
4797,6613
4800,6606
4803,6598
4806,6592
4808,6587
4810,6585
4810,6584
4811,6582
4816,6574
4826,6559
4836,6544
4841,6536
4842,6534
4843,6533
4846,6530
4852,6523
4859,6514
4869,6505
4882,6494
4894,6485
4901,6480
4903,6478
4906,6477
4912,6473
4925,6467
4938,6462
4945,6459
4947,6458
4950,6458
4956,6457
4969,6455
4982,6454
4992,6455
5000,6457
5006,6458
5009,6459
5010,6459
5011,6460
5016,6463
5027,6470
5037,6476
5042,6479
5043,6480
5045,6483
5049,6488
5053,6494
5058,6503
5063,6515
5067,6527
5069,6533
5069,6536
5070,6538
5070,6545
5071,6559
5071,6573
5070,6581
5070,6584
5069,6587
5068,6595
5064,6610
5059,6627
5055,6640
5050,6651
5047,6659
5044,6664
5044,6665
5043,6667
5042,6668
5041,6670
5041,6671
5040,6672
5039,6673
5038,6675
5037,6677
5036,6678
5035,6680
5034,6682
5034,6683
5033,6685
5032,6687
5031,6688
5030,6689
5029,6690
" style="stroke:#ffffff;stroke-width:30;
stroke-linejoin:bevel; stroke-linecap:butt;
"/>
<!-- Line -->
<!--  spline  -->
<polyline points="5059,6677
5059,6678
5060,6680
5060,6684
5061,6686
5061,6687
5061,6688
5061,6690
5061,6693
5061,6696
5060,6699
5060,6701
5059,6702
5059,6703
5057,6706
5055,6709
5055,6710
5054,6710
5053,6711
5051,6713
5048,6715
5046,6717
5044,6718
5042,6719
5041,6719
5039,6720
5035,6720
5033,6721
5032,6721
5031,6721
5029,6721
5026,6721
5023,6721
5020,6720
5018,6720
5017,6719
5016,6719
5013,6717
5010,6715
5009,6715
5009,6714
5008,6713
5006,6711
5004,6708
5002,6706
5001,6704
5000,6702
5000,6701
4999,6699
4999,6695
4998,6693
4998,6692
4998,6691
4998,6689
4998,6686
4998,6683
4999,6680
4999,6678
5000,6677
5000,6676
5002,6673
5004,6670
5004,6669
5005,6669
5006,6668
5008,6666
5011,6664
5013,6662
5015,6661
5017,6660
5018,6660
5020,6659
5024,6659
5026,6658
5027,6658
5028,6658
5030,6658
5033,6658
5036,6658
5039,6659
5041,6659
5042,6660
5043,6660
5046,6662
5049,6664
5050,6664
5050,6665
5051,6666
5053,6668
5055,6671
5057,6673
5058,6675
5059,6677
" style="stroke:#000000;stroke-width:0;
stroke-linejoin:bevel; stroke-linecap:butt;
fill:#000000;
"/>
<!-- Line -->
<!--  spline  -->
<polyline points="5059,6677
5059,6678
5060,6680
5060,6684
5061,6686
5061,6687
5061,6688
5061,6690
5061,6693
5061,6696
5060,6699
5060,6701
5059,6702
5059,6703
5057,6706
5055,6709
5055,6710
5054,6710
5053,6711
5051,6713
5048,6715
5046,6717
5044,6718
5042,6719
5041,6719
5039,6720
5035,6720
5033,6721
5032,6721
5031,6721
5029,6721
5026,6721
5023,6721
5020,6720
5018,6720
5017,6719
5016,6719
5013,6717
5010,6715
5009,6715
5009,6714
5008,6713
5006,6711
5004,6708
5002,6706
5001,6704
5000,6702
5000,6701
4999,6699
4999,6695
4998,6693
4998,6692
4998,6691
4998,6689
4998,6686
4998,6683
4999,6680
4999,6678
5000,6677
5000,6676
5002,6673
5004,6670
5004,6669
5005,6669
5006,6668
5008,6666
5011,6664
5013,6662
5015,6661
5017,6660
5018,6660
5020,6659
5024,6659
5026,6658
5027,6658
5028,6658
5030,6658
5033,6658
5036,6658
5039,6659
5041,6659
5042,6660
5043,6660
5046,6662
5049,6664
5050,6664
5050,6665
5051,6666
5053,6668
5055,6671
5057,6673
5058,6675
5059,6677
" style="stroke:#ffffff;stroke-width:30;
stroke-linejoin:bevel; stroke-linecap:butt;
"/>
<!-- Line -->
<!--  spline  -->
<polyline points="4800,6683
4800,6685
4801,6687
4801,6689
4801,6690
4801,6691
4801,6692
4801,6694
4801,6696
4800,6697
4800,6698
4799,6700
4798,6702
4797,6702
4796,6703
4795,6704
4793,6705
4792,6706
4791,6707
4790,6707
4788,6708
4786,6708
4784,6709
4783,6709
4782,6709
4781,6708
4779,6708
4777,6707
4776,6707
4775,6707
4773,6706
4771,6705
4770,6704
4769,6703
4768,6701
4767,6700
4766,6699
4766,6698
4765,6696
4765,6694
4764,6692
4764,6691
4764,6690
4765,6688
4765,6686
4766,6684
4766,6683
4767,6681
4768,6680
4768,6679
4769,6678
4770,6677
4772,6676
4773,6674
4774,6674
4775,6673
4777,6673
4779,6672
4781,6672
4782,6672
4783,6672
4785,6672
4787,6672
4789,6672
4789,6673
4790,6673
4792,6674
4794,6675
4794,6676
4795,6676
4796,6677
4797,6678
4798,6680
4799,6681
4800,6682
4800,6683
" style="stroke:#000000;stroke-width:0;
stroke-linejoin:bevel; stroke-linecap:butt;
fill:#000000;
"/>
<!-- Line -->
<!--  spline  -->
<polyline points="4800,6683
4800,6685
4801,6687
4801,6689
4801,6690
4801,6691
4801,6692
4801,6694
4801,6696
4800,6697
4800,6698
4799,6700
4798,6702
4797,6702
4796,6703
4795,6704
4793,6705
4792,6706
4791,6707
4790,6707
4788,6708
4786,6708
4784,6709
4783,6709
4782,6709
4781,6708
4779,6708
4777,6707
4776,6707
4775,6707
4773,6706
4771,6705
4770,6704
4769,6703
4768,6701
4767,6700
4766,6699
4766,6698
4765,6696
4765,6694
4764,6692
4764,6691
4764,6690
4765,6688
4765,6686
4766,6684
4766,6683
4767,6681
4768,6680
4768,6679
4769,6678
4770,6677
4772,6676
4773,6674
4774,6674
4775,6673
4777,6673
4779,6672
4781,6672
4782,6672
4783,6672
4785,6672
4787,6672
4789,6672
4789,6673
4790,6673
4792,6674
4794,6675
4794,6676
4795,6676
4796,6677
4797,6678
4798,6680
4799,6681
4800,6682
4800,6683
" style="stroke:#ffffff;stroke-width:30;
stroke-linejoin:bevel; stroke-linecap:butt;
"/>
<!-- Line -->
<!--  spline  -->
<polyline points="4711,6792
4711,6794
4712,6795
4712,6797
4712,6798
4712,6799
4712,6801
4712,6803
4712,6805
4711,6805
4711,6806
4710,6808
4709,6810
4708,6810
4708,6811
4707,6812
4706,6813
4704,6814
4703,6815
4702,6816
4701,6816
4699,6816
4697,6817
4695,6817
4694,6817
4693,6817
4692,6817
4690,6817
4688,6817
4687,6816
4686,6816
4684,6815
4682,6814
4682,6813
4681,6812
4680,6811
4679,6809
4678,6808
4677,6807
4677,6806
4676,6804
4676,6803
4675,6801
4675,6800
4675,6799
4676,6797
4676,6795
4677,6793
4677,6792
4678,6790
4679,6788
4679,6787
4680,6786
4681,6785
4683,6784
4684,6783
4685,6782
4686,6782
4688,6782
4690,6781
4692,6781
4693,6781
4694,6781
4696,6781
4698,6781
4700,6781
4701,6782
4703,6783
4704,6784
4705,6785
4706,6786
4707,6787
4708,6789
4710,6790
4710,6791
4711,6792
" style="stroke:#000000;stroke-width:0;
stroke-linejoin:bevel; stroke-linecap:butt;
fill:#000000;
"/>
<!-- Line -->
<!--  spline  -->
<polyline points="5021,6689
5020,6690
5015,6694
5005,6702
4995,6709
4990,6713
4989,6714
4988,6714
4985,6716
4980,6720
4972,6725
4962,6731
4949,6738
4936,6745
4929,6749
4926,6750
4924,6752
4916,6756
4902,6762
4888,6768
4880,6771
4877,6772
4875,6773
4867,6776
4852,6781
4836,6786
4824,6790
4814,6793
4806,6796
4802,6797
4801,6797
4799,6797
4791,6799
4780,6802
4772,6804
4770,6804
4769,6804
4766,6805
4759,6805
4752,6806
4743,6807
4735,6807
4732,6807
4731,6807
4729,6807
4722,6807
4716,6807
4713,6806
4712,6806
4710,6806
4705,6805
4700,6803
4697,6802
4695,6800
4694,6799
" style="stroke:#000000;stroke-width:7;
stroke-linejoin:bevel; stroke-linecap:butt;
"/>
<!-- Line -->
<!--  spline  -->
<polyline points="4783,6690
4783,6689
4783,6684
4784,6676
4784,6671
4784,6670
4784,6667
4785,6663
4786,6658
4787,6650
4788,6643
4789,6640
4789,6639
4790,6635
4792,6628
4794,6621
4795,6618
4796,6616
4797,6613
4800,6606
4803,6598
4806,6592
4808,6587
4810,6585
4810,6584
4811,6582
4816,6574
4826,6559
4836,6544
4841,6536
4842,6534
4843,6533
4846,6530
4852,6523
4859,6514
4869,6505
4882,6494
4894,6485
4901,6480
4903,6478
4906,6477
4912,6473
4925,6467
4938,6462
4945,6459
4947,6458
4950,6458
4956,6457
4969,6455
4982,6454
4992,6455
5000,6457
5006,6458
5009,6459
5010,6459
5011,6460
5016,6463
5027,6470
5037,6476
5042,6479
5043,6480
5045,6483
5049,6488
5053,6494
5058,6503
5063,6515
5067,6527
5069,6533
5069,6536
5070,6538
5070,6545
5071,6559
5071,6573
5070,6581
5070,6584
5069,6587
5068,6595
5064,6610
5059,6627
5055,6640
5050,6651
5047,6659
5044,6664
5044,6665
5043,6667
5042,6668
5041,6670
5041,6671
5040,6672
5039,6673
5038,6675
5037,6677
5036,6678
5035,6680
5034,6682
5034,6683
5033,6685
5032,6687
5031,6688
5030,6689
5029,6690
" style="stroke:#000000;stroke-width:15;
stroke-linejoin:bevel; stroke-linecap:butt;
"/>
<!-- Line -->
<!--  spline  -->
<polyline points="5059,6677
5059,6678
5060,6680
5060,6684
5061,6686
5061,6687
5061,6688
5061,6690
5061,6693
5061,6696
5060,6699
5060,6701
5059,6702
5059,6703
5057,6706
5055,6709
5055,6710
5054,6710
5053,6711
5051,6713
5048,6715
5046,6717
5044,6718
5042,6719
5041,6719
5039,6720
5035,6720
5033,6721
5032,6721
5031,6721
5029,6721
5026,6721
5023,6721
5020,6720
5018,6720
5017,6719
5016,6719
5013,6717
5010,6715
5009,6715
5009,6714
5008,6713
5006,6711
5004,6708
5002,6706
5001,6704
5000,6702
5000,6701
4999,6699
4999,6695
4998,6693
4998,6692
4998,6691
4998,6689
4998,6686
4998,6683
4999,6680
4999,6678
5000,6677
5000,6676
5002,6673
5004,6670
5004,6669
5005,6669
5006,6668
5008,6666
5011,6664
5013,6662
5015,6661
5017,6660
5018,6660
5020,6659
5024,6659
5026,6658
5027,6658
5028,6658
5030,6658
5033,6658
5036,6658
5039,6659
5041,6659
5042,6660
5043,6660
5046,6662
5049,6664
5050,6664
5050,6665
5051,6666
5053,6668
5055,6671
5057,6673
5058,6675
5059,6677
" style="stroke:#000000;stroke-width:0;
stroke-linejoin:bevel; stroke-linecap:butt;
fill:#000000;
"/>
<!-- Line -->
<!--  spline  -->
<polyline points="5059,6677
5059,6678
5060,6680
5060,6684
5061,6686
5061,6687
5061,6688
5061,6690
5061,6693
5061,6696
5060,6699
5060,6701
5059,6702
5059,6703
5057,6706
5055,6709
5055,6710
5054,6710
5053,6711
5051,6713
5048,6715
5046,6717
5044,6718
5042,6719
5041,6719
5039,6720
5035,6720
5033,6721
5032,6721
5031,6721
5029,6721
5026,6721
5023,6721
5020,6720
5018,6720
5017,6719
5016,6719
5013,6717
5010,6715
5009,6715
5009,6714
5008,6713
5006,6711
5004,6708
5002,6706
5001,6704
5000,6702
5000,6701
4999,6699
4999,6695
4998,6693
4998,6692
4998,6691
4998,6689
4998,6686
4998,6683
4999,6680
4999,6678
5000,6677
5000,6676
5002,6673
5004,6670
5004,6669
5005,6669
5006,6668
5008,6666
5011,6664
5013,6662
5015,6661
5017,6660
5018,6660
5020,6659
5024,6659
5026,6658
5027,6658
5028,6658
5030,6658
5033,6658
5036,6658
5039,6659
5041,6659
5042,6660
5043,6660
5046,6662
5049,6664
5050,6664
5050,6665
5051,6666
5053,6668
5055,6671
5057,6673
5058,6675
5059,6677
" style="stroke:#ffffff;stroke-width:7;
stroke-linejoin:bevel; stroke-linecap:butt;
"/>
<!-- Line -->
<!--  spline  -->
<polyline points="4800,6683
4800,6685
4801,6687
4801,6689
4801,6690
4801,6691
4801,6692
4801,6694
4801,6696
4800,6697
4800,6698
4799,6700
4798,6702
4797,6702
4796,6703
4795,6704
4793,6705
4792,6706
4791,6707
4790,6707
4788,6708
4786,6708
4784,6709
4783,6709
4782,6709
4781,6708
4779,6708
4777,6707
4776,6707
4775,6707
4773,6706
4771,6705
4770,6704
4769,6703
4768,6701
4767,6700
4766,6699
4766,6698
4765,6696
4765,6694
4764,6692
4764,6691
4764,6690
4765,6688
4765,6686
4766,6684
4766,6683
4767,6681
4768,6680
4768,6679
4769,6678
4770,6677
4772,6676
4773,6674
4774,6674
4775,6673
4777,6673
4779,6672
4781,6672
4782,6672
4783,6672
4785,6672
4787,6672
4789,6672
4789,6673
4790,6673
4792,6674
4794,6675
4794,6676
4795,6676
4796,6677
4797,6678
4798,6680
4799,6681
4800,6682
4800,6683
" style="stroke:#000000;stroke-width:0;
stroke-linejoin:bevel; stroke-linecap:butt;
fill:#000000;
"/>
</g>
</svg>
