<?xml version="1.0" standalone="no"?>
<!DOCTYPE svg PUBLIC "-//W3C//DTD SVG 1.1//EN"
"http://www.w3.org/Graphics/SVG/1.1/DTD/svg11.dtd">
<!-- Creator: fig2dev Version 3.2 Patchlevel 5c -->
<!-- CreationDate: Fri Sep 14 10:46:43 2012 -->
<!-- Magnification: 1.000 -->
<svg xmlns="http://www.w3.org/2000/svg" width="0.4in" height="0.4in" viewBox="-3 12740 458 464">
<g style="stroke-width:.025in; fill:none">
<!-- Line -->
<!--  polyline  -->
<polyline points="369,13192
369,12826
9,12826
9,13192
369,13192
" style="stroke:#026c9b;stroke-width:0;
stroke-linejoin:miter; stroke-linecap:butt;
fill:#026c9b;
"/>
<!-- Line -->
<!--  polyline  -->
<polyline points="369,13192
369,12826
9,12826
9,13192
369,13192
" style="stroke:#ffffff;stroke-width:7;
stroke-linejoin:miter; stroke-linecap:butt;
"/>
<!-- Line -->
<!--  polyline  -->
<polyline points="189,12944
300,12944
" style="stroke:#ffffff;stroke-width:15;
stroke-linejoin:miter; stroke-linecap:butt;
"/>
<!-- Line -->
<!--  polyline  -->
<polyline points="304,12911
304,12975
343,12944
304,12911
" style="stroke:#ffffff;stroke-width:0;
stroke-linejoin:miter; stroke-linecap:butt;
fill:#ffffff;
"/>
<!-- Line -->
<!--  polyline  -->
<polyline points="304,12911
304,12975
343,12944
304,12911
" style="stroke:#ffffff;stroke-width:7;
stroke-linejoin:miter; stroke-linecap:butt;
"/>
<!-- Line -->
<!--  polyline  -->
<polyline points="189,13072
300,13072
" style="stroke:#ffffff;stroke-width:15;
stroke-linejoin:miter; stroke-linecap:butt;
"/>
<!-- Line -->
<!--  polyline  -->
<polyline points="304,13038
304,13102
343,13071
304,13038
" style="stroke:#ffffff;stroke-width:0;
stroke-linejoin:miter; stroke-linecap:butt;
fill:#ffffff;
"/>
<!-- Line -->
<!--  polyline  -->
<polyline points="304,13038
304,13102
343,13071
304,13038
" style="stroke:#ffffff;stroke-width:7;
stroke-linejoin:miter; stroke-linecap:butt;
"/>
<!-- Line -->
<!--  polyline  -->
<polyline points="125,13008
125,12898
" style="stroke:#ffffff;stroke-width:15;
stroke-linejoin:miter; stroke-linecap:butt;
"/>
<!-- Line -->
<!--  polyline  -->
<polyline points="93,12894
157,12894
126,12855
93,12894
" style="stroke:#ffffff;stroke-width:0;
stroke-linejoin:miter; stroke-linecap:butt;
fill:#ffffff;
"/>
<!-- Line -->
<!--  polyline  -->
<polyline points="93,12894
157,12894
126,12855
93,12894
" style="stroke:#ffffff;stroke-width:7;
stroke-linejoin:miter; stroke-linecap:butt;
"/>
<!-- Line -->
<!--  polyline  -->
<polyline points="253,13008
253,12898
" style="stroke:#ffffff;stroke-width:15;
stroke-linejoin:miter; stroke-linecap:butt;
"/>
<!-- Line -->
<!--  polyline  -->
<polyline points="220,12894
284,12894
253,12856
220,12894
" style="stroke:#ffffff;stroke-width:0;
stroke-linejoin:miter; stroke-linecap:butt;
fill:#ffffff;
"/>
<!-- Line -->
<!--  polyline  -->
<polyline points="220,12894
284,12894
253,12856
220,12894
" style="stroke:#ffffff;stroke-width:7;
stroke-linejoin:miter; stroke-linecap:butt;
"/>
<!-- Line -->
<!--  polyline  -->
<polyline points="253,13008
253,13118
" style="stroke:#ffffff;stroke-width:15;
stroke-linejoin:miter; stroke-linecap:butt;
"/>
<!-- Line -->
<!--  polyline  -->
<polyline points="285,13122
221,13122
252,13160
285,13122
" style="stroke:#ffffff;stroke-width:0;
stroke-linejoin:miter; stroke-linecap:butt;
fill:#ffffff;
"/>
<!-- Line -->
<!--  polyline  -->
<polyline points="285,13122
221,13122
252,13160
285,13122
" style="stroke:#ffffff;stroke-width:7;
stroke-linejoin:miter; stroke-linecap:butt;
"/>
<!-- Line -->
<!--  polyline  -->
<polyline points="127,13008
127,13118
" style="stroke:#ffffff;stroke-width:15;
stroke-linejoin:miter; stroke-linecap:butt;
"/>
<!-- Line -->
<!--  polyline  -->
<polyline points="160,13122
96,13122
127,13160
160,13122
" style="stroke:#ffffff;stroke-width:0;
stroke-linejoin:miter; stroke-linecap:butt;
fill:#ffffff;
"/>
<!-- Line -->
<!--  polyline  -->
<polyline points="160,13122
96,13122
127,13160
160,13122
" style="stroke:#ffffff;stroke-width:7;
stroke-linejoin:miter; stroke-linecap:butt;
"/>
<!-- Line -->
<!--  polyline  -->
<polyline points="191,13072
80,13072
" style="stroke:#ffffff;stroke-width:15;
stroke-linejoin:miter; stroke-linecap:butt;
"/>
<!-- Line -->
<!--  polyline  -->
<polyline points="76,13105
76,13041
37,13072
76,13105
" style="stroke:#ffffff;stroke-width:0;
stroke-linejoin:miter; stroke-linecap:butt;
fill:#ffffff;
"/>
<!-- Line -->
<!--  polyline  -->
<polyline points="76,13105
76,13041
37,13072
76,13105
" style="stroke:#ffffff;stroke-width:7;
stroke-linejoin:miter; stroke-linecap:butt;
"/>
<!-- Line -->
<!--  polyline  -->
<polyline points="191,12945
80,12945
" style="stroke:#ffffff;stroke-width:15;
stroke-linejoin:miter; stroke-linecap:butt;
"/>
<!-- Line -->
<!--  polyline  -->
<polyline points="76,12978
76,12914
37,12945
76,12978
" style="stroke:#ffffff;stroke-width:0;
stroke-linejoin:miter; stroke-linecap:butt;
fill:#ffffff;
"/>
<!-- Line -->
<!--  polyline  -->
<polyline points="76,12978
76,12914
37,12945
76,12978
" style="stroke:#ffffff;stroke-width:7;
stroke-linejoin:miter; stroke-linecap:butt;
"/>
<!-- Line -->
<!--  polyline  -->
<polyline points="368,12825
10,12825
100,12753
443,12753
443,12753
443,13117
369,13192
369,12828
368,12825
" style="stroke:#026c9b;stroke-width:0;
stroke-linejoin:miter; stroke-linecap:butt;
fill:#026c9b;
"/>
<!-- Line -->
<!--  polyline  -->
<polyline points="368,12825
10,12825
100,12753
443,12753
443,12753
443,13117
369,13192
369,12828
368,12825
" style="stroke:#ffffff;stroke-width:7;
stroke-linejoin:miter; stroke-linecap:butt;
"/>
<!-- Line -->
<!--  polyline  -->
<polyline points="368,12825
443,12752
" style="stroke:#026c9b;stroke-width:0;
stroke-linejoin:miter; stroke-linecap:butt;
fill:#026c9b;
"/>
<!-- Line -->
<!--  polyline  -->
<polyline points="368,12825
443,12752
" style="stroke:#ffffff;stroke-width:7;
stroke-linejoin:miter; stroke-linecap:butt;
"/>
<!-- Line -->
<!--  spline  -->
<polyline points="189,13085
190,13085
196,13084
206,13082
212,13081
213,13081
214,13081
216,13080
221,13078
227,13075
234,13070
240,13065
243,13063
244,13062
246,13060
251,13054
255,13048
257,13045
258,13044
259,13040
262,13033
264,13025
265,13018
266,13013
266,13010
266,13009
266,13008
265,13001
263,12992
262,12985
262,12984
262,12983
261,12980
259,12976
256,12970
251,12963
246,12957
244,12955
243,12954
240,12952
234,12947
227,12943
225,12941
224,12940
220,12939
213,12936
205,12934
198,12933
193,12932
190,12932
189,12932
188,12932
182,12933
172,12935
166,12936
165,12936
164,12936
162,12937
157,12939
151,12942
144,12947
138,12952
135,12954
134,12955
132,12957
127,12963
123,12969
121,12972
121,12973
120,12976
117,12984
115,12993
114,12999
113,13005
113,13008
113,13009
113,13010
114,13016
116,13026
117,13032
117,13033
117,13034
118,13037
120,13041
123,13047
127,13054
132,13060
134,13062
135,13063
138,13065
144,13070
151,13074
153,13076
154,13077
158,13078
165,13081
173,13083
180,13084
185,13085
188,13085
189,13085
" style="stroke:#026c9b;stroke-width:0;
stroke-linejoin:bevel; stroke-linecap:butt;
fill:#026c9b;
"/>
<!-- Line -->
<!--  spline  -->
<polyline points="189,13085
190,13085
196,13084
206,13082
212,13081
213,13081
214,13081
216,13080
221,13078
227,13075
234,13070
240,13065
243,13063
244,13062
246,13060
251,13054
255,13048
257,13045
258,13044
259,13040
262,13033
264,13025
265,13018
266,13013
266,13010
266,13009
266,13008
265,13001
263,12992
262,12985
262,12984
262,12983
261,12980
259,12976
256,12970
251,12963
246,12957
244,12955
243,12954
240,12952
234,12947
227,12943
225,12941
224,12940
220,12939
213,12936
205,12934
198,12933
193,12932
190,12932
189,12932
188,12932
182,12933
172,12935
166,12936
165,12936
164,12936
162,12937
157,12939
151,12942
144,12947
138,12952
135,12954
134,12955
132,12957
127,12963
123,12969
121,12972
121,12973
120,12976
117,12984
115,12993
114,12999
113,13005
113,13008
113,13009
113,13010
114,13016
116,13026
117,13032
117,13033
117,13034
118,13037
120,13041
123,13047
127,13054
132,13060
134,13062
135,13063
138,13065
144,13070
151,13074
153,13076
154,13077
158,13078
165,13081
173,13083
180,13084
185,13085
188,13085
189,13085
" style="stroke:#ffffff;stroke-width:7;
stroke-linejoin:bevel; stroke-linecap:butt;
"/>
</g>
</svg>
