<?xml version="1.0" standalone="no"?>
<!DOCTYPE svg PUBLIC "-//W3C//DTD SVG 1.1//EN"
"http://www.w3.org/Graphics/SVG/1.1/DTD/svg11.dtd">
<!-- Creator: fig2dev Version 3.2 Patchlevel 5c -->
<!-- CreationDate: Fri Sep 14 10:46:43 2012 -->
<!-- Magnification: 1.000 -->
<svg xmlns="http://www.w3.org/2000/svg" width="0.3in" height="0.5in" viewBox="-3 12586 410 617">
<g style="stroke-width:.025in; fill:none">
<!-- Line -->
<!--  polyline  -->
<polyline points="395,13191
395,12662
86,12662
86,13191
395,13191
" style="stroke:#026c9b;stroke-width:0;
stroke-linejoin:miter; stroke-linecap:butt;
fill:#026c9b;
"/>
<!-- Line -->
<!--  polyline  -->
<polyline points="395,13191
395,12662
86,12662
86,13191
395,13191
" style="stroke:#ffffff;stroke-width:7;
stroke-linejoin:miter; stroke-linecap:butt;
"/>
<!-- Line -->
<!--  polyline  -->
<polyline points="302,12598
395,12662
86,12662
9,12598
302,12598
" style="stroke:#026c9b;stroke-width:0;
stroke-linejoin:miter; stroke-linecap:butt;
fill:#026c9b;
"/>
<!-- Line -->
<!--  polyline  -->
<polyline points="302,12598
395,12662
86,12662
9,12598
302,12598
" style="stroke:#ffffff;stroke-width:7;
stroke-linejoin:miter; stroke-linecap:butt;
"/>
<!-- Line -->
<!--  polyline  -->
<polyline points="9,13096
9,12598
86,12662
86,13191
9,13096
" style="stroke:#026c9b;stroke-width:0;
stroke-linejoin:miter; stroke-linecap:butt;
fill:#026c9b;
"/>
<!-- Line -->
<!--  polyline  -->
<polyline points="9,13096
9,12598
86,12662
86,13191
9,13096
" style="stroke:#ffffff;stroke-width:7;
stroke-linejoin:miter; stroke-linecap:butt;
"/>
<!-- Line -->
<!--  polyline  -->
<polyline points="161,12785
161,12966
175,12966
175,12785
196,12785
168,12747
140,12785
161,12785
" style="stroke:#ffffff;stroke-width:0;
stroke-linejoin:miter; stroke-linecap:butt;
fill:#ffffff;
"/>
<!-- Line -->
<!--  polyline  -->
<polyline points="313,12929
313,12748
327,12748
327,12929
348,12929
320,12967
292,12929
313,12929
" style="stroke:#ffffff;stroke-width:0;
stroke-linejoin:miter; stroke-linecap:butt;
fill:#ffffff;
"/>
<!-- Line -->
<!--  spline  -->
<polyline points="181,13080
182,13080
187,13080
195,13080
200,13080
201,13080
200,13079
195,13073
186,13061
178,13049
173,13043
172,13042
171,13043
167,13049
158,13061
149,13073
145,13079
144,13080
145,13080
150,13080
158,13080
163,13080
164,13080
164,13081
166,13086
170,13092
172,13097
172,13098
174,13101
176,13104
180,13109
185,13114
190,13119
193,13120
194,13121
197,13123
203,13126
209,13129
212,13130
213,13130
216,13131
223,13133
230,13135
236,13135
240,13136
242,13136
243,13136
244,13136
250,13135
260,13133
266,13132
267,13132
268,13132
271,13131
275,13129
281,13126
289,13121
296,13116
298,13114
299,13113
302,13111
307,13105
312,13099
314,13096
315,13095
317,13092
320,13084
323,13075
324,13069
324,13063
324,13060
324,13059
323,13059
320,13059
314,13059
311,13059
310,13059
310,13060
309,13065
307,13073
306,13078
306,13079
305,13082
302,13086
299,13090
295,13096
290,13101
288,13103
288,13104
285,13106
280,13110
274,13114
272,13115
271,13116
268,13117
262,13119
255,13121
250,13122
246,13122
243,13122
242,13122
238,13121
232,13121
228,13120
227,13120
225,13119
221,13118
217,13117
212,13114
207,13111
206,13110
205,13110
203,13108
199,13105
195,13102
193,13100
191,13098
188,13094
185,13089
183,13085
182,13082
181,13080
" style="stroke:#ffffff;stroke-width:0;
stroke-linejoin:bevel; stroke-linecap:butt;
fill:#ffffff;
"/>
</g>
</svg>
