<?xml version="1.0" standalone="no"?>
<!DOCTYPE svg PUBLIC "-//W3C//DTD SVG 1.1//EN"
"http://www.w3.org/Graphics/SVG/1.1/DTD/svg11.dtd">
<!-- Creator: fig2dev Version 3.2 Patchlevel 5c -->
<!-- CreationDate: Fri Sep 14 10:46:43 2012 -->
<!-- Magnification: 1.000 -->
<svg xmlns="http://www.w3.org/2000/svg" width="0.3in" height="0.7in" viewBox="-19 12382 332 834">
<g style="stroke-width:.025in; fill:none">
<!-- Line -->
<!--  polyline  -->
<polyline points="181,12824
76,12824
76,12450
181,12450
181,12824
" style="stroke:#ffffff;stroke-width:0;
stroke-linejoin:miter; stroke-linecap:butt;
fill:#ffffff;
"/>
<!-- Line -->
<!--  polyline  -->
<polyline points="181,12824
76,12824
76,12450
181,12450
181,12824
" style="stroke:#02709f;stroke-width:15;
stroke-linejoin:miter; stroke-linecap:butt;
"/>
<!-- Line -->
<!--  polyline  -->
<polyline points="7,13194
76,12821
181,12821
243,13194
" style="stroke:#ffffff;stroke-width:0;
stroke-linejoin:miter; stroke-linecap:butt;
fill:#ffffff;
"/>
<!-- Line -->
<!--  polyline  -->
<polyline points="7,13194
76,12821
181,12821
243,13194
" style="stroke:#02709f;stroke-width:15;
stroke-linejoin:miter; stroke-linecap:butt;
"/>
<!-- Line -->
<!--  polyline  -->
<polyline points="3,13194
219,13086
44,12987
190,12897
82,12824
178,12695
79,12614
181,12523
76,12453
" style="stroke:#02709f;stroke-width:15;
stroke-linejoin:miter; stroke-linecap:butt;
"/>
<!-- Line -->
<!--  polyline  -->
<polyline points="245,13194
36,13086
211,12987
65,12897
173,12824
77,12695
176,12614
74,12523
179,12453
" style="stroke:#02709f;stroke-width:15;
stroke-linejoin:miter; stroke-linecap:butt;
"/>
<!-- Line -->
<!--  polyline  -->
<polyline points="175,12450
78,12450
102,12404
150,12404
175,12450
" style="stroke:#02709f;stroke-width:15;
stroke-linejoin:miter; stroke-linecap:butt;
"/>
<!-- Line -->
<!--  spline  -->
<polyline points="220,12460
220,12459
222,12457
226,12452
228,12450
228,12449
230,12449
232,12449
234,12449
234,12451
234,12460
234,12477
234,12494
234,12503
234,12505
235,12505
241,12505
252,12505
263,12505
269,12505
270,12505
271,12506
273,12507
274,12508
275,12508
276,12508
277,12508
279,12506
280,12504
282,12502
283,12502
285,12502
286,12502
287,12502
287,12503
288,12504
289,12505
289,12506
290,12507
290,12508
291,12509
291,12510
291,12511
291,12512
291,12514
291,12515
291,12516
291,12517
290,12517
290,12518
289,12519
289,12520
288,12521
287,12522
287,12523
286,12523
285,12523
284,12523
283,12523
282,12523
280,12521
279,12519
277,12517
276,12517
275,12517
274,12517
273,12518
271,12520
270,12521
269,12521
263,12521
252,12521
241,12521
235,12521
234,12521
234,12523
234,12532
234,12549
234,12565
234,12574
234,12576
232,12576
230,12576
228,12576
228,12575
226,12573
222,12569
220,12567
220,12566
220,12565
220,12561
220,12550
220,12533
220,12513
220,12493
220,12476
220,12465
220,12461
220,12460
" style="stroke:#333333;stroke-width:0;
stroke-linejoin:bevel; stroke-linecap:butt;
fill:#333333;
"/>
<!-- Line -->
<!--  spline  -->
<polyline points="220,12460
220,12459
222,12457
226,12452
228,12450
228,12449
230,12449
232,12449
234,12449
234,12451
234,12460
234,12477
234,12494
234,12503
234,12505
235,12505
241,12505
252,12505
263,12505
269,12505
270,12505
271,12506
273,12507
274,12508
275,12508
276,12508
277,12508
279,12506
280,12504
282,12502
283,12502
285,12502
286,12502
287,12502
287,12503
288,12504
289,12505
289,12506
290,12507
290,12508
291,12509
291,12510
291,12511
291,12512
291,12514
291,12515
291,12516
291,12517
290,12517
290,12518
289,12519
289,12520
288,12521
287,12522
287,12523
286,12523
285,12523
284,12523
283,12523
282,12523
280,12521
279,12519
277,12517
276,12517
275,12517
274,12517
273,12518
271,12520
270,12521
269,12521
263,12521
252,12521
241,12521
235,12521
234,12521
234,12523
234,12532
234,12549
234,12565
234,12574
234,12576
232,12576
230,12576
228,12576
228,12575
226,12573
222,12569
220,12567
220,12566
220,12565
220,12561
220,12550
220,12533
220,12513
220,12493
220,12476
220,12465
220,12461
220,12460
" style="stroke:#000000;stroke-width:15;
stroke-linejoin:bevel; stroke-linecap:butt;
"/>
<!-- Line -->
<!--  spline  -->
<polyline points="220,12566
219,12566
214,12566
207,12566
202,12566
201,12566
199,12564
198,12560
196,12558
196,12557
195,12555
195,12552
194,12549
194,12546
193,12545
193,12544
193,12543
193,12540
193,12538
193,12537
193,12536
193,12534
193,12533
193,12532
193,12531
192,12531
187,12531
179,12531
174,12531
173,12531
173,12530
173,12526
173,12520
173,12516
173,12515
173,12513
173,12512
173,12510
173,12509
173,12505
173,12499
173,12495
173,12494
174,12494
179,12494
187,12494
192,12494
193,12494
193,12493
193,12492
193,12491
193,12490
193,12488
193,12485
193,12482
193,12481
194,12480
194,12477
195,12474
195,12473
195,12472
195,12471
196,12468
197,12465
199,12463
200,12461
201,12460
202,12460
207,12460
214,12460
219,12460
220,12460
220,12461
220,12465
220,12476
220,12493
220,12513
220,12533
220,12550
220,12561
220,12565
220,12566
" style="stroke:#b2b2b2;stroke-width:0;
stroke-linejoin:bevel; stroke-linecap:butt;
fill:#b2b2b2;
"/>
<!-- Line -->
<!--  spline  -->
<polyline points="220,12566
219,12566
214,12566
207,12566
202,12566
201,12566
199,12564
198,12560
196,12558
196,12557
195,12555
195,12552
194,12549
194,12546
193,12545
193,12544
193,12543
193,12540
193,12538
193,12537
193,12536
193,12534
193,12533
193,12532
193,12531
192,12531
187,12531
179,12531
174,12531
173,12531
173,12530
173,12526
173,12520
173,12516
173,12515
173,12513
173,12512
173,12510
173,12509
173,12505
173,12499
173,12495
173,12494
174,12494
179,12494
187,12494
192,12494
193,12494
193,12493
193,12492
193,12491
193,12490
193,12488
193,12485
193,12482
193,12481
194,12480
194,12477
195,12474
195,12473
195,12472
195,12471
196,12468
197,12465
199,12463
200,12461
201,12460
202,12460
207,12460
214,12460
219,12460
220,12460
220,12461
220,12465
220,12476
220,12493
220,12513
220,12533
220,12550
220,12561
220,12565
220,12566
" style="stroke:#000000;stroke-width:15;
stroke-linejoin:bevel; stroke-linecap:butt;
"/>
<!-- Line -->
<!--  spline  -->
<polyline points="220,12460
220,12459
222,12457
226,12452
228,12450
228,12449
230,12449
232,12449
234,12449
234,12451
234,12460
234,12477
234,12494
234,12503
234,12505
235,12505
241,12505
252,12505
263,12505
269,12505
270,12505
271,12506
273,12507
274,12508
275,12508
276,12508
277,12508
279,12506
280,12504
282,12502
283,12502
285,12502
286,12502
287,12502
287,12503
288,12504
289,12505
289,12506
290,12507
290,12508
291,12509
291,12510
291,12511
291,12512
291,12514
291,12515
291,12516
291,12517
290,12517
290,12518
289,12519
289,12520
288,12521
287,12522
287,12523
286,12523
285,12523
284,12523
283,12523
282,12523
280,12521
279,12519
277,12517
276,12517
275,12517
274,12517
273,12518
271,12520
270,12521
269,12521
263,12521
252,12521
241,12521
235,12521
234,12521
234,12523
234,12532
234,12549
234,12565
234,12574
234,12576
232,12576
230,12576
228,12576
228,12575
226,12573
222,12569
220,12567
220,12566
220,12565
220,12561
220,12550
220,12533
220,12513
220,12493
220,12476
220,12465
220,12461
220,12460
" style="stroke:#333333;stroke-width:0;
stroke-linejoin:bevel; stroke-linecap:butt;
fill:#333333;
"/>
<!-- Line -->
<!--  spline  -->
<polyline points="220,12460
220,12459
222,12457
226,12452
228,12450
228,12449
230,12449
232,12449
234,12449
234,12451
234,12460
234,12477
234,12494
234,12503
234,12505
235,12505
241,12505
252,12505
263,12505
269,12505
270,12505
271,12506
273,12507
274,12508
275,12508
276,12508
277,12508
279,12506
280,12504
282,12502
283,12502
285,12502
286,12502
287,12502
287,12503
288,12504
289,12505
289,12506
290,12507
290,12508
291,12509
291,12510
291,12511
291,12512
291,12514
291,12515
291,12516
291,12517
290,12517
290,12518
289,12519
289,12520
288,12521
287,12522
287,12523
286,12523
285,12523
284,12523
283,12523
282,12523
280,12521
279,12519
277,12517
276,12517
275,12517
274,12517
273,12518
271,12520
270,12521
269,12521
263,12521
252,12521
241,12521
235,12521
234,12521
234,12523
234,12532
234,12549
234,12565
234,12574
234,12576
232,12576
230,12576
228,12576
228,12575
226,12573
222,12569
220,12567
220,12566
220,12565
220,12561
220,12550
220,12533
220,12513
220,12493
220,12476
220,12465
220,12461
220,12460
" style="stroke:#02709f;stroke-width:15;
stroke-linejoin:bevel; stroke-linecap:butt;
"/>
<!-- Line -->
<!--  spline  -->
<polyline points="220,12566
219,12566
214,12566
207,12566
202,12566
201,12566
199,12564
198,12560
196,12558
196,12557
195,12555
195,12552
194,12549
194,12546
193,12545
193,12544
193,12543
193,12540
193,12538
193,12537
193,12536
193,12534
193,12533
193,12532
193,12531
192,12531
187,12531
179,12531
174,12531
173,12531
173,12530
173,12526
173,12520
173,12516
173,12515
173,12513
173,12512
173,12510
173,12509
173,12505
173,12499
173,12495
173,12494
174,12494
179,12494
187,12494
192,12494
193,12494
193,12493
193,12492
193,12491
193,12490
193,12488
193,12485
193,12482
193,12481
194,12480
194,12477
195,12474
195,12473
195,12472
195,12471
196,12468
197,12465
199,12463
200,12461
201,12460
202,12460
207,12460
214,12460
219,12460
220,12460
220,12461
220,12465
220,12476
220,12493
220,12513
220,12533
220,12550
220,12561
220,12565
220,12566
" style="stroke:#b2b2b2;stroke-width:0;
stroke-linejoin:bevel; stroke-linecap:butt;
fill:#b2b2b2;
"/>
<!-- Line -->
<!--  spline  -->
<polyline points="220,12566
219,12566
214,12566
207,12566
202,12566
201,12566
199,12564
198,12560
196,12558
196,12557
195,12555
195,12552
194,12549
194,12546
193,12545
193,12544
193,12543
193,12540
193,12538
193,12537
193,12536
193,12534
193,12533
193,12532
193,12531
192,12531
187,12531
179,12531
174,12531
173,12531
173,12530
173,12526
173,12520
173,12516
173,12515
173,12513
173,12512
173,12510
173,12509
173,12505
173,12499
173,12495
173,12494
174,12494
179,12494
187,12494
192,12494
193,12494
193,12493
193,12492
193,12491
193,12490
193,12488
193,12485
193,12482
193,12481
194,12480
194,12477
195,12474
195,12473
195,12472
195,12471
196,12468
197,12465
199,12463
200,12461
201,12460
202,12460
207,12460
214,12460
219,12460
220,12460
220,12461
220,12465
220,12476
220,12493
220,12513
220,12533
220,12550
220,12561
220,12565
220,12566
" style="stroke:#02709f;stroke-width:15;
stroke-linejoin:bevel; stroke-linecap:butt;
"/>
<!-- Line -->
<!--  spline  -->
<polyline points="220,12632
220,12631
222,12629
226,12624
228,12622
228,12621
230,12621
232,12621
234,12621
234,12623
234,12632
234,12649
234,12666
234,12675
234,12677
235,12677
241,12677
252,12677
263,12677
269,12677
270,12677
271,12678
273,12679
274,12680
275,12680
276,12680
277,12680
279,12678
280,12676
282,12674
283,12674
285,12674
286,12674
287,12674
287,12675
288,12676
289,12677
289,12678
290,12679
290,12680
291,12681
291,12682
291,12683
291,12684
291,12686
291,12687
291,12688
291,12689
290,12689
290,12690
289,12691
289,12692
288,12693
287,12694
287,12695
286,12695
285,12695
284,12695
283,12695
282,12695
280,12693
279,12691
277,12689
276,12689
275,12689
274,12689
273,12690
271,12692
270,12693
269,12693
263,12693
252,12693
241,12693
235,12693
234,12693
234,12695
234,12704
234,12721
234,12738
234,12747
234,12749
232,12749
230,12749
228,12749
228,12748
226,12746
222,12741
220,12739
220,12738
220,12737
220,12733
220,12722
220,12705
220,12685
220,12665
220,12648
220,12637
220,12633
220,12632
" style="stroke:#333333;stroke-width:0;
stroke-linejoin:bevel; stroke-linecap:butt;
fill:#333333;
"/>
<!-- Line -->
<!--  spline  -->
<polyline points="220,12632
220,12631
222,12629
226,12624
228,12622
228,12621
230,12621
232,12621
234,12621
234,12623
234,12632
234,12649
234,12666
234,12675
234,12677
235,12677
241,12677
252,12677
263,12677
269,12677
270,12677
271,12678
273,12679
274,12680
275,12680
276,12680
277,12680
279,12678
280,12676
282,12674
283,12674
285,12674
286,12674
287,12674
287,12675
288,12676
289,12677
289,12678
290,12679
290,12680
291,12681
291,12682
291,12683
291,12684
291,12686
291,12687
291,12688
291,12689
290,12689
290,12690
289,12691
289,12692
288,12693
287,12694
287,12695
286,12695
285,12695
284,12695
283,12695
282,12695
280,12693
279,12691
277,12689
276,12689
275,12689
274,12689
273,12690
271,12692
270,12693
269,12693
263,12693
252,12693
241,12693
235,12693
234,12693
234,12695
234,12704
234,12721
234,12738
234,12747
234,12749
232,12749
230,12749
228,12749
228,12748
226,12746
222,12741
220,12739
220,12738
220,12737
220,12733
220,12722
220,12705
220,12685
220,12665
220,12648
220,12637
220,12633
220,12632
" style="stroke:#000000;stroke-width:15;
stroke-linejoin:bevel; stroke-linecap:butt;
"/>
<!-- Line -->
<!--  spline  -->
<polyline points="220,12738
219,12738
214,12738
207,12738
202,12738
201,12738
199,12736
198,12732
196,12730
196,12729
195,12727
195,12724
194,12721
194,12718
193,12717
193,12716
193,12715
193,12712
193,12710
193,12709
193,12708
193,12706
193,12705
193,12704
193,12703
192,12703
187,12703
179,12703
174,12703
173,12703
173,12702
173,12698
173,12692
173,12688
173,12687
173,12685
173,12684
173,12682
173,12681
173,12677
173,12671
173,12667
173,12666
174,12666
179,12666
187,12666
192,12666
193,12666
193,12665
193,12664
193,12663
193,12662
193,12660
193,12657
193,12654
193,12653
194,12652
194,12649
195,12646
195,12645
195,12644
195,12643
196,12640
197,12637
199,12635
200,12633
201,12632
202,12632
207,12632
214,12632
219,12632
220,12632
220,12633
220,12637
220,12648
220,12665
220,12685
220,12705
220,12722
220,12733
220,12737
220,12738
" style="stroke:#b2b2b2;stroke-width:0;
stroke-linejoin:bevel; stroke-linecap:butt;
fill:#b2b2b2;
"/>
<!-- Line -->
<!--  spline  -->
<polyline points="220,12738
219,12738
214,12738
207,12738
202,12738
201,12738
199,12736
198,12732
196,12730
196,12729
195,12727
195,12724
194,12721
194,12718
193,12717
193,12716
193,12715
193,12712
193,12710
193,12709
193,12708
193,12706
193,12705
193,12704
193,12703
192,12703
187,12703
179,12703
174,12703
173,12703
173,12702
173,12698
173,12692
173,12688
173,12687
173,12685
173,12684
173,12682
173,12681
173,12677
173,12671
173,12667
173,12666
174,12666
179,12666
187,12666
192,12666
193,12666
193,12665
193,12664
193,12663
193,12662
193,12660
193,12657
193,12654
193,12653
194,12652
194,12649
195,12646
195,12645
195,12644
195,12643
196,12640
197,12637
199,12635
200,12633
201,12632
202,12632
207,12632
214,12632
219,12632
220,12632
220,12633
220,12637
220,12648
220,12665
220,12685
220,12705
220,12722
220,12733
220,12737
220,12738
" style="stroke:#000000;stroke-width:15;
stroke-linejoin:bevel; stroke-linecap:butt;
"/>
<!-- Line -->
<!--  spline  -->
<polyline points="220,12632
220,12631
222,12629
226,12624
228,12622
228,12621
230,12621
232,12621
234,12621
234,12623
234,12632
234,12649
234,12666
234,12675
234,12677
235,12677
241,12677
252,12677
263,12677
269,12677
270,12677
271,12678
273,12679
274,12680
275,12680
276,12680
277,12680
279,12678
280,12676
282,12674
283,12674
285,12674
286,12674
287,12674
287,12675
288,12676
289,12677
289,12678
290,12679
290,12680
291,12681
291,12682
291,12683
291,12684
291,12686
291,12687
291,12688
291,12689
290,12689
290,12690
289,12691
289,12692
288,12693
287,12694
287,12695
286,12695
285,12695
284,12695
283,12695
282,12695
280,12693
279,12691
277,12689
276,12689
275,12689
274,12689
273,12690
271,12692
270,12693
269,12693
263,12693
252,12693
241,12693
235,12693
234,12693
234,12695
234,12704
234,12721
234,12738
234,12747
234,12749
232,12749
230,12749
228,12749
228,12748
226,12746
222,12741
220,12739
220,12738
220,12737
220,12733
220,12722
220,12705
220,12685
220,12665
220,12648
220,12637
220,12633
220,12632
" style="stroke:#333333;stroke-width:0;
stroke-linejoin:bevel; stroke-linecap:butt;
fill:#333333;
"/>
<!-- Line -->
<!--  spline  -->
<polyline points="220,12632
220,12631
222,12629
226,12624
228,12622
228,12621
230,12621
232,12621
234,12621
234,12623
234,12632
234,12649
234,12666
234,12675
234,12677
235,12677
241,12677
252,12677
263,12677
269,12677
270,12677
271,12678
273,12679
274,12680
275,12680
276,12680
277,12680
279,12678
280,12676
282,12674
283,12674
285,12674
286,12674
287,12674
287,12675
288,12676
289,12677
289,12678
290,12679
290,12680
291,12681
291,12682
291,12683
291,12684
291,12686
291,12687
291,12688
291,12689
290,12689
290,12690
289,12691
289,12692
288,12693
287,12694
287,12695
286,12695
285,12695
284,12695
283,12695
282,12695
280,12693
279,12691
277,12689
276,12689
275,12689
274,12689
273,12690
271,12692
270,12693
269,12693
263,12693
252,12693
241,12693
235,12693
234,12693
234,12695
234,12704
234,12721
234,12738
234,12747
234,12749
232,12749
230,12749
228,12749
228,12748
226,12746
222,12741
220,12739
220,12738
220,12737
220,12733
220,12722
220,12705
220,12685
220,12665
220,12648
220,12637
220,12633
220,12632
" style="stroke:#02709f;stroke-width:15;
stroke-linejoin:bevel; stroke-linecap:butt;
"/>
<!-- Line -->
<!--  spline  -->
<polyline points="220,12738
219,12738
214,12738
207,12738
202,12738
201,12738
199,12736
198,12732
196,12730
196,12729
195,12727
195,12724
194,12721
194,12718
193,12717
193,12716
193,12715
193,12712
193,12710
193,12709
193,12708
193,12706
193,12705
193,12704
193,12703
192,12703
187,12703
179,12703
174,12703
173,12703
173,12702
173,12698
173,12692
173,12688
173,12687
173,12685
173,12684
173,12682
173,12681
173,12677
173,12671
173,12667
173,12666
174,12666
179,12666
187,12666
192,12666
193,12666
193,12665
193,12664
193,12663
193,12662
193,12660
193,12657
193,12654
193,12653
194,12652
194,12649
195,12646
195,12645
195,12644
195,12643
196,12640
197,12637
199,12635
200,12633
201,12632
202,12632
207,12632
214,12632
219,12632
220,12632
220,12633
220,12637
220,12648
220,12665
220,12685
220,12705
220,12722
220,12733
220,12737
220,12738
" style="stroke:#b2b2b2;stroke-width:0;
stroke-linejoin:bevel; stroke-linecap:butt;
fill:#b2b2b2;
"/>
<!-- Line -->
<!--  spline  -->
<polyline points="220,12738
219,12738
214,12738
207,12738
202,12738
201,12738
199,12736
198,12732
196,12730
196,12729
195,12727
195,12724
194,12721
194,12718
193,12717
193,12716
193,12715
193,12712
193,12710
193,12709
193,12708
193,12706
193,12705
193,12704
193,12703
192,12703
187,12703
179,12703
174,12703
173,12703
173,12702
173,12698
173,12692
173,12688
173,12687
173,12685
173,12684
173,12682
173,12681
173,12677
173,12671
173,12667
173,12666
174,12666
179,12666
187,12666
192,12666
193,12666
193,12665
193,12664
193,12663
193,12662
193,12660
193,12657
193,12654
193,12653
194,12652
194,12649
195,12646
195,12645
195,12644
195,12643
196,12640
197,12637
199,12635
200,12633
201,12632
202,12632
207,12632
214,12632
219,12632
220,12632
220,12633
220,12637
220,12648
220,12665
220,12685
220,12705
220,12722
220,12733
220,12737
220,12738
" style="stroke:#02709f;stroke-width:15;
stroke-linejoin:bevel; stroke-linecap:butt;
"/>
</g>
</svg>
