<?xml version="1.0" standalone="no"?>
<!DOCTYPE svg PUBLIC "-//W3C//DTD SVG 1.1//EN"
"http://www.w3.org/Graphics/SVG/1.1/DTD/svg11.dtd">
<!-- Creator: fig2dev Version 3.2 Patchlevel 5c -->
<!-- CreationDate: Fri Sep 14 10:46:44 2012 -->
<!-- Magnification: 1.000 -->
<svg xmlns="http://www.w3.org/2000/svg" width="0.5in" height="0.4in" viewBox="-9 12771 543 438">
<g style="stroke-width:.025in; fill:none">
<!-- Line -->
<!--  spline  -->
<polyline points="522,12879
521,12881
518,12889
513,12900
510,12908
509,12910
506,12913
502,12917
495,12922
486,12928
472,12936
458,12943
450,12946
447,12948
443,12949
434,12952
416,12957
401,12961
391,12963
385,12964
383,12965
380,12965
374,12966
362,12968
345,12970
326,12972
310,12973
297,12974
285,12975
274,12975
267,12975
264,12975
263,12975
262,12975
255,12975
241,12974
222,12973
203,12971
189,12970
182,12970
181,12970
180,12970
177,12970
171,12969
162,12968
151,12966
139,12964
126,12961
110,12957
92,12952
82,12949
79,12948
75,12946
67,12943
53,12936
40,12929
34,12925
31,12924
30,12922
25,12918
17,12910
9,12899
5,12891
4,12884
3,12880
3,12879
3,12880
3,12883
3,12892
3,12908
3,12931
3,12959
3,12990
3,13021
3,13049
3,13072
3,13088
3,13097
3,13100
3,13101
4,13103
7,13110
13,13122
16,13129
17,13131
20,13134
24,13138
30,13143
40,13149
53,13157
67,13164
75,13167
79,13169
82,13170
92,13173
110,13178
125,13182
136,13184
141,13186
143,13186
146,13187
152,13188
164,13190
181,13192
200,13194
216,13195
229,13196
241,13197
252,13197
259,13197
262,13197
263,13197
264,13197
271,13197
285,13196
304,13195
323,13193
337,13192
344,13192
345,13192
346,13192
349,13191
355,13191
364,13189
375,13187
387,13185
400,13182
416,13178
434,13173
443,13170
447,13168
450,13167
458,13164
472,13157
485,13150
492,13146
494,13145
496,13143
501,13139
509,13131
517,13121
520,13112
522,13106
522,13102
522,13101
522,13100
522,13097
522,13088
522,13072
522,13049
522,13021
522,12990
522,12959
522,12931
522,12908
522,12892
522,12883
522,12880
522,12879
" style="stroke:#026c9b;stroke-width:0;
stroke-linejoin:bevel; stroke-linecap:butt;
fill:#026c9b;
"/>
<!-- Line -->
<!--  spline  -->
<polyline points="522,12879
521,12881
518,12889
513,12900
510,12908
509,12910
506,12913
502,12917
495,12922
486,12928
472,12936
458,12943
450,12946
447,12948
443,12949
434,12952
416,12957
401,12961
391,12963
385,12964
383,12965
380,12965
374,12966
362,12968
345,12970
326,12972
310,12973
297,12974
285,12975
274,12975
267,12975
264,12975
263,12975
262,12975
255,12975
241,12974
222,12973
203,12971
189,12970
182,12970
181,12970
180,12970
177,12970
171,12969
162,12968
151,12966
139,12964
126,12961
110,12957
92,12952
82,12949
79,12948
75,12946
67,12943
53,12936
40,12929
34,12925
31,12924
30,12922
25,12918
17,12910
9,12899
5,12891
4,12884
3,12880
3,12879
3,12880
3,12883
3,12892
3,12908
3,12931
3,12959
3,12990
3,13021
3,13049
3,13072
3,13088
3,13097
3,13100
3,13101
4,13103
7,13110
13,13122
16,13129
17,13131
20,13134
24,13138
30,13143
40,13149
53,13157
67,13164
75,13167
79,13169
82,13170
92,13173
110,13178
125,13182
136,13184
141,13186
143,13186
146,13187
152,13188
164,13190
181,13192
200,13194
216,13195
229,13196
241,13197
252,13197
259,13197
262,13197
263,13197
264,13197
271,13197
285,13196
304,13195
323,13193
337,13192
344,13192
345,13192
346,13192
349,13191
355,13191
364,13189
375,13187
387,13185
400,13182
416,13178
434,13173
443,13170
447,13168
450,13167
458,13164
472,13157
485,13150
492,13146
494,13145
496,13143
501,13139
509,13131
517,13121
520,13112
522,13106
522,13102
522,13101
522,13100
522,13097
522,13088
522,13072
522,13049
522,13021
522,12990
522,12959
522,12931
522,12908
522,12892
522,12883
522,12880
522,12879
" style="stroke:#ffffff;stroke-width:7;
stroke-linejoin:bevel; stroke-linecap:butt;
"/>
<!-- Line -->
<!--  spline  -->
<polyline points="263,12975
264,12975
271,12975
285,12974
304,12973
323,12971
337,12970
344,12970
345,12970
346,12970
349,12970
355,12969
364,12968
375,12966
387,12964
400,12961
416,12957
434,12952
443,12949
447,12948
450,12946
458,12943
472,12936
485,12929
492,12925
494,12924
496,12922
501,12918
509,12910
517,12899
520,12891
522,12884
522,12880
522,12879
521,12877
518,12870
513,12858
510,12851
509,12849
506,12846
502,12842
495,12837
486,12831
472,12823
458,12816
450,12813
447,12811
443,12810
434,12807
416,12802
401,12798
391,12796
385,12794
383,12794
380,12793
374,12792
362,12790
345,12788
326,12786
310,12785
297,12784
285,12783
274,12783
267,12783
264,12783
263,12783
262,12783
255,12783
241,12784
222,12786
203,12787
189,12788
182,12788
181,12788
180,12788
177,12789
171,12789
162,12791
151,12793
139,12795
126,12798
110,12802
92,12807
82,12810
79,12812
75,12813
67,12816
53,12823
40,12830
34,12834
31,12835
30,12837
25,12841
17,12849
9,12859
5,12868
4,12874
3,12878
3,12879
4,12881
7,12889
13,12900
16,12908
17,12910
20,12913
24,12917
30,12922
40,12928
53,12936
67,12943
75,12946
79,12948
82,12949
92,12952
110,12957
125,12961
136,12963
141,12964
143,12965
146,12965
152,12966
164,12968
181,12970
200,12972
216,12973
229,12974
241,12975
252,12975
259,12975
262,12975
263,12975
" style="stroke:#026c9b;stroke-width:0;
stroke-linejoin:bevel; stroke-linecap:butt;
fill:#026c9b;
"/>
<!-- Line -->
<!--  spline  -->
<polyline points="263,12975
264,12975
271,12975
285,12974
304,12973
323,12971
337,12970
344,12970
345,12970
346,12970
349,12970
355,12969
364,12968
375,12966
387,12964
400,12961
416,12957
434,12952
443,12949
447,12948
450,12946
458,12943
472,12936
485,12929
492,12925
494,12924
496,12922
501,12918
509,12910
517,12899
520,12891
522,12884
522,12880
522,12879
521,12877
518,12870
513,12858
510,12851
509,12849
506,12846
502,12842
495,12837
486,12831
472,12823
458,12816
450,12813
447,12811
443,12810
434,12807
416,12802
401,12798
391,12796
385,12794
383,12794
380,12793
374,12792
362,12790
345,12788
326,12786
310,12785
297,12784
285,12783
274,12783
267,12783
264,12783
263,12783
262,12783
255,12783
241,12784
222,12786
203,12787
189,12788
182,12788
181,12788
180,12788
177,12789
171,12789
162,12791
151,12793
139,12795
126,12798
110,12802
92,12807
82,12810
79,12812
75,12813
67,12816
53,12823
40,12830
34,12834
31,12835
30,12837
25,12841
17,12849
9,12859
5,12868
4,12874
3,12878
3,12879
4,12881
7,12889
13,12900
16,12908
17,12910
20,12913
24,12917
30,12922
40,12928
53,12936
67,12943
75,12946
79,12948
82,12949
92,12952
110,12957
125,12961
136,12963
141,12964
143,12965
146,12965
152,12966
164,12968
181,12970
200,12972
216,12973
229,12974
241,12975
252,12975
259,12975
262,12975
263,12975
" style="stroke:#ffffff;stroke-width:7;
stroke-linejoin:bevel; stroke-linecap:butt;
"/>
</g>
</svg>
