<?xml version="1.0" standalone="no"?>
<!DOCTYPE svg PUBLIC "-//W3C//DTD SVG 1.1//EN"
"http://www.w3.org/Graphics/SVG/1.1/DTD/svg11.dtd">
<!-- Creator: fig2dev Version 3.2 Patchlevel 5c -->
<!-- CreationDate: Fri Sep 14 10:46:44 2012 -->
<!-- Magnification: 1.000 -->
<svg xmlns="http://www.w3.org/2000/svg" width="0.5in" height="0.3in" viewBox="-2 12857 657 351">
<g style="stroke-width:.025in; fill:none">
<!-- Line -->
<!--  polyline  -->
<polyline points="10,13086
10,12962
506,12962
506,13086
10,13086
" style="stroke:#146ec6;stroke-width:0;
stroke-linejoin:miter; stroke-linecap:butt;
fill:#146ec6;
"/>
<!-- Line -->
<!--  polyline  -->
<polyline points="10,13086
10,12962
506,12962
506,13086
10,13086
" style="stroke:#ffffff;stroke-width:7;
stroke-linejoin:miter; stroke-linecap:butt;
"/>
<!-- Line -->
<!--  polyline  -->
<polyline points="506,13087
506,12962
10,12962
133,12869
576,12869
608,12869
608,12973
506,13087
" style="stroke:#146ec6;stroke-width:0;
stroke-linejoin:miter; stroke-linecap:butt;
fill:#146ec6;
"/>
<!-- Line -->
<!--  polyline  -->
<polyline points="506,13087
506,12962
10,12962
133,12869
576,12869
608,12869
608,12973
506,13087
" style="stroke:#ffffff;stroke-width:7;
stroke-linejoin:miter; stroke-linecap:butt;
"/>
<!-- Line -->
<!--  polyline  -->
<polyline points="512,12960
601,12871
" style="stroke:#146ec6;stroke-width:0;
stroke-linejoin:miter; stroke-linecap:butt;
fill:#146ec6;
"/>
<!-- Line -->
<!--  polyline  -->
<polyline points="512,12960
601,12871
" style="stroke:#ffffff;stroke-width:7;
stroke-linejoin:miter; stroke-linecap:butt;
"/>
<!-- Line -->
<!--  polyline  -->
<polyline points="138,13038
59,13038
59,13015
138,13015
138,13038
" style="stroke:#ffffff;stroke-width:0;
stroke-linejoin:miter; stroke-linecap:butt;
fill:#ffffff;
"/>
<!-- Line -->
<!--  polyline  -->
<polyline points="242,13038
163,13038
163,13015
242,13015
242,13038
" style="stroke:#ffffff;stroke-width:0;
stroke-linejoin:miter; stroke-linecap:butt;
fill:#ffffff;
"/>
<!-- Line -->
<!--  polyline  -->
<polyline points="346,13038
267,13038
267,13015
346,13015
346,13038
" style="stroke:#ffffff;stroke-width:0;
stroke-linejoin:miter; stroke-linecap:butt;
fill:#ffffff;
"/>
<!-- Line -->
<!--  polyline  -->
<polyline points="451,13038
371,13038
371,13015
451,13015
451,13038
" style="stroke:#ffffff;stroke-width:0;
stroke-linejoin:miter; stroke-linecap:butt;
fill:#ffffff;
"/>
<!-- Line -->
<!--  spline  -->
<polyline points="642,13084
642,13085
642,13089
643,13095
643,13099
643,13100
643,13102
642,13106
641,13110
640,13116
639,13121
638,13124
637,13127
635,13132
633,13137
632,13140
631,13141
630,13143
627,13148
623,13154
620,13158
617,13161
615,13163
614,13164
610,13167
605,13172
601,13175
600,13176
598,13178
595,13180
591,13183
585,13186
580,13189
577,13190
576,13190
574,13191
568,13193
562,13195
560,13195
559,13195
557,13195
551,13196
545,13196
540,13196
537,13196
534,13196
" style="stroke:#146ec6;stroke-width:7;
stroke-linejoin:bevel; stroke-linecap:round;
"/>
<!-- Line -->
<!--  spline  -->
<polyline points="631,13081
631,13082
631,13086
631,13091
631,13095
631,13096
631,13098
631,13101
630,13106
629,13111
628,13116
627,13118
627,13119
626,13121
624,13126
622,13131
621,13133
620,13134
619,13136
616,13141
612,13146
609,13150
607,13153
605,13155
604,13156
601,13159
596,13163
593,13166
592,13167
590,13168
587,13171
582,13173
577,13176
572,13179
570,13180
569,13180
567,13181
562,13183
557,13185
555,13185
554,13185
551,13185
546,13186
540,13186
536,13186
532,13186
530,13186
" style="stroke:#146ec6;stroke-width:7;
stroke-linejoin:bevel; stroke-linecap:round;
"/>
<!-- Line -->
<!--  spline  -->
<polyline points="619,13078
619,13079
619,13082
620,13088
620,13091
620,13092
620,13094
620,13097
619,13101
618,13106
617,13111
616,13113
615,13115
613,13120
611,13125
610,13127
610,13128
609,13130
606,13134
603,13139
600,13142
598,13144
596,13146
595,13147
592,13150
587,13154
584,13157
583,13158
581,13160
579,13162
575,13164
570,13167
565,13169
563,13170
562,13170
560,13171
555,13172
550,13173
548,13174
546,13174
541,13175
536,13175
532,13175
529,13175
527,13175
" style="stroke:#146ec6;stroke-width:7;
stroke-linejoin:bevel; stroke-linecap:round;
"/>
<!-- Line -->
<!--  spline  -->
<polyline points="608,13076
608,13077
608,13080
608,13084
608,13087
608,13088
608,13090
608,13093
607,13096
606,13101
605,13105
604,13107
604,13108
604,13110
602,13114
600,13118
600,13120
599,13120
599,13122
596,13126
593,13130
590,13134
588,13136
586,13138
585,13139
583,13141
578,13146
576,13148
575,13149
573,13150
570,13152
567,13154
562,13157
558,13159
556,13160
555,13160
553,13161
549,13162
545,13163
543,13164
542,13164
540,13164
536,13165
531,13165
528,13165
525,13164
523,13164
" style="stroke:#146ec6;stroke-width:7;
stroke-linejoin:bevel; stroke-linecap:round;
"/>
<!-- Line -->
<!--  spline  -->
<polyline points="596,13073
596,13074
596,13076
597,13081
597,13083
597,13084
597,13086
597,13088
596,13092
595,13096
594,13100
593,13102
593,13104
591,13108
589,13112
588,13113
588,13114
587,13115
585,13119
582,13123
580,13126
578,13128
577,13130
576,13130
574,13133
569,13136
567,13139
566,13139
564,13140
562,13142
559,13144
555,13147
551,13149
549,13150
547,13151
543,13152
539,13153
537,13153
535,13154
531,13154
527,13154
523,13154
521,13154
519,13154
" style="stroke:#146ec6;stroke-width:7;
stroke-linejoin:bevel; stroke-linecap:round;
"/>
<!-- Line -->
<!--  spline  -->
<polyline points="585,13070
585,13071
585,13073
585,13077
585,13079
585,13080
585,13082
585,13084
585,13087
584,13091
583,13095
582,13096
582,13097
581,13098
580,13102
578,13105
578,13107
577,13109
575,13112
572,13116
570,13118
568,13120
567,13122
564,13124
561,13128
558,13130
556,13131
554,13133
551,13135
547,13137
544,13139
542,13139
540,13140
537,13141
533,13142
532,13142
531,13142
530,13143
526,13143
522,13143
519,13143
517,13143
515,13143
" style="stroke:#146ec6;stroke-width:7;
stroke-linejoin:bevel; stroke-linecap:round;
"/>
<!-- Line -->
<!--  spline  -->
<polyline points="573,13067
573,13070
574,13073
574,13076
574,13078
574,13080
574,13082
573,13086
572,13089
571,13090
571,13091
570,13092
569,13095
567,13098
567,13100
566,13102
564,13105
562,13108
560,13110
559,13112
558,13113
555,13115
552,13119
549,13121
548,13122
546,13123
543,13125
540,13127
537,13129
535,13129
533,13130
530,13131
527,13132
526,13132
525,13132
524,13133
521,13133
517,13133
515,13133
513,13133
511,13133
" style="stroke:#146ec6;stroke-width:7;
stroke-linejoin:bevel; stroke-linecap:round;
"/>
<!-- Line -->
<!--  spline  -->
<polyline points="562,13064
562,13067
562,13070
562,13073
562,13074
562,13076
562,13078
561,13081
560,13084
560,13085
559,13086
558,13089
557,13092
556,13093
556,13094
554,13097
552,13100
550,13102
549,13104
548,13105
546,13107
543,13110
541,13112
540,13113
538,13114
536,13115
533,13117
530,13118
529,13119
528,13119
527,13119
524,13120
521,13121
520,13121
519,13121
518,13122
515,13122
512,13122
510,13122
508,13122
507,13122
" style="stroke:#146ec6;stroke-width:7;
stroke-linejoin:bevel; stroke-linecap:round;
"/>
</g>
</svg>
