<?xml version="1.0" standalone="no"?>
<!DOCTYPE svg PUBLIC "-//W3C//DTD SVG 1.1//EN"
"http://www.w3.org/Graphics/SVG/1.1/DTD/svg11.dtd">
<!-- Creator: fig2dev Version 3.2 Patchlevel 5c -->
<!-- CreationDate: Fri Sep 14 10:46:44 2012 -->
<!-- Magnification: 1.000 -->
<svg xmlns="http://www.w3.org/2000/svg" width="0.5in" height="0.4in" viewBox="-9 12694 637 515">
<g style="stroke-width:.025in; fill:none">
<!-- Line -->
<!--  spline  -->
<polyline points="616,12903
616,12904
613,12910
608,12922
604,12934
601,12940
601,12941
600,12942
598,12944
592,12950
584,12956
573,12964
557,12973
544,12980
535,12984
530,12986
527,12987
525,12988
519,12990
508,12994
491,12999
473,13004
461,13007
455,13008
452,13009
448,13010
441,13011
428,13013
407,13016
385,13018
366,13020
350,13021
335,13022
323,13022
315,13022
311,13022
310,13022
309,13022
301,13021
284,13020
262,13019
239,13018
222,13017
214,13016
213,13016
212,13016
209,13015
201,13014
190,13013
178,13010
164,13008
148,13004
129,12999
112,12994
101,12990
95,12988
92,12987
90,12986
85,12984
75,12980
62,12973
47,12964
39,12960
36,12958
34,12956
29,12951
19,12941
11,12930
7,12921
4,12913
3,12907
3,12904
3,12903
3,12904
3,12908
3,12919
3,12937
3,12962
3,12990
3,13018
3,13043
3,13061
3,13072
3,13076
3,13077
3,13078
6,13084
11,13096
16,13108
19,13114
19,13115
19,13116
22,13119
28,13124
35,13131
46,13139
62,13148
75,13155
85,13159
90,13161
92,13162
95,13163
101,13165
112,13169
129,13174
147,13179
159,13182
165,13183
169,13184
172,13185
179,13186
192,13188
213,13191
235,13193
254,13195
270,13196
285,13197
297,13197
305,13197
309,13197
310,13197
311,13197
319,13196
336,13195
359,13194
381,13193
398,13192
406,13191
407,13191
408,13191
411,13190
419,13189
430,13188
442,13185
456,13183
473,13179
491,13174
508,13169
519,13165
525,13163
527,13162
530,13161
535,13159
544,13155
557,13148
572,13139
580,13134
583,13132
586,13131
591,13125
601,13115
609,13104
613,13095
615,13087
616,13081
616,13078
616,13077
616,13076
616,13072
616,13061
616,13043
616,13018
616,12990
616,12962
616,12937
616,12919
616,12908
616,12904
616,12903
" style="stroke:#026c9b;stroke-width:0;
stroke-linejoin:bevel; stroke-linecap:butt;
fill:#026c9b;
"/>
<!-- Line -->
<!--  spline  -->
<polyline points="616,12903
616,12904
613,12910
608,12922
604,12934
601,12940
601,12941
600,12942
598,12944
592,12950
584,12956
573,12964
557,12973
544,12980
535,12984
530,12986
527,12987
525,12988
519,12990
508,12994
491,12999
473,13004
461,13007
455,13008
452,13009
448,13010
441,13011
428,13013
407,13016
385,13018
366,13020
350,13021
335,13022
323,13022
315,13022
311,13022
310,13022
309,13022
301,13021
284,13020
262,13019
239,13018
222,13017
214,13016
213,13016
212,13016
209,13015
201,13014
190,13013
178,13010
164,13008
148,13004
129,12999
112,12994
101,12990
95,12988
92,12987
90,12986
85,12984
75,12980
62,12973
47,12964
39,12960
36,12958
34,12956
29,12951
19,12941
11,12930
7,12921
4,12913
3,12907
3,12904
3,12903
3,12904
3,12908
3,12919
3,12937
3,12962
3,12990
3,13018
3,13043
3,13061
3,13072
3,13076
3,13077
3,13078
6,13084
11,13096
16,13108
19,13114
19,13115
19,13116
22,13119
28,13124
35,13131
46,13139
62,13148
75,13155
85,13159
90,13161
92,13162
95,13163
101,13165
112,13169
129,13174
147,13179
159,13182
165,13183
169,13184
172,13185
179,13186
192,13188
213,13191
235,13193
254,13195
270,13196
285,13197
297,13197
305,13197
309,13197
310,13197
311,13197
319,13196
336,13195
359,13194
381,13193
398,13192
406,13191
407,13191
408,13191
411,13190
419,13189
430,13188
442,13185
456,13183
473,13179
491,13174
508,13169
519,13165
525,13163
527,13162
530,13161
535,13159
544,13155
557,13148
572,13139
580,13134
583,13132
586,13131
591,13125
601,13115
609,13104
613,13095
615,13087
616,13081
616,13078
616,13077
616,13076
616,13072
616,13061
616,13043
616,13018
616,12990
616,12962
616,12937
616,12919
616,12908
616,12904
616,12903
" style="stroke:#ffffff;stroke-width:7;
stroke-linejoin:bevel; stroke-linecap:butt;
"/>
<!-- Line -->
<!--  spline  -->
<polyline points="310,13022
311,13022
319,13021
336,13020
359,13019
381,13018
398,13017
406,13016
407,13016
408,13016
411,13015
419,13014
430,13013
442,13010
456,13008
473,13004
491,12999
508,12994
519,12990
525,12988
527,12987
530,12986
535,12984
544,12980
557,12973
572,12964
580,12960
583,12958
586,12956
591,12951
601,12941
609,12930
613,12921
615,12913
616,12907
616,12904
616,12903
616,12902
613,12896
608,12884
604,12872
601,12866
601,12865
600,12864
598,12861
592,12856
584,12849
573,12841
557,12832
544,12825
535,12821
530,12819
527,12818
525,12817
519,12816
508,12812
491,12807
473,12802
461,12799
455,12798
452,12797
448,12796
441,12795
428,12793
407,12790
385,12788
366,12786
350,12785
335,12784
323,12784
315,12784
311,12784
310,12784
309,12784
301,12785
284,12786
262,12787
239,12788
222,12789
214,12790
213,12790
212,12790
209,12791
201,12792
190,12794
178,12796
164,12799
148,12802
129,12807
112,12812
101,12816
95,12817
92,12818
90,12819
85,12821
75,12825
62,12832
47,12841
39,12846
36,12847
34,12849
29,12855
19,12865
11,12876
7,12885
4,12893
3,12899
3,12902
3,12903
3,12904
6,12910
11,12922
16,12934
19,12940
19,12941
19,12942
22,12944
28,12950
35,12956
46,12964
62,12973
75,12980
85,12984
90,12986
92,12987
95,12988
101,12990
112,12994
129,12999
147,13004
159,13007
165,13008
169,13009
172,13010
179,13011
192,13013
213,13016
235,13018
254,13020
270,13021
285,13022
297,13022
305,13022
309,13022
310,13022
" style="stroke:#026c9b;stroke-width:0;
stroke-linejoin:bevel; stroke-linecap:butt;
fill:#026c9b;
"/>
<!-- Line -->
<!--  spline  -->
<polyline points="310,13022
311,13022
319,13021
336,13020
359,13019
381,13018
398,13017
406,13016
407,13016
408,13016
411,13015
419,13014
430,13013
442,13010
456,13008
473,13004
491,12999
508,12994
519,12990
525,12988
527,12987
530,12986
535,12984
544,12980
557,12973
572,12964
580,12960
583,12958
586,12956
591,12951
601,12941
609,12930
613,12921
615,12913
616,12907
616,12904
616,12903
616,12902
613,12896
608,12884
604,12872
601,12866
601,12865
600,12864
598,12861
592,12856
584,12849
573,12841
557,12832
544,12825
535,12821
530,12819
527,12818
525,12817
519,12816
508,12812
491,12807
473,12802
461,12799
455,12798
452,12797
448,12796
441,12795
428,12793
407,12790
385,12788
366,12786
350,12785
335,12784
323,12784
315,12784
311,12784
310,12784
309,12784
301,12785
284,12786
262,12787
239,12788
222,12789
214,12790
213,12790
212,12790
209,12791
201,12792
190,12794
178,12796
164,12799
148,12802
129,12807
112,12812
101,12816
95,12817
92,12818
90,12819
85,12821
75,12825
62,12832
47,12841
39,12846
36,12847
34,12849
29,12855
19,12865
11,12876
7,12885
4,12893
3,12899
3,12902
3,12903
3,12904
6,12910
11,12922
16,12934
19,12940
19,12941
19,12942
22,12944
28,12950
35,12956
46,12964
62,12973
75,12980
85,12984
90,12986
92,12987
95,12988
101,12990
112,12994
129,12999
147,13004
159,13007
165,13008
169,13009
172,13010
179,13011
192,13013
213,13016
235,13018
254,13020
270,13021
285,13022
297,13022
305,13022
309,13022
310,13022
" style="stroke:#ffffff;stroke-width:7;
stroke-linejoin:bevel; stroke-linecap:butt;
"/>
<!-- Line -->
<!--  spline  -->
<polyline points="310,12943
311,12943
319,12942
335,12941
358,12940
381,12939
397,12938
405,12937
406,12937
407,12937
410,12936
418,12935
429,12934
441,12931
455,12928
472,12925
490,12920
507,12915
518,12911
524,12910
526,12909
529,12908
534,12906
543,12902
556,12895
571,12886
579,12881
582,12879
585,12877
590,12872
600,12862
608,12851
612,12842
614,12835
615,12829
615,12826
615,12825
615,12824
612,12818
607,12806
603,12794
600,12788
600,12787
599,12786
597,12784
591,12778
583,12772
572,12764
556,12755
543,12748
534,12744
529,12742
526,12741
524,12740
518,12738
507,12734
490,12729
472,12724
460,12721
454,12720
451,12719
447,12718
440,12717
427,12715
406,12712
384,12710
365,12708
349,12707
335,12706
323,12706
315,12706
311,12706
310,12706
309,12706
301,12707
284,12708
262,12709
239,12710
222,12711
214,12712
213,12712
212,12712
209,12713
201,12714
191,12715
178,12718
164,12720
148,12724
130,12729
113,12734
102,12738
96,12740
93,12741
91,12742
86,12744
76,12748
63,12755
48,12764
40,12768
37,12770
35,12772
29,12777
20,12787
12,12798
8,12807
6,12815
5,12821
5,12824
5,12825
5,12826
8,12832
13,12844
17,12855
20,12861
20,12862
20,12863
23,12866
29,12871
36,12878
47,12886
63,12895
76,12902
86,12906
91,12908
93,12909
96,12910
102,12911
113,12915
130,12920
148,12925
160,12928
166,12929
169,12930
172,12931
179,12932
192,12934
213,12937
235,12939
254,12941
270,12942
284,12943
297,12943
305,12943
309,12943
310,12943
" style="stroke:#026c9b;stroke-width:0;
stroke-linejoin:bevel; stroke-linecap:butt;
fill:#026c9b;
"/>
<!-- Line -->
<!--  spline  -->
<polyline points="310,12943
311,12943
319,12942
335,12941
358,12940
381,12939
397,12938
405,12937
406,12937
407,12937
410,12936
418,12935
429,12934
441,12931
455,12928
472,12925
490,12920
507,12915
518,12911
524,12910
526,12909
529,12908
534,12906
543,12902
556,12895
571,12886
579,12881
582,12879
585,12877
590,12872
600,12862
608,12851
612,12842
614,12835
615,12829
615,12826
615,12825
615,12824
612,12818
607,12806
603,12794
600,12788
600,12787
599,12786
597,12784
591,12778
583,12772
572,12764
556,12755
543,12748
534,12744
529,12742
526,12741
524,12740
518,12738
507,12734
490,12729
472,12724
460,12721
454,12720
451,12719
447,12718
440,12717
427,12715
406,12712
384,12710
365,12708
349,12707
335,12706
323,12706
315,12706
311,12706
310,12706
309,12706
301,12707
284,12708
262,12709
239,12710
222,12711
214,12712
213,12712
212,12712
209,12713
201,12714
191,12715
178,12718
164,12720
148,12724
130,12729
113,12734
102,12738
96,12740
93,12741
91,12742
86,12744
76,12748
63,12755
48,12764
40,12768
37,12770
35,12772
29,12777
20,12787
12,12798
8,12807
6,12815
5,12821
5,12824
5,12825
5,12826
8,12832
13,12844
17,12855
20,12861
20,12862
20,12863
23,12866
29,12871
36,12878
47,12886
63,12895
76,12902
86,12906
91,12908
93,12909
96,12910
102,12911
113,12915
130,12920
148,12925
160,12928
166,12929
169,12930
172,12931
179,12932
192,12934
213,12937
235,12939
254,12941
270,12942
284,12943
297,12943
305,12943
309,12943
310,12943
" style="stroke:#ffffff;stroke-width:7;
stroke-linejoin:bevel; stroke-linecap:butt;
"/>
<!-- Line -->
<!--  spline  -->
<polyline points="615,12825
615,12826
612,12832
607,12844
603,12855
600,12861
600,12862
599,12863
597,12866
591,12871
583,12878
572,12886
556,12895
543,12902
534,12906
529,12908
526,12909
524,12910
518,12911
507,12915
490,12920
472,12925
460,12928
454,12929
451,12930
447,12931
440,12932
427,12934
406,12937
384,12939
365,12941
349,12942
335,12943
323,12943
315,12943
311,12943
310,12943
309,12943
301,12942
284,12941
262,12940
239,12939
222,12938
214,12937
213,12937
212,12937
209,12936
201,12935
191,12934
178,12931
164,12928
148,12925
130,12920
113,12915
102,12911
96,12910
93,12909
91,12908
86,12906
76,12902
63,12895
48,12886
40,12881
37,12879
35,12877
29,12872
20,12862
12,12851
8,12842
6,12835
5,12829
5,12826
5,12825
5,12826
5,12833
5,12847
5,12867
5,12887
5,12901
5,12908
5,12909
5,12910
8,12916
13,12928
17,12939
20,12945
20,12946
20,12947
23,12950
29,12955
36,12962
47,12970
63,12979
76,12986
86,12990
91,12992
93,12993
96,12994
102,12996
113,13000
130,13005
148,13010
160,13013
166,13014
169,13015
172,13015
179,13016
192,13018
213,13021
235,13023
254,13025
270,13026
284,13026
297,13027
305,13027
309,13027
310,13027
311,13027
319,13026
335,13025
358,13024
381,13023
397,13022
405,13021
406,13021
407,13021
410,13020
418,13019
429,13018
441,13016
455,13013
472,13010
490,13005
507,13000
518,12996
524,12994
526,12993
529,12992
534,12990
543,12986
556,12979
571,12970
579,12965
582,12963
585,12961
590,12956
600,12946
608,12935
612,12926
614,12919
615,12913
615,12910
615,12909
615,12908
615,12901
615,12887
615,12867
615,12847
615,12833
615,12826
615,12825
" style="stroke:#026c9b;stroke-width:0;
stroke-linejoin:bevel; stroke-linecap:butt;
fill:#026c9b;
"/>
<!-- Line -->
<!--  spline  -->
<polyline points="615,12825
615,12826
612,12832
607,12844
603,12855
600,12861
600,12862
599,12863
597,12866
591,12871
583,12878
572,12886
556,12895
543,12902
534,12906
529,12908
526,12909
524,12910
518,12911
507,12915
490,12920
472,12925
460,12928
454,12929
451,12930
447,12931
440,12932
427,12934
406,12937
384,12939
365,12941
349,12942
335,12943
323,12943
315,12943
311,12943
310,12943
309,12943
301,12942
284,12941
262,12940
239,12939
222,12938
214,12937
213,12937
212,12937
209,12936
201,12935
191,12934
178,12931
164,12928
148,12925
130,12920
113,12915
102,12911
96,12910
93,12909
91,12908
86,12906
76,12902
63,12895
48,12886
40,12881
37,12879
35,12877
29,12872
20,12862
12,12851
8,12842
6,12835
5,12829
5,12826
5,12825
5,12826
5,12833
5,12847
5,12867
5,12887
5,12901
5,12908
5,12909
5,12910
8,12916
13,12928
17,12939
20,12945
20,12946
20,12947
23,12950
29,12955
36,12962
47,12970
63,12979
76,12986
86,12990
91,12992
93,12993
96,12994
102,12996
113,13000
130,13005
148,13010
160,13013
166,13014
169,13015
172,13015
179,13016
192,13018
213,13021
235,13023
254,13025
270,13026
284,13026
297,13027
305,13027
309,13027
310,13027
311,13027
319,13026
335,13025
358,13024
381,13023
397,13022
405,13021
406,13021
407,13021
410,13020
418,13019
429,13018
441,13016
455,13013
472,13010
490,13005
507,13000
518,12996
524,12994
526,12993
529,12992
534,12990
543,12986
556,12979
571,12970
579,12965
582,12963
585,12961
590,12956
600,12946
608,12935
612,12926
614,12919
615,12913
615,12910
615,12909
615,12908
615,12901
615,12887
615,12867
615,12847
615,12833
615,12826
615,12825
" style="stroke:#ffffff;stroke-width:7;
stroke-linejoin:bevel; stroke-linecap:butt;
"/>
<!-- Line -->
<!--  polyline  -->
<polyline points="240,12773
265,12811
169,12833
190,12816
43,12790
80,12763
222,12787
240,12773
" style="stroke:#ffffff;stroke-width:0;
stroke-linejoin:miter; stroke-linecap:butt;
fill:#ffffff;
"/>
<!-- Line -->
<!--  polyline  -->
<polyline points="375,12865
357,12826
444,12809
429,12822
573,12847
538,12874
395,12847
375,12865
" style="stroke:#ffffff;stroke-width:0;
stroke-linejoin:miter; stroke-linecap:butt;
fill:#ffffff;
"/>
<!-- Line -->
<!--  polyline  -->
<polyline points="327,12752
424,12726
425,12767
401,12763
354,12802
309,12795
357,12757
327,12752
" style="stroke:#ffffff;stroke-width:0;
stroke-linejoin:miter; stroke-linecap:butt;
fill:#ffffff;
"/>
<!-- Line -->
<!--  polyline  -->
<polyline points="286,12901
194,12918
190,12875
217,12881
268,12838
312,12845
258,12893
286,12901
" style="stroke:#ffffff;stroke-width:0;
stroke-linejoin:miter; stroke-linecap:butt;
fill:#ffffff;
"/>
<!-- Line -->
<!--  polyline  -->
<polyline points="240,12831
323,12836
" style="stroke:#ffffff;stroke-width:7;
stroke-linejoin:miter; stroke-linecap:butt;
"/>
<!-- Line -->
<!--  polyline  -->
<polyline points="66,12820
151,12825
" style="stroke:#ffffff;stroke-width:7;
stroke-linejoin:miter; stroke-linecap:butt;
"/>
<!-- Line -->
<!--  polyline  -->
<polyline points="31,12782
99,12788
" style="stroke:#ffffff;stroke-width:7;
stroke-linejoin:miter; stroke-linecap:butt;
"/>
<!-- Line -->
<!--  polyline  -->
<polyline points="107,12785
22,12855
" style="stroke:#ffffff;stroke-width:7;
stroke-linejoin:miter; stroke-linecap:butt;
"/>
<!-- Line -->
<!--  polyline  -->
<polyline points="191,12795
72,12894
" style="stroke:#ffffff;stroke-width:7;
stroke-linejoin:miter; stroke-linecap:butt;
"/>
<!-- Line -->
<!--  polyline  -->
<polyline points="283,12799
138,12917
" style="stroke:#ffffff;stroke-width:7;
stroke-linejoin:miter; stroke-linecap:butt;
"/>
<!-- Line -->
<!--  polyline  -->
<polyline points="108,12864
193,12869
" style="stroke:#ffffff;stroke-width:7;
stroke-linejoin:miter; stroke-linecap:butt;
"/>
<!-- Line -->
<!--  polyline  -->
<polyline points="477,12873
562,12878
" style="stroke:#ffffff;stroke-width:7;
stroke-linejoin:miter; stroke-linecap:butt;
"/>
<!-- Line -->
<!--  polyline  -->
<polyline points="305,12862
390,12867
" style="stroke:#ffffff;stroke-width:7;
stroke-linejoin:miter; stroke-linecap:butt;
"/>
<!-- Line -->
<!--  polyline  -->
<polyline points="342,12825
214,12934
" style="stroke:#ffffff;stroke-width:7;
stroke-linejoin:miter; stroke-linecap:butt;
"/>
<!-- Line -->
<!--  polyline  -->
<polyline points="433,12832
306,12940
" style="stroke:#ffffff;stroke-width:7;
stroke-linejoin:miter; stroke-linecap:butt;
"/>
<!-- Line -->
<!--  polyline  -->
<polyline points="517,12838
404,12938
" style="stroke:#ffffff;stroke-width:7;
stroke-linejoin:miter; stroke-linecap:butt;
"/>
<!-- Line -->
<!--  polyline  -->
<polyline points="612,12827
533,12904
" style="stroke:#ffffff;stroke-width:7;
stroke-linejoin:miter; stroke-linecap:butt;
"/>
<!-- Line -->
<!--  polyline  -->
<polyline points="172,12895
257,12900
" style="stroke:#ffffff;stroke-width:7;
stroke-linejoin:miter; stroke-linecap:butt;
"/>
<!-- Line -->
<!--  polyline  -->
<polyline points="346,12906
431,12911
" style="stroke:#ffffff;stroke-width:7;
stroke-linejoin:miter; stroke-linecap:butt;
"/>
<!-- Line -->
<!--  polyline  -->
<polyline points="181,12719
101,12788
" style="stroke:#ffffff;stroke-width:7;
stroke-linejoin:miter; stroke-linecap:butt;
"/>
<!-- Line -->
<!--  polyline  -->
<polyline points="293,12707
190,12799
" style="stroke:#ffffff;stroke-width:7;
stroke-linejoin:miter; stroke-linecap:butt;
"/>
<!-- Line -->
<!--  polyline  -->
<polyline points="516,12762
574,12769
" style="stroke:#ffffff;stroke-width:7;
stroke-linejoin:miter; stroke-linecap:butt;
"/>
<!-- Line -->
<!--  polyline  -->
<polyline points="389,12711
247,12829
" style="stroke:#ffffff;stroke-width:7;
stroke-linejoin:miter; stroke-linecap:butt;
"/>
<!-- Line -->
<!--  polyline  -->
<polyline points="467,12721
331,12835
" style="stroke:#ffffff;stroke-width:7;
stroke-linejoin:miter; stroke-linecap:butt;
"/>
<!-- Line -->
<!--  polyline  -->
<polyline points="533,12746
424,12840
" style="stroke:#ffffff;stroke-width:7;
stroke-linejoin:miter; stroke-linecap:butt;
"/>
<!-- Line -->
<!--  polyline  -->
<polyline points="589,12780
512,12846
" style="stroke:#ffffff;stroke-width:7;
stroke-linejoin:miter; stroke-linecap:butt;
"/>
<!-- Line -->
<!--  polyline  -->
<polyline points="211,12783
296,12789
" style="stroke:#ffffff;stroke-width:7;
stroke-linejoin:miter; stroke-linecap:butt;
"/>
<!-- Line -->
<!--  polyline  -->
<polyline points="385,12795
470,12800
" style="stroke:#ffffff;stroke-width:7;
stroke-linejoin:miter; stroke-linecap:butt;
"/>
<!-- Line -->
<!--  polyline  -->
<polyline points="557,12806
608,12809
" style="stroke:#ffffff;stroke-width:7;
stroke-linejoin:miter; stroke-linecap:butt;
"/>
</g>
</svg>
