<?xml version="1.0" standalone="no"?>
<!DOCTYPE svg PUBLIC "-//W3C//DTD SVG 1.1//EN"
"http://www.w3.org/Graphics/SVG/1.1/DTD/svg11.dtd">
<!-- Creator: fig2dev Version 3.2 Patchlevel 5c -->
<!-- CreationDate: Fri Sep 14 10:46:44 2012 -->
<!-- Magnification: 1.000 -->
<svg xmlns="http://www.w3.org/2000/svg" width="0.6in" height="0.9in" viewBox="-4 12099 740 1105">
<g style="stroke-width:.025in; fill:none">
<!-- Line -->
<!--  polyline  -->
<polyline points="152,12762
8,12762
8,13192
152,13192
" style="stroke:#036998;stroke-width:0;
stroke-linejoin:miter; stroke-linecap:butt;
fill:#036998;
"/>
<!-- Line -->
<!--  polyline  -->
<polyline points="152,12762
8,12762
8,13192
152,13192
" style="stroke:#ffffff;stroke-width:7;
stroke-linejoin:miter; stroke-linecap:butt;
"/>
<!-- Line -->
<!--  polyline  -->
<polyline points="152,13192
232,13112
232,12683
88,12683
8,12762
152,12762
152,13192
" style="stroke:#036998;stroke-width:0;
stroke-linejoin:miter; stroke-linecap:butt;
fill:#036998;
"/>
<!-- Line -->
<!--  polyline  -->
<polyline points="152,13192
232,13112
232,12683
88,12683
8,12762
152,12762
152,13192
" style="stroke:#ffffff;stroke-width:7;
stroke-linejoin:miter; stroke-linecap:butt;
"/>
<!-- Line -->
<!--  polyline  -->
<polyline points="152,12762
232,12683
" style="stroke:#036998;stroke-width:0;
stroke-linejoin:miter; stroke-linecap:butt;
fill:#036998;
"/>
<!-- Line -->
<!--  polyline  -->
<polyline points="152,12762
232,12683
" style="stroke:#ffffff;stroke-width:7;
stroke-linejoin:miter; stroke-linecap:butt;
"/>
<!-- Line -->
<!--  polyline  -->
<polyline points="446,12230
152,12230
152,13192
446,13192
" style="stroke:#036998;stroke-width:0;
stroke-linejoin:miter; stroke-linecap:butt;
fill:#036998;
"/>
<!-- Line -->
<!--  polyline  -->
<polyline points="446,12230
152,12230
152,13192
446,13192
" style="stroke:#ffffff;stroke-width:7;
stroke-linejoin:miter; stroke-linecap:butt;
"/>
<!-- Line -->
<!--  polyline  -->
<polyline points="446,13192
565,13073
565,12111
271,12111
152,12230
446,12230
446,13192
" style="stroke:#036998;stroke-width:0;
stroke-linejoin:miter; stroke-linecap:butt;
fill:#036998;
"/>
<!-- Line -->
<!--  polyline  -->
<polyline points="446,13192
565,13073
565,12111
271,12111
152,12230
446,12230
446,13192
" style="stroke:#ffffff;stroke-width:7;
stroke-linejoin:miter; stroke-linecap:butt;
"/>
<!-- Line -->
<!--  polyline  -->
<polyline points="446,12230
565,12111
" style="stroke:#036998;stroke-width:0;
stroke-linejoin:miter; stroke-linecap:butt;
fill:#036998;
"/>
<!-- Line -->
<!--  polyline  -->
<polyline points="446,12230
565,12111
" style="stroke:#ffffff;stroke-width:7;
stroke-linejoin:miter; stroke-linecap:butt;
"/>
<!-- Line -->
<!--  polyline  -->
<polyline points="305,12625
305,12670
350,12670
" style="stroke:#036998;stroke-width:0;
stroke-linejoin:miter; stroke-linecap:butt;
fill:#036998;
"/>
<!-- Line -->
<!--  polyline  -->
<polyline points="305,12625
305,12670
350,12670
" style="stroke:#ffffff;stroke-width:7;
stroke-linejoin:miter; stroke-linecap:butt;
"/>
<!-- Line -->
<!--  polyline  -->
<polyline points="368,12625
368,12670
412,12670
" style="stroke:#036998;stroke-width:0;
stroke-linejoin:miter; stroke-linecap:butt;
fill:#036998;
"/>
<!-- Line -->
<!--  polyline  -->
<polyline points="368,12625
368,12670
412,12670
" style="stroke:#ffffff;stroke-width:7;
stroke-linejoin:miter; stroke-linecap:butt;
"/>
<!-- Line -->
<!--  polyline  -->
<polyline points="179,12626
179,12671
224,12671
" style="stroke:#036998;stroke-width:0;
stroke-linejoin:miter; stroke-linecap:butt;
fill:#036998;
"/>
<!-- Line -->
<!--  polyline  -->
<polyline points="179,12626
179,12671
224,12671
" style="stroke:#ffffff;stroke-width:7;
stroke-linejoin:miter; stroke-linecap:butt;
"/>
<!-- Line -->
<!--  polyline  -->
<polyline points="242,12626
242,12671
287,12671
" style="stroke:#036998;stroke-width:0;
stroke-linejoin:miter; stroke-linecap:butt;
fill:#036998;
"/>
<!-- Line -->
<!--  polyline  -->
<polyline points="242,12626
242,12671
287,12671
" style="stroke:#ffffff;stroke-width:7;
stroke-linejoin:miter; stroke-linecap:butt;
"/>
<!-- Line -->
<!--  polyline  -->
<polyline points="304,12718
304,12763
349,12763
" style="stroke:#036998;stroke-width:0;
stroke-linejoin:miter; stroke-linecap:butt;
fill:#036998;
"/>
<!-- Line -->
<!--  polyline  -->
<polyline points="304,12718
304,12763
349,12763
" style="stroke:#ffffff;stroke-width:7;
stroke-linejoin:miter; stroke-linecap:butt;
"/>
<!-- Line -->
<!--  polyline  -->
<polyline points="367,12718
367,12763
412,12763
" style="stroke:#036998;stroke-width:0;
stroke-linejoin:miter; stroke-linecap:butt;
fill:#036998;
"/>
<!-- Line -->
<!--  polyline  -->
<polyline points="367,12718
367,12763
412,12763
" style="stroke:#ffffff;stroke-width:7;
stroke-linejoin:miter; stroke-linecap:butt;
"/>
<!-- Line -->
<!--  polyline  -->
<polyline points="179,12720
179,12765
223,12765
" style="stroke:#036998;stroke-width:0;
stroke-linejoin:miter; stroke-linecap:butt;
fill:#036998;
"/>
<!-- Line -->
<!--  polyline  -->
<polyline points="179,12720
179,12765
223,12765
" style="stroke:#ffffff;stroke-width:7;
stroke-linejoin:miter; stroke-linecap:butt;
"/>
<!-- Line -->
<!--  polyline  -->
<polyline points="241,12720
241,12765
286,12765
" style="stroke:#036998;stroke-width:0;
stroke-linejoin:miter; stroke-linecap:butt;
fill:#036998;
"/>
<!-- Line -->
<!--  polyline  -->
<polyline points="241,12720
241,12765
286,12765
" style="stroke:#ffffff;stroke-width:7;
stroke-linejoin:miter; stroke-linecap:butt;
"/>
<!-- Line -->
<!--  polyline  -->
<polyline points="304,12808
304,12853
349,12853
" style="stroke:#ffffff;stroke-width:7;
stroke-linejoin:miter; stroke-linecap:butt;
"/>
<!-- Line -->
<!--  polyline  -->
<polyline points="367,12808
367,12853
412,12853
" style="stroke:#ffffff;stroke-width:7;
stroke-linejoin:miter; stroke-linecap:butt;
"/>
<!-- Line -->
<!--  polyline  -->
<polyline points="179,12809
179,12854
223,12854
" style="stroke:#ffffff;stroke-width:7;
stroke-linejoin:miter; stroke-linecap:butt;
"/>
<!-- Line -->
<!--  polyline  -->
<polyline points="241,12809
241,12854
286,12854
" style="stroke:#ffffff;stroke-width:7;
stroke-linejoin:miter; stroke-linecap:butt;
"/>
<!-- Line -->
<!--  polyline  -->
<polyline points="29,12799
29,12844
74,12844
" style="stroke:#ffffff;stroke-width:7;
stroke-linejoin:miter; stroke-linecap:butt;
"/>
<!-- Line -->
<!--  polyline  -->
<polyline points="91,12799
91,12844
136,12844
" style="stroke:#ffffff;stroke-width:7;
stroke-linejoin:miter; stroke-linecap:butt;
"/>
<!-- Line -->
<!--  polyline  -->
<polyline points="32,12883
32,12928
77,12928
" style="stroke:#ffffff;stroke-width:7;
stroke-linejoin:miter; stroke-linecap:butt;
"/>
<!-- Line -->
<!--  polyline  -->
<polyline points="95,12883
95,12928
140,12928
" style="stroke:#ffffff;stroke-width:7;
stroke-linejoin:miter; stroke-linecap:butt;
"/>
<!-- Line -->
<!--  polyline  -->
<polyline points="32,12959
32,13004
77,13004
" style="stroke:#ffffff;stroke-width:7;
stroke-linejoin:miter; stroke-linecap:butt;
"/>
<!-- Line -->
<!--  polyline  -->
<polyline points="95,12959
95,13004
140,13004
" style="stroke:#ffffff;stroke-width:7;
stroke-linejoin:miter; stroke-linecap:butt;
"/>
<!-- Line -->
<!--  polyline  -->
<polyline points="306,12278
306,12323
351,12323
" style="stroke:#036998;stroke-width:0;
stroke-linejoin:miter; stroke-linecap:butt;
fill:#036998;
"/>
<!-- Line -->
<!--  polyline  -->
<polyline points="306,12278
306,12323
351,12323
" style="stroke:#ffffff;stroke-width:7;
stroke-linejoin:miter; stroke-linecap:butt;
"/>
<!-- Line -->
<!--  polyline  -->
<polyline points="369,12278
369,12323
414,12323
" style="stroke:#036998;stroke-width:0;
stroke-linejoin:miter; stroke-linecap:butt;
fill:#036998;
"/>
<!-- Line -->
<!--  polyline  -->
<polyline points="369,12278
369,12323
414,12323
" style="stroke:#ffffff;stroke-width:7;
stroke-linejoin:miter; stroke-linecap:butt;
"/>
<!-- Line -->
<!--  polyline  -->
<polyline points="180,12279
180,12324
225,12324
" style="stroke:#036998;stroke-width:0;
stroke-linejoin:miter; stroke-linecap:butt;
fill:#036998;
"/>
<!-- Line -->
<!--  polyline  -->
<polyline points="180,12279
180,12324
225,12324
" style="stroke:#ffffff;stroke-width:7;
stroke-linejoin:miter; stroke-linecap:butt;
"/>
<!-- Line -->
<!--  polyline  -->
<polyline points="243,12279
243,12324
288,12324
" style="stroke:#036998;stroke-width:0;
stroke-linejoin:miter; stroke-linecap:butt;
fill:#036998;
"/>
<!-- Line -->
<!--  polyline  -->
<polyline points="243,12279
243,12324
288,12324
" style="stroke:#ffffff;stroke-width:7;
stroke-linejoin:miter; stroke-linecap:butt;
"/>
<!-- Line -->
<!--  polyline  -->
<polyline points="306,12372
306,12417
351,12417
" style="stroke:#036998;stroke-width:0;
stroke-linejoin:miter; stroke-linecap:butt;
fill:#036998;
"/>
<!-- Line -->
<!--  polyline  -->
<polyline points="306,12372
306,12417
351,12417
" style="stroke:#ffffff;stroke-width:7;
stroke-linejoin:miter; stroke-linecap:butt;
"/>
<!-- Line -->
<!--  polyline  -->
<polyline points="368,12372
368,12417
413,12417
" style="stroke:#036998;stroke-width:0;
stroke-linejoin:miter; stroke-linecap:butt;
fill:#036998;
"/>
<!-- Line -->
<!--  polyline  -->
<polyline points="368,12372
368,12417
413,12417
" style="stroke:#ffffff;stroke-width:7;
stroke-linejoin:miter; stroke-linecap:butt;
"/>
<!-- Line -->
<!--  polyline  -->
<polyline points="180,12373
180,12418
225,12418
" style="stroke:#036998;stroke-width:0;
stroke-linejoin:miter; stroke-linecap:butt;
fill:#036998;
"/>
<!-- Line -->
<!--  polyline  -->
<polyline points="180,12373
180,12418
225,12418
" style="stroke:#ffffff;stroke-width:7;
stroke-linejoin:miter; stroke-linecap:butt;
"/>
<!-- Line -->
<!--  polyline  -->
<polyline points="242,12373
242,12418
287,12418
" style="stroke:#036998;stroke-width:0;
stroke-linejoin:miter; stroke-linecap:butt;
fill:#036998;
"/>
<!-- Line -->
<!--  polyline  -->
<polyline points="242,12373
242,12418
287,12418
" style="stroke:#ffffff;stroke-width:7;
stroke-linejoin:miter; stroke-linecap:butt;
"/>
<!-- Line -->
<!--  polyline  -->
<polyline points="306,12461
306,12506
351,12506
" style="stroke:#036998;stroke-width:0;
stroke-linejoin:miter; stroke-linecap:butt;
fill:#036998;
"/>
<!-- Line -->
<!--  polyline  -->
<polyline points="306,12461
306,12506
351,12506
" style="stroke:#ffffff;stroke-width:7;
stroke-linejoin:miter; stroke-linecap:butt;
"/>
<!-- Line -->
<!--  polyline  -->
<polyline points="368,12461
368,12506
413,12506
" style="stroke:#036998;stroke-width:0;
stroke-linejoin:miter; stroke-linecap:butt;
fill:#036998;
"/>
<!-- Line -->
<!--  polyline  -->
<polyline points="368,12461
368,12506
413,12506
" style="stroke:#ffffff;stroke-width:7;
stroke-linejoin:miter; stroke-linecap:butt;
"/>
<!-- Line -->
<!--  polyline  -->
<polyline points="180,12462
180,12507
225,12507
" style="stroke:#036998;stroke-width:0;
stroke-linejoin:miter; stroke-linecap:butt;
fill:#036998;
"/>
<!-- Line -->
<!--  polyline  -->
<polyline points="180,12462
180,12507
225,12507
" style="stroke:#ffffff;stroke-width:7;
stroke-linejoin:miter; stroke-linecap:butt;
"/>
<!-- Line -->
<!--  polyline  -->
<polyline points="242,12462
242,12507
287,12507
" style="stroke:#036998;stroke-width:0;
stroke-linejoin:miter; stroke-linecap:butt;
fill:#036998;
"/>
<!-- Line -->
<!--  polyline  -->
<polyline points="242,12462
242,12507
287,12507
" style="stroke:#ffffff;stroke-width:7;
stroke-linejoin:miter; stroke-linecap:butt;
"/>
<!-- Line -->
<!--  polyline  -->
<polyline points="306,12544
306,12589
351,12589
" style="stroke:#036998;stroke-width:0;
stroke-linejoin:miter; stroke-linecap:butt;
fill:#036998;
"/>
<!-- Line -->
<!--  polyline  -->
<polyline points="306,12544
306,12589
351,12589
" style="stroke:#ffffff;stroke-width:7;
stroke-linejoin:miter; stroke-linecap:butt;
"/>
<!-- Line -->
<!--  polyline  -->
<polyline points="368,12544
368,12589
413,12589
" style="stroke:#036998;stroke-width:0;
stroke-linejoin:miter; stroke-linecap:butt;
fill:#036998;
"/>
<!-- Line -->
<!--  polyline  -->
<polyline points="368,12544
368,12589
413,12589
" style="stroke:#ffffff;stroke-width:7;
stroke-linejoin:miter; stroke-linecap:butt;
"/>
<!-- Line -->
<!--  polyline  -->
<polyline points="180,12545
180,12590
225,12590
" style="stroke:#036998;stroke-width:0;
stroke-linejoin:miter; stroke-linecap:butt;
fill:#036998;
"/>
<!-- Line -->
<!--  polyline  -->
<polyline points="180,12545
180,12590
225,12590
" style="stroke:#ffffff;stroke-width:7;
stroke-linejoin:miter; stroke-linecap:butt;
"/>
<!-- Line -->
<!--  polyline  -->
<polyline points="242,12545
242,12590
287,12590
" style="stroke:#036998;stroke-width:0;
stroke-linejoin:miter; stroke-linecap:butt;
fill:#036998;
"/>
<!-- Line -->
<!--  polyline  -->
<polyline points="242,12545
242,12590
287,12590
" style="stroke:#ffffff;stroke-width:7;
stroke-linejoin:miter; stroke-linecap:butt;
"/>
<!-- Line -->
<!--  polyline  -->
<polyline points="476,12660
476,12704
" style="stroke:#036998;stroke-width:0;
stroke-linejoin:miter; stroke-linecap:butt;
fill:#036998;
"/>
<!-- Line -->
<!--  polyline  -->
<polyline points="476,12660
476,12704
" style="stroke:#ffffff;stroke-width:7;
stroke-linejoin:miter; stroke-linecap:butt;
"/>
<!-- Line -->
<!--  polyline  -->
<polyline points="476,12737
476,12782
" style="stroke:#036998;stroke-width:0;
stroke-linejoin:miter; stroke-linecap:butt;
fill:#036998;
"/>
<!-- Line -->
<!--  polyline  -->
<polyline points="476,12737
476,12782
" style="stroke:#ffffff;stroke-width:7;
stroke-linejoin:miter; stroke-linecap:butt;
"/>
<!-- Line -->
<!--  polyline  -->
<polyline points="606,12382
446,12382
446,13192
606,13192
" style="stroke:#036998;stroke-width:0;
stroke-linejoin:miter; stroke-linecap:butt;
fill:#036998;
"/>
<!-- Line -->
<!--  polyline  -->
<polyline points="606,12382
446,12382
446,13192
606,13192
" style="stroke:#ffffff;stroke-width:7;
stroke-linejoin:miter; stroke-linecap:butt;
"/>
<!-- Line -->
<!--  polyline  -->
<polyline points="606,13192
722,13075
722,12265
563,12265
446,12382
606,12382
606,13192
" style="stroke:#036998;stroke-width:0;
stroke-linejoin:miter; stroke-linecap:butt;
fill:#036998;
"/>
<!-- Line -->
<!--  polyline  -->
<polyline points="606,13192
722,13075
722,12265
563,12265
446,12382
606,12382
606,13192
" style="stroke:#ffffff;stroke-width:7;
stroke-linejoin:miter; stroke-linecap:butt;
"/>
<!-- Line -->
<!--  polyline  -->
<polyline points="476,12420
476,12465
521,12465
" style="stroke:#036998;stroke-width:0;
stroke-linejoin:miter; stroke-linecap:butt;
fill:#036998;
"/>
<!-- Line -->
<!--  polyline  -->
<polyline points="476,12420
476,12465
521,12465
" style="stroke:#ffffff;stroke-width:7;
stroke-linejoin:miter; stroke-linecap:butt;
"/>
<!-- Line -->
<!--  polyline  -->
<polyline points="539,12420
539,12465
584,12465
" style="stroke:#036998;stroke-width:0;
stroke-linejoin:miter; stroke-linecap:butt;
fill:#036998;
"/>
<!-- Line -->
<!--  polyline  -->
<polyline points="539,12420
539,12465
584,12465
" style="stroke:#ffffff;stroke-width:7;
stroke-linejoin:miter; stroke-linecap:butt;
"/>
<!-- Line -->
<!--  polyline  -->
<polyline points="475,12504
475,12549
520,12549
" style="stroke:#036998;stroke-width:0;
stroke-linejoin:miter; stroke-linecap:butt;
fill:#036998;
"/>
<!-- Line -->
<!--  polyline  -->
<polyline points="475,12504
475,12549
520,12549
" style="stroke:#ffffff;stroke-width:7;
stroke-linejoin:miter; stroke-linecap:butt;
"/>
<!-- Line -->
<!--  polyline  -->
<polyline points="538,12504
538,12549
583,12549
" style="stroke:#036998;stroke-width:0;
stroke-linejoin:miter; stroke-linecap:butt;
fill:#036998;
"/>
<!-- Line -->
<!--  polyline  -->
<polyline points="538,12504
538,12549
583,12549
" style="stroke:#ffffff;stroke-width:7;
stroke-linejoin:miter; stroke-linecap:butt;
"/>
<!-- Line -->
<!--  polyline  -->
<polyline points="475,12580
475,12625
520,12625
" style="stroke:#036998;stroke-width:0;
stroke-linejoin:miter; stroke-linecap:butt;
fill:#036998;
"/>
<!-- Line -->
<!--  polyline  -->
<polyline points="475,12580
475,12625
520,12625
" style="stroke:#ffffff;stroke-width:7;
stroke-linejoin:miter; stroke-linecap:butt;
"/>
<!-- Line -->
<!--  polyline  -->
<polyline points="538,12580
538,12625
583,12625
" style="stroke:#036998;stroke-width:0;
stroke-linejoin:miter; stroke-linecap:butt;
fill:#036998;
"/>
<!-- Line -->
<!--  polyline  -->
<polyline points="538,12580
538,12625
583,12625
" style="stroke:#ffffff;stroke-width:7;
stroke-linejoin:miter; stroke-linecap:butt;
"/>
<!-- Line -->
<!--  polyline  -->
<polyline points="475,12704
520,12704
" style="stroke:#036998;stroke-width:0;
stroke-linejoin:miter; stroke-linecap:butt;
fill:#036998;
"/>
<!-- Line -->
<!--  polyline  -->
<polyline points="475,12704
520,12704
" style="stroke:#ffffff;stroke-width:7;
stroke-linejoin:miter; stroke-linecap:butt;
"/>
<!-- Line -->
<!--  polyline  -->
<polyline points="537,12660
537,12704
582,12704
" style="stroke:#036998;stroke-width:0;
stroke-linejoin:miter; stroke-linecap:butt;
fill:#036998;
"/>
<!-- Line -->
<!--  polyline  -->
<polyline points="537,12660
537,12704
582,12704
" style="stroke:#ffffff;stroke-width:7;
stroke-linejoin:miter; stroke-linecap:butt;
"/>
<!-- Line -->
<!--  polyline  -->
<polyline points="475,12782
520,12782
" style="stroke:#ffffff;stroke-width:7;
stroke-linejoin:miter; stroke-linecap:butt;
"/>
<!-- Line -->
<!--  polyline  -->
<polyline points="537,12737
537,12782
582,12782
" style="stroke:#036998;stroke-width:0;
stroke-linejoin:miter; stroke-linecap:butt;
fill:#036998;
"/>
<!-- Line -->
<!--  polyline  -->
<polyline points="537,12737
537,12782
582,12782
" style="stroke:#ffffff;stroke-width:7;
stroke-linejoin:miter; stroke-linecap:butt;
"/>
<!-- Line -->
<!--  spline  -->
<polyline points="545,12979
545,12980
543,12985
539,12993
537,12998
537,12999
537,13000
534,13002
529,13006
523,13012
512,13018
503,13023
497,13025
495,13026
493,13027
487,13028
475,13032
463,13035
456,13037
453,13037
451,13038
443,13039
429,13041
413,13043
400,13044
389,13044
381,13045
376,13045
375,13045
373,13045
364,13044
348,13043
332,13042
323,13041
321,13041
320,13041
316,13040
308,13039
299,13038
287,13035
274,13032
262,13028
256,13027
254,13026
252,13025
246,13023
237,13018
227,13012
223,13010
222,13008
219,13006
213,12999
208,12992
205,12986
204,12982
204,12980
204,12979
204,12980
204,12988
204,13005
204,13028
204,13050
204,13067
204,13075
204,13076
204,13077
207,13082
210,13091
213,13096
213,13097
213,13098
216,13100
220,13104
227,13109
237,13115
246,13120
252,13122
254,13123
256,13123
262,13125
274,13129
287,13132
293,13134
296,13135
299,13136
306,13137
321,13139
337,13141
350,13142
361,13142
369,13142
374,13142
375,13142
377,13142
386,13141
402,13140
418,13140
427,13139
429,13139
430,13139
434,13138
441,13137
451,13135
462,13133
475,13129
487,13125
493,13123
495,13123
497,13122
503,13120
512,13115
522,13109
526,13107
528,13106
531,13103
537,13097
541,13091
544,13086
545,13082
545,13078
545,13076
545,13075
545,13067
545,13050
545,13028
545,13005
545,12988
545,12980
545,12979
" style="stroke:#ffffff;stroke-width:0;
stroke-linejoin:bevel; stroke-linecap:butt;
fill:#ffffff;
"/>
<!-- Line -->
<!--  spline  -->
<polyline points="545,12979
545,12980
543,12985
539,12993
537,12998
537,12999
537,13000
534,13002
529,13006
523,13012
512,13018
503,13023
497,13025
495,13026
493,13027
487,13028
475,13032
463,13035
456,13037
453,13037
451,13038
443,13039
429,13041
413,13043
400,13044
389,13044
381,13045
376,13045
375,13045
373,13045
364,13044
348,13043
332,13042
323,13041
321,13041
320,13041
316,13040
308,13039
299,13038
287,13035
274,13032
262,13028
256,13027
254,13026
252,13025
246,13023
237,13018
227,13012
223,13010
222,13008
219,13006
213,12999
208,12992
205,12986
204,12982
204,12980
204,12979
204,12980
204,12988
204,13005
204,13028
204,13050
204,13067
204,13075
204,13076
204,13077
207,13082
210,13091
213,13096
213,13097
213,13098
216,13100
220,13104
227,13109
237,13115
246,13120
252,13122
254,13123
256,13123
262,13125
274,13129
287,13132
293,13134
296,13135
299,13136
306,13137
321,13139
337,13141
350,13142
361,13142
369,13142
374,13142
375,13142
377,13142
386,13141
402,13140
418,13140
427,13139
429,13139
430,13139
434,13138
441,13137
451,13135
462,13133
475,13129
487,13125
493,13123
495,13123
497,13122
503,13120
512,13115
522,13109
526,13107
528,13106
531,13103
537,13097
541,13091
544,13086
545,13082
545,13078
545,13076
545,13075
545,13067
545,13050
545,13028
545,13005
545,12988
545,12980
545,12979
" style="stroke:#036998;stroke-width:7;
stroke-linejoin:bevel; stroke-linecap:butt;
"/>
<!-- Line -->
<!--  spline  -->
<polyline points="375,13045
377,13045
386,13044
402,13043
418,13042
427,13041
429,13041
430,13041
434,13040
441,13039
451,13038
462,13035
475,13032
487,13028
493,13027
495,13026
497,13025
503,13023
512,13018
522,13012
526,13010
528,13008
531,13006
537,12999
541,12993
544,12988
545,12984
545,12981
545,12979
545,12978
543,12973
539,12964
537,12959
537,12958
537,12957
534,12955
529,12951
523,12945
512,12939
503,12934
497,12932
495,12931
493,12930
487,12929
475,12925
463,12922
456,12920
453,12920
451,12919
443,12918
429,12916
413,12914
400,12913
389,12913
381,12912
376,12912
375,12912
373,12912
364,12913
348,12914
332,12915
323,12916
321,12916
320,12916
316,12917
308,12918
299,12919
287,12922
274,12925
262,12929
256,12930
254,12931
252,12932
246,12934
237,12939
227,12945
223,12947
222,12949
219,12951
213,12958
208,12965
205,12971
204,12976
204,12978
204,12979
204,12980
207,12985
210,12993
213,12998
213,12999
213,13000
216,13002
220,13006
227,13012
237,13018
246,13023
252,13025
254,13026
256,13027
262,13028
274,13032
287,13035
293,13037
296,13037
299,13038
306,13039
321,13041
337,13043
350,13044
361,13044
369,13045
374,13045
375,13045
" style="stroke:#ffffff;stroke-width:0;
stroke-linejoin:bevel; stroke-linecap:butt;
fill:#ffffff;
"/>
<!-- Line -->
<!--  spline  -->
<polyline points="375,13045
377,13045
386,13044
402,13043
418,13042
427,13041
429,13041
430,13041
434,13040
441,13039
451,13038
462,13035
475,13032
487,13028
493,13027
495,13026
497,13025
503,13023
512,13018
522,13012
526,13010
528,13008
531,13006
537,12999
541,12993
544,12988
545,12984
545,12981
545,12979
545,12978
543,12973
539,12964
537,12959
537,12958
537,12957
534,12955
529,12951
523,12945
512,12939
503,12934
497,12932
495,12931
493,12930
487,12929
475,12925
463,12922
456,12920
453,12920
451,12919
443,12918
429,12916
413,12914
400,12913
389,12913
381,12912
376,12912
375,12912
373,12912
364,12913
348,12914
332,12915
323,12916
321,12916
320,12916
316,12917
308,12918
299,12919
287,12922
274,12925
262,12929
256,12930
254,12931
252,12932
246,12934
237,12939
227,12945
223,12947
222,12949
219,12951
213,12958
208,12965
205,12971
204,12976
204,12978
204,12979
204,12980
207,12985
210,12993
213,12998
213,12999
213,13000
216,13002
220,13006
227,13012
237,13018
246,13023
252,13025
254,13026
256,13027
262,13028
274,13032
287,13035
293,13037
296,13037
299,13038
306,13039
321,13041
337,13043
350,13044
361,13044
369,13045
374,13045
375,13045
" style="stroke:#036998;stroke-width:7;
stroke-linejoin:bevel; stroke-linecap:butt;
"/>
<!-- Line -->
<!--  polyline  -->
<polyline points="323,12961
343,12972
299,12980
310,12971
234,12959
240,12954
315,12966
323,12961
" style="stroke:#036998;stroke-width:0;
stroke-linejoin:miter; stroke-linecap:butt;
fill:#036998;
"/>
<!-- Line -->
<!--  polyline  -->
<polyline points="427,12994
407,12984
451,12976
441,12984
516,12997
510,13002
435,12989
427,12994
" style="stroke:#036998;stroke-width:0;
stroke-linejoin:miter; stroke-linecap:butt;
fill:#036998;
"/>
<!-- Line -->
<!--  polyline  -->
<polyline points="404,12939
443,12923
437,12943
426,12942
397,12966
388,12964
416,12941
404,12939
" style="stroke:#036998;stroke-width:0;
stroke-linejoin:miter; stroke-linecap:butt;
fill:#036998;
"/>
<!-- Line -->
<!--  polyline  -->
<polyline points="351,13016
313,13032
318,13012
330,13013
357,12990
367,12992
339,13014
351,13016
" style="stroke:#036998;stroke-width:0;
stroke-linejoin:miter; stroke-linecap:butt;
fill:#036998;
"/>
<!-- Line -->
<!--  polyline  -->
<polyline points="607,12382
724,12265
" style="stroke:#036998;stroke-width:0;
stroke-linejoin:miter; stroke-linecap:butt;
fill:#036998;
"/>
<!-- Line -->
<!--  polyline  -->
<polyline points="607,12382
724,12265
" style="stroke:#ffffff;stroke-width:7;
stroke-linejoin:miter; stroke-linecap:butt;
"/>
</g>
</svg>
