<?xml version="1.0" standalone="no"?>
<!DOCTYPE svg PUBLIC "-//W3C//DTD SVG 1.1//EN"
"http://www.w3.org/Graphics/SVG/1.1/DTD/svg11.dtd">
<!-- Creator: fig2dev Version 3.2 Patchlevel 5c -->
<!-- CreationDate: Fri Sep 14 10:46:45 2012 -->
<!-- Magnification: 1.000 -->
<svg xmlns="http://www.w3.org/2000/svg" width="0.5in" height="0.3in" viewBox="-9 12802 593 407">
<g style="stroke-width:.025in; fill:none">
<!-- Line -->
<!--  spline  -->
<polyline points="572,12924
572,12925
569,12931
564,12942
560,12952
557,12958
557,12959
557,12960
554,12962
549,12967
542,12974
532,12981
517,12990
505,12996
496,13000
491,13002
489,13003
487,13004
481,13006
471,13009
455,13014
438,13018
427,13021
421,13022
418,13023
415,13023
409,13024
396,13026
377,13029
357,13031
339,13033
324,13034
311,13034
299,13035
291,13035
288,13035
287,13035
286,13035
279,13034
264,13033
243,13032
221,13031
206,13030
199,13029
198,13029
197,13029
194,13028
187,13028
177,13026
165,13024
152,13022
137,13018
120,13014
104,13009
94,13006
88,13004
86,13003
84,13002
79,13000
70,12996
58,12990
44,12982
37,12977
34,12975
32,12974
27,12969
18,12959
11,12949
7,12940
4,12933
3,12928
3,12925
3,12924
3,12925
3,12929
3,12939
3,12956
3,12979
3,13005
3,13031
3,13054
3,13071
3,13081
3,13085
3,13086
3,13087
6,13093
11,13104
15,13114
18,13120
18,13121
18,13122
21,13124
26,13129
33,13135
43,13142
58,13151
70,13157
79,13161
84,13163
86,13164
88,13165
94,13167
104,13170
120,13175
137,13179
148,13182
154,13184
157,13185
160,13185
166,13186
179,13188
198,13191
218,13193
236,13195
251,13196
264,13196
275,13197
283,13197
286,13197
287,13197
288,13197
295,13196
311,13195
332,13194
353,13193
369,13192
376,13191
377,13191
378,13191
381,13190
388,13189
398,13188
410,13186
423,13183
438,13180
455,13175
471,13170
481,13167
487,13165
489,13164
491,13163
496,13161
505,13157
517,13151
531,13143
538,13139
541,13137
543,13135
548,13130
557,13121
564,13111
568,13102
571,13095
572,13090
572,13087
572,13086
572,13085
572,13081
572,13071
572,13054
572,13031
572,13005
572,12979
572,12956
572,12939
572,12929
572,12925
572,12924
" style="stroke:#026c9b;stroke-width:0;
stroke-linejoin:bevel; stroke-linecap:butt;
fill:#026c9b;
"/>
<!-- Line -->
<!--  spline  -->
<polyline points="572,12924
572,12925
569,12931
564,12942
560,12952
557,12958
557,12959
557,12960
554,12962
549,12967
542,12974
532,12981
517,12990
505,12996
496,13000
491,13002
489,13003
487,13004
481,13006
471,13009
455,13014
438,13018
427,13021
421,13022
418,13023
415,13023
409,13024
396,13026
377,13029
357,13031
339,13033
324,13034
311,13034
299,13035
291,13035
288,13035
287,13035
286,13035
279,13034
264,13033
243,13032
221,13031
206,13030
199,13029
198,13029
197,13029
194,13028
187,13028
177,13026
165,13024
152,13022
137,13018
120,13014
104,13009
94,13006
88,13004
86,13003
84,13002
79,13000
70,12996
58,12990
44,12982
37,12977
34,12975
32,12974
27,12969
18,12959
11,12949
7,12940
4,12933
3,12928
3,12925
3,12924
3,12925
3,12929
3,12939
3,12956
3,12979
3,13005
3,13031
3,13054
3,13071
3,13081
3,13085
3,13086
3,13087
6,13093
11,13104
15,13114
18,13120
18,13121
18,13122
21,13124
26,13129
33,13135
43,13142
58,13151
70,13157
79,13161
84,13163
86,13164
88,13165
94,13167
104,13170
120,13175
137,13179
148,13182
154,13184
157,13185
160,13185
166,13186
179,13188
198,13191
218,13193
236,13195
251,13196
264,13196
275,13197
283,13197
286,13197
287,13197
288,13197
295,13196
311,13195
332,13194
353,13193
369,13192
376,13191
377,13191
378,13191
381,13190
388,13189
398,13188
410,13186
423,13183
438,13180
455,13175
471,13170
481,13167
487,13165
489,13164
491,13163
496,13161
505,13157
517,13151
531,13143
538,13139
541,13137
543,13135
548,13130
557,13121
564,13111
568,13102
571,13095
572,13090
572,13087
572,13086
572,13085
572,13081
572,13071
572,13054
572,13031
572,13005
572,12979
572,12956
572,12939
572,12929
572,12925
572,12924
" style="stroke:#ffffff;stroke-width:7;
stroke-linejoin:bevel; stroke-linecap:butt;
"/>
<!-- Line -->
<!--  spline  -->
<polyline points="287,13035
288,13035
295,13034
311,13033
332,13032
353,13031
369,13030
376,13029
377,13029
378,13029
381,13028
388,13028
398,13026
410,13024
423,13022
438,13018
455,13014
471,13009
481,13006
487,13004
489,13003
491,13002
496,13000
505,12996
517,12990
531,12982
538,12977
541,12975
543,12974
548,12969
557,12959
564,12949
568,12940
571,12933
572,12928
572,12925
572,12924
572,12923
569,12917
564,12906
560,12896
557,12890
557,12889
557,12888
554,12886
549,12881
542,12875
532,12868
517,12859
505,12853
496,12849
491,12847
489,12846
487,12845
481,12843
471,12840
455,12835
438,12831
427,12828
421,12827
418,12826
415,12826
409,12825
396,12823
377,12820
357,12818
339,12816
324,12815
311,12815
299,12814
291,12814
288,12814
287,12814
286,12814
279,12815
264,12816
243,12817
221,12818
206,12819
199,12820
198,12820
197,12820
194,12821
187,12821
177,12823
165,12825
152,12827
137,12831
120,12835
104,12840
94,12843
88,12845
86,12846
84,12847
79,12849
70,12853
58,12859
44,12867
37,12871
34,12873
32,12875
27,12880
18,12889
11,12899
7,12908
4,12915
3,12920
3,12923
3,12924
3,12925
6,12931
11,12942
15,12952
18,12958
18,12959
18,12960
21,12962
26,12967
33,12974
43,12981
58,12990
70,12996
79,13000
84,13002
86,13003
88,13004
94,13006
104,13009
120,13014
137,13018
148,13021
154,13022
157,13023
160,13023
166,13024
179,13026
198,13029
218,13031
236,13033
251,13034
264,13034
275,13035
283,13035
286,13035
287,13035
" style="stroke:#026c9b;stroke-width:0;
stroke-linejoin:bevel; stroke-linecap:butt;
fill:#026c9b;
"/>
<!-- Line -->
<!--  spline  -->
<polyline points="287,13035
288,13035
295,13034
311,13033
332,13032
353,13031
369,13030
376,13029
377,13029
378,13029
381,13028
388,13028
398,13026
410,13024
423,13022
438,13018
455,13014
471,13009
481,13006
487,13004
489,13003
491,13002
496,13000
505,12996
517,12990
531,12982
538,12977
541,12975
543,12974
548,12969
557,12959
564,12949
568,12940
571,12933
572,12928
572,12925
572,12924
572,12923
569,12917
564,12906
560,12896
557,12890
557,12889
557,12888
554,12886
549,12881
542,12875
532,12868
517,12859
505,12853
496,12849
491,12847
489,12846
487,12845
481,12843
471,12840
455,12835
438,12831
427,12828
421,12827
418,12826
415,12826
409,12825
396,12823
377,12820
357,12818
339,12816
324,12815
311,12815
299,12814
291,12814
288,12814
287,12814
286,12814
279,12815
264,12816
243,12817
221,12818
206,12819
199,12820
198,12820
197,12820
194,12821
187,12821
177,12823
165,12825
152,12827
137,12831
120,12835
104,12840
94,12843
88,12845
86,12846
84,12847
79,12849
70,12853
58,12859
44,12867
37,12871
34,12873
32,12875
27,12880
18,12889
11,12899
7,12908
4,12915
3,12920
3,12923
3,12924
3,12925
6,12931
11,12942
15,12952
18,12958
18,12959
18,12960
21,12962
26,12967
33,12974
43,12981
58,12990
70,12996
79,13000
84,13002
86,13003
88,13004
94,13006
104,13009
120,13014
137,13018
148,13021
154,13022
157,13023
160,13023
166,13024
179,13026
198,13029
218,13031
236,13033
251,13034
264,13034
275,13035
283,13035
286,13035
287,13035
" style="stroke:#ffffff;stroke-width:7;
stroke-linejoin:bevel; stroke-linecap:butt;
"/>
<!-- Line -->
<!--  polyline  -->
<polyline points="201,12895
235,12913
162,12926
179,12912
52,12892
63,12883
189,12904
201,12895
" style="stroke:#ffffff;stroke-width:0;
stroke-linejoin:miter; stroke-linecap:butt;
fill:#ffffff;
"/>
<!-- Line -->
<!--  polyline  -->
<polyline points="374,12951
341,12933
414,12920
397,12934
523,12955
513,12964
387,12942
374,12951
" style="stroke:#ffffff;stroke-width:0;
stroke-linejoin:miter; stroke-linecap:butt;
fill:#ffffff;
"/>
<!-- Line -->
<!--  polyline  -->
<polyline points="337,12858
400,12832
392,12865
373,12863
325,12904
309,12900
357,12861
337,12858
" style="stroke:#ffffff;stroke-width:0;
stroke-linejoin:miter; stroke-linecap:butt;
fill:#ffffff;
"/>
<!-- Line -->
<!--  polyline  -->
<polyline points="248,12986
185,13013
193,12981
212,12982
258,12943
274,12946
228,12984
248,12986
" style="stroke:#ffffff;stroke-width:0;
stroke-linejoin:miter; stroke-linecap:butt;
fill:#ffffff;
"/>
<!-- Line -->
<!--  spline  -->
<polyline points="285,13181
286,13181
291,13180
300,13178
305,13177
306,13177
307,13177
309,13176
313,13174
318,13172
324,13168
329,13164
331,13162
332,13161
334,13159
338,13154
342,13148
343,13146
344,13145
345,13142
347,13136
349,13129
350,13123
350,13118
350,13116
350,13115
350,13114
349,13109
348,13100
347,13095
347,13094
347,13093
346,13091
344,13087
342,13082
338,13076
334,13071
332,13069
331,13068
329,13066
324,13062
318,13058
316,13057
315,13056
312,13055
306,13053
299,13051
293,13050
288,13049
286,13049
285,13049
284,13049
279,13050
270,13052
265,13053
264,13053
263,13053
261,13054
257,13056
252,13058
246,13062
241,13066
239,13068
238,13069
236,13071
232,13076
228,13082
227,13084
226,13085
225,13088
223,13094
221,13101
220,13107
219,13112
219,13114
219,13115
219,13116
220,13121
222,13130
223,13135
223,13136
223,13137
224,13139
226,13143
228,13148
232,13154
236,13159
238,13161
239,13162
241,13164
246,13168
252,13172
254,13173
255,13174
258,13175
264,13177
271,13179
277,13180
282,13181
284,13181
285,13181
" style="stroke:#000000;stroke-width:0;
stroke-linejoin:bevel; stroke-linecap:butt;
fill:#000000;
"/>
<!-- Line -->
<!--  spline  -->
<polyline points="285,13181
286,13181
291,13180
300,13178
305,13177
306,13177
307,13177
309,13176
313,13174
318,13172
324,13168
329,13164
331,13162
332,13161
334,13159
338,13154
342,13148
343,13146
344,13145
345,13142
347,13136
349,13129
350,13123
350,13118
350,13116
350,13115
350,13114
349,13109
348,13100
347,13095
347,13094
347,13093
346,13091
344,13087
342,13082
338,13076
334,13071
332,13069
331,13068
329,13066
324,13062
318,13058
316,13057
315,13056
312,13055
306,13053
299,13051
293,13050
288,13049
286,13049
285,13049
284,13049
279,13050
270,13052
265,13053
264,13053
263,13053
261,13054
257,13056
252,13058
246,13062
241,13066
239,13068
238,13069
236,13071
232,13076
228,13082
227,13084
226,13085
225,13088
223,13094
221,13101
220,13107
219,13112
219,13114
219,13115
219,13116
220,13121
222,13130
223,13135
223,13136
223,13137
224,13139
226,13143
228,13148
232,13154
236,13159
238,13161
239,13162
241,13164
246,13168
252,13172
254,13173
255,13174
258,13175
264,13177
271,13179
277,13180
282,13181
284,13181
285,13181
" style="stroke:#ffffff;stroke-width:7;
stroke-linejoin:bevel; stroke-linecap:butt;
"/>
<!-- Text -->
<!--  text  -->
<text xml:space="preserve" x="242" y="13150" fill="#ffffff"  font-family="Helvetica" font-style="normal" font-weight="bold" font-size="72" text-anchor="start">S</text>
<!-- Text -->
<!--  text  -->
<text xml:space="preserve" x="299" y="13150" fill="#ffffff"  font-family="Helvetica" font-style="normal" font-weight="bold" font-size="72" text-anchor="start">i</text>
</g>
</svg>
