<?xml version="1.0" standalone="no"?>
<!DOCTYPE svg PUBLIC "-//W3C//DTD SVG 1.1//EN"
"http://www.w3.org/Graphics/SVG/1.1/DTD/svg11.dtd">
<!-- Creator: fig2dev Version 3.2 Patchlevel 5c -->
<!-- CreationDate: Fri Sep 14 10:46:45 2012 -->
<!-- Magnification: 1.000 -->
<svg xmlns="http://www.w3.org/2000/svg" width="0.5in" height="0.4in" viewBox="-3 12772 646 429">
<g style="stroke-width:.025in; fill:none">
<!-- Line -->
<!--  polyline  -->
<polyline points="9,13189
565,13189
565,12865
9,12865
9,13189
" style="stroke:#036998;stroke-width:0;
stroke-linejoin:miter; stroke-linecap:butt;
fill:#036998;
"/>
<!-- Line -->
<!--  polyline  -->
<polyline points="9,13189
565,13189
565,12865
9,12865
9,13189
" style="stroke:#ffffff;stroke-width:7;
stroke-linejoin:miter; stroke-linecap:butt;
"/>
<!-- Line -->
<!--  polyline  -->
<polyline points="631,13092
565,13189
565,12865
631,12784
631,13092
" style="stroke:#036998;stroke-width:0;
stroke-linejoin:miter; stroke-linecap:butt;
fill:#036998;
"/>
<!-- Line -->
<!--  polyline  -->
<polyline points="631,13092
565,13189
565,12865
631,12784
631,13092
" style="stroke:#ffffff;stroke-width:7;
stroke-linejoin:miter; stroke-linecap:butt;
"/>
<!-- Line -->
<!--  polyline  -->
<polyline points="109,12784
631,12784
565,12865
9,12865
109,12784
" style="stroke:#036998;stroke-width:0;
stroke-linejoin:miter; stroke-linecap:butt;
fill:#036998;
"/>
<!-- Line -->
<!--  polyline  -->
<polyline points="109,12784
631,12784
565,12865
9,12865
109,12784
" style="stroke:#ffffff;stroke-width:7;
stroke-linejoin:miter; stroke-linecap:butt;
"/>
<!-- Text -->
<!--  text  -->
<text xml:space="preserve" x="168" y="12992" fill="#ffffff"  font-family="Helvetica" font-style="normal" font-weight="bold" font-size="96" text-anchor="start">RPS</text>
<!-- Line -->
<!--  spline  -->
<polyline points="284,13092
286,13092
289,13092
291,13092
294,13092
297,13092
302,13091
309,13091
316,13091
319,13091
320,13090
323,13090
330,13090
336,13090
339,13090
341,13089
343,13089
348,13089
352,13089
354,13088
355,13088
356,13088
355,13088
353,13087
349,13086
347,13085
346,13085
343,13084
339,13082
333,13080
324,13076
315,13073
311,13071
309,13070
305,13069
295,13065
286,13061
281,13060
280,13059
276,13058
268,13055
261,13052
256,13051
253,13050
251,13049
253,13049
257,13048
259,13048
262,13048
266,13048
271,13048
279,13048
287,13048
290,13048
292,13048
295,13048
303,13048
310,13048
314,13048
315,13047
318,13047
323,13047
327,13047
330,13047
331,13047
330,13047
326,13046
316,13043
299,13038
275,13032
244,13023
210,13014
177,13005
146,12996
122,12990
105,12985
95,12982
91,12981
90,12981
91,12981
95,12983
105,12986
121,12992
144,13001
170,13010
195,13019
218,13028
234,13034
244,13037
248,13039
249,13039
247,13039
244,13039
242,13039
240,13039
237,13039
233,13040
228,13040
223,13041
220,13041
219,13041
216,13041
211,13042
206,13042
203,13043
202,13043
200,13043
196,13043
193,13043
191,13043
190,13043
192,13044
195,13045
197,13046
199,13047
202,13048
206,13050
212,13053
218,13056
221,13057
222,13058
225,13060
232,13063
239,13066
241,13068
243,13068
245,13069
251,13072
257,13074
261,13076
263,13076
265,13077
263,13078
261,13078
259,13079
257,13080
254,13080
250,13081
245,13083
240,13085
238,13085
237,13086
235,13087
230,13088
225,13089
223,13090
222,13090
220,13090
217,13091
214,13092
213,13092
212,13093
213,13093
216,13094
224,13096
238,13100
260,13106
287,13114
320,13123
355,13133
390,13143
423,13152
450,13160
472,13166
486,13170
494,13172
497,13173
498,13173
497,13173
494,13171
485,13168
470,13162
448,13154
421,13144
391,13132
361,13121
334,13111
312,13103
297,13097
288,13094
285,13092
284,13092
" style="stroke:#ffffff;stroke-width:0;
stroke-linejoin:bevel; stroke-linecap:butt;
fill:#ffffff;
"/>
</g>
</svg>
