<?xml version="1.0" standalone="no"?>
<!DOCTYPE svg PUBLIC "-//W3C//DTD SVG 1.1//EN"
"http://www.w3.org/Graphics/SVG/1.1/DTD/svg11.dtd">
<!-- Creator: fig2dev Version 3.2 Patchlevel 5c -->
<!-- CreationDate: Fri Sep 14 10:46:45 2012 -->
<!-- Magnification: 1.000 -->
<svg xmlns="http://www.w3.org/2000/svg" width="0.5in" height="0.6in" viewBox="-1 12467 654 734">
<g style="stroke-width:.025in; fill:none">
<!-- Line -->
<!--  polyline  -->
<polyline points="494,12513
455,12499
398,12538
435,12574
438,12569
445,12576
453,12576
457,12568
460,12567
461,12562
465,12563
468,12555
478,12559
481,12557
482,12535
491,12531
494,12515
" style="stroke:#036998;stroke-width:0;
stroke-linejoin:miter; stroke-linecap:butt;
fill:#036998;
"/>
<!-- Line -->
<!--  polyline  -->
<polyline points="498,12821
518,12800
523,12807
553,12815
560,12840
550,12839
543,12854
539,12848
527,12859
526,12847
514,12846
507,12828
498,12821
" style="stroke:#036998;stroke-width:0;
stroke-linejoin:miter; stroke-linecap:butt;
fill:#036998;
"/>
<!-- Line -->
<!--  polyline  -->
<polyline points="139,12714
120,12724
115,12733
91,12750
93,12757
114,12744
95,12765
99,12770
118,12755
102,12780
108,12784
126,12763
120,12786
127,12788
139,12758
144,12758
152,12772
160,12771
155,12747
158,12726
139,12714
" style="stroke:#036998;stroke-width:0;
stroke-linejoin:miter; stroke-linecap:butt;
fill:#036998;
"/>
<!-- Line -->
<!--  polyline  -->
<polyline points="514,12851
521,12854
519,12862
516,12875
506,12871
508,12859
514,12851
" style="stroke:#036998;stroke-width:0;
stroke-linejoin:miter; stroke-linecap:butt;
fill:#036998;
"/>
<!-- Line -->
<!--  polyline  -->
<polyline points="561,12828
574,12834
576,12846
566,12851
566,12840
561,12828
" style="stroke:#036998;stroke-width:0;
stroke-linejoin:miter; stroke-linecap:butt;
fill:#036998;
"/>
<!-- Line -->
<!--  polyline  -->
<polyline points="610,12839
461,12892
493,12996
514,13014
652,12961
637,12854
610,12839
" style="stroke:#036998;stroke-width:0;
stroke-linejoin:miter; stroke-linecap:butt;
fill:#036998;
"/>
<!-- Line -->
<!--  polyline  -->
<polyline points="508,13147
491,13164
467,13161
462,13180
467,13200
501,13200
508,13193
527,13200
568,13200
583,13194
578,13181
539,13173
514,13157
508,13147
" style="stroke:#036998;stroke-width:0;
stroke-linejoin:miter; stroke-linecap:butt;
fill:#036998;
"/>
<!-- Line -->
<!--  polyline  -->
<polyline points="65,13063
53,13042
60,13020
43,13011
23,13011
15,13044
20,13053
9,13069
0,13109
2,13125
16,13124
33,13087
54,13066
65,13063
" style="stroke:#036998;stroke-width:0;
stroke-linejoin:miter; stroke-linecap:butt;
fill:#036998;
"/>
<!-- Line -->
<!--  polyline  -->
<polyline points="229,12828
207,12808
249,12740
267,12635
224,12658
186,12728
140,12701
188,12610
295,12545
383,12547
431,12583
474,12642
459,12658
453,12739
514,12794
473,12827
401,12765
404,12842
" style="stroke:#036998;stroke-width:0;
stroke-linejoin:miter; stroke-linecap:butt;
fill:#036998;
"/>
<!-- Line -->
<!--  polyline  -->
<polyline points="404,12842
471,12955
528,13121
459,13145
404,12993
319,12874
276,13004
101,13071
74,13014
205,12963
207,12948
221,12949
235,12855
229,12828
404,12842
" style="stroke:#036998;stroke-width:0;
stroke-linejoin:miter; stroke-linecap:butt;
fill:#036998;
"/>
<!-- Line -->
<!--  polyline  -->
<polyline points="224,12823
341,12860
396,12834
" style="stroke:#036998;stroke-width:0;
stroke-linejoin:miter; stroke-linecap:butt;
fill:#036998;
"/>
<!-- Line -->
<!--  polyline  -->
<polyline points="494,12515
507,12516
498,12495
461,12469
438,12468
418,12480
398,12538
417,12524
439,12515
441,12520
452,12526
462,12507
494,12513
" style="stroke:#036998;stroke-width:0;
stroke-linejoin:miter; stroke-linecap:butt;
fill:#036998;
"/>
</g>
</svg>
