<?xml version="1.0" standalone="no"?>
<!DOCTYPE svg PUBLIC "-//W3C//DTD SVG 1.1//EN"
"http://www.w3.org/Graphics/SVG/1.1/DTD/svg11.dtd">
<!-- Creator: fig2dev Version 3.2 Patchlevel 5c -->
<!-- CreationDate: Fri Sep 14 10:46:45 2012 -->
<!-- Magnification: 1.000 -->
<svg xmlns="http://www.w3.org/2000/svg" width="4.1in" height="1.6in" viewBox="2422 4229 4950 1962">
<g style="stroke-width:.025in; fill:none">
<!-- Line -->
<!--  polyline  -->
<polyline points="3750,5654
4044,5401
6360,5401
6065,5654
3750,5654
3750,5654
" style="stroke:#20f9ff;stroke-width:0;
stroke-linejoin:miter; stroke-linecap:butt;
fill:#20f9ff;
"/>
<!-- Line -->
<!--  polyline  -->
<polyline points="3750,5654
4044,5401
6360,5401
6065,5654
3750,5654
3750,5654
" style="stroke:#20f9ff;stroke-width:0;
stroke-linejoin:miter; stroke-linecap:square;
fill:#20f9ff;
"/>
<!-- Line -->
<!--  polyline  -->
<polyline points="3750,5654
4044,5401
6360,5401
6065,5654
3750,5654
3750,5654
" style="stroke:#acfbfe;stroke-width:15;
stroke-linejoin:miter; stroke-linecap:square;
"/>
<!-- Line -->
<!--  polyline  -->
<polyline points="3750,4505
3750,5654
6065,5654
6065,4505
3750,4505
3750,4505
" style="stroke:#d1135a;stroke-width:0;
stroke-linejoin:miter; stroke-linecap:square;
fill:#d1135a;
"/>
<!-- Line -->
<!--  polyline  -->
<polyline points="3750,4505
3750,5654
6065,5654
6065,4505
3750,4505
3750,4505
" style="stroke:#d1135a;stroke-width:0;
stroke-linejoin:miter; stroke-linecap:square;
fill:#d1135a;
"/>
<!-- Line -->
<!--  polyline  -->
<polyline points="3750,4505
3750,5654
6065,5654
6065,4505
3750,4505
3750,4505
" style="stroke:#fba3de;stroke-width:15;
stroke-linejoin:miter; stroke-linecap:square;
"/>
<!-- Line -->
<!--  polyline  -->
<polyline points="3750,4505
4044,4251
6360,4251
6065,4505
3750,4505
3750,4505
" style="stroke:#e93f94;stroke-width:0;
stroke-linejoin:miter; stroke-linecap:square;
fill:#e93f94;
"/>
<!-- Line -->
<!--  polyline  -->
<polyline points="3750,4505
4044,4251
6360,4251
6065,4505
3750,4505
3750,4505
" style="stroke:#e93f94;stroke-width:0;
stroke-linejoin:miter; stroke-linecap:square;
fill:#e93f94;
"/>
<!-- Line -->
<!--  polyline  -->
<polyline points="3750,4505
4044,4251
6360,4251
6065,4505
3750,4505
3750,4505
" style="stroke:#fba3de;stroke-width:15;
stroke-linejoin:miter; stroke-linecap:square;
"/>
<!-- Line -->
<!--  polyline  -->
<polyline points="6065,4505
6360,4251
6360,5401
6065,5654
6065,4505
6065,4505
" style="stroke:#790a27;stroke-width:0;
stroke-linejoin:miter; stroke-linecap:square;
fill:#790a27;
"/>
<!-- Line -->
<!--  polyline  -->
<polyline points="6065,4505
6360,4251
6360,5401
6065,5654
6065,4505
6065,4505
" style="stroke:#790a27;stroke-width:0;
stroke-linejoin:miter; stroke-linecap:square;
fill:#790a27;
"/>
<!-- Line -->
<!--  polyline  -->
<polyline points="6065,4505
6360,4251
6360,5401
6065,5654
6065,4505
6065,4505
" style="stroke:#fba3de;stroke-width:15;
stroke-linejoin:miter; stroke-linecap:square;
"/>
<!-- Line -->
<!--  polyline  -->
<polyline points="3371,4446
6402,5673
" style="stroke:#000000;stroke-width:45;
stroke-linejoin:miter; stroke-linecap:square;
"/>
<!-- Line -->
<!--  polyline  -->
<polyline points="2445,4758
7307,4758
" style="stroke:#000000;stroke-width:15;
stroke-linejoin:miter; stroke-linecap:square;
"/>
<!-- Line -->
<!--  polyline  -->
<polyline points="2445,5342
7307,5342
" style="stroke:#000000;stroke-width:15;
stroke-linejoin:miter; stroke-linecap:square;
"/>
<!-- Line -->
<!--  polyline  -->
<polyline points="3897,4641
4381,4641
4381,4855
3897,4855
3897,4641
" style="stroke:#000000;stroke-width:0;
stroke-linejoin:miter; stroke-linecap:square;
fill:#000000;
"/>
<!-- Line -->
<!--  polyline  -->
<polyline points="3897,4641
4381,4641
4381,4855
3897,4855
3897,4641
" style="stroke:#000000;stroke-width:15;
stroke-linejoin:miter; stroke-linecap:square;
"/>
<!-- Line -->
<!--  polyline  -->
<polyline points="5328,4641
5791,4641
5791,4855
5328,4855
5328,4641
" style="stroke:#000000;stroke-width:0;
stroke-linejoin:miter; stroke-linecap:square;
fill:#000000;
"/>
<!-- Line -->
<!--  polyline  -->
<polyline points="5328,4641
5791,4641
5791,4855
5328,4855
5328,4641
" style="stroke:#000000;stroke-width:15;
stroke-linejoin:miter; stroke-linecap:square;
"/>
<!-- Line -->
<!--  polyline  -->
<polyline points="3897,5225
4381,5225
4381,5440
3897,5440
3897,5225
" style="stroke:#000000;stroke-width:0;
stroke-linejoin:miter; stroke-linecap:square;
fill:#000000;
"/>
<!-- Line -->
<!--  polyline  -->
<polyline points="3897,5225
4381,5225
4381,5440
3897,5440
3897,5225
" style="stroke:#000000;stroke-width:15;
stroke-linejoin:miter; stroke-linecap:square;
"/>
<!-- Line -->
<!--  polyline  -->
<polyline points="5328,5225
5791,5225
5791,5440
5328,5440
5328,5225
" style="stroke:#000000;stroke-width:0;
stroke-linejoin:miter; stroke-linecap:square;
fill:#000000;
"/>
<!-- Line -->
<!--  polyline  -->
<polyline points="5328,5225
5791,5225
5791,5440
5328,5440
5328,5225
" style="stroke:#000000;stroke-width:15;
stroke-linejoin:miter; stroke-linecap:square;
"/>
<!-- Line -->
<!--  polyline  -->
<polyline points="6381,4446
3350,5673
" style="stroke:#000000;stroke-width:45;
stroke-linejoin:miter; stroke-linecap:square;
"/>
<!-- Line -->
<!--  polyline  -->
<polyline points="3392,4466
6423,5693
" style="stroke:#ffffff;stroke-width:45;
stroke-linejoin:miter; stroke-linecap:square;
"/>
<!-- Line -->
<!--  polyline  -->
<polyline points="2466,4777
7328,4777
" style="stroke:#ffffff;stroke-width:45;
stroke-linejoin:miter; stroke-linecap:square;
"/>
<!-- Line -->
<!--  polyline  -->
<polyline points="2466,5362
7328,5362
" style="stroke:#ffffff;stroke-width:45;
stroke-linejoin:miter; stroke-linecap:square;
"/>
<!-- Line -->
<!--  polyline  -->
<polyline points="3918,4660
4402,4660
4402,4875
3918,4875
3918,4660
" style="stroke:#ffffff;stroke-width:0;
stroke-linejoin:miter; stroke-linecap:square;
fill:#ffffff;
"/>
<!-- Line -->
<!--  polyline  -->
<polyline points="3918,4660
4402,4660
4402,4875
3918,4875
3918,4660
" style="stroke:#ffffff;stroke-width:15;
stroke-linejoin:miter; stroke-linecap:square;
"/>
<!-- Line -->
<!--  polyline  -->
<polyline points="5350,4660
5813,4660
5813,4875
5350,4875
5350,4660
" style="stroke:#ffffff;stroke-width:0;
stroke-linejoin:miter; stroke-linecap:square;
fill:#ffffff;
"/>
<!-- Line -->
<!--  polyline  -->
<polyline points="5350,4660
5813,4660
5813,4875
5350,4875
5350,4660
" style="stroke:#ffffff;stroke-width:15;
stroke-linejoin:miter; stroke-linecap:square;
"/>
<!-- Line -->
<!--  polyline  -->
<polyline points="3918,5245
4402,5245
4402,5459
3918,5459
3918,5245
" style="stroke:#ffffff;stroke-width:0;
stroke-linejoin:miter; stroke-linecap:square;
fill:#ffffff;
"/>
<!-- Line -->
<!--  polyline  -->
<polyline points="3918,5245
4402,5245
4402,5459
3918,5459
3918,5245
" style="stroke:#ffffff;stroke-width:15;
stroke-linejoin:miter; stroke-linecap:square;
"/>
<!-- Line -->
<!--  polyline  -->
<polyline points="5350,5245
5813,5245
5813,5459
5350,5459
5350,5245
" style="stroke:#ffffff;stroke-width:0;
stroke-linejoin:miter; stroke-linecap:square;
fill:#ffffff;
"/>
<!-- Line -->
<!--  polyline  -->
<polyline points="5350,5245
5813,5245
5813,5459
5350,5459
5350,5245
" style="stroke:#ffffff;stroke-width:15;
stroke-linejoin:miter; stroke-linecap:square;
"/>
<!-- Line -->
<!--  polyline  -->
<polyline points="6402,4466
3371,5693
" style="stroke:#ffffff;stroke-width:45;
stroke-linejoin:miter; stroke-linecap:square;
"/>
<!-- Line -->
<!--  polyline  -->
<polyline points="5275,6176
5403,6118
6136,6118
6069,6176
5275,6176
5275,6176
" style="stroke:#07aad6;stroke-width:0;
stroke-linejoin:miter; stroke-linecap:butt;
fill:#07aad6;
"/>
<!-- Line -->
<!--  polyline  -->
<polyline points="5275,6176
5403,6118
6136,6118
6069,6176
5275,6176
5275,6176
" style="stroke:#ffffff;stroke-width:7;
stroke-linejoin:miter; stroke-linecap:butt;
"/>
<!-- Line -->
<!--  polyline  -->
<polyline points="5275,5677
5326,5653
5636,5656
5636,5951
5275,6175
5275,5769
5275,5677
" style="stroke:#07aad6;stroke-width:0;
stroke-linejoin:miter; stroke-linecap:butt;
fill:#07aad6;
"/>
<!-- Line -->
<!--  polyline  -->
<polyline points="5275,5677
5326,5653
5636,5656
5636,5951
5275,6175
5275,5769
5275,5677
" style="stroke:#ffffff;stroke-width:7;
stroke-linejoin:miter; stroke-linecap:butt;
"/>
<!-- Line -->
<!--  polyline  -->
<polyline points="5632,5655
6069,5655
6069,5922
5631,5922
5632,5655
" style="stroke:#07aad6;stroke-width:0;
stroke-linejoin:miter; stroke-linecap:butt;
fill:#07aad6;
"/>
<!-- Line -->
<!--  polyline  -->
<polyline points="5632,5655
6069,5655
6069,5922
5631,5922
5632,5655
" style="stroke:#ffffff;stroke-width:7;
stroke-linejoin:miter; stroke-linecap:butt;
"/>
<!-- Line -->
<!--  polyline  -->
<polyline points="6069,5770
6197,5713
6136,6118
6069,6176
6069,5770
6069,5770
" style="stroke:#07aad6;stroke-width:0;
stroke-linejoin:miter; stroke-linecap:butt;
fill:#07aad6;
"/>
<!-- Line -->
<!--  polyline  -->
<polyline points="6069,5770
6197,5713
6136,6118
6069,6176
6069,5770
6069,5770
" style="stroke:#ffffff;stroke-width:7;
stroke-linejoin:miter; stroke-linecap:butt;
"/>
<!-- Line -->
<!--  spline  -->
<polyline points="6139,5765
6142,5767
6145,5769
6148,5771
6150,5773
6152,5776
6155,5781
6159,5788
6162,5796
6164,5799
6165,5800
6166,5804
6169,5814
6172,5824
6173,5829
6174,5831
6175,5836
6177,5848
6178,5860
6179,5869
6180,5877
6180,5884
6180,5887
6180,5888
6180,5889
6179,5896
6178,5908
6178,5919
6177,5926
6177,5927
6177,5928
6176,5932
6174,5940
6172,5949
6169,5960
6166,5970
6165,5974
6164,5976
6162,5979
6159,5987
6155,5994
6154,5997
6153,5998
6151,6000
6148,6004
6145,6007
6143,6009
6141,6010
6140,6010
6139,6010
6138,6010
6136,6008
6132,6006
6130,6004
6129,6004
6127,6002
6125,5999
6123,5994
6119,5987
6116,5979
6114,5976
6114,5974
6113,5970
6110,5960
6108,5950
6107,5945
6106,5944
6106,5939
6104,5927
6103,5916
6102,5906
6101,5898
6101,5892
6101,5889
6101,5888
6101,5887
6102,5880
6103,5868
6103,5856
6104,5849
6104,5848
6104,5847
6105,5842
6106,5835
6107,5825
6110,5814
6113,5804
6114,5800
6114,5799
6116,5796
6119,5788
6122,5781
6124,5778
6124,5777
6126,5775
6129,5771
6133,5768
6135,5766
6137,5765
6139,5765
" style="stroke:#07aad6;stroke-width:0;
stroke-linejoin:bevel; stroke-linecap:butt;
fill:#07aad6;
"/>
<!-- Line -->
<!--  spline  -->
<polyline points="6139,5765
6142,5767
6145,5769
6148,5771
6150,5773
6152,5776
6155,5781
6159,5788
6162,5796
6164,5799
6165,5800
6166,5804
6169,5814
6172,5824
6173,5829
6174,5831
6175,5836
6177,5848
6178,5860
6179,5869
6180,5877
6180,5884
6180,5887
6180,5888
6180,5889
6179,5896
6178,5908
6178,5919
6177,5926
6177,5927
6177,5928
6176,5932
6174,5940
6172,5949
6169,5960
6166,5970
6165,5974
6164,5976
6162,5979
6159,5987
6155,5994
6154,5997
6153,5998
6151,6000
6148,6004
6145,6007
6143,6009
6141,6010
6140,6010
6139,6010
6138,6010
6136,6008
6132,6006
6130,6004
6129,6004
6127,6002
6125,5999
6123,5994
6119,5987
6116,5979
6114,5976
6114,5974
6113,5970
6110,5960
6108,5950
6107,5945
6106,5944
6106,5939
6104,5927
6103,5916
6102,5906
6101,5898
6101,5892
6101,5889
6101,5888
6101,5887
6102,5880
6103,5868
6103,5856
6104,5849
6104,5848
6104,5847
6105,5842
6106,5835
6107,5825
6110,5814
6113,5804
6114,5800
6114,5799
6116,5796
6119,5788
6122,5781
6124,5778
6124,5777
6126,5775
6129,5771
6133,5768
6135,5766
6137,5765
6139,5765
" style="stroke:#ffffff;stroke-width:7;
stroke-linejoin:bevel; stroke-linecap:butt;
"/>
<!-- Line -->
<!--  polyline  -->
<polyline points="5275,6179
5631,5925
6364,5925
6069,6179
5275,6179
5275,6179
" style="stroke:#428adc;stroke-width:0;
stroke-linejoin:miter; stroke-linecap:butt;
fill:#428adc;
"/>
<!-- Line -->
<!--  polyline  -->
<polyline points="5275,6179
5631,5925
6364,5925
6069,6179
5275,6179
5275,6179
" style="stroke:#ffffff;stroke-width:7;
stroke-linejoin:miter; stroke-linecap:butt;
"/>
<!-- Line -->
<!--  polyline  -->
<polyline points="6069,5677
6353,5433
6353,5935
6069,6179
6069,5677
6069,5677
" style="stroke:#2460c4;stroke-width:0;
stroke-linejoin:miter; stroke-linecap:butt;
fill:#2460c4;
"/>
<!-- Line -->
<!--  polyline  -->
<polyline points="6069,5677
6353,5433
6353,5935
6069,6179
6069,5677
6069,5677
" style="stroke:#ffffff;stroke-width:7;
stroke-linejoin:miter; stroke-linecap:butt;
"/>
<!-- Line -->
<!--  spline  -->
<polyline points="6194,5687
6195,5687
6197,5689
6201,5692
6203,5694
6204,5694
6206,5696
6208,5700
6211,5706
6215,5715
6218,5724
6220,5728
6221,5730
6222,5735
6225,5747
6228,5758
6229,5764
6230,5767
6230,5769
6231,5776
6233,5789
6234,5803
6235,5815
6236,5825
6236,5833
6236,5837
6236,5838
6236,5839
6235,5848
6234,5863
6234,5877
6233,5886
6233,5887
6233,5888
6232,5891
6231,5898
6230,5906
6228,5916
6225,5928
6222,5940
6221,5945
6220,5947
6218,5951
6215,5961
6211,5970
6210,5973
6209,5974
6208,5977
6204,5982
6200,5986
6198,5989
6195,5990
6194,5990
6191,5988
6188,5984
6185,5982
6183,5980
6181,5976
6179,5970
6175,5961
6172,5951
6171,5947
6170,5945
6169,5940
6166,5928
6164,5917
6162,5911
6162,5909
6161,5907
6160,5900
6159,5887
6158,5873
6157,5861
6157,5851
6157,5843
6157,5839
6157,5838
6157,5837
6157,5828
6158,5813
6159,5799
6159,5790
6159,5789
6159,5788
6160,5784
6161,5778
6162,5769
6164,5759
6166,5747
6169,5735
6170,5730
6171,5728
6172,5724
6175,5715
6178,5707
6180,5703
6180,5702
6182,5699
6185,5694
6188,5690
6190,5688
6192,5687
6193,5687
6194,5687
" style="stroke:#07aad6;stroke-width:0;
stroke-linejoin:bevel; stroke-linecap:butt;
fill:#07aad6;
"/>
<!-- Line -->
<!--  spline  -->
<polyline points="6194,5687
6195,5687
6197,5689
6201,5692
6203,5694
6204,5694
6206,5696
6208,5700
6211,5706
6215,5715
6218,5724
6220,5728
6221,5730
6222,5735
6225,5747
6228,5758
6229,5764
6230,5767
6230,5769
6231,5776
6233,5789
6234,5803
6235,5815
6236,5825
6236,5833
6236,5837
6236,5838
6236,5839
6235,5848
6234,5863
6234,5877
6233,5886
6233,5887
6233,5888
6232,5891
6231,5898
6230,5906
6228,5916
6225,5928
6222,5940
6221,5945
6220,5947
6218,5951
6215,5961
6211,5970
6210,5973
6209,5974
6208,5977
6204,5982
6200,5986
6198,5989
6195,5990
6194,5990
6191,5988
6188,5984
6185,5982
6183,5980
6181,5976
6179,5970
6175,5961
6172,5951
6171,5947
6170,5945
6169,5940
6166,5928
6164,5917
6162,5911
6162,5909
6161,5907
6160,5900
6159,5887
6158,5873
6157,5861
6157,5851
6157,5843
6157,5839
6157,5838
6157,5837
6157,5828
6158,5813
6159,5799
6159,5790
6159,5789
6159,5788
6160,5784
6161,5778
6162,5769
6164,5759
6166,5747
6169,5735
6170,5730
6171,5728
6172,5724
6175,5715
6178,5707
6180,5703
6180,5702
6182,5699
6185,5694
6188,5690
6190,5688
6192,5687
6193,5687
6194,5687
" style="stroke:#ffffff;stroke-width:7;
stroke-linejoin:bevel; stroke-linecap:butt;
"/>
<!-- Line -->
<!--  spline  -->
<polyline points="5462,5684
5463,5684
5465,5686
5469,5690
5471,5692
5472,5692
5474,5694
5476,5698
5480,5704
5484,5713
5488,5723
5489,5727
5490,5729
5492,5734
5495,5747
5498,5759
5499,5765
5500,5768
5500,5770
5501,5777
5503,5791
5504,5806
5505,5819
5506,5829
5506,5838
5506,5842
5506,5843
5506,5845
5505,5853
5504,5869
5504,5884
5503,5892
5503,5894
5503,5895
5502,5899
5501,5906
5500,5914
5498,5925
5495,5937
5492,5948
5490,5954
5490,5956
5489,5958
5487,5963
5484,5972
5480,5981
5478,5985
5478,5986
5476,5988
5472,5994
5468,5999
5465,6001
5463,6002
5462,6002
5461,6002
5459,6000
5455,5996
5453,5994
5452,5994
5450,5991
5447,5988
5444,5982
5440,5972
5437,5963
5435,5958
5435,5956
5434,5954
5433,5948
5430,5937
5427,5925
5426,5919
5425,5917
5425,5914
5424,5908
5422,5894
5421,5879
5420,5867
5419,5856
5419,5848
5419,5844
5419,5843
5419,5841
5420,5833
5421,5817
5421,5801
5422,5793
5422,5791
5422,5790
5423,5786
5424,5779
5425,5770
5427,5760
5430,5747
5433,5734
5434,5729
5435,5727
5436,5723
5440,5713
5444,5704
5446,5701
5446,5700
5448,5697
5452,5692
5456,5688
5459,5685
5461,5684
5462,5684
" style="stroke:#07aad6;stroke-width:0;
stroke-linejoin:bevel; stroke-linecap:butt;
fill:#07aad6;
"/>
<!-- Line -->
<!--  spline  -->
<polyline points="5462,5684
5463,5684
5465,5686
5469,5690
5471,5692
5472,5692
5474,5694
5476,5698
5480,5704
5484,5713
5488,5723
5489,5727
5490,5729
5492,5734
5495,5747
5498,5759
5499,5765
5500,5768
5500,5770
5501,5777
5503,5791
5504,5806
5505,5819
5506,5829
5506,5838
5506,5842
5506,5843
5506,5845
5505,5853
5504,5869
5504,5884
5503,5892
5503,5894
5503,5895
5502,5899
5501,5906
5500,5914
5498,5925
5495,5937
5492,5948
5490,5954
5490,5956
5489,5958
5487,5963
5484,5972
5480,5981
5478,5985
5478,5986
5476,5988
5472,5994
5468,5999
5465,6001
5463,6002
5462,6002
5461,6002
5459,6000
5455,5996
5453,5994
5452,5994
5450,5991
5447,5988
5444,5982
5440,5972
5437,5963
5435,5958
5435,5956
5434,5954
5433,5948
5430,5937
5427,5925
5426,5919
5425,5917
5425,5914
5424,5908
5422,5894
5421,5879
5420,5867
5419,5856
5419,5848
5419,5844
5419,5843
5419,5841
5420,5833
5421,5817
5421,5801
5422,5793
5422,5791
5422,5790
5423,5786
5424,5779
5425,5770
5427,5760
5430,5747
5433,5734
5434,5729
5435,5727
5436,5723
5440,5713
5444,5704
5446,5701
5446,5700
5448,5697
5452,5692
5456,5688
5459,5685
5461,5684
5462,5684
" style="stroke:#ffffff;stroke-width:7;
stroke-linejoin:bevel; stroke-linecap:butt;
"/>
<!-- Line -->
<!--  polyline  -->
<polyline points="6119,5896
5567,5896
" style="stroke:#07aad6;stroke-width:0;
stroke-linejoin:miter; stroke-linecap:butt;
fill:#07aad6;
"/>
<!-- Line -->
<!--  polyline  -->
<polyline points="6119,5896
5567,5896
" style="stroke:#ffffff;stroke-width:15;
stroke-linejoin:miter; stroke-linecap:butt;
"/>
<!-- Line -->
<!--  polyline  -->
<polyline points="5479,5786
6049,5786
" style="stroke:#07aad6;stroke-width:0;
stroke-linejoin:miter; stroke-linecap:butt;
fill:#07aad6;
"/>
<!-- Line -->
<!--  polyline  -->
<polyline points="5479,5786
6049,5786
" style="stroke:#ffffff;stroke-width:15;
stroke-linejoin:miter; stroke-linecap:butt;
"/>
<!-- Line -->
<!--  polyline  -->
<polyline points="5571,5866
5487,5898
5571,5929
5571,5866
" style="stroke:#ffffff;stroke-width:0;
stroke-linejoin:miter; stroke-linecap:butt;
fill:#ffffff;
"/>
<!-- Line -->
<!--  polyline  -->
<polyline points="5571,5866
5487,5898
5571,5929
5571,5866
" style="stroke:#ffffff;stroke-width:7;
stroke-linejoin:miter; stroke-linecap:butt;
"/>
<!-- Line -->
<!--  polyline  -->
<polyline points="5472,5683
6198,5683
" style="stroke:#07aad6;stroke-width:0;
stroke-linejoin:miter; stroke-linecap:butt;
fill:#07aad6;
"/>
<!-- Line -->
<!--  polyline  -->
<polyline points="5472,5683
6198,5683
" style="stroke:#ffffff;stroke-width:7;
stroke-linejoin:miter; stroke-linecap:butt;
"/>
<!-- Line -->
<!--  polyline  -->
<polyline points="5472,6002
6198,6002
" style="stroke:#07aad6;stroke-width:0;
stroke-linejoin:miter; stroke-linecap:butt;
fill:#07aad6;
"/>
<!-- Line -->
<!--  polyline  -->
<polyline points="5472,6002
6198,6002
" style="stroke:#ffffff;stroke-width:7;
stroke-linejoin:miter; stroke-linecap:butt;
"/>
<!-- Line -->
<!--  polyline  -->
<polyline points="6049,5819
6133,5787
6049,5757
6049,5819
" style="stroke:#ffffff;stroke-width:0;
stroke-linejoin:miter; stroke-linecap:butt;
fill:#ffffff;
"/>
<!-- Line -->
<!--  polyline  -->
<polyline points="6049,5819
6133,5787
6049,5757
6049,5819
" style="stroke:#ffffff;stroke-width:7;
stroke-linejoin:miter; stroke-linecap:butt;
"/>
</g>
</svg>
