<?xml version="1.0" standalone="no"?>
<!DOCTYPE svg PUBLIC "-//W3C//DTD SVG 1.1//EN"
"http://www.w3.org/Graphics/SVG/1.1/DTD/svg11.dtd">
<!-- Creator: fig2dev Version 3.2 Patchlevel 5c -->
<!-- CreationDate: Fri Sep 14 10:46:46 2012 -->
<!-- Magnification: 1.000 -->
<svg xmlns="http://www.w3.org/2000/svg" width="0.7in" height="0.5in" viewBox="-11 12620 803 581">
<g style="stroke-width:.025in; fill:none">
<!-- Line -->
<!--  spline  -->
<polyline points="391,12911
392,12911
397,12911
409,12910
429,12910
453,12909
476,12908
496,12908
508,12907
513,12907
514,12907
517,12907
523,12906
532,12906
543,12905
556,12904
569,12903
585,12901
602,12899
621,12897
643,12894
657,12892
664,12890
667,12890
670,12889
676,12888
688,12885
705,12881
725,12876
735,12873
738,12872
742,12870
749,12867
761,12861
769,12856
774,12851
777,12847
779,12844
780,12841
780,12839
780,12838
779,12837
774,12831
767,12821
762,12815
761,12814
760,12814
757,12812
750,12809
740,12805
725,12800
705,12794
688,12790
676,12787
670,12786
667,12785
664,12785
657,12783
643,12781
621,12778
603,12776
588,12774
579,12773
574,12772
571,12772
568,12772
562,12771
552,12771
536,12769
514,12768
491,12767
471,12766
453,12765
438,12765
423,12764
411,12764
401,12764
394,12764
391,12764
390,12764
385,12764
373,12765
353,12765
329,12766
306,12767
286,12767
274,12768
269,12768
268,12768
265,12768
259,12769
251,12769
239,12770
227,12771
213,12772
198,12774
181,12776
162,12778
140,12781
126,12783
119,12785
116,12785
113,12786
107,12787
95,12790
78,12794
58,12799
48,12802
45,12803
41,12804
34,12808
22,12814
12,12821
7,12827
4,12832
3,12835
3,12838
4,12839
9,12845
16,12854
21,12860
22,12861
23,12861
26,12863
33,12866
43,12870
58,12875
78,12881
95,12885
107,12888
113,12889
116,12890
119,12890
126,12892
140,12894
162,12897
180,12899
195,12901
204,12902
209,12903
212,12903
215,12903
220,12904
230,12904
246,12906
268,12907
291,12908
311,12909
328,12910
344,12910
359,12911
371,12911
381,12911
388,12911
391,12911
" style="stroke:#ffffff;stroke-width:0;
stroke-linejoin:bevel; stroke-linecap:butt;
fill:#ffffff;
"/>
<!-- Line -->
<!--  spline  -->
<polyline points="391,12911
392,12911
397,12911
409,12910
429,12910
453,12909
476,12908
496,12908
508,12907
513,12907
514,12907
517,12907
523,12906
532,12906
543,12905
556,12904
569,12903
585,12901
602,12899
621,12897
643,12894
657,12892
664,12890
667,12890
670,12889
676,12888
688,12885
705,12881
725,12876
735,12873
738,12872
742,12870
749,12867
761,12861
769,12856
774,12851
777,12847
779,12844
780,12841
780,12839
780,12838
779,12837
774,12831
767,12821
762,12815
761,12814
760,12814
757,12812
750,12809
740,12805
725,12800
705,12794
688,12790
676,12787
670,12786
667,12785
664,12785
657,12783
643,12781
621,12778
603,12776
588,12774
579,12773
574,12772
571,12772
568,12772
562,12771
552,12771
536,12769
514,12768
491,12767
471,12766
453,12765
438,12765
423,12764
411,12764
401,12764
394,12764
391,12764
390,12764
385,12764
373,12765
353,12765
329,12766
306,12767
286,12767
274,12768
269,12768
268,12768
265,12768
259,12769
251,12769
239,12770
227,12771
213,12772
198,12774
181,12776
162,12778
140,12781
126,12783
119,12785
116,12785
113,12786
107,12787
95,12790
78,12794
58,12799
48,12802
45,12803
41,12804
34,12808
22,12814
12,12821
7,12827
4,12832
3,12835
3,12838
4,12839
9,12845
16,12854
21,12860
22,12861
23,12861
26,12863
33,12866
43,12870
58,12875
78,12881
95,12885
107,12888
113,12889
116,12890
119,12890
126,12892
140,12894
162,12897
180,12899
195,12901
204,12902
209,12903
212,12903
215,12903
220,12904
230,12904
246,12906
268,12907
291,12908
311,12909
328,12910
344,12910
359,12911
371,12911
381,12911
388,12911
391,12911
" style="stroke:#000000;stroke-width:7;
stroke-linejoin:bevel; stroke-linecap:butt;
"/>
<!-- Line -->
<!--  spline  -->
<polyline points="393,13040
394,13040
399,13039
411,13037
431,13035
455,13031
478,13028
498,13026
510,13024
515,13023
516,13023
519,13022
525,13020
533,13017
545,13014
557,13009
571,13004
586,12998
603,12990
622,12981
640,12972
653,12964
661,12959
666,12956
668,12954
671,12952
674,12949
681,12944
692,12936
706,12926
722,12914
732,12905
737,12901
739,12898
741,12896
745,12892
752,12885
761,12874
771,12861
776,12852
779,12845
780,12841
780,12838
779,12837
774,12831
767,12821
762,12815
761,12814
760,12814
757,12812
750,12809
740,12805
725,12800
705,12794
688,12790
676,12787
670,12786
667,12785
664,12785
657,12783
643,12781
621,12778
603,12776
588,12774
579,12773
574,12772
571,12772
568,12772
562,12771
552,12771
536,12769
514,12768
491,12767
471,12766
453,12765
438,12765
423,12764
411,12764
401,12764
394,12764
391,12764
390,12764
385,12764
373,12765
353,12765
329,12766
306,12767
286,12767
274,12768
269,12768
268,12768
265,12768
259,12769
251,12769
239,12770
227,12771
213,12772
198,12774
181,12776
162,12778
140,12781
126,12783
119,12785
116,12785
113,12786
107,12787
95,12790
78,12794
58,12799
48,12802
45,12803
41,12804
34,12808
22,12814
12,12821
7,12827
4,12832
3,12835
3,12838
4,12839
7,12845
13,12856
19,12867
22,12873
23,12874
25,12876
29,12881
34,12887
41,12894
50,12903
62,12913
78,12926
92,12936
103,12944
110,12949
114,12952
116,12954
119,12956
123,12959
132,12964
145,12972
163,12981
182,12990
196,12997
205,13001
210,13004
213,13005
216,13007
222,13009
232,13012
248,13017
270,13023
293,13028
313,13032
331,13035
346,13037
361,13038
373,13039
383,13040
390,13040
393,13040
" style="stroke:#036998;stroke-width:0;
stroke-linejoin:bevel; stroke-linecap:butt;
fill:#036998;
"/>
<!-- Line -->
<!--  spline  -->
<polyline points="391,12911
392,12911
397,12911
409,12910
429,12910
453,12909
476,12908
496,12908
508,12907
513,12907
514,12907
517,12907
523,12906
532,12906
543,12905
556,12904
569,12903
585,12901
602,12899
621,12897
643,12894
657,12892
664,12890
667,12890
670,12889
676,12888
688,12885
705,12881
725,12876
735,12873
738,12872
742,12870
749,12867
761,12861
769,12856
774,12851
777,12847
779,12844
780,12841
780,12839
780,12838
779,12837
774,12831
767,12821
762,12815
761,12814
760,12814
757,12812
750,12809
740,12805
725,12800
705,12794
688,12790
676,12787
670,12786
667,12785
664,12785
657,12783
643,12781
621,12778
603,12776
588,12774
579,12773
574,12772
571,12772
568,12772
562,12771
552,12771
536,12769
514,12768
491,12767
471,12766
453,12765
438,12765
423,12764
411,12764
401,12764
394,12764
391,12764
390,12764
385,12764
373,12765
353,12765
329,12766
306,12767
286,12767
274,12768
269,12768
268,12768
265,12768
259,12769
251,12769
239,12770
227,12771
213,12772
198,12774
181,12776
162,12778
140,12781
126,12783
119,12785
116,12785
113,12786
107,12787
95,12790
78,12794
58,12799
48,12802
45,12803
41,12804
34,12808
22,12814
12,12821
7,12827
4,12832
3,12835
3,12838
4,12839
9,12845
16,12854
21,12860
22,12861
23,12861
26,12863
33,12866
43,12870
58,12875
78,12881
95,12885
107,12888
113,12889
116,12890
119,12890
126,12892
140,12894
162,12897
180,12899
195,12901
204,12902
209,12903
212,12903
215,12903
220,12904
230,12904
246,12906
268,12907
291,12908
311,12909
328,12910
344,12910
359,12911
371,12911
381,12911
388,12911
391,12911
" style="stroke:#ffffff;stroke-width:0;
stroke-linejoin:bevel; stroke-linecap:butt;
fill:#ffffff;
"/>
<!-- Line -->
<!--  spline  -->
<polyline points="391,12911
392,12911
397,12911
409,12910
429,12910
453,12909
476,12908
496,12908
508,12907
513,12907
514,12907
517,12907
523,12906
532,12906
543,12905
556,12904
569,12903
585,12901
602,12899
621,12897
643,12894
657,12892
664,12890
667,12890
670,12889
676,12888
688,12885
705,12881
725,12876
735,12873
738,12872
742,12870
749,12867
761,12861
769,12856
774,12851
777,12847
779,12844
780,12841
780,12839
780,12838
779,12837
774,12831
767,12821
762,12815
761,12814
760,12814
757,12812
750,12809
740,12805
725,12800
705,12794
688,12790
676,12787
670,12786
667,12785
664,12785
657,12783
643,12781
621,12778
603,12776
588,12774
579,12773
574,12772
571,12772
568,12772
562,12771
552,12771
536,12769
514,12768
491,12767
471,12766
453,12765
438,12765
423,12764
411,12764
401,12764
394,12764
391,12764
390,12764
385,12764
373,12765
353,12765
329,12766
306,12767
286,12767
274,12768
269,12768
268,12768
265,12768
259,12769
251,12769
239,12770
227,12771
213,12772
198,12774
181,12776
162,12778
140,12781
126,12783
119,12785
116,12785
113,12786
107,12787
95,12790
78,12794
58,12799
48,12802
45,12803
41,12804
34,12808
22,12814
12,12821
7,12827
4,12832
3,12835
3,12838
4,12839
9,12845
16,12854
21,12860
22,12861
23,12861
26,12863
33,12866
43,12870
58,12875
78,12881
95,12885
107,12888
113,12889
116,12890
119,12890
126,12892
140,12894
162,12897
180,12899
195,12901
204,12902
209,12903
212,12903
215,12903
220,12904
230,12904
246,12906
268,12907
291,12908
311,12909
328,12910
344,12910
359,12911
371,12911
381,12911
388,12911
391,12911
" style="stroke:#036998;stroke-width:7;
stroke-linejoin:bevel; stroke-linecap:butt;
"/>
<!-- Line -->
<!--  spline  -->
<polyline points="290,12782
289,12782
283,12783
272,12784
261,12784
255,12785
254,12785
253,12785
249,12785
241,12786
232,12787
220,12788
209,12789
204,12790
203,12791
198,12791
188,12793
178,12794
174,12795
172,12795
168,12795
159,12797
149,12799
142,12801
136,12802
133,12803
132,12803
" style="stroke:#036998;stroke-width:7;
stroke-linejoin:bevel; stroke-linecap:butt;
"/>
<!-- Line -->
<!--  spline  -->
<polyline points="294,12798
292,12798
284,12799
270,12800
262,12801
260,12801
259,12801
255,12802
248,12802
239,12804
227,12805
216,12806
212,12807
210,12807
206,12808
196,12809
186,12811
183,12811
181,12811
178,12812
169,12814
159,12816
152,12818
147,12819
144,12820
143,12820
" style="stroke:#036998;stroke-width:7;
stroke-linejoin:bevel; stroke-linecap:butt;
"/>
<!-- Line -->
<!--  spline  -->
<polyline points="299,12814
297,12814
289,12815
275,12817
267,12818
265,12818
264,12818
260,12819
253,12819
244,12820
233,12822
223,12824
219,12824
217,12824
213,12825
204,12827
195,12829
191,12830
189,12830
186,12831
177,12833
168,12835
162,12837
157,12839
155,12840
154,12840
" style="stroke:#036998;stroke-width:7;
stroke-linejoin:bevel; stroke-linecap:butt;
"/>
<!-- Line -->
<!--  spline  -->
<polyline points="307,12834
305,12834
297,12835
284,12836
276,12837
274,12837
273,12837
269,12838
262,12839
254,12840
243,12842
233,12844
229,12845
228,12845
224,12846
215,12848
206,12850
203,12851
201,12851
198,12852
190,12854
182,12856
176,12858
171,12860
169,12861
168,12861
" style="stroke:#036998;stroke-width:7;
stroke-linejoin:bevel; stroke-linecap:butt;
"/>
<!-- Line -->
<!--  spline  -->
<polyline points="311,12851
309,12851
301,12853
290,12854
282,12856
280,12856
279,12856
275,12857
269,12858
261,12859
251,12861
242,12863
238,12864
237,12864
233,12865
225,12867
217,12869
214,12870
212,12871
209,12872
202,12874
194,12877
189,12878
185,12880
182,12881
" style="stroke:#036998;stroke-width:7;
stroke-linejoin:bevel; stroke-linecap:butt;
"/>
<!-- Line -->
<!--  spline  -->
<polyline points="318,12873
317,12873
311,12874
301,12876
295,12877
294,12877
293,12877
290,12878
285,12878
278,12879
270,12881
263,12883
260,12883
259,12883
256,12884
249,12886
242,12888
240,12889
239,12889
236,12890
230,12892
224,12894
219,12896
215,12897
213,12898
" style="stroke:#036998;stroke-width:7;
stroke-linejoin:bevel; stroke-linecap:butt;
"/>
<!-- Line -->
<!--  spline  -->
<polyline points="321,12892
320,12892
318,12893
314,12893
312,12894
311,12894
309,12894
307,12895
305,12895
301,12896
298,12897
296,12897
296,12898
294,12898
291,12899
288,12900
287,12900
286,12900
285,12900
282,12901
279,12902
277,12902
275,12903
274,12903
" style="stroke:#036998;stroke-width:7;
stroke-linejoin:bevel; stroke-linecap:butt;
"/>
<!-- Line -->
<!--  polyline  -->
<polyline points="1,12845
393,12648
780,12838
" style="stroke:#036998;stroke-width:7;
stroke-linejoin:miter; stroke-linecap:butt;
"/>
<!-- Line -->
<!--  spline  -->
<polyline points="396,12698
398,12698
402,12697
404,12697
405,12697
407,12696
409,12696
411,12695
413,12694
414,12694
414,12693
415,12693
417,12692
419,12691
420,12691
420,12690
421,12689
422,12687
422,12686
422,12685
422,12684
422,12683
421,12681
421,12680
420,12679
419,12678
417,12677
415,12676
414,12676
414,12675
413,12675
411,12674
409,12673
408,12673
407,12673
406,12673
404,12672
401,12672
399,12671
397,12671
396,12671
393,12671
390,12672
387,12672
386,12672
384,12673
382,12673
380,12674
378,12675
377,12675
377,12676
376,12676
374,12677
372,12678
371,12678
371,12679
370,12680
369,12681
369,12682
369,12683
369,12684
369,12686
370,12687
370,12689
371,12690
372,12691
374,12692
376,12693
377,12693
377,12694
378,12694
380,12695
382,12696
383,12696
384,12696
387,12697
390,12697
392,12698
395,12698
396,12698
" style="stroke:#036998;stroke-width:0;
stroke-linejoin:bevel; stroke-linecap:butt;
fill:#036998;
"/>
<!-- Line -->
<!--  polyline  -->
<polyline points="396,12621
387,12894
406,12894
396,12621
" style="stroke:#036998;stroke-width:0;
stroke-linejoin:miter; stroke-linecap:butt;
fill:#036998;
"/>
<!-- Line -->
<!--  polyline  -->
<polyline points="498,13088
498,13044
310,13044
310,13088
498,13088
" style="stroke:#036998;stroke-width:0;
stroke-linejoin:miter; stroke-linecap:butt;
fill:#036998;
"/>
<!-- Line -->
<!--  spline  -->
<polyline points="346,13083
347,13083
352,13083
364,13083
382,13083
405,13083
428,13083
446,13083
458,13083
463,13083
464,13083
464,13084
464,13090
464,13104
464,13123
464,13142
464,13156
464,13162
464,13163
463,13163
460,13164
456,13165
453,13166
452,13166
451,13166
448,13167
442,13170
434,13172
422,13176
412,13179
406,13181
404,13182
401,13182
396,13184
386,13187
375,13190
371,13192
368,13192
365,13194
357,13196
351,13198
348,13199
347,13200
346,13200
346,13199
346,13196
346,13192
346,13189
346,13188
346,13187
346,13184
346,13178
346,13170
346,13159
346,13148
346,13143
346,13140
346,13135
346,13124
346,13113
346,13109
346,13107
346,13103
346,13095
346,13089
346,13085
346,13084
346,13083
" style="stroke:#036998;stroke-width:0;
stroke-linejoin:bevel; stroke-linecap:butt;
fill:#036998;
"/>
</g>
</svg>
