<?xml version="1.0" standalone="no"?>
<!DOCTYPE svg PUBLIC "-//W3C//DTD SVG 1.1//EN"
"http://www.w3.org/Graphics/SVG/1.1/DTD/svg11.dtd">
<!-- Creator: fig2dev Version 3.2 Patchlevel 5c -->
<!-- CreationDate: Fri Sep 14 10:46:46 2012 -->
<!-- Magnification: 1.000 -->
<svg xmlns="http://www.w3.org/2000/svg" width="0.9in" height="0.3in" viewBox="-9 12830 1080 379">
<g style="stroke-width:.025in; fill:none">
<!-- Line -->
<!--  polyline  -->
<polyline points="1059,12872
1059,12894
836,12976
734,12959
673,12947
631,12938
630,12910
" style="stroke:#036998;stroke-width:0;
stroke-linejoin:miter; stroke-linecap:butt;
fill:#036998;
"/>
<!-- Line -->
<!--  polyline  -->
<polyline points="1059,12872
1059,12894
836,12976
734,12959
673,12947
631,12938
630,12910
" style="stroke:#ffffff;stroke-width:7;
stroke-linejoin:miter; stroke-linecap:butt;
"/>
<!-- Line -->
<!--  spline  -->
<polyline points="537,13197
538,13197
542,13197
548,13196
552,13196
553,13196
555,13195
558,13195
562,13193
567,13192
571,13191
573,13190
575,13190
578,13188
581,13186
582,13185
583,13184
584,13183
586,13181
587,13178
588,13177
588,13175
588,13174
587,13172
587,13169
586,13167
585,13166
583,13165
581,13163
578,13161
575,13159
573,13158
571,13157
567,13156
563,13155
561,13154
560,13154
558,13154
553,13153
547,13152
543,13152
540,13152
537,13152
536,13152
532,13152
526,13153
522,13153
521,13153
519,13153
516,13154
512,13155
507,13156
503,13157
501,13158
500,13158
498,13159
495,13161
492,13163
491,13164
490,13165
488,13167
487,13169
486,13171
486,13173
486,13174
487,13176
487,13179
488,13181
489,13182
490,13184
492,13186
495,13188
498,13190
500,13190
501,13190
503,13191
507,13192
511,13193
513,13194
514,13194
516,13195
521,13196
527,13197
531,13197
534,13197
537,13197
" style="stroke:#036998;stroke-width:0;
stroke-linejoin:bevel; stroke-linecap:butt;
fill:#036998;
"/>
<!-- Line -->
<!--  spline  -->
<polyline points="537,13197
538,13197
542,13197
548,13196
552,13196
553,13196
555,13195
558,13195
562,13193
567,13192
571,13191
573,13190
575,13190
578,13188
581,13186
582,13185
583,13184
584,13183
586,13181
587,13178
588,13177
588,13175
588,13174
587,13172
587,13169
586,13167
585,13166
583,13165
581,13163
578,13161
575,13159
573,13158
571,13157
567,13156
563,13155
561,13154
560,13154
558,13154
553,13153
547,13152
543,13152
540,13152
537,13152
536,13152
532,13152
526,13153
522,13153
521,13153
519,13153
516,13154
512,13155
507,13156
503,13157
501,13158
500,13158
498,13159
495,13161
492,13163
491,13164
490,13165
488,13167
487,13169
486,13171
486,13173
486,13174
487,13176
487,13179
488,13181
489,13182
490,13184
492,13186
495,13188
498,13190
500,13190
501,13190
503,13191
507,13192
511,13193
513,13194
514,13194
516,13195
521,13196
527,13197
531,13197
534,13197
537,13197
" style="stroke:#ffffff;stroke-width:7;
stroke-linejoin:bevel; stroke-linecap:butt;
"/>
<!-- Line -->
<!--  polyline  -->
<polyline points="740,12932
836,12947
1059,12872
865,12842
630,12910
697,12922
" style="stroke:#036998;stroke-width:0;
stroke-linejoin:miter; stroke-linecap:butt;
fill:#036998;
"/>
<!-- Line -->
<!--  polyline  -->
<polyline points="740,12932
836,12947
1059,12872
865,12842
630,12910
697,12922
" style="stroke:#ffffff;stroke-width:7;
stroke-linejoin:miter; stroke-linecap:butt;
"/>
<!-- Line -->
<!--  spline  -->
<polyline points="724,12936
725,12936
731,12934
742,12931
752,12928
758,12926
759,12926
760,12926
763,12924
769,12922
775,12919
783,12916
789,12913
791,12912
792,12911
794,12910
798,12908
802,12906
803,12905
804,12904
806,12903
807,12902
808,12902
808,12901
807,12901
802,12900
794,12900
789,12899
788,12899
787,12899
784,12899
778,12900
770,12901
760,12903
751,12905
746,12906
745,12907
741,12908
732,12910
724,12912
720,12914
719,12914
716,12915
710,12917
705,12919
703,12919
702,12920
701,12920
700,12920
696,12922
691,12923
687,12925
686,12925
687,12925
693,12927
705,12931
717,12934
723,12936
724,12936
" style="stroke:#036998;stroke-width:0;
stroke-linejoin:bevel; stroke-linecap:butt;
fill:#036998;
"/>
<!-- Line -->
<!--  spline  -->
<polyline points="724,12936
725,12936
731,12934
742,12931
752,12928
758,12926
759,12926
760,12926
763,12924
769,12922
775,12919
783,12916
789,12913
791,12912
792,12911
794,12910
798,12908
802,12906
803,12905
804,12904
806,12903
807,12902
808,12902
808,12901
807,12901
802,12900
794,12900
789,12899
788,12899
787,12899
784,12899
778,12900
770,12901
760,12903
751,12905
746,12906
745,12907
741,12908
732,12910
724,12912
720,12914
719,12914
716,12915
710,12917
705,12919
703,12919
702,12920
701,12920
700,12920
696,12922
691,12923
687,12925
686,12925
687,12925
693,12927
705,12931
717,12934
723,12936
724,12936
" style="stroke:#ffffff;stroke-width:7;
stroke-linejoin:bevel; stroke-linecap:butt;
"/>
<!-- Line -->
<!--  spline  -->
<polyline points="697,12922
696,12922
691,12921
679,12919
664,12916
648,12913
636,12911
631,12910
630,12910
631,12910
635,12909
644,12906
661,12901
685,12894
715,12886
748,12876
780,12866
810,12858
834,12851
851,12846
860,12843
864,12842
865,12842
866,12842
869,12843
877,12844
891,12846
910,12849
935,12853
962,12857
989,12861
1014,12865
1033,12868
1047,12870
1055,12871
1058,12872
1059,12872
1058,12872
1055,12873
1045,12877
1030,12882
1007,12889
979,12899
947,12910
916,12920
888,12930
865,12937
850,12942
840,12946
837,12947
836,12947
835,12947
827,12946
810,12943
788,12940
765,12936
748,12933
740,12932
739,12932
740,12932
748,12930
759,12926
767,12924
768,12924
769,12924
771,12923
776,12921
781,12919
787,12916
792,12913
794,12912
795,12911
797,12910
800,12908
803,12906
804,12905
805,12904
806,12903
807,12902
808,12902
808,12901
807,12901
802,12900
795,12900
790,12899
789,12899
788,12899
785,12899
779,12900
772,12901
763,12902
754,12904
751,12905
749,12905
746,12906
738,12908
731,12910
728,12911
726,12911
724,12912
719,12914
715,12915
713,12916
712,12917
711,12917
710,12917
705,12919
693,12923
677,12928
661,12932
649,12936
644,12938
643,12938
643,12939
643,12945
643,12957
643,12968
643,12974
643,12975
644,12975
651,12972
666,12967
687,12960
708,12953
723,12948
730,12945
731,12945
732,12945
733,12944
733,12943
734,12942
734,12941
734,12940
735,12939
735,12938
735,12937
736,12937
736,12936
736,12935
736,12934
736,12933
736,12932
" style="stroke:#036998;stroke-width:0;
stroke-linejoin:bevel; stroke-linecap:butt;
fill:#036998;
"/>
<!-- Line -->
<!--  spline  -->
<polyline points="697,12922
696,12922
691,12921
679,12919
664,12916
648,12913
636,12911
631,12910
630,12910
631,12910
635,12909
644,12906
661,12901
685,12894
715,12886
748,12876
780,12866
810,12858
834,12851
851,12846
860,12843
864,12842
865,12842
866,12842
869,12843
877,12844
891,12846
910,12849
935,12853
962,12857
989,12861
1014,12865
1033,12868
1047,12870
1055,12871
1058,12872
1059,12872
1058,12872
1055,12873
1045,12877
1030,12882
1007,12889
979,12899
947,12910
916,12920
888,12930
865,12937
850,12942
840,12946
837,12947
836,12947
835,12947
827,12946
810,12943
788,12940
765,12936
748,12933
740,12932
739,12932
740,12932
748,12930
759,12926
767,12924
768,12924
769,12924
771,12923
776,12921
781,12919
787,12916
792,12913
794,12912
795,12911
797,12910
800,12908
803,12906
804,12905
805,12904
806,12903
807,12902
808,12902
808,12901
807,12901
802,12900
795,12900
790,12899
789,12899
788,12899
785,12899
779,12900
772,12901
763,12902
754,12904
751,12905
749,12905
746,12906
738,12908
731,12910
728,12911
726,12911
724,12912
719,12914
715,12915
713,12916
712,12917
711,12917
710,12917
705,12919
693,12923
677,12928
661,12932
649,12936
644,12938
643,12938
643,12939
643,12945
643,12957
643,12968
643,12974
643,12975
644,12975
651,12972
666,12967
687,12960
708,12953
723,12948
730,12945
731,12945
732,12945
733,12944
733,12943
734,12942
734,12941
734,12940
735,12939
735,12938
735,12937
736,12937
736,12936
736,12935
736,12934
736,12933
736,12932
" style="stroke:#ffffff;stroke-width:7;
stroke-linejoin:bevel; stroke-linecap:butt;
"/>
<!-- Line -->
<!--  spline  -->
<polyline points="732,12932
733,12931
733,12930
733,12929
733,12928
732,12928
731,12928
731,12929
731,12930
731,12931
731,12932
732,12932
" style="stroke:#036998;stroke-width:0;
stroke-linejoin:bevel; stroke-linecap:butt;
fill:#036998;
"/>
<!-- Line -->
<!--  spline  -->
<polyline points="732,12932
733,12931
733,12930
733,12929
733,12928
732,12928
731,12928
731,12929
731,12930
731,12931
731,12932
732,12932
" style="stroke:#ffffff;stroke-width:7;
stroke-linejoin:bevel; stroke-linecap:butt;
"/>
<!-- Line -->
<!--  spline  -->
<polyline points="430,12847
430,12851
430,12859
430,12873
430,12893
430,12920
430,12951
430,12986
430,13020
430,13051
430,13078
430,13098
430,13112
430,13120
430,13124
430,13125
432,13129
434,13134
436,13138
436,13139
438,13141
441,13143
445,13147
451,13151
458,13155
461,13157
462,13157
466,13159
474,13162
483,13165
487,13166
488,13166
493,13166
503,13168
515,13169
524,13170
532,13171
536,13171
537,13171
539,13171
547,13170
560,13169
568,13168
570,13168
571,13168
575,13167
581,13166
589,13165
599,13162
607,13159
611,13157
612,13157
615,13155
622,13151
628,13147
631,13146
632,13145
634,13143
638,13139
641,13134
642,13130
643,13126
643,13124
643,13123
643,13120
643,13112
643,13098
643,13077
643,13050
643,13019
643,12984
643,12949
643,12918
643,12891
643,12870
643,12856
643,12848
643,12845
643,12844
" style="stroke:#036998;stroke-width:0;
stroke-linejoin:bevel; stroke-linecap:butt;
fill:#036998;
"/>
<!-- Line -->
<!--  spline  -->
<polyline points="430,12847
430,12851
430,12859
430,12873
430,12893
430,12920
430,12951
430,12986
430,13020
430,13051
430,13078
430,13098
430,13112
430,13120
430,13124
430,13125
432,13129
434,13134
436,13138
436,13139
438,13141
441,13143
445,13147
451,13151
458,13155
461,13157
462,13157
466,13159
474,13162
483,13165
487,13166
488,13166
493,13166
503,13168
515,13169
524,13170
532,13171
536,13171
537,13171
539,13171
547,13170
560,13169
568,13168
570,13168
571,13168
575,13167
581,13166
589,13165
599,13162
607,13159
611,13157
612,13157
615,13155
622,13151
628,13147
631,13146
632,13145
634,13143
638,13139
641,13134
642,13130
643,13126
643,13124
643,13123
643,13120
643,13112
643,13098
643,13077
643,13050
643,13019
643,12984
643,12949
643,12918
643,12891
643,12870
643,12856
643,12848
643,12845
643,12844
" style="stroke:#ffffff;stroke-width:7;
stroke-linejoin:bevel; stroke-linecap:butt;
"/>
<!-- Line -->
<!--  polyline  -->
<polyline points="443,13066
443,13091
209,13174
3,13126
3,13097
" style="stroke:#036998;stroke-width:0;
stroke-linejoin:miter; stroke-linecap:butt;
fill:#036998;
"/>
<!-- Line -->
<!--  polyline  -->
<polyline points="443,13066
443,13091
209,13174
3,13126
3,13097
" style="stroke:#ffffff;stroke-width:7;
stroke-linejoin:miter; stroke-linecap:butt;
"/>
<!-- Line -->
<!--  polyline  -->
<polyline points="367,13055
443,13066
209,13143
3,13096
248,13027
304,13037
" style="stroke:#036998;stroke-width:0;
stroke-linejoin:miter; stroke-linecap:butt;
fill:#036998;
"/>
<!-- Line -->
<!--  polyline  -->
<polyline points="367,13055
443,13066
209,13143
3,13096
248,13027
304,13037
" style="stroke:#ffffff;stroke-width:7;
stroke-linejoin:miter; stroke-linecap:butt;
"/>
<!-- Line -->
<!--  spline  -->
<polyline points="303,13036
302,13036
295,13039
284,13042
277,13045
276,13045
275,13045
273,13047
268,13049
262,13052
256,13056
251,13059
249,13061
248,13061
247,13062
243,13065
240,13068
238,13069
237,13070
235,13072
234,13073
234,13074
233,13074
233,13075
234,13075
242,13075
255,13074
268,13074
276,13074
277,13074
278,13074
281,13074
287,13073
295,13072
304,13071
314,13069
325,13067
329,13066
330,13066
334,13065
342,13063
349,13061
352,13060
353,13059
355,13059
360,13057
364,13056
366,13055
367,13055
" style="stroke:#036998;stroke-width:0;
stroke-linejoin:bevel; stroke-linecap:butt;
fill:#036998;
"/>
<!-- Line -->
<!--  spline  -->
<polyline points="303,13036
302,13036
295,13039
284,13042
277,13045
276,13045
275,13045
273,13047
268,13049
262,13052
256,13056
251,13059
249,13061
248,13061
247,13062
243,13065
240,13068
238,13069
237,13070
235,13072
234,13073
234,13074
233,13074
233,13075
234,13075
242,13075
255,13074
268,13074
276,13074
277,13074
278,13074
281,13074
287,13073
295,13072
304,13071
314,13069
325,13067
329,13066
330,13066
334,13065
342,13063
349,13061
352,13060
353,13059
355,13059
360,13057
364,13056
366,13055
367,13055
" style="stroke:#ffffff;stroke-width:7;
stroke-linejoin:bevel; stroke-linecap:butt;
"/>
<!-- Line -->
<!--  spline  -->
<polyline points="299,13038
300,13038
304,13036
315,13033
333,13028
357,13021
385,13013
413,13005
437,12998
455,12993
466,12990
470,12988
471,12988
472,12988
475,12989
479,12989
482,12990
483,12990
484,12991
486,12992
487,12993
489,12995
490,12997
491,12998
491,12999
491,13000
492,13002
493,13004
493,13005
493,13006
493,13007
493,13008
493,13009
492,13011
492,13014
491,13016
491,13017
490,13018
489,13019
487,13021
485,13022
484,13023
483,13023
481,13024
479,13025
478,13025
477,13025
476,13026
475,13026
475,13027
474,13027
473,13027
468,13028
457,13031
440,13036
418,13042
396,13047
379,13052
368,13055
363,13056
362,13056
" style="stroke:#036998;stroke-width:0;
stroke-linejoin:bevel; stroke-linecap:butt;
fill:#036998;
"/>
<!-- Line -->
<!--  spline  -->
<polyline points="299,13038
300,13038
304,13036
315,13033
333,13028
357,13021
385,13013
413,13005
437,12998
455,12993
466,12990
470,12988
471,12988
472,12988
475,12989
479,12989
482,12990
483,12990
484,12991
486,12992
487,12993
489,12995
490,12997
491,12998
491,12999
491,13000
492,13002
493,13004
493,13005
493,13006
493,13007
493,13008
493,13009
492,13011
492,13014
491,13016
491,13017
490,13018
489,13019
487,13021
485,13022
484,13023
483,13023
481,13024
479,13025
478,13025
477,13025
476,13026
475,13026
475,13027
474,13027
473,13027
468,13028
457,13031
440,13036
418,13042
396,13047
379,13052
368,13055
363,13056
362,13056
" style="stroke:#ffffff;stroke-width:7;
stroke-linejoin:bevel; stroke-linecap:butt;
"/>
<!-- Line -->
<!--  spline  -->
<polyline points="359,13057
360,13057
361,13056
362,13056
362,13055
361,13055
361,13054
360,13054
359,13054
358,13054
357,13055
357,13056
358,13056
358,13057
359,13057
" style="stroke:#036998;stroke-width:0;
stroke-linejoin:bevel; stroke-linecap:butt;
fill:#036998;
"/>
<!-- Line -->
<!--  spline  -->
<polyline points="359,13057
360,13057
361,13056
362,13056
362,13055
361,13055
361,13054
360,13054
359,13054
358,13054
357,13055
357,13056
358,13056
358,13057
359,13057
" style="stroke:#ffffff;stroke-width:7;
stroke-linejoin:bevel; stroke-linecap:butt;
"/>
</g>
</svg>
