<?xml version="1.0" standalone="no"?>
<!DOCTYPE svg PUBLIC "-//W3C//DTD SVG 1.1//EN"
"http://www.w3.org/Graphics/SVG/1.1/DTD/svg11.dtd">
<!-- Creator: fig2dev Version 3.2 Patchlevel 5c -->
<!-- CreationDate: Fri Sep 14 10:46:46 2012 -->
<!-- Magnification: 1.000 -->
<svg xmlns="http://www.w3.org/2000/svg" width="0.5in" height="0.5in" viewBox="-4 12589 655 617">
<g style="stroke-width:.025in; fill:none">
<!-- Line -->
<!--  polyline  -->
<polyline points="214,12834
557,12834
606,12601
280,12601
214,12834
" style="stroke:#036998;stroke-width:0;
stroke-linejoin:miter; stroke-linecap:butt;
fill:#036998;
"/>
<!-- Line -->
<!--  polyline  -->
<polyline points="214,12834
557,12834
606,12601
280,12601
214,12834
" style="stroke:#ffffff;stroke-width:7;
stroke-linejoin:miter; stroke-linecap:butt;
"/>
<!-- Line -->
<!--  polyline  -->
<polyline points="214,12834
249,12901
592,12901
557,12834
214,12834
" style="stroke:#036998;stroke-width:0;
stroke-linejoin:miter; stroke-linecap:butt;
fill:#036998;
"/>
<!-- Line -->
<!--  polyline  -->
<polyline points="214,12834
249,12901
592,12901
557,12834
214,12834
" style="stroke:#ffffff;stroke-width:7;
stroke-linejoin:miter; stroke-linecap:butt;
"/>
<!-- Line -->
<!--  polyline  -->
<polyline points="606,12601
639,12663
592,12901
557,12834
606,12601
" style="stroke:#036998;stroke-width:0;
stroke-linejoin:miter; stroke-linecap:butt;
fill:#036998;
"/>
<!-- Line -->
<!--  polyline  -->
<polyline points="606,12601
639,12663
592,12901
557,12834
606,12601
" style="stroke:#ffffff;stroke-width:7;
stroke-linejoin:miter; stroke-linecap:butt;
"/>
<!-- Line -->
<!--  polyline  -->
<polyline points="8,13127
271,13127
519,12841
273,12841
8,13127
" style="stroke:#036998;stroke-width:0;
stroke-linejoin:miter; stroke-linecap:butt;
fill:#036998;
"/>
<!-- Line -->
<!--  polyline  -->
<polyline points="8,13127
271,13127
519,12841
273,12841
8,13127
" style="stroke:#ffffff;stroke-width:7;
stroke-linejoin:miter; stroke-linecap:butt;
"/>
<!-- Line -->
<!--  polyline  -->
<polyline points="8,13127
43,13194
306,13194
271,13127
8,13127
" style="stroke:#036998;stroke-width:0;
stroke-linejoin:miter; stroke-linecap:butt;
fill:#036998;
"/>
<!-- Line -->
<!--  polyline  -->
<polyline points="8,13127
43,13194
306,13194
271,13127
8,13127
" style="stroke:#ffffff;stroke-width:7;
stroke-linejoin:miter; stroke-linecap:butt;
"/>
<!-- Line -->
<!--  polyline  -->
<polyline points="519,12841
552,12903
306,13194
271,13127
519,12841
" style="stroke:#036998;stroke-width:0;
stroke-linejoin:miter; stroke-linecap:butt;
fill:#036998;
"/>
<!-- Line -->
<!--  polyline  -->
<polyline points="519,12841
552,12903
306,13194
271,13127
519,12841
" style="stroke:#ffffff;stroke-width:7;
stroke-linejoin:miter; stroke-linecap:butt;
"/>
<!-- Line -->
<!--  polyline  -->
<polyline points="263,12866
290,12866
272,12886
245,12886
263,12866
" style="stroke:#ffffff;stroke-width:0;
stroke-linejoin:miter; stroke-linecap:butt;
fill:#ffffff;
"/>
<!-- Line -->
<!--  polyline  -->
<polyline points="222,12929
254,12921
236,12941
219,12930
" style="stroke:#ffffff;stroke-width:0;
stroke-linejoin:miter; stroke-linecap:butt;
fill:#ffffff;
"/>
<!-- Line -->
<!--  polyline  -->
<polyline points="310,12866
337,12866
319,12886
292,12886
310,12866
" style="stroke:#ffffff;stroke-width:0;
stroke-linejoin:miter; stroke-linecap:butt;
fill:#ffffff;
"/>
<!-- Line -->
<!--  polyline  -->
<polyline points="357,12866
384,12866
369,12886
339,12886
357,12866
" style="stroke:#ffffff;stroke-width:0;
stroke-linejoin:miter; stroke-linecap:butt;
fill:#ffffff;
"/>
<!-- Line -->
<!--  polyline  -->
<polyline points="404,12866
431,12866
416,12886
389,12886
404,12866
" style="stroke:#ffffff;stroke-width:0;
stroke-linejoin:miter; stroke-linecap:butt;
fill:#ffffff;
"/>
<!-- Line -->
<!--  polyline  -->
<polyline points="211,12982
238,12982
219,13001
192,13001
211,12982
" style="stroke:#ffffff;stroke-width:0;
stroke-linejoin:miter; stroke-linecap:butt;
fill:#ffffff;
"/>
<!-- Line -->
<!--  polyline  -->
<polyline points="258,12982
285,12982
269,13001
239,13001
258,12982
" style="stroke:#ffffff;stroke-width:0;
stroke-linejoin:miter; stroke-linecap:butt;
fill:#ffffff;
"/>
<!-- Line -->
<!--  polyline  -->
<polyline points="305,12982
332,12982
316,13001
289,13001
305,12982
" style="stroke:#ffffff;stroke-width:0;
stroke-linejoin:miter; stroke-linecap:butt;
fill:#ffffff;
"/>
<!-- Line -->
<!--  polyline  -->
<polyline points="158,13035
185,13035
168,13055
141,13055
158,13035
" style="stroke:#ffffff;stroke-width:0;
stroke-linejoin:miter; stroke-linecap:butt;
fill:#ffffff;
"/>
<!-- Line -->
<!--  polyline  -->
<polyline points="205,13035
232,13035
218,13055
188,13055
205,13035
" style="stroke:#ffffff;stroke-width:0;
stroke-linejoin:miter; stroke-linecap:butt;
fill:#ffffff;
"/>
<!-- Line -->
<!--  polyline  -->
<polyline points="252,13035
278,13035
265,13055
238,13055
252,13035
" style="stroke:#ffffff;stroke-width:0;
stroke-linejoin:miter; stroke-linecap:butt;
fill:#ffffff;
"/>
<!-- Line -->
<!--  polyline  -->
<polyline points="454,12866
481,12866
463,12886
436,12886
454,12866
" style="stroke:#ffffff;stroke-width:0;
stroke-linejoin:miter; stroke-linecap:butt;
fill:#ffffff;
"/>
<!-- Line -->
<!--  polyline  -->
<polyline points="388,12925
407,12934
404,12936
370,12945
388,12925
" style="stroke:#ffffff;stroke-width:0;
stroke-linejoin:miter; stroke-linecap:butt;
fill:#ffffff;
"/>
<!-- Line -->
<!--  spline  -->
<polyline points="343,12931
342,12933
340,12934
339,12936
338,12937
336,12938
334,12939
331,12940
328,12941
327,12942
326,12942
324,12942
321,12943
317,12944
316,12945
315,12945
314,12945
310,12946
306,12946
303,12946
301,12946
299,12946
298,12946
296,12946
291,12946
289,12946
288,12946
286,12946
284,12945
282,12944
279,12943
277,12942
276,12942
275,12941
274,12940
273,12939
272,12938
272,12937
271,12936
271,12935
271,12933
271,12932
272,12932
272,12931
274,12929
275,12928
277,12926
278,12925
280,12925
282,12923
285,12922
288,12921
289,12920
291,12919
294,12918
298,12917
299,12917
300,12917
302,12917
306,12916
310,12916
313,12915
315,12915
317,12915
318,12915
320,12915
325,12916
327,12916
328,12916
329,12916
331,12916
333,12917
336,12918
338,12919
339,12920
340,12920
340,12921
342,12922
343,12923
344,12924
345,12925
345,12926
345,12928
344,12929
344,12930
343,12931
" style="stroke:#ffffff;stroke-width:0;
stroke-linejoin:bevel; stroke-linecap:butt;
fill:#ffffff;
"/>
<!-- Line -->
<!--  spline  -->
<polyline points="504,12782
503,12784
502,12786
501,12788
500,12789
500,12790
499,12792
497,12794
495,12796
494,12797
492,12798
490,12799
489,12799
488,12799
486,12800
484,12800
482,12801
481,12801
480,12801
479,12801
475,12801
463,12801
445,12801
419,12801
390,12801
361,12801
335,12801
317,12801
305,12801
301,12801
300,12801
298,12801
297,12800
295,12800
294,12800
293,12800
292,12799
290,12798
289,12797
288,12796
287,12794
286,12792
286,12791
286,12790
286,12788
286,12786
286,12784
286,12783
286,12782
286,12781
288,12775
291,12763
297,12742
304,12717
310,12692
316,12671
319,12659
321,12653
321,12652
322,12650
323,12648
324,12646
325,12645
325,12644
326,12642
328,12640
330,12638
331,12637
333,12636
335,12635
336,12635
337,12635
339,12634
341,12634
343,12633
344,12633
345,12633
346,12633
350,12633
362,12633
380,12633
406,12633
435,12633
464,12633
490,12633
508,12633
520,12633
524,12633
525,12633
527,12633
529,12634
531,12634
532,12634
533,12634
534,12635
535,12636
536,12637
537,12638
538,12640
539,12642
539,12643
539,12644
539,12646
539,12648
539,12650
539,12651
539,12652
539,12653
537,12659
534,12671
528,12692
521,12717
515,12742
509,12763
506,12775
504,12781
504,12782
" style="stroke:#036998;stroke-width:0;
stroke-linejoin:bevel; stroke-linecap:butt;
fill:#036998;
"/>
<!-- Line -->
<!--  spline  -->
<polyline points="504,12782
503,12784
502,12786
501,12788
500,12789
500,12790
499,12792
497,12794
495,12796
494,12797
492,12798
490,12799
489,12799
488,12799
486,12800
484,12800
482,12801
481,12801
480,12801
479,12801
475,12801
463,12801
445,12801
419,12801
390,12801
361,12801
335,12801
317,12801
305,12801
301,12801
300,12801
298,12801
297,12800
295,12800
294,12800
293,12800
292,12799
290,12798
289,12797
288,12796
287,12794
286,12792
286,12791
286,12790
286,12788
286,12786
286,12784
286,12783
286,12782
286,12781
288,12775
291,12763
297,12742
304,12717
310,12692
316,12671
319,12659
321,12653
321,12652
322,12650
323,12648
324,12646
325,12645
325,12644
326,12642
328,12640
330,12638
331,12637
333,12636
335,12635
336,12635
337,12635
339,12634
341,12634
343,12633
344,12633
345,12633
346,12633
350,12633
362,12633
380,12633
406,12633
435,12633
464,12633
490,12633
508,12633
520,12633
524,12633
525,12633
527,12633
529,12634
531,12634
532,12634
533,12634
534,12635
535,12636
536,12637
537,12638
538,12640
539,12642
539,12643
539,12644
539,12646
539,12648
539,12650
539,12651
539,12652
539,12653
537,12659
534,12671
528,12692
521,12717
515,12742
509,12763
506,12775
504,12781
504,12782
" style="stroke:#ffffff;stroke-width:7;
stroke-linejoin:bevel; stroke-linecap:butt;
"/>
</g>
</svg>
