<?xml version="1.0" standalone="no"?>
<!DOCTYPE svg PUBLIC "-//W3C//DTD SVG 1.1//EN"
"http://www.w3.org/Graphics/SVG/1.1/DTD/svg11.dtd">
<!-- Creator: fig2dev Version 3.2 Patchlevel 5c -->
<!-- CreationDate: Fri Sep 14 10:46:46 2012 -->
<!-- Magnification: 1.000 -->
<svg xmlns="http://www.w3.org/2000/svg" width="0.4in" height="0.4in" viewBox="4890 6370 458 464">
<g style="stroke-width:.025in; fill:none">
<!-- Line -->
<!--  polyline  -->
<polyline points="5261,6822
5261,6455
4902,6455
4902,6822
5261,6822
" style="stroke:#07a8d6;stroke-width:0;
stroke-linejoin:miter; stroke-linecap:butt;
fill:#07a8d6;
"/>
<!-- Line -->
<!--  polyline  -->
<polyline points="5261,6822
5261,6455
4902,6455
4902,6822
5261,6822
" style="stroke:#ffffff;stroke-width:7;
stroke-linejoin:miter; stroke-linecap:butt;
"/>
<!-- Line -->
<!--  polyline  -->
<polyline points="5261,6455
4902,6455
4993,6382
5336,6382
5336,6382
5336,6747
5261,6822
5261,6455
5261,6455
" style="stroke:#07a8d6;stroke-width:0;
stroke-linejoin:miter; stroke-linecap:butt;
fill:#07a8d6;
"/>
<!-- Line -->
<!--  polyline  -->
<polyline points="5261,6455
4902,6455
4993,6382
5336,6382
5336,6382
5336,6747
5261,6822
5261,6455
5261,6455
" style="stroke:#ffffff;stroke-width:7;
stroke-linejoin:miter; stroke-linecap:butt;
"/>
<!-- Line -->
<!--  polyline  -->
<polyline points="5261,6455
5336,6382
" style="stroke:#07a8d6;stroke-width:0;
stroke-linejoin:miter; stroke-linecap:butt;
fill:#07a8d6;
"/>
<!-- Line -->
<!--  polyline  -->
<polyline points="5261,6455
5336,6382
" style="stroke:#ffffff;stroke-width:7;
stroke-linejoin:miter; stroke-linecap:butt;
"/>
<!-- Line -->
<!--  polyline  -->
<polyline points="4952,6550
5242,6550
" style="stroke:#07a8d6;stroke-width:0;
stroke-linejoin:miter; stroke-linecap:butt;
fill:#07a8d6;
"/>
<!-- Line -->
<!--  polyline  -->
<polyline points="4952,6550
5242,6550
" style="stroke:#ffffff;stroke-width:7;
stroke-linejoin:miter; stroke-linecap:butt;
"/>
<!-- Line -->
<!--  polyline  -->
<polyline points="4938,6639
5230,6639
" style="stroke:#07a8d6;stroke-width:0;
stroke-linejoin:miter; stroke-linecap:butt;
fill:#07a8d6;
"/>
<!-- Line -->
<!--  polyline  -->
<polyline points="4938,6639
5230,6639
" style="stroke:#ffffff;stroke-width:7;
stroke-linejoin:miter; stroke-linecap:butt;
"/>
<!-- Line -->
<!--  polyline  -->
<polyline points="4925,6723
5216,6723
" style="stroke:#07a8d6;stroke-width:0;
stroke-linejoin:miter; stroke-linecap:butt;
fill:#07a8d6;
"/>
<!-- Line -->
<!--  polyline  -->
<polyline points="4925,6723
5216,6723
" style="stroke:#ffffff;stroke-width:7;
stroke-linejoin:miter; stroke-linecap:butt;
"/>
<!-- Line -->
<!--  polyline  -->
<polyline points="4965,6773
5025,6497
" style="stroke:#07a8d6;stroke-width:0;
stroke-linejoin:miter; stroke-linecap:butt;
fill:#07a8d6;
"/>
<!-- Line -->
<!--  polyline  -->
<polyline points="4965,6773
5025,6497
" style="stroke:#ffffff;stroke-width:7;
stroke-linejoin:miter; stroke-linecap:butt;
"/>
<!-- Line -->
<!--  polyline  -->
<polyline points="5151,6773
5211,6497
" style="stroke:#07a8d6;stroke-width:0;
stroke-linejoin:miter; stroke-linecap:butt;
fill:#07a8d6;
"/>
<!-- Line -->
<!--  polyline  -->
<polyline points="5151,6773
5211,6497
" style="stroke:#ffffff;stroke-width:7;
stroke-linejoin:miter; stroke-linecap:butt;
"/>
<!-- Line -->
<!--  polyline  -->
<polyline points="5058,6771
5118,6495
" style="stroke:#07a8d6;stroke-width:0;
stroke-linejoin:miter; stroke-linecap:butt;
fill:#07a8d6;
"/>
<!-- Line -->
<!--  polyline  -->
<polyline points="5058,6771
5118,6495
" style="stroke:#ffffff;stroke-width:7;
stroke-linejoin:miter; stroke-linecap:butt;
"/>
<!-- Line -->
<!--  spline  -->
<polyline points="5036,6549
5036,6551
5035,6552
5035,6554
5034,6555
5033,6557
5031,6558
5029,6559
5029,6560
5028,6561
5026,6562
5024,6563
5023,6563
5022,6564
5020,6564
5018,6564
5016,6564
5014,6564
5013,6564
5011,6564
5008,6564
5006,6564
5005,6564
5004,6564
5002,6563
5000,6562
4998,6561
4997,6560
4997,6559
4995,6558
4994,6557
4993,6556
4992,6555
4991,6554
4990,6552
4990,6551
4990,6550
4990,6549
4990,6548
4991,6546
4991,6545
4992,6544
4992,6543
4993,6542
4995,6540
4997,6539
4997,6538
4998,6538
5000,6537
5002,6536
5003,6536
5004,6536
5006,6535
5008,6535
5010,6534
5012,6534
5013,6534
5015,6534
5018,6535
5020,6535
5021,6535
5022,6536
5024,6536
5026,6537
5028,6538
5029,6538
5029,6539
5031,6540
5032,6541
5033,6542
5033,6543
5034,6543
5035,6545
5036,6547
5036,6548
5036,6549
" style="stroke:#ffffff;stroke-width:0;
stroke-linejoin:bevel; stroke-linecap:butt;
fill:#ffffff;
"/>
<!-- Line -->
<!--  spline  -->
<polyline points="5130,6546
5130,6547
5129,6549
5129,6550
5128,6551
5126,6553
5125,6554
5124,6555
5123,6556
5123,6557
5121,6558
5119,6559
5118,6559
5117,6559
5116,6559
5114,6560
5111,6560
5110,6561
5108,6561
5107,6561
5105,6561
5102,6560
5100,6560
5099,6560
5098,6560
5096,6559
5094,6558
5092,6557
5091,6556
5090,6555
5089,6554
5088,6553
5087,6552
5087,6551
5086,6550
5085,6549
5085,6547
5084,6547
5084,6546
5085,6544
5085,6543
5086,6541
5086,6540
5087,6540
5088,6538
5089,6537
5090,6536
5091,6535
5092,6534
5094,6533
5096,6532
5097,6532
5098,6532
5100,6531
5102,6531
5104,6530
5106,6530
5107,6530
5109,6530
5112,6531
5114,6531
5115,6531
5117,6531
5119,6532
5121,6533
5123,6534
5123,6535
5124,6536
5125,6537
5126,6538
5127,6539
5128,6540
5129,6541
5130,6543
5130,6544
5130,6545
5130,6546
" style="stroke:#ffffff;stroke-width:0;
stroke-linejoin:bevel; stroke-linecap:butt;
fill:#ffffff;
"/>
<!-- Line -->
<!--  spline  -->
<polyline points="5224,6552
5224,6554
5223,6555
5223,6557
5223,6558
5222,6559
5221,6560
5220,6561
5219,6562
5218,6563
5217,6563
5215,6564
5213,6565
5212,6566
5211,6566
5209,6567
5206,6567
5204,6567
5202,6567
5201,6567
5199,6567
5196,6567
5194,6567
5193,6567
5192,6566
5190,6565
5188,6564
5186,6563
5185,6563
5184,6562
5183,6561
5182,6560
5181,6559
5181,6558
5180,6557
5179,6555
5179,6554
5179,6553
5179,6552
5179,6550
5180,6549
5180,6547
5180,6546
5181,6545
5182,6544
5183,6543
5184,6542
5185,6541
5186,6541
5188,6540
5190,6539
5191,6539
5192,6539
5194,6538
5196,6538
5198,6537
5200,6537
5201,6537
5203,6537
5207,6538
5209,6538
5210,6538
5211,6539
5213,6539
5215,6540
5217,6541
5218,6541
5219,6542
5220,6543
5221,6544
5222,6545
5222,6546
5223,6547
5224,6549
5224,6550
5224,6551
5224,6552
" style="stroke:#ffffff;stroke-width:0;
stroke-linejoin:bevel; stroke-linecap:butt;
fill:#ffffff;
"/>
<!-- Line -->
<!--  spline  -->
<polyline points="5014,6639
5014,6641
5013,6642
5013,6644
5013,6645
5012,6645
5011,6647
5010,6648
5009,6649
5008,6650
5007,6651
5005,6652
5003,6653
5002,6653
5001,6654
4999,6654
4996,6654
4994,6654
4992,6654
4991,6654
4989,6654
4986,6654
4984,6654
4983,6654
4982,6654
4980,6653
4978,6652
4976,6651
4975,6650
4974,6649
4973,6648
4972,6647
4971,6646
4971,6645
4970,6644
4969,6642
4969,6641
4969,6640
4969,6639
4969,6637
4970,6636
4970,6634
4970,6633
4971,6632
4972,6631
4973,6630
4974,6629
4975,6628
4976,6628
4978,6627
4980,6626
4981,6626
4982,6626
4984,6625
4986,6625
4988,6624
4990,6624
4991,6624
4993,6624
4997,6625
4999,6625
5000,6625
5001,6626
5003,6626
5005,6627
5007,6628
5008,6628
5009,6629
5010,6630
5011,6631
5012,6632
5012,6633
5013,6634
5014,6636
5014,6637
5014,6638
5014,6639
" style="stroke:#ffffff;stroke-width:0;
stroke-linejoin:bevel; stroke-linecap:butt;
fill:#ffffff;
"/>
<!-- Line -->
<!--  spline  -->
<polyline points="5108,6642
5108,6644
5107,6645
5107,6647
5107,6648
5106,6649
5105,6650
5104,6651
5103,6652
5102,6653
5101,6653
5099,6654
5097,6655
5096,6656
5095,6656
5093,6657
5091,6657
5089,6657
5087,6657
5086,6657
5084,6657
5080,6657
5078,6657
5077,6657
5076,6656
5074,6655
5072,6654
5070,6653
5069,6653
5068,6652
5067,6651
5066,6650
5065,6649
5065,6648
5064,6647
5063,6645
5063,6644
5063,6643
5063,6642
5063,6640
5064,6639
5064,6637
5064,6636
5065,6635
5066,6634
5067,6633
5068,6632
5069,6631
5070,6631
5072,6630
5074,6629
5075,6629
5076,6629
5078,6628
5081,6628
5083,6627
5085,6627
5086,6627
5088,6627
5091,6628
5093,6628
5094,6628
5095,6629
5097,6629
5099,6630
5101,6631
5102,6631
5103,6632
5104,6633
5105,6634
5106,6635
5106,6636
5107,6637
5108,6639
5108,6640
5108,6641
5108,6642
" style="stroke:#ffffff;stroke-width:0;
stroke-linejoin:bevel; stroke-linecap:butt;
fill:#ffffff;
"/>
<!-- Line -->
<!--  spline  -->
<polyline points="5203,6638
5203,6640
5202,6641
5202,6643
5201,6644
5201,6645
5200,6646
5198,6647
5196,6648
5196,6649
5195,6649
5193,6650
5191,6651
5190,6651
5189,6651
5187,6652
5185,6652
5183,6653
5181,6653
5180,6653
5178,6653
5175,6652
5173,6652
5172,6652
5171,6651
5169,6651
5167,6650
5165,6649
5164,6649
5164,6648
5162,6647
5161,6646
5160,6645
5159,6644
5158,6643
5157,6641
5157,6640
5157,6639
5157,6638
5157,6636
5158,6635
5158,6633
5159,6632
5160,6630
5162,6629
5164,6628
5164,6627
5165,6626
5167,6625
5169,6624
5170,6624
5171,6623
5173,6623
5175,6623
5177,6623
5179,6623
5180,6623
5182,6623
5185,6623
5187,6623
5188,6623
5189,6623
5191,6624
5193,6625
5195,6626
5196,6627
5196,6628
5198,6629
5199,6630
5200,6631
5201,6632
5202,6633
5203,6635
5203,6636
5203,6637
5203,6638
" style="stroke:#ffffff;stroke-width:0;
stroke-linejoin:bevel; stroke-linecap:butt;
fill:#ffffff;
"/>
<!-- Line -->
<!--  spline  -->
<polyline points="4995,6725
4995,6727
4994,6728
4994,6730
4994,6731
4993,6732
4992,6733
4991,6734
4990,6735
4989,6736
4988,6736
4986,6737
4984,6738
4983,6738
4982,6738
4980,6739
4978,6739
4976,6740
4974,6740
4973,6740
4971,6740
4968,6739
4966,6739
4965,6739
4963,6738
4961,6738
4959,6737
4957,6736
4956,6736
4955,6735
4954,6734
4953,6733
4952,6732
4952,6731
4951,6730
4950,6728
4950,6727
4950,6726
4950,6725
4950,6723
4951,6722
4951,6720
4951,6719
4952,6719
4953,6717
4954,6716
4955,6715
4956,6714
4957,6713
4959,6712
4961,6711
4962,6711
4963,6711
4964,6710
4966,6710
4969,6710
4970,6710
4972,6710
4973,6710
4975,6710
4978,6710
4980,6710
4981,6710
4982,6710
4984,6711
4986,6712
4988,6713
4989,6714
4990,6715
4991,6716
4992,6717
4993,6718
4993,6719
4994,6720
4995,6722
4995,6723
4995,6724
4995,6725
" style="stroke:#ffffff;stroke-width:0;
stroke-linejoin:bevel; stroke-linecap:butt;
fill:#ffffff;
"/>
<!-- Line -->
<!--  spline  -->
<polyline points="5090,6725
5089,6727
5089,6728
5088,6730
5088,6731
5087,6731
5086,6733
5085,6734
5084,6735
5083,6736
5082,6737
5080,6738
5078,6739
5077,6739
5076,6739
5074,6740
5072,6740
5070,6741
5068,6741
5067,6741
5065,6741
5062,6740
5060,6740
5059,6740
5057,6740
5055,6739
5053,6738
5051,6737
5051,6736
5050,6735
5049,6734
5048,6733
5047,6732
5046,6731
5045,6730
5044,6728
5044,6727
5044,6726
5044,6725
5044,6724
5045,6722
5045,6721
5046,6720
5046,6719
5048,6718
5049,6716
5050,6715
5051,6714
5053,6713
5055,6712
5056,6712
5057,6712
5058,6712
5060,6711
5063,6711
5064,6710
5066,6710
5067,6710
5069,6710
5072,6711
5074,6711
5075,6711
5076,6712
5078,6712
5080,6713
5082,6714
5083,6714
5084,6715
5085,6716
5086,6717
5087,6718
5087,6719
5088,6721
5089,6723
5089,6724
5090,6724
5090,6725
" style="stroke:#ffffff;stroke-width:0;
stroke-linejoin:bevel; stroke-linecap:butt;
fill:#ffffff;
"/>
<!-- Line -->
<!--  spline  -->
<polyline points="5184,6725
5184,6727
5183,6728
5183,6730
5183,6731
5182,6731
5181,6733
5180,6734
5179,6735
5178,6736
5177,6737
5175,6738
5173,6739
5172,6739
5171,6739
5170,6739
5168,6740
5165,6740
5164,6741
5162,6741
5161,6741
5159,6741
5156,6740
5154,6740
5153,6740
5152,6740
5150,6739
5148,6738
5146,6737
5145,6736
5144,6735
5143,6734
5142,6733
5141,6732
5141,6731
5140,6730
5139,6728
5139,6727
5139,6726
5139,6725
5139,6724
5140,6722
5140,6721
5140,6720
5141,6719
5142,6718
5143,6716
5144,6715
5145,6714
5146,6714
5148,6713
5150,6712
5151,6712
5152,6712
5154,6711
5156,6711
5158,6710
5160,6710
5161,6710
5163,6710
5166,6711
5168,6711
5169,6711
5171,6712
5173,6712
5175,6713
5177,6714
5178,6714
5179,6715
5180,6716
5181,6717
5182,6718
5182,6719
5183,6721
5184,6723
5184,6724
5184,6725
" style="stroke:#ffffff;stroke-width:0;
stroke-linejoin:bevel; stroke-linecap:butt;
fill:#ffffff;
"/>
</g>
</svg>
