<?xml version="1.0" standalone="no"?>
<!DOCTYPE svg PUBLIC "-//W3C//DTD SVG 1.1//EN"
"http://www.w3.org/Graphics/SVG/1.1/DTD/svg11.dtd">
<!-- Creator: fig2dev Version 3.2 Patchlevel 5c -->
<!-- CreationDate: Fri Sep 14 10:46:47 2012 -->
<!-- Magnification: 1.000 -->
<svg xmlns="http://www.w3.org/2000/svg" width="0.4in" height="0.4in" viewBox="-9 12755 461 450">
<g style="stroke-width:.025in; fill:none">
<!-- Line -->
<!--  polyline  -->
<polyline points="393,12804
3,12804
50,12767
440,12767
393,12804
" style="stroke:#5adbff;stroke-width:0;
stroke-linejoin:miter; stroke-linecap:butt;
fill:#5adbff;
"/>
<!-- Line -->
<!--  polyline  -->
<polyline points="440,13156
392,13193
392,12804
440,12767
440,13156
" style="stroke:#003787;stroke-width:0;
stroke-linejoin:miter; stroke-linecap:butt;
fill:#003787;
"/>
<!-- Line -->
<!--  polyline  -->
<polyline points="440,13156
392,13193
392,12804
440,12767
440,13156
" style="stroke:#ffffff;stroke-width:7;
stroke-linejoin:miter; stroke-linecap:butt;
"/>
<!-- Line -->
<!--  polyline  -->
<polyline points="393,13193
3,13193
3,12804
393,12804
393,13193
" style="stroke:#3abaff;stroke-width:0;
stroke-linejoin:miter; stroke-linecap:butt;
fill:#3abaff;
"/>
<!-- Line -->
<!--  polyline  -->
<polyline points="393,13193
3,13193
3,12804
393,12804
393,13193
" style="stroke:#ffffff;stroke-width:7;
stroke-linejoin:miter; stroke-linecap:butt;
"/>
<!-- Line -->
<!--  spline  -->
<polyline points="199,12990
199,12991
199,12992
198,12992
197,12992
196,12992
194,12992
185,12992
169,12992
153,12992
144,12992
142,12992
141,12992
140,12992
140,12991
139,12991
139,12990
139,12988
139,12979
139,12962
139,12946
139,12937
139,12935
139,12934
140,12933
140,12932
141,12932
142,12932
144,12932
153,12932
169,12932
185,12932
194,12932
196,12932
197,12932
197,12933
198,12933
199,12933
199,12934
199,12935
199,12937
199,12946
199,12963
199,12979
199,12988
199,12990
" style="stroke:#060808;stroke-width:0;
stroke-linejoin:bevel; stroke-linecap:butt;
fill:#060808;
"/>
<!-- Line -->
<!--  spline  -->
<polyline points="270,12989
270,12990
270,12991
269,12991
268,12991
267,12991
260,12991
248,12991
236,12991
229,12991
228,12991
227,12991
226,12991
226,12990
226,12989
226,12988
226,12981
226,12969
226,12957
226,12950
226,12949
227,12948
228,12948
229,12948
236,12948
248,12948
260,12948
267,12948
268,12948
269,12948
270,12948
270,12949
270,12950
270,12957
270,12969
270,12981
270,12988
270,12989
" style="stroke:#060808;stroke-width:0;
stroke-linejoin:bevel; stroke-linecap:butt;
fill:#060808;
"/>
<!-- Line -->
<!--  spline  -->
<polyline points="185,13053
185,13054
184,13054
184,13055
183,13055
182,13055
175,13055
163,13055
151,13055
144,13055
143,13055
142,13054
141,13054
141,13053
141,13052
141,13045
141,13033
141,13021
141,13014
141,13013
141,13012
142,13012
143,13011
144,13011
151,13011
163,13011
175,13011
182,13011
183,13011
184,13011
184,13012
185,13012
185,13013
185,13014
185,13021
185,13033
185,13045
185,13052
185,13053
" style="stroke:#060808;stroke-width:0;
stroke-linejoin:bevel; stroke-linecap:butt;
fill:#060808;
"/>
<!-- Line -->
<!--  spline  -->
<polyline points="265,13063
264,13064
264,13065
263,13065
262,13065
262,13066
261,13066
252,13066
237,13066
223,13066
214,13066
213,13066
213,13065
212,13065
211,13065
211,13064
211,13063
211,13062
211,13053
211,13038
211,13024
211,13015
211,13014
211,13013
212,13013
213,13013
213,13012
214,13012
223,13012
238,13012
252,13012
261,13012
262,13012
263,13012
264,13013
264,13014
265,13014
265,13015
265,13024
265,13039
265,13053
265,13062
265,13063
" style="stroke:#060808;stroke-width:0;
stroke-linejoin:bevel; stroke-linecap:butt;
fill:#060808;
"/>
<!-- Line -->
<!--  polyline  -->
<polyline points="152,12873
76,12873
76,13044
111,13044
111,12909
152,12909
152,12873
" style="stroke:#060808;stroke-width:0;
stroke-linejoin:miter; stroke-linecap:butt;
fill:#060808;
"/>
<!-- Line -->
<!--  polyline  -->
<polyline points="203,12873
203,12909
297,12909
297,13011
333,13011
333,12873
203,12873
" style="stroke:#060808;stroke-width:0;
stroke-linejoin:miter; stroke-linecap:butt;
fill:#060808;
"/>
<!-- Line -->
<!--  polyline  -->
<polyline points="297,13062
297,13095
76,13095
76,13131
333,13131
333,13062
297,13062
" style="stroke:#060808;stroke-width:0;
stroke-linejoin:miter; stroke-linecap:butt;
fill:#060808;
"/>
<!-- Line -->
<!--  spline  -->
<polyline points="194,12984
194,12985
193,12985
193,12986
193,12987
192,12987
191,12987
189,12987
180,12987
163,12987
147,12987
138,12987
136,12987
135,12987
134,12987
134,12986
134,12985
134,12984
134,12982
134,12973
134,12957
134,12941
134,12932
134,12930
134,12929
134,12928
134,12927
135,12927
136,12927
138,12927
147,12927
164,12927
180,12927
189,12927
191,12927
192,12927
193,12927
193,12928
194,12929
194,12930
194,12932
194,12941
194,12957
194,12973
194,12982
194,12984
" style="stroke:#ffffff;stroke-width:0;
stroke-linejoin:bevel; stroke-linecap:butt;
fill:#ffffff;
"/>
<!-- Line -->
<!--  spline  -->
<polyline points="265,12984
265,12985
264,12985
264,12986
263,12986
262,12986
255,12986
243,12986
231,12986
224,12986
223,12986
222,12986
221,12985
221,12984
221,12983
221,12976
221,12964
221,12952
221,12945
221,12944
221,12943
222,12943
222,12942
223,12942
224,12942
231,12942
243,12942
255,12942
262,12942
263,12942
264,12943
265,12944
265,12945
265,12952
265,12964
265,12976
265,12983
265,12984
" style="stroke:#ffffff;stroke-width:0;
stroke-linejoin:bevel; stroke-linecap:butt;
fill:#ffffff;
"/>
<!-- Line -->
<!--  spline  -->
<polyline points="180,13048
179,13049
178,13049
178,13050
177,13050
170,13050
158,13050
146,13050
139,13050
138,13050
137,13049
136,13049
136,13048
136,13047
136,13040
136,13028
136,13016
136,13009
136,13008
136,13007
137,13006
138,13006
139,13006
146,13006
158,13006
170,13006
177,13006
178,13006
179,13006
179,13007
180,13007
180,13008
180,13009
180,13016
180,13028
180,13040
180,13047
180,13048
" style="stroke:#ffffff;stroke-width:0;
stroke-linejoin:bevel; stroke-linecap:butt;
fill:#ffffff;
"/>
<!-- Line -->
<!--  spline  -->
<polyline points="259,13058
259,13059
258,13060
257,13060
256,13060
247,13060
232,13060
218,13060
209,13060
208,13060
207,13060
206,13059
206,13058
206,13057
206,13048
206,13033
206,13019
206,13010
206,13009
206,13008
207,13007
208,13007
209,13007
218,13007
233,13007
247,13007
256,13007
257,13007
258,13007
259,13008
259,13009
259,13010
259,13019
259,13034
259,13048
259,13057
259,13058
" style="stroke:#ffffff;stroke-width:0;
stroke-linejoin:bevel; stroke-linecap:butt;
fill:#ffffff;
"/>
<!-- Line -->
<!--  spline  -->
<polyline points="239,13029
239,13030
238,13030
238,13031
238,13032
237,13032
236,13032
234,13032
224,13032
205,13032
187,13032
177,13032
175,13032
174,13032
173,13032
173,13031
173,13030
173,13029
173,13027
173,13017
173,12999
173,12981
173,12971
173,12969
173,12968
173,12967
173,12966
174,12966
175,12966
177,12966
187,12966
206,12966
224,12966
234,12966
236,12966
237,12966
238,12966
238,12967
239,12968
239,12969
239,12971
239,12981
239,12999
239,13017
239,13027
239,13029
" style="stroke:#060808;stroke-width:0;
stroke-linejoin:bevel; stroke-linecap:butt;
fill:#060808;
"/>
<!-- Line -->
<!--  spline  -->
<polyline points="233,13024
233,13025
233,13026
232,13026
231,13027
230,13027
228,13027
218,13027
200,13027
182,13027
172,13027
170,13027
169,13027
168,13026
167,13026
167,13025
167,13024
167,13022
167,13012
167,12993
167,12975
167,12965
167,12963
167,12962
168,12962
168,12961
169,12961
170,12961
170,12960
172,12960
182,12960
200,12960
218,12960
228,12960
230,12960
231,12961
232,12961
233,12961
233,12962
233,12963
233,12965
233,12975
233,12994
233,13012
233,13022
233,13024
" style="stroke:#ffffff;stroke-width:0;
stroke-linejoin:bevel; stroke-linecap:butt;
fill:#ffffff;
"/>
<!-- Line -->
<!--  spline  -->
<polyline points="233,13024
233,13025
233,13026
232,13026
231,13027
230,13027
228,13027
218,13027
200,13027
182,13027
172,13027
170,13027
169,13027
168,13026
167,13026
167,13025
167,13024
167,13022
167,13012
167,12993
167,12975
167,12965
167,12963
167,12962
168,12962
168,12961
169,12961
170,12961
170,12960
172,12960
182,12960
200,12960
218,12960
228,12960
230,12960
231,12961
232,12961
233,12961
233,12962
233,12963
233,12965
233,12975
233,12994
233,13012
233,13022
233,13024
" style="stroke:#060808;stroke-width:7;
stroke-linejoin:bevel; stroke-linecap:butt;
"/>
<!-- Line -->
<!--  polyline  -->
<polyline points="147,12868
70,12868
70,13039
106,13039
106,12904
147,12904
147,12868
" style="stroke:#ffffff;stroke-width:0;
stroke-linejoin:miter; stroke-linecap:butt;
fill:#ffffff;
"/>
<!-- Line -->
<!--  polyline  -->
<polyline points="198,12868
198,12904
292,12904
292,13006
328,13006
328,12868
198,12868
" style="stroke:#ffffff;stroke-width:0;
stroke-linejoin:miter; stroke-linecap:butt;
fill:#ffffff;
"/>
<!-- Line -->
<!--  polyline  -->
<polyline points="292,13057
292,13090
70,13090
70,13125
328,13125
328,13057
292,13057
" style="stroke:#ffffff;stroke-width:0;
stroke-linejoin:miter; stroke-linecap:butt;
fill:#ffffff;
"/>
</g>
</svg>
