<?xml version="1.0" standalone="no"?>
<!DOCTYPE svg PUBLIC "-//W3C//DTD SVG 1.1//EN"
"http://www.w3.org/Graphics/SVG/1.1/DTD/svg11.dtd">
<!-- Creator: fig2dev Version 3.2 Patchlevel 5c -->
<!-- CreationDate: Fri Sep 14 10:46:46 2012 -->
<!-- Magnification: 1.000 -->
<svg xmlns="http://www.w3.org/2000/svg" width="0.3in" height="0.4in" viewBox="-3 12667 336 536">
<g style="stroke-width:.025in; fill:none">
<!-- Line -->
<!--  polyline  -->
<polyline points="279,13191
279,12721
9,12721
9,13191
279,13191
" style="stroke:#026c9b;stroke-width:0;
stroke-linejoin:miter; stroke-linecap:butt;
fill:#026c9b;
"/>
<!-- Line -->
<!--  polyline  -->
<polyline points="279,13191
279,12721
9,12721
9,13191
279,13191
" style="stroke:#ffffff;stroke-width:7;
stroke-linejoin:miter; stroke-linecap:butt;
"/>
<!-- Line -->
<!--  polyline  -->
<polyline points="9,12721
61,12679
321,12679
279,12721
9,12721
" style="stroke:#026c9b;stroke-width:0;
stroke-linejoin:miter; stroke-linecap:butt;
fill:#026c9b;
"/>
<!-- Line -->
<!--  polyline  -->
<polyline points="9,12721
61,12679
321,12679
279,12721
9,12721
" style="stroke:#ffffff;stroke-width:7;
stroke-linejoin:miter; stroke-linecap:butt;
"/>
<!-- Line -->
<!--  polyline  -->
<polyline points="279,13191
321,13139
321,12679
279,12721
279,13191
" style="stroke:#026c9b;stroke-width:0;
stroke-linejoin:miter; stroke-linecap:butt;
fill:#026c9b;
"/>
<!-- Line -->
<!--  polyline  -->
<polyline points="279,13191
321,13139
321,12679
279,12721
279,13191
" style="stroke:#ffffff;stroke-width:7;
stroke-linejoin:miter; stroke-linecap:butt;
"/>
<!-- Line -->
<!--  polyline  -->
<polyline points="9,12905
277,12905
" style="stroke:#026c9b;stroke-width:0;
stroke-linejoin:miter; stroke-linecap:butt;
fill:#026c9b;
"/>
<!-- Line -->
<!--  polyline  -->
<polyline points="9,12905
277,12905
" style="stroke:#ffffff;stroke-width:7;
stroke-linejoin:miter; stroke-linecap:butt;
"/>
<!-- Line -->
<!--  polyline  -->
<polyline points="9,13159
277,13159
" style="stroke:#ffffff;stroke-width:7;
stroke-linejoin:miter; stroke-linecap:butt;
"/>
<!-- Line -->
<!--  polyline  -->
<polyline points="124,13055
124,13093
109,13093
139,13132
170,13093
155,13093
155,13055
124,13055
" style="stroke:#ffffff;stroke-width:0;
stroke-linejoin:miter; stroke-linecap:butt;
fill:#ffffff;
"/>
<!-- Line -->
<!--  polyline  -->
<polyline points="124,13024
124,12986
109,12986
139,12947
170,12986
155,12986
155,13024
124,13024
" style="stroke:#ffffff;stroke-width:0;
stroke-linejoin:miter; stroke-linecap:butt;
fill:#ffffff;
"/>
<!-- Line -->
<!--  polyline  -->
<polyline points="45,13026
84,13026
84,13011
122,13041
84,13072
84,13057
45,13057
45,13026
" style="stroke:#ffffff;stroke-width:0;
stroke-linejoin:miter; stroke-linecap:butt;
fill:#ffffff;
"/>
<!-- Line -->
<!--  polyline  -->
<polyline points="232,13026
194,13026
194,13011
155,13041
194,13072
194,13057
232,13057
232,13026
" style="stroke:#ffffff;stroke-width:0;
stroke-linejoin:miter; stroke-linecap:butt;
fill:#ffffff;
"/>
<!-- Line -->
<!--  polyline  -->
<polyline points="156,12805
156,12754
31,12754
31,12805
156,12805
" style="stroke:#026c9b;stroke-width:0;
stroke-linejoin:miter; stroke-linecap:butt;
fill:#026c9b;
"/>
<!-- Line -->
<!--  polyline  -->
<polyline points="156,12805
156,12754
31,12754
31,12805
156,12805
" style="stroke:#ffffff;stroke-width:7;
stroke-linejoin:miter; stroke-linecap:butt;
"/>
<!-- Line -->
<!--  polyline  -->
<polyline points="43,12782
145,12782
" style="stroke:#ffffff;stroke-width:7;
stroke-linejoin:miter; stroke-linecap:butt;
"/>
</g>
</svg>
