<?xml version="1.0" standalone="no"?>
<!DOCTYPE svg PUBLIC "-//W3C//DTD SVG 1.1//EN"
"http://www.w3.org/Graphics/SVG/1.1/DTD/svg11.dtd">
<!-- Creator: fig2dev Version 3.2 Patchlevel 5c -->
<!-- CreationDate: Fri Sep 14 10:46:46 2012 -->
<!-- Magnification: 1.000 -->
<svg xmlns="http://www.w3.org/2000/svg" width="0.5in" height="0.3in" viewBox="4812 6413 600 405">
<g style="stroke-width:.025in; fill:none">
<!-- Line -->
<!--  polyline  -->
<polyline points="5334,6806
5334,6490
4824,6490
4824,6806
5334,6806
" style="stroke:#00a5d4;stroke-width:0;
stroke-linejoin:miter; stroke-linecap:butt;
fill:#00a5d4;
"/>
<!-- Line -->
<!--  polyline  -->
<polyline points="5334,6806
5334,6490
4824,6490
4824,6806
5334,6806
" style="stroke:#ffffff;stroke-width:7;
stroke-linejoin:miter; stroke-linecap:butt;
"/>
<!-- Line -->
<!--  polyline  -->
<polyline points="5333,6490
4824,6490
4904,6426
5399,6426
5399,6426
5399,6740
5334,6806
5334,6492
5333,6490
" style="stroke:#00a5d4;stroke-width:0;
stroke-linejoin:miter; stroke-linecap:butt;
fill:#00a5d4;
"/>
<!-- Line -->
<!--  polyline  -->
<polyline points="5333,6490
4824,6490
4904,6426
5399,6426
5399,6426
5399,6740
5334,6806
5334,6492
5333,6490
" style="stroke:#ffffff;stroke-width:7;
stroke-linejoin:miter; stroke-linecap:butt;
"/>
<!-- Line -->
<!--  polyline  -->
<polyline points="5334,6489
5400,6425
" style="stroke:#000000;stroke-width:0;
stroke-linejoin:miter; stroke-linecap:butt;
fill:#000000;
"/>
<!-- Line -->
<!--  polyline  -->
<polyline points="5334,6489
5400,6425
" style="stroke:#ffffff;stroke-width:7;
stroke-linejoin:miter; stroke-linecap:butt;
"/>
<!-- Line -->
<!--  polyline  -->
<polyline points="4954,6628
4954,6667
" style="stroke:#ffffff;stroke-width:0;
stroke-linejoin:miter; stroke-linecap:butt;
fill:#ffffff;
"/>
<!-- Line -->
<!--  polyline  -->
<polyline points="4899,6777
4959,6777
5024,6710
5087,6710
5153,6776
5267,6776
5267,6730
5180,6730
5113,6663
5027,6663
4961,6596
4898,6596
4898,6588
4873,6613
4897,6638
4897,6629
4949,6629
4949,6672
4899,6672
4899,6663
4874,6689
4898,6714
4898,6704
4949,6704
4949,6745
4899,6745
4899,6736
4874,6762
4898,6787
4898,6777
" style="stroke:#ffffff;stroke-width:0;
stroke-linejoin:miter; stroke-linecap:butt;
fill:#ffffff;
"/>
<!-- Line -->
<!--  polyline  -->
<polyline points="5256,6515
5196,6515
5131,6582
5068,6582
5002,6516
4889,6516
4889,6563
4975,6563
5042,6630
5128,6630
5194,6696
5257,6696
5257,6704
5282,6679
5258,6654
5258,6663
5206,6663
5207,6620
5256,6620
5256,6629
5281,6603
5257,6579
5257,6588
5207,6588
5207,6547
5256,6547
5256,6556
5281,6530
5257,6506
5257,6515
" style="stroke:#ffffff;stroke-width:0;
stroke-linejoin:miter; stroke-linecap:butt;
fill:#ffffff;
"/>
</g>
</svg>
