<?xml version="1.0" standalone="no"?>
<!DOCTYPE svg PUBLIC "-//W3C//DTD SVG 1.1//EN"
"http://www.w3.org/Graphics/SVG/1.1/DTD/svg11.dtd">
<!-- Creator: fig2dev Version 3.2 Patchlevel 5c -->
<!-- CreationDate: Fri Sep 14 10:46:47 2012 -->
<!-- Magnification: 1.000 -->
<svg xmlns="http://www.w3.org/2000/svg" width="0.8in" height="0.3in" viewBox="-3 12852 920 352">
<g style="stroke-width:.025in; fill:none">
<!-- Line -->
<!--  polyline  -->
<polyline points="706,13186
706,13057
11,13057
11,13186
706,13186
" style="stroke:#00afda;stroke-width:0;
stroke-linejoin:miter; stroke-linecap:butt;
fill:#00afda;
"/>
<!-- Line -->
<!--  polyline  -->
<polyline points="689,13180
689,13075
25,13075
25,13180
689,13180
" style="stroke:#00afda;stroke-width:0;
stroke-linejoin:miter; stroke-linecap:butt;
fill:#00afda;
"/>
<!-- Line -->
<!--  polyline  -->
<polyline points="689,13180
689,13075
25,13075
25,13180
689,13180
" style="stroke:#ffffff;stroke-width:7;
stroke-linejoin:miter; stroke-linecap:butt;
"/>
<!-- Line -->
<!--  polyline  -->
<polyline points="9,13058
250,12864
905,12864
706,13058
9,13058
" style="stroke:#00afda;stroke-width:0;
stroke-linejoin:miter; stroke-linecap:butt;
fill:#00afda;
"/>
<!-- Line -->
<!--  polyline  -->
<polyline points="9,13058
250,12864
905,12864
706,13058
9,13058
" style="stroke:#ffffff;stroke-width:7;
stroke-linejoin:miter; stroke-linecap:butt;
"/>
<!-- Line -->
<!--  polyline  -->
<polyline points="706,13192
905,12994
905,12864
706,13058
706,13192
" style="stroke:#00afda;stroke-width:0;
stroke-linejoin:miter; stroke-linecap:butt;
fill:#00afda;
"/>
<!-- Line -->
<!--  polyline  -->
<polyline points="706,13192
905,12994
905,12864
706,13058
706,13192
" style="stroke:#ffffff;stroke-width:7;
stroke-linejoin:miter; stroke-linecap:butt;
"/>
<!-- Line -->
<!--  polyline  -->
<polyline points="94,13143
53,13143
53,13111
94,13111
94,13143
" style="stroke:#ffffff;stroke-width:0;
stroke-linejoin:miter; stroke-linecap:butt;
fill:#ffffff;
"/>
<!-- Line -->
<!--  polyline  -->
<polyline points="361,13143
320,13143
320,13111
361,13111
361,13143
" style="stroke:#ffffff;stroke-width:0;
stroke-linejoin:miter; stroke-linecap:butt;
fill:#ffffff;
"/>
<!-- Line -->
<!--  polyline  -->
<polyline points="672,13143
631,13143
631,13111
672,13111
672,13143
" style="stroke:#ffffff;stroke-width:0;
stroke-linejoin:miter; stroke-linecap:butt;
fill:#ffffff;
"/>
<!-- Line -->
<!--  spline  -->
<polyline points="532,13074
533,13074
536,13076
542,13079
545,13081
546,13081
548,13082
550,13084
553,13087
557,13090
560,13093
562,13095
563,13096
566,13100
568,13104
569,13105
569,13106
570,13108
571,13112
572,13116
573,13120
573,13122
573,13124
573,13125
572,13130
570,13137
569,13142
569,13143
567,13146
565,13150
562,13154
556,13160
550,13165
548,13167
546,13168
543,13169
536,13173
528,13176
525,13178
523,13178
520,13179
511,13181
501,13183
494,13184
487,13184
484,13184
483,13184
482,13184
474,13183
463,13182
455,13181
454,13181
453,13181
450,13180
445,13179
438,13177
430,13173
423,13169
420,13168
419,13167
416,13165
410,13160
405,13155
403,13152
402,13151
400,13149
397,13143
394,13136
393,13131
393,13127
393,13125
393,13124
393,13123
394,13118
396,13111
397,13106
397,13105
399,13102
401,13099
404,13094
410,13089
416,13084
419,13082
420,13082
423,13080
430,13076
438,13072
441,13071
442,13070
445,13069
454,13067
464,13065
472,13064
478,13064
482,13064
483,13064
484,13064
486,13064
491,13064
493,13064
494,13064
496,13064
498,13065
500,13065
504,13066
507,13067
509,13067
511,13067
514,13068
517,13069
518,13069
519,13069
520,13069
523,13070
526,13071
529,13072
531,13073
532,13074
" style="stroke:#00afda;stroke-width:0;
stroke-linejoin:bevel; stroke-linecap:butt;
fill:#00afda;
"/>
<!-- Line -->
<!--  spline  -->
<polyline points="532,13074
533,13074
536,13076
542,13079
545,13081
546,13081
548,13082
550,13084
553,13087
557,13090
560,13093
562,13095
563,13096
566,13100
568,13104
569,13105
569,13106
570,13108
571,13112
572,13116
573,13120
573,13122
573,13124
573,13125
572,13130
570,13137
569,13142
569,13143
567,13146
565,13150
562,13154
556,13160
550,13165
548,13167
546,13168
543,13169
536,13173
528,13176
525,13178
523,13178
520,13179
511,13181
501,13183
494,13184
487,13184
484,13184
483,13184
482,13184
474,13183
463,13182
455,13181
454,13181
453,13181
450,13180
445,13179
438,13177
430,13173
423,13169
420,13168
419,13167
416,13165
410,13160
405,13155
403,13152
402,13151
400,13149
397,13143
394,13136
393,13131
393,13127
393,13125
393,13124
393,13123
394,13118
396,13111
397,13106
397,13105
399,13102
401,13099
404,13094
410,13089
416,13084
419,13082
420,13082
423,13080
430,13076
438,13072
441,13071
442,13070
445,13069
454,13067
464,13065
472,13064
478,13064
482,13064
483,13064
484,13064
486,13064
491,13064
493,13064
494,13064
496,13064
498,13065
500,13065
504,13066
507,13067
509,13067
511,13067
514,13068
517,13069
518,13069
519,13069
520,13069
523,13070
526,13071
529,13072
531,13073
532,13074
" style="stroke:#ffffff;stroke-width:7;
stroke-linejoin:bevel; stroke-linecap:butt;
"/>
<!-- Line -->
<!--  spline  -->
<polyline points="551,13124
551,13125
550,13128
549,13134
548,13137
548,13138
547,13140
545,13143
542,13146
538,13150
534,13154
532,13155
531,13156
529,13157
524,13160
518,13163
516,13164
514,13164
512,13165
505,13167
498,13168
492,13169
487,13169
485,13169
484,13169
483,13169
477,13168
469,13168
463,13167
462,13167
459,13166
455,13165
450,13163
444,13160
439,13157
436,13156
435,13155
433,13154
429,13150
425,13146
423,13145
423,13144
421,13142
419,13138
417,13133
416,13129
416,13126
416,13124
416,13123
417,13120
418,13114
419,13111
419,13110
420,13108
422,13105
425,13101
429,13097
433,13093
435,13092
436,13091
439,13090
444,13087
450,13084
452,13084
453,13083
455,13082
462,13081
470,13080
476,13079
480,13079
483,13079
484,13079
485,13079
490,13080
499,13080
504,13081
505,13081
506,13081
508,13082
512,13083
518,13084
524,13087
529,13090
531,13091
532,13092
534,13093
538,13097
542,13101
544,13103
544,13104
546,13105
548,13110
550,13115
551,13119
551,13122
551,13124
" style="stroke:#ffffff;stroke-width:0;
stroke-linejoin:bevel; stroke-linecap:butt;
fill:#ffffff;
"/>
<!-- Line -->
<!--  spline  -->
<polyline points="551,13124
551,13125
550,13128
549,13134
548,13137
548,13138
547,13140
545,13143
542,13146
538,13150
534,13154
532,13155
531,13156
529,13157
524,13160
518,13163
516,13164
514,13164
512,13165
505,13167
498,13168
492,13169
487,13169
485,13169
484,13169
483,13169
477,13168
469,13168
463,13167
462,13167
459,13166
455,13165
450,13163
444,13160
439,13157
436,13156
435,13155
433,13154
429,13150
425,13146
423,13145
423,13144
421,13142
419,13138
417,13133
416,13129
416,13126
416,13124
416,13123
417,13120
418,13114
419,13111
419,13110
420,13108
422,13105
425,13101
429,13097
433,13093
435,13092
436,13091
439,13090
444,13087
450,13084
452,13084
453,13083
455,13082
462,13081
470,13080
476,13079
480,13079
483,13079
484,13079
485,13079
490,13080
499,13080
504,13081
505,13081
506,13081
508,13082
512,13083
518,13084
524,13087
529,13090
531,13091
532,13092
534,13093
538,13097
542,13101
544,13103
544,13104
546,13105
548,13110
550,13115
551,13119
551,13122
551,13124
" style="stroke:#ffffff;stroke-width:7;
stroke-linejoin:bevel; stroke-linecap:butt;
"/>
</g>
</svg>
