<?xml version="1.0" standalone="no"?>
<!DOCTYPE svg PUBLIC "-//W3C//DTD SVG 1.1//EN"
"http://www.w3.org/Graphics/SVG/1.1/DTD/svg11.dtd">
<!-- Creator: fig2dev Version 3.2 Patchlevel 5c -->
<!-- CreationDate: Fri Sep 14 10:46:48 2012 -->
<!-- Magnification: 1.000 -->
<svg xmlns="http://www.w3.org/2000/svg" width="0.4in" height="0.6in" viewBox="-1 12513 445 691">
<g style="stroke-width:.025in; fill:none">
<!-- Line -->
<!--  polyline  -->
<polyline points="118,12594
6,12591
0,12596
32,12694
151,12688
156,12681
118,12594
" style="stroke:#036998;stroke-width:0;
stroke-linejoin:miter; stroke-linecap:butt;
fill:#036998;
"/>
<!-- Line -->
<!--  polyline  -->
<polyline points="265,12514
307,12548
302,12562
306,12581
312,12599
354,12617
364,12595
353,12587
355,12567
330,12518
265,12514
" style="stroke:#036998;stroke-width:0;
stroke-linejoin:miter; stroke-linecap:butt;
fill:#036998;
"/>
<!-- Line -->
<!--  polyline  -->
<polyline points="268,12532
255,12552
251,12573
239,12543
268,12532
" style="stroke:#036998;stroke-width:0;
stroke-linejoin:miter; stroke-linecap:butt;
fill:#036998;
"/>
<!-- Line -->
<!--  polyline  -->
<polyline points="257,12542
262,12549
269,12550
266,12545
269,12538
273,12545
276,12552
284,12555
284,12549
288,12542
291,12549
299,12554
300,12548
309,12547
275,12518
256,12519
250,12525
257,12542
" style="stroke:#036998;stroke-width:0;
stroke-linejoin:miter; stroke-linecap:butt;
fill:#036998;
"/>
<!-- Line -->
<!--  polyline  -->
<polyline points="262,12610
284,12610
" style="stroke:#036998;stroke-width:0;
stroke-linejoin:miter; stroke-linecap:butt;
fill:#036998;
"/>
<!-- Line -->
<!--  polyline  -->
<polyline points="252,12569
253,12578
253,12602
241,12601
235,12595
240,12585
242,12576
249,12562
252,12569
" style="stroke:#036998;stroke-width:0;
stroke-linejoin:miter; stroke-linecap:butt;
fill:#036998;
"/>
<!-- Line -->
<!--  polyline  -->
<polyline points="159,12691
37,12700
32,12707
34,12721
90,12745
211,12731
213,12715
159,12691
" style="stroke:#036998;stroke-width:0;
stroke-linejoin:miter; stroke-linecap:butt;
fill:#036998;
"/>
<!-- Line -->
<!--  polyline  -->
<polyline points="142,12671
46,12676
20,12603
113,12603
142,12671
" style="stroke:#036998;stroke-width:0;
stroke-linejoin:miter; stroke-linecap:butt;
fill:#036998;
"/>
<!-- Line -->
<!--  polyline  -->
<polyline points="140,12741
129,12722
114,12710
113,12716
91,12707
94,12714
80,12708
85,12717
77,12716
85,12729
95,12738
123,12752
140,12741
" style="stroke:#036998;stroke-width:0;
stroke-linejoin:miter; stroke-linecap:butt;
fill:#036998;
"/>
<!-- Line -->
<!--  polyline  -->
<polyline points="167,12861
119,12870
108,12888
109,12918
136,13034
135,13080
118,13107
157,13107
176,13092
184,13090
185,13067
172,13044
168,13024
170,12969
166,12937
167,12861
" style="stroke:#036998;stroke-width:0;
stroke-linejoin:miter; stroke-linecap:butt;
fill:#036998;
"/>
<!-- Line -->
<!--  polyline  -->
<polyline points="182,13058
173,13059
161,13071
142,13093
126,13096
132,13087
117,13103
92,13114
94,13119
120,13124
142,13125
156,13119
166,13100
174,13128
177,13128
189,13093
189,13071
182,13058
" style="stroke:#036998;stroke-width:0;
stroke-linejoin:miter; stroke-linecap:butt;
fill:#036998;
"/>
<!-- Line -->
<!--  polyline  -->
<polyline points="229,12859
171,12868
163,12886
158,12901
201,13018
201,13063
183,13091
222,13090
241,13076
250,13073
251,13050
237,13027
233,13008
236,12953
231,12920
229,12859
" style="stroke:#036998;stroke-width:0;
stroke-linejoin:miter; stroke-linecap:butt;
fill:#036998;
"/>
<!-- Line -->
<!--  polyline  -->
<polyline points="247,13042
239,13042
226,13055
208,13077
192,13080
198,13071
182,13086
158,13097
160,13102
186,13108
208,13108
222,13102
232,13083
239,13111
242,13111
254,13076
254,13055
247,13042
" style="stroke:#036998;stroke-width:0;
stroke-linejoin:miter; stroke-linecap:butt;
fill:#036998;
"/>
<!-- Line -->
<!--  polyline  -->
<polyline points="321,12627
277,12641
234,12644
199,12656
190,12670
201,12726
187,12747
176,12747
171,12755
150,12740
133,12740
116,12754
123,12778
171,12811
208,12816
225,12802
206,12853
166,12863
150,12900
166,12943
249,12959
298,12964
340,12959
362,12941
369,12920
371,12903
382,12891
368,12851
364,12809
376,12811
395,12802
415,12674
402,12653
362,12635
321,12627
" style="stroke:#036998;stroke-width:0;
stroke-linejoin:miter; stroke-linecap:butt;
fill:#036998;
"/>
<!-- Line -->
<!--  polyline  -->
<polyline points="255,12540
274,12533
313,12546
322,12604
317,12630
272,12641
251,12618
247,12583
255,12540
" style="stroke:#036998;stroke-width:0;
stroke-linejoin:miter; stroke-linecap:butt;
fill:#036998;
"/>
<!-- Line -->
<!--  polyline  -->
<polyline points="371,12906
355,12898
339,12914
292,12921
244,12903
206,12853
166,12863
150,12900
166,12943
281,12963
340,12959
362,12941
371,12906
" style="stroke:#036998;stroke-width:0;
stroke-linejoin:miter; stroke-linecap:butt;
fill:#036998;
"/>
<!-- Line -->
<!--  polyline  -->
<polyline points="253,12601
264,12623
271,12629
278,12633
281,12650
264,12659
257,12661
233,12664
221,12660
215,12648
222,12650
228,12646
219,12642
214,12636
214,12628
221,12633
231,12630
227,12627
225,12621
236,12620
238,12613
236,12607
244,12594
253,12601
" style="stroke:#036998;stroke-width:0;
stroke-linejoin:miter; stroke-linecap:butt;
fill:#036998;
"/>
<!-- Line -->
<!--  polyline  -->
<polyline points="315,12602
316,12610
313,12614
307,12614
310,12618
316,12619
315,12625
310,12629
302,12628
306,12634
314,12637
321,12633
320,12641
316,12649
309,12651
315,12656
326,12654
323,12662
323,12671
329,12668
336,12661
340,12666
349,12671
362,12675
376,12678
388,12671
390,12665
382,12665
375,12663
381,12660
385,12655
389,12645
384,12639
382,12645
376,12649
376,12641
377,12634
371,12636
363,12634
366,12626
369,12620
368,12612
365,12615
360,12617
352,12615
355,12610
356,12602
351,12599
349,12603
344,12601
344,12592
327,12592
315,12602
" style="stroke:#036998;stroke-width:0;
stroke-linejoin:miter; stroke-linecap:butt;
fill:#036998;
"/>
<!-- Line -->
<!--  spline  -->
<polyline points="318,12662
317,12663
314,12666
310,12672
307,12675
306,12676
305,12675
301,12671
295,12665
291,12661
290,12660
290,12661
290,12662
290,12663
289,12664
289,12665
288,12667
287,12669
287,12670
286,12671
285,12672
284,12673
283,12674
282,12674
281,12675
280,12675
279,12675
278,12674
278,12673
277,12670
277,12665
276,12662
276,12661
273,12663
270,12666
267,12668
266,12668
265,12669
264,12669
263,12669
262,12669
261,12670
259,12670
257,12670
256,12670
255,12670
253,12670
252,12670
251,12670
250,12670
250,12669
250,12668
251,12667
251,12666
252,12665
253,12664
253,12663
254,12662
254,12661
255,12661
255,12660
255,12659
255,12658
255,12657
255,12656
256,12655
261,12650
271,12639
280,12629
285,12624
286,12623
287,12623
294,12623
308,12624
321,12625
328,12625
329,12625
329,12626
327,12632
323,12644
320,12655
318,12661
318,12662
" style="stroke:#036998;stroke-width:0;
stroke-linejoin:bevel; stroke-linecap:butt;
fill:#036998;
"/>
<!-- Line -->
<!--  spline  -->
<polyline points="287,12975
287,12976
287,12982
286,12995
286,13013
286,13030
285,13043
285,13049
285,13050
284,13050
280,13051
270,13053
254,13057
234,13061
214,13065
198,13069
188,13071
184,13072
183,13072
181,13072
177,13073
175,13073
174,13074
173,13074
171,13075
169,13077
167,13079
167,13080
166,13080
165,13082
164,13084
164,13085
163,13086
163,13087
163,13088
163,13089
163,13090
163,13093
162,13099
162,13102
162,13103
164,13103
168,13103
170,13103
170,13104
170,13107
169,13112
169,13115
169,13116
171,13118
172,13119
174,13121
175,13121
176,13122
178,13122
180,13122
182,13122
183,13122
185,13121
186,13120
187,13120
187,13119
188,13119
189,13118
190,13118
190,13117
190,13116
190,13112
191,13106
191,13102
191,13101
192,13101
199,13098
213,13093
232,13087
251,13080
265,13075
272,13072
273,13072
272,13073
266,13077
254,13086
237,13099
219,13112
207,13121
201,13125
200,13126
200,13127
198,13130
197,13134
195,13137
195,13138
195,13140
194,13143
193,13146
193,13150
193,13153
193,13155
194,13156
194,13159
195,13161
195,13162
195,13163
196,13165
196,13166
197,13167
197,13168
197,13169
196,13171
195,13175
194,13177
194,13178
194,13179
194,13182
194,13184
195,13187
196,13190
196,13191
197,13192
198,13194
199,13196
200,13196
201,13197
202,13198
203,13199
204,13200
205,13200
207,13201
212,13202
214,13203
215,13203
216,13203
218,13202
220,13202
222,13200
224,13198
224,13197
225,13196
225,13195
226,13193
227,13191
227,13190
227,13189
227,13187
227,13186
227,13185
228,13185
228,13184
228,13182
228,13178
228,13176
228,13175
227,13173
226,13172
225,13170
224,13169
223,13169
222,13169
220,13168
219,13168
218,13167
217,13167
216,13167
215,13167
215,13166
214,13166
214,13165
213,13163
211,13159
210,13157
210,13156
211,13155
214,13152
223,13145
237,13133
255,13118
272,13104
286,13092
295,13085
298,13082
299,13081
300,13081
304,13085
314,13091
331,13102
351,13116
370,13130
387,13141
397,13147
401,13151
402,13151
402,13152
404,13155
405,13159
407,13162
407,13163
407,13164
406,13167
404,13172
403,13175
403,13176
403,13178
403,13180
403,13182
404,13185
405,13187
406,13188
406,13189
407,13189
408,13191
409,13192
410,13193
411,13193
412,13194
413,13194
413,13195
414,13195
415,13195
418,13195
423,13196
426,13196
427,13196
428,13195
430,13194
431,13193
433,13191
434,13189
434,13188
434,13187
434,13185
434,13183
434,13182
433,13181
433,13179
433,13178
433,13177
432,13177
432,13176
432,13174
432,13171
432,13169
432,13168
431,13167
430,13166
429,13165
428,13164
427,13164
426,13163
425,13163
425,13162
424,13162
423,13162
423,13161
421,13159
417,13155
415,13153
415,13152
414,13153
413,13153
412,13153
412,13152
413,13151
414,13150
415,13149
416,13148
417,13146
419,13145
420,13143
420,13142
420,13140
421,13138
421,13136
421,13134
421,13133
421,13132
421,13130
421,13128
421,13127
420,13126
420,13125
420,13124
419,13124
419,13123
418,13123
414,13120
405,13115
390,13106
371,13095
352,13085
337,13076
328,13071
324,13068
323,13068
324,13068
329,13070
341,13073
358,13077
375,13081
387,13084
392,13086
393,13086
394,13087
397,13089
402,13093
405,13095
406,13096
406,13097
407,13099
407,13103
408,13105
408,13106
408,13107
409,13108
410,13110
411,13111
412,13112
413,13112
414,13112
414,13113
416,13113
417,13113
418,13113
419,13113
420,13113
421,13113
422,13112
424,13112
427,13111
429,13111
430,13110
430,13109
431,13108
432,13106
432,13104
432,13103
432,13101
432,13100
431,13099
431,13098
430,13097
430,13096
429,13096
429,13095
428,13094
427,13093
426,13092
425,13091
424,13091
423,13090
422,13089
421,13088
420,13088
419,13088
418,13087
418,13086
417,13086
416,13086
416,13085
414,13082
411,13076
409,13073
409,13072
408,13072
401,13070
389,13066
377,13062
370,13060
369,13060
367,13060
357,13058
339,13054
321,13051
311,13049
309,13049
309,13048
309,13043
309,13032
310,13016
310,13000
310,12989
310,12984
310,12983
" style="stroke:#036998;stroke-width:0;
stroke-linejoin:bevel; stroke-linecap:butt;
fill:#036998;
"/>
<!-- Line -->
<!--  spline  -->
<polyline points="263,12995
262,12995
256,12993
243,12988
222,12981
196,12972
170,12963
149,12956
136,12951
130,12949
129,12949
128,12947
126,12945
125,12943
125,12942
125,12940
126,12938
126,12936
127,12934
127,12933
127,12932
128,12930
129,12928
129,12927
129,12926
130,12925
130,12924
131,12924
131,12923
132,12923
138,12925
151,12929
171,12936
197,12944
223,12952
243,12959
256,12963
262,12965
263,12965
" style="stroke:#036998;stroke-width:0;
stroke-linejoin:bevel; stroke-linecap:butt;
fill:#036998;
"/>
<!-- Line -->
<!--  spline  -->
<polyline points="359,12962
358,12962
350,12965
335,12971
313,12980
290,12988
275,12994
267,12997
266,12997
266,12996
266,12990
266,12976
267,12957
267,12938
267,12924
267,12918
267,12917
267,12916
270,12909
276,12894
285,12874
293,12853
299,12838
302,12831
302,12830
302,12829
305,12824
309,12815
313,12804
319,12791
325,12778
331,12766
333,12762
334,12761
335,12758
339,12751
342,12746
343,12744
344,12743
345,12741
345,12740
346,12740
346,12739
347,12739
347,12740
348,12740
351,12738
355,12736
358,12734
359,12734
360,12733
362,12732
364,12730
367,12729
369,12728
370,12728
371,12728
372,12727
373,12727
374,12726
375,12726
376,12726
377,12726
381,12726
388,12726
392,12726
393,12726
395,12726
398,12725
402,12724
406,12723
409,12722
410,12722
411,12721
412,12721
414,12720
416,12719
417,12718
418,12718
419,12717
420,12717
420,12716
421,12716
423,12715
425,12714
427,12713
428,12713
429,12713
431,12714
433,12714
435,12715
436,12715
437,12715
438,12716
439,12717
440,12717
440,12718
441,12719
442,12719
442,12720
443,12720
442,12723
439,12730
435,12742
429,12760
421,12784
411,12811
401,12841
391,12871
381,12898
373,12922
367,12940
363,12952
360,12959
359,12962
" style="stroke:#036998;stroke-width:0;
stroke-linejoin:bevel; stroke-linecap:butt;
fill:#036998;
"/>
</g>
</svg>
