<?xml version="1.0" standalone="no"?>
<!DOCTYPE svg PUBLIC "-//W3C//DTD SVG 1.1//EN"
"http://www.w3.org/Graphics/SVG/1.1/DTD/svg11.dtd">
<!-- Creator: fig2dev Version 3.2 Patchlevel 5c -->
<!-- CreationDate: Fri Sep 14 10:46:48 2012 -->
<!-- Magnification: 1.000 -->
<svg xmlns="http://www.w3.org/2000/svg" width="0.4in" height="0.4in" viewBox="-4 12743 502 461">
<g style="stroke-width:.025in; fill:none">
<!-- Line -->
<!--  polyline  -->
<polyline points="78,13144
78,13079
427,13079
427,13144
78,13144
" style="stroke:#036998;stroke-width:0;
stroke-linejoin:miter; stroke-linecap:butt;
fill:#036998;
"/>
<!-- Line -->
<!--  polyline  -->
<polyline points="78,13144
78,13079
427,13079
427,13144
78,13144
" style="stroke:#ffffff;stroke-width:7;
stroke-linejoin:miter; stroke-linecap:butt;
"/>
<!-- Line -->
<!--  polyline  -->
<polyline points="486,13019
486,13085
427,13145
427,13079
78,13079
" style="stroke:#036998;stroke-width:0;
stroke-linejoin:miter; stroke-linecap:butt;
fill:#036998;
"/>
<!-- Line -->
<!--  polyline  -->
<polyline points="486,13019
486,13085
427,13145
427,13079
78,13079
" style="stroke:#ffffff;stroke-width:7;
stroke-linejoin:miter; stroke-linecap:butt;
"/>
<!-- Line -->
<!--  polyline  -->
<polyline points="80,13019
486,13019
" style="stroke:#036998;stroke-width:0;
stroke-linejoin:miter; stroke-linecap:butt;
fill:#036998;
"/>
<!-- Line -->
<!--  polyline  -->
<polyline points="80,13019
486,13019
" style="stroke:#ffffff;stroke-width:7;
stroke-linejoin:miter; stroke-linecap:butt;
"/>
<!-- Line -->
<!--  polyline  -->
<polyline points="427,13079
486,13019
" style="stroke:#036998;stroke-width:0;
stroke-linejoin:miter; stroke-linecap:butt;
fill:#036998;
"/>
<!-- Line -->
<!--  polyline  -->
<polyline points="427,13079
486,13019
" style="stroke:#ffffff;stroke-width:7;
stroke-linejoin:miter; stroke-linecap:butt;
"/>
<!-- Line -->
<!--  polyline  -->
<polyline points="427,13078
427,12814
78,12814
78,13078
427,13078
" style="stroke:#036998;stroke-width:0;
stroke-linejoin:miter; stroke-linecap:butt;
fill:#036998;
"/>
<!-- Line -->
<!--  polyline  -->
<polyline points="427,13078
427,12814
78,12814
78,13078
427,13078
" style="stroke:#ffffff;stroke-width:7;
stroke-linejoin:miter; stroke-linecap:butt;
"/>
<!-- Line -->
<!--  polyline  -->
<polyline points="427,13078
486,13018
486,12755
137,12755
78,12814
427,12814
427,13078
" style="stroke:#036998;stroke-width:0;
stroke-linejoin:miter; stroke-linecap:butt;
fill:#036998;
"/>
<!-- Line -->
<!--  polyline  -->
<polyline points="427,13078
486,13018
486,12755
137,12755
78,12814
427,12814
427,13078
" style="stroke:#ffffff;stroke-width:7;
stroke-linejoin:miter; stroke-linecap:butt;
"/>
<!-- Line -->
<!--  polyline  -->
<polyline points="396,13047
396,12845
108,12845
108,13047
396,13047
" style="stroke:#036998;stroke-width:0;
stroke-linejoin:miter; stroke-linecap:butt;
fill:#036998;
"/>
<!-- Line -->
<!--  polyline  -->
<polyline points="396,13047
396,12845
108,12845
108,13047
396,13047
" style="stroke:#ffffff;stroke-width:7;
stroke-linejoin:miter; stroke-linecap:butt;
"/>
<!-- Line -->
<!--  polyline  -->
<polyline points="427,12814
486,12755
" style="stroke:#036998;stroke-width:0;
stroke-linejoin:miter; stroke-linecap:butt;
fill:#036998;
"/>
<!-- Line -->
<!--  polyline  -->
<polyline points="427,12814
486,12755
" style="stroke:#ffffff;stroke-width:7;
stroke-linejoin:miter; stroke-linecap:butt;
"/>
<!-- Line -->
<!--  polyline  -->
<polyline points="410,13192
410,13153
8,13153
54,13107
456,13107
456,13146
410,13192
" style="stroke:#036998;stroke-width:0;
stroke-linejoin:miter; stroke-linecap:butt;
fill:#036998;
"/>
<!-- Line -->
<!--  polyline  -->
<polyline points="410,13192
410,13153
8,13153
54,13107
456,13107
456,13146
410,13192
" style="stroke:#ffffff;stroke-width:7;
stroke-linejoin:miter; stroke-linecap:butt;
"/>
<!-- Line -->
<!--  polyline  -->
<polyline points="410,13153
410,13192
8,13192
8,13153
410,13153
" style="stroke:#036998;stroke-width:0;
stroke-linejoin:miter; stroke-linecap:butt;
fill:#036998;
"/>
<!-- Line -->
<!--  polyline  -->
<polyline points="410,13153
410,13192
8,13192
8,13153
410,13153
" style="stroke:#ffffff;stroke-width:7;
stroke-linejoin:miter; stroke-linecap:butt;
"/>
<!-- Line -->
<!--  polyline  -->
<polyline points="410,13153
456,13107
" style="stroke:#036998;stroke-width:0;
stroke-linejoin:miter; stroke-linecap:butt;
fill:#036998;
"/>
<!-- Line -->
<!--  polyline  -->
<polyline points="410,13153
456,13107
" style="stroke:#ffffff;stroke-width:7;
stroke-linejoin:miter; stroke-linecap:butt;
"/>
<!-- Line -->
<!--  spline  -->
<polyline points="242,12906
243,12905
244,12905
245,12904
246,12903
248,12902
250,12901
254,12899
258,12898
260,12897
262,12896
267,12895
272,12894
274,12893
275,12893
277,12893
282,12892
287,12892
292,12892
295,12893
297,12893
297,12894
299,12898
300,12903
302,12907
302,12908
303,12909
306,12916
312,12927
315,12934
316,12935
317,12935
322,12932
333,12926
348,12918
362,12910
373,12904
378,12901
379,12901
378,12900
374,12892
368,12881
364,12873
363,12872
362,12872
357,12870
348,12866
343,12864
342,12864
340,12864
337,12864
335,12864
333,12864
330,12864
325,12864
318,12865
311,12866
307,12866
306,12866
302,12866
293,12868
283,12870
279,12871
277,12871
273,12873
262,12876
252,12880
244,12883
237,12886
231,12888
229,12890
228,12890
227,12890
225,12892
221,12893
219,12895
218,12895
217,12896
212,12899
203,12906
194,12912
189,12915
188,12916
187,12917
184,12919
178,12924
172,12930
164,12938
158,12945
155,12948
154,12949
153,12952
148,12958
144,12963
142,12965
142,12966
140,12968
138,12971
136,12974
135,12976
135,12977
135,12978
133,12984
132,12992
130,12998
130,12999
131,13000
135,13008
141,13019
145,13027
146,13028
147,13028
152,13025
162,13019
177,13011
192,13003
202,12997
207,12994
208,12994
207,12993
204,12986
198,12975
195,12968
194,12967
193,12966
191,12963
186,12959
184,12956
183,12955
183,12954
185,12951
189,12946
191,12943
191,12942
192,12940
195,12938
197,12935
201,12931
205,12928
206,12927
207,12926
209,12925
212,12923
215,12921
216,12920
217,12919
218,12919
220,12917
222,12916
223,12915
224,12915
225,12915
230,12912
236,12909
241,12906
242,12906
" style="stroke:#036998;stroke-width:0;
stroke-linejoin:bevel; stroke-linecap:butt;
fill:#036998;
"/>
<!-- Line -->
<!--  spline  -->
<polyline points="242,12906
243,12905
244,12905
245,12904
246,12903
248,12902
250,12901
254,12899
258,12898
260,12897
262,12896
267,12895
272,12894
274,12893
275,12893
277,12893
282,12892
287,12892
292,12892
295,12893
297,12893
297,12894
299,12898
300,12903
302,12907
302,12908
303,12909
306,12916
312,12927
315,12934
316,12935
317,12935
322,12932
333,12926
348,12918
362,12910
373,12904
378,12901
379,12901
378,12900
374,12892
368,12881
364,12873
363,12872
362,12872
357,12870
348,12866
343,12864
342,12864
340,12864
337,12864
335,12864
333,12864
330,12864
325,12864
318,12865
311,12866
307,12866
306,12866
302,12866
293,12868
283,12870
279,12871
277,12871
273,12873
262,12876
252,12880
244,12883
237,12886
231,12888
229,12890
228,12890
227,12890
225,12892
221,12893
219,12895
218,12895
217,12896
212,12899
203,12906
194,12912
189,12915
188,12916
187,12917
184,12919
178,12924
172,12930
164,12938
158,12945
155,12948
154,12949
153,12952
148,12958
144,12963
142,12965
142,12966
140,12968
138,12971
136,12974
135,12976
135,12977
135,12978
133,12984
132,12992
130,12998
130,12999
131,13000
135,13008
141,13019
145,13027
146,13028
147,13028
152,13025
162,13019
177,13011
192,13003
202,12997
207,12994
208,12994
207,12993
204,12986
198,12975
195,12968
194,12967
193,12966
191,12963
186,12959
184,12956
183,12955
183,12954
185,12951
189,12946
191,12943
191,12942
192,12940
195,12938
197,12935
201,12931
205,12928
206,12927
207,12926
209,12925
212,12923
215,12921
216,12920
217,12919
218,12919
220,12917
222,12916
223,12915
224,12915
225,12915
230,12912
236,12909
241,12906
242,12906
" style="stroke:#ffffff;stroke-width:7;
stroke-linejoin:bevel; stroke-linecap:butt;
"/>
<!-- Line -->
<!--  polyline  -->
<polyline points="195,12966
129,13002
" style="stroke:#036998;stroke-width:0;
stroke-linejoin:miter; stroke-linecap:butt;
fill:#036998;
"/>
<!-- Line -->
<!--  polyline  -->
<polyline points="195,12966
129,13002
" style="stroke:#ffffff;stroke-width:7;
stroke-linejoin:miter; stroke-linecap:butt;
"/>
<!-- Line -->
<!--  polyline  -->
<polyline points="364,12874
298,12910
" style="stroke:#036998;stroke-width:0;
stroke-linejoin:miter; stroke-linecap:butt;
fill:#036998;
"/>
<!-- Line -->
<!--  polyline  -->
<polyline points="364,12874
298,12910
" style="stroke:#ffffff;stroke-width:7;
stroke-linejoin:miter; stroke-linecap:butt;
"/>
</g>
</svg>
