<?xml version="1.0" standalone="no"?>
<!DOCTYPE svg PUBLIC "-//W3C//DTD SVG 1.1//EN"
"http://www.w3.org/Graphics/SVG/1.1/DTD/svg11.dtd">
<!-- Creator: fig2dev Version 3.2 Patchlevel 5c -->
<!-- CreationDate: Fri Sep 14 10:46:49 2012 -->
<!-- Magnification: 1.000 -->
<svg xmlns="http://www.w3.org/2000/svg" width="0.4in" height="0.4in" viewBox="-9 12664 472 535">
<g style="stroke-width:.025in; fill:none">
<!-- Line -->
<!--  spline  -->
<polyline points="84,13059
83,13059
80,13059
76,13059
73,13059
72,13059
70,13059
63,13057
51,13055
44,13053
42,13053
41,13053
38,13051
34,13049
28,13045
22,13040
17,13035
15,13033
14,13032
13,13029
10,13024
7,13019
7,13017
7,13016
6,13014
5,13010
5,13009
4,13008
4,13007
4,13006
3,13006
3,13005
3,13007
3,13016
3,13033
3,13050
3,13059
3,13061
4,13063
4,13064
5,13066
5,13068
6,13071
7,13075
10,13080
13,13085
14,13088
15,13089
17,13091
22,13096
28,13101
30,13103
31,13104
34,13105
42,13109
52,13112
60,13114
67,13115
71,13115
72,13115
73,13115
75,13115
80,13115
82,13115
83,13115
" style="stroke:#ffffff;stroke-width:0;
stroke-linejoin:bevel; stroke-linecap:butt;
fill:#ffffff;
"/>
<!-- Line -->
<!--  spline  -->
<polyline points="84,13059
83,13059
80,13059
76,13059
73,13059
72,13059
70,13059
63,13057
51,13055
44,13053
42,13053
41,13053
38,13051
34,13049
28,13045
22,13040
17,13035
15,13033
14,13032
13,13029
10,13024
7,13019
7,13017
7,13016
6,13014
5,13010
5,13009
4,13008
4,13007
4,13006
3,13006
3,13005
3,13007
3,13016
3,13033
3,13050
3,13059
3,13061
4,13063
4,13064
5,13066
5,13068
6,13071
7,13075
10,13080
13,13085
14,13088
15,13089
17,13091
22,13096
28,13101
30,13103
31,13104
34,13105
42,13109
52,13112
60,13114
67,13115
71,13115
72,13115
73,13115
75,13115
80,13115
82,13115
83,13115
" style="stroke:#026c9b;stroke-width:7;
stroke-linejoin:bevel; stroke-linecap:butt;
"/>
<!-- Line -->
<!--  polyline  -->
<polyline points="341,13187
341,12718
72,12718
72,13187
341,13187
" style="stroke:#026c9b;stroke-width:0;
stroke-linejoin:miter; stroke-linecap:butt;
fill:#026c9b;
"/>
<!-- Line -->
<!--  polyline  -->
<polyline points="72,12718
123,12676
383,12676
341,12718
72,12718
" style="stroke:#026c9b;stroke-width:0;
stroke-linejoin:miter; stroke-linecap:butt;
fill:#026c9b;
"/>
<!-- Line -->
<!--  polyline  -->
<polyline points="341,13187
383,13136
383,12676
341,12718
341,13187
" style="stroke:#026c9b;stroke-width:0;
stroke-linejoin:miter; stroke-linecap:butt;
fill:#026c9b;
"/>
<!-- Line -->
<!--  polyline  -->
<polyline points="341,13187
341,12718
72,12718
72,13187
341,13187
" style="stroke:#026c9b;stroke-width:0;
stroke-linejoin:miter; stroke-linecap:butt;
fill:#026c9b;
"/>
<!-- Line -->
<!--  polyline  -->
<polyline points="341,13187
341,12718
72,12718
72,13187
341,13187
" style="stroke:#ffffff;stroke-width:7;
stroke-linejoin:miter; stroke-linecap:butt;
"/>
<!-- Line -->
<!--  polyline  -->
<polyline points="72,12718
123,12676
383,12676
341,12718
72,12718
" style="stroke:#026c9b;stroke-width:0;
stroke-linejoin:miter; stroke-linecap:butt;
fill:#026c9b;
"/>
<!-- Line -->
<!--  polyline  -->
<polyline points="72,12718
123,12676
383,12676
341,12718
72,12718
" style="stroke:#ffffff;stroke-width:7;
stroke-linejoin:miter; stroke-linecap:butt;
"/>
<!-- Line -->
<!--  polyline  -->
<polyline points="341,13187
383,13136
383,12676
341,12718
341,13187
" style="stroke:#026c9b;stroke-width:0;
stroke-linejoin:miter; stroke-linecap:butt;
fill:#026c9b;
"/>
<!-- Line -->
<!--  polyline  -->
<polyline points="341,13187
383,13136
383,12676
341,12718
341,13187
" style="stroke:#ffffff;stroke-width:7;
stroke-linejoin:miter; stroke-linecap:butt;
"/>
<!-- Line -->
<!--  polyline  -->
<polyline points="341,13187
341,12718
72,12718
72,13187
341,13187
" style="stroke:#ffffff;stroke-width:7;
stroke-linejoin:miter; stroke-linecap:butt;
"/>
<!-- Line -->
<!--  polyline  -->
<polyline points="72,12718
123,12676
383,12676
341,12718
72,12718
" style="stroke:#ffffff;stroke-width:7;
stroke-linejoin:miter; stroke-linecap:butt;
"/>
<!-- Line -->
<!--  polyline  -->
<polyline points="341,13187
383,13136
383,12676
341,12718
341,13187
" style="stroke:#ffffff;stroke-width:7;
stroke-linejoin:miter; stroke-linecap:butt;
"/>
<!-- Line -->
<!--  polyline  -->
<polyline points="379,13114
439,13114
439,13057
379,13058
" style="stroke:#ffffff;stroke-width:0;
stroke-linejoin:miter; stroke-linecap:butt;
fill:#ffffff;
"/>
<!-- Line -->
<!--  polyline  -->
<polyline points="379,13114
439,13114
439,13057
379,13058
" style="stroke:#026c9b;stroke-width:7;
stroke-linejoin:miter; stroke-linecap:butt;
"/>
<!-- Line -->
<!--  polyline  -->
<polyline points="82,12797
74,12797
14,12797
14,12854
74,12853
81,12853
" style="stroke:#ffffff;stroke-width:0;
stroke-linejoin:miter; stroke-linecap:butt;
fill:#ffffff;
"/>
<!-- Line -->
<!--  polyline  -->
<polyline points="82,12797
74,12797
14,12797
14,12854
74,12853
81,12853
" style="stroke:#026c9b;stroke-width:7;
stroke-linejoin:miter; stroke-linecap:butt;
"/>
<!-- Line -->
<!--  spline  -->
<polyline points="373,12853
375,12853
379,12853
381,12853
383,12853
390,12855
402,12857
409,12859
411,12859
412,12859
415,12861
420,12863
425,12867
432,12872
437,12877
439,12879
440,12880
441,12883
444,12888
447,12893
447,12895
447,12896
448,12898
449,12902
450,12905
451,12907
451,12908
451,12906
451,12897
451,12879
451,12862
451,12853
451,12851
450,12849
450,12848
449,12846
449,12844
448,12841
447,12837
444,12832
441,12827
440,12824
439,12823
437,12821
432,12816
426,12811
424,12809
422,12808
419,12807
411,12803
401,12800
393,12798
386,12797
382,12797
381,12797
380,12797
377,12797
372,12797
369,12797
368,12797
" style="stroke:#ffffff;stroke-width:0;
stroke-linejoin:bevel; stroke-linecap:butt;
fill:#ffffff;
"/>
<!-- Line -->
<!--  spline  -->
<polyline points="373,12853
375,12853
379,12853
381,12853
383,12853
390,12855
402,12857
409,12859
411,12859
412,12859
415,12861
420,12863
425,12867
432,12872
437,12877
439,12879
440,12880
441,12883
444,12888
447,12893
447,12895
447,12896
448,12898
449,12902
450,12905
451,12907
451,12908
451,12906
451,12897
451,12879
451,12862
451,12853
451,12851
450,12849
450,12848
449,12846
449,12844
448,12841
447,12837
444,12832
441,12827
440,12824
439,12823
437,12821
432,12816
426,12811
424,12809
422,12808
419,12807
411,12803
401,12800
393,12798
386,12797
382,12797
381,12797
380,12797
377,12797
372,12797
369,12797
368,12797
" style="stroke:#026c9b;stroke-width:7;
stroke-linejoin:bevel; stroke-linecap:butt;
"/>
<!-- Line -->
<!--  spline  -->
<polyline points="451,12848
451,12849
451,12854
451,12866
451,12882
451,12897
451,12909
451,12914
451,12915
450,12916
447,12922
442,12934
437,12946
434,12952
433,12953
432,12953
430,12956
424,12960
417,12964
408,12969
396,12975
384,12979
378,12981
375,12982
372,12982
366,12984
354,12986
341,12988
336,12989
333,12989
328,12989
319,12990
311,12990
307,12990
305,12990
304,12990
304,12991
304,12993
304,12994
304,12996
304,13005
304,13021
304,13037
304,13046
304,13048
303,13047
299,13043
290,13034
276,13020
258,13002
240,12985
226,12971
217,12962
213,12958
212,12957
213,12956
217,12952
226,12943
240,12929
258,12911
276,12893
290,12879
299,12870
303,12866
304,12865
304,12867
304,12876
304,12894
304,12912
304,12921
304,12923
305,12923
309,12923
314,12923
318,12923
319,12923
320,12923
324,12923
331,12923
340,12922
354,12920
366,12918
372,12917
375,12916
378,12916
385,12914
397,12909
409,12904
415,12901
418,12900
420,12898
425,12894
434,12886
441,12876
446,12867
449,12859
450,12852
451,12849
451,12848
" style="stroke:#ffffff;stroke-width:0;
stroke-linejoin:bevel; stroke-linecap:butt;
fill:#ffffff;
"/>
<!-- Line -->
<!--  spline  -->
<polyline points="451,12848
451,12849
451,12854
451,12866
451,12882
451,12897
451,12909
451,12914
451,12915
450,12916
447,12922
442,12934
437,12946
434,12952
433,12953
432,12953
430,12956
424,12960
417,12964
408,12969
396,12975
384,12979
378,12981
375,12982
372,12982
366,12984
354,12986
341,12988
336,12989
333,12989
328,12989
319,12990
311,12990
307,12990
305,12990
304,12990
304,12991
304,12993
304,12994
304,12996
304,13005
304,13021
304,13037
304,13046
304,13048
303,13047
299,13043
290,13034
276,13020
258,13002
240,12985
226,12971
217,12962
213,12958
212,12957
213,12956
217,12952
226,12943
240,12929
258,12911
276,12893
290,12879
299,12870
303,12866
304,12865
304,12867
304,12876
304,12894
304,12912
304,12921
304,12923
305,12923
309,12923
314,12923
318,12923
319,12923
320,12923
324,12923
331,12923
340,12922
354,12920
366,12918
372,12917
375,12916
378,12916
385,12914
397,12909
409,12904
415,12901
418,12900
420,12898
425,12894
434,12886
441,12876
446,12867
449,12859
450,12852
451,12849
451,12848
" style="stroke:#026c9b;stroke-width:7;
stroke-linejoin:bevel; stroke-linecap:butt;
"/>
<!-- Line -->
<!--  spline  -->
<polyline points="4,13064
4,13063
4,13058
4,13046
4,13031
4,13015
4,13003
4,12998
4,12997
4,12996
6,12990
10,12978
14,12966
16,12960
16,12959
17,12958
20,12955
25,12950
31,12944
41,12937
50,12932
55,12930
57,12930
61,12929
70,12926
79,12924
83,12923
84,12923
88,12923
94,12922
99,12922
102,12922
103,12922
104,12922
104,12921
104,12919
104,12918
104,12916
104,12907
104,12891
104,12875
104,12866
104,12864
105,12865
109,12869
118,12878
132,12892
150,12910
167,12928
181,12942
190,12951
194,12955
195,12956
194,12957
190,12961
181,12970
167,12984
149,13002
132,13019
118,13033
109,13042
105,13046
104,13047
104,13045
104,13036
104,13018
104,13000
104,12991
104,12989
103,12989
101,12989
97,12989
95,12989
94,12989
93,12989
91,12989
86,12990
79,12991
70,12993
61,12996
57,12996
55,12997
50,12998
41,13003
32,13009
28,13012
26,13013
23,13016
16,13026
11,13036
8,13045
6,13053
5,13060
4,13063
4,13064
" style="stroke:#ffffff;stroke-width:0;
stroke-linejoin:bevel; stroke-linecap:butt;
fill:#ffffff;
"/>
<!-- Line -->
<!--  spline  -->
<polyline points="4,13064
4,13063
4,13058
4,13046
4,13031
4,13015
4,13003
4,12998
4,12997
4,12996
6,12990
10,12978
14,12966
16,12960
16,12959
17,12958
20,12955
25,12950
31,12944
41,12937
50,12932
55,12930
57,12930
61,12929
70,12926
79,12924
83,12923
84,12923
88,12923
94,12922
99,12922
102,12922
103,12922
104,12922
104,12921
104,12919
104,12918
104,12916
104,12907
104,12891
104,12875
104,12866
104,12864
105,12865
109,12869
118,12878
132,12892
150,12910
167,12928
181,12942
190,12951
194,12955
195,12956
194,12957
190,12961
181,12970
167,12984
149,13002
132,13019
118,13033
109,13042
105,13046
104,13047
104,13045
104,13036
104,13018
104,13000
104,12991
104,12989
103,12989
101,12989
97,12989
95,12989
94,12989
93,12989
91,12989
86,12990
79,12991
70,12993
61,12996
57,12996
55,12997
50,12998
41,13003
32,13009
28,13012
26,13013
23,13016
16,13026
11,13036
8,13045
6,13053
5,13060
4,13063
4,13064
" style="stroke:#026c9b;stroke-width:7;
stroke-linejoin:bevel; stroke-linecap:butt;
"/>
</g>
</svg>
