<?xml version="1.0" standalone="no"?>
<!DOCTYPE svg PUBLIC "-//W3C//DTD SVG 1.1//EN"
"http://www.w3.org/Graphics/SVG/1.1/DTD/svg11.dtd">
<!-- Creator: fig2dev Version 3.2 Patchlevel 5c -->
<!-- CreationDate: Fri Sep 14 10:46:49 2012 -->
<!-- Magnification: 1.000 -->
<svg xmlns="http://www.w3.org/2000/svg" width="0.9in" height="0.5in" viewBox="-9 12634 1081 575">
<g style="stroke-width:.025in; fill:none">
<!-- Line -->
<!--  spline  -->
<polyline points="736,13093
736,13094
736,13098
735,13104
735,13108
735,13109
735,13111
734,13115
734,13119
732,13125
730,13130
729,13132
729,13133
728,13135
725,13140
722,13145
721,13147
720,13148
719,13150
715,13155
711,13160
707,13164
704,13167
702,13169
701,13170
697,13173
691,13177
687,13180
686,13181
684,13183
680,13185
676,13187
670,13190
664,13192
662,13193
661,13193
658,13194
652,13195
646,13196
644,13196
643,13197
641,13197
635,13197
629,13197
625,13196
621,13196
619,13195
" style="stroke:#146ec6;stroke-width:7;
stroke-linejoin:bevel; stroke-linecap:round;
"/>
<!-- Line -->
<!--  spline  -->
<polyline points="725,13089
725,13090
725,13094
724,13099
724,13103
724,13104
724,13106
723,13110
723,13114
721,13119
719,13124
718,13126
717,13128
714,13133
711,13138
710,13140
708,13142
705,13147
701,13152
698,13155
695,13158
693,13160
692,13161
689,13163
683,13168
680,13170
679,13171
677,13172
673,13174
669,13176
663,13179
658,13181
655,13182
652,13183
647,13184
642,13185
639,13185
638,13186
636,13186
631,13186
625,13186
621,13185
618,13185
616,13184
" style="stroke:#146ec6;stroke-width:7;
stroke-linejoin:bevel; stroke-linecap:round;
"/>
<!-- Line -->
<!--  spline  -->
<polyline points="714,13085
714,13086
714,13089
713,13095
713,13098
713,13099
713,13101
712,13104
711,13108
710,13113
708,13117
708,13119
707,13120
706,13122
704,13126
702,13130
701,13132
700,13133
699,13135
696,13139
692,13143
689,13147
687,13149
685,13151
684,13152
681,13154
675,13158
672,13160
671,13161
669,13162
666,13164
662,13167
657,13169
652,13171
650,13171
649,13172
647,13172
642,13173
637,13174
635,13174
634,13175
632,13175
627,13175
622,13175
618,13174
615,13174
613,13173
" style="stroke:#146ec6;stroke-width:7;
stroke-linejoin:bevel; stroke-linecap:round;
"/>
<!-- Line -->
<!--  spline  -->
<polyline points="703,13081
703,13082
703,13085
702,13090
702,13093
702,13094
702,13096
701,13099
700,13102
699,13107
698,13111
697,13113
696,13115
694,13119
692,13123
691,13125
690,13125
689,13127
686,13131
683,13135
680,13138
678,13140
676,13142
675,13142
672,13145
667,13148
664,13151
663,13151
661,13152
658,13154
655,13156
650,13158
646,13160
644,13160
643,13160
641,13161
637,13162
632,13163
630,13163
630,13164
628,13164
623,13164
618,13164
615,13163
612,13163
610,13162
" style="stroke:#146ec6;stroke-width:7;
stroke-linejoin:bevel; stroke-linecap:round;
"/>
<!-- Line -->
<!--  spline  -->
<polyline points="692,13078
692,13079
692,13081
691,13086
691,13088
691,13089
691,13091
690,13093
689,13097
688,13101
687,13105
686,13106
686,13107
685,13108
683,13112
681,13116
680,13117
680,13118
679,13119
676,13123
673,13127
671,13129
668,13132
667,13133
666,13133
664,13135
659,13139
657,13141
656,13141
654,13142
652,13144
648,13146
644,13148
640,13149
638,13150
637,13150
635,13150
631,13151
627,13152
625,13152
625,13153
623,13153
619,13153
615,13153
611,13152
609,13152
607,13151
" style="stroke:#146ec6;stroke-width:7;
stroke-linejoin:bevel; stroke-linecap:round;
"/>
<!-- Line -->
<!--  spline  -->
<polyline points="680,13074
680,13075
680,13077
680,13081
680,13083
680,13084
680,13086
680,13088
679,13091
678,13095
677,13098
676,13100
675,13102
673,13105
671,13108
670,13110
669,13112
667,13115
664,13118
662,13121
660,13123
658,13124
657,13124
655,13126
651,13129
649,13131
648,13131
646,13132
644,13134
641,13135
637,13137
633,13138
632,13139
631,13139
630,13139
626,13140
622,13141
621,13141
620,13142
619,13142
615,13142
611,13142
608,13141
606,13141
604,13140
" style="stroke:#146ec6;stroke-width:7;
stroke-linejoin:bevel; stroke-linecap:round;
"/>
<!-- Line -->
<!--  spline  -->
<polyline points="669,13070
669,13073
669,13076
669,13079
669,13081
669,13083
668,13085
667,13089
666,13092
665,13093
665,13094
665,13095
663,13098
661,13101
660,13102
660,13103
659,13104
657,13107
655,13110
653,13112
651,13114
650,13115
649,13115
647,13117
643,13120
641,13122
640,13122
639,13123
637,13123
634,13125
631,13126
628,13127
626,13128
624,13129
621,13130
618,13131
616,13131
614,13131
611,13131
607,13131
605,13131
603,13130
601,13130
" style="stroke:#146ec6;stroke-width:7;
stroke-linejoin:bevel; stroke-linecap:round;
"/>
<!-- Line -->
<!--  spline  -->
<polyline points="658,13066
658,13068
658,13072
658,13074
658,13075
658,13077
657,13080
656,13083
655,13086
654,13087
653,13088
652,13091
650,13093
650,13094
650,13095
649,13096
647,13098
645,13101
643,13102
642,13104
641,13105
639,13107
635,13110
633,13112
632,13113
630,13114
627,13115
624,13116
621,13117
620,13118
619,13118
618,13118
615,13119
612,13120
611,13120
610,13120
607,13120
604,13120
601,13120
599,13119
598,13119
" style="stroke:#146ec6;stroke-width:7;
stroke-linejoin:bevel; stroke-linecap:round;
"/>
<!-- Line -->
<!--  polyline  -->
<polyline points="3,12971
3,12949
227,12867
329,12884
390,12896
432,12905
433,12933
" style="stroke:#146ec6;stroke-width:0;
stroke-linejoin:round; stroke-linecap:round;
fill:#146ec6;
"/>
<!-- Line -->
<!--  polyline  -->
<polyline points="3,12971
3,12949
227,12867
329,12884
390,12896
432,12905
433,12933
" style="stroke:#ffffff;stroke-width:7;
stroke-linejoin:miter; stroke-linecap:butt;
"/>
<!-- Line -->
<!--  spline  -->
<polyline points="526,12646
525,12646
521,12647
515,12647
511,12648
510,12648
507,12648
504,12649
500,12650
495,12651
491,12652
489,12653
487,12654
484,12656
481,12658
480,12659
479,12660
477,12662
475,12664
475,12666
474,12668
474,12669
475,12671
476,12674
477,12676
478,12677
479,12678
481,12680
484,12682
487,12684
489,12685
491,12686
495,12687
500,12688
502,12689
503,12689
505,12689
510,12690
516,12691
520,12691
524,12691
526,12691
527,12691
531,12691
537,12690
541,12690
542,12690
544,12690
547,12689
551,12688
556,12687
560,12686
562,12685
564,12684
567,12682
570,12680
571,12679
572,12679
573,12678
575,12676
576,12674
577,12672
577,12670
577,12669
576,12667
576,12664
575,12662
574,12661
572,12660
570,12658
567,12656
564,12654
562,12653
560,12652
556,12651
552,12650
550,12649
549,12649
547,12649
542,12648
536,12647
532,12647
529,12646
526,12646
" style="stroke:#146ec6;stroke-width:0;
stroke-linejoin:bevel; stroke-linecap:butt;
fill:#146ec6;
"/>
<!-- Line -->
<!--  spline  -->
<polyline points="526,12646
525,12646
521,12647
515,12647
511,12648
510,12648
507,12648
504,12649
500,12650
495,12651
491,12652
489,12653
487,12654
484,12656
481,12658
480,12659
479,12660
477,12662
475,12664
475,12666
474,12668
474,12669
475,12671
476,12674
477,12676
478,12677
479,12678
481,12680
484,12682
487,12684
489,12685
491,12686
495,12687
500,12688
502,12689
503,12689
505,12689
510,12690
516,12691
520,12691
524,12691
526,12691
527,12691
531,12691
537,12690
541,12690
542,12690
544,12690
547,12689
551,12688
556,12687
560,12686
562,12685
564,12684
567,12682
570,12680
571,12679
572,12679
573,12678
575,12676
576,12674
577,12672
577,12670
577,12669
576,12667
576,12664
575,12662
574,12661
572,12660
570,12658
567,12656
564,12654
562,12653
560,12652
556,12651
552,12650
550,12649
549,12649
547,12649
542,12648
536,12647
532,12647
529,12646
526,12646
" style="stroke:#ffffff;stroke-width:7;
stroke-linejoin:bevel; stroke-linecap:butt;
"/>
<!-- Line -->
<!--  polyline  -->
<polyline points="323,12911
226,12896
3,12971
198,13001
433,12933
366,12922
" style="stroke:#146ec6;stroke-width:0;
stroke-linejoin:miter; stroke-linecap:butt;
fill:#146ec6;
"/>
<!-- Line -->
<!--  polyline  -->
<polyline points="323,12911
226,12896
3,12971
198,13001
433,12933
366,12922
" style="stroke:#ffffff;stroke-width:7;
stroke-linejoin:miter; stroke-linecap:butt;
"/>
<!-- Line -->
<!--  spline  -->
<polyline points="339,12907
338,12907
332,12909
321,12912
311,12915
305,12917
304,12917
303,12917
300,12919
294,12921
287,12924
279,12927
273,12930
270,12931
270,12932
268,12933
264,12935
261,12937
260,12938
259,12938
259,12939
257,12940
256,12941
255,12941
255,12942
256,12942
261,12943
269,12943
274,12944
275,12944
276,12944
279,12944
285,12943
292,12942
302,12940
312,12938
316,12937
318,12936
322,12935
331,12933
339,12931
343,12929
344,12929
347,12928
353,12926
358,12924
360,12924
361,12923
362,12923
363,12923
367,12921
372,12920
376,12918
377,12918
376,12918
370,12916
358,12912
346,12909
340,12907
339,12907
" style="stroke:#146ec6;stroke-width:0;
stroke-linejoin:bevel; stroke-linecap:butt;
fill:#146ec6;
"/>
<!-- Line -->
<!--  spline  -->
<polyline points="339,12907
338,12907
332,12909
321,12912
311,12915
305,12917
304,12917
303,12917
300,12919
294,12921
287,12924
279,12927
273,12930
270,12931
270,12932
268,12933
264,12935
261,12937
260,12938
259,12938
259,12939
257,12940
256,12941
255,12941
255,12942
256,12942
261,12943
269,12943
274,12944
275,12944
276,12944
279,12944
285,12943
292,12942
302,12940
312,12938
316,12937
318,12936
322,12935
331,12933
339,12931
343,12929
344,12929
347,12928
353,12926
358,12924
360,12924
361,12923
362,12923
363,12923
367,12921
372,12920
376,12918
377,12918
376,12918
370,12916
358,12912
346,12909
340,12907
339,12907
" style="stroke:#ffffff;stroke-width:7;
stroke-linejoin:bevel; stroke-linecap:butt;
"/>
<!-- Line -->
<!--  spline  -->
<polyline points="366,12922
367,12922
372,12923
384,12925
400,12928
415,12930
427,12932
432,12933
433,12933
432,12933
428,12934
419,12937
402,12942
378,12949
348,12957
315,12967
283,12977
253,12985
229,12992
212,12997
203,13000
199,13001
198,13001
197,13001
194,13000
186,12999
172,12997
153,12994
128,12990
100,12986
73,12982
48,12978
29,12975
15,12973
7,12972
4,12971
3,12971
4,12971
7,12970
17,12966
32,12961
55,12954
83,12944
115,12933
146,12923
174,12913
197,12906
212,12901
222,12897
225,12896
226,12896
227,12896
235,12897
252,12900
275,12904
298,12907
315,12910
323,12911
324,12911
323,12911
315,12913
304,12917
296,12919
295,12919
294,12919
292,12920
287,12923
282,12925
276,12928
271,12931
269,12932
268,12932
266,12933
263,12935
260,12937
259,12938
258,12939
257,12940
256,12941
255,12941
255,12942
256,12942
261,12943
268,12944
273,12945
274,12945
275,12945
278,12945
283,12944
290,12943
299,12941
308,12939
312,12938
313,12938
317,12937
325,12935
332,12933
335,12932
337,12932
339,12931
344,12929
348,12928
350,12927
351,12926
352,12926
353,12926
358,12924
370,12920
386,12916
402,12911
414,12907
419,12905
420,12905
420,12904
420,12898
420,12886
420,12875
420,12869
420,12868
419,12868
412,12871
397,12876
376,12883
354,12890
339,12895
332,12898
331,12898
330,12898
330,12899
330,12900
329,12901
329,12902
329,12903
328,12904
328,12905
328,12906
327,12907
327,12908
327,12909
326,12910
326,12911
" style="stroke:#146ec6;stroke-width:0;
stroke-linejoin:bevel; stroke-linecap:butt;
fill:#146ec6;
"/>
<!-- Line -->
<!--  spline  -->
<polyline points="366,12922
367,12922
372,12923
384,12925
400,12928
415,12930
427,12932
432,12933
433,12933
432,12933
428,12934
419,12937
402,12942
378,12949
348,12957
315,12967
283,12977
253,12985
229,12992
212,12997
203,13000
199,13001
198,13001
197,13001
194,13000
186,12999
172,12997
153,12994
128,12990
100,12986
73,12982
48,12978
29,12975
15,12973
7,12972
4,12971
3,12971
4,12971
7,12970
17,12966
32,12961
55,12954
83,12944
115,12933
146,12923
174,12913
197,12906
212,12901
222,12897
225,12896
226,12896
227,12896
235,12897
252,12900
275,12904
298,12907
315,12910
323,12911
324,12911
323,12911
315,12913
304,12917
296,12919
295,12919
294,12919
292,12920
287,12923
282,12925
276,12928
271,12931
269,12932
268,12932
266,12933
263,12935
260,12937
259,12938
258,12939
257,12940
256,12941
255,12941
255,12942
256,12942
261,12943
268,12944
273,12945
274,12945
275,12945
278,12945
283,12944
290,12943
299,12941
308,12939
312,12938
313,12938
317,12937
325,12935
332,12933
335,12932
337,12932
339,12931
344,12929
348,12928
350,12927
351,12926
352,12926
353,12926
358,12924
370,12920
386,12916
402,12911
414,12907
419,12905
420,12905
420,12904
420,12898
420,12886
420,12875
420,12869
420,12868
419,12868
412,12871
397,12876
376,12883
354,12890
339,12895
332,12898
331,12898
330,12898
330,12899
330,12900
329,12901
329,12902
329,12903
328,12904
328,12905
328,12906
327,12907
327,12908
327,12909
326,12910
326,12911
" style="stroke:#ffffff;stroke-width:7;
stroke-linejoin:bevel; stroke-linecap:butt;
"/>
<!-- Line -->
<!--  spline  -->
<polyline points="331,12911
330,12911
330,12912
330,12913
330,12914
330,12915
331,12915
332,12914
332,12913
332,12912
332,12911
331,12911
" style="stroke:#146ec6;stroke-width:0;
stroke-linejoin:bevel; stroke-linecap:butt;
fill:#146ec6;
"/>
<!-- Line -->
<!--  spline  -->
<polyline points="331,12911
330,12911
330,12912
330,12913
330,12914
330,12915
331,12915
332,12914
332,12913
332,12912
332,12911
331,12911
" style="stroke:#ffffff;stroke-width:7;
stroke-linejoin:bevel; stroke-linecap:butt;
"/>
<!-- Line -->
<!--  spline  -->
<polyline points="632,12996
632,12992
632,12984
632,12970
632,12950
632,12923
632,12892
632,12858
632,12823
632,12792
632,12765
632,12745
632,12731
632,12723
632,12719
632,12718
630,12714
629,12709
627,12705
627,12704
625,12702
622,12699
618,12696
612,12692
605,12688
602,12687
601,12686
597,12685
589,12682
580,12679
576,12678
575,12678
570,12677
560,12675
548,12674
539,12673
531,12673
527,12673
526,12673
524,12673
516,12674
503,12674
495,12675
493,12675
492,12675
488,12676
481,12677
473,12679
463,12682
454,12685
451,12686
450,12687
447,12688
440,12692
434,12696
431,12697
431,12698
429,12700
425,12704
422,12709
421,12713
420,12717
420,12719
420,12720
420,12723
420,12731
420,12745
420,12766
420,12793
420,12824
420,12859
420,12894
420,12925
420,12952
420,12973
420,12987
420,12995
420,12998
420,12999
" style="stroke:#146ec6;stroke-width:0;
stroke-linejoin:bevel; stroke-linecap:butt;
fill:#146ec6;
"/>
<!-- Line -->
<!--  spline  -->
<polyline points="632,12996
632,12992
632,12984
632,12970
632,12950
632,12923
632,12892
632,12858
632,12823
632,12792
632,12765
632,12745
632,12731
632,12723
632,12719
632,12718
630,12714
629,12709
627,12705
627,12704
625,12702
622,12699
618,12696
612,12692
605,12688
602,12687
601,12686
597,12685
589,12682
580,12679
576,12678
575,12678
570,12677
560,12675
548,12674
539,12673
531,12673
527,12673
526,12673
524,12673
516,12674
503,12674
495,12675
493,12675
492,12675
488,12676
481,12677
473,12679
463,12682
454,12685
451,12686
450,12687
447,12688
440,12692
434,12696
431,12697
431,12698
429,12700
425,12704
422,12709
421,12713
420,12717
420,12719
420,12720
420,12723
420,12731
420,12745
420,12766
420,12793
420,12824
420,12859
420,12894
420,12925
420,12952
420,12973
420,12987
420,12995
420,12998
420,12999
" style="stroke:#ffffff;stroke-width:7;
stroke-linejoin:bevel; stroke-linecap:butt;
"/>
<!-- Line -->
<!--  polyline  -->
<polyline points="620,12777
620,12752
854,12669
1060,12717
1060,12747
" style="stroke:#146ec6;stroke-width:0;
stroke-linejoin:miter; stroke-linecap:butt;
fill:#146ec6;
"/>
<!-- Line -->
<!--  polyline  -->
<polyline points="620,12777
620,12752
854,12669
1060,12717
1060,12747
" style="stroke:#ffffff;stroke-width:7;
stroke-linejoin:miter; stroke-linecap:butt;
"/>
<!-- Line -->
<!--  polyline  -->
<polyline points="695,12788
620,12777
854,12700
1060,12747
815,12816
758,12806
" style="stroke:#146ec6;stroke-width:0;
stroke-linejoin:miter; stroke-linecap:butt;
fill:#146ec6;
"/>
<!-- Line -->
<!--  polyline  -->
<polyline points="695,12788
620,12777
854,12700
1060,12747
815,12816
758,12806
" style="stroke:#ffffff;stroke-width:7;
stroke-linejoin:miter; stroke-linecap:butt;
"/>
<!-- Line -->
<!--  spline  -->
<polyline points="760,12807
761,12807
768,12804
779,12801
786,12798
787,12798
788,12798
790,12796
795,12794
801,12792
807,12788
812,12785
814,12783
815,12782
816,12781
820,12778
823,12775
825,12774
826,12773
828,12771
829,12770
829,12769
830,12769
830,12768
829,12768
821,12768
808,12769
795,12769
787,12769
786,12769
785,12769
782,12769
776,12770
768,12771
759,12772
749,12774
738,12776
734,12777
733,12777
729,12778
721,12780
714,12782
711,12783
710,12784
708,12784
703,12786
699,12787
697,12788
696,12788
" style="stroke:#146ec6;stroke-width:0;
stroke-linejoin:bevel; stroke-linecap:butt;
fill:#146ec6;
"/>
<!-- Line -->
<!--  spline  -->
<polyline points="760,12807
761,12807
768,12804
779,12801
786,12798
787,12798
788,12798
790,12796
795,12794
801,12792
807,12788
812,12785
814,12783
815,12782
816,12781
820,12778
823,12775
825,12774
826,12773
828,12771
829,12770
829,12769
830,12769
830,12768
829,12768
821,12768
808,12769
795,12769
787,12769
786,12769
785,12769
782,12769
776,12770
768,12771
759,12772
749,12774
738,12776
734,12777
733,12777
729,12778
721,12780
714,12782
711,12783
710,12784
708,12784
703,12786
699,12787
697,12788
696,12788
" style="stroke:#ffffff;stroke-width:7;
stroke-linejoin:bevel; stroke-linecap:butt;
"/>
<!-- Line -->
<!--  spline  -->
<polyline points="764,12805
763,12805
759,12807
748,12810
730,12815
706,12822
678,12831
650,12839
626,12846
608,12851
597,12854
593,12856
592,12856
591,12856
588,12855
584,12854
581,12853
580,12853
579,12852
577,12851
575,12850
573,12848
572,12846
571,12845
572,12845
571,12844
571,12842
571,12840
570,12839
570,12838
570,12837
570,12836
570,12835
570,12834
571,12832
571,12830
572,12828
572,12827
573,12825
574,12824
576,12822
578,12821
579,12820
580,12820
582,12819
584,12818
585,12818
586,12818
587,12817
588,12817
588,12816
589,12816
590,12816
595,12815
606,12812
623,12807
645,12801
667,12796
684,12791
695,12788
700,12787
701,12787
" style="stroke:#146ec6;stroke-width:0;
stroke-linejoin:bevel; stroke-linecap:butt;
fill:#146ec6;
"/>
<!-- Line -->
<!--  spline  -->
<polyline points="764,12805
763,12805
759,12807
748,12810
730,12815
706,12822
678,12831
650,12839
626,12846
608,12851
597,12854
593,12856
592,12856
591,12856
588,12855
584,12854
581,12853
580,12853
579,12852
577,12851
575,12850
573,12848
572,12846
571,12845
572,12845
571,12844
571,12842
571,12840
570,12839
570,12838
570,12837
570,12836
570,12835
570,12834
571,12832
571,12830
572,12828
572,12827
573,12825
574,12824
576,12822
578,12821
579,12820
580,12820
582,12819
584,12818
585,12818
586,12818
587,12817
588,12817
588,12816
589,12816
590,12816
595,12815
606,12812
623,12807
645,12801
667,12796
684,12791
695,12788
700,12787
701,12787
" style="stroke:#ffffff;stroke-width:7;
stroke-linejoin:bevel; stroke-linecap:butt;
"/>
<!-- Line -->
<!--  spline  -->
<polyline points="704,12786
703,12787
702,12787
701,12787
701,12788
702,12788
702,12789
703,12789
704,12789
705,12789
706,12789
706,12788
706,12787
705,12787
704,12787
704,12786
" style="stroke:#146ec6;stroke-width:0;
stroke-linejoin:bevel; stroke-linecap:butt;
fill:#146ec6;
"/>
<!-- Line -->
<!--  spline  -->
<polyline points="704,12786
703,12787
702,12787
701,12787
701,12788
702,12788
702,12789
703,12789
704,12789
705,12789
706,12789
706,12788
706,12787
705,12787
704,12787
704,12786
" style="stroke:#ffffff;stroke-width:7;
stroke-linejoin:bevel; stroke-linecap:butt;
"/>
<!-- Line -->
<!--  spline  -->
<polyline points="406,13073
406,13072
408,13068
410,13063
412,13059
412,13058
414,13056
417,13053
422,13049
429,13045
437,13041
440,13040
442,13039
446,13038
456,13035
466,13032
471,13031
472,13031
477,13030
489,13028
500,13027
509,13026
517,13026
523,13026
526,13026
527,13026
528,13026
534,13026
546,13027
558,13028
564,13028
565,13028
566,13028
571,13029
578,13030
588,13032
599,13035
609,13038
613,13039
614,13040
617,13041
625,13045
632,13049
635,13051
636,13051
638,13053
642,13058
645,13062
647,13066
648,13069
648,13071
648,13073
648,13072
648,13067
648,13055
648,13039
648,13022
648,13010
648,13005
648,13004
648,13003
646,12999
644,12994
642,12990
642,12989
640,12987
637,12984
632,12980
625,12976
617,12972
614,12971
613,12970
609,12969
599,12966
589,12963
584,12962
582,12962
577,12961
565,12959
554,12958
544,12957
537,12957
531,12957
528,12957
527,12957
526,12957
520,12957
508,12958
496,12959
490,12959
489,12959
488,12959
484,12960
476,12961
467,12963
456,12966
446,12969
442,12970
440,12971
437,12972
429,12976
422,12980
419,12982
418,12982
416,12984
412,12989
409,12993
407,12997
406,13000
406,13002
406,13004
406,13005
406,13010
406,13022
406,13039
406,13055
406,13067
406,13072
406,13073
" style="stroke:#146ec6;stroke-width:0;
stroke-linejoin:bevel; stroke-linecap:butt;
fill:#146ec6;
"/>
<!-- Line -->
<!--  spline  -->
<polyline points="406,13073
406,13072
408,13068
410,13063
412,13059
412,13058
414,13056
417,13053
422,13049
429,13045
437,13041
440,13040
442,13039
446,13038
456,13035
466,13032
471,13031
472,13031
477,13030
489,13028
500,13027
509,13026
517,13026
523,13026
526,13026
527,13026
528,13026
534,13026
546,13027
558,13028
564,13028
565,13028
566,13028
571,13029
578,13030
588,13032
599,13035
609,13038
613,13039
614,13040
617,13041
625,13045
632,13049
635,13051
636,13051
638,13053
642,13058
645,13062
647,13066
648,13069
648,13071
648,13073
648,13072
648,13067
648,13055
648,13039
648,13022
648,13010
648,13005
648,13004
648,13003
646,12999
644,12994
642,12990
642,12989
640,12987
637,12984
632,12980
625,12976
617,12972
614,12971
613,12970
609,12969
599,12966
589,12963
584,12962
582,12962
577,12961
565,12959
554,12958
544,12957
537,12957
531,12957
528,12957
527,12957
526,12957
520,12957
508,12958
496,12959
490,12959
489,12959
488,12959
484,12960
476,12961
467,12963
456,12966
446,12969
442,12970
440,12971
437,12972
429,12976
422,12980
419,12982
418,12982
416,12984
412,12989
409,12993
407,12997
406,13000
406,13002
406,13004
406,13005
406,13010
406,13022
406,13039
406,13055
406,13067
406,13072
406,13073
" style="stroke:#ffffff;stroke-width:7;
stroke-linejoin:bevel; stroke-linecap:butt;
"/>
<!-- Line -->
<!--  spline  -->
<polyline points="527,13026
526,13026
520,13026
508,13027
496,13028
490,13028
489,13028
488,13028
484,13029
476,13030
467,13032
456,13035
446,13038
442,13039
440,13040
437,13041
429,13045
422,13049
419,13051
418,13051
416,13053
412,13058
409,13062
407,13066
406,13069
406,13071
406,13073
406,13074
408,13078
410,13083
412,13087
412,13088
414,13090
417,13092
422,13096
429,13100
437,13104
440,13106
442,13106
446,13108
456,13111
466,13114
471,13115
472,13115
477,13115
489,13117
500,13118
509,13119
517,13120
523,13120
526,13120
527,13120
528,13120
534,13119
546,13118
558,13118
564,13117
565,13117
566,13117
571,13116
578,13115
588,13114
599,13111
609,13108
613,13106
614,13106
617,13104
625,13100
632,13096
635,13095
636,13094
638,13092
642,13088
645,13084
647,13080
648,13077
648,13075
648,13073
648,13072
646,13068
644,13063
642,13059
642,13058
640,13056
637,13053
632,13049
625,13045
617,13041
614,13040
613,13039
609,13038
599,13035
589,13032
584,13031
582,13031
577,13030
565,13028
554,13027
544,13026
537,13026
531,13026
528,13026
527,13026
" style="stroke:#146ec6;stroke-width:0;
stroke-linejoin:bevel; stroke-linecap:butt;
fill:#146ec6;
"/>
<!-- Line -->
<!--  spline  -->
<polyline points="527,13026
526,13026
520,13026
508,13027
496,13028
490,13028
489,13028
488,13028
484,13029
476,13030
467,13032
456,13035
446,13038
442,13039
440,13040
437,13041
429,13045
422,13049
419,13051
418,13051
416,13053
412,13058
409,13062
407,13066
406,13069
406,13071
406,13073
406,13074
408,13078
410,13083
412,13087
412,13088
414,13090
417,13092
422,13096
429,13100
437,13104
440,13106
442,13106
446,13108
456,13111
466,13114
471,13115
472,13115
477,13115
489,13117
500,13118
509,13119
517,13120
523,13120
526,13120
527,13120
528,13120
534,13119
546,13118
558,13118
564,13117
565,13117
566,13117
571,13116
578,13115
588,13114
599,13111
609,13108
613,13106
614,13106
617,13104
625,13100
632,13096
635,13095
636,13094
638,13092
642,13088
645,13084
647,13080
648,13077
648,13075
648,13073
648,13072
646,13068
644,13063
642,13059
642,13058
640,13056
637,13053
632,13049
625,13045
617,13041
614,13040
613,13039
609,13038
599,13035
589,13032
584,13031
582,13031
577,13030
565,13028
554,13027
544,13026
537,13026
531,13026
528,13026
527,13026
" style="stroke:#ffffff;stroke-width:7;
stroke-linejoin:bevel; stroke-linecap:butt;
"/>
<!-- Line -->
<!--  polyline  -->
<polyline points="555,13091
545,13076
582,13067
574,13074
633,13084
618,13095
562,13086
555,13091
" style="stroke:#ffffff;stroke-width:0;
stroke-linejoin:miter; stroke-linecap:butt;
fill:#ffffff;
"/>
<!-- Line -->
<!--  polyline  -->
<polyline points="502,13055
508,13070
474,13077
480,13072
423,13062
437,13051
493,13062
502,13055
" style="stroke:#ffffff;stroke-width:0;
stroke-linejoin:miter; stroke-linecap:butt;
fill:#ffffff;
"/>
<!-- Line -->
<!--  polyline  -->
<polyline points="520,13099
482,13110
482,13093
491,13095
510,13080
528,13082
508,13097
520,13099
" style="stroke:#ffffff;stroke-width:0;
stroke-linejoin:miter; stroke-linecap:butt;
fill:#ffffff;
"/>
<!-- Line -->
<!--  polyline  -->
<polyline points="537,13041
573,13034
574,13051
564,13048
544,13065
526,13062
547,13044
537,13041
" style="stroke:#ffffff;stroke-width:0;
stroke-linejoin:miter; stroke-linecap:butt;
fill:#ffffff;
"/>
</g>
</svg>
