<?xml version="1.0" standalone="no"?>
<!DOCTYPE svg PUBLIC "-//W3C//DTD SVG 1.1//EN"
"http://www.w3.org/Graphics/SVG/1.1/DTD/svg11.dtd">
<!-- Creator: fig2dev Version 3.2 Patchlevel 5c -->
<!-- CreationDate: Fri Sep 14 10:46:49 2012 -->
<!-- Magnification: 1.000 -->
<svg xmlns="http://www.w3.org/2000/svg" width="0.4in" height="0.6in" viewBox="-9 12447 439 762">
<g style="stroke-width:.025in; fill:none">
<!-- Line -->
<!--  spline  -->
<polyline points="116,12763
115,12763
108,12765
98,12767
91,12769
90,12769
89,12769
86,12771
79,12773
71,12776
61,12781
51,12786
47,12788
46,12789
42,12791
33,12797
25,12803
21,12806
20,12808
17,12811
11,12818
6,12826
4,12832
3,12837
3,12840
3,12841
3,12842
6,12848
9,12857
12,12863
12,12864
12,12865
15,12867
19,12872
25,12878
34,12885
43,12891
47,12894
49,12895
54,12897
64,12903
74,12908
79,12910
80,12911
85,12913
94,12917
103,12921
110,12923
115,12924
117,12925
118,12925
" style="stroke:#036998;stroke-width:0;
stroke-linejoin:bevel; stroke-linecap:butt;
fill:#036998;
"/>
<!-- Line -->
<!--  spline  -->
<polyline points="116,12763
115,12763
108,12765
98,12767
91,12769
90,12769
89,12769
86,12771
79,12773
71,12776
61,12781
51,12786
47,12788
46,12789
42,12791
33,12797
25,12803
21,12806
20,12808
17,12811
11,12818
6,12826
4,12832
3,12837
3,12840
3,12841
3,12842
6,12848
9,12857
12,12863
12,12864
12,12865
15,12867
19,12872
25,12878
34,12885
43,12891
47,12894
49,12895
54,12897
64,12903
74,12908
79,12910
80,12911
85,12913
94,12917
103,12921
110,12923
115,12924
117,12925
118,12925
" style="stroke:#ffffff;stroke-width:7;
stroke-linejoin:bevel; stroke-linecap:butt;
"/>
<!-- Line -->
<!--  spline  -->
<polyline points="298,12465
297,12466
290,12469
279,12473
272,12476
271,12477
270,12477
267,12479
262,12483
254,12489
244,12497
232,12509
223,12519
216,12526
213,12529
211,12531
209,12533
206,12537
199,12546
190,12558
181,12571
175,12580
171,12584
170,12587
168,12589
165,12594
160,12604
152,12618
145,12633
139,12646
134,12657
131,12667
128,12675
126,12681
125,12684
125,12686
123,12695
120,12708
118,12717
118,12719
118,12720
117,12724
117,12732
116,12741
115,12754
115,12766
115,12771
115,12773
115,12778
115,12789
115,12800
115,12805
115,12806
116,12811
116,12821
116,12832
117,12840
117,12847
117,12850
117,12851
117,12852
117,12859
116,12869
116,12876
116,12877
116,12878
116,12881
116,12887
116,12895
116,12905
116,12914
116,12918
116,12920
116,12924
116,12933
117,12942
117,12946
117,12948
118,12951
119,12961
121,12971
122,12979
124,12986
125,12989
125,12990
125,12991
128,12996
132,13007
139,13022
146,13036
150,13047
153,13052
153,13053
155,13056
158,13061
163,13068
168,13076
175,13086
183,13097
193,13109
205,13124
212,13131
215,13134
218,13137
225,13143
237,13155
249,13166
256,13171
258,13173
261,13175
267,13179
277,13186
289,13192
296,13195
301,13197
304,13197
305,13197
" style="stroke:#036998;stroke-width:0;
stroke-linejoin:bevel; stroke-linecap:butt;
fill:#036998;
"/>
<!-- Line -->
<!--  spline  -->
<polyline points="298,12465
297,12466
290,12469
279,12473
272,12476
271,12477
270,12477
267,12479
262,12483
254,12489
244,12497
232,12509
223,12519
216,12526
213,12529
211,12531
209,12533
206,12537
199,12546
190,12558
181,12571
175,12580
171,12584
170,12587
168,12589
165,12594
160,12604
152,12618
145,12633
139,12646
134,12657
131,12667
128,12675
126,12681
125,12684
125,12686
123,12695
120,12708
118,12717
118,12719
118,12720
117,12724
117,12732
116,12741
115,12754
115,12766
115,12771
115,12773
115,12778
115,12789
115,12800
115,12805
115,12806
116,12811
116,12821
116,12832
117,12840
117,12847
117,12850
117,12851
117,12852
117,12859
116,12869
116,12876
116,12877
116,12878
116,12881
116,12887
116,12895
116,12905
116,12914
116,12918
116,12920
116,12924
116,12933
117,12942
117,12946
117,12948
118,12951
119,12961
121,12971
122,12979
124,12986
125,12989
125,12990
125,12991
128,12996
132,13007
139,13022
146,13036
150,13047
153,13052
153,13053
155,13056
158,13061
163,13068
168,13076
175,13086
183,13097
193,13109
205,13124
212,13131
215,13134
218,13137
225,13143
237,13155
249,13166
256,13171
258,13173
261,13175
267,13179
277,13186
289,13192
296,13195
301,13197
304,13197
305,13197
" style="stroke:#ffffff;stroke-width:7;
stroke-linejoin:bevel; stroke-linecap:butt;
"/>
<!-- Line -->
<!--  spline  -->
<polyline points="313,13197
314,13196
319,13193
330,13187
340,13182
345,13179
346,13178
346,13177
349,13174
354,13168
360,13158
367,13145
375,13126
381,13110
385,13099
387,13093
388,13090
389,13087
390,13080
393,13067
398,13046
401,13028
404,13015
406,13006
407,13001
407,12999
407,12996
408,12991
409,12981
411,12965
413,12945
415,12924
416,12904
417,12887
417,12872
418,12859
418,12847
418,12837
418,12831
418,12828
418,12827
418,12822
417,12810
416,12792
415,12769
415,12747
414,12729
413,12717
413,12712
413,12711
413,12708
412,12703
411,12694
410,12684
408,12672
407,12659
404,12644
402,12628
398,12610
393,12589
390,12576
389,12569
388,12566
387,12563
385,12557
381,12546
375,12530
367,12512
363,12502
361,12499
360,12496
355,12489
346,12478
336,12468
328,12463
322,12461
316,12459
314,12459
313,12459
312,12460
307,12463
296,12469
286,12474
281,12477
280,12478
280,12479
277,12482
272,12488
266,12498
259,12511
251,12530
245,12546
241,12557
239,12563
238,12566
237,12569
236,12576
233,12589
228,12610
225,12628
222,12641
220,12650
219,12655
219,12657
219,12660
218,12665
217,12675
215,12691
213,12711
211,12732
210,12752
209,12769
209,12784
208,12797
208,12809
208,12819
208,12825
208,12828
208,12829
208,12834
209,12846
210,12864
211,12887
211,12909
212,12927
213,12939
213,12944
213,12945
213,12948
214,12953
215,12962
216,12972
218,12984
219,12997
222,13012
224,13028
228,13046
233,13067
236,13080
237,13087
238,13090
239,13093
241,13099
245,13110
251,13126
259,13144
263,13154
265,13157
266,13160
271,13167
280,13178
290,13188
298,13193
304,13195
310,13197
312,13197
313,13197
" style="stroke:#036998;stroke-width:0;
stroke-linejoin:bevel; stroke-linecap:butt;
fill:#036998;
"/>
<!-- Line -->
<!--  spline  -->
<polyline points="313,13197
314,13196
319,13193
330,13187
340,13182
345,13179
346,13178
346,13177
349,13174
354,13168
360,13158
367,13145
375,13126
381,13110
385,13099
387,13093
388,13090
389,13087
390,13080
393,13067
398,13046
401,13028
404,13015
406,13006
407,13001
407,12999
407,12996
408,12991
409,12981
411,12965
413,12945
415,12924
416,12904
417,12887
417,12872
418,12859
418,12847
418,12837
418,12831
418,12828
418,12827
418,12822
417,12810
416,12792
415,12769
415,12747
414,12729
413,12717
413,12712
413,12711
413,12708
412,12703
411,12694
410,12684
408,12672
407,12659
404,12644
402,12628
398,12610
393,12589
390,12576
389,12569
388,12566
387,12563
385,12557
381,12546
375,12530
367,12512
363,12502
361,12499
360,12496
355,12489
346,12478
336,12468
328,12463
322,12461
316,12459
314,12459
313,12459
312,12460
307,12463
296,12469
286,12474
281,12477
280,12478
280,12479
277,12482
272,12488
266,12498
259,12511
251,12530
245,12546
241,12557
239,12563
238,12566
237,12569
236,12576
233,12589
228,12610
225,12628
222,12641
220,12650
219,12655
219,12657
219,12660
218,12665
217,12675
215,12691
213,12711
211,12732
210,12752
209,12769
209,12784
208,12797
208,12809
208,12819
208,12825
208,12828
208,12829
208,12834
209,12846
210,12864
211,12887
211,12909
212,12927
213,12939
213,12944
213,12945
213,12948
214,12953
215,12962
216,12972
218,12984
219,12997
222,13012
224,13028
228,13046
233,13067
236,13080
237,13087
238,13090
239,13093
241,13099
245,13110
251,13126
259,13144
263,13154
265,13157
266,13160
271,13167
280,13178
290,13188
298,13193
304,13195
310,13197
312,13197
313,13197
" style="stroke:#ffffff;stroke-width:7;
stroke-linejoin:bevel; stroke-linecap:butt;
"/>
<!-- Line -->
<!--  spline  -->
<polyline points="400,12778
399,12776
399,12772
398,12770
397,12769
396,12767
395,12765
392,12762
389,12760
388,12759
388,12758
386,12758
383,12756
379,12755
378,12754
377,12754
375,12754
371,12753
366,12752
363,12752
360,12752
358,12752
357,12752
354,12751
349,12751
346,12750
345,12750
343,12750
341,12749
338,12749
334,12748
331,12748
329,12747
328,12747
325,12747
323,12747
322,12748
321,12747
321,12748
319,12750
318,12753
317,12756
317,12759
317,12761
317,12762
317,12766
317,12775
317,12791
318,12812
318,12837
318,12861
319,12882
319,12898
319,12907
319,12911
319,12912
319,12913
320,12915
321,12919
322,12921
322,12922
323,12923
323,12924
325,12925
327,12925
330,12925
331,12925
331,12924
333,12924
336,12923
340,12922
341,12921
342,12921
344,12920
348,12919
353,12918
356,12917
359,12917
361,12917
362,12917
365,12916
370,12916
373,12915
374,12915
376,12915
378,12914
381,12913
385,12911
388,12909
390,12908
391,12907
394,12905
396,12903
397,12901
398,12901
398,12900
400,12897
401,12894
402,12891
402,12889
402,12888
402,12887
402,12882
402,12872
401,12854
401,12833
401,12812
400,12794
400,12784
400,12779
400,12778
" style="stroke:#036998;stroke-width:0;
stroke-linejoin:bevel; stroke-linecap:butt;
fill:#036998;
"/>
<!-- Line -->
<!--  spline  -->
<polyline points="400,12778
399,12776
399,12772
398,12770
397,12769
396,12767
395,12765
392,12762
389,12760
388,12759
388,12758
386,12758
383,12756
379,12755
378,12754
377,12754
375,12754
371,12753
366,12752
363,12752
360,12752
358,12752
357,12752
354,12751
349,12751
346,12750
345,12750
343,12750
341,12749
338,12749
334,12748
331,12748
329,12747
328,12747
325,12747
323,12747
322,12748
321,12747
321,12748
319,12750
318,12753
317,12756
317,12759
317,12761
317,12762
317,12766
317,12775
317,12791
318,12812
318,12837
318,12861
319,12882
319,12898
319,12907
319,12911
319,12912
319,12913
320,12915
321,12919
322,12921
322,12922
323,12923
323,12924
325,12925
327,12925
330,12925
331,12925
331,12924
333,12924
336,12923
340,12922
341,12921
342,12921
344,12920
348,12919
353,12918
356,12917
359,12917
361,12917
362,12917
365,12916
370,12916
373,12915
374,12915
376,12915
378,12914
381,12913
385,12911
388,12909
390,12908
391,12907
394,12905
396,12903
397,12901
398,12901
398,12900
400,12897
401,12894
402,12891
402,12889
402,12888
402,12887
402,12882
402,12872
401,12854
401,12833
401,12812
400,12794
400,12784
400,12779
400,12778
" style="stroke:#ffffff;stroke-width:7;
stroke-linejoin:bevel; stroke-linecap:butt;
"/>
<!-- Line -->
<!--  spline  -->
<polyline points="248,13092
248,13091
251,13086
258,13075
268,13057
281,13034
294,13012
304,12994
311,12983
314,12978
314,12977
316,12975
320,12971
322,12969
323,12969
325,12969
326,12969
329,12970
331,12972
332,12973
333,12974
336,12977
339,12980
340,12981
340,12982
342,12984
345,12987
349,12990
352,12993
355,12995
357,12996
358,12996
361,12998
365,13002
368,13004
369,13004
371,13006
373,13008
375,13010
378,13014
380,13017
381,13019
382,13021
383,13024
384,13027
385,13029
385,13031
385,13034
385,13037
384,13040
383,13042
382,13043
382,13044
379,13048
374,13057
365,13072
354,13090
343,13108
334,13123
329,13132
326,13136
326,13137
324,13139
322,13142
320,13144
319,13145
316,13145
314,13146
310,13147
306,13147
305,13147
304,13147
303,13147
299,13147
295,13146
293,13146
292,13146
290,13145
286,13144
281,13142
277,13141
274,13139
272,13138
271,13137
270,13136
269,13136
268,13135
267,13135
266,13135
266,13134
265,13134
264,13134
264,13133
263,13133
262,13133
261,13132
260,13132
" style="stroke:#036998;stroke-width:0;
stroke-linejoin:bevel; stroke-linecap:butt;
fill:#036998;
"/>
<!-- Line -->
<!--  spline  -->
<polyline points="248,13092
248,13091
251,13086
258,13075
268,13057
281,13034
294,13012
304,12994
311,12983
314,12978
314,12977
316,12975
320,12971
322,12969
323,12969
325,12969
326,12969
329,12970
331,12972
332,12973
333,12974
336,12977
339,12980
340,12981
340,12982
342,12984
345,12987
349,12990
352,12993
355,12995
357,12996
358,12996
361,12998
365,13002
368,13004
369,13004
371,13006
373,13008
375,13010
378,13014
380,13017
381,13019
382,13021
383,13024
384,13027
385,13029
385,13031
385,13034
385,13037
384,13040
383,13042
382,13043
382,13044
379,13048
374,13057
365,13072
354,13090
343,13108
334,13123
329,13132
326,13136
326,13137
324,13139
322,13142
320,13144
319,13145
316,13145
314,13146
310,13147
306,13147
305,13147
304,13147
303,13147
299,13147
295,13146
293,13146
292,13146
290,13145
286,13144
281,13142
277,13141
274,13139
272,13138
271,13137
270,13136
269,13136
268,13135
267,13135
266,13135
266,13134
265,13134
264,13134
264,13133
263,13133
262,13133
261,13132
260,13132
" style="stroke:#ffffff;stroke-width:7;
stroke-linejoin:bevel; stroke-linecap:butt;
"/>
<!-- Line -->
<!--  spline  -->
<polyline points="223,12987
225,12989
226,12992
228,12994
229,12995
229,12996
231,12998
232,13000
233,13002
234,13002
235,13003
236,13004
238,13005
239,13005
241,13006
243,13006
244,13007
245,13007
246,13007
247,13007
252,13005
259,13001
264,12999
265,12999
268,12996
271,12992
276,12985
281,12975
285,12966
287,12961
288,12959
288,12957
290,12951
293,12939
296,12927
297,12920
298,12917
298,12915
299,12907
301,12893
302,12878
303,12865
304,12855
304,12846
304,12842
304,12841
304,12839
303,12831
302,12814
302,12798
301,12790
301,12788
301,12787
300,12783
299,12776
298,12766
296,12755
293,12742
290,12730
288,12724
288,12722
287,12720
285,12715
281,12706
276,12697
274,12693
273,12692
271,12689
265,12683
258,12678
253,12676
249,12674
247,12674
246,12674
244,12675
241,12675
239,12676
238,12676
237,12677
235,12678
233,12680
231,12682
230,12683
229,12684
227,12687
225,12690
224,12691
224,12692
223,12693
221,12697
219,12701
218,12704
217,12707
216,12709
" style="stroke:#036998;stroke-width:0;
stroke-linejoin:bevel; stroke-linecap:butt;
fill:#036998;
"/>
<!-- Line -->
<!--  spline  -->
<polyline points="223,12987
225,12989
226,12992
228,12994
229,12995
229,12996
231,12998
232,13000
233,13002
234,13002
235,13003
236,13004
238,13005
239,13005
241,13006
243,13006
244,13007
245,13007
246,13007
247,13007
252,13005
259,13001
264,12999
265,12999
268,12996
271,12992
276,12985
281,12975
285,12966
287,12961
288,12959
288,12957
290,12951
293,12939
296,12927
297,12920
298,12917
298,12915
299,12907
301,12893
302,12878
303,12865
304,12855
304,12846
304,12842
304,12841
304,12839
303,12831
302,12814
302,12798
301,12790
301,12788
301,12787
300,12783
299,12776
298,12766
296,12755
293,12742
290,12730
288,12724
288,12722
287,12720
285,12715
281,12706
276,12697
274,12693
273,12692
271,12689
265,12683
258,12678
253,12676
249,12674
247,12674
246,12674
244,12675
241,12675
239,12676
238,12676
237,12677
235,12678
233,12680
231,12682
230,12683
229,12684
227,12687
225,12690
224,12691
224,12692
223,12693
221,12697
219,12701
218,12704
217,12707
216,12709
" style="stroke:#ffffff;stroke-width:7;
stroke-linejoin:bevel; stroke-linecap:butt;
"/>
<!-- Line -->
<!--  spline  -->
<polyline points="216,12923
217,12923
223,12923
232,12923
238,12923
239,12923
240,12923
246,12922
254,12920
260,12919
261,12919
263,12918
266,12915
270,12912
274,12907
277,12902
279,12899
279,12898
280,12896
282,12889
283,12882
284,12879
283,12878
284,12875
284,12867
284,12858
285,12851
285,12845
285,12842
285,12841
285,12840
285,12833
284,12823
284,12816
284,12815
284,12814
284,12811
284,12806
283,12800
282,12792
280,12786
279,12783
279,12782
277,12780
274,12775
270,12770
269,12768
268,12768
266,12766
261,12763
254,12761
248,12760
243,12759
240,12759
239,12759
238,12759
232,12759
222,12759
216,12759
215,12759
" style="stroke:#036998;stroke-width:0;
stroke-linejoin:bevel; stroke-linecap:butt;
fill:#036998;
"/>
<!-- Line -->
<!--  spline  -->
<polyline points="216,12923
217,12923
223,12923
232,12923
238,12923
239,12923
240,12923
246,12922
254,12920
260,12919
261,12919
263,12918
266,12915
270,12912
274,12907
277,12902
279,12899
279,12898
280,12896
282,12889
283,12882
284,12879
283,12878
284,12875
284,12867
284,12858
285,12851
285,12845
285,12842
285,12841
285,12840
285,12833
284,12823
284,12816
284,12815
284,12814
284,12811
284,12806
283,12800
282,12792
280,12786
279,12783
279,12782
277,12780
274,12775
270,12770
269,12768
268,12768
266,12766
261,12763
254,12761
248,12760
243,12759
240,12759
239,12759
238,12759
232,12759
222,12759
216,12759
215,12759
" style="stroke:#ffffff;stroke-width:7;
stroke-linejoin:bevel; stroke-linecap:butt;
"/>
<!-- Line -->
<!--  spline  -->
<polyline points="251,12555
251,12556
254,12560
260,12571
270,12588
283,12608
295,12628
305,12645
311,12656
314,12660
314,12661
316,12663
320,12667
322,12669
323,12669
325,12669
326,12669
329,12668
331,12666
332,12665
333,12664
336,12661
339,12658
340,12657
340,12656
342,12655
345,12652
349,12649
352,12646
355,12644
357,12643
358,12643
361,12640
365,12637
368,12634
369,12634
371,12632
373,12630
375,12628
378,12624
380,12621
381,12619
382,12617
383,12614
384,12611
385,12609
385,12607
385,12604
385,12601
384,12598
383,12596
382,12595
382,12594
379,12590
374,12581
365,12566
354,12548
343,12530
334,12515
329,12506
326,12502
326,12501
324,12499
322,12496
320,12494
319,12493
317,12493
315,12492
311,12491
308,12490
306,12490
305,12490
304,12490
300,12490
296,12491
294,12491
292,12492
288,12493
283,12495
280,12496
277,12498
275,12499
" style="stroke:#036998;stroke-width:0;
stroke-linejoin:bevel; stroke-linecap:butt;
fill:#036998;
"/>
<!-- Line -->
<!--  spline  -->
<polyline points="251,12555
251,12556
254,12560
260,12571
270,12588
283,12608
295,12628
305,12645
311,12656
314,12660
314,12661
316,12663
320,12667
322,12669
323,12669
325,12669
326,12669
329,12668
331,12666
332,12665
333,12664
336,12661
339,12658
340,12657
340,12656
342,12655
345,12652
349,12649
352,12646
355,12644
357,12643
358,12643
361,12640
365,12637
368,12634
369,12634
371,12632
373,12630
375,12628
378,12624
380,12621
381,12619
382,12617
383,12614
384,12611
385,12609
385,12607
385,12604
385,12601
384,12598
383,12596
382,12595
382,12594
379,12590
374,12581
365,12566
354,12548
343,12530
334,12515
329,12506
326,12502
326,12501
324,12499
322,12496
320,12494
319,12493
317,12493
315,12492
311,12491
308,12490
306,12490
305,12490
304,12490
300,12490
296,12491
294,12491
292,12492
288,12493
283,12495
280,12496
277,12498
275,12499
" style="stroke:#ffffff;stroke-width:7;
stroke-linejoin:bevel; stroke-linecap:butt;
"/>
</g>
</svg>
