<?xml version="1.0" standalone="no"?>
<!DOCTYPE svg PUBLIC "-//W3C//DTD SVG 1.1//EN"
"http://www.w3.org/Graphics/SVG/1.1/DTD/svg11.dtd">
<!-- Creator: fig2dev Version 3.2 Patchlevel 5c -->
<!-- CreationDate: Fri Sep 14 10:46:49 2012 -->
<!-- Magnification: 1.000 -->
<svg xmlns="http://www.w3.org/2000/svg" width="0.6in" height="0.5in" viewBox="4742 5418 746 548">
<g style="stroke-width:.025in; fill:none">
<!-- Line -->
<!--  polyline  -->
<polyline points="5459,5430
5476,5453
5417,5752
5395,5738
5459,5430
" style="stroke:#04b5de;stroke-width:0;
stroke-linejoin:miter; stroke-linecap:butt;
fill:#04b5de;
"/>
<!-- Line -->
<!--  polyline  -->
<polyline points="5459,5430
5476,5453
5417,5752
5395,5738
5459,5430
" style="stroke:#ffffff;stroke-width:7;
stroke-linejoin:miter; stroke-linecap:butt;
"/>
<!-- Line -->
<!--  spline  -->
<polyline points="5399,5759
5399,5760
5399,5768
5399,5782
5399,5796
5399,5804
5399,5805
5398,5806
5396,5808
5391,5812
5389,5814
5388,5815
5387,5815
5386,5816
5385,5816
5384,5816
5382,5817
5381,5818
5378,5819
5376,5820
5375,5821
5374,5821
5373,5822
5371,5824
5369,5826
5368,5827
5367,5828
5366,5830
5365,5833
5365,5835
5366,5837
5366,5839
5365,5839
5362,5842
5355,5850
5342,5862
5325,5878
5304,5897
5284,5915
5267,5931
5254,5943
5247,5951
5244,5954
5243,5954
5243,5952
5243,5944
5243,5929
5243,5914
5243,5906
5243,5904
5246,5901
5252,5895
5264,5885
5279,5870
5299,5852
5321,5831
5343,5811
5363,5793
5378,5778
5390,5768
5396,5762
5399,5759
" style="stroke:#04b5de;stroke-width:0;
stroke-linejoin:bevel; stroke-linecap:butt;
fill:#04b5de;
"/>
<!-- Line -->
<!--  spline  -->
<polyline points="5399,5759
5399,5760
5399,5768
5399,5782
5399,5796
5399,5804
5399,5805
5398,5806
5396,5808
5391,5812
5389,5814
5388,5815
5387,5815
5386,5816
5385,5816
5384,5816
5382,5817
5381,5818
5378,5819
5376,5820
5375,5821
5374,5821
5373,5822
5371,5824
5369,5826
5368,5827
5367,5828
5366,5830
5365,5833
5365,5835
5366,5837
5366,5839
5365,5839
5362,5842
5355,5850
5342,5862
5325,5878
5304,5897
5284,5915
5267,5931
5254,5943
5247,5951
5244,5954
5243,5954
5243,5952
5243,5944
5243,5929
5243,5914
5243,5906
5243,5904
5246,5901
5252,5895
5264,5885
5279,5870
5299,5852
5321,5831
5343,5811
5363,5793
5378,5778
5390,5768
5396,5762
5399,5759
" style="stroke:#ffffff;stroke-width:7;
stroke-linejoin:bevel; stroke-linecap:butt;
"/>
<!-- Line -->
<!--  polyline  -->
<polyline points="4754,5904
4754,5954
5243,5954
5243,5904
4754,5904
" style="stroke:#04b5de;stroke-width:0;
stroke-linejoin:miter; stroke-linecap:butt;
fill:#04b5de;
"/>
<!-- Line -->
<!--  polyline  -->
<polyline points="4754,5904
4754,5954
5243,5954
5243,5904
4754,5904
" style="stroke:#ffffff;stroke-width:7;
stroke-linejoin:miter; stroke-linecap:butt;
"/>
<!-- Line -->
<!--  polyline  -->
<polyline points="4949,5762
5399,5759
5243,5904
4754,5904
4949,5762
" style="stroke:#04b5de;stroke-width:0;
stroke-linejoin:miter; stroke-linecap:butt;
fill:#04b5de;
"/>
<!-- Line -->
<!--  polyline  -->
<polyline points="4949,5762
5399,5759
5243,5904
4754,5904
4949,5762
" style="stroke:#ffffff;stroke-width:7;
stroke-linejoin:miter; stroke-linecap:butt;
"/>
<!-- Line -->
<!--  polyline  -->
<polyline points="5395,5738
5459,5430
5015,5430
4944,5738
5395,5738
" style="stroke:#04b5de;stroke-width:0;
stroke-linejoin:miter; stroke-linecap:butt;
fill:#04b5de;
"/>
<!-- Line -->
<!--  polyline  -->
<polyline points="5395,5738
5459,5430
5015,5430
4944,5738
5395,5738
" style="stroke:#ffffff;stroke-width:7;
stroke-linejoin:miter; stroke-linecap:butt;
"/>
<!-- Line -->
<!--  polyline  -->
<polyline points="5357,5708
5409,5467
5048,5467
4996,5708
5357,5708
" style="stroke:#ffffff;stroke-width:0;
stroke-linejoin:miter; stroke-linecap:butt;
fill:#ffffff;
"/>
<!-- Line -->
<!--  polyline  -->
<polyline points="5357,5708
5409,5467
5048,5467
4996,5708
5357,5708
" style="stroke:#ffffff;stroke-width:7;
stroke-linejoin:miter; stroke-linecap:butt;
"/>
<!-- Line -->
<!--  polyline  -->
<polyline points="4960,5765
4846,5857
" style="stroke:#ffffff;stroke-width:7;
stroke-linejoin:round; stroke-linecap:butt;
"/>
<!-- Line -->
<!--  polyline  -->
<polyline points="4996,5765
4883,5857
" style="stroke:#ffffff;stroke-width:7;
stroke-linejoin:round; stroke-linecap:butt;
"/>
<!-- Line -->
<!--  polyline  -->
<polyline points="5033,5765
4919,5857
" style="stroke:#ffffff;stroke-width:7;
stroke-linejoin:round; stroke-linecap:butt;
"/>
<!-- Line -->
<!--  polyline  -->
<polyline points="5069,5765
4955,5857
" style="stroke:#ffffff;stroke-width:7;
stroke-linejoin:round; stroke-linecap:butt;
"/>
<!-- Line -->
<!--  polyline  -->
<polyline points="5105,5765
4992,5857
" style="stroke:#ffffff;stroke-width:7;
stroke-linejoin:round; stroke-linecap:butt;
"/>
<!-- Line -->
<!--  polyline  -->
<polyline points="5142,5765
5028,5857
" style="stroke:#ffffff;stroke-width:7;
stroke-linejoin:round; stroke-linecap:butt;
"/>
<!-- Line -->
<!--  polyline  -->
<polyline points="5178,5765
5065,5857
" style="stroke:#ffffff;stroke-width:7;
stroke-linejoin:round; stroke-linecap:butt;
"/>
<!-- Line -->
<!--  polyline  -->
<polyline points="5215,5765
5101,5857
" style="stroke:#ffffff;stroke-width:7;
stroke-linejoin:round; stroke-linecap:butt;
"/>
<!-- Line -->
<!--  polyline  -->
<polyline points="5251,5765
5138,5857
" style="stroke:#ffffff;stroke-width:7;
stroke-linejoin:round; stroke-linecap:butt;
"/>
<!-- Line -->
<!--  polyline  -->
<polyline points="5288,5765
5174,5857
" style="stroke:#ffffff;stroke-width:7;
stroke-linejoin:round; stroke-linecap:butt;
"/>
<!-- Line -->
<!--  polyline  -->
<polyline points="5324,5765
5211,5857
" style="stroke:#ffffff;stroke-width:7;
stroke-linejoin:round; stroke-linecap:butt;
"/>
<!-- Line -->
<!--  polyline  -->
<polyline points="5361,5765
5247,5857
" style="stroke:#ffffff;stroke-width:7;
stroke-linejoin:round; stroke-linecap:butt;
"/>
<!-- Line -->
<!--  polyline  -->
<polyline points="4859,5847
5263,5847
" style="stroke:#ffffff;stroke-width:7;
stroke-linejoin:round; stroke-linecap:butt;
"/>
<!-- Line -->
<!--  polyline  -->
<polyline points="4886,5826
5284,5826
" style="stroke:#ffffff;stroke-width:7;
stroke-linejoin:round; stroke-linecap:butt;
"/>
<!-- Line -->
<!--  polyline  -->
<polyline points="4914,5805
5311,5805
" style="stroke:#ffffff;stroke-width:7;
stroke-linejoin:round; stroke-linecap:butt;
"/>
<!-- Line -->
<!--  polyline  -->
<polyline points="4939,5784
5339,5784
" style="stroke:#ffffff;stroke-width:7;
stroke-linejoin:round; stroke-linecap:butt;
"/>
<!-- Text -->
<!--  text  -->
<text xml:space="preserve" x="5090" y="5634" fill="#000000"  font-family="Helvetica" font-style="normal" font-weight="bold" font-size="84" text-anchor="start">S</text>
<!-- Text -->
<!--  text  -->
<text xml:space="preserve" x="5157" y="5634" fill="#000000"  font-family="Helvetica" font-style="normal" font-weight="bold" font-size="84" text-anchor="start">S</text>
<!-- Text -->
<!--  text  -->
<text xml:space="preserve" x="5223" y="5634" fill="#000000"  font-family="Helvetica" font-style="normal" font-weight="bold" font-size="84" text-anchor="start">C</text>
</g>
</svg>
