<?xml version="1.0" standalone="no"?>
<!DOCTYPE svg PUBLIC "-//W3C//DTD SVG 1.1//EN"
"http://www.w3.org/Graphics/SVG/1.1/DTD/svg11.dtd">
<!-- Creator: fig2dev Version 3.2 Patchlevel 5c -->
<!-- CreationDate: Fri Sep 14 10:46:49 2012 -->
<!-- Magnification: 1.000 -->
<svg xmlns="http://www.w3.org/2000/svg" width="0.4in" height="0.4in" viewBox="-9 12719 535 488">
<g style="stroke-width:.025in; fill:none">
<!-- Line -->
<!--  polyline  -->
<polyline points="3,13195
131,13137
514,13137
386,13195
3,13195
" style="stroke:#036998;stroke-width:0;
stroke-linejoin:miter; stroke-linecap:butt;
fill:#036998;
"/>
<!-- Line -->
<!--  polyline  -->
<polyline points="3,13195
131,13137
514,13137
386,13195
3,13195
" style="stroke:#ffffff;stroke-width:7;
stroke-linejoin:miter; stroke-linecap:butt;
"/>
<!-- Line -->
<!--  polyline  -->
<polyline points="3,12789
131,12731
131,13137
3,13195
3,12789
" style="stroke:#036998;stroke-width:0;
stroke-linejoin:miter; stroke-linecap:butt;
fill:#036998;
"/>
<!-- Line -->
<!--  polyline  -->
<polyline points="3,12789
131,12731
131,13137
3,13195
3,12789
" style="stroke:#ffffff;stroke-width:7;
stroke-linejoin:miter; stroke-linecap:butt;
"/>
<!-- Line -->
<!--  polyline  -->
<polyline points="131,12731
514,12731
514,13137
131,13137
131,12731
" style="stroke:#036998;stroke-width:0;
stroke-linejoin:miter; stroke-linecap:butt;
fill:#036998;
"/>
<!-- Line -->
<!--  polyline  -->
<polyline points="131,12731
514,12731
514,13137
131,13137
131,12731
" style="stroke:#ffffff;stroke-width:7;
stroke-linejoin:miter; stroke-linecap:butt;
"/>
<!-- Line -->
<!--  polyline  -->
<polyline points="3,12789
131,12731
514,12731
386,12789
3,12789
" style="stroke:#036998;stroke-width:0;
stroke-linejoin:miter; stroke-linecap:butt;
fill:#036998;
"/>
<!-- Line -->
<!--  polyline  -->
<polyline points="3,12789
131,12731
514,12731
386,12789
3,12789
" style="stroke:#ffffff;stroke-width:7;
stroke-linejoin:miter; stroke-linecap:butt;
"/>
<!-- Line -->
<!--  polyline  -->
<polyline points="183,12850
398,12850
" style="stroke:#036998;stroke-width:0;
stroke-linejoin:miter; stroke-linecap:butt;
fill:#036998;
"/>
<!-- Line -->
<!--  polyline  -->
<polyline points="183,12850
398,12850
" style="stroke:#ffffff;stroke-width:7;
stroke-linejoin:miter; stroke-linecap:butt;
"/>
<!-- Line -->
<!--  polyline  -->
<polyline points="183,13108
398,13108
" style="stroke:#036998;stroke-width:0;
stroke-linejoin:miter; stroke-linecap:butt;
fill:#036998;
"/>
<!-- Line -->
<!--  polyline  -->
<polyline points="183,13108
398,13108
" style="stroke:#ffffff;stroke-width:7;
stroke-linejoin:miter; stroke-linecap:butt;
"/>
<!-- Line -->
<!--  polyline  -->
<polyline points="287,12960
372,12934
287,12909
287,12960
" style="stroke:#ffffff;stroke-width:0;
stroke-linejoin:miter; stroke-linecap:butt;
fill:#ffffff;
"/>
<!-- Line -->
<!--  polyline  -->
<polyline points="287,12960
372,12934
287,12909
287,12960
" style="stroke:#ffffff;stroke-width:7;
stroke-linejoin:miter; stroke-linecap:butt;
"/>
<!-- Line -->
<!--  polyline  -->
<polyline points="386,12789
514,12731
514,13137
386,13195
386,12789
" style="stroke:#036998;stroke-width:0;
stroke-linejoin:miter; stroke-linecap:butt;
fill:#036998;
"/>
<!-- Line -->
<!--  polyline  -->
<polyline points="386,12789
514,12731
514,13137
386,13195
386,12789
" style="stroke:#ffffff;stroke-width:7;
stroke-linejoin:miter; stroke-linecap:butt;
"/>
<!-- Line -->
<!--  spline  -->
<polyline points="450,12853
453,12855
456,12857
459,12859
461,12861
463,12864
466,12868
470,12875
473,12882
475,12886
476,12887
477,12891
480,12901
483,12911
484,12916
485,12918
486,12923
488,12935
489,12947
490,12957
491,12965
491,12972
491,12975
491,12976
491,12977
490,12983
489,12995
489,13007
488,13013
488,13014
488,13015
487,13020
485,13027
483,13036
480,13048
477,13058
476,13062
475,13064
473,13067
470,13075
466,13082
465,13085
464,13086
462,13088
459,13092
456,13095
454,13097
452,13098
451,13098
450,13098
449,13098
447,13096
443,13094
441,13092
440,13092
438,13090
436,13087
434,13082
430,13075
427,13067
425,13064
425,13062
424,13058
421,13048
419,13037
418,13033
417,13031
417,13026
415,13014
414,13003
413,12993
412,12986
412,12980
412,12977
412,12976
412,12975
413,12968
414,12955
414,12943
415,12936
415,12935
415,12934
416,12929
417,12922
418,12912
421,12901
424,12891
425,12887
425,12886
427,12882
430,12875
433,12868
435,12866
435,12865
437,12863
440,12859
444,12856
446,12854
448,12853
450,12853
" style="stroke:#036998;stroke-width:0;
stroke-linejoin:bevel; stroke-linecap:butt;
fill:#036998;
"/>
<!-- Line -->
<!--  spline  -->
<polyline points="450,12853
453,12855
456,12857
459,12859
461,12861
463,12864
466,12868
470,12875
473,12882
475,12886
476,12887
477,12891
480,12901
483,12911
484,12916
485,12918
486,12923
488,12935
489,12947
490,12957
491,12965
491,12972
491,12975
491,12976
491,12977
490,12983
489,12995
489,13007
488,13013
488,13014
488,13015
487,13020
485,13027
483,13036
480,13048
477,13058
476,13062
475,13064
473,13067
470,13075
466,13082
465,13085
464,13086
462,13088
459,13092
456,13095
454,13097
452,13098
451,13098
450,13098
449,13098
447,13096
443,13094
441,13092
440,13092
438,13090
436,13087
434,13082
430,13075
427,13067
425,13064
425,13062
424,13058
421,13048
419,13037
418,13033
417,13031
417,13026
415,13014
414,13003
413,12993
412,12986
412,12980
412,12977
412,12976
412,12975
413,12968
414,12955
414,12943
415,12936
415,12935
415,12934
416,12929
417,12922
418,12912
421,12901
424,12891
425,12887
425,12886
427,12882
430,12875
433,12868
435,12866
435,12865
437,12863
440,12859
444,12856
446,12854
448,12853
450,12853
" style="stroke:#ffffff;stroke-width:7;
stroke-linejoin:bevel; stroke-linecap:butt;
"/>
<!-- Line -->
<!--  spline  -->
<polyline points="185,12850
188,12852
191,12855
194,12857
196,12859
198,12862
202,12867
206,12874
210,12882
211,12885
212,12887
214,12891
217,12901
220,12911
221,12916
222,12918
222,12920
223,12926
225,12937
226,12949
227,12959
228,12968
228,12975
228,12978
228,12979
228,12980
227,12987
226,13000
226,13012
225,13019
225,13020
225,13021
224,13024
223,13030
222,13037
220,13046
217,13056
214,13066
212,13070
211,13072
210,13075
206,13083
202,13090
200,13094
199,13095
198,13097
194,13102
191,13105
189,13107
187,13108
186,13108
185,13108
184,13108
182,13106
177,13104
175,13102
174,13102
172,13100
170,13096
167,13091
163,13083
159,13075
158,13072
157,13070
155,13066
152,13056
149,13046
148,13041
147,13039
147,13037
146,13031
144,13020
143,13008
142,12998
141,12990
141,12983
141,12980
141,12979
141,12978
142,12971
143,12958
143,12945
144,12938
144,12937
144,12936
145,12933
146,12927
147,12920
149,12911
152,12901
155,12891
157,12887
158,12885
159,12882
163,12874
167,12867
168,12864
169,12863
170,12861
174,12857
178,12853
181,12851
183,12850
185,12850
" style="stroke:#036998;stroke-width:0;
stroke-linejoin:bevel; stroke-linecap:butt;
fill:#036998;
"/>
<!-- Line -->
<!--  spline  -->
<polyline points="185,12850
188,12852
191,12855
194,12857
196,12859
198,12862
202,12867
206,12874
210,12882
211,12885
212,12887
214,12891
217,12901
220,12911
221,12916
222,12918
222,12920
223,12926
225,12937
226,12949
227,12959
228,12968
228,12975
228,12978
228,12979
228,12980
227,12987
226,13000
226,13012
225,13019
225,13020
225,13021
224,13024
223,13030
222,13037
220,13046
217,13056
214,13066
212,13070
211,13072
210,13075
206,13083
202,13090
200,13094
199,13095
198,13097
194,13102
191,13105
189,13107
187,13108
186,13108
185,13108
184,13108
182,13106
177,13104
175,13102
174,13102
172,13100
170,13096
167,13091
163,13083
159,13075
158,13072
157,13070
155,13066
152,13056
149,13046
148,13041
147,13039
147,13037
146,13031
144,13020
143,13008
142,12998
141,12990
141,12983
141,12980
141,12979
141,12978
142,12971
143,12958
143,12945
144,12938
144,12937
144,12936
145,12933
146,12927
147,12920
149,12911
152,12901
155,12891
157,12887
158,12885
159,12882
163,12874
167,12867
168,12864
169,12863
170,12861
174,12857
178,12853
181,12851
183,12850
185,12850
" style="stroke:#ffffff;stroke-width:7;
stroke-linejoin:bevel; stroke-linecap:butt;
"/>
<!-- Line -->
<!--  polyline  -->
<polyline points="375,13022
288,13022
" style="stroke:#036998;stroke-width:0;
stroke-linejoin:miter; stroke-linecap:butt;
fill:#036998;
"/>
<!-- Line -->
<!--  polyline  -->
<polyline points="375,13022
288,13022
" style="stroke:#ffffff;stroke-width:15;
stroke-linejoin:miter; stroke-linecap:butt;
"/>
<!-- Line -->
<!--  polyline  -->
<polyline points="201,12933
288,12933
" style="stroke:#036998;stroke-width:0;
stroke-linejoin:miter; stroke-linecap:butt;
fill:#036998;
"/>
<!-- Line -->
<!--  polyline  -->
<polyline points="201,12933
288,12933
" style="stroke:#ffffff;stroke-width:15;
stroke-linejoin:miter; stroke-linecap:butt;
"/>
<!-- Line -->
<!--  polyline  -->
<polyline points="293,12998
209,13024
293,13048
293,12998
" style="stroke:#ffffff;stroke-width:0;
stroke-linejoin:miter; stroke-linecap:butt;
fill:#ffffff;
"/>
<!-- Line -->
<!--  polyline  -->
<polyline points="293,12998
209,13024
293,13048
293,12998
" style="stroke:#ffffff;stroke-width:7;
stroke-linejoin:miter; stroke-linecap:butt;
"/>
</g>
</svg>
