<?xml version="1.0" standalone="no"?>
<!DOCTYPE svg PUBLIC "-//W3C//DTD SVG 1.1//EN"
"http://www.w3.org/Graphics/SVG/1.1/DTD/svg11.dtd">
<!-- Creator: fig2dev Version 3.2 Patchlevel 5c -->
<!-- CreationDate: Fri Sep 14 10:46:50 2012 -->
<!-- Magnification: 1.000 -->
<svg xmlns="http://www.w3.org/2000/svg" width="0.2in" height="0.4in" viewBox="-1 12693 186 508">
<g style="stroke-width:.025in; fill:none">
<!-- Line -->
<!--  spline  -->
<polyline points="2,12984
3,12984
10,12984
23,12984
35,12984
42,12984
43,12984
43,12985
42,12988
40,12997
37,13012
33,13034
28,13062
21,13092
15,13122
10,13150
6,13172
3,13187
1,13196
0,13199
0,13200
2,13200
11,13200
29,13200
47,13200
56,13200
58,13200
58,13199
59,13195
61,13185
65,13169
70,13147
76,13121
81,13095
86,13073
90,13057
92,13047
93,13043
93,13042
93,13043
94,13046
94,13052
95,13055
95,13056
95,13057
96,13060
97,13067
98,13075
100,13088
102,13099
103,13105
103,13108
104,13110
105,13117
107,13129
109,13141
110,13148
111,13151
111,13153
112,13159
114,13170
116,13182
118,13190
119,13195
120,13198
120,13199
122,13199
126,13199
128,13199
130,13199
132,13199
135,13199
140,13199
144,13199
146,13199
147,13199
149,13199
154,13199
159,13199
161,13199
163,13199
168,13199
173,13199
176,13199
179,13199
181,13199
181,13198
179,13191
178,13181
176,13174
176,13173
176,13172
175,13168
174,13161
172,13151
170,13139
167,13122
164,13106
163,13096
162,13092
161,13089
160,13079
157,13063
154,13047
153,13038
152,13035
151,13032
150,13025
148,13012
146,12999
145,12991
144,12986
144,12983
146,12983
148,12983
150,12983
151,12983
153,12983
155,12984
158,12984
161,12984
163,12985
165,12985
168,12985
171,12985
172,12985
173,12985
174,12985
177,12985
180,12985
182,12984
183,12984
184,12984
184,12981
183,12978
183,12975
183,12973
182,12969
182,12965
181,12959
180,12953
180,12951
180,12950
180,12948
179,12942
178,12936
178,12934
178,12932
178,12930
177,12925
177,12921
176,12918
176,12916
176,12915
176,12914
176,12911
175,12907
175,12904
175,12903
175,12901
175,12897
174,12893
173,12886
172,12880
171,12877
171,12875
170,12872
169,12866
168,12860
167,12857
167,12856
166,12854
165,12849
164,12844
163,12841
162,12839
162,12838
161,12836
160,12833
159,12831
158,12830
157,12828
155,12827
152,12824
149,12822
148,12821
148,12820
147,12819
144,12817
141,12815
140,12814
139,12813
138,12813
135,12811
132,12810
130,12809
129,12808
128,12808
126,12807
122,12807
120,12806
119,12806
117,12806
114,12806
111,12806
108,12806
107,12806
106,12805
105,12805
102,12805
99,12805
97,12805
95,12805
92,12805
89,12805
87,12806
85,12806
84,12806
82,12806
79,12806
77,12806
76,12806
74,12806
72,12807
69,12807
67,12807
66,12807
65,12807
64,12808
62,12808
60,12809
59,12809
58,12809
57,12809
55,12810
52,12810
50,12811
48,12811
47,12811
45,12812
44,12813
42,12814
41,12815
40,12816
38,12817
36,12819
34,12821
33,12822
33,12823
33,12824
31,12826
30,12828
29,12829
28,12830
27,12832
26,12834
25,12836
24,12838
24,12839
23,12841
22,12845
21,12847
21,12848
20,12850
20,12853
19,12857
18,12861
18,12863
18,12864
18,12866
17,12870
16,12874
16,12876
15,12877
15,12878
14,12882
13,12886
13,12889
12,12891
12,12892
12,12893
11,12896
11,12901
10,12904
10,12905
10,12907
9,12911
9,12915
8,12922
8,12928
7,12931
7,12933
7,12936
7,12942
7,12948
7,12950
6,12951
6,12953
6,12958
6,12962
5,12965
5,12967
5,12968
5,12970
4,12971
4,12973
4,12974
3,12976
3,12977
3,12978
2,12979
2,12980
2,12981
2,12982
2,12983
2,12984
" style="stroke:#036998;stroke-width:0;
stroke-linejoin:bevel; stroke-linecap:butt;
fill:#036998;
"/>
<!-- Line -->
<!--  spline  -->
<polyline points="116,12806
115,12806
114,12806
113,12806
112,12806
111,12806
110,12806
109,12806
108,12806
107,12806
106,12806
105,12806
104,12806
103,12806
102,12806
101,12806
99,12806
98,12806
96,12806
95,12805
93,12805
92,12805
91,12805
90,12805
88,12805
87,12805
86,12805
86,12806
85,12806
84,12806
83,12806
82,12806
81,12806
80,12806
79,12806
77,12806
76,12806
75,12806
74,12806
73,12806
72,12806
71,12806
70,12807
68,12807
67,12807
66,12807
66,12808
65,12808
64,12808
63,12808
62,12809
61,12809
60,12809
59,12809
58,12809
57,12809
57,12808
57,12809
58,12813
61,12823
66,12839
71,12859
76,12878
81,12894
84,12904
85,12908
85,12909
85,12908
87,12904
91,12894
98,12878
106,12858
113,12839
120,12823
124,12813
126,12809
126,12808
126,12807
125,12807
124,12807
123,12807
123,12806
122,12806
121,12806
" style="stroke:#ffffff;stroke-width:0;
stroke-linejoin:bevel; stroke-linecap:butt;
fill:#ffffff;
"/>
<!-- Line -->
<!--  spline  -->
<polyline points="116,12806
115,12806
114,12806
113,12806
112,12806
111,12806
110,12806
109,12806
108,12806
107,12806
106,12806
105,12806
104,12806
103,12806
102,12806
101,12806
99,12806
98,12806
96,12806
95,12805
93,12805
92,12805
91,12805
90,12805
88,12805
87,12805
86,12805
86,12806
85,12806
84,12806
83,12806
82,12806
81,12806
80,12806
79,12806
77,12806
76,12806
75,12806
74,12806
73,12806
72,12806
71,12806
70,12807
68,12807
67,12807
66,12807
66,12808
65,12808
64,12808
63,12808
62,12809
61,12809
60,12809
59,12809
58,12809
57,12809
57,12808
57,12809
58,12813
61,12823
66,12839
71,12859
76,12878
81,12894
84,12904
85,12908
85,12909
85,12908
87,12904
91,12894
98,12878
106,12858
113,12839
120,12823
124,12813
126,12809
126,12808
126,12807
125,12807
124,12807
123,12807
123,12806
122,12806
121,12806
" style="stroke:#ffffff;stroke-width:7;
stroke-linejoin:bevel; stroke-linecap:butt;
"/>
<!-- Line -->
<!--  spline  -->
<polyline points="91,12803
92,12803
96,12802
102,12802
106,12801
107,12801
109,12800
112,12799
116,12797
120,12794
124,12791
126,12789
128,12787
131,12783
134,12779
135,12777
136,12775
138,12770
139,12765
140,12760
140,12757
140,12754
140,12753
139,12749
139,12744
138,12740
138,12739
137,12737
136,12733
134,12730
131,12725
128,12721
126,12720
126,12719
124,12718
120,12715
116,12712
114,12711
112,12710
107,12708
102,12706
97,12706
94,12705
91,12705
90,12705
86,12706
81,12707
77,12708
76,12708
74,12709
70,12710
67,12712
62,12715
58,12718
57,12719
56,12720
55,12721
52,12725
49,12729
48,12731
48,12732
47,12734
45,12739
43,12744
43,12748
42,12752
42,12754
42,12755
43,12759
44,12765
45,12769
45,12770
46,12772
47,12775
49,12779
52,12783
55,12787
56,12789
57,12789
58,12791
62,12794
66,12797
68,12798
69,12798
71,12799
76,12801
81,12802
85,12803
89,12803
91,12803
" style="stroke:#ffffff;stroke-width:0;
stroke-linejoin:bevel; stroke-linecap:butt;
fill:#ffffff;
"/>
<!-- Line -->
<!--  spline  -->
<polyline points="91,12803
92,12803
96,12802
102,12802
106,12801
107,12801
109,12800
112,12799
116,12797
120,12794
124,12791
126,12789
128,12787
131,12783
134,12779
135,12777
136,12775
138,12770
139,12765
140,12760
140,12757
140,12754
140,12753
139,12749
139,12744
138,12740
138,12739
137,12737
136,12733
134,12730
131,12725
128,12721
126,12720
126,12719
124,12718
120,12715
116,12712
114,12711
112,12710
107,12708
102,12706
97,12706
94,12705
91,12705
90,12705
86,12706
81,12707
77,12708
76,12708
74,12709
70,12710
67,12712
62,12715
58,12718
57,12719
56,12720
55,12721
52,12725
49,12729
48,12731
48,12732
47,12734
45,12739
43,12744
43,12748
42,12752
42,12754
42,12755
43,12759
44,12765
45,12769
45,12770
46,12772
47,12775
49,12779
52,12783
55,12787
56,12789
57,12789
58,12791
62,12794
66,12797
68,12798
69,12798
71,12799
76,12801
81,12802
85,12803
89,12803
91,12803
" style="stroke:#036998;stroke-width:7;
stroke-linejoin:bevel; stroke-linecap:butt;
"/>
</g>
</svg>
