<?xml version="1.0" standalone="no"?>
<!DOCTYPE svg PUBLIC "-//W3C//DTD SVG 1.1//EN"
"http://www.w3.org/Graphics/SVG/1.1/DTD/svg11.dtd">
<!-- Creator: fig2dev Version 3.2 Patchlevel 5c -->
<!-- CreationDate: Fri Sep 14 10:46:50 2012 -->
<!-- Magnification: 1.000 -->
<svg xmlns="http://www.w3.org/2000/svg" width="0.2in" height="0.4in" viewBox="-2 12693 186 508">
<g style="stroke-width:.025in; fill:none">
<!-- Line -->
<!--  spline  -->
<polyline points="0,12972
1,12972
8,12972
20,12972
32,12972
39,12972
40,12972
40,12973
38,12978
36,12989
31,13007
25,13029
19,13050
14,13068
12,13079
10,13084
10,13085
12,13085
20,13085
33,13085
41,13085
43,13085
43,13086
43,13091
43,13102
42,13120
41,13143
41,13165
40,13183
40,13194
40,13199
40,13200
41,13200
45,13200
52,13200
56,13200
57,13200
57,13199
58,13194
61,13183
65,13165
70,13142
75,13120
79,13102
82,13091
83,13086
83,13085
84,13085
88,13085
93,13085
97,13085
98,13085
98,13086
100,13091
102,13102
107,13120
113,13142
119,13164
124,13182
126,13193
128,13198
128,13199
129,13199
133,13199
138,13199
142,13199
143,13199
143,13198
143,13193
143,13182
142,13164
141,13142
141,13120
140,13102
140,13091
140,13086
140,13085
142,13085
149,13085
161,13085
168,13085
170,13085
170,13084
169,13079
166,13068
161,13050
156,13028
151,13006
146,12988
143,12977
142,12972
142,12971
144,12971
145,12971
147,12971
148,12971
150,12971
153,12971
156,12971
159,12971
161,12971
163,12971
166,12971
169,12971
171,12971
172,12971
173,12971
176,12971
179,12971
181,12970
182,12970
183,12970
183,12968
182,12959
179,12941
177,12924
176,12915
176,12913
176,12912
175,12910
175,12905
174,12903
174,12902
174,12900
173,12896
172,12891
171,12885
170,12879
169,12876
169,12875
168,12872
167,12866
166,12860
165,12857
165,12856
164,12854
163,12849
162,12844
161,12841
160,12839
160,12838
159,12836
157,12833
156,12831
155,12830
154,12828
153,12827
150,12824
147,12822
146,12821
145,12820
144,12819
141,12817
138,12815
137,12814
137,12813
136,12813
133,12811
130,12810
128,12809
127,12808
126,12808
124,12807
120,12807
118,12806
117,12806
115,12806
112,12806
109,12806
106,12806
104,12806
104,12805
102,12805
99,12805
96,12805
95,12805
94,12805
93,12805
90,12805
87,12805
85,12806
83,12806
82,12806
80,12806
77,12806
75,12806
74,12806
72,12806
70,12807
67,12807
65,12807
64,12807
63,12807
62,12808
60,12808
57,12809
56,12809
55,12809
52,12810
49,12810
47,12811
46,12811
45,12811
43,12812
41,12813
39,12814
38,12815
37,12816
36,12817
34,12819
32,12821
31,12822
31,12823
30,12824
28,12826
26,12828
26,12829
25,12830
24,12832
23,12834
22,12836
21,12838
21,12839
20,12841
20,12845
19,12847
19,12848
18,12850
18,12853
17,12857
16,12861
16,12863
15,12864
15,12866
14,12870
13,12874
13,12876
13,12877
13,12878
12,12882
11,12886
11,12889
10,12891
10,12892
10,12893
9,12899
7,12913
5,12932
3,12951
1,12965
0,12971
0,12972
" style="stroke:#00a9d6;stroke-width:0;
stroke-linejoin:bevel; stroke-linecap:butt;
fill:#00a9d6;
"/>
<!-- Line -->
<!--  spline  -->
<polyline points="113,12806
112,12806
111,12806
110,12806
109,12806
108,12806
107,12806
106,12806
105,12806
104,12806
103,12806
102,12806
101,12806
100,12806
99,12806
98,12806
96,12806
95,12806
94,12806
92,12805
91,12805
90,12805
89,12805
88,12805
86,12805
84,12805
83,12806
81,12806
80,12806
79,12806
78,12806
77,12806
76,12806
75,12806
74,12806
73,12806
71,12806
70,12806
69,12806
67,12807
66,12807
65,12807
64,12807
64,12808
63,12808
62,12808
61,12808
60,12809
59,12809
58,12809
57,12809
56,12809
55,12809
55,12808
54,12808
54,12809
57,12814
63,12824
72,12839
80,12853
86,12863
89,12868
89,12869
89,12868
92,12863
98,12853
107,12839
115,12824
121,12814
124,12809
124,12808
124,12807
123,12807
122,12807
121,12807
120,12807
120,12806
119,12806
" style="stroke:#ffffff;stroke-width:0;
stroke-linejoin:bevel; stroke-linecap:butt;
fill:#ffffff;
"/>
<!-- Line -->
<!--  spline  -->
<polyline points="113,12806
112,12806
111,12806
110,12806
109,12806
108,12806
107,12806
106,12806
105,12806
104,12806
103,12806
102,12806
101,12806
100,12806
99,12806
98,12806
96,12806
95,12806
94,12806
92,12805
91,12805
90,12805
89,12805
88,12805
86,12805
84,12805
83,12806
81,12806
80,12806
79,12806
78,12806
77,12806
76,12806
75,12806
74,12806
73,12806
71,12806
70,12806
69,12806
67,12807
66,12807
65,12807
64,12807
64,12808
63,12808
62,12808
61,12808
60,12809
59,12809
58,12809
57,12809
56,12809
55,12809
55,12808
54,12808
54,12809
57,12814
63,12824
72,12839
80,12853
86,12863
89,12868
89,12869
89,12868
92,12863
98,12853
107,12839
115,12824
121,12814
124,12809
124,12808
124,12807
123,12807
122,12807
121,12807
120,12807
120,12806
119,12806
" style="stroke:#ffffff;stroke-width:7;
stroke-linejoin:bevel; stroke-linecap:butt;
"/>
<!-- Line -->
<!--  spline  -->
<polyline points="89,12803
90,12803
94,12802
100,12802
104,12801
105,12801
107,12800
110,12799
114,12797
118,12794
122,12791
124,12789
126,12787
129,12783
132,12779
133,12777
134,12775
136,12770
137,12765
138,12760
138,12757
138,12754
138,12753
137,12749
137,12744
136,12740
136,12739
135,12737
134,12733
132,12730
129,12725
126,12721
124,12720
124,12719
122,12718
118,12715
114,12712
112,12711
110,12710
105,12708
100,12706
95,12706
92,12705
89,12705
88,12705
84,12706
79,12707
75,12708
74,12708
72,12709
69,12710
65,12712
60,12715
56,12718
54,12719
54,12720
52,12721
49,12725
46,12729
45,12731
45,12732
45,12734
43,12739
42,12744
41,12748
40,12752
40,12754
40,12755
41,12759
42,12765
43,12769
43,12770
44,12772
45,12775
46,12779
49,12783
52,12787
54,12789
56,12791
60,12794
64,12797
66,12798
67,12798
69,12799
74,12801
79,12802
83,12803
87,12803
89,12803
" style="stroke:#00a9d6;stroke-width:7;
stroke-linejoin:bevel; stroke-linecap:butt;
"/>
<!-- Line -->
<!--  spline  -->
<polyline points="39,12747
39,12748
38,12750
38,12751
38,12752
37,12754
36,12757
34,12760
32,12763
31,12765
30,12767
28,12770
26,12773
25,12774
24,12775
23,12776
20,12778
17,12780
14,12781
12,12781
10,12781
11,12782
12,12783
13,12783
14,12784
16,12785
19,12786
22,12787
23,12788
24,12788
25,12788
29,12789
33,12790
34,12790
35,12790
36,12790
40,12790
44,12789
48,12789
50,12788
52,12787
" style="stroke:#00a9d6;stroke-width:0;
stroke-linejoin:bevel; stroke-linecap:butt;
fill:#00a9d6;
"/>
<!-- Line -->
<!--  spline  -->
<polyline points="39,12747
39,12748
38,12750
38,12751
38,12752
37,12754
36,12757
34,12760
32,12763
31,12765
30,12767
28,12770
26,12773
25,12774
24,12775
23,12776
20,12778
17,12780
14,12781
12,12781
10,12781
11,12782
12,12783
13,12783
14,12784
16,12785
19,12786
22,12787
23,12788
24,12788
25,12788
29,12789
33,12790
34,12790
35,12790
36,12790
40,12790
44,12789
48,12789
50,12788
52,12787
" style="stroke:#00a9d6;stroke-width:7;
stroke-linejoin:bevel; stroke-linecap:round;
"/>
<!-- Line -->
<!--  spline  -->
<polyline points="139,12747
139,12748
140,12750
140,12751
140,12752
141,12754
142,12757
144,12760
146,12763
147,12765
148,12767
150,12770
152,12773
153,12774
154,12775
155,12776
158,12778
161,12780
164,12781
166,12781
168,12781
167,12782
166,12783
165,12783
164,12784
162,12785
159,12786
156,12787
155,12788
154,12788
153,12788
149,12789
145,12790
144,12790
143,12790
142,12790
138,12790
134,12789
130,12789
128,12788
126,12787
" style="stroke:#00a9d6;stroke-width:0;
stroke-linejoin:bevel; stroke-linecap:round;
fill:#00a9d6;
"/>
<!-- Line -->
<!--  spline  -->
<polyline points="139,12747
139,12748
140,12750
140,12751
140,12752
141,12754
142,12757
144,12760
146,12763
147,12765
148,12767
150,12770
152,12773
153,12774
154,12775
155,12776
158,12778
161,12780
164,12781
166,12781
168,12781
167,12782
166,12783
165,12783
164,12784
162,12785
159,12786
156,12787
155,12788
154,12788
153,12788
149,12789
145,12790
144,12790
143,12790
142,12790
138,12790
134,12789
130,12789
128,12788
126,12787
" style="stroke:#00a9d6;stroke-width:7;
stroke-linejoin:bevel; stroke-linecap:round;
"/>
<!-- Line -->
<!--  spline  -->
<polyline points="124,12720
122,12722
121,12723
119,12725
118,12726
116,12727
115,12728
112,12729
110,12730
109,12731
108,12731
105,12732
102,12733
101,12733
100,12733
99,12734
96,12734
93,12734
90,12734
88,12734
87,12734
85,12734
81,12734
79,12734
78,12734
76,12733
74,12733
71,12732
69,12731
68,12731
67,12730
66,12730
64,12729
62,12728
61,12728
60,12727
58,12726
56,12725
54,12724
53,12723
52,12722
" style="stroke:#00a9d6;stroke-width:0;
stroke-linejoin:bevel; stroke-linecap:round;
fill:#00a9d6;
"/>
<!-- Line -->
<!--  spline  -->
<polyline points="124,12720
122,12722
121,12723
119,12725
118,12726
116,12727
115,12728
112,12729
110,12730
109,12731
108,12731
105,12732
102,12733
101,12733
100,12733
99,12734
96,12734
93,12734
90,12734
88,12734
87,12734
85,12734
81,12734
79,12734
78,12734
76,12733
74,12733
71,12732
69,12731
68,12731
67,12730
66,12730
64,12729
62,12728
61,12728
60,12727
58,12726
56,12725
54,12724
53,12723
52,12722
" style="stroke:#00a9d6;stroke-width:7;
stroke-linejoin:bevel; stroke-linecap:round;
"/>
<!-- Line -->
<!--  spline  -->
<polyline points="124,12720
122,12718
120,12717
118,12715
117,12714
116,12713
114,12712
112,12711
110,12710
109,12709
108,12709
107,12709
105,12708
102,12707
101,12707
100,12707
97,12706
94,12706
92,12705
90,12705
89,12705
86,12705
83,12706
80,12706
79,12706
77,12706
75,12707
72,12708
70,12709
69,12710
68,12710
67,12711
65,12712
63,12713
62,12714
61,12714
60,12714
58,12716
56,12718
54,12720
53,12721
52,12722
54,12723
56,12725
58,12726
59,12726
60,12727
62,12728
64,12729
66,12730
67,12730
68,12731
69,12731
71,12732
74,12733
75,12733
76,12734
79,12734
82,12734
84,12734
86,12734
87,12734
90,12734
93,12734
96,12734
97,12734
100,12733
102,12733
105,12732
108,12731
109,12731
110,12730
112,12729
114,12728
115,12727
116,12727
117,12726
119,12725
121,12723
122,12722
123,12721
124,12720
" style="stroke:#00a9d6;stroke-width:0;
stroke-linejoin:bevel; stroke-linecap:round;
fill:#00a9d6;
"/>
<!-- Line -->
<!--  spline  -->
<polyline points="124,12720
122,12718
120,12717
118,12715
117,12714
116,12713
114,12712
112,12711
110,12710
109,12709
108,12709
107,12709
105,12708
102,12707
101,12707
100,12707
97,12706
94,12706
92,12705
90,12705
89,12705
86,12705
83,12706
80,12706
79,12706
77,12706
75,12707
72,12708
70,12709
69,12710
68,12710
67,12711
65,12712
63,12713
62,12714
61,12714
60,12714
58,12716
56,12718
54,12720
53,12721
52,12722
54,12723
56,12725
58,12726
59,12726
60,12727
62,12728
64,12729
66,12730
67,12730
68,12731
69,12731
71,12732
74,12733
75,12733
76,12734
79,12734
82,12734
84,12734
86,12734
87,12734
90,12734
93,12734
96,12734
97,12734
100,12733
102,12733
105,12732
108,12731
109,12731
110,12730
112,12729
114,12728
115,12727
116,12727
117,12726
119,12725
121,12723
122,12722
123,12721
124,12720
" style="stroke:#00a9d6;stroke-width:7;
stroke-linejoin:bevel; stroke-linecap:round;
"/>
</g>
</svg>
