<?xml version="1.0" standalone="no"?>
<!DOCTYPE svg PUBLIC "-//W3C//DTD SVG 1.1//EN"
"http://www.w3.org/Graphics/SVG/1.1/DTD/svg11.dtd">
<!-- Creator: fig2dev Version 3.2 Patchlevel 5c -->
<!-- CreationDate: Fri Sep 14 10:46:50 2012 -->
<!-- Magnification: 1.000 -->
<svg xmlns="http://www.w3.org/2000/svg" width="0.6in" height="0.3in" viewBox="-9 12890 708 319">
<g style="stroke-width:.025in; fill:none">
<!-- Line -->
<!--  spline  -->
<polyline points="587,13188
587,13187
590,13184
596,13175
607,13161
621,13141
637,13118
653,13096
667,13076
678,13062
684,13053
687,13050
687,13049
687,13048
687,13040
687,13023
687,13000
687,12976
687,12959
687,12951
687,12950
687,12949
686,12945
685,12940
684,12936
684,12935
683,12933
682,12930
680,12926
677,12922
674,12918
673,12916
672,12916
671,12914
667,12911
663,12908
661,12907
659,12907
654,12905
649,12904
645,12903
641,12902
639,12902
636,12902
630,12902
620,12902
603,12902
580,12902
551,12902
516,12902
476,12902
432,12902
387,12902
342,12902
298,12902
258,12902
223,12902
194,12902
171,12902
154,12902
144,12902
138,12902
135,12902
134,12902
131,12903
125,12903
122,12904
121,12904
119,12905
116,12906
113,12908
109,12910
106,12912
104,12913
104,12914
103,12915
100,12918
97,12921
96,12923
95,12923
94,12925
91,12928
87,12932
85,12934
83,12936
81,12938
80,12939
77,12942
70,12950
59,12962
45,12977
31,12992
20,13004
13,13012
10,13015
9,13016
" style="stroke:#036998;stroke-width:0;
stroke-linejoin:bevel; stroke-linecap:butt;
fill:#036998;
"/>
<!-- Line -->
<!--  spline  -->
<polyline points="587,13188
587,13187
590,13184
596,13175
607,13161
621,13141
637,13118
653,13096
667,13076
678,13062
684,13053
687,13050
687,13049
687,13048
687,13040
687,13023
687,13000
687,12976
687,12959
687,12951
687,12950
687,12949
686,12945
685,12940
684,12936
684,12935
683,12933
682,12930
680,12926
677,12922
674,12918
673,12916
672,12916
671,12914
667,12911
663,12908
661,12907
659,12907
654,12905
649,12904
645,12903
641,12902
639,12902
636,12902
630,12902
620,12902
603,12902
580,12902
551,12902
516,12902
476,12902
432,12902
387,12902
342,12902
298,12902
258,12902
223,12902
194,12902
171,12902
154,12902
144,12902
138,12902
135,12902
134,12902
131,12903
125,12903
122,12904
121,12904
119,12905
116,12906
113,12908
109,12910
106,12912
104,12913
104,12914
103,12915
100,12918
97,12921
96,12923
95,12923
94,12925
91,12928
87,12932
85,12934
83,12936
81,12938
80,12939
77,12942
70,12950
59,12962
45,12977
31,12992
20,13004
13,13012
10,13015
9,13016
" style="stroke:#ffffff;stroke-width:7;
stroke-linejoin:bevel; stroke-linecap:butt;
"/>
<!-- Line -->
<!--  spline  -->
<polyline points="603,13149
603,13150
602,13154
602,13159
601,13163
601,13164
600,13166
599,13169
597,13173
594,13177
591,13181
590,13182
589,13183
588,13184
584,13187
580,13190
578,13191
576,13192
571,13194
566,13196
561,13196
558,13197
555,13197
552,13197
546,13197
536,13197
519,13197
496,13197
467,13197
432,13197
392,13197
348,13197
303,13197
258,13197
214,13197
174,13197
139,13197
110,13197
87,13197
70,13197
60,13197
54,13197
51,13197
50,13197
46,13196
41,13195
37,13194
36,13194
34,13193
31,13192
27,13190
23,13187
19,13184
18,13183
17,13182
16,13181
13,13177
10,13173
9,13171
8,13169
6,13164
4,13159
4,13155
3,13151
3,13149
3,13148
3,13140
3,13123
3,13100
3,13076
3,13059
3,13051
3,13050
3,13049
4,13045
5,13040
6,13036
6,13035
7,13033
8,13030
10,13026
13,13022
16,13018
17,13016
18,13016
19,13014
23,13011
27,13008
29,13007
31,13007
36,13005
41,13004
45,13003
49,13002
51,13002
54,13002
60,13002
70,13002
87,13002
110,13002
139,13002
174,13002
214,13002
258,13002
303,13002
348,13002
392,13002
432,13002
467,13002
496,13002
519,13002
536,13002
546,13002
552,13002
555,13002
556,13002
560,13003
566,13004
570,13005
571,13005
573,13006
576,13007
580,13008
584,13011
588,13014
589,13016
590,13016
591,13018
594,13022
597,13026
598,13028
598,13029
599,13030
601,13035
602,13040
603,13044
603,13048
603,13050
603,13051
603,13059
603,13076
603,13100
603,13123
603,13140
603,13148
603,13149
" style="stroke:#036998;stroke-width:0;
stroke-linejoin:bevel; stroke-linecap:butt;
fill:#036998;
"/>
<!-- Line -->
<!--  spline  -->
<polyline points="603,13149
603,13150
602,13154
602,13159
601,13163
601,13164
600,13166
599,13169
597,13173
594,13177
591,13181
590,13182
589,13183
588,13184
584,13187
580,13190
578,13191
576,13192
571,13194
566,13196
561,13196
558,13197
555,13197
552,13197
546,13197
536,13197
519,13197
496,13197
467,13197
432,13197
392,13197
348,13197
303,13197
258,13197
214,13197
174,13197
139,13197
110,13197
87,13197
70,13197
60,13197
54,13197
51,13197
50,13197
46,13196
41,13195
37,13194
36,13194
34,13193
31,13192
27,13190
23,13187
19,13184
18,13183
17,13182
16,13181
13,13177
10,13173
9,13171
8,13169
6,13164
4,13159
4,13155
3,13151
3,13149
3,13148
3,13140
3,13123
3,13100
3,13076
3,13059
3,13051
3,13050
3,13049
4,13045
5,13040
6,13036
6,13035
7,13033
8,13030
10,13026
13,13022
16,13018
17,13016
18,13016
19,13014
23,13011
27,13008
29,13007
31,13007
36,13005
41,13004
45,13003
49,13002
51,13002
54,13002
60,13002
70,13002
87,13002
110,13002
139,13002
174,13002
214,13002
258,13002
303,13002
348,13002
392,13002
432,13002
467,13002
496,13002
519,13002
536,13002
546,13002
552,13002
555,13002
556,13002
560,13003
566,13004
570,13005
571,13005
573,13006
576,13007
580,13008
584,13011
588,13014
589,13016
590,13016
591,13018
594,13022
597,13026
598,13028
598,13029
599,13030
601,13035
602,13040
603,13044
603,13048
603,13050
603,13051
603,13059
603,13076
603,13100
603,13123
603,13140
603,13148
603,13149
" style="stroke:#ffffff;stroke-width:7;
stroke-linejoin:bevel; stroke-linecap:butt;
"/>
<!-- Line -->
<!--  polyline  -->
<polyline points="437,13099
184,13099
184,13019
437,13019
437,13099
" style="stroke:#036998;stroke-width:0;
stroke-linejoin:miter; stroke-linecap:butt;
fill:#036998;
"/>
<!-- Line -->
<!--  polyline  -->
<polyline points="437,13099
184,13099
184,13019
437,13019
437,13099
" style="stroke:#ffffff;stroke-width:7;
stroke-linejoin:miter; stroke-linecap:butt;
"/>
<!-- Line -->
<!--  spline  -->
<polyline points="496,13050
496,13051
495,13053
495,13054
495,13055
495,13056
494,13057
493,13059
492,13060
491,13061
490,13061
489,13062
488,13063
487,13063
486,13063
485,13064
483,13064
482,13065
481,13065
480,13065
478,13065
477,13064
475,13064
474,13064
473,13063
472,13063
471,13062
470,13061
469,13061
469,13060
468,13059
467,13058
466,13057
466,13056
465,13054
465,13052
465,13051
465,13050
465,13048
465,13047
465,13045
465,13044
466,13043
467,13042
468,13040
469,13039
469,13038
470,13038
471,13037
472,13036
473,13036
474,13036
475,13035
477,13035
478,13034
479,13034
480,13034
482,13034
483,13035
485,13035
486,13035
486,13036
488,13036
489,13037
490,13038
491,13038
492,13039
493,13040
494,13041
494,13042
494,13043
495,13045
495,13047
496,13048
496,13049
496,13050
" style="stroke:#036998;stroke-width:0;
stroke-linejoin:bevel; stroke-linecap:butt;
fill:#036998;
"/>
<!-- Line -->
<!--  spline  -->
<polyline points="496,13050
496,13051
495,13053
495,13054
495,13055
495,13056
494,13057
493,13059
492,13060
491,13061
490,13061
489,13062
488,13063
487,13063
486,13063
485,13064
483,13064
482,13065
481,13065
480,13065
478,13065
477,13064
475,13064
474,13064
473,13063
472,13063
471,13062
470,13061
469,13061
469,13060
468,13059
467,13058
466,13057
466,13056
465,13054
465,13052
465,13051
465,13050
465,13048
465,13047
465,13045
465,13044
466,13043
467,13042
468,13040
469,13039
469,13038
470,13038
471,13037
472,13036
473,13036
474,13036
475,13035
477,13035
478,13034
479,13034
480,13034
482,13034
483,13035
485,13035
486,13035
486,13036
488,13036
489,13037
490,13038
491,13038
492,13039
493,13040
494,13041
494,13042
494,13043
495,13045
495,13047
496,13048
496,13049
496,13050
" style="stroke:#ffffff;stroke-width:7;
stroke-linejoin:bevel; stroke-linecap:butt;
"/>
<!-- Line -->
<!--  spline  -->
<polyline points="496,13094
496,13096
495,13097
495,13099
495,13100
494,13102
493,13103
492,13104
491,13105
490,13106
489,13107
488,13108
487,13108
486,13108
485,13109
483,13109
482,13110
481,13110
480,13110
478,13110
477,13109
475,13109
474,13109
473,13109
472,13108
471,13107
470,13106
469,13105
469,13104
468,13103
467,13102
466,13101
466,13100
465,13099
465,13097
465,13096
465,13095
465,13094
465,13092
465,13091
465,13089
465,13088
466,13088
467,13086
468,13085
469,13084
469,13083
470,13082
471,13081
472,13080
473,13080
474,13080
475,13079
477,13079
478,13078
479,13078
480,13078
482,13078
483,13079
485,13079
486,13079
488,13080
489,13081
490,13082
491,13083
492,13084
493,13085
494,13086
494,13087
494,13088
495,13089
495,13091
496,13092
496,13093
496,13094
" style="stroke:#036998;stroke-width:0;
stroke-linejoin:bevel; stroke-linecap:butt;
fill:#036998;
"/>
<!-- Line -->
<!--  spline  -->
<polyline points="496,13094
496,13096
495,13097
495,13099
495,13100
494,13102
493,13103
492,13104
491,13105
490,13106
489,13107
488,13108
487,13108
486,13108
485,13109
483,13109
482,13110
481,13110
480,13110
478,13110
477,13109
475,13109
474,13109
473,13109
472,13108
471,13107
470,13106
469,13105
469,13104
468,13103
467,13102
466,13101
466,13100
465,13099
465,13097
465,13096
465,13095
465,13094
465,13092
465,13091
465,13089
465,13088
466,13088
467,13086
468,13085
469,13084
469,13083
470,13082
471,13081
472,13080
473,13080
474,13080
475,13079
477,13079
478,13078
479,13078
480,13078
482,13078
483,13079
485,13079
486,13079
488,13080
489,13081
490,13082
491,13083
492,13084
493,13085
494,13086
494,13087
494,13088
495,13089
495,13091
496,13092
496,13093
496,13094
" style="stroke:#ffffff;stroke-width:7;
stroke-linejoin:bevel; stroke-linecap:butt;
"/>
<!-- Line -->
<!--  spline  -->
<polyline points="496,13138
496,13140
495,13141
495,13143
495,13144
495,13145
494,13146
493,13148
492,13149
491,13150
490,13150
489,13151
488,13152
487,13152
486,13152
485,13153
483,13153
482,13154
481,13154
480,13154
478,13154
477,13153
475,13153
474,13153
473,13152
472,13152
471,13151
470,13150
469,13150
469,13149
468,13148
467,13147
466,13146
466,13145
465,13143
465,13141
465,13140
465,13139
465,13138
465,13137
465,13135
465,13134
465,13133
466,13132
467,13131
468,13129
469,13128
469,13127
470,13127
471,13126
472,13125
473,13125
474,13125
475,13124
477,13124
478,13123
479,13123
480,13123
482,13123
483,13124
485,13124
486,13124
486,13125
488,13125
489,13126
490,13127
491,13127
492,13128
493,13129
494,13130
494,13131
494,13132
495,13134
495,13136
496,13137
496,13138
" style="stroke:#036998;stroke-width:0;
stroke-linejoin:bevel; stroke-linecap:butt;
fill:#036998;
"/>
<!-- Line -->
<!--  spline  -->
<polyline points="496,13138
496,13140
495,13141
495,13143
495,13144
495,13145
494,13146
493,13148
492,13149
491,13150
490,13150
489,13151
488,13152
487,13152
486,13152
485,13153
483,13153
482,13154
481,13154
480,13154
478,13154
477,13153
475,13153
474,13153
473,13152
472,13152
471,13151
470,13150
469,13150
469,13149
468,13148
467,13147
466,13146
466,13145
465,13143
465,13141
465,13140
465,13139
465,13138
465,13137
465,13135
465,13134
465,13133
466,13132
467,13131
468,13129
469,13128
469,13127
470,13127
471,13126
472,13125
473,13125
474,13125
475,13124
477,13124
478,13123
479,13123
480,13123
482,13123
483,13124
485,13124
486,13124
486,13125
488,13125
489,13126
490,13127
491,13127
492,13128
493,13129
494,13130
494,13131
494,13132
495,13134
495,13136
496,13137
496,13138
" style="stroke:#ffffff;stroke-width:7;
stroke-linejoin:bevel; stroke-linecap:butt;
"/>
<!-- Line -->
<!--  spline  -->
<polyline points="390,13152
389,13154
387,13157
386,13159
385,13160
383,13162
380,13164
376,13166
371,13168
369,13168
368,13168
366,13169
360,13170
354,13171
352,13172
351,13172
348,13173
341,13174
333,13175
327,13175
322,13175
319,13175
318,13175
317,13175
311,13175
302,13174
296,13174
295,13174
294,13174
292,13173
287,13173
282,13171
275,13170
269,13169
267,13168
266,13168
264,13168
259,13166
255,13164
253,13163
253,13162
251,13161
249,13159
247,13156
246,13155
246,13153
246,13152
247,13150
248,13147
249,13145
250,13144
252,13143
255,13141
259,13139
264,13137
266,13137
267,13137
269,13136
275,13135
281,13134
284,13133
285,13133
288,13132
295,13131
303,13130
309,13130
314,13130
317,13130
318,13130
319,13130
325,13130
334,13131
340,13131
341,13131
342,13131
344,13132
348,13132
353,13134
360,13135
366,13136
368,13137
369,13137
371,13137
376,13139
380,13141
382,13142
383,13143
386,13145
388,13147
389,13149
390,13150
390,13151
390,13152
" style="stroke:#036998;stroke-width:0;
stroke-linejoin:bevel; stroke-linecap:butt;
fill:#036998;
"/>
<!-- Line -->
<!--  spline  -->
<polyline points="390,13152
389,13154
387,13157
386,13159
385,13160
383,13162
380,13164
376,13166
371,13168
369,13168
368,13168
366,13169
360,13170
354,13171
352,13172
351,13172
348,13173
341,13174
333,13175
327,13175
322,13175
319,13175
318,13175
317,13175
311,13175
302,13174
296,13174
295,13174
294,13174
292,13173
287,13173
282,13171
275,13170
269,13169
267,13168
266,13168
264,13168
259,13166
255,13164
253,13163
253,13162
251,13161
249,13159
247,13156
246,13155
246,13153
246,13152
247,13150
248,13147
249,13145
250,13144
252,13143
255,13141
259,13139
264,13137
266,13137
267,13137
269,13136
275,13135
281,13134
284,13133
285,13133
288,13132
295,13131
303,13130
309,13130
314,13130
317,13130
318,13130
319,13130
325,13130
334,13131
340,13131
341,13131
342,13131
344,13132
348,13132
353,13134
360,13135
366,13136
368,13137
369,13137
371,13137
376,13139
380,13141
382,13142
383,13143
386,13145
388,13147
389,13149
390,13150
390,13151
390,13152
" style="stroke:#ffffff;stroke-width:7;
stroke-linejoin:bevel; stroke-linecap:butt;
"/>
</g>
</svg>
