<?xml version="1.0" standalone="no"?>
<!DOCTYPE svg PUBLIC "-//W3C//DTD SVG 1.1//EN"
"http://www.w3.org/Graphics/SVG/1.1/DTD/svg11.dtd">
<!-- Creator: fig2dev Version 3.2 Patchlevel 5c -->
<!-- CreationDate: Fri Sep 14 10:46:50 2012 -->
<!-- Magnification: 1.000 -->
<svg xmlns="http://www.w3.org/2000/svg" width="0.4in" height="0.6in" viewBox="-9 12528 455 676">
<g style="stroke-width:.025in; fill:none">
<!-- Line -->
<!--  polyline  -->
<polyline points="352,12622
96,12622
96,13192
352,13192
" style="stroke:#026c9b;stroke-width:0;
stroke-linejoin:miter; stroke-linecap:butt;
fill:#026c9b;
"/>
<!-- Line -->
<!--  polyline  -->
<polyline points="352,12622
96,12622
96,13192
352,13192
" style="stroke:#ffffff;stroke-width:7;
stroke-linejoin:miter; stroke-linecap:butt;
"/>
<!-- Line -->
<!--  polyline  -->
<polyline points="352,13192
434,13110
434,12540
178,12540
96,12622
352,12622
352,13192
" style="stroke:#026c9b;stroke-width:0;
stroke-linejoin:miter; stroke-linecap:butt;
fill:#026c9b;
"/>
<!-- Line -->
<!--  polyline  -->
<polyline points="352,13192
434,13110
434,12540
178,12540
96,12622
352,12622
352,13192
" style="stroke:#ffffff;stroke-width:7;
stroke-linejoin:miter; stroke-linecap:butt;
"/>
<!-- Line -->
<!--  polyline  -->
<polyline points="352,12622
434,12540
" style="stroke:#026c9b;stroke-width:0;
stroke-linejoin:miter; stroke-linecap:butt;
fill:#026c9b;
"/>
<!-- Line -->
<!--  polyline  -->
<polyline points="352,12622
434,12540
" style="stroke:#ffffff;stroke-width:7;
stroke-linejoin:miter; stroke-linecap:butt;
"/>
<!-- Line -->
<!--  polyline  -->
<polyline points="247,12883
247,12864
118,12864
118,12883
247,12883
" style="stroke:#026c9b;stroke-width:0;
stroke-linejoin:miter; stroke-linecap:butt;
fill:#026c9b;
"/>
<!-- Line -->
<!--  polyline  -->
<polyline points="247,12883
247,12864
118,12864
118,12883
247,12883
" style="stroke:#ffffff;stroke-width:7;
stroke-linejoin:miter; stroke-linecap:butt;
"/>
<!-- Line -->
<!--  polyline  -->
<polyline points="247,12922
247,12903
118,12903
118,12922
247,12922
" style="stroke:#026c9b;stroke-width:0;
stroke-linejoin:miter; stroke-linecap:butt;
fill:#026c9b;
"/>
<!-- Line -->
<!--  polyline  -->
<polyline points="247,12922
247,12903
118,12903
118,12922
247,12922
" style="stroke:#ffffff;stroke-width:7;
stroke-linejoin:miter; stroke-linecap:butt;
"/>
<!-- Line -->
<!--  polyline  -->
<polyline points="247,12961
247,12942
118,12942
118,12961
247,12961
" style="stroke:#026c9b;stroke-width:0;
stroke-linejoin:miter; stroke-linecap:butt;
fill:#026c9b;
"/>
<!-- Line -->
<!--  polyline  -->
<polyline points="247,12961
247,12942
118,12942
118,12961
247,12961
" style="stroke:#ffffff;stroke-width:7;
stroke-linejoin:miter; stroke-linecap:butt;
"/>
<!-- Line -->
<!--  polyline  -->
<polyline points="247,13000
247,12981
118,12981
118,13000
247,13000
" style="stroke:#026c9b;stroke-width:0;
stroke-linejoin:miter; stroke-linecap:butt;
fill:#026c9b;
"/>
<!-- Line -->
<!--  polyline  -->
<polyline points="247,13000
247,12981
118,12981
118,13000
247,13000
" style="stroke:#ffffff;stroke-width:7;
stroke-linejoin:miter; stroke-linecap:butt;
"/>
<!-- Line -->
<!--  polyline  -->
<polyline points="247,13038
247,13020
118,13020
118,13038
247,13038
" style="stroke:#026c9b;stroke-width:0;
stroke-linejoin:miter; stroke-linecap:butt;
fill:#026c9b;
"/>
<!-- Line -->
<!--  polyline  -->
<polyline points="247,13038
247,13020
118,13020
118,13038
247,13038
" style="stroke:#ffffff;stroke-width:7;
stroke-linejoin:miter; stroke-linecap:butt;
"/>
<!-- Line -->
<!--  polyline  -->
<polyline points="247,13077
247,13059
118,13059
118,13077
247,13077
" style="stroke:#026c9b;stroke-width:0;
stroke-linejoin:miter; stroke-linecap:butt;
fill:#026c9b;
"/>
<!-- Line -->
<!--  polyline  -->
<polyline points="247,13077
247,13059
118,13059
118,13077
247,13077
" style="stroke:#ffffff;stroke-width:7;
stroke-linejoin:miter; stroke-linecap:butt;
"/>
<!-- Line -->
<!--  polyline  -->
<polyline points="247,13116
247,13097
118,13097
118,13116
247,13116
" style="stroke:#026c9b;stroke-width:0;
stroke-linejoin:miter; stroke-linecap:butt;
fill:#026c9b;
"/>
<!-- Line -->
<!--  polyline  -->
<polyline points="247,13116
247,13097
118,13097
118,13116
247,13116
" style="stroke:#ffffff;stroke-width:7;
stroke-linejoin:miter; stroke-linecap:butt;
"/>
<!-- Line -->
<!--  polyline  -->
<polyline points="247,13155
247,13136
118,13136
118,13155
247,13155
" style="stroke:#026c9b;stroke-width:0;
stroke-linejoin:miter; stroke-linecap:butt;
fill:#026c9b;
"/>
<!-- Line -->
<!--  polyline  -->
<polyline points="247,13155
247,13136
118,13136
118,13155
247,13155
" style="stroke:#ffffff;stroke-width:7;
stroke-linejoin:miter; stroke-linecap:butt;
"/>
<!-- Line -->
<!--  spline  -->
<polyline points="263,12689
263,12690
261,12694
258,12699
256,12703
256,12704
254,12706
251,12709
246,12713
238,12717
230,12721
226,12722
225,12723
220,12724
210,12727
200,12729
195,12731
193,12731
191,12731
185,12732
174,12734
162,12735
152,12736
144,12737
137,12737
134,12737
133,12737
132,12737
125,12736
112,12735
100,12735
93,12734
92,12734
91,12734
88,12733
82,12733
75,12731
66,12730
56,12727
46,12724
41,12723
40,12722
36,12721
28,12717
21,12713
18,12711
17,12711
15,12709
10,12704
6,12699
4,12695
3,12691
3,12689
3,12690
3,12695
3,12705
3,12723
3,12744
3,12765
3,12783
3,12793
3,12798
3,12799
3,12800
5,12804
8,12809
10,12813
10,12814
12,12816
15,12820
20,12823
28,12828
36,12832
40,12833
41,12834
46,12835
56,12838
66,12840
71,12842
73,12842
75,12843
81,12844
92,12845
104,12846
114,12847
122,12847
129,12847
132,12847
133,12847
134,12847
141,12847
154,12846
166,12845
173,12845
174,12845
175,12845
178,12844
184,12844
191,12842
200,12841
210,12838
220,12835
225,12834
226,12833
230,12832
238,12828
245,12824
248,12822
249,12821
251,12819
256,12814
260,12809
262,12805
263,12801
263,12799
263,12798
263,12793
263,12783
263,12765
263,12744
263,12723
263,12705
263,12695
263,12690
263,12689
" style="stroke:#026c9b;stroke-width:0;
stroke-linejoin:bevel; stroke-linecap:butt;
fill:#026c9b;
"/>
<!-- Line -->
<!--  spline  -->
<polyline points="263,12689
263,12690
261,12694
258,12699
256,12703
256,12704
254,12706
251,12709
246,12713
238,12717
230,12721
226,12722
225,12723
220,12724
210,12727
200,12729
195,12731
193,12731
191,12731
185,12732
174,12734
162,12735
152,12736
144,12737
137,12737
134,12737
133,12737
132,12737
125,12736
112,12735
100,12735
93,12734
92,12734
91,12734
88,12733
82,12733
75,12731
66,12730
56,12727
46,12724
41,12723
40,12722
36,12721
28,12717
21,12713
18,12711
17,12711
15,12709
10,12704
6,12699
4,12695
3,12691
3,12689
3,12690
3,12695
3,12705
3,12723
3,12744
3,12765
3,12783
3,12793
3,12798
3,12799
3,12800
5,12804
8,12809
10,12813
10,12814
12,12816
15,12820
20,12823
28,12828
36,12832
40,12833
41,12834
46,12835
56,12838
66,12840
71,12842
73,12842
75,12843
81,12844
92,12845
104,12846
114,12847
122,12847
129,12847
132,12847
133,12847
134,12847
141,12847
154,12846
166,12845
173,12845
174,12845
175,12845
178,12844
184,12844
191,12842
200,12841
210,12838
220,12835
225,12834
226,12833
230,12832
238,12828
245,12824
248,12822
249,12821
251,12819
256,12814
260,12809
262,12805
263,12801
263,12799
263,12798
263,12793
263,12783
263,12765
263,12744
263,12723
263,12705
263,12695
263,12690
263,12689
" style="stroke:#ffffff;stroke-width:7;
stroke-linejoin:bevel; stroke-linecap:butt;
"/>
<!-- Line -->
<!--  spline  -->
<polyline points="133,12737
134,12737
141,12736
154,12735
166,12735
173,12734
174,12734
175,12734
178,12733
184,12733
191,12731
200,12730
210,12727
220,12724
225,12723
226,12722
230,12721
238,12717
245,12713
248,12711
249,12711
251,12709
256,12704
260,12699
262,12695
263,12691
263,12689
263,12688
261,12684
258,12678
256,12674
256,12673
254,12671
251,12668
246,12664
238,12660
230,12656
226,12655
225,12654
220,12653
210,12650
200,12648
195,12646
193,12646
191,12645
185,12644
174,12643
162,12642
152,12641
144,12641
137,12641
134,12641
133,12641
132,12641
125,12641
112,12642
100,12643
93,12643
92,12643
91,12643
88,12644
82,12644
75,12646
66,12647
56,12650
46,12653
41,12654
40,12655
36,12656
28,12660
21,12664
18,12666
17,12666
15,12668
10,12673
6,12678
4,12683
3,12686
3,12689
3,12690
5,12694
8,12699
10,12703
10,12704
12,12706
15,12709
20,12713
28,12717
36,12721
40,12722
41,12723
46,12724
56,12727
66,12729
71,12731
73,12731
75,12731
81,12732
92,12734
104,12735
114,12736
122,12737
129,12737
132,12737
133,12737
" style="stroke:#026c9b;stroke-width:0;
stroke-linejoin:bevel; stroke-linecap:butt;
fill:#026c9b;
"/>
<!-- Line -->
<!--  spline  -->
<polyline points="133,12737
134,12737
141,12736
154,12735
166,12735
173,12734
174,12734
175,12734
178,12733
184,12733
191,12731
200,12730
210,12727
220,12724
225,12723
226,12722
230,12721
238,12717
245,12713
248,12711
249,12711
251,12709
256,12704
260,12699
262,12695
263,12691
263,12689
263,12688
261,12684
258,12678
256,12674
256,12673
254,12671
251,12668
246,12664
238,12660
230,12656
226,12655
225,12654
220,12653
210,12650
200,12648
195,12646
193,12646
191,12645
185,12644
174,12643
162,12642
152,12641
144,12641
137,12641
134,12641
133,12641
132,12641
125,12641
112,12642
100,12643
93,12643
92,12643
91,12643
88,12644
82,12644
75,12646
66,12647
56,12650
46,12653
41,12654
40,12655
36,12656
28,12660
21,12664
18,12666
17,12666
15,12668
10,12673
6,12678
4,12683
3,12686
3,12689
3,12690
5,12694
8,12699
10,12703
10,12704
12,12706
15,12709
20,12713
28,12717
36,12721
40,12722
41,12723
46,12724
56,12727
66,12729
71,12731
73,12731
75,12731
81,12732
92,12734
104,12735
114,12736
122,12737
129,12737
132,12737
133,12737
" style="stroke:#ffffff;stroke-width:7;
stroke-linejoin:bevel; stroke-linecap:butt;
"/>
<!-- Line -->
<!--  spline  -->
<polyline points="402,12789
402,12790
400,12794
397,12799
395,12803
395,12804
393,12806
390,12809
385,12813
377,12817
369,12821
365,12822
363,12823
359,12824
348,12827
337,12830
332,12831
331,12831
325,12832
313,12834
301,12835
291,12836
283,12837
276,12837
273,12837
272,12837
271,12837
264,12836
251,12835
239,12835
232,12834
231,12834
230,12834
227,12833
221,12833
214,12831
205,12830
195,12827
185,12824
180,12823
179,12822
175,12821
167,12817
160,12813
157,12811
156,12811
154,12809
149,12804
145,12799
143,12795
142,12791
142,12789
142,12790
142,12795
142,12805
142,12823
142,12844
142,12865
142,12883
142,12893
142,12898
142,12899
142,12900
144,12904
147,12909
149,12913
149,12914
151,12916
154,12920
159,12923
167,12928
175,12932
179,12933
180,12934
185,12935
195,12938
205,12940
210,12942
212,12942
214,12943
220,12944
231,12945
243,12946
253,12947
261,12947
268,12947
271,12947
272,12947
273,12947
280,12947
293,12946
305,12945
312,12945
313,12945
314,12945
319,12944
326,12943
336,12941
348,12938
359,12935
363,12934
365,12933
369,12932
377,12928
384,12924
387,12922
388,12921
390,12919
395,12914
399,12909
401,12905
402,12901
402,12899
402,12898
402,12893
402,12883
402,12865
402,12844
402,12823
402,12805
402,12795
402,12790
402,12789
" style="stroke:#026c9b;stroke-width:0;
stroke-linejoin:bevel; stroke-linecap:butt;
fill:#026c9b;
"/>
<!-- Line -->
<!--  spline  -->
<polyline points="402,12789
402,12790
400,12794
397,12799
395,12803
395,12804
393,12806
390,12809
385,12813
377,12817
369,12821
365,12822
363,12823
359,12824
348,12827
337,12830
332,12831
331,12831
325,12832
313,12834
301,12835
291,12836
283,12837
276,12837
273,12837
272,12837
271,12837
264,12836
251,12835
239,12835
232,12834
231,12834
230,12834
227,12833
221,12833
214,12831
205,12830
195,12827
185,12824
180,12823
179,12822
175,12821
167,12817
160,12813
157,12811
156,12811
154,12809
149,12804
145,12799
143,12795
142,12791
142,12789
142,12790
142,12795
142,12805
142,12823
142,12844
142,12865
142,12883
142,12893
142,12898
142,12899
142,12900
144,12904
147,12909
149,12913
149,12914
151,12916
154,12920
159,12923
167,12928
175,12932
179,12933
180,12934
185,12935
195,12938
205,12940
210,12942
212,12942
214,12943
220,12944
231,12945
243,12946
253,12947
261,12947
268,12947
271,12947
272,12947
273,12947
280,12947
293,12946
305,12945
312,12945
313,12945
314,12945
319,12944
326,12943
336,12941
348,12938
359,12935
363,12934
365,12933
369,12932
377,12928
384,12924
387,12922
388,12921
390,12919
395,12914
399,12909
401,12905
402,12901
402,12899
402,12898
402,12893
402,12883
402,12865
402,12844
402,12823
402,12805
402,12795
402,12790
402,12789
" style="stroke:#ffffff;stroke-width:7;
stroke-linejoin:bevel; stroke-linecap:butt;
"/>
<!-- Line -->
<!--  spline  -->
<polyline points="272,12837
273,12837
280,12836
293,12835
305,12835
312,12834
313,12834
314,12834
319,12833
326,12832
336,12830
348,12827
359,12824
363,12823
365,12822
369,12821
377,12817
384,12813
387,12811
388,12811
390,12809
395,12804
399,12799
401,12795
402,12791
402,12789
402,12788
400,12784
397,12778
395,12774
395,12773
393,12771
390,12768
385,12764
377,12760
369,12756
365,12755
363,12754
359,12753
348,12750
337,12747
332,12746
331,12746
325,12745
313,12743
301,12742
291,12741
283,12741
276,12741
273,12741
272,12741
271,12741
264,12741
251,12742
239,12743
232,12743
231,12743
230,12743
227,12744
221,12744
214,12746
205,12747
195,12750
185,12753
180,12754
179,12755
175,12756
167,12760
160,12764
157,12766
156,12766
154,12768
149,12773
145,12778
143,12783
142,12786
142,12789
142,12790
144,12794
147,12799
149,12803
149,12804
151,12806
154,12809
159,12813
167,12817
175,12821
179,12822
180,12823
185,12824
195,12827
205,12829
210,12831
212,12831
214,12831
220,12832
231,12834
243,12835
253,12836
261,12837
268,12837
271,12837
272,12837
" style="stroke:#026c9b;stroke-width:0;
stroke-linejoin:bevel; stroke-linecap:butt;
fill:#026c9b;
"/>
<!-- Line -->
<!--  spline  -->
<polyline points="272,12837
273,12837
280,12836
293,12835
305,12835
312,12834
313,12834
314,12834
319,12833
326,12832
336,12830
348,12827
359,12824
363,12823
365,12822
369,12821
377,12817
384,12813
387,12811
388,12811
390,12809
395,12804
399,12799
401,12795
402,12791
402,12789
402,12788
400,12784
397,12778
395,12774
395,12773
393,12771
390,12768
385,12764
377,12760
369,12756
365,12755
363,12754
359,12753
348,12750
337,12747
332,12746
331,12746
325,12745
313,12743
301,12742
291,12741
283,12741
276,12741
273,12741
272,12741
271,12741
264,12741
251,12742
239,12743
232,12743
231,12743
230,12743
227,12744
221,12744
214,12746
205,12747
195,12750
185,12753
180,12754
179,12755
175,12756
167,12760
160,12764
157,12766
156,12766
154,12768
149,12773
145,12778
143,12783
142,12786
142,12789
142,12790
144,12794
147,12799
149,12803
149,12804
151,12806
154,12809
159,12813
167,12817
175,12821
179,12822
180,12823
185,12824
195,12827
205,12829
210,12831
212,12831
214,12831
220,12832
231,12834
243,12835
253,12836
261,12837
268,12837
271,12837
272,12837
" style="stroke:#ffffff;stroke-width:7;
stroke-linejoin:bevel; stroke-linecap:butt;
"/>
</g>
</svg>
