<?xml version="1.0" standalone="no"?>
<!DOCTYPE svg PUBLIC "-//W3C//DTD SVG 1.1//EN"
"http://www.w3.org/Graphics/SVG/1.1/DTD/svg11.dtd">
<!-- Creator: fig2dev Version 3.2 Patchlevel 5c -->
<!-- CreationDate: Fri Sep 14 10:46:50 2012 -->
<!-- Magnification: 1.000 -->
<svg xmlns="http://www.w3.org/2000/svg" width="0.5in" height="0.4in" viewBox="1 12770 565 430">
<g style="stroke-width:.025in; fill:none">
<!-- Line -->
<!--  polyline  -->
<polyline points="419,13045
419,12914
14,12914
14,13045
419,13045
" style="stroke:#0d6e9c;stroke-width:0;
stroke-linejoin:miter; stroke-linecap:butt;
fill:#0d6e9c;
"/>
<!-- Line -->
<!--  polyline  -->
<polyline points="13,12915
176,12782
554,12782
418,12915
13,12915
" style="stroke:#0d6e9c;stroke-width:0;
stroke-linejoin:miter; stroke-linecap:butt;
fill:#0d6e9c;
"/>
<!-- Line -->
<!--  polyline  -->
<polyline points="418,13049
554,12911
554,12782
418,12914
418,13049
" style="stroke:#0d6e9c;stroke-width:0;
stroke-linejoin:miter; stroke-linecap:butt;
fill:#0d6e9c;
"/>
<!-- Line -->
<!--  polyline  -->
<polyline points="419,13184
419,13042
14,13042
14,13184
419,13184
" style="stroke:#0d6e9c;stroke-width:0;
stroke-linejoin:miter; stroke-linecap:butt;
fill:#0d6e9c;
"/>
<!-- Line -->
<!--  polyline  -->
<polyline points="418,13188
554,13051
554,12911
418,13043
418,13188
" style="stroke:#0d6e9c;stroke-width:0;
stroke-linejoin:miter; stroke-linecap:butt;
fill:#0d6e9c;
"/>
<!-- Line -->
<!--  polyline  -->
<polyline points="419,13045
419,12914
14,12914
14,13045
419,13045
" style="stroke:#0d6e9c;stroke-width:0;
stroke-linejoin:miter; stroke-linecap:butt;
fill:#0d6e9c;
"/>
<!-- Line -->
<!--  polyline  -->
<polyline points="419,13045
419,12914
14,12914
14,13045
419,13045
" style="stroke:#ffffff;stroke-width:7;
stroke-linejoin:miter; stroke-linecap:butt;
"/>
<!-- Line -->
<!--  polyline  -->
<polyline points="13,12915
176,12782
554,12782
418,12915
13,12915
" style="stroke:#0d6e9c;stroke-width:0;
stroke-linejoin:miter; stroke-linecap:butt;
fill:#0d6e9c;
"/>
<!-- Line -->
<!--  polyline  -->
<polyline points="13,12915
176,12782
554,12782
418,12915
13,12915
" style="stroke:#ffffff;stroke-width:7;
stroke-linejoin:miter; stroke-linecap:butt;
"/>
<!-- Line -->
<!--  polyline  -->
<polyline points="418,13049
554,12911
554,12782
418,12914
418,13049
" style="stroke:#0d6e9c;stroke-width:0;
stroke-linejoin:miter; stroke-linecap:butt;
fill:#0d6e9c;
"/>
<!-- Line -->
<!--  polyline  -->
<polyline points="418,13049
554,12911
554,12782
418,12914
418,13049
" style="stroke:#ffffff;stroke-width:7;
stroke-linejoin:miter; stroke-linecap:butt;
"/>
<!-- Line -->
<!--  polyline  -->
<polyline points="419,13184
419,13042
14,13042
14,13184
419,13184
" style="stroke:#0d6e9c;stroke-width:0;
stroke-linejoin:miter; stroke-linecap:butt;
fill:#0d6e9c;
"/>
<!-- Line -->
<!--  polyline  -->
<polyline points="419,13184
419,13042
14,13042
14,13184
419,13184
" style="stroke:#ffffff;stroke-width:7;
stroke-linejoin:miter; stroke-linecap:butt;
"/>
<!-- Line -->
<!--  polyline  -->
<polyline points="418,13188
554,13051
554,12911
418,13043
418,13188
" style="stroke:#0d6e9c;stroke-width:0;
stroke-linejoin:miter; stroke-linecap:butt;
fill:#0d6e9c;
"/>
<!-- Line -->
<!--  polyline  -->
<polyline points="418,13188
554,13051
554,12911
418,13043
418,13188
" style="stroke:#ffffff;stroke-width:7;
stroke-linejoin:miter; stroke-linecap:butt;
"/>
<!-- Line -->
<!--  polyline  -->
<polyline points="419,13045
419,12914
14,12914
14,13045
419,13045
" style="stroke:#ffffff;stroke-width:7;
stroke-linejoin:miter; stroke-linecap:butt;
"/>
<!-- Line -->
<!--  polyline  -->
<polyline points="13,12915
176,12782
554,12782
418,12915
13,12915
" style="stroke:#ffffff;stroke-width:7;
stroke-linejoin:miter; stroke-linecap:butt;
"/>
<!-- Line -->
<!--  polyline  -->
<polyline points="418,13049
554,12911
554,12782
418,12914
418,13049
" style="stroke:#ffffff;stroke-width:7;
stroke-linejoin:miter; stroke-linecap:butt;
"/>
<!-- Line -->
<!--  polyline  -->
<polyline points="419,13184
419,13042
14,13042
14,13184
419,13184
" style="stroke:#ffffff;stroke-width:7;
stroke-linejoin:miter; stroke-linecap:butt;
"/>
<!-- Line -->
<!--  polyline  -->
<polyline points="418,13188
554,13051
554,12911
418,13043
418,13188
" style="stroke:#ffffff;stroke-width:7;
stroke-linejoin:miter; stroke-linecap:butt;
"/>
<!-- Line -->
<!--  polyline  -->
<polyline points="304,12838
329,12844
398,12826
423,12832
410,12813
329,12813
366,12819
304,12838
" style="stroke:#ffffff;stroke-width:0;
stroke-linejoin:miter; stroke-linecap:butt;
fill:#ffffff;
"/>
<!-- Line -->
<!--  polyline  -->
<polyline points="161,12819
186,12813
254,12832
279,12826
267,12844
186,12844
223,12838
161,12819
" style="stroke:#ffffff;stroke-width:0;
stroke-linejoin:miter; stroke-linecap:butt;
fill:#ffffff;
"/>
<!-- Line -->
<!--  polyline  -->
<polyline points="416,12882
391,12888
329,12870
298,12876
310,12857
391,12857
360,12863
416,12882
" style="stroke:#ffffff;stroke-width:0;
stroke-linejoin:miter; stroke-linecap:butt;
fill:#ffffff;
"/>
<!-- Line -->
<!--  polyline  -->
<polyline points="273,12863
248,12857
186,12876
154,12870
167,12889
248,12890
211,12882
273,12863
" style="stroke:#ffffff;stroke-width:0;
stroke-linejoin:miter; stroke-linecap:butt;
fill:#ffffff;
"/>
<!-- Line -->
<!--  spline  -->
<polyline points="217,13027
218,13027
222,13027
228,13026
232,13026
233,13026
235,13026
239,13025
242,13025
247,13024
251,13023
252,13023
253,13023
254,13022
257,13021
260,13020
261,13019
262,13018
264,13017
266,13015
266,13014
267,13013
267,13012
266,13010
265,13009
264,13007
263,13006
262,13005
260,13004
257,13003
254,13002
253,13001
252,13001
251,13001
247,13000
243,12999
241,12999
240,12999
238,12999
233,12998
227,12998
223,12997
220,12997
217,12997
216,12997
212,12997
207,12998
203,12998
202,12998
200,12998
197,12999
193,12999
188,13000
184,13001
182,13001
180,13002
177,13003
174,13004
173,13005
172,13006
170,13007
169,13009
168,13010
168,13011
168,13012
169,13014
169,13015
170,13017
171,13018
172,13019
174,13020
177,13021
180,13022
182,13023
184,13023
188,13024
192,13025
194,13025
195,13025
197,13025
202,13026
207,13026
211,13027
215,13027
217,13027
" style="stroke:#ffffff;stroke-width:0;
stroke-linejoin:bevel; stroke-linecap:butt;
fill:#ffffff;
"/>
<!-- Line -->
<!--  spline  -->
<polyline points="217,13027
218,13027
222,13027
228,13026
232,13026
233,13026
235,13026
239,13025
242,13025
247,13024
251,13023
252,13023
253,13023
254,13022
257,13021
260,13020
261,13019
262,13018
264,13017
266,13015
266,13014
267,13013
267,13012
266,13010
265,13009
264,13007
263,13006
262,13005
260,13004
257,13003
254,13002
253,13001
252,13001
251,13001
247,13000
243,12999
241,12999
240,12999
238,12999
233,12998
227,12998
223,12997
220,12997
217,12997
216,12997
212,12997
207,12998
203,12998
202,12998
200,12998
197,12999
193,12999
188,13000
184,13001
182,13001
180,13002
177,13003
174,13004
173,13005
172,13006
170,13007
169,13009
168,13010
168,13011
168,13012
169,13014
169,13015
170,13017
171,13018
172,13019
174,13020
177,13021
180,13022
182,13023
184,13023
188,13024
192,13025
194,13025
195,13025
197,13025
202,13026
207,13026
211,13027
215,13027
217,13027
" style="stroke:#000000;stroke-width:7;
stroke-linejoin:bevel; stroke-linecap:round;
"/>
<!-- Line -->
<!--  spline  -->
<polyline points="267,12943
266,12944
265,12946
264,12947
263,12948
262,12948
260,12950
257,12951
254,12952
253,12953
252,12953
251,12954
247,12955
243,12956
241,12956
240,12956
238,12956
233,12957
227,12957
223,12958
220,12958
217,12958
216,12958
212,12958
207,12957
203,12957
202,12957
200,12957
197,12957
193,12956
188,12955
184,12954
182,12953
180,12952
177,12951
174,12950
173,12949
172,12948
170,12947
169,12946
168,12944
168,12943
168,12945
168,12955
168,12974
168,12993
168,13003
168,13005
169,13006
169,13008
170,13009
171,13010
172,13010
174,13012
177,13013
180,13014
182,13015
184,13016
188,13017
192,13018
194,13018
195,13018
197,13018
202,13019
207,13019
211,13020
215,13020
217,13020
218,13020
222,13020
228,13019
232,13019
233,13019
235,13019
239,13019
242,13018
247,13017
251,13016
252,13015
253,13015
254,13014
257,13013
260,13012
261,13011
262,13010
264,13009
265,13008
266,13007
267,13006
267,13005
267,13003
267,12993
267,12974
267,12955
267,12945
267,12943
" style="stroke:#ffffff;stroke-width:0;
stroke-linejoin:bevel; stroke-linecap:round;
fill:#ffffff;
"/>
<!-- Line -->
<!--  spline  -->
<polyline points="267,12943
266,12944
265,12946
264,12947
263,12948
262,12948
260,12950
257,12951
254,12952
253,12953
252,12953
251,12954
247,12955
243,12956
241,12956
240,12956
238,12956
233,12957
227,12957
223,12958
220,12958
217,12958
216,12958
212,12958
207,12957
203,12957
202,12957
200,12957
197,12957
193,12956
188,12955
184,12954
182,12953
180,12952
177,12951
174,12950
173,12949
172,12948
170,12947
169,12946
168,12944
168,12943
168,12945
168,12955
168,12974
168,12993
168,13003
168,13005
169,13006
169,13008
170,13009
171,13010
172,13010
174,13012
177,13013
180,13014
182,13015
184,13016
188,13017
192,13018
194,13018
195,13018
197,13018
202,13019
207,13019
211,13020
215,13020
217,13020
218,13020
222,13020
228,13019
232,13019
233,13019
235,13019
239,13019
242,13018
247,13017
251,13016
252,13015
253,13015
254,13014
257,13013
260,13012
261,13011
262,13010
264,13009
265,13008
266,13007
267,13006
267,13005
267,13003
267,12993
267,12974
267,12955
267,12945
267,12943
" style="stroke:#000000;stroke-width:7;
stroke-linejoin:bevel; stroke-linecap:round;
"/>
<!-- Line -->
<!--  spline  -->
<polyline points="217,12958
218,12958
222,12958
228,12957
232,12957
233,12957
235,12957
238,12957
242,12956
246,12955
250,12954
252,12953
254,12952
257,12951
260,12950
261,12949
262,12948
264,12947
265,12946
266,12945
267,12944
267,12943
266,12941
265,12940
264,12938
263,12937
262,12937
260,12935
257,12934
254,12933
252,12932
250,12931
246,12930
242,12929
240,12929
238,12928
233,12928
228,12928
223,12928
220,12928
217,12928
216,12928
212,12928
207,12928
203,12928
202,12928
200,12928
197,12928
193,12929
188,12930
184,12931
182,12932
180,12933
177,12934
174,12935
173,12936
172,12937
170,12938
169,12940
168,12941
168,12942
168,12943
169,12944
169,12946
170,12947
171,12948
172,12948
174,12950
177,12951
180,12952
182,12953
184,12954
188,12955
192,12956
194,12956
195,12956
197,12956
202,12957
207,12957
211,12958
215,12958
217,12958
" style="stroke:#ffffff;stroke-width:0;
stroke-linejoin:bevel; stroke-linecap:round;
fill:#ffffff;
"/>
<!-- Line -->
<!--  spline  -->
<polyline points="217,12958
218,12958
222,12958
228,12957
232,12957
233,12957
235,12957
238,12957
242,12956
246,12955
250,12954
252,12953
254,12952
257,12951
260,12950
261,12949
262,12948
264,12947
265,12946
266,12945
267,12944
267,12943
266,12941
265,12940
264,12938
263,12937
262,12937
260,12935
257,12934
254,12933
252,12932
250,12931
246,12930
242,12929
240,12929
238,12928
233,12928
228,12928
223,12928
220,12928
217,12928
216,12928
212,12928
207,12928
203,12928
202,12928
200,12928
197,12928
193,12929
188,12930
184,12931
182,12932
180,12933
177,12934
174,12935
173,12936
172,12937
170,12938
169,12940
168,12941
168,12942
168,12943
169,12944
169,12946
170,12947
171,12948
172,12948
174,12950
177,12951
180,12952
182,12953
184,12954
188,12955
192,12956
194,12956
195,12956
197,12956
202,12957
207,12957
211,12958
215,12958
217,12958
" style="stroke:#000000;stroke-width:7;
stroke-linejoin:bevel; stroke-linecap:round;
"/>
<!-- Line -->
<!--  polyline  -->
<polyline points="14,13045
419,13045
" style="stroke:#ffffff;stroke-width:7;
stroke-linejoin:round; stroke-linecap:round;
"/>
<!-- Line -->
<!--  polyline  -->
<polyline points="169,13111
93,13111
93,13104
65,13114
93,13124
93,13118
169,13118
169,13111
" style="stroke:#ffffff;stroke-width:0;
stroke-linejoin:round; stroke-linecap:round;
fill:#ffffff;
"/>
<!-- Line -->
<!--  polyline  -->
<polyline points="212,13133
212,13160
192,13160
221,13170
250,13160
230,13160
230,13133
212,13133
" style="stroke:#ffffff;stroke-width:0;
stroke-linejoin:round; stroke-linecap:round;
fill:#ffffff;
"/>
<!-- Line -->
<!--  polyline  -->
<polyline points="212,13096
212,13070
192,13070
221,13060
250,13070
230,13070
230,13096
212,13096
" style="stroke:#ffffff;stroke-width:0;
stroke-linejoin:round; stroke-linecap:round;
fill:#ffffff;
"/>
<!-- Line -->
<!--  polyline  -->
<polyline points="273,13118
349,13118
349,13124
377,13114
349,13104
349,13111
273,13111
273,13118
" style="stroke:#ffffff;stroke-width:0;
stroke-linejoin:round; stroke-linecap:round;
fill:#ffffff;
"/>
<!-- Line -->
<!--  spline  -->
<polyline points="343,13157
342,13157
339,13157
333,13158
330,13158
329,13158
328,13158
326,13158
321,13157
314,13157
304,13155
294,13153
290,13152
289,13152
284,13151
273,13148
263,13145
257,13144
255,13143
253,13143
247,13141
236,13138
224,13134
215,13131
207,13129
201,13126
198,13125
197,13125
196,13125
190,13122
178,13118
167,13114
161,13111
160,13111
159,13111
155,13109
148,13106
140,13102
131,13098
123,13094
120,13092
119,13092
116,13090
111,13087
106,13084
105,13082
104,13082
103,13081
101,13078
100,13077
100,13076
100,13075
101,13075
101,13074
102,13074
102,13073
103,13073
104,13073
107,13073
113,13072
116,13072
117,13072
118,13072
120,13072
125,13073
131,13073
141,13075
151,13077
155,13078
157,13078
162,13079
173,13082
183,13085
188,13086
190,13087
192,13088
198,13090
209,13093
221,13097
231,13100
239,13102
245,13104
248,13105
249,13105
250,13105
256,13108
267,13112
278,13116
284,13119
285,13119
286,13119
290,13121
296,13124
304,13128
314,13132
322,13136
325,13138
327,13138
329,13140
335,13143
340,13146
342,13148
343,13149
345,13152
346,13153
346,13154
346,13155
345,13155
345,13156
344,13156
344,13157
343,13157
" style="stroke:#ffffff;stroke-width:7;
stroke-linejoin:bevel; stroke-linecap:butt;
"/>
<!-- Line -->
<!--  spline  -->
<polyline points="339,13072
340,13074
341,13075
342,13077
341,13078
340,13080
337,13082
332,13086
327,13089
324,13091
323,13091
320,13093
312,13097
303,13101
300,13103
298,13104
294,13106
283,13110
273,13114
264,13118
257,13120
251,13123
248,13124
247,13124
246,13124
239,13127
227,13131
216,13134
209,13137
208,13137
207,13137
204,13138
198,13140
191,13142
182,13144
171,13147
160,13150
155,13151
154,13152
150,13153
140,13155
131,13157
127,13157
125,13157
122,13158
115,13158
108,13158
104,13158
102,13157
100,13157
99,13155
99,13154
98,13152
99,13151
100,13149
102,13147
107,13144
112,13141
115,13139
116,13139
119,13137
127,13133
136,13129
139,13127
141,13126
145,13124
156,13120
167,13116
175,13112
183,13110
189,13107
192,13106
193,13106
194,13106
201,13103
213,13099
224,13096
231,13093
232,13093
233,13093
236,13092
241,13090
249,13088
257,13085
268,13082
279,13079
284,13078
286,13078
290,13077
300,13075
309,13073
313,13073
314,13073
317,13073
324,13072
331,13072
335,13072
337,13072
339,13072
" style="stroke:#ffffff;stroke-width:7;
stroke-linejoin:bevel; stroke-linecap:butt;
"/>
<!-- Line -->
<!--  spline  -->
<polyline points="252,13130
253,13130
256,13128
261,13127
264,13125
265,13125
267,13124
268,13123
271,13122
273,13120
275,13118
275,13117
276,13117
276,13116
276,13114
276,13112
275,13111
275,13110
273,13108
271,13106
269,13105
267,13104
266,13103
265,13103
262,13101
257,13100
254,13098
253,13098
251,13097
248,13097
244,13096
238,13095
233,13094
231,13094
230,13094
227,13094
222,13094
216,13094
214,13094
213,13094
211,13094
205,13095
199,13096
195,13097
191,13097
189,13098
188,13098
185,13099
180,13101
177,13102
176,13102
174,13103
173,13104
170,13105
168,13107
166,13109
166,13110
165,13111
165,13113
165,13115
165,13116
166,13117
167,13119
169,13121
171,13123
173,13124
175,13125
176,13125
179,13126
183,13128
186,13129
187,13129
189,13130
193,13130
197,13131
203,13132
208,13133
211,13133
214,13133
219,13133
225,13133
227,13133
228,13133
230,13133
236,13133
242,13132
246,13131
250,13131
252,13130
" style="stroke:#86b6cd;stroke-width:0;
stroke-linejoin:bevel; stroke-linecap:butt;
fill:#86b6cd;
"/>
<!-- Line -->
<!--  spline  -->
<polyline points="252,13130
253,13130
256,13128
261,13127
264,13125
265,13125
267,13124
268,13123
271,13122
273,13120
275,13118
275,13117
276,13117
276,13116
276,13114
276,13112
275,13111
275,13110
273,13108
271,13106
269,13105
267,13104
266,13103
265,13103
262,13101
257,13100
254,13098
253,13098
251,13097
248,13097
244,13096
238,13095
233,13094
231,13094
230,13094
227,13094
222,13094
216,13094
214,13094
213,13094
211,13094
205,13095
199,13096
195,13097
191,13097
189,13098
188,13098
185,13099
180,13101
177,13102
176,13102
174,13103
173,13104
170,13105
168,13107
166,13109
166,13110
165,13111
165,13113
165,13115
165,13116
166,13117
167,13119
169,13121
171,13123
173,13124
175,13125
176,13125
179,13126
183,13128
186,13129
187,13129
189,13130
193,13130
197,13131
203,13132
208,13133
211,13133
214,13133
219,13133
225,13133
227,13133
228,13133
230,13133
236,13133
242,13132
246,13131
250,13131
252,13130
" style="stroke:#ffffff;stroke-width:7;
stroke-linejoin:bevel; stroke-linecap:butt;
"/>
</g>
</svg>
