<?xml version="1.0" standalone="no"?>
<!DOCTYPE svg PUBLIC "-//W3C//DTD SVG 1.1//EN"
"http://www.w3.org/Graphics/SVG/1.1/DTD/svg11.dtd">
<!-- Creator: fig2dev Version 3.2 Patchlevel 5c -->
<!-- CreationDate: Fri Sep 14 10:46:51 2012 -->
<!-- Magnification: 1.000 -->
<svg xmlns="http://www.w3.org/2000/svg" width="0.6in" height="0.4in" viewBox="4977 4038 752 531">
<g style="stroke-width:.025in; fill:none">
<!-- Line -->
<!--  polyline  -->
<polyline points="4989,4557
5624,4557
5624,4139
4989,4139
4989,4557
" style="stroke:#05b0da;stroke-width:0;
stroke-linejoin:miter; stroke-linecap:butt;
fill:#05b0da;
"/>
<!-- Line -->
<!--  polyline  -->
<polyline points="4989,4557
5624,4557
5624,4139
4989,4139
4989,4557
" style="stroke:#ffffff;stroke-width:7;
stroke-linejoin:miter; stroke-linecap:butt;
"/>
<!-- Line -->
<!--  polyline  -->
<polyline points="5717,4474
5624,4557
5624,4139
5717,4050
5717,4474
" style="stroke:#05b0da;stroke-width:0;
stroke-linejoin:miter; stroke-linecap:butt;
fill:#05b0da;
"/>
<!-- Line -->
<!--  polyline  -->
<polyline points="5717,4474
5624,4557
5624,4139
5717,4050
5717,4474
" style="stroke:#ffffff;stroke-width:7;
stroke-linejoin:miter; stroke-linecap:butt;
"/>
<!-- Line -->
<!--  polyline  -->
<polyline points="5098,4050
5717,4050
5624,4139
4989,4139
5098,4050
" style="stroke:#05b0da;stroke-width:0;
stroke-linejoin:miter; stroke-linecap:butt;
fill:#05b0da;
"/>
<!-- Line -->
<!--  polyline  -->
<polyline points="5098,4050
5717,4050
5624,4139
4989,4139
5098,4050
" style="stroke:#ffffff;stroke-width:7;
stroke-linejoin:miter; stroke-linecap:butt;
"/>
<!-- Line -->
<!--  polyline  -->
<polyline points="5118,4367
5025,4367
5025,4350
5118,4350
5118,4324
5179,4359
5118,4393
5118,4367
" style="stroke:#ffffff;stroke-width:0;
stroke-linejoin:miter; stroke-linecap:butt;
fill:#ffffff;
"/>
<!-- Line -->
<!--  polyline  -->
<polyline points="5493,4249
5428,4249
5428,4232
5493,4232
5493,4205
5554,4240
5493,4275
5493,4249
" style="stroke:#ffffff;stroke-width:0;
stroke-linejoin:miter; stroke-linecap:butt;
fill:#ffffff;
"/>
<!-- Line -->
<!--  polyline  -->
<polyline points="5543,4354
5428,4354
5428,4337
5543,4337
5543,4311
5604,4346
5543,4381
5543,4354
" style="stroke:#ffffff;stroke-width:0;
stroke-linejoin:miter; stroke-linecap:butt;
fill:#ffffff;
"/>
<!-- Line -->
<!--  polyline  -->
<polyline points="5493,4460
5428,4460
5428,4443
5493,4443
5493,4416
5554,4451
5493,4486
5493,4460
" style="stroke:#ffffff;stroke-width:0;
stroke-linejoin:miter; stroke-linecap:butt;
fill:#ffffff;
"/>
<!-- Line -->
<!--  polyline  -->
<polyline points="5378,4507
5217,4507
5217,4193
5378,4193
5378,4507
" style="stroke:#000000;stroke-width:0;
stroke-linejoin:miter; stroke-linecap:butt;
fill:#000000;
"/>
<!-- Line -->
<!--  polyline  -->
<polyline points="5378,4507
5217,4507
5217,4193
5378,4193
5378,4507
" style="stroke:#ffffff;stroke-width:15;
stroke-linejoin:miter; stroke-linecap:butt;
"/>
<!-- Line -->
<!--  polyline  -->
<polyline points="5379,4171
5379,4526
5215,4526
5215,4171
5379,4171
" style="stroke:#000000;stroke-width:0;
stroke-linejoin:miter; stroke-linecap:butt;
fill:#000000;
"/>
<!-- Line -->
<!--  polyline  -->
<polyline points="5379,4171
5379,4526
5215,4526
5215,4171
5379,4171
" style="stroke:#ffffff;stroke-width:7;
stroke-linejoin:miter; stroke-linecap:butt;
"/>
<!-- Line -->
<!--  polyline  -->
<polyline points="5329,4442
5329,4489
5258,4489
5258,4442
5329,4442
" style="stroke:#ffffff;stroke-width:0;
stroke-linejoin:miter; stroke-linecap:butt;
fill:#ffffff;
"/>
<!-- Line -->
<!--  polyline  -->
<polyline points="5329,4442
5329,4489
5258,4489
5258,4442
5329,4442
" style="stroke:#ffffff;stroke-width:7;
stroke-linejoin:miter; stroke-linecap:butt;
"/>
<!-- Line -->
<!--  polyline  -->
<polyline points="5366,4490
5366,4505
5354,4505
5354,4490
5366,4490
" style="stroke:#ffffff;stroke-width:0;
stroke-linejoin:miter; stroke-linecap:butt;
fill:#ffffff;
"/>
<!-- Line -->
<!--  polyline  -->
<polyline points="5366,4490
5366,4505
5354,4505
5354,4490
5366,4490
" style="stroke:#ffffff;stroke-width:7;
stroke-linejoin:miter; stroke-linecap:butt;
"/>
<!-- Line -->
<!--  polyline  -->
<polyline points="5366,4462
5366,4476
5354,4476
5354,4462
5366,4462
" style="stroke:#ffffff;stroke-width:0;
stroke-linejoin:miter; stroke-linecap:butt;
fill:#ffffff;
"/>
<!-- Line -->
<!--  polyline  -->
<polyline points="5366,4462
5366,4476
5354,4476
5354,4462
5366,4462
" style="stroke:#ffffff;stroke-width:7;
stroke-linejoin:miter; stroke-linecap:butt;
"/>
<!-- Line -->
<!--  polyline  -->
<polyline points="5366,4433
5366,4447
5354,4447
5354,4433
5366,4433
" style="stroke:#ffffff;stroke-width:0;
stroke-linejoin:miter; stroke-linecap:butt;
fill:#ffffff;
"/>
<!-- Line -->
<!--  polyline  -->
<polyline points="5366,4433
5366,4447
5354,4447
5354,4433
5366,4433
" style="stroke:#ffffff;stroke-width:7;
stroke-linejoin:miter; stroke-linecap:butt;
"/>
<!-- Line -->
<!--  polyline  -->
<polyline points="5366,4404
5366,4418
5354,4418
5354,4404
5366,4404
" style="stroke:#ffffff;stroke-width:0;
stroke-linejoin:miter; stroke-linecap:butt;
fill:#ffffff;
"/>
<!-- Line -->
<!--  polyline  -->
<polyline points="5366,4404
5366,4418
5354,4418
5354,4404
5366,4404
" style="stroke:#ffffff;stroke-width:7;
stroke-linejoin:miter; stroke-linecap:butt;
"/>
<!-- Line -->
<!--  polyline  -->
<polyline points="5366,4375
5366,4389
5354,4389
5354,4375
5366,4375
" style="stroke:#ffffff;stroke-width:0;
stroke-linejoin:miter; stroke-linecap:butt;
fill:#ffffff;
"/>
<!-- Line -->
<!--  polyline  -->
<polyline points="5366,4375
5366,4389
5354,4389
5354,4375
5366,4375
" style="stroke:#ffffff;stroke-width:7;
stroke-linejoin:miter; stroke-linecap:butt;
"/>
<!-- Line -->
<!--  polyline  -->
<polyline points="5366,4346
5366,4360
5354,4360
5354,4346
5366,4346
" style="stroke:#ffffff;stroke-width:0;
stroke-linejoin:miter; stroke-linecap:butt;
fill:#ffffff;
"/>
<!-- Line -->
<!--  polyline  -->
<polyline points="5366,4346
5366,4360
5354,4360
5354,4346
5366,4346
" style="stroke:#ffffff;stroke-width:7;
stroke-linejoin:miter; stroke-linecap:butt;
"/>
<!-- Line -->
<!--  polyline  -->
<polyline points="5366,4317
5366,4331
5354,4331
5354,4317
5366,4317
" style="stroke:#ffffff;stroke-width:0;
stroke-linejoin:miter; stroke-linecap:butt;
fill:#ffffff;
"/>
<!-- Line -->
<!--  polyline  -->
<polyline points="5366,4317
5366,4331
5354,4331
5354,4317
5366,4317
" style="stroke:#ffffff;stroke-width:7;
stroke-linejoin:miter; stroke-linecap:butt;
"/>
<!-- Line -->
<!--  polyline  -->
<polyline points="5366,4288
5366,4302
5354,4302
5354,4288
5366,4288
" style="stroke:#ffffff;stroke-width:0;
stroke-linejoin:miter; stroke-linecap:butt;
fill:#ffffff;
"/>
<!-- Line -->
<!--  polyline  -->
<polyline points="5366,4288
5366,4302
5354,4302
5354,4288
5366,4288
" style="stroke:#ffffff;stroke-width:7;
stroke-linejoin:miter; stroke-linecap:butt;
"/>
<!-- Line -->
<!--  polyline  -->
<polyline points="5366,4259
5366,4273
5354,4273
5354,4259
5366,4259
" style="stroke:#ffffff;stroke-width:0;
stroke-linejoin:miter; stroke-linecap:butt;
fill:#ffffff;
"/>
<!-- Line -->
<!--  polyline  -->
<polyline points="5366,4259
5366,4273
5354,4273
5354,4259
5366,4259
" style="stroke:#ffffff;stroke-width:7;
stroke-linejoin:miter; stroke-linecap:butt;
"/>
<!-- Line -->
<!--  polyline  -->
<polyline points="5366,4230
5366,4245
5354,4245
5354,4230
5366,4230
" style="stroke:#ffffff;stroke-width:0;
stroke-linejoin:miter; stroke-linecap:butt;
fill:#ffffff;
"/>
<!-- Line -->
<!--  polyline  -->
<polyline points="5366,4230
5366,4245
5354,4245
5354,4230
5366,4230
" style="stroke:#ffffff;stroke-width:7;
stroke-linejoin:miter; stroke-linecap:butt;
"/>
<!-- Line -->
<!--  polyline  -->
<polyline points="5366,4201
5366,4216
5354,4216
5354,4202
5366,4201
" style="stroke:#ffffff;stroke-width:0;
stroke-linejoin:miter; stroke-linecap:butt;
fill:#ffffff;
"/>
<!-- Line -->
<!--  polyline  -->
<polyline points="5366,4201
5366,4216
5354,4216
5354,4202
5366,4201
" style="stroke:#ffffff;stroke-width:7;
stroke-linejoin:miter; stroke-linecap:butt;
"/>
<!-- Line -->
<!--  polyline  -->
<polyline points="5238,4490
5238,4504
5226,4504
5226,4490
5238,4490
" style="stroke:#ffffff;stroke-width:0;
stroke-linejoin:miter; stroke-linecap:butt;
fill:#ffffff;
"/>
<!-- Line -->
<!--  polyline  -->
<polyline points="5238,4490
5238,4504
5226,4504
5226,4490
5238,4490
" style="stroke:#ffffff;stroke-width:7;
stroke-linejoin:miter; stroke-linecap:butt;
"/>
<!-- Line -->
<!--  polyline  -->
<polyline points="5238,4461
5238,4475
5226,4475
5226,4461
5238,4461
" style="stroke:#ffffff;stroke-width:0;
stroke-linejoin:miter; stroke-linecap:butt;
fill:#ffffff;
"/>
<!-- Line -->
<!--  polyline  -->
<polyline points="5238,4461
5238,4475
5226,4475
5226,4461
5238,4461
" style="stroke:#ffffff;stroke-width:7;
stroke-linejoin:miter; stroke-linecap:butt;
"/>
<!-- Line -->
<!--  polyline  -->
<polyline points="5238,4432
5238,4446
5226,4446
5226,4432
5238,4432
" style="stroke:#ffffff;stroke-width:0;
stroke-linejoin:miter; stroke-linecap:butt;
fill:#ffffff;
"/>
<!-- Line -->
<!--  polyline  -->
<polyline points="5238,4432
5238,4446
5226,4446
5226,4432
5238,4432
" style="stroke:#ffffff;stroke-width:7;
stroke-linejoin:miter; stroke-linecap:butt;
"/>
<!-- Line -->
<!--  polyline  -->
<polyline points="5238,4403
5238,4417
5226,4417
5226,4403
5238,4403
" style="stroke:#ffffff;stroke-width:0;
stroke-linejoin:miter; stroke-linecap:butt;
fill:#ffffff;
"/>
<!-- Line -->
<!--  polyline  -->
<polyline points="5238,4403
5238,4417
5226,4417
5226,4403
5238,4403
" style="stroke:#ffffff;stroke-width:7;
stroke-linejoin:miter; stroke-linecap:butt;
"/>
<!-- Line -->
<!--  polyline  -->
<polyline points="5238,4374
5238,4388
5226,4388
5226,4374
5238,4374
" style="stroke:#ffffff;stroke-width:0;
stroke-linejoin:miter; stroke-linecap:butt;
fill:#ffffff;
"/>
<!-- Line -->
<!--  polyline  -->
<polyline points="5238,4374
5238,4388
5226,4388
5226,4374
5238,4374
" style="stroke:#ffffff;stroke-width:7;
stroke-linejoin:miter; stroke-linecap:butt;
"/>
<!-- Line -->
<!--  polyline  -->
<polyline points="5238,4345
5238,4359
5226,4359
5226,4345
5238,4345
" style="stroke:#ffffff;stroke-width:0;
stroke-linejoin:miter; stroke-linecap:butt;
fill:#ffffff;
"/>
<!-- Line -->
<!--  polyline  -->
<polyline points="5238,4345
5238,4359
5226,4359
5226,4345
5238,4345
" style="stroke:#ffffff;stroke-width:7;
stroke-linejoin:miter; stroke-linecap:butt;
"/>
<!-- Line -->
<!--  polyline  -->
<polyline points="5238,4316
5238,4330
5226,4330
5226,4316
5238,4316
" style="stroke:#ffffff;stroke-width:0;
stroke-linejoin:miter; stroke-linecap:butt;
fill:#ffffff;
"/>
<!-- Line -->
<!--  polyline  -->
<polyline points="5238,4316
5238,4330
5226,4330
5226,4316
5238,4316
" style="stroke:#ffffff;stroke-width:7;
stroke-linejoin:miter; stroke-linecap:butt;
"/>
<!-- Line -->
<!--  polyline  -->
<polyline points="5238,4287
5238,4302
5226,4302
5226,4287
5238,4287
" style="stroke:#ffffff;stroke-width:0;
stroke-linejoin:miter; stroke-linecap:butt;
fill:#ffffff;
"/>
<!-- Line -->
<!--  polyline  -->
<polyline points="5238,4287
5238,4302
5226,4302
5226,4287
5238,4287
" style="stroke:#ffffff;stroke-width:7;
stroke-linejoin:miter; stroke-linecap:butt;
"/>
<!-- Line -->
<!--  polyline  -->
<polyline points="5238,4259
5238,4273
5226,4273
5226,4258
5238,4259
" style="stroke:#ffffff;stroke-width:0;
stroke-linejoin:miter; stroke-linecap:butt;
fill:#ffffff;
"/>
<!-- Line -->
<!--  polyline  -->
<polyline points="5238,4259
5238,4273
5226,4273
5226,4258
5238,4259
" style="stroke:#ffffff;stroke-width:7;
stroke-linejoin:miter; stroke-linecap:butt;
"/>
<!-- Line -->
<!--  polyline  -->
<polyline points="5238,4230
5238,4244
5226,4244
5226,4230
5238,4230
" style="stroke:#ffffff;stroke-width:0;
stroke-linejoin:miter; stroke-linecap:butt;
fill:#ffffff;
"/>
<!-- Line -->
<!--  polyline  -->
<polyline points="5238,4230
5238,4244
5226,4244
5226,4230
5238,4230
" style="stroke:#ffffff;stroke-width:7;
stroke-linejoin:miter; stroke-linecap:butt;
"/>
<!-- Line -->
<!--  polyline  -->
<polyline points="5238,4201
5238,4215
5226,4215
5226,4201
5238,4201
" style="stroke:#ffffff;stroke-width:0;
stroke-linejoin:miter; stroke-linecap:butt;
fill:#ffffff;
"/>
<!-- Line -->
<!--  polyline  -->
<polyline points="5238,4201
5238,4215
5226,4215
5226,4201
5238,4201
" style="stroke:#ffffff;stroke-width:7;
stroke-linejoin:miter; stroke-linecap:butt;
"/>
<!-- Line -->
<!--  polyline  -->
<polyline points="5329,4365
5329,4412
5258,4412
5258,4365
5329,4365
" style="stroke:#ffffff;stroke-width:0;
stroke-linejoin:miter; stroke-linecap:butt;
fill:#ffffff;
"/>
<!-- Line -->
<!--  polyline  -->
<polyline points="5329,4365
5329,4412
5258,4412
5258,4365
5329,4365
" style="stroke:#ffffff;stroke-width:7;
stroke-linejoin:miter; stroke-linecap:butt;
"/>
<!-- Line -->
<!--  polyline  -->
<polyline points="5329,4288
5329,4335
5258,4335
5258,4288
5329,4288
" style="stroke:#ffffff;stroke-width:0;
stroke-linejoin:miter; stroke-linecap:butt;
fill:#ffffff;
"/>
<!-- Line -->
<!--  polyline  -->
<polyline points="5329,4288
5329,4335
5258,4335
5258,4288
5329,4288
" style="stroke:#ffffff;stroke-width:7;
stroke-linejoin:miter; stroke-linecap:butt;
"/>
<!-- Line -->
<!--  polyline  -->
<polyline points="5329,4211
5329,4258
5258,4258
5258,4211
5329,4211
" style="stroke:#ffffff;stroke-width:0;
stroke-linejoin:miter; stroke-linecap:butt;
fill:#ffffff;
"/>
<!-- Line -->
<!--  polyline  -->
<polyline points="5329,4211
5329,4258
5258,4258
5258,4211
5329,4211
" style="stroke:#ffffff;stroke-width:7;
stroke-linejoin:miter; stroke-linecap:butt;
"/>
</g>
</svg>
