<?xml version="1.0" standalone="no"?>
<!DOCTYPE svg PUBLIC "-//W3C//DTD SVG 1.1//EN"
"http://www.w3.org/Graphics/SVG/1.1/DTD/svg11.dtd">
<!-- Creator: fig2dev Version 3.2 Patchlevel 5c -->
<!-- CreationDate: Fri Sep 14 10:46:51 2012 -->
<!-- Magnification: 1.000 -->
<svg xmlns="http://www.w3.org/2000/svg" width="0.6in" height="0.7in" viewBox="-9 12404 678 806">
<g style="stroke-width:.025in; fill:none">
<!-- Line -->
<!--  spline  -->
<polyline points="331,12977
332,12977
336,12977
346,12976
363,12976
383,12975
402,12974
419,12974
429,12973
433,12973
434,12973
435,12973
439,12972
447,12972
458,12970
472,12968
487,12966
504,12963
524,12959
542,12955
554,12952
560,12951
563,12950
565,12949
570,12948
580,12944
594,12939
610,12932
619,12928
622,12927
625,12925
631,12921
641,12913
649,12904
654,12897
656,12892
657,12887
657,12884
656,12882
652,12875
646,12863
642,12856
641,12854
640,12854
637,12851
631,12847
623,12842
611,12836
594,12829
580,12824
570,12821
565,12819
563,12818
560,12817
554,12816
542,12813
524,12809
505,12805
492,12803
485,12801
482,12801
478,12800
471,12799
456,12797
434,12795
415,12793
398,12792
383,12791
370,12791
358,12790
347,12790
339,12790
334,12790
331,12790
330,12790
326,12790
316,12791
299,12792
279,12793
260,12793
243,12794
233,12795
229,12795
228,12795
227,12795
223,12796
215,12796
204,12798
190,12800
175,12802
158,12805
138,12809
120,12813
108,12816
102,12817
99,12818
97,12819
92,12821
82,12824
68,12829
52,12836
44,12839
41,12841
38,12842
32,12846
22,12854
12,12864
8,12873
6,12879
5,12883
5,12884
6,12885
10,12893
17,12904
21,12912
22,12913
23,12913
25,12916
31,12920
39,12925
51,12932
68,12939
82,12944
92,12948
97,12949
99,12950
102,12951
108,12952
120,12955
138,12959
157,12963
170,12965
177,12967
180,12967
184,12968
191,12969
206,12971
228,12973
247,12975
264,12976
279,12976
292,12977
304,12977
315,12977
323,12977
328,12977
331,12977
" style="stroke:#036998;stroke-width:0;
stroke-linejoin:bevel; stroke-linecap:butt;
fill:#036998;
"/>
<!-- Line -->
<!--  spline  -->
<polyline points="331,12977
332,12977
336,12977
346,12976
363,12976
383,12975
402,12974
419,12974
429,12973
433,12973
434,12973
435,12973
439,12972
447,12972
458,12970
472,12968
487,12966
504,12963
524,12959
542,12955
554,12952
560,12951
563,12950
565,12949
570,12948
580,12944
594,12939
610,12932
619,12928
622,12927
625,12925
631,12921
641,12913
649,12904
654,12897
656,12892
657,12887
657,12884
656,12882
652,12875
646,12863
642,12856
641,12854
640,12854
637,12851
631,12847
623,12842
611,12836
594,12829
580,12824
570,12821
565,12819
563,12818
560,12817
554,12816
542,12813
524,12809
505,12805
492,12803
485,12801
482,12801
478,12800
471,12799
456,12797
434,12795
415,12793
398,12792
383,12791
370,12791
358,12790
347,12790
339,12790
334,12790
331,12790
330,12790
326,12790
316,12791
299,12792
279,12793
260,12793
243,12794
233,12795
229,12795
228,12795
227,12795
223,12796
215,12796
204,12798
190,12800
175,12802
158,12805
138,12809
120,12813
108,12816
102,12817
99,12818
97,12819
92,12821
82,12824
68,12829
52,12836
44,12839
41,12841
38,12842
32,12846
22,12854
12,12864
8,12873
6,12879
5,12883
5,12884
6,12885
10,12893
17,12904
21,12912
22,12913
23,12913
25,12916
31,12920
39,12925
51,12932
68,12939
82,12944
92,12948
97,12949
99,12950
102,12951
108,12952
120,12955
138,12959
157,12963
170,12965
177,12967
180,12967
184,12968
191,12969
206,12971
228,12973
247,12975
264,12976
279,12976
292,12977
304,12977
315,12977
323,12977
328,12977
331,12977
" style="stroke:#ffffff;stroke-width:7;
stroke-linejoin:bevel; stroke-linecap:butt;
"/>
<!-- Line -->
<!--  spline  -->
<polyline points="326,12546
327,12546
333,12546
345,12545
362,12545
379,12544
391,12543
397,12543
398,12543
399,12543
405,12542
415,12541
427,12540
442,12537
460,12534
476,12530
484,12528
487,12527
490,12526
497,12524
509,12519
520,12514
526,12512
528,12511
530,12510
534,12507
541,12502
547,12496
550,12491
552,12487
553,12483
553,12481
552,12480
549,12475
545,12467
542,12462
541,12461
539,12459
535,12456
529,12452
521,12448
509,12443
497,12438
490,12436
487,12435
484,12434
476,12433
460,12429
443,12426
434,12424
431,12424
427,12423
417,12422
398,12420
382,12419
368,12418
356,12417
345,12417
336,12416
330,12416
327,12416
326,12416
325,12416
319,12416
307,12417
291,12418
274,12419
262,12420
256,12420
255,12420
254,12420
248,12421
238,12422
225,12423
210,12426
192,12429
176,12433
168,12434
165,12435
162,12436
155,12438
143,12443
132,12448
126,12450
124,12452
122,12453
118,12455
111,12461
104,12468
102,12474
100,12478
100,12480
100,12481
101,12482
103,12487
108,12496
110,12501
111,12502
113,12504
117,12506
123,12510
131,12514
143,12519
155,12524
162,12526
165,12527
168,12528
176,12530
192,12534
209,12537
218,12539
222,12540
225,12540
236,12541
255,12543
271,12544
285,12545
297,12546
308,12546
316,12546
323,12546
325,12546
326,12546
" style="stroke:#036998;stroke-width:0;
stroke-linejoin:bevel; stroke-linecap:butt;
fill:#036998;
"/>
<!-- Line -->
<!--  spline  -->
<polyline points="326,12546
327,12546
333,12546
345,12545
362,12545
379,12544
391,12543
397,12543
398,12543
399,12543
405,12542
415,12541
427,12540
442,12537
460,12534
476,12530
484,12528
487,12527
490,12526
497,12524
509,12519
520,12514
526,12512
528,12511
530,12510
534,12507
541,12502
547,12496
550,12491
552,12487
553,12483
553,12481
552,12480
549,12475
545,12467
542,12462
541,12461
539,12459
535,12456
529,12452
521,12448
509,12443
497,12438
490,12436
487,12435
484,12434
476,12433
460,12429
443,12426
434,12424
431,12424
427,12423
417,12422
398,12420
382,12419
368,12418
356,12417
345,12417
336,12416
330,12416
327,12416
326,12416
325,12416
319,12416
307,12417
291,12418
274,12419
262,12420
256,12420
255,12420
254,12420
248,12421
238,12422
225,12423
210,12426
192,12429
176,12433
168,12434
165,12435
162,12436
155,12438
143,12443
132,12448
126,12450
124,12452
122,12453
118,12455
111,12461
104,12468
102,12474
100,12478
100,12480
100,12481
101,12482
103,12487
108,12496
110,12501
111,12502
113,12504
117,12506
123,12510
131,12514
143,12519
155,12524
162,12526
165,12527
168,12528
176,12530
192,12534
209,12537
218,12539
222,12540
225,12540
236,12541
255,12543
271,12544
285,12545
297,12546
308,12546
316,12546
323,12546
325,12546
326,12546
" style="stroke:#ffffff;stroke-width:7;
stroke-linejoin:bevel; stroke-linecap:butt;
"/>
<!-- Line -->
<!--  spline  -->
<polyline points="327,12832
327,12833
327,12839
327,12851
327,12869
326,12886
326,12898
326,12904
326,12905
325,12905
319,12905
307,12904
291,12904
274,12903
262,12902
256,12902
255,12902
254,12902
248,12901
238,12900
225,12898
210,12896
192,12892
176,12888
168,12886
165,12886
162,12885
155,12882
143,12878
132,12873
126,12871
124,12870
122,12869
118,12866
111,12861
104,12854
102,12848
100,12843
100,12841
100,12840
100,12837
100,12829
100,12816
100,12796
100,12770
100,12737
100,12700
100,12660
100,12621
100,12584
100,12551
100,12525
100,12505
100,12492
100,12484
100,12481
101,12482
103,12487
108,12496
110,12501
111,12502
113,12504
117,12506
123,12510
131,12514
143,12519
155,12524
162,12526
165,12527
168,12528
176,12530
192,12534
209,12537
218,12539
222,12540
225,12540
236,12541
255,12543
271,12544
285,12545
297,12546
308,12546
316,12546
323,12546
325,12546
326,12546
327,12546
333,12546
345,12545
362,12545
379,12544
391,12543
397,12543
398,12543
399,12543
405,12542
415,12541
427,12540
442,12537
460,12534
476,12530
484,12528
487,12527
490,12526
497,12524
509,12519
520,12514
526,12512
528,12511
530,12510
534,12507
541,12502
547,12496
550,12491
552,12487
553,12483
553,12481
553,12484
553,12492
553,12505
553,12525
553,12551
553,12584
553,12621
553,12661
553,12700
553,12737
553,12770
553,12796
553,12816
553,12829
553,12837
553,12840
553,12841
551,12844
549,12850
547,12853
547,12854
545,12856
542,12858
538,12862
532,12866
525,12870
522,12872
521,12873
518,12874
509,12878
500,12882
496,12883
494,12884
490,12885
479,12888
468,12891
460,12893
453,12894
447,12895
444,12896
443,12896
" style="stroke:#036998;stroke-width:0;
stroke-linejoin:bevel; stroke-linecap:butt;
fill:#036998;
"/>
<!-- Line -->
<!--  spline  -->
<polyline points="327,12832
327,12833
327,12839
327,12851
327,12869
326,12886
326,12898
326,12904
326,12905
325,12905
319,12905
307,12904
291,12904
274,12903
262,12902
256,12902
255,12902
254,12902
248,12901
238,12900
225,12898
210,12896
192,12892
176,12888
168,12886
165,12886
162,12885
155,12882
143,12878
132,12873
126,12871
124,12870
122,12869
118,12866
111,12861
104,12854
102,12848
100,12843
100,12841
100,12840
100,12837
100,12829
100,12816
100,12796
100,12770
100,12737
100,12700
100,12660
100,12621
100,12584
100,12551
100,12525
100,12505
100,12492
100,12484
100,12481
101,12482
103,12487
108,12496
110,12501
111,12502
113,12504
117,12506
123,12510
131,12514
143,12519
155,12524
162,12526
165,12527
168,12528
176,12530
192,12534
209,12537
218,12539
222,12540
225,12540
236,12541
255,12543
271,12544
285,12545
297,12546
308,12546
316,12546
323,12546
325,12546
326,12546
327,12546
333,12546
345,12545
362,12545
379,12544
391,12543
397,12543
398,12543
399,12543
405,12542
415,12541
427,12540
442,12537
460,12534
476,12530
484,12528
487,12527
490,12526
497,12524
509,12519
520,12514
526,12512
528,12511
530,12510
534,12507
541,12502
547,12496
550,12491
552,12487
553,12483
553,12481
553,12484
553,12492
553,12505
553,12525
553,12551
553,12584
553,12621
553,12661
553,12700
553,12737
553,12770
553,12796
553,12816
553,12829
553,12837
553,12840
553,12841
551,12844
549,12850
547,12853
547,12854
545,12856
542,12858
538,12862
532,12866
525,12870
522,12872
521,12873
518,12874
509,12878
500,12882
496,12883
494,12884
490,12885
479,12888
468,12891
460,12893
453,12894
447,12895
444,12896
443,12896
" style="stroke:#ffffff;stroke-width:7;
stroke-linejoin:bevel; stroke-linecap:butt;
"/>
<!-- Line -->
<!--  polyline  -->
<polyline points="606,13099
606,12935
519,12875
519,12516
" style="stroke:#ffffff;stroke-width:7;
stroke-linejoin:miter; stroke-linecap:butt;
"/>
<!-- Line -->
<!--  polyline  -->
<polyline points="153,13129
153,12965
204,12895
204,12536
" style="stroke:#ffffff;stroke-width:7;
stroke-linejoin:miter; stroke-linecap:butt;
"/>
<!-- Line -->
<!--  polyline  -->
<polyline points="51,13098
51,12934
133,12873
133,12514
" style="stroke:#ffffff;stroke-width:7;
stroke-linejoin:miter; stroke-linecap:butt;
"/>
<!-- Line -->
<!--  polyline  -->
<polyline points="326,12546
326,12905
" style="stroke:#ffffff;stroke-width:7;
stroke-linejoin:miter; stroke-linecap:butt;
"/>
<!-- Line -->
<!--  polyline  -->
<polyline points="442,12896
442,12537
" style="stroke:#000000;stroke-width:0;
stroke-linejoin:miter; stroke-linecap:butt;
fill:#000000;
"/>
<!-- Line -->
<!--  polyline  -->
<polyline points="442,12896
442,12537
" style="stroke:#ffffff;stroke-width:7;
stroke-linejoin:miter; stroke-linecap:butt;
"/>
<!-- Line -->
<!--  spline  -->
<polyline points="657,13049
657,13050
654,13055
651,13063
648,13068
648,13069
646,13072
642,13076
636,13081
627,13087
618,13093
614,13095
612,13096
607,13098
595,13103
584,13108
578,13110
575,13111
573,13112
566,13114
553,13118
538,13122
526,13125
516,13127
508,13128
504,13129
503,13129
503,13128
503,13124
503,13114
503,13096
503,13073
503,13046
503,13019
503,12996
503,12978
503,12968
503,12964
503,12963
505,12963
513,12961
528,12957
543,12954
551,12952
553,12952
554,12952
558,12951
564,12949
573,12946
583,12943
595,12938
607,12933
612,12931
614,12930
618,12928
627,12922
635,12916
639,12914
640,12913
642,12910
648,12904
653,12897
655,12892
656,12888
657,12885
657,12886
657,12890
657,12900
657,12917
657,12940
657,12967
657,12994
657,13017
657,13034
657,13044
657,13048
657,13049
" style="stroke:#036998;stroke-width:0;
stroke-linejoin:bevel; stroke-linecap:butt;
fill:#036998;
"/>
<!-- Line -->
<!--  spline  -->
<polyline points="657,13049
657,13050
654,13055
651,13063
648,13068
648,13069
646,13072
642,13076
636,13081
627,13087
618,13093
614,13095
612,13096
607,13098
595,13103
584,13108
578,13110
575,13111
573,13112
566,13114
553,13118
538,13122
526,13125
516,13127
508,13128
504,13129
503,13129
503,13128
503,13124
503,13114
503,13096
503,13073
503,13046
503,13019
503,12996
503,12978
503,12968
503,12964
503,12963
505,12963
513,12961
528,12957
543,12954
551,12952
553,12952
554,12952
558,12951
564,12949
573,12946
583,12943
595,12938
607,12933
612,12931
614,12930
618,12928
627,12922
635,12916
639,12914
640,12913
642,12910
648,12904
653,12897
655,12892
656,12888
657,12885
657,12886
657,12890
657,12900
657,12917
657,12940
657,12967
657,12994
657,13017
657,13034
657,13044
657,13048
657,13049
" style="stroke:#ffffff;stroke-width:7;
stroke-linejoin:bevel; stroke-linecap:butt;
"/>
<!-- Line -->
<!--  spline  -->
<polyline points="3,13047
4,13049
8,13057
14,13068
18,13076
19,13078
20,13078
23,13081
29,13085
37,13091
49,13097
67,13105
82,13110
92,13114
97,13115
100,13116
103,13117
109,13118
121,13121
140,13125
159,13129
173,13131
180,13133
183,13133
186,13134
194,13135
209,13137
231,13139
250,13141
267,13142
282,13142
296,13143
308,13143
318,13143
327,13143
332,13143
335,13143
335,13142
335,13138
335,13128
335,13110
335,13087
335,13060
335,13033
335,13010
335,12992
335,12982
335,12978
335,12977
334,12977
330,12977
319,12976
303,12976
282,12975
262,12974
246,12974
235,12973
231,12973
230,12973
229,12973
225,12973
217,12972
206,12971
192,12969
177,12967
159,12964
139,12960
120,12956
108,12953
102,12951
99,12951
96,12950
91,12948
80,12944
66,12939
49,12932
41,12928
38,12927
35,12925
29,12921
19,12913
11,12904
6,12896
4,12890
3,12885
3,12883
3,12882
3,12883
3,12887
3,12897
3,12914
3,12938
3,12965
3,12991
3,13015
3,13032
3,13042
3,13046
3,13047
" style="stroke:#036998;stroke-width:0;
stroke-linejoin:bevel; stroke-linecap:butt;
fill:#036998;
"/>
<!-- Line -->
<!--  spline  -->
<polyline points="3,13047
4,13049
8,13057
14,13068
18,13076
19,13078
20,13078
23,13081
29,13085
37,13091
49,13097
67,13105
82,13110
92,13114
97,13115
100,13116
103,13117
109,13118
121,13121
140,13125
159,13129
173,13131
180,13133
183,13133
186,13134
194,13135
209,13137
231,13139
250,13141
267,13142
282,13142
296,13143
308,13143
318,13143
327,13143
332,13143
335,13143
335,13142
335,13138
335,13128
335,13110
335,13087
335,13060
335,13033
335,13010
335,12992
335,12982
335,12978
335,12977
334,12977
330,12977
319,12976
303,12976
282,12975
262,12974
246,12974
235,12973
231,12973
230,12973
229,12973
225,12973
217,12972
206,12971
192,12969
177,12967
159,12964
139,12960
120,12956
108,12953
102,12951
99,12951
96,12950
91,12948
80,12944
66,12939
49,12932
41,12928
38,12927
35,12925
29,12921
19,12913
11,12904
6,12896
4,12890
3,12885
3,12883
3,12882
3,12883
3,12887
3,12897
3,12914
3,12938
3,12965
3,12991
3,13015
3,13032
3,13042
3,13046
3,13047
" style="stroke:#ffffff;stroke-width:7;
stroke-linejoin:bevel; stroke-linecap:butt;
"/>
<!-- Line -->
<!--  spline  -->
<polyline points="327,12545
327,12544
327,12537
326,12523
326,12510
326,12503
326,12502
328,12502
332,12502
334,12502
335,12502
337,12502
340,12501
343,12501
346,12501
347,12501
348,12501
351,12501
353,12501
354,12501
355,12500
356,12500
358,12500
361,12500
362,12500
364,12500
365,12500
366,12500
372,12503
385,12510
404,12519
422,12527
435,12534
441,12537
442,12537
442,12540
442,12548
442,12561
442,12581
442,12607
442,12640
442,12677
442,12717
442,12756
442,12793
442,12826
442,12852
442,12872
442,12885
442,12893
442,12896
443,12897
448,12902
458,12913
473,12929
487,12945
497,12956
502,12961
503,12962
503,12963
503,12967
503,12978
503,12995
503,13019
503,13046
503,13073
503,13097
503,13114
503,13125
503,13129
503,13130
502,13130
499,13128
490,13124
476,13118
456,13109
433,13098
410,13088
390,13079
376,13073
367,13069
364,13067
363,13067
361,13067
360,13067
358,13067
357,13067
355,13067
354,13068
351,13068
349,13068
348,13069
347,13069
346,13069
344,13069
342,13069
341,13069
340,13069
338,13069
337,13069
336,13069
336,13070
335,13070
335,13069
335,13061
335,13046
335,13024
335,13001
335,12986
335,12978
335,12977
335,12976
334,12970
333,12958
331,12941
329,12924
328,12912
327,12906
327,12905
327,12902
327,12894
327,12881
327,12861
327,12834
327,12802
327,12765
327,12725
327,12685
327,12648
327,12616
327,12589
327,12569
327,12556
327,12548
327,12545
" style="stroke:#036998;stroke-width:0;
stroke-linejoin:bevel; stroke-linecap:butt;
fill:#036998;
"/>
<!-- Line -->
<!--  spline  -->
<polyline points="327,12545
327,12544
327,12537
326,12523
326,12510
326,12503
326,12502
328,12502
332,12502
334,12502
335,12502
337,12502
340,12501
343,12501
346,12501
347,12501
348,12501
351,12501
353,12501
354,12501
355,12500
356,12500
358,12500
361,12500
362,12500
364,12500
365,12500
366,12500
372,12503
385,12510
404,12519
422,12527
435,12534
441,12537
442,12537
442,12540
442,12548
442,12561
442,12581
442,12607
442,12640
442,12677
442,12717
442,12756
442,12793
442,12826
442,12852
442,12872
442,12885
442,12893
442,12896
443,12897
448,12902
458,12913
473,12929
487,12945
497,12956
502,12961
503,12962
503,12963
503,12967
503,12978
503,12995
503,13019
503,13046
503,13073
503,13097
503,13114
503,13125
503,13129
503,13130
502,13130
499,13128
490,13124
476,13118
456,13109
433,13098
410,13088
390,13079
376,13073
367,13069
364,13067
363,13067
361,13067
360,13067
358,13067
357,13067
355,13067
354,13068
351,13068
349,13068
348,13069
347,13069
346,13069
344,13069
342,13069
341,13069
340,13069
338,13069
337,13069
336,13069
336,13070
335,13070
335,13069
335,13061
335,13046
335,13024
335,13001
335,12986
335,12978
335,12977
335,12976
334,12970
333,12958
331,12941
329,12924
328,12912
327,12906
327,12905
327,12902
327,12894
327,12881
327,12861
327,12834
327,12802
327,12765
327,12725
327,12685
327,12648
327,12616
327,12589
327,12569
327,12556
327,12548
327,12545
" style="stroke:#ffffff;stroke-width:7;
stroke-linejoin:bevel; stroke-linecap:butt;
"/>
<!-- Line -->
<!--  polyline  -->
<polyline points="363,12500
363,13067
" style="stroke:#ffffff;stroke-width:7;
stroke-linejoin:miter; stroke-linecap:butt;
"/>
<!-- Line -->
<!--  polyline  -->
<polyline points="6,12879
98,12845
" style="stroke:#000000;stroke-width:0;
stroke-linejoin:miter; stroke-linecap:butt;
fill:#000000;
"/>
<!-- Line -->
<!--  polyline  -->
<polyline points="6,12879
98,12845
" style="stroke:#ffffff;stroke-width:7;
stroke-linejoin:miter; stroke-linecap:butt;
"/>
<!-- Line -->
<!--  polyline  -->
<polyline points="654,12874
554,12845
" style="stroke:#000000;stroke-width:0;
stroke-linejoin:miter; stroke-linecap:butt;
fill:#000000;
"/>
<!-- Line -->
<!--  polyline  -->
<polyline points="654,12874
554,12845
" style="stroke:#ffffff;stroke-width:7;
stroke-linejoin:bevel; stroke-linecap:butt;
"/>
<!-- Line -->
<!--  spline  -->
<polyline points="382,12558
383,12558
389,12557
401,12555
413,12554
419,12553
420,12553
421,12553
427,12556
441,12562
459,12570
477,12578
491,12584
497,12587
498,12587
497,12587
491,12589
483,12590
477,12592
476,12592
475,12592
472,12593
467,12593
460,12595
450,12596
441,12597
437,12598
435,12598
432,12599
423,12600
415,12601
411,12601
410,12601
407,12602
400,12602
394,12602
390,12602
388,12601
386,12601
386,12600
385,12593
384,12579
383,12566
382,12559
382,12558
" style="stroke:#036998;stroke-width:0;
stroke-linejoin:bevel; stroke-linecap:butt;
fill:#036998;
"/>
<!-- Line -->
<!--  spline  -->
<polyline points="382,12558
383,12558
389,12557
401,12555
413,12554
419,12553
420,12553
421,12553
427,12556
441,12562
459,12570
477,12578
491,12584
497,12587
498,12587
497,12587
491,12589
483,12590
477,12592
476,12592
475,12592
472,12593
467,12593
460,12595
450,12596
441,12597
437,12598
435,12598
432,12599
423,12600
415,12601
411,12601
410,12601
407,12602
400,12602
394,12602
390,12602
388,12601
386,12601
386,12600
385,12593
384,12579
383,12566
382,12559
382,12558
" style="stroke:#ffffff;stroke-width:7;
stroke-linejoin:bevel; stroke-linecap:butt;
"/>
<!-- Line -->
<!--  polyline  -->
<polyline points="381,12558
386,12601
386,12960
395,13032
395,13198
381,13128
381,12558
" style="stroke:#036998;stroke-width:0;
stroke-linejoin:miter; stroke-linecap:butt;
fill:#036998;
"/>
<!-- Line -->
<!--  polyline  -->
<polyline points="381,12558
386,12601
386,12960
395,13032
395,13198
381,13128
381,12558
" style="stroke:#ffffff;stroke-width:7;
stroke-linejoin:miter; stroke-linecap:butt;
"/>
<!-- Line -->
<!--  spline  -->
<polyline points="386,12601
387,12601
392,12601
398,12601
403,12601
404,12601
405,12601
408,12601
413,12600
420,12599
430,12598
439,12597
443,12597
444,12597
448,12596
457,12595
466,12594
470,12593
471,12592
475,12592
482,12590
489,12588
493,12587
496,12587
498,12586
498,12589
498,12597
498,12610
498,12630
498,12657
498,12689
498,12726
498,12766
498,12806
498,12843
498,12875
498,12902
498,12922
498,12935
498,12943
498,12946
497,12946
492,12947
483,12949
478,12950
477,12950
476,12950
473,12951
468,12952
462,12953
453,12954
445,12955
441,12956
440,12956
436,12956
428,12957
420,12958
416,12958
415,12958
411,12959
404,12959
397,12959
392,12959
388,12959
386,12959
386,12956
386,12948
386,12935
386,12915
386,12889
386,12856
386,12819
386,12780
386,12741
386,12704
386,12671
386,12645
386,12625
386,12612
386,12604
386,12601
" style="stroke:#036998;stroke-width:0;
stroke-linejoin:bevel; stroke-linecap:butt;
fill:#036998;
"/>
<!-- Line -->
<!--  spline  -->
<polyline points="386,12601
387,12601
392,12601
398,12601
403,12601
404,12601
405,12601
408,12601
413,12600
420,12599
430,12598
439,12597
443,12597
444,12597
448,12596
457,12595
466,12594
470,12593
471,12592
475,12592
482,12590
489,12588
493,12587
496,12587
498,12586
498,12589
498,12597
498,12610
498,12630
498,12657
498,12689
498,12726
498,12766
498,12806
498,12843
498,12875
498,12902
498,12922
498,12935
498,12943
498,12946
497,12946
492,12947
483,12949
478,12950
477,12950
476,12950
473,12951
468,12952
462,12953
453,12954
445,12955
441,12956
440,12956
436,12956
428,12957
420,12958
416,12958
415,12958
411,12959
404,12959
397,12959
392,12959
388,12959
386,12959
386,12956
386,12948
386,12935
386,12915
386,12889
386,12856
386,12819
386,12780
386,12741
386,12704
386,12671
386,12645
386,12625
386,12612
386,12604
386,12601
" style="stroke:#ffffff;stroke-width:7;
stroke-linejoin:bevel; stroke-linecap:butt;
"/>
<!-- Line -->
<!--  spline  -->
<polyline points="498,12946
499,12947
504,12952
514,12963
529,12978
544,12993
554,13004
559,13009
560,13010
559,13010
551,13012
541,13014
533,13016
532,13016
531,13016
528,13016
522,13017
515,13018
505,13019
493,13021
481,13022
475,13023
472,13024
470,13024
463,13025
452,13026
439,13027
434,13028
432,13028
427,13029
417,13030
407,13031
401,13031
398,13031
395,13031
395,13030
394,13024
393,13012
391,12995
388,12978
387,12966
386,12960
386,12959
387,12959
391,12959
397,12958
401,12958
402,12958
403,12958
406,12958
411,12958
419,12957
429,12956
439,12955
444,12954
446,12954
450,12953
460,12952
469,12951
473,12950
475,12950
478,12950
485,12949
491,12948
495,12947
497,12946
498,12946
" style="stroke:#036998;stroke-width:0;
stroke-linejoin:bevel; stroke-linecap:butt;
fill:#036998;
"/>
<!-- Line -->
<!--  spline  -->
<polyline points="498,12946
499,12947
504,12952
514,12963
529,12978
544,12993
554,13004
559,13009
560,13010
559,13010
551,13012
541,13014
533,13016
532,13016
531,13016
528,13016
522,13017
515,13018
505,13019
493,13021
481,13022
475,13023
472,13024
470,13024
463,13025
452,13026
439,13027
434,13028
432,13028
427,13029
417,13030
407,13031
401,13031
398,13031
395,13031
395,13030
394,13024
393,13012
391,12995
388,12978
387,12966
386,12960
386,12959
387,12959
391,12959
397,12958
401,12958
402,12958
403,12958
406,12958
411,12958
419,12957
429,12956
439,12955
444,12954
446,12954
450,12953
460,12952
469,12951
473,12950
475,12950
478,12950
485,12949
491,12948
495,12947
497,12946
498,12946
" style="stroke:#ffffff;stroke-width:7;
stroke-linejoin:bevel; stroke-linecap:butt;
"/>
<!-- Line -->
<!--  spline  -->
<polyline points="559,13009
559,13010
559,13014
559,13024
559,13042
559,13065
559,13093
559,13120
559,13143
559,13161
559,13171
559,13175
559,13176
558,13176
552,13177
543,13179
537,13180
536,13180
535,13180
533,13181
528,13182
521,13183
512,13184
500,13186
488,13188
482,13188
479,13189
476,13189
470,13190
458,13191
446,13192
440,13193
438,13193
435,13193
430,13194
420,13195
409,13196
403,13197
398,13197
395,13197
395,13196
395,13192
395,13182
395,13165
395,13141
395,13114
395,13088
395,13064
395,13047
395,13037
395,13033
395,13032
396,13032
401,13032
410,13031
415,13031
416,13031
417,13031
421,13030
427,13030
436,13029
449,13027
460,13026
466,13025
469,13025
471,13025
477,13024
489,13022
501,13020
507,13019
509,13019
512,13018
517,13017
528,13015
540,13013
549,13011
555,13010
558,13009
559,13009
" style="stroke:#036998;stroke-width:0;
stroke-linejoin:bevel; stroke-linecap:butt;
fill:#036998;
"/>
<!-- Line -->
<!--  spline  -->
<polyline points="559,13009
559,13010
559,13014
559,13024
559,13042
559,13065
559,13093
559,13120
559,13143
559,13161
559,13171
559,13175
559,13176
558,13176
552,13177
543,13179
537,13180
536,13180
535,13180
533,13181
528,13182
521,13183
512,13184
500,13186
488,13188
482,13188
479,13189
476,13189
470,13190
458,13191
446,13192
440,13193
438,13193
435,13193
430,13194
420,13195
409,13196
403,13197
398,13197
395,13197
395,13196
395,13192
395,13182
395,13165
395,13141
395,13114
395,13088
395,13064
395,13047
395,13037
395,13033
395,13032
396,13032
401,13032
410,13031
415,13031
416,13031
417,13031
421,13030
427,13030
436,13029
449,13027
460,13026
466,13025
469,13025
471,13025
477,13024
489,13022
501,13020
507,13019
509,13019
512,13018
517,13017
528,13015
540,13013
549,13011
555,13010
558,13009
559,13009
" style="stroke:#ffffff;stroke-width:7;
stroke-linejoin:bevel; stroke-linecap:butt;
"/>
</g>
</svg>
