<?xml version="1.0" standalone="no"?>
<!DOCTYPE svg PUBLIC "-//W3C//DTD SVG 1.1//EN"
"http://www.w3.org/Graphics/SVG/1.1/DTD/svg11.dtd">
<!-- Creator: fig2dev Version 3.2 Patchlevel 5c -->
<!-- CreationDate: Fri Sep 14 10:46:51 2012 -->
<!-- Magnification: 1.000 -->
<svg xmlns="http://www.w3.org/2000/svg" width="0.4in" height="0.4in" viewBox="278 7033 511 478">
<g style="stroke-width:.025in; fill:none">
<!-- Line -->
<!--  polyline  -->
<polyline points="650,7499
650,7132
290,7132
290,7499
650,7499
" style="stroke:#026c9b;stroke-width:0;
stroke-linejoin:miter; stroke-linecap:butt;
fill:#026c9b;
"/>
<!-- Line -->
<!--  polyline  -->
<polyline points="650,7499
650,7132
290,7132
290,7499
650,7499
" style="stroke:#ffffff;stroke-width:7;
stroke-linejoin:miter; stroke-linecap:butt;
"/>
<!-- Line -->
<!--  polyline  -->
<polyline points="650,7132
775,7047
415,7047
290,7132
650,7132
" style="stroke:#026c9b;stroke-width:0;
stroke-linejoin:miter; stroke-linecap:butt;
fill:#026c9b;
"/>
<!-- Line -->
<!--  polyline  -->
<polyline points="650,7132
775,7047
415,7047
290,7132
650,7132
" style="stroke:#ffffff;stroke-width:7;
stroke-linejoin:miter; stroke-linecap:butt;
"/>
<!-- Line -->
<!--  polyline  -->
<polyline points="777,7411
777,7045
652,7132
652,7499
777,7411
" style="stroke:#026c9b;stroke-width:0;
stroke-linejoin:miter; stroke-linecap:butt;
fill:#026c9b;
"/>
<!-- Line -->
<!--  polyline  -->
<polyline points="777,7411
777,7045
652,7132
652,7499
777,7411
" style="stroke:#ffffff;stroke-width:7;
stroke-linejoin:miter; stroke-linecap:butt;
"/>
<!-- Line -->
<!--  spline  -->
<polyline points="470,7309
471,7309
476,7308
484,7307
489,7306
490,7306
493,7305
497,7303
501,7300
507,7296
512,7292
514,7290
515,7290
517,7288
521,7283
525,7278
526,7275
527,7274
528,7271
530,7265
532,7258
533,7252
534,7248
534,7246
534,7245
534,7244
533,7239
531,7231
530,7226
530,7225
530,7224
529,7222
527,7218
525,7213
521,7207
517,7202
515,7200
514,7199
512,7198
507,7194
502,7190
499,7189
496,7187
490,7185
483,7183
478,7182
473,7181
471,7181
470,7181
469,7181
464,7182
456,7184
451,7185
450,7185
449,7185
447,7186
443,7188
438,7190
432,7194
427,7198
425,7199
424,7200
422,7202
418,7207
414,7212
413,7215
412,7216
411,7219
409,7225
407,7232
406,7238
406,7242
406,7244
406,7245
406,7246
407,7251
408,7259
409,7264
409,7265
409,7266
410,7268
412,7272
414,7277
418,7283
422,7288
424,7290
425,7290
427,7292
432,7296
438,7300
440,7301
441,7302
444,7303
450,7306
457,7308
463,7309
467,7309
469,7309
470,7309
" style="stroke:#ffffff;stroke-width:30;
stroke-linejoin:bevel; stroke-linecap:butt;
"/>
<!-- Line -->
<!--  polyline  -->
<polyline points="470,7330
470,7426
" style="stroke:#ffffff;stroke-width:30;
stroke-linejoin:miter; stroke-linecap:butt;
"/>
<!-- Line -->
<!--  polyline  -->
<polyline points="511,7427
430,7427
469,7475
511,7427
" style="stroke:#ffffff;stroke-width:0;
stroke-linejoin:miter; stroke-linecap:butt;
fill:#ffffff;
"/>
<!-- Line -->
<!--  polyline  -->
<polyline points="424,7317
373,7398
" style="stroke:#ffffff;stroke-width:30;
stroke-linejoin:miter; stroke-linecap:butt;
"/>
<!-- Line -->
<!--  polyline  -->
<polyline points="407,7421
339,7378
346,7439
407,7421
" style="stroke:#ffffff;stroke-width:0;
stroke-linejoin:miter; stroke-linecap:butt;
fill:#ffffff;
"/>
<!-- Line -->
<!--  polyline  -->
<polyline points="514,7317
566,7398
" style="stroke:#ffffff;stroke-width:30;
stroke-linejoin:miter; stroke-linecap:butt;
"/>
<!-- Line -->
<!--  polyline  -->
<polyline points="532,7421
599,7378
593,7439
532,7421
" style="stroke:#ffffff;stroke-width:0;
stroke-linejoin:miter; stroke-linecap:butt;
fill:#ffffff;
"/>
</g>
</svg>
