<?xml version="1.0" standalone="no"?>
<!DOCTYPE svg PUBLIC "-//W3C//DTD SVG 1.1//EN"
"http://www.w3.org/Graphics/SVG/1.1/DTD/svg11.dtd">
<!-- Creator: fig2dev Version 3.2 Patchlevel 5c -->
<!-- CreationDate: Fri Sep 14 10:46:52 2012 -->
<!-- Magnification: 1.000 -->
<svg xmlns="http://www.w3.org/2000/svg" width="0.3in" height="0.4in" viewBox="-1 12686 363 515">
<g style="stroke-width:.025in; fill:none">
<!-- Line -->
<!--  polyline  -->
<polyline points="268,12780
11,12780
11,13189
268,13189
" style="stroke:#026c9b;stroke-width:0;
stroke-linejoin:miter; stroke-linecap:butt;
fill:#026c9b;
"/>
<!-- Line -->
<!--  polyline  -->
<polyline points="268,13189
350,13107
350,12698
93,12698
11,12780
268,12780
268,13189
" style="stroke:#026c9b;stroke-width:0;
stroke-linejoin:miter; stroke-linecap:butt;
fill:#026c9b;
"/>
<!-- Line -->
<!--  polyline  -->
<polyline points="268,12780
350,12698
" style="stroke:#026c9b;stroke-width:0;
stroke-linejoin:miter; stroke-linecap:butt;
fill:#026c9b;
"/>
<!-- Line -->
<!--  polyline  -->
<polyline points="268,12780
11,12780
11,13189
268,13189
" style="stroke:#026c9b;stroke-width:0;
stroke-linejoin:miter; stroke-linecap:butt;
fill:#026c9b;
"/>
<!-- Line -->
<!--  polyline  -->
<polyline points="268,12780
11,12780
11,13189
268,13189
" style="stroke:#ffffff;stroke-width:7;
stroke-linejoin:miter; stroke-linecap:butt;
"/>
<!-- Line -->
<!--  polyline  -->
<polyline points="268,13189
350,13107
350,12698
93,12698
11,12780
268,12780
268,13189
" style="stroke:#026c9b;stroke-width:0;
stroke-linejoin:miter; stroke-linecap:butt;
fill:#026c9b;
"/>
<!-- Line -->
<!--  polyline  -->
<polyline points="268,13189
350,13107
350,12698
93,12698
11,12780
268,12780
268,13189
" style="stroke:#ffffff;stroke-width:7;
stroke-linejoin:miter; stroke-linecap:butt;
"/>
<!-- Line -->
<!--  polyline  -->
<polyline points="268,12780
350,12698
" style="stroke:#ffffff;stroke-width:0;
stroke-linejoin:miter; stroke-linecap:butt;
fill:#ffffff;
"/>
<!-- Line -->
<!--  polyline  -->
<polyline points="268,12780
11,12780
11,13189
268,13189
" style="stroke:#ffffff;stroke-width:7;
stroke-linejoin:miter; stroke-linecap:butt;
"/>
<!-- Line -->
<!--  polyline  -->
<polyline points="268,13189
350,13107
350,12698
93,12698
11,12780
268,12780
268,13189
" style="stroke:#ffffff;stroke-width:7;
stroke-linejoin:miter; stroke-linecap:butt;
"/>
<!-- Line -->
<!--  polyline  -->
<polyline points="268,12780
350,12698
" style="stroke:#ffffff;stroke-width:7;
stroke-linejoin:miter; stroke-linecap:butt;
"/>
<!-- Line -->
<!--  polyline  -->
<polyline points="233,12900
233,12828
55,12828
55,12900
233,12900
" style="stroke:#ffffff;stroke-width:7;
stroke-linejoin:round; stroke-linecap:round;
"/>
<!-- Line -->
<!--  spline  -->
<polyline points="120,12863
120,12865
119,12867
119,12869
119,12870
118,12871
117,12872
116,12874
115,12875
114,12876
113,12877
112,12878
110,12879
109,12879
107,12880
105,12880
103,12881
102,12881
101,12881
99,12881
98,12880
96,12880
95,12880
94,12880
93,12879
91,12878
90,12877
89,12876
88,12875
87,12874
86,12872
85,12872
85,12871
84,12869
83,12867
83,12865
83,12864
83,12863
83,12861
84,12859
84,12857
84,12856
85,12855
86,12854
87,12852
88,12851
89,12850
90,12849
91,12848
93,12847
94,12847
96,12846
98,12846
99,12845
100,12845
101,12845
103,12845
105,12846
107,12846
108,12846
109,12846
110,12847
112,12848
113,12849
114,12850
115,12851
116,12852
117,12854
118,12854
118,12855
119,12857
120,12859
120,12861
120,12862
120,12863
" style="stroke:#000000;stroke-width:0;
stroke-linejoin:bevel; stroke-linecap:round;
fill:#000000;
"/>
<!-- Line -->
<!--  spline  -->
<polyline points="120,12863
120,12865
119,12867
119,12869
119,12870
118,12871
117,12872
116,12874
115,12875
114,12876
113,12877
112,12878
110,12879
109,12879
107,12880
105,12880
103,12881
102,12881
101,12881
99,12881
98,12880
96,12880
95,12880
94,12880
93,12879
91,12878
90,12877
89,12876
88,12875
87,12874
86,12872
85,12872
85,12871
84,12869
83,12867
83,12865
83,12864
83,12863
83,12861
84,12859
84,12857
84,12856
85,12855
86,12854
87,12852
88,12851
89,12850
90,12849
91,12848
93,12847
94,12847
96,12846
98,12846
99,12845
100,12845
101,12845
103,12845
105,12846
107,12846
108,12846
109,12846
110,12847
112,12848
113,12849
114,12850
115,12851
116,12852
117,12854
118,12854
118,12855
119,12857
120,12859
120,12861
120,12862
120,12863
" style="stroke:#ffffff;stroke-width:7;
stroke-linejoin:bevel; stroke-linecap:round;
"/>
<!-- Line -->
<!--  spline  -->
<polyline points="200,12863
200,12865
199,12867
199,12869
199,12870
199,12871
198,12872
197,12874
196,12875
195,12876
194,12877
193,12878
191,12879
190,12879
188,12880
186,12880
184,12881
183,12881
182,12881
180,12881
178,12880
176,12880
175,12880
174,12880
173,12879
171,12878
170,12877
169,12876
168,12875
167,12874
166,12872
165,12872
165,12871
164,12869
163,12867
163,12865
163,12864
163,12863
163,12861
164,12859
164,12857
164,12856
165,12855
166,12854
167,12852
168,12851
169,12850
170,12849
171,12848
173,12847
174,12847
176,12846
178,12846
180,12845
181,12845
182,12845
184,12845
186,12846
188,12846
189,12846
190,12846
191,12847
193,12848
194,12849
195,12850
196,12851
197,12852
198,12854
198,12855
199,12857
199,12859
200,12861
200,12862
200,12863
" style="stroke:#000000;stroke-width:0;
stroke-linejoin:bevel; stroke-linecap:round;
fill:#000000;
"/>
<!-- Line -->
<!--  spline  -->
<polyline points="200,12863
200,12865
199,12867
199,12869
199,12870
199,12871
198,12872
197,12874
196,12875
195,12876
194,12877
193,12878
191,12879
190,12879
188,12880
186,12880
184,12881
183,12881
182,12881
180,12881
178,12880
176,12880
175,12880
174,12880
173,12879
171,12878
170,12877
169,12876
168,12875
167,12874
166,12872
165,12872
165,12871
164,12869
163,12867
163,12865
163,12864
163,12863
163,12861
164,12859
164,12857
164,12856
165,12855
166,12854
167,12852
168,12851
169,12850
170,12849
171,12848
173,12847
174,12847
176,12846
178,12846
180,12845
181,12845
182,12845
184,12845
186,12846
188,12846
189,12846
190,12846
191,12847
193,12848
194,12849
195,12850
196,12851
197,12852
198,12854
198,12855
199,12857
199,12859
200,12861
200,12862
200,12863
" style="stroke:#ffffff;stroke-width:7;
stroke-linejoin:bevel; stroke-linecap:round;
"/>
<!-- Line -->
<!--  polyline  -->
<polyline points="233,13025
233,12954
55,12954
55,13025
233,13025
" style="stroke:#ffffff;stroke-width:7;
stroke-linejoin:round; stroke-linecap:round;
"/>
<!-- Line -->
<!--  spline  -->
<polyline points="120,12988
120,12990
119,12992
119,12994
119,12995
118,12996
117,12997
116,12999
115,13000
114,13001
113,13002
112,13003
110,13004
109,13004
107,13005
105,13005
103,13006
102,13006
101,13006
99,13006
98,13005
96,13005
95,13005
94,13005
93,13004
91,13003
90,13002
89,13001
88,13000
87,12999
86,12997
85,12997
85,12996
84,12994
83,12992
83,12990
83,12989
83,12988
83,12986
84,12984
84,12982
84,12981
85,12980
86,12979
87,12977
88,12976
89,12975
90,12974
91,12973
93,12972
94,12972
96,12971
98,12971
99,12970
100,12970
101,12970
103,12970
105,12971
107,12971
108,12971
109,12971
110,12972
112,12973
113,12974
114,12975
115,12976
116,12977
117,12979
118,12979
118,12980
119,12982
120,12984
120,12986
120,12987
120,12988
" style="stroke:#000000;stroke-width:0;
stroke-linejoin:bevel; stroke-linecap:round;
fill:#000000;
"/>
<!-- Line -->
<!--  spline  -->
<polyline points="120,12988
120,12990
119,12992
119,12994
119,12995
118,12996
117,12997
116,12999
115,13000
114,13001
113,13002
112,13003
110,13004
109,13004
107,13005
105,13005
103,13006
102,13006
101,13006
99,13006
98,13005
96,13005
95,13005
94,13005
93,13004
91,13003
90,13002
89,13001
88,13000
87,12999
86,12997
85,12997
85,12996
84,12994
83,12992
83,12990
83,12989
83,12988
83,12986
84,12984
84,12982
84,12981
85,12980
86,12979
87,12977
88,12976
89,12975
90,12974
91,12973
93,12972
94,12972
96,12971
98,12971
99,12970
100,12970
101,12970
103,12970
105,12971
107,12971
108,12971
109,12971
110,12972
112,12973
113,12974
114,12975
115,12976
116,12977
117,12979
118,12979
118,12980
119,12982
120,12984
120,12986
120,12987
120,12988
" style="stroke:#ffffff;stroke-width:7;
stroke-linejoin:bevel; stroke-linecap:round;
"/>
<!-- Line -->
<!--  spline  -->
<polyline points="200,12988
200,12990
199,12992
199,12994
199,12995
199,12996
198,12997
197,12999
196,13000
195,13001
194,13002
193,13003
191,13004
190,13004
188,13005
186,13005
184,13006
183,13006
182,13006
180,13006
178,13005
176,13005
175,13005
174,13005
173,13004
171,13003
170,13002
169,13001
168,13000
167,12999
166,12997
165,12997
165,12996
164,12994
163,12992
163,12990
163,12989
163,12988
163,12986
164,12984
164,12982
164,12981
165,12980
166,12979
167,12977
168,12976
169,12975
170,12974
171,12973
173,12972
174,12972
176,12971
178,12971
180,12970
181,12970
182,12970
184,12970
186,12971
188,12971
189,12971
190,12971
191,12972
193,12973
194,12974
195,12975
196,12976
197,12977
198,12979
198,12980
199,12982
199,12984
200,12986
200,12987
200,12988
" style="stroke:#000000;stroke-width:0;
stroke-linejoin:bevel; stroke-linecap:round;
fill:#000000;
"/>
<!-- Line -->
<!--  spline  -->
<polyline points="200,12988
200,12990
199,12992
199,12994
199,12995
199,12996
198,12997
197,12999
196,13000
195,13001
194,13002
193,13003
191,13004
190,13004
188,13005
186,13005
184,13006
183,13006
182,13006
180,13006
178,13005
176,13005
175,13005
174,13005
173,13004
171,13003
170,13002
169,13001
168,13000
167,12999
166,12997
165,12997
165,12996
164,12994
163,12992
163,12990
163,12989
163,12988
163,12986
164,12984
164,12982
164,12981
165,12980
166,12979
167,12977
168,12976
169,12975
170,12974
171,12973
173,12972
174,12972
176,12971
178,12971
180,12970
181,12970
182,12970
184,12970
186,12971
188,12971
189,12971
190,12971
191,12972
193,12973
194,12974
195,12975
196,12976
197,12977
198,12979
198,12980
199,12982
199,12984
200,12986
200,12987
200,12988
" style="stroke:#ffffff;stroke-width:7;
stroke-linejoin:bevel; stroke-linecap:round;
"/>
<!-- Line -->
<!--  polyline  -->
<polyline points="233,13150
233,13079
55,13079
55,13150
233,13150
" style="stroke:#ffffff;stroke-width:7;
stroke-linejoin:round; stroke-linecap:round;
"/>
<!-- Line -->
<!--  spline  -->
<polyline points="120,13113
120,13115
119,13117
119,13119
119,13120
118,13121
117,13122
116,13124
115,13125
114,13126
113,13127
112,13128
110,13129
109,13129
107,13130
105,13130
103,13131
102,13131
101,13131
99,13131
98,13130
96,13130
95,13130
94,13130
93,13129
91,13128
90,13127
89,13126
88,13125
87,13124
86,13122
85,13122
85,13121
84,13119
83,13117
83,13115
83,13114
83,13113
83,13111
84,13109
84,13107
84,13106
85,13105
86,13104
87,13102
88,13101
89,13100
90,13099
91,13098
93,13097
94,13097
96,13096
98,13096
99,13095
100,13095
101,13095
103,13095
105,13096
107,13096
108,13096
109,13096
110,13097
112,13098
113,13099
114,13100
115,13101
116,13102
117,13104
118,13104
118,13105
119,13107
120,13109
120,13111
120,13112
120,13113
" style="stroke:#000000;stroke-width:0;
stroke-linejoin:bevel; stroke-linecap:round;
fill:#000000;
"/>
<!-- Line -->
<!--  spline  -->
<polyline points="120,13113
120,13115
119,13117
119,13119
119,13120
118,13121
117,13122
116,13124
115,13125
114,13126
113,13127
112,13128
110,13129
109,13129
107,13130
105,13130
103,13131
102,13131
101,13131
99,13131
98,13130
96,13130
95,13130
94,13130
93,13129
91,13128
90,13127
89,13126
88,13125
87,13124
86,13122
85,13122
85,13121
84,13119
83,13117
83,13115
83,13114
83,13113
83,13111
84,13109
84,13107
84,13106
85,13105
86,13104
87,13102
88,13101
89,13100
90,13099
91,13098
93,13097
94,13097
96,13096
98,13096
99,13095
100,13095
101,13095
103,13095
105,13096
107,13096
108,13096
109,13096
110,13097
112,13098
113,13099
114,13100
115,13101
116,13102
117,13104
118,13104
118,13105
119,13107
120,13109
120,13111
120,13112
120,13113
" style="stroke:#ffffff;stroke-width:7;
stroke-linejoin:bevel; stroke-linecap:round;
"/>
<!-- Line -->
<!--  spline  -->
<polyline points="200,13113
200,13115
199,13117
199,13119
199,13120
199,13121
198,13122
197,13124
196,13125
195,13126
194,13127
193,13128
191,13129
190,13129
188,13130
186,13130
184,13131
183,13131
182,13131
180,13131
178,13130
176,13130
175,13130
174,13130
173,13129
171,13128
170,13127
169,13126
168,13125
167,13124
166,13122
165,13122
165,13121
164,13119
163,13117
163,13115
163,13114
163,13113
163,13111
164,13109
164,13107
164,13106
165,13105
166,13104
167,13102
168,13101
169,13100
170,13099
171,13098
173,13097
174,13097
176,13096
178,13096
180,13095
181,13095
182,13095
184,13095
186,13096
188,13096
189,13096
190,13096
191,13097
193,13098
194,13099
195,13100
196,13101
197,13102
198,13104
198,13105
199,13107
199,13109
200,13111
200,13112
200,13113
" style="stroke:#000000;stroke-width:0;
stroke-linejoin:bevel; stroke-linecap:round;
fill:#000000;
"/>
<!-- Line -->
<!--  spline  -->
<polyline points="200,13113
200,13115
199,13117
199,13119
199,13120
199,13121
198,13122
197,13124
196,13125
195,13126
194,13127
193,13128
191,13129
190,13129
188,13130
186,13130
184,13131
183,13131
182,13131
180,13131
178,13130
176,13130
175,13130
174,13130
173,13129
171,13128
170,13127
169,13126
168,13125
167,13124
166,13122
165,13122
165,13121
164,13119
163,13117
163,13115
163,13114
163,13113
163,13111
164,13109
164,13107
164,13106
165,13105
166,13104
167,13102
168,13101
169,13100
170,13099
171,13098
173,13097
174,13097
176,13096
178,13096
180,13095
181,13095
182,13095
184,13095
186,13096
188,13096
189,13096
190,13096
191,13097
193,13098
194,13099
195,13100
196,13101
197,13102
198,13104
198,13105
199,13107
199,13109
200,13111
200,13112
200,13113
" style="stroke:#ffffff;stroke-width:7;
stroke-linejoin:bevel; stroke-linecap:round;
"/>
<!-- Line -->
<!--  polyline  -->
<polyline points="101,12845
182,12845
" style="stroke:#ffffff;stroke-width:7;
stroke-linejoin:round; stroke-linecap:round;
"/>
<!-- Line -->
<!--  polyline  -->
<polyline points="101,12970
182,12970
" style="stroke:#ffffff;stroke-width:7;
stroke-linejoin:round; stroke-linecap:round;
"/>
<!-- Line -->
<!--  polyline  -->
<polyline points="101,13095
182,13095
" style="stroke:#ffffff;stroke-width:7;
stroke-linejoin:round; stroke-linecap:round;
"/>
</g>
</svg>
