<?xml version="1.0" standalone="no"?>
<!DOCTYPE svg PUBLIC "-//W3C//DTD SVG 1.1//EN"
"http://www.w3.org/Graphics/SVG/1.1/DTD/svg11.dtd">
<!-- Creator: fig2dev Version 3.2 Patchlevel 5c -->
<!-- CreationDate: Fri Sep 14 10:46:52 2012 -->
<!-- Magnification: 1.000 -->
<svg xmlns="http://www.w3.org/2000/svg" width="0.5in" height="0.4in" viewBox="-9 12772 637 437">
<g style="stroke-width:.025in; fill:none">
<!-- Line -->
<!--  spline  -->
<polyline points="616,12903
616,12904
613,12910
608,12922
604,12934
601,12940
601,12941
600,12942
598,12944
592,12950
584,12956
573,12964
557,12973
544,12980
535,12984
530,12986
527,12987
525,12988
519,12990
508,12994
491,12999
473,13004
461,13007
455,13008
452,13009
448,13010
441,13011
428,13013
407,13016
385,13018
366,13020
350,13021
335,13022
323,13022
315,13022
311,13022
310,13022
309,13022
301,13021
284,13020
262,13019
239,13018
222,13017
214,13016
213,13016
212,13016
209,13015
201,13014
190,13013
178,13010
164,13008
148,13004
129,12999
112,12994
101,12990
95,12988
92,12987
90,12986
85,12984
75,12980
62,12973
47,12964
39,12960
36,12958
34,12956
29,12951
19,12941
11,12930
7,12921
4,12913
3,12907
3,12904
3,12903
3,12904
3,12908
3,12919
3,12937
3,12962
3,12990
3,13018
3,13043
3,13061
3,13072
3,13076
3,13077
3,13078
6,13084
11,13096
16,13108
19,13114
19,13115
19,13116
22,13119
28,13124
35,13131
46,13139
62,13148
75,13155
85,13159
90,13161
92,13162
95,13163
101,13165
112,13169
129,13174
147,13179
159,13182
165,13183
169,13184
172,13185
179,13186
192,13188
213,13191
235,13193
254,13195
270,13196
285,13197
297,13197
305,13197
309,13197
310,13197
311,13197
319,13196
336,13195
359,13194
381,13193
398,13192
406,13191
407,13191
408,13191
411,13190
419,13189
430,13188
442,13185
456,13183
473,13179
491,13174
508,13169
519,13165
525,13163
527,13162
530,13161
535,13159
544,13155
557,13148
572,13139
580,13134
583,13132
586,13131
591,13125
601,13115
609,13104
613,13095
615,13087
616,13081
616,13078
616,13077
616,13076
616,13072
616,13061
616,13043
616,13018
616,12990
616,12962
616,12937
616,12919
616,12908
616,12904
616,12903
" style="stroke:#026c9b;stroke-width:0;
stroke-linejoin:bevel; stroke-linecap:butt;
fill:#026c9b;
"/>
<!-- Line -->
<!--  spline  -->
<polyline points="616,12903
616,12904
613,12910
608,12922
604,12934
601,12940
601,12941
600,12942
598,12944
592,12950
584,12956
573,12964
557,12973
544,12980
535,12984
530,12986
527,12987
525,12988
519,12990
508,12994
491,12999
473,13004
461,13007
455,13008
452,13009
448,13010
441,13011
428,13013
407,13016
385,13018
366,13020
350,13021
335,13022
323,13022
315,13022
311,13022
310,13022
309,13022
301,13021
284,13020
262,13019
239,13018
222,13017
214,13016
213,13016
212,13016
209,13015
201,13014
190,13013
178,13010
164,13008
148,13004
129,12999
112,12994
101,12990
95,12988
92,12987
90,12986
85,12984
75,12980
62,12973
47,12964
39,12960
36,12958
34,12956
29,12951
19,12941
11,12930
7,12921
4,12913
3,12907
3,12904
3,12903
3,12904
3,12908
3,12919
3,12937
3,12962
3,12990
3,13018
3,13043
3,13061
3,13072
3,13076
3,13077
3,13078
6,13084
11,13096
16,13108
19,13114
19,13115
19,13116
22,13119
28,13124
35,13131
46,13139
62,13148
75,13155
85,13159
90,13161
92,13162
95,13163
101,13165
112,13169
129,13174
147,13179
159,13182
165,13183
169,13184
172,13185
179,13186
192,13188
213,13191
235,13193
254,13195
270,13196
285,13197
297,13197
305,13197
309,13197
310,13197
311,13197
319,13196
336,13195
359,13194
381,13193
398,13192
406,13191
407,13191
408,13191
411,13190
419,13189
430,13188
442,13185
456,13183
473,13179
491,13174
508,13169
519,13165
525,13163
527,13162
530,13161
535,13159
544,13155
557,13148
572,13139
580,13134
583,13132
586,13131
591,13125
601,13115
609,13104
613,13095
615,13087
616,13081
616,13078
616,13077
616,13076
616,13072
616,13061
616,13043
616,13018
616,12990
616,12962
616,12937
616,12919
616,12908
616,12904
616,12903
" style="stroke:#ffffff;stroke-width:7;
stroke-linejoin:bevel; stroke-linecap:butt;
"/>
<!-- Line -->
<!--  spline  -->
<polyline points="310,13022
311,13022
319,13021
336,13020
359,13019
381,13018
398,13017
406,13016
407,13016
408,13016
411,13015
419,13014
430,13013
442,13010
456,13008
473,13004
491,12999
508,12994
519,12990
525,12988
527,12987
530,12986
535,12984
544,12980
557,12973
572,12964
580,12960
583,12958
586,12956
591,12951
601,12941
609,12930
613,12921
615,12913
616,12907
616,12904
616,12903
616,12902
613,12896
608,12884
604,12872
601,12866
601,12865
600,12864
598,12861
592,12856
584,12849
573,12841
557,12832
544,12825
535,12821
530,12819
527,12818
525,12817
519,12816
508,12812
491,12807
473,12802
461,12799
455,12798
452,12797
448,12796
441,12795
428,12793
407,12790
385,12788
366,12786
350,12785
335,12784
323,12784
315,12784
311,12784
310,12784
309,12784
301,12785
284,12786
262,12787
239,12788
222,12789
214,12790
213,12790
212,12790
209,12791
201,12792
190,12794
178,12796
164,12799
148,12802
129,12807
112,12812
101,12816
95,12817
92,12818
90,12819
85,12821
75,12825
62,12832
47,12841
39,12846
36,12847
34,12849
29,12855
19,12865
11,12876
7,12885
4,12893
3,12899
3,12902
3,12903
3,12904
6,12910
11,12922
16,12934
19,12940
19,12941
19,12942
22,12944
28,12950
35,12956
46,12964
62,12973
75,12980
85,12984
90,12986
92,12987
95,12988
101,12990
112,12994
129,12999
147,13004
159,13007
165,13008
169,13009
172,13010
179,13011
192,13013
213,13016
235,13018
254,13020
270,13021
285,13022
297,13022
305,13022
309,13022
310,13022
" style="stroke:#026c9b;stroke-width:0;
stroke-linejoin:bevel; stroke-linecap:butt;
fill:#026c9b;
"/>
<!-- Line -->
<!--  spline  -->
<polyline points="310,13022
311,13022
319,13021
336,13020
359,13019
381,13018
398,13017
406,13016
407,13016
408,13016
411,13015
419,13014
430,13013
442,13010
456,13008
473,13004
491,12999
508,12994
519,12990
525,12988
527,12987
530,12986
535,12984
544,12980
557,12973
572,12964
580,12960
583,12958
586,12956
591,12951
601,12941
609,12930
613,12921
615,12913
616,12907
616,12904
616,12903
616,12902
613,12896
608,12884
604,12872
601,12866
601,12865
600,12864
598,12861
592,12856
584,12849
573,12841
557,12832
544,12825
535,12821
530,12819
527,12818
525,12817
519,12816
508,12812
491,12807
473,12802
461,12799
455,12798
452,12797
448,12796
441,12795
428,12793
407,12790
385,12788
366,12786
350,12785
335,12784
323,12784
315,12784
311,12784
310,12784
309,12784
301,12785
284,12786
262,12787
239,12788
222,12789
214,12790
213,12790
212,12790
209,12791
201,12792
190,12794
178,12796
164,12799
148,12802
129,12807
112,12812
101,12816
95,12817
92,12818
90,12819
85,12821
75,12825
62,12832
47,12841
39,12846
36,12847
34,12849
29,12855
19,12865
11,12876
7,12885
4,12893
3,12899
3,12902
3,12903
3,12904
6,12910
11,12922
16,12934
19,12940
19,12941
19,12942
22,12944
28,12950
35,12956
46,12964
62,12973
75,12980
85,12984
90,12986
92,12987
95,12988
101,12990
112,12994
129,12999
147,13004
159,13007
165,13008
169,13009
172,13010
179,13011
192,13013
213,13016
235,13018
254,13020
270,13021
285,13022
297,13022
305,13022
309,13022
310,13022
" style="stroke:#ffffff;stroke-width:7;
stroke-linejoin:bevel; stroke-linecap:butt;
"/>
<!-- Line -->
<!--  polyline  -->
<polyline points="240,12856
265,12894
169,12916
190,12899
43,12874
80,12846
222,12870
240,12856
" style="stroke:#ffffff;stroke-width:0;
stroke-linejoin:miter; stroke-linecap:butt;
fill:#ffffff;
"/>
<!-- Line -->
<!--  polyline  -->
<polyline points="375,12948
357,12909
444,12892
429,12905
573,12930
538,12958
395,12931
375,12948
" style="stroke:#ffffff;stroke-width:0;
stroke-linejoin:miter; stroke-linecap:butt;
fill:#ffffff;
"/>
<!-- Line -->
<!--  polyline  -->
<polyline points="327,12836
424,12809
425,12851
401,12846
354,12885
309,12878
357,12840
327,12836
" style="stroke:#ffffff;stroke-width:0;
stroke-linejoin:miter; stroke-linecap:butt;
fill:#ffffff;
"/>
<!-- Line -->
<!--  polyline  -->
<polyline points="286,12984
194,13001
190,12959
217,12964
268,12921
312,12929
258,12976
286,12984
" style="stroke:#ffffff;stroke-width:0;
stroke-linejoin:miter; stroke-linecap:butt;
fill:#ffffff;
"/>
<!-- Line -->
<!--  polyline  -->
<polyline points="297,13120
297,13141
269,13141
309,13191
353,13141
322,13141
322,13120
" style="stroke:#ffffff;stroke-width:0;
stroke-linejoin:miter; stroke-linecap:butt;
fill:#ffffff;
"/>
<!-- Line -->
<!--  polyline  -->
<polyline points="362,13094
243,13094
242,13066
191,13106
242,13150
243,13119
362,13119
" style="stroke:#ffffff;stroke-width:0;
stroke-linejoin:miter; stroke-linecap:butt;
fill:#ffffff;
"/>
<!-- Line -->
<!--  polyline  -->
<polyline points="260,13119
379,13119
380,13147
431,13106
380,13064
379,13094
260,13094
" style="stroke:#ffffff;stroke-width:0;
stroke-linejoin:miter; stroke-linecap:butt;
fill:#ffffff;
"/>
<!-- Line -->
<!--  polyline  -->
<polyline points="320,13122
320,13103
299,13103
299,13122
320,13122
" style="stroke:#ffffff;stroke-width:0;
stroke-linejoin:miter; stroke-linecap:butt;
fill:#ffffff;
"/>
<!-- Text -->
<!--  text  -->
<text xml:space="preserve" x="234" y="13080" fill="#ffffff"  font-family="Helvetica" font-style="normal" font-weight="bold" font-size="48" text-anchor="start">TDM</text>
</g>
</svg>
