<?xml version="1.0" standalone="no"?>
<!DOCTYPE svg PUBLIC "-//W3C//DTD SVG 1.1//EN"
"http://www.w3.org/Graphics/SVG/1.1/DTD/svg11.dtd">
<!-- Creator: fig2dev Version 3.2 Patchlevel 5c -->
<!-- CreationDate: Fri Sep 14 10:46:52 2012 -->
<!-- Magnification: 1.000 -->
<svg xmlns="http://www.w3.org/2000/svg" width="0.7in" height="0.6in" viewBox="-5 12486 837 718">
<g style="stroke-width:.025in; fill:none">
<!-- Line -->
<!--  polyline  -->
<polyline points="345,12550
420,12498
462,12498
457,12538
403,12588
345,12550
" style="stroke:#036998;stroke-width:0;
stroke-linejoin:miter; stroke-linecap:butt;
fill:#036998;
"/>
<!-- Line -->
<!--  polyline  -->
<polyline points="345,12550
420,12498
462,12498
457,12538
403,12588
345,12550
" style="stroke:#ffffff;stroke-width:7;
stroke-linejoin:miter; stroke-linecap:butt;
"/>
<!-- Line -->
<!--  polyline  -->
<polyline points="66,12904
595,12904
595,13192
66,13192
66,12904
" style="stroke:#036998;stroke-width:0;
stroke-linejoin:miter; stroke-linecap:butt;
fill:#036998;
"/>
<!-- Line -->
<!--  polyline  -->
<polyline points="66,12904
595,12904
595,13192
66,13192
66,12904
" style="stroke:#ffffff;stroke-width:7;
stroke-linejoin:miter; stroke-linecap:butt;
"/>
<!-- Line -->
<!--  polyline  -->
<polyline points="595,12904
782,12725
782,13000
595,13192
595,12904
" style="stroke:#036998;stroke-width:0;
stroke-linejoin:miter; stroke-linecap:butt;
fill:#036998;
"/>
<!-- Line -->
<!--  polyline  -->
<polyline points="595,12904
782,12725
782,13000
595,13192
595,12904
" style="stroke:#ffffff;stroke-width:7;
stroke-linejoin:miter; stroke-linecap:butt;
"/>
<!-- Line -->
<!--  polyline  -->
<polyline points="693,13134
653,13134
651,12875
682,12863
701,12879
705,13098
693,13134
" style="stroke:#036998;stroke-width:0;
stroke-linejoin:miter; stroke-linecap:butt;
fill:#036998;
"/>
<!-- Line -->
<!--  polyline  -->
<polyline points="693,13134
653,13134
651,12875
682,12863
701,12879
705,13098
693,13134
" style="stroke:#ffffff;stroke-width:7;
stroke-linejoin:miter; stroke-linecap:butt;
"/>
<!-- Line -->
<!--  polyline  -->
<polyline points="682,12863
693,13133
764,13052
732,12802
682,12863
" style="stroke:#036998;stroke-width:0;
stroke-linejoin:miter; stroke-linecap:butt;
fill:#036998;
"/>
<!-- Line -->
<!--  polyline  -->
<polyline points="682,12863
693,13133
764,13052
732,12802
682,12863
" style="stroke:#ffffff;stroke-width:7;
stroke-linejoin:miter; stroke-linecap:butt;
"/>
<!-- Line -->
<!--  polyline  -->
<polyline points="637,12925
366,12571
460,12498
820,12725
637,12925
" style="stroke:#036998;stroke-width:0;
stroke-linejoin:miter; stroke-linecap:butt;
fill:#036998;
"/>
<!-- Line -->
<!--  polyline  -->
<polyline points="637,12925
366,12571
460,12498
820,12725
637,12925
" style="stroke:#ffffff;stroke-width:7;
stroke-linejoin:miter; stroke-linecap:butt;
"/>
<!-- Line -->
<!--  polyline  -->
<polyline points="678,12775
720,12733
699,12567
662,12584
662,12733
678,12775
" style="stroke:#036998;stroke-width:0;
stroke-linejoin:miter; stroke-linecap:butt;
fill:#036998;
"/>
<!-- Line -->
<!--  polyline  -->
<polyline points="678,12775
720,12733
699,12567
662,12584
662,12733
678,12775
" style="stroke:#ffffff;stroke-width:7;
stroke-linejoin:miter; stroke-linecap:butt;
"/>
<!-- Line -->
<!--  polyline  -->
<polyline points="616,12717
678,12773
674,12575
641,12571
616,12717
" style="stroke:#036998;stroke-width:0;
stroke-linejoin:miter; stroke-linecap:butt;
fill:#036998;
"/>
<!-- Line -->
<!--  polyline  -->
<polyline points="616,12717
678,12773
674,12575
641,12571
616,12717
" style="stroke:#ffffff;stroke-width:7;
stroke-linejoin:miter; stroke-linecap:butt;
"/>
<!-- Line -->
<!--  polyline  -->
<polyline points="641,12571
672,12590
699,12567
668,12556
641,12571
" style="stroke:#036998;stroke-width:0;
stroke-linejoin:miter; stroke-linecap:butt;
fill:#036998;
"/>
<!-- Line -->
<!--  polyline  -->
<polyline points="641,12571
672,12590
699,12567
668,12556
641,12571
" style="stroke:#ffffff;stroke-width:7;
stroke-linejoin:miter; stroke-linecap:butt;
"/>
<!-- Line -->
<!--  polyline  -->
<polyline points="391,12550
641,12925
7,12925
345,12550
391,12550
" style="stroke:#036998;stroke-width:0;
stroke-linejoin:miter; stroke-linecap:butt;
fill:#036998;
"/>
<!-- Line -->
<!--  polyline  -->
<polyline points="391,12550
641,12925
7,12925
345,12550
391,12550
" style="stroke:#ffffff;stroke-width:7;
stroke-linejoin:miter; stroke-linecap:butt;
"/>
<!-- Line -->
<!--  polyline  -->
<polyline points="471,13066
471,13010
176,13010
176,13066
471,13066
" style="stroke:#036998;stroke-width:0;
stroke-linejoin:miter; stroke-linecap:butt;
fill:#036998;
"/>
<!-- Line -->
<!--  polyline  -->
<polyline points="471,13066
471,13010
176,13010
176,13066
471,13066
" style="stroke:#ffffff;stroke-width:7;
stroke-linejoin:miter; stroke-linecap:butt;
"/>
<!-- Line -->
<!--  polyline  -->
<polyline points="381,13042
456,13042
" style="stroke:#036998;stroke-width:0;
stroke-linejoin:miter; stroke-linecap:butt;
fill:#036998;
"/>
<!-- Line -->
<!--  polyline  -->
<polyline points="381,13042
456,13042
" style="stroke:#ffffff;stroke-width:7;
stroke-linejoin:miter; stroke-linecap:butt;
"/>
<!-- Line -->
<!--  polyline  -->
<polyline points="381,13039
456,13039
" style="stroke:#036998;stroke-width:0;
stroke-linejoin:miter; stroke-linecap:butt;
fill:#036998;
"/>
<!-- Line -->
<!--  polyline  -->
<polyline points="381,13039
456,13039
" style="stroke:#ffffff;stroke-width:7;
stroke-linejoin:miter; stroke-linecap:butt;
"/>
<!-- Line -->
<!--  polyline  -->
<polyline points="522,13012
522,12962
471,13010
471,13065
522,13012
" style="stroke:#036998;stroke-width:0;
stroke-linejoin:miter; stroke-linecap:butt;
fill:#036998;
"/>
<!-- Line -->
<!--  polyline  -->
<polyline points="522,13012
522,12962
471,13010
471,13065
522,13012
" style="stroke:#ffffff;stroke-width:7;
stroke-linejoin:miter; stroke-linecap:butt;
"/>
<!-- Line -->
<!--  polyline  -->
<polyline points="419,13111
419,13098
446,13061
446,13084
419,13111
" style="stroke:#036998;stroke-width:0;
stroke-linejoin:miter; stroke-linecap:butt;
fill:#036998;
"/>
<!-- Line -->
<!--  polyline  -->
<polyline points="419,13111
419,13098
446,13061
446,13084
419,13111
" style="stroke:#ffffff;stroke-width:7;
stroke-linejoin:miter; stroke-linecap:butt;
"/>
<!-- Line -->
<!--  polyline  -->
<polyline points="419,13099
419,13111
183,13111
183,13099
419,13099
" style="stroke:#036998;stroke-width:0;
stroke-linejoin:miter; stroke-linecap:butt;
fill:#036998;
"/>
<!-- Line -->
<!--  polyline  -->
<polyline points="419,13099
419,13111
183,13111
183,13099
419,13099
" style="stroke:#ffffff;stroke-width:7;
stroke-linejoin:miter; stroke-linecap:butt;
"/>
<!-- Line -->
<!--  polyline  -->
<polyline points="419,13099
184,13099
210,13061
446,13061
419,13099
" style="stroke:#036998;stroke-width:0;
stroke-linejoin:miter; stroke-linecap:butt;
fill:#036998;
"/>
<!-- Line -->
<!--  polyline  -->
<polyline points="419,13099
184,13099
210,13061
446,13061
419,13099
" style="stroke:#ffffff;stroke-width:7;
stroke-linejoin:miter; stroke-linecap:butt;
"/>
<!-- Line -->
<!--  polyline  -->
<polyline points="521,12964
226,12964
176,13010
471,13010
521,12964
" style="stroke:#036998;stroke-width:0;
stroke-linejoin:miter; stroke-linecap:butt;
fill:#036998;
"/>
<!-- Line -->
<!--  polyline  -->
<polyline points="521,12964
226,12964
176,13010
471,13010
521,12964
" style="stroke:#ffffff;stroke-width:7;
stroke-linejoin:miter; stroke-linecap:butt;
"/>
<!-- Line -->
<!--  polyline  -->
<polyline points="465,12964
268,12964
235,12995
432,12995
465,12964
" style="stroke:#036998;stroke-width:0;
stroke-linejoin:miter; stroke-linecap:butt;
fill:#036998;
"/>
<!-- Line -->
<!--  polyline  -->
<polyline points="465,12964
268,12964
235,12995
432,12995
465,12964
" style="stroke:#ffffff;stroke-width:7;
stroke-linejoin:miter; stroke-linecap:butt;
"/>
<!-- Line -->
<!--  polyline  -->
<polyline points="229,12834
433,12834
433,12983
229,12983
229,12834
" style="stroke:#036998;stroke-width:0;
stroke-linejoin:miter; stroke-linecap:butt;
fill:#036998;
"/>
<!-- Line -->
<!--  polyline  -->
<polyline points="229,12834
433,12834
433,12983
229,12983
229,12834
" style="stroke:#ffffff;stroke-width:7;
stroke-linejoin:miter; stroke-linecap:butt;
"/>
<!-- Line -->
<!--  spline  -->
<polyline points="246,12866
247,12864
247,12861
248,12859
249,12858
249,12857
250,12856
252,12854
254,12853
254,12852
255,12852
256,12852
257,12851
258,12850
259,12850
260,12850
261,12850
261,12849
262,12849
263,12849
266,12849
271,12849
274,12849
275,12849
276,12849
279,12849
285,12849
293,12849
305,12849
315,12849
321,12849
324,12849
326,12849
332,12849
343,12849
355,12849
360,12849
363,12849
367,12849
377,12849
386,12849
391,12849
394,12849
396,12849
399,12850
402,12850
405,12851
406,12851
408,12852
409,12853
411,12855
412,12857
412,12858
412,12859
413,12861
413,12863
414,12863
414,12864
414,12865
414,12866
414,12867
414,12869
414,12873
414,12875
414,12877
414,12881
414,12886
414,12893
414,12900
414,12904
414,12906
414,12909
414,12917
414,12924
414,12928
414,12929
414,12932
414,12938
414,12944
414,12947
414,12950
414,12951
414,12953
413,12954
413,12956
412,12957
412,12958
410,12959
409,12960
408,12961
407,12962
406,12962
405,12963
404,12964
403,12964
402,12964
401,12965
400,12965
400,12966
399,12966
396,12966
391,12966
388,12966
387,12966
386,12966
383,12966
377,12966
368,12966
356,12966
346,12966
340,12966
337,12966
335,12966
329,12966
318,12966
306,12966
300,12966
298,12966
293,12966
283,12966
274,12966
269,12966
266,12966
264,12966
262,12965
259,12965
257,12964
256,12964
255,12963
254,12962
252,12961
251,12960
250,12959
250,12958
249,12957
248,12956
248,12955
248,12954
247,12953
247,12952
246,12952
246,12951
246,12944
246,12929
246,12909
246,12889
246,12874
246,12867
246,12866
" style="stroke:#036998;stroke-width:0;
stroke-linejoin:bevel; stroke-linecap:butt;
fill:#036998;
"/>
<!-- Line -->
<!--  spline  -->
<polyline points="246,12866
247,12864
247,12861
248,12859
249,12858
249,12857
250,12856
252,12854
254,12853
254,12852
255,12852
256,12852
257,12851
258,12850
259,12850
260,12850
261,12850
261,12849
262,12849
263,12849
266,12849
271,12849
274,12849
275,12849
276,12849
279,12849
285,12849
293,12849
305,12849
315,12849
321,12849
324,12849
326,12849
332,12849
343,12849
355,12849
360,12849
363,12849
367,12849
377,12849
386,12849
391,12849
394,12849
396,12849
399,12850
402,12850
405,12851
406,12851
408,12852
409,12853
411,12855
412,12857
412,12858
412,12859
413,12861
413,12863
414,12863
414,12864
414,12865
414,12866
414,12867
414,12869
414,12873
414,12875
414,12877
414,12881
414,12886
414,12893
414,12900
414,12904
414,12906
414,12909
414,12917
414,12924
414,12928
414,12929
414,12932
414,12938
414,12944
414,12947
414,12950
414,12951
414,12953
413,12954
413,12956
412,12957
412,12958
410,12959
409,12960
408,12961
407,12962
406,12962
405,12963
404,12964
403,12964
402,12964
401,12965
400,12965
400,12966
399,12966
396,12966
391,12966
388,12966
387,12966
386,12966
383,12966
377,12966
368,12966
356,12966
346,12966
340,12966
337,12966
335,12966
329,12966
318,12966
306,12966
300,12966
298,12966
293,12966
283,12966
274,12966
269,12966
266,12966
264,12966
262,12965
259,12965
257,12964
256,12964
255,12963
254,12962
252,12961
251,12960
250,12959
250,12958
249,12957
248,12956
248,12955
248,12954
247,12953
247,12952
246,12952
246,12951
246,12944
246,12929
246,12909
246,12889
246,12874
246,12867
246,12866
" style="stroke:#ffffff;stroke-width:7;
stroke-linejoin:bevel; stroke-linecap:butt;
"/>
<!-- Line -->
<!--  polyline  -->
<polyline points="467,12802
263,12802
229,12834
433,12834
467,12802
" style="stroke:#036998;stroke-width:0;
stroke-linejoin:miter; stroke-linecap:butt;
fill:#036998;
"/>
<!-- Line -->
<!--  polyline  -->
<polyline points="467,12802
263,12802
229,12834
433,12834
467,12802
" style="stroke:#ffffff;stroke-width:7;
stroke-linejoin:miter; stroke-linecap:butt;
"/>
<!-- Line -->
<!--  polyline  -->
<polyline points="467,12951
467,12801
433,12833
433,12983
467,12951
" style="stroke:#036998;stroke-width:0;
stroke-linejoin:miter; stroke-linecap:butt;
fill:#036998;
"/>
<!-- Line -->
<!--  polyline  -->
<polyline points="467,12951
467,12801
433,12833
433,12983
467,12951
" style="stroke:#ffffff;stroke-width:7;
stroke-linejoin:miter; stroke-linecap:butt;
"/>
</g>
</svg>
