<?xml version="1.0" standalone="no"?>
<!DOCTYPE svg PUBLIC "-//W3C//DTD SVG 1.1//EN"
"http://www.w3.org/Graphics/SVG/1.1/DTD/svg11.dtd">
<!-- Creator: fig2dev Version 3.2 Patchlevel 5c -->
<!-- CreationDate: Fri Sep 14 10:46:52 2012 -->
<!-- Magnification: 1.000 -->
<svg xmlns="http://www.w3.org/2000/svg" width="0.7in" height="0.6in" viewBox="-5 12486 837 718">
<g style="stroke-width:.025in; fill:none">
<!-- Line -->
<!--  polyline  -->
<polyline points="345,12550
420,12498
462,12498
457,12538
403,12588
345,12550
" style="stroke:#036998;stroke-width:0;
stroke-linejoin:miter; stroke-linecap:butt;
fill:#036998;
"/>
<!-- Line -->
<!--  polyline  -->
<polyline points="345,12550
420,12498
462,12498
457,12538
403,12588
345,12550
" style="stroke:#ffffff;stroke-width:7;
stroke-linejoin:miter; stroke-linecap:butt;
"/>
<!-- Line -->
<!--  polyline  -->
<polyline points="66,12904
595,12904
595,13192
66,13192
66,12904
" style="stroke:#036998;stroke-width:0;
stroke-linejoin:miter; stroke-linecap:butt;
fill:#036998;
"/>
<!-- Line -->
<!--  polyline  -->
<polyline points="66,12904
595,12904
595,13192
66,13192
66,12904
" style="stroke:#ffffff;stroke-width:7;
stroke-linejoin:miter; stroke-linecap:butt;
"/>
<!-- Line -->
<!--  polyline  -->
<polyline points="595,12904
782,12725
782,13000
595,13192
595,12904
" style="stroke:#036998;stroke-width:0;
stroke-linejoin:miter; stroke-linecap:butt;
fill:#036998;
"/>
<!-- Line -->
<!--  polyline  -->
<polyline points="595,12904
782,12725
782,13000
595,13192
595,12904
" style="stroke:#ffffff;stroke-width:7;
stroke-linejoin:miter; stroke-linecap:butt;
"/>
<!-- Line -->
<!--  polyline  -->
<polyline points="693,13134
653,13134
651,12875
682,12863
701,12879
705,13098
693,13134
" style="stroke:#036998;stroke-width:0;
stroke-linejoin:miter; stroke-linecap:butt;
fill:#036998;
"/>
<!-- Line -->
<!--  polyline  -->
<polyline points="693,13134
653,13134
651,12875
682,12863
701,12879
705,13098
693,13134
" style="stroke:#ffffff;stroke-width:7;
stroke-linejoin:miter; stroke-linecap:butt;
"/>
<!-- Line -->
<!--  polyline  -->
<polyline points="682,12863
693,13134
764,13052
732,12802
682,12863
" style="stroke:#036998;stroke-width:0;
stroke-linejoin:miter; stroke-linecap:butt;
fill:#036998;
"/>
<!-- Line -->
<!--  polyline  -->
<polyline points="682,12863
693,13134
764,13052
732,12802
682,12863
" style="stroke:#ffffff;stroke-width:7;
stroke-linejoin:miter; stroke-linecap:butt;
"/>
<!-- Line -->
<!--  polyline  -->
<polyline points="637,12925
366,12571
460,12498
820,12725
637,12925
" style="stroke:#036998;stroke-width:0;
stroke-linejoin:miter; stroke-linecap:butt;
fill:#036998;
"/>
<!-- Line -->
<!--  polyline  -->
<polyline points="637,12925
366,12571
460,12498
820,12725
637,12925
" style="stroke:#ffffff;stroke-width:7;
stroke-linejoin:miter; stroke-linecap:butt;
"/>
<!-- Line -->
<!--  polyline  -->
<polyline points="678,12775
720,12734
699,12567
662,12584
662,12734
678,12775
" style="stroke:#036998;stroke-width:0;
stroke-linejoin:miter; stroke-linecap:butt;
fill:#036998;
"/>
<!-- Line -->
<!--  polyline  -->
<polyline points="678,12775
720,12734
699,12567
662,12584
662,12734
678,12775
" style="stroke:#ffffff;stroke-width:7;
stroke-linejoin:miter; stroke-linecap:butt;
"/>
<!-- Line -->
<!--  polyline  -->
<polyline points="616,12717
678,12773
674,12575
641,12571
616,12717
" style="stroke:#036998;stroke-width:0;
stroke-linejoin:miter; stroke-linecap:butt;
fill:#036998;
"/>
<!-- Line -->
<!--  polyline  -->
<polyline points="616,12717
678,12773
674,12575
641,12571
616,12717
" style="stroke:#ffffff;stroke-width:7;
stroke-linejoin:miter; stroke-linecap:butt;
"/>
<!-- Line -->
<!--  polyline  -->
<polyline points="641,12571
672,12590
699,12567
668,12556
641,12571
" style="stroke:#036998;stroke-width:0;
stroke-linejoin:miter; stroke-linecap:butt;
fill:#036998;
"/>
<!-- Line -->
<!--  polyline  -->
<polyline points="641,12571
672,12590
699,12567
668,12556
641,12571
" style="stroke:#ffffff;stroke-width:7;
stroke-linejoin:miter; stroke-linecap:butt;
"/>
<!-- Line -->
<!--  polyline  -->
<polyline points="391,12550
641,12925
7,12925
345,12550
391,12550
" style="stroke:#036998;stroke-width:0;
stroke-linejoin:miter; stroke-linecap:butt;
fill:#036998;
"/>
<!-- Line -->
<!--  polyline  -->
<polyline points="391,12550
641,12925
7,12925
345,12550
391,12550
" style="stroke:#ffffff;stroke-width:7;
stroke-linejoin:miter; stroke-linecap:butt;
"/>
<!-- Line -->
<!--  spline  -->
<polyline points="509,12931
509,12932
506,12937
503,12945
500,12950
500,12951
500,12952
497,12954
493,12958
486,12963
476,12969
467,12974
462,12976
460,12977
458,12977
452,12979
440,12983
427,12986
421,12988
418,12989
415,12990
407,12991
393,12993
377,12995
364,12996
354,12996
345,12996
341,12996
340,12996
338,12996
330,12995
313,12994
297,12994
289,12993
287,12993
286,12993
282,12992
275,12991
265,12989
254,12987
241,12983
229,12979
223,12977
221,12977
219,12976
213,12974
204,12969
194,12963
190,12961
189,12960
186,12957
180,12951
175,12944
173,12938
172,12934
172,12932
172,12931
172,12932
172,12940
172,12956
172,12979
172,13002
172,13018
172,13026
172,13027
172,13028
174,13033
178,13041
180,13046
180,13047
180,13048
183,13050
187,13054
194,13059
204,13065
213,13070
219,13072
221,13073
223,13073
229,13075
241,13079
253,13082
260,13084
263,13085
265,13086
273,13087
287,13089
303,13091
315,13092
326,13092
335,13092
339,13092
340,13092
342,13092
350,13091
367,13090
383,13090
391,13089
393,13089
394,13089
398,13088
406,13087
415,13085
427,13083
440,13079
452,13075
458,13073
460,13073
462,13072
467,13070
476,13065
486,13059
490,13057
491,13056
494,13053
500,13047
505,13040
508,13034
509,13030
509,13028
509,13027
509,13026
509,13018
509,13002
509,12979
509,12956
509,12940
509,12932
509,12931
" style="stroke:#036998;stroke-width:0;
stroke-linejoin:bevel; stroke-linecap:butt;
fill:#036998;
"/>
<!-- Line -->
<!--  spline  -->
<polyline points="509,12931
509,12932
506,12937
503,12945
500,12950
500,12951
500,12952
497,12954
493,12958
486,12963
476,12969
467,12974
462,12976
460,12977
458,12977
452,12979
440,12983
427,12986
421,12988
418,12989
415,12990
407,12991
393,12993
377,12995
364,12996
354,12996
345,12996
341,12996
340,12996
338,12996
330,12995
313,12994
297,12994
289,12993
287,12993
286,12993
282,12992
275,12991
265,12989
254,12987
241,12983
229,12979
223,12977
221,12977
219,12976
213,12974
204,12969
194,12963
190,12961
189,12960
186,12957
180,12951
175,12944
173,12938
172,12934
172,12932
172,12931
172,12932
172,12940
172,12956
172,12979
172,13002
172,13018
172,13026
172,13027
172,13028
174,13033
178,13041
180,13046
180,13047
180,13048
183,13050
187,13054
194,13059
204,13065
213,13070
219,13072
221,13073
223,13073
229,13075
241,13079
253,13082
260,13084
263,13085
265,13086
273,13087
287,13089
303,13091
315,13092
326,13092
335,13092
339,13092
340,13092
342,13092
350,13091
367,13090
383,13090
391,13089
393,13089
394,13089
398,13088
406,13087
415,13085
427,13083
440,13079
452,13075
458,13073
460,13073
462,13072
467,13070
476,13065
486,13059
490,13057
491,13056
494,13053
500,13047
505,13040
508,13034
509,13030
509,13028
509,13027
509,13026
509,13018
509,13002
509,12979
509,12956
509,12940
509,12932
509,12931
" style="stroke:#ffffff;stroke-width:7;
stroke-linejoin:bevel; stroke-linecap:butt;
"/>
<!-- Line -->
<!--  spline  -->
<polyline points="340,12996
342,12996
350,12995
367,12994
383,12994
391,12993
393,12993
394,12993
398,12992
406,12991
415,12989
427,12987
440,12983
452,12979
458,12977
460,12977
462,12976
467,12974
476,12969
486,12963
490,12961
491,12960
494,12957
500,12951
505,12944
508,12938
509,12934
509,12932
509,12931
509,12930
506,12925
503,12916
500,12911
500,12910
500,12909
497,12907
493,12903
486,12898
476,12892
467,12887
462,12885
460,12884
458,12884
452,12882
440,12878
427,12875
421,12873
418,12872
415,12871
407,12870
393,12868
377,12866
364,12865
354,12865
345,12865
341,12865
340,12865
338,12865
330,12866
313,12867
297,12867
289,12868
287,12868
286,12868
282,12869
275,12870
265,12872
254,12874
241,12878
229,12882
223,12884
221,12884
219,12885
213,12887
204,12892
194,12898
190,12900
189,12901
186,12904
180,12910
175,12917
173,12923
172,12928
172,12930
172,12931
172,12932
174,12937
178,12945
180,12950
180,12951
180,12952
183,12954
187,12958
194,12963
204,12969
213,12974
219,12976
221,12977
223,12977
229,12979
241,12983
253,12986
260,12988
263,12989
265,12990
273,12991
287,12993
303,12995
315,12996
326,12996
335,12996
339,12996
340,12996
" style="stroke:#036998;stroke-width:0;
stroke-linejoin:bevel; stroke-linecap:butt;
fill:#036998;
"/>
<!-- Line -->
<!--  spline  -->
<polyline points="340,12996
342,12996
350,12995
367,12994
383,12994
391,12993
393,12993
394,12993
398,12992
406,12991
415,12989
427,12987
440,12983
452,12979
458,12977
460,12977
462,12976
467,12974
476,12969
486,12963
490,12961
491,12960
494,12957
500,12951
505,12944
508,12938
509,12934
509,12932
509,12931
509,12930
506,12925
503,12916
500,12911
500,12910
500,12909
497,12907
493,12903
486,12898
476,12892
467,12887
462,12885
460,12884
458,12884
452,12882
440,12878
427,12875
421,12873
418,12872
415,12871
407,12870
393,12868
377,12866
364,12865
354,12865
345,12865
341,12865
340,12865
338,12865
330,12866
313,12867
297,12867
289,12868
287,12868
286,12868
282,12869
275,12870
265,12872
254,12874
241,12878
229,12882
223,12884
221,12884
219,12885
213,12887
204,12892
194,12898
190,12900
189,12901
186,12904
180,12910
175,12917
173,12923
172,12928
172,12930
172,12931
172,12932
174,12937
178,12945
180,12950
180,12951
180,12952
183,12954
187,12958
194,12963
204,12969
213,12974
219,12976
221,12977
223,12977
229,12979
241,12983
253,12986
260,12988
263,12989
265,12990
273,12991
287,12993
303,12995
315,12996
326,12996
335,12996
339,12996
340,12996
" style="stroke:#ffffff;stroke-width:7;
stroke-linejoin:bevel; stroke-linecap:butt;
"/>
<!-- Line -->
<!--  polyline  -->
<polyline points="302,12905
316,12926
263,12938
274,12928
193,12914
214,12899
292,12912
302,12905
" style="stroke:#ffffff;stroke-width:0;
stroke-linejoin:miter; stroke-linecap:butt;
fill:#ffffff;
"/>
<!-- Line -->
<!--  polyline  -->
<polyline points="376,12956
366,12934
414,12924
406,12932
485,12945
466,12961
387,12946
376,12956
" style="stroke:#ffffff;stroke-width:0;
stroke-linejoin:miter; stroke-linecap:butt;
fill:#ffffff;
"/>
<!-- Line -->
<!--  polyline  -->
<polyline points="350,12893
403,12879
404,12902
390,12899
364,12921
340,12917
366,12896
350,12893
" style="stroke:#ffffff;stroke-width:0;
stroke-linejoin:miter; stroke-linecap:butt;
fill:#ffffff;
"/>
<!-- Line -->
<!--  polyline  -->
<polyline points="327,12975
276,12985
274,12961
289,12964
317,12941
342,12945
312,12971
327,12975
" style="stroke:#ffffff;stroke-width:0;
stroke-linejoin:miter; stroke-linecap:butt;
fill:#ffffff;
"/>
</g>
</svg>
