<?xml version="1.0" standalone="no"?>
<!DOCTYPE svg PUBLIC "-//W3C//DTD SVG 1.1//EN"
"http://www.w3.org/Graphics/SVG/1.1/DTD/svg11.dtd">
<!-- Creator: fig2dev Version 3.2 Patchlevel 5c -->
<!-- CreationDate: Fri Sep 14 10:46:52 2012 -->
<!-- Magnification: 1.000 -->
<svg xmlns="http://www.w3.org/2000/svg" width="0.4in" height="0.3in" viewBox="-1 12783 489 418">
<g style="stroke-width:.025in; fill:none">
<!-- Line -->
<!--  polyline  -->
<polyline points="265,12850
150,12846
94,12907
128,12935
159,12902
229,12904
152,13004
180,13029
136,13088
64,13085
12,13109
48,13184
92,13185
91,13169
69,13168
70,13135
177,13139
236,13066
381,13200
455,13117
437,13100
406,13134
288,13022
338,12958
383,12988
485,12992
487,12951
413,12949
265,12850
" style="stroke:#036998;stroke-width:0;
stroke-linejoin:miter; stroke-linecap:butt;
fill:#036998;
"/>
<!-- Line -->
<!--  polyline  -->
<polyline points="314,12784
400,12787
397,12878
311,12875
314,12784
" style="stroke:#036998;stroke-width:0;
stroke-linejoin:miter; stroke-linecap:butt;
fill:#036998;
"/>
<!-- Line -->
<!--  polyline  -->
<polyline points="57,12893
154,12974
97,13042
0,12960
57,12893
" style="stroke:#036998;stroke-width:0;
stroke-linejoin:miter; stroke-linecap:butt;
fill:#036998;
"/>
</g>
</svg>
