<?xml version="1.0" standalone="no"?>
<!DOCTYPE svg PUBLIC "-//W3C//DTD SVG 1.1//EN"
"http://www.w3.org/Graphics/SVG/1.1/DTD/svg11.dtd">
<!-- Creator: fig2dev Version 3.2 Patchlevel 5c -->
<!-- CreationDate: Fri Sep 14 10:46:53 2012 -->
<!-- Magnification: 1.000 -->
<svg xmlns="http://www.w3.org/2000/svg" width="0.7in" height="0.4in" viewBox="-9 12713 808 496">
<g style="stroke-width:.025in; fill:none">
<!-- Line -->
<!--  spline  -->
<polyline points="239,13197
240,13197
246,13196
258,13194
276,13191
294,13188
306,13186
312,13185
313,13185
316,13184
322,13182
331,13178
340,13174
351,13168
364,13161
378,13151
391,13141
400,13134
404,13130
406,13128
408,13126
412,13122
419,13113
429,13100
439,13086
445,13077
448,13072
449,13070
451,13068
453,13062
457,13052
463,13036
468,13019
471,13004
473,12992
474,12981
475,12971
475,12965
475,12962
475,12961
475,12960
474,12954
472,12942
469,12924
466,12906
464,12894
463,12888
463,12887
462,12884
460,12878
456,12869
452,12860
446,12849
439,12836
429,12822
419,12809
412,12800
408,12796
406,12794
404,12792
400,12788
391,12781
378,12771
364,12761
355,12755
350,12752
347,12751
345,12749
340,12747
329,12743
313,12737
296,12732
282,12729
269,12727
258,12726
249,12725
243,12725
240,12725
239,12725
238,12725
232,12726
219,12728
202,12731
184,12734
171,12736
165,12737
164,12737
161,12738
155,12740
147,12744
137,12748
126,12754
114,12761
100,12771
87,12781
78,12788
74,12792
72,12794
70,12796
66,12800
59,12809
49,12822
39,12836
33,12845
30,12850
29,12853
27,12855
25,12860
21,12871
15,12887
10,12904
7,12918
5,12931
4,12942
3,12951
3,12957
3,12960
3,12961
3,12962
4,12968
6,12981
9,12999
12,13016
14,13029
15,13035
15,13036
16,13039
18,13045
22,13053
26,13063
32,13074
39,13086
49,13100
59,13113
66,13122
70,13126
72,13128
74,13130
78,13134
87,13141
100,13151
114,13161
123,13167
128,13170
130,13171
132,13173
138,13175
148,13179
164,13185
181,13190
196,13193
208,13195
219,13196
229,13197
235,13197
238,13197
239,13197
" style="stroke:#ffffff;stroke-width:0;
stroke-linejoin:bevel; stroke-linecap:butt;
fill:#ffffff;
"/>
<!-- Line -->
<!--  spline  -->
<polyline points="239,13197
240,13197
246,13196
258,13194
276,13191
294,13188
306,13186
312,13185
313,13185
316,13184
322,13182
331,13178
340,13174
351,13168
364,13161
378,13151
391,13141
400,13134
404,13130
406,13128
408,13126
412,13122
419,13113
429,13100
439,13086
445,13077
448,13072
449,13070
451,13068
453,13062
457,13052
463,13036
468,13019
471,13004
473,12992
474,12981
475,12971
475,12965
475,12962
475,12961
475,12960
474,12954
472,12942
469,12924
466,12906
464,12894
463,12888
463,12887
462,12884
460,12878
456,12869
452,12860
446,12849
439,12836
429,12822
419,12809
412,12800
408,12796
406,12794
404,12792
400,12788
391,12781
378,12771
364,12761
355,12755
350,12752
347,12751
345,12749
340,12747
329,12743
313,12737
296,12732
282,12729
269,12727
258,12726
249,12725
243,12725
240,12725
239,12725
238,12725
232,12726
219,12728
202,12731
184,12734
171,12736
165,12737
164,12737
161,12738
155,12740
147,12744
137,12748
126,12754
114,12761
100,12771
87,12781
78,12788
74,12792
72,12794
70,12796
66,12800
59,12809
49,12822
39,12836
33,12845
30,12850
29,12853
27,12855
25,12860
21,12871
15,12887
10,12904
7,12918
5,12931
4,12942
3,12951
3,12957
3,12960
3,12961
3,12962
4,12968
6,12981
9,12999
12,13016
14,13029
15,13035
15,13036
16,13039
18,13045
22,13053
26,13063
32,13074
39,13086
49,13100
59,13113
66,13122
70,13126
72,13128
74,13130
78,13134
87,13141
100,13151
114,13161
123,13167
128,13170
130,13171
132,13173
138,13175
148,13179
164,13185
181,13190
196,13193
208,13195
219,13196
229,13197
235,13197
238,13197
239,13197
" style="stroke:#036998;stroke-width:7;
stroke-linejoin:bevel; stroke-linecap:butt;
"/>
<!-- Text -->
<!--  text  -->
<text xml:space="preserve" x="77" y="12928" fill="#036998"  font-family="Helvetica" font-style="normal" font-weight="normal" font-size="96" text-anchor="start">Token</text>
<!-- Text -->
<!--  text  -->
<text xml:space="preserve" x="119" y="13061" fill="#036998"  font-family="Helvetica" font-style="normal" font-weight="normal" font-size="96" text-anchor="start">Ring</text>
</g>
</svg>
