<?xml version="1.0" standalone="no"?>
<!DOCTYPE svg PUBLIC "-//W3C//DTD SVG 1.1//EN"
"http://www.w3.org/Graphics/SVG/1.1/DTD/svg11.dtd">
<!-- Creator: fig2dev Version 3.2 Patchlevel 5c -->
<!-- CreationDate: Fri Sep 14 10:46:53 2012 -->
<!-- Magnification: 1.000 -->
<svg xmlns="http://www.w3.org/2000/svg" width="0.5in" height="0.6in" viewBox="-9 12498 589 705">
<g style="stroke-width:.025in; fill:none">
<!-- Line -->
<!--  polyline  -->
<polyline points="81,12676
71,12676
3,12676
3,12740
71,12740
79,12740
" style="stroke:#ffffff;stroke-width:0;
stroke-linejoin:miter; stroke-linecap:butt;
fill:#ffffff;
"/>
<!-- Line -->
<!--  polyline  -->
<polyline points="81,12676
71,12676
3,12676
3,12740
71,12740
79,12740
" style="stroke:#000000;stroke-width:7;
stroke-linejoin:miter; stroke-linecap:butt;
"/>
<!-- Line -->
<!--  spline  -->
<polyline points="480,12742
483,12742
486,12742
489,12742
491,12742
500,12744
513,12747
522,12749
524,12749
525,12749
528,12751
534,12754
540,12758
547,12764
553,12770
555,12772
555,12774
556,12776
560,12782
563,12787
564,12790
565,12791
565,12793
567,12797
568,12801
568,12802
568,12803
568,12804
568,12803
568,12798
568,12787
568,12772
568,12757
568,12746
568,12741
568,12740
568,12738
567,12736
567,12734
566,12732
565,12728
563,12724
560,12718
556,12712
555,12710
555,12708
553,12706
547,12700
541,12695
538,12692
537,12691
533,12689
524,12685
513,12682
503,12680
495,12679
490,12679
489,12679
488,12679
484,12679
479,12679
475,12679
474,12679
" style="stroke:#ffffff;stroke-width:0;
stroke-linejoin:bevel; stroke-linecap:butt;
fill:#ffffff;
"/>
<!-- Line -->
<!--  spline  -->
<polyline points="480,12742
483,12742
486,12742
489,12742
491,12742
500,12744
513,12747
522,12749
524,12749
525,12749
528,12751
534,12754
540,12758
547,12764
553,12770
555,12772
555,12774
556,12776
560,12782
563,12787
564,12790
565,12791
565,12793
567,12797
568,12801
568,12802
568,12803
568,12804
568,12803
568,12798
568,12787
568,12772
568,12757
568,12746
568,12741
568,12740
568,12738
567,12736
567,12734
566,12732
565,12728
563,12724
560,12718
556,12712
555,12710
555,12708
553,12706
547,12700
541,12695
538,12692
537,12691
533,12689
524,12685
513,12682
503,12680
495,12679
490,12679
489,12679
488,12679
484,12679
479,12679
475,12679
474,12679
" style="stroke:#000000;stroke-width:7;
stroke-linejoin:bevel; stroke-linecap:butt;
"/>
<!-- Line -->
<!--  polyline  -->
<polyline points="429,13191
429,12565
70,12565
70,13191
429,13191
429,13191
" style="stroke:#00afda;stroke-width:0;
stroke-linejoin:miter; stroke-linecap:butt;
fill:#00afda;
"/>
<!-- Line -->
<!--  polyline  -->
<polyline points="429,13191
429,12565
70,12565
70,13191
429,13191
429,13191
" style="stroke:#ffffff;stroke-width:7;
stroke-linejoin:miter; stroke-linecap:butt;
"/>
<!-- Line -->
<!--  polyline  -->
<polyline points="70,12565
138,12510
484,12510
429,12565
70,12565
70,12565
" style="stroke:#00afda;stroke-width:0;
stroke-linejoin:miter; stroke-linecap:butt;
fill:#00afda;
"/>
<!-- Line -->
<!--  polyline  -->
<polyline points="70,12565
138,12510
484,12510
429,12565
70,12565
70,12565
" style="stroke:#ffffff;stroke-width:7;
stroke-linejoin:miter; stroke-linecap:butt;
"/>
<!-- Line -->
<!--  polyline  -->
<polyline points="429,13191
484,13122
484,12510
429,12565
429,13191
429,13191
" style="stroke:#00afda;stroke-width:0;
stroke-linejoin:miter; stroke-linecap:butt;
fill:#00afda;
"/>
<!-- Line -->
<!--  polyline  -->
<polyline points="429,13191
484,13122
484,12510
429,12565
429,13191
429,13191
" style="stroke:#ffffff;stroke-width:7;
stroke-linejoin:miter; stroke-linecap:butt;
"/>
<!-- Line -->
<!--  spline  -->
<polyline points="568,12760
568,12761
568,12767
568,12780
568,12798
568,12815
568,12828
568,12834
568,12835
567,12836
564,12844
558,12857
552,12870
549,12878
548,12879
547,12879
544,12882
538,12886
531,12892
520,12898
507,12904
494,12909
486,12911
483,12912
480,12912
472,12913
459,12916
446,12918
439,12919
436,12919
434,12919
428,12919
419,12920
410,12920
405,12920
403,12920
402,12920
402,12922
402,12923
402,12925
402,12927
402,12937
402,12956
402,12974
402,12984
402,12986
399,12983
392,12976
382,12966
367,12951
350,12934
334,12918
319,12903
309,12893
302,12886
299,12883
302,12880
309,12873
319,12863
334,12848
351,12831
367,12814
382,12799
392,12789
399,12782
402,12779
402,12780
402,12785
402,12796
402,12812
402,12828
402,12839
402,12844
402,12845
403,12845
407,12845
414,12845
418,12845
419,12845
420,12845
423,12845
428,12845
436,12844
446,12843
459,12841
472,12838
480,12837
483,12837
487,12836
494,12834
508,12829
521,12823
528,12820
531,12819
534,12817
539,12813
549,12803
557,12792
562,12781
565,12772
567,12765
568,12761
568,12760
" style="stroke:#ffffff;stroke-width:0;
stroke-linejoin:bevel; stroke-linecap:butt;
fill:#ffffff;
"/>
<!-- Line -->
<!--  spline  -->
<polyline points="568,12760
568,12761
568,12767
568,12780
568,12798
568,12815
568,12828
568,12834
568,12835
567,12836
564,12844
558,12857
552,12870
549,12878
548,12879
547,12879
544,12882
538,12886
531,12892
520,12898
507,12904
494,12909
486,12911
483,12912
480,12912
472,12913
459,12916
446,12918
439,12919
436,12919
434,12919
428,12919
419,12920
410,12920
405,12920
403,12920
402,12920
402,12922
402,12923
402,12925
402,12927
402,12937
402,12956
402,12974
402,12984
402,12986
399,12983
392,12976
382,12966
367,12951
350,12934
334,12918
319,12903
309,12893
302,12886
299,12883
302,12880
309,12873
319,12863
334,12848
351,12831
367,12814
382,12799
392,12789
399,12782
402,12779
402,12780
402,12785
402,12796
402,12812
402,12828
402,12839
402,12844
402,12845
403,12845
407,12845
414,12845
418,12845
419,12845
420,12845
423,12845
428,12845
436,12844
446,12843
459,12841
472,12838
480,12837
483,12837
487,12836
494,12834
508,12829
521,12823
528,12820
531,12819
534,12817
539,12813
549,12803
557,12792
562,12781
565,12772
567,12765
568,12761
568,12760
" style="stroke:#000000;stroke-width:7;
stroke-linejoin:bevel; stroke-linecap:butt;
"/>
<!-- Line -->
<!--  polyline  -->
<polyline points="122,12668
104,12685
104,12604
184,12604
167,12623
163,12626
282,12745
243,12784
124,12665
122,12668
122,12668
" style="stroke:#ffffff;stroke-width:0;
stroke-linejoin:miter; stroke-linecap:butt;
fill:#ffffff;
"/>
<!-- Line -->
<!--  polyline  -->
<polyline points="129,13089
112,13072
112,13152
192,13152
174,13134
171,13130
290,13011
251,12972
132,13091
129,13089
129,13089
" style="stroke:#ffffff;stroke-width:0;
stroke-linejoin:miter; stroke-linecap:butt;
fill:#ffffff;
"/>
<!-- Line -->
<!--  spline  -->
<polyline points="181,12865
181,12866
181,12872
181,12886
181,12906
181,12925
181,12939
181,12945
181,12946
180,12946
173,12946
159,12946
139,12946
118,12946
104,12946
97,12946
96,12946
96,12945
96,12939
96,12925
96,12906
96,12886
96,12872
96,12866
96,12865
97,12864
104,12862
113,12858
120,12856
121,12855
122,12855
125,12855
130,12854
136,12854
144,12854
151,12855
154,12855
155,12856
158,12856
164,12858
169,12860
171,12860
172,12861
174,12862
177,12863
178,12863
178,12864
179,12864
180,12864
180,12865
181,12865
" style="stroke:#ffffff;stroke-width:0;
stroke-linejoin:bevel; stroke-linecap:butt;
fill:#ffffff;
"/>
<!-- Line -->
<!--  spline  -->
<polyline points="165,12830
165,12832
164,12836
164,12838
163,12839
163,12841
162,12843
160,12845
158,12847
158,12848
158,12849
157,12849
155,12851
153,12852
152,12853
151,12853
148,12854
145,12855
143,12855
140,12856
139,12856
137,12855
133,12855
131,12854
130,12854
128,12853
126,12852
124,12851
122,12849
121,12849
121,12848
121,12847
119,12845
118,12843
117,12842
117,12841
116,12840
115,12838
114,12835
114,12833
114,12831
114,12830
114,12828
115,12824
115,12822
116,12821
116,12819
117,12817
119,12815
121,12813
121,12812
121,12811
122,12811
124,12809
126,12808
127,12807
129,12807
131,12806
134,12805
136,12805
138,12804
139,12804
142,12805
145,12805
148,12806
149,12806
151,12807
153,12808
155,12809
157,12811
158,12811
158,12812
158,12813
160,12815
161,12817
162,12818
162,12819
163,12820
164,12822
165,12825
165,12827
165,12829
165,12830
" style="stroke:#ffffff;stroke-width:0;
stroke-linejoin:bevel; stroke-linecap:butt;
fill:#ffffff;
"/>
<!-- Line -->
<!--  spline  -->
<polyline points="285,12865
285,12866
285,12872
285,12886
285,12906
285,12925
285,12939
285,12945
285,12946
284,12946
277,12946
263,12946
243,12946
222,12946
208,12946
201,12946
200,12946
200,12945
200,12939
200,12925
200,12906
200,12886
200,12872
200,12866
200,12865
201,12864
208,12862
217,12858
224,12856
225,12855
226,12855
229,12855
234,12854
241,12854
249,12854
256,12855
259,12855
260,12856
262,12856
268,12858
273,12860
275,12860
276,12861
278,12862
281,12863
282,12863
282,12864
283,12864
284,12864
284,12865
285,12865
" style="stroke:#ffffff;stroke-width:0;
stroke-linejoin:bevel; stroke-linecap:butt;
fill:#ffffff;
"/>
<!-- Line -->
<!--  spline  -->
<polyline points="269,12830
269,12832
268,12836
268,12838
267,12839
267,12841
266,12843
264,12845
262,12847
262,12848
262,12849
261,12849
259,12851
257,12852
256,12853
254,12853
252,12854
249,12855
247,12855
245,12856
244,12856
241,12855
238,12855
235,12854
234,12854
232,12853
230,12852
228,12851
226,12849
225,12849
225,12848
225,12847
223,12845
222,12843
221,12842
221,12841
220,12840
219,12838
218,12835
218,12833
218,12831
218,12830
218,12828
219,12824
219,12822
220,12821
220,12819
221,12817
223,12815
225,12813
225,12812
225,12811
226,12811
228,12809
230,12808
231,12807
232,12807
235,12806
238,12805
240,12805
243,12804
244,12804
246,12805
250,12805
252,12806
253,12806
255,12807
257,12808
259,12809
261,12811
262,12811
262,12812
262,12813
264,12815
265,12817
266,12818
266,12819
267,12820
268,12822
269,12825
269,12827
269,12829
269,12830
" style="stroke:#ffffff;stroke-width:0;
stroke-linejoin:bevel; stroke-linecap:butt;
fill:#ffffff;
"/>
</g>
</svg>
