<?xml version="1.0" standalone="no"?>
<!DOCTYPE svg PUBLIC "-//W3C//DTD SVG 1.1//EN"
"http://www.w3.org/Graphics/SVG/1.1/DTD/svg11.dtd">
<!-- Creator: fig2dev Version 3.2 Patchlevel 5c -->
<!-- CreationDate: Fri Sep 14 10:46:53 2012 -->
<!-- Magnification: 1.000 -->
<svg xmlns="http://www.w3.org/2000/svg" width="0.5in" height="0.4in" viewBox="-3 12667 568 536">
<g style="stroke-width:.025in; fill:none">
<!-- Line -->
<!--  polyline  -->
<polyline points="511,13191
511,12721
9,12721
9,13191
511,13191
" style="stroke:#026c9b;stroke-width:0;
stroke-linejoin:miter; stroke-linecap:butt;
fill:#026c9b;
"/>
<!-- Line -->
<!--  polyline  -->
<polyline points="511,13191
511,12721
9,12721
9,13191
511,13191
" style="stroke:#ffffff;stroke-width:7;
stroke-linejoin:miter; stroke-linecap:butt;
"/>
<!-- Line -->
<!--  polyline  -->
<polyline points="9,12721
61,12679
553,12679
511,12721
9,12721
" style="stroke:#026c9b;stroke-width:0;
stroke-linejoin:miter; stroke-linecap:butt;
fill:#026c9b;
"/>
<!-- Line -->
<!--  polyline  -->
<polyline points="9,12721
61,12679
553,12679
511,12721
9,12721
" style="stroke:#ffffff;stroke-width:7;
stroke-linejoin:miter; stroke-linecap:butt;
"/>
<!-- Line -->
<!--  polyline  -->
<polyline points="511,13191
553,13139
553,12679
511,12721
511,13191
" style="stroke:#026c9b;stroke-width:0;
stroke-linejoin:miter; stroke-linecap:butt;
fill:#026c9b;
"/>
<!-- Line -->
<!--  polyline  -->
<polyline points="511,13191
553,13139
553,12679
511,12721
511,13191
" style="stroke:#ffffff;stroke-width:7;
stroke-linejoin:miter; stroke-linecap:butt;
"/>
<!-- Line -->
<!--  spline  -->
<polyline points="507,12880
506,12880
498,12880
482,12880
460,12880
437,12880
421,12880
413,12880
412,12880
411,12880
407,12879
401,12877
397,12876
396,12876
394,12875
392,12873
390,12871
387,12868
385,12865
384,12864
384,12863
383,12862
382,12859
381,12856
381,12854
381,12852
380,12850
380,12849
380,12848
379,12848
379,12847
379,12845
382,12837
387,12820
392,12804
395,12796
395,12794
395,12793
394,12789
393,12781
391,12774
387,12765
382,12759
379,12757
378,12757
375,12756
368,12753
361,12751
358,12751
356,12751
353,12751
348,12751
344,12751
342,12751
340,12751
339,12752
336,12752
333,12751
330,12751
327,12751
323,12751
318,12751
311,12753
304,12756
301,12757
299,12757
296,12759
291,12765
287,12772
285,12776
284,12777
284,12781
284,12794
286,12808
290,12820
293,12832
297,12841
299,12846
299,12847
299,12848
299,12849
299,12850
299,12851
299,12853
298,12856
297,12859
296,12862
295,12863
295,12864
294,12865
292,12868
290,12871
289,12872
288,12873
287,12874
283,12876
278,12878
274,12879
270,12880
267,12880
266,12880
262,12880
253,12880
237,12880
213,12880
184,12880
152,12880
120,12880
91,12880
67,12880
51,12880
42,12880
38,12880
37,12880
36,12880
35,12880
34,12880
33,12881
32,12882
30,12883
28,12884
27,12885
26,12886
24,12888
22,12890
21,12891
20,12892
19,12893
17,12896
15,12900
14,12904
13,12907
12,12909
" style="stroke:#ffffff;stroke-width:7;
stroke-linejoin:bevel; stroke-linecap:butt;
"/>
<!-- Line -->
<!--  spline  -->
<polyline points="9,13027
10,13027
18,13027
34,13027
57,13027
79,13027
95,13027
103,13027
104,13027
105,13027
109,13028
114,13029
118,13030
119,13030
121,13031
123,13033
126,13035
129,13038
131,13041
132,13043
133,13045
134,13048
135,13051
135,13052
135,13053
136,13054
136,13056
136,13058
136,13059
136,13060
136,13062
133,13070
128,13087
124,13103
121,13111
121,13113
121,13114
121,13119
122,13126
124,13134
128,13142
132,13147
135,13149
137,13150
139,13150
142,13151
148,13153
155,13155
158,13155
159,13155
162,13155
167,13155
171,13155
173,13155
175,13155
176,13154
179,13154
182,13155
185,13155
186,13155
188,13155
192,13155
198,13155
205,13153
211,13151
214,13150
216,13150
217,13149
220,13147
224,13142
228,13136
230,13132
231,13131
232,13129
232,13124
232,13113
230,13099
226,13087
222,13075
219,13066
216,13061
216,13060
216,13059
217,13057
217,13056
217,13055
217,13053
218,13051
219,13048
220,13045
221,13043
222,13041
224,13038
226,13035
227,13034
228,13033
229,13032
233,13030
238,13028
242,13027
246,13027
249,13027
250,13027
254,13027
263,13027
279,13027
303,13027
332,13027
364,13027
396,13027
425,13027
449,13027
465,13027
474,13027
478,13027
479,13027
480,13027
480,13026
481,13026
482,13026
483,13026
484,13025
486,13024
488,13023
489,13022
490,13021
492,13019
494,13017
495,13016
496,13015
497,13014
499,13011
501,13007
502,13003
503,13000
504,12998
" style="stroke:#ffffff;stroke-width:7;
stroke-linejoin:bevel; stroke-linecap:butt;
"/>
<!-- Line -->
<!--  polyline  -->
<polyline points="126,12935
139,12954
91,12965
102,12957
28,12944
46,12930
118,12942
126,12935
" style="stroke:#ffffff;stroke-width:0;
stroke-linejoin:miter; stroke-linecap:butt;
fill:#ffffff;
"/>
<!-- Line -->
<!--  polyline  -->
<polyline points="194,12981
185,12962
228,12953
221,12960
293,12972
275,12986
204,12973
194,12981
" style="stroke:#ffffff;stroke-width:0;
stroke-linejoin:miter; stroke-linecap:butt;
fill:#ffffff;
"/>
<!-- Line -->
<!--  polyline  -->
<polyline points="170,12925
218,12912
219,12932
207,12930
183,12950
161,12946
185,12927
170,12925
" style="stroke:#ffffff;stroke-width:0;
stroke-linejoin:miter; stroke-linecap:butt;
fill:#ffffff;
"/>
<!-- Line -->
<!--  polyline  -->
<polyline points="149,12999
103,13008
102,12987
115,12989
140,12968
163,12972
135,12995
149,12999
" style="stroke:#ffffff;stroke-width:0;
stroke-linejoin:miter; stroke-linecap:butt;
fill:#ffffff;
"/>
<!-- Line -->
<!--  polyline  -->
<polyline points="402,12955
433,12980
448,12980
448,12974
482,12985
448,12997
448,12991
429,12991
393,12962
357,12991
337,12991
337,12997
304,12985
337,12974
337,12980
352,12980
384,12955
352,12930
337,12930
337,12937
304,12925
337,12913
337,12920
357,12920
393,12948
429,12920
448,12920
448,12913
482,12925
448,12937
448,12930
433,12930
402,12955
" style="stroke:#ffffff;stroke-width:0;
stroke-linejoin:miter; stroke-linecap:butt;
fill:#ffffff;
"/>
</g>
</svg>
