<?xml version="1.0" standalone="no"?>
<!DOCTYPE svg PUBLIC "-//W3C//DTD SVG 1.1//EN"
"http://www.w3.org/Graphics/SVG/1.1/DTD/svg11.dtd">
<!-- Creator: fig2dev Version 3.2 Patchlevel 5c -->
<!-- CreationDate: Fri Sep 14 10:46:54 2012 -->
<!-- Magnification: 1.000 -->
<svg xmlns="http://www.w3.org/2000/svg" width="1.1in" height="0.4in" viewBox="-7 12667 1304 537">
<g style="stroke-width:.025in; fill:none">
<!-- Line -->
<!--  spline  -->
<polyline points="1146,13089
1146,13090
1146,13091
1146,13092
1145,13093
1145,13094
1144,13095
1143,13096
1143,13097
1142,13098
1141,13099
1140,13099
1139,13099
1138,13099
1137,13100
1136,13100
1134,13100
1129,13100
1120,13100
1105,13100
1085,13100
1058,13100
1024,13100
983,13100
935,13100
882,13100
823,13100
759,13100
693,13100
625,13100
557,13100
491,13100
427,13100
368,13100
315,13100
267,13100
226,13100
192,13100
165,13100
145,13100
130,13100
121,13100
116,13100
114,13100
113,13100
112,13099
111,13099
110,13099
109,13099
108,13098
107,13097
107,13096
106,13095
105,13094
105,13093
104,13092
104,13091
103,13090
103,13089
104,13086
105,13079
107,13066
110,13047
114,13022
119,12991
125,12956
132,12918
138,12880
144,12845
149,12814
153,12789
156,12770
158,12757
159,12750
160,12747
160,12746
161,12744
161,12743
161,12742
161,12741
162,12740
163,12739
164,12739
165,12738
166,12738
166,12737
167,12737
168,12737
169,12737
170,12736
171,12736
173,12736
178,12736
187,12736
201,12736
221,12736
248,12736
281,12736
321,12736
368,12736
421,12736
479,12736
541,12736
606,12736
673,12736
739,12736
804,12736
866,12736
924,12736
977,12736
1024,12736
1064,12736
1097,12736
1124,12736
1144,12736
1158,12736
1167,12736
1172,12736
1174,12736
1175,12736
1177,12737
1178,12737
1179,12737
1180,12738
1181,12738
1182,12739
1183,12740
1184,12741
1185,12742
1185,12743
1185,12744
1185,12745
1185,12746
1185,12747
1185,12750
1184,12757
1182,12770
1180,12789
1177,12814
1174,12845
1170,12880
1165,12918
1161,12956
1157,12991
1154,13022
1151,13047
1149,13066
1147,13079
1146,13086
1146,13089
" style="stroke:#036998;stroke-width:0;
stroke-linejoin:bevel; stroke-linecap:butt;
fill:#036998;
"/>
<!-- Line -->
<!--  spline  -->
<polyline points="1146,13089
1146,13090
1146,13091
1146,13092
1145,13093
1145,13094
1144,13095
1143,13096
1143,13097
1142,13098
1141,13099
1140,13099
1139,13099
1138,13099
1137,13100
1136,13100
1134,13100
1129,13100
1120,13100
1105,13100
1085,13100
1058,13100
1024,13100
983,13100
935,13100
882,13100
823,13100
759,13100
693,13100
625,13100
557,13100
491,13100
427,13100
368,13100
315,13100
267,13100
226,13100
192,13100
165,13100
145,13100
130,13100
121,13100
116,13100
114,13100
113,13100
112,13099
111,13099
110,13099
109,13099
108,13098
107,13097
107,13096
106,13095
105,13094
105,13093
104,13092
104,13091
103,13090
103,13089
104,13086
105,13079
107,13066
110,13047
114,13022
119,12991
125,12956
132,12918
138,12880
144,12845
149,12814
153,12789
156,12770
158,12757
159,12750
160,12747
160,12746
161,12744
161,12743
161,12742
161,12741
162,12740
163,12739
164,12739
165,12738
166,12738
166,12737
167,12737
168,12737
169,12737
170,12736
171,12736
173,12736
178,12736
187,12736
201,12736
221,12736
248,12736
281,12736
321,12736
368,12736
421,12736
479,12736
541,12736
606,12736
673,12736
739,12736
804,12736
866,12736
924,12736
977,12736
1024,12736
1064,12736
1097,12736
1124,12736
1144,12736
1158,12736
1167,12736
1172,12736
1174,12736
1175,12736
1177,12737
1178,12737
1179,12737
1180,12738
1181,12738
1182,12739
1183,12740
1184,12741
1185,12742
1185,12743
1185,12744
1185,12745
1185,12746
1185,12747
1185,12750
1184,12757
1182,12770
1180,12789
1177,12814
1174,12845
1170,12880
1165,12918
1161,12956
1157,12991
1154,13022
1151,13047
1149,13066
1147,13079
1146,13086
1146,13089
" style="stroke:#ffffff;stroke-width:7;
stroke-linejoin:bevel; stroke-linecap:butt;
"/>
<!-- Line -->
<!--  spline  -->
<polyline points="1285,13040
1285,13041
1284,13043
1284,13044
1284,13045
1283,13045
1283,13046
1282,13047
1281,13048
1280,13049
1279,13049
1279,13050
1278,13050
1277,13050
1276,13050
1275,13051
1274,13051
1273,13051
1270,13052
1261,13056
1246,13061
1226,13068
1203,13076
1180,13083
1160,13090
1145,13095
1136,13099
1133,13100
1132,13100
1131,13100
1130,13099
1129,13099
1128,13099
1127,13099
1126,13098
1125,13097
1124,13097
1124,13096
1123,13095
1122,13094
1122,13093
1122,13092
1122,13091
1121,13090
1121,13089
1121,13086
1122,13079
1124,13066
1126,13047
1129,13022
1132,12991
1136,12956
1141,12918
1145,12880
1149,12845
1152,12814
1155,12789
1157,12770
1159,12757
1160,12750
1160,12747
1160,12746
1161,12744
1161,12743
1161,12742
1161,12741
1162,12740
1163,12739
1164,12739
1165,12738
1166,12738
1166,12737
1167,12737
1168,12737
1169,12737
1170,12736
1171,12736
1172,12736
1176,12736
1186,12736
1203,12736
1223,12736
1242,12736
1259,12736
1269,12736
1273,12736
1274,12736
1275,12736
1277,12737
1278,12737
1279,12737
1280,12738
1281,12738
1282,12739
1283,12740
1284,12741
1285,12742
1285,12743
1285,12744
1285,12745
1285,12746
1285,12747
1285,12748
1285,12751
1285,12759
1285,12774
1285,12796
1285,12824
1285,12857
1285,12894
1285,12930
1285,12963
1285,12991
1285,13013
1285,13028
1285,13036
1285,13039
1285,13040
" style="stroke:#036998;stroke-width:0;
stroke-linejoin:bevel; stroke-linecap:butt;
fill:#036998;
"/>
<!-- Line -->
<!--  spline  -->
<polyline points="1285,13040
1285,13041
1284,13043
1284,13044
1284,13045
1283,13045
1283,13046
1282,13047
1281,13048
1280,13049
1279,13049
1279,13050
1278,13050
1277,13050
1276,13050
1275,13051
1274,13051
1273,13051
1270,13052
1261,13056
1246,13061
1226,13068
1203,13076
1180,13083
1160,13090
1145,13095
1136,13099
1133,13100
1132,13100
1131,13100
1130,13099
1129,13099
1128,13099
1127,13099
1126,13098
1125,13097
1124,13097
1124,13096
1123,13095
1122,13094
1122,13093
1122,13092
1122,13091
1121,13090
1121,13089
1121,13086
1122,13079
1124,13066
1126,13047
1129,13022
1132,12991
1136,12956
1141,12918
1145,12880
1149,12845
1152,12814
1155,12789
1157,12770
1159,12757
1160,12750
1160,12747
1160,12746
1161,12744
1161,12743
1161,12742
1161,12741
1162,12740
1163,12739
1164,12739
1165,12738
1166,12738
1166,12737
1167,12737
1168,12737
1169,12737
1170,12736
1171,12736
1172,12736
1176,12736
1186,12736
1203,12736
1223,12736
1242,12736
1259,12736
1269,12736
1273,12736
1274,12736
1275,12736
1277,12737
1278,12737
1279,12737
1280,12738
1281,12738
1282,12739
1283,12740
1284,12741
1285,12742
1285,12743
1285,12744
1285,12745
1285,12746
1285,12747
1285,12748
1285,12751
1285,12759
1285,12774
1285,12796
1285,12824
1285,12857
1285,12894
1285,12930
1285,12963
1285,12991
1285,13013
1285,13028
1285,13036
1285,13039
1285,13040
" style="stroke:#ffffff;stroke-width:7;
stroke-linejoin:bevel; stroke-linecap:butt;
"/>
<!-- Line -->
<!--  polyline  -->
<polyline points="1048,13147
696,13147
795,13019
1128,13019
1048,13147
" style="stroke:#036998;stroke-width:0;
stroke-linejoin:miter; stroke-linecap:butt;
fill:#036998;
"/>
<!-- Line -->
<!--  polyline  -->
<polyline points="1048,13147
696,13147
795,13019
1128,13019
1048,13147
" style="stroke:#ffffff;stroke-width:7;
stroke-linejoin:miter; stroke-linecap:butt;
"/>
<!-- Line -->
<!--  polyline  -->
<polyline points="1048,13189
696,13189
700,13149
1048,13149
1048,13189
" style="stroke:#036998;stroke-width:0;
stroke-linejoin:miter; stroke-linecap:butt;
fill:#036998;
"/>
<!-- Line -->
<!--  polyline  -->
<polyline points="1048,13189
696,13189
700,13149
1048,13149
1048,13189
" style="stroke:#ffffff;stroke-width:7;
stroke-linejoin:miter; stroke-linecap:butt;
"/>
<!-- Line -->
<!--  polyline  -->
<polyline points="1130,13019
1130,13101
1045,13192
1045,13144
1130,13019
" style="stroke:#036998;stroke-width:0;
stroke-linejoin:miter; stroke-linecap:butt;
fill:#036998;
"/>
<!-- Line -->
<!--  polyline  -->
<polyline points="1130,13019
1130,13101
1045,13192
1045,13144
1130,13019
" style="stroke:#ffffff;stroke-width:7;
stroke-linejoin:miter; stroke-linecap:butt;
"/>
<!-- Line -->
<!--  polyline  -->
<polyline points="463,12741
411,13099
" style="stroke:#036998;stroke-width:0;
stroke-linejoin:miter; stroke-linecap:butt;
fill:#036998;
"/>
<!-- Line -->
<!--  polyline  -->
<polyline points="463,12741
411,13099
" style="stroke:#ffffff;stroke-width:7;
stroke-linejoin:miter; stroke-linecap:butt;
"/>
<!-- Line -->
<!--  polyline  -->
<polyline points="828,12739
792,13022
" style="stroke:#036998;stroke-width:0;
stroke-linejoin:miter; stroke-linecap:butt;
fill:#036998;
"/>
<!-- Line -->
<!--  polyline  -->
<polyline points="828,12739
792,13022
" style="stroke:#ffffff;stroke-width:7;
stroke-linejoin:miter; stroke-linecap:butt;
"/>
<!-- Line -->
<!--  spline  -->
<polyline points="1131,12865
1131,12866
1130,12869
1130,12874
1129,12877
1129,12878
1128,12880
1127,12883
1126,12886
1123,12890
1120,12893
1119,12895
1117,12896
1114,12899
1111,12901
1109,12902
1109,12903
1107,12903
1103,12905
1098,12906
1094,12907
1091,12907
1089,12907
1088,12907
1085,12906
1080,12906
1077,12905
1076,12905
1074,12904
1072,12903
1069,12902
1065,12899
1062,12896
1060,12895
1059,12893
1056,12890
1054,12886
1053,12885
1052,12884
1052,12882
1050,12878
1049,12873
1048,12870
1048,12867
1048,12865
1048,12864
1049,12861
1049,12856
1050,12853
1050,12852
1051,12850
1052,12848
1053,12845
1056,12841
1059,12838
1060,12836
1062,12835
1065,12832
1068,12830
1070,12829
1070,12828
1072,12828
1076,12826
1080,12825
1084,12824
1087,12824
1089,12824
1090,12824
1093,12825
1099,12825
1102,12826
1103,12826
1105,12827
1107,12828
1110,12829
1114,12832
1117,12835
1119,12836
1120,12838
1123,12841
1125,12844
1126,12846
1127,12846
1127,12848
1129,12852
1130,12856
1131,12860
1131,12863
1131,12865
" style="stroke:#036998;stroke-width:0;
stroke-linejoin:bevel; stroke-linecap:butt;
fill:#036998;
"/>
<!-- Line -->
<!--  spline  -->
<polyline points="1131,12865
1131,12866
1130,12869
1130,12874
1129,12877
1129,12878
1128,12880
1127,12883
1126,12886
1123,12890
1120,12893
1119,12895
1117,12896
1114,12899
1111,12901
1109,12902
1109,12903
1107,12903
1103,12905
1098,12906
1094,12907
1091,12907
1089,12907
1088,12907
1085,12906
1080,12906
1077,12905
1076,12905
1074,12904
1072,12903
1069,12902
1065,12899
1062,12896
1060,12895
1059,12893
1056,12890
1054,12886
1053,12885
1052,12884
1052,12882
1050,12878
1049,12873
1048,12870
1048,12867
1048,12865
1048,12864
1049,12861
1049,12856
1050,12853
1050,12852
1051,12850
1052,12848
1053,12845
1056,12841
1059,12838
1060,12836
1062,12835
1065,12832
1068,12830
1070,12829
1070,12828
1072,12828
1076,12826
1080,12825
1084,12824
1087,12824
1089,12824
1090,12824
1093,12825
1099,12825
1102,12826
1103,12826
1105,12827
1107,12828
1110,12829
1114,12832
1117,12835
1119,12836
1120,12838
1123,12841
1125,12844
1126,12846
1127,12846
1127,12848
1129,12852
1130,12856
1131,12860
1131,12863
1131,12865
" style="stroke:#ffffff;stroke-width:7;
stroke-linejoin:bevel; stroke-linecap:butt;
"/>
<!-- Line -->
<!--  spline  -->
<polyline points="335,12815
335,12816
334,12819
334,12824
333,12827
333,12828
332,12830
331,12833
330,12836
327,12840
324,12843
323,12845
321,12846
318,12849
315,12851
313,12852
313,12853
311,12853
307,12855
302,12856
298,12857
295,12857
293,12857
292,12857
289,12856
284,12856
281,12855
280,12855
278,12854
276,12853
273,12852
269,12849
266,12846
264,12845
263,12843
260,12840
258,12836
257,12835
256,12834
256,12832
254,12828
253,12823
252,12820
252,12817
252,12815
252,12814
253,12811
253,12806
254,12803
254,12802
255,12800
256,12798
257,12795
260,12791
263,12788
264,12786
266,12785
269,12782
272,12780
274,12779
274,12778
276,12778
280,12776
284,12775
288,12774
291,12774
293,12774
294,12774
297,12775
303,12775
306,12776
307,12776
309,12777
311,12778
314,12779
318,12782
321,12785
323,12786
324,12788
327,12791
329,12794
330,12796
331,12796
331,12798
333,12802
334,12806
335,12810
335,12813
335,12815
" style="stroke:#036998;stroke-width:0;
stroke-linejoin:bevel; stroke-linecap:butt;
fill:#036998;
"/>
<!-- Line -->
<!--  spline  -->
<polyline points="335,12815
335,12816
334,12819
334,12824
333,12827
333,12828
332,12830
331,12833
330,12836
327,12840
324,12843
323,12845
321,12846
318,12849
315,12851
313,12852
313,12853
311,12853
307,12855
302,12856
298,12857
295,12857
293,12857
292,12857
289,12856
284,12856
281,12855
280,12855
278,12854
276,12853
273,12852
269,12849
266,12846
264,12845
263,12843
260,12840
258,12836
257,12835
256,12834
256,12832
254,12828
253,12823
252,12820
252,12817
252,12815
252,12814
253,12811
253,12806
254,12803
254,12802
255,12800
256,12798
257,12795
260,12791
263,12788
264,12786
266,12785
269,12782
272,12780
274,12779
274,12778
276,12778
280,12776
284,12775
288,12774
291,12774
293,12774
294,12774
297,12775
303,12775
306,12776
307,12776
309,12777
311,12778
314,12779
318,12782
321,12785
323,12786
324,12788
327,12791
329,12794
330,12796
331,12796
331,12798
333,12802
334,12806
335,12810
335,12813
335,12815
" style="stroke:#ffffff;stroke-width:7;
stroke-linejoin:bevel; stroke-linecap:butt;
"/>
<!-- Line -->
<!--  spline  -->
<polyline points="889,13086
889,13087
887,13089
883,13094
881,13096
881,13097
879,13098
877,13101
874,13103
869,13106
865,13109
863,13110
862,13110
860,13111
855,13113
850,13115
848,13115
847,13116
844,13116
839,13117
833,13118
829,13118
825,13118
823,13118
822,13118
819,13117
813,13117
810,13116
809,13116
807,13115
805,13114
802,13112
798,13110
795,13108
794,13107
794,13106
793,13105
791,13102
790,13099
789,13098
789,13097
789,13095
789,13092
789,13088
790,13085
791,13083
792,13081
792,13080
794,13078
798,13073
800,13071
800,13070
801,13069
804,13066
807,13064
811,13061
816,13058
818,13057
819,13057
821,13056
826,13054
831,13052
833,13052
834,13051
837,13051
842,13050
848,13049
852,13049
856,13049
858,13049
859,13049
862,13050
868,13050
871,13051
872,13051
874,13052
876,13053
879,13055
883,13057
886,13059
887,13060
887,13061
888,13062
890,13065
891,13068
892,13069
892,13070
892,13072
892,13075
892,13079
891,13082
890,13084
889,13086
" style="stroke:#036998;stroke-width:0;
stroke-linejoin:bevel; stroke-linecap:butt;
fill:#036998;
"/>
<!-- Line -->
<!--  spline  -->
<polyline points="889,13086
889,13087
887,13089
883,13094
881,13096
881,13097
879,13098
877,13101
874,13103
869,13106
865,13109
863,13110
862,13110
860,13111
855,13113
850,13115
848,13115
847,13116
844,13116
839,13117
833,13118
829,13118
825,13118
823,13118
822,13118
819,13117
813,13117
810,13116
809,13116
807,13115
805,13114
802,13112
798,13110
795,13108
794,13107
794,13106
793,13105
791,13102
790,13099
789,13098
789,13097
789,13095
789,13092
789,13088
790,13085
791,13083
792,13081
792,13080
794,13078
798,13073
800,13071
800,13070
801,13069
804,13066
807,13064
811,13061
816,13058
818,13057
819,13057
821,13056
826,13054
831,13052
833,13052
834,13051
837,13051
842,13050
848,13049
852,13049
856,13049
858,13049
859,13049
862,13050
868,13050
871,13051
872,13051
874,13052
876,13053
879,13055
883,13057
886,13059
887,13060
887,13061
888,13062
890,13065
891,13068
892,13069
892,13070
892,13072
892,13075
892,13079
891,13082
890,13084
889,13086
" style="stroke:#ffffff;stroke-width:7;
stroke-linejoin:bevel; stroke-linecap:butt;
"/>
<!-- Line -->
<!--  spline  -->
<polyline points="597,12960
597,12961
595,12966
593,12973
591,12978
591,12979
589,12981
587,12984
584,12988
579,12992
574,12995
572,12996
572,12997
570,12998
564,13000
558,13002
556,13003
554,13003
552,13004
545,13005
538,13006
532,13006
527,13006
525,13006
524,13006
523,13006
518,13006
510,13005
505,13005
504,13005
501,13005
497,13004
493,13003
487,13001
482,12999
480,12998
479,12998
478,12996
474,12993
471,12989
470,12987
469,12987
469,12984
467,12979
466,12973
466,12967
466,12963
466,12961
466,12960
466,12959
467,12954
469,12944
472,12926
475,12905
478,12884
481,12866
483,12856
484,12851
484,12850
484,12849
486,12844
489,12836
491,12831
491,12830
492,12828
495,12825
498,12821
502,12817
507,12814
508,12813
509,12812
511,12811
517,12809
523,12807
525,12806
527,12806
529,12805
536,12804
543,12803
549,12803
554,12803
556,12803
557,12803
558,12803
563,12803
571,12804
576,12804
577,12804
578,12804
580,12804
584,12805
589,12806
595,12808
600,12810
602,12812
604,12813
607,12817
610,12821
612,12822
612,12823
613,12825
615,12830
616,12836
616,12841
616,12846
615,12848
615,12849
615,12850
614,12855
612,12866
609,12883
606,12905
603,12926
600,12943
598,12954
597,12959
597,12960
" style="stroke:#036998;stroke-width:0;
stroke-linejoin:bevel; stroke-linecap:butt;
fill:#036998;
"/>
<!-- Line -->
<!--  spline  -->
<polyline points="597,12960
597,12961
595,12966
593,12973
591,12978
591,12979
589,12981
587,12984
584,12988
579,12992
574,12995
572,12996
572,12997
570,12998
564,13000
558,13002
556,13003
554,13003
552,13004
545,13005
538,13006
532,13006
527,13006
525,13006
524,13006
523,13006
518,13006
510,13005
505,13005
504,13005
501,13005
497,13004
493,13003
487,13001
482,12999
480,12998
479,12998
478,12996
474,12993
471,12989
470,12987
469,12987
469,12984
467,12979
466,12973
466,12967
466,12963
466,12961
466,12960
466,12959
467,12954
469,12944
472,12926
475,12905
478,12884
481,12866
483,12856
484,12851
484,12850
484,12849
486,12844
489,12836
491,12831
491,12830
492,12828
495,12825
498,12821
502,12817
507,12814
508,12813
509,12812
511,12811
517,12809
523,12807
525,12806
527,12806
529,12805
536,12804
543,12803
549,12803
554,12803
556,12803
557,12803
558,12803
563,12803
571,12804
576,12804
577,12804
578,12804
580,12804
584,12805
589,12806
595,12808
600,12810
602,12812
604,12813
607,12817
610,12821
612,12822
612,12823
613,12825
615,12830
616,12836
616,12841
616,12846
615,12848
615,12849
615,12850
614,12855
612,12866
609,12883
606,12905
603,12926
600,12943
598,12954
597,12959
597,12960
" style="stroke:#ffffff;stroke-width:7;
stroke-linejoin:bevel; stroke-linecap:butt;
"/>
<!-- Line -->
<!--  spline  -->
<polyline points="743,12960
743,12961
741,12966
739,12973
737,12978
737,12979
735,12981
733,12984
730,12988
725,12992
720,12995
718,12996
718,12997
716,12998
710,13000
704,13002
702,13003
700,13003
698,13004
691,13005
684,13006
678,13006
673,13006
671,13006
670,13006
669,13006
664,13006
656,13005
651,13005
650,13005
647,13005
643,13004
639,13003
633,13001
628,12999
626,12998
625,12998
624,12996
620,12993
617,12989
616,12987
615,12987
615,12984
613,12979
612,12973
612,12967
612,12963
612,12961
612,12960
612,12959
613,12954
615,12944
618,12926
621,12905
624,12884
627,12866
629,12856
630,12851
630,12850
630,12849
632,12844
634,12836
636,12831
636,12830
638,12828
640,12825
643,12821
648,12817
653,12814
655,12813
655,12812
657,12811
663,12809
669,12807
671,12806
673,12806
675,12805
682,12804
689,12803
695,12803
700,12803
702,12803
703,12803
704,12803
709,12803
717,12804
722,12804
723,12804
726,12804
730,12805
734,12806
740,12808
745,12810
747,12812
748,12812
749,12813
753,12817
756,12821
757,12822
758,12823
758,12825
760,12830
761,12836
761,12841
761,12846
761,12848
761,12849
761,12850
760,12855
758,12866
755,12883
752,12905
749,12926
746,12943
744,12954
743,12959
743,12960
" style="stroke:#036998;stroke-width:0;
stroke-linejoin:bevel; stroke-linecap:butt;
fill:#036998;
"/>
<!-- Line -->
<!--  spline  -->
<polyline points="743,12960
743,12961
741,12966
739,12973
737,12978
737,12979
735,12981
733,12984
730,12988
725,12992
720,12995
718,12996
718,12997
716,12998
710,13000
704,13002
702,13003
700,13003
698,13004
691,13005
684,13006
678,13006
673,13006
671,13006
670,13006
669,13006
664,13006
656,13005
651,13005
650,13005
647,13005
643,13004
639,13003
633,13001
628,12999
626,12998
625,12998
624,12996
620,12993
617,12989
616,12987
615,12987
615,12984
613,12979
612,12973
612,12967
612,12963
612,12961
612,12960
612,12959
613,12954
615,12944
618,12926
621,12905
624,12884
627,12866
629,12856
630,12851
630,12850
630,12849
632,12844
634,12836
636,12831
636,12830
638,12828
640,12825
643,12821
648,12817
653,12814
655,12813
655,12812
657,12811
663,12809
669,12807
671,12806
673,12806
675,12805
682,12804
689,12803
695,12803
700,12803
702,12803
703,12803
704,12803
709,12803
717,12804
722,12804
723,12804
726,12804
730,12805
734,12806
740,12808
745,12810
747,12812
748,12812
749,12813
753,12817
756,12821
757,12822
758,12823
758,12825
760,12830
761,12836
761,12841
761,12846
761,12848
761,12849
761,12850
760,12855
758,12866
755,12883
752,12905
749,12926
746,12943
744,12954
743,12959
743,12960
" style="stroke:#ffffff;stroke-width:7;
stroke-linejoin:bevel; stroke-linecap:butt;
"/>
<!-- Line -->
<!--  spline  -->
<polyline points="999,12953
999,12954
997,12958
993,12964
991,12968
991,12969
989,12971
987,12974
983,12977
977,12981
971,12984
969,12985
968,12985
965,12986
958,12988
951,12989
948,12990
947,12990
944,12990
936,12991
927,12992
920,12992
914,12992
911,12992
910,12992
909,12992
902,12992
893,12991
886,12991
885,12991
884,12991
881,12991
877,12990
871,12990
864,12988
858,12986
855,12985
852,12984
848,12981
844,12978
842,12976
841,12974
839,12970
838,12965
838,12960
838,12957
839,12954
839,12953
840,12945
843,12929
847,12907
850,12884
853,12868
854,12860
854,12859
854,12858
856,12854
859,12848
861,12844
861,12843
863,12841
865,12839
869,12836
875,12832
881,12829
883,12828
884,12828
887,12827
894,12825
901,12823
904,12823
906,12822
909,12822
917,12821
926,12820
933,12820
939,12820
942,12820
943,12820
944,12820
951,12820
960,12821
967,12821
968,12821
969,12821
972,12821
976,12822
982,12822
989,12824
995,12826
997,12827
998,12827
1000,12828
1004,12831
1008,12834
1009,12836
1010,12837
1011,12838
1013,12843
1014,12848
1014,12853
1014,12856
1013,12859
1013,12860
1012,12868
1009,12884
1006,12906
1003,12928
1000,12944
999,12952
999,12953
" style="stroke:#036998;stroke-width:0;
stroke-linejoin:bevel; stroke-linecap:butt;
fill:#036998;
"/>
<!-- Line -->
<!--  spline  -->
<polyline points="999,12953
999,12954
997,12958
993,12964
991,12968
991,12969
989,12971
987,12974
983,12977
977,12981
971,12984
969,12985
968,12985
965,12986
958,12988
951,12989
948,12990
947,12990
944,12990
936,12991
927,12992
920,12992
914,12992
911,12992
910,12992
909,12992
902,12992
893,12991
886,12991
885,12991
884,12991
881,12991
877,12990
871,12990
864,12988
858,12986
855,12985
852,12984
848,12981
844,12978
842,12976
841,12974
839,12970
838,12965
838,12960
838,12957
839,12954
839,12953
840,12945
843,12929
847,12907
850,12884
853,12868
854,12860
854,12859
854,12858
856,12854
859,12848
861,12844
861,12843
863,12841
865,12839
869,12836
875,12832
881,12829
883,12828
884,12828
887,12827
894,12825
901,12823
904,12823
906,12822
909,12822
917,12821
926,12820
933,12820
939,12820
942,12820
943,12820
944,12820
951,12820
960,12821
967,12821
968,12821
969,12821
972,12821
976,12822
982,12822
989,12824
995,12826
997,12827
998,12827
1000,12828
1004,12831
1008,12834
1009,12836
1010,12837
1011,12838
1013,12843
1014,12848
1014,12853
1014,12856
1013,12859
1013,12860
1012,12868
1009,12884
1006,12906
1003,12928
1000,12944
999,12952
999,12953
" style="stroke:#ffffff;stroke-width:7;
stroke-linejoin:bevel; stroke-linecap:butt;
"/>
<!-- Line -->
<!--  polyline  -->
<polyline points="393,12924
187,12924
193,12890
398,12890
393,12924
" style="stroke:#036998;stroke-width:0;
stroke-linejoin:miter; stroke-linecap:butt;
fill:#036998;
"/>
<!-- Line -->
<!--  polyline  -->
<polyline points="393,12924
187,12924
193,12890
398,12890
393,12924
" style="stroke:#ffffff;stroke-width:7;
stroke-linejoin:miter; stroke-linecap:butt;
"/>
<!-- Line -->
<!--  polyline  -->
<polyline points="382,12974
176,12974
182,12940
387,12940
382,12974
" style="stroke:#036998;stroke-width:0;
stroke-linejoin:miter; stroke-linecap:butt;
fill:#036998;
"/>
<!-- Line -->
<!--  polyline  -->
<polyline points="382,12974
176,12974
182,12940
387,12940
382,12974
" style="stroke:#ffffff;stroke-width:7;
stroke-linejoin:miter; stroke-linecap:butt;
"/>
<!-- Line -->
<!--  polyline  -->
<polyline points="371,13024
165,13024
171,12990
376,12990
371,13024
" style="stroke:#036998;stroke-width:0;
stroke-linejoin:miter; stroke-linecap:butt;
fill:#036998;
"/>
<!-- Line -->
<!--  polyline  -->
<polyline points="371,13024
165,13024
171,12990
376,12990
371,13024
" style="stroke:#ffffff;stroke-width:7;
stroke-linejoin:miter; stroke-linecap:butt;
"/>
<!-- Line -->
<!--  polyline  -->
<polyline points="359,13074
154,13074
159,13040
365,13040
359,13074
" style="stroke:#036998;stroke-width:0;
stroke-linejoin:miter; stroke-linecap:butt;
fill:#036998;
"/>
<!-- Line -->
<!--  polyline  -->
<polyline points="359,13074
154,13074
159,13040
365,13040
359,13074
" style="stroke:#ffffff;stroke-width:7;
stroke-linejoin:miter; stroke-linecap:butt;
"/>
<!-- Line -->
<!--  polyline  -->
<polyline points="1026,13118
915,13118
954,13062
1065,13062
1026,13118
" style="stroke:#036998;stroke-width:0;
stroke-linejoin:miter; stroke-linecap:butt;
fill:#036998;
"/>
<!-- Line -->
<!--  polyline  -->
<polyline points="1026,13118
915,13118
954,13062
1065,13062
1026,13118
" style="stroke:#ffffff;stroke-width:7;
stroke-linejoin:miter; stroke-linecap:butt;
"/>
<!-- Line -->
<!--  spline  -->
<polyline points="309,12796
310,12795
314,12791
324,12782
338,12769
351,12756
361,12747
365,12743
366,12742
369,12740
375,12737
383,12733
392,12729
403,12724
416,12719
431,12714
449,12709
459,12707
463,12707
466,12707
475,12707
491,12705
506,12704
514,12704
517,12704
520,12704
526,12705
536,12705
546,12705
550,12706
552,12707
553,12707
" style="stroke:#036998;stroke-width:0;
stroke-linejoin:bevel; stroke-linecap:butt;
fill:#036998;
"/>
<!-- Line -->
<!--  spline  -->
<polyline points="309,12796
310,12795
314,12791
324,12782
338,12769
351,12756
361,12747
365,12743
366,12742
369,12740
375,12737
383,12733
392,12729
403,12724
416,12719
431,12714
449,12709
459,12707
463,12707
466,12707
475,12707
491,12705
506,12704
514,12704
517,12704
520,12704
526,12705
536,12705
546,12705
550,12706
552,12707
553,12707
" style="stroke:#ffffff;stroke-width:7;
stroke-linejoin:bevel; stroke-linecap:butt;
"/>
<!-- Line -->
<!--  spline  -->
<polyline points="592,12701
591,12703
591,12706
590,12708
589,12709
589,12710
587,12712
585,12714
582,12716
581,12717
579,12718
576,12719
573,12720
571,12721
570,12721
569,12721
565,12722
561,12723
557,12723
555,12724
553,12724
552,12724
549,12723
545,12723
542,12722
541,12722
539,12722
537,12721
534,12720
530,12719
527,12718
526,12717
525,12717
524,12716
522,12714
520,12712
519,12711
518,12711
518,12710
516,12708
515,12706
514,12704
514,12702
514,12701
515,12699
515,12696
516,12694
517,12693
518,12692
520,12690
522,12688
524,12686
525,12685
526,12685
527,12684
530,12683
533,12682
535,12681
536,12681
537,12681
541,12680
545,12679
549,12679
551,12679
553,12679
554,12679
557,12679
561,12680
564,12680
565,12680
567,12680
569,12681
572,12682
576,12683
579,12684
581,12685
582,12686
585,12688
587,12690
588,12691
589,12692
590,12694
591,12696
592,12698
592,12700
592,12701
" style="stroke:#036998;stroke-width:0;
stroke-linejoin:bevel; stroke-linecap:butt;
fill:#036998;
"/>
<!-- Line -->
<!--  spline  -->
<polyline points="592,12701
591,12703
591,12706
590,12708
589,12709
589,12710
587,12712
585,12714
582,12716
581,12717
579,12718
576,12719
573,12720
571,12721
570,12721
569,12721
565,12722
561,12723
557,12723
555,12724
553,12724
552,12724
549,12723
545,12723
542,12722
541,12722
539,12722
537,12721
534,12720
530,12719
527,12718
526,12717
525,12717
524,12716
522,12714
520,12712
519,12711
518,12711
518,12710
516,12708
515,12706
514,12704
514,12702
514,12701
515,12699
515,12696
516,12694
517,12693
518,12692
520,12690
522,12688
524,12686
525,12685
526,12685
527,12684
530,12683
533,12682
535,12681
536,12681
537,12681
541,12680
545,12679
549,12679
551,12679
553,12679
554,12679
557,12679
561,12680
564,12680
565,12680
567,12680
569,12681
572,12682
576,12683
579,12684
581,12685
582,12686
585,12688
587,12690
588,12691
589,12692
590,12694
591,12696
592,12698
592,12700
592,12701
" style="stroke:#ffffff;stroke-width:7;
stroke-linejoin:bevel; stroke-linecap:butt;
"/>
<!-- Line -->
<!--  polyline  -->
<polyline points="235,12874
190,13090
" style="stroke:#036998;stroke-width:15;
stroke-linejoin:miter; stroke-linecap:butt;
"/>
<!-- Line -->
<!--  polyline  -->
<polyline points="365,12874
321,13090
" style="stroke:#036998;stroke-width:15;
stroke-linejoin:miter; stroke-linecap:butt;
"/>
<!-- Line -->
<!--  polyline  -->
<polyline points="298,12874
253,13090
" style="stroke:#036998;stroke-width:15;
stroke-linejoin:miter; stroke-linecap:butt;
"/>
<!-- Line -->
<!--  polyline  -->
<polyline points="14,12969
27,12893
" style="stroke:#036998;stroke-width:0;
stroke-linejoin:miter; stroke-linecap:butt;
fill:#036998;
"/>
<!-- Line -->
<!--  polyline  -->
<polyline points="14,12969
27,12893
" style="stroke:#ffffff;stroke-width:7;
stroke-linejoin:miter; stroke-linecap:butt;
"/>
<!-- Line -->
<!--  spline  -->
<polyline points="118,12860
118,12861
116,12865
115,12872
113,12876
113,12877
112,12880
111,12883
109,12888
107,12894
105,12900
104,12902
104,12903
104,12906
102,12912
101,12918
100,12920
100,12921
99,12924
98,12930
97,12937
96,12942
95,12946
95,12949
95,12950
98,12955
101,12962
104,12967
104,12968
104,12969
103,12976
101,12991
98,13013
95,13034
93,13049
92,13056
92,13057
92,13056
89,13052
84,13042
77,13029
70,13015
65,13005
62,13001
62,13000
62,12999
62,12992
63,12980
63,12968
63,12961
63,12960
63,12959
64,12955
65,12946
66,12936
69,12922
72,12904
76,12887
78,12877
79,12873
80,12869
82,12860
87,12843
92,12827
94,12818
95,12815
96,12812
99,12804
103,12792
108,12779
112,12771
114,12767
116,12764
116,12765
119,12769
124,12779
131,12793
138,12806
143,12816
146,12820
146,12821
145,12823
142,12832
136,12850
131,12867
128,12876
127,12878
127,12877
124,12872
121,12866
118,12861
118,12860
" style="stroke:#036998;stroke-width:0;
stroke-linejoin:bevel; stroke-linecap:butt;
fill:#036998;
"/>
<!-- Line -->
<!--  spline  -->
<polyline points="118,12860
118,12861
116,12865
115,12872
113,12876
113,12877
112,12880
111,12883
109,12888
107,12894
105,12900
104,12902
104,12903
104,12906
102,12912
101,12918
100,12920
100,12921
99,12924
98,12930
97,12937
96,12942
95,12946
95,12949
95,12950
98,12955
101,12962
104,12967
104,12968
104,12969
103,12976
101,12991
98,13013
95,13034
93,13049
92,13056
92,13057
92,13056
89,13052
84,13042
77,13029
70,13015
65,13005
62,13001
62,13000
62,12999
62,12992
63,12980
63,12968
63,12961
63,12960
63,12959
64,12955
65,12946
66,12936
69,12922
72,12904
76,12887
78,12877
79,12873
80,12869
82,12860
87,12843
92,12827
94,12818
95,12815
96,12812
99,12804
103,12792
108,12779
112,12771
114,12767
116,12764
116,12765
119,12769
124,12779
131,12793
138,12806
143,12816
146,12820
146,12821
145,12823
142,12832
136,12850
131,12867
128,12876
127,12878
127,12877
124,12872
121,12866
118,12861
118,12860
" style="stroke:#ffffff;stroke-width:7;
stroke-linejoin:bevel; stroke-linecap:butt;
"/>
<!-- Line -->
<!--  polyline  -->
<polyline points="5,13000
23,13058
92,13057
62,13000
5,13000
" style="stroke:#036998;stroke-width:0;
stroke-linejoin:miter; stroke-linecap:butt;
fill:#036998;
"/>
<!-- Line -->
<!--  polyline  -->
<polyline points="5,13000
23,13058
92,13057
62,13000
5,13000
" style="stroke:#ffffff;stroke-width:7;
stroke-linejoin:miter; stroke-linecap:butt;
"/>
<!-- Line -->
<!--  spline  -->
<polyline points="116,12764
115,12765
112,12773
107,12783
104,12791
103,12792
103,12793
101,12797
99,12804
96,12813
92,12826
87,12843
82,12860
80,12869
79,12873
78,12877
76,12887
72,12904
69,12921
67,12930
66,12934
66,12937
65,12945
63,12960
62,12974
61,12984
62,12992
62,12997
62,13000
60,13000
51,13000
33,13000
16,13000
7,13000
5,13000
5,12999
5,12992
5,12980
5,12969
5,12962
5,12961
5,12960
6,12956
7,12947
8,12936
11,12922
14,12904
18,12887
20,12877
21,12873
22,12870
24,12861
29,12844
34,12828
36,12819
37,12816
38,12813
41,12805
45,12793
50,12780
54,12772
56,12767
58,12764
60,12764
69,12764
87,12764
105,12764
114,12764
116,12764
" style="stroke:#036998;stroke-width:0;
stroke-linejoin:bevel; stroke-linecap:butt;
fill:#036998;
"/>
<!-- Line -->
<!--  spline  -->
<polyline points="116,12764
115,12765
112,12773
107,12783
104,12791
103,12792
103,12793
101,12797
99,12804
96,12813
92,12826
87,12843
82,12860
80,12869
79,12873
78,12877
76,12887
72,12904
69,12921
67,12930
66,12934
66,12937
65,12945
63,12960
62,12974
61,12984
62,12992
62,12997
62,13000
60,13000
51,13000
33,13000
16,13000
7,13000
5,13000
5,12999
5,12992
5,12980
5,12969
5,12962
5,12961
5,12960
6,12956
7,12947
8,12936
11,12922
14,12904
18,12887
20,12877
21,12873
22,12870
24,12861
29,12844
34,12828
36,12819
37,12816
38,12813
41,12805
45,12793
50,12780
54,12772
56,12767
58,12764
60,12764
69,12764
87,12764
105,12764
114,12764
116,12764
" style="stroke:#ffffff;stroke-width:7;
stroke-linejoin:bevel; stroke-linecap:butt;
"/>
</g>
</svg>
