<?xml version="1.0" standalone="no"?>
<!DOCTYPE svg PUBLIC "-//W3C//DTD SVG 1.1//EN"
"http://www.w3.org/Graphics/SVG/1.1/DTD/svg11.dtd">
<!-- Creator: fig2dev Version 3.2 Patchlevel 5c -->
<!-- CreationDate: Fri Sep 14 10:46:54 2012 -->
<!-- Magnification: 1.000 -->
<svg xmlns="http://www.w3.org/2000/svg" width="0.4in" height="0.4in" viewBox="-3 12765 445 439">
<g style="stroke-width:.025in; fill:none">
<!-- Line -->
<!--  polyline  -->
<polyline points="430,13062
387,13124
9,13124
71,13062
430,13062
" style="stroke:#036998;stroke-width:0;
stroke-linejoin:miter; stroke-linecap:butt;
fill:#036998;
"/>
<!-- Line -->
<!--  polyline  -->
<polyline points="430,13062
387,13124
9,13124
71,13062
430,13062
" style="stroke:#ffffff;stroke-width:7;
stroke-linejoin:miter; stroke-linecap:butt;
"/>
<!-- Line -->
<!--  polyline  -->
<polyline points="9,13192
9,13124
370,13124
370,13192
9,13192
" style="stroke:#036998;stroke-width:0;
stroke-linejoin:miter; stroke-linecap:butt;
fill:#036998;
"/>
<!-- Line -->
<!--  polyline  -->
<polyline points="9,13192
9,13124
370,13124
370,13192
9,13192
" style="stroke:#ffffff;stroke-width:7;
stroke-linejoin:miter; stroke-linecap:butt;
"/>
<!-- Line -->
<!--  polyline  -->
<polyline points="9,12838
367,12838
367,13109
9,13109
9,12838
" style="stroke:#036998;stroke-width:0;
stroke-linejoin:miter; stroke-linecap:butt;
fill:#036998;
"/>
<!-- Line -->
<!--  polyline  -->
<polyline points="9,12838
367,12838
367,13109
9,13109
9,12838
" style="stroke:#ffffff;stroke-width:7;
stroke-linejoin:miter; stroke-linecap:butt;
"/>
<!-- Line -->
<!--  polyline  -->
<polyline points="367,13109
429,13048
429,12777
367,12838
367,13109
" style="stroke:#036998;stroke-width:0;
stroke-linejoin:miter; stroke-linecap:butt;
fill:#036998;
"/>
<!-- Line -->
<!--  polyline  -->
<polyline points="367,13109
429,13048
429,12777
367,12838
367,13109
" style="stroke:#ffffff;stroke-width:7;
stroke-linejoin:miter; stroke-linecap:butt;
"/>
<!-- Line -->
<!--  polyline  -->
<polyline points="369,13192
369,13124
430,13064
430,13131
369,13192
" style="stroke:#036998;stroke-width:0;
stroke-linejoin:miter; stroke-linecap:butt;
fill:#036998;
"/>
<!-- Line -->
<!--  polyline  -->
<polyline points="369,13192
369,13124
430,13064
430,13131
369,13192
" style="stroke:#ffffff;stroke-width:7;
stroke-linejoin:miter; stroke-linecap:butt;
"/>
<!-- Line -->
<!--  spline  -->
<polyline points="67,12869
68,12869
72,12869
82,12869
99,12869
123,12869
154,12869
188,12869
221,12869
252,12869
276,12869
293,12869
303,12869
307,12869
308,12869
311,12870
314,12870
317,12871
318,12871
320,12872
322,12873
324,12875
326,12877
327,12878
328,12879
330,12881
332,12883
332,12885
333,12886
334,12889
335,12892
336,12895
336,12897
336,12898
336,12899
336,12903
336,12912
336,12928
336,12949
336,12974
336,12999
336,13020
336,13036
336,13045
336,13049
336,13050
335,13053
335,13056
334,13059
334,13060
333,13062
332,13064
330,13066
328,13068
327,13069
326,13070
324,13072
322,13074
321,13074
320,13075
317,13076
314,13077
312,13078
309,13078
308,13078
307,13078
303,13078
293,13078
276,13078
252,13078
221,13078
187,13078
154,13078
123,13078
99,13078
82,13078
72,13078
68,13078
67,13078
64,13077
61,13077
58,13076
57,13076
55,13075
54,13074
51,13072
49,13070
48,13069
47,13069
46,13068
44,13066
42,13064
42,13063
41,13063
41,13062
40,13059
39,13056
39,13054
39,13051
39,13050
39,13049
39,13045
39,13036
39,13020
39,12999
39,12974
39,12949
39,12928
39,12912
39,12903
39,12899
39,12898
39,12895
40,12892
40,12889
40,12888
41,12886
42,12884
44,12881
46,12879
47,12878
48,12878
49,12877
51,12875
53,12873
54,12873
55,12872
58,12871
61,12870
63,12869
66,12869
67,12869
" style="stroke:#ffffff;stroke-width:0;
stroke-linejoin:bevel; stroke-linecap:butt;
fill:#ffffff;
"/>
<!-- Line -->
<!--  spline  -->
<polyline points="67,12869
68,12869
72,12869
82,12869
99,12869
123,12869
154,12869
188,12869
221,12869
252,12869
276,12869
293,12869
303,12869
307,12869
308,12869
311,12870
314,12870
317,12871
318,12871
320,12872
322,12873
324,12875
326,12877
327,12878
328,12879
330,12881
332,12883
332,12885
333,12886
334,12889
335,12892
336,12895
336,12897
336,12898
336,12899
336,12903
336,12912
336,12928
336,12949
336,12974
336,12999
336,13020
336,13036
336,13045
336,13049
336,13050
335,13053
335,13056
334,13059
334,13060
333,13062
332,13064
330,13066
328,13068
327,13069
326,13070
324,13072
322,13074
321,13074
320,13075
317,13076
314,13077
312,13078
309,13078
308,13078
307,13078
303,13078
293,13078
276,13078
252,13078
221,13078
187,13078
154,13078
123,13078
99,13078
82,13078
72,13078
68,13078
67,13078
64,13077
61,13077
58,13076
57,13076
55,13075
54,13074
51,13072
49,13070
48,13069
47,13069
46,13068
44,13066
42,13064
42,13063
41,13063
41,13062
40,13059
39,13056
39,13054
39,13051
39,13050
39,13049
39,13045
39,13036
39,13020
39,12999
39,12974
39,12949
39,12928
39,12912
39,12903
39,12899
39,12898
39,12895
40,12892
40,12889
40,12888
41,12886
42,12884
44,12881
46,12879
47,12878
48,12878
49,12877
51,12875
53,12873
54,12873
55,12872
58,12871
61,12870
63,12869
66,12869
67,12869
" style="stroke:#ffffff;stroke-width:7;
stroke-linejoin:bevel; stroke-linecap:butt;
"/>
<!-- Line -->
<!--  polyline  -->
<polyline points="429,12777
79,12777
9,12838
367,12838
429,12777
" style="stroke:#036998;stroke-width:0;
stroke-linejoin:miter; stroke-linecap:butt;
fill:#036998;
"/>
<!-- Line -->
<!--  polyline  -->
<polyline points="429,12777
79,12777
9,12838
367,12838
429,12777
" style="stroke:#ffffff;stroke-width:7;
stroke-linejoin:miter; stroke-linecap:butt;
"/>
<!-- Line -->
<!--  spline  -->
<polyline points="71,13159
71,13161
70,13164
70,13166
70,13167
69,13168
68,13169
67,13171
66,13173
65,13173
65,13174
65,13175
63,13176
61,13177
60,13178
59,13178
57,13179
55,13180
53,13180
51,13180
50,13180
48,13180
45,13179
43,13179
42,13179
41,13178
40,13177
38,13176
36,13175
36,13174
35,13173
34,13173
33,13171
32,13169
31,13169
31,13168
30,13166
29,13164
29,13162
29,13160
29,13159
29,13157
30,13154
30,13152
30,13151
31,13150
32,13148
33,13146
34,13144
35,13144
36,13144
36,13143
38,13142
40,13141
40,13140
41,13140
43,13139
45,13138
47,13138
49,13138
50,13138
52,13138
55,13139
57,13139
58,13139
59,13140
61,13141
63,13142
65,13143
65,13144
66,13144
67,13146
68,13148
69,13149
69,13150
70,13152
71,13154
71,13156
71,13158
71,13159
" style="stroke:#036998;stroke-width:0;
stroke-linejoin:bevel; stroke-linecap:butt;
fill:#036998;
"/>
<!-- Line -->
<!--  spline  -->
<polyline points="71,13159
71,13161
70,13164
70,13166
70,13167
69,13168
68,13169
67,13171
66,13173
65,13173
65,13174
65,13175
63,13176
61,13177
60,13178
59,13178
57,13179
55,13180
53,13180
51,13180
50,13180
48,13180
45,13179
43,13179
42,13179
41,13178
40,13177
38,13176
36,13175
36,13174
35,13173
34,13173
33,13171
32,13169
31,13169
31,13168
30,13166
29,13164
29,13162
29,13160
29,13159
29,13157
30,13154
30,13152
30,13151
31,13150
32,13148
33,13146
34,13144
35,13144
36,13144
36,13143
38,13142
40,13141
40,13140
41,13140
43,13139
45,13138
47,13138
49,13138
50,13138
52,13138
55,13139
57,13139
58,13139
59,13140
61,13141
63,13142
65,13143
65,13144
66,13144
67,13146
68,13148
69,13149
69,13150
70,13152
71,13154
71,13156
71,13158
71,13159
" style="stroke:#ffffff;stroke-width:7;
stroke-linejoin:bevel; stroke-linecap:butt;
"/>
<!-- Line -->
<!--  spline  -->
<polyline points="353,13159
353,13161
352,13164
352,13166
352,13167
351,13168
350,13169
349,13171
348,13173
347,13173
347,13174
346,13175
344,13176
342,13177
341,13178
340,13178
338,13179
336,13180
334,13180
333,13180
332,13180
330,13180
327,13179
325,13179
324,13179
323,13178
321,13177
319,13176
317,13175
316,13174
316,13173
315,13173
314,13171
313,13169
312,13169
312,13168
311,13166
310,13164
310,13162
310,13160
310,13159
310,13157
311,13154
311,13152
311,13151
312,13150
313,13148
314,13146
315,13144
316,13144
317,13143
319,13142
321,13141
322,13140
323,13140
325,13139
327,13138
329,13138
331,13138
332,13138
334,13138
336,13139
338,13139
339,13139
340,13140
342,13141
344,13142
346,13143
347,13144
348,13144
349,13146
350,13148
351,13149
351,13150
352,13152
353,13154
353,13156
353,13158
353,13159
" style="stroke:#036998;stroke-width:0;
stroke-linejoin:bevel; stroke-linecap:butt;
fill:#036998;
"/>
<!-- Line -->
<!--  spline  -->
<polyline points="353,13159
353,13161
352,13164
352,13166
352,13167
351,13168
350,13169
349,13171
348,13173
347,13173
347,13174
346,13175
344,13176
342,13177
341,13178
340,13178
338,13179
336,13180
334,13180
333,13180
332,13180
330,13180
327,13179
325,13179
324,13179
323,13178
321,13177
319,13176
317,13175
316,13174
316,13173
315,13173
314,13171
313,13169
312,13169
312,13168
311,13166
310,13164
310,13162
310,13160
310,13159
310,13157
311,13154
311,13152
311,13151
312,13150
313,13148
314,13146
315,13144
316,13144
317,13143
319,13142
321,13141
322,13140
323,13140
325,13139
327,13138
329,13138
331,13138
332,13138
334,13138
336,13139
338,13139
339,13139
340,13140
342,13141
344,13142
346,13143
347,13144
348,13144
349,13146
350,13148
351,13149
351,13150
352,13152
353,13154
353,13156
353,13158
353,13159
" style="stroke:#ffffff;stroke-width:7;
stroke-linejoin:bevel; stroke-linecap:butt;
"/>
<!-- Line -->
<!--  spline  -->
<polyline points="152,13164
152,13165
151,13167
151,13168
151,13169
151,13170
150,13171
149,13172
148,13172
147,13173
146,13174
145,13174
145,13175
144,13175
143,13175
142,13175
141,13175
140,13175
138,13175
137,13175
136,13175
136,13174
135,13174
134,13173
133,13172
132,13171
131,13170
130,13169
130,13168
130,13167
130,13166
130,13165
130,13164
130,13163
130,13162
130,13161
131,13160
131,13159
132,13158
133,13157
133,13156
134,13155
135,13154
136,13154
137,13154
138,13154
139,13153
140,13153
141,13153
142,13153
143,13154
144,13154
145,13154
146,13154
147,13155
148,13156
149,13156
149,13157
150,13158
151,13159
151,13160
151,13161
151,13162
152,13163
152,13164
" style="stroke:#036998;stroke-width:0;
stroke-linejoin:bevel; stroke-linecap:butt;
fill:#036998;
"/>
<!-- Line -->
<!--  spline  -->
<polyline points="152,13164
152,13165
151,13167
151,13168
151,13169
151,13170
150,13171
149,13172
148,13172
147,13173
146,13174
145,13174
145,13175
144,13175
143,13175
142,13175
141,13175
140,13175
138,13175
137,13175
136,13175
136,13174
135,13174
134,13173
133,13172
132,13171
131,13170
130,13169
130,13168
130,13167
130,13166
130,13165
130,13164
130,13163
130,13162
130,13161
131,13160
131,13159
132,13158
133,13157
133,13156
134,13155
135,13154
136,13154
137,13154
138,13154
139,13153
140,13153
141,13153
142,13153
143,13154
144,13154
145,13154
146,13154
147,13155
148,13156
149,13156
149,13157
150,13158
151,13159
151,13160
151,13161
151,13162
152,13163
152,13164
" style="stroke:#ffffff;stroke-width:7;
stroke-linejoin:bevel; stroke-linecap:butt;
"/>
<!-- Line -->
<!--  spline  -->
<polyline points="196,13164
196,13165
195,13167
195,13168
195,13169
195,13170
194,13171
193,13172
192,13172
191,13173
190,13174
189,13174
189,13175
188,13175
187,13175
186,13175
185,13175
184,13175
182,13175
181,13175
180,13175
180,13174
179,13174
178,13173
177,13172
176,13171
175,13170
174,13169
174,13168
174,13167
174,13166
174,13165
174,13164
174,13163
174,13162
174,13161
175,13160
175,13159
176,13158
177,13157
177,13156
178,13155
179,13154
180,13154
181,13154
182,13154
183,13153
184,13153
185,13153
186,13153
187,13154
188,13154
189,13154
190,13154
191,13155
192,13156
193,13156
193,13157
194,13158
195,13159
195,13160
195,13161
195,13162
196,13163
196,13164
" style="stroke:#036998;stroke-width:0;
stroke-linejoin:bevel; stroke-linecap:butt;
fill:#036998;
"/>
<!-- Line -->
<!--  spline  -->
<polyline points="196,13164
196,13165
195,13167
195,13168
195,13169
195,13170
194,13171
193,13172
192,13172
191,13173
190,13174
189,13174
189,13175
188,13175
187,13175
186,13175
185,13175
184,13175
182,13175
181,13175
180,13175
180,13174
179,13174
178,13173
177,13172
176,13171
175,13170
174,13169
174,13168
174,13167
174,13166
174,13165
174,13164
174,13163
174,13162
174,13161
175,13160
175,13159
176,13158
177,13157
177,13156
178,13155
179,13154
180,13154
181,13154
182,13154
183,13153
184,13153
185,13153
186,13153
187,13154
188,13154
189,13154
190,13154
191,13155
192,13156
193,13156
193,13157
194,13158
195,13159
195,13160
195,13161
195,13162
196,13163
196,13164
" style="stroke:#ffffff;stroke-width:7;
stroke-linejoin:bevel; stroke-linecap:butt;
"/>
<!-- Line -->
<!--  spline  -->
<polyline points="240,13164
240,13165
239,13167
239,13168
239,13169
238,13169
238,13170
237,13171
236,13172
235,13173
234,13174
233,13174
233,13175
232,13175
231,13175
230,13175
229,13175
228,13175
226,13175
225,13175
224,13175
224,13174
223,13174
222,13173
221,13172
220,13171
219,13170
218,13169
218,13168
218,13167
218,13166
218,13165
218,13164
218,13163
218,13162
218,13161
219,13160
219,13159
220,13158
221,13157
221,13156
222,13155
223,13154
224,13154
225,13154
226,13154
227,13153
228,13153
229,13153
230,13153
231,13154
232,13154
233,13154
234,13154
235,13155
236,13156
236,13157
237,13158
238,13159
238,13160
239,13161
239,13162
240,13163
240,13164
" style="stroke:#036998;stroke-width:0;
stroke-linejoin:bevel; stroke-linecap:butt;
fill:#036998;
"/>
<!-- Line -->
<!--  spline  -->
<polyline points="240,13164
240,13165
239,13167
239,13168
239,13169
238,13169
238,13170
237,13171
236,13172
235,13173
234,13174
233,13174
233,13175
232,13175
231,13175
230,13175
229,13175
228,13175
226,13175
225,13175
224,13175
224,13174
223,13174
222,13173
221,13172
220,13171
219,13170
218,13169
218,13168
218,13167
218,13166
218,13165
218,13164
218,13163
218,13162
218,13161
219,13160
219,13159
220,13158
221,13157
221,13156
222,13155
223,13154
224,13154
225,13154
226,13154
227,13153
228,13153
229,13153
230,13153
231,13154
232,13154
233,13154
234,13154
235,13155
236,13156
236,13157
237,13158
238,13159
238,13160
239,13161
239,13162
240,13163
240,13164
" style="stroke:#ffffff;stroke-width:7;
stroke-linejoin:bevel; stroke-linecap:butt;
"/>
<!-- Line -->
<!--  spline  -->
<polyline points="117,12905
118,12904
123,12899
133,12890
143,12882
148,12877
149,12876
150,12877
156,12879
166,12884
172,12886
173,12887
173,12888
172,12895
172,12905
171,12912
171,12913
171,12914
173,12919
177,12925
179,12930
179,12931
179,12932
176,12939
173,12948
170,12955
170,12956
170,12958
169,12959
169,12961
168,12962
168,12963
167,12964
166,12964
166,12965
165,12965
164,12965
164,12966
163,12966
162,12966
162,12965
161,12965
161,12966
159,12974
155,12987
151,13000
149,13008
149,13009
148,13008
143,13001
134,12989
125,12978
120,12971
119,12970
119,12969
118,12964
117,12958
116,12953
116,12952
116,12951
113,12945
109,12934
106,12923
103,12917
103,12916
" style="stroke:#fbfbfb;stroke-width:0;
stroke-linejoin:bevel; stroke-linecap:butt;
fill:#fbfbfb;
"/>
<!-- Line -->
<!--  spline  -->
<polyline points="131,12897
131,12898
132,12898
132,12899
133,12899
133,12900
133,12901
134,12902
134,12903
134,12905
134,12906
134,12908
134,12909
134,12910
133,12911
133,12913
133,12915
132,12916
132,12918
132,12919
132,12920
131,12921
131,12922
130,12924
130,12925
129,12926
129,12927
129,12928
129,12929
128,12929
128,12930
128,12931
128,12932
127,12932
126,12932
125,12931
124,12930
123,12929
122,12928
123,12929
122,12928
121,12927
121,12926
120,12926
119,12926
118,12926
117,12926
117,12925
116,12925
115,12925
115,12926
114,12926
113,12926
113,12927
112,12927
111,12927
111,12928
110,12928
109,12929
108,12930
109,12932
111,12933
112,12935
112,12936
113,12937
114,12938
115,12940
116,12942
117,12943
117,12944
118,12946
119,12948
119,12949
119,12950
119,12952
119,12954
119,12956
119,12957
119,12958
117,12956
116,12953
114,12951
113,12950
112,12948
111,12947
109,12944
107,12942
107,12941
106,12940
106,12939
104,12937
103,12934
102,12933
101,12932
100,12929
99,12926
97,12924
97,12923
96,12922
96,12920
95,12919
95,12917
95,12916
94,12915
94,12914
94,12912
94,12910
94,12909
95,12909
95,12907
95,12905
95,12904
96,12904
96,12902
97,12900
97,12899
98,12899
98,12898
100,12896
101,12895
103,12893
104,12892
105,12891
106,12890
108,12888
110,12887
110,12886
111,12886
111,12885
113,12884
115,12883
116,12882
117,12882
119,12881
121,12880
123,12880
125,12879
126,12879
129,12878
132,12878
135,12877
136,12877
138,12876
141,12876
144,12875
147,12874
148,12874
149,12874
150,12874
153,12873
156,12873
157,12872
158,12872
159,12872
162,12872
165,12872
168,12872
170,12872
171,12872
168,12873
165,12875
162,12876
161,12877
159,12877
157,12878
154,12880
151,12882
150,12882
150,12883
149,12883
146,12885
144,12887
143,12887
142,12888
141,12888
139,12890
136,12892
134,12893
132,12894
131,12895
130,12895
130,12896
131,12896
131,12897
" style="stroke:#036998;stroke-width:0;
stroke-linejoin:bevel; stroke-linecap:butt;
fill:#036998;
"/>
<!-- Line -->
<!--  spline  -->
<polyline points="183,12899
182,12900
182,12902
181,12903
181,12904
180,12905
180,12906
179,12907
178,12908
178,12909
177,12910
176,12911
176,12912
176,12913
175,12914
174,12915
174,12917
173,12917
173,12918
173,12917
172,12917
172,12916
171,12916
170,12916
169,12916
168,12916
167,12916
166,12916
166,12915
165,12915
165,12914
165,12913
165,12912
166,12912
166,12911
166,12910
167,12910
168,12910
169,12910
170,12910
170,12911
171,12911
172,12909
172,12907
173,12905
173,12904
173,12903
173,12901
172,12899
171,12897
170,12896
169,12895
168,12893
167,12891
166,12890
165,12889
164,12887
163,12885
162,12884
161,12883
161,12882
163,12882
165,12882
167,12882
168,12882
169,12883
170,12883
172,12884
174,12885
175,12885
177,12886
179,12887
180,12887
181,12887
183,12888
185,12889
186,12889
187,12890
188,12890
187,12891
187,12892
186,12892
186,12893
186,12894
185,12894
185,12895
185,12896
184,12896
184,12897
184,12898
183,12898
183,12899
" style="stroke:#036998;stroke-width:0;
stroke-linejoin:bevel; stroke-linecap:butt;
fill:#036998;
"/>
<!-- Line -->
<!--  spline  -->
<polyline points="146,12917
145,12917
144,12917
143,12917
142,12917
142,12916
142,12914
142,12913
142,12912
143,12912
143,12911
144,12911
145,12911
146,12910
147,12910
149,12910
151,12910
152,12910
154,12910
156,12910
157,12909
158,12909
158,12910
157,12912
157,12913
156,12914
155,12915
154,12916
154,12917
153,12917
152,12917
151,12917
150,12917
149,12917
148,12917
147,12917
146,12917
" style="stroke:#036998;stroke-width:0;
stroke-linejoin:bevel; stroke-linecap:butt;
fill:#036998;
"/>
<!-- Line -->
<!--  spline  -->
<polyline points="164,12936
163,12936
162,12936
161,12936
160,12936
159,12936
160,12936
159,12936
158,12936
157,12936
158,12936
158,12935
159,12935
160,12935
160,12934
161,12934
162,12933
163,12932
163,12931
164,12931
163,12931
164,12931
165,12931
165,12930
166,12930
166,12931
166,12932
166,12933
167,12934
167,12935
167,12936
166,12936
165,12936
164,12936
" style="stroke:#036998;stroke-width:0;
stroke-linejoin:bevel; stroke-linecap:butt;
fill:#036998;
"/>
<!-- Line -->
<!--  spline  -->
<polyline points="162,12948
161,12948
160,12948
159,12948
158,12948
157,12948
156,12948
155,12948
154,12948
153,12948
152,12948
151,12948
150,12948
149,12948
150,12947
151,12947
151,12946
152,12946
153,12946
154,12946
155,12946
156,12946
156,12945
157,12945
158,12945
159,12945
160,12945
161,12945
162,12944
163,12944
164,12944
165,12944
166,12945
167,12946
167,12947
168,12947
168,12948
167,12948
166,12948
165,12948
164,12948
163,12948
162,12948
" style="stroke:#036998;stroke-width:0;
stroke-linejoin:bevel; stroke-linecap:butt;
fill:#036998;
"/>
<!-- Line -->
<!--  spline  -->
<polyline points="161,12952
162,12953
162,12954
161,12954
160,12954
160,12955
159,12955
159,12954
158,12954
157,12954
156,12954
156,12953
156,12952
157,12952
158,12952
159,12952
160,12952
161,12952
" style="stroke:#036998;stroke-width:0;
stroke-linejoin:bevel; stroke-linecap:butt;
fill:#036998;
"/>
<!-- Line -->
<!--  spline  -->
<polyline points="231,13047
231,13046
231,13045
231,13044
231,13043
232,13041
232,13040
232,13039
232,13038
232,13037
232,13036
232,13035
232,13034
233,13033
233,13032
233,13031
234,13029
234,13028
234,13027
235,13025
235,13024
235,13023
236,13022
236,13021
236,13020
237,13019
237,13018
237,13017
237,13016
237,13015
237,13014
237,13013
236,13013
236,13012
235,13011
235,13010
234,13009
234,13008
233,13008
232,13007
231,13006
230,13005
229,13005
228,13004
227,13003
226,13003
225,13003
224,13002
223,13001
221,13001
221,13000
220,13000
219,13000
217,12999
213,12997
211,12996
210,12996
209,12995
206,12995
204,12993
200,12992
196,12991
195,12990
194,12990
193,12989
189,12988
186,12987
184,12986
182,12985
179,12984
175,12982
173,12981
171,12980
169,12979
168,12979
167,12980
166,12980
166,12981
167,12988
168,13002
168,13015
169,13022
169,13023
169,13024
166,13032
161,13047
157,13061
154,13069
154,13070
" style="stroke:#036998;stroke-width:0;
stroke-linejoin:bevel; stroke-linecap:butt;
fill:#036998;
"/>
<!-- Line -->
<!--  spline  -->
<polyline points="154,13072
153,13071
148,13063
138,13050
129,13037
124,13029
123,13028
123,13027
120,13019
115,13005
111,12991
108,12983
108,12982
107,12983
106,12983
106,12984
105,12984
104,12984
104,12985
103,12985
102,12985
102,12986
101,12986
100,12986
100,12987
99,12987
96,12989
91,12990
88,12992
87,12992
85,12993
83,12993
79,12995
75,12996
71,12997
70,12998
69,12998
68,12999
64,13000
60,13002
59,13002
58,13002
57,13003
53,13005
49,13007
45,13009
43,13011
41,13012
41,13013
42,13018
42,13025
43,13030
43,13031
44,13033
44,13035
45,13038
47,13041
49,13044
49,13045
50,13045
50,13046
52,13049
54,13052
54,13054
55,13054
55,13055
56,13060
56,13066
56,13071
56,13075
56,13077
56,13078
" style="stroke:#036998;stroke-width:0;
stroke-linejoin:bevel; stroke-linecap:butt;
fill:#036998;
"/>
<!-- Line -->
<!--  spline  -->
<polyline points="151,13077
152,13075
155,13066
160,13050
165,13034
168,13025
169,13023
169,13022
168,13015
167,13001
167,12988
166,12981
166,12980
164,12978
162,12976
160,12974
160,12975
157,12980
154,12987
151,12992
151,12993
150,12992
145,12988
135,12980
125,12972
120,12968
119,12967
119,12968
118,12970
118,12971
117,12972
116,12973
115,12974
114,12975
113,12976
112,12977
111,12978
110,12978
109,12979
108,12979
108,12980
108,12981
111,12989
116,13003
120,13017
123,13025
123,13026
124,13027
129,13035
139,13048
148,13061
153,13069
154,13070
" style="stroke:#9ac3d6;stroke-width:0;
stroke-linejoin:bevel; stroke-linecap:butt;
fill:#9ac3d6;
"/>
<!-- Line -->
<!--  polyline  -->
<polyline points="140,13070
147,13005
143,13000
147,12993
151,12996
153,12993
157,12998
152,13005
160,13062
" style="stroke:#036998;stroke-width:0;
stroke-linejoin:miter; stroke-linecap:butt;
fill:#036998;
"/>
<!-- Line -->
<!--  spline  -->
<polyline points="199,13006
198,13005
197,13004
196,13004
196,13003
195,13003
194,13002
193,13001
192,13001
191,13000
191,12999
190,12998
190,12997
191,12997
192,12997
193,12997
194,12997
195,12997
196,12997
197,12997
197,12996
198,12996
199,12996
199,12995
200,12995
199,12994
198,12994
197,12993
196,12993
196,12992
195,12991
194,12990
194,12989
193,12988
193,12987
192,12987
192,12986
192,12985
192,12984
191,12983
191,12982
191,12981
191,12980
192,12980
193,12979
194,12979
195,12979
195,12980
195,12981
196,12981
196,12982
196,12983
197,12983
198,12984
199,12984
200,12984
200,12983
200,12982
200,12981
200,12980
200,12979
200,12978
200,12977
200,12976
200,12975
199,12975
199,12974
200,12974
200,12975
201,12975
202,12975
203,12975
204,12975
205,12975
206,12975
207,12975
208,12975
208,12974
208,12973
208,12972
208,12971
207,12970
207,12969
206,12968
206,12967
205,12967
205,12966
205,12965
205,12964
204,12964
204,12963
204,12962
204,12961
205,12960
206,12959
207,12959
207,12960
208,12960
209,12960
209,12961
210,12961
211,12961
211,12962
212,12962
212,12961
212,12960
212,12959
212,12958
212,12957
211,12957
211,12956
210,12955
209,12954
209,12953
208,12953
208,12952
208,12951
208,12950
208,12949
208,12948
209,12947
210,12946
211,12946
211,12945
212,12945
213,12945
213,12944
214,12943
214,12942
215,12941
215,12940
215,12939
215,12938
215,12937
215,12936
215,12935
214,12935
214,12934
214,12933
213,12933
213,12932
213,12931
213,12930
214,12929
215,12927
215,12923
216,12921
217,12920
218,12919
219,12917
220,12915
221,12913
221,12912
222,12911
222,12910
223,12908
224,12906
225,12905
225,12904
226,12903
227,12901
228,12898
230,12897
230,12895
231,12894
233,12893
237,12893
239,12892
240,12891
241,12891
243,12890
246,12889
249,12888
250,12888
251,12887
254,12887
257,12887
258,12887
258,12886
260,12886
263,12887
267,12888
271,12890
274,12891
276,12892
275,12892
274,12892
274,12893
274,12894
275,12894
275,12895
276,12895
277,12895
278,12895
279,12895
280,12895
281,12895
282,12896
283,12896
284,12896
285,12896
286,12897
286,12898
286,12899
286,12900
286,12901
286,12902
286,12903
286,12902
285,12902
285,12903
285,12904
284,12904
284,12905
284,12906
284,12907
285,12908
286,12908
287,12909
288,12909
289,12909
289,12910
290,12910
291,12910
291,12911
292,12911
293,12911
293,12912
293,12913
293,12915
293,12916
293,12917
292,12918
292,12919
291,12920
291,12921
291,12922
290,12923
290,12924
289,12925
289,12926
289,12927
289,12928
289,12929
289,12930
289,12931
290,12931
290,12932
291,12932
291,12933
292,12933
293,12934
294,12935
295,12936
296,12936
297,12937
298,12938
299,12939
299,12940
299,12941
299,12942
300,12943
300,12944
300,12945
300,12946
300,12947
300,12948
300,12949
300,12950
300,12951
300,12952
301,12953
302,12954
303,12953
304,12952
304,12951
305,12951
306,12951
306,12950
307,12950
308,12950
308,12949
308,12950
308,12951
308,12952
309,12952
309,12953
309,12954
310,12955
310,12956
310,12957
311,12957
311,12958
311,12959
312,12959
312,12960
312,12959
313,12959
313,12958
314,12957
315,12956
316,12955
317,12954
317,12953
318,12953
317,12953
318,12953
318,12952
319,12951
320,12950
321,12951
321,12952
321,12953
321,12954
321,12953
321,12954
321,12955
321,12956
320,12956
319,12957
319,12958
318,12959
317,12960
316,12960
315,12961
314,12962
313,12963
312,12964
311,12965
310,12965
309,12966
308,12966
307,12967
306,12967
305,12968
305,12969
303,12968
300,12966
298,12965
298,12966
299,12967
300,12968
301,12968
301,12969
301,12970
300,12970
300,12971
301,12972
301,12973
302,12974
303,12975
304,12975
305,12975
306,12975
307,12975
308,12975
309,12975
309,12974
310,12974
311,12974
312,12973
313,12973
313,12974
313,12976
313,12977
312,12977
312,12978
311,12979
310,12980
310,12981
309,12982
308,12983
307,12983
306,12984
306,12985
305,12985
305,12986
305,12987
305,12988
306,12988
307,12988
308,12988
309,12988
310,12988
311,12988
311,12987
312,12987
312,12988
311,12989
311,12990
310,12991
309,12992
309,12993
308,12993
309,12993
308,12993
308,12994
307,12995
306,12996
305,12997
304,12998
" style="stroke:#036998;stroke-width:0;
stroke-linejoin:bevel; stroke-linecap:butt;
fill:#036998;
"/>
<!-- Line -->
<!--  spline  -->
<polyline points="156,13077
156,13076
157,13073
157,13069
158,13066
158,13065
158,13064
158,13061
158,13059
158,13055
158,13051
158,13050
159,13049
159,13048
159,13044
159,13040
159,13039
159,13038
159,13037
159,13033
159,13029
160,13025
160,13023
160,13021
162,13020
165,13018
167,13017
168,13017
170,13016
172,13015
175,13014
178,13013
179,13012
180,13011
183,13010
186,13009
187,13009
188,13009
191,13008
194,13007
196,13006
198,13006
199,13005
201,13005
211,13002
229,12998
247,12995
257,12992
259,12992
260,12992
268,12993
282,12995
295,12996
303,12997
304,12997
306,12998
308,12998
310,12999
311,12999
312,12999
313,13000
315,13000
317,13000
318,13000
319,13000
321,13000
323,13000
324,13000
325,13001
327,13001
329,13002
330,13002
331,13003
332,13003
332,13004
333,13007
333,13012
334,13015
334,13016
334,13018
333,13021
332,13025
331,13030
330,13035
329,13037
328,13039
327,13044
326,13049
325,13051
324,13053
324,13058
324,13063
325,13066
325,13069
326,13071
324,13073
322,13075
320,13077
" style="stroke:#036998;stroke-width:0;
stroke-linejoin:bevel; stroke-linecap:butt;
fill:#036998;
"/>
<!-- Line -->
<!--  spline  -->
<polyline points="280,13020
279,13020
278,13020
278,13019
278,13020
277,13019
277,13018
277,13017
277,13016
278,13016
278,13015
279,13015
280,13015
281,13015
281,13016
281,13017
282,13017
282,13018
282,13016
283,13015
283,13013
283,13012
283,13010
283,13009
283,13008
283,13007
283,13006
283,13005
283,13004
283,13003
282,13003
282,13002
282,13001
282,13000
282,12998
282,12997
281,12996
280,12996
280,12995
279,12995
278,12995
278,12994
277,12994
276,12994
277,12994
276,12994
275,12994
275,12993
274,12993
274,12992
273,12990
273,12989
273,12988
272,12988
271,12987
271,12985
271,12983
271,12982
271,12980
271,12979
271,12978
272,12977
272,12976
273,12975
274,12975
276,12974
277,12974
279,12973
280,12972
280,12971
281,12969
282,12967
283,12965
283,12964
283,12963
284,12960
285,12957
285,12956
285,12955
285,12954
286,12951
287,12948
287,12946
288,12945
288,12944
288,12943
288,12942
288,12941
288,12940
288,12939
288,12938
287,12938
287,12937
287,12936
286,12936
286,12935
285,12934
285,12933
284,12933
284,12932
284,12933
283,12933
283,12934
283,12935
282,12936
281,12936
280,12936
279,12936
280,12937
279,12937
278,12937
277,12937
276,12937
276,12936
275,12935
275,12934
275,12933
275,12932
275,12931
276,12931
277,12931
277,12930
278,12930
279,12930
279,12929
280,12929
281,12929
282,12929
283,12929
284,12929
284,12928
285,12928
285,12927
286,12926
286,12925
286,12924
285,12923
285,12922
285,12921
284,12920
284,12919
284,12918
283,12917
282,12916
281,12915
280,12914
279,12915
278,12916
278,12917
277,12917
276,12917
275,12917
274,12917
274,12916
275,12916
275,12915
275,12914
275,12913
275,12912
275,12913
275,12912
275,12911
274,12910
273,12910
273,12911
272,12912
271,12913
271,12914
270,12914
270,12915
269,12916
269,12917
268,12918
267,12919
266,12920
265,12920
264,12921
263,12921
263,12920
263,12919
263,12918
263,12917
263,12916
263,12917
263,12916
263,12915
262,12915
262,12914
262,12913
261,12913
261,12914
260,12914
260,12915
259,12915
259,12916
258,12916
258,12917
257,12917
258,12917
257,12917
257,12918
256,12918
256,12919
255,12919
254,12919
253,12919
252,12918
251,12918
251,12917
251,12916
251,12915
251,12914
250,12914
249,12914
249,12915
249,12916
248,12916
248,12917
248,12918
248,12919
248,12920
248,12921
249,12921
249,12922
249,12923
250,12923
250,12924
250,12925
250,12926
250,12927
250,12929
249,12931
249,12933
249,12934
249,12935
248,12936
248,12938
247,12940
247,12941
246,12943
246,12945
245,12945
246,12946
245,12946
245,12948
244,12950
244,12951
243,12952
243,12953
242,12954
242,12955
242,12956
242,12957
242,12958
243,12958
243,12959
244,12960
244,12961
245,12961
246,12961
247,12961
248,12961
248,12962
248,12963
247,12963
246,12963
245,12963
244,12963
245,12963
245,12964
244,12964
243,12964
243,12965
242,12965
242,12966
242,12967
242,12968
243,12968
243,12969
244,12969
244,12970
245,12970
246,12970
246,12971
247,12971
248,12971
249,12971
250,12971
251,12971
251,12972
250,12972
250,12973
250,12974
249,12974
248,12975
247,12975
247,12976
246,12976
245,12976
244,12976
243,12976
242,12976
241,12976
240,12975
239,12974
239,12975
239,12977
239,12978
239,12979
240,12980
240,12981
241,12982
241,12983
242,12984
243,12985
244,12986
245,12986
246,12987
247,12987
246,12988
245,12989
244,12989
243,12989
242,12989
241,12989
240,12989
239,12989
238,12989
238,12990
237,12991
237,12992
237,12993
237,12994
237,12995
237,12996
237,12997
238,12997
238,12998
238,12999
238,13000
237,13000
237,13001
237,13000
236,13000
235,13000
235,13001
234,13002
234,13003
234,13004
234,13005
234,13006
234,13007
234,13008
235,13008
235,13009
235,13010
236,13010
236,13011
236,13012
236,13013
236,13014
236,13015
237,13014
238,13014
239,13014
240,13014
240,13015
240,13016
240,13017
240,13018
240,13017
239,13017
239,13018
238,13018
237,13018
236,13019
237,13019
237,13020
238,13020
238,13021
238,13022
237,13022
239,13023
241,13024
243,13025
244,13026
245,13026
247,13027
249,13028
251,13029
252,13029
253,13029
255,13029
257,13029
258,13030
259,13030
261,13030
263,13030
265,13030
267,13030
268,13030
269,13029
270,13029
271,13029
272,13029
272,13028
273,13028
274,13028
274,13027
275,13027
276,13026
277,13026
277,13025
276,13025
275,13025
274,13025
274,13024
273,13024
272,13024
271,13024
270,13024
270,13023
270,13022
271,13021
272,13020
272,13019
273,13019
274,13019
275,13019
275,13020
276,13020
276,13021
276,13022
276,13023
276,13024
276,13025
277,13025
278,13025
278,13024
279,13024
280,13024
280,13023
281,13023
282,13023
282,13022
283,13022
283,13021
283,13020
284,13020
284,13019
283,13018
282,13018
281,13018
281,13019
281,13020
280,13020
" style="stroke:#ffffff;stroke-width:0;
stroke-linejoin:bevel; stroke-linecap:butt;
fill:#ffffff;
"/>
<!-- Line -->
<!--  spline  -->
<polyline points="268,12936
267,12936
267,12937
266,12938
265,12938
264,12937
263,12937
262,12937
261,12937
260,12937
260,12936
259,12936
258,12936
258,12935
257,12935
256,12934
255,12933
256,12933
257,12932
258,12932
259,12932
260,12931
261,12931
262,12931
263,12931
264,12931
265,12931
266,12931
267,12931
268,12931
269,12932
270,12932
271,12933
271,12934
270,12934
269,12934
268,12934
268,12935
268,12936
" style="stroke:#036998;stroke-width:0;
stroke-linejoin:bevel; stroke-linecap:butt;
fill:#036998;
"/>
<!-- Line -->
<!--  spline  -->
<polyline points="281,12950
280,12951
279,12951
278,12951
277,12951
276,12951
275,12951
274,12951
273,12951
273,12950
274,12950
274,12949
274,12948
275,12948
276,12948
276,12947
277,12947
278,12947
278,12946
277,12946
278,12946
279,12946
280,12946
280,12947
280,12948
280,12949
281,12949
281,12950
" style="stroke:#036998;stroke-width:0;
stroke-linejoin:bevel; stroke-linecap:butt;
fill:#036998;
"/>
<!-- Line -->
<!--  spline  -->
<polyline points="277,12959
276,12959
276,12960
275,12960
274,12960
273,12960
272,12960
271,12960
270,12960
269,12960
268,12960
267,12960
268,12959
270,12959
271,12958
272,12958
273,12958
274,12958
275,12958
275,12957
276,12957
277,12957
278,12957
279,12957
280,12957
281,12957
282,12957
283,12957
284,12957
283,12957
283,12958
283,12959
282,12959
281,12959
280,12959
279,12959
278,12959
277,12959
" style="stroke:#000000;stroke-width:0;
stroke-linejoin:bevel; stroke-linecap:butt;
fill:#000000;
"/>
<!-- Line -->
<!--  spline  -->
<polyline points="268,13027
267,13027
267,13028
266,13028
265,13027
264,13026
263,13026
263,13025
263,13024
263,13023
263,13022
264,13022
265,13022
265,13021
266,13021
267,13021
267,13022
268,13022
268,13023
269,13023
269,13024
269,13025
269,13026
269,13027
268,13027
" style="stroke:#000000;stroke-width:0;
stroke-linejoin:bevel; stroke-linecap:butt;
fill:#000000;
"/>
<!-- Line -->
<!--  spline  -->
<polyline points="259,13026
258,13026
257,13026
257,13025
256,13025
256,13024
256,13023
256,13022
257,13022
258,13021
259,13021
260,13021
260,13022
261,13022
261,13023
261,13024
261,13025
261,13026
260,13026
259,13026
" style="stroke:#000000;stroke-width:0;
stroke-linejoin:bevel; stroke-linecap:butt;
fill:#000000;
"/>
<!-- Line -->
<!--  spline  -->
<polyline points="251,13024
250,13024
249,13024
248,13023
248,13022
248,13021
248,13020
249,13020
250,13020
251,13020
252,13020
253,13020
253,13021
253,13022
253,13023
253,13024
252,13024
251,13024
" style="stroke:#000000;stroke-width:0;
stroke-linejoin:bevel; stroke-linecap:butt;
fill:#000000;
"/>
<!-- Line -->
<!--  spline  -->
<polyline points="245,13020
245,13021
244,13021
243,13021
243,13020
243,13019
242,13019
242,13018
242,13017
243,13017
244,13017
244,13016
245,13016
246,13016
246,13017
246,13018
246,13019
246,13020
245,13020
" style="stroke:#000000;stroke-width:0;
stroke-linejoin:bevel; stroke-linecap:butt;
fill:#000000;
"/>
<!-- Line -->
<!--  spline  -->
<polyline points="277,12963
276,12963
275,12963
274,12963
273,12963
272,12963
272,12962
273,12962
274,12962
275,12962
276,12962
277,12962
277,12961
278,12961
279,12961
278,12961
279,12961
280,12961
281,12961
281,12962
280,12962
279,12963
278,12963
277,12963
" style="stroke:#036998;stroke-width:0;
stroke-linejoin:bevel; stroke-linecap:butt;
fill:#036998;
"/>
<!-- Line -->
<!--  polyline  -->
<polyline points="320,13078
60,13078
60,13064
320,13064
320,13078
" style="stroke:#036998;stroke-width:0;
stroke-linejoin:miter; stroke-linecap:butt;
fill:#036998;
"/>
</g>
</svg>
