<?xml version="1.0" standalone="no"?>
<!DOCTYPE svg PUBLIC "-//W3C//DTD SVG 1.1//EN"
"http://www.w3.org/Graphics/SVG/1.1/DTD/svg11.dtd">
<!-- Creator: fig2dev Version 3.2 Patchlevel 5c -->
<!-- CreationDate: Fri Sep 14 10:46:55 2012 -->
<!-- Magnification: 1.000 -->
<svg xmlns="http://www.w3.org/2000/svg" width="0.9in" height="0.4in" viewBox="-7 12771 1062 438">
<g style="stroke-width:.025in; fill:none">
<!-- Line -->
<!--  polyline  -->
<polyline points="1015,13171
1015,12853
31,12853
31,13171
1015,13171
" style="stroke:#036998;stroke-width:0;
stroke-linejoin:miter; stroke-linecap:butt;
fill:#036998;
"/>
<!-- Line -->
<!--  polyline  -->
<polyline points="1015,13171
1015,12853
31,12853
31,13171
1015,13171
" style="stroke:#ffffff;stroke-width:7;
stroke-linejoin:miter; stroke-linecap:butt;
"/>
<!-- Line -->
<!--  polyline  -->
<polyline points="1017,12816
1017,12783
31,12783
31,12816
1017,12816
" style="stroke:#036998;stroke-width:0;
stroke-linejoin:miter; stroke-linecap:butt;
fill:#036998;
"/>
<!-- Line -->
<!--  polyline  -->
<polyline points="1017,12816
1017,12783
31,12783
31,12816
1017,12816
" style="stroke:#ffffff;stroke-width:7;
stroke-linejoin:miter; stroke-linecap:butt;
"/>
<!-- Line -->
<!--  polyline  -->
<polyline points="95,12939
95,12878
66,12878
66,12939
95,12939
" style="stroke:#036998;stroke-width:0;
stroke-linejoin:miter; stroke-linecap:butt;
fill:#036998;
"/>
<!-- Line -->
<!--  polyline  -->
<polyline points="95,12939
95,12878
66,12878
66,12939
95,12939
" style="stroke:#ffffff;stroke-width:7;
stroke-linejoin:miter; stroke-linecap:butt;
"/>
<!-- Line -->
<!--  polyline  -->
<polyline points="95,13029
95,12968
66,12968
66,13029
95,13029
" style="stroke:#036998;stroke-width:0;
stroke-linejoin:miter; stroke-linecap:butt;
fill:#036998;
"/>
<!-- Line -->
<!--  polyline  -->
<polyline points="95,13029
95,12968
66,12968
66,13029
95,13029
" style="stroke:#ffffff;stroke-width:7;
stroke-linejoin:miter; stroke-linecap:butt;
"/>
<!-- Line -->
<!--  polyline  -->
<polyline points="95,13119
95,13057
66,13057
66,13119
95,13119
" style="stroke:#036998;stroke-width:0;
stroke-linejoin:miter; stroke-linecap:butt;
fill:#036998;
"/>
<!-- Line -->
<!--  polyline  -->
<polyline points="95,13119
95,13057
66,13057
66,13119
95,13119
" style="stroke:#ffffff;stroke-width:7;
stroke-linejoin:miter; stroke-linecap:butt;
"/>
<!-- Line -->
<!--  polyline  -->
<polyline points="525,13128
525,12967
414,12967
414,13128
525,13128
" style="stroke:#036998;stroke-width:0;
stroke-linejoin:miter; stroke-linecap:butt;
fill:#036998;
"/>
<!-- Line -->
<!--  polyline  -->
<polyline points="525,13128
525,12967
414,12967
414,13128
525,13128
" style="stroke:#ffffff;stroke-width:7;
stroke-linejoin:miter; stroke-linecap:butt;
"/>
<!-- Line -->
<!--  polyline  -->
<polyline points="525,13128
525,12967
636,12967
636,13128
525,13128
" style="stroke:#036998;stroke-width:0;
stroke-linejoin:miter; stroke-linecap:butt;
fill:#036998;
"/>
<!-- Line -->
<!--  polyline  -->
<polyline points="525,13128
525,12967
636,12967
636,13128
525,13128
" style="stroke:#ffffff;stroke-width:7;
stroke-linejoin:miter; stroke-linecap:butt;
"/>
<!-- Line -->
<!--  polyline  -->
<polyline points="1025,12816
1043,12853
5,12853
23,12816
1025,12816
" style="stroke:#036998;stroke-width:0;
stroke-linejoin:miter; stroke-linecap:butt;
fill:#036998;
"/>
<!-- Line -->
<!--  polyline  -->
<polyline points="1025,12816
1043,12853
5,12853
23,12816
1025,12816
" style="stroke:#ffffff;stroke-width:7;
stroke-linejoin:miter; stroke-linecap:butt;
"/>
<!-- Line -->
<!--  polyline  -->
<polyline points="664,13145
664,13119
386,13119
386,13145
664,13145
" style="stroke:#036998;stroke-width:0;
stroke-linejoin:miter; stroke-linecap:butt;
fill:#036998;
"/>
<!-- Line -->
<!--  polyline  -->
<polyline points="664,13145
664,13119
386,13119
386,13145
664,13145
" style="stroke:#ffffff;stroke-width:7;
stroke-linejoin:miter; stroke-linecap:butt;
"/>
<!-- Line -->
<!--  polyline  -->
<polyline points="679,13171
679,13145
372,13145
372,13171
679,13171
" style="stroke:#036998;stroke-width:0;
stroke-linejoin:miter; stroke-linecap:butt;
fill:#036998;
"/>
<!-- Line -->
<!--  polyline  -->
<polyline points="679,13171
679,13145
372,13145
372,13171
679,13171
" style="stroke:#ffffff;stroke-width:7;
stroke-linejoin:miter; stroke-linecap:butt;
"/>
<!-- Line -->
<!--  polyline  -->
<polyline points="187,12939
187,12878
158,12878
158,12939
187,12939
" style="stroke:#036998;stroke-width:0;
stroke-linejoin:miter; stroke-linecap:butt;
fill:#036998;
"/>
<!-- Line -->
<!--  polyline  -->
<polyline points="187,12939
187,12878
158,12878
158,12939
187,12939
" style="stroke:#ffffff;stroke-width:7;
stroke-linejoin:miter; stroke-linecap:butt;
"/>
<!-- Line -->
<!--  polyline  -->
<polyline points="187,13029
187,12968
158,12968
158,13029
187,13029
" style="stroke:#036998;stroke-width:0;
stroke-linejoin:miter; stroke-linecap:butt;
fill:#036998;
"/>
<!-- Line -->
<!--  polyline  -->
<polyline points="187,13029
187,12968
158,12968
158,13029
187,13029
" style="stroke:#ffffff;stroke-width:7;
stroke-linejoin:miter; stroke-linecap:butt;
"/>
<!-- Line -->
<!--  polyline  -->
<polyline points="187,13119
187,13057
158,13057
158,13119
187,13119
" style="stroke:#036998;stroke-width:0;
stroke-linejoin:miter; stroke-linecap:butt;
fill:#036998;
"/>
<!-- Line -->
<!--  polyline  -->
<polyline points="187,13119
187,13057
158,13057
158,13119
187,13119
" style="stroke:#ffffff;stroke-width:7;
stroke-linejoin:miter; stroke-linecap:butt;
"/>
<!-- Line -->
<!--  polyline  -->
<polyline points="278,12939
278,12878
250,12878
250,12939
278,12939
" style="stroke:#036998;stroke-width:0;
stroke-linejoin:miter; stroke-linecap:butt;
fill:#036998;
"/>
<!-- Line -->
<!--  polyline  -->
<polyline points="278,12939
278,12878
250,12878
250,12939
278,12939
" style="stroke:#ffffff;stroke-width:7;
stroke-linejoin:miter; stroke-linecap:butt;
"/>
<!-- Line -->
<!--  polyline  -->
<polyline points="278,13029
278,12968
250,12968
250,13029
278,13029
" style="stroke:#036998;stroke-width:0;
stroke-linejoin:miter; stroke-linecap:butt;
fill:#036998;
"/>
<!-- Line -->
<!--  polyline  -->
<polyline points="278,13029
278,12968
250,12968
250,13029
278,13029
" style="stroke:#ffffff;stroke-width:7;
stroke-linejoin:miter; stroke-linecap:butt;
"/>
<!-- Line -->
<!--  polyline  -->
<polyline points="278,13119
278,13057
250,13057
250,13119
278,13119
" style="stroke:#036998;stroke-width:0;
stroke-linejoin:miter; stroke-linecap:butt;
fill:#036998;
"/>
<!-- Line -->
<!--  polyline  -->
<polyline points="278,13119
278,13057
250,13057
250,13119
278,13119
" style="stroke:#ffffff;stroke-width:7;
stroke-linejoin:miter; stroke-linecap:butt;
"/>
<!-- Line -->
<!--  polyline  -->
<polyline points="370,12939
370,12878
342,12878
342,12939
370,12939
" style="stroke:#036998;stroke-width:0;
stroke-linejoin:miter; stroke-linecap:butt;
fill:#036998;
"/>
<!-- Line -->
<!--  polyline  -->
<polyline points="370,12939
370,12878
342,12878
342,12939
370,12939
" style="stroke:#ffffff;stroke-width:7;
stroke-linejoin:miter; stroke-linecap:butt;
"/>
<!-- Line -->
<!--  polyline  -->
<polyline points="370,13029
370,12968
342,12968
342,13029
370,13029
" style="stroke:#036998;stroke-width:0;
stroke-linejoin:miter; stroke-linecap:butt;
fill:#036998;
"/>
<!-- Line -->
<!--  polyline  -->
<polyline points="370,13029
370,12968
342,12968
342,13029
370,13029
" style="stroke:#ffffff;stroke-width:7;
stroke-linejoin:miter; stroke-linecap:butt;
"/>
<!-- Line -->
<!--  polyline  -->
<polyline points="370,13119
370,13057
342,13057
342,13119
370,13119
" style="stroke:#036998;stroke-width:0;
stroke-linejoin:miter; stroke-linecap:butt;
fill:#036998;
"/>
<!-- Line -->
<!--  polyline  -->
<polyline points="370,13119
370,13057
342,13057
342,13119
370,13119
" style="stroke:#ffffff;stroke-width:7;
stroke-linejoin:miter; stroke-linecap:butt;
"/>
<!-- Line -->
<!--  polyline  -->
<polyline points="955,12939
955,12878
984,12878
984,12939
955,12939
" style="stroke:#036998;stroke-width:0;
stroke-linejoin:miter; stroke-linecap:butt;
fill:#036998;
"/>
<!-- Line -->
<!--  polyline  -->
<polyline points="955,12939
955,12878
984,12878
984,12939
955,12939
" style="stroke:#ffffff;stroke-width:7;
stroke-linejoin:miter; stroke-linecap:butt;
"/>
<!-- Line -->
<!--  polyline  -->
<polyline points="955,13029
955,12968
984,12968
984,13029
955,13029
" style="stroke:#036998;stroke-width:0;
stroke-linejoin:miter; stroke-linecap:butt;
fill:#036998;
"/>
<!-- Line -->
<!--  polyline  -->
<polyline points="955,13029
955,12968
984,12968
984,13029
955,13029
" style="stroke:#ffffff;stroke-width:7;
stroke-linejoin:miter; stroke-linecap:butt;
"/>
<!-- Line -->
<!--  polyline  -->
<polyline points="955,13119
955,13057
984,13057
984,13119
955,13119
" style="stroke:#036998;stroke-width:0;
stroke-linejoin:miter; stroke-linecap:butt;
fill:#036998;
"/>
<!-- Line -->
<!--  polyline  -->
<polyline points="955,13119
955,13057
984,13057
984,13119
955,13119
" style="stroke:#ffffff;stroke-width:7;
stroke-linejoin:miter; stroke-linecap:butt;
"/>
<!-- Line -->
<!--  polyline  -->
<polyline points="864,12939
864,12878
892,12878
892,12939
864,12939
" style="stroke:#036998;stroke-width:0;
stroke-linejoin:miter; stroke-linecap:butt;
fill:#036998;
"/>
<!-- Line -->
<!--  polyline  -->
<polyline points="864,12939
864,12878
892,12878
892,12939
864,12939
" style="stroke:#ffffff;stroke-width:7;
stroke-linejoin:miter; stroke-linecap:butt;
"/>
<!-- Line -->
<!--  polyline  -->
<polyline points="864,13029
864,12968
892,12968
892,13029
864,13029
" style="stroke:#036998;stroke-width:0;
stroke-linejoin:miter; stroke-linecap:butt;
fill:#036998;
"/>
<!-- Line -->
<!--  polyline  -->
<polyline points="864,13029
864,12968
892,12968
892,13029
864,13029
" style="stroke:#ffffff;stroke-width:7;
stroke-linejoin:miter; stroke-linecap:butt;
"/>
<!-- Line -->
<!--  polyline  -->
<polyline points="864,13119
864,13057
892,13057
892,13119
864,13119
" style="stroke:#036998;stroke-width:0;
stroke-linejoin:miter; stroke-linecap:butt;
fill:#036998;
"/>
<!-- Line -->
<!--  polyline  -->
<polyline points="864,13119
864,13057
892,13057
892,13119
864,13119
" style="stroke:#ffffff;stroke-width:7;
stroke-linejoin:miter; stroke-linecap:butt;
"/>
<!-- Line -->
<!--  polyline  -->
<polyline points="772,12939
772,12878
800,12878
800,12939
772,12939
" style="stroke:#036998;stroke-width:0;
stroke-linejoin:miter; stroke-linecap:butt;
fill:#036998;
"/>
<!-- Line -->
<!--  polyline  -->
<polyline points="772,12939
772,12878
800,12878
800,12939
772,12939
" style="stroke:#ffffff;stroke-width:7;
stroke-linejoin:miter; stroke-linecap:butt;
"/>
<!-- Line -->
<!--  polyline  -->
<polyline points="772,13029
772,12968
800,12968
800,13029
772,13029
" style="stroke:#036998;stroke-width:0;
stroke-linejoin:miter; stroke-linecap:butt;
fill:#036998;
"/>
<!-- Line -->
<!--  polyline  -->
<polyline points="772,13029
772,12968
800,12968
800,13029
772,13029
" style="stroke:#ffffff;stroke-width:7;
stroke-linejoin:miter; stroke-linecap:butt;
"/>
<!-- Line -->
<!--  polyline  -->
<polyline points="772,13119
772,13057
800,13057
800,13119
772,13119
" style="stroke:#036998;stroke-width:0;
stroke-linejoin:miter; stroke-linecap:butt;
fill:#036998;
"/>
<!-- Line -->
<!--  polyline  -->
<polyline points="772,13119
772,13057
800,13057
800,13119
772,13119
" style="stroke:#ffffff;stroke-width:7;
stroke-linejoin:miter; stroke-linecap:butt;
"/>
<!-- Line -->
<!--  polyline  -->
<polyline points="680,12939
680,12878
709,12878
709,12939
680,12939
" style="stroke:#036998;stroke-width:0;
stroke-linejoin:miter; stroke-linecap:butt;
fill:#036998;
"/>
<!-- Line -->
<!--  polyline  -->
<polyline points="680,12939
680,12878
709,12878
709,12939
680,12939
" style="stroke:#ffffff;stroke-width:7;
stroke-linejoin:miter; stroke-linecap:butt;
"/>
<!-- Line -->
<!--  polyline  -->
<polyline points="680,13029
680,12968
709,12968
709,13029
680,13029
" style="stroke:#036998;stroke-width:0;
stroke-linejoin:miter; stroke-linecap:butt;
fill:#036998;
"/>
<!-- Line -->
<!--  polyline  -->
<polyline points="680,13029
680,12968
709,12968
709,13029
680,13029
" style="stroke:#ffffff;stroke-width:7;
stroke-linejoin:miter; stroke-linecap:butt;
"/>
<!-- Line -->
<!--  polyline  -->
<polyline points="680,13119
680,13057
709,13057
709,13119
680,13119
" style="stroke:#036998;stroke-width:0;
stroke-linejoin:miter; stroke-linecap:butt;
fill:#036998;
"/>
<!-- Line -->
<!--  polyline  -->
<polyline points="680,13119
680,13057
709,13057
709,13119
680,13119
" style="stroke:#ffffff;stroke-width:7;
stroke-linejoin:miter; stroke-linecap:butt;
"/>
<!-- Line -->
<!--  polyline  -->
<polyline points="595,12939
595,12878
623,12878
623,12939
595,12939
" style="stroke:#036998;stroke-width:0;
stroke-linejoin:miter; stroke-linecap:butt;
fill:#036998;
"/>
<!-- Line -->
<!--  polyline  -->
<polyline points="595,12939
595,12878
623,12878
623,12939
595,12939
" style="stroke:#ffffff;stroke-width:7;
stroke-linejoin:miter; stroke-linecap:butt;
"/>
<!-- Line -->
<!--  polyline  -->
<polyline points="512,12939
512,12878
540,12878
540,12939
512,12939
" style="stroke:#036998;stroke-width:0;
stroke-linejoin:miter; stroke-linecap:butt;
fill:#036998;
"/>
<!-- Line -->
<!--  polyline  -->
<polyline points="512,12939
512,12878
540,12878
540,12939
512,12939
" style="stroke:#ffffff;stroke-width:7;
stroke-linejoin:miter; stroke-linecap:butt;
"/>
<!-- Line -->
<!--  polyline  -->
<polyline points="429,12939
429,12878
457,12878
457,12939
429,12939
" style="stroke:#036998;stroke-width:0;
stroke-linejoin:miter; stroke-linecap:butt;
fill:#036998;
"/>
<!-- Line -->
<!--  polyline  -->
<polyline points="429,12939
429,12878
457,12878
457,12939
429,12939
" style="stroke:#ffffff;stroke-width:7;
stroke-linejoin:miter; stroke-linecap:butt;
"/>
<!-- Line -->
<!--  polyline  -->
<polyline points="458,13036
458,12986
433,12986
433,13036
458,13036
" style="stroke:#036998;stroke-width:0;
stroke-linejoin:miter; stroke-linecap:butt;
fill:#036998;
"/>
<!-- Line -->
<!--  polyline  -->
<polyline points="458,13036
458,12986
433,12986
433,13036
458,13036
" style="stroke:#ffffff;stroke-width:7;
stroke-linejoin:miter; stroke-linecap:butt;
"/>
<!-- Line -->
<!--  polyline  -->
<polyline points="502,13036
502,12986
477,12986
477,13036
502,13036
" style="stroke:#036998;stroke-width:0;
stroke-linejoin:miter; stroke-linecap:butt;
fill:#036998;
"/>
<!-- Line -->
<!--  polyline  -->
<polyline points="502,13036
502,12986
477,12986
477,13036
502,13036
" style="stroke:#ffffff;stroke-width:7;
stroke-linejoin:miter; stroke-linecap:butt;
"/>
<!-- Line -->
<!--  polyline  -->
<polyline points="592,13036
592,12986
617,12986
617,13036
592,13036
" style="stroke:#036998;stroke-width:0;
stroke-linejoin:miter; stroke-linecap:butt;
fill:#036998;
"/>
<!-- Line -->
<!--  polyline  -->
<polyline points="592,13036
592,12986
617,12986
617,13036
592,13036
" style="stroke:#ffffff;stroke-width:7;
stroke-linejoin:miter; stroke-linecap:butt;
"/>
<!-- Line -->
<!--  polyline  -->
<polyline points="548,13036
548,12986
573,12986
573,13036
548,13036
" style="stroke:#036998;stroke-width:0;
stroke-linejoin:miter; stroke-linecap:butt;
fill:#036998;
"/>
<!-- Line -->
<!--  polyline  -->
<polyline points="548,13036
548,12986
573,12986
573,13036
548,13036
" style="stroke:#ffffff;stroke-width:7;
stroke-linejoin:miter; stroke-linecap:butt;
"/>
<!-- Line -->
<!--  polyline  -->
<polyline points="692,13197
692,13171
358,13171
358,13197
692,13197
" style="stroke:#036998;stroke-width:0;
stroke-linejoin:miter; stroke-linecap:butt;
fill:#036998;
"/>
<!-- Line -->
<!--  polyline  -->
<polyline points="692,13197
692,13171
358,13171
358,13197
692,13197
" style="stroke:#ffffff;stroke-width:7;
stroke-linejoin:miter; stroke-linecap:butt;
"/>
</g>
</svg>
