<?xml version="1.0" standalone="no"?>
<!DOCTYPE svg PUBLIC "-//W3C//DTD SVG 1.1//EN"
"http://www.w3.org/Graphics/SVG/1.1/DTD/svg11.dtd">
<!-- Creator: fig2dev Version 3.2 Patchlevel 5c -->
<!-- CreationDate: Fri Sep 14 10:46:55 2012 -->
<!-- Magnification: 1.000 -->
<svg xmlns="http://www.w3.org/2000/svg" width="0.6in" height="0.6in" viewBox="4738 6252 742 709">
<g style="stroke-width:.025in; fill:none">
<!-- Line -->
<!--  polyline  -->
<polyline points="5392,6734
5450,6417
5006,6417
4941,6734
5392,6734
" style="stroke:#00acd8;stroke-width:0;
stroke-linejoin:miter; stroke-linecap:butt;
fill:#00acd8;
"/>
<!-- Line -->
<!--  polyline  -->
<polyline points="5392,6734
5450,6417
5006,6417
4941,6734
5392,6734
" style="stroke:#ffffff;stroke-width:7;
stroke-linejoin:miter; stroke-linecap:butt;
"/>
<!-- Line -->
<!--  polyline  -->
<polyline points="5450,6417
5468,6440
5413,6747
5392,6734
5450,6417
" style="stroke:#00acd8;stroke-width:0;
stroke-linejoin:miter; stroke-linecap:butt;
fill:#00acd8;
"/>
<!-- Line -->
<!--  polyline  -->
<polyline points="5450,6417
5468,6440
5413,6747
5392,6734
5450,6417
" style="stroke:#ffffff;stroke-width:7;
stroke-linejoin:miter; stroke-linecap:butt;
"/>
<!-- Line -->
<!--  polyline  -->
<polyline points="4941,6734
4960,6747
5413,6747
5392,6734
4941,6734
" style="stroke:#00acd8;stroke-width:0;
stroke-linejoin:miter; stroke-linecap:butt;
fill:#00acd8;
"/>
<!-- Line -->
<!--  polyline  -->
<polyline points="4941,6734
4960,6747
5413,6747
5392,6734
4941,6734
" style="stroke:#ffffff;stroke-width:7;
stroke-linejoin:miter; stroke-linecap:butt;
"/>
<!-- Line -->
<!--  spline  -->
<polyline points="5396,6755
5396,6756
5396,6764
5396,6778
5396,6791
5396,6799
5396,6800
5395,6801
5392,6803
5388,6807
5385,6809
5384,6810
5383,6810
5383,6811
5382,6811
5381,6811
5379,6812
5378,6813
5375,6814
5373,6815
5372,6816
5371,6816
5370,6817
5368,6819
5366,6821
5365,6822
5364,6823
5363,6826
5362,6829
5362,6831
5363,6834
5363,6835
5362,6835
5359,6838
5352,6846
5339,6857
5322,6873
5301,6892
5281,6911
5264,6927
5251,6938
5244,6946
5241,6949
5240,6949
5240,6947
5240,6939
5240,6924
5240,6909
5240,6901
5240,6899
5243,6896
5249,6890
5261,6880
5276,6865
5296,6847
5318,6827
5340,6807
5360,6789
5375,6774
5387,6764
5393,6758
5396,6755
" style="stroke:#00acd8;stroke-width:0;
stroke-linejoin:bevel; stroke-linecap:butt;
fill:#00acd8;
"/>
<!-- Line -->
<!--  spline  -->
<polyline points="5396,6755
5396,6756
5396,6764
5396,6778
5396,6791
5396,6799
5396,6800
5395,6801
5392,6803
5388,6807
5385,6809
5384,6810
5383,6810
5383,6811
5382,6811
5381,6811
5379,6812
5378,6813
5375,6814
5373,6815
5372,6816
5371,6816
5370,6817
5368,6819
5366,6821
5365,6822
5364,6823
5363,6826
5362,6829
5362,6831
5363,6834
5363,6835
5362,6835
5359,6838
5352,6846
5339,6857
5322,6873
5301,6892
5281,6911
5264,6927
5251,6938
5244,6946
5241,6949
5240,6949
5240,6947
5240,6939
5240,6924
5240,6909
5240,6901
5240,6899
5243,6896
5249,6890
5261,6880
5276,6865
5296,6847
5318,6827
5340,6807
5360,6789
5375,6774
5387,6764
5393,6758
5396,6755
" style="stroke:#ffffff;stroke-width:7;
stroke-linejoin:bevel; stroke-linecap:butt;
"/>
<!-- Line -->
<!--  polyline  -->
<polyline points="4750,6899
4750,6949
5240,6949
5240,6899
4750,6899
" style="stroke:#00acd8;stroke-width:0;
stroke-linejoin:miter; stroke-linecap:butt;
fill:#00acd8;
"/>
<!-- Line -->
<!--  polyline  -->
<polyline points="4750,6899
4750,6949
5240,6949
5240,6899
4750,6899
" style="stroke:#ffffff;stroke-width:7;
stroke-linejoin:miter; stroke-linecap:butt;
"/>
<!-- Line -->
<!--  polyline  -->
<polyline points="4946,6758
5396,6755
5240,6899
4750,6899
4946,6758
" style="stroke:#00acd8;stroke-width:0;
stroke-linejoin:miter; stroke-linecap:butt;
fill:#00acd8;
"/>
<!-- Line -->
<!--  polyline  -->
<polyline points="4946,6758
5396,6755
5240,6899
4750,6899
4946,6758
" style="stroke:#ffffff;stroke-width:7;
stroke-linejoin:miter; stroke-linecap:butt;
"/>
<!-- Line -->
<!--  polyline  -->
<polyline points="5354,6704
5401,6454
5040,6454
4993,6704
5354,6704
" style="stroke:#00acd8;stroke-width:0;
stroke-linejoin:miter; stroke-linecap:butt;
fill:#00acd8;
"/>
<!-- Line -->
<!--  polyline  -->
<polyline points="5354,6704
5401,6454
5040,6454
4993,6704
5354,6704
" style="stroke:#ffffff;stroke-width:7;
stroke-linejoin:miter; stroke-linecap:butt;
"/>
<!-- Line -->
<!--  polyline  -->
<polyline points="4957,6761
4843,6853
" style="stroke:#ffffff;stroke-width:7;
stroke-linejoin:round; stroke-linecap:butt;
"/>
<!-- Line -->
<!--  polyline  -->
<polyline points="4993,6761
4879,6853
" style="stroke:#ffffff;stroke-width:7;
stroke-linejoin:round; stroke-linecap:butt;
"/>
<!-- Line -->
<!--  polyline  -->
<polyline points="5029,6761
4916,6853
" style="stroke:#ffffff;stroke-width:7;
stroke-linejoin:round; stroke-linecap:butt;
"/>
<!-- Line -->
<!--  polyline  -->
<polyline points="5066,6761
4952,6853
" style="stroke:#ffffff;stroke-width:7;
stroke-linejoin:round; stroke-linecap:butt;
"/>
<!-- Line -->
<!--  polyline  -->
<polyline points="5102,6761
4989,6853
" style="stroke:#ffffff;stroke-width:7;
stroke-linejoin:round; stroke-linecap:butt;
"/>
<!-- Line -->
<!--  polyline  -->
<polyline points="5139,6761
5025,6853
" style="stroke:#ffffff;stroke-width:7;
stroke-linejoin:round; stroke-linecap:butt;
"/>
<!-- Line -->
<!--  polyline  -->
<polyline points="5175,6761
5062,6853
" style="stroke:#ffffff;stroke-width:7;
stroke-linejoin:round; stroke-linecap:butt;
"/>
<!-- Line -->
<!--  polyline  -->
<polyline points="5212,6761
5098,6853
" style="stroke:#ffffff;stroke-width:7;
stroke-linejoin:round; stroke-linecap:butt;
"/>
<!-- Line -->
<!--  polyline  -->
<polyline points="5248,6761
5135,6853
" style="stroke:#ffffff;stroke-width:7;
stroke-linejoin:round; stroke-linecap:butt;
"/>
<!-- Line -->
<!--  polyline  -->
<polyline points="5285,6761
5171,6853
" style="stroke:#ffffff;stroke-width:7;
stroke-linejoin:round; stroke-linecap:butt;
"/>
<!-- Line -->
<!--  polyline  -->
<polyline points="5321,6761
5208,6853
" style="stroke:#ffffff;stroke-width:7;
stroke-linejoin:round; stroke-linecap:butt;
"/>
<!-- Line -->
<!--  polyline  -->
<polyline points="5358,6761
5244,6853
" style="stroke:#ffffff;stroke-width:7;
stroke-linejoin:round; stroke-linecap:butt;
"/>
<!-- Line -->
<!--  polyline  -->
<polyline points="4856,6843
5260,6843
" style="stroke:#ffffff;stroke-width:7;
stroke-linejoin:round; stroke-linecap:butt;
"/>
<!-- Line -->
<!--  polyline  -->
<polyline points="4883,6822
5281,6822
" style="stroke:#ffffff;stroke-width:7;
stroke-linejoin:round; stroke-linecap:butt;
"/>
<!-- Line -->
<!--  polyline  -->
<polyline points="4911,6801
5308,6801
" style="stroke:#ffffff;stroke-width:7;
stroke-linejoin:round; stroke-linecap:butt;
"/>
<!-- Line -->
<!--  polyline  -->
<polyline points="4936,6780
5336,6780
" style="stroke:#ffffff;stroke-width:7;
stroke-linejoin:round; stroke-linecap:butt;
"/>
<!-- Line -->
<!--  spline  -->
<polyline points="5241,6376
5242,6376
5247,6375
5253,6374
5258,6373
5259,6373
5261,6372
5265,6371
5269,6368
5274,6365
5278,6361
5280,6360
5281,6359
5282,6357
5286,6353
5289,6348
5291,6346
5292,6343
5294,6338
5296,6332
5297,6327
5297,6323
5297,6320
5297,6319
5296,6315
5295,6308
5294,6304
5294,6303
5293,6300
5292,6297
5289,6292
5286,6287
5282,6282
5281,6281
5280,6280
5278,6279
5274,6275
5269,6272
5267,6270
5264,6269
5259,6267
5253,6265
5248,6264
5244,6264
5241,6264
5240,6264
5235,6265
5229,6266
5224,6267
5223,6267
5221,6268
5217,6269
5213,6272
5208,6275
5204,6279
5202,6280
5201,6281
5200,6282
5196,6287
5193,6292
5191,6294
5191,6295
5190,6297
5188,6303
5186,6309
5185,6314
5185,6317
5185,6320
5185,6321
5186,6326
5187,6332
5188,6337
5188,6338
5189,6340
5190,6344
5193,6348
5196,6353
5200,6357
5201,6359
5202,6360
5204,6361
5208,6365
5213,6368
5215,6370
5218,6371
5223,6373
5229,6375
5234,6376
5238,6376
5241,6376
" style="stroke:#00acd8;stroke-width:0;
stroke-linejoin:bevel; stroke-linecap:butt;
fill:#00acd8;
"/>
<!-- Line -->
<!--  spline  -->
<polyline points="5241,6376
5242,6376
5247,6375
5253,6374
5258,6373
5259,6373
5261,6372
5265,6371
5269,6368
5274,6365
5278,6361
5280,6360
5281,6359
5282,6357
5286,6353
5289,6348
5291,6346
5292,6343
5294,6338
5296,6332
5297,6327
5297,6323
5297,6320
5297,6319
5296,6315
5295,6308
5294,6304
5294,6303
5293,6300
5292,6297
5289,6292
5286,6287
5282,6282
5281,6281
5280,6280
5278,6279
5274,6275
5269,6272
5267,6270
5264,6269
5259,6267
5253,6265
5248,6264
5244,6264
5241,6264
5240,6264
5235,6265
5229,6266
5224,6267
5223,6267
5221,6268
5217,6269
5213,6272
5208,6275
5204,6279
5202,6280
5201,6281
5200,6282
5196,6287
5193,6292
5191,6294
5191,6295
5190,6297
5188,6303
5186,6309
5185,6314
5185,6317
5185,6320
5185,6321
5186,6326
5187,6332
5188,6337
5188,6338
5189,6340
5190,6344
5193,6348
5196,6353
5200,6357
5201,6359
5202,6360
5204,6361
5208,6365
5213,6368
5215,6370
5218,6371
5223,6373
5229,6375
5234,6376
5238,6376
5241,6376
" style="stroke:#ffffff;stroke-width:7;
stroke-linejoin:bevel; stroke-linecap:butt;
"/>
<!-- Line -->
<!--  spline  -->
<polyline points="5160,6405
5160,6404
5161,6397
5164,6382
5167,6362
5170,6342
5173,6327
5174,6320
5174,6319
5174,6320
5175,6325
5177,6334
5178,6339
5178,6340
5179,6343
5181,6347
5183,6352
5187,6358
5191,6363
5193,6366
5194,6367
5197,6369
5202,6373
5208,6377
5210,6378
5211,6379
5213,6380
5220,6382
5228,6384
5234,6385
5238,6386
5241,6386
5242,6386
5243,6386
5248,6385
5257,6383
5262,6382
5263,6382
5266,6381
5270,6379
5275,6377
5281,6373
5286,6369
5289,6367
5290,6366
5292,6363
5296,6358
5300,6352
5301,6350
5302,6349
5303,6346
5305,6340
5307,6333
5308,6327
5309,6322
5309,6320
5309,6319
5309,6320
5310,6327
5313,6342
5316,6362
5319,6382
5322,6397
5323,6404
5323,6405
5322,6405
5318,6405
5308,6405
5291,6405
5268,6405
5241,6405
5215,6405
5192,6405
5175,6405
5165,6405
5161,6405
5160,6405
" style="stroke:#00acd8;stroke-width:0;
stroke-linejoin:bevel; stroke-linecap:butt;
fill:#00acd8;
"/>
<!-- Line -->
<!--  polyline  -->
<polyline points="5279,6335
5279,6309
5203,6309
5203,6335
5279,6335
" style="stroke:#ffffff;stroke-width:0;
stroke-linejoin:miter; stroke-linecap:butt;
fill:#ffffff;
"/>
<!-- Line -->
<!--  spline  -->
<polyline points="5192,6488
5194,6488
5204,6488
5223,6488
5242,6488
5252,6488
5254,6488
5253,6488
5249,6490
5243,6494
5239,6496
5238,6496
5236,6498
5233,6500
5230,6503
5226,6507
5223,6511
5221,6512
5221,6513
5220,6515
5217,6518
5215,6521
5214,6523
5213,6525
5212,6527
5211,6529
5211,6530
5211,6531
5212,6532
5219,6535
5229,6541
5236,6544
5237,6545
5236,6545
5232,6548
5222,6555
5209,6564
5196,6572
5186,6579
5182,6582
5181,6582
5181,6581
5179,6575
5174,6561
5168,6542
5161,6523
5156,6509
5154,6503
5154,6502
5155,6503
5161,6505
5169,6510
5175,6512
5176,6513
5177,6511
5178,6507
5179,6505
5180,6504
5180,6502
5182,6500
5183,6498
5184,6496
5185,6495
5186,6494
5187,6493
5188,6492
5189,6491
5190,6491
5191,6490
5192,6489
5192,6488
" style="stroke:#ffffff;stroke-width:0;
stroke-linejoin:bevel; stroke-linecap:butt;
fill:#ffffff;
"/>
<!-- Line -->
<!--  spline  -->
<polyline points="5244,6684
5244,6683
5245,6678
5245,6672
5246,6667
5246,6666
5245,6664
5245,6660
5244,6656
5242,6651
5240,6646
5240,6644
5239,6642
5237,6638
5235,6635
5234,6633
5233,6633
5233,6632
5231,6630
5231,6629
5230,6629
5230,6628
5229,6628
5229,6627
5228,6628
5221,6632
5211,6637
5204,6641
5203,6642
5203,6641
5203,6636
5202,6625
5202,6609
5202,6593
5201,6582
5201,6577
5201,6576
5202,6576
5209,6578
5223,6581
5243,6585
5262,6589
5276,6592
5283,6594
5284,6594
5283,6595
5278,6598
5269,6603
5264,6606
5263,6607
5264,6608
5266,6613
5270,6619
5272,6624
5273,6625
5274,6628
5275,6632
5277,6637
5278,6643
5279,6648
5279,6651
5279,6652
5279,6654
5279,6658
5279,6662
5279,6664
5279,6665
5279,6668
5279,6669
5279,6670
5279,6671
5279,6672
5276,6674
5273,6677
5270,6679
5269,6680
5267,6681
5264,6682
5261,6683
5258,6684
5257,6684
5256,6684
5253,6684
5250,6684
5249,6684
5248,6684
5246,6684
5245,6684
5244,6684
" style="stroke:#ffffff;stroke-width:0;
stroke-linejoin:bevel; stroke-linecap:butt;
fill:#ffffff;
"/>
<!-- Line -->
<!--  spline  -->
<polyline points="5093,6591
5094,6591
5097,6593
5101,6594
5104,6596
5105,6596
5107,6596
5110,6597
5113,6598
5117,6598
5120,6598
5122,6598
5123,6598
5126,6598
5129,6598
5130,6598
5131,6598
5133,6598
5134,6598
5135,6598
5135,6597
5135,6596
5135,6588
5136,6577
5136,6569
5136,6568
5137,6568
5141,6571
5151,6576
5165,6584
5179,6592
5189,6597
5193,6600
5194,6600
5193,6601
5189,6606
5179,6616
5165,6631
5151,6645
5141,6655
5137,6660
5136,6661
5136,6660
5136,6653
5135,6644
5135,6637
5135,6636
5134,6636
5132,6636
5128,6637
5126,6637
5125,6637
5124,6637
5122,6637
5119,6636
5116,6636
5113,6635
5112,6635
5111,6635
5110,6635
5107,6634
5104,6633
5103,6633
5102,6633
5099,6632
5096,6631
5094,6630
5093,6630
5092,6629
5092,6628
5092,6622
5093,6610
5093,6598
5093,6592
5093,6591
" style="stroke:#ffffff;stroke-width:0;
stroke-linejoin:bevel; stroke-linecap:butt;
fill:#ffffff;
"/>
</g>
</svg>
