<?xml version="1.0" standalone="no"?>
<!DOCTYPE svg PUBLIC "-//W3C//DTD SVG 1.1//EN"
"http://www.w3.org/Graphics/SVG/1.1/DTD/svg11.dtd">
<!-- Creator: fig2dev Version 3.2 Patchlevel 5c -->
<!-- CreationDate: Fri Sep 14 10:46:55 2012 -->
<!-- Magnification: 1.000 -->
<svg xmlns="http://www.w3.org/2000/svg" width="0.6in" height="0.5in" viewBox="4728 6333 772 541">
<g style="stroke-width:.025in; fill:none">
<!-- Line -->
<!--  polyline  -->
<polyline points="4750,6862
5385,6862
5385,6444
4750,6444
4750,6862
" style="stroke:#00a5d4;stroke-width:0;
stroke-linejoin:miter; stroke-linecap:butt;
fill:#00a5d4;
"/>
<!-- Line -->
<!--  polyline  -->
<polyline points="4750,6862
5385,6862
5385,6444
4750,6444
4750,6862
" style="stroke:#ffffff;stroke-width:7;
stroke-linejoin:miter; stroke-linecap:butt;
"/>
<!-- Line -->
<!--  polyline  -->
<polyline points="5478,6779
5385,6862
5385,6444
5478,6355
5478,6779
" style="stroke:#00a5d4;stroke-width:0;
stroke-linejoin:miter; stroke-linecap:butt;
fill:#00a5d4;
"/>
<!-- Line -->
<!--  polyline  -->
<polyline points="5478,6779
5385,6862
5385,6444
5478,6355
5478,6779
" style="stroke:#ffffff;stroke-width:7;
stroke-linejoin:miter; stroke-linecap:butt;
"/>
<!-- Line -->
<!--  polyline  -->
<polyline points="4859,6355
5478,6355
5385,6444
4750,6444
4859,6355
" style="stroke:#00a5d4;stroke-width:0;
stroke-linejoin:miter; stroke-linecap:butt;
fill:#00a5d4;
"/>
<!-- Line -->
<!--  polyline  -->
<polyline points="4859,6355
5478,6355
5385,6444
4750,6444
4859,6355
" style="stroke:#ffffff;stroke-width:15;
stroke-linejoin:miter; stroke-linecap:butt;
"/>
<!-- Line -->
<!--  polyline  -->
<polyline points="5301,6546
5244,6546
5244,6530
5301,6529
5301,6503
5363,6538
5301,6573
5301,6546
" style="stroke:#ffffff;stroke-width:0;
stroke-linejoin:miter; stroke-linecap:butt;
fill:#ffffff;
"/>
<!-- Line -->
<!--  polyline  -->
<polyline points="5301,6757
5244,6758
5244,6741
5301,6741
5301,6714
5363,6749
5301,6784
5301,6757
" style="stroke:#ffffff;stroke-width:0;
stroke-linejoin:miter; stroke-linecap:butt;
fill:#ffffff;
"/>
<!-- Line -->
<!--  polyline  -->
<polyline points="4838,6653
4775,6653
4775,6636
4838,6636
4838,6610
4900,6645
4838,6679
4838,6653
" style="stroke:#ffffff;stroke-width:0;
stroke-linejoin:miter; stroke-linecap:butt;
fill:#ffffff;
"/>
<!-- Line -->
<!--  spline  -->
<polyline points="5207,6585
5207,6586
5205,6590
5201,6597
5199,6601
5199,6602
5197,6604
5193,6608
5188,6612
5179,6617
5170,6621
5166,6623
5164,6624
5159,6625
5147,6629
5136,6632
5131,6633
5129,6634
5126,6634
5120,6635
5108,6637
5094,6638
5083,6639
5074,6639
5067,6639
5063,6639
5062,6639
5061,6639
5053,6639
5039,6638
5025,6637
5017,6637
5016,6637
5015,6637
5012,6636
5005,6635
4997,6634
4987,6632
4976,6629
4964,6625
4960,6624
4958,6623
4954,6621
4945,6617
4937,6612
4933,6610
4932,6609
4929,6607
4924,6602
4920,6597
4918,6593
4917,6589
4917,6587
4917,6585
4917,6586
4917,6591
4917,6604
4917,6623
4917,6647
4917,6671
4917,6690
4917,6703
4917,6708
4917,6709
4917,6710
4919,6714
4922,6721
4924,6725
4924,6726
4927,6728
4930,6732
4936,6736
4945,6741
4954,6745
4958,6747
4960,6748
4964,6750
4976,6753
4987,6756
4993,6757
4995,6757
4997,6758
5004,6758
5016,6760
5030,6761
5041,6762
5050,6763
5057,6763
5061,6763
5062,6763
5063,6763
5071,6762
5085,6761
5099,6761
5107,6760
5108,6760
5109,6760
5112,6760
5118,6759
5126,6758
5136,6756
5147,6753
5159,6750
5164,6748
5166,6747
5170,6745
5179,6741
5187,6736
5190,6734
5191,6733
5194,6731
5199,6726
5203,6720
5206,6715
5207,6712
5207,6709
5207,6708
5207,6703
5207,6690
5207,6671
5207,6647
5207,6623
5207,6604
5207,6591
5207,6586
5207,6585
" style="stroke:#00a5d4;stroke-width:0;
stroke-linejoin:bevel; stroke-linecap:butt;
fill:#00a5d4;
"/>
<!-- Line -->
<!--  spline  -->
<polyline points="5207,6585
5207,6586
5205,6590
5201,6597
5199,6601
5199,6602
5197,6604
5193,6608
5188,6612
5179,6617
5170,6621
5166,6623
5164,6624
5159,6625
5147,6629
5136,6632
5131,6633
5129,6634
5126,6634
5120,6635
5108,6637
5094,6638
5083,6639
5074,6639
5067,6639
5063,6639
5062,6639
5061,6639
5053,6639
5039,6638
5025,6637
5017,6637
5016,6637
5015,6637
5012,6636
5005,6635
4997,6634
4987,6632
4976,6629
4964,6625
4960,6624
4958,6623
4954,6621
4945,6617
4937,6612
4933,6610
4932,6609
4929,6607
4924,6602
4920,6597
4918,6593
4917,6589
4917,6587
4917,6585
4917,6586
4917,6591
4917,6604
4917,6623
4917,6647
4917,6671
4917,6690
4917,6703
4917,6708
4917,6709
4917,6710
4919,6714
4922,6721
4924,6725
4924,6726
4927,6728
4930,6732
4936,6736
4945,6741
4954,6745
4958,6747
4960,6748
4964,6750
4976,6753
4987,6756
4993,6757
4995,6757
4997,6758
5004,6758
5016,6760
5030,6761
5041,6762
5050,6763
5057,6763
5061,6763
5062,6763
5063,6763
5071,6762
5085,6761
5099,6761
5107,6760
5108,6760
5109,6760
5112,6760
5118,6759
5126,6758
5136,6756
5147,6753
5159,6750
5164,6748
5166,6747
5170,6745
5179,6741
5187,6736
5190,6734
5191,6733
5194,6731
5199,6726
5203,6720
5206,6715
5207,6712
5207,6709
5207,6708
5207,6703
5207,6690
5207,6671
5207,6647
5207,6623
5207,6604
5207,6591
5207,6586
5207,6585
" style="stroke:#ffffff;stroke-width:7;
stroke-linejoin:bevel; stroke-linecap:butt;
"/>
<!-- Line -->
<!--  spline  -->
<polyline points="5062,6639
5063,6639
5071,6639
5085,6638
5099,6637
5107,6637
5108,6637
5109,6637
5112,6636
5118,6635
5126,6634
5136,6632
5147,6629
5159,6625
5164,6624
5166,6623
5170,6621
5179,6617
5187,6612
5190,6610
5191,6609
5194,6607
5199,6602
5203,6596
5206,6591
5207,6588
5207,6585
5207,6584
5205,6580
5201,6574
5199,6570
5199,6569
5197,6567
5193,6563
5188,6559
5179,6554
5170,6550
5166,6548
5164,6547
5159,6545
5147,6542
5136,6539
5131,6538
5129,6538
5126,6537
5120,6537
5108,6535
5094,6534
5083,6533
5074,6532
5067,6532
5063,6532
5062,6532
5061,6532
5053,6533
5039,6534
5025,6534
5017,6535
5016,6535
5015,6535
5012,6535
5005,6536
4997,6537
4987,6539
4976,6542
4964,6545
4960,6547
4958,6548
4954,6550
4945,6554
4937,6559
4933,6561
4932,6562
4929,6564
4924,6569
4920,6574
4918,6578
4917,6581
4917,6583
4917,6585
4917,6586
4919,6590
4922,6597
4924,6601
4924,6602
4927,6604
4930,6608
4936,6612
4945,6617
4954,6621
4958,6623
4960,6624
4964,6625
4976,6629
4987,6632
4993,6633
4995,6634
4997,6634
5004,6635
5016,6637
5030,6638
5041,6639
5050,6639
5057,6639
5061,6639
5062,6639
" style="stroke:#00a5d4;stroke-width:0;
stroke-linejoin:bevel; stroke-linecap:butt;
fill:#00a5d4;
"/>
<!-- Line -->
<!--  spline  -->
<polyline points="5062,6639
5063,6639
5071,6639
5085,6638
5099,6637
5107,6637
5108,6637
5109,6637
5112,6636
5118,6635
5126,6634
5136,6632
5147,6629
5159,6625
5164,6624
5166,6623
5170,6621
5179,6617
5187,6612
5190,6610
5191,6609
5194,6607
5199,6602
5203,6596
5206,6591
5207,6588
5207,6585
5207,6584
5205,6580
5201,6574
5199,6570
5199,6569
5197,6567
5193,6563
5188,6559
5179,6554
5170,6550
5166,6548
5164,6547
5159,6545
5147,6542
5136,6539
5131,6538
5129,6538
5126,6537
5120,6537
5108,6535
5094,6534
5083,6533
5074,6532
5067,6532
5063,6532
5062,6532
5061,6532
5053,6533
5039,6534
5025,6534
5017,6535
5016,6535
5015,6535
5012,6535
5005,6536
4997,6537
4987,6539
4976,6542
4964,6545
4960,6547
4958,6548
4954,6550
4945,6554
4937,6559
4933,6561
4932,6562
4929,6564
4924,6569
4920,6574
4918,6578
4917,6581
4917,6583
4917,6585
4917,6586
4919,6590
4922,6597
4924,6601
4924,6602
4927,6604
4930,6608
4936,6612
4945,6617
4954,6621
4958,6623
4960,6624
4964,6625
4976,6629
4987,6632
4993,6633
4995,6634
4997,6634
5004,6635
5016,6637
5030,6638
5041,6639
5050,6639
5057,6639
5061,6639
5062,6639
" style="stroke:#ffffff;stroke-width:7;
stroke-linejoin:bevel; stroke-linecap:butt;
"/>
</g>
</svg>
