<?xml version="1.0" standalone="no"?>
<!DOCTYPE svg PUBLIC "-//W3C//DTD SVG 1.1//EN"
"http://www.w3.org/Graphics/SVG/1.1/DTD/svg11.dtd">
<!-- Creator: fig2dev Version 3.2 Patchlevel 5c -->
<!-- CreationDate: Fri Sep 14 10:46:56 2012 -->
<!-- Magnification: 1.000 -->
<svg xmlns="http://www.w3.org/2000/svg" width="0.4in" height="0.6in" viewBox="-2 12503 524 701">
<g style="stroke-width:.025in; fill:none">
<!-- Line -->
<!--  polyline  -->
<polyline points="510,13111
510,12515
425,12596
425,13192
510,13111
" style="stroke:#026c9b;stroke-width:0;
stroke-linejoin:miter; stroke-linecap:butt;
fill:#026c9b;
"/>
<!-- Line -->
<!--  polyline  -->
<polyline points="510,13111
510,12515
425,12596
425,13192
510,13111
" style="stroke:#ffffff;stroke-width:7;
stroke-linejoin:miter; stroke-linecap:butt;
"/>
<!-- Line -->
<!--  polyline  -->
<polyline points="510,12515
425,12596
10,12596
117,12515
510,12515
" style="stroke:#026c9b;stroke-width:0;
stroke-linejoin:miter; stroke-linecap:butt;
fill:#026c9b;
"/>
<!-- Line -->
<!--  polyline  -->
<polyline points="510,12515
425,12596
10,12596
117,12515
510,12515
" style="stroke:#ffffff;stroke-width:7;
stroke-linejoin:miter; stroke-linecap:butt;
"/>
<!-- Line -->
<!--  polyline  -->
<polyline points="425,13007
425,12596
10,12596
10,13007
425,13007
" style="stroke:#026c9b;stroke-width:0;
stroke-linejoin:miter; stroke-linecap:butt;
fill:#026c9b;
"/>
<!-- Line -->
<!--  polyline  -->
<polyline points="425,13007
425,12596
10,12596
10,13007
425,13007
" style="stroke:#ffffff;stroke-width:7;
stroke-linejoin:miter; stroke-linecap:butt;
"/>
<!-- Line -->
<!--  polyline  -->
<polyline points="425,13192
425,13011
10,13011
10,13192
425,13192
" style="stroke:#026c9b;stroke-width:0;
stroke-linejoin:miter; stroke-linecap:butt;
fill:#026c9b;
"/>
<!-- Line -->
<!--  polyline  -->
<polyline points="425,13192
425,13011
10,13011
10,13192
425,13192
" style="stroke:#ffffff;stroke-width:7;
stroke-linejoin:miter; stroke-linecap:butt;
"/>
<!-- Line -->
<!--  polyline  -->
<polyline points="180,12753
117,12690
128,12679
88,12671
96,12711
107,12700
170,12763
180,12753
" style="stroke:#ffffff;stroke-width:0;
stroke-linejoin:miter; stroke-linecap:butt;
fill:#ffffff;
"/>
<!-- Line -->
<!--  polyline  -->
<polyline points="157,12794
68,12794
68,12779
34,12801
68,12824
68,12809
157,12809
157,12794
" style="stroke:#ffffff;stroke-width:0;
stroke-linejoin:miter; stroke-linecap:butt;
fill:#ffffff;
"/>
<!-- Line -->
<!--  polyline  -->
<polyline points="170,12840
107,12903
96,12892
88,12932
128,12924
117,12913
180,12850
170,12840
" style="stroke:#ffffff;stroke-width:0;
stroke-linejoin:miter; stroke-linecap:butt;
fill:#ffffff;
"/>
<!-- Line -->
<!--  polyline  -->
<polyline points="212,12863
212,12952
196,12952
219,12986
241,12952
226,12952
226,12863
212,12863
" style="stroke:#ffffff;stroke-width:0;
stroke-linejoin:miter; stroke-linecap:butt;
fill:#ffffff;
"/>
<!-- Line -->
<!--  polyline  -->
<polyline points="212,12743
212,12653
196,12653
219,12620
241,12653
226,12653
226,12743
212,12743
" style="stroke:#ffffff;stroke-width:0;
stroke-linejoin:miter; stroke-linecap:butt;
fill:#ffffff;
"/>
<!-- Line -->
<!--  polyline  -->
<polyline points="257,12850
320,12913
310,12924
349,12932
341,12892
330,12903
267,12840
257,12850
" style="stroke:#ffffff;stroke-width:0;
stroke-linejoin:miter; stroke-linecap:butt;
fill:#ffffff;
"/>
<!-- Line -->
<!--  polyline  -->
<polyline points="280,12809
370,12809
370,12824
403,12801
370,12779
370,12794
280,12794
280,12809
" style="stroke:#ffffff;stroke-width:0;
stroke-linejoin:miter; stroke-linecap:butt;
fill:#ffffff;
"/>
<!-- Line -->
<!--  polyline  -->
<polyline points="267,12763
330,12700
341,12711
349,12671
310,12679
320,12690
257,12753
267,12763
" style="stroke:#ffffff;stroke-width:0;
stroke-linejoin:miter; stroke-linecap:butt;
fill:#ffffff;
"/>
<!-- Line -->
<!--  spline  -->
<polyline points="274,12877
275,12876
280,12871
289,12862
294,12857
295,12856
295,12855
297,12852
301,12847
304,12840
308,12831
311,12822
312,12818
312,12817
312,12813
313,12803
313,12793
313,12789
312,12788
311,12783
309,12774
305,12764
302,12757
299,12751
296,12748
296,12747
295,12746
290,12741
282,12732
277,12727
276,12726
275,12726
272,12724
267,12720
260,12717
250,12713
241,12710
237,12709
235,12709
231,12709
222,12708
213,12708
209,12708
207,12708
203,12709
194,12711
184,12715
177,12718
171,12721
168,12724
167,12724
166,12725
160,12730
152,12739
146,12744
145,12745
145,12746
143,12749
139,12754
136,12761
132,12771
129,12780
128,12784
128,12786
128,12790
127,12799
127,12808
127,12812
128,12814
129,12818
131,12827
135,12837
138,12844
141,12850
144,12853
144,12854
145,12855
150,12861
159,12869
164,12875
165,12876
166,12876
169,12878
174,12882
181,12885
190,12889
199,12892
203,12893
204,12893
208,12893
218,12894
228,12894
232,12894
233,12893
238,12892
247,12890
257,12886
264,12883
270,12880
273,12877
274,12877
" style="stroke:#ffffff;stroke-width:0;
stroke-linejoin:bevel; stroke-linecap:butt;
fill:#ffffff;
"/>
<!-- Line -->
<!--  spline  -->
<polyline points="274,12877
275,12876
280,12871
289,12862
294,12857
295,12856
295,12855
297,12852
301,12847
304,12840
308,12831
311,12822
312,12818
312,12817
312,12813
313,12803
313,12793
313,12789
312,12788
311,12783
309,12774
305,12764
302,12757
299,12751
296,12748
296,12747
295,12746
290,12741
282,12732
277,12727
276,12726
275,12726
272,12724
267,12720
260,12717
250,12713
241,12710
237,12709
235,12709
231,12709
222,12708
213,12708
209,12708
207,12708
203,12709
194,12711
184,12715
177,12718
171,12721
168,12724
167,12724
166,12725
160,12730
152,12739
146,12744
145,12745
145,12746
143,12749
139,12754
136,12761
132,12771
129,12780
128,12784
128,12786
128,12790
127,12799
127,12808
127,12812
128,12814
129,12818
131,12827
135,12837
138,12844
141,12850
144,12853
144,12854
145,12855
150,12861
159,12869
164,12875
165,12876
166,12876
169,12878
174,12882
181,12885
190,12889
199,12892
203,12893
204,12893
208,12893
218,12894
228,12894
232,12894
233,12893
238,12892
247,12890
257,12886
264,12883
270,12880
273,12877
274,12877
" style="stroke:#026c9b;stroke-width:7;
stroke-linejoin:bevel; stroke-linecap:butt;
"/>
<!-- Line -->
<!--  polyline  -->
<polyline points="226,13068
241,13068
219,13034
196,13068
211,13068
211,13138
196,13138
219,13172
241,13138
226,13138
226,13068
" style="stroke:#ffffff;stroke-width:0;
stroke-linejoin:miter; stroke-linecap:butt;
fill:#ffffff;
"/>
<!-- Line -->
<!--  polyline  -->
<polyline points="110,13068
126,13068
103,13034
81,13068
96,13068
96,13138
81,13138
103,13172
126,13138
110,13138
110,13068
" style="stroke:#ffffff;stroke-width:0;
stroke-linejoin:miter; stroke-linecap:butt;
fill:#ffffff;
"/>
<!-- Line -->
<!--  polyline  -->
<polyline points="336,13068
351,13068
329,13034
307,13068
322,13068
322,13138
307,13138
329,13172
351,13138
336,13138
336,13068
" style="stroke:#ffffff;stroke-width:0;
stroke-linejoin:miter; stroke-linecap:butt;
fill:#ffffff;
"/>
</g>
</svg>
