<?xml version="1.0" standalone="no"?>
<!DOCTYPE svg PUBLIC "-//W3C//DTD SVG 1.1//EN"
"http://www.w3.org/Graphics/SVG/1.1/DTD/svg11.dtd">
<!-- Creator: fig2dev Version 3.2 Patchlevel 5c -->
<!-- CreationDate: Fri Sep 14 10:46:56 2012 -->
<!-- Magnification: 1.000 -->
<svg xmlns="http://www.w3.org/2000/svg" width="0.3in" height="0.6in" viewBox="-9 12452 395 757">
<g style="stroke-width:.025in; fill:none">
<!-- Line -->
<!--  polyline  -->
<polyline points="3,13197
305,13197
305,12530
3,12530
3,13197
" style="stroke:#036998;stroke-width:0;
stroke-linejoin:miter; stroke-linecap:butt;
fill:#036998;
"/>
<!-- Line -->
<!--  polyline  -->
<polyline points="3,13197
305,13197
305,12530
3,12530
3,13197
" style="stroke:#ffffff;stroke-width:7;
stroke-linejoin:miter; stroke-linecap:butt;
"/>
<!-- Line -->
<!--  polyline  -->
<polyline points="3,12530
73,12464
374,12464
305,12530
3,12530
" style="stroke:#036998;stroke-width:0;
stroke-linejoin:miter; stroke-linecap:butt;
fill:#036998;
"/>
<!-- Line -->
<!--  polyline  -->
<polyline points="3,12530
73,12464
374,12464
305,12530
3,12530
" style="stroke:#ffffff;stroke-width:7;
stroke-linejoin:miter; stroke-linecap:butt;
"/>
<!-- Line -->
<!--  polyline  -->
<polyline points="305,13197
374,13131
374,12464
305,12530
305,13197
" style="stroke:#036998;stroke-width:0;
stroke-linejoin:miter; stroke-linecap:butt;
fill:#036998;
"/>
<!-- Line -->
<!--  polyline  -->
<polyline points="305,13197
374,13131
374,12464
305,12530
305,13197
" style="stroke:#ffffff;stroke-width:7;
stroke-linejoin:miter; stroke-linecap:butt;
"/>
<!-- Line -->
<!--  spline  -->
<polyline points="114,13005
114,13004
114,13003
114,13002
114,13000
115,12998
116,12996
116,12995
116,12994
117,12993
118,12990
119,12987
120,12986
120,12984
122,12981
124,12977
126,12974
128,12971
129,12969
129,12968
130,12968
130,12967
130,12966
131,12966
131,12965
132,12964
133,12963
134,12962
135,12961
136,12960
137,12959
138,12959
138,12958
139,12958
138,12959
132,12964
120,12975
109,12985
103,12990
102,12991
101,12992
100,12993
99,12994
98,12995
97,12996
96,12997
95,12998
94,12999
94,13000
93,13001
93,13002
93,13003
91,13005
88,13010
86,13012
86,13013
85,13014
84,13017
83,13019
82,13022
81,13025
81,13026
81,13027
80,13029
80,13031
79,13031
79,13032
79,13033
79,13034
79,13035
79,13036
80,13035
86,13030
97,13020
107,13011
113,13006
114,13005
" style="stroke:#ffffff;stroke-width:0;
stroke-linejoin:bevel; stroke-linecap:butt;
fill:#ffffff;
"/>
<!-- Line -->
<!--  spline  -->
<polyline points="114,13005
114,13004
114,13003
114,13002
114,13000
115,12998
116,12996
116,12995
116,12994
117,12993
118,12990
119,12987
120,12986
120,12984
122,12981
124,12977
126,12974
128,12971
129,12969
129,12968
130,12968
130,12967
130,12966
131,12966
131,12965
132,12964
133,12963
134,12962
135,12961
136,12960
137,12959
138,12959
138,12958
139,12958
138,12959
132,12964
120,12975
109,12985
103,12990
102,12991
101,12992
100,12993
99,12994
98,12995
97,12996
96,12997
95,12998
94,12999
94,13000
93,13001
93,13002
93,13003
91,13005
88,13010
86,13012
86,13013
85,13014
84,13017
83,13019
82,13022
81,13025
81,13026
81,13027
80,13029
80,13031
79,13031
79,13032
79,13033
79,13034
79,13035
79,13036
80,13035
86,13030
97,13020
107,13011
113,13006
114,13005
" style="stroke:#036998;stroke-width:7;
stroke-linejoin:bevel; stroke-linecap:butt;
"/>
<!-- Line -->
<!--  spline  -->
<polyline points="227,12985
226,12984
224,12982
220,12977
218,12975
217,12974
215,12972
213,12970
209,12967
204,12963
199,12960
197,12959
196,12958
194,12957
188,12955
182,12953
180,12953
179,12953
176,12952
169,12952
160,12952
153,12953
147,12953
144,12954
143,12954
142,12955
142,12956
141,12956
140,12956
139,12956
139,12957
139,12958
138,12959
132,12964
120,12975
109,12985
103,12990
102,12991
103,12991
106,12988
112,12985
115,12982
116,12982
118,12981
122,12979
126,12978
133,12977
140,12977
142,12977
144,12977
147,12977
154,12979
161,12981
164,12982
166,12982
169,12984
176,12989
184,12996
189,13002
194,13008
196,13011
197,13012
196,13013
190,13018
181,13026
175,13031
174,13032
176,13032
185,13033
201,13034
217,13035
226,13036
228,13036
228,13035
230,13030
233,13018
238,13002
242,12986
245,12974
247,12969
247,12968
246,12969
241,12973
233,12980
228,12984
227,12985
" style="stroke:#ffffff;stroke-width:0;
stroke-linejoin:bevel; stroke-linecap:butt;
fill:#ffffff;
"/>
<!-- Line -->
<!--  spline  -->
<polyline points="227,12985
226,12984
224,12982
220,12977
218,12975
217,12974
215,12972
213,12970
209,12967
204,12963
199,12960
197,12959
196,12958
194,12957
188,12955
182,12953
180,12953
179,12953
176,12952
169,12952
160,12952
153,12953
147,12953
144,12954
143,12954
142,12955
142,12956
141,12956
140,12956
139,12956
139,12957
139,12958
138,12959
132,12964
120,12975
109,12985
103,12990
102,12991
103,12991
106,12988
112,12985
115,12982
116,12982
118,12981
122,12979
126,12978
133,12977
140,12977
142,12977
144,12977
147,12977
154,12979
161,12981
164,12982
166,12982
169,12984
176,12989
184,12996
189,13002
194,13008
196,13011
197,13012
196,13013
190,13018
181,13026
175,13031
174,13032
176,13032
185,13033
201,13034
217,13035
226,13036
228,13036
228,13035
230,13030
233,13018
238,13002
242,12986
245,12974
247,12969
247,12968
246,12969
241,12973
233,12980
228,12984
227,12985
" style="stroke:#036998;stroke-width:7;
stroke-linejoin:bevel; stroke-linecap:butt;
"/>
<!-- Line -->
<!--  spline  -->
<polyline points="247,13027
246,13028
240,13033
229,13044
218,13054
212,13059
211,13060
211,13061
211,13063
211,13064
211,13065
212,13066
212,13069
212,13072
212,13076
212,13077
212,13078
212,13079
211,13084
210,13089
210,13091
210,13092
210,13094
208,13100
206,13107
203,13112
202,13116
200,13118
200,13119
199,13119
195,13120
188,13120
184,13121
183,13121
180,13121
176,13120
171,13119
165,13117
159,13114
157,13113
156,13112
154,13111
148,13106
142,13101
140,13098
139,13097
137,13094
132,13087
127,13078
123,13071
120,13065
118,13061
118,13060
119,13059
124,13054
132,13047
137,13042
138,13041
137,13041
130,13039
116,13035
103,13031
96,13029
95,13029
95,13030
93,13036
88,13048
82,13066
76,13084
71,13096
69,13102
69,13103
70,13102
76,13097
84,13088
90,13083
91,13082
93,13084
94,13088
96,13090
97,13091
98,13093
100,13095
102,13098
104,13101
104,13102
105,13102
105,13103
107,13106
109,13108
110,13109
110,13110
111,13111
113,13113
115,13115
117,13117
118,13118
119,13119
117,13119
108,13119
95,13119
86,13119
84,13119
85,13118
88,13115
94,13110
97,13107
98,13106
97,13106
91,13108
77,13112
58,13118
39,13124
25,13128
19,13130
18,13130
19,13131
24,13134
34,13141
44,13147
49,13150
50,13151
52,13149
56,13145
58,13143
59,13143
63,13143
74,13143
91,13143
112,13143
132,13143
149,13143
160,13143
164,13143
165,13143
166,13143
168,13143
169,13143
170,13143
171,13142
172,13142
173,13142
174,13142
175,13142
176,13142
177,13142
178,13141
179,13141
180,13140
181,13140
183,13139
184,13139
185,13138
186,13137
187,13136
187,13137
186,13137
186,13138
187,13137
188,13136
189,13135
190,13134
192,13133
195,13131
198,13128
201,13125
203,13124
205,13123
208,13120
211,13118
213,13116
214,13116
215,13115
218,13113
221,13111
222,13110
223,13109
224,13108
224,13107
226,13105
230,13101
232,13099
232,13098
233,13096
235,13094
237,13091
239,13086
241,13081
242,13079
243,13077
244,13071
245,13065
246,13062
246,13061
246,13058
247,13051
247,13043
247,13036
247,13031
247,13028
247,13027
" style="stroke:#ffffff;stroke-width:0;
stroke-linejoin:bevel; stroke-linecap:butt;
fill:#ffffff;
"/>
<!-- Line -->
<!--  spline  -->
<polyline points="247,13027
246,13028
240,13033
229,13044
218,13054
212,13059
211,13060
211,13061
211,13063
211,13064
211,13065
212,13066
212,13069
212,13072
212,13076
212,13077
212,13078
212,13079
211,13084
210,13089
210,13091
210,13092
210,13094
208,13100
206,13107
203,13112
202,13116
200,13118
200,13119
199,13119
195,13120
188,13120
184,13121
183,13121
180,13121
176,13120
171,13119
165,13117
159,13114
157,13113
156,13112
154,13111
148,13106
142,13101
140,13098
139,13097
137,13094
132,13087
127,13078
123,13071
120,13065
118,13061
118,13060
119,13059
124,13054
132,13047
137,13042
138,13041
137,13041
130,13039
116,13035
103,13031
96,13029
95,13029
95,13030
93,13036
88,13048
82,13066
76,13084
71,13096
69,13102
69,13103
70,13102
76,13097
84,13088
90,13083
91,13082
93,13084
94,13088
96,13090
97,13091
98,13093
100,13095
102,13098
104,13101
104,13102
105,13102
105,13103
107,13106
109,13108
110,13109
110,13110
111,13111
113,13113
115,13115
117,13117
118,13118
119,13119
117,13119
108,13119
95,13119
86,13119
84,13119
85,13118
88,13115
94,13110
97,13107
98,13106
97,13106
91,13108
77,13112
58,13118
39,13124
25,13128
19,13130
18,13130
19,13131
24,13134
34,13141
44,13147
49,13150
50,13151
52,13149
56,13145
58,13143
59,13143
63,13143
74,13143
91,13143
112,13143
132,13143
149,13143
160,13143
164,13143
165,13143
166,13143
168,13143
169,13143
170,13143
171,13142
172,13142
173,13142
174,13142
175,13142
176,13142
177,13142
178,13141
179,13141
180,13140
181,13140
183,13139
184,13139
185,13138
186,13137
187,13136
187,13137
186,13137
186,13138
187,13137
188,13136
189,13135
190,13134
192,13133
195,13131
198,13128
201,13125
203,13124
205,13123
208,13120
211,13118
213,13116
214,13116
215,13115
218,13113
221,13111
222,13110
223,13109
224,13108
224,13107
226,13105
230,13101
232,13099
232,13098
233,13096
235,13094
237,13091
239,13086
241,13081
242,13079
243,13077
244,13071
245,13065
246,13062
246,13061
246,13058
247,13051
247,13043
247,13036
247,13031
247,13028
247,13027
" style="stroke:#036998;stroke-width:7;
stroke-linejoin:bevel; stroke-linecap:butt;
"/>
<!-- Line -->
<!--  spline  -->
<polyline points="142,12908
143,12907
147,12903
156,12895
165,12887
169,12883
170,12882
169,12882
165,12882
160,12882
156,12882
155,12882
153,12882
150,12882
146,12882
142,12882
138,12882
137,12882
136,12882
135,12882
131,12882
127,12882
126,12882
125,12882
124,12883
120,12883
116,12883
113,12884
111,12884
109,12884
109,12885
107,12890
106,12897
104,12902
104,12903
103,12905
102,12909
101,12913
99,12919
97,12924
97,12926
96,12927
96,12929
94,12934
92,12939
92,12940
91,12941
91,12943
89,12947
87,12952
85,12955
84,12958
83,12960
84,12959
89,12955
98,12946
107,12938
112,12934
113,12933
114,12934
117,12936
123,12940
126,12942
127,12943
129,12944
132,12946
136,12948
141,12950
146,12952
148,12952
150,12953
155,12953
160,12953
162,12953
163,12953
165,12953
170,12952
175,12951
179,12950
182,12949
184,12948
184,12947
185,12947
186,12946
187,12945
193,12940
204,12930
215,12920
221,12915
222,12914
221,12914
217,12917
212,12920
208,12923
207,12923
205,12924
201,12926
197,12927
191,12928
185,12928
183,12928
182,12928
180,12927
174,12926
168,12925
166,12924
165,12924
162,12923
157,12920
151,12916
147,12913
144,12910
142,12908
" style="stroke:#ffffff;stroke-width:0;
stroke-linejoin:bevel; stroke-linecap:butt;
fill:#ffffff;
"/>
<!-- Line -->
<!--  spline  -->
<polyline points="142,12908
143,12907
147,12903
156,12895
165,12887
169,12883
170,12882
169,12882
165,12882
160,12882
156,12882
155,12882
153,12882
150,12882
146,12882
142,12882
138,12882
137,12882
136,12882
135,12882
131,12882
127,12882
126,12882
125,12882
124,12883
120,12883
116,12883
113,12884
111,12884
109,12884
109,12885
107,12890
106,12897
104,12902
104,12903
103,12905
102,12909
101,12913
99,12919
97,12924
97,12926
96,12927
96,12929
94,12934
92,12939
92,12940
91,12941
91,12943
89,12947
87,12952
85,12955
84,12958
83,12960
84,12959
89,12955
98,12946
107,12938
112,12934
113,12933
114,12934
117,12936
123,12940
126,12942
127,12943
129,12944
132,12946
136,12948
141,12950
146,12952
148,12952
150,12953
155,12953
160,12953
162,12953
163,12953
165,12953
170,12952
175,12951
179,12950
182,12949
184,12948
184,12947
185,12947
186,12946
187,12945
193,12940
204,12930
215,12920
221,12915
222,12914
221,12914
217,12917
212,12920
208,12923
207,12923
205,12924
201,12926
197,12927
191,12928
185,12928
183,12928
182,12928
180,12927
174,12926
168,12925
166,12924
165,12924
162,12923
157,12920
151,12916
147,12913
144,12910
142,12908
" style="stroke:#036998;stroke-width:7;
stroke-linejoin:bevel; stroke-linecap:butt;
"/>
<!-- Line -->
<!--  spline  -->
<polyline points="116,12862
116,12861
115,12856
114,12850
113,12845
113,12844
113,12841
113,12837
113,12832
113,12826
113,12820
114,12818
114,12817
114,12815
115,12809
117,12804
117,12801
118,12800
119,12798
121,12793
124,12787
126,12783
128,12780
129,12778
129,12777
130,12776
130,12775
131,12774
132,12773
133,12772
134,12771
135,12770
136,12769
137,12768
138,12768
138,12767
139,12767
138,12768
132,12773
120,12783
109,12793
103,12798
102,12799
101,12800
100,12801
99,12801
99,12802
98,12803
97,12804
97,12805
96,12806
95,12807
94,12808
94,12809
93,12809
93,12810
93,12811
90,12815
87,12820
84,12824
84,12825
83,12827
82,12831
80,12835
79,12841
78,12847
78,12849
78,12850
77,12852
77,12858
77,12864
77,12866
77,12868
77,12870
77,12876
78,12882
79,12887
79,12890
80,12893
81,12892
87,12887
98,12877
109,12868
115,12863
116,12862
" style="stroke:#ffffff;stroke-width:0;
stroke-linejoin:bevel; stroke-linecap:butt;
fill:#ffffff;
"/>
<!-- Line -->
<!--  spline  -->
<polyline points="116,12862
116,12861
115,12856
114,12850
113,12845
113,12844
113,12841
113,12837
113,12832
113,12826
113,12820
114,12818
114,12817
114,12815
115,12809
117,12804
117,12801
118,12800
119,12798
121,12793
124,12787
126,12783
128,12780
129,12778
129,12777
130,12776
130,12775
131,12774
132,12773
133,12772
134,12771
135,12770
136,12769
137,12768
138,12768
138,12767
139,12767
138,12768
132,12773
120,12783
109,12793
103,12798
102,12799
101,12800
100,12801
99,12801
99,12802
98,12803
97,12804
97,12805
96,12806
95,12807
94,12808
94,12809
93,12809
93,12810
93,12811
90,12815
87,12820
84,12824
84,12825
83,12827
82,12831
80,12835
79,12841
78,12847
78,12849
78,12850
77,12852
77,12858
77,12864
77,12866
77,12868
77,12870
77,12876
78,12882
79,12887
79,12890
80,12893
81,12892
87,12887
98,12877
109,12868
115,12863
116,12862
" style="stroke:#036998;stroke-width:7;
stroke-linejoin:bevel; stroke-linecap:butt;
"/>
<!-- Line -->
<!--  spline  -->
<polyline points="187,12766
185,12765
181,12764
179,12763
178,12763
176,12762
173,12762
170,12761
167,12761
166,12760
165,12760
164,12760
161,12760
158,12760
157,12760
156,12760
155,12761
152,12761
149,12762
146,12762
144,12763
143,12763
142,12763
141,12764
140,12765
139,12765
139,12766
139,12767
138,12768
132,12773
120,12783
109,12793
103,12798
102,12799
103,12799
105,12797
110,12794
112,12792
113,12792
115,12791
117,12790
120,12788
124,12787
128,12786
130,12786
130,12785
132,12785
136,12785
140,12785
142,12785
144,12785
148,12786
152,12787
156,12788
158,12789
160,12790
159,12791
154,12795
146,12802
141,12806
140,12807
142,12807
152,12807
171,12806
190,12806
200,12806
202,12806
202,12804
204,12794
207,12775
210,12756
212,12746
212,12744
211,12745
204,12751
195,12759
188,12765
187,12766
" style="stroke:#ffffff;stroke-width:0;
stroke-linejoin:bevel; stroke-linecap:butt;
fill:#ffffff;
"/>
<!-- Line -->
<!--  spline  -->
<polyline points="187,12766
185,12765
181,12764
179,12763
178,12763
176,12762
173,12762
170,12761
167,12761
166,12760
165,12760
164,12760
161,12760
158,12760
157,12760
156,12760
155,12761
152,12761
149,12762
146,12762
144,12763
143,12763
142,12763
141,12764
140,12765
139,12765
139,12766
139,12767
138,12768
132,12773
120,12783
109,12793
103,12798
102,12799
103,12799
105,12797
110,12794
112,12792
113,12792
115,12791
117,12790
120,12788
124,12787
128,12786
130,12786
130,12785
132,12785
136,12785
140,12785
142,12785
144,12785
148,12786
152,12787
156,12788
158,12789
160,12790
159,12791
154,12795
146,12802
141,12806
140,12807
142,12807
152,12807
171,12806
190,12806
200,12806
202,12806
202,12804
204,12794
207,12775
210,12756
212,12746
212,12744
211,12745
204,12751
195,12759
188,12765
187,12766
" style="stroke:#036998;stroke-width:7;
stroke-linejoin:bevel; stroke-linecap:butt;
"/>
<!-- Line -->
<!--  spline  -->
<polyline points="233,12788
234,12789
236,12796
240,12807
242,12814
243,12815
243,12816
244,12819
245,12825
246,12832
247,12841
247,12849
247,12853
247,12854
247,12857
246,12865
245,12872
244,12876
243,12877
242,12880
240,12886
237,12892
235,12897
233,12900
232,12902
231,12903
231,12904
230,12905
229,12906
228,12907
227,12908
226,12909
225,12910
225,12911
224,12912
223,12913
222,12914
221,12915
215,12920
204,12930
193,12940
187,12945
186,12946
187,12945
188,12944
189,12943
190,12942
191,12941
192,12940
193,12939
193,12938
194,12937
194,12936
195,12936
195,12935
196,12934
199,12927
204,12917
207,12910
208,12909
208,12908
209,12905
210,12900
211,12893
212,12884
212,12876
212,12872
212,12871
211,12868
210,12860
208,12853
208,12850
207,12849
206,12846
204,12839
202,12832
200,12827
199,12823
198,12820
199,12819
205,12814
216,12804
226,12794
232,12789
233,12788
" style="stroke:#ffffff;stroke-width:0;
stroke-linejoin:bevel; stroke-linecap:butt;
fill:#ffffff;
"/>
<!-- Line -->
<!--  spline  -->
<polyline points="233,12788
234,12789
236,12796
240,12807
242,12814
243,12815
243,12816
244,12819
245,12825
246,12832
247,12841
247,12849
247,12853
247,12854
247,12857
246,12865
245,12872
244,12876
243,12877
242,12880
240,12886
237,12892
235,12897
233,12900
232,12902
231,12903
231,12904
230,12905
229,12906
228,12907
227,12908
226,12909
225,12910
225,12911
224,12912
223,12913
222,12914
221,12915
215,12920
204,12930
193,12940
187,12945
186,12946
187,12945
188,12944
189,12943
190,12942
191,12941
192,12940
193,12939
193,12938
194,12937
194,12936
195,12936
195,12935
196,12934
199,12927
204,12917
207,12910
208,12909
208,12908
209,12905
210,12900
211,12893
212,12884
212,12876
212,12872
212,12871
211,12868
210,12860
208,12853
208,12850
207,12849
206,12846
204,12839
202,12832
200,12827
199,12823
198,12820
199,12819
205,12814
216,12804
226,12794
232,12789
233,12788
" style="stroke:#036998;stroke-width:7;
stroke-linejoin:bevel; stroke-linecap:butt;
"/>
<!-- Line -->
<!--  spline  -->
<polyline points="184,12755
184,12754
185,12754
186,12753
187,12752
193,12747
204,12737
215,12727
221,12722
222,12721
221,12722
217,12724
211,12728
207,12730
206,12731
203,12732
200,12733
195,12734
189,12735
183,12735
181,12735
180,12735
178,12734
172,12733
166,12731
164,12731
163,12730
161,12729
155,12726
149,12722
145,12718
141,12715
139,12712
138,12713
134,12717
125,12725
116,12733
112,12737
111,12738
112,12739
115,12741
121,12746
124,12748
125,12749
127,12750
130,12752
134,12754
139,12756
144,12758
146,12758
147,12759
149,12759
154,12760
159,12760
161,12760
162,12760
164,12760
169,12759
174,12758
179,12757
182,12756
184,12755
" style="stroke:#ffffff;stroke-width:0;
stroke-linejoin:bevel; stroke-linecap:butt;
fill:#ffffff;
"/>
<!-- Line -->
<!--  spline  -->
<polyline points="184,12755
184,12754
185,12754
186,12753
187,12752
193,12747
204,12737
215,12727
221,12722
222,12721
221,12722
217,12724
211,12728
207,12730
206,12731
203,12732
200,12733
195,12734
189,12735
183,12735
181,12735
180,12735
178,12734
172,12733
166,12731
164,12731
163,12730
161,12729
155,12726
149,12722
145,12718
141,12715
139,12712
138,12713
134,12717
125,12725
116,12733
112,12737
111,12738
112,12739
115,12741
121,12746
124,12748
125,12749
127,12750
130,12752
134,12754
139,12756
144,12758
146,12758
147,12759
149,12759
154,12760
159,12760
161,12760
162,12760
164,12760
169,12759
174,12758
179,12757
182,12756
184,12755
" style="stroke:#036998;stroke-width:7;
stroke-linejoin:bevel; stroke-linecap:butt;
"/>
<!-- Line -->
<!--  spline  -->
<polyline points="142,12646
141,12647
134,12653
124,12662
117,12668
116,12669
116,12668
115,12663
114,12657
113,12652
113,12651
113,12648
113,12644
113,12639
113,12633
113,12627
114,12625
114,12624
114,12622
115,12616
116,12611
117,12608
117,12607
118,12605
120,12600
123,12594
125,12590
127,12587
129,12585
129,12584
130,12583
130,12582
131,12581
132,12580
133,12579
134,12578
135,12577
136,12576
137,12575
138,12575
138,12574
139,12574
138,12575
132,12580
120,12590
109,12600
103,12605
102,12606
101,12607
100,12608
99,12608
99,12609
98,12610
97,12611
97,12612
96,12613
95,12614
94,12615
94,12616
93,12617
93,12618
93,12619
90,12622
87,12628
84,12631
84,12632
83,12634
82,12638
80,12642
79,12648
78,12654
78,12656
78,12657
77,12660
77,12666
77,12672
77,12675
77,12676
77,12678
77,12684
78,12690
79,12695
79,12698
80,12701
79,12702
72,12708
63,12717
56,12723
55,12724
56,12724
58,12724
62,12724
64,12724
65,12724
67,12724
69,12724
72,12724
76,12724
80,12724
82,12724
84,12724
88,12724
92,12724
94,12724
95,12724
96,12723
101,12723
106,12723
110,12722
114,12722
116,12722
116,12721
117,12717
119,12712
120,12708
120,12707
121,12705
121,12702
122,12698
124,12693
126,12688
126,12686
127,12684
129,12679
131,12674
132,12672
132,12671
133,12669
135,12663
137,12657
139,12652
141,12649
142,12646
" style="stroke:#ffffff;stroke-width:0;
stroke-linejoin:bevel; stroke-linecap:butt;
fill:#ffffff;
"/>
<!-- Line -->
<!--  spline  -->
<polyline points="142,12646
141,12647
134,12653
124,12662
117,12668
116,12669
116,12668
115,12663
114,12657
113,12652
113,12651
113,12648
113,12644
113,12639
113,12633
113,12627
114,12625
114,12624
114,12622
115,12616
116,12611
117,12608
117,12607
118,12605
120,12600
123,12594
125,12590
127,12587
129,12585
129,12584
130,12583
130,12582
131,12581
132,12580
133,12579
134,12578
135,12577
136,12576
137,12575
138,12575
138,12574
139,12574
138,12575
132,12580
120,12590
109,12600
103,12605
102,12606
101,12607
100,12608
99,12608
99,12609
98,12610
97,12611
97,12612
96,12613
95,12614
94,12615
94,12616
93,12617
93,12618
93,12619
90,12622
87,12628
84,12631
84,12632
83,12634
82,12638
80,12642
79,12648
78,12654
78,12656
78,12657
77,12660
77,12666
77,12672
77,12675
77,12676
77,12678
77,12684
78,12690
79,12695
79,12698
80,12701
79,12702
72,12708
63,12717
56,12723
55,12724
56,12724
58,12724
62,12724
64,12724
65,12724
67,12724
69,12724
72,12724
76,12724
80,12724
82,12724
84,12724
88,12724
92,12724
94,12724
95,12724
96,12723
101,12723
106,12723
110,12722
114,12722
116,12722
116,12721
117,12717
119,12712
120,12708
120,12707
121,12705
121,12702
122,12698
124,12693
126,12688
126,12686
127,12684
129,12679
131,12674
132,12672
132,12671
133,12669
135,12663
137,12657
139,12652
141,12649
142,12646
" style="stroke:#036998;stroke-width:7;
stroke-linejoin:bevel; stroke-linecap:butt;
"/>
<!-- Line -->
<!--  spline  -->
<polyline points="269,12602
268,12603
261,12609
252,12618
245,12624
244,12625
244,12626
245,12631
246,12637
247,12642
247,12643
247,12646
247,12650
247,12655
247,12661
247,12667
246,12669
246,12670
246,12672
245,12678
244,12684
243,12686
243,12687
242,12690
240,12695
237,12700
235,12704
233,12707
232,12709
231,12710
231,12711
230,12712
229,12712
229,12713
228,12714
227,12715
227,12716
226,12717
225,12718
224,12719
223,12720
222,12721
221,12722
215,12727
204,12737
193,12747
187,12752
186,12753
187,12752
188,12751
189,12750
190,12749
191,12748
192,12747
193,12746
194,12745
194,12744
195,12743
195,12742
195,12741
198,12737
201,12732
204,12728
204,12727
205,12725
206,12721
208,12717
209,12711
210,12705
210,12703
210,12702
211,12700
211,12694
211,12688
211,12686
211,12685
211,12682
211,12676
210,12669
209,12665
209,12661
208,12658
207,12659
200,12665
190,12674
183,12680
182,12681
182,12680
184,12677
186,12671
188,12668
188,12667
189,12665
190,12663
191,12659
193,12654
195,12649
195,12647
196,12646
196,12644
198,12639
200,12634
200,12632
201,12631
201,12629
203,12623
205,12616
206,12611
207,12607
208,12605
208,12604
209,12604
211,12604
216,12604
218,12604
219,12604
220,12604
222,12604
225,12603
229,12603
233,12603
234,12602
235,12602
237,12602
241,12602
245,12602
247,12602
248,12602
249,12602
254,12602
259,12602
263,12602
267,12602
269,12602
" style="stroke:#ffffff;stroke-width:0;
stroke-linejoin:bevel; stroke-linecap:butt;
fill:#ffffff;
"/>
<!-- Line -->
<!--  spline  -->
<polyline points="269,12602
268,12603
261,12609
252,12618
245,12624
244,12625
244,12626
245,12631
246,12637
247,12642
247,12643
247,12646
247,12650
247,12655
247,12661
247,12667
246,12669
246,12670
246,12672
245,12678
244,12684
243,12686
243,12687
242,12690
240,12695
237,12700
235,12704
233,12707
232,12709
231,12710
231,12711
230,12712
229,12712
229,12713
228,12714
227,12715
227,12716
226,12717
225,12718
224,12719
223,12720
222,12721
221,12722
215,12727
204,12737
193,12747
187,12752
186,12753
187,12752
188,12751
189,12750
190,12749
191,12748
192,12747
193,12746
194,12745
194,12744
195,12743
195,12742
195,12741
198,12737
201,12732
204,12728
204,12727
205,12725
206,12721
208,12717
209,12711
210,12705
210,12703
210,12702
211,12700
211,12694
211,12688
211,12686
211,12685
211,12682
211,12676
210,12669
209,12665
209,12661
208,12658
207,12659
200,12665
190,12674
183,12680
182,12681
182,12680
184,12677
186,12671
188,12668
188,12667
189,12665
190,12663
191,12659
193,12654
195,12649
195,12647
196,12646
196,12644
198,12639
200,12634
200,12632
201,12631
201,12629
203,12623
205,12616
206,12611
207,12607
208,12605
208,12604
209,12604
211,12604
216,12604
218,12604
219,12604
220,12604
222,12604
225,12603
229,12603
233,12603
234,12602
235,12602
237,12602
241,12602
245,12602
247,12602
248,12602
249,12602
254,12602
259,12602
263,12602
267,12602
269,12602
" style="stroke:#036998;stroke-width:7;
stroke-linejoin:bevel; stroke-linecap:butt;
"/>
<!-- Line -->
<!--  spline  -->
<polyline points="291,12568
290,12568
285,12568
273,12568
254,12568
230,12568
206,12568
187,12568
175,12568
170,12568
169,12568
167,12568
166,12567
164,12567
163,12567
162,12567
161,12567
159,12567
157,12567
156,12567
154,12567
152,12567
151,12567
151,12568
149,12568
147,12569
145,12569
144,12570
143,12570
142,12570
141,12571
140,12572
139,12572
139,12573
139,12574
138,12575
132,12580
120,12590
109,12600
103,12605
102,12606
103,12605
107,12603
113,12599
117,12597
118,12596
121,12595
124,12594
129,12593
135,12592
141,12592
143,12592
144,12592
146,12593
152,12594
158,12596
160,12597
161,12597
163,12599
169,12602
175,12606
179,12610
183,12613
185,12615
186,12614
193,12608
202,12600
209,12594
210,12593
212,12593
221,12593
237,12593
253,12593
262,12593
264,12593
265,12592
269,12588
278,12580
286,12573
290,12569
291,12568
" style="stroke:#ffffff;stroke-width:0;
stroke-linejoin:bevel; stroke-linecap:butt;
fill:#ffffff;
"/>
<!-- Line -->
<!--  spline  -->
<polyline points="291,12568
290,12568
285,12568
273,12568
254,12568
230,12568
206,12568
187,12568
175,12568
170,12568
169,12568
167,12568
166,12567
164,12567
163,12567
162,12567
161,12567
159,12567
157,12567
156,12567
154,12567
152,12567
151,12567
151,12568
149,12568
147,12569
145,12569
144,12570
143,12570
142,12570
141,12571
140,12572
139,12572
139,12573
139,12574
138,12575
132,12580
120,12590
109,12600
103,12605
102,12606
103,12605
107,12603
113,12599
117,12597
118,12596
121,12595
124,12594
129,12593
135,12592
141,12592
143,12592
144,12592
146,12593
152,12594
158,12596
160,12597
161,12597
163,12599
169,12602
175,12606
179,12610
183,12613
185,12615
186,12614
193,12608
202,12600
209,12594
210,12593
212,12593
221,12593
237,12593
253,12593
262,12593
264,12593
265,12592
269,12588
278,12580
286,12573
290,12569
291,12568
" style="stroke:#036998;stroke-width:7;
stroke-linejoin:bevel; stroke-linecap:butt;
"/>
</g>
</svg>
