<?xml version="1.0" standalone="no"?>
<!DOCTYPE svg PUBLIC "-//W3C//DTD SVG 1.1//EN"
"http://www.w3.org/Graphics/SVG/1.1/DTD/svg11.dtd">
<!-- Creator: fig2dev Version 3.2 Patchlevel 5c -->
<!-- CreationDate: Fri Sep 14 10:46:56 2012 -->
<!-- Magnification: 1.000 -->
<svg xmlns="http://www.w3.org/2000/svg" width="0.4in" height="0.6in" viewBox="4851 6252 527 707">
<g style="stroke-width:.025in; fill:none">
<!-- Line -->
<!--  polyline  -->
<polyline points="4863,6947
4863,6501
5310,6501
5310,6947
4863,6947
" style="stroke:#00a5d4;stroke-width:0;
stroke-linejoin:miter; stroke-linecap:butt;
fill:#00a5d4;
"/>
<!-- Line -->
<!--  polyline  -->
<polyline points="4863,6947
4863,6501
5310,6501
5310,6947
4863,6947
" style="stroke:#ffffff;stroke-width:7;
stroke-linejoin:miter; stroke-linecap:butt;
"/>
<!-- Line -->
<!--  polyline  -->
<polyline points="5366,6891
5366,6445
5310,6501
5310,6947
5366,6891
" style="stroke:#00a5d4;stroke-width:0;
stroke-linejoin:miter; stroke-linecap:butt;
fill:#00a5d4;
"/>
<!-- Line -->
<!--  polyline  -->
<polyline points="5366,6891
5366,6445
5310,6501
5310,6947
5366,6891
" style="stroke:#ffffff;stroke-width:7;
stroke-linejoin:miter; stroke-linecap:butt;
"/>
<!-- Line -->
<!--  polyline  -->
<polyline points="4945,6264
4863,6320
5310,6320
5366,6264
4945,6264
" style="stroke:#00a5d4;stroke-width:0;
stroke-linejoin:miter; stroke-linecap:butt;
fill:#00a5d4;
"/>
<!-- Line -->
<!--  polyline  -->
<polyline points="4945,6264
4863,6320
5310,6320
5366,6264
4945,6264
" style="stroke:#ffffff;stroke-width:7;
stroke-linejoin:miter; stroke-linecap:butt;
"/>
<!-- Line -->
<!--  polyline  -->
<polyline points="4863,6501
4863,6320
5310,6320
5310,6501
4863,6501
" style="stroke:#00a5d4;stroke-width:0;
stroke-linejoin:miter; stroke-linecap:butt;
fill:#00a5d4;
"/>
<!-- Line -->
<!--  polyline  -->
<polyline points="4863,6501
4863,6320
5310,6320
5310,6501
4863,6501
" style="stroke:#ffffff;stroke-width:7;
stroke-linejoin:miter; stroke-linecap:butt;
"/>
<!-- Line -->
<!--  polyline  -->
<polyline points="5366,6445
5366,6264
5310,6320
5310,6501
5366,6445
" style="stroke:#00a5d4;stroke-width:0;
stroke-linejoin:miter; stroke-linecap:butt;
fill:#00a5d4;
"/>
<!-- Line -->
<!--  polyline  -->
<polyline points="5366,6445
5366,6264
5310,6320
5310,6501
5366,6445
" style="stroke:#ffffff;stroke-width:7;
stroke-linejoin:miter; stroke-linecap:butt;
"/>
<!-- Line -->
<!--  polyline  -->
<polyline points="5310,6501
4863,6501
" style="stroke:#00a5d4;stroke-width:0;
stroke-linejoin:miter; stroke-linecap:butt;
fill:#00a5d4;
"/>
<!-- Line -->
<!--  polyline  -->
<polyline points="5310,6501
4863,6501
" style="stroke:#ffffff;stroke-width:7;
stroke-linejoin:miter; stroke-linecap:butt;
"/>
<!-- Line -->
<!--  polyline  -->
<polyline points="5310,6501
5366,6445
" style="stroke:#00a5d4;stroke-width:0;
stroke-linejoin:miter; stroke-linecap:butt;
fill:#00a5d4;
"/>
<!-- Line -->
<!--  polyline  -->
<polyline points="5310,6501
5366,6445
" style="stroke:#ffffff;stroke-width:7;
stroke-linejoin:miter; stroke-linecap:butt;
"/>
<!-- Line -->
<!--  polyline  -->
<polyline points="5008,6381
5008,6344
4936,6344
4936,6381
5008,6381
" style="stroke:#ffffff;stroke-width:0;
stroke-linejoin:miter; stroke-linecap:butt;
fill:#ffffff;
"/>
<!-- Line -->
<!--  polyline  -->
<polyline points="5173,6381
5173,6344
5245,6344
5245,6381
5173,6381
" style="stroke:#ffffff;stroke-width:0;
stroke-linejoin:miter; stroke-linecap:butt;
fill:#ffffff;
"/>
<!-- Line -->
<!--  polyline  -->
<polyline points="5008,6475
5008,6438
4936,6438
4936,6475
5008,6475
" style="stroke:#ffffff;stroke-width:0;
stroke-linejoin:miter; stroke-linecap:butt;
fill:#ffffff;
"/>
<!-- Line -->
<!--  polyline  -->
<polyline points="5173,6475
5173,6438
5245,6438
5245,6475
5173,6475
" style="stroke:#ffffff;stroke-width:0;
stroke-linejoin:miter; stroke-linecap:butt;
fill:#ffffff;
"/>
<!-- Line -->
<!--  polyline  -->
<polyline points="4985,6363
5206,6363
" style="stroke:#000000;stroke-width:0;
stroke-linejoin:miter; stroke-linecap:butt;
fill:#000000;
"/>
<!-- Line -->
<!--  polyline  -->
<polyline points="4985,6363
5206,6363
" style="stroke:#ffffff;stroke-width:7;
stroke-linejoin:miter; stroke-linecap:butt;
"/>
<!-- Line -->
<!--  polyline  -->
<polyline points="4985,6456
5206,6456
" style="stroke:#000000;stroke-width:0;
stroke-linejoin:miter; stroke-linecap:butt;
fill:#000000;
"/>
<!-- Line -->
<!--  polyline  -->
<polyline points="4985,6456
5206,6456
" style="stroke:#ffffff;stroke-width:7;
stroke-linejoin:miter; stroke-linecap:butt;
"/>
<!-- Line -->
<!--  polyline  -->
<polyline points="4972,6456
5206,6363
" style="stroke:#000000;stroke-width:0;
stroke-linejoin:miter; stroke-linecap:butt;
fill:#000000;
"/>
<!-- Line -->
<!--  polyline  -->
<polyline points="4972,6456
5206,6363
" style="stroke:#ffffff;stroke-width:7;
stroke-linejoin:miter; stroke-linecap:butt;
"/>
<!-- Line -->
<!--  polyline  -->
<polyline points="4972,6363
5206,6456
" style="stroke:#000000;stroke-width:0;
stroke-linejoin:miter; stroke-linecap:butt;
fill:#000000;
"/>
<!-- Line -->
<!--  polyline  -->
<polyline points="4972,6363
5206,6456
" style="stroke:#ffffff;stroke-width:7;
stroke-linejoin:miter; stroke-linecap:butt;
"/>
<!-- Line -->
<!--  polyline  -->
<polyline points="4985,6602
4985,6563
4992,6563
4982,6549
4972,6563
4979,6563
4979,6602
4985,6602
" style="stroke:#ffffff;stroke-width:0;
stroke-linejoin:miter; stroke-linecap:butt;
fill:#ffffff;
"/>
<!-- Line -->
<!--  polyline  -->
<polyline points="4965,6608
4938,6580
4943,6576
4925,6572
4929,6589
4934,6585
4961,6612
4965,6608
" style="stroke:#ffffff;stroke-width:0;
stroke-linejoin:miter; stroke-linecap:butt;
fill:#ffffff;
"/>
<!-- Line -->
<!--  polyline  -->
<polyline points="4955,6625
4917,6625
4917,6619
4902,6629
4917,6638
4917,6632
4955,6632
4955,6625
" style="stroke:#ffffff;stroke-width:0;
stroke-linejoin:miter; stroke-linecap:butt;
fill:#ffffff;
"/>
<!-- Line -->
<!--  polyline  -->
<polyline points="4961,6645
4934,6673
4929,6668
4925,6685
4943,6682
4938,6677
4965,6650
4961,6645
" style="stroke:#ffffff;stroke-width:0;
stroke-linejoin:miter; stroke-linecap:butt;
fill:#ffffff;
"/>
<!-- Line -->
<!--  polyline  -->
<polyline points="4979,6655
4979,6694
4972,6694
4982,6708
4992,6694
4985,6694
4985,6655
4979,6655
" style="stroke:#ffffff;stroke-width:0;
stroke-linejoin:miter; stroke-linecap:butt;
fill:#ffffff;
"/>
<!-- Line -->
<!--  polyline  -->
<polyline points="5009,6632
5047,6632
5047,6638
5062,6629
5047,6619
5047,6625
5009,6625
5009,6632
" style="stroke:#ffffff;stroke-width:0;
stroke-linejoin:miter; stroke-linecap:butt;
fill:#ffffff;
"/>
<!-- Line -->
<!--  polyline  -->
<polyline points="5003,6612
5030,6585
5035,6589
5038,6572
5021,6576
5026,6580
4999,6608
5003,6612
" style="stroke:#ffffff;stroke-width:0;
stroke-linejoin:miter; stroke-linecap:butt;
fill:#ffffff;
"/>
<!-- Line -->
<!--  spline  -->
<polyline points="5006,6661
5009,6658
5012,6655
5015,6652
5016,6650
5018,6648
5019,6645
5021,6641
5022,6637
5023,6635
5023,6633
5023,6629
5023,6625
5023,6623
5022,6621
5021,6617
5019,6613
5018,6609
5016,6607
5015,6605
5012,6602
5009,6599
5006,6596
5005,6595
5003,6593
5000,6592
4996,6590
4992,6589
4990,6588
4989,6588
4987,6588
4983,6588
4979,6588
4977,6588
4977,6589
4975,6589
4971,6590
4967,6591
4964,6593
4962,6594
4960,6595
4959,6595
4957,6598
4953,6601
4951,6604
4950,6604
4949,6606
4948,6608
4946,6611
4945,6615
4944,6619
4944,6621
4943,6621
4943,6623
4943,6627
4943,6631
4943,6633
4943,6634
4943,6636
4944,6640
4946,6644
4947,6647
4949,6649
4950,6651
4953,6654
4956,6657
4959,6660
4961,6661
4963,6663
4966,6664
4970,6666
4974,6667
4976,6668
4978,6668
4982,6668
4986,6668
4988,6668
4990,6668
4994,6667
4998,6665
5002,6664
5004,6662
5006,6661
" style="stroke:#ffffff;stroke-width:0;
stroke-linejoin:bevel; stroke-linecap:butt;
fill:#ffffff;
"/>
<!-- Line -->
<!--  polyline  -->
<polyline points="4985,6813
4985,6774
4992,6774
4982,6760
4972,6774
4979,6774
4979,6813
4985,6813
" style="stroke:#ffffff;stroke-width:0;
stroke-linejoin:miter; stroke-linecap:butt;
fill:#ffffff;
"/>
<!-- Line -->
<!--  polyline  -->
<polyline points="4965,6819
4938,6791
4943,6787
4925,6783
4929,6800
4934,6796
4961,6823
4965,6819
" style="stroke:#ffffff;stroke-width:0;
stroke-linejoin:miter; stroke-linecap:butt;
fill:#ffffff;
"/>
<!-- Line -->
<!--  polyline  -->
<polyline points="4955,6837
4917,6837
4917,6830
4902,6840
4917,6849
4917,6843
4955,6843
4955,6837
" style="stroke:#ffffff;stroke-width:0;
stroke-linejoin:miter; stroke-linecap:butt;
fill:#ffffff;
"/>
<!-- Line -->
<!--  polyline  -->
<polyline points="4961,6856
4934,6884
4929,6879
4925,6896
4943,6893
4938,6888
4965,6861
4961,6856
" style="stroke:#ffffff;stroke-width:0;
stroke-linejoin:miter; stroke-linecap:butt;
fill:#ffffff;
"/>
<!-- Line -->
<!--  polyline  -->
<polyline points="4979,6866
4979,6905
4972,6905
4982,6920
4992,6905
4985,6905
4985,6866
4979,6866
" style="stroke:#ffffff;stroke-width:0;
stroke-linejoin:miter; stroke-linecap:butt;
fill:#ffffff;
"/>
<!-- Line -->
<!--  polyline  -->
<polyline points="4999,6861
5026,6888
5021,6893
5038,6896
5035,6879
5030,6884
5003,6856
4999,6861
" style="stroke:#ffffff;stroke-width:0;
stroke-linejoin:miter; stroke-linecap:butt;
fill:#ffffff;
"/>
<!-- Line -->
<!--  polyline  -->
<polyline points="5009,6843
5047,6843
5047,6849
5062,6840
5047,6830
5047,6837
5009,6837
5009,6843
" style="stroke:#ffffff;stroke-width:0;
stroke-linejoin:miter; stroke-linecap:butt;
fill:#ffffff;
"/>
<!-- Line -->
<!--  spline  -->
<polyline points="5006,6872
5009,6869
5012,6866
5015,6863
5016,6861
5018,6859
5019,6856
5021,6852
5022,6848
5023,6846
5023,6844
5023,6840
5023,6836
5023,6834
5022,6832
5021,6828
5019,6824
5018,6820
5016,6818
5015,6816
5012,6813
5009,6810
5006,6807
5005,6806
5003,6804
5000,6803
4996,6801
4992,6800
4990,6799
4989,6799
4987,6799
4983,6799
4979,6799
4977,6799
4975,6800
4971,6801
4967,6803
4964,6804
4962,6806
4960,6807
4959,6807
4957,6809
4953,6813
4951,6815
4950,6815
4949,6817
4948,6819
4946,6822
4945,6826
4944,6830
4944,6832
4943,6832
4943,6834
4943,6838
4943,6842
4943,6844
4943,6845
4943,6847
4944,6851
4946,6855
4947,6858
4949,6860
4950,6862
4953,6865
4956,6868
4959,6871
4961,6872
4963,6874
4966,6875
4970,6877
4974,6878
4976,6879
4978,6879
4982,6879
4986,6879
4988,6879
4990,6879
4994,6878
4998,6876
5002,6875
5004,6873
5006,6872
" style="stroke:#ffffff;stroke-width:0;
stroke-linejoin:bevel; stroke-linecap:butt;
fill:#ffffff;
"/>
<!-- Line -->
<!--  polyline  -->
<polyline points="5196,6602
5196,6563
5203,6563
5193,6549
5183,6563
5190,6563
5190,6602
5196,6602
" style="stroke:#ffffff;stroke-width:0;
stroke-linejoin:miter; stroke-linecap:butt;
fill:#ffffff;
"/>
<!-- Line -->
<!--  polyline  -->
<polyline points="5176,6608
5149,6580
5154,6576
5137,6572
5140,6589
5145,6585
5172,6612
5176,6608
" style="stroke:#ffffff;stroke-width:0;
stroke-linejoin:miter; stroke-linecap:butt;
fill:#ffffff;
"/>
<!-- Line -->
<!--  polyline  -->
<polyline points="5166,6625
5128,6625
5128,6619
5113,6629
5128,6638
5128,6632
5166,6632
5166,6625
" style="stroke:#ffffff;stroke-width:0;
stroke-linejoin:miter; stroke-linecap:butt;
fill:#ffffff;
"/>
<!-- Line -->
<!--  polyline  -->
<polyline points="5190,6655
5190,6694
5183,6694
5193,6708
5203,6694
5196,6694
5196,6655
5190,6655
" style="stroke:#ffffff;stroke-width:0;
stroke-linejoin:miter; stroke-linecap:butt;
fill:#ffffff;
"/>
<!-- Line -->
<!--  polyline  -->
<polyline points="5210,6650
5237,6677
5232,6682
5249,6685
5246,6668
5241,6673
5214,6645
5210,6650
" style="stroke:#ffffff;stroke-width:0;
stroke-linejoin:miter; stroke-linecap:butt;
fill:#ffffff;
"/>
<!-- Line -->
<!--  polyline  -->
<polyline points="5220,6632
5258,6632
5258,6638
5273,6629
5258,6619
5258,6625
5220,6625
5220,6632
" style="stroke:#ffffff;stroke-width:0;
stroke-linejoin:miter; stroke-linecap:butt;
fill:#ffffff;
"/>
<!-- Line -->
<!--  polyline  -->
<polyline points="5214,6612
5241,6585
5246,6589
5249,6572
5232,6576
5237,6580
5210,6608
5214,6612
" style="stroke:#ffffff;stroke-width:0;
stroke-linejoin:miter; stroke-linecap:butt;
fill:#ffffff;
"/>
<!-- Line -->
<!--  spline  -->
<polyline points="5217,6661
5220,6658
5223,6655
5226,6652
5227,6650
5229,6648
5230,6645
5232,6641
5233,6637
5234,6635
5234,6633
5234,6629
5234,6625
5234,6623
5233,6621
5232,6617
5230,6613
5229,6609
5227,6607
5226,6605
5224,6602
5220,6599
5218,6596
5216,6595
5214,6593
5211,6592
5207,6590
5203,6589
5201,6588
5199,6588
5195,6588
5191,6588
5189,6588
5188,6589
5186,6589
5182,6590
5178,6591
5175,6593
5173,6594
5171,6595
5168,6598
5165,6601
5162,6604
5161,6606
5159,6608
5158,6611
5156,6615
5155,6619
5154,6621
5154,6623
5154,6627
5154,6631
5154,6633
5154,6634
5154,6636
5155,6640
5157,6644
5158,6647
5160,6649
5161,6651
5164,6654
5167,6657
5170,6660
5172,6661
5174,6663
5177,6664
5181,6666
5185,6667
5187,6668
5189,6668
5193,6668
5197,6668
5199,6668
5201,6668
5205,6667
5209,6665
5213,6664
5215,6662
5217,6661
" style="stroke:#ffffff;stroke-width:0;
stroke-linejoin:bevel; stroke-linecap:butt;
fill:#ffffff;
"/>
<!-- Line -->
<!--  polyline  -->
<polyline points="5196,6813
5196,6774
5203,6774
5193,6760
5183,6774
5190,6774
5190,6813
5196,6813
" style="stroke:#ffffff;stroke-width:0;
stroke-linejoin:miter; stroke-linecap:butt;
fill:#ffffff;
"/>
<!-- Line -->
<!--  polyline  -->
<polyline points="5166,6837
5128,6837
5128,6830
5113,6840
5128,6849
5128,6843
5166,6843
5166,6837
" style="stroke:#ffffff;stroke-width:0;
stroke-linejoin:miter; stroke-linecap:butt;
fill:#ffffff;
"/>
<!-- Line -->
<!--  polyline  -->
<polyline points="5172,6856
5145,6884
5140,6879
5137,6896
5154,6893
5149,6888
5176,6861
5172,6856
" style="stroke:#ffffff;stroke-width:0;
stroke-linejoin:miter; stroke-linecap:butt;
fill:#ffffff;
"/>
<!-- Line -->
<!--  polyline  -->
<polyline points="5190,6866
5190,6905
5183,6905
5193,6920
5203,6905
5196,6905
5196,6866
5190,6866
" style="stroke:#ffffff;stroke-width:0;
stroke-linejoin:miter; stroke-linecap:butt;
fill:#ffffff;
"/>
<!-- Line -->
<!--  polyline  -->
<polyline points="5210,6861
5237,6888
5232,6893
5249,6896
5246,6879
5241,6884
5214,6856
5210,6861
" style="stroke:#ffffff;stroke-width:0;
stroke-linejoin:miter; stroke-linecap:butt;
fill:#ffffff;
"/>
<!-- Line -->
<!--  polyline  -->
<polyline points="5220,6843
5258,6843
5258,6849
5273,6840
5258,6830
5258,6837
5220,6837
5220,6843
" style="stroke:#ffffff;stroke-width:0;
stroke-linejoin:miter; stroke-linecap:butt;
fill:#ffffff;
"/>
<!-- Line -->
<!--  polyline  -->
<polyline points="5214,6823
5241,6796
5246,6800
5249,6783
5232,6787
5237,6791
5210,6819
5214,6823
" style="stroke:#ffffff;stroke-width:0;
stroke-linejoin:miter; stroke-linecap:butt;
fill:#ffffff;
"/>
<!-- Line -->
<!--  spline  -->
<polyline points="5217,6872
5220,6869
5223,6866
5226,6863
5227,6861
5229,6859
5230,6856
5232,6852
5233,6848
5234,6846
5234,6844
5234,6840
5234,6836
5234,6834
5233,6832
5232,6828
5230,6824
5229,6820
5227,6818
5226,6816
5224,6813
5220,6810
5218,6807
5216,6806
5214,6804
5211,6803
5207,6801
5203,6800
5201,6799
5199,6799
5195,6799
5191,6799
5189,6799
5188,6799
5186,6800
5182,6801
5178,6803
5175,6804
5173,6806
5171,6807
5168,6809
5165,6813
5162,6815
5161,6817
5159,6819
5158,6822
5156,6826
5155,6830
5154,6832
5154,6834
5154,6838
5154,6842
5154,6844
5154,6845
5154,6847
5155,6851
5157,6855
5158,6858
5160,6860
5161,6862
5164,6865
5167,6868
5170,6871
5172,6872
5174,6874
5177,6875
5181,6877
5185,6878
5187,6879
5189,6879
5193,6879
5197,6879
5199,6879
5201,6879
5205,6878
5209,6876
5213,6875
5215,6873
5217,6872
" style="stroke:#ffffff;stroke-width:0;
stroke-linejoin:bevel; stroke-linecap:butt;
fill:#ffffff;
"/>
<!-- Line -->
<!--  polyline  -->
<polyline points="5003,6650
5175,6822
" style="stroke:#ffffff;stroke-width:15;
stroke-linejoin:miter; stroke-linecap:butt;
"/>
<!-- Line -->
<!--  polyline  -->
<polyline points="4999,6822
5177,6644
" style="stroke:#ffffff;stroke-width:15;
stroke-linejoin:miter; stroke-linecap:butt;
"/>
</g>
</svg>
