<?xml version="1.0" standalone="no"?>
<!DOCTYPE svg PUBLIC "-//W3C//DTD SVG 1.1//EN"
"http://www.w3.org/Graphics/SVG/1.1/DTD/svg11.dtd">
<!-- Creator: fig2dev Version 3.2 Patchlevel 5c -->
<!-- CreationDate: Fri Sep 14 10:46:56 2012 -->
<!-- Magnification: 1.000 -->
<svg xmlns="http://www.w3.org/2000/svg" width="0.4in" height="0.4in" viewBox="-3 12740 458 464">
<g style="stroke-width:.025in; fill:none">
<!-- Line -->
<!--  polyline  -->
<polyline points="369,13192
369,12826
9,12826
9,13192
369,13192
" style="stroke:#036998;stroke-width:0;
stroke-linejoin:miter; stroke-linecap:butt;
fill:#036998;
"/>
<!-- Line -->
<!--  polyline  -->
<polyline points="369,13192
369,12826
9,12826
9,13192
369,13192
" style="stroke:#ffffff;stroke-width:7;
stroke-linejoin:miter; stroke-linecap:butt;
"/>
<!-- Line -->
<!--  spline  -->
<polyline points="190,13086
191,13086
197,13085
207,13083
213,13082
214,13082
215,13082
217,13081
222,13079
228,13076
235,13071
241,13066
244,13064
245,13063
247,13060
252,13054
256,13047
258,13045
259,13044
260,13040
263,13033
265,13025
266,13018
267,13013
267,13010
267,13009
267,13008
266,13001
264,12992
263,12985
263,12984
263,12983
262,12981
260,12976
257,12970
252,12963
247,12957
245,12954
244,12953
241,12951
235,12946
228,12942
226,12940
225,12939
221,12938
214,12935
206,12933
199,12932
194,12931
191,12931
190,12931
189,12931
182,12932
173,12934
166,12935
165,12935
164,12935
162,12936
157,12938
151,12941
144,12946
138,12951
135,12953
134,12954
132,12957
127,12963
123,12970
121,12972
120,12973
119,12976
116,12984
114,12993
113,12999
112,13005
112,13008
112,13009
112,13010
113,13016
115,13026
116,13032
116,13033
116,13034
117,13036
119,13041
122,13047
127,13054
132,13060
134,13063
135,13064
138,13066
144,13071
151,13075
153,13077
154,13078
157,13079
165,13082
174,13084
180,13085
186,13086
189,13086
190,13086
" style="stroke:#ffffff;stroke-width:15;
stroke-linejoin:bevel; stroke-linecap:butt;
"/>
<!-- Line -->
<!--  polyline  -->
<polyline points="190,12931
324,12931
" style="stroke:#ffffff;stroke-width:15;
stroke-linejoin:miter; stroke-linecap:butt;
"/>
<!-- Line -->
<!--  polyline  -->
<polyline points="301,12890
301,12970
349,12932
301,12890
" style="stroke:#ffffff;stroke-width:0;
stroke-linejoin:miter; stroke-linecap:butt;
fill:#ffffff;
"/>
<!-- Line -->
<!--  polyline  -->
<polyline points="301,12890
301,12970
349,12932
301,12890
" style="stroke:#ffffff;stroke-width:7;
stroke-linejoin:miter; stroke-linecap:butt;
"/>
<!-- Line -->
<!--  polyline  -->
<polyline points="112,13009
112,12875
" style="stroke:#ffffff;stroke-width:15;
stroke-linejoin:miter; stroke-linecap:butt;
"/>
<!-- Line -->
<!--  polyline  -->
<polyline points="72,12897
152,12897
114,12849
72,12897
" style="stroke:#ffffff;stroke-width:0;
stroke-linejoin:miter; stroke-linecap:butt;
fill:#ffffff;
"/>
<!-- Line -->
<!--  polyline  -->
<polyline points="72,12897
152,12897
114,12849
72,12897
" style="stroke:#ffffff;stroke-width:7;
stroke-linejoin:miter; stroke-linecap:butt;
"/>
<!-- Line -->
<!--  polyline  -->
<polyline points="267,13008
267,13143
" style="stroke:#ffffff;stroke-width:15;
stroke-linejoin:miter; stroke-linecap:butt;
"/>
<!-- Line -->
<!--  polyline  -->
<polyline points="308,13118
228,13118
267,13167
308,13118
" style="stroke:#ffffff;stroke-width:0;
stroke-linejoin:miter; stroke-linecap:butt;
fill:#ffffff;
"/>
<!-- Line -->
<!--  polyline  -->
<polyline points="308,13118
228,13118
267,13167
308,13118
" style="stroke:#ffffff;stroke-width:7;
stroke-linejoin:miter; stroke-linecap:butt;
"/>
<!-- Line -->
<!--  polyline  -->
<polyline points="192,13086
57,13086
" style="stroke:#ffffff;stroke-width:15;
stroke-linejoin:miter; stroke-linecap:butt;
"/>
<!-- Line -->
<!--  polyline  -->
<polyline points="78,13126
78,13046
30,13084
78,13126
" style="stroke:#ffffff;stroke-width:0;
stroke-linejoin:miter; stroke-linecap:butt;
fill:#ffffff;
"/>
<!-- Line -->
<!--  polyline  -->
<polyline points="78,13126
78,13046
30,13084
78,13126
" style="stroke:#ffffff;stroke-width:7;
stroke-linejoin:miter; stroke-linecap:butt;
"/>
<!-- Line -->
<!--  polyline  -->
<polyline points="368,12825
10,12825
100,12753
443,12753
443,12753
443,13117
369,13192
369,12828
368,12825
" style="stroke:#036998;stroke-width:0;
stroke-linejoin:miter; stroke-linecap:butt;
fill:#036998;
"/>
<!-- Line -->
<!--  polyline  -->
<polyline points="368,12825
10,12825
100,12753
443,12753
443,12753
443,13117
369,13192
369,12828
368,12825
" style="stroke:#ffffff;stroke-width:7;
stroke-linejoin:miter; stroke-linecap:butt;
"/>
<!-- Line -->
<!--  polyline  -->
<polyline points="368,12825
443,12752
" style="stroke:#036998;stroke-width:0;
stroke-linejoin:miter; stroke-linecap:butt;
fill:#036998;
"/>
<!-- Line -->
<!--  polyline  -->
<polyline points="368,12825
443,12752
" style="stroke:#ffffff;stroke-width:7;
stroke-linejoin:miter; stroke-linecap:butt;
"/>
<!-- Text -->
<!--  text  -->
<text xml:space="preserve" x="138" y="13068" fill="#ffffff"  font-family="Helvetica" font-style="normal" font-weight="bold" font-size="120" text-anchor="start">V</text>
</g>
</svg>
