<?xml version="1.0" standalone="no"?>
<!DOCTYPE svg PUBLIC "-//W3C//DTD SVG 1.1//EN"
"http://www.w3.org/Graphics/SVG/1.1/DTD/svg11.dtd">
<!-- Creator: fig2dev Version 3.2 Patchlevel 5c -->
<!-- CreationDate: Fri Sep 14 10:46:56 2012 -->
<!-- Magnification: 1.000 -->
<svg xmlns="http://www.w3.org/2000/svg" width="0.5in" height="0.4in" viewBox="-9 12766 637 437">
<g style="stroke-width:.025in; fill:none">
<!-- Line -->
<!--  spline  -->
<polyline points="616,12898
616,12899
613,12905
608,12917
604,12928
601,12934
601,12935
600,12936
598,12939
592,12944
584,12951
573,12959
557,12968
544,12975
535,12979
530,12981
527,12982
525,12983
519,12985
508,12989
491,12994
473,12999
461,13002
455,13003
452,13004
448,13005
441,13006
428,13008
407,13011
385,13013
366,13015
350,13016
335,13017
323,13017
315,13017
311,13017
310,13017
309,13017
301,13016
284,13015
262,13014
239,13013
222,13012
214,13011
213,13011
212,13011
209,13010
201,13009
190,13008
178,13005
164,13003
148,12999
129,12994
112,12989
101,12985
95,12983
92,12982
90,12981
85,12979
75,12975
62,12968
47,12959
39,12954
36,12952
34,12950
29,12945
19,12935
11,12924
7,12915
4,12908
3,12902
3,12899
3,12898
3,12899
3,12903
3,12914
3,12932
3,12957
3,12985
3,13013
3,13038
3,13056
3,13067
3,13071
3,13072
3,13073
6,13079
11,13091
16,13103
19,13109
19,13110
19,13111
22,13114
28,13119
35,13126
46,13134
62,13143
75,13150
85,13154
90,13156
92,13157
95,13158
101,13159
112,13163
129,13168
147,13173
159,13176
165,13177
169,13178
172,13179
179,13180
192,13182
213,13185
235,13187
254,13189
270,13190
285,13191
297,13191
305,13191
309,13191
310,13191
311,13191
319,13190
336,13189
359,13188
381,13187
398,13186
406,13185
407,13185
408,13185
411,13184
419,13183
430,13182
442,13179
456,13176
473,13173
491,13168
508,13163
519,13159
525,13158
527,13157
530,13156
535,13154
544,13150
557,13143
572,13134
580,13129
583,13128
586,13126
591,13120
601,13110
609,13099
613,13090
615,13082
616,13076
616,13073
616,13072
616,13071
616,13067
616,13056
616,13038
616,13013
616,12985
616,12957
616,12932
616,12914
616,12903
616,12899
616,12898
" style="stroke:#026c9b;stroke-width:0;
stroke-linejoin:bevel; stroke-linecap:butt;
fill:#026c9b;
"/>
<!-- Line -->
<!--  spline  -->
<polyline points="616,12898
616,12899
613,12905
608,12917
604,12928
601,12934
601,12935
600,12936
598,12939
592,12944
584,12951
573,12959
557,12968
544,12975
535,12979
530,12981
527,12982
525,12983
519,12985
508,12989
491,12994
473,12999
461,13002
455,13003
452,13004
448,13005
441,13006
428,13008
407,13011
385,13013
366,13015
350,13016
335,13017
323,13017
315,13017
311,13017
310,13017
309,13017
301,13016
284,13015
262,13014
239,13013
222,13012
214,13011
213,13011
212,13011
209,13010
201,13009
190,13008
178,13005
164,13003
148,12999
129,12994
112,12989
101,12985
95,12983
92,12982
90,12981
85,12979
75,12975
62,12968
47,12959
39,12954
36,12952
34,12950
29,12945
19,12935
11,12924
7,12915
4,12908
3,12902
3,12899
3,12898
3,12899
3,12903
3,12914
3,12932
3,12957
3,12985
3,13013
3,13038
3,13056
3,13067
3,13071
3,13072
3,13073
6,13079
11,13091
16,13103
19,13109
19,13110
19,13111
22,13114
28,13119
35,13126
46,13134
62,13143
75,13150
85,13154
90,13156
92,13157
95,13158
101,13159
112,13163
129,13168
147,13173
159,13176
165,13177
169,13178
172,13179
179,13180
192,13182
213,13185
235,13187
254,13189
270,13190
285,13191
297,13191
305,13191
309,13191
310,13191
311,13191
319,13190
336,13189
359,13188
381,13187
398,13186
406,13185
407,13185
408,13185
411,13184
419,13183
430,13182
442,13179
456,13176
473,13173
491,13168
508,13163
519,13159
525,13158
527,13157
530,13156
535,13154
544,13150
557,13143
572,13134
580,13129
583,13128
586,13126
591,13120
601,13110
609,13099
613,13090
615,13082
616,13076
616,13073
616,13072
616,13071
616,13067
616,13056
616,13038
616,13013
616,12985
616,12957
616,12932
616,12914
616,12903
616,12899
616,12898
" style="stroke:#ffffff;stroke-width:7;
stroke-linejoin:bevel; stroke-linecap:butt;
"/>
<!-- Line -->
<!--  spline  -->
<polyline points="310,13017
311,13017
319,13016
336,13015
359,13014
381,13013
398,13012
406,13011
407,13011
408,13011
411,13010
419,13009
430,13008
442,13005
456,13003
473,12999
491,12994
508,12989
519,12985
525,12983
527,12982
530,12981
535,12979
544,12975
557,12968
572,12959
580,12954
583,12952
586,12950
591,12945
601,12935
609,12924
613,12915
615,12908
616,12902
616,12899
616,12898
616,12897
613,12891
608,12879
604,12867
601,12861
601,12860
600,12859
598,12856
592,12851
584,12844
573,12836
557,12827
544,12820
535,12816
530,12814
527,12813
525,12812
519,12810
508,12806
491,12801
473,12796
461,12793
455,12792
452,12791
448,12790
441,12789
428,12787
407,12784
385,12782
366,12780
350,12779
335,12778
323,12778
315,12778
311,12778
310,12778
309,12778
301,12779
284,12780
262,12781
239,12782
222,12783
214,12784
213,12784
212,12784
209,12785
201,12786
190,12787
178,12790
164,12792
148,12796
129,12801
112,12806
101,12810
95,12812
92,12813
90,12814
85,12816
75,12820
62,12827
47,12836
39,12841
36,12843
34,12844
29,12850
19,12860
11,12871
7,12880
4,12888
3,12894
3,12897
3,12898
3,12899
6,12905
11,12917
16,12928
19,12934
19,12935
19,12936
22,12939
28,12944
35,12951
46,12959
62,12968
75,12975
85,12979
90,12981
92,12982
95,12983
101,12985
112,12989
129,12994
147,12999
159,13002
165,13003
169,13004
172,13005
179,13006
192,13008
213,13011
235,13013
254,13015
270,13016
285,13017
297,13017
305,13017
309,13017
310,13017
" style="stroke:#026c9b;stroke-width:0;
stroke-linejoin:bevel; stroke-linecap:butt;
fill:#026c9b;
"/>
<!-- Line -->
<!--  spline  -->
<polyline points="310,13017
311,13017
319,13016
336,13015
359,13014
381,13013
398,13012
406,13011
407,13011
408,13011
411,13010
419,13009
430,13008
442,13005
456,13003
473,12999
491,12994
508,12989
519,12985
525,12983
527,12982
530,12981
535,12979
544,12975
557,12968
572,12959
580,12954
583,12952
586,12950
591,12945
601,12935
609,12924
613,12915
615,12908
616,12902
616,12899
616,12898
616,12897
613,12891
608,12879
604,12867
601,12861
601,12860
600,12859
598,12856
592,12851
584,12844
573,12836
557,12827
544,12820
535,12816
530,12814
527,12813
525,12812
519,12810
508,12806
491,12801
473,12796
461,12793
455,12792
452,12791
448,12790
441,12789
428,12787
407,12784
385,12782
366,12780
350,12779
335,12778
323,12778
315,12778
311,12778
310,12778
309,12778
301,12779
284,12780
262,12781
239,12782
222,12783
214,12784
213,12784
212,12784
209,12785
201,12786
190,12787
178,12790
164,12792
148,12796
129,12801
112,12806
101,12810
95,12812
92,12813
90,12814
85,12816
75,12820
62,12827
47,12836
39,12841
36,12843
34,12844
29,12850
19,12860
11,12871
7,12880
4,12888
3,12894
3,12897
3,12898
3,12899
6,12905
11,12917
16,12928
19,12934
19,12935
19,12936
22,12939
28,12944
35,12951
46,12959
62,12968
75,12975
85,12979
90,12981
92,12982
95,12983
101,12985
112,12989
129,12994
147,12999
159,13002
165,13003
169,13004
172,13005
179,13006
192,13008
213,13011
235,13013
254,13015
270,13016
285,13017
297,13017
305,13017
309,13017
310,13017
" style="stroke:#ffffff;stroke-width:7;
stroke-linejoin:bevel; stroke-linecap:butt;
"/>
<!-- Line -->
<!--  polyline  -->
<polyline points="240,12851
265,12889
169,12911
190,12894
43,12868
80,12841
222,12865
240,12851
" style="stroke:#ffffff;stroke-width:0;
stroke-linejoin:miter; stroke-linecap:butt;
fill:#ffffff;
"/>
<!-- Line -->
<!--  polyline  -->
<polyline points="375,12943
357,12904
444,12887
429,12900
573,12925
538,12952
395,12925
375,12943
" style="stroke:#ffffff;stroke-width:0;
stroke-linejoin:miter; stroke-linecap:butt;
fill:#ffffff;
"/>
<!-- Line -->
<!--  polyline  -->
<polyline points="327,12830
424,12804
425,12845
401,12841
354,12880
309,12873
357,12835
327,12830
" style="stroke:#ffffff;stroke-width:0;
stroke-linejoin:miter; stroke-linecap:butt;
fill:#ffffff;
"/>
<!-- Line -->
<!--  polyline  -->
<polyline points="286,12979
194,12996
190,12953
217,12959
268,12916
312,12924
258,12971
286,12979
" style="stroke:#ffffff;stroke-width:0;
stroke-linejoin:miter; stroke-linecap:butt;
fill:#ffffff;
"/>
<!-- Line -->
<!--  polyline  -->
<polyline points="382,13172
382,13032
242,13032
242,13172
382,13172
" style="stroke:#000000;stroke-width:0;
stroke-linejoin:miter; stroke-linecap:butt;
fill:#000000;
"/>
<!-- Line -->
<!--  polyline  -->
<polyline points="382,13172
382,13032
242,13032
242,13172
382,13172
" style="stroke:#ffffff;stroke-width:7;
stroke-linejoin:miter; stroke-linecap:butt;
"/>
<!-- Text -->
<!--  text  -->
<text xml:space="preserve" x="258" y="13162" fill="#ffffff"  font-family="Helvetica" font-style="normal" font-weight="bold" font-size="132" text-anchor="start">V</text>
</g>
</svg>
