<?xml version="1.0" standalone="no"?>
<!DOCTYPE svg PUBLIC "-//W3C//DTD SVG 1.1//EN"
"http://www.w3.org/Graphics/SVG/1.1/DTD/svg11.dtd">
<!-- Creator: fig2dev Version 3.2 Patchlevel 5c -->
<!-- CreationDate: Fri Sep 14 10:46:56 2012 -->
<!-- Magnification: 1.000 -->
<svg xmlns="http://www.w3.org/2000/svg" width="0.4in" height="0.4in" viewBox="-3 12741 458 463">
<g style="stroke-width:.025in; fill:none">
<!-- Line -->
<!--  polyline  -->
<polyline points="369,13192
369,12826
9,12826
9,13192
369,13192
" style="stroke:#026c9b;stroke-width:0;
stroke-linejoin:miter; stroke-linecap:butt;
fill:#026c9b;
"/>
<!-- Line -->
<!--  polyline  -->
<polyline points="369,13192
369,12826
9,12826
9,13192
369,13192
" style="stroke:#ffffff;stroke-width:7;
stroke-linejoin:miter; stroke-linecap:butt;
"/>
<!-- Line -->
<!--  polyline  -->
<polyline points="369,12826
9,12826
100,12753
443,12753
443,13117
369,13192
369,12826
" style="stroke:#026c9b;stroke-width:0;
stroke-linejoin:miter; stroke-linecap:butt;
fill:#026c9b;
"/>
<!-- Line -->
<!--  polyline  -->
<polyline points="369,12826
9,12826
100,12753
443,12753
443,13117
369,13192
369,12826
" style="stroke:#ffffff;stroke-width:7;
stroke-linejoin:miter; stroke-linecap:butt;
"/>
<!-- Line -->
<!--  polyline  -->
<polyline points="369,12826
443,12753
" style="stroke:#026c9b;stroke-width:0;
stroke-linejoin:miter; stroke-linecap:butt;
fill:#026c9b;
"/>
<!-- Line -->
<!--  polyline  -->
<polyline points="369,12826
443,12753
" style="stroke:#ffffff;stroke-width:7;
stroke-linejoin:miter; stroke-linecap:butt;
"/>
<!-- Line -->
<!--  polyline  -->
<polyline points="322,13118
243,13118
136,12903
66,12903
" style="stroke:#ffffff;stroke-width:30;
stroke-linejoin:miter; stroke-linecap:butt;
"/>
<!-- Line -->
<!--  polyline  -->
<polyline points="60,13118
136,13118
242,12904
325,12904
" style="stroke:#ffffff;stroke-width:30;
stroke-linejoin:miter; stroke-linecap:butt;
"/>
<!-- Line -->
<!--  polyline  -->
<polyline points="297,12864
297,12940
343,12904
297,12864
" style="stroke:#ffffff;stroke-width:0;
stroke-linejoin:miter; stroke-linecap:butt;
fill:#ffffff;
"/>
<!-- Line -->
<!--  polyline  -->
<polyline points="297,12864
297,12940
343,12904
297,12864
" style="stroke:#ffffff;stroke-width:7;
stroke-linejoin:miter; stroke-linecap:butt;
"/>
<!-- Line -->
<!--  polyline  -->
<polyline points="297,13079
297,13155
343,13118
297,13079
" style="stroke:#ffffff;stroke-width:0;
stroke-linejoin:miter; stroke-linecap:butt;
fill:#ffffff;
"/>
<!-- Line -->
<!--  polyline  -->
<polyline points="297,13079
297,13155
343,13118
297,13079
" style="stroke:#ffffff;stroke-width:7;
stroke-linejoin:miter; stroke-linecap:butt;
"/>
<!-- Line -->
<!--  polyline  -->
<polyline points="76,12942
76,12866
31,12902
76,12942
" style="stroke:#ffffff;stroke-width:0;
stroke-linejoin:miter; stroke-linecap:butt;
fill:#ffffff;
"/>
<!-- Line -->
<!--  polyline  -->
<polyline points="76,12942
76,12866
31,12902
76,12942
" style="stroke:#ffffff;stroke-width:7;
stroke-linejoin:miter; stroke-linecap:butt;
"/>
<!-- Line -->
<!--  polyline  -->
<polyline points="76,13157
76,13081
31,13118
76,13157
" style="stroke:#ffffff;stroke-width:0;
stroke-linejoin:miter; stroke-linecap:butt;
fill:#ffffff;
"/>
<!-- Line -->
<!--  polyline  -->
<polyline points="76,13157
76,13081
31,13118
76,13157
" style="stroke:#ffffff;stroke-width:7;
stroke-linejoin:miter; stroke-linecap:butt;
"/>
<!-- Line -->
<!--  polyline  -->
<polyline points="262,13075
262,12935
122,12935
122,13075
262,13075
" style="stroke:#026c9b;stroke-width:0;
stroke-linejoin:miter; stroke-linecap:butt;
fill:#026c9b;
"/>
<!-- Line -->
<!--  polyline  -->
<polyline points="262,13075
262,12935
122,12935
122,13075
262,13075
" style="stroke:#ffffff;stroke-width:7;
stroke-linejoin:miter; stroke-linecap:butt;
"/>
<!-- Text -->
<!--  text  -->
<text xml:space="preserve" x="149" y="13053" fill="#ffffff"  font-family="Helvetica" font-style="normal" font-weight="normal" font-size="108" text-anchor="start">V</text>
</g>
</svg>
