<?xml version="1.0" standalone="no"?>
<!DOCTYPE svg PUBLIC "-//W3C//DTD SVG 1.1//EN"
"http://www.w3.org/Graphics/SVG/1.1/DTD/svg11.dtd">
<!-- Creator: fig2dev Version 3.2 Patchlevel 5c -->
<!-- CreationDate: Fri Sep 14 10:46:57 2012 -->
<!-- Magnification: 1.000 -->
<svg xmlns="http://www.w3.org/2000/svg" width="0.4in" height="0.4in" viewBox="-9 12719 535 488">
<g style="stroke-width:.025in; fill:none">
<!-- Line -->
<!--  polyline  -->
<polyline points="3,13195
131,13137
514,13137
386,13195
3,13195
" style="stroke:#036998;stroke-width:0;
stroke-linejoin:miter; stroke-linecap:butt;
fill:#036998;
"/>
<!-- Line -->
<!--  polyline  -->
<polyline points="3,13195
131,13137
514,13137
386,13195
3,13195
" style="stroke:#ffffff;stroke-width:7;
stroke-linejoin:miter; stroke-linecap:butt;
"/>
<!-- Line -->
<!--  polyline  -->
<polyline points="3,12789
131,12731
131,13137
3,13195
3,12789
" style="stroke:#036998;stroke-width:0;
stroke-linejoin:miter; stroke-linecap:butt;
fill:#036998;
"/>
<!-- Line -->
<!--  polyline  -->
<polyline points="3,12789
131,12731
131,13137
3,13195
3,12789
" style="stroke:#ffffff;stroke-width:7;
stroke-linejoin:miter; stroke-linecap:butt;
"/>
<!-- Line -->
<!--  polyline  -->
<polyline points="131,12731
514,12731
514,13137
131,13137
131,12731
" style="stroke:#036998;stroke-width:0;
stroke-linejoin:miter; stroke-linecap:butt;
fill:#036998;
"/>
<!-- Line -->
<!--  polyline  -->
<polyline points="131,12731
514,12731
514,13137
131,13137
131,12731
" style="stroke:#ffffff;stroke-width:7;
stroke-linejoin:miter; stroke-linecap:butt;
"/>
<!-- Line -->
<!--  polyline  -->
<polyline points="3,12789
131,12731
514,12731
386,12789
3,12789
" style="stroke:#036998;stroke-width:0;
stroke-linejoin:miter; stroke-linecap:butt;
fill:#036998;
"/>
<!-- Line -->
<!--  polyline  -->
<polyline points="3,12789
131,12731
514,12731
386,12789
3,12789
" style="stroke:#ffffff;stroke-width:7;
stroke-linejoin:miter; stroke-linecap:butt;
"/>
<!-- Line -->
<!--  spline  -->
<polyline points="73,12847
75,12848
78,12848
80,12849
81,12850
83,12851
85,12853
87,12856
89,12859
90,12861
90,12862
91,12864
92,12868
93,12872
94,12874
94,12875
94,12877
95,12882
96,12888
96,12892
96,12896
96,12899
96,12900
96,12904
95,12911
95,12915
95,12916
95,12918
94,12921
93,12925
92,12930
91,12934
90,12936
89,12938
87,12941
85,12944
84,12945
83,12946
82,12947
80,12949
77,12950
76,12951
74,12951
73,12951
71,12950
67,12950
65,12949
64,12948
63,12946
61,12944
59,12941
57,12938
56,12936
55,12934
54,12930
53,12926
52,12924
52,12923
52,12921
51,12916
50,12910
50,12906
50,12902
50,12899
50,12898
50,12894
51,12887
51,12883
51,12882
51,12880
52,12877
53,12873
54,12868
55,12864
56,12862
56,12861
57,12859
59,12856
61,12853
62,12852
63,12851
65,12849
68,12848
70,12847
72,12847
73,12847
" style="stroke:#036998;stroke-width:0;
stroke-linejoin:bevel; stroke-linecap:butt;
fill:#036998;
"/>
<!-- Line -->
<!--  spline  -->
<polyline points="73,12847
75,12848
78,12848
80,12849
81,12850
83,12851
85,12853
87,12856
89,12859
90,12861
90,12862
91,12864
92,12868
93,12872
94,12874
94,12875
94,12877
95,12882
96,12888
96,12892
96,12896
96,12899
96,12900
96,12904
95,12911
95,12915
95,12916
95,12918
94,12921
93,12925
92,12930
91,12934
90,12936
89,12938
87,12941
85,12944
84,12945
83,12946
82,12947
80,12949
77,12950
76,12951
74,12951
73,12951
71,12950
67,12950
65,12949
64,12948
63,12946
61,12944
59,12941
57,12938
56,12936
55,12934
54,12930
53,12926
52,12924
52,12923
52,12921
51,12916
50,12910
50,12906
50,12902
50,12899
50,12898
50,12894
51,12887
51,12883
51,12882
51,12880
52,12877
53,12873
54,12868
55,12864
56,12862
56,12861
57,12859
59,12856
61,12853
62,12852
63,12851
65,12849
68,12848
70,12847
72,12847
73,12847
" style="stroke:#ffffff;stroke-width:7;
stroke-linejoin:bevel; stroke-linecap:butt;
"/>
<!-- Line -->
<!--  polyline  -->
<polyline points="73,12847
386,12847
386,12951
73,12951
" style="stroke:#036998;stroke-width:0;
stroke-linejoin:miter; stroke-linecap:butt;
fill:#036998;
"/>
<!-- Line -->
<!--  polyline  -->
<polyline points="73,12847
386,12847
386,12951
73,12951
" style="stroke:#ffffff;stroke-width:7;
stroke-linejoin:miter; stroke-linecap:butt;
"/>
<!-- Line -->
<!--  spline  -->
<polyline points="73,12998
75,12999
78,12999
80,13000
81,13001
83,13002
85,13004
87,13007
89,13010
90,13012
91,13014
92,13018
93,13023
94,13025
94,13028
95,13033
96,13039
96,13044
96,13047
96,13050
96,13051
96,13055
95,13061
95,13065
95,13066
95,13069
94,13072
93,13076
92,13081
91,13085
90,13087
89,13089
87,13092
85,13095
84,13096
83,13096
82,13097
80,13099
77,13101
76,13101
74,13102
73,13102
71,13101
67,13100
65,13099
64,13098
63,13097
61,13095
59,13092
57,13089
56,13087
55,13085
54,13081
53,13076
52,13074
52,13073
52,13071
51,13066
50,13060
50,13056
50,13052
50,13050
50,13049
50,13045
51,13038
51,13034
51,13033
51,13030
52,13027
53,13023
54,13018
55,13014
56,13012
57,13010
59,13007
61,13004
62,13003
63,13002
65,13000
68,12999
70,12998
72,12998
73,12998
" style="stroke:#036998;stroke-width:0;
stroke-linejoin:bevel; stroke-linecap:butt;
fill:#036998;
"/>
<!-- Line -->
<!--  spline  -->
<polyline points="73,12998
75,12999
78,12999
80,13000
81,13001
83,13002
85,13004
87,13007
89,13010
90,13012
91,13014
92,13018
93,13023
94,13025
94,13028
95,13033
96,13039
96,13044
96,13047
96,13050
96,13051
96,13055
95,13061
95,13065
95,13066
95,13069
94,13072
93,13076
92,13081
91,13085
90,13087
89,13089
87,13092
85,13095
84,13096
83,13096
82,13097
80,13099
77,13101
76,13101
74,13102
73,13102
71,13101
67,13100
65,13099
64,13098
63,13097
61,13095
59,13092
57,13089
56,13087
55,13085
54,13081
53,13076
52,13074
52,13073
52,13071
51,13066
50,13060
50,13056
50,13052
50,13050
50,13049
50,13045
51,13038
51,13034
51,13033
51,13030
52,13027
53,13023
54,13018
55,13014
56,13012
57,13010
59,13007
61,13004
62,13003
63,13002
65,13000
68,12999
70,12998
72,12998
73,12998
" style="stroke:#ffffff;stroke-width:7;
stroke-linejoin:bevel; stroke-linecap:butt;
"/>
<!-- Line -->
<!--  polyline  -->
<polyline points="73,12998
386,12998
386,13102
73,13102
" style="stroke:#036998;stroke-width:0;
stroke-linejoin:miter; stroke-linecap:butt;
fill:#036998;
"/>
<!-- Line -->
<!--  polyline  -->
<polyline points="73,12998
386,12998
386,13102
73,13102
" style="stroke:#ffffff;stroke-width:7;
stroke-linejoin:miter; stroke-linecap:butt;
"/>
<!-- Line -->
<!--  polyline  -->
<polyline points="73,12847
398,12847
" style="stroke:#000000;stroke-width:0;
stroke-linejoin:miter; stroke-linecap:butt;
fill:#000000;
"/>
<!-- Line -->
<!--  polyline  -->
<polyline points="73,12847
398,12847
" style="stroke:#ffffff;stroke-width:7;
stroke-linejoin:miter; stroke-linecap:butt;
"/>
<!-- Line -->
<!--  polyline  -->
<polyline points="73,12951
398,12951
" style="stroke:#000000;stroke-width:0;
stroke-linejoin:miter; stroke-linecap:butt;
fill:#000000;
"/>
<!-- Line -->
<!--  polyline  -->
<polyline points="73,12951
398,12951
" style="stroke:#ffffff;stroke-width:7;
stroke-linejoin:miter; stroke-linecap:butt;
"/>
<!-- Line -->
<!--  polyline  -->
<polyline points="73,12998
398,12998
" style="stroke:#000000;stroke-width:0;
stroke-linejoin:miter; stroke-linecap:butt;
fill:#000000;
"/>
<!-- Line -->
<!--  polyline  -->
<polyline points="73,12998
398,12998
" style="stroke:#ffffff;stroke-width:7;
stroke-linejoin:miter; stroke-linecap:butt;
"/>
<!-- Line -->
<!--  polyline  -->
<polyline points="73,13102
398,13102
" style="stroke:#000000;stroke-width:0;
stroke-linejoin:miter; stroke-linecap:butt;
fill:#000000;
"/>
<!-- Line -->
<!--  polyline  -->
<polyline points="73,13102
398,13102
" style="stroke:#ffffff;stroke-width:7;
stroke-linejoin:miter; stroke-linecap:butt;
"/>
<!-- Line -->
<!--  polyline  -->
<polyline points="93,12901
290,12901
" style="stroke:#ffffff;stroke-width:15;
stroke-linejoin:miter; stroke-linecap:butt;
"/>
<!-- Line -->
<!--  polyline  -->
<polyline points="287,12927
372,12901
287,12876
287,12927
" style="stroke:#000000;stroke-width:0;
stroke-linejoin:miter; stroke-linecap:butt;
fill:#000000;
"/>
<!-- Line -->
<!--  polyline  -->
<polyline points="287,12927
372,12901
287,12876
287,12927
" style="stroke:#ffffff;stroke-width:7;
stroke-linejoin:miter; stroke-linecap:butt;
"/>
<!-- Line -->
<!--  polyline  -->
<polyline points="90,12900
288,12900
" style="stroke:#000000;stroke-width:0;
stroke-linejoin:miter; stroke-linecap:butt;
fill:#000000;
"/>
<!-- Line -->
<!--  polyline  -->
<polyline points="90,12900
288,12900
" style="stroke:#ffffff;stroke-width:7;
stroke-linejoin:miter; stroke-linecap:butt;
"/>
<!-- Line -->
<!--  polyline  -->
<polyline points="285,12925
369,12899
285,12874
285,12925
" style="stroke:#ffffff;stroke-width:0;
stroke-linejoin:miter; stroke-linecap:butt;
fill:#ffffff;
"/>
<!-- Line -->
<!--  polyline  -->
<polyline points="285,12925
369,12899
285,12874
285,12925
" style="stroke:#ffffff;stroke-width:7;
stroke-linejoin:miter; stroke-linecap:butt;
"/>
<!-- Line -->
<!--  polyline  -->
<polyline points="370,13052
172,13052
" style="stroke:#ffffff;stroke-width:0;
stroke-linejoin:miter; stroke-linecap:butt;
fill:#ffffff;
"/>
<!-- Line -->
<!--  polyline  -->
<polyline points="370,13052
172,13052
" style="stroke:#ffffff;stroke-width:15;
stroke-linejoin:miter; stroke-linecap:round;
"/>
<!-- Line -->
<!--  polyline  -->
<polyline points="176,13026
91,13052
176,13077
176,13026
" style="stroke:#ffffff;stroke-width:0;
stroke-linejoin:miter; stroke-linecap:round;
fill:#ffffff;
"/>
<!-- Line -->
<!--  polyline  -->
<polyline points="176,13026
91,13052
176,13077
176,13026
" style="stroke:#ffffff;stroke-width:7;
stroke-linejoin:miter; stroke-linecap:butt;
"/>
<!-- Line -->
<!--  polyline  -->
<polyline points="386,12789
514,12731
514,13137
386,13195
386,12789
" style="stroke:#036998;stroke-width:0;
stroke-linejoin:miter; stroke-linecap:butt;
fill:#036998;
"/>
<!-- Line -->
<!--  polyline  -->
<polyline points="386,12789
514,12731
514,13137
386,13195
386,12789
" style="stroke:#ffffff;stroke-width:7;
stroke-linejoin:miter; stroke-linecap:butt;
"/>
<!-- Line -->
<!--  spline  -->
<polyline points="456,12847
458,12848
461,12848
463,12849
464,12850
466,12851
468,12853
470,12856
472,12859
473,12861
473,12862
474,12864
475,12868
476,12872
477,12874
477,12875
477,12877
478,12882
479,12888
479,12892
479,12896
479,12899
479,12900
479,12904
478,12911
478,12915
478,12916
478,12918
477,12921
476,12925
475,12930
474,12934
473,12936
472,12938
470,12941
468,12944
467,12945
466,12946
465,12947
463,12949
460,12950
459,12951
457,12951
456,12951
454,12950
450,12950
448,12949
447,12948
446,12946
444,12944
442,12941
440,12938
439,12936
438,12934
437,12930
436,12926
435,12924
435,12923
435,12921
434,12916
433,12910
433,12906
433,12902
433,12899
433,12898
433,12894
434,12887
434,12883
434,12882
434,12880
435,12877
436,12873
437,12868
438,12864
439,12862
439,12861
440,12859
442,12856
444,12853
445,12852
446,12851
448,12849
451,12848
453,12847
455,12847
456,12847
" style="stroke:#036998;stroke-width:0;
stroke-linejoin:bevel; stroke-linecap:butt;
fill:#036998;
"/>
<!-- Line -->
<!--  spline  -->
<polyline points="456,12847
458,12848
461,12848
463,12849
464,12850
466,12851
468,12853
470,12856
472,12859
473,12861
473,12862
474,12864
475,12868
476,12872
477,12874
477,12875
477,12877
478,12882
479,12888
479,12892
479,12896
479,12899
479,12900
479,12904
478,12911
478,12915
478,12916
478,12918
477,12921
476,12925
475,12930
474,12934
473,12936
472,12938
470,12941
468,12944
467,12945
466,12946
465,12947
463,12949
460,12950
459,12951
457,12951
456,12951
454,12950
450,12950
448,12949
447,12948
446,12946
444,12944
442,12941
440,12938
439,12936
438,12934
437,12930
436,12926
435,12924
435,12923
435,12921
434,12916
433,12910
433,12906
433,12902
433,12899
433,12898
433,12894
434,12887
434,12883
434,12882
434,12880
435,12877
436,12873
437,12868
438,12864
439,12862
439,12861
440,12859
442,12856
444,12853
445,12852
446,12851
448,12849
451,12848
453,12847
455,12847
456,12847
" style="stroke:#ffffff;stroke-width:7;
stroke-linejoin:bevel; stroke-linecap:butt;
"/>
<!-- Line -->
<!--  spline  -->
<polyline points="456,12998
458,12999
461,12999
463,13000
464,13001
466,13002
468,13004
470,13007
472,13010
473,13012
474,13014
475,13018
476,13023
477,13025
477,13028
478,13033
479,13039
479,13044
479,13047
479,13050
479,13051
479,13055
478,13061
478,13065
478,13066
478,13069
477,13072
476,13076
475,13081
474,13085
473,13087
472,13089
470,13092
468,13095
467,13096
466,13096
465,13097
463,13099
460,13101
459,13101
457,13102
456,13102
454,13101
450,13100
448,13099
447,13098
446,13097
444,13095
442,13092
440,13089
439,13087
438,13085
437,13081
436,13076
435,13074
435,13073
435,13071
434,13066
433,13060
433,13056
433,13052
433,13050
433,13049
433,13045
434,13038
434,13034
434,13033
434,13030
435,13027
436,13023
437,13018
438,13014
439,13012
440,13010
442,13007
444,13004
445,13003
446,13002
448,13000
451,12999
453,12998
455,12998
456,12998
" style="stroke:#036998;stroke-width:0;
stroke-linejoin:bevel; stroke-linecap:butt;
fill:#036998;
"/>
<!-- Line -->
<!--  spline  -->
<polyline points="456,12998
458,12999
461,12999
463,13000
464,13001
466,13002
468,13004
470,13007
472,13010
473,13012
474,13014
475,13018
476,13023
477,13025
477,13028
478,13033
479,13039
479,13044
479,13047
479,13050
479,13051
479,13055
478,13061
478,13065
478,13066
478,13069
477,13072
476,13076
475,13081
474,13085
473,13087
472,13089
470,13092
468,13095
467,13096
466,13096
465,13097
463,13099
460,13101
459,13101
457,13102
456,13102
454,13101
450,13100
448,13099
447,13098
446,13097
444,13095
442,13092
440,13089
439,13087
438,13085
437,13081
436,13076
435,13074
435,13073
435,13071
434,13066
433,13060
433,13056
433,13052
433,13050
433,13049
433,13045
434,13038
434,13034
434,13033
434,13030
435,13027
436,13023
437,13018
438,13014
439,13012
440,13010
442,13007
444,13004
445,13003
446,13002
448,13000
451,12999
453,12998
455,12998
456,12998
" style="stroke:#ffffff;stroke-width:7;
stroke-linejoin:bevel; stroke-linecap:butt;
"/>
</g>
</svg>
