<?xml version="1.0" standalone="no"?>
<!DOCTYPE svg PUBLIC "-//W3C//DTD SVG 1.1//EN"
"http://www.w3.org/Graphics/SVG/1.1/DTD/svg11.dtd">
<!-- Creator: fig2dev Version 3.2 Patchlevel 5c -->
<!-- CreationDate: Fri Sep 14 10:46:57 2012 -->
<!-- Magnification: 1.000 -->
<svg xmlns="http://www.w3.org/2000/svg" width="0.6in" height="0.3in" viewBox="-2 12801 744 403">
<g style="stroke-width:.025in; fill:none">
<!-- Line -->
<!--  polyline  -->
<polyline points="10,13191
10,12926
606,12926
606,13191
10,13191
" style="stroke:#036998;stroke-width:0;
stroke-linejoin:miter; stroke-linecap:butt;
fill:#036998;
"/>
<!-- Line -->
<!--  polyline  -->
<polyline points="10,13191
10,12926
606,12926
606,13191
10,13191
" style="stroke:#ffffff;stroke-width:7;
stroke-linejoin:miter; stroke-linecap:butt;
"/>
<!-- Line -->
<!--  polyline  -->
<polyline points="606,12926
10,12926
157,12813
730,12813
606,12926
" style="stroke:#036998;stroke-width:0;
stroke-linejoin:miter; stroke-linecap:butt;
fill:#036998;
"/>
<!-- Line -->
<!--  polyline  -->
<polyline points="606,12926
10,12926
157,12813
730,12813
606,12926
" style="stroke:#ffffff;stroke-width:7;
stroke-linejoin:miter; stroke-linecap:butt;
"/>
<!-- Line -->
<!--  polyline  -->
<polyline points="730,12813
728,13071
606,13192
606,12926
730,12813
" style="stroke:#036998;stroke-width:0;
stroke-linejoin:miter; stroke-linecap:butt;
fill:#036998;
"/>
<!-- Line -->
<!--  polyline  -->
<polyline points="730,12813
728,13071
606,13192
606,12926
730,12813
" style="stroke:#ffffff;stroke-width:7;
stroke-linejoin:miter; stroke-linecap:butt;
"/>
<!-- Line -->
<!--  spline  -->
<polyline points="324,13029
325,13029
330,13029
338,13029
343,13029
344,13029
346,13030
347,13032
349,13033
350,13033
354,13033
360,13033
364,13033
365,13033
366,13032
370,13029
377,13025
381,13022
382,13021
383,13021
388,13021
395,13020
400,13020
401,13020
402,13021
406,13026
412,13032
416,13037
417,13038
418,13038
423,13038
429,13038
434,13038
435,13038
436,13037
441,13032
448,13026
453,13021
454,13020
455,13020
459,13020
466,13020
470,13020
471,13020
472,13021
475,13025
481,13031
484,13035
485,13036
486,13036
490,13036
496,13036
500,13036
501,13036
501,13035
503,13032
505,13028
507,13025
507,13024
508,13025
516,13030
531,13039
545,13047
553,13052
554,13053
553,13054
548,13058
537,13067
527,13075
522,13079
521,13080
520,13080
517,13080
509,13080
495,13080
475,13080
450,13080
422,13081
395,13081
370,13081
350,13081
336,13081
328,13081
325,13081
324,13081
324,13083
324,13085
324,13087
322,13087
315,13087
303,13087
296,13087
294,13087
292,13087
291,13088
289,13088
288,13088
287,13088
286,13088
285,13089
284,13090
283,13090
283,13091
282,13092
281,13093
280,13094
279,13095
278,13096
277,13097
276,13098
275,13099
273,13102
269,13107
267,13110
266,13111
264,13113
262,13115
259,13118
254,13122
250,13125
248,13126
247,13127
245,13128
240,13130
235,13132
233,13133
232,13133
230,13134
224,13135
218,13136
213,13137
210,13137
207,13137
206,13137
199,13135
189,13134
182,13132
181,13132
180,13132
177,13131
173,13129
167,13126
159,13121
152,13116
150,13114
149,13112
146,13110
141,13103
136,13096
134,13093
133,13092
132,13088
129,13080
127,13071
126,13064
125,13058
125,13055
125,13054
125,13053
126,13046
128,13036
129,13029
129,13028
129,13027
130,13024
133,13019
136,13013
141,13005
146,12999
149,12996
150,12995
152,12993
159,12988
166,12983
169,12981
170,12981
173,12979
181,12976
190,12974
197,12973
203,12972
206,12972
207,12972
208,12972
212,12972
219,12973
223,12973
224,12973
226,12974
229,12974
234,12976
239,12978
244,12980
246,12981
247,12982
249,12983
254,12986
258,12989
260,12990
261,12991
262,12992
266,12996
270,13000
273,13004
275,13007
276,13009
277,13010
277,13012
278,13013
279,13014
280,13015
281,13016
282,13017
283,13018
284,13018
285,13019
286,13020
287,13020
288,13020
289,13020
291,13020
292,13021
293,13021
294,13021
296,13021
303,13021
315,13021
322,13021
324,13021
324,13023
324,13027
324,13029
" style="stroke:#ffffff;stroke-width:0;
stroke-linejoin:bevel; stroke-linecap:butt;
fill:#ffffff;
"/>
<!-- Line -->
<!--  spline  -->
<polyline points="324,13029
325,13029
330,13029
338,13029
343,13029
344,13029
346,13030
347,13032
349,13033
350,13033
354,13033
360,13033
364,13033
365,13033
366,13032
370,13029
377,13025
381,13022
382,13021
383,13021
388,13021
395,13020
400,13020
401,13020
402,13021
406,13026
412,13032
416,13037
417,13038
418,13038
423,13038
429,13038
434,13038
435,13038
436,13037
441,13032
448,13026
453,13021
454,13020
455,13020
459,13020
466,13020
470,13020
471,13020
472,13021
475,13025
481,13031
484,13035
485,13036
486,13036
490,13036
496,13036
500,13036
501,13036
501,13035
503,13032
505,13028
507,13025
507,13024
508,13025
516,13030
531,13039
545,13047
553,13052
554,13053
553,13054
548,13058
537,13067
527,13075
522,13079
521,13080
520,13080
517,13080
509,13080
495,13080
475,13080
450,13080
422,13081
395,13081
370,13081
350,13081
336,13081
328,13081
325,13081
324,13081
324,13083
324,13085
324,13087
322,13087
315,13087
303,13087
296,13087
294,13087
292,13087
291,13088
289,13088
288,13088
287,13088
286,13088
285,13089
284,13090
283,13090
283,13091
282,13092
281,13093
280,13094
279,13095
278,13096
277,13097
276,13098
275,13099
273,13102
269,13107
267,13110
266,13111
264,13113
262,13115
259,13118
254,13122
250,13125
248,13126
247,13127
245,13128
240,13130
235,13132
233,13133
232,13133
230,13134
224,13135
218,13136
213,13137
210,13137
207,13137
206,13137
199,13135
189,13134
182,13132
181,13132
180,13132
177,13131
173,13129
167,13126
159,13121
152,13116
150,13114
149,13112
146,13110
141,13103
136,13096
134,13093
133,13092
132,13088
129,13080
127,13071
126,13064
125,13058
125,13055
125,13054
125,13053
126,13046
128,13036
129,13029
129,13028
129,13027
130,13024
133,13019
136,13013
141,13005
146,12999
149,12996
150,12995
152,12993
159,12988
166,12983
169,12981
170,12981
173,12979
181,12976
190,12974
197,12973
203,12972
206,12972
207,12972
208,12972
212,12972
219,12973
223,12973
224,12973
226,12974
229,12974
234,12976
239,12978
244,12980
246,12981
247,12982
249,12983
254,12986
258,12989
260,12990
261,12991
262,12992
266,12996
270,13000
273,13004
275,13007
276,13009
277,13010
277,13012
278,13013
279,13014
280,13015
281,13016
282,13017
283,13018
284,13018
285,13019
286,13020
287,13020
288,13020
289,13020
291,13020
292,13021
293,13021
294,13021
296,13021
303,13021
315,13021
322,13021
324,13021
324,13023
324,13027
324,13029
" style="stroke:#036998;stroke-width:7;
stroke-linejoin:bevel; stroke-linecap:butt;
"/>
<!-- Line -->
<!--  spline  -->
<polyline points="536,13067
535,13067
532,13067
523,13067
508,13067
487,13067
460,13067
430,13067
400,13067
373,13067
352,13067
337,13067
328,13067
325,13067
324,13067
322,13067
321,13068
319,13068
318,13068
317,13068
315,13069
313,13069
311,13069
310,13069
309,13070
307,13070
305,13071
304,13071
303,13071
302,13071
300,13072
298,13073
296,13073
295,13074
294,13074
296,13075
298,13076
300,13077
301,13077
303,13077
305,13078
307,13078
309,13079
310,13079
311,13079
313,13080
315,13080
316,13081
317,13081
319,13081
321,13081
322,13081
323,13081
324,13081
" style="stroke:#036998;stroke-width:7;
stroke-linejoin:bevel; stroke-linecap:butt;
"/>
<!-- Line -->
<!--  spline  -->
<polyline points="545,13048
544,13048
541,13048
532,13048
517,13048
496,13048
469,13048
439,13048
409,13048
382,13048
361,13048
346,13048
337,13048
334,13048
333,13048
331,13048
329,13048
327,13048
326,13048
324,13048
322,13047
319,13047
316,13047
315,13047
314,13047
311,13047
309,13047
307,13047
306,13046
304,13046
302,13045
301,13045
300,13044
" style="stroke:#036998;stroke-width:7;
stroke-linejoin:bevel; stroke-linecap:butt;
"/>
<!-- Line -->
<!--  spline  -->
<polyline points="207,13128
208,13128
214,13127
223,13125
229,13124
230,13124
231,13124
233,13123
238,13121
243,13118
250,13114
256,13109
258,13107
259,13106
261,13104
266,13098
270,13092
272,13089
273,13087
274,13084
277,13077
279,13069
280,13063
280,13058
280,13055
280,13054
280,13053
279,13047
278,13038
277,13032
277,13031
277,13030
276,13027
274,13023
271,13017
266,13010
261,13004
259,13002
258,13001
256,12999
250,12995
244,12991
241,12989
240,12988
237,12987
230,12984
222,12982
216,12981
211,12980
208,12980
207,12980
206,12980
200,12981
191,12983
185,12984
184,12984
183,12984
181,12985
176,12987
171,12990
164,12995
158,13000
156,13002
155,13003
153,13005
148,13011
144,13017
142,13020
142,13021
141,13024
138,13031
136,13039
135,13045
134,13050
134,13053
134,13054
134,13055
135,13061
137,13070
138,13076
138,13077
138,13078
139,13081
141,13085
144,13091
148,13098
153,13104
155,13106
156,13107
158,13109
164,13114
170,13118
173,13120
174,13120
177,13121
184,13124
192,13126
198,13127
203,13128
206,13128
207,13128
" style="stroke:#ffffff;stroke-width:0;
stroke-linejoin:bevel; stroke-linecap:butt;
fill:#ffffff;
"/>
<!-- Line -->
<!--  spline  -->
<polyline points="207,13128
208,13128
214,13127
223,13125
229,13124
230,13124
231,13124
233,13123
238,13121
243,13118
250,13114
256,13109
258,13107
259,13106
261,13104
266,13098
270,13092
272,13089
273,13087
274,13084
277,13077
279,13069
280,13063
280,13058
280,13055
280,13054
280,13053
279,13047
278,13038
277,13032
277,13031
277,13030
276,13027
274,13023
271,13017
266,13010
261,13004
259,13002
258,13001
256,12999
250,12995
244,12991
241,12989
240,12988
237,12987
230,12984
222,12982
216,12981
211,12980
208,12980
207,12980
206,12980
200,12981
191,12983
185,12984
184,12984
183,12984
181,12985
176,12987
171,12990
164,12995
158,13000
156,13002
155,13003
153,13005
148,13011
144,13017
142,13020
142,13021
141,13024
138,13031
136,13039
135,13045
134,13050
134,13053
134,13054
134,13055
135,13061
137,13070
138,13076
138,13077
138,13078
139,13081
141,13085
144,13091
148,13098
153,13104
155,13106
156,13107
158,13109
164,13114
170,13118
173,13120
174,13120
177,13121
184,13124
192,13126
198,13127
203,13128
206,13128
207,13128
" style="stroke:#036998;stroke-width:7;
stroke-linejoin:bevel; stroke-linecap:butt;
"/>
<!-- Line -->
<!--  spline  -->
<polyline points="165,13074
167,13074
169,13073
171,13073
172,13073
173,13072
175,13071
177,13070
179,13069
179,13068
180,13068
181,13066
182,13064
182,13063
182,13062
183,13060
183,13058
184,13056
184,13055
184,13054
184,13052
183,13050
183,13048
183,13047
183,13046
182,13045
181,13043
180,13042
179,13041
179,13040
177,13039
175,13038
174,13037
173,13037
171,13036
169,13035
167,13035
166,13035
165,13035
163,13035
161,13036
159,13036
158,13036
157,13037
156,13038
154,13039
153,13040
152,13041
151,13042
150,13043
149,13045
148,13045
148,13046
147,13048
146,13050
146,13052
146,13053
146,13054
146,13056
147,13058
147,13060
147,13061
148,13062
149,13064
150,13066
151,13068
152,13068
153,13069
154,13070
156,13071
156,13072
157,13072
159,13073
161,13074
163,13074
164,13074
165,13074
" style="stroke:#ffffff;stroke-width:0;
stroke-linejoin:bevel; stroke-linecap:butt;
fill:#ffffff;
"/>
<!-- Line -->
<!--  spline  -->
<polyline points="165,13074
167,13074
169,13073
171,13073
172,13073
173,13072
175,13071
177,13070
179,13069
179,13068
180,13068
181,13066
182,13064
182,13063
182,13062
183,13060
183,13058
184,13056
184,13055
184,13054
184,13052
183,13050
183,13048
183,13047
183,13046
182,13045
181,13043
180,13042
179,13041
179,13040
177,13039
175,13038
174,13037
173,13037
171,13036
169,13035
167,13035
166,13035
165,13035
163,13035
161,13036
159,13036
158,13036
157,13037
156,13038
154,13039
153,13040
152,13041
151,13042
150,13043
149,13045
148,13045
148,13046
147,13048
146,13050
146,13052
146,13053
146,13054
146,13056
147,13058
147,13060
147,13061
148,13062
149,13064
150,13066
151,13068
152,13068
153,13069
154,13070
156,13071
156,13072
157,13072
159,13073
161,13074
163,13074
164,13074
165,13074
" style="stroke:#036998;stroke-width:7;
stroke-linejoin:bevel; stroke-linecap:butt;
"/>
</g>
</svg>
