<?xml version="1.0" standalone="no"?>
<!DOCTYPE svg PUBLIC "-//W3C//DTD SVG 1.1//EN"
"http://www.w3.org/Graphics/SVG/1.1/DTD/svg11.dtd">
<!-- Creator: fig2dev Version 3.2 Patchlevel 5c -->
<!-- CreationDate: Fri Sep 14 10:46:57 2012 -->
<!-- Magnification: 1.000 -->
<svg xmlns="http://www.w3.org/2000/svg" width="0.6in" height="0.4in" viewBox="-3 12664 665 537">
<g style="stroke-width:.025in; fill:none">
<!-- Line -->
<!--  polyline  -->
<polyline points="9,13189
576,13189
576,12764
9,12764
9,13189
" style="stroke:#00a9d6;stroke-width:0;
stroke-linejoin:miter; stroke-linecap:butt;
fill:#00a9d6;
"/>
<!-- Line -->
<!--  polyline  -->
<polyline points="9,13189
576,13189
576,12764
9,12764
9,13189
" style="stroke:#ffffff;stroke-width:7;
stroke-linejoin:miter; stroke-linecap:butt;
"/>
<!-- Line -->
<!--  polyline  -->
<polyline points="650,13082
576,13189
576,12764
650,12676
650,13082
" style="stroke:#00a9d6;stroke-width:0;
stroke-linejoin:miter; stroke-linecap:butt;
fill:#00a9d6;
"/>
<!-- Line -->
<!--  polyline  -->
<polyline points="650,13082
576,13189
576,12764
650,12676
650,13082
" style="stroke:#ffffff;stroke-width:7;
stroke-linejoin:miter; stroke-linecap:butt;
"/>
<!-- Line -->
<!--  polyline  -->
<polyline points="119,12676
650,12676
576,12764
9,12764
119,12676
" style="stroke:#00a9d6;stroke-width:0;
stroke-linejoin:miter; stroke-linecap:butt;
fill:#00a9d6;
"/>
<!-- Line -->
<!--  polyline  -->
<polyline points="119,12676
650,12676
576,12764
9,12764
119,12676
" style="stroke:#ffffff;stroke-width:7;
stroke-linejoin:miter; stroke-linecap:butt;
"/>
<!-- Line -->
<!--  polyline  -->
<polyline points="544,12991
64,12991
64,12991
64,13002
31,12984
64,12965
64,12975
544,12975
544,12991
" style="stroke:#ffffff;stroke-width:0;
stroke-linejoin:miter; stroke-linecap:butt;
fill:#ffffff;
"/>
<!-- Line -->
<!--  spline  -->
<polyline points="120,12832
123,12832
130,12832
143,12832
162,12832
188,12832
220,12832
255,12832
294,12832
332,12832
367,12832
399,12832
425,12832
444,12832
457,12832
464,12832
467,12832
469,12833
472,12833
474,12834
475,12834
477,12835
479,12836
481,12837
483,12839
484,12840
485,12840
485,12841
487,12843
488,12845
489,12846
489,12847
490,12849
491,12852
491,12854
491,12856
491,12857
491,12860
491,12868
491,12881
491,12900
491,12926
491,12955
491,12988
491,13020
491,13049
491,13075
491,13094
491,13107
491,13115
491,13118
491,13120
490,13124
490,13126
490,13127
489,13129
488,13131
487,13133
485,13135
485,13136
484,13136
483,13137
481,13138
479,13139
478,13140
477,13140
476,13140
474,13141
471,13142
470,13142
468,13143
467,13143
464,13143
457,13143
444,13143
425,13143
399,13143
367,13143
332,13143
293,13143
255,13143
220,13143
188,13143
162,13143
143,13143
130,13143
123,13143
120,13143
118,13142
115,13142
113,13141
112,13141
110,13140
108,13139
106,13138
104,13137
103,13136
102,13136
102,13135
100,13133
99,13131
98,13130
98,13128
97,13126
96,13123
96,13121
96,13119
96,13118
96,13115
96,13107
96,13094
96,13075
96,13049
96,13020
96,12988
96,12955
96,12926
96,12900
96,12881
96,12868
96,12860
96,12857
96,12855
97,12851
97,12849
97,12848
98,12847
99,12845
100,12843
102,12841
102,12840
103,12840
104,12839
106,12837
108,12836
109,12835
110,12835
111,12835
113,12834
116,12833
117,12833
119,12832
120,12832
" style="stroke:#ffffff;stroke-width:0;
stroke-linejoin:bevel; stroke-linecap:butt;
fill:#ffffff;
"/>
<!-- Line -->
<!--  spline  -->
<polyline points="120,12832
123,12832
130,12832
143,12832
162,12832
188,12832
220,12832
255,12832
294,12832
332,12832
367,12832
399,12832
425,12832
444,12832
457,12832
464,12832
467,12832
469,12833
472,12833
474,12834
475,12834
477,12835
479,12836
481,12837
483,12839
484,12840
485,12840
485,12841
487,12843
488,12845
489,12846
489,12847
490,12849
491,12852
491,12854
491,12856
491,12857
491,12860
491,12868
491,12881
491,12900
491,12926
491,12955
491,12988
491,13020
491,13049
491,13075
491,13094
491,13107
491,13115
491,13118
491,13120
490,13124
490,13126
490,13127
489,13129
488,13131
487,13133
485,13135
485,13136
484,13136
483,13137
481,13138
479,13139
478,13140
477,13140
476,13140
474,13141
471,13142
470,13142
468,13143
467,13143
464,13143
457,13143
444,13143
425,13143
399,13143
367,13143
332,13143
293,13143
255,13143
220,13143
188,13143
162,13143
143,13143
130,13143
123,13143
120,13143
118,13142
115,13142
113,13141
112,13141
110,13140
108,13139
106,13138
104,13137
103,13136
102,13136
102,13135
100,13133
99,13131
98,13130
98,13128
97,13126
96,13123
96,13121
96,13119
96,13118
96,13115
96,13107
96,13094
96,13075
96,13049
96,13020
96,12988
96,12955
96,12926
96,12900
96,12881
96,12868
96,12860
96,12857
96,12855
97,12851
97,12849
97,12848
98,12847
99,12845
100,12843
102,12841
102,12840
103,12840
104,12839
106,12837
108,12836
109,12835
110,12835
111,12835
113,12834
116,12833
117,12833
119,12832
120,12832
" style="stroke:#ffffff;stroke-width:7;
stroke-linejoin:bevel; stroke-linecap:butt;
"/>
<!-- Line -->
<!--  polyline  -->
<polyline points="289,12860
115,12860
115,13034
289,13034
289,12860
" style="stroke:#75d2ea;stroke-width:0;
stroke-linejoin:miter; stroke-linecap:butt;
fill:#75d2ea;
"/>
<!-- Line -->
<!--  polyline  -->
<polyline points="145,12893
259,12893
" style="stroke:#ffffff;stroke-width:7;
stroke-linejoin:round; stroke-linecap:round;
"/>
<!-- Line -->
<!--  polyline  -->
<polyline points="145,12916
259,12916
" style="stroke:#ffffff;stroke-width:7;
stroke-linejoin:round; stroke-linecap:round;
"/>
<!-- Line -->
<!--  polyline  -->
<polyline points="145,12939
259,12939
" style="stroke:#ffffff;stroke-width:7;
stroke-linejoin:round; stroke-linecap:round;
"/>
<!-- Line -->
<!--  polyline  -->
<polyline points="145,12961
259,12961
" style="stroke:#ffffff;stroke-width:7;
stroke-linejoin:round; stroke-linecap:round;
"/>
<!-- Line -->
<!--  polyline  -->
<polyline points="145,12984
259,12984
" style="stroke:#ffffff;stroke-width:7;
stroke-linejoin:round; stroke-linecap:round;
"/>
<!-- Line -->
<!--  polyline  -->
<polyline points="145,13006
259,13006
" style="stroke:#ffffff;stroke-width:7;
stroke-linejoin:round; stroke-linecap:round;
"/>
<!-- Line -->
<!--  polyline  -->
<polyline points="472,12940
281,12940
281,13131
472,13131
472,12940
" style="stroke:#75d2ea;stroke-width:0;
stroke-linejoin:round; stroke-linecap:round;
fill:#75d2ea;
"/>
<!-- Line -->
<!--  polyline  -->
<polyline points="472,12940
281,12940
281,13131
472,13131
472,12940
" style="stroke:#ffffff;stroke-width:7;
stroke-linejoin:round; stroke-linecap:round;
"/>
<!-- Line -->
<!--  spline  -->
<polyline points="387,13047
389,13046
392,13045
394,13044
395,13043
396,13042
397,13041
399,13039
401,13037
401,13036
402,13036
403,13035
404,13033
405,13031
406,13030
406,13029
406,13028
407,13026
408,13023
408,13021
408,13019
408,13018
407,13015
407,13012
406,13009
406,13007
405,13005
404,13003
402,13000
400,12998
399,12997
397,12996
395,12994
392,12992
391,12991
390,12990
387,12989
384,12988
381,12988
379,12988
377,12988
374,12988
371,12989
368,12989
366,12990
364,12991
362,12992
359,12994
357,12996
356,12997
355,12998
353,13000
351,13003
350,13004
350,13005
349,13006
348,13009
347,13012
347,13015
347,13017
347,13018
347,13020
348,13024
348,13026
348,13027
349,13029
350,13031
351,13033
352,13035
353,13036
354,13037
355,13039
357,13041
358,13042
360,13043
362,13044
364,13046
366,13046
367,13047
365,13047
361,13048
359,13048
358,13048
356,13048
354,13048
351,13049
348,13050
347,13050
346,13050
345,13051
342,13052
339,13053
338,13053
337,13054
334,13055
331,13057
329,13058
327,13059
326,13060
326,13061
326,13067
326,13081
326,13100
326,13118
326,13132
326,13138
326,13139
327,13139
331,13139
341,13139
357,13139
377,13139
396,13139
412,13139
422,13139
426,13139
427,13139
427,13138
427,13132
427,13118
427,13100
427,13081
427,13067
427,13061
427,13060
426,13060
426,13059
425,13059
424,13059
424,13058
422,13057
420,13056
417,13055
416,13055
414,13054
411,13053
408,13052
406,13051
404,13050
400,13049
396,13048
392,13047
389,13047
387,13047
" style="stroke:#ffffff;stroke-width:0;
stroke-linejoin:bevel; stroke-linecap:round;
fill:#ffffff;
"/>
<!-- Line -->
<!--  polyline  -->
<polyline points="540,13051
528,13051
528,13041
495,13060
528,13078
528,13067
540,13067
540,13157
556,13157
556,13067
556,13051
540,13051
" style="stroke:#ffffff;stroke-width:0;
stroke-linejoin:round; stroke-linecap:round;
fill:#ffffff;
"/>
<!-- Line -->
<!--  spline  -->
<polyline points="355,13060
354,13061
354,13062
354,13063
354,13064
354,13065
355,13065
356,13066
357,13067
358,13067
359,13067
360,13067
361,13067
362,13067
362,13066
362,13065
362,13064
363,13064
363,13063
363,13062
362,13062
362,13061
362,13060
361,13060
361,13059
360,13059
360,13058
359,13058
358,13058
358,13059
357,13059
356,13059
355,13059
355,13060
" style="stroke:#070809;stroke-width:0;
stroke-linejoin:bevel; stroke-linecap:round;
fill:#070809;
"/>
<!-- Line -->
<!--  spline  -->
<polyline points="322,13039
323,13040
324,13042
325,13043
326,13044
326,13045
327,13046
329,13048
331,13049
331,13050
332,13051
334,13052
336,13053
337,13054
338,13055
340,13056
342,13057
344,13059
345,13059
346,13060
347,13061
349,13061
350,13062
351,13062
352,13063
353,13063
354,13063
354,13064
355,13064
356,13064
357,13064
358,13064
359,13064
360,13064
" style="stroke:#000000;stroke-width:7;
stroke-linejoin:bevel; stroke-linecap:butt;
"/>
<!-- Line -->
<!--  spline  -->
<polyline points="331,13028
331,13029
331,13030
331,13031
331,13032
330,13032
330,13033
329,13034
328,13035
327,13036
326,13037
326,13038
325,13038
324,13038
323,13038
322,13038
321,13038
319,13038
318,13038
317,13037
316,13036
315,13035
314,13034
313,13033
313,13032
312,13032
312,13031
312,13030
312,13029
312,13028
312,13027
312,13026
312,13025
312,13024
313,13024
313,13023
314,13022
315,13021
316,13020
317,13020
317,13019
318,13019
319,13019
320,13018
321,13018
322,13018
323,13018
324,13019
325,13019
326,13019
326,13020
327,13020
328,13021
329,13022
330,13023
330,13024
331,13024
331,13025
331,13026
331,13027
331,13028
" style="stroke:#070809;stroke-width:0;
stroke-linejoin:bevel; stroke-linecap:butt;
fill:#070809;
"/>
<!-- Line -->
<!--  spline  -->
<polyline points="421,13028
421,13029
421,13030
421,13031
421,13032
422,13032
422,13033
423,13034
424,13035
425,13036
426,13037
426,13038
427,13038
428,13038
429,13038
430,13038
431,13038
432,13038
433,13038
434,13038
434,13037
435,13037
436,13036
437,13035
438,13034
439,13033
439,13032
440,13032
440,13031
440,13030
440,13029
440,13028
440,13027
440,13026
440,13025
440,13024
439,13024
439,13023
438,13022
437,13021
436,13020
435,13020
435,13019
434,13019
433,13019
432,13019
431,13018
430,13018
429,13018
428,13019
427,13019
426,13019
426,13020
425,13020
424,13021
423,13022
422,13023
422,13024
421,13024
421,13025
421,13026
421,13027
421,13028
" style="stroke:#070809;stroke-width:0;
stroke-linejoin:bevel; stroke-linecap:butt;
fill:#070809;
"/>
<!-- Line -->
<!--  spline  -->
<polyline points="376,12954
378,12954
380,12955
382,12955
384,12955
387,12956
391,12957
397,12959
403,12961
405,12962
407,12962
409,12964
415,12968
420,12973
422,12975
423,12976
425,12979
429,12986
432,12995
434,13003
435,13009
436,13013
436,13014
436,13015
436,13017
436,13021
436,13023
436,13024
434,13024
431,13024
429,13024
430,13021
431,13018
432,13015
432,13014
430,13006
428,12996
426,12988
426,12987
426,12986
424,12984
421,12980
417,12976
412,12971
407,12967
404,12966
403,12966
400,12965
395,12963
390,12961
388,12961
387,12961
385,12961
382,12960
379,12960
377,12960
376,12960
374,12960
373,12960
371,12960
369,12960
367,12960
363,12961
358,12962
353,12964
350,12965
349,12965
346,12966
341,12970
336,12974
334,12976
333,12977
331,12979
327,12986
324,12995
322,13002
321,13008
320,13012
320,13013
320,13014
321,13016
322,13021
323,13023
323,13024
321,13024
318,13024
316,13024
316,13023
316,13021
316,13017
316,13015
316,13014
316,13013
318,13005
320,12995
322,12987
322,12986
322,12985
324,12983
327,12978
331,12973
337,12968
343,12964
345,12962
347,12962
349,12961
355,12959
360,12957
363,12956
364,12956
366,12956
370,12955
373,12954
375,12954
376,12954
" style="stroke:#000000;stroke-width:0;
stroke-linejoin:bevel; stroke-linecap:butt;
fill:#000000;
"/>
<!-- Line -->
<!--  spline  -->
<polyline points="376,12954
378,12954
380,12955
382,12955
384,12955
387,12956
391,12957
397,12959
403,12961
405,12962
407,12962
409,12964
415,12968
420,12973
422,12975
423,12976
425,12979
429,12986
432,12995
434,13003
435,13009
436,13013
436,13014
436,13015
436,13017
436,13021
436,13023
436,13024
434,13024
431,13024
429,13024
430,13021
431,13018
432,13015
432,13014
430,13006
428,12996
426,12988
426,12987
426,12986
424,12984
421,12980
417,12976
412,12971
407,12967
404,12966
403,12966
400,12965
395,12963
390,12961
388,12961
387,12961
385,12961
382,12960
379,12960
377,12960
376,12960
374,12960
373,12960
371,12960
369,12960
367,12960
363,12961
358,12962
353,12964
350,12965
349,12965
346,12966
341,12970
336,12974
334,12976
333,12977
331,12979
327,12986
324,12995
322,13002
321,13008
320,13012
320,13013
320,13014
321,13016
322,13021
323,13023
323,13024
321,13024
318,13024
316,13024
316,13023
316,13021
316,13017
316,13015
316,13014
316,13013
318,13005
320,12995
322,12987
322,12986
322,12985
324,12983
327,12978
331,12973
337,12968
343,12964
345,12962
347,12962
349,12961
355,12959
360,12957
363,12956
364,12956
366,12956
370,12955
373,12954
375,12954
376,12954
" style="stroke:#000000;stroke-width:7;
stroke-linejoin:bevel; stroke-linecap:butt;
"/>
<!-- Line -->
<!--  spline  -->
<polyline points="270,13003
269,13003
268,13003
267,13002
266,13001
265,13001
265,13000
265,12999
264,12999
264,12998
264,12997
264,12996
265,12996
265,12995
265,12994
266,12994
266,12993
266,12992
267,12992
268,12992
269,12992
270,12992
271,12992
271,12993
272,12993
273,12993
273,12994
274,12994
275,12994
275,12995
275,12996
275,12997
275,12998
275,12999
274,12999
274,13000
274,13001
273,13001
273,13002
272,13002
271,13002
271,13003
270,13003
" style="stroke:#ffffff;stroke-width:0;
stroke-linejoin:bevel; stroke-linecap:butt;
fill:#ffffff;
"/>
<!-- Line -->
<!--  spline  -->
<polyline points="270,13003
269,13003
268,13003
267,13002
266,13001
265,13001
265,13000
265,12999
264,12999
264,12998
264,12997
264,12996
265,12996
265,12995
265,12994
266,12994
266,12993
266,12992
267,12992
268,12992
269,12992
270,12992
271,12992
271,12993
272,12993
273,12993
273,12994
274,12994
275,12994
275,12995
275,12996
275,12997
275,12998
275,12999
274,12999
274,13000
274,13001
273,13001
273,13002
272,13002
271,13002
271,13003
270,13003
" style="stroke:#000000;stroke-width:7;
stroke-linejoin:bevel; stroke-linecap:butt;
"/>
<!-- Line -->
<!--  polyline  -->
<polyline points="274,12991
264,13003
231,12975
240,12964
274,12991
" style="stroke:#ffffff;stroke-width:0;
stroke-linejoin:miter; stroke-linecap:butt;
fill:#ffffff;
"/>
<!-- Line -->
<!--  polyline  -->
<polyline points="274,12991
264,13003
231,12975
240,12964
274,12991
" style="stroke:#000000;stroke-width:7;
stroke-linejoin:miter; stroke-linecap:butt;
"/>
<!-- Line -->
<!--  spline  -->
<polyline points="147,12939
147,12938
148,12935
150,12929
151,12926
151,12925
152,12923
153,12921
155,12918
158,12914
161,12911
163,12910
163,12909
165,12908
169,12906
173,12904
175,12903
176,12903
178,12902
182,12901
187,12900
190,12900
193,12900
195,12900
196,12900
199,12901
205,12903
208,12904
209,12904
211,12905
213,12907
216,12909
220,12912
223,12915
224,12916
225,12917
226,12918
228,12922
230,12926
231,12928
231,12929
232,12930
233,12935
234,12940
234,12944
234,12947
234,12949
234,12950
233,12953
231,12958
230,12961
230,12962
229,12964
227,12966
225,12969
222,12973
219,12976
218,12977
217,12978
216,12979
212,12981
208,12983
206,12984
205,12984
203,12985
199,12986
194,12987
191,12987
188,12987
186,12987
185,12987
182,12986
176,12984
173,12983
172,12983
170,12982
168,12981
165,12979
161,12976
158,12973
157,12971
156,12971
155,12969
153,12965
151,12961
150,12960
150,12959
149,12957
148,12953
147,12948
147,12944
147,12941
147,12939
" style="stroke:#ffffff;stroke-width:0;
stroke-linejoin:bevel; stroke-linecap:butt;
fill:#ffffff;
"/>
<!-- Line -->
<!--  spline  -->
<polyline points="140,12938
140,12939
140,12943
141,12949
141,12953
141,12954
141,12956
142,12960
144,12964
146,12969
149,12973
150,12975
151,12976
152,12977
156,12981
160,12984
162,12986
164,12988
169,12990
174,12992
179,12993
182,12994
185,12994
186,12994
190,12994
196,12993
200,12993
201,12993
203,12993
207,12992
211,12990
216,12988
220,12985
222,12984
223,12983
224,12982
228,12978
231,12974
232,12972
233,12972
234,12970
236,12965
238,12960
240,12955
240,12952
241,12949
241,12948
241,12944
240,12938
240,12934
240,12933
239,12931
238,12928
237,12924
234,12919
231,12914
230,12912
229,12910
225,12906
221,12903
219,12902
219,12901
217,12900
212,12898
207,12896
202,12894
199,12894
196,12893
195,12893
191,12893
185,12894
181,12894
180,12894
178,12895
174,12896
170,12897
165,12900
161,12903
159,12904
158,12904
157,12905
153,12909
150,12913
149,12915
148,12915
147,12917
145,12922
143,12927
141,12932
141,12935
140,12938
" style="stroke:#ffffff;stroke-width:0;
stroke-linejoin:bevel; stroke-linecap:butt;
fill:#ffffff;
"/>
<!-- Line -->
<!--  spline  -->
<polyline points="147,12939
147,12938
148,12935
150,12929
151,12926
151,12925
152,12923
153,12921
155,12918
158,12914
161,12911
163,12910
163,12909
165,12908
169,12906
173,12904
175,12903
176,12903
178,12902
182,12901
187,12900
190,12900
193,12900
195,12900
196,12900
199,12901
205,12903
208,12904
209,12904
211,12905
213,12907
216,12909
220,12912
223,12915
224,12916
225,12917
226,12918
228,12922
230,12926
231,12928
231,12929
232,12930
233,12935
234,12940
234,12944
234,12947
234,12949
234,12950
233,12953
231,12958
230,12961
230,12962
229,12964
227,12966
225,12969
222,12973
219,12976
218,12977
217,12978
216,12979
212,12981
208,12983
206,12984
205,12984
203,12985
199,12986
194,12987
191,12987
188,12987
186,12987
185,12987
182,12986
176,12984
173,12983
172,12983
170,12982
168,12981
165,12979
161,12976
158,12973
157,12971
156,12971
155,12969
153,12965
151,12961
150,12960
150,12959
149,12957
148,12953
147,12948
147,12944
147,12941
147,12939
" style="stroke:#000000;stroke-width:7;
stroke-linejoin:bevel; stroke-linecap:butt;
"/>
<!-- Line -->
<!--  spline  -->
<polyline points="140,12938
140,12939
140,12943
141,12949
141,12953
141,12954
141,12956
142,12960
144,12964
146,12969
149,12973
150,12975
151,12976
152,12977
156,12981
160,12984
162,12986
164,12988
169,12990
174,12992
179,12993
182,12994
185,12994
186,12994
190,12994
196,12993
200,12993
201,12993
203,12993
207,12992
211,12990
216,12988
220,12985
222,12984
223,12983
224,12982
228,12978
231,12974
232,12972
233,12972
234,12970
236,12965
238,12960
240,12955
240,12952
241,12949
241,12948
241,12944
240,12938
240,12934
240,12933
239,12931
238,12928
237,12924
234,12919
231,12914
230,12912
229,12910
225,12906
221,12903
219,12902
219,12901
217,12900
212,12898
207,12896
202,12894
199,12894
196,12893
195,12893
191,12893
185,12894
181,12894
180,12894
178,12895
174,12896
170,12897
165,12900
161,12903
159,12904
158,12904
157,12905
153,12909
150,12913
149,12915
148,12915
147,12917
145,12922
143,12927
141,12932
141,12935
140,12938
" style="stroke:#000000;stroke-width:7;
stroke-linejoin:bevel; stroke-linecap:butt;
"/>
<!-- Line -->
<!--  spline  -->
<polyline points="153,12934
153,12933
154,12930
156,12925
157,12922
157,12921
158,12919
159,12917
161,12914
164,12910
167,12907
169,12905
171,12903
175,12901
179,12899
180,12898
181,12898
183,12898
187,12897
192,12896
196,12896
199,12896
201,12896
202,12896
205,12897
211,12899
214,12900
215,12900
217,12901
219,12902
222,12904
226,12907
229,12910
230,12912
231,12912
232,12914
234,12918
236,12922
237,12923
237,12924
238,12926
239,12930
240,12935
240,12939
240,12942
240,12944
240,12945
239,12948
237,12954
236,12957
236,12958
235,12960
233,12962
231,12965
228,12969
225,12972
224,12973
223,12974
222,12975
218,12977
214,12979
212,12980
211,12980
210,12981
205,12982
200,12983
196,12983
193,12982
191,12982
190,12982
187,12981
182,12980
179,12979
178,12979
176,12978
174,12976
171,12974
167,12971
164,12968
162,12967
162,12966
160,12965
158,12961
156,12957
155,12955
155,12954
155,12953
154,12948
153,12943
153,12939
153,12936
153,12934
" style="stroke:#ffffff;stroke-width:0;
stroke-linejoin:bevel; stroke-linecap:butt;
fill:#ffffff;
"/>
<!-- Line -->
<!--  spline  -->
<polyline points="146,12933
146,12934
146,12938
147,12945
147,12949
147,12950
147,12952
148,12955
150,12959
152,12964
155,12968
156,12970
157,12971
158,12972
162,12976
166,12979
168,12981
170,12982
175,12985
180,12987
184,12989
188,12989
190,12990
191,12990
195,12990
202,12989
206,12989
207,12989
209,12988
212,12987
216,12986
221,12983
225,12980
227,12979
228,12979
229,12978
233,12974
236,12970
238,12968
239,12966
242,12961
244,12956
246,12951
246,12948
247,12945
247,12944
247,12940
246,12934
246,12930
246,12929
245,12927
244,12923
243,12919
240,12914
237,12910
236,12908
236,12907
235,12906
231,12902
227,12899
225,12897
223,12895
218,12893
213,12891
208,12890
205,12889
202,12889
201,12889
197,12889
191,12890
187,12890
186,12890
184,12890
180,12891
176,12893
171,12895
167,12898
165,12899
164,12900
163,12901
159,12905
156,12909
154,12911
152,12913
150,12918
148,12923
147,12927
146,12931
146,12933
" style="stroke:#ffffff;stroke-width:0;
stroke-linejoin:bevel; stroke-linecap:butt;
fill:#ffffff;
"/>
<!-- Line -->
<!--  spline  -->
<polyline points="153,12934
153,12933
154,12930
156,12925
157,12922
157,12921
158,12919
159,12917
161,12914
164,12910
167,12907
169,12905
171,12903
175,12901
179,12899
180,12898
181,12898
183,12898
187,12897
192,12896
196,12896
199,12896
201,12896
202,12896
205,12897
211,12899
214,12900
215,12900
217,12901
219,12902
222,12904
226,12907
229,12910
230,12912
231,12912
232,12914
234,12918
236,12922
237,12923
237,12924
238,12926
239,12930
240,12935
240,12939
240,12942
240,12944
240,12945
239,12948
237,12954
236,12957
236,12958
235,12960
233,12962
231,12965
228,12969
225,12972
224,12973
223,12974
222,12975
218,12977
214,12979
212,12980
211,12980
210,12981
205,12982
200,12983
196,12983
193,12982
191,12982
190,12982
187,12981
182,12980
179,12979
178,12979
176,12978
174,12976
171,12974
167,12971
164,12968
162,12967
162,12966
160,12965
158,12961
156,12957
155,12955
155,12954
155,12953
154,12948
153,12943
153,12939
153,12936
153,12934
" style="stroke:#000000;stroke-width:7;
stroke-linejoin:bevel; stroke-linecap:butt;
"/>
<!-- Line -->
<!--  spline  -->
<polyline points="146,12933
146,12934
146,12938
147,12945
147,12949
147,12950
147,12952
148,12955
150,12959
152,12964
155,12968
156,12970
157,12971
158,12972
162,12976
166,12979
168,12981
170,12982
175,12985
180,12987
184,12989
188,12989
190,12990
191,12990
195,12990
202,12989
206,12989
207,12989
209,12988
212,12987
216,12986
221,12983
225,12980
227,12979
228,12979
229,12978
233,12974
236,12970
238,12968
239,12966
242,12961
244,12956
246,12951
246,12948
247,12945
247,12944
247,12940
246,12934
246,12930
246,12929
245,12927
244,12923
243,12919
240,12914
237,12910
236,12908
236,12907
235,12906
231,12902
227,12899
225,12897
223,12895
218,12893
213,12891
208,12890
205,12889
202,12889
201,12889
197,12889
191,12890
187,12890
186,12890
184,12890
180,12891
176,12893
171,12895
167,12898
165,12899
164,12900
163,12901
159,12905
156,12909
154,12911
152,12913
150,12918
148,12923
147,12927
146,12931
146,12933
" style="stroke:#000000;stroke-width:7;
stroke-linejoin:bevel; stroke-linecap:butt;
"/>
<!-- Line -->
<!--  polyline  -->
<polyline points="190,12860
190,12813
190,12813
180,12813
198,12779
217,12813
206,12813
206,12860
190,12860
" style="stroke:#75d2ea;stroke-width:0;
stroke-linejoin:miter; stroke-linecap:butt;
fill:#75d2ea;
"/>
</g>
</svg>
