<?xml version="1.0" standalone="no"?>
<!DOCTYPE svg PUBLIC "-//W3C//DTD SVG 1.1//EN"
"http://www.w3.org/Graphics/SVG/1.1/DTD/svg11.dtd">
<!-- Creator: fig2dev Version 3.2 Patchlevel 5c -->
<!-- CreationDate: Fri Sep 14 10:46:57 2012 -->
<!-- Magnification: 1.000 -->
<svg xmlns="http://www.w3.org/2000/svg" width="0.4in" height="0.6in" viewBox="-1 12497 527 707">
<g style="stroke-width:.025in; fill:none">
<!-- Line -->
<!--  polyline  -->
<polyline points="11,13192
11,12745
458,12745
458,13192
11,13192
" style="stroke:#00a5d4;stroke-width:0;
stroke-linejoin:miter; stroke-linecap:butt;
fill:#00a5d4;
"/>
<!-- Line -->
<!--  polyline  -->
<polyline points="11,13192
11,12745
458,12745
458,13192
11,13192
" style="stroke:#ffffff;stroke-width:7;
stroke-linejoin:miter; stroke-linecap:butt;
"/>
<!-- Line -->
<!--  polyline  -->
<polyline points="514,13136
514,12689
458,12745
458,13192
514,13136
" style="stroke:#00a5d4;stroke-width:0;
stroke-linejoin:miter; stroke-linecap:butt;
fill:#00a5d4;
"/>
<!-- Line -->
<!--  polyline  -->
<polyline points="514,13136
514,12689
458,12745
458,13192
514,13136
" style="stroke:#ffffff;stroke-width:7;
stroke-linejoin:miter; stroke-linecap:butt;
"/>
<!-- Line -->
<!--  polyline  -->
<polyline points="93,12509
11,12565
458,12565
514,12509
93,12509
" style="stroke:#00a5d4;stroke-width:0;
stroke-linejoin:miter; stroke-linecap:butt;
fill:#00a5d4;
"/>
<!-- Line -->
<!--  polyline  -->
<polyline points="93,12509
11,12565
458,12565
514,12509
93,12509
" style="stroke:#ffffff;stroke-width:7;
stroke-linejoin:miter; stroke-linecap:butt;
"/>
<!-- Line -->
<!--  polyline  -->
<polyline points="11,12745
11,12565
458,12565
458,12745
11,12745
" style="stroke:#00a5d4;stroke-width:0;
stroke-linejoin:miter; stroke-linecap:butt;
fill:#00a5d4;
"/>
<!-- Line -->
<!--  polyline  -->
<polyline points="11,12745
11,12565
458,12565
458,12745
11,12745
" style="stroke:#ffffff;stroke-width:7;
stroke-linejoin:miter; stroke-linecap:butt;
"/>
<!-- Line -->
<!--  polyline  -->
<polyline points="514,12689
514,12509
458,12565
458,12745
514,12689
" style="stroke:#00a5d4;stroke-width:0;
stroke-linejoin:miter; stroke-linecap:butt;
fill:#00a5d4;
"/>
<!-- Line -->
<!--  polyline  -->
<polyline points="514,12689
514,12509
458,12565
458,12745
514,12689
" style="stroke:#ffffff;stroke-width:7;
stroke-linejoin:miter; stroke-linecap:butt;
"/>
<!-- Line -->
<!--  polyline  -->
<polyline points="458,12745
514,12689
" style="stroke:#00a5d4;stroke-width:0;
stroke-linejoin:miter; stroke-linecap:butt;
fill:#00a5d4;
"/>
<!-- Line -->
<!--  polyline  -->
<polyline points="458,12745
514,12689
" style="stroke:#ffffff;stroke-width:7;
stroke-linejoin:miter; stroke-linecap:butt;
"/>
<!-- Line -->
<!--  polyline  -->
<polyline points="156,12626
156,12589
84,12589
84,12626
156,12626
" style="stroke:#ffffff;stroke-width:0;
stroke-linejoin:miter; stroke-linecap:butt;
fill:#ffffff;
"/>
<!-- Line -->
<!--  polyline  -->
<polyline points="321,12626
321,12589
393,12589
393,12626
321,12626
" style="stroke:#ffffff;stroke-width:0;
stroke-linejoin:miter; stroke-linecap:butt;
fill:#ffffff;
"/>
<!-- Line -->
<!--  polyline  -->
<polyline points="156,12720
156,12682
84,12682
84,12720
156,12720
" style="stroke:#ffffff;stroke-width:0;
stroke-linejoin:miter; stroke-linecap:butt;
fill:#ffffff;
"/>
<!-- Line -->
<!--  polyline  -->
<polyline points="321,12720
321,12682
393,12682
393,12720
321,12720
" style="stroke:#ffffff;stroke-width:0;
stroke-linejoin:miter; stroke-linecap:butt;
fill:#ffffff;
"/>
<!-- Line -->
<!--  polyline  -->
<polyline points="133,12607
354,12607
" style="stroke:#000000;stroke-width:0;
stroke-linejoin:miter; stroke-linecap:butt;
fill:#000000;
"/>
<!-- Line -->
<!--  polyline  -->
<polyline points="133,12607
354,12607
" style="stroke:#ffffff;stroke-width:7;
stroke-linejoin:miter; stroke-linecap:butt;
"/>
<!-- Line -->
<!--  polyline  -->
<polyline points="133,12701
354,12701
" style="stroke:#000000;stroke-width:0;
stroke-linejoin:miter; stroke-linecap:butt;
fill:#000000;
"/>
<!-- Line -->
<!--  polyline  -->
<polyline points="133,12701
354,12701
" style="stroke:#ffffff;stroke-width:7;
stroke-linejoin:miter; stroke-linecap:butt;
"/>
<!-- Line -->
<!--  polyline  -->
<polyline points="120,12701
354,12607
" style="stroke:#000000;stroke-width:0;
stroke-linejoin:miter; stroke-linecap:butt;
fill:#000000;
"/>
<!-- Line -->
<!--  polyline  -->
<polyline points="120,12701
354,12607
" style="stroke:#ffffff;stroke-width:7;
stroke-linejoin:miter; stroke-linecap:butt;
"/>
<!-- Line -->
<!--  polyline  -->
<polyline points="120,12607
354,12701
" style="stroke:#000000;stroke-width:0;
stroke-linejoin:miter; stroke-linecap:butt;
fill:#000000;
"/>
<!-- Line -->
<!--  polyline  -->
<polyline points="120,12607
354,12701
" style="stroke:#ffffff;stroke-width:7;
stroke-linejoin:miter; stroke-linecap:butt;
"/>
<!-- Line -->
<!--  polyline  -->
<polyline points="151,12946
151,12909
157,12909
148,12895
138,12909
145,12909
145,12946
151,12946
" style="stroke:#ffffff;stroke-width:0;
stroke-linejoin:miter; stroke-linecap:butt;
fill:#ffffff;
"/>
<!-- Line -->
<!--  polyline  -->
<polyline points="132,12952
105,12925
110,12921
93,12917
96,12934
101,12929
127,12956
132,12952
" style="stroke:#ffffff;stroke-width:0;
stroke-linejoin:miter; stroke-linecap:butt;
fill:#ffffff;
"/>
<!-- Line -->
<!--  polyline  -->
<polyline points="122,12969
84,12969
84,12963
70,12972
84,12982
84,12975
122,12975
122,12969
" style="stroke:#ffffff;stroke-width:0;
stroke-linejoin:miter; stroke-linecap:butt;
fill:#ffffff;
"/>
<!-- Line -->
<!--  polyline  -->
<polyline points="127,12988
101,13015
96,13011
93,13027
110,13024
105,13019
132,12993
127,12988
" style="stroke:#ffffff;stroke-width:0;
stroke-linejoin:miter; stroke-linecap:butt;
fill:#ffffff;
"/>
<!-- Line -->
<!--  polyline  -->
<polyline points="145,12998
145,13036
138,13036
148,13050
157,13036
151,13036
151,12998
145,12998
" style="stroke:#ffffff;stroke-width:0;
stroke-linejoin:miter; stroke-linecap:butt;
fill:#ffffff;
"/>
<!-- Line -->
<!--  polyline  -->
<polyline points="168,12956
195,12929
199,12934
203,12917
186,12921
191,12925
164,12952
168,12956
" style="stroke:#ffffff;stroke-width:0;
stroke-linejoin:miter; stroke-linecap:butt;
fill:#ffffff;
"/>
<!-- Line -->
<!--  spline  -->
<polyline points="171,13004
174,13001
177,12998
180,12995
181,12993
182,12991
184,12988
185,12984
186,12980
186,12979
187,12978
187,12977
187,12973
187,12969
187,12967
187,12965
186,12961
184,12957
183,12954
181,12952
180,12950
178,12947
174,12944
172,12941
170,12940
168,12938
165,12937
161,12935
157,12934
155,12933
153,12933
149,12933
145,12933
143,12933
143,12934
141,12934
137,12935
133,12936
130,12938
128,12939
126,12940
123,12943
120,12946
117,12949
116,12950
115,12952
113,12955
112,12959
111,12963
111,12964
110,12965
110,12967
110,12971
110,12975
110,12977
110,12979
111,12983
113,12987
114,12990
116,12992
117,12994
119,12997
123,13000
125,13003
127,13004
129,13006
132,13007
136,13009
140,13010
142,13011
144,13011
148,13011
152,13011
154,13011
154,13010
156,13010
160,13009
164,13008
167,13006
169,13005
171,13004
" style="stroke:#ffffff;stroke-width:0;
stroke-linejoin:bevel; stroke-linecap:butt;
fill:#ffffff;
"/>
<!-- Line -->
<!--  polyline  -->
<polyline points="167,12993
194,13019
190,13024
206,13027
203,13011
198,13015
172,12988
167,12993
" style="stroke:#ffffff;stroke-width:0;
stroke-linejoin:miter; stroke-linecap:butt;
fill:#ffffff;
"/>
<!-- Line -->
<!--  polyline  -->
<polyline points="317,12946
317,12909
310,12909
320,12895
329,12909
323,12909
323,12946
317,12946
" style="stroke:#ffffff;stroke-width:0;
stroke-linejoin:miter; stroke-linecap:butt;
fill:#ffffff;
"/>
<!-- Line -->
<!--  polyline  -->
<polyline points="336,12952
363,12925
358,12921
375,12917
371,12934
367,12929
340,12956
336,12952
" style="stroke:#ffffff;stroke-width:0;
stroke-linejoin:miter; stroke-linecap:butt;
fill:#ffffff;
"/>
<!-- Line -->
<!--  polyline  -->
<polyline points="346,12969
383,12969
383,12963
398,12972
383,12982
383,12975
346,12975
346,12969
" style="stroke:#ffffff;stroke-width:0;
stroke-linejoin:miter; stroke-linecap:butt;
fill:#ffffff;
"/>
<!-- Line -->
<!--  polyline  -->
<polyline points="340,12988
367,13015
371,13011
375,13027
358,13024
363,13019
336,12993
340,12988
" style="stroke:#ffffff;stroke-width:0;
stroke-linejoin:miter; stroke-linecap:butt;
fill:#ffffff;
"/>
<!-- Line -->
<!--  polyline  -->
<polyline points="323,12998
323,13036
329,13036
320,13050
310,13036
317,13036
317,12998
323,12998
" style="stroke:#ffffff;stroke-width:0;
stroke-linejoin:miter; stroke-linecap:butt;
fill:#ffffff;
"/>
<!-- Line -->
<!--  polyline  -->
<polyline points="299,12956
273,12929
268,12934
265,12917
282,12921
277,12925
304,12952
299,12956
" style="stroke:#ffffff;stroke-width:0;
stroke-linejoin:miter; stroke-linecap:butt;
fill:#ffffff;
"/>
<!-- Line -->
<!--  spline  -->
<polyline points="297,13004
294,13001
291,12998
288,12995
287,12993
285,12991
284,12988
282,12984
281,12980
280,12979
280,12978
280,12977
280,12973
280,12969
280,12967
281,12967
281,12965
282,12961
283,12957
285,12954
286,12952
287,12950
290,12947
293,12944
296,12941
298,12940
300,12938
303,12937
307,12935
311,12934
312,12933
313,12933
314,12933
318,12933
322,12933
324,12933
324,12934
326,12934
330,12935
334,12936
338,12938
340,12939
342,12940
345,12943
348,12946
351,12949
352,12950
353,12952
355,12955
356,12959
357,12963
357,12964
358,12965
358,12967
358,12971
358,12975
358,12977
358,12979
357,12983
355,12987
354,12990
352,12992
351,12994
348,12997
345,13000
342,13003
341,13004
339,13006
336,13007
332,13009
328,13010
327,13011
326,13011
324,13011
320,13011
316,13011
314,13011
314,13010
312,13010
308,13009
304,13008
301,13006
299,13005
297,13004
" style="stroke:#ffffff;stroke-width:0;
stroke-linejoin:bevel; stroke-linecap:butt;
fill:#ffffff;
"/>
<!-- Line -->
<!--  polyline  -->
<polyline points="300,12993
274,13019
278,13024
261,13027
265,13011
269,13015
296,12988
300,12993
" style="stroke:#ffffff;stroke-width:0;
stroke-linejoin:miter; stroke-linecap:butt;
fill:#ffffff;
"/>
<!-- Line -->
<!--  polyline  -->
<polyline points="170,12973
298,12973
" style="stroke:#ffffff;stroke-width:15;
stroke-linejoin:miter; stroke-linecap:butt;
"/>
<!-- Line -->
<!--  spline  -->
<polyline points="243,12972
243,12973
243,12977
243,12983
243,12987
243,12988
243,12990
242,12994
242,12997
241,13002
240,13006
240,13007
240,13008
240,13009
239,13012
238,13015
238,13016
237,13016
237,13017
236,13019
235,13020
235,13021
234,13021
234,13022
233,13022
232,13021
230,13020
229,13019
228,13018
228,13017
227,13015
226,13012
225,13009
225,13008
225,13007
225,13006
224,13002
224,12998
223,12996
223,12995
223,12993
223,12988
223,12982
222,12978
222,12975
222,12972
222,12971
222,12967
223,12962
223,12958
223,12957
223,12955
223,12952
224,12948
224,12943
225,12939
225,12937
225,12935
226,12932
227,12929
227,12928
228,12927
229,12925
230,12924
231,12923
232,12923
233,12923
234,12924
235,12924
236,12925
237,12926
237,12927
238,12929
239,12932
240,12935
240,12937
240,12939
241,12943
242,12947
242,12949
242,12950
243,12952
243,12957
243,12962
243,12966
243,12970
243,12972
" style="stroke:#ffffff;stroke-width:7;
stroke-linejoin:bevel; stroke-linecap:butt;
"/>
<!-- Line -->
<!--  polyline  -->
<polyline points="412,13109
54,13109
54,12828
412,12828
412,13109
" style="stroke:#ffffff;stroke-width:7;
stroke-linejoin:miter; stroke-linecap:butt;
stroke-dasharray:10 40;"/>
</g>
</svg>
