<?xml version="1.0" standalone="no"?>
<!DOCTYPE svg PUBLIC "-//W3C//DTD SVG 1.1//EN"
"http://www.w3.org/Graphics/SVG/1.1/DTD/svg11.dtd">
<!-- Creator: fig2dev Version 3.2 Patchlevel 5c -->
<!-- CreationDate: Fri Sep 14 10:46:58 2012 -->
<!-- Magnification: 1.000 -->
<svg xmlns="http://www.w3.org/2000/svg" width="0.5in" height="0.3in" viewBox="-6 12796 622 413">
<g style="stroke-width:.025in; fill:none">
<!-- Line -->
<!--  polyline  -->
<polyline points="604,12922
604,13080
459,13197
157,13197
6,13080
6,12922
" style="stroke:#036998;stroke-width:0;
stroke-linejoin:miter; stroke-linecap:butt;
fill:#036998;
"/>
<!-- Line -->
<!--  polyline  -->
<polyline points="604,12922
604,13080
459,13197
157,13197
6,13080
6,12922
" style="stroke:#ffffff;stroke-width:7;
stroke-linejoin:miter; stroke-linecap:butt;
"/>
<!-- Line -->
<!--  polyline  -->
<polyline points="456,12808
159,12808
6,12922
157,13038
459,13038
604,12922
456,12808
" style="stroke:#036998;stroke-width:0;
stroke-linejoin:miter; stroke-linecap:butt;
fill:#036998;
"/>
<!-- Line -->
<!--  polyline  -->
<polyline points="456,12808
159,12808
6,12922
157,13038
459,13038
604,12922
456,12808
" style="stroke:#ffffff;stroke-width:7;
stroke-linejoin:miter; stroke-linecap:butt;
"/>
<!-- Line -->
<!--  polyline  -->
<polyline points="246,12878
269,12913
182,12933
201,12917
89,12893
123,12868
230,12891
246,12878
" style="stroke:#ffffff;stroke-width:0;
stroke-linejoin:miter; stroke-linecap:butt;
fill:#ffffff;
"/>
<!-- Line -->
<!--  polyline  -->
<polyline points="369,12962
353,12926
432,12911
418,12923
535,12943
503,12968
387,12946
369,12962
" style="stroke:#ffffff;stroke-width:0;
stroke-linejoin:miter; stroke-linecap:butt;
fill:#ffffff;
"/>
<!-- Line -->
<!--  polyline  -->
<polyline points="332,12851
420,12827
421,12865
399,12860
356,12896
315,12890
359,12855
332,12851
" style="stroke:#ffffff;stroke-width:0;
stroke-linejoin:miter; stroke-linecap:butt;
fill:#ffffff;
"/>
<!-- Line -->
<!--  polyline  -->
<polyline points="278,13002
194,13018
191,12979
215,12985
261,12945
302,12952
253,12995
278,13002
" style="stroke:#ffffff;stroke-width:0;
stroke-linejoin:miter; stroke-linecap:butt;
fill:#ffffff;
"/>
<!-- Line -->
<!--  polyline  -->
<polyline points="154,13195
154,13038
" style="stroke:#ffffff;stroke-width:7;
stroke-linejoin:miter; stroke-linecap:butt;
"/>
<!-- Line -->
<!--  polyline  -->
<polyline points="458,13195
458,13038
" style="stroke:#ffffff;stroke-width:7;
stroke-linejoin:miter; stroke-linecap:butt;
"/>
</g>
</svg>
