<?xml version="1.0" standalone="no"?>
<!DOCTYPE svg PUBLIC "-//W3C//DTD SVG 1.1//EN"
"http://www.w3.org/Graphics/SVG/1.1/DTD/svg11.dtd">
<!-- Creator: fig2dev Version 3.2 Patchlevel 5c -->
<!-- CreationDate: Fri Sep 14 10:46:58 2012 -->
<!-- Magnification: 1.000 -->
<svg xmlns="http://www.w3.org/2000/svg" width="0.4in" height="0.4in" viewBox="-5 12672 516 532">
<g style="stroke-width:.025in; fill:none">
<!-- Line -->
<!--  polyline  -->
<polyline points="70,13096
76,13022
441,13022
435,13096
70,13096
" style="stroke:#036998;stroke-width:0;
stroke-linejoin:miter; stroke-linecap:butt;
fill:#036998;
"/>
<!-- Line -->
<!--  polyline  -->
<polyline points="70,13096
76,13022
441,13022
435,13096
70,13096
" style="stroke:#ffffff;stroke-width:7;
stroke-linejoin:miter; stroke-linecap:butt;
"/>
<!-- Line -->
<!--  polyline  -->
<polyline points="426,13192
426,13170
474,13104
474,13144
426,13192
" style="stroke:#036998;stroke-width:0;
stroke-linejoin:miter; stroke-linecap:butt;
fill:#036998;
"/>
<!-- Line -->
<!--  polyline  -->
<polyline points="426,13192
426,13170
474,13104
474,13144
426,13192
" style="stroke:#ffffff;stroke-width:7;
stroke-linejoin:miter; stroke-linecap:butt;
"/>
<!-- Line -->
<!--  polyline  -->
<polyline points="426,13170
426,13192
7,13192
7,13170
426,13170
" style="stroke:#036998;stroke-width:0;
stroke-linejoin:miter; stroke-linecap:butt;
fill:#036998;
"/>
<!-- Line -->
<!--  polyline  -->
<polyline points="426,13170
426,13192
7,13192
7,13170
426,13170
" style="stroke:#ffffff;stroke-width:7;
stroke-linejoin:miter; stroke-linecap:butt;
"/>
<!-- Line -->
<!--  polyline  -->
<polyline points="72,12746
435,12746
435,13020
72,13020
72,12746
" style="stroke:#036998;stroke-width:0;
stroke-linejoin:miter; stroke-linecap:butt;
fill:#036998;
"/>
<!-- Line -->
<!--  polyline  -->
<polyline points="72,12746
435,12746
435,13020
72,13020
72,12746
" style="stroke:#ffffff;stroke-width:7;
stroke-linejoin:miter; stroke-linecap:butt;
"/>
<!-- Line -->
<!--  polyline  -->
<polyline points="435,13020
497,12958
497,12684
435,12746
435,13020
" style="stroke:#036998;stroke-width:0;
stroke-linejoin:miter; stroke-linecap:butt;
fill:#036998;
"/>
<!-- Line -->
<!--  polyline  -->
<polyline points="435,13020
497,12958
497,12684
435,12746
435,13020
" style="stroke:#ffffff;stroke-width:7;
stroke-linejoin:miter; stroke-linecap:butt;
"/>
<!-- Line -->
<!--  polyline  -->
<polyline points="426,13170
7,13170
55,13104
474,13104
426,13170
" style="stroke:#036998;stroke-width:0;
stroke-linejoin:miter; stroke-linecap:butt;
fill:#036998;
"/>
<!-- Line -->
<!--  polyline  -->
<polyline points="426,13170
7,13170
55,13104
474,13104
426,13170
" style="stroke:#ffffff;stroke-width:7;
stroke-linejoin:miter; stroke-linecap:butt;
"/>
<!-- Line -->
<!--  polyline  -->
<polyline points="437,13104
437,13018
499,12957
499,13043
437,13104
" style="stroke:#036998;stroke-width:0;
stroke-linejoin:miter; stroke-linecap:butt;
fill:#036998;
"/>
<!-- Line -->
<!--  polyline  -->
<polyline points="437,13104
437,13018
499,12957
499,13043
437,13104
" style="stroke:#ffffff;stroke-width:7;
stroke-linejoin:miter; stroke-linecap:butt;
"/>
<!-- Line -->
<!--  spline  -->
<polyline points="131,12777
132,12777
136,12777
146,12777
163,12777
188,12777
218,12777
253,12777
287,12777
317,12777
342,12777
359,12777
369,12777
373,12777
374,12777
377,12778
380,12778
383,12779
384,12779
386,12780
388,12781
391,12783
393,12785
395,12786
396,12787
398,12789
400,12791
400,12793
401,12793
401,12794
402,12797
403,12800
403,12803
403,12805
403,12806
403,12807
403,12811
403,12820
403,12836
403,12858
403,12883
403,12908
403,12930
403,12946
403,12955
403,12959
403,12960
403,12963
402,12966
402,12969
402,12970
401,12972
400,12974
398,12977
396,12979
395,12980
393,12981
391,12983
388,12985
387,12985
387,12986
386,12986
383,12987
380,12988
377,12988
375,12988
374,12988
373,12988
369,12988
359,12988
342,12988
317,12988
287,12988
252,12988
218,12988
188,12988
163,12988
146,12988
136,12988
132,12988
131,12988
128,12988
125,12987
122,12987
121,12987
119,12986
117,12985
114,12983
112,12981
111,12980
110,12979
108,12977
106,12975
106,12973
105,12972
104,12969
103,12966
102,12963
102,12961
102,12960
102,12959
102,12955
102,12946
102,12930
102,12908
102,12883
102,12858
102,12836
102,12820
102,12811
102,12807
102,12806
103,12803
103,12800
104,12797
104,12796
105,12794
106,12792
108,12789
110,12787
111,12786
112,12785
114,12783
116,12781
118,12781
119,12780
122,12779
125,12778
128,12777
130,12777
131,12777
" style="stroke:#ffffff;stroke-width:0;
stroke-linejoin:bevel; stroke-linecap:butt;
fill:#ffffff;
"/>
<!-- Line -->
<!--  polyline  -->
<polyline points="497,12684
143,12684
72,12746
435,12746
497,12684
" style="stroke:#036998;stroke-width:0;
stroke-linejoin:miter; stroke-linecap:butt;
fill:#036998;
"/>
<!-- Line -->
<!--  polyline  -->
<polyline points="497,12684
143,12684
72,12746
435,12746
497,12684
" style="stroke:#ffffff;stroke-width:7;
stroke-linejoin:miter; stroke-linecap:butt;
"/>
<!-- Line -->
<!--  spline  -->
<polyline points="210,12827
209,12827
203,12826
193,12826
187,12825
186,12825
185,12825
183,12825
178,12826
173,12827
167,12829
162,12831
160,12832
159,12833
158,12834
154,12837
151,12840
150,12842
149,12843
149,12844
147,12848
146,12852
146,12856
146,12858
146,12860
146,12861
145,12861
141,12863
136,12866
132,12868
131,12868
130,12870
128,12872
126,12876
124,12880
123,12884
122,12886
122,12887
122,12889
123,12893
124,12897
125,12899
125,12900
127,12901
129,12904
132,12906
134,12907
136,12908
138,12908
139,12908
139,12909
140,12913
141,12918
142,12922
142,12923
143,12925
145,12928
148,12931
152,12935
156,12938
159,12939
160,12940
162,12940
167,12942
172,12943
175,12944
178,12944
183,12943
189,12942
193,12940
196,12938
198,12937
198,12936
199,12936
199,12935
200,12936
203,12939
208,12945
211,12948
212,12949
213,12949
215,12950
220,12952
227,12954
237,12956
247,12957
251,12958
253,12958
258,12958
268,12958
278,12957
282,12957
284,12957
288,12956
296,12954
304,12951
309,12948
312,12946
314,12944
315,12945
316,12945
321,12944
330,12944
335,12943
336,12943
339,12942
343,12941
347,12939
352,12936
356,12933
358,12932
358,12931
359,12930
362,12926
364,12922
365,12921
365,12920
365,12918
366,12914
366,12909
365,12906
365,12903
364,12901
365,12901
366,12901
368,12899
371,12898
373,12896
374,12895
375,12893
375,12891
376,12887
376,12884
376,12882
376,12881
376,12879
375,12876
374,12873
373,12871
372,12870
369,12867
366,12865
363,12863
360,12863
358,12862
358,12861
358,12860
359,12857
360,12853
361,12850
361,12849
361,12847
360,12845
359,12842
356,12838
353,12835
352,12834
351,12833
349,12832
345,12830
341,12828
339,12828
338,12827
336,12827
331,12826
325,12825
319,12825
315,12825
313,12825
312,12825
311,12825
311,12824
310,12824
309,12823
304,12821
298,12817
293,12815
292,12814
291,12814
288,12813
283,12812
277,12811
268,12810
260,12810
256,12810
254,12810
251,12810
243,12811
236,12812
232,12813
231,12813
229,12814
223,12817
218,12820
215,12823
213,12825
212,12827
211,12827
210,12827
" style="stroke:#036998;stroke-width:0;
stroke-linejoin:bevel; stroke-linecap:butt;
fill:#036998;
"/>
<!-- Line -->
<!--  spline  -->
<polyline points="210,12827
209,12827
203,12826
193,12826
187,12825
186,12825
185,12825
183,12825
178,12826
173,12827
167,12829
162,12831
160,12832
159,12833
158,12834
154,12837
151,12840
150,12842
149,12843
149,12844
147,12848
146,12852
146,12856
146,12858
146,12860
146,12861
145,12861
141,12863
136,12866
132,12868
131,12868
130,12870
128,12872
126,12876
124,12880
123,12884
122,12886
122,12887
122,12889
123,12893
124,12897
125,12899
125,12900
127,12901
129,12904
132,12906
134,12907
136,12908
138,12908
139,12908
139,12909
140,12913
141,12918
142,12922
142,12923
143,12925
145,12928
148,12931
152,12935
156,12938
159,12939
160,12940
162,12940
167,12942
172,12943
175,12944
178,12944
183,12943
189,12942
193,12940
196,12938
198,12937
198,12936
199,12936
199,12935
200,12936
203,12939
208,12945
211,12948
212,12949
213,12949
215,12950
220,12952
227,12954
237,12956
247,12957
251,12958
253,12958
258,12958
268,12958
278,12957
282,12957
284,12957
288,12956
296,12954
304,12951
309,12948
312,12946
314,12944
315,12945
316,12945
321,12944
330,12944
335,12943
336,12943
339,12942
343,12941
347,12939
352,12936
356,12933
358,12932
358,12931
359,12930
362,12926
364,12922
365,12921
365,12920
365,12918
366,12914
366,12909
365,12906
365,12903
364,12901
365,12901
366,12901
368,12899
371,12898
373,12896
374,12895
375,12893
375,12891
376,12887
376,12884
376,12882
376,12881
376,12879
375,12876
374,12873
373,12871
372,12870
369,12867
366,12865
363,12863
360,12863
358,12862
358,12861
358,12860
359,12857
360,12853
361,12850
361,12849
361,12847
360,12845
359,12842
356,12838
353,12835
352,12834
351,12833
349,12832
345,12830
341,12828
339,12828
338,12827
336,12827
331,12826
325,12825
319,12825
315,12825
313,12825
312,12825
311,12825
311,12824
310,12824
309,12823
304,12821
298,12817
293,12815
292,12814
291,12814
288,12813
283,12812
277,12811
268,12810
260,12810
256,12810
254,12810
251,12810
243,12811
236,12812
232,12813
231,12813
229,12814
223,12817
218,12820
215,12823
213,12825
212,12827
211,12827
210,12827
" style="stroke:#ffffff;stroke-width:7;
stroke-linejoin:bevel; stroke-linecap:butt;
"/>
</g>
</svg>
