<?xml version="1.0" standalone="no"?>
<!DOCTYPE svg PUBLIC "-//W3C//DTD SVG 1.1//EN"
"http://www.w3.org/Graphics/SVG/1.1/DTD/svg11.dtd">
<!-- Creator: fig2dev Version 3.2 Patchlevel 5c -->
<!-- CreationDate: Fri Sep 14 10:46:58 2012 -->
<!-- Magnification: 1.000 -->
<svg xmlns="http://www.w3.org/2000/svg" width="1.2in" height="0.7in" viewBox="-10 12392 1391 817">
<g style="stroke-width:.025in; fill:none">
<!-- Line -->
<!--  polyline  -->
<polyline points="852,12979
821,13023
554,13023
598,12979
852,12979
" style="stroke:#036998;stroke-width:0;
stroke-linejoin:miter; stroke-linecap:butt;
fill:#036998;
"/>
<!-- Line -->
<!--  polyline  -->
<polyline points="852,12979
821,13023
554,13023
598,12979
852,12979
" style="stroke:#ffffff;stroke-width:7;
stroke-linejoin:miter; stroke-linecap:butt;
"/>
<!-- Line -->
<!--  polyline  -->
<polyline points="554,13071
554,13023
809,13023
809,13071
554,13071
" style="stroke:#036998;stroke-width:0;
stroke-linejoin:miter; stroke-linecap:butt;
fill:#036998;
"/>
<!-- Line -->
<!--  polyline  -->
<polyline points="554,13071
554,13023
809,13023
809,13071
554,13071
" style="stroke:#ffffff;stroke-width:7;
stroke-linejoin:miter; stroke-linecap:butt;
"/>
<!-- Line -->
<!--  polyline  -->
<polyline points="802,13133
802,13118
835,13071
835,13099
802,13133
" style="stroke:#036998;stroke-width:0;
stroke-linejoin:miter; stroke-linecap:butt;
fill:#036998;
"/>
<!-- Line -->
<!--  polyline  -->
<polyline points="802,13133
802,13118
835,13071
835,13099
802,13133
" style="stroke:#ffffff;stroke-width:7;
stroke-linejoin:miter; stroke-linecap:butt;
"/>
<!-- Line -->
<!--  polyline  -->
<polyline points="802,13118
802,13133
508,13133
508,13118
802,13118
" style="stroke:#036998;stroke-width:0;
stroke-linejoin:miter; stroke-linecap:butt;
fill:#036998;
"/>
<!-- Line -->
<!--  polyline  -->
<polyline points="802,13118
802,13133
508,13133
508,13118
802,13118
" style="stroke:#ffffff;stroke-width:7;
stroke-linejoin:miter; stroke-linecap:butt;
"/>
<!-- Line -->
<!--  polyline  -->
<polyline points="554,12820
808,12820
808,13012
554,13012
554,12820
" style="stroke:#036998;stroke-width:0;
stroke-linejoin:miter; stroke-linecap:butt;
fill:#036998;
"/>
<!-- Line -->
<!--  polyline  -->
<polyline points="554,12820
808,12820
808,13012
554,13012
554,12820
" style="stroke:#ffffff;stroke-width:7;
stroke-linejoin:miter; stroke-linecap:butt;
"/>
<!-- Line -->
<!--  polyline  -->
<polyline points="808,13012
851,12969
851,12777
808,12820
808,13012
" style="stroke:#036998;stroke-width:0;
stroke-linejoin:miter; stroke-linecap:butt;
fill:#036998;
"/>
<!-- Line -->
<!--  polyline  -->
<polyline points="808,13012
851,12969
851,12777
808,12820
808,13012
" style="stroke:#ffffff;stroke-width:7;
stroke-linejoin:miter; stroke-linecap:butt;
"/>
<!-- Line -->
<!--  polyline  -->
<polyline points="802,13118
508,13118
542,13071
835,13071
802,13118
" style="stroke:#036998;stroke-width:0;
stroke-linejoin:miter; stroke-linecap:butt;
fill:#036998;
"/>
<!-- Line -->
<!--  polyline  -->
<polyline points="802,13118
508,13118
542,13071
835,13071
802,13118
" style="stroke:#ffffff;stroke-width:7;
stroke-linejoin:miter; stroke-linecap:butt;
"/>
<!-- Line -->
<!--  polyline  -->
<polyline points="809,13071
809,13023
852,12980
852,13028
809,13071
" style="stroke:#036998;stroke-width:0;
stroke-linejoin:miter; stroke-linecap:butt;
fill:#036998;
"/>
<!-- Line -->
<!--  polyline  -->
<polyline points="809,13071
809,13023
852,12980
852,13028
809,13071
" style="stroke:#ffffff;stroke-width:7;
stroke-linejoin:miter; stroke-linecap:butt;
"/>
<!-- Line -->
<!--  spline  -->
<polyline points="595,12843
596,12843
600,12843
611,12843
628,12843
652,12843
680,12843
708,12843
732,12843
749,12843
760,12843
764,12843
765,12843
767,12843
770,12844
772,12844
773,12844
774,12844
775,12845
777,12846
779,12847
780,12848
781,12849
782,12851
783,12853
783,12854
784,12856
784,12858
785,12860
785,12862
785,12863
785,12864
785,12868
785,12879
785,12896
785,12917
785,12937
785,12954
785,12965
785,12969
785,12970
785,12972
784,12974
784,12976
784,12977
784,12978
783,12980
782,12982
781,12984
780,12984
779,12985
777,12986
775,12987
775,12988
774,12988
772,12989
770,12990
768,12990
766,12990
765,12990
764,12990
760,12990
749,12990
732,12990
708,12990
680,12990
652,12990
628,12990
611,12990
600,12990
596,12990
595,12990
593,12990
591,12989
589,12989
588,12989
587,12988
585,12987
583,12986
581,12985
581,12984
580,12984
579,12982
578,12980
577,12979
577,12978
576,12976
575,12974
575,12972
575,12971
575,12970
575,12969
575,12965
575,12954
575,12937
575,12916
575,12896
575,12879
575,12868
575,12864
575,12863
575,12861
576,12858
576,12856
576,12855
577,12854
578,12853
579,12851
580,12849
581,12848
581,12847
583,12846
585,12845
586,12845
587,12845
589,12844
591,12844
593,12843
594,12843
595,12843
" style="stroke:#036998;stroke-width:0;
stroke-linejoin:bevel; stroke-linecap:butt;
fill:#036998;
"/>
<!-- Line -->
<!--  spline  -->
<polyline points="595,12843
596,12843
600,12843
611,12843
628,12843
652,12843
680,12843
708,12843
732,12843
749,12843
760,12843
764,12843
765,12843
767,12843
770,12844
772,12844
773,12844
774,12844
775,12845
777,12846
779,12847
780,12848
781,12849
782,12851
783,12853
783,12854
784,12856
784,12858
785,12860
785,12862
785,12863
785,12864
785,12868
785,12879
785,12896
785,12917
785,12937
785,12954
785,12965
785,12969
785,12970
785,12972
784,12974
784,12976
784,12977
784,12978
783,12980
782,12982
781,12984
780,12984
779,12985
777,12986
775,12987
775,12988
774,12988
772,12989
770,12990
768,12990
766,12990
765,12990
764,12990
760,12990
749,12990
732,12990
708,12990
680,12990
652,12990
628,12990
611,12990
600,12990
596,12990
595,12990
593,12990
591,12989
589,12989
588,12989
587,12988
585,12987
583,12986
581,12985
581,12984
580,12984
579,12982
578,12980
577,12979
577,12978
576,12976
575,12974
575,12972
575,12971
575,12970
575,12969
575,12965
575,12954
575,12937
575,12916
575,12896
575,12879
575,12868
575,12864
575,12863
575,12861
576,12858
576,12856
576,12855
577,12854
578,12853
579,12851
580,12849
581,12848
581,12847
583,12846
585,12845
586,12845
587,12845
589,12844
591,12844
593,12843
594,12843
595,12843
" style="stroke:#ffffff;stroke-width:7;
stroke-linejoin:bevel; stroke-linecap:butt;
"/>
<!-- Line -->
<!--  polyline  -->
<polyline points="851,12777
603,12777
554,12820
808,12820
851,12777
" style="stroke:#036998;stroke-width:0;
stroke-linejoin:miter; stroke-linecap:butt;
fill:#036998;
"/>
<!-- Line -->
<!--  polyline  -->
<polyline points="851,12777
603,12777
554,12820
808,12820
851,12777
" style="stroke:#ffffff;stroke-width:7;
stroke-linejoin:miter; stroke-linecap:butt;
"/>
<!-- Line -->
<!--  spline  -->
<polyline points="659,12877
658,12877
654,12877
647,12876
643,12876
642,12876
640,12876
637,12877
633,12878
629,12879
625,12881
624,12881
624,12882
623,12883
620,12885
618,12887
617,12888
616,12889
615,12892
614,12895
614,12897
614,12900
614,12901
613,12901
611,12903
606,12904
604,12906
603,12906
602,12907
601,12909
599,12912
598,12915
597,12918
597,12919
597,12920
597,12921
598,12924
599,12927
599,12928
600,12928
600,12929
602,12931
604,12933
606,12933
607,12934
608,12934
609,12934
609,12935
610,12937
610,12942
611,12944
611,12945
612,12946
613,12948
615,12950
618,12953
621,12955
623,12956
624,12956
625,12957
629,12958
633,12959
634,12959
635,12959
636,12959
640,12958
644,12957
646,12956
649,12955
650,12954
651,12953
654,12956
657,12959
660,12962
663,12963
666,12965
671,12966
678,12968
685,12969
688,12969
689,12969
692,12969
699,12969
706,12969
709,12968
710,12968
712,12968
718,12966
723,12964
727,12962
729,12960
731,12959
732,12960
733,12960
737,12960
742,12959
746,12959
747,12959
749,12958
751,12957
754,12956
758,12954
761,12952
762,12951
763,12950
765,12947
767,12944
767,12943
767,12942
768,12941
768,12938
768,12935
767,12932
767,12930
766,12929
767,12929
768,12929
769,12928
771,12926
772,12925
772,12924
773,12923
774,12921
774,12919
774,12917
774,12916
775,12915
774,12914
774,12912
773,12910
773,12908
772,12907
770,12905
768,12903
765,12903
763,12902
762,12902
763,12901
763,12899
764,12895
764,12893
764,12892
764,12890
763,12888
761,12885
759,12883
758,12882
757,12882
756,12882
753,12880
750,12878
749,12878
748,12877
747,12877
743,12876
739,12876
735,12876
732,12876
730,12876
729,12875
728,12875
725,12873
720,12870
717,12868
716,12868
713,12867
710,12866
705,12866
699,12865
693,12865
691,12865
690,12865
687,12865
682,12866
677,12867
674,12867
673,12868
671,12868
667,12870
663,12872
662,12874
661,12876
660,12877
659,12877
" style="stroke:#ffffff;stroke-width:0;
stroke-linejoin:bevel; stroke-linecap:butt;
fill:#ffffff;
"/>
<!-- Line -->
<!--  polyline  -->
<polyline points="1236,12762
1205,12806
937,12806
981,12762
1236,12762
" style="stroke:#036998;stroke-width:0;
stroke-linejoin:miter; stroke-linecap:butt;
fill:#036998;
"/>
<!-- Line -->
<!--  polyline  -->
<polyline points="1236,12762
1205,12806
937,12806
981,12762
1236,12762
" style="stroke:#ffffff;stroke-width:7;
stroke-linejoin:miter; stroke-linecap:butt;
"/>
<!-- Line -->
<!--  polyline  -->
<polyline points="937,12854
937,12806
1193,12806
1193,12854
937,12854
" style="stroke:#036998;stroke-width:0;
stroke-linejoin:miter; stroke-linecap:butt;
fill:#036998;
"/>
<!-- Line -->
<!--  polyline  -->
<polyline points="937,12854
937,12806
1193,12806
1193,12854
937,12854
" style="stroke:#ffffff;stroke-width:7;
stroke-linejoin:miter; stroke-linecap:butt;
"/>
<!-- Line -->
<!--  polyline  -->
<polyline points="1185,12916
1185,12901
1218,12854
1218,12883
1185,12916
" style="stroke:#036998;stroke-width:0;
stroke-linejoin:miter; stroke-linecap:butt;
fill:#036998;
"/>
<!-- Line -->
<!--  polyline  -->
<polyline points="1185,12916
1185,12901
1218,12854
1218,12883
1185,12916
" style="stroke:#ffffff;stroke-width:7;
stroke-linejoin:miter; stroke-linecap:butt;
"/>
<!-- Line -->
<!--  polyline  -->
<polyline points="1185,12901
1185,12916
891,12916
891,12901
1185,12901
" style="stroke:#036998;stroke-width:0;
stroke-linejoin:miter; stroke-linecap:butt;
fill:#036998;
"/>
<!-- Line -->
<!--  polyline  -->
<polyline points="1185,12901
1185,12916
891,12916
891,12901
1185,12901
" style="stroke:#ffffff;stroke-width:7;
stroke-linejoin:miter; stroke-linecap:butt;
"/>
<!-- Line -->
<!--  polyline  -->
<polyline points="937,12604
1191,12604
1191,12796
937,12796
937,12604
" style="stroke:#036998;stroke-width:0;
stroke-linejoin:miter; stroke-linecap:butt;
fill:#036998;
"/>
<!-- Line -->
<!--  polyline  -->
<polyline points="937,12604
1191,12604
1191,12796
937,12796
937,12604
" style="stroke:#ffffff;stroke-width:7;
stroke-linejoin:miter; stroke-linecap:butt;
"/>
<!-- Line -->
<!--  polyline  -->
<polyline points="1191,12796
1234,12752
1234,12560
1191,12604
1191,12796
" style="stroke:#036998;stroke-width:0;
stroke-linejoin:miter; stroke-linecap:butt;
fill:#036998;
"/>
<!-- Line -->
<!--  polyline  -->
<polyline points="1191,12796
1234,12752
1234,12560
1191,12604
1191,12796
" style="stroke:#ffffff;stroke-width:7;
stroke-linejoin:miter; stroke-linecap:butt;
"/>
<!-- Line -->
<!--  polyline  -->
<polyline points="1185,12901
891,12901
925,12854
1218,12854
1185,12901
" style="stroke:#036998;stroke-width:0;
stroke-linejoin:miter; stroke-linecap:butt;
fill:#036998;
"/>
<!-- Line -->
<!--  polyline  -->
<polyline points="1185,12901
891,12901
925,12854
1218,12854
1185,12901
" style="stroke:#ffffff;stroke-width:7;
stroke-linejoin:miter; stroke-linecap:butt;
"/>
<!-- Line -->
<!--  polyline  -->
<polyline points="1192,12854
1192,12806
1236,12763
1236,12811
1192,12854
" style="stroke:#036998;stroke-width:0;
stroke-linejoin:miter; stroke-linecap:butt;
fill:#036998;
"/>
<!-- Line -->
<!--  polyline  -->
<polyline points="1192,12854
1192,12806
1236,12763
1236,12811
1192,12854
" style="stroke:#ffffff;stroke-width:7;
stroke-linejoin:miter; stroke-linecap:butt;
"/>
<!-- Line -->
<!--  spline  -->
<polyline points="978,12626
979,12626
983,12626
994,12626
1012,12626
1036,12626
1064,12626
1091,12626
1115,12626
1133,12626
1144,12626
1148,12626
1149,12626
1151,12626
1153,12627
1155,12627
1156,12627
1157,12628
1159,12629
1161,12630
1163,12631
1163,12632
1164,12632
1165,12634
1166,12636
1167,12637
1167,12638
1168,12640
1169,12642
1169,12644
1169,12645
1169,12646
1169,12647
1169,12651
1169,12662
1169,12679
1169,12700
1169,12720
1169,12737
1169,12748
1169,12752
1169,12753
1169,12755
1168,12758
1168,12760
1168,12761
1167,12762
1166,12763
1165,12765
1164,12767
1163,12768
1163,12769
1161,12770
1159,12771
1158,12771
1157,12771
1155,12772
1153,12773
1151,12773
1150,12774
1149,12774
1148,12774
1144,12774
1133,12774
1115,12774
1091,12774
1063,12774
1036,12774
1012,12774
994,12774
983,12774
979,12774
978,12774
976,12773
974,12773
972,12772
971,12772
970,12772
969,12771
967,12770
965,12769
965,12768
964,12768
963,12767
962,12765
961,12763
960,12763
960,12762
959,12760
958,12758
958,12756
958,12754
958,12753
958,12752
958,12748
958,12737
958,12720
958,12699
958,12679
958,12662
958,12651
958,12647
958,12646
958,12644
959,12642
959,12640
959,12639
960,12638
961,12636
962,12634
963,12632
964,12632
965,12632
965,12631
967,12630
969,12629
969,12628
970,12628
972,12627
974,12626
976,12626
977,12626
978,12626
" style="stroke:#036998;stroke-width:0;
stroke-linejoin:bevel; stroke-linecap:butt;
fill:#036998;
"/>
<!-- Line -->
<!--  spline  -->
<polyline points="978,12626
979,12626
983,12626
994,12626
1012,12626
1036,12626
1064,12626
1091,12626
1115,12626
1133,12626
1144,12626
1148,12626
1149,12626
1151,12626
1153,12627
1155,12627
1156,12627
1157,12628
1159,12629
1161,12630
1163,12631
1163,12632
1164,12632
1165,12634
1166,12636
1167,12637
1167,12638
1168,12640
1169,12642
1169,12644
1169,12645
1169,12646
1169,12647
1169,12651
1169,12662
1169,12679
1169,12700
1169,12720
1169,12737
1169,12748
1169,12752
1169,12753
1169,12755
1168,12758
1168,12760
1168,12761
1167,12762
1166,12763
1165,12765
1164,12767
1163,12768
1163,12769
1161,12770
1159,12771
1158,12771
1157,12771
1155,12772
1153,12773
1151,12773
1150,12774
1149,12774
1148,12774
1144,12774
1133,12774
1115,12774
1091,12774
1063,12774
1036,12774
1012,12774
994,12774
983,12774
979,12774
978,12774
976,12773
974,12773
972,12772
971,12772
970,12772
969,12771
967,12770
965,12769
965,12768
964,12768
963,12767
962,12765
961,12763
960,12763
960,12762
959,12760
958,12758
958,12756
958,12754
958,12753
958,12752
958,12748
958,12737
958,12720
958,12699
958,12679
958,12662
958,12651
958,12647
958,12646
958,12644
959,12642
959,12640
959,12639
960,12638
961,12636
962,12634
963,12632
964,12632
965,12632
965,12631
967,12630
969,12629
969,12628
970,12628
972,12627
974,12626
976,12626
977,12626
978,12626
" style="stroke:#ffffff;stroke-width:7;
stroke-linejoin:bevel; stroke-linecap:butt;
"/>
<!-- Line -->
<!--  polyline  -->
<polyline points="1234,12560
987,12560
937,12604
1191,12604
1234,12560
" style="stroke:#036998;stroke-width:0;
stroke-linejoin:miter; stroke-linecap:butt;
fill:#036998;
"/>
<!-- Line -->
<!--  polyline  -->
<polyline points="1234,12560
987,12560
937,12604
1191,12604
1234,12560
" style="stroke:#ffffff;stroke-width:7;
stroke-linejoin:miter; stroke-linecap:butt;
"/>
<!-- Line -->
<!--  spline  -->
<polyline points="1042,12660
1041,12660
1037,12660
1030,12659
1026,12659
1025,12659
1023,12659
1020,12660
1016,12661
1012,12662
1008,12664
1007,12664
1007,12665
1006,12666
1003,12668
1001,12670
1000,12672
999,12673
998,12676
997,12679
997,12681
997,12683
997,12684
997,12685
996,12685
994,12687
989,12688
987,12690
986,12690
985,12691
984,12693
982,12695
981,12698
980,12701
980,12702
980,12703
980,12704
981,12707
982,12710
982,12711
983,12711
983,12712
985,12714
987,12716
989,12716
990,12717
991,12717
992,12717
992,12718
993,12720
993,12725
994,12727
994,12728
995,12729
996,12731
998,12733
1001,12736
1004,12738
1006,12739
1007,12739
1008,12740
1012,12741
1016,12742
1017,12742
1018,12742
1019,12742
1023,12742
1027,12741
1030,12740
1032,12739
1034,12738
1035,12737
1037,12740
1041,12743
1043,12746
1046,12747
1049,12748
1054,12750
1061,12751
1068,12752
1071,12752
1072,12752
1075,12752
1082,12752
1089,12751
1092,12751
1093,12751
1096,12750
1102,12749
1108,12747
1111,12746
1113,12744
1115,12743
1116,12743
1117,12743
1120,12743
1126,12742
1129,12742
1130,12742
1132,12741
1134,12740
1137,12739
1141,12737
1144,12735
1145,12734
1146,12733
1148,12730
1150,12727
1150,12726
1150,12725
1151,12724
1151,12721
1151,12718
1151,12716
1150,12714
1150,12713
1151,12712
1153,12711
1154,12710
1156,12709
1156,12708
1157,12706
1158,12705
1158,12702
1158,12700
1158,12699
1158,12698
1158,12697
1157,12695
1156,12693
1156,12692
1155,12692
1155,12691
1153,12689
1151,12687
1149,12686
1147,12685
1146,12685
1146,12684
1146,12682
1147,12678
1147,12676
1147,12675
1146,12673
1146,12671
1144,12669
1142,12667
1141,12666
1141,12665
1140,12665
1137,12663
1134,12662
1132,12661
1130,12661
1126,12660
1122,12659
1118,12659
1115,12659
1113,12659
1112,12658
1111,12658
1108,12656
1103,12654
1100,12652
1099,12652
1096,12651
1093,12651
1088,12650
1082,12649
1076,12649
1074,12648
1073,12648
1070,12648
1065,12649
1060,12650
1058,12650
1057,12650
1055,12651
1051,12653
1047,12655
1045,12658
1044,12660
1043,12661
1042,12660
" style="stroke:#ffffff;stroke-width:0;
stroke-linejoin:bevel; stroke-linecap:butt;
fill:#ffffff;
"/>
<!-- Line -->
<!--  polyline  -->
<polyline points="494,12746
463,12790
195,12790
240,12746
494,12746
" style="stroke:#036998;stroke-width:0;
stroke-linejoin:miter; stroke-linecap:butt;
fill:#036998;
"/>
<!-- Line -->
<!--  polyline  -->
<polyline points="494,12746
463,12790
195,12790
240,12746
494,12746
" style="stroke:#ffffff;stroke-width:7;
stroke-linejoin:miter; stroke-linecap:butt;
"/>
<!-- Line -->
<!--  polyline  -->
<polyline points="195,12838
195,12790
451,12790
451,12838
195,12838
" style="stroke:#036998;stroke-width:0;
stroke-linejoin:miter; stroke-linecap:butt;
fill:#036998;
"/>
<!-- Line -->
<!--  polyline  -->
<polyline points="195,12838
195,12790
451,12790
451,12838
195,12838
" style="stroke:#ffffff;stroke-width:7;
stroke-linejoin:miter; stroke-linecap:butt;
"/>
<!-- Line -->
<!--  polyline  -->
<polyline points="443,12899
443,12884
477,12838
477,12866
443,12899
" style="stroke:#036998;stroke-width:0;
stroke-linejoin:miter; stroke-linecap:butt;
fill:#036998;
"/>
<!-- Line -->
<!--  polyline  -->
<polyline points="443,12899
443,12884
477,12838
477,12866
443,12899
" style="stroke:#ffffff;stroke-width:7;
stroke-linejoin:miter; stroke-linecap:butt;
"/>
<!-- Line -->
<!--  polyline  -->
<polyline points="443,12884
443,12899
150,12899
150,12884
443,12884
" style="stroke:#036998;stroke-width:0;
stroke-linejoin:miter; stroke-linecap:butt;
fill:#036998;
"/>
<!-- Line -->
<!--  polyline  -->
<polyline points="443,12884
443,12899
150,12899
150,12884
443,12884
" style="stroke:#ffffff;stroke-width:7;
stroke-linejoin:miter; stroke-linecap:butt;
"/>
<!-- Line -->
<!--  polyline  -->
<polyline points="195,12587
449,12587
449,12779
195,12779
195,12587
" style="stroke:#036998;stroke-width:0;
stroke-linejoin:miter; stroke-linecap:butt;
fill:#036998;
"/>
<!-- Line -->
<!--  polyline  -->
<polyline points="195,12587
449,12587
449,12779
195,12779
195,12587
" style="stroke:#ffffff;stroke-width:7;
stroke-linejoin:miter; stroke-linecap:butt;
"/>
<!-- Line -->
<!--  polyline  -->
<polyline points="449,12779
493,12736
493,12544
449,12587
449,12779
" style="stroke:#036998;stroke-width:0;
stroke-linejoin:miter; stroke-linecap:butt;
fill:#036998;
"/>
<!-- Line -->
<!--  polyline  -->
<polyline points="449,12779
493,12736
493,12544
449,12587
449,12779
" style="stroke:#ffffff;stroke-width:7;
stroke-linejoin:miter; stroke-linecap:butt;
"/>
<!-- Line -->
<!--  polyline  -->
<polyline points="443,12884
150,12884
184,12838
477,12838
443,12884
" style="stroke:#036998;stroke-width:0;
stroke-linejoin:miter; stroke-linecap:butt;
fill:#036998;
"/>
<!-- Line -->
<!--  polyline  -->
<polyline points="443,12884
150,12884
184,12838
477,12838
443,12884
" style="stroke:#ffffff;stroke-width:7;
stroke-linejoin:miter; stroke-linecap:butt;
"/>
<!-- Line -->
<!--  polyline  -->
<polyline points="451,12838
451,12790
494,12747
494,12794
451,12838
" style="stroke:#036998;stroke-width:0;
stroke-linejoin:miter; stroke-linecap:butt;
fill:#036998;
"/>
<!-- Line -->
<!--  polyline  -->
<polyline points="451,12838
451,12790
494,12747
494,12794
451,12838
" style="stroke:#ffffff;stroke-width:7;
stroke-linejoin:miter; stroke-linecap:butt;
"/>
<!-- Line -->
<!--  spline  -->
<polyline points="237,12609
238,12609
242,12609
253,12609
270,12609
294,12609
322,12609
350,12609
374,12609
391,12609
402,12609
406,12609
407,12609
409,12609
411,12610
413,12610
414,12610
415,12611
417,12612
419,12613
421,12614
421,12615
422,12615
423,12617
424,12619
425,12620
425,12621
426,12623
427,12625
427,12627
427,12628
427,12629
427,12630
427,12634
427,12645
427,12662
427,12683
427,12704
427,12721
427,12732
427,12736
427,12737
427,12739
426,12741
426,12743
426,12744
425,12745
424,12747
423,12749
422,12751
421,12751
421,12752
419,12753
417,12754
416,12755
415,12755
413,12756
411,12757
409,12757
408,12757
407,12757
406,12757
402,12757
391,12757
374,12757
350,12757
322,12757
294,12757
270,12757
253,12757
242,12757
238,12757
237,12757
235,12757
232,12756
230,12756
229,12756
228,12755
227,12754
225,12753
224,12752
223,12751
222,12751
221,12749
220,12747
219,12746
219,12745
218,12743
217,12741
217,12739
217,12738
217,12737
217,12736
217,12732
217,12721
217,12704
217,12683
217,12662
217,12645
217,12634
217,12630
217,12629
217,12627
218,12625
218,12623
218,12622
219,12621
220,12619
221,12617
222,12615
223,12615
224,12614
225,12613
227,12612
227,12611
228,12611
230,12610
232,12609
234,12609
236,12609
237,12609
" style="stroke:#036998;stroke-width:0;
stroke-linejoin:bevel; stroke-linecap:butt;
fill:#036998;
"/>
<!-- Line -->
<!--  spline  -->
<polyline points="237,12609
238,12609
242,12609
253,12609
270,12609
294,12609
322,12609
350,12609
374,12609
391,12609
402,12609
406,12609
407,12609
409,12609
411,12610
413,12610
414,12610
415,12611
417,12612
419,12613
421,12614
421,12615
422,12615
423,12617
424,12619
425,12620
425,12621
426,12623
427,12625
427,12627
427,12628
427,12629
427,12630
427,12634
427,12645
427,12662
427,12683
427,12704
427,12721
427,12732
427,12736
427,12737
427,12739
426,12741
426,12743
426,12744
425,12745
424,12747
423,12749
422,12751
421,12751
421,12752
419,12753
417,12754
416,12755
415,12755
413,12756
411,12757
409,12757
408,12757
407,12757
406,12757
402,12757
391,12757
374,12757
350,12757
322,12757
294,12757
270,12757
253,12757
242,12757
238,12757
237,12757
235,12757
232,12756
230,12756
229,12756
228,12755
227,12754
225,12753
224,12752
223,12751
222,12751
221,12749
220,12747
219,12746
219,12745
218,12743
217,12741
217,12739
217,12738
217,12737
217,12736
217,12732
217,12721
217,12704
217,12683
217,12662
217,12645
217,12634
217,12630
217,12629
217,12627
218,12625
218,12623
218,12622
219,12621
220,12619
221,12617
222,12615
223,12615
224,12614
225,12613
227,12612
227,12611
228,12611
230,12610
232,12609
234,12609
236,12609
237,12609
" style="stroke:#ffffff;stroke-width:7;
stroke-linejoin:bevel; stroke-linecap:butt;
"/>
<!-- Line -->
<!--  polyline  -->
<polyline points="493,12544
245,12544
195,12587
449,12587
493,12544
" style="stroke:#036998;stroke-width:0;
stroke-linejoin:miter; stroke-linecap:butt;
fill:#036998;
"/>
<!-- Line -->
<!--  polyline  -->
<polyline points="493,12544
245,12544
195,12587
449,12587
493,12544
" style="stroke:#ffffff;stroke-width:7;
stroke-linejoin:miter; stroke-linecap:butt;
"/>
<!-- Line -->
<!--  spline  -->
<polyline points="292,12644
291,12644
287,12643
280,12643
276,12642
275,12642
273,12642
270,12643
266,12644
262,12645
258,12647
257,12647
257,12648
256,12649
253,12651
251,12653
250,12655
249,12656
248,12659
247,12662
247,12664
247,12666
247,12667
247,12668
246,12668
244,12670
239,12671
237,12673
236,12673
235,12674
234,12676
232,12678
231,12681
230,12684
230,12685
230,12686
230,12687
231,12690
232,12693
232,12694
233,12695
233,12696
235,12698
237,12700
239,12701
240,12701
241,12701
242,12701
242,12702
243,12704
243,12708
244,12710
244,12711
245,12713
246,12715
248,12717
251,12720
254,12722
256,12723
257,12723
258,12723
262,12724
266,12725
267,12725
268,12725
269,12725
273,12725
277,12724
280,12723
282,12722
284,12721
285,12720
287,12723
291,12726
293,12729
296,12730
299,12731
304,12733
311,12734
318,12735
321,12735
322,12735
325,12735
332,12735
339,12735
342,12735
343,12735
346,12734
352,12733
358,12731
361,12729
363,12727
365,12726
366,12726
367,12726
370,12726
376,12725
379,12725
380,12725
382,12725
384,12724
387,12723
391,12721
394,12719
395,12718
395,12717
396,12716
398,12713
400,12710
400,12709
401,12708
401,12705
401,12702
401,12699
400,12697
400,12696
401,12696
403,12695
404,12693
406,12692
406,12691
407,12690
408,12688
408,12686
408,12684
408,12683
408,12682
408,12681
407,12679
406,12677
406,12676
405,12675
405,12674
403,12672
401,12670
399,12669
397,12668
396,12668
396,12667
396,12665
397,12661
397,12659
397,12658
396,12656
396,12654
394,12652
392,12650
391,12649
391,12648
390,12648
387,12646
384,12645
382,12644
380,12644
376,12643
372,12643
368,12643
365,12643
363,12643
362,12642
361,12642
358,12640
353,12637
350,12635
349,12635
346,12634
343,12633
338,12633
332,12632
326,12632
324,12632
323,12632
320,12632
315,12633
310,12634
308,12634
307,12635
305,12635
301,12637
297,12639
295,12641
294,12643
293,12644
292,12644
" style="stroke:#ffffff;stroke-width:0;
stroke-linejoin:bevel; stroke-linecap:butt;
fill:#ffffff;
"/>
<!-- Line -->
<!--  spline  -->
<polyline points="476,12497
475,12497
469,12496
457,12496
436,12494
411,12492
386,12490
365,12488
353,12488
347,12487
346,12487
343,12487
337,12488
329,12489
318,12490
306,12492
293,12495
278,12498
262,12503
245,12509
226,12517
213,12523
207,12527
204,12528
202,12530
197,12534
187,12542
174,12554
162,12566
154,12575
151,12580
149,12582
148,12585
145,12590
141,12600
135,12614
131,12629
128,12642
128,12652
128,12662
129,12669
130,12675
130,12678
130,12680
131,12682
131,12684
130,12685
123,12688
109,12694
89,12703
68,12712
54,12718
47,12721
46,12722
43,12725
39,12730
33,12737
27,12746
20,12757
14,12770
8,12786
4,12802
2,12813
2,12819
2,12822
2,12825
3,12831
4,12842
7,12857
12,12875
16,12885
18,12889
20,12893
25,12900
36,12913
49,12924
60,12930
70,12933
78,12935
82,12936
83,12936
86,12936
89,12936
92,12936
92,12938
94,12948
98,12967
102,12985
104,12995
104,12997
106,13000
110,13005
115,13012
123,13020
132,13029
144,13039
159,13051
175,13061
187,13068
193,13072
196,13074
200,13075
206,13078
220,13083
239,13090
259,13096
272,13100
280,13101
283,13102
287,13103
294,13104
308,13105
328,13106
348,13106
365,13104
379,13102
390,13099
400,13096
406,13094
409,13093
410,13093
412,13090
415,13087
417,13084
418,13085
425,13093
437,13108
448,13122
455,13130
456,13131
458,13133
463,13136
470,13140
478,13145
488,13151
500,13157
516,13163
532,13169
543,13172
549,13174
551,13174
554,13175
560,13176
573,13178
591,13182
610,13185
623,13187
629,13188
633,13188
636,13188
643,13189
657,13190
677,13192
698,13194
716,13195
732,13196
745,13196
756,13197
764,13197
767,13197
768,13197
769,13197
775,13197
787,13197
805,13197
822,13197
834,13197
840,13197
841,13197
842,13197
847,13197
857,13196
869,13196
884,13194
902,13192
918,13189
927,13188
930,13188
932,13187
940,13185
954,13181
968,13176
974,13174
977,13172
979,13171
985,13168
997,13161
1009,13153
1018,13146
1025,13140
1031,13135
1033,13133
1034,13132
1037,13133
1040,13133
1043,13134
1044,13134
1049,13134
1060,13133
1078,13132
1100,13130
1121,13128
1139,13127
1150,13126
1155,13126
1156,13126
1157,13126
1161,13125
1169,13122
1180,13119
1193,13114
1207,13108
1223,13100
1240,13089
1255,13078
1265,13070
1270,13066
1272,13064
1274,13061
1278,13056
1285,13047
1294,13033
1302,13019
1307,13008
1309,13003
1310,13000
1311,12998
1312,12992
1314,12981
1316,12966
1316,12950
1315,12937
1313,12926
1311,12916
1308,12909
1306,12903
1305,12900
1306,12900
1308,12899
1313,12898
1315,12897
1316,12897
1317,12896
1323,12892
1334,12883
1344,12875
1350,12871
1351,12870
1351,12869
1354,12866
1357,12858
1362,12849
1365,12837
1368,12821
1369,12805
1369,12797
1369,12793
1368,12789
1367,12781
1362,12765
1356,12750
1353,12742
1351,12738
1350,12735
1344,12728
1332,12716
1321,12707
1310,12700
1300,12695
1290,12692
1282,12689
1276,12687
1273,12686
1274,12684
1274,12682
1275,12680
1275,12679
1276,12674
1278,12663
1281,12648
1284,12633
1286,12622
1287,12617
1287,12616
1287,12615
1286,12610
1284,12601
1280,12589
1273,12576
1262,12560
1252,12549
1244,12541
1240,12537
1238,12536
1236,12534
1230,12531
1220,12524
1205,12516
1189,12508
1177,12503
1171,12501
1169,12500
1165,12498
1159,12497
1145,12494
1125,12490
1103,12487
1084,12486
1067,12486
1053,12486
1040,12487
1031,12488
1027,12488
1026,12488
1025,12488
1022,12486
1018,12484
1015,12482
1014,12482
1013,12482
1009,12479
999,12474
984,12466
964,12455
945,12445
930,12437
920,12432
916,12429
915,12429
912,12428
905,12426
895,12424
883,12421
868,12417
852,12414
833,12411
810,12408
785,12406
760,12405
741,12404
728,12404
721,12404
717,12405
713,12405
706,12406
694,12407
675,12409
652,12412
629,12416
612,12419
601,12421
595,12423
591,12423
588,12424
583,12426
573,12429
560,12435
543,12443
524,12454
511,12464
501,12474
494,12483
489,12490
486,12496
484,12499
482,12498
478,12498
476,12497
" style="stroke:#036998;stroke-width:7;
stroke-linejoin:bevel; stroke-linecap:butt;
"/>
<!-- Line -->
<!--  polyline  -->
<polyline points="572,13001
414,12895
" style="stroke:#036998;stroke-width:7;
stroke-linejoin:miter; stroke-linecap:butt;
"/>
<!-- Line -->
<!--  polyline  -->
<polyline points="827,12976
927,12909
" style="stroke:#036998;stroke-width:7;
stroke-linejoin:miter; stroke-linecap:butt;
"/>
<!-- Line -->
<!--  polyline  -->
<polyline points="475,12651
947,12651
" style="stroke:#036998;stroke-width:7;
stroke-linejoin:miter; stroke-linecap:butt;
"/>
</g>
</svg>
