<?xml version="1.0" standalone="no"?>
<!DOCTYPE svg PUBLIC "-//W3C//DTD SVG 1.1//EN"
"http://www.w3.org/Graphics/SVG/1.1/DTD/svg11.dtd">
<!-- Creator: fig2dev Version 3.2 Patchlevel 5c -->
<!-- CreationDate: Fri Sep 14 10:46:58 2012 -->
<!-- Magnification: 1.000 -->
<svg xmlns="http://www.w3.org/2000/svg" width="0.5in" height="0.4in" viewBox="4818 6346 605 529">
<g style="stroke-width:.025in; fill:none">
<!-- Line -->
<!--  spline  -->
<polyline points="4993,6525
4992,6526
4986,6529
4976,6535
4966,6541
4960,6544
4959,6545
4959,6546
4956,6549
4951,6555
4946,6562
4939,6572
4931,6585
4924,6598
4920,6604
4919,6607
4918,6610
4915,6617
4909,6629
4904,6641
4901,6647
4901,6649
4900,6652
4898,6657
4895,6665
4892,6673
4891,6678
4890,6680
4890,6681
4890,6682
4887,6688
4883,6699
4879,6709
4876,6715
4876,6716
4876,6717
4874,6721
4870,6728
4866,6736
4860,6747
4855,6756
4853,6760
4852,6761
4849,6765
4845,6772
4841,6779
4839,6781
4839,6782
4838,6784
4835,6788
4833,6791
4832,6793
4831,6793
4831,6794
4832,6794
4835,6794
4843,6794
4858,6794
4880,6794
4909,6794
4945,6794
4986,6794
5030,6794
5073,6794
5114,6794
5150,6794
5179,6794
5201,6794
5216,6794
5224,6794
5227,6794
5228,6794
5230,6792
5231,6790
5233,6788
5235,6786
5238,6782
5241,6778
5247,6770
5253,6762
5255,6759
5256,6757
5258,6753
5265,6744
5271,6736
5274,6731
5276,6730
5277,6728
5281,6723
5287,6714
5294,6704
5299,6696
5303,6690
5306,6684
5308,6682
5308,6681
5308,6680
5310,6676
5311,6670
5313,6666
5313,6665
5314,6662
5316,6657
5318,6650
5322,6641
5327,6629
5333,6617
5336,6610
5337,6607
5338,6604
5342,6598
5349,6585
5357,6573
5361,6566
5362,6563
5364,6560
5368,6555
5377,6545
5387,6537
5395,6531
5402,6528
5407,6526
5410,6525
5411,6525
5408,6525
5402,6525
5390,6525
5372,6525
5348,6525
5318,6525
5283,6525
5243,6525
5202,6525
5161,6525
5121,6525
5086,6525
5056,6525
5032,6525
5014,6525
5002,6525
4996,6525
4993,6525
" style="stroke:#07a8d6;stroke-width:0;
stroke-linejoin:bevel; stroke-linecap:butt;
fill:#07a8d6;
"/>
<!-- Line -->
<!--  spline  -->
<polyline points="4993,6525
4992,6526
4986,6529
4976,6535
4966,6541
4960,6544
4959,6545
4959,6546
4956,6549
4951,6555
4946,6562
4939,6572
4931,6585
4924,6598
4920,6604
4919,6607
4918,6610
4915,6617
4909,6629
4904,6641
4901,6647
4901,6649
4900,6652
4898,6657
4895,6665
4892,6673
4891,6678
4890,6680
4890,6681
4890,6682
4887,6688
4883,6699
4879,6709
4876,6715
4876,6716
4876,6717
4874,6721
4870,6728
4866,6736
4860,6747
4855,6756
4853,6760
4852,6761
4849,6765
4845,6772
4841,6779
4839,6781
4839,6782
4838,6784
4835,6788
4833,6791
4832,6793
4831,6793
4831,6794
4832,6794
4835,6794
4843,6794
4858,6794
4880,6794
4909,6794
4945,6794
4986,6794
5030,6794
5073,6794
5114,6794
5150,6794
5179,6794
5201,6794
5216,6794
5224,6794
5227,6794
5228,6794
5230,6792
5231,6790
5233,6788
5235,6786
5238,6782
5241,6778
5247,6770
5253,6762
5255,6759
5256,6757
5258,6753
5265,6744
5271,6736
5274,6731
5276,6730
5277,6728
5281,6723
5287,6714
5294,6704
5299,6696
5303,6690
5306,6684
5308,6682
5308,6681
5308,6680
5310,6676
5311,6670
5313,6666
5313,6665
5314,6662
5316,6657
5318,6650
5322,6641
5327,6629
5333,6617
5336,6610
5337,6607
5338,6604
5342,6598
5349,6585
5357,6573
5361,6566
5362,6563
5364,6560
5368,6555
5377,6545
5387,6537
5395,6531
5402,6528
5407,6526
5410,6525
5411,6525
5408,6525
5402,6525
5390,6525
5372,6525
5348,6525
5318,6525
5283,6525
5243,6525
5202,6525
5161,6525
5121,6525
5086,6525
5056,6525
5032,6525
5014,6525
5002,6525
4996,6525
4993,6525
" style="stroke:#ffffff;stroke-width:7;
stroke-linejoin:bevel; stroke-linecap:butt;
"/>
<!-- Line -->
<!--  spline  -->
<polyline points="5228,6793
5228,6794
5228,6799
5228,6811
5228,6827
5228,6843
5228,6855
5228,6860
5228,6861
5231,6857
5239,6850
5251,6837
5269,6818
5291,6795
5316,6769
5341,6744
5363,6721
5381,6702
5393,6689
5401,6682
5404,6678
5404,6677
5404,6673
5404,6664
5404,6648
5404,6627
5404,6602
5404,6578
5404,6557
5404,6541
5404,6532
5404,6528
5404,6527
5403,6527
5398,6529
5392,6533
5387,6535
5386,6535
5385,6535
5383,6537
5378,6540
5373,6544
5365,6551
5358,6558
5355,6561
5354,6562
5351,6565
5344,6573
5337,6581
5334,6585
5333,6586
5330,6590
5323,6599
5316,6609
5310,6616
5306,6622
5303,6625
5303,6626
5302,6627
5300,6631
5296,6636
5294,6640
5293,6641
5292,6643
5290,6646
5287,6650
5284,6655
5281,6660
5280,6662
5279,6663
5278,6665
5275,6669
5272,6673
5272,6675
5271,6676
5270,6677
5268,6681
5265,6685
5263,6688
5261,6690
5260,6692
" style="stroke:#07a8d6;stroke-width:0;
stroke-linejoin:bevel; stroke-linecap:butt;
fill:#07a8d6;
"/>
<!-- Line -->
<!--  spline  -->
<polyline points="5228,6793
5228,6794
5228,6799
5228,6811
5228,6827
5228,6843
5228,6855
5228,6860
5228,6861
5231,6857
5239,6850
5251,6837
5269,6818
5291,6795
5316,6769
5341,6744
5363,6721
5381,6702
5393,6689
5401,6682
5404,6678
5404,6677
5404,6673
5404,6664
5404,6648
5404,6627
5404,6602
5404,6578
5404,6557
5404,6541
5404,6532
5404,6528
5404,6527
5403,6527
5398,6529
5392,6533
5387,6535
5386,6535
5385,6535
5383,6537
5378,6540
5373,6544
5365,6551
5358,6558
5355,6561
5354,6562
5351,6565
5344,6573
5337,6581
5334,6585
5333,6586
5330,6590
5323,6599
5316,6609
5310,6616
5306,6622
5303,6625
5303,6626
5302,6627
5300,6631
5296,6636
5294,6640
5293,6641
5292,6643
5290,6646
5287,6650
5284,6655
5281,6660
5280,6662
5279,6663
5278,6665
5275,6669
5272,6673
5272,6675
5271,6676
5270,6677
5268,6681
5265,6685
5263,6688
5261,6690
5260,6692
" style="stroke:#ffffff;stroke-width:7;
stroke-linejoin:bevel; stroke-linecap:butt;
"/>
<!-- Line -->
<!--  spline  -->
<polyline points="5106,6441
5107,6440
5112,6437
5119,6431
5124,6428
5125,6427
5128,6425
5132,6422
5137,6418
5145,6414
5152,6410
5156,6409
5157,6409
5160,6408
5168,6405
5176,6403
5179,6402
5180,6402
5183,6401
5191,6400
5199,6399
5205,6398
5210,6398
5212,6398
5213,6398
5214,6398
5220,6399
5229,6400
5235,6401
5236,6401
5237,6401
5239,6402
5243,6403
5249,6405
5255,6408
5261,6411
5263,6413
5265,6415
5270,6419
5274,6423
5276,6425
5277,6426
5279,6428
5282,6433
5285,6439
5287,6443
5287,6447
5288,6450
" style="stroke:#07a8d6;stroke-width:7;
stroke-linejoin:bevel; stroke-linecap:butt;
"/>
<!-- Line -->
<!--  spline  -->
<polyline points="5090,6482
5091,6481
5096,6478
5103,6472
5108,6469
5109,6468
5110,6468
5112,6466
5117,6463
5122,6459
5130,6455
5137,6451
5140,6450
5141,6450
5144,6449
5152,6446
5160,6444
5163,6443
5164,6443
5167,6442
5175,6441
5183,6440
5190,6439
5195,6439
5197,6439
5198,6439
5199,6439
5205,6440
5213,6441
5219,6442
5220,6442
5221,6442
5223,6443
5228,6444
5233,6446
5240,6449
5246,6452
5248,6454
5249,6454
5250,6456
5255,6460
5259,6464
5261,6466
5261,6467
5263,6469
5266,6474
5269,6480
5271,6484
5272,6488
5273,6491
" style="stroke:#07a8d6;stroke-width:7;
stroke-linejoin:bevel; stroke-linecap:butt;
"/>
<!-- Line -->
<!--  spline  -->
<polyline points="5075,6524
5076,6523
5081,6519
5088,6514
5093,6510
5094,6509
5097,6507
5101,6504
5106,6501
5114,6497
5121,6493
5125,6492
5126,6491
5129,6490
5137,6487
5145,6485
5148,6484
5149,6484
5152,6483
5160,6482
5168,6481
5175,6480
5180,6480
5182,6480
5183,6480
5184,6480
5190,6481
5198,6482
5204,6483
5205,6483
5206,6483
5208,6484
5212,6485
5218,6487
5224,6490
5230,6493
5232,6495
5234,6497
5239,6501
5243,6505
5245,6507
5246,6508
5248,6510
5251,6515
5254,6521
5256,6525
5257,6529
5258,6532
" style="stroke:#07a8d6;stroke-width:7;
stroke-linejoin:bevel; stroke-linecap:butt;
"/>
<!-- Line -->
<!--  spline  -->
<polyline points="5059,6565
5060,6564
5065,6560
5072,6555
5077,6551
5078,6550
5079,6550
5081,6548
5086,6545
5091,6542
5099,6538
5106,6535
5109,6533
5110,6533
5113,6532
5121,6529
5129,6527
5132,6526
5133,6525
5136,6525
5144,6523
5152,6522
5159,6521
5164,6521
5166,6521
5167,6521
5168,6521
5174,6522
5183,6523
5189,6524
5190,6524
5191,6524
5193,6525
5197,6526
5203,6528
5209,6531
5215,6534
5217,6536
5218,6536
5219,6538
5224,6542
5228,6546
5230,6548
5230,6549
5232,6551
5235,6556
5238,6562
5240,6566
5241,6570
5242,6573
" style="stroke:#07a8d6;stroke-width:0;
stroke-linejoin:bevel; stroke-linecap:butt;
fill:#07a8d6;
"/>
<!-- Line -->
<!--  spline  -->
<polyline points="5059,6565
5060,6564
5065,6560
5072,6555
5077,6551
5078,6550
5079,6550
5081,6548
5086,6545
5091,6542
5099,6538
5106,6535
5109,6533
5110,6533
5113,6532
5121,6529
5129,6527
5132,6526
5133,6525
5136,6525
5144,6523
5152,6522
5159,6521
5164,6521
5166,6521
5167,6521
5168,6521
5174,6522
5183,6523
5189,6524
5190,6524
5191,6524
5193,6525
5197,6526
5203,6528
5209,6531
5215,6534
5217,6536
5218,6536
5219,6538
5224,6542
5228,6546
5230,6548
5230,6549
5232,6551
5235,6556
5238,6562
5240,6566
5241,6570
5242,6573
" style="stroke:#ffffff;stroke-width:7;
stroke-linejoin:bevel; stroke-linecap:butt;
"/>
<!-- Line -->
<!--  spline  -->
<polyline points="5106,6441
5107,6440
5112,6437
5119,6431
5124,6428
5125,6427
5128,6425
5132,6422
5137,6418
5145,6414
5152,6410
5156,6409
5157,6409
5160,6408
5168,6405
5176,6403
5179,6402
5180,6402
5183,6401
5191,6400
5199,6399
5205,6398
5210,6398
5212,6398
5213,6398
5214,6398
5220,6399
5229,6400
5235,6401
5236,6401
5237,6401
5239,6402
5243,6403
5249,6405
5255,6408
5261,6411
5263,6413
5265,6415
5270,6419
5274,6423
5276,6425
5277,6426
5279,6428
5282,6433
5285,6439
5287,6443
5287,6447
5288,6450
" style="stroke:#07a8d6;stroke-width:7;
stroke-linejoin:bevel; stroke-linecap:butt;
"/>
<!-- Line -->
<!--  spline  -->
<polyline points="5121,6401
5122,6400
5127,6396
5134,6391
5139,6387
5140,6386
5141,6386
5143,6384
5148,6381
5153,6378
5161,6374
5168,6371
5171,6369
5172,6369
5175,6368
5183,6365
5191,6363
5194,6362
5195,6361
5198,6360
5206,6359
5214,6358
5221,6358
5226,6358
5228,6358
5229,6358
5230,6358
5236,6359
5244,6359
5250,6360
5251,6360
5252,6360
5254,6361
5258,6363
5263,6365
5270,6368
5276,6371
5278,6372
5279,6373
5281,6374
5286,6378
5290,6382
5292,6385
5292,6386
5294,6388
5297,6393
5300,6399
5302,6403
5303,6407
5304,6409
" style="stroke:#07a8d6;stroke-width:7;
stroke-linejoin:bevel; stroke-linecap:butt;
"/>
<!-- Line -->
<!--  spline  -->
<polyline points="5090,6482
5091,6481
5096,6478
5103,6472
5108,6469
5109,6468
5110,6468
5112,6466
5117,6463
5122,6459
5130,6455
5137,6451
5140,6450
5141,6450
5144,6449
5152,6446
5160,6444
5163,6443
5164,6443
5167,6442
5175,6441
5183,6440
5190,6439
5195,6439
5197,6439
5198,6439
5199,6439
5205,6440
5213,6441
5219,6442
5220,6442
5221,6442
5223,6443
5228,6444
5233,6446
5240,6449
5246,6452
5248,6454
5249,6454
5250,6456
5255,6460
5259,6464
5261,6466
5261,6467
5263,6469
5266,6474
5269,6480
5271,6484
5272,6488
5273,6491
" style="stroke:#07a8d6;stroke-width:7;
stroke-linejoin:bevel; stroke-linecap:butt;
"/>
<!-- Line -->
<!--  spline  -->
<polyline points="5075,6524
5076,6523
5081,6519
5088,6514
5093,6510
5094,6509
5097,6507
5101,6504
5106,6501
5114,6497
5121,6493
5125,6492
5126,6491
5129,6490
5137,6487
5145,6485
5148,6484
5149,6484
5152,6483
5160,6482
5168,6481
5175,6480
5180,6480
5182,6480
5183,6480
5184,6480
5190,6481
5198,6482
5204,6483
5205,6483
5206,6483
5208,6484
5212,6485
5218,6487
5224,6490
5230,6493
5232,6495
5234,6497
5239,6501
5243,6505
5245,6507
5246,6508
5248,6510
5251,6515
5254,6521
5256,6525
5257,6529
5258,6532
" style="stroke:#07a8d6;stroke-width:7;
stroke-linejoin:bevel; stroke-linecap:butt;
"/>
<!-- Line -->
<!--  spline  -->
<polyline points="5059,6565
5060,6564
5065,6560
5072,6555
5077,6551
5078,6550
5079,6550
5081,6548
5086,6545
5091,6542
5099,6538
5106,6535
5109,6533
5110,6533
5113,6532
5121,6529
5129,6527
5132,6526
5133,6525
5136,6525
5144,6523
5152,6522
5159,6521
5164,6521
5166,6521
5167,6521
5168,6521
5174,6522
5183,6523
5189,6524
5190,6524
5191,6524
5193,6525
5197,6526
5203,6528
5209,6531
5215,6534
5217,6536
5218,6536
5219,6538
5224,6542
5228,6546
5230,6548
5230,6549
5232,6551
5235,6556
5238,6562
5240,6566
5241,6570
5242,6573
" style="stroke:#ffffff;stroke-width:7;
stroke-linejoin:bevel; stroke-linecap:butt;
"/>
<!-- Line -->
<!--  spline  -->
<polyline points="5275,6653
5275,6654
5273,6662
5269,6672
5267,6680
5267,6681
5267,6682
5264,6685
5260,6691
5254,6698
5243,6707
5233,6714
5228,6718
5226,6719
5223,6720
5217,6723
5204,6729
5191,6734
5183,6737
5181,6738
5178,6739
5170,6741
5154,6745
5137,6749
5123,6751
5111,6752
5102,6753
5097,6754
5096,6754
5094,6754
5084,6754
5066,6755
5049,6755
5039,6755
5037,6755
5036,6755
5031,6755
5023,6754
5013,6752
5000,6750
4985,6747
4972,6743
4965,6741
4962,6741
4960,6740
4954,6737
4943,6732
4932,6726
4927,6723
4926,6722
4922,6719
4915,6711
4909,6702
4905,6695
4904,6688
4903,6685
4903,6684
4903,6683
4905,6676
4908,6665
4910,6658
4910,6657
4910,6656
4913,6653
4917,6647
4923,6640
4934,6631
4944,6624
4949,6620
4951,6619
4954,6618
4960,6615
4973,6609
4986,6604
4994,6601
4996,6600
4999,6599
5007,6597
5023,6593
5040,6589
5055,6587
5066,6585
5076,6584
5081,6583
5082,6583
5084,6583
5094,6583
5112,6583
5129,6583
5139,6583
5141,6583
5142,6583
5147,6583
5155,6584
5165,6586
5178,6588
5193,6591
5206,6595
5213,6597
5216,6597
5218,6598
5224,6601
5235,6606
5246,6612
5251,6615
5252,6616
5256,6619
5263,6627
5269,6636
5273,6643
5274,6649
5275,6652
5275,6653
" style="stroke:#07a8d6;stroke-width:0;
stroke-linejoin:bevel; stroke-linecap:butt;
fill:#07a8d6;
"/>
<!-- Line -->
<!--  spline  -->
<polyline points="5275,6653
5275,6654
5273,6662
5269,6672
5267,6680
5267,6681
5267,6682
5264,6685
5260,6691
5254,6698
5243,6707
5233,6714
5228,6718
5226,6719
5223,6720
5217,6723
5204,6729
5191,6734
5183,6737
5181,6738
5178,6739
5170,6741
5154,6745
5137,6749
5123,6751
5111,6752
5102,6753
5097,6754
5096,6754
5094,6754
5084,6754
5066,6755
5049,6755
5039,6755
5037,6755
5036,6755
5031,6755
5023,6754
5013,6752
5000,6750
4985,6747
4972,6743
4965,6741
4962,6741
4960,6740
4954,6737
4943,6732
4932,6726
4927,6723
4926,6722
4922,6719
4915,6711
4909,6702
4905,6695
4904,6688
4903,6685
4903,6684
4903,6683
4905,6676
4908,6665
4910,6658
4910,6657
4910,6656
4913,6653
4917,6647
4923,6640
4934,6631
4944,6624
4949,6620
4951,6619
4954,6618
4960,6615
4973,6609
4986,6604
4994,6601
4996,6600
4999,6599
5007,6597
5023,6593
5040,6589
5055,6587
5066,6585
5076,6584
5081,6583
5082,6583
5084,6583
5094,6583
5112,6583
5129,6583
5139,6583
5141,6583
5142,6583
5147,6583
5155,6584
5165,6586
5178,6588
5193,6591
5206,6595
5213,6597
5216,6597
5218,6598
5224,6601
5235,6606
5246,6612
5251,6615
5252,6616
5256,6619
5263,6627
5269,6636
5273,6643
5274,6649
5275,6652
5275,6653
" style="stroke:#ffffff;stroke-width:7;
stroke-linejoin:bevel; stroke-linecap:butt;
"/>
<!-- Line -->
<!--  spline  -->
<polyline points="5257,6642
5257,6643
5255,6650
5253,6659
5251,6666
5251,6667
5251,6668
5249,6671
5245,6676
5239,6683
5229,6691
5220,6697
5215,6700
5213,6701
5211,6702
5205,6705
5193,6710
5181,6715
5174,6717
5172,6718
5169,6719
5162,6721
5148,6725
5132,6728
5120,6731
5109,6732
5101,6733
5096,6734
5095,6734
5093,6734
5084,6734
5068,6734
5052,6734
5043,6734
5041,6734
5040,6734
5036,6734
5028,6733
5019,6732
5008,6730
4994,6727
4982,6724
4976,6722
4973,6721
4971,6720
4966,6718
4956,6713
4946,6707
4942,6705
4940,6704
4937,6701
4930,6694
4924,6686
4921,6679
4920,6674
4919,6671
4919,6670
4919,6669
4921,6662
4924,6653
4926,6646
4926,6645
4926,6644
4929,6641
4932,6636
4938,6630
4948,6622
4957,6616
4962,6613
4964,6611
4966,6610
4971,6607
4983,6602
4995,6597
5002,6594
5005,6594
5007,6593
5015,6591
5029,6587
5045,6584
5057,6581
5068,6580
5077,6579
5081,6578
5082,6578
5084,6578
5093,6578
5109,6578
5125,6578
5134,6578
5136,6578
5137,6578
5141,6578
5149,6579
5158,6580
5169,6582
5183,6585
5195,6588
5201,6590
5204,6591
5206,6592
5211,6594
5221,6599
5231,6605
5236,6607
5237,6608
5240,6611
5247,6618
5253,6626
5255,6633
5256,6638
5257,6641
5257,6642
" style="stroke:#07a8d6;stroke-width:0;
stroke-linejoin:bevel; stroke-linecap:butt;
fill:#07a8d6;
"/>
<!-- Line -->
<!--  spline  -->
<polyline points="5257,6642
5257,6643
5255,6650
5253,6659
5251,6666
5251,6667
5251,6668
5249,6671
5245,6676
5239,6683
5229,6691
5220,6697
5215,6700
5213,6701
5211,6702
5205,6705
5193,6710
5181,6715
5174,6717
5172,6718
5169,6719
5162,6721
5148,6725
5132,6728
5120,6731
5109,6732
5101,6733
5096,6734
5095,6734
5093,6734
5084,6734
5068,6734
5052,6734
5043,6734
5041,6734
5040,6734
5036,6734
5028,6733
5019,6732
5008,6730
4994,6727
4982,6724
4976,6722
4973,6721
4971,6720
4966,6718
4956,6713
4946,6707
4942,6705
4940,6704
4937,6701
4930,6694
4924,6686
4921,6679
4920,6674
4919,6671
4919,6670
4919,6669
4921,6662
4924,6653
4926,6646
4926,6645
4926,6644
4929,6641
4932,6636
4938,6630
4948,6622
4957,6616
4962,6613
4964,6611
4966,6610
4971,6607
4983,6602
4995,6597
5002,6594
5005,6594
5007,6593
5015,6591
5029,6587
5045,6584
5057,6581
5068,6580
5077,6579
5081,6578
5082,6578
5084,6578
5093,6578
5109,6578
5125,6578
5134,6578
5136,6578
5137,6578
5141,6578
5149,6579
5158,6580
5169,6582
5183,6585
5195,6588
5201,6590
5204,6591
5206,6592
5211,6594
5221,6599
5231,6605
5236,6607
5237,6608
5240,6611
5247,6618
5253,6626
5255,6633
5256,6638
5257,6641
5257,6642
" style="stroke:#ffffff;stroke-width:7;
stroke-linejoin:bevel; stroke-linecap:butt;
"/>
<!-- Line -->
<!--  polyline  -->
<polyline points="4830,6863
5229,6862
5229,6791
4831,6791
4830,6863
" style="stroke:#07a8d6;stroke-width:0;
stroke-linejoin:miter; stroke-linecap:butt;
fill:#07a8d6;
"/>
<!-- Line -->
<!--  polyline  -->
<polyline points="4830,6863
5229,6862
5229,6791
4831,6791
4830,6863
" style="stroke:#ffffff;stroke-width:7;
stroke-linejoin:miter; stroke-linecap:butt;
"/>
</g>
</svg>
