<?xml version="1.0" standalone="no"?>
<!DOCTYPE svg PUBLIC "-//W3C//DTD SVG 1.1//EN"
"http://www.w3.org/Graphics/SVG/1.1/DTD/svg11.dtd">
<!-- Creator: fig2dev Version 3.2 Patchlevel 5c -->
<!-- CreationDate: Fri Sep 14 10:46:59 2012 -->
<!-- Magnification: 1.000 -->
<svg xmlns="http://www.w3.org/2000/svg" width="0.5in" height="0.4in" viewBox="-4 12751 627 453">
<g style="stroke-width:.025in; fill:none">
<!-- Line -->
<!--  polyline  -->
<polyline points="569,13192
569,12805
8,12805
8,13192
569,13192
" style="stroke:#036998;stroke-width:0;
stroke-linejoin:miter; stroke-linecap:butt;
fill:#036998;
"/>
<!-- Line -->
<!--  polyline  -->
<polyline points="569,13192
569,12805
8,12805
8,13192
569,13192
" style="stroke:#ffffff;stroke-width:7;
stroke-linejoin:miter; stroke-linecap:butt;
"/>
<!-- Line -->
<!--  polyline  -->
<polyline points="8,12805
50,12763
611,12763
569,12805
8,12805
" style="stroke:#036998;stroke-width:0;
stroke-linejoin:miter; stroke-linecap:butt;
fill:#036998;
"/>
<!-- Line -->
<!--  polyline  -->
<polyline points="8,12805
50,12763
611,12763
569,12805
8,12805
" style="stroke:#ffffff;stroke-width:7;
stroke-linejoin:miter; stroke-linecap:butt;
"/>
<!-- Line -->
<!--  polyline  -->
<polyline points="569,13192
611,13150
611,12763
569,12805
569,13192
" style="stroke:#036998;stroke-width:0;
stroke-linejoin:miter; stroke-linecap:butt;
fill:#036998;
"/>
<!-- Line -->
<!--  polyline  -->
<polyline points="569,13192
611,13150
611,12763
569,12805
569,13192
" style="stroke:#ffffff;stroke-width:7;
stroke-linejoin:miter; stroke-linecap:butt;
"/>
<!-- Line -->
<!--  spline  -->
<polyline points="336,13041
338,13038
340,13035
342,13032
343,13031
344,13028
345,13026
347,13022
348,13018
349,13017
349,13016
349,13015
350,13011
351,13007
351,13005
351,13004
352,13002
352,12998
352,12994
352,12990
352,12988
352,12986
352,12985
352,12982
352,12977
352,12974
352,12973
352,12971
351,12969
351,12965
350,12961
349,12957
349,12956
349,12955
348,12954
347,12950
346,12947
345,12945
344,12943
342,12940
340,12937
338,12934
337,12932
336,12931
337,12930
341,12922
347,12911
351,12903
352,12902
353,12903
355,12906
359,12911
361,12914
362,12915
363,12917
365,12921
367,12925
369,12931
371,12937
372,12939
373,12940
373,12942
375,12948
376,12954
377,12956
377,12957
377,12960
378,12966
378,12973
378,12979
377,12983
377,12985
377,12986
377,12987
377,12992
376,13000
376,13005
376,13006
376,13009
375,13013
374,13018
373,13024
372,13030
371,13032
371,13033
370,13036
368,13041
366,13046
365,13048
365,13049
364,13051
361,13056
358,13061
356,13065
353,13068
352,13070
351,13069
347,13061
341,13050
337,13042
336,13041
" style="stroke:#ffffff;stroke-width:0;
stroke-linejoin:bevel; stroke-linecap:butt;
fill:#ffffff;
"/>
<!-- Line -->
<!--  spline  -->
<polyline points="430,13062
430,13061
432,13059
435,13054
437,13052
437,13051
438,13049
439,13047
440,13043
441,13038
442,13033
443,13031
443,13030
443,13028
444,13023
445,13018
445,13016
445,13015
445,13012
446,13007
446,13001
447,12996
447,12993
447,12990
447,12989
447,12985
446,12980
446,12976
446,12975
446,12973
445,12969
445,12965
444,12959
443,12954
443,12952
443,12951
442,12949
441,12944
440,12939
439,12937
439,12936
439,12934
437,12930
435,12925
433,12922
431,12920
430,12918
431,12917
433,12912
439,12901
444,12891
446,12886
447,12885
447,12886
450,12891
453,12897
456,12902
456,12903
456,12904
457,12906
458,12911
460,12916
462,12924
464,12931
465,12934
465,12935
466,12938
467,12945
468,12952
469,12955
469,12956
469,12959
470,12967
471,12975
471,12982
471,12986
471,12989
471,12990
471,12991
471,12997
470,13006
470,13012
470,13013
470,13014
470,13016
469,13021
468,13027
467,13035
466,13042
465,13045
465,13046
464,13049
462,13056
460,13063
459,13066
459,13067
458,13070
456,13077
453,13084
451,13089
449,13092
447,13095
446,13094
444,13089
438,13078
433,13068
431,13063
430,13062
" style="stroke:#ffffff;stroke-width:0;
stroke-linejoin:bevel; stroke-linecap:butt;
fill:#ffffff;
"/>
<!-- Line -->
<!--  spline  -->
<polyline points="237,13041
236,13038
234,13035
233,13032
232,13031
231,13028
230,13026
228,13022
227,13018
226,13017
226,13016
225,13015
224,13011
223,13007
223,13005
223,13004
223,13002
222,12998
222,12994
221,12990
221,12988
221,12986
221,12985
221,12982
222,12977
222,12974
222,12973
222,12971
222,12969
223,12965
224,12961
225,12957
226,12956
226,12955
227,12954
228,12950
230,12947
230,12945
231,12945
231,12943
233,12940
235,12937
236,12934
236,12932
237,12931
236,12930
232,12922
226,12911
222,12903
221,12902
221,12903
218,12906
215,12911
212,12914
212,12915
211,12917
209,12921
207,12925
205,12931
203,12937
202,12939
202,12940
201,12942
200,12948
199,12954
198,12956
198,12957
198,12960
197,12966
196,12973
196,12979
196,12983
196,12985
196,12986
196,12987
196,12992
197,13000
197,13005
197,13006
197,13009
198,13013
199,13018
200,13024
201,13030
202,13032
202,13033
203,13036
205,13041
207,13046
208,13048
208,13049
209,13051
212,13056
215,13061
217,13065
220,13068
221,13070
222,13069
226,13061
232,13050
236,13042
237,13041
" style="stroke:#ffffff;stroke-width:0;
stroke-linejoin:bevel; stroke-linecap:butt;
fill:#ffffff;
"/>
<!-- Line -->
<!--  spline  -->
<polyline points="155,13062
155,13061
153,13059
152,13054
150,13052
150,13051
149,13049
149,13047
147,13043
146,13038
145,13033
144,13031
144,13030
143,13028
142,13023
141,13018
141,13016
141,13015
141,13012
140,13007
140,13001
139,12996
139,12993
139,12990
139,12989
139,12985
140,12980
140,12976
140,12975
140,12973
140,12969
141,12965
142,12959
143,12954
144,12952
144,12951
145,12949
146,12944
147,12939
148,12937
148,12936
149,12934
150,12930
152,12925
153,12922
154,12920
155,12918
155,12917
152,12912
147,12901
142,12891
139,12886
139,12885
139,12886
136,12891
133,12897
130,12902
130,12903
130,12904
129,12906
127,12911
125,12916
123,12924
121,12931
120,12934
120,12935
119,12938
118,12945
117,12952
116,12955
116,12956
116,12959
115,12967
114,12975
114,12982
114,12986
114,12989
114,12990
114,12991
114,12997
115,13006
115,13012
115,13013
115,13014
115,13016
116,13021
117,13027
118,13035
119,13042
120,13045
120,13046
121,13049
123,13056
125,13063
126,13066
126,13067
127,13070
130,13077
133,13084
135,13089
138,13092
139,13095
139,13094
142,13089
147,13078
152,13068
155,13063
155,13062
" style="stroke:#ffffff;stroke-width:0;
stroke-linejoin:bevel; stroke-linecap:butt;
fill:#ffffff;
"/>
<!-- Line -->
<!--  polyline  -->
<polyline points="285,12999
285,13125
" style="stroke:#ffffff;stroke-width:7;
stroke-linejoin:miter; stroke-linecap:butt;
"/>
<!-- Line -->
<!--  spline  -->
<polyline points="294,12986
294,12987
294,12988
294,12989
294,12990
293,12990
293,12991
292,12992
291,12993
290,12994
289,12994
289,12995
288,12995
287,12995
286,12995
285,12996
284,12996
283,12996
282,12995
281,12995
280,12995
279,12994
278,12994
277,12993
276,12992
275,12991
275,12990
274,12990
274,12989
274,12988
274,12987
274,12986
274,12985
274,12983
274,12982
274,12981
275,12981
275,12980
276,12979
277,12978
278,12977
279,12977
279,12976
280,12976
281,12976
282,12976
283,12975
284,12975
285,12975
286,12976
287,12976
288,12976
289,12977
290,12977
291,12978
292,12979
293,12980
294,12981
294,12982
294,12983
294,12984
294,12985
294,12986
" style="stroke:#ffffff;stroke-width:0;
stroke-linejoin:bevel; stroke-linecap:butt;
fill:#ffffff;
"/>
</g>
</svg>
