<?xml version="1.0" standalone="no"?>
<!DOCTYPE svg PUBLIC "-//W3C//DTD SVG 1.1//EN"
"http://www.w3.org/Graphics/SVG/1.1/DTD/svg11.dtd">
<!-- Creator: fig2dev Version 3.2 Patchlevel 5c -->
<!-- CreationDate: Fri Sep 14 10:46:58 2012 -->
<!-- Magnification: 1.000 -->
<svg xmlns="http://www.w3.org/2000/svg" width="0.5in" height="0.4in" viewBox="-5 12697 616 508">
<g style="stroke-width:.025in; fill:none">
<!-- Line -->
<!--  spline  -->
<polyline points="138,12730
137,12730
134,12732
126,12736
112,12743
94,12753
72,12764
51,12775
33,12785
19,12792
11,12796
8,12798
7,12798
8,12798
12,12800
23,12805
42,12813
66,12824
95,12837
124,12849
148,12860
167,12868
178,12873
182,12875
183,12875
184,12875
187,12876
195,12877
207,12879
222,12881
239,12882
258,12884
278,12884
300,12884
325,12882
348,12879
365,12875
375,12873
381,12871
383,12869
386,12867
391,12865
399,12861
412,12855
429,12848
448,12839
460,12832
466,12828
468,12826
471,12824
475,12820
483,12814
494,12806
506,12797
512,12792
515,12788
516,12786
516,12785
515,12785
510,12787
499,12791
482,12797
460,12805
438,12812
421,12818
410,12822
405,12824
404,12824
401,12824
396,12824
387,12824
377,12824
364,12823
351,12823
336,12821
320,12819
301,12815
280,12810
265,12806
258,12803
255,12801
251,12799
245,12796
233,12791
216,12783
200,12775
190,12769
185,12766
182,12764
180,12762
176,12759
169,12754
159,12747
147,12739
141,12734
139,12731
138,12730
" style="stroke:#036998;stroke-width:0;
stroke-linejoin:bevel; stroke-linecap:butt;
fill:#036998;
"/>
<!-- Line -->
<!--  spline  -->
<polyline points="138,12730
137,12730
134,12732
126,12736
112,12743
94,12753
72,12764
51,12775
33,12785
19,12792
11,12796
8,12798
7,12798
8,12798
12,12800
23,12805
42,12813
66,12824
95,12837
124,12849
148,12860
167,12868
178,12873
182,12875
183,12875
184,12875
187,12876
195,12877
207,12879
222,12881
239,12882
258,12884
278,12884
300,12884
325,12882
348,12879
365,12875
375,12873
381,12871
383,12869
386,12867
391,12865
399,12861
412,12855
429,12848
448,12839
460,12832
466,12828
468,12826
471,12824
475,12820
483,12814
494,12806
506,12797
512,12792
515,12788
516,12786
516,12785
515,12785
510,12787
499,12791
482,12797
460,12805
438,12812
421,12818
410,12822
405,12824
404,12824
401,12824
396,12824
387,12824
377,12824
364,12823
351,12823
336,12821
320,12819
301,12815
280,12810
265,12806
258,12803
255,12801
251,12799
245,12796
233,12791
216,12783
200,12775
190,12769
185,12766
182,12764
180,12762
176,12759
169,12754
159,12747
147,12739
141,12734
139,12731
138,12730
" style="stroke:#ffffff;stroke-width:7;
stroke-linejoin:bevel; stroke-linecap:butt;
"/>
<!-- Line -->
<!--  spline  -->
<polyline points="599,12709
598,12710
594,12717
587,12726
583,12733
582,12734
581,12735
579,12737
574,12742
568,12748
560,12755
553,12761
549,12764
548,12765
545,12767
538,12772
532,12776
529,12778
528,12779
525,12780
521,12783
517,12785
515,12786
514,12787
514,12790
514,12796
514,12807
514,12825
514,12848
514,12877
514,12912
514,12950
514,12990
514,13030
514,13068
514,13103
514,13132
514,13155
514,13173
514,13184
514,13190
514,13193
515,13193
518,13190
527,13183
540,13172
557,13158
573,13145
586,13134
595,13127
598,13124
599,13124
599,13121
599,13115
599,13103
599,13086
599,13062
599,13032
599,12997
599,12958
599,12916
599,12875
599,12836
599,12801
599,12771
599,12747
599,12730
599,12718
599,12712
599,12709
" style="stroke:#036998;stroke-width:0;
stroke-linejoin:bevel; stroke-linecap:butt;
fill:#036998;
"/>
<!-- Line -->
<!--  spline  -->
<polyline points="599,12709
598,12710
594,12717
587,12726
583,12733
582,12734
581,12735
579,12737
574,12742
568,12748
560,12755
553,12761
549,12764
548,12765
545,12767
538,12772
532,12776
529,12778
528,12779
525,12780
521,12783
517,12785
515,12786
514,12787
514,12790
514,12796
514,12807
514,12825
514,12848
514,12877
514,12912
514,12950
514,12990
514,13030
514,13068
514,13103
514,13132
514,13155
514,13173
514,13184
514,13190
514,13193
515,13193
518,13190
527,13183
540,13172
557,13158
573,13145
586,13134
595,13127
598,13124
599,13124
599,13121
599,13115
599,13103
599,13086
599,13062
599,13032
599,12997
599,12958
599,12916
599,12875
599,12836
599,12801
599,12771
599,12747
599,12730
599,12718
599,12712
599,12709
" style="stroke:#ffffff;stroke-width:7;
stroke-linejoin:bevel; stroke-linecap:butt;
"/>
<!-- Line -->
<!--  spline  -->
<polyline points="514,12787
513,12788
507,12793
499,12802
493,12807
492,12808
490,12810
486,12814
480,12819
472,12826
461,12833
447,12841
428,12850
411,12857
398,12862
390,12866
385,12868
382,12870
380,12872
374,12873
364,12876
347,12879
324,12882
300,12884
281,12885
270,12886
263,12887
259,12888
256,12888
248,12888
235,12886
213,12882
183,12875
157,12867
132,12859
110,12850
90,12841
71,12832
54,12824
39,12816
26,12809
16,12803
10,12800
7,12798
7,12799
7,12802
7,12810
7,12825
7,12846
7,12876
7,12911
7,12952
7,12996
7,13039
7,13080
7,13115
7,13145
7,13166
7,13181
7,13189
7,13192
7,13193
10,13193
16,13193
27,13193
43,13193
66,13193
95,13193
131,13193
171,13193
215,13193
261,13193
306,13193
350,13193
390,13193
426,13193
455,13193
478,13193
494,13193
505,13193
511,13193
514,13193
514,13190
514,13184
514,13173
514,13155
514,13132
514,13103
514,13068
514,13030
514,12990
514,12950
514,12912
514,12877
514,12848
514,12825
514,12807
514,12796
514,12790
514,12787
" style="stroke:#036998;stroke-width:0;
stroke-linejoin:bevel; stroke-linecap:butt;
fill:#036998;
"/>
<!-- Line -->
<!--  spline  -->
<polyline points="514,12787
513,12788
507,12793
499,12802
493,12807
492,12808
490,12810
486,12814
480,12819
472,12826
461,12833
447,12841
428,12850
411,12857
398,12862
390,12866
385,12868
382,12870
380,12872
374,12873
364,12876
347,12879
324,12882
300,12884
281,12885
270,12886
263,12887
259,12888
256,12888
248,12888
235,12886
213,12882
183,12875
157,12867
132,12859
110,12850
90,12841
71,12832
54,12824
39,12816
26,12809
16,12803
10,12800
7,12798
7,12799
7,12802
7,12810
7,12825
7,12846
7,12876
7,12911
7,12952
7,12996
7,13039
7,13080
7,13115
7,13145
7,13166
7,13181
7,13189
7,13192
7,13193
10,13193
16,13193
27,13193
43,13193
66,13193
95,13193
131,13193
171,13193
215,13193
261,13193
306,13193
350,13193
390,13193
426,13193
455,13193
478,13193
494,13193
505,13193
511,13193
514,13193
514,13190
514,13184
514,13173
514,13155
514,13132
514,13103
514,13068
514,13030
514,12990
514,12950
514,12912
514,12877
514,12848
514,12825
514,12807
514,12796
514,12790
514,12787
" style="stroke:#ffffff;stroke-width:7;
stroke-linejoin:bevel; stroke-linecap:butt;
"/>
<!-- Line -->
<!--  spline  -->
<polyline points="478,13034
477,13036
476,13040
475,13042
474,13045
471,13048
468,13053
464,13058
459,13063
458,13065
457,13066
455,13068
449,13070
445,13071
442,13071
440,13071
440,13072
439,13072
437,13071
434,13070
429,13066
422,13059
417,13051
412,13044
408,13037
406,13034
406,13033
405,13032
402,13027
395,13017
388,13007
385,13002
384,13001
383,13001
381,12999
376,12998
371,12997
364,12997
358,12999
356,13001
355,13002
354,13004
349,13009
345,13014
343,13017
342,13018
341,13021
338,13025
336,13029
335,13031
335,13032
335,13033
334,13035
332,13039
331,13041
330,13044
328,13047
325,13052
321,13057
316,13062
314,13064
313,13065
311,13067
305,13069
301,13070
298,13070
296,13070
296,13071
295,13071
293,13070
290,13069
285,13065
278,13058
273,13051
269,13044
265,13037
263,13034
263,13033
262,13032
258,13027
251,13017
245,13007
241,13002
240,13001
239,13001
237,12999
233,12998
228,12997
221,12997
215,12999
213,13001
212,13002
210,13004
205,13009
201,13014
199,13017
199,13018
198,13020
195,13025
193,13029
192,13032
191,13033
191,13034
190,13036
188,13040
187,13042
186,13045
184,13048
181,13053
177,13058
173,13063
171,13065
170,13066
168,13068
162,13070
158,13071
155,13071
153,13071
153,13072
152,13072
150,13071
147,13070
142,13066
135,13059
130,13051
125,13044
121,13037
119,13034
119,13033
118,13032
115,13027
108,13017
101,13007
98,13002
97,13001
96,13001
94,12999
89,12998
84,12997
77,12997
71,12999
69,13001
68,13002
67,13004
62,13009
58,13014
56,13017
55,13018
54,13021
51,13025
49,13029
48,13031
48,13032
48,13033
" style="stroke:#000000;stroke-width:7;
stroke-linejoin:bevel; stroke-linecap:round;
"/>
<!-- Line -->
<!--  spline  -->
<polyline points="48,13034
49,13036
50,13040
51,13042
52,13045
55,13048
58,13053
62,13058
67,13063
68,13065
69,13066
71,13068
77,13070
81,13071
84,13071
86,13071
86,13072
87,13072
89,13071
92,13070
97,13066
104,13059
109,13051
114,13044
118,13037
120,13034
120,13033
121,13032
124,13027
131,13017
138,13007
141,13002
142,13001
143,13001
145,12999
150,12998
155,12997
162,12997
168,12999
170,13001
171,13002
172,13004
177,13009
181,13014
183,13017
184,13018
185,13021
188,13025
190,13029
191,13031
191,13032
191,13033
192,13035
194,13039
195,13041
196,13044
198,13047
201,13052
205,13057
210,13062
212,13064
213,13065
215,13067
221,13069
225,13070
228,13070
230,13070
231,13071
233,13070
236,13069
241,13065
248,13058
253,13051
257,13044
261,13037
263,13034
263,13033
264,13032
268,13027
275,13017
281,13007
285,13002
286,13001
287,13001
289,12999
293,12998
298,12997
305,12997
311,12999
313,13001
314,13002
316,13004
321,13009
325,13014
327,13017
327,13018
328,13020
331,13025
333,13029
334,13032
335,13033
335,13034
336,13036
338,13040
339,13042
340,13045
342,13048
345,13053
349,13058
353,13063
355,13065
356,13066
358,13068
364,13070
368,13071
371,13071
373,13071
373,13072
374,13072
376,13071
379,13070
384,13066
391,13059
396,13051
401,13044
405,13037
407,13034
407,13033
408,13032
411,13027
418,13017
425,13007
428,13002
429,13001
430,13001
432,12999
437,12998
442,12997
449,12997
455,12999
457,13001
458,13002
459,13004
464,13009
468,13014
470,13017
471,13018
472,13021
475,13025
477,13029
478,13031
478,13032
478,13033
" style="stroke:#000000;stroke-width:15;
stroke-linejoin:bevel; stroke-linecap:round;
"/>
<!-- Line -->
<!--  spline  -->
<polyline points="471,13034
470,13036
468,13040
467,13042
466,13045
464,13048
461,13053
457,13058
452,13063
450,13065
449,13066
447,13068
441,13070
437,13071
434,13071
432,13071
432,13072
431,13072
429,13071
426,13070
421,13066
414,13059
409,13051
405,13044
401,13037
399,13034
399,13033
398,13032
394,13027
387,13017
381,13007
377,13002
376,13001
375,13001
373,12999
369,12998
364,12997
357,12997
351,12999
349,13001
348,13002
346,13004
341,13009
337,13014
335,13017
335,13018
334,13021
331,13025
329,13029
328,13031
327,13032
327,13033
326,13035
324,13039
323,13041
322,13044
320,13047
317,13052
313,13057
308,13062
306,13064
305,13065
303,13067
297,13069
293,13070
290,13070
289,13070
288,13071
287,13071
286,13070
283,13069
278,13065
271,13058
266,13051
261,13044
257,13037
255,13034
255,13033
254,13032
251,13027
244,13017
237,13007
234,13002
233,13001
232,13001
230,12999
225,12998
220,12997
213,12997
207,12999
205,13001
204,13002
203,13004
198,13009
194,13014
192,13017
191,13018
190,13020
187,13025
185,13029
184,13032
184,13033
184,13034
183,13036
181,13040
180,13042
179,13045
177,13048
174,13053
170,13058
165,13063
163,13065
162,13066
160,13068
154,13070
150,13071
147,13071
145,13071
145,13072
144,13072
142,13071
139,13070
134,13066
127,13059
122,13051
118,13044
114,13037
112,13034
112,13033
111,13032
107,13027
100,13017
94,13007
90,13002
89,13001
88,13001
86,12999
82,12998
77,12997
70,12997
64,12999
62,13001
61,13002
59,13004
54,13009
50,13014
48,13017
48,13018
47,13021
44,13025
42,13029
41,13031
40,13032
40,13033
" style="stroke:#ffffff;stroke-width:7;
stroke-linejoin:bevel; stroke-linecap:round;
"/>
<!-- Line -->
<!--  spline  -->
<polyline points="40,13034
41,13036
43,13040
44,13042
45,13045
47,13048
50,13053
54,13058
59,13063
61,13065
62,13066
64,13068
70,13070
74,13071
77,13071
78,13071
79,13072
80,13072
81,13071
84,13070
89,13066
96,13059
101,13051
106,13044
110,13037
112,13034
112,13033
113,13032
117,13027
124,13017
130,13007
134,13002
135,13001
136,13001
138,12999
142,12998
147,12997
154,12997
160,12999
162,13001
163,13002
165,13004
170,13009
174,13014
176,13017
176,13018
177,13021
180,13025
182,13029
183,13031
184,13032
184,13033
185,13035
187,13039
188,13041
189,13044
191,13047
194,13052
198,13057
202,13062
204,13064
205,13065
207,13067
213,13069
217,13070
220,13070
222,13070
222,13071
223,13071
225,13070
228,13069
233,13065
240,13058
245,13051
250,13044
254,13037
256,13034
256,13033
257,13032
260,13027
267,13017
274,13007
277,13002
278,13001
279,13001
281,12999
286,12998
291,12997
298,12997
304,12999
306,13001
307,13002
308,13004
313,13009
317,13014
319,13017
320,13018
321,13020
324,13025
326,13029
327,13032
327,13033
327,13034
328,13036
330,13040
331,13042
332,13045
334,13048
337,13053
341,13058
346,13063
348,13065
349,13066
351,13068
357,13070
361,13071
364,13071
365,13071
366,13072
367,13072
368,13071
371,13070
376,13066
383,13059
388,13051
393,13044
397,13037
399,13034
399,13033
400,13032
404,13027
411,13017
417,13007
421,13002
422,13001
423,13001
425,12999
429,12998
434,12997
441,12997
447,12999
449,13001
450,13002
452,13004
457,13009
461,13014
463,13017
463,13018
464,13021
467,13025
469,13029
470,13031
471,13032
471,13033
" style="stroke:#ffffff;stroke-width:15;
stroke-linejoin:bevel; stroke-linecap:round;
"/>
</g>
</svg>
