<?xml version="1.0" standalone="no"?>
<!DOCTYPE svg PUBLIC "-//W3C//DTD SVG 1.1//EN"
"http://www.w3.org/Graphics/SVG/1.1/DTD/svg11.dtd">
<!-- Creator: fig2dev Version 3.2 Patchlevel 5c -->
<!-- CreationDate: Fri Sep 14 10:46:58 2012 -->
<!-- Magnification: 1.000 -->
<svg xmlns="http://www.w3.org/2000/svg" width="0.3in" height="0.5in" viewBox="-5 12650 314 553">
<g style="stroke-width:.025in; fill:none">
<!-- Line -->
<!--  polyline  -->
<polyline points="31,12662
297,12662
273,12688
7,12688
31,12662
" style="stroke:#036998;stroke-width:0;
stroke-linejoin:miter; stroke-linecap:butt;
fill:#036998;
"/>
<!-- Line -->
<!--  polyline  -->
<polyline points="31,12662
297,12662
273,12688
7,12688
31,12662
" style="stroke:#ffffff;stroke-width:7;
stroke-linejoin:miter; stroke-linecap:butt;
"/>
<!-- Line -->
<!--  polyline  -->
<polyline points="8,12689
273,12689
273,13191
8,13191
8,12689
" style="stroke:#036998;stroke-width:0;
stroke-linejoin:miter; stroke-linecap:butt;
fill:#036998;
"/>
<!-- Line -->
<!--  polyline  -->
<polyline points="8,12689
273,12689
273,13191
8,13191
8,12689
" style="stroke:#ffffff;stroke-width:7;
stroke-linejoin:miter; stroke-linecap:butt;
"/>
<!-- Line -->
<!--  spline  -->
<polyline points="215,13161
216,13161
219,13160
224,13159
227,13158
228,13158
230,13157
232,13156
234,13154
237,13151
239,13148
240,13147
241,13146
242,13143
243,13140
244,13139
244,13138
245,13136
245,13135
245,13134
245,13133
245,13131
245,13124
245,13112
245,13105
245,13103
245,13100
245,13094
245,13086
245,13076
245,13064
245,13049
245,13030
245,13011
245,12997
245,12990
245,12986
245,12981
245,12974
245,12960
245,12940
245,12921
245,12907
245,12900
245,12897
245,12893
245,12887
245,12876
245,12861
245,12844
245,12833
245,12826
245,12822
245,12819
245,12818
244,12814
243,12807
242,12803
242,12802
241,12800
239,12798
237,12796
234,12793
231,12791
230,12790
229,12790
228,12789
225,12788
222,12787
221,12787
220,12787
219,12786
217,12786
216,12786
215,12786
214,12786
213,12786
210,12786
204,12786
201,12786
200,12786
199,12786
196,12786
189,12786
180,12786
167,12786
156,12786
149,12786
146,12786
143,12786
137,12786
125,12786
114,12786
107,12786
105,12786
103,12786
97,12786
88,12786
78,12786
72,12786
68,12786
65,12786
64,12786
62,12787
58,12788
56,12789
55,12789
54,12790
52,12791
50,12793
48,12795
46,12797
45,12799
44,12799
44,12801
42,12803
41,12805
40,12806
40,12807
39,12809
39,12810
38,12810
38,12811
38,12812
38,12814
38,12822
38,12833
38,12841
38,12843
38,12846
38,12852
38,12860
38,12870
38,12882
38,12898
38,12917
38,12936
38,12950
38,12958
38,12962
38,12966
38,12973
38,12987
38,13007
38,13027
38,13040
38,13047
38,13051
38,13055
38,13061
38,13072
38,13087
38,13104
38,13115
38,13122
38,13127
38,13129
38,13130
39,13133
40,13137
41,13140
41,13141
42,13143
43,13145
45,13147
47,13150
49,13152
50,13153
51,13154
52,13154
54,13156
56,13158
57,13158
58,13159
60,13160
61,13160
61,13161
62,13161
63,13161
64,13161
68,13161
77,13161
93,13161
114,13161
139,13161
164,13161
185,13161
201,13161
210,13161
214,13161
215,13161
" style="stroke:#036998;stroke-width:0;
stroke-linejoin:bevel; stroke-linecap:butt;
fill:#036998;
"/>
<!-- Line -->
<!--  spline  -->
<polyline points="215,13161
216,13161
219,13160
224,13159
227,13158
228,13158
230,13157
232,13156
234,13154
237,13151
239,13148
240,13147
241,13146
242,13143
243,13140
244,13139
244,13138
245,13136
245,13135
245,13134
245,13133
245,13131
245,13124
245,13112
245,13105
245,13103
245,13100
245,13094
245,13086
245,13076
245,13064
245,13049
245,13030
245,13011
245,12997
245,12990
245,12986
245,12981
245,12974
245,12960
245,12940
245,12921
245,12907
245,12900
245,12897
245,12893
245,12887
245,12876
245,12861
245,12844
245,12833
245,12826
245,12822
245,12819
245,12818
244,12814
243,12807
242,12803
242,12802
241,12800
239,12798
237,12796
234,12793
231,12791
230,12790
229,12790
228,12789
225,12788
222,12787
221,12787
220,12787
219,12786
217,12786
216,12786
215,12786
214,12786
213,12786
210,12786
204,12786
201,12786
200,12786
199,12786
196,12786
189,12786
180,12786
167,12786
156,12786
149,12786
146,12786
143,12786
137,12786
125,12786
114,12786
107,12786
105,12786
103,12786
97,12786
88,12786
78,12786
72,12786
68,12786
65,12786
64,12786
62,12787
58,12788
56,12789
55,12789
54,12790
52,12791
50,12793
48,12795
46,12797
45,12799
44,12799
44,12801
42,12803
41,12805
40,12806
40,12807
39,12809
39,12810
38,12810
38,12811
38,12812
38,12814
38,12822
38,12833
38,12841
38,12843
38,12846
38,12852
38,12860
38,12870
38,12882
38,12898
38,12917
38,12936
38,12950
38,12958
38,12962
38,12966
38,12973
38,12987
38,13007
38,13027
38,13040
38,13047
38,13051
38,13055
38,13061
38,13072
38,13087
38,13104
38,13115
38,13122
38,13127
38,13129
38,13130
39,13133
40,13137
41,13140
41,13141
42,13143
43,13145
45,13147
47,13150
49,13152
50,13153
51,13154
52,13154
54,13156
56,13158
57,13158
58,13159
60,13160
61,13160
61,13161
62,13161
63,13161
64,13161
68,13161
77,13161
93,13161
114,13161
139,13161
164,13161
185,13161
201,13161
210,13161
214,13161
215,13161
" style="stroke:#ffffff;stroke-width:7;
stroke-linejoin:bevel; stroke-linecap:butt;
"/>
<!-- Line -->
<!--  polyline  -->
<polyline points="297,12662
297,13164
273,13191
273,12689
297,12662
" style="stroke:#036998;stroke-width:0;
stroke-linejoin:miter; stroke-linecap:butt;
fill:#036998;
"/>
<!-- Line -->
<!--  polyline  -->
<polyline points="297,12662
297,13164
273,13191
273,12689
297,12662
" style="stroke:#ffffff;stroke-width:7;
stroke-linejoin:miter; stroke-linecap:butt;
"/>
<!-- Line -->
<!--  spline  -->
<polyline points="218,12725
217,12725
216,12725
215,12725
215,12726
214,12727
213,12728
213,12729
212,12730
212,12731
211,12732
211,12733
211,12734
211,12735
211,12737
211,12738
211,12740
211,12741
211,12743
211,12744
211,12745
212,12746
212,12747
213,12748
213,12749
214,12750
215,12751
215,12752
216,12752
217,12752
218,12752
219,12752
220,12752
221,12752
222,12752
222,12751
223,12750
223,12749
224,12749
223,12749
224,12748
224,12747
225,12746
225,12745
226,12744
226,12743
226,12741
226,12740
226,12739
226,12738
226,12737
226,12735
226,12734
226,12733
225,12732
225,12731
224,12730
224,12729
223,12728
224,12728
223,12728
223,12727
222,12726
222,12725
221,12725
220,12725
219,12725
218,12725
" style="stroke:#036998;stroke-width:0;
stroke-linejoin:bevel; stroke-linecap:butt;
fill:#036998;
"/>
<!-- Line -->
<!--  spline  -->
<polyline points="218,12725
217,12725
216,12725
215,12725
215,12726
214,12727
213,12728
213,12729
212,12730
212,12731
211,12732
211,12733
211,12734
211,12735
211,12737
211,12738
211,12740
211,12741
211,12743
211,12744
211,12745
212,12746
212,12747
213,12748
213,12749
214,12750
215,12751
215,12752
216,12752
217,12752
218,12752
219,12752
220,12752
221,12752
222,12752
222,12751
223,12750
223,12749
224,12749
223,12749
224,12748
224,12747
225,12746
225,12745
226,12744
226,12743
226,12741
226,12740
226,12739
226,12738
226,12737
226,12735
226,12734
226,12733
225,12732
225,12731
224,12730
224,12729
223,12728
224,12728
223,12728
223,12727
222,12726
222,12725
221,12725
220,12725
219,12725
218,12725
" style="stroke:#ffffff;stroke-width:7;
stroke-linejoin:bevel; stroke-linecap:butt;
"/>
<!-- Line -->
<!--  spline  -->
<polyline points="163,12725
162,12725
161,12725
160,12725
159,12725
159,12726
158,12727
158,12728
157,12728
158,12728
157,12729
157,12730
156,12731
156,12732
155,12733
155,12734
155,12735
155,12737
155,12738
155,12740
155,12741
155,12743
155,12744
156,12745
156,12746
157,12747
157,12748
158,12749
157,12749
158,12749
158,12750
159,12751
159,12752
160,12752
161,12752
162,12752
163,12752
164,12752
165,12752
166,12752
166,12751
167,12750
168,12749
168,12748
169,12747
169,12746
170,12745
170,12744
170,12743
170,12741
170,12740
170,12739
170,12738
170,12737
170,12735
170,12734
170,12733
170,12732
169,12731
169,12730
168,12729
168,12728
167,12727
166,12726
166,12725
165,12725
164,12725
163,12725
" style="stroke:#036998;stroke-width:0;
stroke-linejoin:bevel; stroke-linecap:butt;
fill:#036998;
"/>
<!-- Line -->
<!--  spline  -->
<polyline points="163,12725
162,12725
161,12725
160,12725
159,12725
159,12726
158,12727
158,12728
157,12728
158,12728
157,12729
157,12730
156,12731
156,12732
155,12733
155,12734
155,12735
155,12737
155,12738
155,12740
155,12741
155,12743
155,12744
156,12745
156,12746
157,12747
157,12748
158,12749
157,12749
158,12749
158,12750
159,12751
159,12752
160,12752
161,12752
162,12752
163,12752
164,12752
165,12752
166,12752
166,12751
167,12750
168,12749
168,12748
169,12747
169,12746
170,12745
170,12744
170,12743
170,12741
170,12740
170,12739
170,12738
170,12737
170,12735
170,12734
170,12733
170,12732
169,12731
169,12730
168,12729
168,12728
167,12727
166,12726
166,12725
165,12725
164,12725
163,12725
" style="stroke:#ffffff;stroke-width:7;
stroke-linejoin:bevel; stroke-linecap:butt;
"/>
<!-- Line -->
<!--  spline  -->
<polyline points="107,12725
106,12725
105,12725
104,12725
104,12726
103,12727
102,12728
102,12729
101,12730
101,12731
100,12732
100,12733
100,12734
100,12735
100,12737
100,12738
100,12740
100,12741
100,12743
100,12744
100,12745
101,12746
101,12747
102,12748
102,12749
103,12750
104,12751
104,12752
105,12752
106,12752
107,12752
108,12752
109,12752
110,12752
111,12752
111,12751
112,12750
112,12749
113,12749
113,12748
113,12747
113,12746
113,12745
114,12745
114,12744
114,12743
114,12741
115,12740
115,12739
115,12738
115,12737
114,12735
114,12734
114,12733
114,12732
113,12731
113,12730
113,12729
113,12728
112,12728
112,12727
111,12726
111,12725
110,12725
109,12725
108,12725
107,12725
" style="stroke:#036998;stroke-width:0;
stroke-linejoin:bevel; stroke-linecap:butt;
fill:#036998;
"/>
<!-- Line -->
<!--  spline  -->
<polyline points="107,12725
106,12725
105,12725
104,12725
104,12726
103,12727
102,12728
102,12729
101,12730
101,12731
100,12732
100,12733
100,12734
100,12735
100,12737
100,12738
100,12740
100,12741
100,12743
100,12744
100,12745
101,12746
101,12747
102,12748
102,12749
103,12750
104,12751
104,12752
105,12752
106,12752
107,12752
108,12752
109,12752
110,12752
111,12752
111,12751
112,12750
112,12749
113,12749
113,12748
113,12747
113,12746
113,12745
114,12745
114,12744
114,12743
114,12741
115,12740
115,12739
115,12738
115,12737
114,12735
114,12734
114,12733
114,12732
113,12731
113,12730
113,12729
113,12728
112,12728
112,12727
111,12726
111,12725
110,12725
109,12725
108,12725
107,12725
" style="stroke:#ffffff;stroke-width:7;
stroke-linejoin:bevel; stroke-linecap:butt;
"/>
<!-- Line -->
<!--  spline  -->
<polyline points="52,12725
51,12725
50,12725
49,12725
48,12725
48,12726
47,12727
46,12728
46,12729
45,12730
45,12731
44,12732
44,12733
44,12734
44,12735
44,12737
44,12738
44,12740
44,12741
44,12743
44,12744
44,12745
45,12746
45,12747
46,12748
46,12749
47,12750
48,12751
48,12752
49,12752
50,12752
51,12752
52,12752
53,12752
54,12752
55,12752
55,12751
56,12750
57,12749
57,12748
58,12747
58,12746
59,12745
59,12744
59,12743
59,12741
59,12740
59,12739
59,12738
59,12737
59,12735
59,12734
59,12733
59,12732
58,12731
58,12730
57,12729
57,12728
56,12727
55,12726
55,12725
54,12725
53,12725
52,12725
" style="stroke:#036998;stroke-width:0;
stroke-linejoin:bevel; stroke-linecap:butt;
fill:#036998;
"/>
<!-- Line -->
<!--  spline  -->
<polyline points="52,12725
51,12725
50,12725
49,12725
48,12725
48,12726
47,12727
46,12728
46,12729
45,12730
45,12731
44,12732
44,12733
44,12734
44,12735
44,12737
44,12738
44,12740
44,12741
44,12743
44,12744
44,12745
45,12746
45,12747
46,12748
46,12749
47,12750
48,12751
48,12752
49,12752
50,12752
51,12752
52,12752
53,12752
54,12752
55,12752
55,12751
56,12750
57,12749
57,12748
58,12747
58,12746
59,12745
59,12744
59,12743
59,12741
59,12740
59,12739
59,12738
59,12737
59,12735
59,12734
59,12733
59,12732
58,12731
58,12730
57,12729
57,12728
56,12727
55,12726
55,12725
54,12725
53,12725
52,12725
" style="stroke:#ffffff;stroke-width:7;
stroke-linejoin:bevel; stroke-linecap:butt;
"/>
</g>
</svg>
