<?xml version="1.0" standalone="no"?>
<!DOCTYPE svg PUBLIC "-//W3C//DTD SVG 1.1//EN"
"http://www.w3.org/Graphics/SVG/1.1/DTD/svg11.dtd">
<!-- Creator: fig2dev Version 3.2 Patchlevel 5c -->
<!-- CreationDate: Fri Sep 14 10:46:59 2012 -->
<!-- Magnification: 1.000 -->
<svg xmlns="http://www.w3.org/2000/svg" width="0.5in" height="0.5in" viewBox="4790 6298 637 643">
<g style="stroke-width:.025in; fill:none">
<!-- Line -->
<!--  polyline  -->
<polyline points="5302,6600
5302,6328
" style="stroke:#05b0da;stroke-width:7;
stroke-linejoin:miter; stroke-linecap:butt;
"/>
<!-- Line -->
<!--  polyline  -->
<polyline points="5302,6596
5302,6409
" style="stroke:#05b0da;stroke-width:30;
stroke-linejoin:miter; stroke-linecap:butt;
"/>
<!-- Line -->
<!--  polyline  -->
<polyline points="5310,6354
5293,6354
5293,6320
5310,6320
5310,6354
" style="stroke:#000000;stroke-width:0;
stroke-linejoin:miter; stroke-linecap:butt;
fill:#000000;
"/>
<!-- Line -->
<!--  polyline  -->
<polyline points="5310,6354
5293,6354
5293,6320
5310,6320
5310,6354
" style="stroke:#05b0da;stroke-width:15;
stroke-linejoin:miter; stroke-linecap:butt;
"/>
<!-- Line -->
<!--  polyline  -->
<polyline points="4898,6600
4898,6328
" style="stroke:#05b0da;stroke-width:7;
stroke-linejoin:miter; stroke-linecap:butt;
"/>
<!-- Line -->
<!--  polyline  -->
<polyline points="4898,6596
4898,6409
" style="stroke:#05b0da;stroke-width:30;
stroke-linejoin:miter; stroke-linecap:butt;
"/>
<!-- Line -->
<!--  polyline  -->
<polyline points="4906,6354
4889,6354
4889,6320
4906,6320
4906,6354
" style="stroke:#000000;stroke-width:0;
stroke-linejoin:miter; stroke-linecap:butt;
fill:#000000;
"/>
<!-- Line -->
<!--  polyline  -->
<polyline points="4906,6354
4889,6354
4889,6320
4906,6320
4906,6354
" style="stroke:#05b0da;stroke-width:15;
stroke-linejoin:miter; stroke-linecap:butt;
"/>
<!-- Line -->
<!--  spline  -->
<polyline points="5415,6635
5415,6636
5412,6642
5407,6654
5402,6666
5399,6672
5399,6673
5399,6674
5396,6676
5390,6682
5383,6688
5372,6696
5356,6705
5343,6712
5333,6716
5328,6718
5326,6719
5323,6720
5317,6722
5306,6726
5289,6731
5271,6736
5259,6739
5253,6740
5250,6741
5246,6742
5239,6743
5226,6745
5205,6748
5183,6750
5164,6752
5148,6753
5133,6754
5121,6754
5113,6754
5109,6754
5108,6754
5107,6754
5099,6753
5082,6752
5060,6751
5037,6750
5020,6749
5012,6748
5011,6748
5010,6748
5007,6747
4999,6746
4988,6745
4976,6742
4962,6740
4945,6736
4927,6731
4910,6726
4899,6722
4893,6720
4891,6719
4888,6718
4883,6716
4874,6712
4861,6705
4846,6696
4838,6692
4835,6690
4832,6688
4827,6683
4817,6673
4809,6662
4805,6653
4803,6645
4802,6639
4802,6636
4802,6635
4802,6636
4802,6640
4802,6651
4802,6669
4802,6694
4802,6723
4802,6751
4802,6776
4802,6794
4802,6805
4802,6809
4802,6810
4802,6811
4805,6817
4810,6829
4814,6840
4817,6846
4817,6847
4818,6848
4820,6851
4826,6856
4834,6863
4845,6871
4861,6880
4874,6887
4883,6891
4888,6893
4891,6894
4893,6895
4899,6897
4910,6901
4927,6906
4945,6911
4957,6914
4963,6915
4966,6916
4970,6917
4977,6918
4990,6920
5011,6923
5033,6925
5052,6927
5068,6928
5083,6929
5095,6929
5103,6929
5107,6929
5108,6929
5109,6929
5117,6928
5134,6927
5157,6926
5179,6925
5196,6924
5204,6923
5205,6923
5206,6923
5209,6922
5217,6921
5228,6920
5240,6917
5254,6915
5270,6911
5289,6906
5306,6901
5317,6897
5323,6895
5326,6894
5328,6893
5333,6891
5343,6887
5356,6880
5371,6871
5379,6866
5382,6864
5384,6862
5389,6857
5399,6847
5407,6836
5411,6827
5414,6820
5415,6814
5415,6811
5415,6810
5415,6809
5415,6805
5415,6794
5415,6776
5415,6751
5415,6722
5415,6694
5415,6669
5415,6651
5415,6640
5415,6636
5415,6635
" style="stroke:#05b0da;stroke-width:0;
stroke-linejoin:bevel; stroke-linecap:butt;
fill:#05b0da;
"/>
<!-- Line -->
<!--  spline  -->
<polyline points="5415,6635
5415,6636
5412,6642
5407,6654
5402,6666
5399,6672
5399,6673
5399,6674
5396,6676
5390,6682
5383,6688
5372,6696
5356,6705
5343,6712
5333,6716
5328,6718
5326,6719
5323,6720
5317,6722
5306,6726
5289,6731
5271,6736
5259,6739
5253,6740
5250,6741
5246,6742
5239,6743
5226,6745
5205,6748
5183,6750
5164,6752
5148,6753
5133,6754
5121,6754
5113,6754
5109,6754
5108,6754
5107,6754
5099,6753
5082,6752
5060,6751
5037,6750
5020,6749
5012,6748
5011,6748
5010,6748
5007,6747
4999,6746
4988,6745
4976,6742
4962,6740
4945,6736
4927,6731
4910,6726
4899,6722
4893,6720
4891,6719
4888,6718
4883,6716
4874,6712
4861,6705
4846,6696
4838,6692
4835,6690
4832,6688
4827,6683
4817,6673
4809,6662
4805,6653
4803,6645
4802,6639
4802,6636
4802,6635
4802,6636
4802,6640
4802,6651
4802,6669
4802,6694
4802,6723
4802,6751
4802,6776
4802,6794
4802,6805
4802,6809
4802,6810
4802,6811
4805,6817
4810,6829
4814,6840
4817,6846
4817,6847
4818,6848
4820,6851
4826,6856
4834,6863
4845,6871
4861,6880
4874,6887
4883,6891
4888,6893
4891,6894
4893,6895
4899,6897
4910,6901
4927,6906
4945,6911
4957,6914
4963,6915
4966,6916
4970,6917
4977,6918
4990,6920
5011,6923
5033,6925
5052,6927
5068,6928
5083,6929
5095,6929
5103,6929
5107,6929
5108,6929
5109,6929
5117,6928
5134,6927
5157,6926
5179,6925
5196,6924
5204,6923
5205,6923
5206,6923
5209,6922
5217,6921
5228,6920
5240,6917
5254,6915
5270,6911
5289,6906
5306,6901
5317,6897
5323,6895
5326,6894
5328,6893
5333,6891
5343,6887
5356,6880
5371,6871
5379,6866
5382,6864
5384,6862
5389,6857
5399,6847
5407,6836
5411,6827
5414,6820
5415,6814
5415,6811
5415,6810
5415,6809
5415,6805
5415,6794
5415,6776
5415,6751
5415,6722
5415,6694
5415,6669
5415,6651
5415,6640
5415,6636
5415,6635
" style="stroke:#ffffff;stroke-width:7;
stroke-linejoin:bevel; stroke-linecap:butt;
"/>
<!-- Line -->
<!--  spline  -->
<polyline points="5108,6754
5109,6754
5117,6753
5134,6752
5157,6751
5179,6750
5196,6749
5204,6748
5205,6748
5206,6748
5209,6747
5217,6746
5228,6745
5240,6742
5254,6740
5270,6736
5289,6731
5306,6726
5317,6722
5323,6720
5326,6719
5328,6718
5333,6716
5343,6712
5356,6705
5371,6696
5379,6692
5382,6690
5384,6688
5389,6683
5399,6673
5407,6662
5411,6653
5414,6645
5415,6639
5415,6636
5415,6635
5415,6634
5412,6628
5407,6616
5402,6604
5399,6598
5399,6597
5399,6596
5396,6594
5390,6588
5383,6582
5372,6574
5356,6565
5343,6558
5333,6554
5328,6552
5326,6551
5323,6550
5317,6548
5306,6544
5289,6539
5271,6534
5259,6531
5253,6530
5250,6529
5246,6528
5239,6527
5226,6525
5205,6522
5183,6520
5164,6518
5148,6517
5133,6516
5121,6516
5113,6516
5109,6516
5108,6516
5107,6516
5099,6517
5082,6518
5060,6519
5037,6520
5020,6521
5012,6522
5011,6522
5010,6522
5007,6523
4999,6524
4988,6525
4976,6528
4962,6530
4945,6534
4927,6539
4910,6544
4899,6548
4893,6550
4891,6551
4888,6552
4883,6554
4874,6558
4861,6565
4846,6574
4838,6578
4835,6580
4832,6582
4827,6587
4817,6597
4809,6608
4805,6617
4803,6625
4802,6631
4802,6634
4802,6635
4802,6636
4805,6642
4810,6654
4814,6666
4817,6672
4817,6673
4818,6674
4820,6676
4826,6682
4834,6688
4845,6696
4861,6705
4874,6712
4883,6716
4888,6718
4891,6719
4893,6720
4899,6722
4910,6726
4927,6731
4945,6736
4957,6739
4963,6740
4966,6741
4970,6742
4977,6743
4990,6745
5011,6748
5033,6750
5052,6752
5068,6753
5083,6754
5095,6754
5103,6754
5107,6754
5108,6754
" style="stroke:#05b0da;stroke-width:0;
stroke-linejoin:bevel; stroke-linecap:butt;
fill:#05b0da;
"/>
<!-- Line -->
<!--  spline  -->
<polyline points="5108,6754
5109,6754
5117,6753
5134,6752
5157,6751
5179,6750
5196,6749
5204,6748
5205,6748
5206,6748
5209,6747
5217,6746
5228,6745
5240,6742
5254,6740
5270,6736
5289,6731
5306,6726
5317,6722
5323,6720
5326,6719
5328,6718
5333,6716
5343,6712
5356,6705
5371,6696
5379,6692
5382,6690
5384,6688
5389,6683
5399,6673
5407,6662
5411,6653
5414,6645
5415,6639
5415,6636
5415,6635
5415,6634
5412,6628
5407,6616
5402,6604
5399,6598
5399,6597
5399,6596
5396,6594
5390,6588
5383,6582
5372,6574
5356,6565
5343,6558
5333,6554
5328,6552
5326,6551
5323,6550
5317,6548
5306,6544
5289,6539
5271,6534
5259,6531
5253,6530
5250,6529
5246,6528
5239,6527
5226,6525
5205,6522
5183,6520
5164,6518
5148,6517
5133,6516
5121,6516
5113,6516
5109,6516
5108,6516
5107,6516
5099,6517
5082,6518
5060,6519
5037,6520
5020,6521
5012,6522
5011,6522
5010,6522
5007,6523
4999,6524
4988,6525
4976,6528
4962,6530
4945,6534
4927,6539
4910,6544
4899,6548
4893,6550
4891,6551
4888,6552
4883,6554
4874,6558
4861,6565
4846,6574
4838,6578
4835,6580
4832,6582
4827,6587
4817,6597
4809,6608
4805,6617
4803,6625
4802,6631
4802,6634
4802,6635
4802,6636
4805,6642
4810,6654
4814,6666
4817,6672
4817,6673
4818,6674
4820,6676
4826,6682
4834,6688
4845,6696
4861,6705
4874,6712
4883,6716
4888,6718
4891,6719
4893,6720
4899,6722
4910,6726
4927,6731
4945,6736
4957,6739
4963,6740
4966,6741
4970,6742
4977,6743
4990,6745
5011,6748
5033,6750
5052,6752
5068,6753
5083,6754
5095,6754
5103,6754
5107,6754
5108,6754
" style="stroke:#ffffff;stroke-width:7;
stroke-linejoin:bevel; stroke-linecap:butt;
"/>
<!-- Line -->
<!--  polyline  -->
<polyline points="5038,6588
5064,6626
4968,6648
4989,6631
4841,6606
4878,6578
5021,6602
5038,6588
" style="stroke:#ffffff;stroke-width:0;
stroke-linejoin:miter; stroke-linecap:butt;
fill:#ffffff;
"/>
<!-- Line -->
<!--  polyline  -->
<polyline points="5173,6680
5156,6641
5242,6624
5227,6637
5371,6662
5336,6690
5193,6663
5173,6680
" style="stroke:#ffffff;stroke-width:0;
stroke-linejoin:miter; stroke-linecap:butt;
fill:#ffffff;
"/>
<!-- Line -->
<!--  polyline  -->
<polyline points="5126,6568
5223,6541
5224,6583
5199,6578
5152,6617
5107,6610
5156,6572
5126,6568
" style="stroke:#ffffff;stroke-width:0;
stroke-linejoin:miter; stroke-linecap:butt;
fill:#ffffff;
"/>
<!-- Line -->
<!--  polyline  -->
<polyline points="5084,6716
4992,6733
4989,6691
5015,6696
5066,6653
5111,6661
5057,6708
5084,6716
" style="stroke:#ffffff;stroke-width:0;
stroke-linejoin:miter; stroke-linecap:butt;
fill:#ffffff;
"/>
</g>
</svg>
