<?xml version="1.0" standalone="no"?>
<!DOCTYPE svg PUBLIC "-//W3C//DTD SVG 1.1//EN"
"http://www.w3.org/Graphics/SVG/1.1/DTD/svg11.dtd">
<!-- Creator: fig2dev Version 3.2 Patchlevel 5c -->
<!-- CreationDate: Fri Sep 14 10:46:59 2012 -->
<!-- Magnification: 1.000 -->
<svg xmlns="http://www.w3.org/2000/svg" width="0.7in" height="0.4in" viewBox="4708 6339 795 513">
<g style="stroke-width:.025in; fill:none">
<!-- Line -->
<!--  polyline  -->
<polyline points="4720,6600
4953,6411
5491,6411
5298,6600
4720,6600
" style="stroke:#00a5d4;stroke-width:0;
stroke-linejoin:miter; stroke-linecap:butt;
fill:#00a5d4;
"/>
<!-- Line -->
<!--  polyline  -->
<polyline points="4720,6600
4953,6411
5491,6411
5298,6600
4720,6600
" style="stroke:#ffffff;stroke-width:7;
stroke-linejoin:miter; stroke-linecap:butt;
"/>
<!-- Line -->
<!--  polyline  -->
<polyline points="5298,6840
5491,6643
5491,6411
5298,6600
5298,6840
" style="stroke:#00a5d4;stroke-width:0;
stroke-linejoin:miter; stroke-linecap:butt;
fill:#00a5d4;
"/>
<!-- Line -->
<!--  polyline  -->
<polyline points="5298,6840
5491,6643
5491,6411
5298,6600
5298,6840
" style="stroke:#ffffff;stroke-width:7;
stroke-linejoin:miter; stroke-linecap:butt;
"/>
<!-- Line -->
<!--  polyline  -->
<polyline points="5298,6840
5298,6600
4721,6600
4721,6840
5298,6840
" style="stroke:#00a5d4;stroke-width:0;
stroke-linejoin:miter; stroke-linecap:butt;
fill:#00a5d4;
"/>
<!-- Line -->
<!--  polyline  -->
<polyline points="5298,6840
5298,6600
4721,6600
4721,6840
5298,6840
" style="stroke:#ffffff;stroke-width:7;
stroke-linejoin:miter; stroke-linecap:butt;
"/>
<!-- Text -->
<!--  text  -->
<text xml:space="preserve" x="4852" y="6529" fill="#ffffff"  font-family="Helvetica" font-style="normal" font-weight="bold" font-size="72" text-anchor="start">W</text>
<!-- Text -->
<!--  text  -->
<text xml:space="preserve" x="5260" y="6536" fill="#ffffff"  font-family="Helvetica" font-style="normal" font-weight="bold" font-size="72" text-anchor="start">E</text>
<!-- Text -->
<!--  text  -->
<text xml:space="preserve" x="4990" y="6593" fill="#ffffff"  font-family="Helvetica" font-style="normal" font-weight="bold" font-size="72" text-anchor="start">S</text>
<!-- Text -->
<!--  text  -->
<text xml:space="preserve" x="5133" y="6465" fill="#ffffff"  font-family="Helvetica" font-style="normal" font-weight="bold" font-size="72" text-anchor="start">N</text>
<!-- Line -->
<!--  spline  -->
<polyline points="5144,6505
5142,6506
5141,6507
5139,6508
5138,6509
5137,6509
5135,6510
5133,6511
5131,6512
5129,6512
5128,6512
5125,6513
5122,6513
5121,6514
5120,6514
5119,6514
5116,6514
5113,6514
5111,6515
5109,6515
5108,6515
5106,6515
5102,6514
5100,6514
5099,6514
5098,6514
5097,6513
5095,6513
5093,6512
5092,6512
5091,6511
5091,6510
5090,6510
5091,6509
5091,6508
5091,6507
5092,6506
5093,6505
5094,6504
5096,6503
5097,6502
5098,6502
5099,6501
5101,6501
5104,6500
5107,6499
5108,6499
5109,6499
5112,6498
5115,6498
5116,6497
5117,6497
5120,6497
5123,6497
5126,6496
5128,6496
5129,6496
5131,6496
5135,6497
5137,6497
5138,6497
5139,6497
5140,6498
5142,6498
5143,6499
5144,6499
5145,6500
5146,6501
5146,6502
5146,6503
5145,6504
5144,6504
5144,6505
" style="stroke:#ffffff;stroke-width:0;
stroke-linejoin:bevel; stroke-linecap:butt;
fill:#ffffff;
"/>
<!-- Line -->
<!--  polyline  -->
<polyline points="5113,6501
5168,6462
5134,6501
" style="stroke:#ffffff;stroke-width:0;
stroke-linejoin:miter; stroke-linecap:butt;
fill:#ffffff;
"/>
<!-- Line -->
<!--  polyline  -->
<polyline points="5106,6507
5071,6547
5127,6507
" style="stroke:#ffffff;stroke-width:0;
stroke-linejoin:miter; stroke-linecap:butt;
fill:#ffffff;
"/>
<!-- Line -->
<!--  polyline  -->
<polyline points="5103,6509
4998,6505
5111,6501
" style="stroke:#ffffff;stroke-width:0;
stroke-linejoin:miter; stroke-linecap:butt;
fill:#ffffff;
"/>
<!-- Line -->
<!--  polyline  -->
<polyline points="5120,6509
5233,6505
5129,6501
" style="stroke:#ffffff;stroke-width:0;
stroke-linejoin:miter; stroke-linecap:butt;
fill:#ffffff;
"/>
<!-- Line -->
<!--  polyline  -->
<polyline points="5111,6511
5055,6522
5102,6506
" style="stroke:#ffffff;stroke-width:0;
stroke-linejoin:miter; stroke-linecap:butt;
fill:#ffffff;
"/>
<!-- Line -->
<!--  polyline  -->
<polyline points="5128,6506
5183,6488
5119,6501
" style="stroke:#ffffff;stroke-width:0;
stroke-linejoin:miter; stroke-linecap:butt;
fill:#ffffff;
"/>
<!-- Line -->
<!--  polyline  -->
<polyline points="5133,6506
5145,6523
5112,6511
" style="stroke:#ffffff;stroke-width:0;
stroke-linejoin:miter; stroke-linecap:butt;
fill:#ffffff;
"/>
<!-- Line -->
<!--  polyline  -->
<polyline points="5126,6501
5092,6489
5105,6507
" style="stroke:#ffffff;stroke-width:0;
stroke-linejoin:miter; stroke-linecap:butt;
fill:#ffffff;
"/>
<!-- Line -->
<!--  spline  -->
<polyline points="5208,6492
5208,6493
5208,6495
5207,6500
5207,6502
5207,6503
5206,6505
5204,6507
5201,6510
5196,6514
5191,6517
5189,6519
5188,6519
5186,6521
5179,6524
5172,6527
5169,6529
5167,6529
5164,6530
5155,6533
5145,6536
5137,6537
5131,6538
5127,6539
5126,6539
5124,6539
5117,6540
5105,6542
5098,6543
5096,6543
5095,6543
5092,6543
5086,6543
5078,6543
5069,6543
5061,6542
5058,6542
5056,6541
5054,6541
5047,6539
5041,6537
5039,6537
5038,6536
5036,6535
5032,6533
5028,6530
5026,6528
5025,6526
5024,6524
5024,6523
5024,6521
5025,6516
5025,6514
5025,6513
5026,6511
5028,6509
5031,6506
5036,6502
5041,6499
5043,6497
5045,6497
5047,6495
5054,6492
5061,6489
5064,6487
5065,6487
5069,6486
5077,6483
5087,6480
5095,6479
5101,6478
5105,6477
5106,6477
5108,6477
5115,6476
5127,6474
5134,6473
5136,6473
5137,6473
5140,6473
5146,6473
5154,6473
5163,6473
5171,6474
5174,6474
5176,6475
5178,6475
5185,6477
5191,6479
5193,6479
5194,6480
5196,6481
5200,6483
5204,6486
5206,6488
5207,6490
5208,6492
" style="stroke:#ffffff;stroke-width:7;
stroke-linejoin:bevel; stroke-linecap:butt;
"/>
</g>
</svg>
