<?xml version="1.0" standalone="no"?>
<!DOCTYPE svg PUBLIC "-//W3C//DTD SVG 1.1//EN"
"http://www.w3.org/Graphics/SVG/1.1/DTD/svg11.dtd">
<!-- Creator: fig2dev Version 3.2 Patchlevel 5c -->
<!-- CreationDate: Fri Sep 14 10:46:59 2012 -->
<!-- Magnification: 1.000 -->
<svg xmlns="http://www.w3.org/2000/svg" width="0.5in" height="0.6in" viewBox="4858 8473 659 773">
<g style="stroke-width:.025in; fill:none">
<!-- Line -->
<!--  polyline  -->
<polyline points="4870,8781
4998,8687
5505,8648
5373,8781
4870,8781
" style="stroke:#00a5d4;stroke-width:0;
stroke-linejoin:miter; stroke-linecap:butt;
fill:#00a5d4;
"/>
<!-- Line -->
<!--  polyline  -->
<polyline points="4870,8781
4998,8687
5505,8648
5373,8781
4870,8781
" style="stroke:#ffffff;stroke-width:7;
stroke-linejoin:miter; stroke-linecap:butt;
"/>
<!-- Line -->
<!--  polyline  -->
<polyline points="5373,9233
5505,9100
5505,8648
5373,8781
5373,9233
" style="stroke:#00a5d4;stroke-width:0;
stroke-linejoin:miter; stroke-linecap:butt;
fill:#00a5d4;
"/>
<!-- Line -->
<!--  polyline  -->
<polyline points="5373,9233
5505,9100
5505,8648
5373,8781
5373,9233
" style="stroke:#ffffff;stroke-width:7;
stroke-linejoin:miter; stroke-linecap:butt;
"/>
<!-- Line -->
<!--  polyline  -->
<polyline points="5373,9234
5373,8781
4870,8781
4870,9234
5373,9234
" style="stroke:#00a5d4;stroke-width:0;
stroke-linejoin:miter; stroke-linecap:butt;
fill:#00a5d4;
"/>
<!-- Line -->
<!--  polyline  -->
<polyline points="5373,9234
5373,8781
4870,8781
4870,9234
5373,9234
" style="stroke:#ffffff;stroke-width:7;
stroke-linejoin:miter; stroke-linecap:butt;
"/>
<!-- Line -->
<!--  polyline  -->
<polyline points="4870,8619
5037,8485
5505,8485
5373,8619
4870,8619
" style="stroke:#00a5d4;stroke-width:0;
stroke-linejoin:miter; stroke-linecap:butt;
fill:#00a5d4;
"/>
<!-- Line -->
<!--  polyline  -->
<polyline points="4870,8619
5037,8485
5505,8485
5373,8619
4870,8619
" style="stroke:#ffffff;stroke-width:7;
stroke-linejoin:miter; stroke-linecap:butt;
"/>
<!-- Line -->
<!--  polyline  -->
<polyline points="5373,8782
5505,8648
5505,8485
5373,8619
5373,8782
" style="stroke:#00a5d4;stroke-width:0;
stroke-linejoin:miter; stroke-linecap:butt;
fill:#00a5d4;
"/>
<!-- Line -->
<!--  polyline  -->
<polyline points="5373,8782
5505,8648
5505,8485
5373,8619
5373,8782
" style="stroke:#ffffff;stroke-width:7;
stroke-linejoin:miter; stroke-linecap:butt;
"/>
<!-- Line -->
<!--  polyline  -->
<polyline points="5373,8782
5373,8619
4870,8619
4870,8782
5373,8782
" style="stroke:#00a5d4;stroke-width:0;
stroke-linejoin:miter; stroke-linecap:butt;
fill:#00a5d4;
"/>
<!-- Line -->
<!--  polyline  -->
<polyline points="5373,8782
5373,8619
4870,8619
4870,8782
5373,8782
" style="stroke:#ffffff;stroke-width:7;
stroke-linejoin:miter; stroke-linecap:butt;
"/>
<!-- Line -->
<!--  spline  -->
<polyline points="5333,8702
5332,8704
5330,8708
5329,8710
5328,8713
5326,8716
5323,8721
5319,8726
5314,8731
5312,8733
5311,8734
5309,8736
5303,8738
5299,8739
5296,8739
5295,8739
5294,8740
5293,8740
5292,8739
5289,8738
5284,8734
5277,8727
5272,8719
5267,8712
5263,8705
5261,8702
5261,8701
5260,8700
5257,8695
5250,8685
5243,8675
5240,8670
5239,8669
5238,8669
5236,8667
5231,8666
5226,8665
5219,8665
5213,8667
5211,8669
5210,8670
5208,8672
5203,8677
5199,8682
5197,8685
5197,8686
5196,8689
5193,8693
5191,8697
5190,8699
5189,8700
5189,8701
5188,8703
5187,8707
5186,8709
5185,8712
5182,8715
5179,8720
5175,8725
5170,8730
5169,8732
5168,8733
5166,8735
5160,8737
5156,8738
5153,8738
5151,8738
5151,8739
5150,8739
5148,8738
5145,8737
5140,8733
5133,8726
5128,8719
5124,8712
5120,8705
5118,8702
5118,8701
5117,8700
5113,8695
5106,8685
5100,8675
5096,8670
5095,8669
5094,8669
5092,8667
5087,8666
5082,8665
5075,8665
5069,8667
5067,8669
5066,8670
5064,8672
5060,8677
5056,8682
5054,8685
5054,8686
5053,8688
5050,8693
5048,8697
5047,8700
5046,8701
5046,8702
5045,8704
5043,8708
5042,8710
5041,8713
5039,8716
5036,8721
5032,8726
5027,8731
5025,8733
5024,8734
5022,8736
5016,8738
5012,8739
5009,8739
5008,8739
5007,8740
5006,8740
5005,8739
5002,8738
4997,8734
4990,8727
4985,8719
4980,8712
4976,8705
4974,8702
4974,8701
4973,8700
4970,8695
4963,8685
4956,8675
4953,8670
4952,8669
4951,8669
4949,8667
4944,8666
4939,8665
4932,8665
4926,8667
4924,8669
4923,8670
4921,8672
4916,8677
4912,8682
4910,8685
4910,8686
4909,8689
4906,8693
4904,8697
4903,8699
4902,8700
4902,8701
" style="stroke:#ffffff;stroke-width:7;
stroke-linejoin:bevel; stroke-linecap:round;
"/>
<!-- Line -->
<!--  spline  -->
<polyline points="4902,8702
4903,8704
4905,8708
4906,8710
4907,8713
4909,8716
4912,8721
4916,8726
4921,8731
4923,8733
4924,8734
4926,8736
4932,8738
4936,8739
4939,8739
4941,8739
4942,8740
4944,8739
4947,8738
4952,8734
4959,8727
4964,8719
4968,8712
4972,8705
4974,8702
4974,8701
4975,8700
4979,8695
4986,8685
4992,8675
4996,8670
4997,8669
4998,8669
5000,8667
5005,8666
5010,8665
5017,8665
5023,8667
5025,8669
5026,8670
5028,8672
5032,8677
5036,8682
5038,8685
5038,8686
5039,8689
5042,8693
5044,8697
5045,8699
5046,8700
5046,8701
5047,8703
5049,8707
5050,8709
5051,8712
5053,8715
5056,8720
5060,8725
5065,8730
5067,8732
5068,8733
5070,8735
5076,8737
5080,8738
5083,8738
5084,8738
5085,8739
5086,8739
5087,8738
5090,8737
5095,8733
5102,8726
5107,8719
5112,8712
5116,8705
5118,8702
5118,8701
5119,8700
5122,8695
5129,8685
5136,8675
5139,8670
5140,8669
5141,8669
5143,8667
5148,8666
5153,8665
5160,8665
5166,8667
5168,8669
5169,8670
5171,8672
5176,8677
5180,8682
5182,8685
5182,8686
5183,8688
5186,8693
5188,8697
5189,8700
5190,8701
5190,8702
5191,8704
5192,8708
5193,8710
5194,8713
5197,8716
5200,8721
5204,8726
5209,8731
5210,8733
5211,8734
5213,8736
5219,8738
5223,8739
5226,8739
5228,8739
5228,8740
5229,8740
5231,8739
5234,8738
5239,8734
5246,8727
5251,8719
5255,8712
5259,8705
5261,8702
5261,8701
5262,8700
5266,8695
5273,8685
5279,8675
5283,8670
5284,8669
5285,8669
5287,8667
5291,8666
5296,8665
5303,8665
5309,8667
5311,8669
5312,8670
5314,8672
5319,8677
5323,8682
5325,8685
5325,8686
5326,8689
5329,8693
5331,8697
5332,8699
5333,8700
5333,8701
" style="stroke:#ffffff;stroke-width:15;
stroke-linejoin:bevel; stroke-linecap:round;
"/>
<!-- Line -->
<!--  spline  -->
<polyline points="5341,8702
5340,8704
5338,8708
5337,8710
5336,8713
5334,8716
5331,8721
5327,8726
5322,8731
5320,8733
5319,8734
5317,8736
5311,8738
5307,8739
5304,8739
5302,8739
5302,8740
5301,8740
5299,8739
5296,8738
5291,8734
5284,8727
5279,8719
5275,8712
5271,8705
5269,8702
5269,8701
5268,8700
5264,8695
5257,8685
5251,8675
5247,8670
5246,8669
5245,8669
5243,8667
5239,8666
5234,8665
5227,8665
5221,8667
5219,8669
5218,8670
5216,8672
5211,8677
5207,8682
5205,8685
5205,8686
5204,8689
5201,8693
5199,8697
5198,8699
5197,8700
5197,8701
5196,8703
5194,8707
5193,8709
5192,8712
5190,8715
5187,8720
5183,8725
5178,8730
5176,8732
5175,8733
5173,8735
5167,8737
5163,8738
5160,8738
5159,8738
5158,8739
5157,8739
5156,8738
5153,8737
5148,8733
5141,8726
5136,8719
5131,8712
5127,8705
5125,8702
5125,8701
5124,8700
5121,8695
5114,8685
5107,8675
5104,8670
5103,8669
5102,8669
5100,8667
5095,8666
5090,8665
5083,8665
5077,8667
5075,8669
5074,8670
5072,8672
5067,8677
5063,8682
5061,8685
5061,8686
5060,8688
5057,8693
5055,8697
5054,8700
5053,8701
5053,8702
5052,8704
5051,8708
5050,8710
5049,8713
5047,8716
5044,8721
5040,8726
5035,8731
5033,8733
5032,8734
5030,8736
5024,8738
5020,8739
5017,8739
5015,8739
5015,8740
5014,8740
5012,8739
5009,8738
5004,8734
4997,8727
4992,8719
4988,8712
4984,8705
4982,8702
4982,8701
4981,8700
4977,8695
4970,8685
4964,8675
4960,8670
4959,8669
4958,8669
4956,8667
4952,8666
4947,8665
4940,8665
4934,8667
4932,8669
4931,8670
4929,8672
4924,8677
4920,8682
4918,8685
4918,8686
4917,8689
4914,8693
4912,8697
4911,8699
4910,8700
4910,8701
" style="stroke:#000000;stroke-width:7;
stroke-linejoin:bevel; stroke-linecap:round;
"/>
<!-- Line -->
<!--  spline  -->
<polyline points="4910,8702
4911,8704
4913,8708
4914,8710
4915,8713
4917,8716
4920,8721
4924,8726
4929,8731
4931,8733
4932,8734
4934,8736
4940,8738
4944,8739
4947,8739
4948,8739
4949,8740
4950,8740
4951,8739
4954,8738
4959,8734
4966,8727
4971,8719
4976,8712
4980,8705
4982,8702
4982,8701
4983,8700
4986,8695
4993,8685
5000,8675
5003,8670
5004,8669
5005,8669
5007,8667
5012,8666
5017,8665
5024,8665
5030,8667
5032,8669
5033,8670
5035,8672
5040,8677
5044,8682
5046,8685
5046,8686
5047,8689
5050,8693
5052,8697
5053,8699
5054,8700
5054,8701
5055,8703
5056,8707
5057,8709
5058,8712
5061,8715
5064,8720
5068,8725
5073,8730
5074,8732
5075,8733
5077,8735
5083,8737
5087,8738
5090,8738
5092,8738
5092,8739
5093,8739
5095,8738
5098,8737
5103,8733
5110,8726
5115,8719
5120,8712
5124,8705
5126,8702
5126,8701
5127,8700
5130,8695
5137,8685
5144,8675
5147,8670
5148,8669
5149,8669
5151,8667
5156,8666
5161,8665
5168,8665
5174,8667
5176,8669
5177,8670
5179,8672
5183,8677
5187,8682
5189,8685
5189,8686
5190,8688
5193,8693
5195,8697
5196,8700
5197,8701
5197,8702
5198,8704
5200,8708
5201,8710
5202,8713
5204,8716
5207,8721
5211,8726
5216,8731
5218,8733
5219,8734
5221,8736
5227,8738
5231,8739
5234,8739
5235,8739
5236,8740
5237,8740
5238,8739
5241,8738
5246,8734
5253,8727
5258,8719
5263,8712
5267,8705
5269,8702
5269,8701
5270,8700
5273,8695
5280,8685
5287,8675
5290,8670
5291,8669
5292,8669
5294,8667
5299,8666
5304,8665
5311,8665
5317,8667
5319,8669
5320,8670
5322,8672
5327,8677
5331,8682
5333,8685
5333,8686
5334,8689
5337,8693
5339,8697
5340,8699
5341,8700
5341,8701
" style="stroke:#000000;stroke-width:15;
stroke-linejoin:bevel; stroke-linecap:round;
"/>
<!-- Line -->
<!--  spline  -->
<polyline points="5333,8702
5332,8704
5330,8708
5329,8710
5328,8713
5326,8716
5323,8721
5319,8726
5314,8731
5312,8733
5311,8734
5309,8736
5303,8738
5299,8739
5296,8739
5295,8739
5294,8740
5293,8740
5292,8739
5289,8738
5284,8734
5277,8727
5272,8719
5267,8712
5263,8705
5261,8702
5261,8701
5260,8700
5257,8695
5250,8685
5243,8675
5240,8670
5239,8669
5238,8669
5236,8667
5231,8666
5226,8665
5219,8665
5213,8667
5211,8669
5210,8670
5208,8672
5203,8677
5199,8682
5197,8685
5197,8686
5196,8689
5193,8693
5191,8697
5190,8699
5189,8700
5189,8701
5188,8703
5187,8707
5186,8709
5185,8712
5182,8715
5179,8720
5175,8725
5170,8730
5169,8732
5168,8733
5166,8735
5160,8737
5156,8738
5153,8738
5151,8738
5151,8739
5150,8739
5148,8738
5145,8737
5140,8733
5133,8726
5128,8719
5124,8712
5120,8705
5118,8702
5118,8701
5117,8700
5113,8695
5106,8685
5100,8675
5096,8670
5095,8669
5094,8669
5092,8667
5087,8666
5082,8665
5075,8665
5069,8667
5067,8669
5066,8670
5064,8672
5060,8677
5056,8682
5054,8685
5054,8686
5053,8688
5050,8693
5048,8697
5047,8700
5046,8701
5046,8702
5045,8704
5043,8708
5042,8710
5041,8713
5039,8716
5036,8721
5032,8726
5027,8731
5025,8733
5024,8734
5022,8736
5016,8738
5012,8739
5009,8739
5008,8739
5007,8740
5006,8740
5005,8739
5002,8738
4997,8734
4990,8727
4985,8719
4980,8712
4976,8705
4974,8702
4974,8701
4973,8700
4970,8695
4963,8685
4956,8675
4953,8670
4952,8669
4951,8669
4949,8667
4944,8666
4939,8665
4932,8665
4926,8667
4924,8669
4923,8670
4921,8672
4916,8677
4912,8682
4910,8685
4910,8686
4909,8689
4906,8693
4904,8697
4903,8699
4902,8700
4902,8701
" style="stroke:#ffffff;stroke-width:7;
stroke-linejoin:bevel; stroke-linecap:round;
"/>
<!-- Line -->
<!--  spline  -->
<polyline points="4902,8702
4903,8704
4905,8708
4906,8710
4907,8713
4909,8716
4912,8721
4916,8726
4921,8731
4923,8733
4924,8734
4926,8736
4932,8738
4936,8739
4939,8739
4941,8739
4942,8740
4944,8739
4947,8738
4952,8734
4959,8727
4964,8719
4968,8712
4972,8705
4974,8702
4974,8701
4975,8700
4979,8695
4986,8685
4992,8675
4996,8670
4997,8669
4998,8669
5000,8667
5005,8666
5010,8665
5017,8665
5023,8667
5025,8669
5026,8670
5028,8672
5032,8677
5036,8682
5038,8685
5038,8686
5039,8689
5042,8693
5044,8697
5045,8699
5046,8700
5046,8701
5047,8703
5049,8707
5050,8709
5051,8712
5053,8715
5056,8720
5060,8725
5065,8730
5067,8732
5068,8733
5070,8735
5076,8737
5080,8738
5083,8738
5084,8738
5085,8739
5086,8739
5087,8738
5090,8737
5095,8733
5102,8726
5107,8719
5112,8712
5116,8705
5118,8702
5118,8701
5119,8700
5122,8695
5129,8685
5136,8675
5139,8670
5140,8669
5141,8669
5143,8667
5148,8666
5153,8665
5160,8665
5166,8667
5168,8669
5169,8670
5171,8672
5176,8677
5180,8682
5182,8685
5182,8686
5183,8688
5186,8693
5188,8697
5189,8700
5190,8701
5190,8702
5191,8704
5192,8708
5193,8710
5194,8713
5197,8716
5200,8721
5204,8726
5209,8731
5210,8733
5211,8734
5213,8736
5219,8738
5223,8739
5226,8739
5228,8739
5228,8740
5229,8740
5231,8739
5234,8738
5239,8734
5246,8727
5251,8719
5255,8712
5259,8705
5261,8702
5261,8701
5262,8700
5266,8695
5273,8685
5279,8675
5283,8670
5284,8669
5285,8669
5287,8667
5291,8666
5296,8665
5303,8665
5309,8667
5311,8669
5312,8670
5314,8672
5319,8677
5323,8682
5325,8685
5325,8686
5326,8689
5329,8693
5331,8697
5332,8699
5333,8700
5333,8701
" style="stroke:#ffffff;stroke-width:15;
stroke-linejoin:bevel; stroke-linecap:round;
"/>
<!-- Line -->
<!--  spline  -->
<polyline points="5341,8702
5340,8704
5338,8708
5337,8710
5336,8713
5334,8716
5331,8721
5327,8726
5322,8731
5320,8733
5319,8734
5317,8736
5311,8738
5307,8739
5304,8739
5302,8739
5302,8740
5301,8740
5299,8739
5296,8738
5291,8734
5284,8727
5279,8719
5275,8712
5271,8705
5269,8702
5269,8701
5268,8700
5264,8695
5257,8685
5251,8675
5247,8670
5246,8669
5245,8669
5243,8667
5239,8666
5234,8665
5227,8665
5221,8667
5219,8669
5218,8670
5216,8672
5211,8677
5207,8682
5205,8685
5205,8686
5204,8689
5201,8693
5199,8697
5198,8699
5197,8700
5197,8701
5196,8703
5194,8707
5193,8709
5192,8712
5190,8715
5187,8720
5183,8725
5178,8730
5176,8732
5175,8733
5173,8735
5167,8737
5163,8738
5160,8738
5159,8738
5158,8739
5157,8739
5156,8738
5153,8737
5148,8733
5141,8726
5136,8719
5131,8712
5127,8705
5125,8702
5125,8701
5124,8700
5121,8695
5114,8685
5107,8675
5104,8670
5103,8669
5102,8669
5100,8667
5095,8666
5090,8665
5083,8665
5077,8667
5075,8669
5074,8670
5072,8672
5067,8677
5063,8682
5061,8685
5061,8686
5060,8688
5057,8693
5055,8697
5054,8700
5053,8701
5053,8702
5052,8704
5051,8708
5050,8710
5049,8713
5047,8716
5044,8721
5040,8726
5035,8731
5033,8733
5032,8734
5030,8736
5024,8738
5020,8739
5017,8739
5015,8739
5015,8740
5014,8740
5012,8739
5009,8738
5004,8734
4997,8727
4992,8719
4988,8712
4984,8705
4982,8702
4982,8701
4981,8700
4977,8695
4970,8685
4964,8675
4960,8670
4959,8669
4958,8669
4956,8667
4952,8666
4947,8665
4940,8665
4934,8667
4932,8669
4931,8670
4929,8672
4924,8677
4920,8682
4918,8685
4918,8686
4917,8689
4914,8693
4912,8697
4911,8699
4910,8700
4910,8701
" style="stroke:#000000;stroke-width:7;
stroke-linejoin:bevel; stroke-linecap:round;
"/>
<!-- Line -->
<!--  spline  -->
<polyline points="4910,8702
4911,8704
4913,8708
4914,8710
4915,8713
4917,8716
4920,8721
4924,8726
4929,8731
4931,8733
4932,8734
4934,8736
4940,8738
4944,8739
4947,8739
4948,8739
4949,8740
4950,8740
4951,8739
4954,8738
4959,8734
4966,8727
4971,8719
4976,8712
4980,8705
4982,8702
4982,8701
4983,8700
4986,8695
4993,8685
5000,8675
5003,8670
5004,8669
5005,8669
5007,8667
5012,8666
5017,8665
5024,8665
5030,8667
5032,8669
5033,8670
5035,8672
5040,8677
5044,8682
5046,8685
5046,8686
5047,8689
5050,8693
5052,8697
5053,8699
5054,8700
5054,8701
5055,8703
5056,8707
5057,8709
5058,8712
5061,8715
5064,8720
5068,8725
5073,8730
5074,8732
5075,8733
5077,8735
5083,8737
5087,8738
5090,8738
5092,8738
5092,8739
5093,8739
5095,8738
5098,8737
5103,8733
5110,8726
5115,8719
5120,8712
5124,8705
5126,8702
5126,8701
5127,8700
5130,8695
5137,8685
5144,8675
5147,8670
5148,8669
5149,8669
5151,8667
5156,8666
5161,8665
5168,8665
5174,8667
5176,8669
5177,8670
5179,8672
5183,8677
5187,8682
5189,8685
5189,8686
5190,8688
5193,8693
5195,8697
5196,8700
5197,8701
5197,8702
5198,8704
5200,8708
5201,8710
5202,8713
5204,8716
5207,8721
5211,8726
5216,8731
5218,8733
5219,8734
5221,8736
5227,8738
5231,8739
5234,8739
5235,8739
5236,8740
5237,8740
5238,8739
5241,8738
5246,8734
5253,8727
5258,8719
5263,8712
5267,8705
5269,8702
5269,8701
5270,8700
5273,8695
5280,8685
5287,8675
5290,8670
5291,8669
5292,8669
5294,8667
5299,8666
5304,8665
5311,8665
5317,8667
5319,8669
5320,8670
5322,8672
5327,8677
5331,8682
5333,8685
5333,8686
5334,8689
5337,8693
5339,8697
5340,8699
5341,8700
5341,8701
" style="stroke:#000000;stroke-width:15;
stroke-linejoin:bevel; stroke-linecap:round;
"/>
<!-- Line -->
<!--  spline  -->
<polyline points="5333,8702
5332,8704
5330,8708
5329,8710
5328,8713
5326,8716
5323,8721
5319,8726
5314,8731
5312,8733
5311,8734
5309,8736
5303,8738
5299,8739
5296,8739
5295,8739
5294,8740
5293,8740
5292,8739
5289,8738
5284,8734
5277,8727
5272,8719
5267,8712
5263,8705
5261,8702
5261,8701
5260,8700
5257,8695
5250,8685
5243,8675
5240,8670
5239,8669
5238,8669
5236,8667
5231,8666
5226,8665
5219,8665
5213,8667
5211,8669
5210,8670
5208,8672
5203,8677
5199,8682
5197,8685
5197,8686
5196,8689
5193,8693
5191,8697
5190,8699
5189,8700
5189,8701
5188,8703
5187,8707
5186,8709
5185,8712
5182,8715
5179,8720
5175,8725
5170,8730
5169,8732
5168,8733
5166,8735
5160,8737
5156,8738
5153,8738
5151,8738
5151,8739
5150,8739
5148,8738
5145,8737
5140,8733
5133,8726
5128,8719
5124,8712
5120,8705
5118,8702
5118,8701
5117,8700
5113,8695
5106,8685
5100,8675
5096,8670
5095,8669
5094,8669
5092,8667
5087,8666
5082,8665
5075,8665
5069,8667
5067,8669
5066,8670
5064,8672
5060,8677
5056,8682
5054,8685
5054,8686
5053,8688
5050,8693
5048,8697
5047,8700
5046,8701
5046,8702
5045,8704
5043,8708
5042,8710
5041,8713
5039,8716
5036,8721
5032,8726
5027,8731
5025,8733
5024,8734
5022,8736
5016,8738
5012,8739
5009,8739
5008,8739
5007,8740
5006,8740
5005,8739
5002,8738
4997,8734
4990,8727
4985,8719
4980,8712
4976,8705
4974,8702
4974,8701
4973,8700
4970,8695
4963,8685
4956,8675
4953,8670
4952,8669
4951,8669
4949,8667
4944,8666
4939,8665
4932,8665
4926,8667
4924,8669
4923,8670
4921,8672
4916,8677
4912,8682
4910,8685
4910,8686
4909,8689
4906,8693
4904,8697
4903,8699
4902,8700
4902,8701
" style="stroke:#ffffff;stroke-width:7;
stroke-linejoin:bevel; stroke-linecap:round;
"/>
<!-- Line -->
<!--  spline  -->
<polyline points="4902,8702
4903,8704
4905,8708
4906,8710
4907,8713
4909,8716
4912,8721
4916,8726
4921,8731
4923,8733
4924,8734
4926,8736
4932,8738
4936,8739
4939,8739
4941,8739
4942,8740
4944,8739
4947,8738
4952,8734
4959,8727
4964,8719
4968,8712
4972,8705
4974,8702
4974,8701
4975,8700
4979,8695
4986,8685
4992,8675
4996,8670
4997,8669
4998,8669
5000,8667
5005,8666
5010,8665
5017,8665
5023,8667
5025,8669
5026,8670
5028,8672
5032,8677
5036,8682
5038,8685
5038,8686
5039,8689
5042,8693
5044,8697
5045,8699
5046,8700
5046,8701
5047,8703
5049,8707
5050,8709
5051,8712
5053,8715
5056,8720
5060,8725
5065,8730
5067,8732
5068,8733
5070,8735
5076,8737
5080,8738
5083,8738
5084,8738
5085,8739
5086,8739
5087,8738
5090,8737
5095,8733
5102,8726
5107,8719
5112,8712
5116,8705
5118,8702
5118,8701
5119,8700
5122,8695
5129,8685
5136,8675
5139,8670
5140,8669
5141,8669
5143,8667
5148,8666
5153,8665
5160,8665
5166,8667
5168,8669
5169,8670
5171,8672
5176,8677
5180,8682
5182,8685
5182,8686
5183,8688
5186,8693
5188,8697
5189,8700
5190,8701
5190,8702
5191,8704
5192,8708
5193,8710
5194,8713
5197,8716
5200,8721
5204,8726
5209,8731
5210,8733
5211,8734
5213,8736
5219,8738
5223,8739
5226,8739
5228,8739
5228,8740
5229,8740
5231,8739
5234,8738
5239,8734
5246,8727
5251,8719
5255,8712
5259,8705
5261,8702
5261,8701
5262,8700
5266,8695
5273,8685
5279,8675
5283,8670
5284,8669
5285,8669
5287,8667
5291,8666
5296,8665
5303,8665
5309,8667
5311,8669
5312,8670
5314,8672
5319,8677
5323,8682
5325,8685
5325,8686
5326,8689
5329,8693
5331,8697
5332,8699
5333,8700
5333,8701
" style="stroke:#ffffff;stroke-width:15;
stroke-linejoin:bevel; stroke-linecap:round;
"/>
<!-- Line -->
<!--  polyline  -->
<polyline points="5136,8943
5136,8846
5152,8846
5128,8810
5104,8846
5120,8846
5120,8943
5136,8943
" style="stroke:#ffffff;stroke-width:0;
stroke-linejoin:miter; stroke-linecap:butt;
fill:#ffffff;
"/>
<!-- Line -->
<!--  polyline  -->
<polyline points="5087,8957
5019,8889
5030,8877
4988,8868
4996,8911
5008,8900
5076,8968
5087,8957
" style="stroke:#ffffff;stroke-width:0;
stroke-linejoin:miter; stroke-linecap:butt;
fill:#ffffff;
"/>
<!-- Line -->
<!--  polyline  -->
<polyline points="5062,9001
4966,9001
4966,8985
4929,9009
4966,9033
4966,9017
5062,9017
5062,9001
" style="stroke:#ffffff;stroke-width:0;
stroke-linejoin:miter; stroke-linecap:butt;
fill:#ffffff;
"/>
<!-- Line -->
<!--  polyline  -->
<polyline points="5076,9050
5008,9118
4996,9107
4988,9149
5030,9141
5019,9129
5087,9061
5076,9050
" style="stroke:#ffffff;stroke-width:0;
stroke-linejoin:miter; stroke-linecap:butt;
fill:#ffffff;
"/>
<!-- Line -->
<!--  polyline  -->
<polyline points="5120,9075
5120,9171
5104,9171
5128,9208
5152,9171
5136,9171
5136,9075
5120,9075
" style="stroke:#ffffff;stroke-width:0;
stroke-linejoin:miter; stroke-linecap:butt;
fill:#ffffff;
"/>
<!-- Line -->
<!--  polyline  -->
<polyline points="5170,9061
5238,9129
5226,9141
5269,9149
5260,9107
5249,9118
5181,9050
5170,9061
" style="stroke:#ffffff;stroke-width:0;
stroke-linejoin:miter; stroke-linecap:butt;
fill:#ffffff;
"/>
<!-- Line -->
<!--  polyline  -->
<polyline points="5194,9017
5291,9017
5291,9033
5327,9009
5291,8985
5291,9001
5194,9001
5194,9017
" style="stroke:#ffffff;stroke-width:0;
stroke-linejoin:miter; stroke-linecap:butt;
fill:#ffffff;
"/>
<!-- Line -->
<!--  polyline  -->
<polyline points="5181,8968
5249,8900
5260,8911
5269,8868
5226,8877
5238,8889
5170,8957
5181,8968
" style="stroke:#ffffff;stroke-width:0;
stroke-linejoin:miter; stroke-linecap:butt;
fill:#ffffff;
"/>
<!-- Line -->
<!--  spline  -->
<polyline points="5187,9090
5188,9089
5194,9083
5203,9075
5209,9069
5210,9068
5211,9067
5213,9064
5217,9058
5221,9050
5225,9040
5228,9030
5229,9026
5229,9024
5229,9020
5230,9010
5230,9000
5230,8995
5229,8993
5229,8989
5226,8979
5222,8968
5218,8961
5215,8955
5212,8952
5212,8951
5211,8950
5205,8944
5197,8935
5191,8929
5190,8928
5189,8927
5186,8925
5180,8921
5172,8917
5162,8913
5152,8910
5148,8909
5146,8909
5142,8909
5132,8908
5122,8908
5117,8908
5116,8909
5111,8909
5101,8912
5090,8916
5082,8920
5076,8923
5073,8926
5072,8926
5071,8927
5065,8933
5056,8941
5050,8947
5049,8948
5049,8949
5046,8952
5043,8958
5039,8966
5035,8976
5032,8986
5031,8990
5030,8992
5030,8996
5029,9006
5029,9016
5030,9021
5030,9022
5031,9027
5034,9037
5038,9048
5042,9056
5045,9062
5048,9065
5048,9066
5049,9067
5055,9073
5063,9082
5069,9088
5070,9089
5071,9089
5074,9092
5079,9095
5087,9099
5097,9103
5107,9106
5111,9107
5113,9107
5118,9107
5128,9108
5138,9108
5142,9108
5144,9107
5148,9107
5158,9104
5169,9100
5177,9096
5183,9093
5186,9090
5187,9090
" style="stroke:#ffffff;stroke-width:0;
stroke-linejoin:bevel; stroke-linecap:butt;
fill:#ffffff;
"/>
<!-- Line -->
<!--  polyline  -->
<polyline points="5057,8565
5110,8561
5100,8576
5086,8573
5028,8596
5014,8592
5070,8571
5057,8565
5057,8565
" style="stroke:#000000;stroke-width:0;
stroke-linejoin:miter; stroke-linecap:butt;
fill:#000000;
"/>
<!-- Line -->
<!--  polyline  -->
<polyline points="5284,8566
5238,8559
5243,8576
5255,8574
5297,8593
5311,8589
5270,8572
5284,8566
5284,8566
" style="stroke:#000000;stroke-width:0;
stroke-linejoin:miter; stroke-linecap:butt;
fill:#000000;
"/>
<!-- Line -->
<!--  polyline  -->
<polyline points="5204,8518
5180,8517
5256,8500
5288,8523
5264,8521
5259,8521
5219,8547
5163,8547
5207,8518
5204,8518
5204,8518
" style="stroke:#000000;stroke-width:0;
stroke-linejoin:miter; stroke-linecap:butt;
fill:#000000;
"/>
<!-- Line -->
<!--  polyline  -->
<polyline points="5156,8580
5140,8580
5182,8557
5185,8580
5168,8580
5170,8580
5149,8600
5134,8600
5155,8580
5156,8580
5156,8580
" style="stroke:#000000;stroke-width:0;
stroke-linejoin:miter; stroke-linecap:butt;
fill:#000000;
"/>
<!-- Line -->
<!--  polyline  -->
<polyline points="5055,8564
5108,8559
5098,8574
5084,8572
5026,8594
5012,8590
5068,8569
5055,8564
5055,8564
" style="stroke:#ffffff;stroke-width:0;
stroke-linejoin:miter; stroke-linecap:butt;
fill:#ffffff;
"/>
<!-- Line -->
<!--  polyline  -->
<polyline points="5282,8565
5236,8557
5241,8574
5253,8573
5295,8591
5309,8588
5268,8570
5282,8565
5282,8565
" style="stroke:#ffffff;stroke-width:0;
stroke-linejoin:miter; stroke-linecap:butt;
fill:#ffffff;
"/>
<!-- Line -->
<!--  polyline  -->
<polyline points="5202,8517
5179,8515
5254,8498
5286,8521
5262,8519
5257,8519
5217,8545
5161,8545
5205,8517
5202,8517
5202,8517
" style="stroke:#ffffff;stroke-width:0;
stroke-linejoin:miter; stroke-linecap:butt;
fill:#ffffff;
"/>
<!-- Line -->
<!--  polyline  -->
<polyline points="5154,8578
5138,8578
5180,8555
5184,8578
5166,8578
5168,8578
5147,8598
5132,8598
5153,8578
5154,8578
5154,8578
" style="stroke:#ffffff;stroke-width:0;
stroke-linejoin:miter; stroke-linecap:butt;
fill:#ffffff;
"/>
</g>
</svg>
