<?xml version="1.0" standalone="no"?>
<!DOCTYPE svg PUBLIC "-//W3C//DTD SVG 1.1//EN"
"http://www.w3.org/Graphics/SVG/1.1/DTD/svg11.dtd">
<!-- Creator: fig2dev Version 3.2 Patchlevel 5c -->
<!-- CreationDate: Fri Sep 14 10:46:59 2012 -->
<!-- Magnification: 1.000 -->
<svg xmlns="http://www.w3.org/2000/svg" width="0.7in" height="0.4in" viewBox="4699 6364 820 466">
<g style="stroke-width:.025in; fill:none">
<!-- Line -->
<!--  polyline  -->
<polyline points="4711,6570
4952,6376
5507,6376
5308,6570
4711,6570
" style="stroke:#00afda;stroke-width:0;
stroke-linejoin:miter; stroke-linecap:butt;
fill:#00afda;
"/>
<!-- Line -->
<!--  polyline  -->
<polyline points="4711,6570
4952,6376
5507,6376
5308,6570
4711,6570
" style="stroke:#ffffff;stroke-width:7;
stroke-linejoin:miter; stroke-linecap:butt;
"/>
<!-- Line -->
<!--  polyline  -->
<polyline points="5308,6818
5507,6616
5507,6376
5308,6570
5308,6818
" style="stroke:#00afda;stroke-width:0;
stroke-linejoin:miter; stroke-linecap:butt;
fill:#00afda;
"/>
<!-- Line -->
<!--  polyline  -->
<polyline points="5308,6818
5507,6616
5507,6376
5308,6570
5308,6818
" style="stroke:#ffffff;stroke-width:7;
stroke-linejoin:miter; stroke-linecap:butt;
"/>
<!-- Line -->
<!--  polyline  -->
<polyline points="5308,6818
5308,6570
4712,6570
4712,6818
5308,6818
" style="stroke:#00afda;stroke-width:0;
stroke-linejoin:miter; stroke-linecap:butt;
fill:#00afda;
"/>
<!-- Line -->
<!--  polyline  -->
<polyline points="5308,6818
5308,6570
4712,6570
4712,6818
5308,6818
" style="stroke:#ffffff;stroke-width:7;
stroke-linejoin:miter; stroke-linecap:butt;
"/>
<!-- Line -->
<!--  polyline  -->
<polyline points="4892,6499
4966,6492
4956,6523
4933,6512
4852,6547
4832,6542
4911,6507
4892,6499
" style="stroke:#ffffff;stroke-width:0;
stroke-linejoin:miter; stroke-linecap:butt;
fill:#ffffff;
"/>
<!-- Line -->
<!--  polyline  -->
<polyline points="5210,6501
5145,6490
5148,6524
5170,6513
5228,6543
5248,6538
5191,6509
5210,6501
" style="stroke:#ffffff;stroke-width:0;
stroke-linejoin:miter; stroke-linecap:butt;
fill:#ffffff;
"/>
<!-- Line -->
<!--  spline  -->
<polyline points="5274,6701
5274,6702
5273,6704
5271,6708
5270,6710
5270,6711
5270,6712
5268,6714
5266,6719
5262,6724
5257,6731
5251,6737
5249,6739
5248,6741
5245,6743
5238,6745
5233,6746
5229,6746
5228,6746
5227,6747
5226,6747
5224,6746
5220,6744
5214,6740
5206,6732
5199,6723
5194,6714
5190,6706
5187,6702
5187,6701
5186,6700
5182,6693
5173,6681
5165,6670
5161,6663
5160,6662
5159,6662
5156,6660
5151,6658
5144,6657
5136,6657
5129,6659
5126,6661
5125,6663
5123,6665
5117,6671
5112,6677
5110,6680
5109,6682
5107,6685
5104,6691
5101,6696
5100,6699
5100,6700
5100,6701
5100,6702
5098,6704
5097,6708
5095,6710
5095,6711
5095,6712
5094,6714
5091,6718
5088,6724
5083,6730
5078,6735
5076,6738
5074,6740
5073,6741
5070,6743
5064,6745
5059,6746
5055,6746
5054,6747
5053,6747
5052,6747
5050,6747
5046,6744
5040,6740
5032,6732
5025,6723
5019,6714
5015,6706
5012,6702
5012,6701
5011,6700
5007,6693
4998,6681
4990,6669
4986,6662
4985,6661
4984,6661
4981,6659
4976,6657
4969,6656
4961,6657
4954,6660
4951,6662
4950,6663
4947,6666
4942,6672
4937,6678
4935,6681
4935,6683
4933,6686
4930,6691
4927,6696
4926,6698
4925,6700
4925,6701
4925,6702
4924,6704
4922,6708
4921,6710
4921,6711
4921,6712
4919,6714
4917,6719
4913,6724
4908,6731
4902,6737
4900,6739
4899,6741
4896,6743
4889,6745
4884,6746
4881,6746
4879,6746
4878,6747
4877,6747
4876,6746
4872,6744
4866,6740
4858,6732
4851,6723
4845,6714
4841,6706
4838,6702
4838,6701
4837,6700
4833,6693
4824,6681
4816,6670
4812,6663
4811,6662
4810,6662
4807,6660
4802,6658
4795,6657
4787,6657
4780,6659
4777,6661
4776,6663
4773,6665
4768,6671
4763,6677
4761,6680
4761,6682
4759,6685
4756,6691
4753,6696
4752,6699
4751,6700
4751,6701
" style="stroke:#ffffff;stroke-width:7;
stroke-linejoin:bevel; stroke-linecap:round;
"/>
<!-- Line -->
<!--  spline  -->
<polyline points="4751,6701
4751,6702
4753,6704
4754,6708
4756,6710
4756,6711
4756,6712
4757,6714
4760,6719
4763,6724
4768,6731
4773,6737
4776,6739
4777,6741
4780,6743
4787,6745
4792,6746
4796,6746
4797,6746
4798,6747
4799,6747
4801,6746
4805,6744
4811,6740
4819,6732
4826,6723
4831,6714
4835,6706
4838,6702
4838,6701
4839,6700
4843,6693
4852,6681
4861,6670
4865,6663
4866,6662
4867,6662
4870,6660
4875,6658
4882,6657
4890,6657
4897,6659
4900,6661
4901,6663
4904,6665
4909,6671
4914,6677
4916,6680
4916,6682
4918,6685
4921,6691
4924,6696
4925,6699
4926,6700
4926,6701
4926,6702
4927,6704
4929,6708
4930,6710
4930,6711
4930,6712
4932,6714
4934,6718
4938,6724
4943,6730
4949,6736
4951,6739
4952,6740
4955,6742
4962,6745
4967,6746
4971,6746
4972,6747
4973,6747
4974,6747
4976,6747
4980,6744
4986,6740
4994,6732
5001,6723
5006,6714
5010,6706
5013,6702
5013,6701
5014,6700
5018,6693
5027,6681
5035,6669
5039,6662
5040,6661
5041,6661
5044,6659
5049,6657
5056,6656
5064,6657
5071,6660
5074,6662
5075,6663
5077,6666
5083,6672
5088,6678
5090,6681
5091,6683
5093,6686
5096,6691
5099,6696
5100,6698
5100,6700
5100,6701
5100,6702
5101,6704
5103,6708
5104,6710
5104,6711
5104,6712
5106,6714
5108,6719
5112,6724
5117,6731
5123,6737
5125,6739
5126,6741
5129,6743
5136,6745
5141,6746
5145,6746
5146,6746
5147,6747
5148,6747
5150,6746
5154,6744
5160,6740
5168,6732
5175,6723
5180,6714
5184,6706
5187,6702
5187,6701
5188,6700
5192,6693
5201,6681
5210,6670
5214,6663
5215,6662
5216,6662
5219,6660
5224,6658
5230,6657
5238,6657
5245,6659
5248,6661
5249,6663
5251,6665
5257,6671
5262,6677
5264,6680
5265,6682
5267,6685
5270,6691
5273,6696
5274,6699
5274,6700
5274,6701
" style="stroke:#ffffff;stroke-width:15;
stroke-linejoin:bevel; stroke-linecap:round;
"/>
<!-- Line -->
<!--  spline  -->
<polyline points="5284,6701
5284,6702
5282,6704
5281,6708
5279,6710
5279,6711
5279,6712
5278,6714
5275,6719
5272,6724
5267,6731
5262,6737
5259,6739
5258,6741
5255,6743
5248,6745
5243,6746
5239,6746
5238,6746
5237,6747
5236,6747
5234,6746
5230,6744
5224,6740
5216,6732
5209,6723
5203,6714
5199,6706
5196,6702
5196,6701
5195,6700
5191,6693
5182,6681
5174,6670
5170,6663
5169,6662
5168,6662
5165,6660
5160,6658
5153,6657
5145,6657
5138,6659
5135,6661
5134,6663
5132,6665
5126,6671
5121,6677
5119,6680
5118,6682
5116,6685
5113,6691
5110,6696
5109,6699
5109,6700
5109,6701
5109,6702
5107,6704
5106,6708
5104,6710
5104,6711
5104,6712
5103,6714
5100,6718
5097,6724
5092,6730
5087,6735
5085,6738
5083,6740
5082,6741
5079,6743
5073,6745
5068,6746
5064,6746
5063,6747
5062,6747
5061,6747
5059,6747
5055,6744
5049,6740
5041,6732
5034,6723
5029,6714
5025,6706
5022,6702
5022,6701
5021,6700
5017,6693
5008,6681
4999,6669
4995,6662
4994,6661
4993,6661
4990,6659
4985,6657
4978,6656
4970,6657
4963,6660
4960,6662
4959,6663
4956,6666
4951,6672
4946,6678
4944,6681
4943,6683
4942,6686
4939,6691
4937,6696
4936,6698
4935,6700
4935,6701
4935,6702
4933,6704
4932,6708
4930,6710
4930,6711
4930,6712
4929,6714
4926,6719
4923,6724
4918,6731
4913,6737
4910,6739
4909,6741
4906,6743
4899,6745
4894,6746
4890,6746
4889,6746
4888,6747
4887,6747
4885,6746
4881,6744
4875,6740
4867,6732
4860,6723
4854,6714
4850,6706
4847,6702
4847,6701
4846,6700
4842,6693
4833,6681
4825,6670
4821,6663
4820,6662
4819,6662
4816,6660
4811,6658
4804,6657
4796,6657
4789,6659
4786,6661
4785,6663
4782,6665
4777,6671
4772,6677
4770,6680
4770,6682
4768,6685
4765,6691
4762,6696
4761,6699
4760,6700
4760,6701
" style="stroke:#000000;stroke-width:7;
stroke-linejoin:bevel; stroke-linecap:round;
"/>
<!-- Line -->
<!--  spline  -->
<polyline points="4760,6701
4760,6702
4762,6704
4763,6708
4765,6710
4765,6711
4765,6712
4766,6714
4769,6719
4772,6724
4777,6731
4782,6737
4785,6739
4786,6741
4789,6743
4796,6745
4801,6746
4805,6746
4806,6746
4807,6747
4808,6747
4810,6746
4814,6744
4820,6740
4828,6732
4835,6723
4841,6714
4845,6706
4848,6702
4848,6701
4849,6700
4853,6693
4862,6681
4870,6670
4874,6663
4875,6662
4876,6662
4879,6660
4884,6658
4891,6657
4899,6657
4906,6659
4909,6661
4910,6663
4913,6665
4918,6671
4923,6677
4925,6680
4925,6682
4927,6685
4930,6691
4933,6696
4934,6699
4935,6700
4935,6701
4935,6702
4936,6704
4938,6708
4939,6710
4939,6711
4939,6712
4941,6714
4943,6718
4947,6724
4952,6730
4958,6736
4960,6739
4961,6740
4964,6742
4971,6745
4976,6746
4980,6746
4981,6747
4982,6747
4983,6747
4985,6747
4989,6744
4995,6740
5003,6732
5010,6723
5015,6714
5019,6706
5022,6702
5022,6701
5023,6700
5027,6693
5036,6681
5044,6669
5048,6662
5049,6661
5050,6661
5053,6659
5058,6657
5065,6656
5073,6657
5080,6660
5083,6662
5084,6663
5086,6666
5092,6672
5097,6678
5099,6681
5100,6683
5102,6686
5105,6691
5108,6696
5109,6698
5109,6700
5109,6701
5109,6702
5111,6704
5112,6708
5114,6710
5114,6711
5114,6712
5115,6714
5118,6719
5121,6724
5126,6731
5131,6737
5134,6739
5135,6741
5138,6743
5145,6745
5150,6746
5154,6746
5155,6746
5156,6747
5157,6747
5159,6746
5163,6744
5169,6740
5177,6732
5184,6723
5189,6714
5193,6706
5196,6702
5196,6701
5197,6700
5201,6693
5210,6681
5219,6670
5223,6663
5224,6662
5225,6662
5228,6660
5233,6658
5240,6657
5248,6657
5255,6659
5258,6661
5259,6663
5262,6665
5267,6671
5272,6677
5274,6680
5274,6682
5276,6685
5279,6691
5282,6696
5283,6699
5284,6700
5284,6701
" style="stroke:#000000;stroke-width:15;
stroke-linejoin:bevel; stroke-linecap:round;
"/>
<!-- Line -->
<!--  spline  -->
<polyline points="5274,6701
5274,6702
5273,6704
5271,6708
5270,6710
5270,6711
5270,6712
5268,6714
5266,6719
5262,6724
5257,6731
5251,6737
5249,6739
5248,6741
5245,6743
5238,6745
5233,6746
5229,6746
5228,6746
5227,6747
5226,6747
5224,6746
5220,6744
5214,6740
5206,6732
5199,6723
5194,6714
5190,6706
5187,6702
5187,6701
5186,6700
5182,6693
5173,6681
5165,6670
5161,6663
5160,6662
5159,6662
5156,6660
5151,6658
5144,6657
5136,6657
5129,6659
5126,6661
5125,6663
5123,6665
5117,6671
5112,6677
5110,6680
5109,6682
5107,6685
5104,6691
5101,6696
5100,6699
5100,6700
5100,6701
5100,6702
5098,6704
5097,6708
5095,6710
5095,6711
5095,6712
5094,6714
5091,6718
5088,6724
5083,6730
5078,6735
5076,6738
5074,6740
5073,6741
5070,6743
5064,6745
5059,6746
5055,6746
5054,6747
5053,6747
5052,6747
5050,6747
5046,6744
5040,6740
5032,6732
5025,6723
5019,6714
5015,6706
5012,6702
5012,6701
5011,6700
5007,6693
4998,6681
4990,6669
4986,6662
4985,6661
4984,6661
4981,6659
4976,6657
4969,6656
4961,6657
4954,6660
4951,6662
4950,6663
4947,6666
4942,6672
4937,6678
4935,6681
4935,6683
4933,6686
4930,6691
4927,6696
4926,6698
4925,6700
4925,6701
4925,6702
4924,6704
4922,6708
4921,6710
4921,6711
4921,6712
4919,6714
4917,6719
4913,6724
4908,6731
4902,6737
4900,6739
4899,6741
4896,6743
4889,6745
4884,6746
4881,6746
4879,6746
4878,6747
4877,6747
4876,6746
4872,6744
4866,6740
4858,6732
4851,6723
4845,6714
4841,6706
4838,6702
4838,6701
4837,6700
4833,6693
4824,6681
4816,6670
4812,6663
4811,6662
4810,6662
4807,6660
4802,6658
4795,6657
4787,6657
4780,6659
4777,6661
4776,6663
4773,6665
4768,6671
4763,6677
4761,6680
4761,6682
4759,6685
4756,6691
4753,6696
4752,6699
4751,6700
4751,6701
" style="stroke:#ffffff;stroke-width:7;
stroke-linejoin:bevel; stroke-linecap:round;
"/>
<!-- Line -->
<!--  spline  -->
<polyline points="4751,6701
4751,6702
4753,6704
4754,6708
4756,6710
4756,6711
4756,6712
4757,6714
4760,6719
4763,6724
4768,6731
4773,6737
4776,6739
4777,6741
4780,6743
4787,6745
4792,6746
4796,6746
4797,6746
4798,6747
4799,6747
4801,6746
4805,6744
4811,6740
4819,6732
4826,6723
4831,6714
4835,6706
4838,6702
4838,6701
4839,6700
4843,6693
4852,6681
4861,6670
4865,6663
4866,6662
4867,6662
4870,6660
4875,6658
4882,6657
4890,6657
4897,6659
4900,6661
4901,6663
4904,6665
4909,6671
4914,6677
4916,6680
4916,6682
4918,6685
4921,6691
4924,6696
4925,6699
4926,6700
4926,6701
4926,6702
4927,6704
4929,6708
4930,6710
4930,6711
4930,6712
4932,6714
4934,6718
4938,6724
4943,6730
4949,6736
4951,6739
4952,6740
4955,6742
4962,6745
4967,6746
4971,6746
4972,6747
4973,6747
4974,6747
4976,6747
4980,6744
4986,6740
4994,6732
5001,6723
5006,6714
5010,6706
5013,6702
5013,6701
5014,6700
5018,6693
5027,6681
5035,6669
5039,6662
5040,6661
5041,6661
5044,6659
5049,6657
5056,6656
5064,6657
5071,6660
5074,6662
5075,6663
5077,6666
5083,6672
5088,6678
5090,6681
5091,6683
5093,6686
5096,6691
5099,6696
5100,6698
5100,6700
5100,6701
5100,6702
5101,6704
5103,6708
5104,6710
5104,6711
5104,6712
5106,6714
5108,6719
5112,6724
5117,6731
5123,6737
5125,6739
5126,6741
5129,6743
5136,6745
5141,6746
5145,6746
5146,6746
5147,6747
5148,6747
5150,6746
5154,6744
5160,6740
5168,6732
5175,6723
5180,6714
5184,6706
5187,6702
5187,6701
5188,6700
5192,6693
5201,6681
5210,6670
5214,6663
5215,6662
5216,6662
5219,6660
5224,6658
5230,6657
5238,6657
5245,6659
5248,6661
5249,6663
5251,6665
5257,6671
5262,6677
5264,6680
5265,6682
5267,6685
5270,6691
5273,6696
5274,6699
5274,6700
5274,6701
" style="stroke:#ffffff;stroke-width:15;
stroke-linejoin:bevel; stroke-linecap:round;
"/>
<!-- Line -->
<!--  spline  -->
<polyline points="5284,6701
5284,6702
5282,6704
5281,6708
5279,6710
5279,6711
5279,6712
5278,6714
5275,6719
5272,6724
5267,6731
5262,6737
5259,6739
5258,6741
5255,6743
5248,6745
5243,6746
5239,6746
5238,6746
5237,6747
5236,6747
5234,6746
5230,6744
5224,6740
5216,6732
5209,6723
5203,6714
5199,6706
5196,6702
5196,6701
5195,6700
5191,6693
5182,6681
5174,6670
5170,6663
5169,6662
5168,6662
5165,6660
5160,6658
5153,6657
5145,6657
5138,6659
5135,6661
5134,6663
5132,6665
5126,6671
5121,6677
5119,6680
5118,6682
5116,6685
5113,6691
5110,6696
5109,6699
5109,6700
5109,6701
5109,6702
5107,6704
5106,6708
5104,6710
5104,6711
5104,6712
5103,6714
5100,6718
5097,6724
5092,6730
5087,6735
5085,6738
5083,6740
5082,6741
5079,6743
5073,6745
5068,6746
5064,6746
5063,6747
5062,6747
5061,6747
5059,6747
5055,6744
5049,6740
5041,6732
5034,6723
5029,6714
5025,6706
5022,6702
5022,6701
5021,6700
5017,6693
5008,6681
4999,6669
4995,6662
4994,6661
4993,6661
4990,6659
4985,6657
4978,6656
4970,6657
4963,6660
4960,6662
4959,6663
4956,6666
4951,6672
4946,6678
4944,6681
4943,6683
4942,6686
4939,6691
4937,6696
4936,6698
4935,6700
4935,6701
4935,6702
4933,6704
4932,6708
4930,6710
4930,6711
4930,6712
4929,6714
4926,6719
4923,6724
4918,6731
4913,6737
4910,6739
4909,6741
4906,6743
4899,6745
4894,6746
4890,6746
4889,6746
4888,6747
4887,6747
4885,6746
4881,6744
4875,6740
4867,6732
4860,6723
4854,6714
4850,6706
4847,6702
4847,6701
4846,6700
4842,6693
4833,6681
4825,6670
4821,6663
4820,6662
4819,6662
4816,6660
4811,6658
4804,6657
4796,6657
4789,6659
4786,6661
4785,6663
4782,6665
4777,6671
4772,6677
4770,6680
4770,6682
4768,6685
4765,6691
4762,6696
4761,6699
4760,6700
4760,6701
" style="stroke:#000000;stroke-width:7;
stroke-linejoin:bevel; stroke-linecap:round;
"/>
<!-- Line -->
<!--  spline  -->
<polyline points="4760,6701
4760,6702
4762,6704
4763,6708
4765,6710
4765,6711
4765,6712
4766,6714
4769,6719
4772,6724
4777,6731
4782,6737
4785,6739
4786,6741
4789,6743
4796,6745
4801,6746
4805,6746
4806,6746
4807,6747
4808,6747
4810,6746
4814,6744
4820,6740
4828,6732
4835,6723
4841,6714
4845,6706
4848,6702
4848,6701
4849,6700
4853,6693
4862,6681
4870,6670
4874,6663
4875,6662
4876,6662
4879,6660
4884,6658
4891,6657
4899,6657
4906,6659
4909,6661
4910,6663
4913,6665
4918,6671
4923,6677
4925,6680
4925,6682
4927,6685
4930,6691
4933,6696
4934,6699
4935,6700
4935,6701
4935,6702
4936,6704
4938,6708
4939,6710
4939,6711
4939,6712
4941,6714
4943,6718
4947,6724
4952,6730
4958,6736
4960,6739
4961,6740
4964,6742
4971,6745
4976,6746
4980,6746
4981,6747
4982,6747
4983,6747
4985,6747
4989,6744
4995,6740
5003,6732
5010,6723
5015,6714
5019,6706
5022,6702
5022,6701
5023,6700
5027,6693
5036,6681
5044,6669
5048,6662
5049,6661
5050,6661
5053,6659
5058,6657
5065,6656
5073,6657
5080,6660
5083,6662
5084,6663
5086,6666
5092,6672
5097,6678
5099,6681
5100,6683
5102,6686
5105,6691
5108,6696
5109,6698
5109,6700
5109,6701
5109,6702
5111,6704
5112,6708
5114,6710
5114,6711
5114,6712
5115,6714
5118,6719
5121,6724
5126,6731
5131,6737
5134,6739
5135,6741
5138,6743
5145,6745
5150,6746
5154,6746
5155,6746
5156,6747
5157,6747
5159,6746
5163,6744
5169,6740
5177,6732
5184,6723
5189,6714
5193,6706
5196,6702
5196,6701
5197,6700
5201,6693
5210,6681
5219,6670
5223,6663
5224,6662
5225,6662
5228,6660
5233,6658
5240,6657
5248,6657
5255,6659
5258,6661
5259,6663
5262,6665
5267,6671
5272,6677
5274,6680
5274,6682
5276,6685
5279,6691
5282,6696
5283,6699
5284,6700
5284,6701
" style="stroke:#000000;stroke-width:15;
stroke-linejoin:bevel; stroke-linecap:round;
"/>
<!-- Line -->
<!--  spline  -->
<polyline points="5274,6701
5274,6702
5273,6704
5271,6708
5270,6710
5270,6711
5270,6712
5268,6714
5266,6719
5262,6724
5257,6731
5251,6737
5249,6739
5248,6741
5245,6743
5238,6745
5233,6746
5229,6746
5228,6746
5227,6747
5226,6747
5224,6746
5220,6744
5214,6740
5206,6732
5199,6723
5194,6714
5190,6706
5187,6702
5187,6701
5186,6700
5182,6693
5173,6681
5165,6670
5161,6663
5160,6662
5159,6662
5156,6660
5151,6658
5144,6657
5136,6657
5129,6659
5126,6661
5125,6663
5123,6665
5117,6671
5112,6677
5110,6680
5109,6682
5107,6685
5104,6691
5101,6696
5100,6699
5100,6700
5100,6701
5100,6702
5098,6704
5097,6708
5095,6710
5095,6711
5095,6712
5094,6714
5091,6718
5088,6724
5083,6730
5078,6735
5076,6738
5074,6740
5073,6741
5070,6743
5064,6745
5059,6746
5055,6746
5054,6747
5053,6747
5052,6747
5050,6747
5046,6744
5040,6740
5032,6732
5025,6723
5019,6714
5015,6706
5012,6702
5012,6701
5011,6700
5007,6693
4998,6681
4990,6669
4986,6662
4985,6661
4984,6661
4981,6659
4976,6657
4969,6656
4961,6657
4954,6660
4951,6662
4950,6663
4947,6666
4942,6672
4937,6678
4935,6681
4935,6683
4933,6686
4930,6691
4927,6696
4926,6698
4925,6700
4925,6701
4925,6702
4924,6704
4922,6708
4921,6710
4921,6711
4921,6712
4919,6714
4917,6719
4913,6724
4908,6731
4902,6737
4900,6739
4899,6741
4896,6743
4889,6745
4884,6746
4881,6746
4879,6746
4878,6747
4877,6747
4876,6746
4872,6744
4866,6740
4858,6732
4851,6723
4845,6714
4841,6706
4838,6702
4838,6701
4837,6700
4833,6693
4824,6681
4816,6670
4812,6663
4811,6662
4810,6662
4807,6660
4802,6658
4795,6657
4787,6657
4780,6659
4777,6661
4776,6663
4773,6665
4768,6671
4763,6677
4761,6680
4761,6682
4759,6685
4756,6691
4753,6696
4752,6699
4751,6700
4751,6701
" style="stroke:#ffffff;stroke-width:7;
stroke-linejoin:bevel; stroke-linecap:round;
"/>
<!-- Line -->
<!--  spline  -->
<polyline points="4751,6701
4751,6702
4753,6704
4754,6708
4756,6710
4756,6711
4756,6712
4757,6714
4760,6719
4763,6724
4768,6731
4773,6737
4776,6739
4777,6741
4780,6743
4787,6745
4792,6746
4796,6746
4797,6746
4798,6747
4799,6747
4801,6746
4805,6744
4811,6740
4819,6732
4826,6723
4831,6714
4835,6706
4838,6702
4838,6701
4839,6700
4843,6693
4852,6681
4861,6670
4865,6663
4866,6662
4867,6662
4870,6660
4875,6658
4882,6657
4890,6657
4897,6659
4900,6661
4901,6663
4904,6665
4909,6671
4914,6677
4916,6680
4916,6682
4918,6685
4921,6691
4924,6696
4925,6699
4926,6700
4926,6701
4926,6702
4927,6704
4929,6708
4930,6710
4930,6711
4930,6712
4932,6714
4934,6718
4938,6724
4943,6730
4949,6736
4951,6739
4952,6740
4955,6742
4962,6745
4967,6746
4971,6746
4972,6747
4973,6747
4974,6747
4976,6747
4980,6744
4986,6740
4994,6732
5001,6723
5006,6714
5010,6706
5013,6702
5013,6701
5014,6700
5018,6693
5027,6681
5035,6669
5039,6662
5040,6661
5041,6661
5044,6659
5049,6657
5056,6656
5064,6657
5071,6660
5074,6662
5075,6663
5077,6666
5083,6672
5088,6678
5090,6681
5091,6683
5093,6686
5096,6691
5099,6696
5100,6698
5100,6700
5100,6701
5100,6702
5101,6704
5103,6708
5104,6710
5104,6711
5104,6712
5106,6714
5108,6719
5112,6724
5117,6731
5123,6737
5125,6739
5126,6741
5129,6743
5136,6745
5141,6746
5145,6746
5146,6746
5147,6747
5148,6747
5150,6746
5154,6744
5160,6740
5168,6732
5175,6723
5180,6714
5184,6706
5187,6702
5187,6701
5188,6700
5192,6693
5201,6681
5210,6670
5214,6663
5215,6662
5216,6662
5219,6660
5224,6658
5230,6657
5238,6657
5245,6659
5248,6661
5249,6663
5251,6665
5257,6671
5262,6677
5264,6680
5265,6682
5267,6685
5270,6691
5273,6696
5274,6699
5274,6700
5274,6701
" style="stroke:#ffffff;stroke-width:15;
stroke-linejoin:bevel; stroke-linecap:round;
"/>
<!-- Line -->
<!--  polyline  -->
<polyline points="5097,6424
5065,6422
5170,6395
5216,6431
5182,6429
5175,6429
5119,6469
5042,6470
5102,6425
5097,6424
" style="stroke:#ffffff;stroke-width:0;
stroke-linejoin:miter; stroke-linecap:butt;
fill:#ffffff;
"/>
<!-- Line -->
<!--  polyline  -->
<polyline points="5032,6522
5009,6521
5068,6485
5072,6522
5048,6522
5052,6522
5022,6554
5000,6554
5030,6522
5032,6522
" style="stroke:#ffffff;stroke-width:0;
stroke-linejoin:miter; stroke-linecap:butt;
fill:#ffffff;
"/>
</g>
</svg>
