<?xml version="1.0" standalone="no"?>
<!DOCTYPE svg PUBLIC "-//W3C//DTD SVG 1.1//EN"
"http://www.w3.org/Graphics/SVG/1.1/DTD/svg11.dtd">
<!-- Creator: fig2dev Version 3.2 Patchlevel 5c -->
<!-- CreationDate: Fri Sep 14 10:46:59 2012 -->
<!-- Magnification: 1.000 -->
<svg xmlns="http://www.w3.org/2000/svg" width="0.5in" height="0.5in" viewBox="-6 12649 650 555">
<g style="stroke-width:.025in; fill:none">
<!-- Line -->
<!--  polyline  -->
<polyline points="521,12964
473,13028
75,13028
140,12962
521,12964
" style="stroke:#000000;stroke-width:0;
stroke-linejoin:miter; stroke-linecap:butt;
fill:#000000;
"/>
<!-- Line -->
<!--  polyline  -->
<polyline points="521,12964
473,13028
75,13028
140,12962
521,12964
" style="stroke:#ffffff;stroke-width:7;
stroke-linejoin:miter; stroke-linecap:butt;
"/>
<!-- Line -->
<!--  polyline  -->
<polyline points="74,13100
74,13028
456,13028
456,13100
74,13100
" style="stroke:#036998;stroke-width:0;
stroke-linejoin:miter; stroke-linecap:butt;
fill:#036998;
"/>
<!-- Line -->
<!--  polyline  -->
<polyline points="74,13100
74,13028
456,13028
456,13100
74,13100
" style="stroke:#ffffff;stroke-width:7;
stroke-linejoin:miter; stroke-linecap:butt;
"/>
<!-- Line -->
<!--  polyline  -->
<polyline points="73,12726
453,12726
453,13012
73,13012
73,12726
" style="stroke:#036998;stroke-width:0;
stroke-linejoin:miter; stroke-linecap:butt;
fill:#036998;
"/>
<!-- Line -->
<!--  polyline  -->
<polyline points="73,12726
453,12726
453,13012
73,13012
73,12726
" style="stroke:#ffffff;stroke-width:7;
stroke-linejoin:miter; stroke-linecap:butt;
"/>
<!-- Line -->
<!--  polyline  -->
<polyline points="453,13012
518,12947
518,12661
453,12726
453,13012
" style="stroke:#036998;stroke-width:0;
stroke-linejoin:miter; stroke-linecap:butt;
fill:#036998;
"/>
<!-- Line -->
<!--  polyline  -->
<polyline points="453,13012
518,12947
518,12661
453,12726
453,13012
" style="stroke:#ffffff;stroke-width:7;
stroke-linejoin:miter; stroke-linecap:butt;
"/>
<!-- Line -->
<!--  polyline  -->
<polyline points="597,13162
626,13104
559,13104
530,13162
597,13162
" style="stroke:#036998;stroke-width:0;
stroke-linejoin:miter; stroke-linecap:butt;
fill:#036998;
"/>
<!-- Line -->
<!--  polyline  -->
<polyline points="597,13162
626,13104
559,13104
530,13162
597,13162
" style="stroke:#ffffff;stroke-width:7;
stroke-linejoin:miter; stroke-linecap:butt;
"/>
<!-- Line -->
<!--  polyline  -->
<polyline points="530,13162
597,13162
597,13181
530,13181
530,13162
" style="stroke:#036998;stroke-width:0;
stroke-linejoin:miter; stroke-linecap:butt;
fill:#036998;
"/>
<!-- Line -->
<!--  polyline  -->
<polyline points="530,13162
597,13162
597,13181
530,13181
530,13162
" style="stroke:#ffffff;stroke-width:7;
stroke-linejoin:miter; stroke-linecap:butt;
"/>
<!-- Line -->
<!--  polyline  -->
<polyline points="596,13181
596,13162
625,13104
625,13144
596,13181
" style="stroke:#036998;stroke-width:0;
stroke-linejoin:miter; stroke-linecap:butt;
fill:#036998;
"/>
<!-- Line -->
<!--  polyline  -->
<polyline points="596,13181
596,13162
625,13104
625,13144
596,13181
" style="stroke:#ffffff;stroke-width:7;
stroke-linejoin:miter; stroke-linecap:butt;
"/>
<!-- Line -->
<!--  polyline  -->
<polyline points="455,13100
455,13029
520,12964
520,13035
455,13100
" style="stroke:#036998;stroke-width:0;
stroke-linejoin:miter; stroke-linecap:butt;
fill:#036998;
"/>
<!-- Line -->
<!--  polyline  -->
<polyline points="455,13100
455,13029
520,12964
520,13035
455,13100
" style="stroke:#ffffff;stroke-width:7;
stroke-linejoin:miter; stroke-linecap:butt;
"/>
<!-- Line -->
<!--  spline  -->
<polyline points="136,12759
137,12759
141,12759
151,12759
169,12759
195,12759
227,12759
263,12759
299,12759
331,12759
357,12759
375,12759
385,12759
389,12759
390,12759
393,12759
396,12760
399,12760
401,12760
403,12761
405,12762
408,12764
410,12766
411,12767
412,12767
412,12769
414,12771
416,12774
416,12775
417,12776
418,12779
419,12782
420,12785
420,12787
420,12789
420,12790
420,12794
420,12804
420,12820
420,12843
420,12869
420,12895
420,12918
420,12934
420,12944
420,12948
420,12949
420,12950
419,12952
419,12956
418,12958
418,12959
418,12960
417,12962
416,12964
414,12967
412,12969
412,12970
411,12970
410,12971
408,12973
405,12975
404,12976
403,12976
402,12977
399,12978
396,12979
393,12979
391,12979
390,12979
389,12979
385,12979
375,12979
357,12979
331,12979
299,12979
263,12979
227,12979
195,12979
169,12979
151,12979
141,12979
137,12979
136,12979
135,12979
133,12979
129,12978
127,12978
126,12978
125,12977
123,12976
121,12975
118,12973
116,12971
115,12970
114,12969
112,12967
110,12965
109,12964
109,12963
108,12962
107,12959
106,12956
106,12953
106,12951
106,12949
106,12948
106,12944
106,12934
106,12918
106,12895
106,12869
106,12843
106,12820
106,12804
106,12794
106,12790
106,12789
106,12788
106,12786
107,12782
107,12780
107,12779
108,12778
109,12776
110,12774
112,12771
114,12769
115,12767
116,12766
118,12764
120,12762
121,12762
122,12761
123,12761
126,12760
129,12759
132,12759
134,12759
136,12759
" style="stroke:#036998;stroke-width:0;
stroke-linejoin:bevel; stroke-linecap:butt;
fill:#036998;
"/>
<!-- Line -->
<!--  spline  -->
<polyline points="136,12759
137,12759
141,12759
151,12759
169,12759
195,12759
227,12759
263,12759
299,12759
331,12759
357,12759
375,12759
385,12759
389,12759
390,12759
393,12759
396,12760
399,12760
401,12760
403,12761
405,12762
408,12764
410,12766
411,12767
412,12767
412,12769
414,12771
416,12774
416,12775
417,12776
418,12779
419,12782
420,12785
420,12787
420,12789
420,12790
420,12794
420,12804
420,12820
420,12843
420,12869
420,12895
420,12918
420,12934
420,12944
420,12948
420,12949
420,12950
419,12952
419,12956
418,12958
418,12959
418,12960
417,12962
416,12964
414,12967
412,12969
412,12970
411,12970
410,12971
408,12973
405,12975
404,12976
403,12976
402,12977
399,12978
396,12979
393,12979
391,12979
390,12979
389,12979
385,12979
375,12979
357,12979
331,12979
299,12979
263,12979
227,12979
195,12979
169,12979
151,12979
141,12979
137,12979
136,12979
135,12979
133,12979
129,12978
127,12978
126,12978
125,12977
123,12976
121,12975
118,12973
116,12971
115,12970
114,12969
112,12967
110,12965
109,12964
109,12963
108,12962
107,12959
106,12956
106,12953
106,12951
106,12949
106,12948
106,12944
106,12934
106,12918
106,12895
106,12869
106,12843
106,12820
106,12804
106,12794
106,12790
106,12789
106,12788
106,12786
107,12782
107,12780
107,12779
108,12778
109,12776
110,12774
112,12771
114,12769
115,12767
116,12766
118,12764
120,12762
121,12762
122,12761
123,12761
126,12760
129,12759
132,12759
134,12759
136,12759
" style="stroke:#ffffff;stroke-width:7;
stroke-linejoin:bevel; stroke-linecap:butt;
"/>
<!-- Line -->
<!--  polyline  -->
<polyline points="518,12661
148,12661
73,12726
453,12726
518,12661
" style="stroke:#036998;stroke-width:0;
stroke-linejoin:miter; stroke-linecap:butt;
fill:#036998;
"/>
<!-- Line -->
<!--  polyline  -->
<polyline points="518,12661
148,12661
73,12726
453,12726
518,12661
" style="stroke:#ffffff;stroke-width:7;
stroke-linejoin:miter; stroke-linecap:butt;
"/>
<!-- Line -->
<!--  polyline  -->
<polyline points="444,13192
444,13169
494,13100
494,13142
444,13192
" style="stroke:#036998;stroke-width:0;
stroke-linejoin:miter; stroke-linecap:butt;
fill:#036998;
"/>
<!-- Line -->
<!--  polyline  -->
<polyline points="444,13192
444,13169
494,13100
494,13142
444,13192
" style="stroke:#ffffff;stroke-width:7;
stroke-linejoin:miter; stroke-linecap:butt;
"/>
<!-- Line -->
<!--  polyline  -->
<polyline points="444,13169
7,13169
56,13100
494,13100
444,13169
" style="stroke:#036998;stroke-width:0;
stroke-linejoin:miter; stroke-linecap:butt;
fill:#036998;
"/>
<!-- Line -->
<!--  polyline  -->
<polyline points="444,13169
7,13169
56,13100
494,13100
444,13169
" style="stroke:#ffffff;stroke-width:7;
stroke-linejoin:miter; stroke-linecap:butt;
"/>
<!-- Line -->
<!--  polyline  -->
<polyline points="444,13169
444,13192
6,13192
6,13169
444,13169
" style="stroke:#036998;stroke-width:0;
stroke-linejoin:miter; stroke-linecap:butt;
fill:#036998;
"/>
<!-- Line -->
<!--  polyline  -->
<polyline points="444,13169
444,13192
6,13192
6,13169
444,13169
" style="stroke:#ffffff;stroke-width:7;
stroke-linejoin:miter; stroke-linecap:butt;
"/>
<!-- Line -->
<!--  spline  -->
<polyline points="609,13106
610,13105
615,13099
623,13090
628,13084
629,13083
629,13082
630,13078
631,13071
632,13063
629,13052
625,13042
622,13038
621,13036
617,13032
608,13025
599,13020
594,13017
592,13015
589,13015
583,13013
570,13013
555,13015
542,13018
531,13022
522,13025
517,13028
516,13028
" style="stroke:#036998;stroke-width:7;
stroke-linejoin:bevel; stroke-linecap:butt;
"/>
<!-- Line -->
<!--  spline  -->
<polyline points="262,12912
264,12912
272,12911
283,12911
291,12910
293,12910
294,12910
297,12909
303,12908
310,12907
319,12904
327,12901
330,12900
332,12899
335,12898
341,12894
346,12890
349,12889
349,12888
351,12886
354,12882
357,12877
358,12873
359,12870
359,12868
359,12867
357,12864
356,12858
354,12855
354,12854
353,12852
350,12849
347,12846
341,12842
335,12838
332,12837
330,12836
327,12835
319,12832
311,12829
307,12829
306,12828
302,12827
293,12826
282,12825
274,12824
267,12824
263,12824
262,12824
260,12824
252,12825
241,12825
233,12826
231,12826
230,12826
227,12827
220,12828
213,12829
204,12832
196,12835
193,12836
192,12837
189,12838
183,12842
177,12846
175,12847
174,12848
173,12850
169,12854
166,12859
165,12863
164,12866
164,12868
164,12869
166,12872
167,12878
169,12881
169,12882
171,12884
173,12887
177,12890
183,12894
189,12898
192,12899
193,12900
196,12901
204,12904
212,12907
216,12907
217,12908
221,12909
231,12910
242,12911
250,12912
257,12912
261,12912
262,12912
" style="stroke:#ffffff;stroke-width:7;
stroke-linejoin:bevel; stroke-linecap:butt;
"/>
<!-- Line -->
<!--  spline  -->
<polyline points="263,12928
264,12928
271,12927
283,12926
294,12926
301,12925
302,12925
303,12925
308,12924
316,12923
325,12921
337,12917
347,12913
351,12911
353,12910
356,12908
364,12903
371,12898
374,12896
375,12895
377,12893
381,12887
385,12880
387,12875
388,12870
388,12868
388,12867
388,12866
386,12861
383,12854
381,12849
381,12848
379,12845
376,12841
371,12837
364,12831
356,12826
353,12824
351,12823
347,12822
337,12818
326,12815
321,12813
319,12813
314,12812
302,12810
290,12809
281,12808
273,12807
267,12807
264,12807
263,12807
262,12807
255,12808
243,12809
231,12809
224,12810
223,12810
222,12810
217,12811
210,12812
201,12814
189,12818
179,12822
175,12823
173,12824
170,12826
162,12831
155,12836
152,12839
151,12840
149,12842
144,12848
140,12855
138,12860
137,12864
137,12866
137,12867
137,12868
139,12873
142,12881
144,12886
144,12887
146,12890
149,12893
154,12897
162,12903
170,12908
173,12910
175,12911
179,12913
189,12917
200,12920
204,12922
206,12922
211,12923
223,12925
235,12926
244,12927
252,12928
259,12928
262,12928
263,12928
" style="stroke:#ffffff;stroke-width:7;
stroke-linejoin:bevel; stroke-linecap:butt;
"/>
</g>
</svg>
