<?xml version="1.0" standalone="no"?>
<!DOCTYPE svg PUBLIC "-//W3C//DTD SVG 1.1//EN"
"http://www.w3.org/Graphics/SVG/1.1/DTD/svg11.dtd">
<!-- Creator: fig2dev Version 3.2 Patchlevel 5c -->
<!-- CreationDate: Fri Sep 14 10:47:00 2012 -->
<!-- Magnification: 1.000 -->
<svg xmlns="http://www.w3.org/2000/svg" width="0.4in" height="0.5in" viewBox="-6 12649 539 555">
<g style="stroke-width:.025in; fill:none">
<!-- Line -->
<!--  polyline  -->
<polyline points="521,12964
473,13028
75,13028
140,12962
521,12964
" style="stroke:#036998;stroke-width:0;
stroke-linejoin:miter; stroke-linecap:butt;
fill:#036998;
"/>
<!-- Line -->
<!--  polyline  -->
<polyline points="521,12964
473,13028
75,13028
140,12962
521,12964
" style="stroke:#ffffff;stroke-width:7;
stroke-linejoin:miter; stroke-linecap:butt;
"/>
<!-- Line -->
<!--  polyline  -->
<polyline points="74,13100
74,13028
456,13028
456,13100
74,13100
" style="stroke:#036998;stroke-width:0;
stroke-linejoin:miter; stroke-linecap:butt;
fill:#036998;
"/>
<!-- Line -->
<!--  polyline  -->
<polyline points="74,13100
74,13028
456,13028
456,13100
74,13100
" style="stroke:#ffffff;stroke-width:7;
stroke-linejoin:miter; stroke-linecap:butt;
"/>
<!-- Line -->
<!--  polyline  -->
<polyline points="73,12726
453,12726
453,13012
73,13012
73,12726
" style="stroke:#036998;stroke-width:0;
stroke-linejoin:miter; stroke-linecap:butt;
fill:#036998;
"/>
<!-- Line -->
<!--  polyline  -->
<polyline points="73,12726
453,12726
453,13012
73,13012
73,12726
" style="stroke:#ffffff;stroke-width:7;
stroke-linejoin:miter; stroke-linecap:butt;
"/>
<!-- Line -->
<!--  polyline  -->
<polyline points="453,13012
518,12947
518,12661
453,12726
453,13012
" style="stroke:#036998;stroke-width:0;
stroke-linejoin:miter; stroke-linecap:butt;
fill:#036998;
"/>
<!-- Line -->
<!--  polyline  -->
<polyline points="453,13012
518,12947
518,12661
453,12726
453,13012
" style="stroke:#ffffff;stroke-width:7;
stroke-linejoin:miter; stroke-linecap:butt;
"/>
<!-- Line -->
<!--  polyline  -->
<polyline points="455,13100
455,13029
520,12964
520,13035
455,13100
" style="stroke:#036998;stroke-width:0;
stroke-linejoin:miter; stroke-linecap:butt;
fill:#036998;
"/>
<!-- Line -->
<!--  polyline  -->
<polyline points="455,13100
455,13029
520,12964
520,13035
455,13100
" style="stroke:#ffffff;stroke-width:7;
stroke-linejoin:miter; stroke-linecap:butt;
"/>
<!-- Line -->
<!--  spline  -->
<polyline points="136,12759
137,12759
141,12759
151,12759
169,12759
195,12759
227,12759
263,12759
299,12759
331,12759
357,12759
375,12759
385,12759
389,12759
390,12759
393,12759
396,12760
399,12760
401,12760
403,12761
405,12762
408,12764
410,12766
411,12767
412,12767
412,12769
414,12771
416,12774
416,12775
417,12776
418,12779
419,12782
420,12785
420,12787
420,12789
420,12790
420,12794
420,12804
420,12820
420,12843
420,12869
420,12895
420,12918
420,12934
420,12944
420,12948
420,12949
420,12950
419,12952
419,12956
418,12958
418,12959
418,12960
417,12962
416,12964
414,12967
412,12969
412,12970
411,12970
410,12971
408,12973
405,12975
404,12976
403,12976
402,12977
399,12978
396,12979
393,12979
391,12979
390,12979
389,12979
385,12979
375,12979
357,12979
331,12979
299,12979
263,12979
227,12979
195,12979
169,12979
151,12979
141,12979
137,12979
136,12979
135,12979
133,12979
129,12978
127,12978
126,12978
125,12977
123,12976
121,12975
118,12973
116,12971
115,12970
114,12969
112,12967
110,12965
109,12964
109,12963
108,12962
107,12959
106,12956
106,12953
106,12951
106,12949
106,12948
106,12944
106,12934
106,12918
106,12895
106,12869
106,12843
106,12820
106,12804
106,12794
106,12790
106,12789
106,12788
106,12786
107,12782
107,12780
107,12779
108,12778
109,12776
110,12774
112,12771
114,12769
115,12767
116,12766
118,12764
120,12762
121,12762
122,12761
123,12761
126,12760
129,12759
132,12759
134,12759
136,12759
" style="stroke:#036998;stroke-width:0;
stroke-linejoin:bevel; stroke-linecap:butt;
fill:#036998;
"/>
<!-- Line -->
<!--  spline  -->
<polyline points="136,12759
137,12759
141,12759
151,12759
169,12759
195,12759
227,12759
263,12759
299,12759
331,12759
357,12759
375,12759
385,12759
389,12759
390,12759
393,12759
396,12760
399,12760
401,12760
403,12761
405,12762
408,12764
410,12766
411,12767
412,12767
412,12769
414,12771
416,12774
416,12775
417,12776
418,12779
419,12782
420,12785
420,12787
420,12789
420,12790
420,12794
420,12804
420,12820
420,12843
420,12869
420,12895
420,12918
420,12934
420,12944
420,12948
420,12949
420,12950
419,12952
419,12956
418,12958
418,12959
418,12960
417,12962
416,12964
414,12967
412,12969
412,12970
411,12970
410,12971
408,12973
405,12975
404,12976
403,12976
402,12977
399,12978
396,12979
393,12979
391,12979
390,12979
389,12979
385,12979
375,12979
357,12979
331,12979
299,12979
263,12979
227,12979
195,12979
169,12979
151,12979
141,12979
137,12979
136,12979
135,12979
133,12979
129,12978
127,12978
126,12978
125,12977
123,12976
121,12975
118,12973
116,12971
115,12970
114,12969
112,12967
110,12965
109,12964
109,12963
108,12962
107,12959
106,12956
106,12953
106,12951
106,12949
106,12948
106,12944
106,12934
106,12918
106,12895
106,12869
106,12843
106,12820
106,12804
106,12794
106,12790
106,12789
106,12788
106,12786
107,12782
107,12780
107,12779
108,12778
109,12776
110,12774
112,12771
114,12769
115,12767
116,12766
118,12764
120,12762
121,12762
122,12761
123,12761
126,12760
129,12759
132,12759
134,12759
136,12759
" style="stroke:#ffffff;stroke-width:7;
stroke-linejoin:bevel; stroke-linecap:butt;
"/>
<!-- Line -->
<!--  polyline  -->
<polyline points="518,12661
148,12661
73,12726
453,12726
518,12661
" style="stroke:#036998;stroke-width:0;
stroke-linejoin:miter; stroke-linecap:butt;
fill:#036998;
"/>
<!-- Line -->
<!--  polyline  -->
<polyline points="518,12661
148,12661
73,12726
453,12726
518,12661
" style="stroke:#ffffff;stroke-width:7;
stroke-linejoin:miter; stroke-linecap:butt;
"/>
<!-- Line -->
<!--  polyline  -->
<polyline points="444,13192
444,13169
494,13100
494,13142
444,13192
" style="stroke:#036998;stroke-width:0;
stroke-linejoin:miter; stroke-linecap:butt;
fill:#036998;
"/>
<!-- Line -->
<!--  polyline  -->
<polyline points="444,13192
444,13169
494,13100
494,13142
444,13192
" style="stroke:#ffffff;stroke-width:7;
stroke-linejoin:miter; stroke-linecap:butt;
"/>
<!-- Line -->
<!--  polyline  -->
<polyline points="444,13169
7,13169
56,13100
494,13100
444,13169
" style="stroke:#036998;stroke-width:0;
stroke-linejoin:miter; stroke-linecap:butt;
fill:#036998;
"/>
<!-- Line -->
<!--  polyline  -->
<polyline points="444,13169
7,13169
56,13100
494,13100
444,13169
" style="stroke:#ffffff;stroke-width:7;
stroke-linejoin:miter; stroke-linecap:butt;
"/>
<!-- Line -->
<!--  polyline  -->
<polyline points="444,13169
444,13192
6,13192
6,13169
444,13169
" style="stroke:#036998;stroke-width:0;
stroke-linejoin:miter; stroke-linecap:butt;
fill:#036998;
"/>
<!-- Line -->
<!--  polyline  -->
<polyline points="444,13169
444,13192
6,13192
6,13169
444,13169
" style="stroke:#ffffff;stroke-width:7;
stroke-linejoin:miter; stroke-linecap:butt;
"/>
<!-- Line -->
<!--  spline  -->
<polyline points="224,12808
223,12808
216,12807
207,12807
200,12806
199,12806
198,12806
196,12806
192,12807
187,12808
181,12810
176,12812
174,12814
173,12814
171,12816
167,12819
164,12822
163,12824
162,12825
162,12826
160,12830
159,12834
159,12838
159,12840
159,12842
160,12843
159,12843
155,12845
149,12848
145,12850
144,12850
142,12852
141,12854
139,12858
137,12862
136,12866
136,12868
136,12869
136,12871
137,12875
138,12879
139,12880
139,12881
140,12882
142,12885
145,12887
147,12889
149,12890
151,12890
152,12890
152,12891
153,12895
154,12900
155,12904
155,12905
156,12907
158,12909
161,12912
165,12916
169,12919
171,12920
172,12921
175,12921
180,12923
185,12924
188,12925
189,12925
192,12925
197,12924
202,12923
206,12921
209,12919
211,12918
212,12918
212,12917
213,12917
214,12918
217,12921
221,12926
224,12929
225,12930
226,12930
228,12931
233,12933
240,12935
250,12937
260,12938
264,12939
266,12939
271,12939
281,12939
291,12938
295,12938
297,12938
301,12937
309,12935
317,12932
322,12930
325,12928
327,12926
328,12926
329,12926
330,12926
335,12926
343,12925
348,12925
349,12925
352,12924
356,12923
360,12921
365,12918
369,12915
371,12913
372,12911
375,12907
377,12903
378,12901
378,12899
379,12895
379,12891
378,12887
378,12885
377,12883
378,12883
378,12882
379,12882
381,12880
384,12879
386,12877
387,12876
388,12874
388,12871
389,12868
389,12865
389,12863
389,12861
388,12858
387,12855
386,12853
385,12852
382,12849
379,12846
376,12845
373,12844
371,12843
372,12842
372,12841
373,12838
373,12834
374,12831
374,12830
374,12828
373,12826
371,12823
369,12820
366,12817
365,12816
365,12815
363,12814
359,12812
355,12810
353,12809
352,12809
350,12808
344,12807
338,12806
332,12806
328,12807
326,12807
325,12807
324,12806
323,12805
322,12805
317,12802
311,12799
306,12796
305,12796
304,12796
301,12795
296,12793
290,12792
281,12791
273,12791
269,12791
267,12791
264,12791
256,12792
249,12793
245,12794
244,12794
242,12795
236,12798
231,12801
228,12804
226,12807
225,12809
224,12808
" style="stroke:#036998;stroke-width:0;
stroke-linejoin:bevel; stroke-linecap:butt;
fill:#036998;
"/>
<!-- Line -->
<!--  spline  -->
<polyline points="224,12808
223,12808
216,12807
207,12807
200,12806
199,12806
198,12806
196,12806
192,12807
187,12808
181,12810
176,12812
174,12814
173,12814
171,12816
167,12819
164,12822
163,12824
162,12825
162,12826
160,12830
159,12834
159,12838
159,12840
159,12842
160,12843
159,12843
155,12845
149,12848
145,12850
144,12850
142,12852
141,12854
139,12858
137,12862
136,12866
136,12868
136,12869
136,12871
137,12875
138,12879
139,12880
139,12881
140,12882
142,12885
145,12887
147,12889
149,12890
151,12890
152,12890
152,12891
153,12895
154,12900
155,12904
155,12905
156,12907
158,12909
161,12912
165,12916
169,12919
171,12920
172,12921
175,12921
180,12923
185,12924
188,12925
189,12925
192,12925
197,12924
202,12923
206,12921
209,12919
211,12918
212,12918
212,12917
213,12917
214,12918
217,12921
221,12926
224,12929
225,12930
226,12930
228,12931
233,12933
240,12935
250,12937
260,12938
264,12939
266,12939
271,12939
281,12939
291,12938
295,12938
297,12938
301,12937
309,12935
317,12932
322,12930
325,12928
327,12926
328,12926
329,12926
330,12926
335,12926
343,12925
348,12925
349,12925
352,12924
356,12923
360,12921
365,12918
369,12915
371,12913
372,12911
375,12907
377,12903
378,12901
378,12899
379,12895
379,12891
378,12887
378,12885
377,12883
378,12883
378,12882
379,12882
381,12880
384,12879
386,12877
387,12876
388,12874
388,12871
389,12868
389,12865
389,12863
389,12861
388,12858
387,12855
386,12853
385,12852
382,12849
379,12846
376,12845
373,12844
371,12843
372,12842
372,12841
373,12838
373,12834
374,12831
374,12830
374,12828
373,12826
371,12823
369,12820
366,12817
365,12816
365,12815
363,12814
359,12812
355,12810
353,12809
352,12809
350,12808
344,12807
338,12806
332,12806
328,12807
326,12807
325,12807
324,12806
323,12805
322,12805
317,12802
311,12799
306,12796
305,12796
304,12796
301,12795
296,12793
290,12792
281,12791
273,12791
269,12791
267,12791
264,12791
256,12792
249,12793
245,12794
244,12794
242,12795
236,12798
231,12801
228,12804
226,12807
225,12809
224,12808
" style="stroke:#ffffff;stroke-width:7;
stroke-linejoin:bevel; stroke-linecap:butt;
"/>
</g>
</svg>
